<svg height="512pt" viewBox="-6 0 512 512" width="512pt" xmlns="http://www.w3.org/2000/svg"><path d="m500.757812 261.621094c0 138.28125-112.097656 250.378906-250.378906 250.378906-7.441406 0-14.808594-.324219-22.085937-.960938-19.175781-1.675781-95.648438-27.359374-113.59375-38.953124-69.015625-44.582032-114.699219-122.191407-114.699219-210.464844 0-138.28125 112.097656-250.378906 250.378906-250.378906s250.378906 112.097656 250.378906 250.378906zm0 0" fill="#ffc97b"/><path d="m448.640625 430.242188h-357.6875c-11.289063 0-20.4375-9.148438-20.4375-20.4375v-228.578126c0-11.289062 9.148437-20.4375 20.4375-20.4375h357.6875c11.285156 0 20.4375 9.148438 20.4375 20.4375v228.578126c0 11.289062-9.152344 20.4375-20.4375 20.4375zm0 0" fill="#fff1b8"/><path d="m448.640625 430.242188h-327.027344c-11.289062 0-20.441406-9.148438-20.441406-20.4375v-228.578126c0-11.289062 9.152344-20.4375 20.441406-20.4375h327.027344c11.285156 0 20.4375 9.148438 20.4375 20.4375v228.578126c0 11.289062-9.152344 20.4375-20.4375 20.4375zm0 0" fill="#fff7ee"/><path d="m273.882812 301.476562v-10.21875c0-2.820312 2.289063-5.109374 5.109376-5.109374h122.636718c2.820313 0 5.109375 2.289062 5.109375 5.109374v10.21875c0 2.820313-2.289062 5.109376-5.109375 5.109376h-122.636718c-2.820313 0-5.109376-2.289063-5.109376-5.109376zm148.183594 25.550782h-143.074218c-2.820313 0-5.109376 2.285156-5.109376 5.109375v10.21875c0 2.820312 2.289063 5.109375 5.109376 5.109375h143.074218c2.824219 0 5.109375-2.289063 5.109375-5.109375v-10.21875c0-2.824219-2.285156-5.109375-5.109375-5.109375zm10.222656-81.757813h-153.296874c-2.820313 0-5.109376 2.289063-5.109376 5.109375v10.21875c0 2.824219 2.289063 5.109375 5.109376 5.109375h153.296874c2.820313 0 5.109376-2.285156 5.109376-5.109375v-10.21875c0-2.820312-2.289063-5.109375-5.109376-5.109375zm0 0" fill="#ffdc85"/><path d="m469.078125 123.65625v60.296875h-398.148437c-.265626-4.738281-.414063-9.503906-.414063-14.308594 0-2.050781 0-6.132812 0-6.132812v-39.855469c0-11.289062 9.148437-20.4375 20.4375-20.4375h357.6875c11.285156 0 20.4375 9.148438 20.4375 20.4375zm0 0" fill="#f43b5f"/><path d="m100.152344 183.953125v-60.296875c0-11.289062 9.148437-20.4375 20.4375-20.4375h328.050781c11.285156 0 20.4375 9.148438 20.4375 20.4375v60.296875zm0 0" fill="#ff5284"/><path d="m295.34375 20.4375v112.417969c0 11.289062-9.148438 20.4375-20.4375 20.4375h-10.21875c-11.289062 0-20.441406-9.148438-20.441406-20.4375v-112.417969c0-11.285156 9.152344-20.4375 20.441406-20.4375h10.21875c11.289062 0 20.4375 9.152344 20.4375 20.4375zm0 0" fill="#0573cd"/><path d="m326.003906 71.535156v30.660156c0 5.644532-4.574218 10.21875-10.21875 10.21875h-91.976562c-5.644532 0-10.21875-4.574218-10.21875-10.21875v-30.660156c0-5.640625 4.574218-10.21875 10.21875-10.21875h91.976562c5.644532 0 10.21875 4.578125 10.21875 10.21875zm0 0" fill="#4691db"/><path d="m284.105469 86.867188c0 8.464843-6.863281 15.328124-15.332031 15.328124-8.464844 0-15.328126-6.863281-15.328126-15.328124 0-8.46875 6.863282-15.332032 15.328126-15.332032 8.46875 0 15.332031 6.863282 15.332031 15.332032zm0 0" fill="#015aad"/><path d="m291.171875 312.65625c3.730469 6.3125-.816406 14.28125-8.148437 14.28125h-54.730469v184.082031c-41.617188-3.636719-80.316407-17.445312-113.589844-38.941406v-145.140625h-55.148437c-7.328126 0-11.878907-7.972656-8.148438-14.28125l111.734375-189.085938c3.664063-6.199218 12.636719-6.199218 16.300781 0zm0 0" fill="#6fc997"/><path d="m163.140625 123.570312c.050781-.082031.113281-.15625.164063-.238281v373.097657c-17.167969-6.367188-33.445313-14.5625-48.601563-24.351563v-145.140625h-55.148437c-7.328126 0-11.878907-7.972656-8.148438-14.28125zm0 0" fill="#15b568"/></svg>