<svg height="512pt" viewBox="-6 0 512 512" width="512pt" xmlns="http://www.w3.org/2000/svg"><path d="m500.757812 261.621094c0 138.28125-112.097656 250.378906-250.378906 250.378906-126.492187 0-231.074218-93.796875-247.988281-215.632812-.574219-4.144532-2.261719-24.558594-2.359375-30.660157-.0195312-1.359375-.03125-2.722656-.03125-4.085937 0-138.28125 112.097656-250.378906 250.378906-250.378906 95.390625 0 178.320313 53.339843 220.585938 131.824218 3.066406 5.691406 12.257812 26.195313 13.933594 30.660156 10.253906 27.347657 15.859374 56.964844 15.859374 87.894532zm0 0" fill="#8fd5e5"/><path d="m60.296875 185.460938h-48.484375c6.984375-21.90625 16.90625-42.496094 29.296875-61.320313h156.390625c8.464844 0 15.328125 6.863281 15.328125 15.332031 0 8.464844-6.863281 15.328125-15.328125 15.328125h-106.546875c-8.464844 0-15.328125 6.863281-15.328125 15.328125 0 8.46875-6.863281 15.332032-15.328125 15.332032zm311.695313 70.027343h71.535156c8.46875 0 15.332031-6.863281 15.332031-15.328125s-6.863281-15.328125-15.332031-15.328125h-71.535156c-8.464844 0-15.328126 6.863281-15.328126 15.328125s6.863282 15.328125 15.328126 15.328125zm-240.160157-189.0625c0-8.464843-6.863281-15.328125-15.328125-15.328125h-1.703125c-13.859375 8.945313-26.777343 19.230469-38.578125 30.660156h40.28125c8.464844 0 15.328125-6.863281 15.328125-15.332031zm0 296.367188c0-8.464844-6.863281-15.328125-15.328125-15.328125h-101.398437c3.859375 10.574218 8.425781 20.804687 13.613281 30.660156h87.785156c8.464844 0 15.328125-6.863281 15.328125-15.332031zm86.867188 35.769531h-102.195313c-8.464844 0-15.332031 6.863281-15.332031 15.328125 0 8.46875 6.867187 15.332031 15.332031 15.332031h102.195313c8.464843 0 15.328125-6.863281 15.328125-15.332031 0-8.464844-6.863282-15.328125-15.328125-15.328125zm245.269531-91.976562h-183.953125c-8.464844 0-15.328125 6.863281-15.328125 15.332031 0 8.464843-6.863281 15.328125-15.332031 15.328125h-30.222657c-8.257812 0-15.359374 6.34375-15.746093 14.589844-.414063 8.800781 6.601562 16.066406 15.3125 16.066406h107.304687c8.464844 0 15.328125-6.863282 15.328125-15.328125 0-8.464844 6.863281-15.328125 15.332031-15.328125h107.304688c8.464844 0 15.328125-6.863282 15.328125-15.328125 0-8.46875-6.863281-15.332031-15.328125-15.332031zm-86.867188 107.304687c0 8.46875 6.863282 15.332031 15.328126 15.332031h43.949218c8.636719-9.578125 16.535156-19.828125 23.625-30.660156h-67.574218c-8.464844 0-15.328126 6.863281-15.328126 15.328125zm0 0" fill="#b3e8f4"/><path d="m367.902344 117.523438c0 64.910156-52.617188 117.527343-117.523438 117.527343-50.136718 0-92.9375-31.394531-109.824218-75.597656-1.289063-3.375-5.558594-19.015625-6.261719-23.484375-.945313-6.007812-1.4375-12.167969-1.4375-18.445312 0-64.90625 52.617187-117.523438 117.523437-117.523438s117.523438 52.617188 117.523438 117.523438zm0 0" fill="#f43b5f"/><path d="m367.902344 117.523438c0 57.171874-40.820313 104.796874-94.90625 115.34375-54.082032-10.542969-94.90625-58.171876-94.90625-115.34375 0-57.167969 40.824218-104.796876 94.90625-115.339844 54.085937 10.542968 94.90625 58.171875 94.90625 115.339844zm0 0" fill="#ff5284"/><path d="m305.8125 311.777344v48.84375h-17.738281v-48.84375c0-5.851563-3.851563-11.078125-9.363281-12.710938-9.15625-2.707031-18.691407-4.078125-28.332032-4.078125s-19.171875 1.371094-28.328125 4.078125c-5.515625 1.632813-9.367187 6.859375-9.367187 12.710938v48.84375h-17.738282v-48.84375c0-13.65625 9.078126-25.875 22.074219-29.71875 10.792969-3.191406 22.015625-4.808594 33.363281-4.808594 11.34375 0 22.570313 1.617188 33.359376 4.808594 12.996093 3.84375 22.070312 16.0625 22.070312 29.71875zm0 0" fill="#015aad"/><path d="m294.316406 288.550781-13.390625 13.390625c-1.140625 1.136719-2.804687 1.566406-4.351562 1.128906-8.488281-2.421874-17.300781-3.648437-26.195313-3.648437-8.894531 0-17.707031 1.226563-26.195312 3.648437-.398438.113282-.808594.167969-1.214844.167969-1.160156 0-2.292969-.453125-3.136719-1.296875l-13.390625-13.390625c-.953125-.953125-1.421875-2.292969-1.269531-3.636719.15625-1.34375.910156-2.542968 2.058594-3.261718 2.675781-1.667969 5.546875-2.964844 8.53125-3.847656 11.199219-3.3125 22.847656-4.992188 34.617187-4.992188 11.773438 0 23.417969 1.679688 34.617188 4.992188 2.988281.882812 5.855468 2.175781 8.53125 3.847656 1.148437.71875 1.90625 1.917968 2.058594 3.261718.152343 1.339844-.3125 2.679688-1.269532 3.636719zm0 0" fill="#0573cd"/><path d="m219.832031 301.941406-7.292969-7.292968c10.851563-3.359376 22.066407-5.25 33.40625-5.640626v-6.300781c0-1.960937 1.589844-3.550781 3.550782-3.550781h1.769531c1.960937 0 3.550781 1.589844 3.550781 3.550781v6.300781c11.335938.390626 22.554688 2.28125 33.40625 5.636719l-7.296875 7.296875c-1.136719 1.136719-2.800781 1.566406-4.351562 1.125-8.484375-2.417968-17.300781-3.644531-26.191407-3.644531-8.898437 0-17.707031 1.226563-26.195312 3.648437-.402344.113282-.808594.167969-1.214844.167969-1.164062 0-2.296875-.453125-3.140625-1.296875zm116.808594 20.539063h-172.523437c-4.898438 0-8.871094 4.21875-8.871094 9.417969v136.382812c0 5.203125 3.972656 9.417969 8.871094 9.417969h172.523437c4.898437 0 8.871094-4.214844 8.871094-9.417969v-136.382812c0-5.199219-3.972657-9.417969-8.871094-9.417969zm0 0" fill="#0573cd"/><path d="m345.511719 358.820312v110.007813c0 4.898437-3.972657 8.871094-8.871094 8.871094h-155.5c-4.898437 0-8.871094-3.972657-8.871094-8.871094v-63.179687c0-3.921876 4.234375-6.371094 7.644531-4.425782 7.109376 4.058594 15.339844 6.378906 24.117188 6.378906h92.699219c26.941406 0 48.78125-21.839843 48.78125-48.78125zm-8.871094-36.339843h-153.914063c-5.625 0-10.191406 4.546875-10.21875 10.171875l-.214843 43.082031c-.015625 3.429687 1.691406 6.632813 4.539062 8.550781 7.769531 5.234375 17.121094 8.296875 27.195313 8.296875h92.703125c26.941406 0 48.78125-21.84375 48.78125-48.785156v-12.445313c0-4.898437-3.972657-8.871093-8.871094-8.871093zm0 0" fill="#4691db"/><path d="m215.332031 387v26.753906c0 4.898438-3.972656 8.867188-8.871093 8.867188h-2.289063c-4.898437 0-8.871094-3.96875-8.871094-8.867188v-26.753906c0-2.449219 1.988281-4.433594 4.4375-4.433594h11.15625c2.449219 0 4.4375 1.984375 4.4375 4.433594zm85.6875-4.433594h-11.15625c-2.449219 0-4.4375 1.984375-4.4375 4.433594v26.753906c0 4.898438 3.972657 8.867188 8.871094 8.867188h2.289063c4.898437 0 8.871093-3.96875 8.871093-8.867188v-26.753906c0-2.449219-1.984375-4.433594-4.4375-4.433594zm0 0" fill="#b4d2d7"/><path d="m215.332031 387.574219v25.035156c0 4.292969-2.710937 7.949219-6.511719 9.371094-3.796874-1.421875-6.507812-5.074219-6.507812-9.371094v-25.035156c0-2.765625 2.242188-5.007813 5.007812-5.007813h3.003907c2.765625 0 5.007812 2.242188 5.007812 5.007813zm85.117188-5.007813h-3.003907c-2.765624 0-5.007812 2.242188-5.007812 5.007813v25.035156c0 4.292969 2.710938 7.945313 6.511719 9.371094 3.796875-1.425781 6.507812-5.078125 6.507812-9.371094v-25.035156c0-2.765625-2.242187-5.007813-5.007812-5.007813zm0 0" fill="#e1ebf0"/><path d="m366.457031 135.976562c-65.128906 23.003907-167.027343 23.003907-232.15625 0 1.28125 8.132813 3.402344 15.984376 6.261719 23.472657 10.730469 3.136719 22.261719 5.769531 34.378906 7.894531l53.335938 130.664062c1.40625 3.441407 3.800781 6.382813 6.886718 8.453126 3.082032 2.074218 6.714844 3.179687 10.429688 3.179687h9.574219c3.714843 0 7.34375-1.105469 10.429687-3.175781 3.082032-2.074219 5.480469-5.015625 6.882813-8.457032l53.339843-130.664062c12.113282-2.125 23.644532-4.757812 34.375-7.890625 2.863282-7.492187 4.980469-15.34375 6.261719-23.476563zm-111.089843 149.875c-.828126 2.027344-2.800782 3.351563-4.988282 3.351563s-4.160156-1.324219-4.988281-3.351563l-46.996094-115.121093c16.671875 1.902343 34.136719 2.894531 51.984375 2.894531s35.3125-.992188 51.980469-2.894531zm0 0" fill="#fcae51"/><path d="m228.917969 229.941406c0 8.464844-6.863281 15.328125-15.328125 15.328125h-68.480469c-5.640625.003907-10.210937 4.578125-10.210937 10.21875 0 5.644531 4.574218 10.21875 10.21875 10.21875h22.484374c8.464844 0 15.328126 6.863281 15.328126 15.332031 0 8.464844-6.863282 15.328126-15.328126 15.328126h-165.191406c-1.394531-10.042969-2.191406-20.273438-2.3593748-30.660157h94.9921878c5.644531 0 10.21875-4.574219 10.21875-10.21875 0-5.640625-4.570313-10.214843-10.210938-10.21875h-29.644531c-8.46875 0-15.332031-6.863281-15.332031-15.328125 0-8.46875 6.863281-15.332031 15.332031-15.332031h148.183594c8.464844 0 15.328125 6.863281 15.328125 15.332031zm242.042969-86.867187h-78.53125c-5.644532 0-10.21875-4.578125-10.21875-10.21875s4.570312-10.214844 10.210937-10.222657h10.230469c8.464844 0 15.328125-6.863281 15.328125-15.328124 0-8.464844-6.863281-15.328126-15.328125-15.328126h-107.308594c-8.464844 0-15.328125 6.863282-15.328125 15.328126 0 8.464843 6.863281 15.328124 15.328125 15.328124h47.023438c5.636718.007813 10.207031 4.582032 10.207031 10.222657s-4.574219 10.21875-10.21875 10.21875h-16.351563c-8.464844 0-15.328125 6.863281-15.328125 15.328125s6.863281 15.332031 15.328125 15.332031h158.878906c-3.96875-10.578125-8.621093-20.820313-13.921874-30.660156zm0 0" fill="#e1ebf0"/></svg>