<svg height="512pt" viewBox="-6 0 512 512" width="512pt" xmlns="http://www.w3.org/2000/svg"><path d="m500.757812 261.621094c0 138.28125-112.097656 250.378906-250.378906 250.378906-52.296875 0-100.847656-16.03125-141.003906-43.449219-20.292969-13.855469-84.289062-94.1875-93.796875-119.796875-10.074219-27.136718-15.578125-56.492187-15.578125-87.132812 0-138.28125 112.097656-250.378906 250.378906-250.378906s250.378906 112.097656 250.378906 250.378906zm0 0" fill="#ffdc85"/><path d="m240.160156 265.707031h-50.078125c-8.464843 0-15.328125-6.863281-15.328125-15.328125v-122.632812c0-8.46875 6.863282-15.332032 15.328125-15.332032h50.078125c8.464844 0 15.328125 6.863282 15.328125 15.332032v122.632812c0 8.464844-6.863281 15.328125-15.328125 15.328125zm0 0" fill="#059bc3"/><path d="m240.160156 265.707031h-30.660156c-8.464844 0-15.328125-6.863281-15.328125-15.328125v-122.632812c0-8.46875 6.863281-15.332032 15.328125-15.332032h30.660156c8.464844 0 15.328125 6.863282 15.328125 15.332032v122.632812c0 8.464844-6.863281 15.328125-15.328125 15.328125zm0 0" fill="#56bcd6"/><path d="m346.441406 265.707031h-50.074218c-8.464844 0-15.328126-6.863281-15.328126-15.328125v-183.953125c0-8.464843 6.863282-15.328125 15.328126-15.328125h50.074218c8.46875 0 15.332032 6.863282 15.332032 15.328125v183.953125c0 8.464844-6.863282 15.328125-15.332032 15.328125zm0 0" fill="#f43b5f"/><path d="m346.441406 265.707031h-30.65625c-8.464844 0-15.328125-6.863281-15.328125-15.328125v-183.953125c0-8.464843 6.863281-15.328125 15.328125-15.328125h30.65625c8.46875 0 15.332032 6.863282 15.332032 15.328125v183.953125c0 8.464844-6.863282 15.328125-15.332032 15.328125zm0 0" fill="#ff5284"/><path d="m452.726562 265.707031h-50.074218c-8.46875 0-15.332032-6.863281-15.332032-15.328125v-235.050781c0-8.464844 6.863282-15.328125 15.332032-15.328125h50.074218c8.464844 0 15.328126 6.863281 15.328126 15.328125v235.050781c0 8.464844-6.863282 15.328125-15.328126 15.328125zm0 0" fill="#4b9b5e"/><path d="m452.726562 265.707031h-30.660156c-8.464844 0-15.328125-6.863281-15.328125-15.328125v-235.050781c0-8.464844 6.863281-15.328125 15.328125-15.328125h30.660156c8.464844 0 15.328126 6.863281 15.328126 15.328125v235.050781c0 8.464844-6.863282 15.328125-15.328126 15.328125zm0 0" fill="#15b568"/><path d="m477.515625 301.21875c0 6.105469-3.90625 11.523438-9.695313 13.453125l-65.742187 21.914063c-31.261719 10.421874-63.996094 15.730468-96.949219 15.730468h-97.855468c-10.84375 0-21.242188 4.308594-28.90625 11.976563l-70.300782 70.296875-71.535156-71.535156 103.4375-103.4375c19.167969-19.167969 45.160156-29.933594 72.265625-29.933594h142.648437c11.289063 0 20.4375 9.152344 20.4375 20.4375 0 11.289062-9.148437 20.441406-20.4375 20.441406h-102.195312c-5.644531 0-10.222656 4.574219-10.222656 10.21875s4.578125 10.21875 10.222656 10.21875h132.851562l6.402344-2.132812c16.066406-5.355469 32.890625-8.085938 49.824219-8.085938h15.3125c11.285156 0 20.4375 9.152344 20.4375 20.4375zm0 0" fill="#ea9b58"/><path d="m473.300781 288.824219c2.632813 3.441406 4.214844 7.730469 4.214844 12.398437 0 6.101563-3.90625 11.519532-9.695313 13.449219l-65.742187 21.914063c-31.261719 10.421874-63.996094 15.734374-96.949219 15.734374h-97.855468c-10.84375 0-21.242188 4.304688-28.90625 11.972657l-70.300782 70.300781-71.535156-71.539062 49.058594 49.058593 70.300781-70.296875c7.664063-7.667968 18.0625-11.976562 28.902344-11.976562h120.335937c32.953125 0 65.6875-5.308594 96.949219-15.730469l65.742187-21.914063c2.109376-.703124 3.964844-1.875 5.480469-3.371093zm0 0" fill="#d88a55"/><path d="m375.320312 249.613281c0 8.464844-6.863281 15.328125-15.332031 15.328125h-5.109375c-5.644531 0-10.21875-4.574218-10.21875-10.21875v-10.21875c0-5.644531 4.574219-10.21875 10.21875-10.21875h5.109375c8.46875 0 15.332031 6.863282 15.332031 15.328125zm0 0" fill="#f6a96c"/><path d="m151.058594 387.722656c7.984375 7.984375 7.984375 20.925782 0 28.90625l-22.949219 22.953125c-37.519531-27.257812-67.171875-64.671875-84.925781-108.214843l11.308594-11.308594c7.980468-7.980469 20.925781-7.980469 28.90625 0zm0 0" fill="#b4d2d7"/><path d="m151.058594 387.722656c7.984375 7.984375 7.984375 20.925782 0 28.90625l-22.949219 22.953125c-29.328125-21.308593-53.851563-48.824219-71.640625-80.621093l18.460938-18.460938c7.984374-7.984375 20.925781-7.984375 28.90625 0zm0 0" fill="#e1ebf0"/><path d="m144.378906 419.078125c3.988282 3.992187 3.988282 10.464844 0 14.453125l-35.003906 35.003906c-42.496094-29.015625-75.59375-70.78125-93.785156-119.789062l22-22.003906c3.992187-3.988282 10.460937-3.988282 14.453125 0zm0 0" fill="#0573cd"/><path d="m144.378906 419.078125c3.988282 3.992187 3.988282 10.464844 0 14.453125l-35.003906 35.003906c-32.914062-22.472656-60.195312-52.585937-79.273438-87.796875l30.742188-30.742187c3.988281-3.992188 10.460938-3.992188 14.449219 0zm0 0" fill="#4691db"/></svg>