<svg height="512pt" viewBox="-6 0 512 512" width="512pt" xmlns="http://www.w3.org/2000/svg"><path d="m500.757812 261.621094c0 41.007812-9.859374 79.714844-27.335937 113.878906-4.996094 9.765625-29.757813 45.65625-37.035156 53.730469-45.828125 50.820312-112.1875 82.769531-186.007813 82.769531-74.105468 0-140.691406-32.195312-186.535156-83.359375-6.277344-7.007813-30.960938-42.296875-36.507812-53.140625-17.476563-34.164062-27.335938-72.871094-27.335938-113.878906 0-138.28125 112.097656-250.378906 250.378906-250.378906s250.378906 112.097656 250.378906 250.378906zm0 0" fill="#15b568"/><path d="m473.421875 217.660156v112.984375c0 37.433594-13.894531 73.636719-39.335937 101.09375-8.863282 9.5625-18.460938 18.433594-28.707032 26.523438h-95.472656c-3.167969 0-9.167969 0-16.863281 0-7.464844 11.175781-23.753907 18.933593-42.664063 18.933593s-35.199218-7.753906-42.664062-18.933593c-7.691406 0-13.695313 0-16.863282 0h-95.472656c-11.21875-8.859375-21.664062-18.652344-31.214844-29.269531-23.871093-26.542969-36.828124-61.132813-36.828124-96.832032v-114.5c38.996093-76.222656 115.921874-129.8125 205.875-135.902344 6.339843 3.851563 12.113281 8.539063 17.167968 13.910157 5.054688-5.371094 10.828125-10.058594 17.167969-13.910157 89.953125 6.089844 166.878906 59.679688 205.875 135.902344zm0 0" fill="#4b9b5e"/><path d="m402.140625 91.976562h-71.539063v-61.316406c0-16.933594 13.726563-30.660156 30.660157-30.660156h40.878906zm0 0" fill="#f43b5f"/><path d="m473.421875 51.097656v324.398438c-9.996094 19.535156-22.484375 37.582031-37.042969 53.726562h-126.472656c-15.925781 0-30.78125 4.558594-43.347656 12.441406-9.851563 6.183594-22.507813 6.183594-32.359375 0-12.566407-7.882812-27.421875-12.441406-43.347657-12.441406h-126.472656c-14.554687-16.144531-27.046875-34.191406-37.042968-53.726562v-324.398438c0-5.644531 4.578124-10.21875 10.222656-10.21875h153.292968c16.503907 0 31.855469 4.90625 44.707032 13.320313h.003906c.75.492187 1.488281.996093 2.21875 1.507812.066406.050781.132812.097657.203125.144531 2.195313 1.554688 4.308594 3.210938 6.339844 4.96875.042969.039063.089843.078126.136719.117188 2.066406 1.800781 4.042968 3.695312 5.917968 5.691406 1.878906-1.996094 3.851563-3.894531 5.921875-5.691406.042969-.039062.089844-.078125.136719-.117188 2.027344-1.757812 4.144531-3.414062 6.339844-4.96875.066406-.046874.132812-.09375.203125-.144531.730469-.511719 1.46875-1.015625 2.21875-1.507812 12.851562-8.414063 28.203125-13.320313 44.707031-13.320313h153.296875c5.644531 0 10.21875 4.574219 10.21875 10.21875zm0 0" fill="#fff7ee"/><path d="m54.675781 332.300781c0 35.539063 12.875 69.980469 36.605469 96.433594.144531.164063.289062.324219.4375.484375h-27.339844c-14.554687-16.144531-27.046875-34.1875-37.042968-53.722656v-324.398438c0-5.644531 4.578124-10.21875 10.222656-10.21875h27.335937c-5.644531 0-10.21875 4.574219-10.21875 10.21875zm0 0" fill="#fff1b8"/><path d="m70.515625 388.34375c0 5.644531-4.574219 10.21875-10.21875 10.21875s-10.222656-4.574219-10.222656-10.21875 4.578125-10.21875 10.222656-10.21875 10.21875 4.574219 10.21875 10.21875zm-15.328125-112.414062h71.535156c2.820313 0 5.109375-2.289063 5.109375-5.109376v-10.222656c0-2.820312-2.289062-5.109375-5.109375-5.109375h-71.535156c-2.824219 0-5.113281 2.289063-5.113281 5.109375v10.222656c0 2.820313 2.289062 5.109376 5.113281 5.109376zm148.183594 61.316406h-148.183594c-2.824219 0-5.113281 2.289062-5.113281 5.109375v10.21875c0 2.820312 2.289062 5.109375 5.113281 5.109375h148.183594c2.820312 0 5.109375-2.289063 5.109375-5.109375v-10.21875c0-2.820313-2.289063-5.109375-5.109375-5.109375zm0-40.878906h-148.183594c-2.824219 0-5.113281 2.289062-5.113281 5.109374v10.21875c0 2.824219 2.289062 5.109376 5.113281 5.109376h148.183594c2.820312 0 5.109375-2.285157 5.109375-5.109376v-10.21875c0-2.820312-2.289063-5.109374-5.109375-5.109374zm0-81.757813h-148.183594c-2.824219 0-5.113281 2.289063-5.113281 5.109375v10.222656c0 2.820313 2.289062 5.109375 5.113281 5.109375h148.183594c2.820312 0 5.109375-2.289062 5.109375-5.109375v-10.222656c0-2.820312-2.289063-5.109375-5.109375-5.109375zm-148.183594-122.632813h71.535156c2.820313 0 5.109375-2.289062 5.109375-5.109374v-10.21875c0-2.824219-2.289062-5.113282-5.109375-5.113282h-71.535156c-2.824219 0-5.113281 2.289063-5.113281 5.113282v10.21875c0 2.820312 2.289062 5.109374 5.113281 5.109374zm240.15625 0h71.539062c2.820313 0 5.109376-2.289062 5.109376-5.109374v-10.21875c0-2.824219-2.289063-5.113282-5.109376-5.113282h-71.539062c-2.820312 0-5.109375 2.289063-5.109375 5.113282v10.21875c0 2.820312 2.289063 5.109374 5.109375 5.109374zm0 183.953126h71.539062c2.820313 0 5.109376-2.289063 5.109376-5.109376v-10.222656c0-2.820312-2.289063-5.109375-5.109376-5.109375h-71.539062c-2.820312 0-5.109375 2.289063-5.109375 5.109375v10.222656c0 2.820313 2.289063 5.109376 5.109375 5.109376zm-91.972656-102.195313h-148.183594c-2.824219 0-5.113281 2.285156-5.113281 5.109375v10.21875c0 2.820312 2.289062 5.109375 5.113281 5.109375h148.183594c2.820312 0 5.109375-2.289063 5.109375-5.109375v-10.21875c0-2.824219-2.289063-5.109375-5.109375-5.109375zm240.15625 40.875h-148.183594c-2.820312 0-5.109375 2.289063-5.109375 5.109375v10.222656c0 2.820313 2.289063 5.109375 5.109375 5.109375h148.183594c2.824218 0 5.113281-2.289062 5.113281-5.109375v-10.222656c0-2.820312-2.289063-5.109375-5.113281-5.109375zm0-40.875h-148.183594c-2.820312 0-5.109375 2.285156-5.109375 5.109375v10.21875c0 2.820312 2.289063 5.109375 5.109375 5.109375h148.183594c2.824218 0 5.113281-2.289063 5.113281-5.109375v-10.21875c0-2.824219-2.289063-5.109375-5.113281-5.109375zm0 122.632813h-148.183594c-2.820312 0-5.109375 2.289062-5.109375 5.109374v10.21875c0 2.824219 2.289063 5.109376 5.109375 5.109376h148.183594c2.824218 0 5.113281-2.285157 5.113281-5.109376v-10.21875c0-2.820312-2.289063-5.109374-5.113281-5.109374zm-5.109375 81.757812c-5.644531 0-10.21875 4.574219-10.21875 10.21875s4.574219 10.21875 10.21875 10.21875 10.222656-4.574219 10.222656-10.21875-4.578125-10.21875-10.222656-10.21875zm-235.046875-245.269531h-148.183594c-2.824219 0-5.113281 2.285156-5.113281 5.109375v10.21875c0 2.820312 2.289062 5.109375 5.113281 5.109375h148.183594c2.820312 0 5.109375-2.289063 5.109375-5.109375v-10.21875c0-2.824219-2.289063-5.109375-5.109375-5.109375zm240.15625 204.390625h-148.183594c-2.820312 0-5.109375 2.289062-5.109375 5.109375v10.21875c0 2.820312 2.289063 5.109375 5.109375 5.109375h148.183594c2.824218 0 5.113281-2.289063 5.113281-5.109375v-10.21875c0-2.820313-2.289063-5.109375-5.113281-5.109375zm0-204.390625h-148.183594c-2.820312 0-5.109375 2.285156-5.109375 5.109375v10.21875c0 2.820312 2.289063 5.109375 5.109375 5.109375h148.183594c2.824218 0 5.113281-2.289063 5.113281-5.109375v-10.21875c0-2.824219-2.289063-5.109375-5.113281-5.109375zm0 0" fill="#ffdc85"/><path d="m234.25 441.703125c-1.980469-1.242187-4.011719-2.402344-6.097656-3.476563v-315.59375c0-21.679687 8.453125-41.371093 22.226562-56.007812 13.773438 14.632812 22.226563 34.328125 22.226563 56.007812v315.59375c-2.085938 1.074219-4.117188 2.234376-6.09375 3.476563-9.824219 6.167969-22.441407 6.167969-32.261719 0zm0 0" fill="#ffe899"/><path d="m448.640625 30.660156v93.390625c0 3.921875-4.238281 6.382813-7.648437 4.433594l-28.121094-16.070313-28.125 16.070313c-3.40625 1.949219-7.644532-.511719-7.644532-4.433594v-93.390625c0-14.378906-9.898437-26.4375-23.25-29.753906 2.375-.589844 4.855469-.90625 7.410157-.90625h56.71875c16.933593 0 30.660156 13.726562 30.660156 30.660156zm0 0" fill="#ff5284"/></svg>