<svg height="512pt" viewBox="-6 0 512 512" width="512pt" xmlns="http://www.w3.org/2000/svg"><path d="m63.316406 422.28125c-2.636718.546875-5.335937-.433594-7.039062-2.519531-35.171875-43.117188-56.277344-98.160157-56.277344-158.140625 0-138.28125 112.097656-250.378906 250.378906-250.378906s250.378906 112.097656 250.378906 250.378906c0 59.980468-21.105468 115.023437-56.273437 158.140625-1.703125 2.085937-4.40625 3.066406-7.042969 2.519531-57.691406-11.996094-120.855468-18.609375-187.0625-18.609375-66.207031 0-129.371094 6.613281-187.0625 18.609375zm0 0" fill="#b3e8f4"/><path d="m378.125 89.785156v112.5625h-40.878906v-112.5625c0-13.484375-8.875-25.527344-21.582032-29.285156-21.101562-6.238281-43.066406-9.402344-65.285156-9.402344s-44.183594 3.164063-65.285156 9.402344c-12.707031 3.757812-21.582031 15.800781-21.582031 29.285156v112.5625h-40.878907v-112.5625c0-31.464844 20.917969-59.628906 50.871094-68.484375 24.863282-7.351562 50.730469-11.082031 76.875-11.082031 26.148438 0 52.011719 3.730469 76.878906 11.082031 29.949219 8.855469 50.867188 37.019531 50.867188 68.484375zm0 0" fill="#b76458"/><path d="m351.625 36.265625-30.855469 30.855469c-2.625 2.625-6.460937 3.621094-10.027343 2.601562-19.558594-5.578125-39.867188-8.40625-60.363282-8.40625s-40.804687 2.828125-60.363281 8.40625c-.921875.265625-1.867187.394532-2.800781.394532-2.671875 0-5.28125-1.050782-7.226563-2.992188l-30.855469-30.859375c-2.203124-2.199219-3.28125-5.289063-2.925781-8.382813.351563-3.09375 2.097657-5.859374 4.738281-7.511718 6.164063-3.851563 12.78125-6.835938 19.660157-8.867188 25.808593-7.636718 52.648437-11.503906 79.773437-11.503906 27.128906 0 53.96875 3.867188 79.777344 11.5 6.878906 2.035156 13.492188 5.019531 19.660156 8.871094 2.640625 1.652344 4.386719 4.414062 4.738282 7.511718.351562 3.09375-.726563 6.179688-2.929688 8.382813zm0 0" fill="#f2806d"/><path d="m163.179688 50.3125c11.03125-3.414062 22.230468-6.164062 33.542968-8.257812l-2.761718-10.304688c-1.460938-5.453125 1.773437-11.054688 7.226562-12.515625s11.054688 1.773437 12.515625 7.226563l3.363281 12.550781c7.664063-.871094 15.367188-1.4375 23.09375-1.703125v-12.46875c0-5.644532 4.574219-10.222656 10.21875-10.222656 5.644532 0 10.21875 4.578124 10.21875 10.222656v12.46875c7.726563.265625 15.429688.832031 23.09375 1.703125l3.363282-12.550781c1.457031-5.453126 7.0625-8.6875 12.515624-7.226563 5.449219 1.460937 8.683594 7.0625 7.226563 12.515625l-2.761719 10.304688c11.3125 2.09375 22.507813 4.84375 33.542969 8.257812l-16.808594 16.808594c-2.625 2.625-6.460937 3.621094-10.027343 2.601562-19.558594-5.578125-39.867188-8.40625-60.363282-8.40625s-40.804687 2.828125-60.363281 8.40625c-.921875.265625-1.867187.394532-2.800781.394532-2.671875 0-5.28125-1.050782-7.226563-2.992188zm260.933593 82.542969h-347.464843c-11.289063 0-20.441407 9.148437-20.441407 20.4375v266.390625c45.910157 56.332031 115.835938 92.316406 194.171875 92.316406 78.335938 0 148.261719-35.984375 194.171875-92.316406v-266.390625c0-11.289063-9.152343-20.4375-20.4375-20.4375zm0 0" fill="#db655d"/><path d="m444.550781 194.171875v225.511719c-45.910156 56.332031-115.835937 92.316406-194.171875 92.316406-60.574218 0-116.121094-21.511719-159.425781-57.308594v-168.070312c0-4.246094 4.898437-6.664063 8.234375-4.035156 19.117188 15.03125 43.226562 24 69.433594 24h163.515625c62.082031 0 112.414062-50.328126 112.414062-112.414063zm-9.011719-57.828125c-1.085937-.734375-2.25-1.367188-3.472656-1.882812-2.445312-1.035157-5.132812-1.605469-7.953125-1.605469h-312.71875c-11.289062 0-20.441406 9.148437-20.441406 20.4375v86.988281c0 2.914062 1.230469 5.707031 3.414063 7.632812 19.804687 17.4375 45.796874 28.015626 74.253906 28.015626h163.515625c62.082031 0 112.414062-50.332032 112.414062-112.417969v-10.21875c0-7.054688-3.574219-13.273438-9.011719-16.949219zm0 0" fill="#f2806d"/><path d="m158.402344 337.246094c-11.289063 0-20.4375-9.152344-20.4375-20.441406v-51.097657c0-5.644531 4.574218-10.21875 10.21875-10.21875h20.4375c5.644531 0 10.222656 4.574219 10.222656 10.21875v51.097657c0 11.289062-9.152344 20.441406-20.441406 20.441406zm204.390625-20.441406v-51.097657c0-5.644531-4.574219-10.21875-10.21875-10.21875h-20.4375c-5.644531 0-10.21875 4.574219-10.21875 10.21875v51.097657c0 11.289062 9.148437 20.441406 20.4375 20.441406 11.289062 0 20.4375-9.152344 20.4375-20.441406zm0 0" fill="#fcae51"/><path d="m162.492188 255.488281h6.128906c5.644531 0 10.222656 4.574219 10.222656 10.21875v51.097657c0 8.769531-5.53125 16.226562-13.285156 19.128906-7.757813-2.902344-13.289063-10.359375-13.289063-19.128906v-51.097657c0-5.644531 4.578125-10.21875 10.222657-10.21875zm173.730468 10.21875v51.097657c0 8.769531 5.53125 16.226562 13.285156 19.128906 7.753907-2.902344 13.285157-10.359375 13.285157-19.128906v-51.097657c0-5.644531-4.574219-10.21875-10.21875-10.21875h-6.132813c-5.640625 0-10.21875 4.574219-10.21875 10.21875zm0 0" fill="#ffdc85"/><path d="m173.734375 311.695312c0 8.46875-6.867187 15.332032-15.332031 15.332032s-15.328125-6.863282-15.328125-15.332032c0-8.464843 6.863281-15.328124 15.328125-15.328124s15.332031 6.863281 15.332031 15.328124zm168.621094-15.328124c-8.464844 0-15.328125 6.863281-15.328125 15.328124 0 8.46875 6.863281 15.332032 15.328125 15.332032 8.464843 0 15.328125-6.863282 15.328125-15.332032 0-8.464843-6.863282-15.328124-15.328125-15.328124zm0 0" fill="#f9b65d"/></svg>