<svg height="512pt" viewBox="-6 0 512 512" width="512pt" xmlns="http://www.w3.org/2000/svg"><path d="m0 261.621094c0-138.28125 112.097656-250.378906 250.378906-250.378906 138.460938 0 251.101563 113.253906 250.375 251.714843-.339844 64.996094-25.449218 124.128907-66.371094 168.445313-25.980468 28.136718-66.367187 38.128906-102.585937 25.675781-25.523437-8.78125-52.914063-13.550781-81.417969-13.550781-46.121094 0-89.320312 12.484375-126.425781 34.238281-74.152344-43.46875-123.953125-123.984375-123.953125-216.144531zm0 0" fill="#8fd5e5"/><path d="m388.34375 51.097656v143.074219l.21875 179.222656c0 75.539063-60.902344 137.128907-136.4375 137.582031-.507812.003907-2.257812 0-2.765625 0-14.074219 0-26.855469-.136718-40.296875-2.371093-35.25-5.859375-68.007812-19.085938-96.644531-38.035157v-419.472656c0-11.289062 9.148437-20.4375 20.4375-20.4375h235.050781c11.285156 0 20.4375 9.148438 20.4375 20.4375zm0 0" fill="#0573cd"/><path d="m388.34375 51.097656v381.285156c0 25.894532-18.105469 47.683594-41.902344 57.902344-30.273437 12.996094-62.046875 20.691406-97.085937 20.691406-14.070313 0-26.851563-.136718-40.292969-2.371093-23.617188-3.921875-46.117188-11.148438-67.011719-21.191407v-466.976562c0-11.285156 9.152344-20.4375 20.441407-20.4375h173.730468c11.289063 0 20.441406 9.152344 20.441406 20.4375v10.222656h11.238282c11.289062 0 20.441406 9.148438 20.441406 20.4375zm0 0" fill="#4691db"/><path d="m356.664062 71.535156v71.539063c0 5.644531-4.578124 10.21875-10.222656 10.21875h-20.4375c-5.644531 0-10.21875-4.574219-10.21875-10.21875v-71.539063c0-5.640625 4.574219-10.21875 10.21875-10.21875h20.4375c5.644532 0 10.222656 4.578125 10.222656 10.21875zm-86.867187-10.21875h-20.441406c-5.640625 0-10.21875 4.578125-10.21875 10.21875v71.539063c0 5.644531 4.578125 10.21875 10.21875 10.21875h20.441406c5.644531 0 10.21875-4.574219 10.21875-10.21875v-71.539063c0-5.640625-4.574219-10.21875-10.21875-10.21875zm-76.648437 0h-20.4375c-5.644532 0-10.21875 4.578125-10.21875 10.21875v71.539063c0 5.644531 4.574218 10.21875 10.21875 10.21875h20.4375c5.644531 0 10.222656-4.574219 10.222656-10.21875v-71.539063c0-5.640625-4.578125-10.21875-10.222656-10.21875zm153.292968 122.636719h-20.4375c-5.644531 0-10.21875 4.574219-10.21875 10.21875v71.535156c0 5.644531 4.574219 10.222657 10.21875 10.222657h20.4375c5.644532 0 10.222656-4.578126 10.222656-10.222657v-71.535156c0-5.644531-4.578124-10.21875-10.222656-10.21875zm-76.644531 0h-20.441406c-5.640625 0-10.21875 4.574219-10.21875 10.21875v71.535156c0 5.644531 4.578125 10.222657 10.21875 10.222657h20.441406c5.644531 0 10.21875-4.578126 10.21875-10.222657v-71.535156c0-5.644531-4.574219-10.21875-10.21875-10.21875zm-76.648437 0h-20.4375c-5.644532 0-10.21875 4.574219-10.21875 10.21875v71.535156c0 5.644531 4.574218 10.222657 10.21875 10.222657h20.4375c5.644531 0 10.222656-4.578126 10.222656-10.222657v-71.535156c0-5.644531-4.578125-10.21875-10.222656-10.21875zm153.292968 122.632813h-20.4375c-5.644531 0-10.21875 4.578124-10.21875 10.21875v71.539062c0 5.644531 4.574219 10.21875 10.21875 10.21875h20.4375c5.644532 0 10.222656-4.574219 10.222656-10.21875v-71.539062c0-5.640626-4.578124-10.21875-10.222656-10.21875zm-76.644531 0h-20.441406c-5.640625 0-10.21875 4.578124-10.21875 10.21875v71.539062c0 5.644531 4.578125 10.21875 10.21875 10.21875h20.441406c5.644531 0 10.21875-4.574219 10.21875-10.21875v-71.539062c0-5.640626-4.574219-10.21875-10.21875-10.21875zm-76.648437 0h-20.4375c-5.644532 0-10.21875 4.578124-10.21875 10.21875v71.539062c0 5.644531 4.574218 10.21875 10.21875 10.21875h20.4375c5.644531 0 10.222656-4.574219 10.222656-10.21875v-71.539062c0-5.640626-4.578125-10.21875-10.222656-10.21875zm0 122.636718h-20.4375c-5.644532 0-10.21875 4.574219-10.21875 10.21875v56.679688c13.136718 4.925781 26.796874 8.777344 40.878906 11.453125v-68.132813c0-5.644531-4.578125-10.21875-10.222656-10.21875zm76.648437 0h-20.441406c-5.640625 0-10.21875 4.574219-10.21875 10.21875v68.472656c0 .253907.019531.507813.039062.757813 3.714844.164063 7.449219.261719 11.203125.261719 10.03125 0 19.917969-.605469 29.636719-1.753906v-67.738282c0-5.644531-4.574219-10.21875-10.21875-10.21875zm0 0" fill="#0573cd"/><path d="m259.578125 316.804688v71.539062c0 5.644531 4.574219 10.21875 10.21875 10.21875h-20.441406c-5.640625 0-10.21875-4.574219-10.21875-10.21875v-71.539062c0-5.640626 4.578125-10.21875 10.21875-10.21875h20.441406c-5.644531 0-10.21875 4.578124-10.21875 10.21875zm10.21875-132.851563h-20.441406c-5.640625 0-10.21875 4.574219-10.21875 10.21875v71.535156c0 5.644531 4.578125 10.222657 10.21875 10.222657h20.441406c-5.644531 0-10.21875-4.578126-10.21875-10.222657v-71.535156c0-5.644531 4.574219-10.21875 10.21875-10.21875zm0-122.636719h-20.441406c-5.640625 0-10.21875 4.578125-10.21875 10.21875v71.539063c0 5.644531 4.578125 10.21875 10.21875 10.21875h20.441406c-5.644531 0-10.21875-4.574219-10.21875-10.21875v-71.539063c0-5.640625 4.574219-10.21875 10.21875-10.21875zm66.425781 81.757813v-71.539063c0-5.640625 4.578125-10.21875 10.21875-10.21875h-20.4375c-5.644531 0-10.21875 4.578125-10.21875 10.21875v71.539063c0 5.644531 4.574219 10.21875 10.21875 10.21875h20.4375c-5.640625 0-10.21875-4.574219-10.21875-10.21875zm10.21875 40.878906h-20.4375c-5.644531 0-10.21875 4.574219-10.21875 10.21875v71.535156c0 5.644531 4.574219 10.222657 10.21875 10.222657h20.4375c-5.640625 0-10.21875-4.578126-10.21875-10.222657v-71.535156c0-5.644531 4.578125-10.21875 10.21875-10.21875zm-153.292968 122.632813h-20.4375c-5.644532 0-10.21875 4.578124-10.21875 10.21875v71.539062c0 5.644531 4.574218 10.21875 10.21875 10.21875h20.4375c-5.644532 0-10.21875-4.574219-10.21875-10.21875v-71.539062c0-5.640626 4.574218-10.21875 10.21875-10.21875zm45.988281 132.855468v68.472656c0 .253907.019531.507813.039062.757813 3.714844.164063 7.449219.261719 11.203125.261719 3.082032 0 6.144532-.074219 9.199219-.1875v-69.304688c0-5.644531 4.574219-10.21875 10.21875-10.21875h-20.441406c-5.640625 0-10.21875 4.574219-10.21875 10.21875zm107.304687-132.855468h-20.4375c-5.644531 0-10.21875 4.578124-10.21875 10.21875v71.539062c0 5.644531 4.574219 10.21875 10.21875 10.21875h20.4375c-5.640625 0-10.21875-4.574219-10.21875-10.21875v-71.539062c0-5.640626 4.578125-10.21875 10.21875-10.21875zm-153.292968-245.269532h-20.4375c-5.644532 0-10.21875 4.578125-10.21875 10.21875v71.539063c0 5.644531 4.574218 10.21875 10.21875 10.21875h20.4375c-5.644532 0-10.21875-4.574219-10.21875-10.21875v-71.539063c0-5.640625 4.574218-10.21875 10.21875-10.21875zm-30.65625 378.125v56.679688c6.679687 2.507812 13.5 4.730468 20.4375 6.664062v-63.34375c0-5.644531 4.574218-10.21875 10.21875-10.21875h-20.4375c-5.644532 0-10.21875 4.574219-10.21875 10.21875zm30.65625-255.488281h-20.4375c-5.644532 0-10.21875 4.574219-10.21875 10.21875v71.535156c0 5.644531 4.574218 10.222657 10.21875 10.222657h20.4375c-5.644532 0-10.21875-4.578126-10.21875-10.222657v-71.535156c0-5.644531 4.574218-10.21875 10.21875-10.21875zm0 0" fill="#015aad"/><path d="m208.480469 275.929688c-8.46875 0-15.332031 6.863281-15.332031 15.328124 0 8.464844-6.863282 15.328126-15.328126 15.328126h-143.074218c-8.710938 0-15.726563-7.265626-15.3125-16.070313.390625-8.246094 7.492187-14.585937 15.746094-14.585937h30.226562c8.464844 0 15.328125-6.863282 15.328125-15.332032 0-8.464844 6.863281-15.328125 15.328125-15.328125h183.953125c8.710937 0 15.726563 7.265625 15.3125 16.070313-.386719 8.246094-7.492187 14.589844-15.746094 14.589844zm122.632812-102.195313h81.757813c8.464844 0 15.328125-6.867187 15.328125-15.332031s-6.863281-15.328125-15.328125-15.328125h-81.757813c-8.464843 0-15.328125 6.863281-15.328125 15.328125s6.863282 15.332031 15.328125 15.332031zm-291.257812 25.546875c0-8.464844 6.863281-15.328125 15.332031-15.328125h30.222656c8.253906 0 15.355469-6.34375 15.746094-14.589844.414062-8.804687-6.601562-16.070312-15.3125-16.070312h-61.257812c-9.230469 19.207031-16.066407 39.777343-20.160157 61.316406h20.101563c8.464844 0 15.328125-6.863281 15.328125-15.328125zm245.269531 246.292969c0 8.464843 6.863281 15.328125 15.332031 15.328125h25.546875c5.644532 0 10.21875 4.574218 10.21875 10.21875 0 5.644531-4.574218 10.21875-10.21875 10.21875h-107.304687c-8.464844 0-15.328125 6.863281-15.328125 15.332031 0 4.8125 2.222656 9.105469 5.695312 11.914063 13.441406 2.234374 27.238282 3.414062 41.3125 3.414062 73.328125 0 139.289063-31.523438 185.082032-81.757812h-135.003907c-8.46875 0-15.332031 6.863281-15.332031 15.332031zm215.085938-200.304688h-15.804688c-8.464844 0-15.328125 6.863281-15.328125 15.328125 0 8.46875-6.863281 15.332032-15.328125 15.332032h-30.226562c-8.253907 0-15.355469 6.339843-15.746094 14.585937-.414063 8.804687 6.601562 16.070313 15.3125 16.070313h73.632812c2.648438-14.585938 4.035156-29.613282 4.035156-44.964844 0-5.496094-.195312-10.945313-.546874-16.351563zm0 0" fill="#b3e8f4"/></svg>