<svg height="512pt" viewBox="-6 0 512 512.00026" width="512pt" xmlns="http://www.w3.org/2000/svg"><path d="m500.757812 261.621094c0 71.75-30.179687 136.453125-78.542968 182.105468-44.839844 42.328126-355.941406 11.132813-396.710938-71.882812-16.332031-33.257812-25.503906-70.667969-25.503906-110.222656 0-138.28125 112.097656-250.378906 250.378906-250.378906s250.378906 112.097656 250.378906 250.378906zm0 0" fill="#8fd5e5"/><path d="m451.75 112.289062h-29.542969v331.429688c-8.328125 7.863281-17.199219 15.160156-26.546875 21.828125-14.554687 10.386719-34.769531-.105469-34.769531-17.984375v-335.273438h-29.769531c-3.957032 0-6.410156-4.304687-4.398438-7.710937l60.3125-102.066406c1.980469-3.347657 6.820313-3.347657 8.800782 0l60.3125 102.066406c2.015624 3.40625-.441407 7.710937-4.398438 7.710937zm0 0" fill="#ff5284"/><path d="m360.890625 371.617188v-259.328126h-29.769531c-3.957032 0-6.410156-4.304687-4.398438-7.710937l60.316406-102.066406c.023438-.046875.058594-.085938.085938-.128907v369.234376zm0 0" fill="#f43b5f"/><path d="m103.140625 283.082031v-95.503906c0-26.699219 17.75-50.597656 43.164063-58.113281 21.097656-6.238282 43.042968-9.398438 65.226562-9.398438s44.132812 3.164063 65.230469 9.398438c25.410156 7.515625 43.160156 31.414062 43.160156 58.113281v95.503906h-34.683594v-95.503906c0-11.445313-7.53125-21.664063-18.3125-24.851563-17.902343-5.292968-36.539062-7.976562-55.394531-7.976562-18.851562 0-37.488281 2.683594-55.390625 7.976562-10.78125 3.191407-18.3125 13.40625-18.3125 24.851563v95.503906zm0 0" fill="#015aad"/><path d="m297.4375 142.164062-26.179688 26.179688c-2.226562 2.226562-5.484374 3.070312-8.511718 2.207031-16.59375-4.730469-33.824219-7.128906-51.214844-7.128906s-34.625 2.398437-51.21875 7.128906c-.78125.226563-1.582031.335938-2.375.335938-2.269531 0-4.484375-.890625-6.132812-2.539063l-26.179688-26.183594c-1.871094-1.867187-2.785156-4.488281-2.484375-7.113281.296875-2.625 1.78125-4.972656 4.019531-6.371093 5.230469-3.269532 10.84375-5.800782 16.683594-7.527344 21.894531-6.476563 44.667969-9.757813 67.6875-9.757813 23.015625 0 45.789062 3.28125 67.6875 9.757813 5.835938 1.726562 11.449219 4.257812 16.679688 7.527344 2.242187 1.398437 3.722656 3.746093 4.023437 6.371093s-.613281 5.246094-2.484375 7.113281zm0 0" fill="#4691db"/><path d="m137.542969 154.085938c9.363281-2.898438 18.863281-5.234376 28.460937-7.011719l-2.339844-8.742188c-1.242187-4.625 1.503907-9.378906 6.128907-10.621093 4.628906-1.238282 9.382812 1.507812 10.621093 6.132812l2.851563 10.648438c6.503906-.738282 13.039063-1.214844 19.597656-1.445313v-10.578125c0-4.789062 3.878907-8.671875 8.667969-8.671875s8.671875 3.882813 8.671875 8.671875v10.578125c6.558594.230469 13.09375.707031 19.59375 1.445313l2.855469-10.648438c1.238281-4.625 5.992187-7.371094 10.621094-6.132812 4.625 1.242187 7.367187 5.996093 6.128906 10.621093l-2.339844 8.742188c9.597656 1.777343 19.097656 4.113281 28.457031 7.011719l-14.257812 14.261718c-2.230469 2.222656-5.484375 3.070313-8.511719 2.207032-16.59375-4.734376-33.824219-7.132813-51.214844-7.132813-17.394531 0-34.625 2.398437-51.21875 7.132813-.78125.222656-1.582031.332031-2.375.332031-2.269531 0-4.484375-.890625-6.132812-2.539063zm242.65625 54.425781h-337.335938c-9.578125 0-17.34375 7.761719-17.34375 17.339843v145.992188c9.023438 18.371094 20.230469 35.476562 33.28125 50.972656 45.925781 54.535156 297.429688 71.433594 338.738281 41.371094v-238.335938c.003907-9.578124-7.761718-17.339843-17.339843-17.339843zm0 0" fill="#0573cd"/><path d="m397.542969 279.558594v184.628906c-41.3125 30.0625-92.160157 47.8125-147.164063 47.8125-76.875 0-145.644531-34.65625-191.574218-89.183594v-60.488281c0-4.105469 4.609374-6.546875 7.988281-4.214844 15.375 10.609375 34.015625 16.828125 54.109375 16.828125h181.253906c52.679688 0 95.386719-42.707031 95.386719-95.382812zm-17.34375-71.046875h-306.0625c-8.464844 0-15.332031 6.863281-15.332031 15.328125v93.882812c0 3.199219 1.511718 6.199219 4.050781 8.152344 16.078125 12.351562 36.203125 19.695312 58.046875 19.695312h181.253906c52.679688 0 95.382812-42.707031 95.382812-95.382812v-24.335938c.003907-9.578124-7.761718-17.339843-17.339843-17.339843zm0 0" fill="#4691db"/><path d="m143 334.660156v52.308594c0 9.578125-7.761719 17.34375-17.339844 17.34375h-4.476562c-9.578125 0-17.34375-7.765625-17.34375-17.34375v-52.308594c0-4.789062 3.882812-8.671875 8.671875-8.671875h21.820312c4.785157 0 8.667969 3.882813 8.667969 8.671875zm167.550781-8.671875h-21.820312c-4.785157 0-8.667969 3.882813-8.667969 8.671875v52.308594c0 9.578125 7.761719 17.34375 17.339844 17.34375h4.476562c9.578125 0 17.34375-7.765625 17.34375-17.34375v-52.308594c0-4.789062-3.882812-8.671875-8.671875-8.671875zm0 0" fill="#b4d2d7"/><path d="m143 335.78125v48.949219c0 8.398437-5.296875 15.542969-12.726562 18.320312-7.429688-2.777343-12.726563-9.921875-12.726563-18.320312v-48.949219c0-5.40625 4.382813-9.792969 9.789063-9.792969h5.875c5.40625 0 9.789062 4.386719 9.789062 9.792969zm166.429688-9.792969h-5.871094c-5.410156 0-9.792969 4.386719-9.792969 9.792969v48.949219c0 8.398437 5.300781 15.542969 12.726563 18.320312 7.429687-2.777343 12.730468-9.921875 12.730468-18.320312v-48.949219c0-5.40625-4.382812-9.792969-9.792968-9.792969zm0 0" fill="#e1ebf0"/><path d="m138.105469 379.835938c0 8.109374-6.574219 14.683593-14.683594 14.683593-8.113281 0-14.6875-6.574219-14.6875-14.683593 0-8.109376 6.574219-14.6875 14.6875-14.6875 8.109375 0 14.683594 6.574218 14.683594 14.6875zm161.535156-14.6875c-8.109375 0-14.683594 6.574218-14.683594 14.6875 0 8.109374 6.574219 14.683593 14.683594 14.683593s14.683594-6.574219 14.683594-14.683593c.003906-8.113282-6.574219-14.6875-14.683594-14.6875zm0 0" fill="#9bb9c3"/></svg>