<svg height="512pt" viewBox="-6 0 512 512" width="512pt" xmlns="http://www.w3.org/2000/svg"><path d="m44.863281 377.613281c-9.296875 1.390625-18.433593-3.535156-22.339843-12.085937-14.460938-31.648438-22.523438-66.835938-22.523438-103.90625 0-138.28125 112.097656-250.378906 250.378906-250.378906 138.320313 0 250.878906 112.984374 250.378906 251.308593-.136718 36.960938-8.285156 72.027344-22.792968 103.566407-3.796875 8.253906-12.65625 12.90625-21.640625 11.5625-64.28125-9.632813-133.628907-14.886719-205.945313-14.886719-72.152344 0-141.351562 5.230469-205.515625 14.820312zm0 0" fill="#8fd5e5"/><path d="m194.945312 87.808594v-48.84375c0-13.65625 9.074219-25.878906 22.074219-29.722656 10.789063-3.1875 22.011719-4.808594 33.359375-4.808594s22.570313 1.621094 33.359375 4.808594c13 3.84375 22.074219 16.066406 22.074219 29.722656v48.84375h-17.738281v-48.84375c0-5.851563-3.851563-11.078125-9.363281-12.710938-9.15625-2.707031-18.6875-4.078125-28.332032-4.078125-9.640625 0-19.171875 1.371094-28.328125 4.078125-5.515625 1.632813-9.367187 6.859375-9.367187 12.710938v48.84375zm0 0" fill="#004b92"/><path d="m294.316406 15.738281-13.390625 13.390625c-1.140625 1.136719-2.804687 1.570313-4.351562 1.128906-8.488281-2.421874-17.300781-3.648437-26.195313-3.648437-8.894531 0-17.707031 1.226563-26.195312 3.648437-.398438.113282-.808594.167969-1.214844.167969-1.160156 0-2.292969-.453125-3.136719-1.296875l-13.390625-13.390625c-.953125-.953125-1.421875-2.292969-1.269531-3.636719.15625-1.34375.910156-2.542968 2.058594-3.257812 2.675781-1.671875 5.546875-2.96875 8.53125-3.851562 11.199219-3.3125 22.84375-4.992188 34.617187-4.992188 11.773438 0 23.417969 1.679688 34.617188 4.992188 2.988281.882812 5.855468 2.175781 8.53125 3.847656 1.148437.71875 1.90625 1.917968 2.058594 3.261718.152343 1.339844-.3125 2.679688-1.269532 3.636719zm0 0" fill="#4691db"/><path d="m212.539062 21.835938c4.789063-1.484376 9.648438-2.671876 14.558594-3.582032l-1.429687-5.332031c-.507813-1.890625.617187-3.839844 2.511719-4.34375l1.707031-.460937c1.894531-.507813 3.839843.617187 4.347656 2.511718l1.6875 6.300782c3.328125-.378907 6.667969-.621094 10.023437-.734376v-6.300781c0-1.960937 1.585938-3.550781 3.550782-3.550781h1.769531c1.957031 0 3.550781 1.589844 3.550781 3.550781v6.296875c3.351563.117188 6.695313.359375 10.019532.738282l1.6875-6.304688c.507812-1.890625 2.453124-3.015625 4.347656-2.507812l1.710937.457031c1.894531.507812 3.015625 2.453125 2.507813 4.347656l-1.425782 5.332031c4.90625.90625 9.769532 2.097656 14.554688 3.578125l-7.292969 7.292969c-1.140625 1.140625-2.804687 1.570312-4.351562 1.128906-8.488281-2.417968-17.300781-3.644531-26.195313-3.644531-8.894531 0-17.707031 1.226563-26.191406 3.648437-.402344.113282-.8125.167969-1.21875.167969-1.160156 0-2.292969-.453125-3.132812-1.296875zm124.101563 27.832031h-172.523437c-4.898438 0-8.871094 4.214843-8.871094 9.417969v136.382812c0 5.203125 3.972656 9.417969 8.871094 9.417969h172.523437c4.898437 0 8.871094-4.214844 8.871094-9.417969v-136.382812c0-5.199219-3.972657-9.417969-8.871094-9.417969zm0 0" fill="#0573cd"/><path d="m345.511719 86.003906v110.011719c0 4.898437-3.972657 8.871094-8.871094 8.871094h-155.5c-4.898437 0-8.871094-3.972657-8.871094-8.871094v-72.996094c8.535157 7.328125 19.625 11.769531 31.757813 11.769531h92.703125c26.941406 0 48.78125-21.839843 48.78125-48.785156zm-8.871094-36.335937h-153.914063c-5.625 0-10.191406 4.546875-10.21875 10.171875l-.214843 43.082031c-.015625 3.429687 1.691406 6.636719 4.539062 8.550781 7.769531 5.234375 17.121094 8.296875 27.195313 8.296875h92.703125c26.941406 0 48.78125-21.839843 48.78125-48.785156v-12.445313c0-4.898437-3.972657-8.871093-8.871094-8.871093zm0 0" fill="#4691db"/><path d="m215.332031 114.1875v26.753906c0 4.898438-3.972656 8.867188-8.871093 8.867188h-2.289063c-4.898437 0-8.871094-3.96875-8.871094-8.867188v-26.753906c0-2.449219 1.988281-4.433594 4.433594-4.433594h11.160156c2.449219 0 4.4375 1.984375 4.4375 4.433594zm85.6875-4.433594h-11.15625c-2.449219 0-4.433593 1.984375-4.433593 4.433594v26.75c0 4.898438 3.96875 8.871094 8.867187 8.871094h2.289063c4.898437 0 8.871093-3.972656 8.871093-8.871094v-26.75c0-2.449219-1.984375-4.433594-4.4375-4.433594zm0 0" fill="#fcae51"/><path d="m215.332031 114.761719v25.035156c0 4.292969-2.710937 7.949219-6.511719 9.371094-3.796874-1.421875-6.507812-5.078125-6.507812-9.371094v-25.035156c0-2.765625 2.242188-5.007813 5.007812-5.007813h3.003907c2.765625 0 5.007812 2.242188 5.007812 5.007813zm85.117188-5.007813h-3.003907c-2.765624 0-5.007812 2.238282-5.007812 5.003906v25.035157c0 4.296875 2.710938 7.949219 6.507812 9.371093 3.800782-1.421874 6.511719-5.074218 6.511719-9.371093v-25.035157c0-2.761718-2.242187-5.003906-5.007812-5.003906zm0 0" fill="#ffdc85"/><path d="m478.730469 364.457031c-39.238281 86.992188-126.722657 147.542969-228.351563 147.542969s-189.113281-60.550781-228.351562-147.542969c2.753906-4.085937 7.421875-6.773437 12.71875-6.773437h15.328125v-35.765625c0-8.46875 6.863281-15.332031 15.332031-15.332031h15.328125v-35.765626c0-8.46875 6.863281-15.332031 15.328125-15.332031h25.550781v-35.769531c0-8.464844 6.863281-15.328125 15.328125-15.328125h226.875c8.464844 0 15.328125 6.863281 15.328125 15.328125v35.769531h25.550781c8.464844 0 15.328126 6.863281 15.328126 15.332031v35.765626h15.328124c8.46875 0 15.332032 6.863281 15.332032 15.332031v35.765625h15.328125c5.296875 0 9.964843 2.6875 12.71875 6.773437zm0 0" fill="#ffdc85"/><path d="m65.40625 388.34375c-8.46875 0-15.332031-6.863281-15.332031-15.328125 0-8.46875 6.863281-15.332031 15.332031-15.332031h332.132812c5.871094 0 10.585938-4.945313 10.199219-10.898438-.351562-5.433594-5.105469-9.539062-10.546875-9.539062h-301.128906c-8.464844 0-15.328125-6.863282-15.328125-15.328125 0-8.46875 6.863281-15.332031 15.328125-15.332031h281.039062c5.871094 0 10.582032-4.945313 10.199219-10.898438-.351562-5.433594-5.105469-9.539062-10.550781-9.539062h-250.027344c-8.464844 0-15.328125-6.863282-15.328125-15.328126 0-8.46875 6.863281-15.332031 15.328125-15.332031h199.28125c5.871094 0 10.582032-4.945312 10.195313-10.898437-.351563-5.433594-5.101563-9.539063-10.546875-9.539063h-158.050782c-8.464843 0-15.332031-6.863281-15.332031-15.332031 0-8.464844 6.867188-15.328125 15.332031-15.328125h196.214844c8.464844 0 15.328125 6.863281 15.328125 15.328125v35.769531h25.550781c8.464844 0 15.328126 6.863281 15.328126 15.332031v35.765626h15.328124c8.46875 0 15.332032 6.863281 15.332032 15.332031v35.765625h15.328125c5.296875 0 9.964843 2.6875 12.71875 6.773437-12.695313 28.148438-30.453125 53.527344-52.097657 74.984375h-352.492187c-8.667969-8.59375-16.722656-17.804687-24.066406-27.578125v-3.082031h377.777343c5.441407 0 10.195313-4.105469 10.546876-9.539062.382812-5.953126-4.328126-10.898438-10.199219-10.898438zm337.894531 71.535156h-305.808593c16.40625 12.671875 34.421874 23.355469 53.695312 31.683594h198.417969c19.273437-8.332031 37.289062-19.011719 53.695312-31.683594zm0 0" fill="#fff1b8"/></svg>