<svg height="512pt" viewBox="0 -5 512 511" width="512pt" xmlns="http://www.w3.org/2000/svg"><path d="m501 256.5c0 135.308594-109.691406 245-245 245s-245-109.691406-245-245 109.691406-245 245-245 245 109.691406 245 245zm0 0" fill="#8fd5e5"/><path d="m512 333c0 53.210938-43.289062 96.5-96.5 96.5h-187v-40h187c31.152344 0 56.5-25.347656 56.5-56.5s-25.347656-56.5-56.5-56.5h-319c-53.210938 0-96.5-43.289062-96.5-96.5s43.289062-96.5 96.5-96.5h277.671875c7.71875-17.65625 25.324219-30 45.828125-30 27.613281 0 50 22.386719 50 50s-22.386719 50-50 50c-3.425781 0-6.769531-.34375-10-1-3.476562-.707031-16.921875-6.691406-19.996094-9.003906-6.863281-5.15625-12.351562-12.035156-15.832031-19.996094h-277.671875c-31.152344 0-56.5 25.347656-56.5 56.5s25.347656 56.5 56.5 56.5h319c53.210938 0 96.5 43.289062 96.5 96.5zm0 0" fill="#0573cd"/><path d="m120 260.5c0 22.089844-17.910156 40-40 40s-40-17.910156-40-40 17.910156-40 40-40 40 17.910156 40 40zm-40-190c-22.089844 0-40 17.910156-40 40s17.910156 40 40 40 40-17.910156 40-40-17.910156-40-40-40zm330 230c22.089844 0 40-17.910156 40-40s-17.910156-40-40-40-40 17.910156-40 40 17.910156 40 40 40zm0 69c-22.089844 0-40 17.910156-40 40s17.910156 40 40 40 40-17.910156 40-40-17.910156-40-40-40zm-170-309c-22.089844 0-40 17.910156-40 40s17.910156 40 40 40 40-17.910156 40-40-17.910156-40-40-40zm0 309c-22.089844 0-40 17.910156-40 40s17.910156 40 40 40 40-17.910156 40-40-17.910156-40-40-40zm0-149c-22.089844 0-40 17.910156-40 40s17.910156 40 40 40 40-17.910156 40-40-17.910156-40-40-40zm0 0" fill="#4691db"/><path d="m254.386719 103.019531-19.757813 12.773438c-1.996094 1.289062-4.628906-.144531-4.628906-2.519531v-25.546876c0-2.375 2.632812-3.808593 4.628906-2.519531l19.757813 12.773438c1.828125 1.183593 1.828125 3.855469 0 5.039062zm0 309-19.757813 12.773438c-1.996094 1.289062-4.628906-.144531-4.628906-2.519531v-25.546876c0-2.375 2.632812-3.808593 4.628906-2.515624l19.757813 12.769531c1.828125 1.183593 1.828125 3.855469 0 5.039062zm144.105469-154.039062 19.757812-12.773438c1.996094-1.289062 4.628906.144531 4.628906 2.519531v25.546876c0 2.375-2.632812 3.808593-4.628906 2.515624l-19.757812-12.769531c-1.828126-1.183593-1.828126-3.855469 0-5.039062zm-332.878907 0 19.757813-12.773438c1.996094-1.289062 4.628906.144531 4.628906 2.519531v25.546876c0 2.375-2.632812 3.808593-4.628906 2.515624l-19.757813-12.769531c-1.828125-1.183593-1.828125-3.855469 0-5.039062zm0 0" fill="#e1ebf0"/><path d="m410 40.5v111.996094c-7.390625-1.5-14.1875-4.628906-20-8.996094v-103zm0 0" fill="#ffc97b"/><path d="m510.992188 8.5-24 32 24 32c2.472656 3.296875.117187 8-4 8h-116.992188v-75c0-2.761719 2.238281-5 5-5h111.992188c4.117187 0 6.472656 4.703125 4 8zm0 0" fill="#ff5284"/><path d="m410 80.5h-20v-75c0-2.761719 2.238281-5 5-5h15zm0 0" fill="#f43b5f"/><path d="m62.667969 375.9375v-47.796875c0-13.359375 8.882812-25.320313 21.601562-29.078125 10.554688-3.125 21.539063-4.707031 32.640625-4.707031 11.105469 0 22.085938 1.582031 32.644532 4.707031 12.71875 3.757812 21.601562 15.71875 21.601562 29.078125v47.796875h-17.359375v-47.796875c0-5.726563-3.769531-10.839844-9.164063-12.433594-8.957031-2.648437-18.285156-3.992187-27.71875-3.992187-9.4375 0-18.761718 1.34375-27.722656 3.992187-5.394531 1.597657-9.164062 6.707031-9.164062 12.433594v47.796875zm0 0" fill="#934a4a"/><path d="m159.902344 305.414062-13.101563 13.101563c-1.113281 1.117187-2.742187 1.539063-4.257812 1.105469-8.304688-2.367188-16.929688-3.566406-25.632813-3.566406s-17.324218 1.199218-25.628906 3.566406c-.394531.113281-.792969.167968-1.191406.167968-1.136719 0-2.242188-.445312-3.070313-1.269531l-13.101562-13.105469c-.933594-.933593-1.390625-2.242187-1.242188-3.558593.148438-1.3125.890625-2.488281 2.011719-3.1875 2.621094-1.636719 5.429688-2.902344 8.347656-3.769531 10.960938-3.238282 22.359375-4.882813 33.875-4.882813 11.519532 0 22.917969 1.644531 33.875 4.882813 2.921875.867187 5.730469 2.132812 8.347656 3.769531 1.125.699219 1.863282 1.875 2.015626 3.1875.148437 1.3125-.308594 2.625-1.246094 3.558593zm0 0" fill="#f2806d"/><path d="m79.882812 311.378906c4.6875-1.449218 9.441407-2.613281 14.246094-3.5l-1.398437-5.21875c-.496094-1.851562.605469-3.757812 2.457031-4.253906l1.671875-.449219c1.855469-.496093 3.757813.605469 4.253906 2.457031l1.652344 6.167969c3.253906-.371093 6.523437-.609375 9.804687-.722656v-6.164063c0-1.917968 1.554688-3.472656 3.476563-3.472656h1.730469c1.917968 0 3.472656 1.554688 3.472656 3.472656v6.164063c3.28125.117187 6.554688.351563 9.808594.722656l1.652344-6.167969c.496093-1.851562 2.398437-2.953124 4.253906-2.457031l1.671875.449219c1.851562.496094 2.953125 2.402344 2.457031 4.253906l-1.398438 5.21875c4.800782.886719 9.558594 2.050782 14.242188 3.5l-7.136719 7.136719c-1.113281 1.113281-2.742187 1.535156-4.257812 1.105469-8.304688-2.367188-16.929688-3.570313-25.632813-3.570313-8.699218 0-17.324218 1.203125-25.628906 3.570313-.390625.113281-.792969.167968-1.191406.167968-1.132813 0-2.242188-.445312-3.066406-1.273437zm121.4375 27.238282h-168.820312c-4.792969 0-8.679688 4.125-8.679688 9.214843v133.453125c0 5.089844 3.886719 9.214844 8.679688 9.214844h168.820312c4.792969 0 8.679688-4.125 8.679688-9.214844v-133.453125c0-5.089843-3.886719-9.214843-8.679688-9.214843zm0 0" fill="#db655d"/><path d="m210 374.175781v107.644531c0 4.792969-3.886719 8.679688-8.679688 8.679688h-152.160156c-4.792968 0-8.679687-3.886719-8.679687-8.679688v-61.820312c0-3.84375 4.144531-6.238281 7.480469-4.335938 6.957031 3.972657 15.011718 6.246094 23.597656 6.246094h90.707031c26.363281-.003906 47.734375-21.375 47.734375-47.734375zm-8.679688-35.558593h-150.609374c-5.503907 0-9.972657 4.449218-10 9.953124l-.207032 42.15625c-.015625 3.355469 1.65625 6.492188 4.4375 8.367188 7.605469 5.121094 16.757813 8.117188 26.613282 8.117188h90.710937c26.363281 0 47.734375-21.371094 47.734375-47.734376v-12.179687c0-4.792969-3.886719-8.679687-8.679688-8.679687zm0 0" fill="#f2806d"/><path d="m73.9375 436.605469h-2.242188c-4.792968 0-8.679687-3.886719-8.679687-8.679688v-26.175781c0-2.398438 1.945313-4.339844 4.339844-4.339844h10.917969c2.398437 0 4.339843 1.945313 4.339843 4.339844v26.175781c0 4.796875-3.882812 8.679688-8.675781 8.679688zm96.867188-8.679688v-26.175781c0-2.398438-1.941407-4.339844-4.339844-4.339844h-10.917969c-2.398437 0-4.339844 1.945313-4.339844 4.339844v26.175781c0 4.792969 3.886719 8.679688 8.679688 8.679688h2.242187c4.789063 0 8.675782-3.882813 8.675782-8.679688zm0 0" fill="#fcae51"/><path d="m74.777344 397.410156h2.9375c2.707031 0 4.898437 2.195313 4.898437 4.898438v24.5c0 4.203125-2.648437 7.777344-6.367187 9.167968-3.71875-1.390624-6.367188-4.964843-6.367188-9.167968v-24.5c0-2.703125 2.191406-4.898438 4.898438-4.898438zm83.289062 4.898438v24.5c0 4.203125 2.652344 7.777344 6.367188 9.167968 3.71875-1.390624 6.371094-4.964843 6.371094-9.167968v-24.5c0-2.703125-2.195313-4.898438-4.898438-4.898438h-2.941406c-2.703125 0-4.898438 2.195313-4.898438 4.898438zm0 0" fill="#ffdc85"/></svg>