<svg height="512pt" viewBox="-6 0 512 512" width="512pt" xmlns="http://www.w3.org/2000/svg"><path d="m500.757812 261.621094c0 51.300781-15.429687 99-41.898437 138.707031-44.882813 67.320313-121.5 98.046875-208.480469 98.046875-138.28125 0-250.378906-98.472656-250.378906-236.753906s112.097656-250.378906 250.378906-250.378906 250.378906 112.097656 250.378906 250.378906zm0 0" fill="#ffdc85"/><path d="m193.148438 137.964844v296.367187c0 8.464844-6.863282 15.328125-15.328126 15.328125h-71.535156c-8.46875 0-15.332031-6.863281-15.332031-15.328125v-296.367187c0-8.464844 6.863281-15.332032 15.332031-15.332032h71.535156c8.464844 0 15.328126 6.867188 15.328126 15.332032zm117.527343-76.648438h-71.539062c-8.464844 0-15.328125 6.863282-15.328125 15.332032v367.902343c0 8.464844 6.863281 15.328125 15.328125 15.328125h71.539062c8.464844 0 15.328125-6.863281 15.328125-15.328125v-367.902343c0-8.46875-6.863281-15.332032-15.328125-15.332032zm132.851563-61.316406h-71.535156c-8.464844 0-15.328126 6.863281-15.328126 15.328125v439.441406c0 8.46875 6.863282 15.332031 15.328126 15.332031h6.929687c6.816406 0 13.46875-2.148437 18.972656-6.167968 23.871094-17.4375 44.542969-38.996094 60.964844-63.632813v-384.972656c0-8.464844-6.863281-15.328125-15.332031-15.328125zm0 0" fill="#ff5284"/><path d="m254.46875 76.648438v367.902343c0 8.464844 6.863281 15.328125 15.328125 15.328125h-30.660156c-8.464844 0-15.328125-6.863281-15.328125-15.328125v-367.902343c0-8.46875 6.863281-15.332032 15.328125-15.332032h30.660156c-8.464844 0-15.328125 6.863282-15.328125 15.332032zm-117.527344 45.984374h-30.65625c-8.46875 0-15.332031 6.867188-15.332031 15.332032v219.71875c0 8.46875 6.863281 15.332031 15.332031 15.332031h30.65625c-8.464844 0-15.328125-6.863281-15.328125-15.332031v-219.71875c0-8.464844 6.863281-15.332032 15.328125-15.332032zm235.050782-122.632812c-8.464844 0-15.328126 6.863281-15.328126 15.328125v439.441406c0 8.46875 6.863282 15.332031 15.328126 15.332031h15.328124v-454.773437c0-8.464844 6.863282-15.328125 15.332032-15.328125zm0 0" fill="#f43b5f"/><path d="m0 261.621094c0-21.394532 15.636719-6.132813 20.4375-6.132813h357.6875c11.289062 0 20.4375 9.152344 20.4375 20.441407v187.511718c-41.492188 30.515625-92.726562 48.558594-148.183594 48.558594-138.28125 0-250.378906-112.097656-250.378906-250.378906zm0 0" fill="#fff1b8"/><path d="m398.5625 275.929688v187.511718c-41.492188 30.515625-92.726562 48.558594-148.183594 48.558594-95.511718 0-178.523437-53.488281-220.742187-132.136719v-103.933593c0-11.289063 9.152343-20.441407 20.4375-20.441407h328.050781c11.289062 0 20.4375 9.152344 20.4375 20.441407zm0 0" fill="#fff7ee"/><path d="m366.882812 342.355469v10.21875c0 2.820312-2.289062 5.109375-5.109374 5.109375h-153.292969c-2.824219 0-5.109375-2.289063-5.109375-5.109375v-10.21875c0-2.820313 2.285156-5.109375 5.109375-5.109375h153.292969c2.820312 0 5.109374 2.289062 5.109374 5.109375zm-158.402343 56.207031h122.632812c2.820313 0 5.109375-2.289062 5.109375-5.109375v-10.21875c0-2.824219-2.289062-5.109375-5.109375-5.109375h-122.632812c-2.824219 0-5.109375 2.285156-5.109375 5.109375v10.21875c0 2.820313 2.285156 5.109375 5.109375 5.109375zm143.074219 20.441406h-143.074219c-2.824219 0-5.109375 2.285156-5.109375 5.109375v10.21875c0 2.820313 2.285156 5.109375 5.109375 5.109375h143.074219c2.820312 0 5.109374-2.289062 5.109374-5.109375v-10.21875c0-2.824219-2.289062-5.109375-5.109374-5.109375zm-245.269532-86.867187c-19.757812 0-35.769531 16.011719-35.769531 35.765625 0 19.757812 16.011719 35.769531 35.769531 35.769531 19.753906 0 35.765625-16.011719 35.765625-35.769531 0-19.753906-16.011719-35.765625-35.765625-35.765625zm0 0" fill="#ffc97b"/><path d="m398.5625 215.632812v60.296876h-398.148438c-.265624-4.738282-.414062-9.503907-.414062-14.308594 0-2.050782 0-6.132813 0-6.132813v-39.855469c0-11.289062 9.152344-20.4375 20.4375-20.4375h357.6875c11.289062 0 20.4375 9.148438 20.4375 20.4375zm0 0" fill="#15b568"/><path d="m29.636719 275.929688v-60.296876c0-11.289062 9.152343-20.4375 20.4375-20.4375h328.050781c11.289062 0 20.4375 9.148438 20.4375 20.4375v60.296876zm0 0" fill="#7cc971"/><path d="m224.832031 112.414062v112.417969c0 11.285157-9.152343 20.4375-20.441406 20.4375h-10.21875c-11.289063 0-20.4375-9.152343-20.4375-20.4375v-112.417969c0-11.289062 9.148437-20.4375 20.4375-20.4375h10.21875c11.289063 0 20.441406 9.148438 20.441406 20.4375zm0 0" fill="#b4d2d7"/><path d="m255.488281 163.511719v30.660156c0 5.644531-4.574219 10.21875-10.21875 10.21875h-91.976562c-5.644531 0-10.21875-4.574219-10.21875-10.21875v-30.660156c0-5.644531 4.574219-10.21875 10.21875-10.21875h91.976562c5.644531 0 10.21875 4.574219 10.21875 10.21875zm0 0" fill="#fff7ee"/><path d="m213.589844 178.84375c0 8.464844-6.863282 15.328125-15.332032 15.328125-8.464843 0-15.328124-6.863281-15.328124-15.328125 0-8.46875 6.863281-15.332031 15.328124-15.332031 8.46875 0 15.332032 6.863281 15.332032 15.332031zm0 0" fill="#e1ebf0"/></svg>