<svg height="512.00025pt" viewBox="0 0 512.00025 512.00025" width="512.00025pt" xmlns="http://www.w3.org/2000/svg"><path d="m500.757812 261.621094c0 138.28125-112.097656 250.378906-250.378906 250.378906s-250.378906-112.097656-250.378906-250.378906 112.097656-250.378906 250.378906-250.378906 250.378906 112.097656 250.378906 250.378906zm0 0" fill="#7cc971"/><path d="m50.074219 275.929688h51.097656v186.765624c-19.375-14.402343-36.597656-31.535156-51.097656-50.832031zm286.148437 220.964843c18.105469-6.609375 35.222656-15.257812 51.097656-25.648437v-317.953125h-51.097656zm-98.105468 14.804688c4.0625.195312 8.148437.300781 12.261718.300781 13.210938 0 26.179688-1.03125 38.835938-3v-263.730469h-51.097656zm-96.066407-24.285157c16.148438 7.761719 33.257813 13.835938 51.097657 18.007813v-229.492187h-51.097657zm286.148438-415.875v366.332032c21.265625-21.453125 38.667969-46.730469 51.097656-74.710938v-291.621094zm0 0" fill="#4b9b5e"/><path d="m511.835938 6.386719-29.527344 114.824219c-.984375 3.832031-5.761719 5.136718-8.558594 2.339843l-20.972656-20.96875-160.128906 160.128907-26.90625 26.902343c-3.832032 3.832031-9.03125 5.988281-14.453126 5.988281h-151.578124c-2.710938 0-5.3125 1.078126-7.226563 2.992188l-69 69c-9.699219-20.730469-16.640625-43.007812-20.355469-66.359375l60.964844-60.964844c3.832031-3.832031 9.03125-5.984375 14.449219-5.984375h151.582031c2.710938 0 5.308594-1.078125 7.226562-2.996094l11.9375-11.9375 160.132813-160.128906-20.972656-20.96875c-2.796875-2.800781-1.492188-7.578125 2.339843-8.5625l114.824219-29.527344c3.765625-.964843 7.1875 2.457032 6.222657 6.222657zm0 0" fill="#ffdc85"/><path d="m511.265625 2.480469-64.828125 68.664062-186.523438 186.523438c-5.789062 5.789062-13.488281 8.976562-21.675781 8.976562h-151.582031l-73.929688 73.929688c-4.214843-12.695313-7.449218-25.835938-9.597656-39.34375l60.964844-60.960938c3.832031-3.832031 9.03125-5.988281 14.453125-5.988281h151.578125c2.710938 0 5.3125-1.074219 7.226562-2.992188l11.9375-11.9375 160.132813-160.128906-20.972656-20.96875c-2.796875-2.800781-1.492188-7.578125 2.339843-8.5625l114.824219-29.527344c2.339844-.601562 4.546875.496094 5.652344 2.316407zm0 0" fill="#ffc97b"/></svg>