<svg height="512pt" viewBox="-6 0 512 512" width="512pt" xmlns="http://www.w3.org/2000/svg"><path d="m500.757812 261.621094c0 138.28125-112.097656 250.378906-250.378906 250.378906s-250.378906-112.097656-250.378906-250.378906 112.097656-250.378906 250.378906-250.378906c86.425782 0 162.625 43.789062 207.617188 110.390624 6.546875 9.6875 25.777344 48.59375 29.054687 58.074219 8.882813 25.664063 13.707031 53.226563 13.707031 81.914063zm0 0" fill="#ffc97b"/><path d="m469.078125 158.371094v225.210937c-15.65625 28.011719-36.53125 52.703125-61.316406 72.761719v-379.695312c0-2.910157.824219-5.621094 2.230469-7.9375 18.273437 15.136718 34.351562 32.824218 47.707031 52.511718 7.433593 10.957032 11.378906 23.910156 11.378906 37.148438zm-107.304687-45.957032h-30.660157c-8.464843 0-15.328125 6.863282-15.328125 15.332032v375.605468c21.753906-5.875 42.335938-14.601562 61.316406-25.761718v-349.84375c0-8.46875-6.863281-15.332032-15.328124-15.332032zm-286.148438 102.195313h-30.660156c-8.464844 0-15.328125 6.863281-15.328125 15.332031v149.921875c15.445312 28.769531 36.339843 54.179688 61.316406 74.828125v-224.75c0-8.46875-6.863281-15.332031-15.328125-15.332031zm91.976562-102.195313h-30.660156c-8.464844 0-15.328125 6.863282-15.328125 15.332032v348.632812c18.953125 11.390625 39.535157 20.339844 61.316407 26.417969v-375.050781c0-8.46875-6.863282-15.332032-15.328126-15.332032zm0 0" fill="#ffdc85"/><path d="m487.039062 179.714844-94.828124 94.824218c-17.371094 17.371094-40.464844 26.9375-65.035157 26.9375h-260.898437c-8.1875 0-15.890625 3.1875-21.679688 8.980469l-31.449218 31.449219c-7.851563-23.214844-12.390626-47.953125-13.0585942-73.65625l1.1523442-1.152344c17.371093-17.371094 40.46875-26.9375 65.035156-26.9375h260.898437c8.191407 0 15.890625-3.1875 21.679688-8.980468l109.304687-109.304688c11.984375 17.789062 21.738282 37.203125 28.878906 57.839844zm0 0" fill="#ff5284"/><path d="m317.957031 15.328125v487.433594c-21.5 6.015625-44.160156 9.238281-67.578125 9.238281-23.417968 0-46.078125-3.222656-67.578125-9.238281v-487.433594c0-8.464844 6.863281-15.328125 15.332031-15.328125h104.492188c8.46875 0 15.332031 6.863281 15.332031 15.328125zm0 0" fill="#0573cd"/><path d="m317.957031 15.328125v487.433594c-21.5 6.015625-44.160156 9.238281-67.578125 9.238281-9.019531 0-17.925781-.488281-26.699218-1.417969v-500.363281c0-5.644531 4.578124-10.21875 10.21875-10.21875h68.726562c8.46875 0 15.332031 6.863281 15.332031 15.328125zm0 0" fill="#4691db"/><path d="m358.707031 163.511719v196.21875c0 11.285156-9.152343 20.4375-20.441406 20.4375h-175.773437c-11.289063 0-20.441407-9.152344-20.441407-20.4375v-63.03125c-7.214843-3.15625-12.261719-10.347657-12.261719-18.726563v-32.703125c0-8.378906 5.046876-15.570312 12.261719-18.726562v-63.03125c0-11.289063 9.152344-20.4375 20.441407-20.4375h175.773437c11.289063 0 20.441406 9.148437 20.441406 20.4375zm0 0" fill="#015aad"/><path d="m322.9375 354.617188h-145.117188c-5.644531 0-10.21875-4.574219-10.21875-10.21875v-165.554688c0-5.644531 4.574219-10.222656 10.21875-10.222656h145.117188c5.644531 0 10.21875 4.578125 10.21875 10.222656v165.554688c0 5.644531-4.574219 10.21875-10.21875 10.21875zm0 0" fill="#b4d2d7"/><path d="m322.9375 168.621094h-119.566406c-5.644532 0-10.222656 4.578125-10.222656 10.222656v135.261719c0 1.96875 1.832031 3.445312 3.746093 2.984375 2.105469-.507813 4.464844-.363282 6.867188.679687 3.527343 1.535157 5.738281 5.105469 5.738281 8.953125 0 5.148438-3.679688 9.71875-8.78125 10.421875-1.332031.183594-2.621094.109375-3.824219-.183593-1.914062-.460938-3.746093 1.015624-3.746093 2.984374v4.453126c0 5.644531 4.574218 10.21875 10.21875 10.21875h119.570312c5.644531 0 10.21875-4.574219 10.21875-10.21875v-165.554688c0-5.644531-4.574219-10.222656-10.21875-10.222656zm-80.734375 158.40625c0 5.644531-4.574219 10.21875-10.21875 10.21875s-10.21875-4.574219-10.21875-10.21875c0-5.644532 4.574219-10.222656 10.21875-10.222656s10.21875 4.578124 10.21875 10.222656zm32.703125 0c0 5.644531-4.574219 10.21875-10.21875 10.21875s-10.21875-4.574219-10.21875-10.21875c0-5.644532 4.574219-10.222656 10.21875-10.222656s10.21875 4.578124 10.21875 10.222656zm0 0" fill="#e1ebf0"/><path d="m242.203125 225.851562c0 5.644532-4.574219 10.21875-10.21875 10.21875s-10.21875-4.574218-10.21875-10.21875c0-5.644531 4.574219-10.21875 10.21875-10.21875s10.21875 4.574219 10.21875 10.21875zm-42.921875-25.546874c-5.644531 0-10.21875 4.574218-10.21875 10.21875v65.40625c0 5.644531 4.574219 10.21875 10.21875 10.21875s10.21875-4.574219 10.21875-10.21875v-65.40625c0-5.644532-4.574219-10.21875-10.21875-10.21875zm32.703125 50.074218c-5.644531 0-10.21875 4.574219-10.21875 10.21875 0 5.644532 4.574219 10.222656 10.21875 10.222656s10.21875-4.578124 10.21875-10.222656c0-5.644531-4.574219-10.21875-10.21875-10.21875zm32.703125-50.074218c-5.644531 0-10.21875 4.574218-10.21875 10.21875v65.40625c0 5.644531 4.574219 10.21875 10.21875 10.21875s10.21875-4.574219 10.21875-10.21875v-65.40625c0-5.644532-4.574219-10.21875-10.21875-10.21875zm36.789062 0c-5.644531 0-10.21875 4.574218-10.21875 10.21875v65.40625c0 5.644531 4.574219 10.21875 10.21875 10.21875 5.644532 0 10.21875-4.574219 10.21875-10.21875v-65.40625c0-5.644532-4.574218-10.21875-10.21875-10.21875zm0 0" fill="#87a0af"/></svg>