<svg height="512pt" viewBox="-6 0 512 512.00017" width="512pt" xmlns="http://www.w3.org/2000/svg"><path d="m500.757812 261.621094c0 78.886718-36.480468 149.253906-93.496093 195.144531-11.097657 8.933594-62.964844 37.546875-77.675781 42.449219-14.925782 4.972656-30.476563 8.578125-46.503907 10.667968-10.703125 1.398438-71.550781-.15625-89.929687-4.453124-14.867188-3.476563-29.222656-8.277344-42.9375-14.269532-15.917969-6.953125-76.671875-51.128906-89.925782-66.574218-37.582031-43.796876-60.289062-100.730469-60.289062-162.964844 0-138.28125 112.097656-250.378906 250.378906-250.378906s250.378906 112.097656 250.378906 250.378906zm0 0" fill="#8fd5e5"/><path d="m60.296875 424.578125v-112.882813c0-8.464843 6.863281-15.328124 15.328125-15.328124h59.273438c8.464843 0 15.328124 6.863281 15.328124 15.328124v179.449219c-34.820312-15.214843-65.515624-38.117187-89.929687-66.566406zm0 0" fill="#f43b5f"/><path d="m88.910156 452.960938v-141.265626c0-8.464843 6.863282-15.328124 15.328125-15.328124h30.660157c8.464843 0 15.328124 6.863281 15.328124 15.328124v179.449219c-22.324218-9.753906-42.953124-22.667969-61.316406-38.183593zm0 0" fill="#ff5284"/><path d="m283.082031 229.941406v279.933594c-10.703125 1.394531-21.617187 2.125-32.703125 2.125-19.691406 0-38.847656-2.28125-57.230468-6.578125v-275.480469c0-8.46875 6.863281-15.332031 15.332031-15.332031h59.273437c8.464844 0 15.328125 6.863281 15.328125 15.332031zm0 0" fill="#4b9b5e"/><path d="m283.082031 229.941406v279.933594c-10.703125 1.394531-21.617187 2.125-32.703125 2.125-9.675781 0-19.222656-.566406-28.613281-1.636719v-280.421875c0-8.46875 6.863281-15.332031 15.328125-15.332031h30.660156c8.464844 0 15.328125 6.863281 15.328125 15.332031zm0 0" fill="#15b568"/><path d="m469.078125 91.488281c0 37.65625-20.679687 70.480469-51.300781 87.742188-6.46875 3.648437-10.527344 10.441406-10.527344 17.871093v259.652344c-22.917969 18.449219-49.148438 32.945313-77.667969 42.449219v-314.894531c-35.996093-15.183594-61.496093-50.765625-61.828125-91.992188-.324218-40.515625 23.289063-75.539062 57.539063-91.804687 3.414062-1.621094 7.355469.816406 7.355469 4.59375v98.136719c0 11.289062 9.148437 20.4375 20.4375 20.4375h30.660156c11.285156 0 20.4375-9.148438 20.4375-20.4375v-98.132813c0-3.773437 3.933594-6.21875 7.34375-4.601563 34.023437 16.148438 57.550781 50.816407 57.550781 90.980469zm0 0" fill="#4691db"/><path d="m362.285156 178.554688v307.089843c-10.503906 5.253907-21.425781 9.800781-32.703125 13.558594v-302.207031c0-7.417969-4.046875-14.199219-10.496093-17.855469-30.363282-17.207031-51.03125-49.730469-51.328126-86.824219-.273437-34.082031 16.394532-64.277344 42.082032-82.6875-11.996094 16.714844-19.011719 37.25-18.832032 59.4375.320313 40.191406 24.5625 75.019532 59.136719 90.8125 7.347657 3.355469 12.140625 10.597656 12.140625 18.675782zm0 0" fill="#0573cd"/></svg>