<svg height="512pt" viewBox="0 -6 512 512" width="512pt" xmlns="http://www.w3.org/2000/svg"><path d="m500.753906 248.914062c.789063 137.816407-110.988281 250.992188-248.804687 251.839844-97.398438.597656-181.988281-54.425781-223.910157-135.167968-6-11.558594 2.449219-25.363282 15.472657-25.363282 153.707031 0 278.316406-124.605468 278.316406-278.316406v-24.152344c0-13.804687 14.109375-23.140625 26.804687-17.71875 89.015626 38.015625 151.53125 126.105469 152.121094 228.878906zm0 0" fill="#ff5284"/><path d="m387.320312 241.054688v-7.027344c0-11.289063 9.152344-20.4375 20.441407-20.4375h14.609375l.71875-.800782.71875.800782h14.609375c11.289062 0 20.441406 9.148437 20.441406 20.4375v7.027344c0 2.75-.742187 5.453124-2.144531 7.816406l-29.230469 49.285156c-1.980469 3.335938-6.808594 3.335938-8.789063 0l-29.230468-49.285156c-1.402344-2.367188-2.144532-5.066406-2.144532-7.816406zm0 0" fill="#e1ebf0"/><path d="m428.199219 213.589844h10.21875c11.289062 0 20.441406 9.148437 20.441406 20.4375v7.027344c0 2.75-.742187 5.453124-2.144531 7.816406l-23.40625 39.460937-23.402344-39.460937c-1.40625-2.367188-2.144531-5.066406-2.144531-7.820313v-7.023437c0-11.289063 9.148437-20.4375 20.4375-20.4375zm0 0" fill="#fff7ee"/><path d="m458.859375 240.019531h-71.539063v-199.265625c28.371094 18.570313 52.738282 42.738282 71.539063 70.941406zm0 0" fill="#4691db"/><path d="m438.417969 199.140625c-11.289063 0-20.4375-9.152344-20.4375-20.4375v-114.324219c15.507812 13.984375 29.253906 29.882813 40.878906 47.320313v67.003906c0 11.285156-9.152344 20.4375-20.441406 20.4375zm0 0" fill="#81ade2"/><path d="m348.488281 366.882812h-319.769531c-18.328125-34.800781-28.71875-74.4375-28.71875-116.503906 0-138.28125 112.097656-250.378906 250.378906-250.378906 34.820313 0 67.980469 7.113281 98.109375 19.960938zm0 0" fill="#fff1b8"/><path d="m274.90625 157.382812v10.21875c0 2.820313-2.289062 5.109376-5.109375 5.109376h-204.390625c-2.824219 0-5.109375-2.289063-5.109375-5.109376v-10.21875c0-2.824218 2.285156-5.113281 5.109375-5.113281h204.390625c2.820313 0 5.109375 2.289063 5.109375 5.113281zm-5.109375 76.644532h-204.390625c-2.824219 0-5.109375 2.289062-5.109375 5.109375v10.21875c0 2.824219 2.285156 5.113281 5.109375 5.113281h204.390625c2.820313 0 5.109375-2.289062 5.109375-5.113281v-10.21875c0-2.820313-2.289062-5.109375-5.109375-5.109375zm0-173.730469h-182.375c-7.449219 6.394531-14.519531 13.21875-21.171875 20.4375h203.546875c2.820313 0 5.109375-2.289063 5.109375-5.109375v-10.21875c0-2.824219-2.289062-5.109375-5.109375-5.109375zm0 132.851563h-204.390625c-2.824219 0-5.109375 2.289062-5.109375 5.109374v10.222657c0 2.820312 2.285156 5.109375 5.109375 5.109375h204.390625c2.820313 0 5.109375-2.289063 5.109375-5.109375v-10.222657c0-2.820312-2.289062-5.109374-5.109375-5.109374zm-204.390625-71.535157h124.675781c2.824219 0 5.113281-2.289062 5.113281-5.109375v-10.21875c0-2.824218-2.289062-5.113281-5.113281-5.113281h-124.675781c-2.824219 0-5.109375 2.289063-5.109375 5.113281v10.21875c0 2.820313 2.285156 5.109375 5.109375 5.109375zm0 0" fill="#ffdc85"/><path d="m106.285156 315.785156h-40.878906c-2.824219 0-5.109375-2.289062-5.109375-5.109375v-10.21875c0-2.824219 2.285156-5.113281 5.109375-5.113281h40.878906c2.820313 0 5.109375 2.289062 5.109375 5.113281v10.21875c0 2.820313-2.289062 5.109375-5.109375 5.109375zm0 0" fill="#ffc97b"/><path d="m300.457031 315.785156h-71.539062c-2.820313 0-5.109375-2.289062-5.109375-5.109375v-10.21875c0-2.824219 2.289062-5.113281 5.109375-5.113281h71.539062c2.820313 0 5.109375 2.289062 5.109375 5.113281v10.21875c0 2.820313-2.289062 5.109375-5.109375 5.109375zm0 0" fill="#fcae51"/><path d="m512 346.441406v116.164063c0 5.644531-4.574219 10.21875-10.21875 10.21875h-288.191406c-5.644532 0-10.21875-4.574219-10.21875-10.21875v-116.164063c0-5.640625 4.574218-10.21875 10.21875-10.21875h288.191406c5.644531 0 10.21875 4.578125 10.21875 10.21875zm0 0" fill="#6fc997"/><path d="m512 346.441406v116.164063c0 5.644531-4.574219 10.21875-10.21875 10.21875h-267.753906c-5.644532 0-10.21875-4.574219-10.21875-10.21875v-116.164063c0-5.640625 4.574218-10.21875 10.21875-10.21875h267.753906c5.644531 0 10.21875 4.578125 10.21875 10.21875zm0 0" fill="#b6e2ac"/><path d="m417.980469 397.539062v10.222657c0 28.21875-22.878907 51.097656-51.097657 51.097656-28.222656 0-51.097656-22.878906-51.097656-51.097656v-10.222657c0-28.21875 22.875-51.097656 51.097656-51.097656 28.21875 0 51.097657 22.878906 51.097657 51.097656zm71.535156-44.113281h-51.097656c-5.644531 0-10.21875 4.574219-10.21875 10.21875 0 16.933594 13.726562 30.660157 30.660156 30.660157h30.65625c5.644531 0 10.222656-4.574219 10.222656-10.21875v-20.441407c0-5.644531-4.578125-10.21875-10.222656-10.21875zm0 61.316407h-30.65625c-16.933594 0-30.660156 13.726562-30.660156 30.660156 0 5.644531 4.574219 10.21875 10.21875 10.21875h51.097656c5.644531 0 10.222656-4.574219 10.222656-10.21875v-20.4375c0-5.644532-4.578125-10.222656-10.222656-10.222656zm-214.609375 0h-30.660156c-5.644532 0-10.21875 4.578124-10.21875 10.222656v20.4375c0 5.644531 4.574218 10.21875 10.21875 10.21875h51.097656c5.644531 0 10.222656-4.574219 10.222656-10.21875 0-16.933594-13.726562-30.660156-30.660156-30.660156zm20.4375-61.316407h-51.097656c-5.644532 0-10.21875 4.574219-10.21875 10.21875v20.441407c0 5.644531 4.574218 10.21875 10.21875 10.21875h30.660156c16.933594 0 30.660156-13.726563 30.660156-30.660157 0-5.644531-4.578125-10.21875-10.222656-10.21875zm0 0" fill="#6fc997"/><path d="m397.539062 400.097656v5.109375c0 2.820313-2.285156 5.109375-5.109374 5.109375h-51.097657c-2.820312 0-5.109375-2.289062-5.109375-5.109375v-5.109375c0-2.824218 2.289063-5.113281 5.109375-5.113281h51.097657c2.824218 0 5.109374 2.289063 5.109374 5.113281zm-45.984374-17.886718h30.65625c2.820312 0 5.109374-2.289063 5.109374-5.109376v-5.109374c0-2.820313-2.289062-5.109376-5.109374-5.109376h-30.65625c-2.824219 0-5.113282 2.289063-5.113282 5.109376v5.109374c0 2.820313 2.289063 5.109376 5.113282 5.109376zm30.65625 40.878906h-30.65625c-2.824219 0-5.113282 2.289062-5.113282 5.109375v5.109375c0 2.824218 2.289063 5.109375 5.113282 5.109375h30.65625c2.820312 0 5.109374-2.285157 5.109374-5.109375v-5.109375c0-2.820313-2.289062-5.109375-5.109374-5.109375zm0 0" fill="#fff7ee"/></svg>