<svg height="512pt" viewBox="0 -5 512.00069 512" width="512pt" xmlns="http://www.w3.org/2000/svg"><path d="m11 256c0-135.136719 109.410156-244.71875 244.480469-245 135.789062-.28125 245.277343 108.765625 245.519531 244.554688.222656 125.5625-94.015625 229.144531-215.609375 243.683593-.304687.035157-.613281.035157-.921875 0-9.339844-1.082031-18.835938-1.65625-28.46875-1.65625-9.628906 0-19.128906.574219-28.46875 1.65625-.304688.035157-.613281.035157-.917969 0-121.453125-14.523437-215.613281-117.875-215.613281-243.238281zm0 0" fill="#059bc3"/><path d="m373.296875 113.960938-17.363281-2.386719c-2.210938-7.785157-5.3125-15.195313-9.179688-22.121094l10.601563-13.976563c7.933593-10.46875 6.925781-25.183593-2.359375-34.46875-9.285156-9.289062-24.003906-10.296874-34.46875-2.359374l-13.976563 10.597656c-6.925781-3.863282-14.335937-6.964844-22.121093-9.179688l-2.386719-17.359375c-1.789063-13.011719-12.910157-22.707031-26.042969-22.707031s-24.25 9.695312-26.042969 22.707031l-2.386719 17.359375c-7.785156 2.210938-15.191406 5.316406-22.117187 9.179688l-13.980469-10.597656c-10.464844-7.9375-25.179687-6.929688-34.46875 2.359374-9.285156 9.285157-10.292968 24.003907-2.355468 34.46875l10.597656 13.976563c-3.863282 6.925781-6.96875 14.335937-9.179688 22.121094l-17.359375 2.386719c-13.011719 1.789062-22.707031 12.90625-22.707031 26.039062s9.695312 24.253906 22.707031 26.042969l17.359375 2.386719c2.210938 7.785156 5.316406 15.191406 9.179688 22.117187l-10.597656 13.976563c-7.9375 10.46875-6.929688 25.183593 2.355468 34.472656 9.289063 9.285156 24.003906 10.292968 34.46875 2.355468l13.980469-10.597656c6.925781 3.867188 14.332031 6.96875 22.117187 9.179688l2.386719 17.359375c1.792969 13.011719 12.910157 22.707031 26.042969 22.707031s24.253906-9.695312 26.042969-22.707031l2.386719-17.359375c7.785156-2.210938 15.195312-5.3125 22.117187-9.179688l13.980469 10.597656c10.464844 7.9375 25.179687 6.929688 34.46875-2.355468 9.285156-9.289063 10.292968-24.003906 2.355468-34.472656l-10.597656-13.976563c3.867188-6.925781 6.96875-14.332031 9.179688-22.117187l17.359375-2.386719c13.011719-1.789063 22.707031-12.910157 22.707031-26.042969s-9.695312-24.25-22.703125-26.039062zm-117.296875 66.683593c-22.449219 0-40.644531-18.195312-40.644531-40.644531s18.195312-40.644531 40.644531-40.644531 40.644531 18.199219 40.644531 40.644531c0 22.449219-18.195312 40.644531-40.644531 40.644531zm0 0" fill="#e1ebf0"/><path d="m211.554688 233.890625c-2.070313-.980469-4.109376-2.023437-6.101563-3.136719l-13.976563 10.601563c-10.46875 7.933593-25.183593 6.925781-34.46875-2.359375-9.289062-9.289063-10.296874-24.003906-2.359374-34.46875l10.597656-13.980469c-3.863282-6.921875-6.964844-14.332031-9.175782-22.117187l-17.363281-2.386719c-13.011719-1.789063-22.707031-12.910157-22.707031-26.042969s9.695312-24.25 22.707031-26.039062l17.359375-2.386719c2.210938-7.785157 5.316406-15.195313 9.179688-22.121094l-10.597656-13.976563c-7.9375-10.46875-6.929688-25.183593 2.355468-34.46875 9.289063-9.289062 24.003906-10.296874 34.46875-2.359374l13.980469 10.597656c1.992187-1.113282 4.027344-2.152344 6.097656-3.136719-20.546875 25.75-32.839843 58.382813-32.839843 93.890625s12.292968 68.140625 32.84375 93.890625zm0 0" fill="#b4d2d7"/><path d="m256 79.355469c-33.492188 0-60.644531 27.152343-60.644531 60.644531s27.152343 60.644531 60.644531 60.644531 60.644531-27.152343 60.644531-60.644531-27.152343-60.644531-60.644531-60.644531zm0 101.289062c-22.449219 0-40.644531-18.195312-40.644531-40.644531s18.195312-40.644531 40.644531-40.644531 40.644531 18.199219 40.644531 40.644531c0 22.449219-18.195312 40.644531-40.644531 40.644531zm0 0" fill="#9bb9c3"/><path d="m124.066406 140h-56.429687c-19.296875 0-37.71875 8.269531-50.542969 22.691406s-18.886719 33.683594-16.632812 52.851563l8.792968 74.722656c4.007813 34.054687 32.882813 59.734375 67.175782 59.734375 13.875 0 26.789062-4.207031 37.535156-11.402344 18.480468 40.566406 53.824218 71.816406 97.074218 84.816406-.015624.527344-.039062 1.054688-.039062 1.585938 0 13.324219 5.796875 25.292969 15 33.53125v40.636719c9.832031 1.203125 19.84375 1.832031 30 1.832031s20.167969-.628906 30-1.832031v-40.636719c9.203125-8.238281 15-20.207031 15-33.53125 0-.53125-.023438-1.058594-.039062-1.585938 64.234374-19.304687 111.039062-78.890624 111.039062-149.414062v-134zm-47.636718 170c-14.011719 0-25.8125-10.492188-27.449219-24.410156l-8.792969-74.722656c-.933594-7.945313 1.480469-15.617188 6.796875-21.59375 4.953125-5.570313 11.65625-8.804688 19.015625-9.222657.027344 16.542969 13.449219 29.949219 30 29.949219 1.355469 0 2.691406-.097656 4-.273438v64.273438c0 6.902344.453125 13.699219 1.320312 20.363281-4.472656 9.246094-13.949218 15.636719-24.890624 15.636719zm0 0" fill="#ffc97b"/><path d="m494.90625 162.691406c-12.820312-14.421875-31.246094-22.691406-50.542969-22.691406h-296.363281v134c0 3.25.097656 6.476562.296875 9.675781 8.738281 142.789063 195.183594 160.964844 249.1875 54.546875 10.855469 7.425782 23.972656 11.777344 38.085937 11.777344 34.292969 0 63.167969-25.679688 67.175782-59.734375l8.792968-74.722656c2.253907-19.167969-3.808593-38.429688-16.632812-52.851563zm-23.09375 48.175782-8.792969 74.722656c-1.636719 13.917968-13.4375 24.410156-27.449219 24.410156-10.933593 0-20.40625-6.382812-24.882812-15.621094.449219-3.488281.792969-7.050781 1.019531-10.703125.195313-3.199219.292969-6.425781.292969-9.675781v-64.273438c1.308594.175782 2.644531.273438 4 .273438 16.550781 0 29.972656-13.40625 30-29.949219 7.359375.417969 14.0625 3.652344 19.015625 9.222657 5.316406 5.980468 7.730469 13.648437 6.796875 21.59375zm-185.8125 267.132812v21.167969c-9.832031 1.203125-19.84375 1.832031-30 1.832031-2.003906 0-4.003906-.027344-6-.074219v-22.925781c0-9.941406 8.058594-18 18-18s18 8.058594 18 18zm0 0" fill="#ffdc85"/><path d="m310 350c-27.613281 0-50-22.386719-50-50v-160h100v160c0 27.613281-22.386719 50-50 50zm0 0" fill="#fff1b8"/></svg>