<svg height="512pt" viewBox="0 0 512.00009 512" width="512pt" xmlns="http://www.w3.org/2000/svg"><path d="m348.277344 19.875c89.015625 37.851562 151.617187 125.746094 152.472656 228.375 1.152344 138.339844-111.167969 252.042969-249.515625 252.507812-97.085937.324219-181.359375-54.613281-223.179687-135.144531-6.429688-12.378906 2.445312-27.175781 16.394531-27.175781 152.207031 0 275.59375-123.386719 275.59375-275.589844v-24.171875c0-14.546875 14.847656-24.496093 28.234375-18.800781zm0 0" fill="#ffdc85"/><path d="m430.242188 420.023438h-334.179688c-2.820312 0-5.109375-2.289063-5.109375-5.109376v-178.867187c0-127.660156 108.125-229.292969 235.445313-219.988281 10.027343.734375 17.695312 2.027344 22.089843 3.902344 30.945313 13.195312 58.691407 32.445312 81.753907 56.261718zm0 0" fill="#fcae51"/><path d="m348.488281 361.773438c0 2.820312-2.289062 5.109374-5.109375 5.109374h-314.660156c-18.296875-34.742187-28.6835938-74.300781-28.71875-116.285156-.117188-137.703125 112.082031-250.277344 249.785156-250.597656 35.039063-.0820312 68.402344 7.042969 98.703125 19.960938zm0 0" fill="#fff7ee"/><path d="m274.90625 239.136719v10.21875c0 2.824219-2.289062 5.109375-5.109375 5.109375h-204.390625c-2.824219 0-5.109375-2.285156-5.109375-5.109375v-10.21875c0-2.820313 2.285156-5.109375 5.109375-5.109375h204.390625c2.820313 0 5.109375 2.289062 5.109375 5.109375zm-124.824219 58.253906h-87.597656c-1.207031 0-2.191406 2.285156-2.191406 5.109375v10.21875c0 2.820312.980469 5.109375 2.191406 5.109375h87.597656c1.207031 0 2.1875-2.289063 2.1875-5.109375v-10.21875c0-2.824219-.980469-5.109375-2.1875-5.109375zm45.433594-229.941406v-10.21875c0-2.824219-2.289063-5.109375-5.109375-5.109375h-92.613281c-8.199219 6.332031-15.996094 13.15625-23.34375 20.4375h115.957031c2.820312 0 5.109375-2.289063 5.109375-5.109375zm74.28125 86.183593h-204.390625c-2.824219 0-5.109375 2.289063-5.109375 5.109376v10.21875c0 2.824218 2.285156 5.113281 5.109375 5.113281h204.390625c2.820313 0 5.109375-2.289063 5.109375-5.113281v-10.21875c0-2.820313-2.289062-5.109376-5.109375-5.109376zm0-40.195312h-204.390625c-2.824219 0-5.109375 2.289062-5.109375 5.109375v10.21875c0 2.820313 2.285156 5.109375 5.109375 5.109375h204.390625c2.820313 0 5.109375-2.289062 5.109375-5.109375v-10.21875c0-2.820313-2.289062-5.109375-5.109375-5.109375zm0 80.394531h-204.390625c-2.824219 0-5.109375 2.289063-5.109375 5.109375v10.21875c0 2.824219 2.285156 5.109375 5.109375 5.109375h204.390625c2.820313 0 5.109375-2.285156 5.109375-5.109375v-10.21875c0-2.824218-2.289062-5.109375-5.109375-5.109375zm0 0" fill="#b4d2d7"/><path d="m228.917969 158.742188v10.21875c0 2.824218-2.289063 5.113281-5.109375 5.113281h-158.402344c-2.824219 0-5.109375-2.289063-5.109375-5.113281v-10.21875c0-2.820313 2.285156-5.109376 5.109375-5.109376h158.402344c2.820312 0 5.109375 2.289063 5.109375 5.109376zm15.328125-45.304688h-178.839844c-2.824219 0-5.109375 2.289062-5.109375 5.109375v10.21875c0 2.820313 2.285156 5.109375 5.109375 5.109375h178.839844c2.824218 0 5.109375-2.289062 5.109375-5.109375v-10.21875c0-2.820313-2.285157-5.109375-5.109375-5.109375zm-61.316406 120.589844h-117.523438c-2.824219 0-5.109375 2.289062-5.109375 5.109375v10.21875c0 2.824219 2.285156 5.109375 5.109375 5.109375h117.523438c2.820312 0 5.109374-2.285156 5.109374-5.109375v-10.21875c0-2.820313-2.289062-5.109375-5.109374-5.109375zm-117.523438-19.757813h71.535156c2.824219 0 5.109375-2.285156 5.109375-5.109375v-10.21875c0-2.820312-2.285156-5.109375-5.109375-5.109375h-71.535156c-2.824219 0-5.109375 2.289063-5.109375 5.109375v10.21875c0 2.820313 2.285156 5.109375 5.109375 5.109375zm0 0" fill="#4691db"/><path d="m488.796875 342.3125-17.746094-2.441406c-2.257812-7.953125-5.429687-15.527344-9.378906-22.601563l10.832031-14.285156c8.109375-10.695313 7.082032-25.734375-2.410156-35.226563-9.488281-9.492187-24.53125-10.519531-35.226562-2.410156l-14.28125 10.832032c-7.078126-3.953126-14.648438-7.121094-22.605469-9.382813l-2.441407-17.742187c-1.828124-13.296876-13.191406-23.203126-26.613281-23.203126s-24.785156 9.90625-26.613281 23.203126l-2.4375 17.746093c-7.957031 2.257813-15.53125 5.429688-22.605469 9.378907l-14.285156-10.832032c-10.695313-8.109375-25.734375-7.082031-35.226563 2.410156-9.492187 9.492188-10.519531 24.53125-2.410156 35.226563l10.832032 14.285156c-3.949219 7.078125-7.121094 14.648438-9.378907 22.605469l-17.742187 2.4375c-13.300782 1.828125-23.207032 13.191406-23.207032 26.613281s9.90625 24.785157 23.207032 26.613281l17.742187 2.441407c2.257813 7.953125 5.429688 15.527343 9.378907 22.601562l-10.832032 14.285157c-8.109375 10.695312-7.078125 25.734374 2.410156 35.226562 9.492188 9.492188 24.53125 10.519531 35.226563 2.410156l14.285156-10.832031c7.074219 3.953125 14.648438 7.121094 22.605469 9.382813l2.4375 17.742187c1.828125 13.296875 13.191406 23.203125 26.613281 23.203125s24.785157-9.90625 26.613281-23.203125l2.441407-17.746094c7.953125-2.257812 15.527343-5.429687 22.605469-9.378906l14.28125 10.832031c10.699218 8.109375 25.738281 7.082032 35.226562-2.410156 9.492188-9.492188 10.519531-24.53125 2.410156-35.226562l-10.832031-14.285157c3.949219-7.078125 7.121094-14.648437 9.378906-22.605469l17.746094-2.4375c13.296875-1.828124 23.203125-13.191406 23.203125-26.613281s-9.90625-24.785156-23.203125-26.613281zm-119.871094 68.152344c-22.941406 0-41.535156-18.597656-41.535156-41.539063 0-22.941406 18.59375-41.539062 41.535156-41.539062 22.941407 0 41.539063 18.597656 41.539063 41.539062 0 22.941407-18.597656 41.539063-41.539063 41.539063zm0 0" fill="#4691db"/><path d="m323.503906 464.878906c-2.117187-1.003906-4.199218-2.070312-6.234375-3.207031l-14.285156 10.832031c-10.695313 8.109375-25.734375 7.082032-35.226563-2.410156-9.488281-9.492188-10.519531-24.53125-2.410156-35.226562l10.832032-14.285157c-3.949219-7.074219-7.117188-14.648437-9.378907-22.601562l-17.742187-2.441407c-13.300782-1.828124-23.207032-13.191406-23.207032-26.613281s9.90625-24.785156 23.207032-26.613281l17.742187-2.4375c2.257813-7.957031 5.429688-15.527344 9.378907-22.605469l-10.832032-14.285156c-8.109375-10.695313-7.078125-25.734375 2.410156-35.226563 9.492188-9.492187 24.53125-10.519531 35.226563-2.410156l14.285156 10.832032c2.035157-1.136719 4.117188-2.199219 6.234375-3.207032-21.003906 26.316406-33.566406 59.664063-33.566406 95.953125 0 36.289063 12.5625 69.636719 33.566406 95.953125zm0 0" fill="#0573cd"/><path d="m368.925781 306.949219c-34.226562 0-61.976562 27.75-61.976562 61.976562 0 34.226563 27.75 61.976563 61.976562 61.976563 34.230469 0 61.976563-27.75 61.976563-61.976563 0-34.226562-27.746094-61.976562-61.976563-61.976562zm0 103.515625c-22.941406 0-41.535156-18.597656-41.535156-41.539063 0-22.941406 18.59375-41.539062 41.535156-41.539062 22.941407 0 41.539063 18.597656 41.539063 41.539062 0 22.941407-18.597656 41.539063-41.539063 41.539063zm0 0" fill="#015aad"/></svg>