<svg height="512pt" viewBox="0 -6 512 512" width="512pt" xmlns="http://www.w3.org/2000/svg"><path d="m512 250.378906c0 138.28125-112.097656 250.378906-250.378906 250.378906s-250.378906-112.097656-250.378906-250.378906 112.097656-250.378906 250.378906-250.378906 250.378906 112.097656 250.378906 250.378906zm0 0" fill="#69c3da"/><path d="m400.265625 152.441406h-21.289063v-34.0625h51.097657c4.703125 0 8.515625-3.816406 8.515625-8.519531v-25.546875c0-4.707031-3.8125-8.515625-8.515625-8.515625h-51.097657v-11.074219c0-4.703125-3.8125-8.515625-8.515624-8.515625h-25.550782c-4.703125 0-8.515625 3.8125-8.515625 8.515625v11.070313h-21.289062c-33.066407 0-59.933594 27.0625-59.613281 60.203125.320312 32.820312 27.554687 59.027344 60.371093 59.027344h20.53125v34.0625h-51.097656c-4.703125 0-8.515625 3.816406-8.515625 8.519531v25.546875c0 4.703125 3.8125 8.515625 8.515625 8.515625h51.097656v11.070312c0 4.707031 3.8125 8.515625 8.515625 8.515625h25.550782c4.703124 0 8.515624-3.8125 8.515624-8.515625v-11.070312h20.53125c32.820313 0 60.050782-26.207031 60.371094-59.027344.320313-33.136719-26.546875-60.199219-59.613281-60.199219zm-63.871094 0h-21.289062c-9.613281 0-17.386719-8-17.019531-17.6875.347656-9.21875 8.210937-16.375 17.4375-16.375h20.871093zm63.453125 76.648438h-20.871094v-34.066406h21.289063c9.609375 0 17.386719 8 17.019531 17.691406-.347656 9.214844-8.214844 16.375-17.4375 16.375zm0 0" fill="#b3e8f4"/><path d="m245.269531 469.078125c0 5.644531-4.574219 10.21875-10.21875 10.21875s-10.21875-4.574219-10.21875-10.21875 4.574219-10.21875 10.21875-10.21875 10.21875 4.574219 10.21875 10.21875zm20.4375-10.21875c-5.644531 0-10.21875 4.574219-10.21875 10.21875s4.574219 10.21875 10.21875 10.21875 10.222657-4.574219 10.222657-10.21875-4.578126-10.21875-10.222657-10.21875zm30.660157 0c-5.644532 0-10.21875 4.574219-10.21875 10.21875s4.574218 10.21875 10.21875 10.21875c5.644531 0 10.21875-4.574219 10.21875-10.21875s-4.574219-10.21875-10.21875-10.21875zm0 0" fill="#17b0ce"/><path d="m429.222656 413.890625h-235.050781c-11.289063 0-20.4375-9.148437-20.4375-20.4375v-122.632813c0-11.289062 9.148437-20.441406 20.4375-20.441406h235.050781c11.289063 0 20.4375 9.152344 20.4375 20.441406v122.632813c0 11.289063-9.148437 20.4375-20.4375 20.4375zm0 0" fill="#f43b5f"/><path d="m449.660156 270.820312v122.632813c0 11.289063-9.148437 20.4375-20.4375 20.4375h-137.246094l-23.546874 28.523437c-2.351563 2.847657-6.71875 2.847657-9.070313 0l-23.546875-28.523437h-10.980469c-11.289062 0-20.441406-9.148437-20.441406-20.4375v-122.632813c0-11.289062 9.152344-20.441406 20.441406-20.441406h204.390625c11.289063 0 20.4375 9.152344 20.4375 20.441406zm0 0" fill="#ff5284"/><path d="m393.453125 301.476562h-163.511719c-2.824218 0-5.109375-2.289062-5.109375-5.109374v-10.21875c0-2.824219 2.285157-5.109376 5.109375-5.109376h163.511719c2.820313 0 5.109375 2.285157 5.109375 5.109376v10.21875c0 2.820312-2.289062 5.109374-5.109375 5.109374zm-45.988281 76.648438v-10.222656c0-2.820313-2.289063-5.109375-5.109375-5.109375h-112.414063c-2.824218 0-5.109375 2.289062-5.109375 5.109375v10.222656c0 2.820312 2.285157 5.109375 5.109375 5.109375h112.414063c2.820312 0 5.109375-2.289063 5.109375-5.109375zm71.539062-40.878906v-10.21875c0-2.824219-2.289062-5.109375-5.113281-5.109375h-183.949219c-2.824218 0-5.109375 2.285156-5.109375 5.109375v10.21875c0 2.820312 2.285157 5.109375 5.109375 5.109375h183.949219c2.824219 0 5.113281-2.289063 5.113281-5.109375zm0 0" fill="#ce1356"/><path d="m61.316406 327.027344v66.425781c0 2.820313-2.289062 5.109375-5.109375 5.109375h-10.21875c-2.820312 0-5.109375-2.289062-5.109375-5.109375v-66.425781c0-2.824219 2.289063-5.109375 5.109375-5.109375h10.21875c2.820313 0 5.109375 2.285156 5.109375 5.109375zm76.648438-35.769532h-10.21875c-2.824219 0-5.113282 2.289063-5.113282 5.109376v97.085937c0 2.820313 2.289063 5.109375 5.113282 5.109375h10.21875c2.820312 0 5.109375-2.289062 5.109375-5.109375v-97.085937c0-2.820313-2.289063-5.109376-5.109375-5.109376zm-40.878906-40.878906h-10.21875c-2.824219 0-5.109376 2.289063-5.109376 5.109375v137.964844c0 2.820313 2.285157 5.109375 5.109376 5.109375h10.21875c2.820312 0 5.109374-2.289062 5.109374-5.109375v-137.964844c0-2.820312-2.289062-5.109375-5.109374-5.109375zm0 0" fill="#0573cd"/><path d="m255.488281 229.941406h-235.050781c-11.285156 0-20.4375-9.152344-20.4375-20.441406v-122.632812c0-11.289063 9.152344-20.441407 20.4375-20.441407h235.050781c11.289063 0 20.441407 9.152344 20.441407 20.441407v122.632812c0 11.289062-9.152344 20.441406-20.441407 20.441406zm0 0" fill="#ffdc85"/><path d="m275.929688 86.867188v122.632812c0 11.289062-9.152344 20.441406-20.441407 20.441406h-33.238281l-23.546875 28.523438c-2.347656 2.847656-6.714844 2.847656-9.066406 0l-23.546875-28.523438h-114.992188c-11.289062 0-20.4375-9.152344-20.4375-20.441406v-122.632812c0-11.289063 9.148438-20.441407 20.4375-20.441407h204.390625c11.289063 0 20.441407 9.152344 20.441407 20.441407zm0 0" fill="#fff1b8"/><path d="m51.097656 112.414062v-10.21875c0-2.820312 2.289063-5.109374 5.109375-5.109374h163.511719c2.824219 0 5.113281 2.289062 5.113281 5.109374v10.21875c0 2.824219-2.289062 5.109376-5.113281 5.109376h-163.511719c-2.820312 0-5.109375-2.285157-5.109375-5.109376zm10.21875 66.429688c-5.644531 0-10.21875 4.574219-10.21875 10.21875s4.574219 10.21875 10.21875 10.21875c5.644532 0 10.21875-4.574219 10.21875-10.21875s-4.574218-10.21875-10.21875-10.21875zm30.660156 0c-5.644531 0-10.21875 4.574219-10.21875 10.21875s4.574219 10.21875 10.21875 10.21875c5.644532 0 10.21875-4.574219 10.21875-10.21875s-4.574218-10.21875-10.21875-10.21875zm30.65625 0c-5.640624 0-10.21875 4.574219-10.21875 10.21875s4.578126 10.21875 10.21875 10.21875c5.644532 0 10.222657-4.574219 10.222657-10.21875s-4.578125-10.21875-10.222657-10.21875zm117.527344-40.878906h-183.953125c-2.820312 0-5.109375 2.289062-5.109375 5.109375v10.21875c0 2.820312 2.289063 5.109375 5.109375 5.109375h183.953125c2.820313 0 5.109375-2.289063 5.109375-5.109375v-10.21875c0-2.820313-2.289062-5.109375-5.109375-5.109375zm0 0" fill="#ffc97b"/></svg>