<svg height="512pt" viewBox="-6 0 512 512.00016" width="512pt" xmlns="http://www.w3.org/2000/svg"><path d="m500.757812 250.378906c0 138.28125-112.097656 250.378906-250.378906 250.378906s-250.378906-112.097656-250.378906-250.378906 112.097656-250.378906 250.378906-250.378906 250.378906 112.097656 250.378906 250.378906zm0 0" fill="#ffdc85"/><path d="m264.6875.414062v75.210938c0 8.464844-6.863281 15.328125-15.332031 15.328125h-192.046875c9.144531-11.058594 19.222656-21.320313 30.109375-30.664063 18.265625-15.675781 116.316406-57.8125 146.609375-59.765624 5.40625-.347657 10.859375-.523438 16.351562-.523438 4.804688 0 9.570313.148438 14.308594.414062zm0 0" fill="#934a4a"/><path d="m234.027344.546875v52.59375c0 3.953125-3.203125 7.15625-7.152344 7.15625h-139.453125c39.929687-34.261719 90.777344-56.152344 146.605469-59.75zm0 0" fill="#cea19a"/><path d="m458.859375 136.941406v286.148438c0 8.464844-6.863281 15.328125-15.332031 15.328125h-367.902344c-8.464844 0-15.328125-6.863281-15.328125-15.328125v-286.148438c0-8.464844 6.863281-15.328125 15.328125-15.328125h367.902344c8.46875 0 15.332031 6.863281 15.332031 15.328125zm0 0" fill="#ed9c3b"/><path d="m458.859375 136.941406v286.148438c0 8.464844-6.863281 15.328125-15.332031 15.328125h-337.242188c-8.46875 0-15.332031-6.863281-15.332031-15.328125v-286.148438c0-8.464844 6.863281-15.328125 15.332031-15.328125h337.242188c8.46875 0 15.332031 6.863281 15.332031 15.328125zm0 0" fill="#f9b65d"/><path d="m428.199219 159.425781v241.179688c0 3.953125-3.203125 7.15625-7.152344 7.15625h-322.9375c-3.953125 0-7.15625-3.203125-7.15625-7.15625v-241.179688c0-3.953125 3.203125-7.15625 7.15625-7.15625h322.9375c3.949219 0 7.152344 3.203125 7.152344 7.15625zm0 0" fill="#fff1b8"/><path d="m274.90625 366.882812h-30.660156c-11.285156 0-20.4375-9.152343-20.4375-20.441406 0-11.285156 9.152344-20.4375 20.4375-20.4375h30.660156c11.289062 0 20.4375 9.152344 20.4375 20.4375 0 11.289063-9.148438 20.441406-20.4375 20.441406zm0 0" fill="#ffc97b"/><path d="m192.128906 199.28125v-10.21875c0-2.820312 2.285156-5.109375 5.109375-5.109375h124.679688c2.820312 0 5.109375 2.289063 5.109375 5.109375v10.21875c0 2.820312-2.289063 5.109375-5.109375 5.109375h-124.679688c-2.824219 0-5.109375-2.289063-5.109375-5.109375zm-34.746094 44.964844h204.390626c2.820312 0 5.109374-2.285156 5.109374-5.109375v-10.21875c0-2.820313-2.289062-5.109375-5.109374-5.109375h-204.390626c-2.824218 0-5.109374 2.289062-5.109374 5.109375v10.21875c0 2.824219 2.285156 5.109375 5.109374 5.109375zm20.4375 91.976562h-45.988281c-2.820312 0-5.109375 2.289063-5.109375 5.109375v10.222657c0 2.820312 2.289063 5.109374 5.109375 5.109374h45.988281c2.820313 0 5.109376-2.289062 5.109376-5.109374v-10.222657c0-2.820312-2.289063-5.109375-5.109376-5.109375zm209.5 0h-45.988281c-2.820312 0-5.109375 2.289063-5.109375 5.109375v10.222657c0 2.820312 2.289063 5.109374 5.109375 5.109374h45.988281c2.824219 0 5.109376-2.289062 5.109376-5.109374v-10.222657c0-2.820312-2.285157-5.109375-5.109376-5.109375zm0 0" fill="#ffdc85"/><path d="m320.894531 295.34375h-122.636719c-2.820312 0-5.109374-2.285156-5.109374-5.109375v-10.21875c0-2.820313 2.289062-5.109375 5.109374-5.109375h122.636719c2.820313 0 5.109375 2.289062 5.109375 5.109375v10.21875c0 2.824219-2.289062 5.109375-5.109375 5.109375zm0 0" fill="#fcae51"/><path d="m448.035156 511.121094-27.863281-20.898438-27.867187 20.898438c-2.867188 2.152344-6.964844.105468-6.964844-3.484375v-61.359375c0-9.617188 7.796875-17.414063 17.417968-17.414063h34.828126c9.617187 0 17.414062 7.796875 17.414062 17.414063v61.359375c0 3.589843-4.097656 5.636719-6.964844 3.484375zm0 0" fill="#f43b5f"/><path d="m493.898438 385.132812c0 40.714844-33.007813 73.726563-73.726563 73.726563s-73.730469-33.007813-73.730469-73.726563 33.011719-73.726562 73.730469-73.726562 73.726563 33.007812 73.726563 73.726562zm0 0" fill="#15b568"/><path d="m434.523438 457.433594c-4.644532.925781-9.4375 1.425781-14.351563 1.425781-40.71875 0-73.730469-33.007813-73.730469-73.726563s33.011719-73.726562 73.730469-73.726562c4.914063 0 9.707031.5 14.351563 1.421875-33.800782 6.71875-59.28125 36.53125-59.28125 72.304687 0 35.769532 25.480468 65.585938 59.28125 72.300782zm0 0" fill="#4b9b5e"/><path d="m444.113281 381.699219h-12.398437v32.960937c0 2.824219-2.285156 5.113282-5.109375 5.113282h-12.871094c-2.824219 0-5.109375-2.289063-5.109375-5.113282v-32.960937h-12.398438c-4.277343 0-6.660156-4.941407-4-8.289063l23.941407-30.113281c2.046875-2.574219 5.957031-2.574219 8 0l23.941406 30.113281c2.664063 3.347656.28125 8.289063-3.996094 8.289063zm0 0" fill="#fff1b8"/></svg>