<svg height="511pt" viewBox="-5 1 511 511.99967" width="511pt" xmlns="http://www.w3.org/2000/svg"><path d="m501.257812 261.621094c0 103.769531-63.136718 192.785156-153.085937 230.753906-9.792969 4.132812-20.644531-2.96875-20.644531-13.601562v-25.367188c0-158.410156-128.417969-286.828125-286.828125-286.828125-10.316407 0-16.945313-10.9375-12.195313-20.09375 41.734375-80.445313 125.824219-135.382813 222.742188-135.242187 138.390625.199218 250.011718 111.988281 250.011718 250.378906zm0 0" fill="#69c3da"/><path d="m430.742188 435.777344c-23.0625 23.816406-50.808594 43.066406-81.753907 56.265625-4.394531 1.871093-12.0625 3.167969-22.09375 3.898437-127.320312 9.304688-235.441406-92.328125-235.441406-219.988281v-178.867187c0-2.820313 2.289063-5.109376 5.109375-5.109376h334.179688zm0 0" fill="#4691db"/><path d="m348.988281 492.039062c-30.300781 12.917969-63.664062 20.042969-98.703125 19.960938-137.703125-.320312-249.902344-112.894531-249.785156-250.597656.035156-41.984375 10.421875-81.542969 28.71875-116.285156h314.660156c2.820313 0 5.109375 2.289062 5.109375 5.109374zm0 0" fill="#fff7ee"/><path d="m275.40625 344.398438v10.21875c0 2.824218-2.289062 5.113281-5.109375 5.113281h-204.390625c-2.824219 0-5.109375-2.289063-5.109375-5.113281v-10.21875c0-2.820313 2.285156-5.109376 5.109375-5.109376h204.390625c2.820313 0 5.109375 2.289063 5.109375 5.109376zm-84.824219 45.988281h-124.675781c-2.824219 0-5.109375 2.289062-5.109375 5.109375v10.21875c0 2.824218 2.285156 5.113281 5.109375 5.113281h124.675781c2.824219 0 5.113281-2.289063 5.113281-5.113281v-10.21875c0-2.820313-2.289062-5.109375-5.113281-5.109375zm-127.597656-175.777344h87.597656c1.207031 0 2.1875-2.285156 2.1875-5.109375v-10.21875c0-2.820312-.980469-5.109375-2.1875-5.109375h-87.597656c-1.207031 0-2.191406 2.289063-2.191406 5.109375v10.21875c0 2.824219.980469 5.109375 2.191406 5.109375zm207.3125 42.921875h-204.390625c-2.824219 0-5.109375 2.289062-5.109375 5.113281v10.21875c0 2.820313 2.285156 5.109375 5.109375 5.109375h204.390625c2.820313 0 5.109375-2.289062 5.109375-5.109375v-10.21875c0-2.824219-2.289062-5.113281-5.109375-5.113281zm0 40.878906h-204.390625c-2.824219 0-5.109375 2.289063-5.109375 5.109375v10.222657c0 2.820312 2.285156 5.109374 5.109375 5.109374h204.390625c2.820313 0 5.109375-2.289062 5.109375-5.109374v-10.222657c0-2.820312-2.289062-5.109375-5.109375-5.109375zm0 0" fill="#b4d2d7"/><path d="m132.332031 454.769531v10.21875c0 2.824219-2.289062 5.113281-5.109375 5.113281h-15.023437c-9.335938-6.222656-18.226563-13.054687-26.621094-20.441406h41.644531c2.820313 0 5.109375 2.289063 5.109375 5.109375zm0 0" fill="#9bb9c3"/><path d="m306.066406 454.769531v10.21875c0 2.824219-2.289062 5.113281-5.113281 5.113281h-71.535156c-2.820313 0-5.109375-2.289062-5.109375-5.113281v-10.21875c0-2.820312 2.289062-5.109375 5.109375-5.109375h71.535156c2.824219 0 5.113281 2.289063 5.113281 5.109375zm0 0" fill="#87a0af"/><path d="m438.917969 15.328125v25.550781h-51.097657v-25.550781c0-8.464844 6.863282-15.328125 15.332032-15.328125h20.4375c8.464844 0 15.328125 6.863281 15.328125 15.328125zm0 0" fill="#db655d"/><path d="m377.601562 328.738281v-7.027343c0-11.285157 9.152344-20.4375 20.4375-20.4375h14.613282l.71875-.800782.71875.800782h14.609375c11.289062 0 20.4375 9.152343 20.4375 20.4375v7.027343c0 2.75-.738281 5.453125-2.140625 7.820313l-29.230469 49.28125c-1.980469 3.339844-6.8125 3.339844-8.789063 0l-29.230468-49.28125c-1.402344-2.367188-2.144532-5.070313-2.144532-7.820313zm0 0" fill="#ffdc85"/><path d="m418.480469 301.273438h10.21875c11.289062 0 20.4375 9.152343 20.4375 20.441406v7.023437c0 2.753907-.738281 5.453125-2.140625 7.820313l-23.40625 39.460937-23.402344-39.460937c-1.40625-2.367188-2.144531-5.070313-2.144531-7.820313v-7.027343c-.003907-11.285157 9.148437-20.4375 20.4375-20.4375zm0 0" fill="#fff1b8"/><path d="m449.136719 45.785156v281.917969h-71.535157v-281.917969h.011719c.109375-8.371094 6.921875-15.125 15.316407-15.125h40.878906c8.398437 0 15.210937 6.753906 15.320312 15.125zm0 0" fill="#f9b65d"/><path d="m408.261719 266.386719v-220.398438c0-8.464843 6.863281-15.328125 15.328125-15.328125h10.21875c8.464844 0 15.328125 6.863282 15.328125 15.328125v220.398438c0 11.289062-9.148438 20.441406-20.4375 20.441406-11.289063 0-20.4375-9.152344-20.4375-20.441406zm0 0" fill="#ffc97b"/><path d="m428.699219 173.734375v-127.746094c0-8.464843 6.863281-15.328125 15.328125-15.328125h10.222656c8.464844 0 15.328125 6.863282 15.328125 15.328125v127.746094c0 11.285156-9.152344 20.4375-20.441406 20.4375-11.285157 0-20.4375-9.152344-20.4375-20.4375zm0 0" fill="#ed9c3b"/></svg>