<svg height="512pt" viewBox="-6 0 512 512" width="512pt" xmlns="http://www.w3.org/2000/svg"><path d="m500.757812 261.621094c0 138.28125-112.097656 250.378906-250.378906 250.378906-52.296875 0-100.847656-16.035156-141.007812-43.453125-20.804688-14.203125-84.507813-94.777344-93.792969-119.796875-10.074219-27.132812-15.578125-56.488281-15.578125-87.128906 0-138.28125 112.097656-250.378906 250.378906-250.378906s250.378906 112.097656 250.378906 250.378906zm0 0" fill="#15b568"/><path d="m378.976562 115.480469h-25.550781v-40.878907h61.316407c5.644531 0 10.222656-4.574218 10.222656-10.21875v-30.660156c0-5.640625-4.578125-10.21875-10.222656-10.21875h-61.316407v-13.285156c0-5.644531-4.574219-10.21875-10.21875-10.21875h-30.660156c-5.644531 0-10.21875 4.574219-10.21875 10.21875v13.285156h-25.546875c-39.683594 0-71.921875 32.476563-71.535156 72.246094.382812 39.378906 33.0625 70.828125 72.445312 70.828125h24.636719v40.878906h-61.316406c-5.644531 0-10.21875 4.574219-10.21875 10.21875v30.660157c0 5.644531 4.574219 10.21875 10.21875 10.21875h61.316406v13.285156c0 5.644531 4.574219 10.21875 10.21875 10.21875h30.660156c5.644531 0 10.21875-4.574219 10.21875-10.21875v-13.285156h24.636719c39.386719 0 72.0625-31.449219 72.445312-70.832032.386719-39.765625-31.851562-72.242187-71.53125-72.242187zm-102.195312 0c-11.535156 0-20.867188-9.601563-20.425781-21.226563.417969-11.0625 9.859375-19.652344 20.925781-19.652344h25.046875v40.878907zm101.691406 91.976562h-25.046875v-40.878906h25.550781c11.53125 0 20.863282 9.601563 20.421876 21.230469-.417969 11.058594-9.855469 19.648437-20.925782 19.648437zm0 0" fill="#ffc97b"/><path d="m378.976562 115.480469h-25.550781v-40.878907h61.316407c5.644531 0 10.222656-4.574218 10.222656-10.21875v-30.660156c0-5.640625-4.578125-10.21875-10.222656-10.21875h-61.316407v-13.285156c0-5.644531-4.574219-10.21875-10.21875-10.21875h-30.660156c-5.644531 0-10.21875 4.574219-10.21875 10.21875v13.285156h-25.546875c-4.265625 0-8.433594.398438-12.492188 1.113282-6.332031 15.765624-9.820312 32.976562-9.820312 51.007812 0 34.910156 13.070312 66.765625 34.578125 90.953125h13.28125v13.050781c14.667969 12.574219 32.027344 22.101563 51.097656 27.597656v-40.648437h25.550781c11.53125 0 20.863282 9.601563 20.421876 21.230469-.417969 11.058594-9.855469 19.648437-20.925782 19.648437h-24.238281c11.820313 3.328125 24.289063 5.109375 37.175781 5.109375 20.710938 0 40.339844-4.605468 57.941406-12.835937.710938-3.902344 1.117188-7.910157 1.160157-12.007813.382812-39.765625-31.855469-72.242187-71.535157-72.242187zm-76.648437 0h-25.546875c-11.535156 0-20.867188-9.601563-20.425781-21.226563.417969-11.0625 9.859375-19.652344 20.925781-19.652344h25.046875zm0 0" fill="#ffdc85"/><path d="m477.515625 301.21875c0 6.105469-3.90625 11.523438-9.695313 13.453125l-65.742187 21.914063c-31.261719 10.421874-63.996094 15.730468-96.949219 15.730468h-97.855468c-10.84375 0-21.242188 4.308594-28.90625 11.976563l-70.300782 70.296875-71.535156-71.535156 103.4375-103.4375c19.167969-19.167969 45.160156-29.933594 72.265625-29.933594h142.648437c11.289063 0 20.4375 9.152344 20.4375 20.4375 0 11.289062-9.148437 20.441406-20.4375 20.441406h-102.195312c-5.644531 0-10.222656 4.574219-10.222656 10.21875s4.578125 10.21875 10.222656 10.21875h132.851562l6.402344-2.132812c16.066406-5.355469 32.890625-8.085938 49.824219-8.085938h15.3125c11.285156 0 20.4375 9.152344 20.4375 20.4375zm0 0" fill="#ffdfcf"/><path d="m473.300781 288.824219c2.632813 3.441406 4.214844 7.730469 4.214844 12.398437 0 6.101563-3.90625 11.519532-9.695313 13.449219l-65.742187 21.914063c-31.261719 10.421874-63.996094 15.734374-96.949219 15.734374h-97.855468c-10.84375 0-21.242188 4.304688-28.90625 11.972657l-70.300782 70.300781-71.535156-71.539062 49.058594 49.058593 70.300781-70.296875c7.664063-7.667968 18.0625-11.976562 28.902344-11.976562h120.335937c32.953125 0 65.6875-5.308594 96.949219-15.730469l65.742187-21.914063c2.109376-.703124 3.964844-1.875 5.480469-3.371093zm0 0" fill="#ffcebf"/><path d="m359.988281 264.941406h-5.109375c-5.644531 0-10.21875-4.574218-10.21875-10.21875v-10.21875c0-5.644531 4.574219-10.21875 10.21875-10.21875h5.109375c8.46875 0 15.332031 6.863282 15.332031 15.328125 0 8.464844-6.863281 15.328125-15.332031 15.328125zm0 0" fill="#ffeee6"/><path d="m151.058594 387.722656c7.984375 7.984375 7.984375 20.925782 0 28.90625l-34.003906 34.007813c-37.519532-27.257813-67.171876-64.671875-84.925782-108.214844l22.363282-22.363281c7.980468-7.980469 20.921874-7.980469 28.90625 0zm0 0" fill="#b4d2d7"/><path d="m151.058594 387.722656c7.984375 7.984375 7.984375 20.925782 0 28.90625l-34.003906 34.007813c-29.328126-21.308594-53.851563-48.820313-71.640626-80.617188l29.515626-29.519531c7.984374-7.984375 20.925781-7.984375 28.90625 0zm0 0" fill="#e1ebf0"/><path d="m144.378906 419.078125c3.988282 3.992187 3.988282 10.464844 0 14.453125l-35.003906 35.003906c-42.496094-29.015625-75.59375-70.78125-93.785156-119.789062l22-22.003906c3.992187-3.988282 10.460937-3.988282 14.453125 0zm0 0" fill="#17b0ce"/><path d="m144.378906 419.078125c3.988282 3.992187 3.988282 10.464844 0 14.453125l-35.003906 35.003906c-32.914062-22.472656-60.195312-52.585937-79.273438-87.796875l30.742188-30.742187c3.988281-3.992188 10.460938-3.992188 14.449219 0zm0 0" fill="#69c3da"/></svg>