<svg height="512pt" viewBox="0 0 512 512" width="512pt" xmlns="http://www.w3.org/2000/svg"><path d="m512 261.621094c0 122.929687-88.589844 225.167968-205.414062 246.351562-14.585938 2.648438-189.136719-29.875-235.058594-83.386718-37.578125-43.796876-60.285156-100.730469-60.285156-162.964844 0-138.28125 112.097656-250.378906 250.378906-250.378906s250.378906 112.097656 250.378906 250.378906zm0 0" fill="#b3e8f4"/><path d="m400.800781 68.015625v85.269531h-30.96875v-85.269531c0-10.214844-6.722656-19.335937-16.347656-22.183594-15.984375-4.726562-32.621094-7.125-49.453125-7.125s-33.472656 2.398438-49.457031 7.125c-9.625 2.847657-16.347657 11.96875-16.347657 22.183594v85.269531h-30.964843v-85.269531c0-23.835937 15.84375-45.167969 38.53125-51.878906 18.835937-5.570313 38.429687-8.394531 58.238281-8.394531 19.804688 0 39.398438 2.824218 58.234375 8.394531 22.691406 6.707031 38.535156 28.042969 38.535156 51.878906zm0 0" fill="#934a4a"/><path d="m380.726562 27.472656-23.371093 23.375c-1.992188 1.984375-4.898438 2.738282-7.597657 1.96875-14.816406-4.226562-30.199218-6.367187-45.726562-6.367187s-30.914062 2.144531-45.726562 6.367187c-.699219.199219-1.414063.296875-2.121094.296875-2.027344 0-4.003906-.796875-5.476563-2.265625l-23.375-23.375c-1.667969-1.667968-2.484375-4.007812-2.214843-6.351562.265624-2.34375 1.585937-4.441406 3.589843-5.691406 4.667969-2.914063 9.679688-5.175782 14.890625-6.71875 19.550782-5.78125 39.882813-8.710938 60.433594-8.710938s40.882812 2.929688 60.433594 8.710938c5.210937 1.542968 10.21875 3.804687 14.890625 6.71875 2 1.25 3.324219 3.347656 3.589843 5.691406.269532 2.34375-.546874 4.683594-2.21875 6.351562zm0 0" fill="#f2806d"/><path d="m237.976562 38.113281c8.355469-2.585937 16.839844-4.667969 25.40625-6.257812l-2.773437-10.359375c-.730469-2.71875.882813-5.515625 3.605469-6.242188l5.105468-1.371094c2.71875-.726562 5.515626.886719 6.242188 3.605469l3.230469 12.0625c5.804687-.660156 11.640625-1.089843 17.496093-1.289062v-12.089844c0-2.816406 2.28125-5.101563 5.097657-5.101563h5.285156c2.816406 0 5.097656 2.285157 5.097656 5.101563v12.089844c5.855469.199219 11.6875.628906 17.492188 1.289062l3.234375-12.0625c.726562-2.71875 3.523437-4.332031 6.242187-3.605469l5.105469 1.371094c2.71875.726563 4.332031 3.523438 3.605469 6.242188l-2.777344 10.359375c8.570313 1.585937 17.054687 3.667969 25.410156 6.257812l-12.730469 12.730469c-1.988281 1.988281-4.894531 2.742188-7.597656 1.972656-14.816406-4.226562-30.199218-6.367187-45.726562-6.367187s-30.910156 2.140625-45.726563 6.367187c-.699219.199219-1.414062.296875-2.121093.296875-2.027344 0-4.003907-.792969-5.476563-2.265625zm216.640626 48.59375h-301.171876c-8.550781 0-15.484374 7.359375-15.484374 16.4375v238.078125c0 9.078125 6.933593 16.4375 15.484374 16.4375h301.171876c8.550781 0 15.484374-7.359375 15.484374-16.4375v-238.078125c0-9.078125-6.933593-16.4375-15.484374-16.4375zm0 0" fill="#db655d"/><path d="m470.101562 150.136719v192.039062c0 8.550781-6.933593 15.484375-15.484374 15.484375h-271.453126c-8.550781 0-15.484374-6.933594-15.484374-15.484375v-117.125c0-4.0625 4.542968-6.542969 7.910156-4.269531 13.574218 9.15625 29.921875 14.511719 47.527344 14.511719h161.824218c47.03125 0 85.160156-38.125 85.160156-85.15625zm-15.484374-63.429688h-276.71875c-5.644532 0-10.21875 4.574219-10.21875 10.21875v86.71875c0 3.234375 1.546874 6.257813 4.128906 8.210938 14.269531 10.796875 32.035156 17.21875 51.308594 17.21875h161.824218c47.03125 0 85.160156-38.128907 85.160156-85.160157v-21.726562c0-8.550781-6.933593-15.480469-15.484374-15.480469zm0 0" fill="#f2806d"/><path d="m227.363281 261.515625h-3.996093c-8.550782 0-15.480469-6.933594-15.480469-15.484375v-46.699219c0-4.273437 3.464843-7.738281 7.738281-7.738281h19.480469c4.277343 0 7.742187 3.464844 7.742187 7.738281v46.699219c0 8.550781-6.933594 15.484375-15.484375 15.484375zm172.8125-15.484375v-46.699219c0-4.273437-3.464843-7.738281-7.742187-7.738281h-19.476563c-4.277343 0-7.742187 3.464844-7.742187 7.738281v46.699219c0 8.550781 6.929687 15.484375 15.480468 15.484375h3.996094c8.550782 0 15.484375-6.933594 15.484375-15.484375zm0 0" fill="#fcae51"/><path d="m228.863281 191.589844h5.242188c4.828125 0 8.742187 3.914062 8.742187 8.742187v43.703125c0 7.496094-4.730468 13.875-11.363281 16.359375-6.632813-2.484375-11.363281-8.859375-11.363281-16.359375v-43.703125c0-4.828125 3.914062-8.742187 8.742187-8.742187zm148.585938 8.742187v43.703125c0 7.496094 4.730469 13.875 11.363281 16.359375 6.632812-2.484375 11.363281-8.859375 11.363281-16.359375v-43.703125c0-4.828125-3.914062-8.742187-8.742187-8.742187h-5.242188c-4.828125 0-8.742187 3.914062-8.742187 8.742187zm0 0" fill="#ffdc85"/><path d="m225.367188 252.773438c-7.242188 0-13.113282-5.867188-13.113282-13.109376 0-7.242187 5.871094-13.109374 13.113282-13.109374 7.238281 0 13.109374 5.867187 13.109374 13.109374 0 7.242188-5.871093 13.109376-13.109374 13.109376zm170.4375-13.109376c0-7.242187-5.871094-13.109374-13.109376-13.109374-7.242187 0-13.109374 5.867187-13.109374 13.109374 0 7.242188 5.867187 13.109376 13.109374 13.109376 7.238282 0 13.109376-5.867188 13.109376-13.109376zm0 0" fill="#fcae51"/><path d="m357.683594 314.03125v125.410156h-20.4375v-123.65625h-30.660156v192.179688c-14.585938 2.644531-29.613282 4.035156-44.964844 4.035156-76.046875 0-144.164063-33.910156-190.085938-87.421875v-108.792969h-40.875c-16.933594 0-30.660156-13.726562-30.660156-30.660156 0-5.644531 4.574219-10.21875 10.21875-10.21875h357.683594c5.644531 0 10.222656 4.574219 10.222656 10.21875 0 13.347656-8.535156 24.699219-20.441406 28.90625zm0 0" fill="#0573cd"/><path d="m132.855469 337.246094h173.730469v25.546875c0 53.621093-43.464844 97.085937-97.085938 97.085937-53.617188 0-97.085938-43.464844-97.085938-97.085937v-5.109375c0-11.289063 9.152344-20.4375 20.441407-20.4375zm235.046875-62.339844h-316.804688c-5.644531 0-10.21875 4.574219-10.21875 10.21875 0 16.933594 13.726563 30.660156 30.65625 30.660156h275.929688c16.933594 0 30.660156-13.726562 30.660156-30.660156 0-5.644531-4.578125-10.21875-10.222656-10.21875zm-6.140625 168.90625c3.785156-3.707031 6.140625-8.871094 6.140625-14.589844 0-11.289062-9.148438-20.441406-20.4375-20.441406-11.289063 0-20.4375 9.152344-20.4375 20.441406 0 5.71875 2.351562 10.882813 6.140625 14.589844-6.789063 4.59375-11.25 12.363281-11.25 21.175781v40.878907c0 2.824218 2.285156 5.109374 5.109375 5.109374h40.875c2.824218 0 5.113281-2.285156 5.113281-5.109374v-40.878907c0-8.8125-4.464844-16.582031-11.253906-21.175781zm0 0" fill="#4691db"/></svg>