<svg height="512pt" viewBox="0 -5 512 511" width="512pt" xmlns="http://www.w3.org/2000/svg"><path d="m156.550781 478.191406c-86.042969-39.832031-145.660156-127.070312-145.308593-228.199218.484374-138.460938 114.375-250.808594 252.828124-249.480469 111.902344 1.074219 206.242188 75.5625 237.1875 177.613281 2.304688 7.609375-3.46875 15.269531-11.417968 15.269531h-295.921875c-11.289063 0-20.441407 9.152344-20.441407 20.4375v253.5625c0 8.699219-9.03125 14.453125-16.925781 10.796875zm0 0" fill="#15b568"/><path d="m173.734375 173.210938h325.964844c7.972656 24.453124 12.300781 50.554687 12.300781 77.667968 0 138.28125-114.140625 247.3125-252.421875 247.3125-23.371094 0-43.949219-.136718-65.40625-6.125-14.171875-3.953125-27.839844-9.125-40.878906-15.394531v-283.023437c0-11.285157 9.152343-20.4375 20.441406-20.4375zm0 0" fill="#b3e8f4"/><path d="m512 250.878906c0 130.003906-99.082031 236.867188-225.851562 249.195313-8.070313.78125-60.328126-1.097657-71.53125-3.230469-6.921876-1.316406-13.738282-2.914062-20.445313-4.785156v-257.53125c0-11.289063 9.148437-20.4375 20.4375-20.4375h294.695313c1.765624 12.007812 2.695312 24.289062 2.695312 36.789062zm0 0" fill="#81ade2"/><path d="m313.742188 357.164062h174.625c-3.285157 6.996094-6.882813 13.8125-10.777344 20.4375h-163.847656c-2.824219 0-5.113282-2.289062-5.113282-5.109374v-10.21875c0-2.824219 2.289063-5.109376 5.113282-5.109376zm-5.113282 97.085938v10.21875c0 2.820312 2.289063 5.109375 5.113282 5.109375h69.835937c10.839844-6.058594 21.183594-12.894531 30.949219-20.4375h-100.785156c-2.824219 0-5.113282 2.285156-5.113282 5.109375zm105.261719-56.207031h-100.148437c-2.824219 0-5.113282 2.285156-5.113282 5.109375v10.21875c0 2.820312 2.289063 5.109375 5.113282 5.109375h100.148437c2.824219 0 5.113281-2.289063 5.113281-5.109375v-10.21875c0-2.824219-2.289062-5.109375-5.113281-5.109375zm-100.148437-71.539063h151.246093c2.824219 0 5.113281-2.289062 5.113281-5.109375v-10.21875c0-2.824219-2.289062-5.109375-5.113281-5.109375h-151.246093c-2.824219 0-5.113282 2.285156-5.113282 5.109375v10.21875c0 2.820313 2.289063 5.109375 5.113282 5.109375zm0-61.316406c-2.824219 0-5.113282 2.289062-5.113282 5.109375v10.21875c0 2.824219 2.289063 5.109375 5.113282 5.109375h195.847656c.933594-6.730469 1.605468-13.546875 1.996094-20.4375zm0 0" fill="#0573cd"/><path d="m286.148438 367.382812v40.878907c0 5.644531-4.574219 10.21875-10.21875 10.21875h-51.097657c-5.644531 0-10.222656-4.574219-10.222656-10.21875v-40.878907c0-5.644531 4.578125-10.21875 10.222656-10.21875h51.097657c5.644531 0 10.21875 4.574219 10.21875 10.21875zm-10.21875 81.757813h-51.097657c-5.644531 0-10.222656 4.574219-10.222656 10.21875v37.472656c15.230469 2.894531 30.941406 4.425781 47.011719 4.425781 8.277344 0 16.457031-.410156 24.527344-1.195312v-40.703125c0-5.644531-4.574219-10.21875-10.21875-10.21875zm0 0" fill="#b4d2d7"/><path d="m286.148438 367.382812v.65625l-35.769532 19.78125-35.769531-19.78125v-.65625c0-5.644531 4.578125-10.21875 10.222656-10.21875h51.097657c5.644531 0 10.21875 4.574219 10.21875 10.21875zm-71.539063 15.472657v25.40625c0 5.644531 4.578125 10.21875 10.222656 10.21875h51.097657c5.644531 0 10.21875-4.574219 10.21875-10.21875v-25.40625l-35.769532 19.78125zm0 91.976562v22c15.230469 2.894531 30.941406 4.425781 47.011719 4.425781 8.277344 0 16.457031-.410156 24.527344-1.195312v-25.230469l-35.769532 19.78125zm61.320313-25.691406h-51.097657c-5.644531 0-10.222656 4.574219-10.222656 10.21875v.65625l35.769531 19.78125 35.769532-19.78125v-.65625c0-5.644531-4.574219-10.21875-10.21875-10.21875zm0 0" fill="#e1ebf0"/><path d="m384.113281 336.722656h-363.675781c-11.285156 0-20.4375-9.148437-20.4375-20.4375v-245.269531c0-11.289063 9.152344-20.4375 20.4375-20.4375h363.675781c11.289063 0 20.441407 9.148437 20.441407 20.4375v245.269531c0 11.289063-9.152344 20.4375-20.441407 20.4375zm0 0" fill="#ffdc85"/><path d="m36.578125 168.40625c45.902344 31.292969 103.347656 49.910156 165.699219 49.910156 80.277344 0 152.433594-30.839844 202.277344-79.890625v177.859375c0 11.289063-9.152344 20.4375-20.441407 20.4375h-335.058593c-11.289063 0-20.441407-9.148437-20.441407-20.4375v-143.648437c0-4.09375 4.582031-6.535157 7.964844-4.230469zm366.425781-105.777344c-.5-1.179687-1.113281-2.300781-1.820312-3.351562-1.417969-2.101563-3.230469-3.914063-5.332032-5.332032-1.050781-.707031-2.171874-1.320312-3.351562-1.816406-2.359375-1-4.957031-1.550781-7.679688-1.550781h-336.472656c-10.898437 0-19.734375 8.832031-19.734375 19.730469v54.953125c0 5.003906 2.425781 9.722656 6.546875 12.566406 46.132813 31.882813 104.121094 50.886719 167.117188 50.886719 80.277344 0 152.433594-30.839844 202.277344-79.890625v-38.515625c0-2.722656-.554688-5.320313-1.550782-7.679688zm0 0" fill="#fff1b8"/><path d="m226.9375 286.890625-24.660156-18.492187-24.660156 18.492187c-2.542969 1.90625-6.167969.09375-6.167969-3.082031v-54.304688c0-8.515625 6.902343-15.414062 15.414062-15.414062h30.828125c8.511719 0 15.410156 6.898437 15.410156 15.414062v54.304688c0 3.175781-3.625 4.988281-6.164062 3.082031zm0 0" fill="#fcae51"/><path d="m258.484375 198.761719c0 31.042969-25.164063 56.207031-56.207031 56.207031-31.042969 0-56.207032-25.164062-56.207032-56.207031s25.164063-56.210938 56.207032-56.210938c31.042968 0 56.207031 25.167969 56.207031 56.210938zm0 0" fill="#ff5284"/><path d="m217.605469 252.832031c-4.875 1.382813-10.011719 2.136719-15.328125 2.136719-31.042969 0-56.207032-25.164062-56.207032-56.207031s25.164063-56.210938 56.207032-56.210938c5.316406 0 10.453125.753907 15.328125 2.136719-23.589844 6.671875-40.878907 28.347656-40.878907 54.074219 0 25.722656 17.289063 47.398437 40.878907 54.070312zm0 0" fill="#f43b5f"/><path d="m207.386719 229.417969h-10.21875c-2.824219 0-5.109375-2.289063-5.109375-5.109375v-51.097656c0-2.820313 2.285156-5.109376 5.109375-5.109376h10.21875c2.820312 0 5.109375 2.289063 5.109375 5.109376v51.097656c0 2.820312-2.289063 5.109375-5.109375 5.109375zm0 0" fill="#fff7ee"/></svg>