<svg height="512pt" viewBox="-6 0 512 512" width="512pt" xmlns="http://www.w3.org/2000/svg"><path d="m500.757812 261.621094c0 138.28125-112.097656 250.378906-250.378906 250.378906s-250.378906-112.097656-250.378906-250.378906 112.097656-250.378906 250.378906-250.378906 250.378906 112.097656 250.378906 250.378906zm0 0" fill="#8fd5e5"/><path d="m184.464844 98.109375v122.632813c0 8.464843-6.863282 15.328124-15.332032 15.328124h-50.074218c-8.464844 0-15.328125-6.863281-15.328125-15.328124v-122.632813c0-8.46875 6.863281-15.332031 15.328125-15.332031h50.074218c8.46875 0 15.332032 6.863281 15.332032 15.332031zm90.953125-56.210937h-50.078125c-8.464844 0-15.328125 6.863281-15.328125 15.332031v183.949219c0 8.46875 6.863281 15.332031 15.328125 15.332031h50.078125c8.464843 0 15.328125-6.863281 15.328125-15.332031v-183.949219c0-8.46875-6.863282-15.332031-15.328125-15.332031zm106.28125-41.898438h-50.074219c-8.464844 0-15.328125 6.863281-15.328125 15.328125v235.050781c0 8.464844 6.863281 15.328125 15.328125 15.328125h50.074219c8.46875 0 15.332031-6.863281 15.332031-15.328125v-235.050781c0-8.464844-6.863281-15.328125-15.332031-15.328125zm0 0" fill="#0573cd"/><path d="m184.464844 98.109375v122.632813c0 8.464843-6.863282 15.328124-15.332032 15.328124h-30.65625c-8.46875 0-15.332031-6.863281-15.332031-15.328124v-122.632813c0-8.46875 6.863281-15.332031 15.332031-15.332031h30.65625c8.46875 0 15.332032 6.863281 15.332032 15.332031zm197.234375-98.109375h-30.65625c-8.46875 0-15.332031 6.863281-15.332031 15.328125v235.050781c0 8.464844 6.863281 15.328125 15.332031 15.328125h30.65625c8.46875 0 15.332031-6.863281 15.332031-15.328125v-235.050781c0-8.464844-6.863281-15.328125-15.332031-15.328125zm-106.28125 41.898438h-30.660157c-8.464843 0-15.328124 6.863281-15.328124 15.332031v183.949219c0 8.46875 6.863281 15.332031 15.328124 15.332031h30.660157c8.464843 0 15.328125-6.863281 15.328125-15.332031v-183.949219c0-8.46875-6.863282-15.332031-15.328125-15.332031zm0 0" fill="#4691db"/><path d="m366.882812 137.964844v296.367187c0 2.820313-2.289062 5.109375-5.109374 5.109375h-265.710938c-2.820312 0-5.109375-2.289062-5.109375-5.109375v-296.367187c0-2.824219 2.289063-5.109375 5.109375-5.109375h265.710938c2.820312 0 5.109374 2.285156 5.109374 5.109375zm0 0" fill="#f9b65d"/><path d="m366.882812 137.964844v296.367187c0 2.820313-2.289062 5.109375-5.109374 5.109375h-246.199219c-2.820313 0-5.109375-2.289062-5.109375-5.109375v-296.367187c0-2.824219 2.289062-5.109375 5.109375-5.109375h246.199219c2.820312 0 5.109374 2.285156 5.109374 5.109375zm0 0" fill="#ffc97b"/><path d="m417.980469 189.0625v235.050781c0 2.820313-2.289063 5.109375-5.109375 5.109375h-265.710938c-2.820312 0-5.109375-2.289062-5.109375-5.109375v-235.050781c0-2.820312 2.289063-5.109375 5.109375-5.109375h265.710938c2.820312 0 5.109375 2.289063 5.109375 5.109375zm0 0" fill="#fff7ee"/><path d="m382.210938 235.050781h-204.390626c-2.820312 0-5.109374-2.289062-5.109374-5.109375v-10.222656c0-2.820312 2.289062-5.109375 5.109374-5.109375h204.390626c2.820312 0 5.109374 2.289063 5.109374 5.109375v10.222656c0 2.820313-2.289062 5.109375-5.109374 5.109375zm5.109374 35.769531v-10.222656c0-2.820312-2.289062-5.109375-5.109374-5.109375h-204.390626c-2.820312 0-5.109374 2.289063-5.109374 5.109375v10.222656c0 2.820313 2.289062 5.109376 5.109374 5.109376h204.390626c2.820312 0 5.109374-2.289063 5.109374-5.109376zm0 40.875v-10.21875c0-2.820312-2.289062-5.109374-5.109374-5.109374h-204.390626c-2.820312 0-5.109374 2.289062-5.109374 5.109374v10.21875c0 2.824219 2.289062 5.109376 5.109374 5.109376h204.390626c2.820312 0 5.109374-2.285157 5.109374-5.109376zm0 0" fill="#ffe899"/><path d="m167.601562 122.632812h-20.441406c-2.820312 0-5.109375 2.289063-5.109375 5.113282v30.65625c0 8.464844 6.863281 15.332031 15.332031 15.332031 8.464844 0 15.328126-6.867187 15.328126-15.332031v-30.65625c0-2.824219-2.289063-5.113282-5.109376-5.113282zm-5.109374 15.332032v20.21875c0 2.667968-1.953126 5.050781-4.609376 5.304687-3.046874.289063-5.613281-2.097656-5.613281-5.085937v-23.503906c0-1.128907.917969-2.046876 2.046875-2.046876h6.128906c1.132813 0 2.046876.917969 2.046876 2.046876zm0 0" fill="#495959"/><path d="m246.953125 206.773438 60.316406-102.066407c1.976563-3.347656 6.820313-3.347656 8.796875 0l60.316406 102.066407c2.011719 3.40625-.441406 7.710937-4.398437 7.710937h-29.546875v259.328125h-61.316406v-259.328125h-29.769532c-3.953124 0-6.410156-4.304687-4.398437-7.710937zm0 0" fill="#ff5284"/><path d="m281.121094 473.8125v-259.328125h-29.769532c-3.953124 0-6.410156-4.304687-4.398437-7.710937l60.316406-102.066407c.027344-.046875.058594-.085937.085938-.128906v369.234375zm0 0" fill="#f43b5f"/><path d="m110.464844 224.832031c21.011718 12.699219 44.765625 38.511719 64.046875 71.910157 19.28125 33.394531 29.757812 66.871093 30.25 91.417968-21.011719-12.699218-44.761719-38.515625-64.042969-71.910156s-29.761719-66.875-30.253906-91.417969zm0 0" fill="#4b9b5e"/><path d="m223.578125 386.9375c-15.183594-2.992188-33.171875-10.515625-51.796875-21.871094-18.625 11.355469-36.613281 18.878906-51.796875 21.871094 4.835937-12.503906 13.394531-26.496094 24.96875-40.65625-2.058594-1.628906-4.109375-3.296875-6.152344-5.011719-29.539062-24.789062-50.835937-52.664062-59.695312-75.5625 24.085937 4.75 55.238281 20.882813 84.777343 45.671875 2.703126 2.269532 5.335938 4.5625 7.898438 6.875 2.5625-2.3125 5.195312-4.605468 7.898438-6.875 29.539062-24.789062 60.691406-40.921875 84.777343-45.671875-8.859375 22.898438-30.15625 50.773438-59.695312 75.5625-2.042969 1.714844-4.09375 3.382813-6.152344 5.011719 11.578125 14.160156 20.132813 28.148438 24.96875 40.65625zm0 0" fill="#15b568"/><path d="m202.847656 316.25c-19.28125 33.394531-43.035156 59.210938-64.046875 71.910156.492188-24.546875 10.972657-58.023437 30.253907-91.417968 19.277343-33.398438 43.03125-59.210938 64.042968-71.910157-.492187 24.542969-10.972656 58.023438-30.25 91.417969zm0 0" fill="#4b9b5e"/><path d="m171.78125 194.171875c11.847656 21.503906 19.511719 55.738281 19.511719 94.296875 0 38.5625-7.664063 72.796875-19.511719 94.300781-11.847656-21.503906-19.511719-55.738281-19.511719-94.300781 0-38.558594 7.664063-72.792969 19.511719-94.296875zm0 0" fill="#15b568"/><path d="m252.609375 333.992188v69.679687c0 2.824219-2.289063 5.109375-5.109375 5.109375h-151.4375c-2.820312 0-5.109375-2.285156-5.109375-5.109375v-69.679687c0-2.820313 2.289063-5.109376 5.109375-5.109376h151.4375c2.820312 0 5.109375 2.289063 5.109375 5.109376zm0 0" fill="#c3573a"/><path d="m449.148438 413.863281c-45.761719 59.660157-117.765626 98.136719-198.769532 98.136719-81 0-153.007812-38.476562-198.769531-98.136719v-91.945312c0-8.46875 6.863281-15.332031 15.328125-15.332031h102.195312c5.644532 0 10.21875 4.578124 10.21875 10.21875v20.441406c0 11.289062 9.152344 20.4375 20.441407 20.4375h102.195312c11.289063 0 20.4375-9.148438 20.4375-20.4375v-20.441406c0-5.640626 4.578125-10.21875 10.222657-10.21875h101.171874c8.464844 0 15.328126 6.863281 15.328126 15.332031zm0 0" fill="#ed9c3b"/><path d="m449.148438 413.863281c-45.761719 59.660157-117.765626 98.136719-198.769532 98.136719-67.730468 0-129.171875-26.90625-174.242187-70.597656v-119.484375c0-8.46875 6.863281-15.332031 15.328125-15.332031h77.667968c5.644532 0 10.21875 4.578124 10.21875 10.21875v20.441406c0 11.289062 9.152344 20.4375 20.441407 20.4375h102.195312c11.289063 0 20.4375-9.148438 20.4375-20.4375v-20.441406c0-5.640626 4.578125-10.21875 10.222657-10.21875h101.171874c8.464844 0 15.328126 6.863281 15.328126 15.332031zm0 0" fill="#f9b65d"/><path d="m338.265625 470.101562h-175.773437c-5.644532 0-10.222657-4.578124-10.222657-10.222656v-71.535156c0-5.644531 4.578125-10.21875 10.222657-10.21875h175.773437c5.644531 0 10.222656 4.574219 10.222656 10.21875v71.535156c0 5.644532-4.578125 10.222656-10.222656 10.222656zm0 0" fill="#ffc97b"/><path d="m297.390625 436.886719v10.21875c0 2.820312-2.289063 5.109375-5.109375 5.109375h-83.800781c-2.824219 0-5.109375-2.289063-5.109375-5.109375v-10.21875c0-2.824219 2.285156-5.109375 5.109375-5.109375h83.800781c2.820312 0 5.109375 2.285156 5.109375 5.109375zm25.546875-40.878907h-145.117188c-2.820312 0-5.109374 2.289063-5.109374 5.109376v10.21875c0 2.824218 2.289062 5.109374 5.109374 5.109374h145.117188c2.820312 0 5.109375-2.285156 5.109375-5.109374v-10.21875c0-2.820313-2.289063-5.109376-5.109375-5.109376zm0 0" fill="#d38231"/></svg>