<svg height="512pt" viewBox="0 0 512.0005 512" width="512pt" xmlns="http://www.w3.org/2000/svg"><path d="m500.757812 261.621094c0 83.277344-40.65625 157.0625-103.207031 202.582031-41.308593 30.0625-93.875 39.621094-148.875 39.621094-98.726562 0-182.402343-48.964844-223.171875-131.980469-16.332031-33.257812-25.503906-70.667969-25.503906-110.222656 0-138.28125 112.097656-250.378906 250.378906-250.378906s250.378906 112.097656 250.378906 250.378906zm0 0" fill="#ffdc85"/><path d="m248.675781 378.125h-44.484375v-289.152344h44.484375zm0 0" fill="#ed9c3b"/><path d="m509.753906 17.792969-53.378906 71.179687 53.378906 71.175782c5.5 7.328124.269532 17.792968-8.894531 17.792968h-260.21875v-166.820312c0-6.140625 4.980469-11.121094 11.121094-11.121094h249.097656c9.164063 0 14.394531 10.464844 8.894531 17.792969zm0 0" fill="#ff5284"/><path d="m248.675781 177.941406h-44.484375v-172.832031c0-2.820313 2.289063-5.109375 5.109375-5.109375h39.375zm0 0" fill="#f43b5f"/><path d="m103.140625 324.980469v-95.503907c0-26.699218 17.75-50.59375 43.164063-58.109374 21.097656-6.238282 43.042968-9.402344 65.226562-9.402344s44.132812 3.164062 65.230469 9.402344c25.410156 7.515624 43.160156 31.410156 43.160156 58.109374v95.503907h-34.683594v-95.503907c0-11.441406-7.53125-21.660156-18.3125-24.847656-17.902343-5.296875-36.539062-7.980468-55.394531-7.980468-18.851562 0-37.488281 2.6875-55.390625 7.980468-10.78125 3.1875-18.3125 13.40625-18.3125 24.847656v95.503907zm0 0" fill="#015aad"/><path d="m297.4375 184.066406-26.179688 26.179688c-2.226562 2.226562-5.484374 3.070312-8.511718 2.207031-16.59375-4.734375-33.824219-7.132813-51.214844-7.132813s-34.625 2.398438-51.21875 7.132813c-.78125.222656-1.582031.332031-2.375.332031-2.269531 0-4.484375-.890625-6.132812-2.539062l-26.183594-26.179688c-1.867188-1.871094-2.78125-4.488281-2.480469-7.117187.296875-2.625 1.777344-4.96875 4.019531-6.371094 5.230469-3.265625 10.84375-5.796875 16.683594-7.527344 21.894531-6.472656 44.667969-9.757812 67.6875-9.757812 23.015625 0 45.789062 3.285156 67.6875 9.757812 5.835938 1.726563 11.449219 4.261719 16.679688 7.527344 2.242187 1.402344 3.722656 3.746094 4.023437 6.371094.300781 2.628906-.617187 5.246093-2.484375 7.117187zm0 0" fill="#4691db"/><path d="m137.542969 195.984375c9.363281-2.898437 18.863281-5.230469 28.460937-7.007813l-2.339844-8.742187c-1.242187-4.628906 1.503907-9.382813 6.128907-10.621094 4.628906-1.242187 9.382812 1.503907 10.621093 6.128907l2.851563 10.652343c6.503906-.738281 13.039063-1.21875 19.597656-1.445312v-10.582031c0-4.789063 3.878907-8.671876 8.667969-8.671876s8.671875 3.882813 8.671875 8.671876v10.582031c6.558594.226562 13.09375.707031 19.59375 1.445312l2.855469-10.652343c1.238281-4.625 5.992187-7.371094 10.617187-6.128907 4.628907 1.238281 7.371094 5.992188 6.132813 10.621094l-2.339844 8.742187c9.597656 1.777344 19.097656 4.109376 28.460938 7.007813l-14.261719 14.261719c-2.230469 2.222656-5.484375 3.070312-8.511719 2.207031-16.59375-4.734375-33.824219-7.132813-51.214844-7.132813-17.394531 0-34.625 2.398438-51.21875 7.132813-.78125.222656-1.582031.332031-2.375.332031-2.269531 0-4.484375-.890625-6.132812-2.539062zm242.65625 54.425781h-337.335938c-9.578125 0-17.34375 7.765625-17.34375 17.34375v104.089844c9.023438 18.371094 20.230469 35.476562 33.28125 50.972656 45.925781 54.535156 297.429688 71.433594 338.738281 41.371094v-196.433594c0-9.578125-7.761718-17.34375-17.339843-17.34375zm0 0" fill="#0573cd"/><path d="m397.539062 321.457031v142.730469c-41.308593 30.0625-92.15625 47.8125-147.160156 47.8125-76.875 0-145.644531-34.65625-191.574218-89.183594v-18.585937c0-4.109375 4.609374-6.550781 7.988281-4.21875 15.375 10.613281 34.015625 16.828125 54.109375 16.828125h181.253906c52.679688 0 95.382812-42.703125 95.382812-95.382813zm-17.339843-71.046875h-311.171875c-5.644532 0-10.222656 4.574219-10.222656 10.21875v98.992188c0 3.199218 1.511718 6.203125 4.050781 8.152344 16.078125 12.351562 36.203125 19.695312 58.046875 19.695312h181.253906c52.679688 0 95.382812-42.703125 95.382812-95.382812v-24.332032c0-9.578125-7.761718-17.34375-17.339843-17.34375zm0 0" fill="#4691db"/><path d="m143 376.5625v52.304688c0 9.578124-7.761719 17.34375-17.339844 17.34375h-4.476562c-9.578125 0-17.34375-7.765626-17.34375-17.34375v-52.304688c0-4.789062 3.882812-8.671875 8.671875-8.671875h21.816406c4.789063 0 8.671875 3.882813 8.671875 8.671875zm167.550781-8.671875h-21.820312c-4.789063 0-8.667969 3.882813-8.667969 8.671875v52.304688c0 9.578124 7.761719 17.34375 17.339844 17.34375h4.476562c9.578125 0 17.34375-7.765626 17.34375-17.34375v-52.304688c0-4.789062-3.882812-8.671875-8.671875-8.671875zm0 0" fill="#b4d2d7"/><path d="m143 377.679688v48.949218c0 8.402344-5.296875 15.542969-12.726562 18.324219-7.429688-2.78125-12.726563-9.921875-12.726563-18.324219v-48.949218c0-5.40625 4.382813-9.789063 9.789063-9.789063h5.875c5.40625 0 9.789062 4.382813 9.789062 9.789063zm166.429688-9.789063h-5.871094c-5.410156 0-9.792969 4.382813-9.792969 9.789063v48.949218c0 8.402344 5.300781 15.542969 12.726563 18.324219 7.429687-2.78125 12.730468-9.921875 12.730468-18.324219v-48.949218c0-5.40625-4.382812-9.789063-9.792968-9.789063zm0 0" fill="#e1ebf0"/><path d="m138.105469 421.734375c0 8.113281-6.574219 14.6875-14.683594 14.6875s-14.683594-6.574219-14.683594-14.6875c0-8.109375 6.574219-14.683594 14.683594-14.683594s14.683594 6.574219 14.683594 14.683594zm161.535156-14.683594c-8.109375 0-14.683594 6.574219-14.683594 14.683594 0 8.113281 6.574219 14.6875 14.683594 14.6875s14.683594-6.574219 14.683594-14.6875c0-8.109375-6.574219-14.683594-14.683594-14.683594zm0 0" fill="#9bb9c3"/></svg>