<svg height="512pt" viewBox="0 -11 512.00039 512" width="512pt" xmlns="http://www.w3.org/2000/svg"><path d="m501 245c0 135.308594-109.691406 245-245 245-135.3125 0-245-109.691406-245-245s109.6875-245 245-245c135.308594 0 245 109.691406 245 245zm0 0" fill="#15b568"/><path d="m364.914062 220.820312-16.121093-2.21875c-2.054688-7.226562-4.933594-14.109374-8.523438-20.539062l9.84375-12.980469c7.367188-9.71875 6.433594-23.382812-2.191406-32.003906-8.625-8.625-22.289063-9.5625-32.007813-2.191406l-12.980468 9.839843c-6.429688-3.585937-13.308594-6.46875-20.535156-8.519531l-2.21875-16.121093c-1.660157-12.082032-11.984376-21.085938-24.179688-21.085938-12.199219 0-22.523438 9.003906-24.183594 21.085938l-2.214844 16.121093c-7.230468 2.050781-14.109374 4.933594-20.539062 8.519531l-12.980469-9.839843c-9.71875-7.371094-23.382812-6.433594-32.007812 2.191406-8.625 8.621094-9.558594 22.285156-2.191407 32.003906l9.84375 12.980469c-3.589843 6.429688-6.46875 13.3125-8.523437 20.539062l-16.121094 2.21875c-12.082031 1.660157-21.082031 11.984376-21.082031 24.179688s9 22.519531 21.082031 24.179688l16.121094 2.21875c2.054687 7.230468 4.933594 14.109374 8.523437 20.539062l-9.84375 12.980469c-7.367187 9.71875-6.433593 23.382812 2.191407 32.007812 8.625 8.621094 22.289062 9.558594 32.007812 2.1875l12.980469-9.839843c6.429688 3.585937 13.308594 6.46875 20.539062 8.519531l2.214844 16.125c1.660156 12.082031 11.984375 21.082031 24.183594 21.082031 12.195312 0 22.519531-9 24.179688-21.082031l2.21875-16.125c7.226562-2.050781 14.105468-4.933594 20.535156-8.519531l12.980468 9.839843c9.71875 7.371094 23.386719 6.433594 32.007813-2.1875 8.625-8.625 9.558594-22.289062 2.191406-32.007812l-9.84375-12.980469c3.589844-6.429688 6.472657-13.308594 8.523438-20.539062l16.121093-2.21875c12.082032-1.660157 21.085938-11.984376 21.085938-24.179688s-9.003906-22.519531-21.085938-24.179688zm-108.914062 61.921876c-20.84375 0-37.742188-16.898438-37.742188-37.742188s16.894532-37.742188 37.742188-37.742188c20.84375 0 37.742188 16.898438 37.742188 37.742188s-16.898438 37.742188-37.742188 37.742188zm0 0" fill="#fff1b8"/><path d="m214.726562 332.183594c-1.921874-.910156-3.8125-1.878906-5.664062-2.910156l-12.980469 9.839843c-9.71875 7.371094-23.382812 6.433594-32.007812-2.1875-8.625-8.625-9.558594-22.289062-2.191407-32.007812l9.84375-12.980469c-3.589843-6.429688-6.46875-13.308594-8.523437-20.539062l-16.121094-2.214844c-12.082031-1.664063-21.082031-11.988282-21.082031-24.183594s9-22.519531 21.082031-24.179688l16.121094-2.21875c2.054687-7.226562 4.933594-14.109374 8.523437-20.539062l-9.84375-12.980469c-7.367187-9.71875-6.433593-23.382812 2.191407-32.003906 8.625-8.625 22.289062-9.5625 32.007812-2.191406l12.980469 9.839843c1.847656-1.03125 3.742188-2 5.664062-2.910156-19.085937 23.910156-30.5 54.210938-30.5 87.183594.003907 32.972656 11.414063 63.273438 30.5 87.183594zm0 0" fill="#ffdc85"/><path d="m256 188.6875c-31.101562 0-56.316406 25.210938-56.316406 56.3125s25.214844 56.3125 56.316406 56.3125c31.097656 0 56.3125-25.210938 56.3125-56.3125s-25.214844-56.3125-56.3125-56.3125zm0 94.054688c-20.84375 0-37.742188-16.898438-37.742188-37.742188s16.894532-37.742188 37.742188-37.742188c20.84375 0 37.742188 16.898438 37.742188 37.742188s-16.898438 37.742188-37.742188 37.742188zm0 0" fill="#ffdc85"/><path d="m245.28125 45.089844c-5.117188 9.632812-15.121094 17.53125-27.828125 20.699218-11.105469 2.769532-22.082031 1.378907-30.710937-3.089843-11.558594 4.414062-22.558594 9.898437-32.902344 16.316406.238281 0 .472656-.015625.710937-.015625 13.097657 0 24.714844 5.246094 32.011719 13.351562 3.390625 3.769532 3.390625 9.527344 0 13.296876-7.296875 8.105468-18.914062 13.351562-32.011719 13.351562-13.09375 0-24.714843-5.246094-32.007812-13.351562-.414063-.460938-.777344-.953126-1.089844-1.464844-11.421875 10.96875-21.496094 23.289062-29.988281 36.65625 4.105468-1.183594 8.5-1.839844 13.085937-1.839844 13.097657 0 24.714844 5.246094 32.011719 13.351562 3.390625 3.769532 3.390625 9.527344 0 13.296876-7.296875 8.105468-18.914062 13.351562-32.011719 13.351562-10.953125 0-20.867187-3.679688-28.085937-9.625-7.0625 16.609375-11.871094 34.308594-14.078125 52.65625 2.46875-2.359375 5.253906-4.515625 8.355469-6.378906 11.222656-6.746094 23.886718-8.234375 34.3125-5.042969 4.851562 1.484375 7.816406 6.417969 6.851562 11.398437-2.078125 10.703126-9.335938 21.183594-20.5625 27.929688-9.722656 5.84375-20.523438 7.734375-30.019531 6.0625 1.042969 18.1875 4.644531 35.851562 10.480469 52.578125.671874-1.871094 1.484374-3.730469 2.453124-5.554687 5.386719-10.125 14.222657-16.957032 23.492188-19.265626 4.308594-1.074218 8.765625 1.296876 10.285156 5.46875 3.269532 8.976563 2.546875 20.121094-2.835937 30.25-4.789063 9.003907-12.304688 15.390626-20.425781 18.324219 8.164062 14.976563 18.238281 28.84375 29.929687 41.214844-.101563-.886719-.1875-1.777344-.234375-2.683594-.601562-11.453125 3.457031-21.859375 10.210938-28.613281 3.140624-3.140625 8.179687-3.402344 11.632812-.609375 7.425781 6.007813 12.546875 15.933594 13.144531 27.386719.566407 10.773437-2.988281 20.613281-9.03125 27.363281 21.539063 15.992187 46.535157 27.699219 73.84375 33.652344 5.394531 1.175781 8.816407 6.503906 7.640625 11.898437-1.019531 4.679688-5.160156 7.871094-9.761718 7.871094-.703126 0-1.421876-.074219-2.140626-.230469-25.265624-5.507812-49.292968-15.636719-70.882812-29.636719-.191406 1.050782-.578125 2.078126-1.171875 3.03125-5.058594 8.101563-14.285156 14.398438-25.582031 16.386719-11.296875 1.992188-22.121094-.765625-29.644532-6.648437-3.5-2.734375-4.375-7.703125-2.023437-11.46875 5.058594-8.101563 14.289063-14.398438 25.582031-16.386719 4.066406-.71875 8.066406-.8125 11.878906-.371094-10.496093-8.761719-20.1875-18.535156-28.898437-29.222656-1.769531-2.171875-3.488281-4.378906-5.167969-6.613281-1 1.542968-2.484375 2.785156-4.324218 3.453125-8.976563 3.269531-20.121094 2.550781-30.25-2.835938-10.125-5.386719-16.957032-14.222656-19.265626-23.492187-1.074218-4.308594 1.292969-8.761719 5.46875-10.28125 8.617188-3.140625 19.230469-2.585938 29.03125 2.226562-6.914062-13.480468-12.382812-27.664062-16.328124-42.289062-9.089844 1.015625-19.15625-1.164063-28.207032-6.820313-11.105468-6.9375-18.179687-17.542969-20.070312-28.285156-.878906-4.992187 2.171875-9.875 7.042968-11.273437 10.484376-3.011719 23.117188-1.300782 34.222657 5.640624.046875.027344.089843.058594.140625.089844-.367188-5.066406-.558594-10.152344-.558594-15.253906 0-16.449219 1.914062-32.769531 5.605469-48.636719-10.097657-3.082031-19.535157-10.875-25.257813-22.109375-5.945312-11.667968-6.546875-24.402344-2.636718-34.582031 1.820312-4.730469 6.949218-7.347656 11.847656-6.035156 10.535156 2.820312 20.484375 10.792969 26.429687 22.457031.613281 1.210938 1.160157 2.429688 1.660157 3.65625 5.480468-12.699219 12.183593-24.878906 20.042968-36.34375-8.050781-5.511719-14.484375-14.585938-17.269531-25.742188-3.167969-12.707031-.886719-25.25 5.210937-34.289062 2.835938-4.203125 8.425782-5.597656 12.902344-3.21875 9.628906 5.117188 17.53125 15.121094 20.699219 27.828125.632813 2.53125 1.039063 5.050781 1.25 7.542969 7.382813-7.621094 15.304687-14.667969 23.683594-21.089844-.484375-.75-.875-1.578125-1.148438-2.46875-3.191406-10.425781-1.703125-23.089844 5.042969-34.316406 6.742188-11.222656 17.226562-18.480469 27.929688-20.558594 4.976562-.964844 9.914062 2 11.398437 6.847656 2.335937 7.636719 2.152344 16.472656-.757813 25.0625 5.085938-2.300781 10.265626-4.402344 15.519532-6.300781 5.582031-7.324219 14.1875-13.125 24.625-15.726563 12.707031-3.167968 25.25-.886718 34.289062 5.210938 4.203125 2.839844 5.59375 8.425781 3.214844 12.902344zm259.519531 209.433594c-10.480469-3.007813-23.113281-1.300782-34.21875 5.640624-.046875.027344-.09375.0625-.140625.089844.363282-5.066406.558594-10.152344.558594-15.253906 0-16.449219-1.917969-32.769531-5.609375-48.636719 10.097656-3.082031 19.535156-10.875 25.257813-22.109375 5.945312-11.667968 6.546874-24.402344 2.636718-34.582031-1.820312-4.730469-6.949218-7.347656-11.847656-6.035156-10.535156 2.820312-20.484375 10.792969-26.429688 22.457031-.613281 1.210938-1.160156 2.429688-1.660156 3.65625-5.480468-12.699219-12.183594-24.878906-20.042968-36.34375 8.050781-5.511719 14.484374-14.585938 17.269531-25.742188 3.167969-12.707031.886719-25.25-5.210938-34.289062-2.835937-4.203125-8.425781-5.597656-12.902343-3.21875-9.628907 5.117188-17.53125 15.121094-20.699219 27.828125-.628907 2.53125-1.035157 5.050781-1.246094 7.542969-7.382813-7.621094-15.308594-14.667969-23.683594-21.089844.484375-.75.875-1.578125 1.148438-2.46875 3.191406-10.425781 1.703125-23.089844-5.042969-34.316406-6.746094-11.222656-17.226562-18.480469-27.929688-20.558594-4.976562-.964844-9.914062 2-11.398437 6.847656-2.335937 7.636719-2.152344 16.472656.757813 25.0625-5.085938-2.300781-10.265626-4.402344-15.519532-6.300781-5.578125-7.324219-14.1875-13.125-24.625-15.726563-12.707031-3.167968-25.25-.886718-34.289062 5.210938-4.203125 2.835938-5.59375 8.425781-3.21875 12.902344 5.117187 9.628906 15.125 17.53125 27.832031 20.699218 11.101563 2.769532 22.082031 1.375 30.707031-3.09375 11.558594 4.414063 22.5625 9.898438 32.90625 16.320313-.238281-.003906-.472656-.019531-.714844-.019531-13.09375 0-24.714843 5.246094-32.007812 13.351562-3.390625 3.769532-3.390625 9.527344 0 13.296875 7.292969 8.105469 18.914062 13.351563 32.007812 13.351563 13.097657 0 24.714844-5.246094 32.011719-13.351563.414063-.460937.777344-.949219 1.089844-1.464843 11.421875 10.96875 21.496094 23.289062 29.988281 36.660156-4.105468-1.1875-8.5-1.839844-13.085937-1.839844-13.097657 0-24.714844 5.246094-32.011719 13.351562-3.390625 3.769532-3.390625 9.527344 0 13.292969 7.296875 8.109375 18.914062 13.355469 32.011719 13.355469 10.953125 0 20.867187-3.683594 28.085937-9.628906 7.0625 16.613281 11.871094 34.3125 14.078125 52.65625-2.46875-2.359375-5.253906-4.515625-8.355469-6.378906-11.222656-6.742188-23.886718-8.230469-34.3125-5.042969-4.851562 1.484375-7.816406 6.421875-6.851562 11.398437 2.078125 10.707032 9.335938 21.1875 20.5625 27.929688 9.722656 5.84375 20.523438 7.734375 30.019531 6.0625-1.042969 18.191406-4.644531 35.851562-10.480469 52.578125-.671874-1.871094-1.484374-3.726563-2.453124-5.550781-5.386719-10.128907-14.222657-16.957032-23.492188-19.265626-4.308594-1.074218-8.765625 1.292969-10.285156 5.464844-3.269532 8.976563-2.546875 20.121094 2.835937 30.25 4.789063 9.003906 12.304688 15.394532 20.425781 18.324219-8.164062 14.980469-18.238281 28.847656-29.929687 41.21875.101563-.886719.1875-1.78125.234375-2.683594.601562-11.457031-3.453125-21.863281-10.210938-28.617187-3.140624-3.136719-8.179687-3.402344-11.628906-.609375-7.425781 6.011719-12.550781 15.933593-13.148437 27.390625-.566407 10.769531 2.988281 20.609375 9.03125 27.363281-21.535157 15.992187-46.535157 27.695313-73.84375 33.648437-5.394531 1.175782-8.816407 6.503907-7.640625 11.898438 1.019531 4.679688 5.160156 7.875 9.761718 7.875.707032 0 1.421876-.074219 2.140626-.230469 25.265624-5.507812 49.296874-15.640625 70.882812-29.640625.191406 1.050782.578125 2.082032 1.171875 3.035156 5.0625 8.101563 14.285156 14.394532 25.582031 16.386719 11.296875 1.992188 22.121094-.765625 29.648438-6.648437 3.496094-2.738282 4.375-7.703125 2.019531-11.472656-5.058594-8.101563-14.285156-14.394532-25.582031-16.386719-4.066406-.714844-8.066406-.808594-11.878906-.371094 10.496093-8.761719 20.191406-18.535156 28.898437-29.21875 1.769531-2.171875 3.488281-4.382813 5.171875-6.617187.996094 1.546874 2.484375 2.785156 4.320312 3.457031 8.976563 3.269531 20.121094 2.546875 30.25-2.839844 10.128907-5.382813 16.957032-14.21875 19.265626-23.488281 1.074218-4.308594-1.292969-8.765625-5.464844-10.285156-8.621094-3.136719-19.234375-2.585938-29.03125 2.230468 6.910156-13.484375 12.382812-27.667968 16.324218-42.292968 9.089844 1.019531 19.15625-1.160157 28.210938-6.816407 11.101562-6.941406 18.179688-17.546875 20.070312-28.285156.875-4.992187-2.175781-9.875-7.050781-11.273437zm0 0" fill="#fcae51"/><path d="m461 245c0 101.617188-73.941406 185.949219-170.953125 202.167969-1.023437-5.3125 2.367187-10.5 7.683594-11.65625 27.304687-5.953125 52.304687-17.65625 73.84375-33.652344-6.042969-6.75-9.597657-16.589844-9.035157-27.359375.601563-11.457031 5.722657-21.378906 13.148438-27.390625 3.453125-2.792969 8.488281-2.53125 11.632812.609375 6.753907 6.753906 10.8125 17.160156 10.210938 28.613281-.046875.90625-.132812 1.800781-.238281 2.683594 11.691406-12.371094 21.765625-26.234375 29.933593-41.214844-8.121093-2.929687-15.640624-9.320312-20.425781-18.324219-5.386719-10.128906-6.105469-21.273437-2.835937-30.25 1.519531-4.171874 5.972656-6.539062 10.28125-5.46875 9.269531 2.308594 18.105468 9.140626 23.492187 19.269532.96875 1.820312 1.78125 3.679687 2.453125 5.550781 5.835938-16.726563 9.441406-34.386719 10.480469-52.578125-9.492187 1.671875-20.292969-.21875-30.015625-6.0625-11.226562-6.742188-18.484375-17.226562-20.5625-27.929688-.964844-4.976562 2-9.914062 6.847656-11.398437 10.429688-3.191406 23.089844-1.703125 34.316406 5.042969 3.101563 1.863281 5.882813 4.019531 8.355469 6.378906-2.207031-18.347656-7.015625-36.042969-14.078125-52.65625-7.222656 5.945312-17.132812 9.625-28.089844 9.625-13.09375 0-24.714843-5.246094-32.011718-13.351562-3.390625-3.769532-3.390625-9.527344 0-13.296876 7.296875-8.105468 18.917968-13.351562 32.011718-13.351562 4.585938 0 8.984376.65625 13.085938 1.839844-8.492188-13.367188-18.566406-25.6875-29.988281-36.65625-.3125.511718-.671875 1.003906-1.089844 1.464844-7.292969 8.105468-18.914063 13.351562-32.007813 13.351562-13.097656 0-24.714843-5.246094-32.011718-13.351562-3.390625-3.769532-3.390625-9.527344 0-13.296876 7.296875-8.105468 18.917968-13.351562 32.011718-13.351562.238282 0 .472657.015625.714844.019531-10.34375-6.421875-21.347656-11.90625-32.90625-16.320312-8.625 4.46875-19.605468 5.859375-30.710937 3.09375-12.707031-3.167969-22.710938-11.070313-27.828125-20.699219-.820313-1.542969-1.179688-3.214844-1.144532-4.863281 108.773438 5 195.429688 94.761719 195.429688 204.769531zm-410 0c0 101.617188 73.9375 185.949219 170.949219 202.167969 1.023437-5.3125-2.367188-10.5-7.683594-11.65625-27.304687-5.953125-52.304687-17.65625-73.839844-33.652344 6.042969-6.75 9.597657-16.589844 9.03125-27.359375-.601562-11.457031-5.722656-21.378906-13.148437-27.390625-3.449219-2.792969-8.488282-2.53125-11.628906.609375-6.757813 6.753906-10.8125 17.160156-10.214844 28.613281.050781.90625.132812 1.800781.238281 2.683594-11.691406-12.371094-21.769531-26.234375-29.933594-41.214844 8.121094-2.929687 15.640625-9.320312 20.425781-18.324219 5.386719-10.128906 6.105469-21.273437 2.835938-30.25-1.519531-4.171874-5.972656-6.539062-10.28125-5.46875-9.269531 2.308594-18.105469 9.140626-23.492188 19.269532-.96875 1.820312-1.78125 3.679687-2.453124 5.550781-5.835938-16.726563-9.441407-34.386719-10.480469-52.578125 9.492187 1.671875 20.292969-.21875 30.015625-6.0625 11.226562-6.742188 18.484375-17.226562 20.5625-27.929688.964844-4.976562-2-9.914062-6.847656-11.398437-10.429688-3.191406-23.089844-1.703125-34.316407 5.042969-3.101562 1.863281-5.886719 4.019531-8.355469 6.378906 2.207032-18.347656 7.015626-36.042969 14.078126-52.65625 7.222656 5.945312 17.132812 9.625 28.089843 9.625 13.09375 0 24.714844-5.246094 32.007813-13.351562 3.394531-3.769532 3.394531-9.527344 0-13.296876-7.292969-8.105468-18.914063-13.351562-32.007813-13.351562-4.585937 0-8.984375.65625-13.085937 1.839844 8.492187-13.367188 18.566406-25.6875 29.988281-36.65625.3125.511718.671875 1.003906 1.085937 1.464844 7.296876 8.105468 18.917969 13.351562 32.011719 13.351562s24.714844-5.246094 32.007813-13.351562c3.394531-3.769532 3.394531-9.527344 0-13.296876-7.292969-8.105468-18.910156-13.351562-32.007813-13.351562-.238281 0-.472656.015625-.710937.019531 10.34375-6.421875 21.34375-11.90625 32.902344-16.320312 8.625 4.46875 19.605468 5.859375 30.710937 3.09375 12.707031-3.167969 22.710937-11.070313 27.828125-20.699219.820312-1.542969 1.183594-3.214844 1.144531-4.863281-108.773437 5-195.425781 94.761719-195.425781 204.769531zm0 0" fill="#ffc97b"/></svg>