<svg height="512pt" viewBox="-6 0 512 512.00069" width="512pt" xmlns="http://www.w3.org/2000/svg"><path d="m500.757812 261.617188c0 138.28125-112.097656 228.917968-250.378906 228.917968-130.234375 0-237.246094-77.972656-249.257812-205.0625-.742188-7.851562-1.121094-15.808594-1.121094-23.855468 0-138.277344 112.097656-250.375 250.378906-250.375s250.378906 112.097656 250.378906 250.375zm0 0" fill="#b3e8f4"/><path d="m500.757812 260.597656c0 .050782-.007812.097656-.007812.148438.003906.292968.007812.582031.007812.871094 0 130.675781-100.117187 237.949218-227.828124 249.355468l-6.679688.527344c-6.996094.324219-10.558594.515625-17.5625.488281-5.542969-.023437-10.773438-.386719-16.3125-.632812l-4.546875-.382813c-54.484375-4.867187-103.945313-27.183594-142.75-61.320312-8.726563-7.675782-43.039063-48.335938-50.667969-61.316406-18.054687-30.699219-29.75-65.59375-33.269531-102.867188 2.28125-5.597656 7.769531-9.542969 14.191406-9.542969h102.703125v-76.648437c0-8.464844 6.863282-15.328125 15.332032-15.328125h107.816406v-76.644531c0-8.46875 6.863281-15.332032 15.328125-15.332032h112.414062v-76.644531c0-8.464844 6.863281-15.328125 15.328125-15.328125h101.175782c8.464843 0 15.328124 6.863281 15.328124 15.328125zm0 0" fill="#15b568"/><path d="m256.511719 91.976562h33.273437c-8.46875 0-15.332031 6.863282-15.332031 15.328126v61.316406c0 8.464844-6.863281 15.328125-15.328125 15.328125h-17.941406v-76.644531c0-8.464844 6.863281-15.328126 15.328125-15.328126zm127.742187-91.976562c-8.464844 0-15.328125 6.863281-15.328125 15.328125v76.648437h17.945313c8.464844 0 15.328125-6.863281 15.328125-15.328124v-61.320313c0-8.464844 6.863281-15.328125 15.328125-15.328125zm-349.84375 285.472656c2.285156-5.597656 7.773438-9.546875 14.191406-9.546875h-33.273437c-6.417969 0-11.90625 3.945313-14.191406 9.546875 3.523437 37.269532 15.21875 72.164063 33.269531 102.867188 7.085938 12.042968 41.136719 52.925781 50.671875 61.316406 38.804687 34.136719 88.265625 56.453125 142.75 61.316406l10.738281.75c4.402344.273438 8.414063.300782 12.707032.265625 3.167968-.023437 6.433593-.136719 9.828124-.25-119.847656-10.703125-215.378906-106.597656-226.691406-226.265625zm116.898438-24.875v-61.316406c0-8.46875 6.863281-15.332031 15.328125-15.332031h-33.269531c-8.46875 0-15.332032 6.863281-15.332032 15.332031v76.644531h17.945313c8.464843 0 15.328125-6.863281 15.328125-15.328125zm0 0" fill="#4b9b5e"/><path d="m463.191406 231.207031h-29.546875v14.847657c0 112.265624-91.335937 203.601562-203.605469 203.601562h-144.960937c-19.964844-17.566406-37.109375-38.257812-50.667969-61.316406h195.628906c78.457032 0 142.289063-63.828125 142.289063-142.285156v-14.84375h-29.769531c-3.957032 0-6.414063-4.304688-4.398438-7.710938l60.3125-102.066406c1.976563-3.347656 6.820313-3.347656 8.796875 0l60.316407 102.066406c2.015624 3.40625-.441407 7.707031-4.394532 7.707031zm0 0" fill="#fff1b8"/><path d="m407.273438 121.429688s-10.007813 155.90625-13.308594 168.804687c-17.984375 70.289063-91.785156 125.1875-167.601563 125.1875h-173.554687c-6.703125-8.59375-12.847656-17.644531-18.398438-27.082031h195.628906c78.460938 0 142.289063-63.828125 142.289063-142.285156v-14.847657h-29.769531c-3.957032 0-6.410156-4.300781-4.398438-7.707031l60.3125-102.070312c1.980469-3.347657 6.824219-3.347657 8.800782 0zm0 0" fill="#ffdc85"/></svg>