<svg height="512pt" viewBox="-6 0 512 512" width="512pt" xmlns="http://www.w3.org/2000/svg"><path d="m0 261.621094c0-138.113282 111.824219-250.105469 249.871094-250.378906 136.519531-.269532 250.503906 113.140624 250.886718 249.65625.199219 71.347656-29.445312 135.761718-77.152343 181.492187-.8125.777344-1.949219 1.105469-3.054688.886719-52.90625-10.402344-110.261719-16.101563-170.171875-16.101563-59.714844 0-116.890625 5.660157-169.652344 16-1.429687.28125-2.90625-.144531-3.957031-1.152343-47.320312-45.550782-76.769531-109.535157-76.769531-180.402344zm0 0" fill="#7cc971"/><path d="m424.113281 185.996094v255.902344c-45.027343 43.402343-106.257812 70.101562-173.734375 70.101562-67.476562 0-128.707031-26.699219-173.730468-70.101562v-255.902344c0-11.289063 9.148437-20.4375 20.4375-20.4375h306.585937c11.289063 0 20.441406 9.148437 20.441406 20.4375zm0 0" fill="#fff1b8"/><path d="m424.113281 185.996094v255.902344c-45.027343 43.402343-106.257812 70.101562-173.734375 70.101562-53.644531 0-103.347656-16.878906-144.09375-45.609375v-280.394531c0-11.289063 9.148438-20.4375 20.4375-20.4375h276.949219c11.289063 0 20.441406 9.148437 20.441406 20.4375zm0 0" fill="#fff7ee"/><path d="m317.828125 464.988281v10.222657c0 2.820312-2.289063 5.109374-5.109375 5.109374h-124.679688c-2.820312 0-5.109374-2.289062-5.109374-5.109374v-10.222657c0-2.820312 2.289062-5.109375 5.109374-5.109375h124.679688c2.820312 0 5.109375 2.289063 5.109375 5.109375zm34.746094-45.984375h-204.390625c-2.820313 0-5.109375 2.285156-5.109375 5.109375v10.21875c0 2.820313 2.289062 5.109375 5.109375 5.109375h204.390625c2.820312 0 5.109375-2.289062 5.109375-5.109375v-10.21875c0-2.824219-2.289063-5.109375-5.109375-5.109375zm0 0" fill="#ffdc85"/><path d="m337.246094 301.476562c0 47.976563-38.890625 86.867188-86.867188 86.867188-47.972656 0-86.867187-38.890625-86.867187-86.867188 0-47.972656 38.894531-86.867187 86.867187-86.867187 47.976563 0 86.867188 38.894531 86.867188 86.867187zm0 0" fill="#fcae51"/><path d="m256.792969 238.714844 15.984375 32.386718 35.742187 5.195313c5.867188.851563 8.210938 8.0625 3.964844 12.203125l-25.863281 25.207031 6.105468 35.597657c1.003907 5.84375-5.128906 10.300781-10.378906 7.542968l-31.96875-16.808594-31.96875 16.808594c-5.246094 2.757813-11.378906-1.699218-10.378906-7.542968l6.105469-35.59375-25.863281-25.210938c-4.246094-4.140625-1.902344-11.351562 3.964843-12.203125l35.742188-5.195313 15.984375-32.386718c2.625-5.316406 10.203125-5.316406 12.828125 0zm0 0" fill="#fff1b8"/><path d="m76.648438 185.996094v-60.296875c0-11.289063 9.148437-20.4375 20.4375-20.4375h306.585937c11.289063 0 20.441406 9.148437 20.441406 20.4375v60.296875zm0 0" fill="#f43b5f"/><path d="m106.285156 185.996094v-60.296875c0-11.289063 9.148438-20.4375 20.4375-20.4375h276.949219c11.289063 0 20.441406 9.148437 20.441406 20.4375v60.296875zm0 0" fill="#ff5284"/><path d="m275.929688 20.4375v112.417969c0 11.289062-9.152344 20.4375-20.441407 20.4375h-10.21875c-11.289062 0-20.4375-9.148438-20.4375-20.4375v-112.417969c0-11.285156 9.148438-20.4375 20.4375-20.4375h10.21875c11.289063 0 20.441407 9.152344 20.441407 20.4375zm0 0" fill="#8fd5e5"/><path d="m297.390625 71.535156v30.660156c0 5.644532-4.578125 10.21875-10.222656 10.21875h-73.578125c-5.644532 0-10.21875-4.574218-10.21875-10.21875v-30.660156c0-5.640625 4.574218-10.21875 10.21875-10.21875h73.578125c5.644531 0 10.222656 4.578125 10.222656 10.21875zm0 0" fill="#b3e8f4"/><path d="m264.6875 86.867188c0 8.464843-6.863281 15.328124-15.332031 15.328124-8.464844 0-15.328125-6.863281-15.328125-15.328124 0-8.46875 6.863281-15.332032 15.328125-15.332032 8.46875 0 15.332031 6.863282 15.332031 15.332032zm0 0" fill="#69c3da"/></svg>