<svg height="512pt" viewBox="-6 0 512 512" width="512pt" xmlns="http://www.w3.org/2000/svg"><path d="m430.207031 369.691406h-359.660156c-30.402344 0-56.90625-20.851562-63.878906-50.441406-4.359375-18.503906-6.667969-37.796875-6.667969-57.628906 0-138.28125 112.097656-250.378906 250.378906-250.378906 137.992188 0 251.421875 114.328124 250.371094 252.316406-.144531 19.0625-2.417969 37.613281-6.597656 55.433594-6.964844 29.695312-33.441406 50.699218-63.945313 50.699218zm0 0" fill="#69c3da"/><path d="m380.421875 0h-20.4375c-8.464844 0-15.328125 6.863281-15.328125 15.328125v40.878906h-188.550781v-40.878906c0-8.464844-6.863281-15.328125-15.332031-15.328125h-20.4375c-8.464844 0-15.328126 6.863281-15.328126 15.328125v357.6875c0 8.464844 6.863282 15.328125 15.328126 15.328125h20.4375c8.46875 0 15.332031-6.863281 15.332031-15.328125v-40.878906h188.550781v40.878906c0 8.464844 6.863281 15.328125 15.328125 15.328125h20.4375c8.46875 0 15.332031-6.863281 15.332031-15.328125v-357.6875c0-8.464844-6.863281-15.328125-15.332031-15.328125zm-35.765625 86.867188v51.097656h-188.550781v-51.097656zm0 81.753906v51.097656h-188.550781v-51.097656zm-188.550781 132.855468v-51.097656h188.550781v51.097656zm0 0" fill="#b76458"/><path d="m143.96875 388.003906c-1.03125.21875-2.097656.339844-3.195312.339844h-20.4375c-8.464844 0-15.328126-6.863281-15.328126-15.328125v-357.6875c0-8.464844 6.863282-15.328125 15.328126-15.328125h20.4375c1.097656 0 2.164062.121094 3.195312.339844-6.933594 1.46875-12.136719 7.621094-12.136719 14.988281v357.6875c0 7.367187 5.203125 13.519531 12.136719 14.988281zm0 0" fill="#934a4a"/><path d="m458.050781 401.53125c-.484375-.011719-.972656-.011719-1.453125-.039062.070313.625.121094 1.25.179688 1.878906-40.320313 58.59375-104.933594 99.164062-179.316406 107.167968-31.109376-20.746093-51.609376-56.148437-51.609376-96.347656 0-63.910156 51.8125-115.71875 115.722657-115.71875 27.136719 0 52.089843 9.34375 71.824219 24.988282 8.976562-16.15625 26.207031-27.09375 46-27.09375 14.164062 0 27.007812 5.609374 36.464843 14.710937-6.601562 32.945313-19.660156 63.558594-37.8125 90.453125zm0 0" fill="#b3e8f4"/><path d="m277.828125 510.496094c-.121094.015625-.246094.027344-.367187.042968-31.109376-20.746093-51.609376-56.148437-51.609376-96.347656 0-63.910156 51.8125-115.71875 115.722657-115.71875 7.640625 0 15.097656.765625 22.324219 2.175782-53.175782 10.445312-93.296876 57.304687-93.296876 113.542968 0 24.597656 7.679688 47.398438 20.765626 66.144532 8.347656 11.953124.953124 28.582031-13.539063 30.160156zm0 0" fill="#8fd5e5"/><path d="m315.785156 451.703125c0 23.683594-11.515625 44.667969-29.242187 57.6875-11.808594 1.707031-23.878907 2.609375-36.164063 2.609375-119.261718 0-219.035156-83.386719-244.230468-195.035156 11.140624-11.4375 26.699218-18.554688 43.925781-18.554688 14.554687 0 27.914062 5.082032 38.429687 13.550782 15.917969-8.640626 34.160156-13.550782 53.546875-13.550782 51.558594 0 95.003907 34.707032 108.257813 82.03125 36.667968 3.078125 65.476562 33.796875 65.476562 71.261719zm0 0" fill="#fff7ee"/><path d="m46.199219 339.902344c31.179687 94.808594 117.445312 164.609375 220.933593 171.53125-5.539062.367187-11.121093.566406-16.753906.566406-119.261718 0-219.035156-83.386719-244.230468-195.035156 11.140624-11.4375 26.699218-18.554688 43.925781-18.554688 5.851562 0 11.503906.835938 16.863281 2.367188-.105469.03125-.207031.058594-.3125.089844-16.574219 4.832031-25.816406 22.636718-20.425781 39.035156zm0 0" fill="#e1ebf0"/></svg>