<svg height="512pt" viewBox="0 -6 512 512" width="512pt" xmlns="http://www.w3.org/2000/svg"><path d="m512 250.378906c0 38.003906-8.46875 74.027344-23.617188 106.292969-4.132812 8.804687-25.460937 42.984375-32.027343 51.101563-45.902344 56.71875-116.082031 92.984374-194.734375 92.984374-138.28125 0-250.378906-112.097656-250.378906-250.378906s112.097656-250.378906 250.378906-250.378906 250.378906 112.097656 250.378906 250.378906zm0 0" fill="#b3e8f4"/><path d="m472.144531 85.84375v265.710938c0 14.109374-11.441406 25.546874-25.550781 25.546874h-68.980469c.332031 1.652344.511719 3.359376.511719 5.109376 0 14.109374-11.441406 25.550781-25.550781 25.550781h-327.023438c-14.113281 0-25.550781-11.441407-25.550781-25.550781 0-14.109376 11.4375-25.546876 25.550781-25.546876h26.058594c-.335937-1.652343-.511719-3.363281-.511719-5.109374v-265.710938c0-14.109375 11.4375-25.546875 25.550782-25.546875h369.945312c14.109375 0 25.550781 11.4375 25.550781 25.546875zm0 0" fill="#0573cd"/><path d="m72.558594 310.675781v-224.832031c0-14.109375 11.4375-25.546875 25.550781-25.546875h348.484375c14.109375 0 25.550781 11.4375 25.550781 25.546875v224.832031c0 14.109375-11.441406 25.546875-25.550781 25.546875h-348.484375c-14.113281 0-25.550781-11.4375-25.550781-25.546875zm308.378906 45.988281h-.003906-37.054688c-2.425781 0-4.515625 1.707032-5 4.085938-1.890625 9.332031-10.140625 16.351562-20.027344 16.351562h-114.460937c-9.886719 0-18.136719-7.023437-20.03125-16.351562-.480469-2.378906-2.570313-4.085938-4.996094-4.085938h-123.859375c-14.320312 0-26.390625 11.71875-26.117187 26.042969.261719 13.878907 11.597656 25.054688 25.542969 25.054688h2.296874.003907 399.132812c12.621094-15.597657 23.402344-32.738281 32.023438-51.097657zm0 0" fill="#4691db"/><path d="m450.683594 119.570312v206.433594c0 5.644532-4.578125 10.21875-10.21875 10.21875h-357.6875c-5.644532 0-10.21875-4.574218-10.21875-10.21875v-206.433594c0-5.644531 4.574218-10.222656 10.21875-10.222656h357.6875c5.640625 0 10.21875 4.578125 10.21875 10.222656zm0 0" fill="#fff1b8"/><path d="m450.683594 119.570312v206.433594c0 5.644532-4.578125 10.21875-10.21875 10.21875h-338.269532c-5.644531 0-10.21875-4.574218-10.21875-10.21875v-206.433594c0-5.644531 4.574219-10.222656 10.21875-10.222656h338.269532c5.640625 0 10.21875 4.578125 10.21875 10.222656zm0 0" fill="#fff7ee"/><path d="m450.683594 90.953125v30.660156h-378.125v-30.660156c0-5.644531 4.574218-10.21875 10.21875-10.21875h357.6875c5.640625 0 10.21875 4.574219 10.21875 10.21875zm0 0" fill="#ed9c3b"/><path d="m450.683594 90.953125v30.660156h-358.707032v-30.660156c0-5.644531 4.574219-10.21875 10.21875-10.21875h338.269532c5.640625 0 10.21875 4.574219 10.21875 10.21875zm0 0" fill="#f9b65d"/><path d="m106.285156 101.171875c0 5.644531-4.578125 10.222656-10.222656 10.222656s-10.21875-4.578125-10.21875-10.222656c0-5.640625 4.574219-10.21875 10.21875-10.21875s10.222656 4.578125 10.222656 10.21875zm20.4375-10.21875c-5.644531 0-10.21875 4.578125-10.21875 10.21875 0 5.644531 4.574219 10.222656 10.21875 10.222656 5.644532 0 10.21875-4.578125 10.21875-10.222656 0-5.640625-4.574218-10.21875-10.21875-10.21875zm30.660156 0c-5.644531 0-10.222656 4.578125-10.222656 10.21875 0 5.644531 4.578125 10.222656 10.222656 10.222656 5.644532 0 10.21875-4.578125 10.21875-10.222656 0-5.640625-4.574218-10.21875-10.21875-10.21875zm0 0" fill="#d38231"/><path d="m292.28125 116.503906v219.71875h-61.320312v-219.71875c0-8.464844 6.863281-15.332031 15.332031-15.332031h30.65625c8.464843 0 15.332031 6.867187 15.332031 15.332031zm-112.417969 35.765625h-30.65625c-8.46875 0-15.332031 6.867188-15.332031 15.332031v168.621094h61.320312v-168.621094c0-8.464843-6.863281-15.332031-15.332031-15.332031zm194.171875-102.195312h-30.65625c-8.46875 0-15.332031 6.863281-15.332031 15.332031v270.816406h61.320313v-270.816406c0-8.46875-6.867188-15.332031-15.332032-15.332031zm0 0" fill="#ffdc85"/><path d="m149.207031 152.269531h19.414063c-8.464844 0-15.328125 6.867188-15.328125 15.332031v168.621094h-19.417969v-168.621094c0-8.464843 6.863281-15.332031 15.332031-15.332031zm194.171875-102.195312c-8.46875 0-15.332031 6.863281-15.332031 15.332031v270.816406h19.417969v-270.816406c0-8.46875 6.863281-15.332031 15.328125-15.332031zm-112.417968 66.429687v219.71875h19.417968v-219.71875c0-8.464844 6.863282-15.332031 15.328125-15.332031h-19.414062c-8.46875 0-15.332031 6.867187-15.332031 15.332031zm0 0" fill="#ffc97b"/><path d="m488.035156 30.183594-29.523437 114.824218c-.984375 3.832032-5.765625 5.136719-8.5625 2.339844l-20.96875-20.96875-90.714844 90.710938-26.902344 26.902344c-3.832031 3.835937-9.03125 5.988281-14.453125 5.988281h-151.578125c-2.710937 0-5.3125 1.078125-7.226562 2.992187l-65.609375 65.609375v-86.714843l37.21875-37.21875c3.832031-3.832032 9.03125-5.984376 14.449218-5.984376h151.582032c2.710937 0 5.308594-1.078124 7.226562-2.992187l8.066406-8.070313 94.582032-94.582031-20.96875-20.96875c-2.796875-2.800781-1.492188-7.578125 2.339844-8.5625l114.824218-29.527343c3.761719-.964844 7.1875 2.460937 6.21875 6.222656zm0 0" fill="#ff5284"/><path d="m487.46875 26.28125-64.832031 68.660156-107.128907 107.132813-9.972656 9.972656c-5.789062 5.789063-13.488281 8.980469-21.679687 8.980469h-151.578125l-59.78125 59.78125v-48.941406l37.21875-37.21875c3.832031-3.832032 9.03125-5.984376 14.449218-5.984376h151.582032c2.710937 0 5.308594-1.078124 7.226562-2.992187l8.066406-8.070313 94.582032-94.582031-20.96875-20.96875c-2.796875-2.800781-1.492188-7.578125 2.339844-8.5625l114.824218-29.527343c2.339844-.597657 4.546875.5 5.652344 2.320312zm0 0" fill="#f43b5f"/></svg>