<svg height="512pt" viewBox="-6 0 512 512" width="512pt" xmlns="http://www.w3.org/2000/svg"><path d="m80.113281 423.957031c-12.296875 1.105469-24.316406-4.28125-31.628906-14.230469-30.480469-41.480468-48.484375-92.6875-48.484375-148.105468 0-138.191406 111.957031-250.234375 250.113281-250.378906 136-.140626 247.875 109.273437 250.59375 245.25 1.148438 57.414062-17.035156 110.539062-48.488281 153.304687-7.292969 9.921875-19.304688 15.265625-31.570312 14.160156-54.496094-4.902343-111.535157-7.511719-170.269532-7.511719s-115.769531 2.609376-170.265625 7.511719zm0 0" fill="#4b9b5e"/><path d="m250.378906 512c-83.101562 0-156.734375-40.496094-202.277344-102.820312v-104.296876c0-11.289062 9.152344-20.4375 20.441407-20.4375h363.675781c11.285156 0 20.4375 9.148438 20.4375 20.4375v104.296876c-45.542969 62.324218-119.175781 102.820312-202.277344 102.820312zm0 0" fill="#ffc97b"/><path d="m452.65625 176.835938v131.617187c-49.84375 49.050781-122 79.890625-202.277344 79.890625s-152.433594-30.839844-202.277344-79.890625v-131.617187c49.84375-49.050782 122-79.890626 202.277344-79.890626s152.433594 30.839844 202.277344 79.890626zm0 0" fill="#fcae51"/><path d="m409.804688 5.109375v398.5625c0 2.824219-2.289063 5.109375-5.109376 5.109375h-308.632812c-2.820312 0-5.109375-2.285156-5.109375-5.109375v-398.5625c0-2.820313 2.289063-5.109375 5.109375-5.109375h308.632812c2.820313 0 5.109376 2.289062 5.109376 5.109375zm0 0" fill="#b4d2d7"/><path d="m404.695312 0h-277.972656c-2.820312 0-5.109375 2.289062-5.109375 5.109375v398.5625c0 2.824219 2.289063 5.109375 5.109375 5.109375h277.972656c2.820313 0 5.109376-2.285156 5.109376-5.109375v-398.5625c0-2.820313-2.289063-5.109375-5.109376-5.109375zm-190.085937 357.683594c-5.644531 0-10.21875-4.574219-10.21875-10.21875 0-5.644532 4.574219-10.21875 10.21875-10.21875s10.222656 4.574218 10.222656 10.21875c0 5.644531-4.578125 10.21875-10.222656 10.21875zm35.769531 0c-5.644531 0-10.21875-4.574219-10.21875-10.21875 0-5.644532 4.574219-10.21875 10.21875-10.21875 5.644532 0 10.21875 4.574218 10.21875 10.21875 0 5.644531-4.574218 10.21875-10.21875 10.21875zm35.769532 0c-5.644532 0-10.21875-4.574219-10.21875-10.21875 0-5.644532 4.574218-10.21875 10.21875-10.21875 5.644531 0 10.21875 4.574218 10.21875 10.21875 0 5.644531-4.574219 10.21875-10.21875 10.21875zm71.535156-45.988282c0 2.824219-2.289063 5.109376-5.109375 5.109376h-204.390625c-2.820313 0-5.109375-2.285157-5.109375-5.109376v-10.21875c0-2.820312 2.289062-5.109374 5.109375-5.109374h204.390625c2.820312 0 5.109375 2.289062 5.109375 5.109374zm0-40.875c0 2.820313-2.289063 5.109376-5.109375 5.109376h-204.390625c-2.820313 0-5.109375-2.289063-5.109375-5.109376v-10.222656c0-2.820312 2.289062-5.109375 5.109375-5.109375h204.390625c2.820312 0 5.109375 2.289063 5.109375 5.109375zm9.199218-80.226562c0 5.644531-4.574218 10.21875-10.21875 10.21875h-204.394531c-5.640625 0-10.21875-4.574219-10.21875-10.21875v-125.699219c0-5.644531 4.578125-10.21875 10.21875-10.21875h204.394531c5.644532 0 10.21875 4.574219 10.21875 10.21875zm0 0" fill="#e1ebf0"/><path d="m376.003906 46.753906-13.757812 53.511719c-.457032 1.785156-2.6875 2.394531-3.988282 1.089844l-9.773437-9.773438-58.1875 58.1875c-1.785156 1.785157-4.210937 2.789063-6.734375 2.789063h-70.640625c-1.261719 0-2.472656.503906-3.367187 1.394531l-45.226563 45.226563c-7.867187 7.871093-21.40625 4.113281-23.9375-6.726563-.023437-.105469-.046875-.214844-.070313-.320313-1.097656-4.753906.382813-9.734374 3.832032-13.1875l52.171875-52.171874c1.785156-1.785157 4.210937-2.789063 6.734375-2.789063h70.640625c1.261719 0 2.472656-.5 3.367187-1.394531l5.5625-5.5625 45.648438-45.652344-9.769532-9.769531c-1.304687-1.304688-.695312-3.53125 1.089844-3.992188l53.507813-13.757812c1.753906-.449219 3.351562 1.144531 2.898437 2.898437zm0 0" fill="#f43b5f"/><path d="m250.378906 512c-67.441406 0-128.644531-26.671875-173.660156-70.03125v-109.179688c47.136719 34.6875 107.648438 55.554688 173.660156 55.554688 80.277344 0 152.433594-30.839844 202.277344-79.890625v100.726563c-45.542969 62.324218-119.175781 102.820312-202.277344 102.820312zm0 0" fill="#ffdc85"/></svg>