<svg height="512pt" viewBox="-6 0 512 512.00001" width="512pt" xmlns="http://www.w3.org/2000/svg"><path d="m0 261.621094c0-138.28125 112.097656-250.378906 250.378906-250.378906 138.226563 0 250.769532 112.878906 250.378906 251.105468-.191406 67.542969-27.140624 128.78125-70.789062 173.710938-2.84375 2.925781-6.910156 4.304687-10.957031 3.78125-53.386719-6.90625-110-10.617188-168.632813-10.617188-58.632812 0-115.242187 3.710938-168.628906 10.617188-4.054688.523437-8.128906-.863282-10.976562-3.796875-43.796876-45.089844-70.773438-106.601563-70.773438-174.421875zm0 0" fill="#69c3da"/><path d="m430.242188 91.976562v343.800782c-9.464844 9.773437-19.71875 18.78125-30.660157 26.914062-41.667969 30.976563-256.730469 30.976563-298.398437.003906-10.945313-8.132812-21.203125-17.140624-30.667969-26.917968v-343.800782c0-11.289062 9.148437-20.441406 20.4375-20.441406h318.851563c11.289062 0 20.4375 9.152344 20.4375 20.441406zm0 0" fill="#015aad"/><path d="m430.242188 91.976562v343.800782c-9.464844 9.773437-19.71875 18.78125-30.660157 26.914062-41.667969 30.976563-256.738281 30.976563-298.410156.003906v-370.71875c0-11.289062 9.152344-20.441406 20.441406-20.441406h288.191407c11.289062 0 20.4375 9.152344 20.4375 20.441406zm0 0" fill="#0573cd"/><path d="m399.585938 112.414062v350.28125c-41.671876 30.972657-93.296876 49.304688-149.207032 49.304688s-107.535156-18.332031-149.207031-49.304688v-350.28125c0-5.644531 4.578125-10.21875 10.222656-10.21875h277.972657c5.640624 0 10.21875 4.574219 10.21875 10.21875zm0 0" fill="#ffdc85"/><path d="m131.832031 102.195312h257.535157c5.640624 0 10.21875 4.574219 10.21875 10.21875v350.28125c-41.671876 30.972657-93.296876 49.304688-149.207032 49.304688-47.089844 0-91.140625-13.007812-128.765625-35.617188v-363.96875c0-5.644531 4.574219-10.21875 10.21875-10.21875zm0 0" fill="#fff1b8"/><path d="m254.46875 434.332031v10.21875c0 2.820313-2.289062 5.109375-5.113281 5.109375h-112.414063c-2.820312 0-5.109375-2.289062-5.109375-5.109375v-10.21875c0-2.824219 2.289063-5.109375 5.109375-5.109375h112.414063c2.824219 0 5.113281 2.285156 5.113281 5.109375zm-117.527344-88.300781h112.414063c2.824219 0 5.113281-2.289062 5.113281-5.109375v-10.21875c0-2.824219-2.289062-5.109375-5.113281-5.109375h-112.414063c-2.820312 0-5.109375 2.285156-5.109375 5.109375v10.21875c0 2.820313 2.289063 5.109375 5.109375 5.109375zm0-100.761719h112.414063c2.824219 0 5.113281-2.289062 5.113281-5.109375v-10.21875c0-2.824218-2.289062-5.109375-5.113281-5.109375h-112.414063c-2.820312 0-5.109375 2.285157-5.109375 5.109375v10.21875c0 2.820313 2.289063 5.109375 5.109375 5.109375zm163.515625 143.074219h-163.515625c-2.820312 0-5.109375 2.289062-5.109375 5.109375v10.21875c0 2.824219 2.289063 5.109375 5.109375 5.109375h163.515625c2.820313 0 5.109375-2.285156 5.109375-5.109375v-10.21875c0-2.820313-2.289062-5.109375-5.109375-5.109375zm0-204.390625h-163.515625c-2.820312 0-5.109375 2.289063-5.109375 5.109375v10.21875c0 2.820312 2.289063 5.109375 5.109375 5.109375h163.515625c2.820313 0 5.109375-2.289063 5.109375-5.109375v-10.21875c0-2.820312-2.289062-5.109375-5.109375-5.109375zm0 100.761719h-163.515625c-2.820312 0-5.109375 2.289062-5.109375 5.109375v10.21875c0 2.820312 2.289063 5.109375 5.109375 5.109375h163.515625c2.820313 0 5.109375-2.289063 5.109375-5.109375v-10.21875c0-2.820313-2.289062-5.109375-5.109375-5.109375zm0 0" fill="#ffc97b"/><path d="m371.53125 242.277344-33.8125-33.8125c-1.996094-1.996094-1.996094-5.230469 0-7.226563l14.453125-14.453125c1.996094-1.996094 5.230469-1.996094 7.226563 0l15.746093 15.746094c1.996094 1.996094 5.230469 1.996094 7.226563 0l46.308594-46.308594c1.992187-1.996094 5.230468-1.996094 7.222656 0l14.453125 14.453125c1.996093 1.996094 1.996093 5.230469 0 7.226563l-64.371094 64.375c-3.992187 3.988281-10.460937 3.988281-14.453125 0zm14.453125 100.761718 64.375-64.375c1.996094-1.996093 1.996094-5.230468 0-7.226562l-14.453125-14.453125c-1.996094-1.996094-5.230469-1.996094-7.226562 0l-46.308594 46.308594c-1.996094 1.996093-5.230469 1.996093-7.226563 0l-15.746093-15.746094c-1.996094-1.996094-5.230469-1.996094-7.226563 0l-14.449219 14.453125c-1.996094 1.996094-1.996094 5.230469 0 7.226562l33.808594 33.8125c3.992188 3.988282 10.460938 3.992188 14.453125 0zm0 0" fill="#ff5284"/><path d="m397.808594 230.449219-11.824219 11.828125c-3.992187 3.988281-10.460937 3.988281-14.453125 0l-33.808594-33.8125c-1.996094-1.996094-1.996094-5.230469 0-7.226563l11.824219-11.828125c-1.996094 1.996094-1.996094 5.230469 0 7.226563l33.8125 33.8125c3.988281 3.992187 10.460937 3.992187 14.449219 0zm-14.449219 100.761719-33.8125-33.8125c-1.996094-1.996094-1.996094-5.230469 0-7.226563l-11.828125 11.828125c-1.996094 1.996094-1.996094 5.230469 0 7.226562l33.8125 33.8125c3.992188 3.992188 10.460938 3.992188 14.453125 0l11.824219-11.828124c-3.988282 3.992187-10.460938 3.992187-14.449219 0zm0 0" fill="#f43b5f"/><path d="m332.136719 102.195312v30.660157c0 11.269531-9.171875 20.4375-20.441407 20.4375h-122.632812c-11.269531 0-20.441406-9.167969-20.441406-20.4375v-30.660157c0-5.644531 4.578125-10.21875 10.222656-10.21875 5.640625 0 10.21875 4.574219 10.21875 10.21875v30.660157h122.632812v-30.660157c0-5.644531 4.578126-10.21875 10.222657-10.21875 5.640625 0 10.21875 4.574219 10.21875 10.21875zm0 0" fill="#87a0af"/><path d="m348.488281 81.757812v20.4375c0 5.644532-4.578125 10.21875-10.222656 10.21875h-175.773437c-5.644532 0-10.222657-4.574218-10.222657-10.21875v-20.4375c0-11.289062 9.152344-20.441406 20.441407-20.441406h41.898437v-40.878906c0-11.285156 9.152344-20.4375 20.441406-20.4375h30.65625c11.289063 0 20.441407 9.152344 20.441407 20.4375v40.878906h41.898437c11.289063 0 20.441406 9.152344 20.441406 20.441406zm0 0" fill="#b4d2d7"/><path d="m338.265625 112.414062h-145.117187c-5.644532 0-10.21875-4.574218-10.21875-10.21875v-20.4375c0-11.289062 9.152343-20.441406 20.441406-20.441406h31.679687c5.644531 0 10.21875-4.574218 10.21875-10.21875v-30.660156c0-11.535156 9.554688-20.839844 21.183594-20.4257812 11.078125.3945312 19.695313 9.8359372 19.695313 20.9179692v40.386718h41.898437c11.289063 0 20.441406 9.152344 20.441406 20.441406v20.4375c0 5.644532-4.578125 10.21875-10.222656 10.21875zm0 0" fill="#e1ebf0"/><path d="m260.597656 30.660156v20.4375c0 5.644532-4.574218 10.21875-10.21875 10.21875-5.644531 0-10.21875-4.574218-10.21875-10.21875v-20.4375c0-5.644531 4.574219-10.222656 10.21875-10.222656 5.644532 0 10.21875 4.578125 10.21875 10.222656zm0 0" fill="#87a0af"/></svg>