<svg height="512pt" viewBox="0 0 512 512" width="512pt" xmlns="http://www.w3.org/2000/svg"><path d="m500.757812 261.621094c0 138.28125-112.097656 250.378906-250.378906 250.378906-54.636718 0-105.179687-17.511719-146.339844-47.214844-15.769531-21.851562-34.972656-41.054687-56.824218-56.824218-29.703125-41.160157-47.214844-91.703126-47.214844-146.339844 0-138.28125 112.097656-250.378906 250.378906-250.378906s250.378906 112.097656 250.378906 250.378906zm0 0" fill="#ffdc85"/><path d="m512 183.953125c0 101.59375-82.359375 183.949219-183.953125 183.949219-39.726563 0-76.511719-12.59375-106.582031-34.007813l-33.367188 33.367188c1.816406 6.816406.066406 14.382812-5.277344 19.730469l-78.210937 78.207031c-22.28125-15.980469-41.828125-35.527344-57.8125-57.808594l78.210937-78.210937c5.347657-5.347657 12.914063-7.09375 19.730469-5.277344l33.367188-33.367188c-21.414063-30.070312-34.007813-66.855468-34.007813-106.582031 0-101.59375 82.355469-183.953125 183.949219-183.953125s183.953125 82.359375 183.953125 183.953125zm0 0" fill="#0573cd"/><path d="m182.820312 358.085938c7.980469 7.984374 7.980469 20.925781 0 28.90625l-78.210937 78.207031c-13.914063-9.980469-26.761719-21.355469-38.34375-33.917969l80.421875-80.421875c7.980469-7.984375 20.921875-7.984375 28.90625 0zm0 0" fill="#4691db"/><path d="m328.046875 37.8125c80.710937 0 146.140625 65.429688 146.140625 146.140625s-65.429688 146.140625-146.140625 146.140625-146.140625-65.429688-146.140625-146.140625 65.429688-146.140625 146.140625-146.140625zm0 0" fill="#b4d2d7"/><path d="m474.1875 183.953125c0 71.09375-50.773438 130.324219-118.035156 143.429687-67.265625-13.105468-118.035156-72.335937-118.035156-143.429687 0-71.097656 50.769531-130.324219 118.035156-143.429687 67.261718 13.105468 118.035156 72.332031 118.035156 143.429687zm0 0" fill="#e1ebf0"/><path d="m509.007812 77.011719-202.339843 202.335937c-7.980469 7.980469-20.921875 7.980469-28.902344 0l-106.28125-106.277344c-3.988281-3.992187-3.988281-10.460937 0-14.453124l28.90625-28.90625c3.992187-3.992188 10.464844-3.992188 14.453125 0l73.761719 73.757812c1.996093 1.996094 5.230469 1.996094 7.226562 0l169.816407-169.816406c3.992187-3.992188 10.460937-3.992188 14.453124 0l28.90625 28.90625c3.988282 3.988281 3.988282 10.460937 0 14.453125zm0 0" fill="#7cc971"/><path d="m317.511719 268.503906-10.839844 10.84375c-7.984375 7.980469-20.925781 7.980469-28.90625 0l-106.28125-106.277344c-3.988281-3.992187-3.988281-10.460937 0-14.453124l12.347656-12.347657 113.769531 113.769531c5.511719 5.511719 12.6875 8.328126 19.910157 8.464844zm0 0" fill="#15b568"/></svg>