<svg height="512pt" viewBox="0 -6 512 512" width="512pt" xmlns="http://www.w3.org/2000/svg"><path d="m500.777344 250.378906c0 138.28125-111.914063 250.378906-249.96875 250.378906-30.203125 0-59.15625-5.363281-85.957032-15.195312-12.085937-4.433594-55.933593-28.660156-65.660156-36.105469-59.78125-45.75-98.347656-117.902343-98.347656-199.078125 0-138.28125 111.914062-250.378906 249.964844-250.378906 138.054687 0 249.96875 112.097656 249.96875 250.378906zm0 0" fill="#69c3da"/><path d="m214.082031 366.882812h-30.578125c-11.285156 0-20.4375-9.152343-20.4375-20.441406v-71.535156c0-11.289062 9.152344-20.4375 20.4375-20.4375h10.136719c11.289063 0 20.441406 9.148438 20.441406 20.4375zm0 0" fill="#ce1356"/><path d="m99.203125 449.441406c19.773437 15.132813 41.855469 27.390625 65.640625 36.117188l41.289062-11.082032c17.527344-4.703124 29.964844-20.683593 30.242188-38.859374l4.164062-273.125-203.488281 54.613281zm96.375-14.449218s-.003906 0-.007813 0l-54.101562 14.519531-54.4375-203.5 111.875-30.027344zm0 0" fill="#ff5284"/><path d="m61.324219 217.105469 66.800781 251.449219c-10.097656-5.710938-19.761719-12.097657-28.921875-19.113282l-62.152344-232.335937zm0 0" fill="#f43b5f"/><path d="m469.828125 26.230469c40.628906 43.800781 42.171875 107.039062 42.171875 171.546875 0 64.503906-1.542969 127.742187-42.171875 171.542968l-376.460937-82.375c-41.46875-9.078124-71.210938-45.734374-71.367188-88.253906 0-.304687 0-.609375 0-.914062 0-.308594 0-.613282 0-.917969.160156-42.519531 29.898438-79.175781 71.367188-88.25zm0 0" fill="#d38231"/><path d="m451.988281 243.652344-141.988281 14.222656v-120.199219l141.742188 12.425781c10.332031.902344 18.257812 9.566407 18.257812 19.953126v53.664062c0 10.292969-7.785156 18.910156-18.011719 19.933594zm0 0" fill="#b4d2d7"/><path d="m470 170.054688v19.597656c0 10.292968-7.785156 18.910156-18.011719 19.933594l-141.988281 14.222656v-86.132813l141.742188 12.425781c10.332031.902344 18.257812 9.566407 18.257812 19.953126zm0 0" fill="#e1ebf0"/><path d="m469.828125 369.320312-443.039063-96.117187c-15.632812-3.390625-26.789062-17.246094-26.789062-33.269531v-84.316406c0-16.023438 11.15625-29.875 26.789062-33.269532l443.039063-96.117187c-43.195313 44.246093-69.828125 104.773437-69.828125 171.542969 0 66.773437 26.636719 127.300781 69.828125 171.546874zm0 0" fill="#ffdc85"/><path d="m428.46875 312.65625c11.054688 20.855469 25.019531 39.925781 41.359375 56.664062l-443.039063-96.117187c-15.632812-3.390625-26.789062-17.246094-26.789062-33.269531v-47.691406c0 16.023437 11.15625 29.875 26.789062 33.269531zm0 0" fill="#ffc97b"/></svg>