<svg height="512pt" viewBox="0 -6 512 512" width="512pt" xmlns="http://www.w3.org/2000/svg"><path d="m500.757812 250.378906c0 138.28125-112.097656 250.378906-250.378906 250.378906-104.246094 0-193.609375-63.707031-231.285156-154.308593-12.300781-29.582031-14.496094-62.035157-14.496094-96.070313 0-70.589844 24.617188-134.359375 71.613282-179.875 45.066406-43.644531 106.480468-70.503906 174.167968-70.503906 138.28125 0 250.378906 112.097656 250.378906 250.378906zm0 0" fill="#ffc97b"/><path d="m326.003906 90.953125v235.050781c0 11.289063-9.152344 20.4375-20.4375 20.4375h-286.460937c-12.300781-29.582031-19.105469-62.023437-19.105469-96.0625 0-70.589844 29.226562-134.347656 76.222656-179.863281h229.34375c11.285156 0 20.4375 9.148437 20.4375 20.4375zm0 0" fill="#b76458"/><path d="m29.636719 243.261719c0 36.558593 6.804687 71.40625 19.105469 103.179687h-29.636719c-12.300781-29.582031-19.105469-62.023437-19.105469-96.0625 0-70.589844 29.226562-134.347656 76.222656-179.863281h11.933594c-36.515625 46.726563-58.519531 106.96875-58.519531 172.746094zm0 0" fill="#934a4a"/><path d="m331.113281 223.808594h-132.855469c-14.109374 0-25.546874-11.4375-25.546874-25.550782 0-14.109374 11.4375-25.546874 25.546874-25.546874h132.855469c8.464844 0 15.328125 6.863281 15.328125 15.328124v20.441407c0 8.464843-6.863281 15.328125-15.328125 15.328125zm0 0" fill="#f99c78"/><path d="m213.589844 198.257812c0 8.46875-6.863282 15.332032-15.332032 15.332032-8.464843 0-15.328124-6.863282-15.328124-15.332032 0-8.464843 6.863281-15.328124 15.328124-15.328124 8.46875 0 15.332032 6.863281 15.332032 15.328124zm0 0" fill="#ffdc85"/><path d="m506.882812 148.433594h-29.542968v14.84375c0 112.265625-91.339844 203.605468-203.605469 203.605468h-144.960937c-19.96875-17.566406-37.109376-38.257812-50.667969-61.316406h195.628906c78.457031 0 142.285156-63.832031 142.285156-142.289062v-14.84375h-29.769531c-3.957031 0-6.410156-4.304688-4.398438-7.710938l60.316407-102.070312c1.976562-3.347656 6.820312-3.347656 8.796875 0l60.316406 102.070312c2.011719 3.40625-.441406 7.710938-4.398438 7.710938zm0 0" fill="#ff5284"/><path d="m450.964844 38.652344s-10.007813 155.90625-13.308594 168.804687c-17.980469 70.292969-91.78125 125.191407-167.597656 125.191407h-173.558594c-6.699219-8.597657-12.847656-17.644532-18.394531-27.082032h195.628906c78.457031 0 142.285156-63.832031 142.285156-142.289062v-14.84375h-29.769531c-3.957031 0-6.410156-4.304688-4.398438-7.710938l60.316407-102.070312c1.976562-3.347656 6.820312-3.347656 8.796875 0zm0 0" fill="#f43b5f"/><path d="m348.488281 273.882812v126.382813c0 5.644531-4.578125 10.21875-10.222656 10.21875h-288.191406c-5.644531 0-10.21875-4.574219-10.21875-10.21875v-126.382813c0-5.644531 4.574219-10.21875 10.21875-10.21875h288.191406c5.644531 0 10.222656 4.574219 10.222656 10.21875zm0 0" fill="#15b568"/><path d="m65.40625 347.292969h283.082031v20.441406h-283.082031c-2.824219 0-5.109375-2.289063-5.109375-5.109375v-10.222656c0-2.820313 2.285156-5.109375 5.109375-5.109375zm-5.109375 52.972656c0 5.644531 4.574219 10.21875 10.21875 10.21875h267.75c5.644531 0 10.222656-4.574219 10.222656-10.21875v-12.09375h-283.082031c-2.824219 0-5.109375 2.289063-5.109375 5.113281zm5.109375-73.410156h283.082031v-20.4375h-283.082031c-2.824219 0-5.109375 2.285156-5.109375 5.109375v10.21875c0 2.820312 2.285156 5.109375 5.109375 5.109375zm272.859375-63.191407h-267.75c-5.644531 0-10.21875 4.574219-10.21875 10.21875v6.984376c0 2.820312 2.285156 5.109374 5.109375 5.109374h283.082031v-12.09375c0-5.644531-4.578125-10.21875-10.222656-10.21875zm0 0" fill="#7cc971"/><path d="m234.027344 410.484375h-61.316406v-146.820313h61.316406zm0 0" fill="#4b9b5e"/><path d="m512 330.09375v116.160156c0 5.644532-4.574219 10.21875-10.21875 10.21875h-288.191406c-5.644532 0-10.21875-4.574218-10.21875-10.21875v-116.160156c0-5.644531 4.574218-10.222656 10.21875-10.222656h288.191406c5.644531 0 10.21875 4.578125 10.21875 10.222656zm0 0" fill="#6fc997"/><path d="m512 330.09375v116.160156c0 5.644532-4.574219 10.21875-10.21875 10.21875h-267.753906c-5.644532 0-10.21875-4.574218-10.21875-10.21875v-116.160156c0-5.644531 4.574218-10.222656 10.21875-10.222656h267.753906c5.644531 0 10.21875 4.578125 10.21875 10.222656zm0 0" fill="#b6e2ac"/><path d="m417.980469 381.191406v10.21875c0 28.21875-22.878907 51.097656-51.097657 51.097656-28.222656 0-51.097656-22.878906-51.097656-51.097656v-10.21875c0-28.222656 22.875-51.097656 51.097656-51.097656 28.21875 0 51.097657 22.875 51.097657 51.097656zm71.535156-44.117187h-51.097656c-5.644531 0-10.21875 4.574219-10.21875 10.21875 0 16.933593 13.726562 30.660156 30.660156 30.660156h30.65625c5.644531 0 10.222656-4.574219 10.222656-10.21875v-20.441406c0-5.644531-4.578125-10.21875-10.222656-10.21875zm0 61.316406h-30.65625c-16.933594 0-30.660156 13.726563-30.660156 30.660156 0 5.644531 4.574219 10.21875 10.21875 10.21875h51.097656c5.644531 0 10.222656-4.574219 10.222656-10.21875v-20.4375c0-5.644531-4.578125-10.222656-10.222656-10.222656zm-214.609375 0h-30.660156c-5.644532 0-10.21875 4.578125-10.21875 10.222656v20.4375c0 5.644531 4.574218 10.21875 10.21875 10.21875h51.097656c5.644531 0 10.222656-4.574219 10.222656-10.21875 0-16.933593-13.726562-30.660156-30.660156-30.660156zm20.4375-61.316406h-51.097656c-5.644532 0-10.21875 4.574219-10.21875 10.21875v20.441406c0 5.644531 4.574218 10.21875 10.21875 10.21875h30.660156c16.933594 0 30.660156-13.726563 30.660156-30.660156 0-5.644531-4.578125-10.21875-10.222656-10.21875zm0 0" fill="#6fc997"/><path d="m397.539062 383.746094v5.109375c0 2.820312-2.285156 5.109375-5.109374 5.109375h-51.097657c-2.820312 0-5.109375-2.289063-5.109375-5.109375v-5.109375c0-2.824219 2.289063-5.113282 5.109375-5.113282h51.097657c2.824218 0 5.109374 2.289063 5.109374 5.113282zm-45.984374-17.886719h30.65625c2.820312 0 5.109374-2.289063 5.109374-5.109375v-5.109375c0-2.820313-2.289062-5.109375-5.109374-5.109375h-30.65625c-2.824219 0-5.113282 2.289062-5.113282 5.109375v5.109375c0 2.820312 2.289063 5.109375 5.113282 5.109375zm30.65625 40.878906h-30.65625c-2.824219 0-5.113282 2.289063-5.113282 5.109375v5.109375c0 2.824219 2.289063 5.109375 5.113282 5.109375h30.65625c2.820312 0 5.109374-2.285156 5.109374-5.109375v-5.109375c0-2.820312-2.289062-5.109375-5.109374-5.109375zm0 0" fill="#fff7ee"/></svg>