<svg height="512pt" viewBox="-5 0 511 512" width="512pt" xmlns="http://www.w3.org/2000/svg"><path d="m54.050781 403.113281c-5.296875 1.058594-10.675781-1.257812-13.609375-5.796875-25.265625-39.097656-39.941406-85.679687-39.941406-135.695312 0-138.082032 111.777344-250.054688 249.78125-250.378906 137.53125-.320313 248.976562 109.1875 250.949219 246.707031.59375 41.28125-8.816407 80.308593-25.949219 114.820312-9.457031 19.050781-30.351562 29.539063-51.3125 25.917969-54.105469-9.34375-112.371094-14.433594-173.089844-14.433594-69.699218 0-136.171875 6.707032-196.828125 18.859375zm0 0" fill="#8fd5e5"/><path d="m465.488281 357.683594c0 14.125-1.378906 27.222656-3.980469 39.355468-44.558593 69.160157-122.242187 114.960938-210.628906 114.960938-88.386718 0-166.070312-45.800781-210.625-114.960938-2.605468-12.132812-3.984375-25.230468-3.984375-39.355468 0-118.523438 96.082031-263.664063 214.609375-263.664063s214.609375 145.140625 214.609375 263.664063zm-214.609375-269.972656c45.152344 0 81.757813-36.605469 81.757813-81.757813 0-.019531 0-.039063 0-.058594-.003907-3.269531-2.714844-5.894531-5.988281-5.894531h-151.539063c-3.269531 0-5.984375 2.625-5.988281 5.894531v.058594c0 45.152344 36.605468 81.757813 81.757812 81.757813zm0 0" fill="#4b9b5e"/><path d="m465.488281 357.683594c0 14.125-1.375 27.222656-3.980469 39.355468-11.023437 17.109376-24.074218 32.78125-38.8125 46.691407-30.996093 11.0625-67.425781 16.148437-106.410156 16.148437-112.882812 0-204.390625-42.550781-204.390625-149.789062 0-79.683594 50.53125-172.640625 122.804688-215.164063 5.339843-.59375 10.734375-.90625 16.179687-.90625 118.527344 0 214.609375 145.140625 214.609375 263.664063zm-132.882812-349.519532c.019531-.734374.03125-1.46875.03125-2.210937 0-.019531 0-.039063 0-.058594-.003907-3.269531-2.714844-5.894531-5.988281-5.894531h-96.351563c-3.273437 0-5.984375 2.625-5.988281 5.894531v.058594c0 .742187.011718 1.476563.03125 2.210937 1.839844 69.394532 106.425781 69.394532 108.265625 0zm0 0" fill="#15b568"/><path d="m226.863281 337.246094v116.160156c0 5.644531-4.574219 10.222656-10.21875 10.222656h-35.257812c-5.644531 0-10.21875-4.578125-10.21875-10.222656v-116.160156c0-5.644532 4.574219-10.21875 10.21875-10.21875h35.257812c5.644531 0 10.21875 4.574218 10.21875 10.21875zm0 0" fill="#b6e2ac"/><path d="m479.796875 337.246094v116.160156c0 5.644531-4.574219 10.222656-10.21875 10.222656h-267.753906c-5.644531 0-10.21875-4.578125-10.21875-10.222656v-116.160156c0-5.644532 4.574219-10.21875 10.21875-10.21875h267.753906c5.644531 0 10.21875 4.574218 10.21875 10.21875zm0 0" fill="#fff7ee"/><path d="m385.777344 388.34375v10.21875c0 28.21875-22.878906 51.097656-51.097656 51.097656s-51.097657-22.878906-51.097657-51.097656v-10.21875c0-28.222656 22.878907-51.097656 51.097657-51.097656s51.097656 22.875 51.097656 51.097656zm71.535156-44.113281h-51.097656c-5.640625 0-10.21875 4.574219-10.21875 10.21875 0 16.929687 13.726562 30.65625 30.660156 30.65625h30.65625c5.644531 0 10.222656-4.574219 10.222656-10.21875v-20.4375c0-5.644531-4.578125-10.21875-10.222656-10.21875zm0 61.316406h-30.65625c-16.933594 0-30.660156 13.726563-30.660156 30.65625 0 5.644531 4.578125 10.222656 10.21875 10.222656h51.097656c5.644531 0 10.222656-4.578125 10.222656-10.222656v-20.4375c0-5.644531-4.578125-10.21875-10.222656-10.21875zm-214.609375 0h-30.660156c-5.640625 0-10.21875 4.574219-10.21875 10.21875v20.4375c0 5.644531 4.578125 10.222656 10.21875 10.222656h51.101562c5.640625 0 10.21875-4.578125 10.21875-10.222656 0-16.929687-13.726562-30.65625-30.660156-30.65625zm20.441406-61.316406h-51.101562c-5.640625 0-10.21875 4.574219-10.21875 10.21875v20.4375c0 5.644531 4.578125 10.21875 10.21875 10.21875h30.660156c16.933594 0 30.660156-13.726563 30.660156-30.65625 0-5.644531-4.578125-10.21875-10.21875-10.21875zm0 0" fill="#b6e2ac"/><path d="m365.339844 390.898438v5.109374c0 2.820313-2.289063 5.109376-5.109375 5.109376h-51.101563c-2.820312 0-5.109375-2.289063-5.109375-5.109376v-5.109374c0-2.820313 2.289063-5.109376 5.109375-5.109376h51.101563c2.820312 0 5.109375 2.289063 5.109375 5.109376zm-45.988282-17.882813h30.65625c2.824219 0 5.109376-2.289063 5.109376-5.113281v-5.109375c0-2.820313-2.285157-5.109375-5.109376-5.109375h-30.65625c-2.824218 0-5.109374 2.289062-5.109374 5.109375v5.109375c0 2.824218 2.285156 5.113281 5.109374 5.113281zm30.65625 40.875h-30.65625c-2.824218 0-5.109374 2.289063-5.109374 5.113281v5.109375c0 2.820313 2.285156 5.109375 5.109374 5.109375h30.65625c2.824219 0 5.109376-2.289062 5.109376-5.109375v-5.109375c0-2.824218-2.285157-5.113281-5.109376-5.113281zm0 0" fill="#6fc997"/><path d="m301.976562 102.195312h-102.195312c-8.464844 0-15.328125-6.863281-15.328125-15.328124 0-8.46875 6.863281-15.332032 15.328125-15.332032h102.195312c8.464844 0 15.328126 6.863282 15.328126 15.332032 0 8.464843-6.863282 15.328124-15.328126 15.328124zm0 0" fill="#ed9c3b"/><path d="m301.976562 102.195312h-70.855468c-8.464844 0-15.328125-6.863281-15.328125-15.328124 0-8.46875 6.863281-15.332032 15.328125-15.332032h70.855468c8.464844 0 15.328126 6.863282 15.328126 15.332032 0 8.464843-6.863282 15.328124-15.328126 15.328124zm0 0" fill="#fcae51"/></svg>