<svg height="512pt" viewBox="0 -5 512 511" width="512pt" xmlns="http://www.w3.org/2000/svg"><path d="m11 256.5c0-135.308594 109.691406-245 245-245s245 109.691406 245 245c0 126.828125-96.371094 231.148438-219.882812 243.726562-8.257813-.839843-16.636719-1.273437-25.117188-1.273437s-16.859375.433594-25.117188 1.273437c-123.511718-12.578124-219.882812-116.898437-219.882812-243.726562zm0 0" fill="#ffdc85"/><path d="m282 380.5v119.625c-8.542969.902344-17.21875 1.375-26 1.375s-17.457031-.472656-26-1.375v-119.625c0-11.046875 8.953125-20 20-20h12c11.046875 0 20 8.953125 20 20zm0 0" fill="#9bb9c3"/><path d="m481 240.5v90c0 24.8125-20.1875 45-45 45h-140v55c0 11.046875-8.953125 20-20 20h-40c-11.046875 0-20-8.953125-20-20v-55h-140c-24.8125 0-45-20.1875-45-45v-90c0-8.285156 6.714844-15 15-15s15 6.714844 15 15v90c0 8.269531 6.730469 15 15 15h146.800781c3.523438-3.101562 8.136719-5 13.199219-5h40c5.0625 0 9.675781 1.898438 13.199219 5h146.800781c8.269531 0 15-6.730469 15-15v-90c0-8.285156 6.714844-15 15-15s15 6.714844 15 15zm0 0" fill="#87a0af"/><path d="m432 360.5c0 16.570312-13.429688 30-30 30h-292c-16.570312 0-30-13.429688-30-30 0-16.566406 13.429688-30 30-30v-290c0-22.089844 17.910156-40 40-40h212c22.089844 0 40 17.910156 40 40v290c16.570312 0 30 13.429688 30 30zm0 0" fill="#db655d"/><path d="m150 134.5v-114c0-11.046875 8.953125-20 20-20h192c22.089844 0 40 17.910156 40 40v94c0 69.589844-56.410156 126-126 126s-126-56.410156-126-126zm252 196h-242c-16.570312 0-30 13.429688-30 30s13.429688 30 30 30h242c16.570312 0 30-13.429688 30-30s-13.429688-30-30-30zm0 0" fill="#f2806d"/><path d="m512 230.5v20c0 11.046875-8.953125 20-20 20h-92c-11.046875 0-20-8.953125-20-20v-20c0-11.046875 8.953125-20 20-20h92c11.046875 0 20 8.953125 20 20zm-400-20h-92c-11.046875 0-20 8.953125-20 20v20c0 11.046875 8.953125 20 20 20h92c11.046875 0 20-8.953125 20-20v-20c0-11.046875-8.953125-20-20-20zm0 0" fill="#934a4a"/><path d="m512 230.5v20c0 11.046875-8.953125 20-20 20h-62c-11.046875 0-20-8.953125-20-20v-20c0-11.046875 8.953125-20 20-20h62c11.046875 0 20 8.953125 20 20zm-400-20h-62c-11.046875 0-20 8.953125-20 20v20c0 11.046875 8.953125 20 20 20h62c11.046875 0 20-8.953125 20-20v-20c0-11.046875-8.953125-20-20-20zm0 0" fill="#b76458"/></svg>