<svg height="512pt" viewBox="0 -11 512.00032 512" width="512pt" xmlns="http://www.w3.org/2000/svg"><path d="m501 245c0 135.308594-109.691406 245-245 245s-245-109.691406-245-245 109.691406-245 245-245 245 109.691406 245 245zm0 0" fill="#b3e8f4"/><path d="m402 254c0 8.285156-6.714844 15-15 15h-46v85c0 8.285156-6.714844 15-15 15h-44v35c0 6.898438-4.660156 12.691406-11 14.445312v71.085938c-4.964844.300781-9.960938.46875-15 .46875s-10.035156-.167969-15-.46875v-71.085938c-6.339844-1.753906-11-7.546874-11-14.445312v-35h-44c-8.285156 0-15-6.714844-15-15v-85h-46c-8.285156 0-15-6.714844-15-15s6.714844-15 15-15h46v-150c0-16.566406 13.429688-30 30-30h110c16.570312 0 30 13.433594 30 30v150h46c8.285156 0 15 6.714844 15 15zm0 0" fill="#8fd5e5"/><path d="m153.320312 395.765625 51.277344 88.816406c-14.597656-3.117187-28.710937-7.53125-42.214844-13.121093l-26.382812-45.695313-14.042969 24.324219c-8.445312-5.53125-16.527343-11.570313-24.207031-18.070313l20.929688-36.253906-48.167969-83.433594 25.980469-15 39.507812 68.433594 39.511719-68.433594 25.980469 15zm288.167969-83.433594-25.980469-15-39.507812 68.433594-39.511719-68.433594-25.980469 15 48.171876 83.433594-51.277344 88.816406c14.59375-3.117187 28.707031-7.53125 42.214844-13.121093l26.382812-45.695313 14.042969 24.324219c8.445312-5.53125 16.527343-11.570313 24.207031-18.070313l-20.929688-36.253906zm0 0" fill="#b76458"/><path d="m65 159h30c8.285156 0 15 6.714844 15 15v110c0 8.285156-6.714844 15-15 15h-30c-8.285156 0-15-6.714844-15-15v-110c0-8.285156 6.714844-15 15-15zm0 0" fill="#0573cd"/><path d="m260 279c0 11.046875-8.953125 20-20 20h-145c-8.285156 0-15-6.714844-15-15v-110c0-8.285156 6.714844-15 15-15h100c8.285156 0 15 6.714844 15 15v85h30c11.046875 0 20 8.953125 20 20zm0 0" fill="#4691db"/><path d="m140 214c0 8.285156-6.714844 15-15 15s-15-6.714844-15-15 6.714844-15 15-15 15 6.714844 15 15zm0 0" fill="#81ade2"/><path d="m80.875 253.6875c-6.476562 11.21875-15.082031 19.691406-23.515625 24.070312-1.269531.660157-2.828125-.238281-2.890625-1.667968-.1875-4.230469.3125-8.894532 1.496094-13.753906-3.71875-7.636719-5.964844-17.523438-5.964844-28.335938 0-12.929688 3.207031-24.550781 8.304688-32.558594.789062-1.246094 2.597656-1.246094 3.390624 0 5.097657 8.007813 8.304688 19.628906 8.304688 32.558594 0 .085938-.003906.167969-.003906.253906 5.257812-6.554687 11.207031-11.585937 17.074218-14.632812 1.273438-.660156 2.828126.238281 2.890626 1.667968.421874 9.492188-2.609376 21.183594-9.085938 32.398438zm0 0" fill="#15b568"/><path d="m30.039062 221.289062c.0625-1.429687 1.621094-2.328124 2.890626-1.667968 8.433593 4.378906 17.039062 12.851562 23.515624 24.066406 6.476563 11.21875 9.507813 22.90625 9.085938 32.402344-.0625 1.429687-1.617188 2.328125-2.890625 1.667968-8.429687-4.378906-17.039063-12.851562-23.515625-24.070312s-9.507812-22.90625-9.085938-32.398438zm0 0" fill="#4b9b5e"/><path d="m409.964844 89.195312 28.1875 57.117188 63.03125 9.160156c10.347656 1.503906 14.480468 14.21875 6.992187 21.515625l-45.609375 44.457031 10.769532 62.777344c1.765624 10.304688-9.050782 18.164063-18.304688 13.300782l-56.378906-29.640626-56.375 29.640626c-9.253906 4.863281-20.070313-2.996094-18.304688-13.300782l10.765625-62.777344-45.609375-44.457031c-7.488281-7.296875-3.355468-20.015625 6.992188-21.515625l63.03125-9.160156 28.1875-57.117188c4.628906-9.375 18-9.375 22.625 0zm0 0" fill="#ffdc85"/><path d="m508.175781 176.988281-45.609375 44.457031 1.242188 7.230469c-2.808594.214844-5.644532.324219-8.503906.324219-50.792969 0-93.539063-34.433594-106.191407-81.230469l10.039063-1.457031 28.1875-57.117188c4.628906-9.375 18-9.375 22.625 0l28.1875 57.117188 63.03125 9.160156c10.347656 1.503906 14.480468 14.21875 6.992187 21.515625zm0 0" fill="#fff1b8"/><path d="m410 254.375v10c0 2.761719-2.238281 5-5 5h-100c-2.761719 0-5-2.238281-5-5v-10c0-2.761719 2.238281-5 5-5h100c2.761719 0 5 2.238281 5 5zm-325-5.375h-50c-2.761719 0-5 2.238281-5 5v50c0 2.761719 2.238281 5 5 5h50c2.761719 0 5-2.238281 5-5v-50c0-2.761719-2.238281-5-5-5zm0 0" fill="#f43b5f"/><path d="m400 274v20c0 2.761719-2.238281 5-5 5h-100c-2.761719 0-5-2.238281-5-5v-20c0-2.761719 2.238281-5 5-5h100c2.761719 0 5 2.238281 5 5zm0 0" fill="#fcae51"/><path d="m502 337.332031h-492c-5.523438 0-10-4.476562-10-10v-30c0-5.523437 4.476562-10 10-10h492c5.523438 0 10 4.476563 10 10v30c0 5.523438-4.476562 10-10 10zm0 0" fill="#db655d"/><path d="m502 337.332031h-462c-5.523438 0-10-4.476562-10-10v-30c0-5.523437 4.476562-10 10-10h462c5.523438 0 10 4.476563 10 10v30c0 5.523438-4.476562 10-10 10zm0 0" fill="#f2806d"/></svg>