<svg height="512pt" viewBox="0 0 512 512" width="512pt" xmlns="http://www.w3.org/2000/svg"><path d="m512 261.621094c0 138.28125-112.097656 250.378906-250.378906 250.378906s-250.378906-112.097656-250.378906-250.378906 112.097656-250.378906 250.378906-250.378906 250.378906 112.097656 250.378906 250.378906zm0 0" fill="#b3e8f4"/><path d="m357.683594 398.5625v45.988281c0 2.820313-2.289063 5.109375-5.109375 5.109375h-10.21875c-2.820313 0-5.109375-2.289062-5.109375-5.109375v-45.988281c0-2.820312 2.289062-5.109375 5.109375-5.109375h10.21875c2.820312 0 5.109375 2.289063 5.109375 5.109375zm-35.765625 15.328125h-10.222657c-2.820312 0-5.109374 2.289063-5.109374 5.113281v25.546875c0 2.820313 2.289062 5.109375 5.109374 5.109375h10.222657c2.820312 0 5.109375-2.289062 5.109375-5.109375v-25.546875c0-2.824218-2.289063-5.113281-5.109375-5.113281zm61.316406-30.65625h-10.21875c-2.824219 0-5.113281 2.289063-5.113281 5.109375v56.207031c0 2.820313 2.289062 5.109375 5.113281 5.109375h10.21875c2.820313 0 5.109375-2.289062 5.109375-5.109375v-56.207031c0-2.820312-2.289062-5.109375-5.109375-5.109375zm0 0" fill="#56bcd6"/><path d="m394.5 68.015625v85.269531h-30.964844v-85.269531c0-10.214844-6.722656-19.335937-16.351562-22.183594-15.980469-4.726562-32.621094-7.125-49.453125-7.125s-33.46875 2.398438-49.453125 7.125c-9.628906 2.847657-16.351563 11.96875-16.351563 22.183594v85.269531h-30.964843v-85.269531c0-23.835937 15.84375-45.167969 38.535156-51.878906 18.832031-5.570313 38.429687-8.394531 58.234375-8.394531 19.804687 0 39.402343 2.824218 58.234375 8.394531 22.691406 6.710937 38.535156 28.042969 38.535156 51.878906zm0 0" fill="#db655d"/><path d="m374.429688 27.472656-23.375 23.375c-1.988282 1.984375-4.894532 2.738282-7.597657 1.96875-14.816406-4.226562-30.199219-6.367187-45.726562-6.367187-15.527344 0-30.910157 2.144531-45.726563 6.367187-.699218.199219-1.414062.296875-2.121094.296875-2.027343 0-4.003906-.796875-5.476562-2.265625l-23.371094-23.375c-1.667968-1.667968-2.484375-4.007812-2.21875-6.351562s1.589844-4.441406 3.589844-5.691406c4.671875-2.914063 9.679688-5.175782 14.894531-6.71875 19.550781-5.78125 39.882813-8.710938 60.429688-8.710938 20.550781 0 40.882812 2.929688 60.433593 8.710938 5.210938 1.542968 10.21875 3.804687 14.890626 6.71875 2.003906 1.25 3.324218 3.347656 3.589843 5.691406.269531 2.34375-.546875 4.683594-2.214843 6.351562zm0 0" fill="#ffc97b"/><path d="m363.785156 38.113281-12.730468 12.734375c-1.988282 1.984375-4.894532 2.738282-7.597657 1.96875-14.816406-4.226562-30.199219-6.367187-45.726562-6.367187-15.527344 0-30.910157 2.140625-45.726563 6.367187-.699218.199219-1.414062.296875-2.121094.296875-2.027343 0-4.003906-.796875-5.476562-2.265625l-12.730469-12.734375c8.355469-2.585937 16.839844-4.667969 25.410157-6.257812l-2.777344-10.359375c-.726563-2.71875.886718-5.515625 3.605468-6.242188l5.105469-1.371094c2.722657-.726562 5.515625.886719 6.246094 3.605469l3.230469 12.0625c5.804687-.660156 11.640625-1.089843 17.492187-1.289062v-12.089844c0-2.816406 2.28125-5.097656 5.097657-5.097656h5.289062c2.8125 0 5.097656 2.28125 5.097656 5.097656v12.089844c5.851563.203125 11.6875.628906 17.492188 1.289062l3.230468-12.0625c.726563-2.71875 3.523438-4.332031 6.242188-3.601562l5.109375 1.367187c2.71875.726563 4.332031 3.523438 3.601563 6.242188l-2.773438 10.363281c8.570312 1.585937 17.054688 3.667969 25.410156 6.253906zm0 0" fill="#f9b65d"/><path d="m448.316406 357.660156h-301.171875c-8.550781 0-15.484375-6.929687-15.484375-15.484375v-224.253906c0-8.550781 6.933594-15.484375 15.484375-15.484375h301.171875c8.550782 0 15.484375 6.933594 15.484375 15.484375v224.253906c0 8.554688-6.933593 15.484375-15.484375 15.484375zm0 0" fill="#f9b65d"/><path d="m448.316406 357.660156h-271.453125c-8.550781 0-15.484375-6.929687-15.484375-15.484375v-224.253906c0-8.550781 6.929688-15.484375 15.484375-15.484375h271.453125c8.550782 0 15.484375 6.933594 15.484375 15.484375v224.253906c0 8.554688-6.933593 15.484375-15.484375 15.484375zm0 0" fill="#fcae51"/><path d="m434.332031 178.953125h-245.269531c-2.820312 0-5.109375-2.289063-5.109375-5.109375v-10.222656c0-2.820313 2.289063-5.109375 5.109375-5.109375h245.269531c2.820313 0 5.109375 2.289062 5.109375 5.109375v10.222656c0 2.820312-2.289062 5.109375-5.109375 5.109375zm5.109375 56.207031v-10.21875c0-2.824218-2.289062-5.113281-5.109375-5.113281h-245.269531c-2.820312 0-5.109375 2.289063-5.109375 5.113281v10.21875c0 2.820313 2.289063 5.109375 5.109375 5.109375h245.269531c2.820313 0 5.109375-2.289062 5.109375-5.109375zm0 61.316406v-10.21875c0-2.824218-2.289062-5.109374-5.109375-5.109374h-245.269531c-2.820312 0-5.109375 2.285156-5.109375 5.109374v10.21875c0 2.820313 2.289063 5.109376 5.109375 5.109376h245.269531c2.820313 0 5.109375-2.285157 5.109375-5.109376zm0 0" fill="#ed9c3b"/><path d="m316.804688 276.039062v30.65625c0 2.824219-2.285157 5.109376-5.109376 5.109376h-10.21875c-2.820312 0-5.109374-2.285157-5.109374-5.109376v-30.65625c0-2.824218 2.289062-5.113281 5.109374-5.113281h10.21875c2.824219 0 5.109376 2.289063 5.109376 5.113281zm-76.644532-127.746093h-10.21875c-2.824218 0-5.109375 2.289062-5.109375 5.109375v30.660156c0 2.820312 2.285157 5.109375 5.109375 5.109375h10.21875c2.820313 0 5.109375-2.289063 5.109375-5.109375v-30.660156c0-2.820313-2.289062-5.109375-5.109375-5.109375zm132.855469 61.316406h-10.222656c-2.820313 0-5.109375 2.289063-5.109375 5.109375v30.660156c0 2.820313 2.289062 5.109375 5.109375 5.109375h10.222656c2.820313 0 5.109375-2.289062 5.109375-5.109375v-30.660156c0-2.820312-2.289062-5.109375-5.109375-5.109375zm0 0" fill="#fff1b8"/><path d="m209.015625 264.324219-14.269531 10.820312c-7.222656-4.027343-14.820313-7.136719-22.617188-9.351562l-2.441406-17.757813c-1.828125-13.296875-13.191406-23.203125-26.613281-23.203125s-24.785157 9.90625-26.613281 23.203125l-2.441407 17.761719c-7.796875 2.210937-15.394531 5.320313-22.617187 9.351563l-14.269532-10.824219c-10.699218-8.109375-25.738281-7.078125-35.226562 2.414062-9.492188 9.488281-10.519531 24.53125-2.410156 35.222657l10.820312 14.273437c-4.027344 7.222656-7.140625 14.816406-9.351562 22.617187l-17.761719 2.441407c-13.296875 1.828125-23.203125 13.1875-23.203125 26.609375 0 13.425781 9.90625 24.785156 23.203125 26.613281l17.761719 2.445313c2.210937 7.796874 5.324218 15.390624 9.351562 22.613281l-10.820312 14.273437c-8.109375 10.695313-7.082032 25.734375 2.410156 35.226563 9.488281 9.488281 24.53125 10.519531 35.226562 2.410156l14.269532-10.824219c7.222656 4.03125 14.820312 7.140625 22.617187 9.355469l2.441407 17.757813c1.828124 13.296874 13.191406 23.203124 26.613281 23.203124s24.785156-9.90625 26.613281-23.203124l2.441406-17.757813c7.796875-2.210937 15.394532-5.324219 22.617188-9.355469l14.269531 10.824219c10.695313 8.109375 25.734375 7.078125 35.226563-2.410156 9.492187-9.492188 10.519531-24.53125 2.410156-35.226563l-10.820313-14.273437c4.027344-7.222657 7.140625-14.816407 9.351563-22.613281l17.757812-2.445313c13.300782-1.828125 23.207032-13.1875 23.207032-26.613281 0-13.421875-9.90625-24.78125-23.207032-26.609375l-17.757812-2.445313c-2.210938-7.796875-5.324219-15.390625-9.351563-22.613281l10.820313-14.273437c8.109375-10.695313 7.082031-25.734376-2.410156-35.226563-9.492188-9.488281-24.53125-10.519531-35.226563-2.410156zm-36.570313 132.949219c-16.222656 16.222656-42.523437 16.222656-58.742187 0-16.222656-16.21875-16.222656-42.519532 0-58.742188 16.21875-16.21875 42.519531-16.21875 58.742187 0 16.222657 16.222656 16.222657 42.523438 0 58.742188zm0 0" fill="#4691db"/><path d="m178.804688 467.871094c-2.207032.785156-4.433594 1.507812-6.675782 2.144531l-2.441406 17.757813c-1.828125 13.296874-13.191406 23.203124-26.613281 23.203124s-24.785157-9.90625-26.613281-23.203124l-2.441407-17.757813c-7.796875-2.210937-15.394531-5.324219-22.617187-9.355469l-14.269532 10.824219c-10.695312 8.109375-25.738281 7.078125-35.226562-2.410156-9.492188-9.492188-10.519531-24.53125-2.410156-35.226563l10.820312-14.273437c-4.027344-7.222657-7.140625-14.816407-9.351562-22.613281l-17.761719-2.445313c-13.296875-1.828125-23.203125-13.1875-23.203125-26.613281 0-13.421875 9.90625-24.78125 23.203125-26.609375l17.761719-2.445313c.636718-2.242187 1.355468-4.464844 2.140625-6.671875 3.757812 33.457031 18.457031 65.921875 44.117187 91.582031 25.65625 25.65625 58.121094 40.355469 91.582032 44.113282zm0 0" fill="#0573cd"/><path d="m143.074219 305.925781c-34.230469 0-61.976563 27.75-61.976563 61.976563 0 34.230468 27.746094 61.976562 61.976563 61.976562 34.226562 0 61.976562-27.746094 61.976562-61.976562 0-34.226563-27.75-61.976563-61.976562-61.976563zm0 103.515625c-22.941407 0-41.539063-18.597656-41.539063-41.539062 0-22.9375 18.597656-41.535156 41.539063-41.535156 22.941406 0 41.535156 18.597656 41.535156 41.535156 0 22.941406-18.59375 41.539062-41.535156 41.539062zm0 0" fill="#015aad"/></svg>