<svg height="512pt" viewBox="-5 0 511 512" width="512pt" xmlns="http://www.w3.org/2000/svg"><path d="m.5 261.621094c0-138.121094 111.839844-250.121094 249.898438-250.378906 137.511718-.257813 250.148437 111.550781 250.855468 249.058593.460938 89.378907-45.914062 167.960938-116.003906 212.625-5.980469 3.8125-13.21875 5.074219-20.160156 3.628907-36.042969-7.511719-74.410156-11.566407-114.210938-11.566407-39.804687 0-78.171875 4.054688-114.21875 11.566407-6.90625 1.441406-14.121094.210937-20.074218-3.578126-69.789063-44.4375-116.085938-122.488281-116.085938-211.355468zm0 0" fill="#ffdc85"/><path d="m200.46875 319.066406c-13.1875 21.542969-38.9375 33.515625-65.050781 27.964844s-44.765625-26.960938-48.050781-52.003906c13.183593-21.542969 38.9375-33.515625 65.050781-27.964844 26.109375 5.546875 44.765625 26.960938 48.050781 52.003906zm148.871094-52.003906c-26.109375 5.546875-44.765625 26.960938-48.050782 52.003906 13.183594 21.542969 38.9375 33.515625 65.050782 27.964844 26.113281-5.550781 44.765625-26.960938 48.050781-52.003906-13.183594-21.542969-38.9375-33.515625-65.050781-27.964844zm0 0" fill="#15b568"/><path d="m363.292969 306.585938c0 5.644531-4.574219 10.21875-10.21875 10.21875-50.714844 0-91.976563 55.015624-91.976563 122.636718 0 5.644532-4.574218 10.21875-10.21875 10.21875-5.644531 0-10.21875-4.574218-10.21875-10.21875 0-67.621094-41.261718-122.636718-91.976562-122.636718-5.644532 0-10.21875-4.574219-10.21875-10.21875 0-5.644532 4.574218-10.21875 10.21875-10.21875 30.566406 0 59.109375 15.226562 80.382812 42.878906 4.269532 5.550781 8.136719 11.480468 11.59375 17.71875v-101.476563c0-5.644531 4.574219-10.21875 10.21875-10.21875 5.644532 0 10.21875 4.574219 10.21875 10.21875v101.476563c3.460938-6.238282 7.328125-12.167969 11.597656-17.71875 21.269532-27.652344 49.816407-42.878906 80.378907-42.878906 5.644531 0 10.21875 4.574218 10.21875 10.21875zm0 0" fill="#4b9b5e"/><path d="m332.480469 408.78125h72.714843l-19.398437 63.792969c-38.9375 24.957031-85.238281 39.425781-134.917969 39.425781-49.679687 0-95.980468-14.46875-134.917968-39.425781l-19.398438-63.792969zm0 0" fill="#b76458"/><path d="m169.859375 498.59375c-19.109375-6.53125-37.183594-15.304688-53.898437-26.019531l-19.398438-63.792969h45.988281zm0 0" fill="#934a4a"/><path d="m409.28125 419.003906h-316.804688c-5.644531 0-10.21875-4.578125-10.21875-10.222656v-30.65625c0-5.644531 4.574219-10.222656 10.21875-10.222656h316.804688c5.644531 0 10.222656 4.578125 10.222656 10.222656v30.65625c0 5.644531-4.578125 10.222656-10.222656 10.222656zm0 0" fill="#db655d"/><path d="m409.28125 419.003906h-276.949219c-5.644531 0-10.21875-4.578125-10.21875-10.222656v-30.65625c0-5.644531 4.574219-10.222656 10.21875-10.222656h276.949219c5.644531 0 10.222656 4.578125 10.222656 10.222656v30.65625c0 5.644531-4.578125 10.222656-10.222656 10.222656zm0 0" fill="#f2806d"/><path d="m370.75 116.460938-17.746094-2.441407c-2.257812-7.953125-5.429687-15.527343-9.378906-22.601562l10.832031-14.285157c8.109375-10.699218 7.082031-25.738281-2.410156-35.226562-9.488281-9.492188-24.53125-10.519531-35.226563-2.410156l-14.285156 10.832031c-7.074218-3.953125-14.644531-7.121094-22.601562-9.382813l-2.441406-17.742187c-1.828126-13.296875-13.191407-23.203125-26.613282-23.203125s-24.785156 9.90625-26.613281 23.203125l-2.441406 17.746094c-7.953125 2.257812-15.527344 5.429687-22.601563 9.378906l-14.285156-10.832031c-10.695312-8.109375-25.734375-7.082032-35.226562 2.410156-9.492188 9.492188-10.519532 24.53125-2.410157 35.226562l10.832031 14.285157c-3.949218 7.074219-7.121093 14.648437-9.378906 22.605469l-17.742187 2.4375c-13.300781 1.828124-23.207031 13.191406-23.207031 26.613281s9.90625 24.785156 23.207031 26.613281l17.742187 2.441406c2.257813 7.953125 5.429688 15.527344 9.378906 22.601563l-10.832031 14.285156c-8.109375 10.695313-7.078125 25.734375 2.410157 35.226563 9.492187 9.492187 24.53125 10.519531 35.226562 2.410156l14.285156-10.832032c7.074219 3.949219 14.648438 7.121094 22.601563 9.378907l2.441406 17.746093c1.828125 13.296876 13.191406 23.203126 26.613281 23.203126s24.785156-9.90625 26.613282-23.207032l2.441406-17.742187c7.953125-2.257813 15.527344-5.429688 22.601562-9.378907l14.285156 10.832032c10.699219 8.109375 25.738282 7.078125 35.226563-2.410156 9.492187-9.492188 10.519531-24.53125 2.410156-35.226563l-10.832031-14.285156c3.949219-7.078125 7.121094-14.648438 9.378906-22.605469l17.746094-2.4375c13.296875-1.828125 23.203125-13.191406 23.203125-26.613281s-9.90625-24.785157-23.203125-26.613281zm-119.871094 68.148437c-22.941406 0-41.535156-18.59375-41.535156-41.535156 0-22.941407 18.59375-41.539063 41.535156-41.539063s41.539063 18.597656 41.539063 41.539063c0 22.941406-18.597657 41.535156-41.539063 41.535156zm0 0" fill="#4691db"/><path d="m205.457031 239.027344c-2.117187-1.003906-4.199219-2.070313-6.234375-3.207032l-14.285156 10.832032c-10.695312 8.109375-25.734375 7.082031-35.226562-2.410156-9.488282-9.492188-10.519532-24.53125-2.410157-35.226563l10.832031-14.285156c-3.949218-7.074219-7.117187-14.648438-9.378906-22.601563l-17.742187-2.441406c-13.300781-1.828125-23.207031-13.191406-23.207031-26.613281s9.90625-24.785157 23.207031-26.613281l17.742187-2.4375c2.257813-7.957032 5.429688-15.53125 9.378906-22.605469l-10.832031-14.285157c-8.109375-10.695312-7.078125-25.734374 2.410157-35.226562 9.492187-9.492188 24.53125-10.519531 35.226562-2.410156l14.285156 10.832031c2.035156-1.136719 4.117188-2.199219 6.234375-3.207031-21.003906 26.316406-33.566406 59.664062-33.566406 95.953125 0 36.289062 12.5625 69.636719 33.566406 95.953125zm0 0" fill="#0573cd"/><path d="m250.878906 81.097656c-34.226562 0-61.976562 27.746094-61.976562 61.976563 0 34.226562 27.75 61.976562 61.976562 61.976562 34.230469 0 61.976563-27.75 61.976563-61.976562 0-34.230469-27.746094-61.976563-61.976563-61.976563zm0 103.511719c-22.941406 0-41.535156-18.59375-41.535156-41.535156 0-22.941407 18.59375-41.539063 41.535156-41.539063s41.539063 18.597656 41.539063 41.539063c0 22.941406-18.597657 41.535156-41.539063 41.535156zm0 0" fill="#015aad"/></svg>