<svg height="512pt" viewBox="-6 0 512 512" width="512pt" xmlns="http://www.w3.org/2000/svg"><path d="m500.757812 261.621094c0 138.28125-112.097656 250.378906-250.378906 250.378906s-250.378906-112.097656-250.378906-250.378906 112.097656-250.378906 250.378906-250.378906 250.378906 112.097656 250.378906 250.378906zm0 0" fill="#ffc97b"/><path d="m306.285156 235.050781h-27.652344v-179.746093h27.652344zm0 0" fill="#b76458"/><path d="m445.921875 11.0625-33.183594 44.242188 33.183594 44.246093c3.417969 4.558594.167969 11.0625-5.53125 11.0625h-161.757813v-103.699219c0-3.820312 3.097657-6.914062 6.914063-6.914062h154.84375c5.695313 0 8.949219 6.503906 5.53125 11.0625zm0 0" fill="#ff5284"/><path d="m306.285156 110.613281h-27.652344v-105.503906c0-2.820313 2.289063-5.109375 5.109376-5.109375h22.542968zm0 0" fill="#f43b5f"/><path d="m213.589844 15.328125v25.550781h-51.097656v-25.550781c0-8.464844 6.863281-15.328125 15.328124-15.328125h20.4375c8.46875 0 15.332032 6.863281 15.332032 15.328125zm0 0" fill="#0da9cb"/><path d="m223.808594 71.535156v256.167969h-71.539063v-281.917969h.011719c.109375-8.371094 6.921875-15.125 15.320312-15.125h40.878907c8.394531 0 15.207031 6.753906 15.316406 15.125h.011719zm0 0" fill="#8fd5e5"/><path d="m182.929688 266.386719v-220.398438c0-8.464843 6.863281-15.328125 15.328124-15.328125h10.222657c8.464843 0 15.328125 6.863282 15.328125 15.328125v220.398438c0 11.289062-9.152344 20.441406-20.4375 20.441406-11.289063 0-20.441406-9.152344-20.441406-20.441406zm0 0" fill="#b3e8f4"/><path d="m374.429688 409.078125-112.417969 77.828125c-6.996094 4.84375-16.269531 4.84375-23.265625 0l-112.414063-77.828125c-5.515625-3.816406-8.808593-10.097656-8.808593-16.804687v-214.121094c0-11.289063 9.152343-20.4375 20.441406-20.4375h224.828125c11.289062 0 20.441406 9.148437 20.441406 20.4375v214.121094c0 6.707031-3.292969 12.988281-8.804687 16.804687zm0 0" fill="#fff1b8"/><path d="m161.957031 390.722656 119.492188 82.726563-19.4375 13.453125c-6.996094 4.847656-16.269531 4.847656-23.265625 0l-112.417969-77.824219c-5.511719-3.820313-8.804687-10.097656-8.804687-16.804687v-214.121094c0-11.289063 9.152343-20.4375 20.441406-20.4375h14.304687v40.875h6.132813c5.644531 0 10.21875 4.578125 10.21875 10.222656s-4.574219 10.21875-10.21875 10.21875h-6.132813v153.210938c0 7.375 3.621094 14.28125 9.6875 18.480468zm37.324219-171.691406h30.660156c5.644532 0 10.21875-4.574219 10.21875-10.21875s-4.574218-10.222656-10.21875-10.222656h-30.660156c-5.644531 0-10.21875 4.578125-10.21875 10.222656s4.574219 10.21875 10.21875 10.21875zm143.074219-20.441406c-5.644531 0-10.21875 4.578125-10.21875 10.222656s4.574219 10.21875 10.21875 10.21875h40.878906v-20.441406zm-40.878907 0h-30.65625c-5.644531 0-10.222656 4.578125-10.222656 10.222656s4.578125 10.21875 10.222656 10.21875h30.65625c5.644532 0 10.21875-4.574219 10.21875-10.21875s-4.574218-10.222656-10.21875-10.222656zm0 0" fill="#ffdc85"/><path d="m203.371094 194.171875v-148.183594c0-8.464843 6.863281-15.328125 15.328125-15.328125h10.21875c8.464843 0 15.328125 6.863282 15.328125 15.328125v148.183594c0 11.289063-9.148438 20.4375-20.4375 20.4375-11.289063 0-20.4375-9.148437-20.4375-20.4375zm0 0" fill="#56bcd6"/></svg>