<svg height="512pt" viewBox="-6 0 512 512" width="512pt" xmlns="http://www.w3.org/2000/svg"><path d="m500.757812 261.621094c0 138.28125-112.097656 250.378906-250.378906 250.378906s-250.378906-112.097656-250.378906-250.378906 112.097656-250.378906 250.378906-250.378906 250.378906 112.097656 250.378906 250.378906zm0 0" fill="#8fd5e5"/><path d="m189.71875 153.28125v-85.265625c0-23.835937 15.84375-45.167969 38.535156-51.878906 18.835938-5.570313 38.429688-8.394531 58.234375-8.394531 19.808594 0 39.402344 2.824218 58.238281 8.394531 22.6875 6.710937 38.53125 28.042969 38.53125 51.878906v85.265625h-30.964843v-85.265625c0-10.214844-6.726563-19.335937-16.351563-22.183594-15.980468-4.726562-32.621094-7.125-49.453125-7.125s-33.472656 2.398438-49.453125 7.125c-9.628906 2.847657-16.351562 11.96875-16.351562 22.183594v85.265625zm0 0" fill="#015aad"/><path d="m363.1875 27.472656-23.375 23.375c-1.988281 1.984375-4.894531 2.738282-7.597656 1.96875-14.816406-4.226562-30.199219-6.367187-45.726563-6.367187-15.527343 0-30.910156 2.144531-45.726562 6.367187-.699219.199219-1.414063.296875-2.121094.296875-2.023437 0-4.003906-.796875-5.472656-2.265625l-23.375-23.375c-1.667969-1.667968-2.484375-4.007812-2.21875-6.351562s1.589843-4.441406 3.589843-5.691406c4.671876-2.914063 9.683594-5.175782 14.894532-6.71875 19.550781-5.78125 39.882812-8.710938 60.429687-8.710938 20.550781 0 40.882813 2.929688 60.433594 8.710938 5.210937 1.542968 10.222656 3.804687 14.890625 6.71875 2.003906 1.25 3.324219 3.347656 3.59375 5.691406.265625 2.34375-.550781 4.683594-2.21875 6.351562zm0 0" fill="#4691db"/><path d="m220.433594 38.113281c8.359375-2.585937 16.839844-4.667969 25.410156-6.257812l-2.777344-10.359375c-.726562-2.71875.886719-5.515625 3.605469-6.242188l5.109375-1.371094c2.71875-.726562 5.511719.886719 6.242188 3.605469l3.230468 12.0625c5.804688-.660156 11.640625-1.089843 17.492188-1.289062v-12.089844c0-2.816406 2.28125-5.101563 5.097656-5.101563h5.289062c2.816407 0 5.097657 2.285157 5.097657 5.101563v12.089844c5.851562.199219 11.6875.628906 17.492187 1.289062l3.230469-12.0625c.730469-2.71875 3.523437-4.332031 6.242187-3.605469l5.109376 1.371094c2.71875.726563 4.332031 3.523438 3.601562 6.242188l-2.773438 10.359375c8.570313 1.585937 17.050782 3.667969 25.410157 6.257812l-12.734375 12.730469c-1.988282 1.988281-4.894532 2.742188-7.597656 1.972656-14.8125-4.226562-30.199219-6.367187-45.726563-6.367187-15.523437 0-30.910156 2.140625-45.722656 6.367187-.699219.199219-1.414063.296875-2.125.296875-2.023438 0-4-.792969-5.472657-2.265625zm216.640625 48.59375h-301.171875c-8.550782 0-15.484375 7.359375-15.484375 16.4375v238.078125c0 9.078125 6.933593 16.4375 15.484375 16.4375h301.171875c8.550781 0 15.484375-7.359375 15.484375-16.4375v-238.078125c0-9.078125-6.933594-16.4375-15.484375-16.4375zm0 0" fill="#0573cd"/><path d="m452.558594 150.136719v192.039062c0 8.550781-6.933594 15.484375-15.484375 15.484375h-271.453125c-8.550782 0-15.484375-6.933594-15.484375-15.484375v-117.125c0-4.0625 4.542969-6.542969 7.910156-4.269531 13.574219 9.15625 29.921875 14.511719 47.53125 14.511719h161.824219c47.03125 0 85.15625-38.125 85.15625-85.15625zm-15.484375-63.429688h-271.347657c-5.644531 0-10.21875 4.574219-10.21875 10.21875v90.4375c0 3.496094 1.777344 6.765625 4.734376 8.628907 13.128906 8.28125 28.667968 13.082031 45.335937 13.082031h161.824219c47.03125 0 85.15625-38.128907 85.15625-85.160157v-21.726562c0-8.550781-6.933594-15.480469-15.484375-15.480469zm0 0" fill="#4691db"/><path d="m225.304688 199.332031v46.699219c0 8.550781-6.929688 15.484375-15.484376 15.484375h-3.996093c-8.550781 0-15.480469-6.933594-15.480469-15.484375v-46.699219c0-4.273437 3.464844-7.738281 7.738281-7.738281h19.480469c4.277344 0 7.742188 3.464844 7.742188 7.738281zm149.589843-7.738281h-19.480469c-4.273437 0-7.742187 3.464844-7.742187 7.738281v46.699219c0 8.550781 6.933594 15.484375 15.484375 15.484375h3.996094c8.550781 0 15.484375-6.933594 15.484375-15.484375v-46.699219c-.003907-4.273437-3.46875-7.738281-7.742188-7.738281zm0 0" fill="#b4d2d7"/><path d="m382.632812 200.332031v43.703125c0 7.496094-4.730468 13.875-11.359374 16.359375-6.632813-2.484375-11.363282-8.859375-11.363282-16.359375v-43.703125c0-4.828125 3.910156-8.738281 8.738282-8.738281h5.246093c4.828125 0 8.738281 3.910156 8.738281 8.738281zm-166.066406-8.738281h-5.246094c-4.828124 0-8.742187 3.910156-8.742187 8.738281v43.703125c0 7.496094 4.730469 13.875 11.363281 16.359375 6.632813-2.484375 11.363282-8.859375 11.363282-16.359375v-43.703125c0-4.828125-3.914063-8.738281-8.738282-8.738281zm0 0" fill="#e1ebf0"/><path d="m365.152344 252.773438c-7.238282 0-13.109375-5.867188-13.109375-13.109376 0-7.242187 5.871093-13.109374 13.109375-13.109374 7.242187 0 13.113281 5.867187 13.113281 13.109374 0 7.242188-5.871094 13.109376-13.113281 13.109376zm0 0" fill="#9bb9c3"/><path d="m198.921875 490.875-43.417969-32.566406-43.417968 32.566406c-4.472657 3.351562-10.851563.160156-10.851563-5.429688v-95.613281c0-14.984375 12.148437-27.132812 27.132813-27.132812h54.273437c14.988281 0 27.136719 12.148437 27.136719 27.132812v95.613281c0 5.589844-6.382813 8.78125-10.855469 5.429688zm0 0" fill="#ce1356"/><path d="m262.8125 316.710938c0 11.183593-7.191406 20.683593-17.199219 24.144531 6.9375 8 8.414063 19.820312 2.820313 29.507812-5.589844 9.6875-16.566406 14.316407-26.964844 12.3125 2.007812 10.394531-2.625 21.371094-12.308594 26.964844-9.6875 5.589844-21.507812 4.113281-29.507812-2.820313-3.464844 10.007813-12.960938 17.195313-24.144532 17.195313-11.1875 0-20.683593-7.1875-24.148437-17.195313-8 6.933594-19.820313 8.410157-29.507813 2.820313-9.683593-5.59375-14.316406-16.570313-12.308593-26.964844-10.398438 2.003907-21.375-2.628906-26.964844-12.3125-5.59375-9.6875-4.117187-21.507812 2.820313-29.507812-10.007813-3.460938-17.199219-12.960938-17.199219-24.144531 0-11.183594 7.191406-20.683594 17.199219-24.144532-6.9375-8-8.414063-19.824218-2.820313-29.507812 5.589844-9.6875 16.566406-14.320313 26.964844-12.3125-2.007813-10.398438 2.625-21.375 12.308593-26.964844 9.6875-5.589844 21.507813-4.113281 29.507813 2.820312 3.464844-10.007812 12.960937-17.195312 24.148437-17.195312 11.183594 0 20.679688 7.1875 24.144532 17.195312 8-6.933593 19.820312-8.410156 29.507812-2.820312 9.683594 5.59375 14.316406 16.570312 12.308594 26.964844 10.398438-2.003906 21.375 2.625 26.964844 12.3125 5.59375 9.683594 4.117187 21.507812-2.820313 29.507812 10.007813 3.460938 17.199219 12.960938 17.199219 24.144532zm0 0" fill="#fff7ee"/><path d="m232.152344 316.710938c0 42.328124-34.316406 76.644531-76.644532 76.644531-42.332031 0-76.648437-34.316407-76.648437-76.644531 0-42.332032 34.316406-76.648438 76.648437-76.648438 42.328126 0 76.644532 34.316406 76.644532 76.648438zm0 0" fill="#ff5284"/><path d="m176.410156 390.449219c-6.648437 1.878906-13.65625 2.90625-20.90625 2.90625-42.328125 0-76.644531-34.316407-76.644531-76.644531 0-42.332032 34.316406-76.648438 76.644531-76.648438 7.25 0 14.257813 1.027344 20.90625 2.910156-32.167968 9.101563-55.742187 38.65625-55.742187 73.738282 0 35.078124 23.574219 64.632812 55.742187 73.738281zm0 0" fill="#f43b5f"/><path d="m165.726562 298.824219v45.988281c0 2.824219-2.289062 5.113281-5.109374 5.113281h-10.222657c-2.820312 0-5.109375-2.289062-5.109375-5.113281v-45.988281c0-2.820313 2.289063-5.109375 5.109375-5.109375h10.222657c2.820312 0 5.109374 2.289062 5.109374 5.109375zm-35.769531 15.332031h-10.21875c-2.824219 0-5.109375 2.289062-5.109375 5.109375v25.546875c0 2.824219 2.285156 5.113281 5.109375 5.113281h10.21875c2.820313 0 5.109375-2.289062 5.109375-5.113281v-25.546875c0-2.820313-2.289062-5.109375-5.109375-5.109375zm61.316407-30.660156h-10.21875c-2.820313 0-5.109376 2.289062-5.109376 5.109375v56.207031c0 2.824219 2.289063 5.113281 5.109376 5.113281h10.21875c2.824218 0 5.109374-2.289062 5.109374-5.113281v-56.207031c0-2.820313-2.285156-5.109375-5.109374-5.109375zm0 0" fill="#fff7ee"/></svg>