<svg height="512pt" viewBox="-5 0 511 512" width="512pt" xmlns="http://www.w3.org/2000/svg"><path d="m72.316406 437.113281c-44.414062-45.179687-71.816406-107.132812-71.816406-175.492187 0-138.097656 111.804688-250.085938 249.835938-250.378906 138.277343-.292969 250.101562 110.589843 250.917968 248.863281.410156 68.933593-27.050781 131.449219-71.761718 176.957031-14.351563 14.605469-33.976563 22.816406-54.453126 22.816406h-248.320312c-20.449219 0-40.066406-8.183594-54.402344-22.765625zm0 0" fill="#56bcd6"/><path d="m180.722656 192.84375c2.011719 3.40625-.441406 7.707031-4.398437 7.707031h-29.542969v218.453125h-61.320312v-218.453125h-29.769532c-3.953125 0-6.410156-4.300781-4.398437-7.707031l60.316406-102.070312c1.976563-3.347657 6.820313-3.347657 8.796875 0zm267.699219 85.46875-60.316406-102.070312c-1.976563-3.34375-6.820313-3.34375-8.796875 0l-60.316406 102.070312c-2.011719 3.40625.441406 7.707031 4.398437 7.707031h29.769531v143.203125h61.316406v-143.203125h29.546876c3.953124 0 6.410156-4.300781 4.398437-7.707031zm0 0" fill="#8fd5e5"/><path d="m250.878906 299.308594c-8.300781 0-15.027344-6.730469-15.027344-15.03125v-165.316406c0-8.300782 6.726563-15.027344 15.027344-15.027344 8.300782 0 15.027344 6.726562 15.027344 15.027344v165.316406c0 8.300781-6.726562 15.03125-15.027344 15.03125zm0 0" fill="#4691db"/><path d="m417.683594 12.023438-36.066406 48.09375 36.066406 48.089843c3.714844 4.953125.183594 12.023438-6.011719 12.023438h-175.820313v-112.714844c0-4.152344 3.363282-7.515625 7.511719-7.515625h168.308594c6.195313 0 9.726563 7.070312 6.011719 12.023438zm0 0" fill="#ff5284"/><path d="m265.90625 120.230469h-30.054688v-115.121094c0-2.820313 2.285157-5.109375 5.109376-5.109375h24.945312zm0 0" fill="#f43b5f"/><path d="m312.195312 347.464844h-122.632812c-11.289062 0-20.441406-9.148438-20.441406-20.4375v-61.320313c0-11.285156 9.152344-20.4375 20.441406-20.4375h122.632812c11.289063 0 20.441407 9.152344 20.441407 20.4375v61.320313c0 11.289062-9.152344 20.4375-20.441407 20.4375zm0 0" fill="#ffe899"/><path d="m312.195312 296.367188h-87.886718c-11.289063 0-20.4375-9.152344-20.4375-20.4375v-10.222657c0-11.285156 9.148437-20.4375 20.4375-20.4375h87.886718c11.289063 0 20.441407 9.152344 20.441407 20.4375v10.222657c0 11.285156-9.152344 20.4375-20.441407 20.4375zm0 0" fill="#fff1b8"/><path d="m359.207031 419.003906h-216.65625c-11.289062 0-20.4375-9.152344-20.4375-20.441406v-61.316406c0-11.289063 9.148438-20.441406 20.4375-20.441406h216.65625c11.289063 0 20.4375 9.152343 20.4375 20.441406v61.316406c0 11.289062-9.148437 20.441406-20.4375 20.441406zm0 0" fill="#fcae51"/><path d="m359.207031 367.902344h-155.335937c-11.289063 0-20.441406-9.148438-20.441406-20.4375v-10.21875c0-11.289063 9.152343-20.441406 20.441406-20.441406h155.335937c11.289063 0 20.4375 9.152343 20.4375 20.441406v10.21875c0 11.289062-9.148437 20.4375-20.4375 20.4375zm0 0" fill="#ffc97b"/><path d="m71.015625 408.78125c0-11.289062 9.148437-20.4375 20.4375-20.4375h318.851563c11.289062 0 20.4375 9.148438 20.4375 20.4375v26.996094c-28.808594 29.75-64.921876 52.382812-105.457032 64.980468h-148.808594c-40.539062-12.597656-76.652343-35.230468-105.460937-64.980468zm0 0" fill="#ed9c3b"/><path d="m410.304688 439.441406h-267.753907c-11.289062 0-20.4375-9.152344-20.4375-20.4375v-10.222656c0-11.289062 9.148438-20.4375 20.4375-20.4375h267.753907c11.289062 0 20.4375 9.148438 20.4375 20.4375v10.222656c0 11.285156-9.148438 20.4375-20.4375 20.4375zm0 0" fill="#f9b65d"/><path d="m97.972656 459.878906h305.8125c-42.296875 32.671875-95.328125 52.121094-152.90625 52.121094-57.582031 0-110.609375-19.449219-152.90625-52.121094zm0 0" fill="#d38231"/></svg>