<svg height="512pt" viewBox="-6 0 512 512.00026" width="512pt" xmlns="http://www.w3.org/2000/svg"><path d="m0 261.621094c0-138.261719 112.066406-250.347656 250.320312-250.378906 137.949219-.03125 250.4375 112.429687 250.4375 250.378906 0 84.960937-42.324218 160.019531-107.027343 205.285156-3.824219 2.675781-8.460938 3.914062-13.113281 3.589844-42.171876-2.941406-85.710938-4.484375-130.238282-4.484375s-88.0625 1.542969-130.234375 4.484375c-4.660156.324218-9.300781-.917969-13.125-3.597656-64.699219-45.265626-107.019531-120.324219-107.019531-205.277344zm0 0" fill="#56bcd6"/><path d="m469.078125 139.660156v243.921875c-15.65625 28.011719-36.53125 52.703125-61.316406 72.761719v-379.695312c0-2.910157.824219-5.621094 2.230469-7.9375 23.8125 19.726562 43.902343 43.78125 59.085937 70.949218zm-107.304687-27.246094h-30.660157c-8.464843 0-15.328125 6.863282-15.328125 15.332032v367.429687c21.753906-5.875 42.335938-14.601562 61.316406-25.761719v-341.667968c0-8.46875-6.863281-15.332032-15.328124-15.332032zm-286.148438 102.195313h-30.660156c-8.464844 0-15.328125 6.863281-15.328125 15.332031v149.921875c15.445312 28.769531 36.339843 54.179688 61.316406 74.828125v-224.75c0-8.46875-6.863281-15.332031-15.328125-15.332031zm91.976562-102.195313h-30.660156c-8.464844 0-15.328125 6.863282-15.328125 15.332032v340.460937c18.953125 11.386719 39.535157 20.335938 61.316407 26.414063v-366.875c0-8.46875-6.863282-15.332032-15.328126-15.332032zm0 0" fill="#059bc3"/><path d="m106.183594 466.324219c10.976562-10.324219 25.742187-16.664063 42-16.664063 13.75 0 26.441406 4.527344 36.671875 12.171875 11.0625-25.210937 36.226562-42.828125 65.523437-42.828125s54.464844 17.617188 65.523438 42.828125c10.230468-7.644531 22.921875-12.171875 36.671875-12.171875 16.257812 0 31.023437 6.339844 42 16.664063-40.769531 28.769531-90.503907 45.675781-144.195313 45.675781-53.6875 0-103.425781-16.90625-144.195312-45.675781zm0 0" fill="#8fd5e5"/><path d="m322.425781 271.125c0 64.492188-26.222656 146.449219-67.058593 185.371094-2.800782 2.667968-7.171876 2.667968-9.976563 0-40.832031-38.921875-67.058594-120.878906-67.058594-185.371094 0-29.722656 5.574219-52.738281 15.582031-72.351562 3.074219-6.023438 10.003907-8.945313 16.535157-7.195313 12.828125 3.4375 26.191406 5.261719 39.929687 5.261719 13.738282 0 27.101563-1.824219 39.929688-5.261719 6.535156-1.753906 13.460937 1.171875 16.535156 7.195313 10.007812 19.613281 15.582031 42.628906 15.582031 72.351562zm0 0" fill="#ffc97b"/><path d="m206.605469 271.125c0-29.722656 5.574219-52.738281 15.582031-72.351562.789062-1.546876 1.835938-2.886719 3.0625-3.996094 8.207031 1.355468 16.597656 2.0625 25.128906 2.0625 4.761719 0 9.472656-.234375 14.136719-.664063 4.664063.429688 9.375.664063 14.136719.664063 8.535156 0 16.921875-.707032 25.128906-2.0625 1.226562 1.109375 2.273438 2.449218 3.0625 3.996094 10.007812 19.613281 15.582031 42.628906 15.582031 72.351562 0 59.535156-22.347656 133.953125-57.910156 175.660156-35.558594-41.707031-57.910156-116.125-57.910156-175.660156zm0 0" fill="#ffdc85"/><path d="m153.292969 245.269531h20.441406v153.292969c0 5.644531-4.578125 10.21875-10.222656 10.21875h-10.21875c-33.863281 0-61.316407-27.453125-61.316407-61.316406v-40.878906c0-33.863282 27.453126-61.316407 61.316407-61.316407zm0 0" fill="#b4d2d7"/><path d="m347.464844 245.269531h-20.4375v153.292969c0 5.644531 4.574218 10.21875 10.21875 10.21875h10.21875c33.863281 0 61.316406-27.453125 61.316406-61.316406v-40.878906c0-33.863282-27.453125-61.316407-61.316406-61.316407zm-173.730469 3.503907v149.789062c0 2.238281-.730469 4.300781-1.949219 5.984375-22.789062-8.945313-38.929687-31.121094-38.929687-57.082031v-40.878906c0-26.695313 17.066406-49.394532 40.878906-57.8125zm0 0" fill="#e1ebf0"/><path d="m287.167969 408.78125h-73.578125c-11.289063 0-20.441406-9.148438-20.441406-20.4375v-40.878906c0-11.289063 9.152343-20.4375 20.441406-20.4375h73.578125c11.289062 0 20.441406 9.148437 20.441406 20.4375v40.878906c0 11.289062-9.152344 20.4375-20.441406 20.4375zm0 0" fill="#d38231"/><path d="m287.167969 408.78125h-40.085938c-11.289062 0-20.4375-9.148438-20.4375-20.4375v-40.878906c0-11.289063 9.148438-20.4375 20.4375-20.4375h40.085938c11.289062 0 20.441406 9.148437 20.441406 20.4375v40.878906c0 11.289062-9.152344 20.4375-20.441406 20.4375zm0 0" fill="#f9b65d"/><path d="m193.457031 380.503906c-9.3125 2.496094-19.1875-1.667968-23.570312-10.257812-14.265625-27.960938-22.214844-60.765625-22.214844-103.140625 0-91.933594 37.386719-208.769531 95.597656-264.25 3.992188-3.808594 10.226563-3.808594 14.21875 0 58.210938 55.480469 95.597657 172.316406 95.597657 264.25 0 42.375-7.945313 75.179687-22.210938 103.140625-4.382812 8.589844-14.261719 12.753906-23.574219 10.257812-18.285156-4.902344-37.339843-7.5-56.921875-7.5-19.582031 0-38.632812 2.601563-56.921875 7.5zm0 0" fill="#f43b5f"/><path d="m353.085938 267.105469c0 42.375-7.945313 75.179687-22.210938 103.140625-4.382812 8.589844-14.257812 12.753906-23.574219 10.257812-18.285156-4.898437-37.339843-7.5-56.921875-7.5-12.558594 0-24.902344 1.074219-36.964844 3.136719-14.195312-31.085937-22.078124-67.492187-22.078124-114.113281 0-7.765625.21875-15.691406.648437-23.730469.277344-5.175781 7.359375-7.523437 7.808594-12.785156.566406-6.578125-5.457031-16.089844-4.628907-22.761719 8.660157-69.902344 31.601563-143.898438 64.503907-197.773438 56.960937 56.292969 93.417969 171.347657 93.417969 262.128907zm0 0" fill="#ff5284"/><path d="m318.875 178.964844-10.136719-1.394532c-1.292969-4.546874-3.105469-8.871093-5.359375-12.917968l6.1875-8.160156c4.636719-6.113282 4.046875-14.707032-1.378906-20.128907-5.421875-5.425781-14.015625-6.011719-20.128906-1.378906l-8.160156 6.1875c-4.046876-2.257813-8.371094-4.066406-12.917969-5.359375l-1.394531-10.136719c-1.042969-7.597656-7.535157-13.261719-15.207032-13.261719-7.667968 0-14.164062 5.664063-15.207031 13.261719l-1.394531 10.136719c-4.546875 1.292969-8.871094 3.105469-12.917969 5.359375l-8.160156-6.1875c-6.113281-4.632813-14.707031-4.046875-20.132813 1.378906-5.421875 5.421875-6.007812 14.015625-1.375 20.128907l6.1875 8.160156c-2.257812 4.046875-4.066406 8.371094-5.359375 12.917968l-10.136719 1.394532c-7.597656 1.042968-13.261718 7.539062-13.261718 15.207031s5.664062 14.164063 13.261718 15.207031l10.140626 1.394532c1.289062 4.546874 3.101562 8.871093 5.355468 12.917968l-6.1875 8.160156c-4.632812 6.113282-4.046875 14.707032 1.378906 20.128907 5.421876 5.425781 14.015626 6.011719 20.128907 1.378906l8.160156-6.1875c4.046875 2.257813 8.371094 4.066406 12.917969 5.359375l1.394531 10.136719c1.042969 7.597656 7.539063 13.261719 15.207031 13.261719 7.671875 0 14.164063-5.664063 15.207032-13.261719l1.394531-10.136719c4.546875-1.292969 8.875-3.105469 12.917969-5.359375l8.160156 6.1875c6.113281 4.632813 14.707031 4.046875 20.128906-1.378906 5.425781-5.421875 6.011719-14.015625 1.378906-20.128907l-6.1875-8.160156c2.257813-4.046875 4.066406-8.371094 5.359375-12.917968l10.136719-1.394532c7.597656-1.042968 13.261719-7.539062 13.261719-15.207031s-5.664063-14.164063-13.261719-15.207031zm-68.496094 38.941406c-13.109375 0-23.734375-10.625-23.734375-23.734375s10.625-23.734375 23.734375-23.734375 23.738282 10.625 23.738282 23.734375-10.628907 23.734375-23.738282 23.734375zm0 0" fill="#ce1356"/><path d="m285.792969 194.171875c0 19.558594-15.855469 35.414063-35.414063 35.414063s-35.414062-15.855469-35.414062-35.414063 15.855468-35.414063 35.414062-35.414063 35.414063 15.855469 35.414063 35.414063zm0 0" fill="#8fd5e5"/><path d="m285.792969 194.171875c0 14.199219-8.355469 26.4375-20.417969 32.085937-12.0625-5.648437-20.421875-17.886718-20.421875-32.085937s8.359375-26.4375 20.421875-32.085937c12.0625 5.648437 20.417969 17.886718 20.417969 32.085937zm0 0" fill="#b3e8f4"/><path d="m250.378906 148.539062c-25.203125 0-45.632812 20.429688-45.632812 45.632813s20.429687 45.632813 45.632812 45.632813 45.636719-20.429688 45.636719-45.632813-20.433594-45.632813-45.636719-45.632813zm0 76.21875c-16.890625 0-30.585937-13.695312-30.585937-30.585937s13.695312-30.585937 30.585937-30.585937 30.585938 13.695312 30.585938 30.585937-13.695313 30.585937-30.585938 30.585937zm0 0" fill="#ff5284"/></svg>