<svg height="512pt" viewBox="-6 0 512 512" width="512pt" xmlns="http://www.w3.org/2000/svg"><path d="m0 261.621094c0-138.300782 112.132812-250.414063 250.441406-250.378906 137.929688.03125 250.316406 112.449218 250.316406 250.378906 0 87.679687-45.078124 164.820312-113.3125 209.542968-42.574218-10.589843-88.78125-16.394531-137.066406-16.394531-44.164062 0-86.589844 4.855469-126.085937 13.789063-7.289063 1.648437-14.957031.078125-21-4.316406-62.59375-45.511719-103.292969-119.308594-103.292969-202.621094zm0 0" fill="#56bcd6"/><path d="m302.523438 266.558594c-4.398438 1.640625-4.398438 7.902344 0 9.542968 56.6875 21.144532 97.0625 75.773438 97.0625 139.835938v46.757812c-41.671876 30.972657-93.296876 49.304688-149.207032 49.304688s-107.535156-18.332031-149.207031-49.304688v-46.757812c0-64.0625 40.375-118.691406 97.0625-139.835938 4.398437-1.640624 4.398437-7.902343 0-9.542968-56.6875-21.148438-97.0625-75.773438-97.0625-139.835938v-80.734375c0-8.464843 6.867187-15.328125 15.332031-15.328125h267.75c8.46875 0 15.332032 6.863282 15.332032 15.328125v80.734375c0 64.0625-40.375 118.6875-97.0625 139.835938zm0 0" fill="#b3e8f4"/><path d="m175.777344 30.660156h208.476562c8.46875 0 15.332032 6.863282 15.332032 15.328125v80.734375c0 64.058594-40.375 118.6875-97.0625 139.835938-4.398438 1.640625-4.398438 7.902344 0 9.542968 56.6875 21.144532 97.0625 75.773438 97.0625 139.835938v46.757812c-34.195313 25.417969-75.097657 42.3125-119.570313 47.558594-24.554687-2.898437-48.019531-9.34375-69.867187-18.816406-30.125-13.0625-49.703126-42.667969-49.703126-75.5 0-64.0625 40.375-118.691406 97.0625-139.835938 4.398438-1.640624 4.398438-7.902343 0-9.542968-56.6875-21.148438-97.0625-75.777344-97.0625-139.835938v-80.734375c0-8.464843 6.867188-15.328125 15.332032-15.328125zm0 0" fill="#e1ebf0"/><path d="m414.914062 61.316406h-329.070312c-8.464844 0-15.328125-6.863281-15.328125-15.328125v-30.660156c0-8.464844 6.863281-15.328125 15.328125-15.328125h329.070312c8.464844 0 15.328126 6.863281 15.328126 15.328125v30.660156c0 8.464844-6.863282 15.328125-15.328126 15.328125zm0 0" fill="#f43b5f"/><path d="m414.914062 61.316406h-267.753906c-8.464844 0-15.328125-6.863281-15.328125-15.328125v-30.660156c0-8.464844 6.863281-15.328125 15.328125-15.328125h267.753906c8.464844 0 15.328126 6.863281 15.328126 15.328125v30.660156c0 8.464844-6.863282 15.328125-15.328126 15.328125zm0 0" fill="#ff5284"/><path d="m362.792969 148.183594c0 34.722656-18.226563 65.183594-45.636719 82.34375-21.445312 13.421875-41.589844 28.824218-59.480469 46.714844l-1.515625 1.515624c-3.191406 3.191407-8.371094 3.191407-11.5625 0l-1.515625-1.515624c-17.890625-17.890626-38.035156-33.292969-59.480469-46.714844-27.40625-17.160156-45.636718-47.621094-45.636718-82.34375 0-8.464844 6.863281-15.328125 15.328125-15.328125h194.171875c8.464844 0 15.328125 6.863281 15.328125 15.328125zm-112.414063 148.183594c-11.289062 0-20.4375 9.152343-20.4375 20.4375 0 11.289062 9.148438 20.441406 20.4375 20.441406 11.289063 0 20.441406-9.152344 20.441406-20.441406 0-11.285157-9.152343-20.4375-20.441406-20.4375zm0 61.316406c-11.289062 0-20.4375 9.152344-20.4375 20.441406s9.148438 20.4375 20.4375 20.4375c11.289063 0 20.441406-9.148438 20.441406-20.4375s-9.152343-20.441406-20.441406-20.441406zm0 0" fill="#fcae51"/><path d="m265.707031 245.269531c-53.617187 0-97.085937-43.46875-97.085937-97.085937 0-8.464844 6.863281-15.328125 15.332031-15.328125h163.511719c8.464844 0 15.328125 6.863281 15.328125 15.328125 0 53.617187-43.464844 97.085937-97.085938 97.085937zm0 0" fill="#ffc97b"/><path d="m346.441406 510.976562c-56.4375 0-102.195312-45.753906-102.195312-102.195312 0-56.4375 45.757812-102.195312 102.195312-102.195312 56.441406 0 102.199219 45.757812 102.199219 102.195312 0 56.441406-45.757813 102.195312-102.199219 102.195312zm0 0" fill="#ffdc85"/><path d="m346.441406 480.320312c-39.507812 0-71.535156-32.027343-71.535156-71.539062 0-39.507812 32.027344-71.535156 71.535156-71.535156 39.511719 0 71.539063 32.027344 71.539063 71.535156 0 39.511719-32.027344 71.539062-71.539063 71.539062zm0 0" fill="#f9b65d"/><path d="m417.980469 408.78125c0 34.246094-24.070313 62.855469-56.207031 69.875-32.140626-7.019531-56.207032-35.628906-56.207032-69.875 0-34.242188 24.066406-62.851562 56.207032-69.871094 32.136718 7.019532 56.207031 35.628906 56.207031 69.871094zm0 0" fill="#fcae51"/><path d="m356.664062 454.769531h-20.441406c-2.820312 0-5.109375-2.289062-5.109375-5.109375v-81.757812c0-2.820313 2.289063-5.109375 5.109375-5.109375h20.441406c2.820313 0 5.109376 2.289062 5.109376 5.109375v81.757812c0 2.820313-2.289063 5.109375-5.109376 5.109375zm0 0" fill="#fff1b8"/></svg>