<svg height="512pt" viewBox="-6 0 512 512" width="512pt" xmlns="http://www.w3.org/2000/svg"><path d="m500.757812 261.621094c0 83.277344-40.65625 157.0625-103.207031 202.582031-41.308593 30.0625-331.277343-9.34375-372.046875-92.355469-16.332031-33.261718-25.503906-70.671875-25.503906-110.226562 0-138.28125 112.097656-250.378906 250.378906-250.378906s250.378906 112.097656 250.378906 250.378906zm0 0" fill="#ff5284"/><path d="m336.101562 10.574219 42.382813 85.878906 94.769531 13.769531c15.558594 2.261719 21.769532 21.378906 10.511719 32.351563l-68.574219 66.847656 16.1875 94.386719c2.65625 15.496094-13.605468 27.3125-27.523437 20l-84.765625-44.566406-84.765625 44.566406c-13.914063 7.3125-30.179688-4.503906-27.523438-20l16.191407-94.386719-68.578126-66.847656c-11.257812-10.972657-5.046874-30.089844 10.511719-32.351563l94.773438-13.769531 42.378906-85.878906c6.960937-14.097657 27.066406-14.097657 34.023437 0zm0 0" fill="#ffdc85"/><path d="m483.765625 142.574219-68.574219 66.847656.632813 3.699219c-67.523438-14.210938-124.253907-57.734375-156.238281-116.652344l.113281-.015625 42.382812-85.878906c6.957031-14.097657 27.058594-14.097657 34.019531 0l42.382813 85.878906 94.769531 13.769531c15.558594 2.261719 21.773438 21.378906 10.511719 32.351563zm0 0" fill="#fff1b8"/><path d="m319.921875 229.476562v95.503907h-34.6875v-95.503907c0-11.441406-7.527344-21.660156-18.308594-24.847656-17.902343-5.296875-36.542969-7.980468-55.394531-7.980468s-37.488281 2.683593-55.390625 7.980468c-10.785156 3.1875-18.3125 13.40625-18.3125 24.847656v95.503907h-34.683594v-95.503907c0-26.699218 17.746094-50.59375 43.160157-58.109374 21.097656-6.238282 43.042968-9.402344 65.226562-9.402344 22.1875 0 44.132812 3.164062 65.230469 9.402344 25.410156 7.515624 43.160156 31.410156 43.160156 58.109374zm0 0" fill="#015aad"/><path d="m297.4375 184.066406-26.179688 26.179688c-2.226562 2.226562-5.484374 3.070312-8.511718 2.207031-16.59375-4.734375-33.824219-7.132813-51.214844-7.132813s-34.625 2.398438-51.21875 7.132813c-.78125.222656-1.582031.332031-2.375.332031-2.269531 0-4.484375-.890625-6.132812-2.539062l-26.183594-26.179688c-1.867188-1.871094-2.78125-4.492187-2.480469-7.117187.296875-2.625 1.777344-4.96875 4.019531-6.371094 5.230469-3.265625 10.84375-5.800781 16.683594-7.527344 21.894531-6.472656 44.667969-9.757812 67.6875-9.757812 23.015625 0 45.789062 3.28125 67.6875 9.757812 5.835938 1.726563 11.449219 4.261719 16.679688 7.527344 2.242187 1.402344 3.722656 3.746094 4.023437 6.371094s-.617187 5.246093-2.484375 7.117187zm0 0" fill="#4691db"/><path d="m137.542969 195.984375c9.363281-2.898437 18.863281-5.230469 28.460937-7.007813l-2.34375-8.746093c-1.238281-4.625 1.507813-9.378907 6.132813-10.617188 4.625-1.242187 9.378906 1.503907 10.621093 6.128907l2.851563 10.652343c6.503906-.738281 13.039063-1.21875 19.59375-1.445312v-10.582031c0-4.789063 3.882813-8.671876 8.671875-8.671876s8.671875 3.882813 8.671875 8.671876v10.582031c6.554687.226562 13.09375.707031 19.59375 1.445312l2.851563-10.652343c1.242187-4.625 5.996093-7.371094 10.621093-6.128907 4.625 1.238281 7.371094 5.992188 6.132813 10.617188l-2.34375 8.746093c9.597656 1.777344 19.101562 4.109376 28.460937 7.007813l-14.261719 14.261719c-2.226562 2.222656-5.480468 3.070312-8.507812 2.207031-16.59375-4.734375-33.824219-7.132813-51.21875-7.132813-17.390625 0-34.621094 2.398438-51.214844 7.132813-.785156.222656-1.585937.332031-2.378906.332031-2.265625 0-4.480469-.890625-6.132812-2.539062zm242.65625 54.425781h-337.335938c-9.578125 0-17.34375 7.765625-17.34375 17.34375v104.089844c9.023438 18.371094 20.230469 35.476562 33.28125 50.972656 45.925781 54.53125 297.429688 71.433594 338.738281 41.371094v-196.433594c0-9.578125-7.761718-17.34375-17.339843-17.34375zm0 0" fill="#0573cd"/><path d="m397.539062 321.457031v142.730469c-41.308593 30.0625-92.15625 47.8125-147.160156 47.8125-76.875 0-145.644531-34.65625-191.574218-89.183594v-18.585937c0-4.109375 4.609374-6.550781 7.988281-4.21875 15.375 10.613281 34.015625 16.828125 54.109375 16.828125h181.253906c52.679688 0 95.382812-42.703125 95.382812-95.382813zm-2.089843-61.972656c-.535157-.980469-1.160157-1.90625-1.867188-2.765625-1.0625-1.28125-2.304687-2.414062-3.6875-3.347656-1.382812-.933594-2.910156-1.675782-4.539062-2.179688-1.628907-.507812-3.363281-.78125-5.15625-.78125h-304.050781c-9.578126 0-17.34375 7.765625-17.34375 17.34375v91.867188c0 3.203125 1.511718 6.203125 4.050781 8.152344 16.078125 12.351562 36.203125 19.695312 58.046875 19.695312h181.253906c52.679688 0 95.382812-42.703125 95.382812-95.378906v-24.335938c0-2.996094-.757812-5.808594-2.089843-8.269531zm0 0" fill="#4691db"/><path d="m125.660156 446.210938h-4.476562c-9.578125 0-17.34375-7.765626-17.34375-17.34375v-52.304688c0-4.789062 3.882812-8.671875 8.671875-8.671875h21.816406c4.789063 0 8.671875 3.882813 8.671875 8.671875v52.304688c0 9.578124-7.761719 17.34375-17.339844 17.34375zm193.5625-17.34375v-52.304688c0-4.789062-3.882812-8.671875-8.671875-8.671875h-21.820312c-4.789063 0-8.667969 3.882813-8.667969 8.671875v52.304688c0 9.578124 7.761719 17.34375 17.339844 17.34375h4.476562c9.578125 0 17.34375-7.765626 17.34375-17.34375zm0 0" fill="#b4d2d7"/><path d="m127.335938 367.890625h5.875c5.40625 0 9.789062 4.382813 9.789062 9.789063v48.949218c0 8.402344-5.296875 15.542969-12.726562 18.324219-7.429688-2.78125-12.726563-9.921875-12.726563-18.324219v-48.949218c0-5.40625 4.382813-9.789063 9.789063-9.789063zm166.429687 9.789063v48.949218c0 8.402344 5.300781 15.542969 12.730469 18.324219 7.425781-2.78125 12.726562-9.921875 12.726562-18.324219v-48.949218c0-5.40625-4.382812-9.789063-9.789062-9.789063h-5.875c-5.40625 0-9.792969 4.382813-9.792969 9.789063zm0 0" fill="#e1ebf0"/><path d="m123.421875 436.421875c-8.113281 0-14.6875-6.574219-14.6875-14.6875 0-8.109375 6.574219-14.683594 14.6875-14.683594 8.109375 0 14.683594 6.574219 14.683594 14.683594 0 8.113281-6.574219 14.6875-14.683594 14.6875zm190.902344-14.6875c0-8.109375-6.574219-14.683594-14.683594-14.683594s-14.683594 6.574219-14.683594 14.683594 6.574219 14.683594 14.683594 14.683594c8.109375.003906 14.683594-6.570313 14.683594-14.683594zm0 0" fill="#9bb9c3"/></svg>