<svg height="512pt" viewBox="0 0 512.00051 512" width="512pt" xmlns="http://www.w3.org/2000/svg"><path d="m512 261.621094c0 138.28125-112.097656 250.378906-250.378906 250.378906s-250.378906-112.097656-250.378906-250.378906 112.097656-250.378906 250.378906-250.378906 250.378906 112.097656 250.378906 250.378906zm0 0" fill="#ffe899"/><path d="m471.121094 261.621094c0-16.90625 13.753906-30.660156 30.660156-30.660156 2.945312 0 5.789062.425781 8.484375 1.203124-1.265625-10.824218-3.21875-21.4375-5.824219-31.792968-.882812-.039063-1.769531-.066406-2.660156-.066406-28.519531 0-52.554688 19.570312-59.378906 45.988281h-84.71875c-.0625 0-.121094.007812-.183594.007812-4.027344-7.179687-9.105469-13.6875-15.027344-19.328125l64.996094-64.992187c9.339844 5.527343 20.019531 8.484375 31.152344 8.484375 16.378906 0 31.777344-6.378906 43.359375-17.960938 1.152343-1.152344 2.234375-2.347656 3.273437-3.566406-5.21875-10.335938-11.132812-20.257812-17.679687-29.707031-1.46875 4.238281-3.890625 8.214843-7.269531 11.59375-5.792969 5.792969-13.492188 8.980469-21.683594 8.980469-8.1875 0-15.886719-3.1875-21.675782-8.980469-5.792968-5.789063-8.980468-13.488281-8.980468-21.675781 0-8.191407 3.1875-15.890626 8.980468-21.679688 4.523438-4.523438 10.121094-7.332031 15.976563-8.433594-8.402344-7.886718-17.34375-15.207031-26.773437-21.882812-3.863282 2.414062-7.527344 5.28125-10.882813 8.636718-11.582031 11.582032-17.957031 26.980469-17.957031 43.359376 0 11.136718 2.953125 21.816406 8.480468 31.15625l-69.765624 69.765624c-4.65625-1.835937-9.519532-3.257812-14.542969-4.214843v-85.15625c26.414062-6.824219 45.984375-30.859375 45.984375-59.378907 0-33.808593-27.503906-61.31640575-61.316406-61.31640575-33.808594 0-61.316407 27.50781275-61.316407 61.31640575 0 28.519532 19.570313 52.554688 45.988281 59.378907v85.15625c-24.058593 4.585937-44.40625 19.738281-56.015624 40.4375h-84.910157c-6.824219-26.414063-30.859375-45.988281-59.378906-45.988281-33.808594 0-61.316406 27.507812-61.316406 61.320312 0 33.808594 27.507812 61.316406 61.316406 61.316406 28.519531 0 52.554687-19.570312 59.378906-45.988281h75.027344c-.339844 3.019531-.53125 6.085937-.53125 9.199219 0 10.710937 2.09375 20.9375 5.855469 30.324218-1.015625.621094-1.984375 1.355469-2.863282 2.234376l-42.554687 42.554687c-9.339844-5.527344-20.019531-8.484375-31.15625-8.484375-16.375 0-31.773437 6.378906-43.355469 17.960938-23.910156 23.90625-23.910156 62.804687 0 86.714843 11.953125 11.953125 27.65625 17.929688 43.355469 17.929688 15.703125 0 31.40625-5.976563 43.359375-17.929688 11.582031-11.582031 17.960938-26.980469 17.960938-43.359375 0-11.136718-2.957032-21.816406-8.484376-31.15625l40.46875-40.464844c11.542969 12.121094 26.753907 20.710938 43.84375 23.96875v62.777344c-26.417968 6.824219-45.988281 30.855469-45.988281 59.375 0 7.464844 1.34375 14.617188 3.792969 21.234375 10.800781 1.421875 21.808594 2.167969 32.996094 2.167969 1.566406 0 3.125-.03125 4.683594-.058594-6.609376-5.628906-10.816407-14-10.816407-23.34375 0-16.90625 13.753907-30.65625 30.660157-30.65625s30.660156 13.75 30.660156 30.65625c0 7-2.363282 13.457032-6.328125 18.621094 12.484375-2.46875 24.640625-5.863281 36.382812-10.113281.386719-2.785157.601563-5.621094.601563-8.507813 0-28.519531-19.570313-52.550781-45.984375-59.375v-62.78125c17.085937-3.253906 32.296875-11.84375 43.84375-23.96875l40.464843 40.46875c-5.527343 9.339844-8.480468 20.019532-8.480468 31.15625 0 16.375 6.375 31.777344 17.957031 43.355469 3.359375 3.359375 7.019531 6.226563 10.882813 8.640625 9.429687-6.675781 18.371093-14 26.777343-21.886719-5.859375-1.097656-11.457031-3.90625-15.980469-8.433593-5.789062-5.789063-8.980468-13.488282-8.980468-21.675782 0-8.191406 3.191406-15.890625 8.980468-21.679687 5.792969-5.789063 13.492188-8.980469 21.679688-8.980469 8.191406 0 15.886719 3.191406 21.679688 8.980469 3.378906 3.378906 5.800781 7.359375 7.269531 11.597656 6.546875-9.453125 12.464843-19.371094 17.683593-29.707031-1.042968-1.222656-2.121093-2.417969-3.273437-3.570313-11.582031-11.582031-26.980469-17.960937-43.359375-17.960937-11.136719 0-21.816406 2.957031-31.152344 8.484375l-45.242187-45.238281c3.648437-9.261719 5.675781-19.335938 5.675781-29.875 0-3.113282-.191406-6.175782-.53125-9.199219h75.027344c6.824218 26.417969 30.859375 45.988281 59.378906 45.988281.890625 0 1.777344-.027344 2.660156-.066406 2.605469-10.359375 4.554688-20.972656 5.824219-31.796875-2.695313.78125-5.539063 1.207031-8.484375 1.207031-16.90625 0-30.660156-13.753906-30.660156-30.660156zm-400.605469 30.660156c-16.90625 0-30.660156-13.753906-30.660156-30.660156s13.753906-30.660156 30.660156-30.660156 30.660156 13.753906 30.660156 30.660156-13.753906 30.660156-30.660156 30.660156zm84.835937 143.492188c-11.953124 11.957031-31.402343 11.953124-43.359374 0-11.953126-11.953126-11.953126-31.402344 0-43.355469 5.792968-5.792969 13.492187-8.980469 21.679687-8.980469 8.191406 0 15.890625 3.191406 21.679687 8.980469 5.792969 5.789062 8.980469 13.488281 8.980469 21.679687 0 8.1875-3.191406 15.886719-8.980469 21.675782zm100.136719-374.457032c0-16.902344 13.753907-30.65625 30.660157-30.65625s30.660156 13.753906 30.660156 30.65625c0 16.90625-13.753906 30.660156-30.660156 30.660156s-30.660157-13.753906-30.660157-30.660156zm30.660157 275.929688c-28.175782 0-51.097657-22.921875-51.097657-51.097656 0-3.140626.300781-6.210938.84375-9.199219h3.242188c8.46875 0 15.332031-6.863281 15.332031-15.328125 0-4.40625-1.871094-8.363282-4.84375-11.160156 9.285156-9.5 22.222656-15.410157 36.523438-15.410157 28.175781 0 51.097656 22.921875 51.097656 51.097657 0 28.175781-22.921875 51.097656-51.097656 51.097656zm0 0" fill="#ffc97b"/><path d="m337.246094 291.257812c0 8.464844-6.863282 15.328126-15.328125 15.328126-8.46875 0-15.332031-6.863282-15.332031-15.328126 0-8.464843 6.863281-15.328124 15.332031-15.328124 8.464843 0 15.328125 6.863281 15.328125 15.328124zm76.648437-15.328124c-8.46875 0-15.332031 6.863281-15.332031 15.328124 0 8.464844 6.863281 15.328126 15.332031 15.328126 8.464844 0 15.328125-6.863282 15.328125-15.328126 0-8.464843-6.863281-15.328124-15.328125-15.328124zm-45.988281 0c-8.46875 0-15.332031 6.863281-15.332031 15.328124 0 8.464844 6.863281 15.328126 15.332031 15.328126 8.464844 0 15.328125-6.863282 15.328125-15.328126 0-8.464843-6.863281-15.328124-15.328125-15.328124zm0 0" fill="#ed9c3b"/><path d="m218.875 269.460938-4.964844-4.964844c-7.980468-7.984375-7.980468-20.925782 0-28.90625l10.332032-10.332032-.058594-1.074218 1.074218.058594 10.332032-10.332032c7.980468-7.980468 20.921875-7.980468 28.902344 0l4.96875 4.96875c1.945312 1.945313 3.332031 4.378906 4.011718 7.042969l14.179688 55.515625c.960937 3.761719-2.453125 7.175781-6.214844 6.214844l-55.515625-14.179688c-2.664063-.679687-5.097656-2.066406-7.046875-4.011718zm0 0" fill="#9bb9c3"/><path d="m228.363281 221.136719 7.226563-7.226563c7.980468-7.984375 20.921875-7.980468 28.902344 0l4.96875 4.964844c1.945312 1.945312 3.332031 4.382812 4.011718 7.046875l11.355469 44.453125-44.453125-11.351562c-2.667969-.683594-5.101562-2.070313-7.046875-4.015626l-4.964844-4.964843c-7.980469-7.984375-7.980469-20.925781 0-28.90625zm0 0" fill="#b4d2d7"/><path d="m40.621094 4.488281 18.066406 18.066407-36.132812 36.132812-18.066407-18.066406c-5.984375-5.984375-5.984375-15.691406 0-21.679688l14.457031-14.453125c5.984376-5.984375 15.691407-5.984375 21.675782 0zm0 0" fill="#ce1356"/><path d="m268.730469 218.144531-50.582031 50.585938-181.140626-181.136719-18.066406-18.066406-.140625-.144532.003907-.007812c-5.839844-5.996094-5.800782-15.589844.136718-21.527344l28.90625-28.90625c5.9375-5.9375 15.53125-5.976562 21.53125-.132812l.003906-.007813.144532.140625v.003906l18.066406 18.066407zm0 0" fill="#f43b5f"/><path d="m196.46875 203.691406-155.847656-155.84375c-5.984375-5.984375-5.984375-15.691406 0-21.679687l7.226562-7.226563c5.988282-5.984375 15.691406-5.984375 21.679688 0l155.84375 155.847656c7.984375 7.980469 7.984375 20.921876 0 28.902344-7.980469 7.984375-20.921875 7.984375-28.902344 0zm0 0" fill="#ff5284"/><path d="m145.402344 123.722656-90.328125-90.328125c-5.984375-5.984375-5.984375-15.691406 0-21.679687l7.226562-7.222656c5.988281-5.988282 15.691407-5.988282 21.679688 0l90.328125 90.328124c7.980468 7.980469 7.980468 20.921876 0 28.902344-7.980469 7.984375-20.921875 7.984375-28.90625 0zm0 0" fill="#ce1356"/></svg>