<svg height="512.00024pt" viewBox="0 0 512.00024 512.00024" width="512.00024pt" xmlns="http://www.w3.org/2000/svg"><path d="m500.757812 261.621094c0 138.28125-112.097656 250.378906-250.378906 250.378906s-250.378906-112.097656-250.378906-250.378906 112.097656-250.378906 250.378906-250.378906 250.378906 112.097656 250.378906 250.378906zm0 0" fill="#ff83c1"/><path d="m250.378906 31.679688c-126.992187 0-229.941406 102.949218-229.941406 229.941406 0 126.992187 102.949219 229.941406 229.941406 229.941406 126.992188 0 229.941406-102.949219 229.941406-229.941406 0-126.992188-102.949218-229.941406-229.941406-229.941406zm0 419.003906c-104.414062 0-189.0625-84.648438-189.0625-189.0625 0-104.414063 84.648438-189.0625 189.0625-189.0625 104.417969 0 189.0625 84.648437 189.0625 189.0625 0 104.414062-84.644531 189.0625-189.0625 189.0625zm0-352.574219c-90.304687 0-163.511718 73.207031-163.511718 163.511719 0 90.304687 73.207031 163.511718 163.511718 163.511718 90.304688 0 163.511719-73.207031 163.511719-163.511718 0-90.304688-73.207031-163.511719-163.511719-163.511719zm0 283.515625c-66.277344 0-120-53.730469-120-120.003906 0-66.273438 53.722656-120.003906 120-120.003906s120.003906 53.726562 120.003906 120.003906-53.726562 120.003906-120.003906 120.003906zm0 0" fill="#ff5284"/><path d="m345.734375 166.265625c-29.464844-29.464844-29.277344-77.421875.421875-107.121094l56.339844-56.339843c4.996094-4.996094 13.460937-3.03125 15.664062 3.636718l21.675782 65.722656 65.722656 21.675782c6.667968 2.199218 8.632812 10.667968 3.636718 15.664062l-56.339843 56.339844c-29.695313 29.699219-77.65625 29.890625-107.121094.421875zm0 0" fill="#ffdc85"/><path d="m345.121094 165.621094c-28.832032-29.515625-28.453125-76.992188 1.03125-106.476563l56.34375-56.339843c4.996094-4.996094 13.460937-3.027344 15.660156 3.640624l21.367188 64.773438zm0 0" fill="#ffc97b"/><path d="m472.617188 82.304688-267.257813 267.257812c-1.996094 1.996094-5.230469 1.996094-7.226563 0l-35.695312-35.695312c-1.996094-1.996094-1.996094-5.230469 0-7.226563l267.257812-267.257813c1.996094-1.996093 5.230469-1.996093 7.226563 0l35.695313 35.695313c1.996093 1.996094 1.996093 5.230469 0 7.226563zm0 0" fill="#fff7ee"/><path d="m162.4375 313.867188c-1.996094-1.996094-1.996094-5.230469 0-7.226563l267.257812-267.257813c1.996094-1.996093 5.230469-1.996093 7.226563 0l19.417969 19.417969c-1.996094-1.996093-5.230469-1.996093-7.226563 0l-270.871093 270.871094zm0 0" fill="#fff1b8"/><path d="m364.289062 256.613281-15.832031-5.09375c-.785156-7.640625-2.460937-15.074219-4.933593-22.183593l12.207031-11.316407c9.140625-8.472656 10.625-22.390625 3.476562-32.601562-7.148437-10.207031-20.734375-13.574219-31.824219-7.882813l-14.808593 7.601563c-5.835938-4.753907-12.25-8.875-19.160157-12.222657l.628907-16.617187c.472656-12.457031-8.320313-23.347656-20.59375-25.511719-12.273438-2.164062-24.261719 5.0625-28.078125 16.925782l-5.09375 15.832031c-7.640625.785156-15.074219 2.460937-22.183594 4.933593l-11.316406-12.210937c-8.472656-9.136719-22.390625-10.621094-32.601563-3.472656-10.210937 7.148437-13.574219 20.734375-7.882812 31.824219l7.601562 14.808593c-4.753906 5.835938-8.875 12.246094-12.222656 19.160157l-16.621094-.632813c-12.453125-.46875-23.34375 8.324219-25.507812 20.597656-2.164063 12.273438 5.0625 24.261719 16.925781 28.078125l15.832031 5.09375c.785157 7.636719 2.460938 15.074219 4.933594 22.183594l-12.207031 11.316406c-9.140625 8.472656-10.625 22.390625-3.476563 32.597656 7.148438 10.210938 20.734375 13.578126 31.824219 7.886719l14.808594-7.601562c5.835937 4.753906 12.246094 8.875 19.160156 12.222656l-.628906 16.617187c-.472656 12.457032 8.320312 23.347657 20.59375 25.511719 12.273437 2.164063 24.261718-5.066406 28.078125-16.929687l5.09375-15.832032c7.640625-.78125 15.074219-2.460937 22.183593-4.929687l11.316407 12.207031c8.472656 9.140625 22.390625 10.625 32.601562 3.476563 10.207031-7.148438 13.574219-20.738281 7.882813-31.824219l-7.601563-14.8125c4.753907-5.832031 8.875-12.246094 12.222657-19.15625l16.617187.628906c12.457031.472656 23.347656-8.320312 25.511719-20.59375 2.164062-12.273437-5.0625-24.261718-16.925782-28.078125zm-120.609374 42.992188c-20.976563-3.699219-34.984376-23.703125-31.285157-44.683594 3.699219-20.976563 23.703125-34.984375 44.679688-31.285156 20.980469 3.699219 34.988281 23.703125 31.289062 44.679687-3.699219 20.980469-23.703125 34.988282-44.683593 31.289063zm0 0" fill="#4691db"/><path d="m193.371094 342.042969c-1.773438-1.261719-3.507813-2.570313-5.1875-3.9375l-14.808594 7.601562c-11.085938 5.691407-24.675781 2.324219-31.824219-7.886719-7.148437-10.207031-5.664062-24.125 3.476563-32.597656l12.207031-11.316406c-2.46875-7.109375-4.148437-14.546875-4.929687-22.183594l-15.832032-5.09375c-11.867187-3.816406-19.09375-15.804687-16.929687-28.078125 2.164062-12.273437 13.058593-21.066406 25.511719-20.597656l16.617187.632813c3.347656-6.914063 7.46875-13.324219 12.222656-19.160157l-7.601562-14.808593c-5.691407-11.089844-2.324219-24.675782 7.882812-31.824219 10.210938-7.148438 24.128907-5.664063 32.601563 3.472656l11.316406 12.210937c2.046875-.710937 4.121094-1.347656 6.21875-1.925781-23.449219 20.679688-40.3125 49.148438-46.164062 82.332031-5.851563 33.183594.257812 65.707032 15.222656 93.160157zm0 0" fill="#0573cd"/><path d="m250.378906 204.070312c-31.785156 0-57.550781 25.765626-57.550781 57.550782s25.765625 57.550781 57.550781 57.550781 57.550782-25.765625 57.550782-57.550781-25.765626-57.550782-57.550782-57.550782zm0 96.121094c-21.300781 0-38.570312-17.269531-38.570312-38.570312 0-21.304688 17.269531-38.570313 38.570312-38.570313 21.304688 0 38.570313 17.269531 38.570313 38.570313 0 21.300781-17.269531 38.570312-38.570313 38.570312zm0 0" fill="#004b92"/><path d="m271.117188 283.804688-104.472657 104.472656 20 19.996094c4.292969 4.292968 2.199219 11.664062-3.726562 13.128906l-110.167969 27.25c-5.695312 1.40625-10.8125-3.707032-9.402344-9.402344l27.25-110.167969c1.464844-5.925781 8.835938-8.019531 13.128906-3.726562l19.996094 20 104.472656-104.472657c1.996094-1.996093 5.230469-1.996093 7.226563 0l35.695313 35.695313c1.996093 1.996094 1.996093 5.230469 0 7.226563zm0 0" fill="#fff7ee"/><path d="m63.734375 444.175781c-.628906-1.46875-.820313-3.167969-.386719-4.925781l27.25-110.167969c1.464844-5.925781 8.835938-8.019531 13.128906-3.726562l19.996094 20 104.472656-104.472657c1.996094-1.996093 5.230469-1.996093 7.226563 0l15.804687 15.804688zm0 0" fill="#fff1b8"/></svg>