<svg height="512pt" viewBox="-6 0 512 512.00023" width="512pt" xmlns="http://www.w3.org/2000/svg"><path d="m500.757812 250.378906c0 138.28125-112.097656 250.378906-250.378906 250.378906-138.332031 0-250.925781-113.058593-250.37499975-251.390624.41796875-105.476563 66.05859375-195.554688 158.67968775-232.027344 5.773437-2.273438 12.152344-2.566406 18.082031-.746094 23.273437 7.152344 47.992187 11.015625 73.613281 11.015625s50.339844-3.859375 73.613282-11.015625c5.9375-1.824219 12.320312-1.523438 18.097656.753906 92.910156 36.59375 158.667968 127.125 158.667968 233.03125zm0 0" fill="#8fd5e5"/><path d="m500.757812 250.378906c0 12.167969-.886718 24.128906-2.5625 35.832032l-58.492187 27.527343c-2.753906 1.296875-5.945313 1.296875-8.703125 0l-76.644531-36.070312c-3.582031-1.6875-5.867188-5.289063-5.867188-9.246094v-136.589844c0-5.644531 4.574219-10.21875 10.21875-10.21875h106.433594c22.609375 37.625 35.617187 81.675781 35.617187 128.765625zm-358.707031-128.765625h-106.429687c-22.609375 37.625-35.621094 81.675781-35.621094 128.765625 0 12.167969.886719 24.128906 2.5625 35.832032l58.492188 27.527343c2.753906 1.296875 5.945312 1.296875 8.703124 0l76.644532-36.070312c3.582031-1.6875 5.871094-5.289063 5.871094-9.246094v-136.589844c0-5.644531-4.578126-10.21875-10.222657-10.21875zm0 0" fill="#e1ebf0"/><path d="m488.457031 172.710938h-139.96875v-20.441407h132.308594c2.84375 6.671875 5.394531 13.492188 7.660156 20.441407zm-476.15625 0h139.972657v-20.441407h-132.3125c-2.84375 6.671875-5.394532 13.492188-7.660157 20.441407zm0 0" fill="#b4d2d7"/><path d="m337.191406 33.046875-54.015625 54.015625c13.65625 2.535156 24.207031 14.128906 24.984375 28.472656l17.332032 319.238282c.324218 5.992187-2.003907 11.828124-6.363282 15.953124l-61.820312 58.476563c-3.902344 3.691406-9.996094 3.734375-13.945313.09375l-63.515625-58.5c-4.515625-4.160156-6.921875-10.128906-6.554687-16.257813l19.148437-319.175781c.859375-14.324219 11.457032-25.851562 25.113282-28.324219l-53.988282-53.992187c-4.203125-4.203125-6.171875-9.78125-5.945312-15.289063 27.261718-10.882812 56.878906-17.117187 87.878906-17.710937 1.621094-.03125 68.949219 6.257813 97.636719 17.707031.226562 5.507813-1.742188 11.089844-5.945313 15.292969zm0 0" fill="#0573cd"/><path d="m326.007812 434.253906c.328126 5.996094-2 11.828125-6.363281 15.957032l-20.242187 19.175781-59.773438-55.054688c-4.515625-4.15625-6.921875-10.128906-6.554687-16.257812l17.148437-285.800781c.867188-14.453126 12.84375-25.734376 27.324219-25.734376 16.289063 0 30.25 12.214844 31.132813 28.480469zm-75.628906-434.253906c-1.632812 0-3.257812.03125-4.878906.0625l-4.082031 4.078125c-7.980469 7.984375-7.980469 20.925781 0 28.90625l33.433593 33.433594c7.980469 7.984375 20.925782 7.984375 28.90625 0l33.433594-33.433594c4.203125-4.207031 6.171875-9.785156 5.945313-15.292969-28.6875-11.449218-59.984375-17.753906-92.757813-17.753906zm0 0" fill="#4691db"/><path d="m377.101562 300.457031c0 42.328125-34.316406 76.644531-76.644531 76.644531-42.332031 0-76.648437-34.316406-76.648437-76.644531 0-42.332031 34.316406-76.648437 76.648437-76.648437 42.328125 0 76.644531 34.316406 76.644531 76.648437zm0 0" fill="#ffc97b"/><path d="m321.359375 374.191406c-6.648437 1.882813-13.65625 2.910156-20.902344 2.910156-42.332031 0-76.648437-34.316406-76.648437-76.644531 0-42.332031 34.316406-76.648437 76.648437-76.648437 7.246094 0 14.253907 1.027344 20.902344 2.910156-32.167969 9.101562-55.742187 38.65625-55.742187 73.738281 0 35.078125 23.574218 64.632813 55.742187 73.734375zm0 0" fill="#f9b65d"/><path d="m310.675781 282.570312v45.988282c0 2.820312-2.289062 5.109375-5.109375 5.109375h-10.222656c-2.820312 0-5.109375-2.289063-5.109375-5.109375v-45.988282c0-2.820312 2.289063-5.109374 5.109375-5.109374h10.222656c2.820313 0 5.109375 2.289062 5.109375 5.109374zm-35.769531 15.328126h-10.21875c-2.824219 0-5.109375 2.289062-5.109375 5.113281v25.546875c0 2.820312 2.285156 5.109375 5.109375 5.109375h10.21875c2.820312 0 5.109375-2.289063 5.109375-5.109375v-25.546875c0-2.824219-2.289063-5.113281-5.109375-5.113281zm61.316406-30.65625h-10.21875c-2.820312 0-5.109375 2.289062-5.109375 5.109374v56.207032c0 2.820312 2.289063 5.109375 5.109375 5.109375h10.21875c2.824219 0 5.109375-2.289063 5.109375-5.109375v-56.207032c0-2.820312-2.285156-5.109374-5.109375-5.109374zm0 0" fill="#fff1b8"/></svg>