<svg height="512pt" viewBox="-6 0 512 512" width="512pt" xmlns="http://www.w3.org/2000/svg"><path d="m500.757812 261.621094c0 138.28125-112.097656 250.378906-250.378906 250.378906s-250.378906-112.097656-250.378906-250.378906 112.097656-250.378906 250.378906-250.378906 250.378906 112.097656 250.378906 250.378906zm0 0" fill="#7cc971"/><path d="m429.222656 388.855469h-357.6875c-11.285156 0-20.4375-9.152344-20.4375-20.441407v-227.382812c0-11.289062 9.152344-20.441406 20.4375-20.441406h357.6875c11.289063 0 20.4375 9.152344 20.4375 20.441406v227.382812c0 11.289063-9.148437 20.441407-20.4375 20.441407zm0 0" fill="#fff1b8"/><path d="m429.222656 388.855469h-327.027344c-11.289062 0-20.4375-9.152344-20.4375-20.441407v-227.042968c0-11.289063 9.148438-20.441406 20.4375-20.441406h327.027344c11.289063 0 20.4375 9.152343 20.4375 20.441406v227.042968c0 11.289063-9.148437 20.441407-20.4375 20.441407zm0 0" fill="#fff7ee"/><path d="m449.660156 82.265625v60.296875h-398.5625c-.265625-4.738281 0-20.4375 0-20.4375v-39.859375c0-11.285156 9.152344-20.4375 20.4375-20.4375h357.6875c11.289063 0 20.4375 9.152344 20.4375 20.4375zm0 0" fill="#f43b5f"/><path d="m80.734375 142.5625v-60.296875c0-11.285156 9.152344-20.4375 20.4375-20.4375h328.050781c11.289063 0 20.4375 9.152344 20.4375 20.4375v60.296875zm0 0" fill="#ff5284"/><path d="m150.226562 25.550781v76.644531c0 5.644532-4.574218 10.21875-10.21875 10.21875h-30.660156c-5.644531 0-10.21875-4.574218-10.21875-10.21875v-76.644531c0-14.113281 11.441406-25.550781 25.550782-25.550781 14.109374 0 25.546874 11.4375 25.546874 25.550781zm225.851563-25.550781c-14.109375 0-25.546875 11.4375-25.546875 25.550781v76.644531c0 5.644532 4.574219 10.21875 10.21875 10.21875h30.660156c5.644532 0 10.21875-4.574218 10.21875-10.21875v-76.644531c0-14.113281-11.4375-25.550781-25.550781-25.550781zm0 0" fill="#ffdc85"/><path d="m150.226562 25.550781v76.644531c0 5.644532-4.574218 10.21875-10.21875 10.21875h-8.175781c-5.644531 0-10.21875-4.574218-10.21875-10.21875v-76.644531c0-10.078125 5.832031-18.789062 14.308594-22.945312 8.472656 4.15625 14.304687 12.867187 14.304687 22.945312zm237.09375-22.945312c-8.472656 4.15625-14.304687 12.867187-14.304687 22.945312v76.644531c0 5.644532 4.574219 10.21875 10.21875 10.21875h8.175781c5.644532 0 10.21875-4.574218 10.21875-10.21875v-76.644531c0-10.078125-5.835937-18.789062-14.308594-22.945312zm0 0" fill="#fff1b8"/><path d="m194.171875 189.0625v30.65625c0 2.824219-2.289063 5.113281-5.109375 5.113281h-81.757812c-2.820313 0-5.109376-2.289062-5.109376-5.113281v-30.65625c0-2.820312 2.289063-5.109375 5.109376-5.109375h81.757812c2.820312 0 5.109375 2.289063 5.109375 5.109375zm219.71875-5.109375h-81.753906c-2.824219 0-5.109375 2.289063-5.109375 5.109375v30.65625c0 2.824219 2.285156 5.113281 5.109375 5.113281h81.753906c2.824219 0 5.113281-2.289062 5.113281-5.113281v-30.65625c0-2.820312-2.289062-5.109375-5.113281-5.109375zm-224.828125 61.316406h-81.757812c-2.820313 0-5.109376 2.289063-5.109376 5.109375v30.660156c0 2.820313 2.289063 5.109376 5.109376 5.109376h81.757812c2.820312 0 5.109375-2.289063 5.109375-5.109376v-30.660156c0-2.820312-2.289063-5.109375-5.109375-5.109375zm112.414062 0h-81.757812c-2.820312 0-5.109375 2.289063-5.109375 5.109375v30.660156c0 2.820313 2.289063 5.109376 5.109375 5.109376h81.757812c2.820313 0 5.109376-2.289063 5.109376-5.109376v-30.660156c0-2.820312-2.289063-5.109375-5.109376-5.109375zm112.414063 0h-81.753906c-2.824219 0-5.109375 2.289063-5.109375 5.109375v30.660156c0 2.820313 2.285156 5.109376 5.109375 5.109376h81.753906c2.824219 0 5.113281-2.289063 5.113281-5.109376v-30.660156c0-2.820312-2.289062-5.109375-5.113281-5.109375zm0 0" fill="#fff1b8"/><path d="m194.171875 311.695312v30.660157c0 2.820312-2.289063 5.109375-5.109375 5.109375h-81.757812c-2.820313 0-5.109376-2.289063-5.109376-5.109375v-30.660157c0-2.820312 2.289063-5.109374 5.109376-5.109374h81.757812c2.820312 0 5.109375 2.289062 5.109375 5.109374zm107.304687-127.742187h-81.757812c-2.820312 0-5.109375 2.289063-5.109375 5.109375v30.65625c0 2.824219 2.289063 5.113281 5.109375 5.113281h81.757812c2.820313 0 5.109376-2.289062 5.109376-5.113281v-30.65625c0-2.820312-2.289063-5.109375-5.109376-5.109375zm0 0" fill="#ffdc85"/><path d="m469.078125 367.902344c0 73.375-59.480469 132.855468-132.855469 132.855468-73.371094 0-132.851562-59.480468-132.851562-132.855468 0-73.371094 59.480468-132.851563 132.851562-132.851563 73.375 0 132.855469 59.480469 132.855469 132.851563zm0 0" fill="#0573cd"/><path d="m469.078125 367.902344c0 67.78125-50.757813 123.699218-116.332031 131.835937-65.578125-8.136719-116.332032-64.054687-116.332032-131.835937 0-67.777344 50.753907-123.695313 116.332032-131.832032 65.574218 8.136719 116.332031 64.054688 116.332031 131.832032zm0 0" fill="#4691db"/><path d="m428.199219 367.902344c0 50.800781-41.179688 91.976562-91.976563 91.976562s-91.976562-41.175781-91.976562-91.976562c0-50.796875 41.179687-91.972656 91.976562-91.972656s91.976563 41.175781 91.976563 91.972656zm0 0" fill="#e1ebf0"/><path d="m346.441406 265.855469v108.179687c0 1.128906-.914062 2.042969-2.042968 2.042969h-16.351563c-1.128906 0-2.042969-.914063-2.042969-2.042969v-108.179687c0-7.945313 3.15625-15.566407 8.773438-21.183594.800781-.800781 2.09375-.800781 2.890625 0 5.621093 5.617187 8.773437 13.238281 8.773437 21.183594zm0 0" fill="#ff5284"/><path d="m394.152344 378.125h-78.863282c-1.128906 0-2.046874-.914062-2.046874-2.046875v-16.347656c0-1.132813.917968-2.046875 2.046874-2.046875h78.863282c7.945312 0 15.566406 3.15625 21.183594 8.777344.800781.796874.800781 2.089843 0 2.886718-5.617188 5.621094-13.234376 8.777344-21.183594 8.777344zm0 0" fill="#f43b5f"/><path d="m366.882812 367.902344c0 16.933594-13.726562 30.660156-30.660156 30.660156s-30.65625-13.726562-30.65625-30.660156c0-16.929688 13.722656-30.65625 30.65625-30.65625s30.660156 13.726562 30.660156 30.65625zm-102.195312-10.21875c-5.644531 0-10.21875 4.578125-10.21875 10.21875 0 5.644531 4.574219 10.222656 10.21875 10.222656s10.21875-4.578125 10.21875-10.222656c0-5.640625-4.574219-10.21875-10.21875-10.21875zm129.347656-33.136719c3.988282-3.992187 3.988282-10.464844 0-14.453125-3.992187-3.992188-10.460937-3.992188-14.453125 0-3.992187 3.988281-3.992187 10.460938 0 14.453125 3.992188 3.992187 10.460938 3.992187 14.453125 0zm-115.621094 86.714844c-3.992187 3.992187-3.992187 10.460937 0 14.453125 3.988282 3.988281 10.460938 3.988281 14.449219 0 3.992188-3.992188 3.992188-10.460938 0-14.453125-3.988281-3.992188-10.460937-3.992188-14.449219 0zm101.167969 0c-3.992187 3.992187-3.992187 10.460937 0 14.453125 3.988281 3.988281 10.460938 3.988281 14.453125 0 3.988282-3.992188 3.988282-10.460938 0-14.453125-3.992187-3.992188-10.460937-3.992188-14.453125 0zm-101.167969-101.167969c-3.992187 3.988281-3.992187 10.460938 0 14.453125 3.988282 3.988281 10.460938 3.988281 14.449219 0 3.992188-3.992187 3.992188-10.464844 0-14.453125-3.988281-3.992188-10.460937-3.992188-14.449219 0zm57.808594 119.128906c-5.644531 0-10.21875 4.574219-10.21875 10.21875 0 5.644532 4.574219 10.21875 10.21875 10.21875 5.644532 0 10.21875-4.574218 10.21875-10.21875 0-5.644531-4.574218-10.21875-10.21875-10.21875zm0 0" fill="#9bb9c3"/><path d="m351.554688 367.902344c0 8.46875-6.867188 15.332031-15.332032 15.332031s-15.328125-6.863281-15.328125-15.332031c0-8.464844 6.863281-15.328125 15.328125-15.328125s15.332032 6.863281 15.332032 15.328125zm0 0" fill="#738c96"/></svg>