<svg height="512pt" viewBox="-11 0 512 512" width="512pt" xmlns="http://www.w3.org/2000/svg"><path d="m490 256c0 135.308594-109.691406 245-245 245s-245-109.691406-245-245 109.691406-245 245-245 245 109.691406 245 245zm0 0" fill="#fadeb9"/><path d="m414 248.710938h-271.9375c-8.28125 0-15-6.71875-15-15v-161.292969c0-8.28125 6.71875-15 15-15h271.9375c8.285156 0 15 6.71875 15 15v161.292969c0 8.28125-6.714844 15-15 15zm0 0" fill="#dca050"/><path d="m429 72.417969v345.355469c-14.160156 16.097656-30.375 30.296874-48.273438 42.226562h-213.5c-8.285156 0-15-6.714844-15-15v-372.582031c0-8.28125 6.714844-15 15-15h246.773438c8.285156 0 15 6.71875 15 15zm0 0" fill="#ebae56"/><path d="m387.097656 430h-218.128906c-2.761719 0-5-2.238281-5-5v-327.742188c0-2.761718 2.238281-5 5-5h218.128906c2.761719 0 5 2.238282 5 5v327.742188c0 2.761719-2.238281 5-5 5zm0 0" fill="#fff5f5"/><path d="m358.546875 70h-161.03125c-8.09375 0-14.675781 6.585938-14.675781 14.675781v16.773438c0 12.71875 10.347656 23.066406 23.0625 23.066406h144.257812c12.71875 0 23.066406-10.347656 23.066406-23.066406v-16.773438c0-8.089843-6.585937-14.675781-14.679687-14.675781zm2.097656 31.453125c0 5.78125-4.703125 10.484375-10.484375 10.484375h-144.257812c-5.78125 0-10.484375-4.703125-10.484375-10.484375v-16.777344c0-1.15625.941406-2.097656 2.097656-2.097656h161.03125c1.15625 0 2.097656.941406 2.097656 2.097656zm0 0" fill="#235967"/><path d="m333.386719 50.324219v33.546875c0 4.632812-3.753907 8.386718-8.386719 8.386718h-93.9375c-4.628906 0-8.386719-3.753906-8.386719-8.386718v-33.546875c0-4.632813 3.757813-8.386719 8.386719-8.386719h25.164062v-20.132812c0-12.042969 9.761719-21.804688 21.804688-21.804688s21.808594 9.761719 21.808594 21.804688v20.128906h25.160156c4.632812.003906 8.386719 3.757812 8.386719 8.390625zm0 0" fill="#458fa4"/><path d="m333.386719 50.324219v33.546875c0 4.632812-3.753907 8.386718-8.386719 8.386718h-77.160156c-4.632813 0-8.386719-3.753906-8.386719-8.386718v-19.136719c0-5.640625 4.574219-10.21875 10.21875-10.21875h33.8125c3.539063 0 6.394531-2.921875 6.285156-6.484375-.101562-3.441406-3.105469-6.097656-6.550781-6.097656-5.644531 0-10.21875-4.574219-10.21875-10.21875v-9.910156c0-9.070313 5.539062-16.84375 13.417969-20.132813 7.882812 3.289063 13.421875 11.0625 13.421875 20.132813v20.128906h25.160156c4.632812.003906 8.386719 3.757812 8.386719 8.390625zm0 0" fill="#649eb0"/><path d="m290.613281 20.96875c0 6.945312-5.632812 12.582031-12.582031 12.582031-6.945312 0-12.582031-5.636719-12.582031-12.582031 0-6.949219 5.636719-12.582031 12.582031-12.582031 6.949219 0 12.582031 5.632812 12.582031 12.582031zm0 0" fill="#95bcc9"/><path d="m185.058594 186.855469v-9.710938c0-1.105469.894531-2 2-2h81.941406c1.105469 0 2 .894531 2 2v9.710938c0 1.105469-.894531 2-2 2h-81.941406c-1.105469 0-2-.894531-2-2zm2-23.140625h118.511718c1.105469 0 2-.898438 2-2v-9.714844c0-1.105469-.894531-2-2-2h-118.511718c-1.105469 0-2 .894531-2 2v9.714844c0 1.105468.894531 2 2 2zm0 89.882812h111.941406c1.105469 0 2-.894531 2-2v-9.714844c0-1.105468-.894531-2-2-2h-111.941406c-1.105469 0-2 .894532-2 2v9.714844c0 1.101563.894531 2 2 2zm133.371094 11.425782h-133.371094c-1.105469 0-2 .898437-2 2v9.714843c0 1.105469.894531 2 2 2h133.371094c1.101562 0 2-.894531 2-2v-9.714843c0-1.101563-.898438-2-2-2zm-10 64.859374h-123.371094c-1.105469 0-2 .894532-2 2v9.714844c0 1.105469.894531 2 2 2h123.371094c1.101562 0 2-.894531 2-2v-9.714844c0-1.105468-.898438-2-2-2zm-21.429688 25.140626h-101.941406c-1.105469 0-2 .898437-2 2v9.714843c0 1.105469.894531 2 2 2h101.941406c1.105469 0 2-.894531 2-2v-9.714843c0-1.101563-.894531-2-2-2zm0 0" fill="#f9d19a"/><path d="m331.15625 165.308594c-3.074219-3.371094-2.832031-8.59375.539062-11.667969 3.371094-3.078125 8.59375-2.835937 11.671876.535156l18.40625 20.179688 38-41.660157c3.078124-3.371093 8.300781-3.613281 11.671874-.539062 3.371094 3.078125 3.613282 8.304688.539063 11.671875l-44.105469 48.355469c-1.566406 1.714844-3.78125 2.695312-6.105468 2.695312-2.324219 0-4.539063-.980468-6.105469-2.695312zm68.621094 52.507812-38.003906 41.660156-18.40625-20.179687c-3.074219-3.371094-8.300782-3.609375-11.671876-.535156-3.371093 3.074219-3.609374 8.300781-.535156 11.671875l24.511719 26.871094c1.566406 1.71875 3.78125 2.695312 6.101563 2.695312 2.324218 0 4.539062-.976562 6.105468-2.695312l44.105469-48.351563c3.074219-3.371094 2.835937-8.597656-.535156-11.671875-3.371094-3.074219-8.597657-2.835938-11.671875.535156zm0 90-38.003906 41.660156-18.40625-20.179687c-3.074219-3.371094-8.300782-3.609375-11.671876-.535156-3.371093 3.074219-3.609374 8.300781-.535156 11.671875l24.511719 26.871094c1.566406 1.71875 3.78125 2.695312 6.101563 2.695312 2.324218 0 4.539062-.976562 6.105468-2.695312l44.105469-48.351563c3.074219-3.371094 2.835937-8.597656-.535156-11.671875-3.371094-3.074219-8.597657-2.835938-11.671875.535156zm0 0" fill="#49cb5c"/><path d="m144.742188 508.859375-97.824219-159.441406c-29.355469-47.84375-22.0625-109.578125 17.628906-149.269531 47.390625-47.390626 124.226563-47.390626 171.617187 0 39.691407 39.691406 46.980469 101.425781 17.625 149.269531l-97.820312 159.441406c-2.570312 4.1875-8.65625 4.1875-11.226562 0zm0 0" fill="#0cc33c"/><path d="m168.84375 487.871094-84.949219-138.453125c-29.355469-47.84375-22.0625-109.578125 17.628907-149.269531 18.976562-18.976563 42.679687-30.347657 67.320312-34.125 24.640625 3.777343 48.339844 15.148437 67.320312 34.125 39.691407 39.691406 46.980469 101.425781 17.625 149.269531zm0 0" fill="#49cb5c"/><path d="m150.355469 199.761719c-48.207031 0-87.289063 39.082031-87.289063 87.289062s39.082032 87.285157 87.289063 87.285157 87.285156-39.078126 87.285156-87.285157-39.078125-87.289062-87.285156-87.289062zm0 145.480469c-32.136719 0-58.191407-26.054688-58.191407-58.191407 0-32.140625 26.050782-58.195312 58.191407-58.195312 32.136719 0 58.191406 26.054687 58.191406 58.195312 0 32.136719-26.054687 58.191407-58.191406 58.191407zm36.367187-58.191407c0 20.085938-16.28125 36.367188-36.367187 36.367188-20.089844 0-36.371094-16.28125-36.371094-36.367188 0-20.089843 16.28125-36.371093 36.371094-36.371093 20.085937 0 36.367187 16.285156 36.367187 36.371093zm0 0" fill="#8fdc91"/></svg>