<svg height="512pt" viewBox="-6 0 512 512" width="512pt" xmlns="http://www.w3.org/2000/svg"><path d="m0 261.621094c0-138.277344 112.09375-250.375 250.367188-250.378906 137.945312-.007813 250.390624 112.433593 250.390624 250.378906 0 108.117187-68.527343 200.226562-164.515624 235.269531-6.976563 2.542969-14.570313 2.808594-21.75.910156-20.460938-5.402343-41.949219-8.285156-64.113282-8.285156-22.164062 0-43.660156 2.882813-64.125 8.289063-7.136718 1.886718-14.691406 1.652343-21.625-.875-96.046875-35.007813-164.628906-127.148438-164.628906-235.308594zm0 0" fill="#b0dde9"/><path d="m500.707031 265.707031c-.167969 10.386719-.964843 20.617188-2.359375 30.660157h-85.476562c-8.464844 0-15.332032-6.863282-15.332032-15.328126 0-8.46875 6.867188-15.332031 15.332032-15.332031zm-149.152343-40.875h102.195312c8.464844 0 15.328125-6.863281 15.328125-15.332031 0-8.464844-6.863281-15.328125-15.328125-15.328125h-102.195312c-8.46875 0-15.332032 6.863281-15.332032 15.328125 0 8.46875 6.863282 15.332031 15.332032 15.332031zm76.644531 163.511719c0-5.644531 4.574219-10.21875 10.21875-10.21875h5.109375c8.46875 0 15.332031-6.863281 15.332031-15.332031 0-8.464844-6.863281-15.328125-15.332031-15.328125h-153.292969c-8.464844 0-15.328125 6.863281-15.328125 15.328125 0 8.46875 6.863281 15.332031 15.328125 15.332031h107.308594c5.640625 0 10.21875 4.574219 10.21875 10.21875s-4.578125 10.21875-10.222657 10.21875h-5.109374c-8.464844 0-15.328126 6.863281-15.328126 15.328125 0 8.46875 6.863282 15.332031 15.328126 15.332031h43.949218c8.636719-9.578125 16.535156-19.828125 23.625-30.660156h-21.585937c-5.644531 0-10.21875-4.574219-10.21875-10.21875zm-388.34375-148.183594c0 8.464844 6.863281 15.328125 15.332031 15.328125h102.195312c8.464844 0 15.328126-6.863281 15.328126-15.328125s-6.863282-15.328125-15.328126-15.328125h-102.195312c-8.46875 0-15.332031 6.863281-15.332031 15.328125zm20.441406-81.757812c0-8.464844-6.863281-15.328125-15.332031-15.328125h-15.167969c-5.300781 9.839843-9.953125 20.082031-13.917969 30.660156h29.085938c8.46875 0 15.332031-6.867187 15.332031-15.332031zm158.402344 189.0625h-107.308594c-5.640625 0-10.21875-4.574219-10.21875-10.21875 0-5.644532 4.578125-10.21875 10.222656-10.21875h5.109375c8.464844 0 15.328125-6.863282 15.328125-15.332032 0-8.464843-6.863281-15.328124-15.328125-15.328124h-114.09375c1.449219 10.4375 3.542969 20.671874 6.238282 30.660156h61.867187c5.644531 0 10.21875 4.574218 10.21875 10.21875 0 5.644531-4.574219 10.21875-10.21875 10.21875h-5.109375c-8.46875 0-15.332031 6.863281-15.332031 15.328125 0 8.46875 6.863281 15.332031 15.332031 15.332031h153.292969c8.464843 0 15.328125-6.863281 15.328125-15.332031 0-8.464844-6.863282-15.328125-15.328125-15.328125zm0 0" fill="#8ed0e1"/><path d="m413.039062 163.511719c0 89.835937-72.824218 162.664062-162.660156 162.664062-89.835937 0-162.660156-72.828125-162.660156-162.664062 0-89.832031 72.824219-162.660157 162.660156-162.660157 89.835938 0 162.660156 72.828126 162.660156 162.660157zm0 0" fill="#fdf061"/><path d="m256.1875.117188v-.003907c-.042969 0-.082031 0-.121094 0-.75-.0273435-4.535156-.113281-5.6875-.113281-1.148437 0-4.9375.0859375-5.6875.109375-.039062.003906-.082031.003906-.121094.003906-87.613281 3.0625-157.703124 75.039063-157.703124 163.398438 0 88.363281 70.089843 160.339843 157.703124 163.398437.042969.003906.082032.003906.121094.003906.75.027344 4.539063.109376 5.6875.109376 1.152344 0 5.765625-.109376 5.808594-.113282 87.613281-3.058594 157.703125-75.035156 157.703125-163.398437 0-88.359375-70.089844-160.335938-157.703125-163.394531zm-114.136719 163.394531c0-69.703125 38.640625-129.800781 94.402344-157.472657 1.792969-.890624 3.648437 1.09375 2.667969 2.84375-18.445313 32.929688-30.640625 89.867188-30.640625 154.628907s12.195312 121.699219 30.640625 154.632812c.980468 1.75-.875 3.734375-2.667969 2.839844-55.761719-27.667969-94.402344-87.769531-94.402344-157.472656zm122.253907 157.472656c-1.792969.894531-3.648438-1.089844-2.667969-2.839844 18.445312-32.933593 30.644531-89.871093 30.644531-154.632812s-12.199219-121.699219-30.644531-154.628907c-.980469-1.75.875-3.734374 2.667969-2.84375 55.761718 27.671876 94.402343 87.769532 94.402343 157.472657s-38.640625 129.804687-94.402343 157.472656zm0 0" fill="#fd5757"/><path d="m250.214844 327.023438c-90.230469-.089844-163.347656-73.257813-163.347656-163.511719 0-90.25 73.117187-163.4218752 163.347656-163.50781275-63.0625 24.09765575-108.164063 88.20312475-108.164063 163.50781275 0 75.308593 45.101563 139.410156 108.164063 163.511719zm0 0" fill="#fd4343"/><path d="m74.707031 152.082031c2.125-5.230469 8.089844-7.742187 13.316407-5.617187 89.523437 36.40625 235.1875 36.40625 324.710937 0 5.234375-2.125 11.191406.390625 13.316406 5.617187 2.125 5.226563-.386719 11.1875-5.617187 13.316407-13.648438 5.550781-28.628906 10.347656-44.625 14.359374-17.851563 83.261719-34.621094 160.066407-55.242188 217.574219-4.222656 11.785157-8.796875 22.269531-12.789062 31.890625-2.582032 6.226563-5.027344 12.03125-7.402344 17.371094h-21.371094c2.554688-4.804688 5.335938-10.523438 8.335938-17.371094 5.347656-12.207031 10.230468-27.789062 17.273437-48.113281 18.503907-53.378906 33.398438-122.429687 49.25-196.476563-31.964843 6.242188-67.136719 9.539063-103.484375 9.539063-37.0625 0-72.894531-3.429687-105.359375-9.910156 16.082031 74.183593 32.589844 143.378906 51.125 196.847656 7.058594 20.363281 11.070313 35.898437 16.421875 48.113281 3 6.84375 6.027344 12.566406 8.621094 17.371094h-21.304688c-2.558593-5.332031-5.167968-11.136719-7.757812-17.371094-3.980469-9.601562-7.71875-20.132812-11.9375-31.890625-20.65625-57.617187-39.1875-134.613281-57.15625-218.058593-15.277344-3.910157-29.605469-8.546876-42.707031-13.875-5.230469-2.128907-7.742188-8.089844-5.617188-13.316407zm0 0" fill="#235967"/><path d="m337.246094 444.550781v51.960938c-27.0625 10.011719-56.324219 15.488281-86.867188 15.488281-30.542968 0-59.804687-5.476562-86.867187-15.488281v-51.960938c0-8.464843 6.863281-15.328125 15.332031-15.328125h143.074219c8.464843 0 15.328125 6.863282 15.328125 15.328125zm0 0" fill="#dca050"/><path d="m337.246094 444.550781v51.960938c-27.0625 10.011719-56.324219 15.488281-86.867188 15.488281-19.691406 0-38.847656-2.28125-57.230468-6.578125v-60.871094c0-8.464843 6.863281-15.328125 15.332031-15.328125h113.4375c8.464843 0 15.328125 6.863282 15.328125 15.328125zm0 0" fill="#ebae56"/><path d="m192.128906 429.222656h20.4375v79.9375c-6.910156-1.046875-13.722656-2.386718-20.4375-3.988281zm95.210938 0v80.054688c6.910156-1.019532 13.726562-2.324219 20.441406-3.898438v-76.15625zm0 0" fill="#328091"/></svg>