<svg height="511pt" viewBox="0 -10 511.99973 511" width="511pt" xmlns="http://www.w3.org/2000/svg"><path d="m11 245.5c0-135.308594 109.691406-245 245-245 134.960938 0 245.988281 111.882812 244.992188 246.84375-.773438 105.277344-67.957032 194.757812-161.734376 228.636719-9.054687 3.269531-18.878906 3.875-28.261718 1.722656-17.679688-4.054687-36.085938-6.203125-54.996094-6.203125-18.90625 0-37.308594 2.144531-54.984375 6.203125-9.589844 2.199219-19.605469 1.4375-28.851563-1.929687-94.019531-34.238282-161.164062-124.410157-161.164062-230.273438zm0 0" fill="#69c3da"/><path d="m399.980469 394.5c0 8.285156-6.714844 15-15 15h-80c-8.285157 0-15-6.714844-15-15s6.714843-15 15-15h80c8.285156 0 15 6.714844 15 15zm65.96875-275h-15.96875c-5.523438 0-10-4.476562-10-10s4.476562-10 10-10h2.539062c-7.980469-10.707031-16.796875-20.734375-26.375-30h-71.164062c-8.285157 0-15 6.714844-15 15s6.714843 15 15 15h55c5.523437 0 10 4.476562 10 10s-4.476563 10-10 10h-125c-8.285157 0-15 6.714844-15 15s6.714843 15 15 15h196.34375c-4.445313-10.386719-9.589844-20.40625-15.375-30zm-160.96875 140c-8.285157 0-15 6.714844-15 15s6.714843 15 15 15h80c8.285156 0 15-6.714844 15-15s-6.714844-15-15-15zm-205-115c0 8.285156 6.714843 15 15 15h80c8.285156 0 15-6.714844 15-15s-6.714844-15-15-15h-80c-8.285157 0-15 6.714844-15 15zm80-60c0-8.285156-6.714844-15-15-15h-79.414063c-9.566406 9.261719-18.382812 19.292969-26.339844 30h105.753907c8.285156 0 15-6.714844 15-15zm35 215h-198.027344c2.308594 10.257812 5.257813 20.273438 8.808594 30h44.21875c5.523437 0 10 4.476562 10 10s-4.476563 10-10 10h-35.894531c4.894531 10.417969 10.503906 20.445312 16.761718 30h94.132813c8.285156 0 15-6.714844 15-15s-6.714844-15-15-15h-35c-5.523438 0-10-4.476562-10-10s4.476562-10 10-10h105c8.285156 0 15-6.714844 15-15s-6.714844-15-15-15zm150 10c-8.285157 0-15 6.714844-15 15s6.714843 15 15 15h117.335937c4.035156-9.699219 7.421875-19.71875 10.199219-30zm0 0" fill="#8ed0e1"/><path d="m341 394.5v80c0 .289062-.027344.574219-.042969.859375-19.875 7.351563-142.03125 8.460937-144.703125 7.792969-8.589844-2.152344-17.003906-4.757813-25.210937-7.792969-.015625-.285156-.042969-.570313-.042969-.859375v-80c0-8.285156 6.71875-15 15-15h140c8.285156 0 15 6.714844 15 15zm0 0" fill="#f52c2c"/><path d="m341 394.5v80.84375c-26.480469 9.796875-55.113281 15.15625-85 15.15625-19.269531 0-38.015625-2.230469-56-6.4375v-89.5625c0-8.285156 6.714844-15 15-15h111c8.285156 0 15 6.714844 15 15zm0 0" fill="#fd5757"/><path d="m315.742188 408.710938v74.4375c-6.429688 1.664062-13.054688 3.058593-20 4.125v-78.5625c0-18.304688-2.933594-36.394532-8.722657-53.761719l-20.765625-62.289063 18.976563-6.324218 20.761719 62.289062c6.46875 19.410156 9.75 39.625 9.75 60.085938zm-109.734376-60.085938c-6.472656 19.410156-9.75 39.625-9.75 60.085938v74.4375c3.492188 1.058593 16.136719 3.664062 20 4.125v-78.5625c0-18.304688 2.933594-36.394532 8.722657-53.761719l20.761719-62.289063-18.972657-6.324218zm0 0" fill="#235967"/><path d="m238 169.5h-30l30-130h36l30 130zm-216.417969 12.40625-16.164062-1.308594c-4.636719-.375-7.230469 5.230469-3.941407 8.519532 19.585938 19.582031 45.625 31.375 73.261719 33.175781l177.121094 11.539062v-48.667969h-149.589844c-26.925781.003907-53.847656-1.085937-80.6875-3.257812zm485-1.308594-16.164062 1.308594c-26.84375 2.171875-53.761719 3.261719-80.691407 3.261719h-149.589843v48.664062l177.125-11.539062c27.636719-1.800781 53.675781-13.59375 73.257812-33.175781 3.292969-3.289063.699219-8.894532-3.9375-8.519532zm0 0" fill="#ffdf8e"/><path d="m191.5 29.5h110c5.523438 0 10 4.476562 10 10 0 16.570312-13.429688 30-30 30h-70c-16.570312 0-30-13.429688-30-30 0-5.523438 4.476562-10 10-10zm178.136719 176.363281v-13.636719c0-40.164062-32.5625-72.726562-72.726563-72.726562h-81.820312c-40.164063 0-72.726563 32.5625-72.726563 72.726562v13.636719c0 62.757813 50.875 113.636719 113.636719 113.636719s113.636719-50.878906 113.636719-113.636719zm0 0" fill="#fdf7bd"/><path d="m220.5 29.5h100c5.523438 0 10 4.476562 10 10 0 16.570312-13.429688 30-30 30h-60c-16.570312 0-30-13.429688-30-30 0-5.523438 4.476562-10 10-10zm-33.589844 162.726562v13.636719c0 55.136719 39.269532 101.09375 91.363282 111.449219 52.09375-10.355469 91.363281-56.3125 91.363281-111.449219v-13.636719c0-40.164062-32.5625-72.726562-72.726563-72.726562h-37.273437c-40.167969 0-72.726563 32.5625-72.726563 72.726562zm0 0" fill="#fff5f5"/><path d="m319.636719 237.683594h-127.273438c-17.574219 0-31.816406-14.246094-31.816406-31.820313s14.242187-31.816406 31.816406-31.816406h127.273438c17.574219 0 31.816406 14.242187 31.816406 31.816406s-14.246094 31.820313-31.816406 31.820313zm0 0" fill="#649eb0"/><path d="m319.636719 237.683594h-100.910157c-17.574218 0-31.816406-14.246094-31.816406-31.820313s14.242188-31.816406 31.816406-31.816406h100.910157c17.570312 0 31.816406 14.242187 31.816406 31.816406s-14.246094 31.820313-31.816406 31.820313zm0 0" fill="#7daebd"/><path d="m215.089844 174.042969h18.183594v63.636719h-18.183594zm63.636718 0v63.636719h18.183594v-63.636719zm0 0" fill="#95bcc9"/><path d="m71 229.5c0 11.046875-8.953125 20-20 20s-20-8.953125-20-20 8.953125-20 20-20 20 8.953125 20 20zm40-20c-11.046875 0-20 8.953125-20 20s8.953125 20 20 20 20-8.953125 20-20-8.953125-20-20-20zm350 0c-11.046875 0-20 8.953125-20 20s8.953125 20 20 20 20-8.953125 20-20-8.953125-20-20-20zm-60 0c-11.046875 0-20 8.953125-20 20s8.953125 20 20 20 20-8.953125 20-20-8.953125-20-20-20zm0 0" fill="#458fa4"/><path d="m121 229.5c0 5.523438-4.476562 10-10 10s-10-4.476562-10-10 4.476562-10 10-10 10 4.476562 10 10zm-70-10c-5.523438 0-10 4.476562-10 10s4.476562 10 10 10 10-4.476562 10-10-4.476562-10-10-10zm410 0c-5.523438 0-10 4.476562-10 10s4.476562 10 10 10 10-4.476562 10-10-4.476562-10-10-10zm-60 0c-5.523438 0-10 4.476562-10 10s4.476562 10 10 10 10-4.476562 10-10-4.476562-10-10-10zm0 0" fill="#2b6c7e"/></svg>