<svg height="512pt" viewBox="0 0 511 512" width="512pt" xmlns="http://www.w3.org/2000/svg"><path d="m501.25 263.828125c-.960938 111.152344-74.351562 205.015625-175.273438 236.707031-14.9375 4.691406-30.132812-6.515625-30.132812-22.175781 0-106.15625-86.054688-192.210937-192.210938-192.210937h-78.648437c-13.441406 0-24.472656-10.835938-24.484375-24.28125 0-.082032 0-.164063 0-.246094 0-138.28125 112.097656-250.378906 250.378906-250.378906 138.101563 0 251.5625 114.488281 250.371094 252.585937zm0 0" fill="#8ed0e1"/><path d="m400.085938 139.667969v74.941406c0 5.644531-4.578126 10.222656-10.21875 10.222656-5.644532 0-10.222657-4.578125-10.222657-10.222656v-27.25h-19.757812c-9.765625 0-17.714844-7.949219-17.714844-17.714844v-29.976562c0-5.644531 4.578125-10.21875 10.222656-10.21875 5.640625 0 10.21875 4.574219 10.21875 10.21875v27.253906h17.03125v-27.253906c0-5.644531 4.578125-10.21875 10.222657-10.21875 5.640624 0 10.21875 4.574219 10.21875 10.21875zm-95.726563-10.21875c-15.964844 0-28.953125 12.988281-28.953125 28.953125 0 5.644531 4.578125 10.21875 10.21875 10.21875 5.644531 0 10.21875-4.574219 10.21875-10.21875 0-4.695313 3.820312-8.515625 8.515625-8.515625 4.699219 0 8.519531 3.820312 8.519531 8.515625v8.707031c0 2.855469-1.417968 5.503906-3.792968 7.089844l-25.507813 17.003906c-5.117187 3.410156-8.171875 9.121094-8.171875 15.269531 0 10.121094 8.234375 18.355469 18.355469 18.355469h29.335937c5.644532 0 10.21875-4.574219 10.21875-10.21875s-4.574218-10.21875-10.21875-10.21875h-22.457031l19.78125-13.1875c8.074219-5.382813 12.894531-14.390625 12.894531-24.09375v-8.707031c0-15.964844-12.988281-28.953125-28.957031-28.953125zm0 0" fill="#fff5f5"/><path d="m512.496094 180.660156c-.113282 26.441406-5.933594 51.535156-16.292969 74.113282-29.054687 63.335937-93.101563 103.28125-162.785156 103.28125h-82.539063v-82.824219h83.769532c51.589843 0 94.714843-40.558594 96.382812-92.125.03125-.902344.046875-1.808594.050781-2.71875.277344-53.359375-44.242187-98.519531-97.601562-98.964844-47.800781-.402344-87.800781 33.269531-97.195313 78.183594l3.925782 1.050781 23.902343 6.4375c4.164063 1.109375 5.167969 6.558594 1.675781 9.078125l-85.175781 62.511719c-2.617187 1.890625-6.316406.90625-7.648437-2.042969l-47.265625-97.984375c-1.773438-3.925781 1.808593-8.148438 5.972656-7.039062l25.871094 6.972656c18.652343-79.441406 89.957031-138.58593775 175.089843-138.589844 99.519532-.00390625 180.296876 81.136719 179.863282 180.660156zm0 0" fill="#fd4343"/><path d="m512.496094 180.660156c-.113282 26.441406-5.933594 51.535156-16.292969 74.113282-16.386719 35.71875-43.902344 63.996093-77.28125 81.867187-16.992187 4.632813-35.1875-8.171875-35.1875-27.195313v-.835937c0-10.566406 6.007813-20.109375 15.371094-25.011719 34.492187-18.046875 58.550781-63.5625 58.550781-103.734375 0-54.371093-44.078125-98.445312-98.449219-98.445312-4.507812 0-21.585937.035156-25.730469 0-47.796874-.398438-87.796874 33.273437-97.191406 78.1875l3.925782 1.046875 16.078124 4.351562 7.824219 2.085938c4.160157 1.113281 5.167969 6.558594 1.671875 9.082031l-70.519531 51.757813-31.226563-63.074219c-.707031-1.570313.726563-3.261719 2.390626-2.816407l.90625.320313c5.453124 1.457031 11.054687-1.785156 12.507812-7.238281l2.839844-9.820313c15.289062-78.558593 81.695312-138.84375 163.199218-144.8125.039063.003907.074219.003907.109376.007813.933593.070312 1.863281.15625 2.792968.238281.613282.054687 1.226563.101563 1.835938.164063.542968.050781 1.085937.117187 1.632812.175781 90.296875 9.828125 160.644532 86.695312 160.242188 179.585937zm0 0" fill="#fd5757"/><path d="m.5 261.621094c0-.457032.015625-.910156.015625-1.363282.1875-8.308593 6.964844-14.988281 15.3125-14.988281h296.367187c8.46875 0 15.332032 6.863281 15.332032 15.328125v239.140625c0 .097657-.015625.199219-.015625.296875-24.15625 7.757813-49.902344 11.964844-76.632813 11.964844-138.28125 0-250.378906-112.097656-250.378906-250.378906zm0 0" fill="#dca050"/><path d="m327.527344 260.597656v239.140625c0 .097657-.015625.199219-.015625.296875-24.15625 7.757813-49.902344 11.964844-76.632813 11.964844-97.464844 0-181.917968-55.675781-223.28125-136.972656v-114.429688c0-8.464844 6.863282-15.328125 15.328125-15.328125h269.269531c8.46875 0 15.332032 6.863281 15.332032 15.328125zm0 0" fill="#ebae56"/><path d="m170.289062 459.878906v16.9375c0 5.644532-4.574218 10.21875-10.21875 10.21875h-16.933593c-.566407 0-1.113281-.058594-1.652344-.144531-1.832031-.890625-3.648437-1.804687-5.449219-2.734375-1.921875-1.859375-3.121094-4.457031-3.121094-7.339844v-16.9375c0-5.644531 4.578126-10.21875 10.222657-10.21875h16.933593c5.644532 0 10.21875 4.574219 10.21875 10.21875zm-61.609374-10.199218h-16.933594c-1.738282 0-3.375.4375-4.8125 1.207031 9.992187 8.660156 20.683594 16.53125 31.96875 23.542969v-14.527344c0-5.644532-4.578125-10.222656-10.222656-10.222656zm0 0" fill="#ce9047"/><path d="m121.046875 396.136719-8.914063 8.914062c-1.074218 1.074219-2.535156 1.679688-4.054687 1.679688-3.164063 0-5.734375-2.566407-5.734375-5.734375v-155.726563c0-.5625.460938-1.023437 1.023438-1.023437h121.292968c.5625 0 1.019532.460937 1.019532 1.023437v155.726563c0 3.167968-2.566407 5.734375-5.730469 5.734375-1.523438 0-2.980469-.605469-4.054688-1.679688l-8.917969-8.914062c-1.824218-1.824219-4.78125-1.824219-6.605468 0l-6.398438 6.398437c-2.6875 2.6875-6.328125 4.195313-10.128906 4.195313-3.796875 0-7.441406-1.507813-10.128906-4.195313l-6.398438-6.398437c-1.824218-1.824219-4.78125-1.824219-6.605468 0l-6.402344 6.398437c-2.683594 2.6875-6.328125 4.195313-10.125 4.195313-3.800782 0-7.441406-1.507813-10.128906-4.195313l-6.398438-6.398437c-1.824219-1.828125-4.785156-1.828125-6.609375 0zm0 0" fill="#fdf7bd"/><path d="m120.507812 336.371094h91.917969c1.128907 0 2.042969.914062 2.042969 2.042968v9.925782c0 1.128906-.914062 2.046875-2.042969 2.046875h-91.917969c-1.128906 0-2.042968-.917969-2.042968-2.046875v-9.925782c0-1.128906.914062-2.042968 2.042968-2.042968zm-2.042968 27.738281v9.925781c0 1.128906.914062 2.042969 2.042968 2.042969h54.542969c1.128907 0 2.042969-.914063 2.042969-2.042969v-9.925781c0-1.128906-.914062-2.042969-2.042969-2.042969h-54.542969c-1.128906 0-2.042968.914063-2.042968 2.042969zm0 0" fill="#f9d19a"/><path d="m132.476562 266v51.972656c0 1.132813-.914062 2.046875-2.042968 2.046875h-9.925782c-1.128906 0-2.042968-.914062-2.042968-2.046875v-51.972656c0-1.128906.914062-2.042969 2.042968-2.042969h9.925782c1.128906 0 2.042968.914063 2.042968 2.042969zm49.347657-2.042969h-9.925781c-1.128907 0-2.046876.914063-2.046876 2.042969v51.972656c0 1.132813.917969 2.046875 2.046876 2.046875h9.925781c1.128906 0 2.042969-.914062 2.042969-2.046875v-51.972656c0-1.128906-.914063-2.042969-2.042969-2.042969zm-25.695313 0h-9.925781c-1.128906 0-2.042969.914063-2.042969 2.042969v14.601562c0 1.128907.914063 2.042969 2.042969 2.042969h9.925781c1.128906 0 2.042969-.914062 2.042969-2.042969v-14.601562c0-1.128906-.914063-2.042969-2.042969-2.042969zm0 28.03125h-9.925781c-1.128906 0-2.042969.914063-2.042969 2.042969v23.941406c0 1.132813.914063 2.046875 2.042969 2.046875h9.925781c1.128906 0 2.042969-.914062 2.042969-2.046875v-23.941406c0-1.128906-.914063-2.042969-2.042969-2.042969zm51.390625-28.03125h-9.929687c-1.128906 0-2.042969.914063-2.042969 2.042969v33.285156c0 1.132813.914063 2.046875 2.042969 2.046875h9.929687c1.128907 0 2.042969-.914062 2.042969-2.046875v-33.285156c0-1.128906-.914062-2.042969-2.042969-2.042969zm0 46.71875h-9.929687c-1.128906 0-2.042969.914063-2.042969 2.042969v5.253906c0 1.132813.914063 2.046875 2.042969 2.046875h9.929687c1.128907 0 2.042969-.914062 2.042969-2.046875v-5.253906c0-1.128906-.914062-2.042969-2.042969-2.042969zm0 0" fill="#7a8c98"/></svg>