<svg height="512pt" viewBox="-6 0 512 512" width="512pt" xmlns="http://www.w3.org/2000/svg"><path d="m0 261.621094c0-138.101563 111.804688-250.085938 249.835938-250.378906 137.976562-.292969 249.570312 109.921874 250.910156 247.890624.667968 68.972657-26.550782 131.582032-71.070313 177.25-5.8125 5.960938-15.222656 6.382813-21.6875 1.140626-43.035156-34.90625-97.878906-55.824219-157.609375-55.824219-59.726562 0-114.566406 20.914062-157.601562 55.820312-6.496094 5.265625-15.925782 4.785157-21.757813-1.203125-43.949219-45.113281-71.019531-106.742187-71.019531-174.695312zm0 0" fill="#fadeb9"/><path d="m342.355469 91.976562v81.757813c0 5.640625-4.578125 10.21875-10.21875 10.21875-5.644531 0-10.21875-4.578125-10.21875-10.21875v-81.757813c0-39.445312-32.09375-71.539062-71.539063-71.539062-39.445312 0-71.535156 32.09375-71.535156 71.539062v81.757813c0 5.640625-4.578125 10.21875-10.222656 10.21875-5.640625 0-10.21875-4.578125-10.21875-10.21875v-81.757813c0-50.714843 41.261718-91.976562 91.976562-91.976562s91.976563 41.261719 91.976563 91.976562zm0 0" fill="#2b6c7e"/><path d="m70.515625 148.183594c0-8.464844 6.863281-15.328125 15.328125-15.328125h329.070312c8.464844 0 15.328126 6.863281 15.328126 15.328125v287.59375c-45.511719 46.996094-109.269532 76.222656-179.863282 76.222656-70.589844 0-134.347656-29.226562-179.863281-76.222656zm0 0" fill="#0cc33c"/><path d="m430.242188 148.183594v287.59375c-45.511719 46.996094-109.269532 76.222656-179.863282 76.222656-55.910156 0-107.535156-18.332031-149.207031-49.304688v-314.511718c0-8.464844 6.867187-15.328125 15.332031-15.328125h41.898438v40.878906c0 5.640625 4.578125 10.21875 10.21875 10.21875 5.644531 0 10.222656-4.578125 10.222656-10.21875v-40.878906h143.074219v40.878906c0 5.640625 4.574219 10.21875 10.21875 10.21875 5.640625 0 10.21875-4.578125 10.21875-10.21875v-40.878906h72.558593c8.464844 0 15.328126 6.863281 15.328126 15.328125zm0 0" fill="#49cb5c"/></svg>