<svg height="512pt" viewBox="-5 0 511 512" width="512pt" xmlns="http://www.w3.org/2000/svg"><path d="m501.257812 261.621094c0 115.863281-78.703124 213.34375-185.5625 241.902344-10.019531 2.675781-19.851562-4.90625-19.851562-15.273438 0-49.53125-40.152344-89.6875-89.683594-89.6875h-148.109375c-10.867187 0-20.835937-5.929688-26.121093-15.421875-20.609376-37.054687-32.097657-79.875-31.398438-125.441406 2.089844-136.503907 114.335938-246.730469 250.855469-246.457031 138.046875.273437 249.871093 112.265624 249.871093 250.378906zm0 0" fill="#b0dde9"/><path d="m501.257812 261.621094c0 12.273437-.898437 24.335937-2.605468 36.132812-2.753906 4.089844-7.421875 6.78125-12.722656 6.78125h-296.367188c-8.464844 0-15.328125-6.863281-15.328125-15.332031v-272.851563c0-8.464843 6.863281-15.328124 15.328125-15.328124h296.367188c8.464843 0 15.328124 6.863281 15.328124 15.328124zm0 0" fill="#dca050"/><path d="m501.257812 250.378906v11.242188c0 12.273437-.882812 24.335937-2.585937 36.132812-2.753906 4.089844-7.441406 6.78125-12.742187 6.78125h-269.269532c-8.46875 0-15.332031-6.863281-15.332031-15.332031v-272.851563c0-8.464843 6.863281-15.328124 15.332031-15.328124h269.269532c8.464843 0 15.328124 6.863281 15.328124 15.328124zm0 0" fill="#ebae56"/><path d="m375.121094 249.347656v16.9375c0 5.644532-4.574219 10.21875-10.21875 10.21875h-16.9375c-5.644532 0-10.21875-4.574218-10.21875-10.21875v-16.9375c0-5.644531 4.574218-10.21875 10.21875-10.21875h16.933594c5.644531 0 10.222656 4.574219 10.222656 10.21875zm41.167968-10.21875h-16.933593c-5.644531 0-10.21875 4.574219-10.21875 10.21875v16.9375c0 5.644532 4.574219 10.21875 10.21875 10.21875h16.933593c5.644532 0 10.222657-4.574218 10.222657-10.21875v-16.9375c0-5.644531-4.578125-10.21875-10.222657-10.21875zm51.390626 0h-16.933594c-5.644532 0-10.21875 4.574219-10.21875 10.21875v16.9375c0 5.644532 4.574218 10.21875 10.21875 10.21875h16.933594c5.644531 0 10.21875-4.574218 10.21875-10.21875v-16.9375c0-5.644531-4.574219-10.21875-10.21875-10.21875zm0 0" fill="#ce9047"/><path d="m294.78125 150.867188-8.917969 8.914062c-1.074219 1.074219-2.53125 1.679688-4.050781 1.679688-3.167969 0-5.734375-2.566407-5.734375-5.734376v-154.703124c0-.566407.457031-1.023438 1.023437-1.023438h121.289063c.566406 0 1.023437.457031 1.023437 1.023438v154.703124c0 3.167969-2.566406 5.734376-5.734374 5.734376-1.519532 0-2.976563-.605469-4.054688-1.679688l-8.914062-8.914062c-1.824219-1.824219-4.78125-1.824219-6.605469 0l-6.402344 6.398437c-2.683594 2.6875-6.328125 4.195313-10.125 4.195313-3.800781 0-7.441406-1.507813-10.128906-4.195313l-6.398438-6.398437c-1.824219-1.824219-4.785156-1.824219-6.609375 0l-6.398437 6.398437c-2.683594 2.6875-6.328125 4.195313-10.128907 4.195313-3.796874 0-7.441406-1.507813-10.125-4.195313l-6.398437-6.398437c-1.828125-1.824219-4.785156-1.824219-6.609375 0zm0 0" fill="#fdf7bd"/><path d="m350.828125 118.839844v9.925781c0 1.128906-.914063 2.042969-2.046875 2.042969h-54.542969c-1.128906 0-2.042969-.914063-2.042969-2.042969v-9.925781c0-1.128906.914063-2.042969 2.042969-2.042969h54.542969c1.132812 0 2.046875.914063 2.046875 2.042969zm35.328125-27.738282h-91.917969c-1.128906 0-2.042969.914063-2.042969 2.042969v9.925781c0 1.128907.914063 2.046876 2.042969 2.046876h91.917969c1.128906 0 2.046875-.917969 2.046875-2.046876v-9.925781c0-1.128906-.917969-2.042969-2.046875-2.042969zm0 0" fill="#f9d19a"/><path d="m316.285156 117.523438v195.5625c0 119.171874-130.929687 193.3125-232.183594 130.46875-9.59375-5.957032-17.566406-12.292969-23.304687-18.980469-11.066406-12.898438-20.839844-26.933594-29.125-41.90625v-265.144531c0-8.464844 6.863281-15.328126 15.328125-15.328126h253.957031c8.464844 0 15.328125 6.863282 15.328125 15.328126zm0 0" fill="#328091"/><path d="m316.285156 117.523438v385.828124c-9.988281 2.695313-20.21875 4.792969-30.660156 6.246094-1.535156.214844-5.929688-.203125-12.492188-1.214844-122.023437-18.839843-211.824218-124.308593-211.824218-247.78125v-143.078124c0-8.464844 6.863281-15.328126 15.328125-15.328126h224.320312c8.464844 0 15.328125 6.863282 15.328125 15.328126zm0 0" fill="#458fa4"/><path d="m202.082031 136.941406h-56.207031c-4.234375 0-7.667969-3.429687-7.667969-7.664062s3.433594-7.664063 7.667969-7.664063h56.207031c4.230469 0 7.664063 3.429688 7.664063 7.664063s-3.433594 7.664062-7.664063 7.664062zm0 0" fill="#2b6c7e"/><path d="m287.414062 167.601562v341.738282c-11.925781 1.742187-24.121093 2.660156-36.535156 2.660156-76.1875 0-144.417968-34.039062-190.339844-87.726562v-256.671876c0-8.464843 6.863282-15.332031 15.332032-15.332031h196.214844c8.464843 0 15.328124 6.867188 15.328124 15.332031zm0 0" fill="#fdf7bd"/><path d="m101.675781 173.734375c0-5.644531 4.574219-10.222656 10.21875-10.222656s10.21875 4.578125 10.21875 10.222656c0 5.640625-4.574219 10.21875-10.21875 10.21875s-10.21875-4.578125-10.21875-10.21875zm163.511719 10.21875c5.644531 0 10.21875-4.578125 10.21875-10.21875 0-5.644531-4.574219-10.222656-10.21875-10.222656s-10.21875 4.578125-10.21875 10.222656c0 5.640625 4.574219 10.21875 10.21875 10.21875zm-181.398438 0c5.644532 0 10.21875-4.578125 10.21875-10.21875 0-5.644531-4.574218-10.222656-10.21875-10.222656-5.644531 0-10.21875 4.578125-10.21875 10.222656 0 5.640625 4.574219 10.21875 10.21875 10.21875zm186.507813 214.609375h-20.4375c-2.824219 0-5.113281 2.289062-5.113281 5.109375v10.21875c0 2.824219 2.289062 5.113281 5.113281 5.113281h20.4375c2.820313 0 5.109375-2.289062 5.109375-5.113281v-10.21875c0-2.820313-2.289062-5.109375-5.109375-5.109375zm-2.554687 40.878906h-38.324219c-2.820313 0-5.109375 2.289063-5.109375 5.109375v10.21875c0 2.824219 2.289062 5.109375 5.109375 5.109375h38.324219c2.820312 0 5.109374-2.285156 5.109374-5.109375v-10.21875c0-2.820312-2.289062-5.109375-5.109374-5.109375zm-66.425782-40.878906h-122.636718c-2.820313 0-5.109376 2.289062-5.109376 5.109375v10.21875c0 2.824219 2.289063 5.113281 5.109376 5.113281h122.636718c2.820313 0 5.109375-2.289062 5.109375-5.113281v-10.21875c0-2.820313-2.289062-5.109375-5.109375-5.109375zm-53.65625 40.878906h-68.980468c-1.132813 0-2.171876.382813-3.019532 1.007813 7.042969 6.902343 14.492188 13.390625 22.3125 19.429687h49.6875c2.824219 0 5.113282-2.285156 5.113282-5.109375v-10.21875c0-2.820312-2.289063-5.109375-5.113282-5.109375zm0 0" fill="#f9d19a"/><path d="m306.210938 20.730469v51.972656c0 1.132813-.914063 2.046875-2.042969 2.046875h-9.929688c-1.128906 0-2.042969-.914062-2.042969-2.046875v-51.972656c0-1.128907.914063-2.042969 2.042969-2.042969h9.929688c1.128906 0 2.042969.914062 2.042969 2.042969zm23.652343 25.988281h-9.929687c-1.128906 0-2.042969.914062-2.042969 2.042969v23.941406c0 1.128906.914063 2.042969 2.042969 2.042969h9.929687c1.128907 0 2.042969-.914063 2.042969-2.042969v-23.941406c0-1.128907-.914062-2.042969-2.042969-2.042969zm0-28.03125h-9.929687c-1.128906 0-2.042969.914062-2.042969 2.042969v14.601562c0 1.128907.914063 2.042969 2.042969 2.042969h9.929687c1.128907 0 2.042969-.914062 2.042969-2.042969v-14.601562c0-1.128907-.914062-2.042969-2.042969-2.042969zm51.390625 46.71875h-9.929687c-1.128907 0-2.042969.914062-2.042969 2.042969v5.253906c0 1.132813.914062 2.046875 2.042969 2.046875h9.929687c1.125 0 2.042969-.914062 2.042969-2.046875v-5.253906c0-1.128907-.917969-2.042969-2.042969-2.042969zm0-46.71875h-9.929687c-1.128907 0-2.042969.914062-2.042969 2.042969v33.285156c0 1.132813.914062 2.046875 2.042969 2.046875h9.929687c1.125 0 2.042969-.914062 2.042969-2.046875v-33.285156c0-1.128907-.917969-2.042969-2.042969-2.042969zm-25.695312 0h-9.929688c-1.125 0-2.042968.914062-2.042968 2.042969v51.972656c0 1.132813.917968 2.046875 2.042968 2.046875h9.929688c1.128906 0 2.042968-.914062 2.042968-2.046875v-51.972656c0-1.128907-.914062-2.042969-2.042968-2.042969zm-195.722656 275.199219h-11.460938c-2.824219 0-5.109375 2.285156-5.109375 5.109375v33.140625c0 2.820312 2.285156 5.109375 5.109375 5.109375h11.460938c2.820312 0 5.109374-2.289063 5.109374-5.109375v-33.140625c0-2.824219-2.289062-5.109375-5.109374-5.109375zm0-43.363281h-11.460938c-2.824219 0-5.109375 2.289062-5.109375 5.113281v18.6875c0 2.820312 2.285156 5.109375 5.109375 5.109375h11.460938c2.820312 0 5.109374-2.289063 5.109374-5.109375v-18.6875c0-2.824219-2.289062-5.113281-5.109374-5.113281zm-39.75 0h-11.457032c-2.824218 0-5.109375 2.289062-5.109375 5.113281v76.5c0 2.820312 2.285157 5.109375 5.109375 5.109375h11.457032c2.824218 0 5.113281-2.289063 5.113281-5.109375v-76.5c0-2.824219-2.289063-5.113281-5.113281-5.113281zm107.78125 57.816406h11.460937c2.820313 0 5.109375-2.289063 5.109375-5.109375v-47.597657c0-2.820312-2.289062-5.109374-5.109375-5.109374h-11.460937c-2.820313 0-5.109376 2.289062-5.109376 5.109374v47.597657c0 2.820312 2.289063 5.109375 5.109376 5.109375zm-28.285157-57.816406h-11.460937c-2.820313 0-5.109375 2.289062-5.109375 5.113281v76.5c0 2.820312 2.289062 5.109375 5.109375 5.109375h11.460937c2.820313 0 5.109375-2.289063 5.109375-5.109375v-76.5c0-2.824219-2.289062-5.113281-5.109375-5.113281zm44.855469 81.613281v-4.234375c0-2.820313-2.289062-5.109375-5.109375-5.109375h-11.460937c-2.820313 0-5.109376 2.289062-5.109376 5.109375v4.234375c0 2.820312 2.289063 5.109375 5.109376 5.109375h11.460937c2.820313 0 5.109375-2.289063 5.109375-5.109375zm-165.757812-76.648438h5.109374c2.824219 0 5.109376-2.289062 5.109376-5.109375v-20.4375h20.441406c2.820312 0 5.109375-2.289062 5.109375-5.109375v-5.113281c0-2.820312-2.289063-5.109375-5.109375-5.109375h-30.660156c-2.820313 0-5.109376 2.289063-5.109376 5.109375v30.660156c0 2.820313 2.289063 5.109375 5.109376 5.109375zm30.660156 97.085938h-20.441406v-20.4375c0-2.824219-2.285157-5.109375-5.109376-5.109375h-5.109374c-2.820313 0-5.109376 2.285156-5.109376 5.109375v30.65625c0 2.824219 2.289063 5.109375 5.109376 5.109375h30.660156c2.820312 0 5.109375-2.285156 5.109375-5.109375v-5.109375c0-2.820313-2.289063-5.109375-5.109375-5.109375zm160.957031-25.546875h-5.109375c-2.820312 0-5.109375 2.285156-5.109375 5.109375v20.4375h-20.441406c-2.820313 0-5.109375 2.289062-5.109375 5.109375v5.109375c0 2.824219 2.289062 5.109375 5.109375 5.109375h30.660156c2.820313 0 5.109375-2.285156 5.109375-5.109375v-30.65625c0-2.824219-2.289062-5.109375-5.109375-5.109375zm0-112.417969h-30.660156c-2.820313 0-5.109375 2.289063-5.109375 5.109375v5.113281c0 2.820313 2.289062 5.109375 5.109375 5.109375h20.441406v20.4375c0 2.820313 2.289063 5.109375 5.109375 5.109375h5.109375c2.820313 0 5.109375-2.289062 5.109375-5.109375v-30.660156c0-2.820312-2.289062-5.109375-5.109375-5.109375zm0 0" fill="#7a8c98"/></svg>