<svg height="512pt" viewBox="0 -6 512 512" width="512pt" xmlns="http://www.w3.org/2000/svg"><path d="m512 250.378906c0 31.226563-5.71875 61.117188-16.160156 88.683594-2.011719 5.3125-11.925782 26.8125-14.90625 32.207031-28.996094 52.492188-76.292969 93.464844-133.285156 114.316407-4.753907 1.742187-27.484376 8.386718-34.140626 9.789062-16.742187 3.527344-34.097656 5.382812-51.886718 5.382812-17.789063 0-35.144532-1.855468-51.886719-5.382812-5.902344-1.242188-28.671875-7.785156-34.144531-9.789062-56.992188-20.851563-104.285156-61.824219-133.285156-114.316407-2.613282-4.734375-12.621094-26.179687-14.902344-32.207031-10.445313-27.566406-16.160156-57.457031-16.160156-88.683594 0-138.28125 112.097656-250.378906 250.378906-250.378906s250.378906 112.097656 250.378906 250.378906zm0 0" fill="#b0dde9"/><path d="m281.039062 387.320312h190.207032c-7.089844 10.832032-14.988282 21.082032-23.625 30.660157h-166.582032c-8.46875 0-15.332031-6.863281-15.332031-15.328125 0-8.46875 6.863281-15.332032 15.332031-15.332032zm-40.878906 30.660157h-91.976562c-8.464844 0-15.328125 6.863281-15.328125 15.328125s6.863281 15.332031 15.328125 15.332031h91.976562c8.464844 0 15.328125-6.867187 15.328125-15.332031s-6.863281-15.328125-15.328125-15.328125zm-51.097656-286.148438h91.976562c8.464844 0 15.328126-6.863281 15.328126-15.328125s-6.863282-15.332031-15.328126-15.332031h-91.976562c-8.464844 0-15.328125 6.867187-15.328125 15.332031s6.863281 15.328125 15.328125 15.328125zm107.304688 56.207031c0 8.464844 6.863281 15.332032 15.328124 15.332032h195.878907c-1.988281-10.464844-4.625-20.699219-7.875-30.660156h-188.003907c-8.464843 0-15.328124 6.863281-15.328124 15.328124zm-25.546876-117.523437h97.082032c5.644531 0 10.222656 4.574219 10.222656 10.21875s-4.578125 10.21875-10.222656 10.21875h-35.765625c-8.46875 0-15.332031 6.863281-15.332031 15.332031 0 8.464844 6.863281 15.328125 15.332031 15.328125h144.242187c-6.46875-10.773437-13.722656-21.019531-21.6875-30.660156h-45.910156c-5.644531 0-10.21875-4.574219-10.21875-10.21875s4.574219-10.21875 10.21875-10.21875h26.996094c-11.800782-11.429687-24.71875-21.714844-38.578125-30.660156h-126.378907c-8.46875 0-15.332031 6.863281-15.332031 15.332031 0 8.464844 6.863281 15.328125 15.332031 15.328125zm112.414063 173.730469c-8.464844 0-15.332031 6.863281-15.332031 15.332031 0 8.464844 6.867187 15.328125 15.332031 15.328125h51.097656c8.464844 0 15.328125-6.863281 15.328125-15.328125 0-8.46875-6.863281-15.332031-15.328125-15.332031zm-132.855469 45.988281c0-8.464844-6.863281-15.328125-15.328125-15.328125h-168.625c-8.464843 0-15.328125 6.863281-15.328125 15.328125 0 8.46875 6.863282 15.332031 15.328125 15.332031h168.625c8.464844 0 15.328125-6.863281 15.328125-15.332031zm0 0" fill="#8ed0e1"/><path d="m204.390625 44.964844v164.113281c0 8.46875-6.863281 15.332031-15.328125 15.332031h-173.734375c-8.464844 0-15.328125-6.863281-15.328125-15.332031v-164.113281c0-8.464844 6.863281-15.328125 15.328125-15.328125h173.734375c8.464844 0 15.328125 6.863281 15.328125 15.328125zm0 0" fill="#fd5757"/><path d="m30.660156 121.613281c0-5.644531 4.574219-10.21875 10.21875-10.21875h163.511719v97.683594c0 8.46875-6.863281 15.332031-15.328125 15.332031h-143.074219c-8.464843 0-15.328125-6.863281-15.328125-15.332031zm158.402344-91.976562h-143.074219c-8.464843 0-15.328125 6.863281-15.328125 15.328125v25.550781c0 5.644531 4.574219 10.21875 10.21875 10.21875h163.511719v-35.769531c0-8.464844-6.863281-15.328125-15.328125-15.328125zm0 0" fill="#fd7a7a"/><path d="m403.671875 223.808594h-15.328125c-11.289062 0-20.441406-9.152344-20.441406-20.4375 0-11.289063 9.152344-20.441406 20.441406-20.441406h15.328125c2.824219 0 5.109375 2.289062 5.109375 5.109374v30.660157c0 2.820312-2.285156 5.109375-5.109375 5.109375zm0 0" fill="#fff2b4"/><path d="m204.390625 205.414062v38.832032c0 11.289062-9.148437 20.441406-20.4375 20.441406h-163.515625c-11.285156 0-20.4375-9.152344-20.4375-20.441406v-38.832032c0-1.128906.914062-2.042968 2.042969-2.042968h200.304687c1.128906 0 2.042969.914062 2.042969 2.042968zm0 0" fill="#8d9ca8"/><path d="m204.390625 205.414062v38.832032c0 11.289062-9.148437 20.441406-20.4375 20.441406h-132.855469c-11.289062 0-20.4375-9.152344-20.4375-20.441406v-40.875h171.6875c1.128906 0 2.042969.914062 2.042969 2.042968zm0 0" fill="#9facba"/><path d="m495.824219 339.058594c-4.21875 11.136718-9.207031 21.890625-14.902344 32.203125-15.386719-27.027344-44.453125-45.257813-77.777344-45.257813-49.398437 0-89.441406 40.042969-89.441406 89.441406 0 28.429688 13.269531 53.757813 33.949219 70.140626-11.039063 4.039062-22.445313 7.308593-34.148438 9.777343-18.941406-21.234375-30.457031-49.230469-30.457031-79.917969 0-66.328124 53.769531-120.101562 120.097656-120.101562 37.3125 0 70.652344 17.019531 92.679688 43.714844zm-375.726563-43.714844c-37.3125 0-70.652344 17.019531-92.679687 43.714844 4.21875 11.136718 9.207031 21.890625 14.902343 32.203125 15.386719-27.027344 44.453126-45.257813 77.777344-45.257813 49.398438 0 89.441406 40.042969 89.441406 89.441406 0 28.429688-13.269531 53.757813-33.949218 70.140626 11.039062 4.039062 22.445312 7.308593 34.144531 9.777343 18.945313-21.234375 30.460937-49.230469 30.460937-79.917969 0-66.328124-53.769531-120.101562-120.097656-120.101562zm0 0" fill="#649eb0"/><path d="m410.867188 427.984375c-.703126.148437-1.402344.21875-2.097657.21875-4.738281 0-8.988281-3.316406-9.992187-8.136719l-30.578125-146.769531c-.589844-2.832031-3.859375-4.171875-6.269531-2.566406l-233.625 155.753906c-.007813.003906-.015626 0-.023438.003906-1.65625 1.097657-17.085938-6.171875-15.402344-11.558593l51.097656-163.511719c1.683594-5.386719 7.421876-8.390625 12.804688-6.707031 5.386719 1.683593 8.390625 7.414062 6.707031 12.800781l-42.480469 135.9375 187.527344-125.019531c1.679688-1.121094.886719-3.742188-1.132812-3.742188h-112.792969c-5.867187 0-10.582031-4.949219-10.195313-10.902344.351563-5.429687 5.105469-9.539062 10.546876-9.539062h142.160156c2.59375 0 4.53125-2.382813 4.003906-4.921875l-10.054688-48.261719c-.988281-4.738281-5.164062-8.132812-10.003906-8.132812h-75.359375c-5.867187 0-10.582031-4.949219-10.195312-10.902344.351562-5.429688 5.105469-9.539063 10.546875-9.539063h75.007812c14.445313 0 27.066406 10.265625 30.011719 24.40625l47.710937 229c1.148438 5.527344-2.398437 10.9375-7.921874 12.089844zm0 0" fill="#2b6c7e"/><path d="m153.332031 410.332031c0 15.535157-12.59375 28.125-28.125 28.125s-28.121093-12.589843-28.121093-28.125c0-15.53125 12.589843-28.121093 28.121093-28.121093s28.125 12.589843 28.125 28.121093zm249.8125-28.121093c-15.53125 0-28.125 12.589843-28.125 28.121093 0 15.535157 12.59375 28.125 28.125 28.125s28.121094-12.589843 28.121094-28.125c0-15.53125-12.589844-28.121093-28.121094-28.121093zm-101.667969-224.828126h-40.878906c-8.464844 0-15.328125 6.863282-15.328125 15.328126 0 8.464843 6.863281 15.328124 15.328125 15.328124h40.878906c8.464844 0 15.328126-6.863281 15.328126-15.328124 0-8.464844-6.863282-15.328126-15.328126-15.328126zm0 0" fill="#8d9ca8"/><path d="m245.269531 274.90625h-112.414062c-11.289063 0-20.441407-9.152344-20.441407-20.4375 0-11.289062 9.152344-20.441406 20.441407-20.441406h112.414062c11.289063 0 20.4375 9.152344 20.4375 20.441406 0 11.285156-9.148437 20.4375-20.4375 20.4375zm0 0" fill="#fbc56d"/><path d="m265.707031 254.46875c0 11.285156-9.148437 20.4375-20.4375 20.4375h-81.757812c-11.289063 0-20.4375-9.152344-20.4375-20.4375 0-11.289062 9.148437-20.441406 20.4375-20.441406h81.757812c11.289063 0 20.4375 9.152344 20.4375 20.441406zm0 0" fill="#ffdf8e"/></svg>