<svg height="512pt" viewBox="-6 0 512 512" width="512pt" xmlns="http://www.w3.org/2000/svg"><path d="m0 261.621094c0-138.097656 111.800781-250.082032 249.828125-250.378906 138.308594-.296876 250.035156 110.425781 250.925781 248.730468.441406 68.519532-26.652344 130.703125-70.859375 176.164063-6.554687 6.746093-17.160156 7.480469-24.542969 1.652343-42.628906-33.644531-96.453124-53.730468-154.972656-53.730468-58.523437 0-112.351562 20.089844-154.980468 53.734375-7.332032 5.789062-17.90625 5.15625-24.421876-1.535157-43.917968-45.105468-70.976562-106.707031-70.976562-174.636718zm0 0" fill="#56bcd6"/><path d="m429.222656 250.378906v186.445313c-45.445312 46.382812-108.777344 75.175781-178.84375 75.175781s-133.398437-28.792969-178.84375-75.175781v-186.445313c0-8.464844 6.863282-15.328125 15.332032-15.328125h41.386718c-8.464844 0-15.328125-6.863281-15.328125-15.332031v-204.390625c0-8.464844 6.863281-15.328125 15.328125-15.328125h244.25c8.464844 0 15.328125 6.863281 15.328125 15.328125v204.390625c0 8.46875-6.863281 15.332031-15.328125 15.332031h41.386719c8.46875 0 15.332031 6.863281 15.332031 15.328125zm0 0" fill="#f5b65d"/><path d="m429.222656 250.378906v186.445313c-45.445312 46.382812-108.777344 75.175781-178.84375 75.175781-55.910156 0-107.535156-18.332031-149.207031-49.304688v-212.316406c0-8.464844 6.867187-15.328125 15.332031-15.328125h229.9375c5.871094 0 10.585938-4.949219 10.199219-10.902343-.351563-5.429688-5.105469-9.539063-10.546875-9.539063h-193.3125c-5.644531 0-10.21875-4.574219-10.21875-10.21875v-189.0625c0-8.464844 6.863281-15.328125 15.328125-15.328125h214.613281c8.464844 0 15.328125 6.863281 15.328125 15.328125v204.390625c0 8.46875-6.863281 15.332031-15.328125 15.332031h41.386719c8.46875 0 15.332031 6.863281 15.332031 15.328125zm0 0" fill="#f7c37d"/><path d="m179.71875 459.878906v16.9375c0 5.644532-4.574219 10.21875-10.21875 10.21875h-16.9375c-5.644531 0-10.21875-4.574218-10.21875-10.21875v-16.9375c0-5.644531 4.574219-10.21875 10.21875-10.21875h16.9375c5.644531 0 10.21875 4.574219 10.21875 10.21875zm-61.609375-10.21875h-16.9375c-4.070313 0-7.578125 2.390625-9.21875 5.839844 11.1875 9.152344 23.1875 17.351562 35.867187 24.484375.328126-1 .507813-2.0625.507813-3.167969v-16.9375c0-5.644531-4.574219-10.21875-10.21875-10.21875zm102.777344 0h-16.933594c-5.644531 0-10.21875 4.574219-10.21875 10.21875v16.9375c0 5.644532 4.574219 10.21875 10.21875 10.21875h16.933594c5.644531 0 10.222656-4.574218 10.222656-10.21875v-16.9375c0-5.644531-4.578125-10.21875-10.222656-10.21875zm0 0" fill="#dca050"/><path d="m169.207031 177.238281v16.933594c0 5.644531-4.574219 10.21875-10.21875 10.21875h-16.9375c-5.644531 0-10.21875-4.574219-10.21875-10.21875v-16.933594c0-5.644531 4.574219-10.222656 10.21875-10.222656h16.9375c5.644531 0 10.21875 4.578125 10.21875 10.222656zm41.167969-10.222656h-16.933594c-5.644531 0-10.21875 4.578125-10.21875 10.222656v16.933594c0 5.644531 4.574219 10.21875 10.21875 10.21875h16.933594c5.644531 0 10.222656-4.574219 10.222656-10.21875v-16.933594c0-5.644531-4.578125-10.222656-10.222656-10.222656zm51.390625 0h-16.933594c-5.644531 0-10.21875 4.578125-10.21875 10.222656v16.933594c0 5.644531 4.574219 10.21875 10.21875 10.21875h16.933594c5.644531 0 10.222656-4.574219 10.222656-10.21875v-16.933594c0-5.644531-4.578125-10.222656-10.222656-10.222656zm0 0" fill="#ebae56"/><path d="m203.386719 400.058594-9.75 9.75c-1.179688 1.179687-2.773438 1.839844-4.4375 1.839844-3.460938 0-6.269531-2.808594-6.269531-6.273438v-170.324219h134.898437v170.324219c0 3.464844-2.808594 6.273438-6.269531 6.273438-1.664063 0-3.257813-.660157-4.433594-1.839844l-9.753906-9.75c-1.996094-1.996094-5.230469-1.996094-7.226563 0l-7 7c-2.9375 2.9375-6.921875 4.589844-11.074219 4.589844-4.15625 0-8.140624-1.652344-11.078124-4.589844l-7-7c-1.996094-1.996094-5.230469-1.996094-7.226563 0l-7 7c-2.9375 2.9375-6.921875 4.589844-11.074219 4.589844-4.15625 0-8.140625-1.652344-11.078125-4.589844l-7-7c-1.996093-1.996094-5.230469-1.996094-7.226562 0zm0-311.441406-9.75 5.238281c-1.179688.628906-2.773438.984375-4.4375.984375-3.460938 0-6.269531-1.507813-6.269531-3.367188v-91.472656h134.898437v91.472656c0 1.859375-2.808594 3.367188-6.269531 3.367188-1.664063 0-3.257813-.355469-4.433594-.984375l-9.753906-5.238281c-1.996094-1.070313-5.230469-1.070313-7.226563 0l-7 3.757812c-2.9375 1.578125-6.921875 2.464844-11.074219 2.464844-4.15625 0-8.140624-.886719-11.078124-2.464844l-7-3.757812c-1.996094-1.070313-5.230469-1.070313-7.226563 0l-7 3.757812c-2.9375 1.578125-6.921875 2.464844-11.074219 2.464844-4.15625 0-8.140625-.886719-11.078125-2.464844l-7-3.757812c-1.996093-1.070313-5.230469-1.070313-7.226562 0zm0 0" fill="#fdf7bd"/><path d="m202.601562 334.691406h90.699219c1.128907 0 2.042969.914063 2.042969 2.042969v11.242187c0 1.128907-.914062 2.042969-2.042969 2.042969h-90.699219c-1.128906 0-2.042968-.914062-2.042968-2.042969v-11.242187c0-1.128906.914062-2.042969 2.042968-2.042969zm-2.042968 30.148438v11.238281c0 1.132813.914062 2.046875 2.042968 2.046875h60.042969c1.128907 0 2.042969-.914062 2.042969-2.046875v-11.238281c0-1.128906-.914062-2.046875-2.042969-2.046875h-60.042969c-1.128906 0-2.042968.917969-2.042968 2.046875zm3.128906-344.402344h93.382812c1.128907 0 2.042969.917969 2.042969 2.046875v11.238281c0 1.132813-.914062 2.046875-2.042969 2.046875h-93.382812c-1.128906 0-2.042969-.914062-2.042969-2.046875v-11.238281c0-1.128906.914063-2.046875 2.042969-2.046875zm-2.042969 30.148438v11.242187c0 1.128906.914063 2.042969 2.042969 2.042969h60.042969c1.128906 0 2.042969-.914063 2.042969-2.042969v-11.242187c0-1.128907-.914063-2.042969-2.042969-2.042969h-60.042969c-1.128906 0-2.042969.914062-2.042969 2.042969zm0 0" fill="#f9d19a"/><path d="m243.992188 288.191406v26.570313c0 1.128906-.914063 2.042969-2.042969 2.042969h-11.242188c-1.128906 0-2.042969-.914063-2.042969-2.042969v-26.570313c0-1.128906.914063-2.042968 2.042969-2.042968h11.242188c1.128906 0 2.042969.914062 2.042969 2.042968zm-30.148438-32.703125h-11.242188c-1.128906 0-2.042968.914063-2.042968 2.042969v57.230469c0 1.128906.914062 2.042969 2.042968 2.042969h11.242188c1.128906 0 2.042969-.914063 2.042969-2.042969v-57.230469c0-1.128906-.914063-2.042969-2.042969-2.042969zm28.105469 0h-11.242188c-1.128906 0-2.042969.914063-2.042969 2.042969v16.351562c0 1.128907.914063 2.046876 2.042969 2.046876h11.242188c1.128906 0 2.042969-.917969 2.042969-2.046876v-16.351562c0-1.128906-.914063-2.042969-2.042969-2.042969zm56.207031 0h-11.242188c-1.128906 0-2.042968.914063-2.042968 2.042969v36.792969c0 1.128906.914062 2.042969 2.042968 2.042969h11.242188c1.128906 0 2.042969-.914063 2.042969-2.042969v-36.792969c0-1.128906-.914063-2.042969-2.042969-2.042969zm-28.105469 0h-11.242187c-1.128906 0-2.042969.914063-2.042969 2.042969v57.230469c0 1.128906.914063 2.042969 2.042969 2.042969h11.242187c1.128907 0 2.046875-.914063 2.046875-2.042969v-57.230469c0-1.128906-.917968-2.042969-2.046875-2.042969zm28.105469 51.097657h-11.242188c-1.128906 0-2.042968.914062-2.042968 2.042968v6.132813c0 1.128906.914062 2.042969 2.042968 2.042969h11.242188c1.128906 0 2.042969-.914063 2.042969-2.042969v-6.132813c0-1.128906-.914063-2.042968-2.042969-2.042968zm0 0" fill="#7a8c98"/></svg>