<svg height="512pt" viewBox="-6 0 512 512" width="512pt" xmlns="http://www.w3.org/2000/svg"><path d="m82.738281 429.179688c-5.679687 5.054687-14.421875 4.484374-19.476562-1.199219-39.351563-44.230469-63.261719-102.5-63.261719-166.359375 0-136.71875 109.578125-247.839844 245.699219-250.335938 139.839843-2.5625 254.082031 108.695313 255.054687 248.554688.371094 53.328125-15.945312 102.820312-44.015625 143.585937-3.957031 5.746094-11.765625 7.226563-17.550781 3.332031-45.773438-30.832031-102.425781-49.074218-163.769531-49.074218-75.015625 0-143.011719 27.273437-192.679688 71.496094zm0 0" fill="#b0dde9"/><path d="m336.222656 132.855469v353.210937c-22.511718 8.21875-46.535156 13.285156-71.535156 14.691406v-367.902343c0-5.644531 4.574219-10.222657 10.21875-10.222657h51.097656c5.644532 0 10.21875 4.578126 10.21875 10.222657zm163.988282 112.414062h-72.011719c-5.644531 0-10.21875 4.574219-10.21875 10.21875v136.425781c0 20.648438 26.648437 29.019532 38.402343 12.042969 27.980469-40.414062 44.375-89.460937 44.375-142.335937 0-5.496094-.195312-10.945313-.546874-16.351563zm-358.160157-30.660156h-10.21875c0-5.644531-4.574219-10.21875-10.21875-10.21875h-20.441406c-5.640625 0-10.21875 4.574219-10.21875 10.21875h-10.21875c-5.644531 0-10.21875 4.578125-10.21875 10.222656v194.171875c23.0625 23.8125 50.804687 43.066406 81.753906 56.261719v-250.433594c0-5.644531-4.574219-10.222656-10.21875-10.222656zm-102.195312-51.097656h-19.894531c-12.847657 30.128906-19.960938 63.289062-19.960938 98.109375 0 56.375 18.636719 108.390625 50.074219 150.242187v-238.128906c0-5.644531-4.574219-10.222656-10.21875-10.222656zm0 0" fill="#8ed0e1"/><path d="m454.257812 194.171875v212.808594c-.398437.558593-.796874 1.113281-1.203124 1.671875-54.304688 74.726562-172.527344 36.273437-172.527344-56.105469v-158.375c0-5.644531 4.574218-10.21875 10.21875-10.21875h19.417968v-10.21875c0-5.644531 4.574219-10.222656 10.21875-10.222656h94.019532c5.644531 0 10.21875 4.578125 10.21875 10.222656v10.21875h19.417968c5.644532 0 10.21875 4.574219 10.21875 10.21875zm0 0" fill="#328091"/><path d="m299.945312 380.941406v-186.769531c0-5.644531 4.574219-10.21875 10.21875-10.21875h133.875c5.644532 0 10.21875 4.574219 10.21875 10.21875v212.808594c-6.84375 9.585937-14.351562 18.667969-22.445312 27.179687-47.546875 49.980469-131.867188 15.765625-131.867188-53.21875zm0 0" fill="#458fa4"/><path d="m300.097656 507.054688c-.09375-.382813-.152344-.777344-.152344-1.1875v-296.367188c0-2.820312 2.285157-5.109375 5.109376-5.109375h122.632812c2.824219 0 5.109375 2.289063 5.109375 5.109375v223.601562c-34.855469 37.070313-80.878906 63.511719-132.699219 73.953126zm0 0" fill="#56bcd6"/><path d="m432.796875 265.707031v-10.21875h-23.503906c-1.128907 0-2.042969-.914062-2.042969-2.042969v-49.054687h-10.21875v49.054687c0 1.128907-.914062 2.042969-2.046875 2.042969h-21.460937c-1.128907 0-2.042969-.914062-2.042969-2.042969v-49.054687h-10.21875v49.054687c0 1.128907-.914063 2.042969-2.042969 2.042969h-21.460938c-1.128906 0-2.046874-.914062-2.046874-2.042969v-49.054687h-10.21875v49.054687c0 1.128907-.914063 2.042969-2.042969 2.042969h-23.503907v10.21875h23.503907c1.128906 0 2.042969.917969 2.042969 2.046875v47.007813c0 1.128906-.914063 2.042969-2.042969 2.042969h-23.503907v10.222656h23.503907c1.128906 0 2.042969.914062 2.042969 2.042968l-.636719 47.007813c0 1.132813-.277344 2.046875-1.40625 2.046875h-23.503907v10.21875h23.503907c1.128906 0 .957031.914062.957031 2.042969v47.011719c0 1.128906.171875 2.042968-.957031 2.042968h-23.503907v10.21875h23.503907c1.128906 0 1.023437.914063 1.023437 2.042969l.667969 48.941406c3.4375-1.082031 7.199219-2.347656 10.570313-3.570312v-45.371094c0-1.128906.917968-2.042969 2.046874-2.042969h21.460938c1.128906 0 2.042969.914063 2.042969 2.042969v34.449219c3.453125-1.710938 6.859375-3.492188 10.21875-5.355469v-29.09375c0-1.128906.914062-2.042969 2.042969-2.042969h21.460937c1.132813 0 2.046875.914063 2.046875 2.042969v12.855469c3.472656-2.515625 6.878906-5.117188 10.21875-7.804688v-5.050781c0-1.128906.914062-2.042969 2.042969-2.042969h6.390625c3.746094-3.296875 7.390625-6.707031 10.933594-10.21875h-17.324219c-1.128907 0-2.042969-.914062-2.042969-2.042968v-47.011719c0-1.128907.914062-2.042969 2.042969-2.042969h23.503906v-10.21875h-23.503906c-1.128907 0-2.042969-.914062-2.042969-2.046875v-47.007813c0-1.128906.914062-2.042968 2.042969-2.042968h23.503906v-10.222656h-23.503906c-1.128907 0-2.042969-.914063-2.042969-2.042969v-47.007813c0-1.128906.914062-2.046875 2.042969-2.046875zm-95.039063 0h21.460938c1.128906 0 2.042969.917969 2.042969 2.046875v47.007813c0 1.128906-.914063 2.042969-2.042969 2.042969h-21.460938c-1.128906 0-2.046874-.914063-2.046874-2.042969v-47.007813c0-1.128906.917968-2.046875 2.046874-2.046875zm0 61.320313h21.460938c1.128906 0 2.042969.914062 2.042969 2.042968v47.007813c0 1.132813-.914063 2.046875-2.042969 2.046875h-21.460938c-1.128906 0-2.046874-.914062-2.046874-2.046875v-47.007813c0-1.128906.917968-2.042968 2.046874-2.042968zm-2.046874 110.371094v-47.011719c0-1.128907.917968-2.042969 2.046874-2.042969h21.460938c1.128906 0 2.042969.914062 2.042969 2.042969v47.011719c0 1.128906-.914063 2.042968-2.042969 2.042968h-21.460938c-1.128906 0-2.046874-.914062-2.046874-2.042968zm59.273437 2.042968h-21.460937c-1.128907 0-2.042969-.914062-2.042969-2.042968v-47.011719c0-1.128907.914062-2.042969 2.042969-2.042969h21.460937c1.132813 0 2.046875.914062 2.046875 2.042969v47.011719c0 1.128906-.914062 2.042968-2.046875 2.042968zm0-61.316406h-21.460937c-1.128907 0-2.042969-.914062-2.042969-2.046875v-47.007813c0-1.128906.914062-2.042968 2.042969-2.042968h21.460937c1.132813 0 2.046875.914062 2.046875 2.042968v47.007813c0 1.132813-.914062 2.046875-2.046875 2.046875zm0-61.320312h-21.460937c-1.128907 0-2.042969-.914063-2.042969-2.042969v-47.007813c0-1.128906.914062-2.046875 2.042969-2.046875h21.460937c1.132813 0 2.046875.917969 2.046875 2.046875v47.007813c0 1.128906-.914062 2.042969-2.046875 2.042969zm0 0" fill="#0da9cb"/><path d="m325.140625 500.644531c-23.609375 7.375-48.722656 11.355469-74.761719 11.355469-74.882812 0-142.074218-32.882812-187.957031-84.984375v-80.402344l131.359375-95.535156 131.359375 95.535156zm0 0" fill="#fdf7bd"/><path d="m62.421875 346.613281 18.3125-13.320312v112.457031c-6.425781-5.921875-12.539063-12.175781-18.3125-18.734375zm0 0" fill="#fcf498"/><path d="m292.5 364.363281v144.089844c-13.695312 2.320313-27.765625 3.546875-42.121094 3.546875-9.992187 0-19.84375-.605469-29.53125-1.742188v-145.894531c0-2.820312 2.289063-5.109375 5.109375-5.109375h61.433594c2.820313 0 5.109375 2.289063 5.109375 5.109375zm0 0" fill="#fbc0ad"/><path d="m292.5 364.363281v144.089844c-13.695312 2.320313-27.765625 3.546875-42.121094 3.546875-4.566406 0-9.101562-.128906-13.605468-.371094v-147.265625c0-2.820312 2.285156-5.109375 5.109374-5.109375h45.507813c2.820313 0 5.109375 2.289063 5.109375 5.109375zm-108.605469-5.109375h-85.316406c-2.820313 0-5.109375 2.289063-5.109375 5.109375v69.394531c0 2.820313 2.289062 5.109376 5.109375 5.109376h85.316406c2.820313 0 5.109375-2.289063 5.109375-5.109376v-69.394531c0-2.820312-2.289062-5.109375-5.109375-5.109375zm0 0" fill="#fdcbbb"/><path d="m307.773438 495.648438v9.734374c-18.433594 4.320313-37.644532 6.617188-57.394532 6.617188-15.292968 0-30.265625-1.375-44.800781-4.003906v-12.347656c0-2.820313 2.285156-5.109376 5.109375-5.109376h91.976562c2.820313 0 5.109376 2.289063 5.109376 5.109376zm0 0" fill="#faab90"/><path d="m248.714844 430.90625h-27.867188v-7.960938h27.867188c2.195312 0 3.980468 1.78125 3.980468 3.980469s-1.785156 3.980469-3.980468 3.980469zm0 0" fill="#f58057"/><path d="m177.0625 401.105469v23.777343c0 1.128907-.914062 2.042969-2.042969 2.042969h-67.5625c-1.128906 0-2.046875-.914062-2.046875-2.042969v-23.777343c0-1.128907.917969-2.042969 2.046875-2.042969h67.5625c1.128907 0 2.042969.914062 2.042969 2.042969zm0-12.050781v-15.8125c0-1.128907-.914062-2.042969-2.042969-2.042969h-67.5625c-1.128906 0-2.046875.914062-2.046875 2.042969v15.8125c0 1.132812.917969 2.046874 2.046875 2.046874h67.5625c1.128907 0 2.042969-.917968 2.042969-2.046874zm0 0" fill="#7daebd"/><path d="m123.542969 391.101562h-16.085938c-1.128906 0-2.046875-.914062-2.046875-2.046874v-15.8125c0-1.128907.917969-2.042969 2.046875-2.042969h16.085938c-1.128907 0-2.042969.914062-2.042969 2.042969v15.8125c0 1.128906.914062 2.046874 2.042969 2.046874zm0 7.960938h-16.085938c-1.128906 0-2.046875.914062-2.046875 2.042969v23.777343c0 1.128907.917969 2.042969 2.046875 2.042969h16.085938c-1.128907 0-2.042969-.914062-2.042969-2.042969v-23.777343c0-1.128907.914062-2.042969 2.042969-2.042969zm0 0" fill="#649eb0"/><path d="m196.085938 235.785156 140.375 99.601563c2.886718 2.050781 4.601562 5.367187 4.601562 8.90625 0 8.867187-10.007812 14.035156-17.238281 8.90625l-130.042969-92.273438-130.042969 92.273438c-7.230469 5.132812-17.238281-.039063-17.238281-8.90625 0-3.539063 1.714844-6.855469 4.601562-8.90625l140.375-99.601563c1.378907-.980468 3.230469-.980468 4.609376 0zm0 0" fill="#fd5757"/><path d="m364.847656 156.222656-44.394531-72.355468c-13.320313-21.710938-10.011719-49.726563 8-67.738282 21.503906-21.503906 56.375-21.503906 77.878906 0 18.015625 18.011719 21.320313 46.027344 8 67.738282l-44.390625 72.355468c-1.167968 1.902344-3.929687 1.902344-5.09375 0zm-173.613281 67.183594-44.394531-72.355469c-13.320313-21.714843-10.011719-49.730469 8-67.742187 21.503906-21.503906 56.375-21.503906 77.882812 0 18.011719 18.011718 21.316406 46.027344 7.996094 67.742187l-44.390625 72.355469c-1.167969 1.898438-3.929687 1.898438-5.09375 0zm0 0" fill="#fd4343"/><path d="m375.785156 146.699219-38.550781-62.832031c-13.320313-21.710938-10.011719-49.726563 8-67.738282 8.609375-8.613281 19.367187-13.769531 30.550781-15.484375 11.179688 1.714844 21.9375 6.871094 30.546875 15.484375 18.015625 18.011719 21.320313 46.027344 8 67.738282zm-173.613281 67.183593-38.550781-62.832031c-13.320313-21.714843-10.011719-49.730469 8-67.742187 8.609375-8.609375 19.367187-13.769532 30.550781-15.484375 11.179687 1.714843 21.9375 6.875 30.550781 15.484375 18.011719 18.011718 21.316406 46.027344 7.996094 67.742187zm0 0" fill="#fd5757"/><path d="m367.394531 22.296875c-18.375 0-33.269531 14.894531-33.269531 33.269531s14.894531 33.269532 33.269531 33.269532c18.371094 0 33.269531-14.894532 33.269531-33.269532s-14.898437-33.269531-33.269531-33.269531zm0 47.132813c-7.65625 0-13.863281-6.207032-13.863281-13.863282s6.207031-13.863281 13.863281-13.863281c7.652344 0 13.859375 6.207031 13.859375 13.863281s-6.207031 13.863282-13.859375 13.863282zm-173.613281 20.046874c-18.375 0-33.269531 14.894532-33.269531 33.269532s14.894531 33.269531 33.269531 33.269531 33.269531-14.894531 33.269531-33.269531-14.894531-33.269532-33.269531-33.269532zm0 47.132813c-7.65625 0-13.863281-6.207031-13.863281-13.863281s6.207031-13.859375 13.863281-13.859375 13.863281 6.203125 13.863281 13.859375-6.207031 13.863281-13.863281 13.863281zm0 0" fill="#fd9898"/></svg>