<svg height="512pt" viewBox="-6 0 512 512" width="512pt" xmlns="http://www.w3.org/2000/svg"><path d="m500.757812 261.621094c0 138.28125-112.097656 250.378906-250.378906 250.378906s-250.378906-112.097656-250.378906-250.378906 112.097656-250.378906 250.378906-250.378906 250.378906 112.097656 250.378906 250.378906zm0 0" fill="#f7c37d"/><path d="m200.898438 357.683594c0 5.644531-4.574219 10.21875-10.21875 10.21875-5.644532 0-10.21875-4.574219-10.21875-10.21875 0-5.644532 4.574218-10.21875 10.21875-10.21875 5.644531 0 10.21875 4.574218 10.21875 10.21875zm-48.628907-10.21875c-5.640625 0-10.21875 4.574218-10.21875 10.21875 0 5.644531 4.578125 10.21875 10.21875 10.21875 5.644531 0 10.222657-4.574219 10.222657-10.21875 0-5.644532-4.578126-10.21875-10.222657-10.21875zm76.816407 0c-5.640626 0-10.21875 4.574218-10.21875 10.21875 0 5.644531 4.578124 10.21875 10.21875 10.21875 5.644531 0 10.222656-4.574219 10.222656-10.21875 0-5.644532-4.578125-10.21875-10.222656-10.21875zm0 0" fill="#fadeb9"/><path d="m291.257812 327.027344h-235.050781c-8.464843 0-15.328125-6.863282-15.328125-15.332032v-296.367187c0-8.464844 6.863282-15.328125 15.328125-15.328125h235.050781c8.464844 0 15.328126 6.863281 15.328126 15.328125v296.367187c0 8.46875-6.863282 15.332032-15.328126 15.332032zm0 0" fill="#0da9cb"/><path d="m291.257812 327.027344h-204.390624c-8.46875 0-15.332032-6.863282-15.332032-15.332032v-296.367187c0-8.464844 6.863282-15.328125 15.332032-15.328125h204.390624c8.464844 0 15.328126 6.863281 15.328126 15.328125v296.367187c0 8.46875-6.863282 15.332032-15.328126 15.332032zm0 0" fill="#56bcd6"/><path d="m260.597656 91.976562h-173.730468c-8.46875 0-15.332032-6.863281-15.332032-15.328124v-30.660157c0-8.464843 6.863282-15.328125 15.332032-15.328125h173.730468c8.46875 0 15.332032 6.863282 15.332032 15.328125v30.660157c0 8.464843-6.863282 15.328124-15.332032 15.328124zm0 0" fill="#8ed0e1"/><path d="m260.597656 91.976562h-153.292968c-8.464844 0-15.328126-6.863281-15.328126-15.328124v-30.660157c0-8.464843 6.863282-15.328125 15.328126-15.328125h153.292968c8.46875 0 15.332032 6.863282 15.332032 15.328125v30.660157c0 8.464843-6.863282 15.328124-15.332032 15.328124zm0 0" fill="#b0dde9"/><path d="m245.269531 296.367188h-40.878906c-5.644531 0-10.21875-4.574219-10.21875-10.21875v-10.21875c0-5.644532 4.574219-10.222657 10.21875-10.222657h40.878906c5.644531 0 10.21875 4.578125 10.21875 10.222657v10.21875c0 5.644531-4.574219 10.21875-10.21875 10.21875zm0 0" fill="#458fa4"/><path d="m122.632812 122.632812v10.222657c0 5.644531-4.574218 10.21875-10.21875 10.21875h-30.65625c-5.644531 0-10.222656-4.574219-10.222656-10.21875v-10.222657c0-5.640624 4.578125-10.21875 10.222656-10.21875h30.65625c5.644532 0 10.21875 4.578126 10.21875 10.21875zm-10.21875 40.878907h-30.65625c-5.644531 0-10.222656 4.578125-10.222656 10.222656v10.21875c0 5.644531 4.578125 10.21875 10.222656 10.21875h30.65625c5.644532 0 10.21875-4.574219 10.21875-10.21875v-10.21875c0-5.644531-4.574218-10.222656-10.21875-10.222656zm76.648438 51.097656h-30.660156c-5.644532 0-10.21875 4.578125-10.21875 10.222656v10.21875c0 5.644531 4.574218 10.21875 10.21875 10.21875h30.660156c5.644531 0 10.21875-4.574219 10.21875-10.21875v-10.21875c0-5.644531-4.574219-10.222656-10.21875-10.222656zm-76.648438 0h-30.65625c-5.644531 0-10.222656 4.578125-10.222656 10.222656v10.21875c0 5.644531 4.578125 10.21875 10.222656 10.21875h30.65625c5.644532 0 10.21875-4.574219 10.21875-10.21875v-10.21875c0-5.644531-4.574218-10.222656-10.21875-10.222656zm76.648438-102.195313h-30.660156c-5.644532 0-10.21875 4.578126-10.21875 10.21875v10.222657c0 5.644531 4.574218 10.21875 10.21875 10.21875h30.660156c5.644531 0 10.21875-4.574219 10.21875-10.21875v-10.222657c0-5.640624-4.574219-10.21875-10.21875-10.21875zm0 51.097657h-30.660156c-5.644532 0-10.21875 4.578125-10.21875 10.222656v10.21875c0 5.644531 4.574218 10.21875 10.21875 10.21875h30.660156c5.644531 0 10.21875-4.574219 10.21875-10.21875v-10.21875c0-5.644531-4.574219-10.222656-10.21875-10.222656zm76.644531-51.097657h-30.65625c-5.644531 0-10.21875 4.578126-10.21875 10.21875v10.222657c0 5.644531 4.574219 10.21875 10.21875 10.21875h30.65625c5.644531 0 10.222657-4.574219 10.222657-10.21875v-10.222657c0-5.640624-4.578126-10.21875-10.222657-10.21875zm0 51.097657h-30.65625c-5.644531 0-10.21875 4.578125-10.21875 10.222656v10.21875c0 5.644531 4.574219 10.21875 10.21875 10.21875h30.65625c5.644531 0 10.222657-4.574219 10.222657-10.21875v-10.21875c0-5.644531-4.578126-10.222656-10.222657-10.222656zm0 0" fill="#8ed0e1"/><path d="m163.511719 296.367188h-81.753907c-5.644531 0-10.222656-4.574219-10.222656-10.21875v-10.21875c0-5.644532 4.578125-10.222657 10.222656-10.222657h81.753907c5.644531 0 10.222656 4.578125 10.222656 10.222657v10.21875c0 5.644531-4.578125 10.21875-10.222656 10.21875zm0 0" fill="#fded32"/><path d="m334.957031 479.273438-96.246093-156.871094c-28.882813-47.074219-21.707032-107.816406 17.34375-146.867188 46.628906-46.628906 122.222656-46.628906 168.851562 0 39.050781 39.050782 46.226562 99.792969 17.34375 146.867188l-96.246094 156.871094c-2.53125 4.121093-8.515625 4.121093-11.046875 0zm0 0" fill="#fd4343"/><path d="m358.671875 458.625-83.578125-136.222656c-28.882812-47.074219-21.710938-107.816406 17.339844-146.867188 18.671875-18.671875 41.992187-29.859375 66.238281-33.578125 24.242187 3.71875 47.5625 14.90625 66.234375 33.578125 39.050781 39.050782 46.226562 99.792969 17.34375 146.867188zm0 0" fill="#fd5757"/><path d="m340.480469 175.15625c-47.429688 0-85.878907 38.449219-85.878907 85.878906 0 47.433594 38.449219 85.882813 85.878907 85.882813 47.429687 0 85.882812-38.449219 85.882812-85.882813 0-47.429687-38.453125-85.878906-85.882812-85.878906zm0 143.132812c-31.621094 0-57.253907-25.632812-57.253907-57.253906s25.632813-57.253906 57.253907-57.253906c31.621093 0 57.253906 25.632812 57.253906 57.253906s-25.632813 57.253906-57.253906 57.253906zm35.785156-57.253906c0 19.761719-16.023437 35.785156-35.785156 35.785156s-35.785157-16.023437-35.785157-35.785156c0-19.761718 16.023438-35.78125 35.785157-35.78125s35.785156 16.019532 35.785156 35.78125zm0 0" fill="#fd9898"/></svg>