<svg height="512pt" viewBox="-6 0 512 512" width="512pt" xmlns="http://www.w3.org/2000/svg"><path d="m500.757812 250.378906c0 138.28125-112.09375 250.378906-250.371093 250.378906-138.421875 0-251.046875-113.199218-250.3750002-251.621093.5664062-116.683594 80.9570312-214.484375 189.3632812-241.632813 7.675781-1.921875 15.652344-2.296875 23.476562-1.117187 12.242188 1.84375 24.773438 2.8125 37.53125 2.8125 12.761719 0 25.300782-.96875 37.546876-2.816407 7.570312-1.140624 15.296874-.898437 22.730468.941407 109.160156 26.980469 190.097656 125.558593 190.097656 243.054687zm0 0" fill="#69c3da"/><path d="m182.925781 320.894531c0 8.464844-6.863281 15.328125-15.328125 15.328125h-81.753906c-8.46875 0-15.332031-6.863281-15.332031-15.328125 0-8.464843 6.863281-15.328125 15.332031-15.328125h81.753906c8.464844 0 15.328125 6.863282 15.328125 15.328125zm91.96875-132.855469c0-8.464843-6.863281-15.328124-15.332031-15.328124h-148.179688c-5.644531 0-10.21875-4.574219-10.21875-10.21875 0-5.644532 4.574219-10.222657 10.21875-10.222657h25.550782c8.464844 0 15.328125-6.863281 15.328125-15.328125s-6.863281-15.328125-15.328125-15.328125h-101.316406c-5.894532 9.804688-11.136719 20.042969-15.664063 30.65625h50.550781c5.644532 0 10.222656 4.578125 10.222656 10.222657 0 5.644531-4.578124 10.21875-10.222656 10.21875h-15.328125c-8.464843 0-15.328125 6.863281-15.328125 15.328124 0 8.464844 6.863282 15.332032 15.328125 15.332032h204.386719c8.46875 0 15.332031-6.867188 15.332031-15.332032zm225.855469 62.339844c0-2.050781-.015625-4.09375-.066406-6.132812h-52.054688c-5.644531 0-10.21875-4.574219-10.21875-10.21875 0-5.644532 4.574219-10.21875 10.21875-10.21875h15.332032c8.464843 0 15.328124-6.863282 15.328124-15.328125 0-8.46875-6.863281-15.332031-15.328124-15.332031h-81.753907c-8.46875 0-15.332031 6.863281-15.332031 15.332031 0 8.464843 6.863281 15.328125 15.332031 15.328125h25.546875c5.644532 0 10.21875 4.574218 10.21875 10.21875 0 5.644531-4.574218 10.21875-10.21875 10.21875h-86.863281c-8.464844 0-15.328125 6.863281-15.328125 15.332031 0 8.464844 6.863281 15.328125 15.328125 15.328125h178.683594c.78125-8.070312 1.175781-16.25 1.175781-24.527344zm-36.78125 55.1875c-8.46875 0-15.332031 6.863282-15.332031 15.328125 0 8.464844 6.863281 15.328125 15.332031 15.328125h21.679688c3.628906-9.9375 6.648437-20.175781 9.007812-30.65625zm-352.578125-45.988281c0-8.46875-6.863281-15.332031-15.328125-15.332031h-95.984375c-.0390625 1.628906-.0664062 3.257812-.07421875 4.890625-.04296875 8.699219.36328175 17.292969 1.19531275 25.769531h94.863281c8.464844 0 15.328125-6.863281 15.328125-15.328125zm183.949219-132.855469c0 8.464844 6.863281 15.328125 15.328125 15.328125h81.753906c8.46875 0 15.332031-6.863281 15.332031-15.328125s-6.863281-15.328125-15.332031-15.328125h-81.753906c-8.464844 0-15.328125 6.863281-15.328125 15.328125zm30.65625-51.097656c0 8.464844 6.863281 15.328125 15.332031 15.328125h102.105469c-9.148438-11.0625-19.234375-21.316406-30.128906-30.65625h-71.980469c-8.464844 0-15.328125 6.863281-15.328125 15.328125zm-199.277344 5.109375h81.757812c8.464844 0 15.328126-6.863281 15.328126-15.328125 0-8.46875-6.863282-15.332031-15.328126-15.332031h-81.757812c-8.464844 0-15.328125 6.863281-15.328125 15.332031 0 8.464844 6.863281 15.328125 15.328125 15.328125zm0 0" fill="#8ed0e1"/><path d="m203.203125 232.304688 19.105469 7.261718-30.121094 79.242188-.394531.695312c-.894531 1.554688-1.363281 3.304688-1.363281 5.054688v42.324218h-20.4375v-42.324218c0-5.011719 1.253906-9.984375 3.632812-14.433594zm124.09375 78.109374-21.921875-69.539062-19.492188 6.144531 22.546876 71.527344.546874.957031c.890626 1.554688 1.359376 3.304688 1.359376 5.058594v42.320312h20.441406v-42.324218c0-4.902344-1.199219-9.769532-3.480469-14.144532zm0 0" fill="#649eb0"/><path d="m337.25 177.089844v12.410156c0 23.589844-9.296875 45.660156-26.175781 62.144531-16.367188 15.992188-37.839844 24.722657-60.664063 24.722657-.703125 0-1.40625-.007813-2.113281-.023438-22.3125-.527344-43.359375-9.578125-59.269531-25.484375-15.90625-15.910156-24.957032-36.960937-25.484375-59.273437-.796875-33.929688 18.40625-65.429688 48.921875-80.257813 13.183594-6.402344 21.371094-19.246094 21.371094-33.511719v-49.640625h33.09375v49.640625c0 27.042969-15.328126 51.292969-40.003907 63.277344-18.902343 9.183594-30.796875 28.695312-30.300781 49.714844.664062 28.257812 24.195312 51.785156 52.453125 52.453125 14.578125.347656 28.351563-5.054688 38.785156-15.203125 10.566407-10.273438 16.292969-24.542969 16.292969-39.28125v-24.097656c0-2.28125 1.851562-4.136719 4.136719-4.136719h12.410156c9.136719 0 16.546875 7.410156 16.546875 16.546875zm0 0" fill="#fff5f5"/><path d="m250.382812 0c21.144532 0 41.667969 2.632812 61.277344 7.566406.015625.542969.039063 1.082032.039063 1.632813v20.4375c0 33.863281-27.449219 61.316406-61.316407 61.316406-33.863281 0-61.316406-27.453125-61.316406-61.316406v-20.4375c0-.550781.027344-1.089844.042969-1.632813 19.609375-4.933594 40.132813-7.566406 61.273437-7.566406zm0 0" fill="#fd7a7a"/><path d="m267.757812 88.441406c-5.511718 1.625-11.339843 2.511719-17.375 2.511719-33.863281 0-61.316406-27.453125-61.316406-61.316406v-20.4375c0-.546875.027344-1.089844.042969-1.632813 11.441406-2.878906 23.195313-4.976562 35.203125-6.21875-.328125 2.570313-.5 5.1875-.5 7.851563v20.4375c0 27.828125 18.542969 51.3125 43.945312 58.804687zm0 0" fill="#fd5757"/><path d="m250.382812 0c10.070313 0 19.992188.609375 29.746094 1.765625.59375 2.382813.914063 4.867187.914063 7.433594 0 16.929687-13.726563 30.65625-30.660157 30.65625-16.929687 0-30.65625-13.726563-30.65625-30.65625 0-2.566407.320313-5.054688.910157-7.433594 9.757812-1.15625 19.679687-1.765625 29.746093-1.765625zm0 0" fill="#fd4343"/><path d="m425.59375 341.332031v155.339844c0 8.464844-6.863281 15.328125-15.328125 15.328125h-319.761719c-8.46875 0-15.332031-6.863281-15.332031-15.328125v-155.339844c0-8.464843 6.863281-15.328125 15.332031-15.328125h319.761719c8.464844 0 15.328125 6.863282 15.328125 15.328125zm0 0" fill="#fde803"/><path d="m425.59375 341.332031v155.339844c0 8.464844-6.863281 15.328125-15.328125 15.328125h-293.753906c-8.464844 0-15.328125-6.863281-15.328125-15.328125v-155.339844c0-8.464843 6.863281-15.328125 15.328125-15.328125h293.753906c8.464844 0 15.328125 6.863282 15.328125 15.328125zm0 0" fill="#fdf061"/><path d="m283.085938 351.554688v134.894531c0 5.644531-4.574219 10.222656-10.21875 10.222656-5.644532 0-10.21875-4.578125-10.21875-10.222656v-134.894531c0-5.644532 4.574218-10.222657 10.21875-10.222657 5.644531 0 10.21875 4.578125 10.21875 10.222657zm-57.230469-10.222657c-5.640625 0-10.21875 4.578125-10.21875 10.222657v134.894531c0 5.644531 4.578125 10.222656 10.21875 10.222656 5.644531 0 10.222656-4.578125 10.222656-10.222656v-134.894531c0-5.644532-4.578125-10.222657-10.222656-10.222657zm-47.007813 0c-5.644531 0-10.21875 4.578125-10.21875 10.222657v134.894531c0 5.644531 4.574219 10.222656 10.21875 10.222656 5.644532 0 10.21875-4.578125 10.21875-10.222656v-134.894531c0-5.644532-4.574218-10.222657-10.21875-10.222657zm141.027344 0c-5.644531 0-10.21875 4.578125-10.21875 10.222657v134.894531c0 5.644531 4.574219 10.222656 10.21875 10.222656s10.21875-4.578125 10.21875-10.222656v-134.894531c0-5.644532-4.574219-10.222657-10.21875-10.222657zm0 0" fill="#e8ce00"/><path d="m224.324219 223.808594c4.085937 3.894531 4.238281 10.363281.339843 14.449218l-79.378906 83.222657c-1.078125 1.128906-1.695312 2.253906-1.695312 3.082031v187.4375h-20.4375v-187.441406c0-6.203125 2.539062-12.148438 7.34375-17.183594l79.378906-83.226562c3.898438-4.082032 10.367188-4.234376 14.449219-.339844zm145.949219 83.566406-79.382813-83.226562c-3.894531-4.082032-10.363281-4.234376-14.449219-.339844-4.082031 3.894531-4.234375 10.363281-.339844 14.449218l79.378907 83.222657c1.078125 1.128906 1.695312 2.253906 1.695312 3.082031v187.4375h20.441407v-187.441406c-.003907-6.203125-2.542969-12.148438-7.34375-17.183594zm0 0" fill="#235967"/></svg>