<svg height="511pt" viewBox="0 -5 511.99863 511" width="511pt" xmlns="http://www.w3.org/2000/svg"><path d="m254.453125 449.183594c0 29.578125-27.929687 51.394531-56.539063 43.890625-107.425781-28.179688-186.671874-125.929688-186.671874-242.195313 0-137.984375 111.621093-249.902344 249.492187-250.378906 137.921875-.4765625 250.902344 111.785156 251.261719 249.707031.054687 19.574219-2.148438 38.621094-6.347656 56.910157-2.609376 11.355468-12.757813 19.386718-24.414063 19.386718h-104.101563c-67.757812 0-122.679687 54.925782-122.679687 122.679688zm0 0" fill="#b0dde9"/><path d="m254.867188 472.632812c-8.175782 2.191407-16.582032-2.660156-18.773438-10.839843l-99.28125-371.835938c-3.644531-13.605469-17.679688-21.710937-31.289062-18.066406l-39.484376 10.582031c-7.078124 1.894532-13.007812 6.75-16.273437 13.320313-3.773437 7.578125-12.972656 10.671875-20.550781 6.902343-7.582032-3.769531-10.671875-12.96875-6.902344-20.550781 7.179688-14.441406 20.222656-25.113281 35.789062-29.285156l39.488282-10.582031c29.9375-8.019532 60.816406 9.808594 68.839844 39.746094l99.277343 371.835937c2.191407 8.175781-2.660156 16.582031-10.839843 18.773437zm0 0" fill="#235967"/><path d="m74.914062 87.277344-44.253906 25.546875c-9.773437 5.644531-22.273437 2.296875-27.917968-7.480469-5.644532-9.773438-2.292969-22.273438 7.480468-27.917969l44.253906-25.550781c9.773438-5.644531 22.273438-2.292969 27.917969 7.480469 5.644531 9.777343 2.292969 22.277343-7.480469 27.921875zm0 0" fill="#fd5757"/><path d="m459.625 404.117188-183.675781 49.214843c-8.175781 2.191407-16.582031-2.660156-18.773438-10.839843l-59.929687-223.65625c-2.191406-8.175782 2.664062-16.582032 10.839844-18.773438l235.925781-63.214844c8.175781-2.191406 16.582031 2.660156 18.773437 10.839844l42.800782 159.738281c-8.257813 35.773438-24.191407 68.605469-45.960938 96.691407zm0 0" fill="#dca050"/><path d="m459.625 404.117188-155.046875 41.546874c-8.179687 2.191407-16.585937-2.664062-18.777344-10.839843l-59.925781-223.65625c-2.191406-8.179688 2.660156-16.582031 10.839844-18.773438l207.296875-55.546875c8.175781-2.191406 16.582031 2.664063 18.773437 10.839844l42.800782 159.738281c-8.257813 35.773438-24.191407 68.605469-45.960938 96.691407zm0 0" fill="#ebae56"/><path d="m396.976562 389.164062-16.359374 4.382813c-5.453126 1.460937-11.054688-1.773437-12.515626-7.226563l-4.382812-16.359374c-1.460938-5.449219 1.773438-11.054688 7.226562-12.515626l16.359376-4.382812c5.449218-1.460938 11.054687 1.773438 12.515624 7.226562l4.382813 16.359376c1.460937 5.449218-1.773437 11.054687-7.226563 12.515624zm-96.433593-2.273437c-1.460938-5.453125-7.066407-8.6875-12.515625-7.226563l-16.359375 4.382813c-5.453125 1.460937-8.6875 7.066406-7.226563 12.515625l4.382813 16.359375c1.460937 5.453125 7.066406 8.6875 12.515625 7.226563l16.359375-4.382813c5.453125-1.460937 8.6875-7.066406 7.226562-12.515625zm49.636719-13.300781c-1.457032-5.453125-7.0625-8.6875-12.515626-7.226563l-16.355468 4.382813c-5.453125 1.460937-8.6875 7.066406-7.226563 12.515625l4.382813 16.359375c1.460937 5.453125 7.0625 8.6875 12.515625 7.226562l16.359375-4.382812c5.453125-1.460938 8.6875-7.066406 7.226562-12.515625zm0 0" fill="#ce9047"/><path d="m303.59375 266.214844-8.0625 7.582031c-.972656.914063-2.421875 1.671875-4.027344 2.101563-3.347656.894531-6.449218.164062-6.929687-1.632813l-23.675781-88.355469 130.300781-34.914062 23.675781 88.355468c.480469 1.796876-1.839844 3.980469-5.183594 4.878907-1.609375.429687-3.242187.5-4.539062.195312l-10.777344-2.535156c-2.203125-.519531-5.328125.316406-6.976562 1.871094l-5.789063 5.441406c-2.429687 2.285156-6.050781 4.171875-10.0625 5.246094-4.015625 1.074219-8.089844 1.25-11.339844.488281l-7.734375-1.820312c-2.203125-.519532-5.328125.320312-6.976562 1.871093l-5.789063 5.441407c-2.429687 2.285156-6.050781 4.171874-10.0625 5.246093-4.015625 1.078125-8.089843 1.253907-11.339843.488281l-7.734376-1.820312c-2.203124-.515625-5.328124.320312-6.976562 1.871094zm0 0" fill="#fdf7bd"/><path d="m356.921875 224.191406c.289063 1.089844-.355469 2.210938-1.445313 2.503906l-57.996093 15.539063c-1.089844.292969-2.210938-.355469-2.503907-1.445313l-2.90625-10.859374c-.292968-1.089844.351563-2.210938 1.445313-2.503907l57.992187-15.539062c1.089844-.292969 2.210938.355469 2.503907 1.445312zm24.929687-35.773437-2.910156-10.859375c-.292968-1.089844-1.414062-1.738282-2.503906-1.445313l-90.199219 24.167969c-1.089843.292969-1.734375 1.414062-1.445312 2.503906l2.910156 10.859375c.292969 1.089844 1.414063 1.738281 2.503906 1.445313l90.199219-24.167969c1.089844-.292969 1.738281-1.414063 1.445312-2.503906zm0 0" fill="#f9d19a"/><path d="m271.699219 501.039062c-.464844-.785156-.839844-1.644531-1.089844-2.570312l-8.820313-32.914062c-1.460937-5.453126 1.773438-11.058594 7.226563-12.515626l192.6875-51.632812c-43.804687 58.136719-112.359375 96.558594-190.003906 99.632812zm0 0" fill="#649eb0"/><path d="m196.683594 492.71875c-10.066406-35.703125 11.015625-72.640625 46.738281-82.210938 35.4375-9.496093 71.859375 11.535157 81.355469 46.972657 3.273437 12.210937 2.917968 24.542969-.402344 35.847656-12.601562 3.25-25.589844 5.542969-38.878906 6.800781-.667969.0625-1.339844.03125-2-.078125-14.066406-2.34375-29.082032-2.554687-44.070313-.25-1.261719.191407-2.542969.242188-3.8125.113281-13.304687-1.378906-26.300781-3.796874-38.90625-7.167968-.003906-.011719-.011719-.019532-.023437-.027344zm0 0" fill="#328091"/><path d="m359.34375 428.839844 102.359375-27.433594c-9.910156 13.148438-21.09375 25.277344-33.351563 36.230469l-62.148437 16.660156c-6.429687 1.722656-13.132813-1.675781-15.511719-7.890625-.039062-.101562-.078125-.207031-.121094-.3125-2.773437-7.21875 1.304688-15.25 8.773438-17.253906zm0 0" fill="#7daebd"/><path d="m295.164062 465.414062c3.445313 12.851563-.578124 25.9375-9.394531 34.679688-7.949219.761719-16 1.164062-24.148437 1.164062-8.910156 0-17.710938-.472656-26.378906-1.382812-4.261719-4.28125-7.503907-9.691406-9.179688-15.945312-5.113281-19.082032 6.210938-38.695313 25.292969-43.808594 19.082031-5.113282 38.695312 6.210937 43.808593 25.292968zm0 0" fill="#b6c4cf"/><path d="m295.164062 465.414062c3.445313 12.851563-.578124 25.9375-9.394531 34.679688-2.289062.21875-4.582031.402344-6.886719.5625-10.988281-3.6875-19.980468-12.628906-23.203124-24.664062-3.691407-13.78125 1.191406-27.835938 11.375-36.511719 13.160156 2.421875 24.417968 12.152343 28.109374 25.933593zm0 0" fill="#d9e7ec"/></svg>