<svg height="511pt" viewBox="-5 1 511 511.99974" width="511pt" xmlns="http://www.w3.org/2000/svg"><path d="m501.257812 261.621094c0 138.28125-112.097656 250.378906-250.378906 250.378906s-250.378906-112.097656-250.378906-250.378906 112.097656-250.378906 250.378906-250.378906 250.378906 112.097656 250.378906 250.378906zm0 0" fill="#b0dde9"/><path d="m264.164062 164.535156c0 72.808594-59.023437 131.832032-131.832031 131.832032-72.808593 0-131.832031-59.023438-131.832031-131.832032s59.023438-131.832031 131.832031-131.832031c72.808594 0 131.832031 59.023437 131.832031 131.832031zm0 0" fill="#328091"/><path d="m264.164062 164.535156c0 67.621094-50.917968 123.34375-116.503906 130.941406-65.585937-7.597656-116.5-63.320312-116.5-130.941406 0-67.625 50.914063-123.34375 116.5-130.941406 65.585938 7.597656 116.503906 63.316406 116.503906 130.941406zm0 0" fill="#458fa4"/><path d="m239.445312 164.535156c0 59.15625-47.957031 107.113282-107.113281 107.113282s-107.113281-47.957032-107.113281-107.113282 47.957031-107.113281 107.113281-107.113281 107.113281 47.957031 107.113281 107.113281zm0 0" fill="#fff5f5"/><path d="m141.808594 46.050781v146.332031c0 2.820313-2.289063 5.109376-5.109375 5.109376h-6.261719c-2.820312 0-5.109375-2.289063-5.109375-5.109376v-146.332031c0-2.820312 2.289063-5.109375 5.109375-5.109375h6.261719c2.820312 0 5.109375 2.289063 5.109375 5.109375zm0 0" fill="#b6c4cf"/><path d="m217.03125 172.363281h-105.132812c-2.820313 0-5.109376-2.289062-5.109376-5.109375v-6.261718c0-2.820313 2.289063-5.109376 5.109376-5.109376h105.132812c2.824219 0 5.113281 2.289063 5.113281 5.109376v6.261718c0 2.820313-2.289062 5.109375-5.113281 5.109375zm0 0" fill="#235967"/><path d="m66.664062 172.363281h-22.742187c-2.820313 0-5.109375-2.289062-5.109375-5.109375v-6.261718c0-2.820313 2.289062-5.109376 5.109375-5.109376h22.742187c2.820313 0 5.109376 2.289063 5.109376 5.109376v6.261718c0 2.820313-2.289063 5.109375-5.109376 5.109375zm20.996094 33.242188c-1.996094-1.996094-5.234375-1.996094-7.226562 0l-16.078125 16.078125c-1.996094 1.996094-1.996094 5.230468 0 7.226562l4.425781 4.425782c1.996094 1.996093 5.230469 1.996093 7.226562 0l16.078126-16.078126c1.996093-1.996093 1.996093-5.230468 0-7.226562zm115.121094-106.273438-4.425781-4.425781c-1.996094-1.996094-5.230469-1.996094-7.226563 0l-16.078125 16.078125c-1.996093 1.996094-1.996093 5.230469 0 7.226563l4.425781 4.425781c1.996094 1.996093 5.230469 1.996093 7.226563 0l16.078125-16.078125c1.996094-1.992188 1.996094-5.230469 0-7.226563zm-66.082031 126.585938h-6.261719c-2.820312 0-5.109375 2.289062-5.109375 5.109375v22.742187c0 2.820313 2.289063 5.109375 5.109375 5.109375h6.261719c2.820312 0 5.109375-2.289062 5.109375-5.109375v-22.742187c0-2.820313-2.289063-5.109375-5.109375-5.109375zm-60.691407-131.011719c-1.996093-1.996094-5.230468-1.996094-7.226562 0l-4.425781 4.425781c-1.996094 1.996094-1.996094 5.230469 0 7.226563l16.078125 16.078125c1.996094 1.996093 5.230468 1.996093 7.226562 0l4.425782-4.425781c1.996093-1.996094 1.996093-5.230469 0-7.226563zm0 0" fill="#d9e7ec"/><path d="m391.910156 413.226562h-213.589844c-8.464843 0-15.328124-6.863281-15.328124-15.328124v-178.179688c0-8.464844 6.863281-15.328125 15.328124-15.328125h213.589844c8.464844 0 15.328125 6.863281 15.328125 15.328125v178.179688c0 8.464843-6.863281 15.328124-15.328125 15.328124zm0 0" fill="#dca050"/><path d="m391.910156 413.226562h-187.257812c-8.464844 0-15.328125-6.863281-15.328125-15.328124v-178.179688c0-8.464844 6.863281-15.328125 15.328125-15.328125h187.257812c8.464844 0 15.328125 6.863281 15.328125 15.328125v178.179688c0 8.464843-6.863281 15.328124-15.328125 15.328124zm0 0" fill="#ebae56"/><path d="m243.363281 283.125-8.664062 4.652344c-1.046875.5625-2.460938.878906-3.941407.878906-3.074218 0-5.570312-1.339844-5.570312-2.992188v-81.273437h119.855469v81.273437c0 1.652344-2.496094 2.992188-5.574219 2.992188-1.476562 0-2.894531-.316406-3.9375-.878906l-8.664062-4.652344c-1.773438-.953125-4.648438-.953125-6.421876 0l-6.21875 3.339844c-2.609374 1.402344-6.152343 2.191406-9.84375 2.191406-3.691406 0-7.230468-.789062-9.839843-2.191406l-6.21875-3.339844c-1.773438-.953125-4.648438-.953125-6.421875 0l-6.21875 3.339844c-2.609375 1.402344-6.148438 2.191406-9.839844 2.191406s-7.234375-.789062-9.84375-2.191406l-6.21875-3.339844c-1.769531-.949219-4.644531-.949219-6.417969 0zm0 0" fill="#fff5f5"/><path d="m243.859375 222.550781h82.511719c1.128906 0 2.042968.914063 2.042968 2.042969v9.53125c0 1.132812-.914062 2.046875-2.042968 2.046875h-82.511719c-1.128906 0-2.042969-.914063-2.042969-2.046875v-9.53125c0-1.128906.914063-2.042969 2.042969-2.042969zm-2.042969 27.015625v9.53125c0 1.128906.914063 2.042969 2.042969 2.042969h52.886719c1.128906 0 2.046875-.914063 2.046875-2.042969v-9.53125c0-1.132812-.917969-2.046875-2.046875-2.046875h-52.886719c-1.128906 0-2.042969.914063-2.042969 2.046875zm0 0" fill="#f9d19a"/><path d="m288.171875 363v12.769531c0 5.644531-4.574219 10.21875-10.21875 10.21875h-12.765625c-5.644531 0-10.21875-4.574219-10.21875-10.21875v-12.769531c0-5.644531 4.574219-10.21875 10.21875-10.21875h12.765625c5.644531 0 10.21875 4.574219 10.21875 10.21875zm35.441406-10.21875h-12.769531c-5.644531 0-10.21875 4.574219-10.21875 10.21875v12.769531c0 5.644531 4.574219 10.21875 10.21875 10.21875h12.769531c5.644531 0 10.21875-4.574219 10.21875-10.21875v-12.769531c0-5.644531-4.574219-10.21875-10.21875-10.21875zm45.65625 0h-12.765625c-5.644531 0-10.21875 4.574219-10.21875 10.21875v12.769531c0 5.644531 4.574219 10.21875 10.21875 10.21875h12.765625c5.644531 0 10.222657-4.574219 10.222657-10.21875v-12.769531c0-5.644531-4.578126-10.21875-10.222657-10.21875zm0 0" fill="#ce9047"/><path d="m398.746094 277.945312-78.980469-128.730468c-23.699219-38.628906-17.8125-88.472656 14.230469-120.515625 38.265625-38.265625 100.300781-38.265625 138.5625 0 32.046875 32.042969 37.933594 81.886719 14.230468 120.515625l-78.976562 128.730468c-2.078125 3.382813-6.992188 3.382813-9.066406 0zm0 0" fill="#fd4343"/><path d="m418.207031 261.003906-68.585937-111.789062c-23.699219-38.628906-17.816406-88.472656 14.230468-120.515625 15.324219-15.324219 34.460938-24.503907 54.355469-27.554688 19.894531 3.050781 39.03125 12.230469 54.351563 27.554688 32.046875 32.042969 37.933594 81.886719 14.234375 120.515625zm0 0" fill="#fd5757"/><path d="m403.277344 28.386719c-38.921875 0-70.472656 31.550781-70.472656 70.472656s31.550781 70.472656 70.472656 70.472656 70.476562-31.550781 70.476562-70.472656-31.554687-70.472656-70.476562-70.472656zm0 117.457031c-25.949219 0-46.984375-21.035156-46.984375-46.984375s21.035156-46.984375 46.984375-46.984375c25.949218 0 46.984375 21.035156 46.984375 46.984375s-21.035157 46.984375-46.984375 46.984375zm29.367187-46.984375c0 16.21875-13.148437 29.363281-29.367187 29.363281s-29.363282-13.144531-29.363282-29.363281 13.144532-29.363281 29.363282-29.363281 29.367187 13.144531 29.367187 29.363281zm0 0" fill="#fd9898"/><path d="m262.277344 332.003906-101.65625 111.445313c-3.609375 3.957031-8.714844 6.210937-14.066406 6.210937-5.355469 0-10.460938-2.253906-14.070313-6.210937l-56.496094-61.9375c-7.085937-7.769531-6.53125-19.8125 1.238281-26.898438 7.769532-7.089843 19.8125-6.535156 26.898438 1.234375l42.425781 46.511719 87.585938-96.019531c7.089843-7.773438 19.132812-8.324219 26.902343-1.238282 7.769532 7.089844 8.324219 19.132813 1.238282 26.902344zm0 0" fill="#49cb5c"/><path d="m260.53125 304.664062c-.605469.515626-1.191406 1.070313-1.742188 1.675782l-98.820312 108.128906c-3.578125 3.925781-9.746094 3.964844-13.375.085938-3.246094-3.46875-3.28125-8.847657-.078125-12.359376l87.621094-95.855468c6.9375-7.601563 18.617187-8.289063 26.394531-1.675782zm-103.394531 138.785157-73.917969-79.355469c-2.757812-3.023438-4.351562-6.6875-4.820312-10.460938-.402344.3125-.792969.632813-1.175782.980469-7.769531 7.085938-8.320312 19.132813-1.234375 26.902344l56.496094 61.9375c3.609375 3.953125 8.714844 6.207031 14.066406 6.207031 4.542969 0 8.902344-1.625 12.328125-4.535156-.613281-.519531-1.195312-1.074219-1.742187-1.675781zm0 0" fill="#0cc33c"/></svg>