<svg height="512pt" viewBox="-6 0 512 512" width="512pt" xmlns="http://www.w3.org/2000/svg"><path d="m500.757812 261.621094c0 70.804687-29.390624 134.746094-76.636718 180.289062-11.910156 11.480469-25 21.679688-38.992188 30.636719-16.464844 10.539063-34.199218 19.3125-52.988281 25.800781-25.625 8.847656-53.132813 13.652344-81.761719 13.652344s-56.140625-4.804688-81.761718-13.65625c-18.246094-6.296875-34.949219-14.96875-51.007813-25.09375-14.535156-9.167969-28.65625-19.46875-40.972656-31.34375-47.246094-45.539062-76.636719-109.480469-76.636719-180.285156 0-138.28125 112.097656-250.378906 250.378906-250.378906s250.378906 112.097656 250.378906 250.378906zm0 0" fill="#fd5757"/><path d="m475.210938 308.242188v7.695312c0 7.171875-2.515626 14.117188-7.105469 19.625l-29.78125 35.738281c-9.183594 11.019531-14.210938 24.910157-14.210938 39.253907v31.355468c-25.921875 24.984375-57.214843 44.425782-91.976562 56.433594v-50.796875c0-18.40625-3.234375-36.726563-10.105469-53.800781-6.828125-16.960938-10.335938-35.070313-10.335938-53.347656v-115.558594l35.414063-3.542969c36.402344-3.636719 62.417969-36.894531 57.191406-73.105469 0-8.464844 6.863281-15.328125 15.328125-15.328125 14.640625 0 27.027344 10.808594 29.011719 25.3125l23.070313 98.640625c2.328124 17.042969 3.5 34.222656 3.5 51.425782zm-380.796876-160.050782c0-8.464844-6.863281-15.328125-15.328124-15.328125-14.640626 0-27.027344 10.808594-29.011719 25.3125l-21.027344 98.640625c-2.328125 17.042969-3.496094 34.222656-3.496094 51.425782v7.695312c0 7.171875 2.511719 14.117188 7.105469 19.625l29.777344 35.738281c9.183594 11.019531 14.214844 24.910157 14.214844 39.253907v31.355468c25.917968 24.984375 57.210937 44.433594 91.972656 56.441406v-50.804687c0-18.40625 3.234375-36.726563 10.109375-53.800781 6.824219-16.960938 10.332031-35.070313 10.332031-53.347656v-115.558594l-35.671875-3.566406c-36.59375-3.660157-63.128906-36.539063-58.976563-73.082032zm0 0" fill="#ffdfcf"/><path d="m86.960938 359.445312c9.183593 11.019532 14.210937 24.910157 14.210937 39.253907v64.011719c-8.617187-6.410157-16.808594-13.351563-24.523437-20.789063v-31.359375c0-14.34375-5.03125-28.234375-14.214844-39.253906l-29.777344-35.734375c-4.59375-5.511719-7.105469-12.457031-7.105469-19.628907v-7.691406c0-17.203125 1.167969-34.386718 3.496094-51.429687l21.027344-98.636719c1.984375-14.5 14.371093-25.3125 29.011719-25.3125 3.867187 0 7.394531 1.445312 10.089843 3.8125-7.714843 4.378906-13.296875 12.171875-14.574219 21.5l-21.027343 98.640625c-2.332031 17.042969-3.5 22.359375-3.5 39.5625v7.691406c0 7.171875 2.515625 14.117188 7.105469 19.625zm0 0" fill="#ffcebf"/><path d="m417.910156 16.351562v277.972657c0 8.464843-6.863281 15.328125-15.328125 15.328125h-304.402343c-8.46875 0-15.332032-6.863282-15.332032-15.328125v-277.972657c0-8.464843 6.863282-15.328124 15.332032-15.328124h304.402343c8.464844 0 15.328125 6.863281 15.328125 15.328124zm0 0" fill="#f5b65d"/><path d="m417.910156 16.351562v277.972657c0 8.464843-6.863281 15.328125-15.328125 15.328125h-278.394531c-8.464844 0-15.328125-6.863282-15.328125-15.328125v-277.972657c0-8.464843 6.863281-15.328124 15.328125-15.328124h278.394531c8.464844 0 15.328125 6.863281 15.328125 15.328124zm0 0" fill="#f7c37d"/><path d="m189.0625 214.609375v97.085937c0 11.289063-9.152344 20.441407-20.441406 20.441407-11.285156 0-20.4375-9.152344-20.4375-20.441407v-97.085937c0-11.289063 9.152344-20.4375 20.4375-20.4375 11.289062 0 20.441406 9.148437 20.441406 20.4375zm143.074219-20.4375c-11.289063 0-20.441407 9.148437-20.441407 20.4375v99.640625c0 11.289062 9.152344 20.441406 20.441407 20.441406 11.289062 0 20.4375-9.152344 20.4375-20.441406v-99.640625c0-11.289063-9.148438-20.4375-20.4375-20.4375zm0 0" fill="#ffdfcf"/><path d="m203.386719 165.007812-9.75 9.753907c-1.179688 1.175781-2.773438 1.835937-4.4375 1.835937-3.460938 0-6.269531-2.808594-6.269531-6.269531v-169.304687c0-.566407.457031-1.023438 1.023437-1.023438h133.875v170.328125c0 3.460937-2.808594 6.269531-6.269531 6.269531-1.664063 0-3.257813-.660156-4.433594-1.835937l-9.753906-9.753907c-1.996094-1.996093-5.230469-1.996093-7.226563 0l-7 7c-2.9375 2.9375-6.921875 4.589844-11.074219 4.589844-4.15625 0-8.140624-1.652344-11.078124-4.589844l-7-7c-1.996094-1.996093-5.230469-1.996093-7.226563 0l-7 7c-2.9375 2.9375-6.921875 4.589844-11.074219 4.589844-4.15625 0-8.140625-1.652344-11.078125-4.589844l-7-7c-1.996093-1.992187-5.230469-1.992187-7.226562 0zm0 0" fill="#fdf7bd"/><path d="m264.6875 129.789062v11.242188c0 1.125-.917969 2.042969-2.042969 2.042969h-60.042969c-1.128906 0-2.042968-.917969-2.042968-2.042969v-11.242188c0-1.128906.914062-2.042968 2.042968-2.042968h60.042969c1.125 0 2.042969.914062 2.042969 2.042968zm38.832031-30.148437h-100.917969c-1.128906 0-2.042968.914063-2.042968 2.042969v11.242187c0 1.128907.914062 2.042969 2.042968 2.042969h100.917969c1.128907 0 2.046875-.914062 2.046875-2.042969v-11.242187c0-1.128906-.917968-2.042969-2.046875-2.042969zm0 0" fill="#f9d19a"/><path d="m243.992188 22.484375v16.351563c0 1.125-.914063 2.042968-2.042969 2.042968h-11.242188c-1.128906 0-2.042969-.917968-2.042969-2.042968v-16.351563c0-1.128906.914063-2.046875 2.042969-2.046875h11.242188c1.128906 0 2.042969.917969 2.042969 2.046875zm-2.042969 28.613281h-11.242188c-1.128906 0-2.042969.914063-2.042969 2.042969v26.570313c0 1.128906.914063 2.046874 2.042969 2.046874h11.242188c1.128906 0 2.042969-.917968 2.042969-2.046874v-26.570313c0-1.128906-.914063-2.042969-2.042969-2.042969zm-28.105469-30.660156h-11.242188c-1.128906 0-2.042968.917969-2.042968 2.046875v57.226563c0 1.128906.914062 2.046874 2.042968 2.046874h11.242188c1.128906 0 2.042969-.917968 2.042969-2.046874v-57.226563c0-1.128906-.914063-2.046875-2.042969-2.046875zm84.3125 0h-11.242188c-1.128906 0-2.042968.917969-2.042968 2.046875v36.789063c0 1.128906.914062 2.042968 2.042968 2.042968h11.242188c1.128906 0 2.042969-.914062 2.042969-2.042968v-36.789063c0-1.128906-.914063-2.046875-2.042969-2.046875zm-28.105469 0h-11.242187c-1.125 0-2.042969.917969-2.042969 2.046875v57.226563c0 1.128906.917969 2.046874 2.042969 2.046874h11.242187c1.128907 0 2.046875-.917968 2.046875-2.046874v-57.226563c0-1.128906-.917968-2.046875-2.046875-2.046875zm28.105469 51.097656h-11.242188c-1.128906 0-2.042968.917969-2.042968 2.046875v6.128907c0 1.128906.914062 2.046874 2.042968 2.046874h11.242188c1.128906 0 2.042969-.917968 2.042969-2.046874v-6.128907c0-1.128906-.914063-2.046875-2.042969-2.046875zm0 0" fill="#7a8c98"/><path d="m356.664062 446.554688v41.832031c-7.957031 3.734375-16.140624 7.066406-24.527343 9.964843v-51.796874c0-18.175782-3.46875-36.1875-10.21875-53.066407-6.753907-16.875-10.222657-34.886719-10.222657-53.066406v-125.773437c0-11.289063 9.152344-20.441407 20.441407-20.441407 4.605469 0 8.84375 1.542969 12.261719 4.117188-4.957032 3.730469-8.175782 9.644531-8.175782 16.324219v125.773437c0 18.179687 3.46875 36.191406 10.21875 53.066406 6.753906 16.878907 10.222656 34.890625 10.222656 53.066407zm-189.363281-252.304688c-10.839843.6875-19.117187 10.027344-19.117187 20.886719v94.554687c12.417968 0 22.484375-10.066406 22.484375-22.484375v-72.558593c0-7.132813 3.660156-13.40625 9.195312-17.0625-3.566406-2.355469-7.90625-3.632813-12.5625-3.335938zm0 0" fill="#ffcebf"/><path d="m183.953125 209.5v20.441406c0 2.820313-2.289063 5.109375-5.109375 5.109375h-20.441406c-2.820313 0-5.109375-2.289062-5.109375-5.109375v-20.441406c0-8.464844 6.863281-15.328125 15.328125-15.328125 8.46875 0 15.332031 6.863281 15.332031 15.328125zm148.183594-15.328125c-8.46875 0-15.332031 6.863281-15.332031 15.328125v20.441406c0 2.820313 2.289062 5.109375 5.113281 5.109375h20.4375c2.820312 0 5.109375-2.289062 5.109375-5.109375v-20.441406c0-8.464844-6.863282-15.328125-15.328125-15.328125zm0 0" fill="#ffeee6"/></svg>