<svg height="512pt" viewBox="0 -5 512 511" width="512pt" xmlns="http://www.w3.org/2000/svg"><path d="m11 256.5c0-135.308594 109.691406-245 245-245 135.015625 0 245.054688 110.085938 245 245.105469-.039062 93.953125-52.972656 175.527343-130.628906 216.59375-3.34375 1.769531-7.328125 1.847656-10.753906.246093-31.472657-14.714843-66.582032-22.945312-103.617188-22.945312s-72.144531 8.230469-103.613281 22.945312c-3.4375 1.605469-7.429688 1.519532-10.78125-.257812-77.671875-41.085938-130.605469-122.699219-130.605469-216.6875zm0 0" fill="#fadeb9"/><path d="m190 340.5h132c5.523438 0 10 4.476562 10 10v40c0 5.523438-4.476562 10-10 10h-132c-5.523438 0-10-4.476562-10-10v-40c0-5.523438 4.476562-10 10-10zm0 0" fill="#458fa4"/><path d="m388 320.5h-264c-8.285156 0-15-6.714844-15-15v-173.609375c0-8.285156 6.714844-15 15-15h264c8.285156 0 15 6.714844 15 15v173.609375c0 8.285156-6.714844 15-15 15zm0 0" fill="#dca050"/><path d="m388 320.5h-237.484375c-8.285156 0-15-6.714844-15-15v-173.609375c0-8.285156 6.714844-15 15-15h237.484375c8.285156 0 15 6.714844 15 15v173.609375c0 8.285156-6.714844 15-15 15zm0 0" fill="#ebae56"/><path d="m213.957031 196.132812-8.722656 8.722657c-1.050781 1.054687-2.480469 1.644531-3.96875 1.644531-3.097656 0-5.609375-2.511719-5.609375-5.609375v-84c0-.550781.449219-1 1-1h118.6875c.550781 0 1 .449219 1 1v84c0 3.097656-2.511719 5.609375-5.609375 5.609375-1.488281 0-2.917969-.589844-3.96875-1.644531l-8.722656-8.722657c-1.785157-1.785156-4.679688-1.785156-6.464844 0l-6.261719 6.261719c-2.628906 2.628907-6.195312 4.105469-9.910156 4.105469-3.71875 0-7.285156-1.476562-9.910156-4.105469l-6.261719-6.261719c-1.785156-1.785156-4.679687-1.785156-6.464844 0l-6.261719 6.261719c-2.628906 2.628907-6.195312 4.105469-9.910156 4.105469-3.71875 0-7.285156-1.476562-9.910156-4.105469l-6.261719-6.261719c-1.789062-1.785156-4.683593-1.785156-6.46875 0zm0 0" fill="#fdf7bd"/><path d="m213.429688 137.652344h89.941406c1.105468 0 2 .894531 2 2v9.710937c0 1.105469-.894532 2-2 2h-89.941406c-1.105469 0-2-.894531-2-2v-9.710937c0-1.105469.894531-2 2-2zm-2 27.140625v9.714843c0 1.105469.894531 2 2 2h53.371093c1.105469 0 2-.894531 2-2v-9.714843c0-1.105469-.894531-2-2-2h-53.371093c-1.105469 0-2 .894531-2 2zm0 0" fill="#f9d19a"/><path d="m310.699219 36.390625-52.125 63.839844c-1.332031 1.628906-3.816407 1.628906-5.148438 0l-52.125-63.839844c-1.769531-2.167969-.226562-5.421875 2.574219-5.421875h25.550781v-20.503906c0-5.503906 4.460938-9.964844 9.964844-9.964844h33.21875c5.503906 0 9.964844 4.460938 9.964844 9.964844v20.503906h25.550781c2.800781 0 4.34375 3.253906 2.574219 5.421875zm-274.808594 114.863281c-2.167969-1.769531-5.421875-.226562-5.421875 2.574219v25.550781h-20.503906c-5.503906 0-9.964844 4.460938-9.964844 9.964844v33.21875c0 5.503906 4.460938 9.964844 9.964844 9.964844h20.503906v25.550781c0 2.800781 3.253906 4.34375 5.421875 2.574219l63.839844-52.125c1.628906-1.328125 1.628906-3.816406 0-5.144532zm466.144531 28.125h-20.503906v-25.550781c0-2.800781-3.253906-4.34375-5.425781-2.574219l-63.839844 52.128906c-1.625 1.328126-1.625 3.816407 0 5.144532l63.839844 52.125c2.171875 1.769531 5.425781.226562 5.425781-2.574219v-25.550781h20.503906c5.503906 0 9.964844-4.460938 9.964844-9.964844v-33.21875c0-5.503906-4.460938-9.964844-9.964844-9.964844zm0 0" fill="#fd4343"/><path d="m35.890625 151.253906 54.570313 44.558594-44.539063 36.363281c-.867187.710938-2.167969.09375-2.167969-1.027343v-6.28125c0-3.667969-2.976562-6.644532-6.644531-6.644532h-27.144531c-5.503906 0-9.964844-4.460937-9.964844-9.964844v-18.914062c0-5.503906 4.460938-9.964844 9.964844-9.964844h20.503906v-25.550781c0-2.800781 3.253906-4.34375 5.421875-2.574219zm466.144531 28.125h-20.503906v-25.550781c0-2.800781-3.253906-4.347656-5.425781-2.574219l-54.566407 44.554688 44.535157 36.367187c.871093.707031 2.171875.089844 2.171875-1.027343v-6.28125c0-3.671876 2.972656-6.644532 6.644531-6.644532h27.140625c5.503906 0 9.96875-4.460937 9.96875-9.964844v-18.914062c0-5.503906-4.460938-9.964844-9.964844-9.964844zm-193.910156-148.410156h-25.550781v-20.503906c0-5.503906-4.460938-9.964844-9.964844-9.964844h-18.914063c-5.503906 0-9.964843 4.460938-9.964843 9.964844v27.144531c0 3.667969-2.976563 6.644531-6.644531 6.644531h-6.28125c-1.121094 0-1.738282 1.300782-1.027344 2.167969l36.363281 44.539063 44.558594-54.570313c1.769531-2.167969.226562-5.421875-2.574219-5.421875zm0 0" fill="#fd5757"/><path d="m462 360.5h-412c-27.613281 0-50-22.386719-50-50 0-5.523438 4.476562-10 10-10h492c5.523438 0 10 4.476562 10 10 0 27.613281-22.386719 50-50 50zm-140 20h-132c-27.613281 0-50 22.386719-50 50v41.84375c34.53125 18.59375 74.03125 29.15625 116 29.15625s81.46875-10.5625 116-29.15625v-41.84375c0-27.613281-22.386719-50-50-50zm0 0" fill="#0da9cb"/><path d="m462 360.5h-382c-27.613281 0-50-22.386719-50-50 0-5.523438 4.476562-10 10-10h462c5.523438 0 10 4.476562 10 10 0 27.613281-22.386719 50-50 50zm-140 20h-102c-27.613281 0-50 22.386719-50 50v55.464844c26.761719 10.03125 55.734375 15.535156 86 15.535156 41.96875 0 81.46875-10.5625 116-29.15625v-41.84375c0-27.613281-22.386719-50-50-50zm0 0" fill="#56bcd6"/><path d="m322 455.5c0 8.285156-6.714844 15-15 15h-102c-8.285156 0-15-6.714844-15-15 0-30.375 24.625-55 55-55h22c30.375 0 55 24.625 55 55zm0 0" fill="#d9e7ec"/><path d="m251.414062 485.355469c-1.75 0-3.523437-.460938-5.132812-1.425781-4.738281-2.839844-6.273438-8.984376-3.429688-13.71875l28.570313-44.859376c2.84375-4.734374 8.988281-6.265624 13.722656-3.429687 4.734375 2.84375 6.269531 8.984375 3.429688 13.71875l-28.574219 44.859375c-1.875 3.125-5.1875 4.855469-8.585938 4.855469zm0 0" fill="#235967"/><path d="m276 470.5c0 11.046875-8.953125 20-20 20s-20-8.953125-20-20 8.953125-20 20-20 20 8.953125 20 20zm0 0" fill="#56bcd6"/></svg>