<svg height="512pt" viewBox="0 -11 512 512" width="512pt" xmlns="http://www.w3.org/2000/svg"><path d="m501 245c0 135.308594-109.691406 245-245 245s-245-109.691406-245-245 109.691406-245 245-245 245 109.691406 245 245zm0 0" fill="#b0dde9"/><path d="m340 104c0-8.285156 6.714844-15 15-15h89.921875c8.328125 9.332031 14.890625 19.460938 21.222656 30h-111.144531c-8.285156 0-15-6.714844-15-15zm-85 35h-125c-5.523438 0-10-4.476562-10-10s4.476562-10 10-10h35c8.285156 0 15-6.714844 15-15s-6.714844-15-15-15h-97.921875c-7.796875 9.429688-14.929687 19.414062-21.222656 30h44.144531c5.523438 0 10 4.476562 10 10s-4.476562 10-10 10h-5c-8.285156 0-15 6.714844-15 15s6.714844 15 15 15h170c8.285156 0 15-6.714844 15-15s-6.714844-15-15-15zm-180 70h-61.359375c-1.449219 9.824219-2.382813 19.792969-2.566406 30h63.925781c8.285156 0 15-6.714844 15-15s-6.714844-15-15-15zm345 50c-5.523438 0-10-4.476562-10-10s4.476562-10 10-10h35c8.285156 0 15-6.714844 15-15s-6.714844-15-15-15h-170c-8.285156 0-15 6.714844-15 15s6.714844 15 15 15h95c5.523438 0 10 4.476562 10 10s-4.476562 10-10 10h-5c-8.285156 0-15 6.714844-15 15s6.714844 15 15 15h122.050781c1.917969-10.03125 2.96875-19.820312 3.542969-30zm-145-200h50c8.285156 0 15-6.714844 15-15s-6.714844-15-15-15h-50c-8.285156 0-15 6.714844-15 15s6.714844 15 15 15zm70 90c-8.285156 0-15 6.714844-15 15s6.714844 15 15 15h50c8.285156 0 15-6.714844 15-15s-6.714844-15-15-15zm0 0" fill="#8ed0e1"/><path d="m492 407.332031h-10.25c-4.980469-101.160156-85.121094-182.542969-185.75-189.503906v-30.492187c0-22.058594-17.945312-40-40-40s-40 17.941406-40 40v30.492187c-100.628906 6.960937-180.769531 88.347656-185.75 189.507813h-10.25c-11.046875 0-20 8.953124-20 20 0 11.042968 8.953125 20 20 20h472c11.046875 0 20-8.957032 20-20 0-11.046876-8.953125-20.003907-20-20.003907zm-236-240c11.027344 0 20 8.972657 20 20v30h-40v-30c0-11.027343 8.972656-20 20-20zm0 0" fill="#f4aa39"/><path d="m122.039062 387.332031c-13.332031 0-22.90625-12.792969-19.207031-25.601562 23.738281-82.175781 93.761719-142.589844 183.167969-144.347657 98.460938 1.933594 179.480469 75.011719 193.765625 169.949219zm-32.039062 30c0 5.523438 4.476562 10 10 10h402c4.058594 0 7.546875-2.421875 9.113281-5.898437-2.515625-8.164063-10.121093-14.101563-19.113281-14.101563h-392c-5.523438 0-10 4.476563-10 10zm0 0" fill="#f5b65d"/><path d="m416.691406 448.3125-9.859375-142.957031c-5.738281-83.175781-53.285156-157.210938-125.484375-197.234375 13.035156-13.691406 12.84375-35.429688-.597656-48.867188-4.257812-4.257812-9.347656-7.1875-14.75-8.789062v-50.246094c-3.316406-.1328125-6.648438-.21875-10-.21875s-6.683594.0859375-10 .21875v50.246094c-5.402344 1.601562-10.492188 4.53125-14.75 8.789062-13.441406 13.4375-13.632812 35.175782-.597656 48.867188-72.199219 40.023437-119.746094 114.058594-125.484375 197.234375l-9.859375 142.957031c-.378906 5.507812 3.78125 10.285156 9.289062 10.664062.234375.015626.46875.023438.699219.023438 5.207031 0 9.601563-4.035156 9.964844-9.3125l9.859375-142.957031c5.609375-81.316407 54.734375-153.117188 128.367187-187.847657 1.671875.121094 3.351563.121094 5.023438 0 73.632812 34.730469 122.757812 106.53125 128.367187 187.847657l9.859375 142.957031c.363281 5.277344 4.757813 9.3125 9.964844 9.3125.230469 0 .464844-.007812.699219-.023438 5.507812-.378906 9.667968-5.15625 9.289062-10.664062zm-171.296875-374.917969c5.847657-5.847656 15.363281-5.851562 21.210938 0 5.847656 5.847657 5.847656 15.363281 0 21.210938-5.847657 5.847656-15.363281 5.847656-21.210938 0-5.847656-5.847657-5.847656-15.363281 0-21.210938zm0 0" fill="#235967"/><path d="m286.53125 101.097656c-1.535156 2.742188-3.453125 5.324219-5.78125 7.652344-13.648438 13.644531-35.851562 13.644531-49.496094 0-13.648437-13.648438-13.648437-35.851562 0-49.496094 2.324219-2.328125 4.90625-4.25 7.648438-5.785156-7.453125 13.328125-5.535156 30.527344 5.785156 41.847656 11.316406 11.316406 28.515625 13.238282 41.84375 5.78125zm0 0" fill="#174550"/></svg>