<svg height="511pt" viewBox="0 -5 511.99982 511" width="511pt" xmlns="http://www.w3.org/2000/svg"><path d="m63.550781 408.125c-32.789062-41.558594-52.40625-93.988281-52.550781-151-.335938-135.222656 109.777344-245.625 245-245.625 135.308594 0 245 109.691406 245 245 0 57.214844-19.613281 109.84375-52.484375 151.539062-7.6875 9.753907-21.953125 11.15625-31.300781 2.980469-43.082032-37.683593-99.480469-60.519531-161.214844-60.519531s-118.128906 22.835938-161.210938 60.515625c-9.316406 8.148437-23.574218 6.824219-31.238281-2.890625zm0 0" fill="#69c3da"/><path d="m50 255.5c0 8.285156-6.714844 15-15 15h-23.59375c-.261719-4.636719-.40625-9.300781-.40625-14 0-5.378906.191406-10.710938.535156-16h23.464844c8.285156 0 15 6.714844 15 15zm245-115h-180c-8.285156 0-15 6.714844-15 15s6.714844 15 15 15h85c5.523438 0 10 4.476562 10 10s-4.476562 10-10 10h-125c-8.285156 0-15 6.714844-15 15s6.714844 15 15 15h190c8.285156 0 15-6.714844 15-15s-6.714844-15-15-15h-25c-5.523438 0-10-4.476562-10-10s4.476562-10 10-10h55c8.285156 0 15-6.714844 15-15s-6.714844-15-15-15zm185 75c0-8.285156-6.714844-15-15-15h-140c-8.285156 0-15 6.714844-15 15s6.714844 15 15 15h140c8.285156 0 15-6.714844 15-15zm-15 75h-40c-8.285156 0-15 6.714844-15 15s6.714844 15 15 15h40c8.285156 0 15-6.714844 15-15s-6.714844-15-15-15zm0 0" fill="#8ed0e1"/><path d="m155.5 143h-50c-4.140625 0-7.5 3.355469-7.5 7.5v15c0 15.339844 10.683594 28.222656 25 31.617188v73.382812h15v-73.382812c14.316406-3.394532 25-16.277344 25-31.617188v-15c0-4.144531-3.359375-7.5-7.5-7.5zm-7.5 22.5c0 9.648438-7.851562 17.5-17.5 17.5s-17.5-7.851562-17.5-17.5v-7.5h35zm258.5-22.5h-50c-4.140625 0-7.5 3.355469-7.5 7.5v15c0 15.339844 10.683594 28.222656 25 31.617188v73.382812h15v-73.382812c14.316406-3.394532 25-16.277344 25-31.617188v-15c0-4.144531-3.359375-7.5-7.5-7.5zm-7.5 22.5c0 9.648438-7.851562 17.5-17.5 17.5s-17.5-7.851562-17.5-17.5v-7.5h35zm0 0" fill="#235967"/><path d="m166 160.5h-71c-8.285156 0-15-6.714844-15-15v-10c0-8.285156 6.714844-15 15-15h71c8.285156 0 15 6.714844 15 15v10c0 8.285156-6.714844 15-15 15zm266-15v-10c0-8.285156-6.714844-15-15-15h-71c-8.285156 0-15 6.714844-15 15v10c0 8.285156 6.714844 15 15 15h71c8.285156 0 15-6.714844 15-15zm0 0" fill="#458fa4"/><path d="m449 407.425781c-44.847656 57.269531-114.625 94.074219-193 94.074219-78.378906 0-148.152344-36.804688-193-94.074219v-143.925781c0-8.285156 6.714844-15 15-15h356c8.285156 0 15 6.714844 15 15zm0 0" fill="#f5b65d"/><path d="m449 407.425781c-44.847656 57.269531-114.625 94.074219-193 94.074219-64.289062 0-122.78125-24.773438-166.484375-65.277344v-172.722656c0-8.285156 6.714844-15 15-15h329.484375c8.285156 0 15 6.714844 15 15zm0 0" fill="#f7c37d"/><path d="m213.957031 396.125-8.722656 8.722656c-1.050781 1.054688-2.480469 1.644532-3.96875 1.644532-3.097656 0-5.609375-2.511719-5.609375-5.609376v-152.382812c0-.550781.449219-1 1-1h118.6875c.550781 0 1 .449219 1 1v152.382812c0 3.097657-2.511719 5.609376-5.609375 5.609376-1.488281 0-2.917969-.589844-3.96875-1.644532l-8.722656-8.722656c-1.785157-1.785156-4.679688-1.785156-6.464844 0l-6.261719 6.261719c-2.628906 2.628906-6.195312 4.105469-9.910156 4.105469-3.71875 0-7.285156-1.476563-9.910156-4.105469l-6.261719-6.261719c-1.785156-1.785156-4.679687-1.785156-6.464844 0l-6.261719 6.261719c-2.628906 2.628906-6.195312 4.105469-9.910156 4.105469-3.71875 0-7.285156-1.476563-9.910156-4.105469l-6.261719-6.261719c-1.789062-1.785156-4.683593-1.785156-6.46875 0zm0 0" fill="#fdf7bd"/><path d="m213.429688 337.644531h89.941406c1.105468 0 2 .894531 2 2v9.710938c0 1.105469-.894532 2-2 2h-89.941406c-1.105469 0-2-.894531-2-2v-9.710938c0-1.105469.894531-2 2-2zm-2 27.140625v9.714844c0 1.105469.894531 2 2 2h53.371093c1.105469 0 2-.894531 2-2v-9.714844c0-1.105468-.894531-2-2-2h-53.371093c-1.105469 0-2 .894532-2 2zm0 0" fill="#f9d19a"/><path d="m225.144531 268.785156v50.859375c0 1.101563-.898437 2-2 2h-9.714843c-1.105469 0-2-.898437-2-2v-50.859375c0-1.105468.894531-2 2-2h9.714843c1.101563 0 2 .894532 2 2zm48.285157-2h-9.714844c-1.105469 0-2 .894532-2 2v50.859375c0 1.101563.894531 2 2 2h9.714844c1.105468 0 2-.898437 2-2v-50.859375c0-1.105468-.898438-2-2-2zm-25.144532 0h-9.714844c-1.101562 0-2 .894532-2 2v14.285156c0 1.105469.898438 2 2 2h9.714844c1.105469 0 2-.894531 2-2v-14.285156c0-1.105468-.894531-2-2-2zm0 27.429688h-9.714844c-1.101562 0-2 .894531-2 2v23.429687c0 1.101563.898438 2 2 2h9.714844c1.105469 0 2-.898437 2-2v-23.429687c0-1.105469-.894531-2-2-2zm50.285156-27.429688h-9.714843c-1.105469 0-2 .894532-2 2v32.570313c0 1.105469.894531 2 2 2h9.714843c1.105469 0 2-.894531 2-2v-32.570313c0-1.105468-.894531-2-2-2zm0 45.714844h-9.714843c-1.105469 0-2 .894531-2 2v5.144531c0 1.101563.894531 2 2 2h9.714843c1.105469 0 2-.898437 2-2v-5.144531c0-1.105469-.894531-2-2-2zm0 0" fill="#7a8c98"/><path d="m148.445312 75.867188c3.25 3.140624 1.074219 8.632812-3.445312 8.632812h-140c-4.519531 0-6.691406-5.492188-3.445312-8.632812 9.476562-9.160157 22.375-14.792969 36.59375-14.792969 14.355468 0 27.351562 5.761719 36.851562 15.078125 9.496094-9.316406 22.492188-15.078125 36.851562-15.078125 14.21875-.003907 27.117188 5.632812 36.59375 14.792969zm362 0c-9.476562-9.160157-22.375-14.792969-36.59375-14.792969-14.355468 0-27.355468 5.761719-36.851562 15.078125-9.5-9.316406-22.496094-15.078125-36.851562-15.078125-14.21875 0-27.117188 5.632812-36.59375 14.792969-3.25 3.140624-1.074219 8.632812 3.445312 8.632812h140c4.519531 0 6.691406-5.492188 3.445312-8.632812zm0 0" fill="#fd7a7a"/><path d="m90 65.5v55h-30v-55c0-8.285156 6.714844-15 15-15s15 6.714844 15 15zm347-15c-8.285156 0-15 6.714844-15 15v55h30v-55c0-8.285156-6.714844-15-15-15zm0 0" fill="#f52c2c"/><path d="m401 245.5v208.5c-12.191406 8.964844-25.222656 16.839844-39 23.441406v-231.941406c0-8.285156 6.714844-15 15-15h9c8.285156 0 15 6.714844 15 15zm-266-15h-9c-8.285156 0-15 6.714844-15 15v208.484375c12.195312 9.003906 25.273438 16.878906 39 23.457031v-231.941406c0-8.285156-6.714844-15-15-15zm0 0" fill="#fd5757"/><path d="m497 110.5c0 16.570312-13.429688 30-30 30h-422c-16.570312 0-30-13.429688-30-30 0-5.523438 4.476562-10 10-10h145v-29c0-39.210938 31.789062-71 71-71h30c39.210938 0 71 31.789062 71 71v29h145c5.523438 0 10 4.476562 10 10zm0 0" fill="#fadeb9"/><path d="m497 110.472656c.015625 16.582032-13.421875 30.027344-30 30.027344h-392c-16.578125 0-30.015625-13.445312-30-30.027344.003906-5.507812 4.488281-9.972656 10-9.972656h245c5.742188 0 10.355469-4.839844 9.976562-10.664062-.34375-5.316407-4.992187-9.335938-10.320312-9.335938h-90.65625c-4.972656 0-9-4.027344-9-9 0-39.390625 32.078125-71.289062 71.539062-71 39.148438.292969 70.460938 32.742188 70.460938 71.890625v28.109375h145c5.511719 0 9.996094 4.464844 10 9.972656zm0 0" fill="#fff5f5"/><path d="m276 50.5c0 11.046875-8.953125 20-20 20s-20-8.953125-20-20 8.953125-20 20-20 20 8.953125 20 20zm0 0" fill="#faab90"/><path d="m266 50.5c0 5.523438-4.476562 10-10 10s-10-4.476562-10-10 4.476562-10 10-10 10 4.476562 10 10zm0 0" fill="#235967"/></svg>