<svg height="512pt" viewBox="-6 0 512 512.00002" width="512pt" xmlns="http://www.w3.org/2000/svg"><path d="m490 256c0 135.308594-109.691406 245-245 245-33.714844 0-65.839844-6.808594-95.070312-19.128906-26.945313-11.355469-50.789063-27.546875-71.804688-47.246094-16.984375-15.921875-32.34375-34.078125-44.25-54.242188-21.523438-36.460937-33.875-78.980468-33.875-124.382812 0-135.308594 109.691406-245 245-245s245 109.691406 245 245zm0 0" fill="#69c3da"/><path d="m428.371094 236.019531c-17.042969 17.039063-43.875 18.292969-62.375 3.789063-19.175782 16.824218-44.542969 22.78125-68.113282 17.878906-2.304687 5.589844-5.71875 10.828125-10.261718 15.371094-18.40625 18.410156-48.257813 18.410156-66.667969 0s-18.410156-48.261719 0-66.671875c4.632813-4.632813 9.992187-8.097657 15.707031-10.398438-4.671875-23.386719 1.332032-48.46875 17.992188-67.472656-1.40625-1.117187-2.769532-2.316406-4.066406-3.613281-18.410157-18.414063-18.410157-48.261719 0-66.671875 18.40625-18.410157 48.257812-18.410157 66.667968 0 12.167969 12.167969 16.285156 29.328125 12.371094 44.882812 14.726562 2.957031 28.777344 10.132813 40.195312 21.550781 9.082032 9.085938 15.46875 19.839844 19.195313 31.273438 13.984375-1.792969 28.617187 2.671875 39.355469 13.410156 18.410156 18.410156 18.410156 48.257813 0 66.671875zm0 0" fill="#07b128"/><path d="m360.296875 80.066406c-5.554687-21.382812 7.273437-43.21875 28.65625-48.769531 21.382813-5.554687 43.21875 7.273437 48.773437 28.65625 2.988282 11.507813.644532 23.140625-5.480468 32.300781 3.273437 3.878906 5.753906 8.527344 7.113281 13.769532 4.859375 18.707031-6.367187 37.8125-25.074219 42.675781-18.710937 4.859375-37.816406-6.367188-42.675781-25.078125-2.058594-7.917969-1.222656-15.90625 1.832031-22.859375-6.226562-5.167969-10.957031-12.261719-13.144531-20.695313zm77.445313 165.675782c-5.117188-18.640626-24.375-29.601563-43.015626-24.484376-18.640624 5.117188-29.601562 24.378907-24.484374 43.015626.722656 2.644531 1.742187 5.121093 2.992187 7.429687-10.441406 8.488281-15.480469 22.632813-11.691406 36.4375 5.117187 18.640625 24.378906 29.601563 43.019531 24.488281 18.636719-5.117187 29.601562-24.378906 24.484375-43.019531-.726563-2.640625-1.742187-5.121094-2.992187-7.429687 10.441406-8.488282 15.480468-22.628907 11.6875-36.4375zm0 0" fill="#fd5757"/><path d="m310.164062 2.410156c9.410157 15.386719 11.667969 44.1875 4.40625 75.25-7.261718 31.0625-22.054687 55.875-37.308593 65.5-1.726563 1.089844-3.84375.988282-5.441407-.0625-17.253906-4.949218-38.394531-23.390625-54.714843-49.667968-16.832031-27.101563-23.914063-55.105469-19.933594-72.695313.621094-2.742187 3.351563-4.4375 6.085937-3.78125 17.53125 4.230469 39.492188 22.996094 56.324219 50.097656 1.601563 2.578125 3.113281 5.164063 4.535157 7.746094.507812-2.8125 1.097656-5.65625 1.765624-8.519531 7.261719-31.0625 22.054688-55.875 37.308594-65.5 2.375-1.5 5.507813-.7656252 6.972656 1.632812zm189.023438 230.636719c-13.855469-11.546875-42.019531-17.972656-73.808594-15.308594-2.929687.242188-5.8125.5625-8.648437.945313 2.019531-2.152344 4.015625-4.386719 5.972656-6.703125 20.59375-24.363281 31.679687-51.039063 30.300781-69.019531-.214844-2.804688-2.671875-4.878907-5.46875-4.625-17.964844 1.632812-42.421875 17.003906-63.015625 41.367187-19.96875 23.621094-30.996093 49.417969-30.390625 67.359375-.507812 1.839844.050782 3.886719 1.617188 5.195312 13.855468 11.542969 42.019531 17.96875 73.808594 15.304688 31.789062-2.664062 58.492187-13.6875 70.230468-27.378906 1.828125-2.132813 1.5625-5.339844-.597656-7.136719zm0 0" fill="#46853e"/><path d="m279 105c0 19.328125-15.671875 35-35 35-8.183594 0-15.703125-2.816406-21.664062-7.523438-6.570313 4.730469-14.625 7.523438-23.335938 7.523438-22.089844 0-40-17.910156-40-40s17.910156-40 40-40c11.886719 0 22.558594 5.191406 29.886719 13.425781 4.574219-2.195312 9.699219-3.425781 15.113281-3.425781 19.328125 0 35 15.671875 35 35zm0 0" fill="#fd5757"/><path d="m365.753906 299.066406c-.183594 20.246094-5.585937 34.929688-15.457031 37.574219s-21.894531-7.371094-32.175781-24.8125c-17.625 9.964844-33.042969 12.625-40.269532 5.398437-7.226562-7.222656-4.566406-22.640624 5.402344-40.269531-17.445312-10.28125-27.457031-22.304687-24.8125-32.175781 2.644532-9.871094 17.328125-15.273438 37.574219-15.457031.183594-20.246094 5.585937-34.929688 15.457031-37.574219s21.894532 7.367188 32.175782 24.8125c17.625-9.964844 33.042968-12.625 40.269531-5.402344 7.226562 7.226563 4.566406 22.644532-5.398438 40.273438 17.441407 10.28125 27.457031 22.300781 24.808594 32.171875-2.644531 9.871093-17.324219 15.277343-37.574219 15.460937zm-66.121094-119.15625c2.644532-9.871094-7.367187-21.894531-24.8125-32.175781 9.964844-17.625 12.625-33.042969 5.402344-40.269531-7.226562-7.226563-22.644531-4.566406-40.273437 5.398437-10.28125-17.441406-22.300781-27.457031-32.171875-24.8125s-15.277344 17.328125-15.460938 37.578125c-20.246094.179688-34.929687 5.585938-37.574218 15.457032-2.644532 9.871093 7.371093 21.890624 24.8125 32.175781-9.964844 17.625-12.625 33.042969-5.398438 40.269531s22.644531 4.5625 40.269531-5.402344c10.28125 17.445313 22.304688 27.457032 32.175781 24.8125 9.871094-2.644531 15.273438-17.328125 15.457032-37.574218 20.246094-.183594 34.929687-5.585938 37.574218-15.457032zm136.730469-37.410156c2.644531-9.871094-7.371093-21.894531-24.8125-32.175781 9.964844-17.625 12.625-33.042969 5.398438-40.269531-7.226563-7.226563-22.644531-4.566407-40.269531 5.398437-10.28125-17.441406-22.304688-27.453125-32.175782-24.808594s-15.273437 17.328125-15.457031 37.574219c-20.246094.183594-34.929687 5.585938-37.574219 15.457031-2.644531 9.871094 7.367188 21.894531 24.8125 32.175781-9.964844 17.625-12.628906 33.042969-5.402344 40.269532 7.226563 7.226562 22.644532 4.566406 40.269532-5.398438 10.285156 17.441406 22.304687 27.457032 32.175781 24.808594 9.871094-2.644531 15.277344-17.328125 15.457031-37.574219 20.25-.183593 34.933594-5.585937 37.578125-15.457031zm0 0" fill="#fdf7bd"/><path d="m365.753906 299.066406c-.183594 20.246094-5.585937 34.929688-15.457031 37.574219-4.402344 1.179687-9.234375-.167969-14.148437-3.5625-12.367188-42.355469-13.0625-87.386719-2.109376-130.050781 3.289063 3.753906 6.527344 8.308594 9.609376 13.535156 17.625-9.964844 33.042968-12.625 40.269531-5.398438 7.226562 7.226563 4.566406 22.644532-5.398438 40.269532 17.441407 10.28125 27.457031 22.304687 24.8125 32.175781-2.648437 9.867187-17.328125 15.273437-37.578125 15.457031zm-66.121094-119.15625c2.644532-9.871094-7.367187-21.894531-24.8125-32.175781 9.964844-17.625 12.625-33.042969 5.402344-40.269531-7.226562-7.226563-22.644531-4.566406-40.273437 5.398437-3.082031-5.226562-6.316407-9.78125-9.609375-13.535156-10.953125 42.664063-10.257813 87.695313 2.109375 130.054687 4.914062 3.394532 9.746093 4.738282 14.148437 3.558594 9.871094-2.644531 15.277344-17.328125 15.460938-37.574218 20.246094-.183594 34.929687-5.585938 37.574218-15.457032zm136.730469-37.410156c2.644531-9.871094-7.371093-21.894531-24.8125-32.175781 9.964844-17.625 12.625-33.042969 5.398438-40.269531-7.226563-7.226563-22.644531-4.566407-40.269531 5.398437-3.082032-5.226563-6.320313-9.78125-9.609376-13.53125-10.957031 42.660156-10.257812 87.695313 2.109376 130.050781 4.914062 3.394532 9.746093 4.738282 14.148437 3.558594 9.871094-2.644531 15.273437-17.328125 15.457031-37.574219 20.25-.183593 34.933594-5.585937 37.578125-15.457031zm0 0" fill="#fff5f5"/><path d="m244.867188 142.820312c9.761718 9.761719 9.761718 25.589844 0 35.355469-9.765626 9.761719-25.59375 9.761719-35.355469 0-9.765625-9.765625-9.765625-25.59375 0-35.355469 9.761719-9.761718 25.589843-9.761718 35.355469 0zm136.730468-37.410156c-9.765625-9.761718-25.59375-9.761718-35.355468 0-9.765626 9.761719-9.765626 25.59375 0 35.355469 9.761718 9.761719 25.589843 9.761719 35.355468 0 9.761719-9.761719 9.761719-25.589844 0-35.355469zm-68.390625 141.105469c-9.761719 9.765625-9.761719 25.59375 0 35.355469 9.765625 9.765625 25.59375 9.765625 35.355469 0 9.761719-9.761719 9.761719-25.589844 0-35.355469-9.761719-9.761719-25.589844-9.761719-35.355469 0zm0 0" fill="#e8ce00"/><path d="m367.738281 140.765625c2.074219 2.074219 4.425781 3.703125 6.929688 4.894531-9.289063 4.425782-20.738281 2.792969-28.429688-4.894531-9.761719-9.761719-9.761719-25.589844 0-35.355469 7.691407-7.6875 19.140625-9.316406 28.429688-4.894531-2.503907 1.195313-4.855469 2.820313-6.929688 4.894531-9.761719 9.765625-9.761719 25.59375 0 35.355469zm-26.101562 100.855469c-9.289063-4.421875-20.738281-2.792969-28.429688 4.894531-9.761719 9.765625-9.761719 25.59375 0 35.355469 7.691407 7.691406 19.140625 9.320312 28.429688 4.894531-2.503907-1.191406-4.855469-2.820313-6.929688-4.894531-9.761719-9.761719-9.761719-25.589844 0-35.355469 2.074219-2.070313 4.425781-3.699219 6.929688-4.894531zm-103.699219-103.695313c-9.289062-4.421875-20.738281-2.792969-28.425781 4.894531-9.765625 9.761719-9.765625 25.589844 0 35.355469 7.6875 7.6875 19.136719 9.316407 28.425781 4.894531-2.503906-1.191406-4.851562-2.824218-6.925781-4.894531-9.765625-9.765625-9.765625-25.59375 0-35.355469 2.074219-2.074218 4.421875-3.703124 6.925781-4.894531zm0 0" fill="#d6bf01"/><path d="m381.441406 317.390625c6.214844 6.210937 5.773438 16.40625-.9375 22.082031-83.910156 70.976563-186.617187 91.496094-249.789062 50.351563-.316406 18.363281-9.742188 42.234375-26.394532 66.769531-28.554687-20.0625-52.625-46.070312-70.429687-76.222656 23.304687-15.207032 45.796875-23.777344 63.292969-24.078125-41.148438-63.171875-20.625-165.878907 50.351562-249.789063 5.675782-6.710937 15.867188-7.152344 22.082032-.9375zm0 0" fill="#fded32"/><path d="m381.441406 317.390625c6.214844 6.210937 5.773438 16.40625-.9375 22.082031-83.910156 70.976563-186.617187 91.496094-249.789062 50.351563-.316406 18.363281-9.742188 42.234375-26.394532 66.769531-20.492187-14.398438-38.675781-31.859375-53.890624-51.714844 24.988281-17.199218 49.375-26.957031 68.0625-27.28125-41.148438-63.167968-20.628907-165.878906 50.347656-249.789062 5.675781-6.710938 15.871094-7.152344 22.085937-.9375zm0 0" fill="#fdf061"/><path d="m136.761719 508.976562-94.179688-153.503906c-28.261719-46.0625-21.242187-105.496094 16.972657-143.707031 45.625-45.628906 119.597656-45.628906 165.222656 0 38.214844 38.210937 45.234375 97.644531 16.96875 143.707031l-94.175782 153.503906c-2.476562 4.03125-8.335937 4.03125-10.808593 0zm0 0" fill="#fd4343"/><path d="m159.964844 488.773438-81.78125-133.300782c-28.261719-46.0625-21.246094-105.496094 16.96875-143.707031 18.269531-18.273437 41.089844-29.21875 64.8125-32.855469 23.722656 3.636719 46.542968 14.582032 64.8125 32.855469 38.214844 38.210937 45.234375 97.644531 16.96875 143.707031zm0 0" fill="#fd5757"/><path d="m142.164062 211.390625c-46.410156 0-84.035156 37.625-84.035156 84.039063 0 46.410156 37.625 84.035156 84.035156 84.035156 46.414063 0 84.039063-37.625 84.039063-84.035156 0-46.414063-37.625-84.039063-84.039063-84.039063zm0 140.0625c-30.9375 0-56.023437-25.085937-56.023437-56.023437 0-30.941407 25.085937-56.027344 56.023437-56.027344 30.941407 0 56.027344 25.085937 56.027344 56.027344 0 30.9375-25.085937 56.023437-56.027344 56.023437zm35.015626-56.023437c0 19.335937-15.675782 35.011718-35.015626 35.011718-19.335937 0-35.011718-15.675781-35.011718-35.011718 0-19.339844 15.675781-35.015626 35.011718-35.015626 19.339844 0 35.015626 15.675782 35.015626 35.015626zm0 0" fill="#fd9898"/></svg>