<svg height="511pt" viewBox="0 -10 511.99924 511" width="511pt" xmlns="http://www.w3.org/2000/svg"><path d="m501 245.5c0 135.308594-109.691406 245-245 245s-245-109.691406-245-245 109.691406-245 245-245 245 109.691406 245 245zm0 0" fill="#fdf061"/><path d="m156.246094 259.5c-4.316406.0625-8.347656-10.21875-11.316406-26.699219-9.085938-8.894531-22.839844-37.949219-34.226563-73.757812-14.222656-44.734375-19.355469-83.039063-11.457031-85.546875 7.894531-2.511719 25.824218 31.722656 40.046875 76.457031.324219 1.011719.632812 2.015625.945312 3.019531 1.183594-36.429687 6.652344-63.359375 13.609375-63.457031 8.285156-.117187 15.535156 37.839844 16.199219 84.78125.660156 46.9375-5.519531 85.085937-13.800781 85.203125zm0 0" fill="#46853e"/><path d="m389.761719 331.929688-94.179688-153.5c-28.261719-46.0625-21.242187-105.496094 16.96875-143.710938 45.628907-45.625 119.601563-45.625 165.226563 0 38.214844 38.214844 45.230468 97.648438 16.96875 143.710938l-94.175782 153.5c-2.476562 4.035156-8.335937 4.035156-10.808593 0zm0 0" fill="#fd4343"/><path d="m412.964844 311.726562-81.785156-133.296874c-28.257813-46.0625-21.242188-105.496094 16.972656-143.710938 18.269531-18.269531 41.089844-29.21875 64.8125-32.855469 23.722656 3.636719 46.539062 14.585938 64.8125 32.855469 38.214844 38.214844 45.230468 97.648438 16.96875 143.710938zm0 0" fill="#fd5757"/><path d="m395.164062 34.347656c-46.410156 0-84.035156 37.625-84.035156 84.035156 0 46.414063 37.625 84.035157 84.035156 84.035157 46.414063 0 84.039063-37.621094 84.039063-84.035157 0-46.410156-37.625-84.035156-84.039063-84.035156zm0 140.058594c-30.941406 0-56.023437-25.082031-56.023437-56.023438 0-30.941406 25.082031-56.023437 56.023437-56.023437 30.941407 0 56.027344 25.082031 56.027344 56.023437 0 30.941407-25.085937 56.023438-56.027344 56.023438zm35.015626-56.023438c0 19.339844-15.675782 35.015626-35.015626 35.015626-19.335937 0-35.011718-15.675782-35.011718-35.015626 0-19.335937 15.675781-35.015624 35.011718-35.015624 19.339844 0 35.015626 15.679687 35.015626 35.015624zm0 0" fill="#fd9898"/><path d="m235 187c0 20.710938-16.789062 37.5-37.5 37.5-1.085938 0-2.160156-.058594-3.226562-.148438-3.417969 17.191407-18.578126 30.148438-36.773438 30.148438-20.710938 0-37.5-16.789062-37.5-37.5s16.789062-37.5 37.5-37.5c1.085938 0 2.160156.054688 3.222656.148438 3.417969-17.191407 18.582032-30.148438 36.777344-30.148438 20.710938 0 37.5 16.789062 37.5 37.5zm0 0" fill="#07b128"/><path d="m226.152344 335.652344c-18.742188 18.742187-49.128906 18.742187-67.871094 0l-84.835938-84.839844-59.390624-59.386719c-18.738282-18.742187-18.738282-49.128906 0-67.871093 18.742187-18.738282 49.128906-18.738282 67.871093 0l144.226563 144.226562c18.742187 18.742188 18.742187 49.128906 0 67.871094zm0 0" fill="#f4aa39"/><path d="m236.402344 320.449219c-17.472656 7.398437-38.429688 3.992187-52.671875-10.25l-50.011719-50.011719 23.257812-33.21875c3.171876-4.523438 2.070313-10.757812-2.453124-13.925781l-3.273438-2.292969c-4.523438-3.167969-10.757812-2.066406-13.925781 2.457031l-11.648438 16.636719c-4.792969 6.84375-14.601562 7.699219-20.507812 1.792969-4.609375-4.609375-5.246094-11.867188-1.503907-17.207031l16.792969-23.980469c3.167969-4.527344 2.066407-10.761719-2.457031-13.929688l-3.273438-2.289062c-4.523437-3.167969-10.761718-2.070313-13.925781 2.453125l-11.476562 16.390625c-4.882813 6.96875-14.875 7.84375-20.890625 1.828125-4.695313-4.695313-5.34375-12.085938-1.53125-17.527344l16.671875-23.8125c3.167969-4.523438 2.066406-10.757812-2.457031-13.925781l-3.273438-2.292969c-4.523438-3.167969-10.757812-2.066406-13.925781 2.457031l-17.933594 25.609375c-1.511719 2.160156-4.609375 2.429688-6.476563.566406-14.242187-14.242187-17.648437-35.199218-10.25-52.671874 17.46875-7.398438 38.425782-3.988282 52.667969 10.25l144.226563 144.226562c14.238281 14.238281 17.648437 35.199219 10.25 52.667969zm0 0" fill="#f5b65d"/><path d="m380 237c0 20.710938-16.789062 37.5-37.5 37.5-14.308594 0-26.742188-8.015625-33.066406-19.800781-10.546875 9.207031-24.332032 14.800781-39.433594 14.800781-13.539062 0-26.03125-4.488281-36.070312-12.054688-6.691407 10.261719-18.265626 17.054688-31.429688 17.054688-20.710938 0-37.5-16.789062-37.5-37.5s16.789062-37.5 37.5-37.5c2.8125 0 5.550781.320312 8.183594.90625 4.382812-28.820312 29.269531-50.90625 59.316406-50.90625 30.53125 0 55.71875 22.8125 59.492188 52.320312 4.054687-1.5 8.433593-2.320312 13.007812-2.320312 20.710938 0 37.5 16.789062 37.5 37.5zm0 0" fill="#49cb5c"/><path d="m277.5 199.5c20.710938 0 37.5 16.789062 37.5 37.5s-16.789062 37.5-37.5 37.5-37.5-16.789062-37.5-37.5 16.789062-37.5 37.5-37.5zm0 0" fill="#fd5757"/><path d="m292.5 271.371094c-4.59375 2.007812-9.664062 3.128906-15 3.128906-20.710938 0-37.5-16.789062-37.5-37.5s16.789062-37.5 37.5-37.5c5.335938 0 10.40625 1.121094 15 3.128906-13.242188 5.785156-22.5 18.996094-22.5 34.371094s9.257812 28.582031 22.5 34.371094zm0 0" fill="#fd4343"/><path d="m400 249.5v10c0 5.523438-4.476562 10-10 10h-4.761719l-39.75 166.949219c-3.21875 13.511719-15.292969 23.050781-29.183593 23.050781h-179.644532c-21.191406-11.84375-40.445312-26.738281-57.160156-44.09375l-34.882812-146.503906c-3.855469-1.390625-6.617188-5.070313-6.617188-9.402344v-10c0-5.523438 4.476562-10 10-10h342c5.523438 0 10 4.476562 10 10zm0 0" fill="#56bcd6"/><path d="m208 324.5v100c0 8.285156-6.714844 15-15 15h-10c-8.285156 0-15-6.714844-15-15v-100c0-8.285156 6.714844-15 15-15h10c8.285156 0 15 6.714844 15 15zm45-15h-10c-8.285156 0-15 6.714844-15 15v100c0 8.285156 6.714844 15 15 15h10c8.285156 0 15-6.714844 15-15v-100c0-8.285156-6.714844-15-15-15zm60 0h-10c-8.285156 0-15 6.714844-15 15v100c0 8.285156 6.714844 15 15 15h10c8.285156 0 15-6.714844 15-15v-100c0-8.285156-6.714844-15-15-15zm35-40h-270c-5.523438 0-10-4.476562-10-10v-10c0-5.523438 4.476562-10 10-10h-38c-5.523438 0-10 4.476562-10 10v10c0 5.523438 4.476562 10 10 10h4.761719l34.738281 145.921875c16.714844 17.359375 35.933594 32.234375 57.125 44.078125h12.414062c-9.273437 0-16.175781-4.253906-20.859374-11.097656-2.59375-3.792969.222656-8.945313 4.816406-8.902344h.003906c8.285156 0 15-6.714844 15-15v-100c0-8.285156-6.714844-15-15-15h-10c-8.285156 0-15 6.714844-15 15v28.085938c0 4.742187-6.792969 5.539062-7.890625.925781l-12.308594-51.695313c-1.496093-6.285156 3.269531-12.316406 9.726563-12.316406h250.128906c5.328125 0 9.976562-4.019531 10.320312-9.335938.378907-5.824218-4.234374-10.664062-9.976562-10.664062zm0 0" fill="#0da9cb"/><path d="m240 254.5c0 13.804688-11.195312 25-25 25-13.808594 0-25-11.195312-25-25 0-8.179688 3.925781-15.4375 10-20v-125c0-5.523438 4.476562-10 10-10h10c5.523438 0 10 4.476562 10 10v125c6.070312 4.5625 10 11.820312 10 20zm0 0" fill="#235967"/><path d="m225 254.5c0 5.523438-4.476562 10-10 10s-10-4.476562-10-10 4.476562-10 10-10 10 4.476562 10 10zm0 0" fill="#9facba"/></svg>