<svg height="512pt" viewBox="-6 0 512 512.00112" width="512pt" xmlns="http://www.w3.org/2000/svg"><path d="m40.917969 398.8125c-26.835938-40.882812-42.035157-90.089844-40.8515628-142.914062 3.0507818-136.691407 114.1757818-244.96875 250.8984378-244.65625 138.011718.316406 249.792968 112.292968 249.792968 250.378906 0 50.660156-15.054687 97.792968-40.921874 137.199218-5.167969 7.875-16.421876 8.644532-22.695313 1.621094-45.851563-51.320312-112.527344-83.632812-186.761719-83.632812-74.230468 0-140.910156 32.3125-186.757812 83.632812-6.277344 7.027344-17.535156 6.25-22.703125-1.628906zm0 0" fill="#2b6c7e"/><path d="m409.804688 60.511719c0 33.382812-27.0625 60.449219-60.449219 60.449219h-15.308594c3.820313-5.679688 6.050781-12.519532 6.050781-19.878907 0-25.304687-25.613281-42.5625-49.066406-33.054687l-7.59375 3.078125c-9.742188 3.949219-18.25 9.910156-25.136719 17.285156-4.011719 4.296875-10.90625 4.300781-14.886719-.023437-6.996093-7.59375-15.683593-13.726563-25.652343-17.769532l-7.65625-3.101562c-23.632813-9.582032-49.445313 7.808594-49.445313 33.308594 0 7.46875 2.28125 14.40625 6.179688 20.152343h-15.4375c-33.382813 0-60.449219-27.0625-60.449219-60.445312 0-42.886719 43.417969-72.136719 83.160156-56.023438l12.875 5.222657c28.480469 11.542968 50.765625 33.226562 63.390625 59.878906 12.628906-26.652344 34.910156-48.335938 63.390625-59.878906l12.875-5.21875c39.742188-16.113282 83.160157 13.132812 83.160157 56.019531zm0 0" fill="#fd7a7a"/><path d="m369.035156 3.332031c-1.039062.355469-2.078125.738281-3.109375 1.160157l-12.875 5.21875c-28.035156 11.363281-50.058593 32.550781-62.785156 58.628906l-6.828125 2.769531c-9.859375 3.996094-18.457031 10.050781-25.382812 17.550781-3.910157 4.234375-10.515626 4.25-14.394532-.007812-.101562-.109375-.199218-.214844-.296875-.324219 9.914063-35.09375 35.503907-64.46875 70.40625-78.621094l12.875-5.21875c14.394531-5.832031 29.269531-5.714843 42.390625-1.15625zm-205.097656 112.46875c-21.207031-9.386719-36.015625-30.601562-36.015625-55.289062 0-27.808594 18.257813-49.875 41.925781-57.566407-38.519531-12.457031-78.894531 16.210938-78.894531 57.566407 0 33.382812 27.066406 60.449219 60.449219 60.449219h15.4375c-1.105469-1.628907-2.070313-3.355469-2.902344-5.160157zm0 0" fill="#fd5757"/><path d="m459.878906 108.328125v290.421875c-44.730468 68.199219-121.847656 113.25-209.5 113.25s-164.769531-45.050781-209.5-113.25v-290.421875c0-8.464844 6.863282-15.328125 15.328125-15.328125h388.34375c8.464844 0 15.328125 6.863281 15.328125 15.328125zm0 0" fill="#f5b65d"/><path d="m459.878906 108.328125v290.421875c-44.730468 68.199219-121.847656 113.25-209.5 113.25-68.003906 0-129.664062-27.121094-174.785156-71.125v-332.546875c0-8.464844 6.863281-15.328125 15.332031-15.328125h353.625c8.464844 0 15.328125 6.863281 15.328125 15.328125zm0 0" fill="#f7c37d"/><path d="m236.332031 93-195.453125 195.453125v-86.714844l108.738282-108.738281zm91.222657 0-286.675782 286.675781v19.074219c8.832032 13.46875 18.925782 26.03125 30.117188 37.523438l343.273437-343.273438zm75.617187 366.96875 45.554687-45.554688c3.914063-5.070312 7.632813-10.292968 11.152344-15.664062v-82.203125l-195.027344 195.027344c51.925782-2.960938 99.613282-21.742188 138.320313-51.605469zm-281.25 16.597656c18.75 11.226563 39.085937 20.078125 60.59375 26.121094l277.363281-277.363281v-86.714844zm0 0" fill="#fded32"/><path d="m236.332031 93-160.738281 160.738281v-86.71875l74.023438-74.019531zm91.222657 0-251.960938 251.957031v86.714844l338.675781-338.671875zm-205.632813 383.566406c18.75 11.226563 39.085937 20.078125 60.59375 26.121094l277.363281-277.363281v-86.714844zm337.957031-77.816406v-82.203125l-195.027344 195.027344c81.628907-4.652344 152.777344-48.402344 195.027344-112.824219zm0 0" fill="#fdf061"/><path d="m296.367188 93v414.769531c-14.910157 2.769531-30.277344 4.230469-45.988282 4.230469-15.710937 0-31.078125-1.460938-45.988281-4.230469v-414.769531c0-4.515625 3.660156-8.175781 8.175781-8.175781h75.625c4.515625 0 8.175782 3.660156 8.175782 8.175781zm0 0" fill="#fd7a7a"/><path d="m234.027344 84.824219v426.632812c-10.050782-.648437-19.941406-1.886719-29.636719-3.683593v-414.773438c0-4.515625 3.660156-8.175781 8.175781-8.175781zm0 0" fill="#fd5757"/></svg>