<svg height="512pt" viewBox="0 0 512 512.00051" width="512pt" xmlns="http://www.w3.org/2000/svg"><path d="m512 261.621094c0 138.28125-112.097656 250.378906-250.378906 250.378906s-250.378906-112.097656-250.378906-250.378906 112.097656-250.378906 250.378906-250.378906 250.378906 112.097656 250.378906 250.378906zm0 0" fill="#fadeb9"/><path d="m471.121094 261.621094c0 115.703125-93.796875 209.5-209.5 209.5s-209.5-93.796875-209.5-209.5 93.796875-209.5 209.5-209.5 209.5 93.796875 209.5 209.5zm0 0" fill="#0cc33c"/><path d="m471.121094 261.621094c0 107.230468-80.5625 195.628906-184.460938 208.007812-103.898437-12.378906-184.464844-100.777344-184.464844-208.007812 0-107.230469 80.566407-195.628906 184.464844-208.003906 103.898438 12.375 184.460938 100.773437 184.460938 208.003906zm0 0" fill="#49cb5c"/><path d="m261.621094 44.457031c-119.746094 0-217.164063 97.417969-217.164063 217.164063s97.417969 217.164062 217.164063 217.164062 217.164062-97.417968 217.164062-217.164062-97.417968-217.164063-217.164062-217.164063zm162.644531 336.535157c-21.566406-8.605469-44.472656-15.421876-68.246094-20.367188 6.886719-28.027344 10.769531-59.074219 11.304688-91.339844h95.972656c-1.5625 41.6875-15.828125 80.175782-39.03125 111.707032zm-162.644531 82.464843c-22.726563 0-45.484375-20.757812-62.429688-56.945312-4.882812-10.421875-9.164062-21.789063-12.820312-33.902344 24.441406-4.121094 49.699218-6.238281 75.25-6.238281 25.550781 0 50.8125 2.117187 75.253906 6.238281-3.660156 12.113281-7.941406 23.480469-12.820312 33.902344-16.949219 36.1875-39.707032 56.945312-62.433594 56.945312zm0-112.414062c-26.933594 0-53.566406 2.28125-79.332032 6.722656-6.714843-27.015625-10.507812-57.113281-11.039062-88.480469h180.742188c-.53125 31.367188-4.324219 61.460938-11.035157 88.480469-25.769531-4.441406-52.402343-6.722656-79.335937-6.722656zm-201.675782-81.757813h95.976563c.53125 32.265625 4.414063 63.316406 11.300781 91.339844-23.769531 4.945312-46.675781 11.761719-68.246094 20.367188-23.203124-31.53125-37.464843-70.019532-39.03125-111.707032zm39.03125-127.035156c21.566407 8.605469 44.476563 15.421875 68.246094 20.367188-6.886718 28.027343-10.769531 59.078124-11.304687 91.339843h-95.972657c1.566407-41.6875 15.828126-80.175781 39.03125-111.707031zm162.644532-82.464844c22.726562 0 45.484375 20.757813 62.429687 56.949219 4.882813 10.417969 9.164063 21.785156 12.820313 33.898437-24.441406 4.121094-49.699219 6.238282-75.25 6.238282-25.550782 0-50.808594-2.117188-75.253906-6.238282 3.660156-12.113281 7.941406-23.480468 12.820312-33.898437 16.949219-36.191406 39.707031-56.949219 62.433594-56.949219zm0 112.414063c26.933594 0 53.566406-2.28125 79.332031-6.71875 6.714844 27.011719 10.507813 57.109375 11.039063 88.476562h-180.742188c.53125-31.367187 4.324219-61.460937 11.039062-88.476562 25.765626 4.4375 52.398438 6.71875 79.332032 6.71875zm105.703125 81.757812c-.535157-32.261719-4.417969-63.316406-11.304688-91.339843 23.773438-4.945313 46.679688-11.761719 68.246094-20.367188 23.203125 31.53125 37.46875 70.019531 39.03125 111.707031zm46.9375-124.25c-19.742188 7.585938-40.617188 13.640625-62.242188 18.089844-3.976562-13.433594-8.683593-26.035156-14.082031-37.566406-8.933594-19.074219-19.332031-34.28125-30.742188-45.257813 42.304688 9.800782 79.554688 32.941406 107.066407 64.734375zm-198.214844-64.734375c-11.40625 10.976563-21.804687 26.183594-30.738281 45.257813-5.402344 11.53125-10.109375 24.132812-14.085938 37.570312-21.625-4.453125-42.5-10.507812-62.242187-18.09375 27.511719-31.792969 64.761719-54.933593 107.066406-64.734375zm-107.066406 328.5625c19.742187-7.585937 40.617187-13.640625 62.242187-18.089844 3.976563 13.433594 8.683594 26.035157 14.085938 37.566407 8.929687 19.074219 19.332031 34.28125 30.738281 45.257812-42.304687-9.800781-79.554687-32.941406-107.066406-64.734375zm198.214843 64.734375c11.40625-10.976562 21.804688-26.183593 30.738282-45.257812 5.402344-11.53125 10.109375-24.132813 14.085937-37.566407 21.625 4.449219 42.5 10.503907 62.242188 18.089844-27.511719 31.792969-64.761719 54.933594-107.066407 64.734375zm0 0" fill="#07b128"/><path d="m384.726562 231.484375-65.78125-107.210937c-19.738281-32.171876-14.835937-73.683594 11.855469-100.375 31.867188-31.863282 83.53125-31.863282 115.398438 0 26.6875 26.691406 31.589843 68.203124 11.851562 100.375l-65.777343 107.210937c-1.726563 2.816406-5.820313 2.816406-7.546876 0zm-306.898437 51.097656-65.777344-107.210937c-19.742187-32.171875-14.839843-73.683594 11.851563-100.375 31.867187-31.863282 83.53125-31.863282 115.398437 0 26.6875 26.691406 31.589844 68.203125 11.851563 100.375l-65.777344 107.210937c-1.726562 2.816407-5.820312 2.816407-7.546875 0zm194.480469 154.746094-65.777344-107.210937c-19.738281-32.171876-14.835938-73.679688 11.851562-100.371094 31.867188-31.867188 83.535157-31.867188 115.398438 0 26.691406 26.691406 31.59375 68.199218 11.855469 100.371094l-65.78125 107.210937c-1.726563 2.816406-5.816407 2.816406-7.546875 0zm0 0" fill="#8ed0e1"/><path d="m400.929688 217.371094-57.117188-93.097656c-19.742188-32.171876-14.839844-73.683594 11.851562-100.375 12.761719-12.757813 28.699219-20.40625 45.265626-22.945313 16.570312 2.539063 32.507812 10.1875 45.269531 22.945313 26.6875 26.691406 31.589843 68.203124 11.851562 100.375zm-306.894532 51.097656-57.121094-93.097656c-19.738281-32.171875-14.835937-73.683594 11.851563-100.371094 12.761719-12.761719 28.699219-20.410156 45.269531-22.949219 16.566406 2.539063 32.503906 10.1875 45.265625 22.945313 26.691407 26.691406 31.589844 68.203125 11.851563 100.375zm194.480469 154.75-57.121094-93.101562c-19.738281-32.171876-14.835937-73.679688 11.855469-100.371094 12.757812-12.761719 28.695312-20.40625 45.265625-22.945313 16.570313 2.539063 32.507813 10.183594 45.269531 22.945313 26.6875 26.691406 31.589844 68.203125 11.851563 100.371094zm0 0" fill="#b0dde9"/><path d="m81.601562 84.136719c-27.226562 0-49.296874 22.070312-49.296874 49.296875 0 27.222656 22.070312 49.292968 49.296874 49.292968 27.226563 0 49.296876-22.070312 49.296876-49.292968 0-27.226563-22.070313-49.296875-49.296876-49.296875zm0 69.835937c-11.34375 0-20.539062-9.195312-20.539062-20.539062 0-11.347656 9.195312-20.542969 20.539062-20.542969s20.539063 9.199219 20.539063 20.542969-9.195313 20.539062-20.539063 20.539062zm306.898438-120.933594c-27.226562 0-49.296875 22.070313-49.296875 49.296876 0 27.222656 22.070313 49.292968 49.296875 49.292968s49.296875-22.070312 49.296875-49.292968c0-27.226563-22.070313-49.296876-49.296875-49.296876zm0 69.835938c-11.34375 0-20.542969-9.195312-20.542969-20.539062 0-11.347657 9.199219-20.542969 20.542969-20.542969s20.539062 9.199219 20.539062 20.542969-9.195312 20.539062-20.539062 20.539062zm-112.414062 136.007812c-27.226563 0-49.296876 22.070313-49.296876 49.296876 0 27.226562 22.070313 49.296874 49.296876 49.296874 27.222656 0 49.292968-22.070312 49.292968-49.296874 0-27.226563-22.070312-49.296876-49.292968-49.296876zm0 69.839844c-11.34375 0-20.542969-9.199218-20.542969-20.542968s9.199219-20.539063 20.542969-20.539063c11.339843 0 20.539062 9.195313 20.539062 20.539063s-9.195312 20.542968-20.539062 20.542968zm0 0" fill="#69c3da"/></svg>