<svg height="512pt" viewBox="0 -6 512 512" width="512pt" xmlns="http://www.w3.org/2000/svg"><path d="m45.652344 377.101562c-21.476563-36.519531-33.964844-78.953124-34.398438-124.28125-1.324218-138.28125 112.078125-252.820312 250.367188-252.820312 138.28125 0 250.378906 112.097656 250.378906 250.378906 0 41.714844-10.214844 81.042969-28.261719 115.632813-3.542969 6.789062-10.519531 11.089843-18.179687 11.089843zm0 0" fill="#8ed0e1"/><path d="m61.125 101.171875c3.332031-4.449219 6.8125-8.796875 10.425781-13.015625 5.253907-6.140625 10.804688-12.027344 16.621094-17.640625h29.347656c8.464844 0 15.328125 6.863281 15.328125 15.328125s-6.863281 15.328125-15.328125 15.328125zm122.820312 127.746094c0-8.464844-6.863281-15.328125-15.328124-15.328125h-66.429688c-5.644531 0-10.21875-4.578125-10.21875-10.21875 0-5.644532 4.574219-10.222656 10.21875-10.222656h5.109375c8.46875 0 15.332031-6.863282 15.332031-15.328126 0-8.464843-6.863281-15.328124-15.332031-15.328124h-79.914063c-1.28125 3.371093-2.507812 6.773437-3.644531 10.214843-2.027343 6.121094-3.808593 12.347657-5.355469 18.664063 2.136719 1.132812 4.570313 1.78125 7.160157 1.78125h35.765625c5.644531 0 10.222656 4.574218 10.222656 10.21875 0 5.644531-4.578125 10.21875-10.222656 10.21875h-15.328125c-8.464844 0-15.328125 6.863281-15.328125 15.328125 0 8.46875 6.863281 15.332031 15.328125 15.332031h122.636719c8.464843-.003906 15.328124-6.867188 15.328124-15.332031zm235.050782-122.632813c0 8.464844 6.863281 15.328125 15.328125 15.328125h42.050781c-3.457031-5.75-7.117188-11.347656-11.003906-16.789062-3.398438-4.75-6.972656-9.375-10.6875-13.871094h-20.359375c-8.464844 0-15.328125 6.863281-15.328125 15.332031zm91.816406 168.621094h-10.0625c-5.644531 0-10.21875-4.574219-10.21875-10.21875s4.574219-10.21875 10.21875-10.21875h11.21875c.019531-1.363281.023438-2.722656.023438-4.089844 0-4.527344-.109376-9.023437-.351563-13.492187-.234375-4.386719-.578125-8.75-1.035156-13.078125h-117.160157c-8.464843 0-15.328124 6.863281-15.328124 15.328125 0 8.46875 6.863281 15.332031 15.328124 15.332031h66.429688c5.640625 0 10.21875 4.574219 10.21875 10.21875s-4.578125 10.21875-10.21875 10.21875h-5.113281c-8.464844 0-15.328125 6.863281-15.328125 15.328125 0 8.46875 6.863281 15.332031 15.328125 15.332031h51.128906c1.027344-4.558594 1.929687-9.167968 2.703125-13.820312.925781-5.554688 1.667969-11.167969 2.21875-16.839844zm-357.527344-219.71875c0 8.464844 6.863282 15.328125 15.332032 15.328125h102.195312c2 0 3.90625-.394531 5.660156-1.09375 1.765625 6.515625 7.703125 11.3125 14.777344 11.3125h81.757812c8.464844 0 15.328126-6.863281 15.328126-15.328125 0-8.46875-6.863282-15.332031-15.328126-15.332031h-81.757812c-2 0-3.90625.394531-5.660156 1.09375-1.765625-6.511719-7.703125-11.3125-14.777344-11.3125h-102.195312c-8.46875 0-15.332032 6.863281-15.332032 15.332031zm0 0" fill="#b0dde9"/><path d="m430.242188 397.539062h-337.246094v-237.261718l168.625-122.636719 168.621094 122.636719zm0 0" fill="#fdf7bd"/><path d="m113.4375 387.320312h-20.441406v-227.042968l20.441406-14.867188zm0 0" fill="#fcf498"/><path d="m264.699219 18.234375 180.53125 136.324219c3.433593 2.589844 5.453125 6.644531 5.453125 10.945312 0 11.324219-12.945313 17.769532-21.980469 10.945313l-167.082031-126.164063-167.082032 126.164063c-9.035156 6.824219-21.980468.378906-21.980468-10.945313 0-4.300781 2.019531-8.355468 5.453125-10.945312l180.53125-136.324219c1.820312-1.375 4.335937-1.375 6.15625 0zm0 0" fill="#fd5757"/><path d="m383.234375 395.328125h-81.757813c-2.820312 0-5.109374-2.289063-5.109374-5.113281v-194.171875c0-2.820313 2.289062-5.109375 5.109374-5.109375h81.757813c2.820313 0 5.109375 2.289062 5.109375 5.109375v194.171875c0 2.824218-2.289062 5.113281-5.109375 5.113281zm0 0" fill="#fbc0ad"/><path d="m388.34375 196.042969v194.171875c0 2.824218-2.289062 5.113281-5.109375 5.113281h-61.316406c-2.824219 0-5.113281-2.289063-5.113281-5.113281v-194.171875c0-2.820313 2.289062-5.109375 5.113281-5.109375h61.316406c2.820313 0 5.109375 2.289062 5.109375 5.109375zm-137.964844-5.109375h-112.414062c-2.824219 0-5.109375 2.289062-5.109375 5.109375v91.976562c0 2.824219 2.285156 5.109375 5.109375 5.109375h112.414062c2.820313 0 5.109375-2.285156 5.109375-5.109375v-91.976562c0-2.820313-2.289062-5.109375-5.109375-5.109375zm0 0" fill="#fdcbbb"/><path d="m393.453125 377.101562h-102.195313c-2.820312 0-5.109374-2.289062-5.109374-5.109374v-20.4375c0-2.824219 2.289062-5.113282 5.109374-5.113282h102.195313c2.820313 0 5.109375 2.289063 5.109375 5.113282v20.4375c0 2.820312-2.289062 5.109374-5.109375 5.109374zm0 0" fill="#faab90"/><path d="m484.449219 364.667969c-41.53125 80.808593-125.722657 136.089843-222.828125 136.089843-97.105469 0-181.296875-55.28125-222.828125-136.089843h379.46875l-6.742188-20.230469c-.683593-2.046875 1.859375-3.617188 3.382813-2.09375l17.726562 17.726562 13.160156-26.324218c.964844-1.929688 3.871094-1.242188 3.871094.914062v22.003906l14.316406-14.316406c1.527344-1.527344 4.066407.042969 3.386719 2.089844l-6.746093 20.230469zm0 0" fill="#0cc33c"/><path d="m240.160156 244.078125v31.679687c0 1.128907-.914062 2.042969-2.042968 2.042969h-87.890626c-1.128906 0-2.042968-.914062-2.042968-2.042969v-31.679687c0-1.128906.914062-2.046875 2.042968-2.046875h87.890626c1.128906 0 2.042968.917969 2.042968 2.046875zm0-14.308594v-21.460937c0-1.128906-.914062-2.042969-2.042968-2.042969h-87.890626c-1.128906 0-2.042968.914063-2.042968 2.042969v21.460937c0 1.128907.914062 2.042969 2.042968 2.042969h87.890626c1.128906 0 2.042968-.914062 2.042968-2.042969zm0 0" fill="#7daebd"/><path d="m163.511719 231.8125h-13.285157c-1.128906 0-2.042968-.914062-2.042968-2.042969v-21.460937c0-1.128906.914062-2.042969 2.042968-2.042969h15.332032c-1.128906 0-2.046875.914063-2.046875 2.042969zm0 43.945312v-33.726562h-13.285157c-1.128906 0-2.042968.917969-2.042968 2.046875v31.679687c0 1.128907.914062 2.042969 2.042968 2.042969h15.332032c-1.128906 0-2.046875-.914062-2.046875-2.042969zm0 0" fill="#649eb0"/><path d="m332.136719 282.910156h-35.769531v-10.21875h35.769531c2.820312 0 5.109375 2.289063 5.109375 5.109375 0 2.824219-2.289063 5.109375-5.109375 5.109375zm0 0" fill="#f58057"/><path d="m310.941406 370.050781v115.378907c0 8.464843-6.863281 15.328124-15.328125 15.328124h-280.285156c-8.464844 0-15.328125-6.863281-15.328125-15.328124v-81.757813c0-8.464844 6.863281-15.328125 15.328125-15.328125h22.257813c-5.761719-2.203125-9.859376-7.769531-9.859376-14.308594v-81.753906c0-8.46875 6.863282-15.332031 15.328126-15.332031h140.140624c8.464844 0 15.328126 6.863281 15.328126 15.332031v62.441406h97.085937c8.46875 0 15.332031 6.863282 15.332031 15.328125zm0 0" fill="#f5b65d"/><path d="m310.941406 370.050781v115.378907c0 8.464843-6.863281 15.328124-15.328125 15.328124h-121.730469c-8.464843 0-15.328124-6.863281-15.328124-15.328124v-115.378907c0-8.464843 6.863281-15.328125 15.328124-15.328125h-18.414062c-8.464844 0-15.328125 6.863282-15.328125 15.328125v115.378907c0 8.464843 6.863281 15.328124 15.328125 15.328124h-121.726562c-8.464844 0-15.328126-6.863281-15.328126-15.328124v-81.757813c0-8.464844 6.863282-15.328125 15.328126-15.328125h22.257812c-5.761719-2.203125-9.859375-7.769531-9.859375-14.308594v-81.753906c0-8.46875 6.863281-15.332031 15.328125-15.332031h121.726562c8.46875 0 15.332032 6.863281 15.332032 15.332031v62.441406h97.085937c8.464844 0 15.328125 6.863282 15.328125 15.328125zm0 0" fill="#f7c37d"/><path d="m56.203125 425.109375-6.058594 3.253906c-.730469.390625-1.722656.613281-2.753906.613281-2.152344 0-3.894531-.9375-3.894531-2.09375v-38.539062h83.8125v38.539062c0 1.15625-1.746094 2.09375-3.898438 2.09375-1.03125 0-2.023437-.222656-2.753906-.613281l-6.058594-3.253906c-1.238281-.667969-3.25-.667969-4.488281 0l-4.351563 2.332031c-1.824218.980469-4.300781 1.53125-6.878906 1.53125-2.582031 0-5.058594-.550781-6.882812-1.53125l-4.351563-2.332031c-1.238281-.667969-3.25-.667969-4.488281 0l-4.347656 2.332031c-1.828125.980469-4.300782 1.53125-6.882813 1.53125s-5.058593-.550781-6.882812-1.53125l-4.347657-2.332031c-1.242187-.667969-3.253906-.667969-4.492187 0zm27.726563-111.394531-6.058594 3.253906c-.730469.394531-1.722656.613281-2.753906.613281-2.152344 0-3.898438-.9375-3.898438-2.089843v-38.542969h83.8125v38.539062c0 1.15625-1.742188 2.09375-3.894531 2.09375-1.03125 0-2.023438-.222656-2.753907-.613281l-6.058593-3.253906c-1.238281-.667969-3.25-.667969-4.488281 0l-4.351563 2.335937c-1.824219.980469-4.300781 1.53125-6.882813 1.53125-2.578124 0-5.054687-.550781-6.878906-1.53125l-4.351562-2.335937c-1.238282-.667969-3.25-.667969-4.488282 0l-4.351562 2.335937c-1.824219.980469-4.300781 1.53125-6.878906 1.53125-2.582032 0-5.058594-.550781-6.882813-1.53125l-4.351562-2.335937c-1.238281-.664063-3.25-.664063-4.488281 0zm112.414062 96.066406-6.058594 3.253906c-.730468.390625-1.722656.613282-2.753906.613282-2.152344 0-3.894531-.9375-3.894531-2.09375v-56.832032h83.8125v56.832032c0 1.15625-1.746094 2.089843-3.898438 2.089843-1.03125 0-2.023437-.21875-2.753906-.613281l-6.058594-3.253906c-1.238281-.664063-3.25-.664063-4.488281 0l-4.351562 2.335937c-1.824219.980469-4.296876 1.53125-6.878907 1.53125s-5.058593-.550781-6.882812-1.53125l-4.351563-2.335937c-1.238281-.664063-3.25-.664063-4.488281 0l-4.347656 2.335937c-1.828125.980469-4.300781 1.53125-6.882813 1.53125-2.582031 0-5.058594-.550781-6.882812-1.53125l-4.347656-2.335937c-1.242188-.664063-3.253907-.664063-4.492188.003906zm0 0" fill="#ebae56"/><path d="m34.96875 468.707031v2.785157c0 5.644531-4.578125 10.21875-10.222656 10.21875h-2.78125c-5.644532 0-10.21875-4.574219-10.21875-10.21875v-2.785157c0-5.640625 4.574218-10.21875 10.21875-10.21875h2.78125c5.644531 0 10.222656 4.578125 10.222656 10.21875zm53.636719-10.21875h-2.78125c-5.644531 0-10.222657 4.578125-10.222657 10.21875v2.785157c0 5.644531 4.578126 10.21875 10.222657 10.21875h2.78125c5.644531 0 10.21875-4.574219 10.21875-10.21875v-2.785157c0-5.640625-4.574219-10.21875-10.21875-10.21875zm-31.929688 0h-2.78125c-5.644531 0-10.21875 4.578125-10.21875 10.21875v2.785157c0 5.644531 4.574219 10.21875 10.21875 10.21875h2.78125c5.644531 0 10.21875-4.574219 10.21875-10.21875v-2.785157c0-5.640625-4.574219-10.21875-10.21875-10.21875zm-4.203125-88.171875c5.644532 0 10.21875-4.574218 10.21875-10.21875v-2.78125c0-5.644531-4.574218-10.21875-10.21875-10.21875h-2.78125c-5.644531 0-10.21875 4.574219-10.21875 10.21875v2.78125c0 5.644532 4.574219 10.21875 10.21875 10.21875zm31.929688 0c5.644531 0 10.21875-4.574218 10.21875-10.21875v-2.78125c0-5.644531-4.574219-10.21875-10.21875-10.21875h-2.78125c-5.644532 0-10.21875 4.574219-10.21875 10.21875v2.78125c0 5.644532 4.574218 10.21875 10.21875 10.21875zm31.929687-23.21875h-2.78125c-5.644531 0-10.222656 4.574219-10.222656 10.21875v2.78125c0 5.644532 4.578125 10.21875 10.222656 10.21875h2.78125c5.644531 0 10.21875-4.574218 10.21875-10.21875v-2.78125c0-5.644531-4.574219-10.21875-10.21875-10.21875zm80.484375 111.390625h-2.78125c-5.644531 0-10.21875 4.578125-10.21875 10.21875v2.785157c0 5.644531 4.574219 10.21875 10.21875 10.21875h2.78125c5.644532 0 10.21875-4.574219 10.21875-10.21875v-2.785157c0-5.640625-4.574218-10.21875-10.21875-10.21875zm-31.929687 0h-2.78125c-5.644531 0-10.21875 4.578125-10.21875 10.21875v2.785157c0 5.644531 4.574219 10.21875 10.21875 10.21875h2.78125c5.644531 0 10.222656-4.574219 10.222656-10.21875v-2.785157c0-5.640625-4.578125-10.21875-10.222656-10.21875zm63.859375 0h-2.78125c-5.644532 0-10.21875 4.578125-10.21875 10.21875v2.785157c0 5.644531 4.574218 10.21875 10.21875 10.21875h2.78125c5.644531 0 10.21875-4.574219 10.21875-10.21875v-2.785157c0-5.640625-4.574219-10.21875-10.21875-10.21875zm0 0" fill="#dca050"/></svg>