<svg height="512pt" viewBox="-6 0 512 512" width="512pt" xmlns="http://www.w3.org/2000/svg"><path d="m0 261.621094c0-136.734375 109.601562-247.867188 245.742188-250.335938 139.382812-2.53125 254.730468 110.410156 255.015624 249.8125.140626 68.355469-27.117187 130.339844-71.402343 175.601563-14.347657 14.660156-36.699219 17.648437-54.488281 7.433593-36.667969-21.058593-79.167969-33.105468-124.488282-33.105468-45.320312 0-87.824218 12.046875-124.492187 33.105468-17.78125 10.210938-40.132813 7.230469-54.472657-7.425781-44.179687-45.144531-71.414062-106.933593-71.414062-175.085937zm0 0" fill="#fdf061"/><path d="m71.535156 250.378906c0-8.464844 6.863282-15.328125 15.332032-15.328125h327.023437c8.46875 0 15.332031 6.863281 15.332031 15.328125v186.445313c-45.445312 46.382812-108.777344 75.175781-178.84375 75.175781s-133.398437-28.792969-178.84375-75.175781zm0 0" fill="#dca050"/><path d="m101.171875 462.695312v-212.316406c0-8.464844 6.867187-15.328125 15.332031-15.328125h297.386719c8.46875 0 15.332031 6.863281 15.332031 15.328125v186.445313c-45.445312 46.382812-108.777344 75.175781-178.84375 75.175781-55.910156 0-107.535156-18.332031-149.207031-49.304688zm0 0" fill="#ebae56"/><path d="m179.71875 459.878906v16.9375c0 5.644532-4.574219 10.21875-10.21875 10.21875h-16.9375c-5.644531 0-10.21875-4.574218-10.21875-10.21875v-16.9375c0-5.644531 4.574219-10.21875 10.21875-10.21875h16.9375c5.644531 0 10.21875 4.574219 10.21875 10.21875zm-61.609375-10.21875h-16.9375c-4.070313 0-7.578125 2.390625-9.21875 5.839844 11.1875 9.152344 23.1875 17.351562 35.867187 24.484375.328126-1 .507813-2.0625.507813-3.167969v-16.9375c0-5.644531-4.574219-10.21875-10.21875-10.21875zm102.777344 0h-16.933594c-5.644531 0-10.21875 4.574219-10.21875 10.21875v16.9375c0 5.644532 4.574219 10.21875 10.21875 10.21875h16.933594c5.644531 0 10.222656-4.574218 10.222656-10.21875v-16.9375c0-5.644531-4.578125-10.21875-10.222656-10.21875zm0 0" fill="#ce9047"/><path d="m203.386719 400.058594-9.75 9.75c-1.179688 1.179687-2.773438 1.839844-4.4375 1.839844-3.460938 0-6.269531-2.808594-6.269531-6.273438v-170.324219c0-.566406.457031-1.023437 1.023437-1.023437h132.851563c.566406 0 1.023437.457031 1.023437 1.023437v170.324219c0 3.464844-2.808594 6.273438-6.269531 6.273438-1.664063 0-3.257813-.660157-4.433594-1.839844l-9.753906-9.75c-1.996094-1.996094-5.230469-1.996094-7.226563 0l-7 7c-2.9375 2.9375-6.921875 4.589844-11.074219 4.589844-4.15625 0-8.140624-1.652344-11.078124-4.589844l-7-7c-1.996094-1.996094-5.230469-1.996094-7.226563 0l-7 7c-2.9375 2.9375-6.921875 4.589844-11.074219 4.589844-4.15625 0-8.140625-1.652344-11.078125-4.589844l-7-7c-1.996093-1.996094-5.230469-1.996094-7.226562 0zm0 0" fill="#fdf7bd"/><path d="m202.601562 334.691406h90.699219c1.128907 0 2.042969.914063 2.042969 2.042969v11.242187c0 1.128907-.914062 2.042969-2.042969 2.042969h-90.699219c-1.128906 0-2.042968-.914062-2.042968-2.042969v-11.242187c0-1.128906.914062-2.042969 2.042968-2.042969zm-2.042968 30.148438v11.238281c0 1.132813.914062 2.046875 2.042968 2.046875h60.042969c1.128907 0 2.042969-.914062 2.042969-2.046875v-11.238281c0-1.128906-.914062-2.046875-2.042969-2.046875h-60.042969c-1.128906 0-2.042968.917969-2.042968 2.046875zm0 0" fill="#f9d19a"/><path d="m215.886719 257.53125v57.230469c0 1.128906-.914063 2.042969-2.042969 2.042969h-11.242188c-1.128906 0-2.042968-.914063-2.042968-2.042969v-57.230469c0-1.128906.914062-2.042969 2.042968-2.042969h11.242188c1.128906 0 2.042969.914063 2.042969 2.042969zm54.164062-2.042969h-11.242187c-1.128906 0-2.042969.914063-2.042969 2.042969v57.230469c0 1.128906.914063 2.042969 2.042969 2.042969h11.242187c1.128907 0 2.046875-.914063 2.046875-2.042969v-57.230469c0-1.128906-.917968-2.042969-2.046875-2.042969zm-28.101562 0h-11.242188c-1.128906 0-2.042969.914063-2.042969 2.042969v16.351562c0 1.128907.914063 2.046876 2.042969 2.046876h11.242188c1.128906 0 2.042969-.917969 2.042969-2.046876v-16.351562c0-1.128906-.914063-2.042969-2.042969-2.042969zm0 30.660157h-11.242188c-1.128906 0-2.042969.914062-2.042969 2.042968v26.570313c0 1.128906.914063 2.042969 2.042969 2.042969h11.242188c1.128906 0 2.042969-.914063 2.042969-2.042969v-26.570313c0-1.128906-.914063-2.042968-2.042969-2.042968zm56.207031-30.660157h-11.242188c-1.128906 0-2.042968.914063-2.042968 2.042969v36.792969c0 1.128906.914062 2.042969 2.042968 2.042969h11.242188c1.128906 0 2.042969-.914063 2.042969-2.042969v-36.792969c0-1.128906-.914063-2.042969-2.042969-2.042969zm0 51.097657h-11.242188c-1.128906 0-2.042968.914062-2.042968 2.042968v6.132813c0 1.128906.914062 2.042969 2.042968 2.042969h11.242188c1.128906 0 2.042969-.914063 2.042969-2.042969v-6.132813c0-1.128906-.914063-2.042968-2.042969-2.042968zm0 0" fill="#7a8c98"/><path d="m275.929688 178.84375c0 14.109375-11.441407 25.546875-25.550782 25.546875s-25.546875-11.4375-25.546875-25.546875c0-14.113281 11.4375-25.550781 25.546875-25.550781s25.550782 11.4375 25.550782 25.550781zm-25.550782-178.84375c-14.109375 0-25.546875 11.4375-25.546875 25.550781v81.753907c0 14.109374 11.4375 25.550781 25.546875 25.550781s25.550782-11.441407 25.550782-25.550781v-81.753907c0-14.113281-11.441407-25.550781-25.550782-25.550781zm0 0" fill="#fd5757"/><path d="m260.085938 130.941406c-2.992188 1.230469-6.269532 1.914063-9.707032 1.914063-14.109375 0-25.546875-11.441407-25.546875-25.550781v-81.753907c0-14.113281 11.4375-25.550781 25.546875-25.550781 3.4375 0 6.714844.683594 9.707032 1.914062-9.292969 3.820313-15.839844 12.960938-15.839844 23.632813v81.757813c0 10.671874 6.546875 19.8125 15.839844 23.636718zm0 24.265625c-2.992188-1.230469-6.269532-1.914062-9.707032-1.914062-14.109375 0-25.546875 11.4375-25.546875 25.550781 0 14.109375 11.4375 25.546875 25.546875 25.546875 3.4375 0 6.714844-.683594 9.707032-1.914063-9.292969-3.820312-15.839844-12.960937-15.839844-23.632812 0-10.675781 6.546875-19.8125 15.839844-23.636719zm0 0" fill="#fd4343"/></svg>