<svg height="512pt" viewBox="0 -6 512.00015 512" width="512pt" xmlns="http://www.w3.org/2000/svg"><path d="m24.054688 329.65625c-8.511719-25.515625-13.027344-52.859375-12.804688-81.285156 1.085938-138.519532 113.253906-249.128906 251.773438-248.36718775 62.117187.33984375 118.871093 23.30468775 162.453124 61.07031275 35.597657 30.84375 13.484376 89.40625-33.617187 89.40625h-71.46875c-86.5 0-156.628906 70.121093-156.628906 156.628906.003906 81.375-113.957031 99.742187-139.707031 22.546875zm0 0" fill="#69c3da"/><path d="m448.328125 152.269531h-282.769531v-86.863281c0-2.824219 2.285156-5.109375 5.109375-5.109375h253.910156c17.371094 14.90625 32.671875 32.15625 45.417969 51.257813 11.609375 17.402343-.75 40.714843-21.667969 40.714843zm0 0" fill="#458fa4"/><path d="m165.558594 152.269531v-86.863281c0-2.824219 2.285156-5.109375 5.109375-5.109375h28.613281c-2.820312 0-5.109375 2.285156-5.109375 5.109375v86.863281zm0 0" fill="#328091"/><path d="m129.789062 111.394531h340.109376c26.589843 39.761719 42.101562 87.558594 42.101562 138.984375 0 138.28125-112.097656 250.378906-250.378906 250.378906-50.546875 0-97.589844-14.992187-136.941406-40.753906v-343.5c0-2.824218 2.289062-5.109375 5.109374-5.109375zm0 0" fill="#fcf498"/><path d="m158.402344 111.394531h311.496094c26.769531 40.035157 42.3125 88.21875 42.097656 140.046875-.570313 138.023438-112.351563 249.316406-250.375 249.316406-38.808594 0-75.546875-8.84375-108.328125-24.609374v-359.644532c0-2.824218 2.289062-5.109375 5.109375-5.109375zm0 0" fill="#fdf7bd"/><path d="m304.03125 438.417969c0 5.644531-4.574219 10.21875-10.21875 10.21875s-10.21875-4.574219-10.21875-10.21875 4.574219-10.21875 10.21875-10.21875 10.21875 4.574219 10.21875 10.21875zm-48.542969-10.21875c-5.644531 0-10.21875 4.574219-10.21875 10.21875s4.574219 10.21875 10.21875 10.21875 10.21875-4.574219 10.21875-10.21875-4.574219-10.21875-10.21875-10.21875zm71.539063-45.988281v-10.21875c0-2.820313-2.289063-5.109376-5.109375-5.109376h-153.296875c-2.820313 0-5.109375 2.289063-5.109375 5.109376v10.21875c0 2.820312 2.289062 5.109374 5.109375 5.109374h153.296875c2.820312 0 5.109375-2.289062 5.109375-5.109374zm-148.183594-168.621094h173.730469c2.820312 0 5.109375-2.289063 5.109375-5.109375v-10.222657c0-2.820312-2.289063-5.109374-5.109375-5.109374h-173.730469c-2.824219 0-5.109375 2.289062-5.109375 5.109374v10.222657c0 2.820312 2.285156 5.109375 5.109375 5.109375zm153.292969 214.609375c-5.644531 0-10.21875 4.574219-10.21875 10.21875s4.574219 10.21875 10.21875 10.21875 10.21875-4.574219 10.21875-10.21875-4.574219-10.21875-10.21875-10.21875zm97.085937-56.207031v10.21875c0 2.820312 2.285156 5.109374 5.109375 5.109374h36.914063c4.320312-6.601562 8.339844-13.421874 12.035156-20.4375h-48.949219c-2.824219 0-5.109375 2.289063-5.109375 5.109376zm-5.109375-117.523438c-2.824219 0-5.109375 2.285156-5.109375 5.109375v10.21875c0 2.820313 2.285156 5.109375 5.109375 5.109375h86.6875c.65625-6.738281 1.035157-13.554688 1.148438-20.4375zm45.988281 45.984375v10.222656c0 2.820313 2.285157 5.109375 5.109376 5.109375h28.140624c1.808594-6.707031 3.359376-13.523437 4.613282-20.441406h-32.753906c-2.824219 0-5.109376 2.289062-5.109376 5.109375zm-51.097656-143.070313c0-2.824218-2.289062-5.113281-5.113281-5.113281h-235.046875c-2.824219 0-5.109375 2.289063-5.109375 5.113281v10.21875c0 2.820313 2.285156 5.109376 5.109375 5.109376h235.046875c2.824219 0 5.113281-2.289063 5.113281-5.109376zm-66.429687 137.960938h-173.730469c-2.824219 0-5.109375 2.289062-5.109375 5.109375v10.222656c0 2.820313 2.285156 5.109375 5.109375 5.109375h173.730469c2.820312 0 5.109375-2.289062 5.109375-5.109375v-10.222656c0-2.820313-2.289063-5.109375-5.109375-5.109375zm20.441406-40.875h-194.171875c-2.824219 0-5.109375 2.285156-5.109375 5.109375v10.21875c0 2.820313 2.285156 5.109375 5.109375 5.109375h194.171875c2.820313 0 5.109375-2.289062 5.109375-5.109375v-10.21875c0-2.824219-2.289062-5.109375-5.109375-5.109375zm0 0" fill="#f9d19a"/><path d="m15.328125 305.566406h224.832031c8.464844 0 15.328125 6.863282 15.328125 15.328125v132.855469c0 8.464844-6.863281 15.328125-15.328125 15.328125h-224.832031c-8.464844 0-15.328125-6.863281-15.328125-15.328125v-132.855469c0-8.464843 6.863281-15.328125 15.328125-15.328125zm0 0" fill="#fd4343"/><path d="m43.945312 305.566406h196.214844c8.464844 0 15.328125 6.863282 15.328125 15.328125v132.855469c0 8.464844-6.863281 15.328125-15.328125 15.328125h-196.214844c-8.46875 0-15.332031-6.863281-15.332031-15.328125v-132.855469c0-8.464843 6.863281-15.328125 15.332031-15.328125zm0 0" fill="#fd5757"/><path d="m15.328125 428.199219h40.878906c2.820313 0 5.109375 2.289062 5.109375 5.109375v10.21875c0 2.824218-2.289062 5.109375-5.109375 5.109375h-40.878906c-2.820313 0-5.109375-2.285157-5.109375-5.109375v-10.21875c0-2.820313 2.289062-5.109375 5.109375-5.109375zm0 0" fill="#f52c2c"/><path d="m0 336.222656h255.488281v30.660156h-255.488281zm0 0" fill="#7a8c98"/><path d="m28.613281 336.222656h226.875v30.660156h-226.875zm0 0" fill="#9facba"/><path d="m178.84375 407.761719h51.097656c2.820313 0 5.109375 2.285156 5.109375 5.109375v30.65625c0 2.824218-2.289062 5.109375-5.109375 5.109375h-51.097656c-2.824219 0-5.109375-2.285157-5.109375-5.109375v-30.65625c0-2.824219 2.285156-5.109375 5.109375-5.109375zm0 0" fill="#f7c37d"/><path d="m224.832031 407.761719v40.875h-10.222656v-15.328125h-20.4375v15.328125h-10.21875v-40.875h10.21875v15.328125h20.4375v-15.328125zm0 0" fill="#fadeb9"/></svg>