<svg height="512pt" viewBox="0 -6 512 512" width="512pt" xmlns="http://www.w3.org/2000/svg"><path d="m500.757812 250.921875c-.292968 138.03125-112.28125 249.835937-250.378906 249.835937-73.621094 0-139.808594-31.785156-185.617187-82.367187-3.523438-3.886719-3.785157-9.761719-.550781-13.894531 33.238281-42.492188 53.058593-95.988282 53.058593-154.117188 0-58.28125-19.921875-111.898437-53.316406-154.445312-3.070313-3.910156-2.914063-9.441406.417969-13.136719 46.238281-51.289063 113.371094-83.367187 187.992187-82.7890625 138.171875 1.0703125 248.6875 112.7421875 248.394531 250.9140625zm0 0" fill="#fdf061"/><path d="m458.859375 97.085938v265.707031c0 8.46875-6.863281 15.332031-15.332031 15.332031h-265.707032c-90.726562 0-163.042968-76.019531-158.304687-166.621094 2.101563-40.246094 7.46875-75.542968 16.097656-89.894531 8.574219-14.273437 18.53125-27.617187 29.6875-39.851563h378.226563c8.46875 0 15.332031 6.863282 15.332031 15.328126zm0 0" fill="#458fa4"/><path d="m428.199219 382.210938c0 2.820312-2.289063 5.109374-5.109375 5.109374h-351.65625c-20.253906 0-38.777344-11.597656-47.449219-29.898437-15.375-32.457031-23.984375-68.742187-23.984375-107.042969 0-47.09375 13.011719-91.140625 35.621094-128.765625h387.46875c2.820312 0 5.109375 2.289063 5.109375 5.109375zm0 0" fill="#fff5f5"/><path d="m428.199219 371.992188c0 2.820312-2.289063 5.109374-5.109375 5.109374h-368.996094c-12.609375 0-24.125-7.207031-29.585938-18.574218-3.480468-7.246094-6.621093-14.6875-9.402343-22.304688h413.09375zm0 0" fill="#fdf7bd"/><path d="m512 367.902344v10.222656c0 22.574219-18.300781 40.875-40.878906 40.875h-405.820313c-16.582031-18.1875-30.507812-38.832031-41.191406-61.316406h477.671875c5.644531 0 10.21875 4.574218 10.21875 10.21875zm0 0" fill="#56bcd6"/><path d="m254.46875 378.125h-71.539062c-11.289063 0-20.4375-9.152344-20.4375-20.441406h112.414062c0 11.289062-9.152344 20.441406-20.4375 20.441406zm0 0" fill="#0da9cb"/><path d="m209.5 109.347656c-3.949219 0-7.152344-3.203125-7.152344-7.152344 0-3.949218 3.203125-7.152343 7.152344-7.152343 3.953125 0 7.15625 3.203125 7.15625 7.152343 0 3.949219-3.203125 7.152344-7.15625 7.152344zm0 0" fill="#235967"/><path d="m188.039062 102.195312c0 3.949219-3.203124 7.152344-7.152343 7.152344-3.953125 0-7.152344-3.203125-7.152344-7.152344 0-3.949218 3.199219-7.152343 7.152344-7.152343 3.949219 0 7.152343 3.203125 7.152343 7.152343zm50.078126-7.152343c-3.953126 0-7.15625 3.203125-7.15625 7.152343 0 3.949219 3.203124 7.152344 7.15625 7.152344 3.949218 0 7.152343-3.203125 7.152343-7.152344 0-3.949218-3.203125-7.152343-7.152343-7.152343zm0 0" fill="#328091"/><path d="m410.992188 239.136719v10.21875c0 2.824219-2.285157 5.109375-5.109376 5.109375h-81.753906c-2.824218 0-5.109375-2.285156-5.109375-5.109375v-10.21875c0-2.820313 2.285157-5.109375 5.109375-5.109375h81.753906c2.824219 0 5.109376 2.289062 5.109376 5.109375zm-318.421876 35.769531h-68.304687c-2.820313 0-5.109375 2.289062-5.109375 5.109375v10.21875c0 2.824219 2.289062 5.109375 5.109375 5.109375h68.304687c2.820313 0 5.109376-2.285156 5.109376-5.109375v-10.21875c0-2.820313-2.285157-5.109375-5.109376-5.109375zm151.082032 0h-68.304688c-2.820312 0-5.109375 2.289062-5.109375 5.109375v10.21875c0 2.824219 2.289063 5.109375 5.109375 5.109375h68.304688c2.820312 0 5.109375-2.285156 5.109375-5.109375v-10.21875c0-2.820313-2.289063-5.109375-5.109375-5.109375zm-144.355469-40.878906h-81.757813c-2.820312 0-5.109374 2.289062-5.109374 5.109375v10.21875c0 2.824219 2.289062 5.109375 5.109374 5.109375h81.757813c2.820313 0 5.109375-2.285156 5.109375-5.109375v-10.21875c0-2.820313-2.285156-5.109375-5.109375-5.109375zm151.082031 0h-81.757812c-2.820313 0-5.109375 2.289062-5.109375 5.109375v10.21875c0 2.824219 2.289062 5.109375 5.109375 5.109375h81.757812c2.820313 0 5.109375-2.285156 5.109375-5.109375v-10.21875c0-2.820313-2.289062-5.109375-5.109375-5.109375zm148.777344 40.878906h-68.300781c-2.824219 0-5.109375 2.289062-5.109375 5.109375v10.21875c0 2.824219 2.285156 5.109375 5.109375 5.109375h68.300781c2.824219 0 5.109375-2.285156 5.109375-5.109375v-10.21875c0-2.820313-2.285156-5.109375-5.109375-5.109375zm0 0" fill="#f9d19a"/><path d="m375.503906 193.386719h-325.429687v-24.667969h325.429687zm0 0" fill="#fdbaba"/><path d="m87.203125 181.054688c0 15.894531-12.886719 28.78125-28.785156 28.78125-15.894531 0-28.78125-12.886719-28.78125-28.78125 0-15.898438 12.886719-28.785157 28.78125-28.785157 15.898437 0 28.785156 12.886719 28.785156 28.785157zm277.804687-28.785157c-15.898437 0-28.785156 12.886719-28.785156 28.785157 0 15.894531 12.886719 28.78125 28.785156 28.78125 15.894532 0 28.78125-12.886719 28.78125-28.78125 0-15.898438-12.886718-28.785157-28.78125-28.785157zm0 0" fill="#fd5757"/><path d="m87.203125 181.054688c0 4.769531-1.167969 9.265624-3.222656 13.226562-3.960938 2.050781-8.457031 3.21875-13.226563 3.21875-15.894531 0-28.78125-12.886719-28.78125-28.78125 0-4.769531 1.167969-9.265625 3.21875-13.226562 3.960938-2.054688 8.457032-3.222657 13.226563-3.222657 15.898437 0 28.785156 12.886719 28.785156 28.785157zm277.804687-28.785157c-4.773437 0-9.265624 1.167969-13.226562 3.222657-2.054688 3.960937-3.222656 8.457031-3.222656 13.226562 0 15.894531 12.886718 28.78125 28.78125 28.78125 4.773437 0 9.265625-1.167969 13.226562-3.21875 2.054688-3.960938 3.222656-8.457031 3.222656-13.226562 0-15.898438-12.886718-28.785157-28.78125-28.785157zm0 0" fill="#fd7a7a"/><path d="m238.285156 181.054688c0 15.894531-12.886718 28.78125-28.785156 28.78125-15.894531 0-28.78125-12.886719-28.78125-28.78125 0-15.898438 12.886719-28.785157 28.78125-28.785157 15.898438 0 28.785156 12.886719 28.785156 28.785157zm0 0" fill="#fd5757"/><path d="m221.835938 181.054688c0 6.8125-5.523438 12.332031-12.335938 12.332031s-12.335938-5.519531-12.335938-12.332031 5.523438-12.335938 12.335938-12.335938 12.335938 5.523438 12.335938 12.335938zm0 0" fill="#e12929"/></svg>