<svg height="512pt" viewBox="0 -6 512 512" width="512pt" xmlns="http://www.w3.org/2000/svg"><path d="m500.757812 250.378906c0 138.28125-112.097656 250.378906-250.378906 250.378906-79.066406 0-149.5625-36.65625-195.445312-93.894531-8.859375-11.046875-10.191406-26.332031-3.527344-38.824219 18.714844-35.078124 29.328125-75.125 29.328125-117.660156 0-45.355468-12.070313-87.886718-33.160156-124.578125-4.367188-7.601562-3.851563-17.070312 1.359375-24.117187 45.527344-61.578125 118.605468-101.550782 201.03125-101.683594 138.101562-.222656 250.792968 112.277344 250.792968 250.378906zm0 0" fill="#49cb5c"/><path d="m512 116.503906v275.925782c0 8.46875-6.863281 15.332031-15.328125 15.332031h-441.015625c-34.796875-43.003907-55.65625-97.753907-55.65625-157.382813 0-55.910156 18.332031-107.535156 49.304688-149.203125h447.367187c8.464844 0 15.328125 6.863281 15.328125 15.328125zm0 0" fill="#ffdf8e"/><path d="m512 127.214844v-10.710938c0-8.464844-6.863281-15.328125-15.328125-15.328125h-386.019531c-38.296875 0-73.8125 20.886719-91.597656 54.804688-1.753907 3.339843-3.210938 6.519531-4.257813 9.417969-9.578125 26.53125-14.796875 55.144531-14.796875 84.980468 0 59.628906 20.859375 114.378906 55.65625 157.382813h441.015625c8.464844 0 15.328125-6.863281 15.328125-15.332031v-9.707032h-410.703125c-13.609375 0-26.34375-6.761718-33.929687-18.058594-.515626-.769531-1.023438-1.539062-1.53125-2.316406-1.355469-2.074218-.558594-4.875 1.6875-5.933594l142.460937-67.039062c1.253906-.589844 2.722656-.503906 3.898437.226562l19.695313 12.25c9.832031 4.570313 21.058594 4.914063 31.109375 1.046876.835938-.324219 1.671875-.664063 2.492188-1.046876l19.695312-12.25c1.175781-.730468 2.644531-.816406 3.898438-.226562l152.300781 71.671875c1.054687.496094 2.164062.730469 3.257812.730469 2.875 0 5.636719-1.628906 6.941407-4.402344 1.800781-3.832031.160156-8.398438-3.671876-10.199219l-132.066406-73.066406c-1.367187-.753906-1.414062-2.699219-.089844-3.523437l170.90625-106.300782c14.425782-6.703125 23.648438-21.164062 23.648438-37.070312zm-453.011719 215.480468c-2 1.144532-4.570312.417969-5.636719-1.625-18.082031-34.613281-28.3125-73.972656-28.3125-115.730468 0-14.707032 0-26.542969 3.160157-39.515625.816406-3.335938 4.621093-4.945313 7.578125-3.199219l145.917968 86.390625c1.347657.800781 1.332032 2.757813-.027343 3.535156zm0 0" fill="#fbc56d"/><path d="m512 116.503906v10.710938c0 15.90625-9.222656 30.367187-23.648438 37.070312l-221.171874 102.8125c-4.058594 1.886719-8.355469 3.046875-12.710938 3.5-7.074219.726563-14.296875-.4375-20.890625-3.5l-218.777344-101.699218c8.367188-23.191407 20.058594-44.789063 34.503907-64.222657h447.367187c8.464844 0 15.328125 6.863281 15.328125 15.328125zm0 0" fill="#ffe899"/><path d="m218.351562 195.660156c-2.15625-3.640625-.953124-8.34375 2.6875-10.5 24.1875-14.328125 53.140626-16.445312 75.5625-5.535156 17.84375 8.6875 41.234376 6.792969 61.039063-4.9375 3.644531-2.15625 8.34375-.953125 10.5 2.6875 2.15625 3.644531.957031 8.34375-2.6875 10.5-13.921875 8.246094-29.425781 12.449219-44.347656 12.449219-11.007813 0-21.695313-2.28125-31.214844-6.914063-17.84375-8.6875-41.234375-6.792968-61.039063 4.9375-3.640624 2.15625-8.34375.953125-10.5-2.6875zm157.679688 21.882813c-2.15625-3.640625-6.859375-4.84375-10.5-2.6875-19.808594 11.730469-43.199219 13.625-61.042969 4.9375-22.421875-10.910157-51.375-8.792969-75.558593 5.535156-3.640626 2.15625-4.847657 6.855469-2.691407 10.5 2.160157 3.640625 6.863281 4.84375 10.5 2.6875 19.808594-11.730469 43.199219-13.625 61.042969-4.9375 9.515625 4.628906 20.203125 6.914063 31.210938 6.914063 14.921874 0 30.429687-4.203126 44.351562-12.449219 3.640625-2.15625 4.84375-6.859375 2.6875-10.5zm0 0" fill="#f89575"/><path d="m438.417969 203.371094c0 28.21875-22.875 51.097656-51.097657 51.097656-28.21875 0-51.097656-22.878906-51.097656-51.097656 0-28.222656 22.878906-51.097656 51.097656-51.097656 28.222657 0 51.097657 22.875 51.097657 51.097656zm0 0" fill="#fd4343"/><path d="m407.761719 203.371094c0 11.285156-9.152344 20.4375-20.441407 20.4375-11.289062 0-20.4375-9.152344-20.4375-20.4375 0-11.289063 9.148438-20.441406 20.4375-20.441406 11.289063 0 20.441407 9.152343 20.441407 20.441406zm0 0" fill="#fd7a7a"/><path d="m438.382812 201.472656c1.054688 29.085938-22.210937 52.996094-51.0625 52.996094-4.308593 0-8.492187-.539062-12.492187-1.546875-4.703125-1.183594-7.945313-5.492187-7.945313-10.34375 0-6.511719 6.167969-11.292969 12.457032-9.601563 2.546875.6875 5.21875 1.050782 7.980468 1.050782 17.589844 0 31.722657-14.8125 30.597657-32.644532-.96875-15.316406-13.460938-27.738281-28.785157-28.621093-3.328124-.191407-6.550781.148437-9.589843.945312-6.382813 1.671875-12.660157-2.953125-12.660157-9.554687 0-4.839844 3.234376-9.144532 7.929688-10.332032 5.074219-1.28125 10.449219-1.804687 16.003906-1.429687 25.921875 1.734375 46.628906 23.121094 47.566406 49.082031zm0 0" fill="#fd5757"/></svg>