<svg height="511pt" viewBox="-5 1 511 511.99923" width="511pt" xmlns="http://www.w3.org/2000/svg"><path d="m501.25 263.609375c-.863281 111.101563-74.097656 204.964844-174.882812 236.796875-14.78125 4.667969-29.839844-6.398438-29.839844-21.902344 0-112.253906-91.003906-203.257812-203.257813-203.257812h-79.183593c-7.464844 0-13.582032-6.023438-13.585938-13.488282 0-.046874 0-.089843 0-.136718 0-138.28125 112.097656-250.378906 250.378906-250.378906 137.980469 0 251.445313 114.386718 250.371094 252.367187zm0 0" fill="#fd5757"/><path d="m342.585938 382.195312-108.601563-177.015624c-32.589844-53.117188-24.496094-121.652344 19.566406-165.71875 52.613281-52.613282 137.917969-52.613282 190.53125 0 44.066407 44.066406 52.160157 112.601562 19.570313 165.71875l-108.601563 177.015624c-2.855469 4.648438-9.613281 4.648438-12.464843 0zm0 0" fill="#8ed0e1"/><path d="m369.34375 358.894531-94.308594-153.714843c-32.589844-53.117188-24.496094-121.652344 19.566406-165.71875 21.070313-21.070313 47.386719-33.695313 74.742188-37.890626 27.355469 4.195313 53.667969 16.816407 74.738281 37.890626 44.066407 44.0625 52.160157 112.601562 19.570313 165.71875zm0 0" fill="#b0dde9"/><path d="m348.816406 39.03125c-53.519531 0-96.90625 43.386719-96.90625 96.90625s43.386719 96.910156 96.90625 96.910156c53.519532 0 96.90625-43.390625 96.90625-96.910156s-43.386718-96.90625-96.90625-96.90625zm0 161.511719c-35.679687 0-64.605468-28.921875-64.605468-64.605469 0-35.679688 28.925781-64.605469 64.605468-64.605469 35.679688 0 64.605469 28.925781 64.605469 64.605469 0 35.683594-28.925781 64.605469-64.605469 64.605469zm40.378906-64.605469c0 22.300781-18.078124 40.378906-40.378906 40.378906-22.300781 0-40.378906-18.078125-40.378906-40.378906s18.078125-40.378906 40.378906-40.378906c22.300782 0 40.378906 18.082031 40.378906 40.378906zm0 0" fill="#69c3da"/><path d="m.5 261.621094c0-.457032.015625-.910156.015625-1.363282.183594-8.308593 6.964844-14.988281 15.3125-14.988281h296.367187c8.464844 0 15.332032 6.863281 15.332032 15.328125v239.136719c0 .101563-.015625.199219-.015625.300781-24.15625 7.757813-49.902344 11.964844-76.632813 11.964844-138.28125 0-250.378906-112.097656-250.378906-250.378906zm0 0" fill="#f5b65d"/><path d="m327.527344 260.597656v239.136719c0 .101563-.015625.199219-.015625.300781-24.15625 7.757813-49.902344 11.964844-76.632813 11.964844-97.464844 0-181.917968-55.691406-223.28125-136.988281v-114.414063c0-8.464844 6.863282-15.328125 15.328125-15.328125h269.269531c8.464844 0 15.332032 6.863281 15.332032 15.328125zm0 0" fill="#f7c37d"/><path d="m170.289062 459.878906v16.933594c0 5.644531-4.574218 10.222656-10.21875 10.222656h-16.933593c-.566407 0-1.136719-.058594-1.675781-.144531-1.828126-.890625-3.617188-1.792969-5.421876-2.722656-1.917968-1.859375-3.121093-4.472657-3.121093-7.355469v-16.933594c0-5.644531 4.574219-10.21875 10.21875-10.21875h16.933593c5.644532 0 10.21875 4.574219 10.21875 10.21875zm-61.609374-10.21875h-16.933594c-1.742188 0-3.375.4375-4.8125 1.203125 4.757812 4.125 9.675781 8.070313 14.738281 11.828125 0 0 0 .003906.003906.003906.570313.425782 1.128907.851563 1.707031 1.273438 5.027344 3.667969 10.214844 7.167969 15.515626 10.460938v-14.550782c0-5.644531-4.574219-10.21875-10.21875-10.21875zm0 0" fill="#dca050"/><path d="m121.046875 396.136719-8.914063 8.914062c-1.074218 1.074219-2.535156 1.679688-4.054687 1.679688-3.167969 0-5.734375-2.566407-5.734375-5.734375v-155.726563h123.335938v155.726563c0 3.167968-2.566407 5.734375-5.730469 5.734375-1.523438 0-2.980469-.605469-4.054688-1.679688l-8.917969-8.914062c-1.824218-1.824219-4.78125-1.824219-6.605468 0l-6.398438 6.398437c-2.6875 2.683594-6.332031 4.195313-10.128906 4.195313s-7.441406-1.511719-10.128906-4.195313l-6.398438-6.398437c-1.824218-1.824219-4.78125-1.824219-6.605468 0l-6.402344 6.398437c-2.683594 2.683594-6.328125 4.195313-10.125 4.195313-3.800782 0-7.441406-1.511719-10.128906-4.195313l-6.398438-6.398437c-1.824219-1.828125-4.785156-1.828125-6.609375 0zm0 0" fill="#fdf7bd"/><path d="m120.507812 336.367188h91.917969c1.128907 0 2.042969.917968 2.042969 2.046874v9.925782c0 1.128906-.914062 2.042968-2.042969 2.042968h-91.917969c-1.128906 0-2.042968-.914062-2.042968-2.042968v-9.925782c0-1.128906.914062-2.046874 2.042968-2.046874zm-2.042968 27.742187v9.925781c0 1.128906.914062 2.042969 2.042968 2.042969h54.542969c1.128907 0 2.042969-.914063 2.042969-2.042969v-9.925781c0-1.128906-.914062-2.046875-2.042969-2.046875h-54.542969c-1.128906 0-2.042968.917969-2.042968 2.046875zm0 0" fill="#f9d19a"/><path d="m132.476562 266v51.972656c0 1.128906-.914062 2.046875-2.042968 2.046875h-9.925782c-1.128906 0-2.042968-.917969-2.042968-2.046875v-51.972656c0-1.128906.914062-2.042969 2.042968-2.042969h9.925782c1.128906 0 2.042968.914063 2.042968 2.042969zm49.347657-2.042969h-9.925781c-1.128907 0-2.046876.914063-2.046876 2.042969v51.972656c0 1.128906.917969 2.046875 2.046876 2.046875h9.925781c1.128906 0 2.042969-.917969 2.042969-2.046875v-51.972656c0-1.128906-.914063-2.042969-2.042969-2.042969zm-25.695313 0h-9.925781c-1.128906 0-2.046875.914063-2.046875 2.042969v14.601562c0 1.128907.917969 2.042969 2.046875 2.042969h9.925781c1.128906 0 2.042969-.914062 2.042969-2.042969v-14.601562c0-1.128906-.914063-2.042969-2.042969-2.042969zm0 28.03125h-9.925781c-1.128906 0-2.046875.914063-2.046875 2.042969v23.941406c0 1.128906.917969 2.046875 2.046875 2.046875h9.925781c1.128906 0 2.042969-.917969 2.042969-2.046875v-23.941406c0-1.128906-.914063-2.042969-2.042969-2.042969zm51.390625-28.03125h-9.925781c-1.132812 0-2.046875.914063-2.046875 2.042969v33.285156c0 1.128906.914063 2.046875 2.046875 2.046875h9.925781c1.128907 0 2.042969-.917969 2.042969-2.046875v-33.285156c0-1.128906-.914062-2.042969-2.042969-2.042969zm0 46.71875h-9.925781c-1.132812 0-2.046875.914063-2.046875 2.042969v5.253906c0 1.128906.914063 2.046875 2.046875 2.046875h9.925781c1.128907 0 2.042969-.917969 2.042969-2.046875v-5.253906c0-1.128906-.914062-2.042969-2.042969-2.042969zm0 0" fill="#7a8c98"/></svg>