<svg height="512pt" viewBox="-6 0 512 512.00102" width="512pt" xmlns="http://www.w3.org/2000/svg"><path d="m78.8125 421.640625c-6.410156 6.035156-16.558594 5.414063-22.140625-1.394531-35.410156-43.183594-56.671875-98.417969-56.671875-158.625 0-138.132813 111.859375-250.136719 249.933594-250.378906 137.902344-.242188 250.660156 112.171874 250.824218 250.074218.074219 60.371094-21.230468 115.753906-56.746093 159.027344-5.554688 6.765625-15.6875 7.296875-22.0625 1.296875-44.8125-42.183594-105.167969-68.042969-171.570313-68.042969s-126.753906 25.859375-171.566406 68.042969zm0 0" fill="#b0dde9"/><path d="m444.550781 15.328125v404.355469c-41.453125 50.863281-102.492187 85.121094-171.621093 91.292968h-45.101563c-69.128906-6.171874-130.164063-40.429687-171.617187-91.292968v-404.355469c0-8.464844 6.863281-15.328125 15.328124-15.328125h357.683594c8.464844 0 15.328125 6.863281 15.328125 15.328125zm0 0" fill="#fd5757"/><path d="m306.585938 425.816406v79.839844c-18.066407 4.144531-36.878907 6.34375-56.207032 6.34375s-38.136718-2.199219-56.207031-6.34375v-79.839844c0-1.128906.914063-2.042968 2.042969-2.042968h108.328125c1.128906-.003907 2.042969.914062 2.042969 2.042968zm-112.414063-119.230468h112.414063v-132.851563h-112.414063zm2.042969 96.746093h108.328125c1.128906 0 2.042969-.914062 2.042969-2.042969v-74.261718h-112.414063v74.261718c0 1.128907.914063 2.042969 2.042969 2.042969zm-7.019532 101.128907c1.210938.308593 2.429688.59375 3.648438.882812-1.21875-.289062-2.4375-.578125-3.648438-.882812zm-15.460937-330.726563h-82.78125v132.851563h82.78125zm-2.046875-71.539063h-80.734375v51.097657h80.734375c1.132812 0 2.046875-.914063 2.046875-2.042969v-47.011719c0-1.128906-.914063-2.042969-2.046875-2.042969zm257.535156-102.195312h-322.9375c-8.46875 0-15.332031 6.863281-15.332031 15.328125v66.429687h80.734375c1.132812 0 2.046875-.914062 2.046875-2.046874v-56.5c6.695313-2.152344 13.507813-4.042969 20.4375-5.632813v135.714844h112.414063v-135.714844c6.929687 1.589844 13.742187 3.480469 20.441406 5.632813v56.5c0 1.132812.914062 2.046874 2.042968 2.046874h115.480469v-66.429687c0-8.464844-6.863281-15.328125-15.328125-15.328125zm-255.488281 500.03125v-173.003906h-82.78125v127.664062c27.984375 23.128906 61.082031 40.285156 97.339844 49.535156-4.914063-1.253906-9.769531-2.65625-14.558594-4.195312zm153.292969-74.214844v74.214844c-1.554688.5-3.117188.984375-4.683594 1.453125 46.832031-14.035156 87.894531-41.40625 118.785156-77.710937h-112.058594c-1.128906-.003907-2.042968.914062-2.042968 2.042968zm0-272.523437h117.523437v-51.097657h-115.480469c-1.128906 0-2.042968.914063-2.042968 2.042969zm0 250.039062h117.523437v-76.304687h-117.523437zm0-96.746093h117.523437v-132.851563h-117.523437zm-5.074219 195.019531c-1.132813.335937-2.273437.65625-3.414063.980469 1.140626-.324219 2.28125-.644532 3.414063-.980469zm-15.050781 3.980469c.636718-.148438 1.273437-.308594 1.914062-.460938-.640625.152344-1.273437.3125-1.914062.460938zm8.808594-2.214844c-.941407.253906-1.882813.503906-2.828126.746094.945313-.242188 1.886719-.492188 2.828126-.746094zm0 0" fill="#fd7a7a"/><path d="m173.734375 0h20.4375v102.195312h-20.4375zm132.851563 0v102.195312h20.441406v-102.195312zm0 0" fill="#fd5757"/><path d="m56.207031 306.585938h34.746094v20.441406h-34.746094zm0-132.851563h34.746094v-20.441406h-34.746094zm0-91.976563v20.4375h34.746094v-20.4375zm394.476563-71.539062v10.21875c0 5.644531-4.574219 10.222656-10.21875 10.222656h-380.167969c-5.644531 0-10.21875-4.578125-10.21875-10.222656v-10.21875c0-5.644531 4.574219-10.21875 10.21875-10.21875h380.167969c5.644531 0 10.21875 4.574219 10.21875 10.21875zm0 0" fill="#fd4343"/><path d="m321.933594 329.070312h-144.453125c-2.257813 0-4.085938-1.832031-4.085938-4.089843v-169.644531c0-2.257813 1.828125-4.085938 4.085938-4.085938h144.453125c2.257812 0 4.085937 1.828125 4.085937 4.085938v169.644531c0 2.257812-1.828125 4.089843-4.085937 4.089843zm0 0" fill="#2b6c7e"/><path d="m322.9375 329.070312h-116.242188c-2.257812 0-4.089843-1.832031-4.089843-4.089843v-169.644531c0-2.257813 1.832031-4.085938 4.089843-4.085938h116.242188c2.257812 0 4.089844 1.828125 4.089844 4.085938v169.644531c0 2.257812-1.832032 4.089843-4.089844 4.089843zm0 0" fill="#328091"/><path d="m294.0625 236.84375h-87.367188c-2.257812 0-4.089843-1.832031-4.089843-4.089844v-58.175781c0-2.257813 1.832031-4.085937 4.089843-4.085937h87.367188c2.257812 0 4.089844 1.828124 4.089844 4.085937v58.175781c0 2.257813-1.832032 4.089844-4.089844 4.089844zm0 0" fill="#c5d3dd"/><path d="m294.0625 236.84375h-66.136719c-2.257812 0-4.085937-1.832031-4.085937-4.089844v-58.175781c0-2.257813 1.828125-4.085937 4.085937-4.085937h66.136719c2.257812 0 4.089844 1.828124 4.089844 4.085937v58.175781c0 2.257813-1.832032 4.089844-4.089844 4.089844zm0 0" fill="#d9e7ec"/><path d="m245.070312 280.742188v5.09375c0 2.257812-1.828124 4.085937-4.085937 4.085937h-34.289063c-2.257812 0-4.089843-1.828125-4.089843-4.085937v-5.09375c0-2.257813 1.832031-4.089844 4.089843-4.089844h34.289063c2.257813 0 4.085937 1.832031 4.085937 4.089844zm-4.085937 15.816406h-34.289063c-2.257812 0-4.089843 1.832031-4.089843 4.085937v5.097657c0 2.257812 1.832031 4.085937 4.089843 4.085937h34.289063c2.257813 0 4.085937-1.828125 4.085937-4.085937v-5.097657c0-2.253906-1.828124-4.085937-4.085937-4.085937zm0-39.8125h-34.289063c-2.257812 0-4.089843 1.832031-4.089843 4.089844v5.09375c0 2.257812 1.832031 4.085937 4.089843 4.085937h34.289063c2.257813 0 4.085937-1.828125 4.085937-4.085937v-5.09375c0-2.257813-1.828124-4.089844-4.085937-4.089844zm0 0" fill="#95bcc9"/><path d="m298.152344 260.835938v18.363281c0 2.257812-1.832032 4.089843-4.089844 4.089843h-34.285156c-2.257813 0-4.089844-1.832031-4.089844-4.089843v-18.363281c0-2.257813 1.832031-4.089844 4.089844-4.089844h34.285156c2.257812 0 4.089844 1.832031 4.089844 4.089844zm-4.089844 35.722656h-34.285156c-2.257813 0-4.089844 1.832031-4.089844 4.085937v5.097657c0 2.257812 1.832031 4.085937 4.089844 4.085937h34.285156c2.257812 0 4.089844-1.828125 4.089844-4.085937v-5.097657c0-2.253906-1.832032-4.085937-4.089844-4.085937zm0 0" fill="#174550"/></svg>