<svg height="511pt" viewBox="-5 1 511 511.99949" width="511pt" xmlns="http://www.w3.org/2000/svg"><path d="m501.257812 261.621094c0 138.28125-112.097656 250.378906-250.378906 250.378906-57.71875 0-110.878906-19.53125-153.226562-52.347656-8.378906-6.492188-16.214844-13.601563-23.699219-21.085938-7.484375-7.480468-14.613281-15.339844-21.105469-23.71875-32.816406-42.347656-52.347656-95.507812-52.347656-153.226562 0-138.28125 112.097656-250.378906 250.378906-250.378906s250.378906 112.097656 250.378906 250.378906zm0 0" fill="#f7c37d"/><path d="m450.160156 236.070312c0 95.949219-77.78125 173.734376-173.730468 173.734376-40.609376 0-77.964844-13.9375-107.546876-37.285157l-61.953124 61.957031-28.90625-28.90625 61.957031-61.953124c-23.347657-29.582032-37.285157-66.9375-37.285157-107.546876 0-95.949218 77.78125-173.730468 173.734376-173.730468 95.949218 0 173.730468 77.78125 173.730468 173.730468zm0 0" fill="#7a8c98"/><path d="m419.5 236.070312c0 79.019532-64.054688 143.074219-143.070312 143.074219-79.019532 0-143.074219-64.054687-143.074219-143.074219 0-79.015624 64.054687-143.074218 143.074219-143.074218 79.015624 0 143.070312 64.058594 143.070312 143.074218zm0 0" fill="#b6c4cf"/><path d="m391.328125 150.808594c17.699219 23.8125 28.171875 53.3125 28.171875 85.261718 0 79.019532-64.054688 143.074219-143.070312 143.074219-31.953126 0-61.453126-10.472656-85.261719-28.171875-17.699219-23.8125-28.175781-53.316406-28.175781-85.265625 0-79.015625 64.054687-143.074219 143.074218-143.074219 31.949219 0 61.449219 10.476563 85.261719 28.175782zm0 0" fill="#d9e7ec"/><path d="m270.90625 338.707031-96.246094-156.871093c-28.882812-47.074219-21.710937-107.8125 17.339844-146.863282 46.628906-46.628906 122.226562-46.628906 168.855469 0 39.050781 39.050782 46.222656 99.789063 17.339843 146.863282l-96.246093 156.871093c-2.527344 4.121094-8.515625 4.121094-11.042969 0zm-140.15625 66.167969c5.988281 5.984375 5.988281 15.691406 0 21.675781l-33.089844 33.089844c-16.757812-12.984375-31.828125-28.035156-44.8125-44.792969l33.097656-33.097656c5.988282-5.988281 15.691407-5.988281 21.679688 0zm0 0" fill="#fd4343"/><path d="m116.296875 419.328125c5.984375 5.984375 5.984375 15.691406 0 21.675781l-18.644531 18.648438c-10.804688-8.371094-20.894532-17.625-30.191406-27.621094l19.929687-19.929688c5.988281-5.988281 15.691406-5.988281 21.679687 0zm178.320313-101.265625-83.578126-136.226562c-28.882812-47.074219-21.710937-107.8125 17.34375-146.863282 18.671876-18.675781 41.992188-29.863281 66.234376-33.578125 24.246093 3.714844 47.5625 14.902344 66.238281 33.578125 39.050781 39.050782 46.222656 99.789063 17.339843 146.863282zm0 0" fill="#fd5757"/><path d="m276.429688 34.589844c-47.433594 0-85.882813 38.449218-85.882813 85.882812 0 47.429688 38.449219 85.878906 85.882813 85.878906 47.429687 0 85.878906-38.449218 85.878906-85.878906 0-47.433594-38.449219-85.882812-85.878906-85.882812zm0 143.136718c-31.621094 0-57.257813-25.632812-57.257813-57.253906s25.636719-57.253906 57.257813-57.253906c31.617187 0 57.253906 25.632812 57.253906 57.253906s-25.636719 57.253906-57.253906 57.253906zm35.78125-57.253906c0 19.761719-16.019532 35.78125-35.78125 35.78125-19.765626 0-35.785157-16.019531-35.785157-35.78125 0-19.761718 16.019531-35.785156 35.785157-35.785156 19.761718 0 35.78125 16.023438 35.78125 35.785156zm0 0" fill="#fd9898"/></svg>