<svg height="512pt" viewBox="0 0 512 512" width="512pt" xmlns="http://www.w3.org/2000/svg"><path d="m237.09375 471.480469c0 21.609375-20.523438 37.417969-41.375 31.742187-106.308594-28.925781-184.476562-126.132812-184.476562-241.601562 0-138.144532 111.875-250.15625 249.964843-250.378906 138.046875-.222657 250.792969 112.335937 250.792969 250.378906 0 37.117187-8.089844 72.34375-22.585938 104.023437-3.480468 7.609375-11.089843 12.480469-19.457031 12.480469h-139.507812c-51.558594 0-93.355469 41.796875-93.355469 93.355469zm0 0" fill="#8ed0e1"/><path d="m148.183594 439.441406h-62.8125c-9.570313-9.484375-18.371094-19.742187-26.316406-30.660156h89.128906c8.464844 0 15.328125 6.863281 15.328125 15.332031 0 8.464844-6.863281 15.328125-15.328125 15.328125zm337.246094-204.390625h-153.292969c-8.46875 0-15.332031 6.863281-15.332031 15.328125s6.863281 15.328125 15.332031 15.328125h25.546875c5.644531 0 10.21875 4.578125 10.21875 10.222657 0 5.644531-4.574219 10.21875-10.21875 10.21875h-127.742188c-8.46875 0-15.332031 6.863281-15.332031 15.328124 0 8.464844 6.863281 15.328126 15.332031 15.328126h194.171875c8.464844 0 15.328125-6.863282 15.328125-15.328126 0-8.464843-6.863281-15.328124-15.328125-15.328124h-25.550781c-5.644531 0-10.21875-4.574219-10.21875-10.21875 0-5.644532 4.574219-10.222657 10.21875-10.222657h86.867188c8.464843 0 15.328124-6.863281 15.328124-15.328125s-6.863281-15.328125-15.328124-15.328125zm6.609374-71.539062h-27.050781c-8.464843 0-15.328125 6.863281-15.328125 15.332031 0 8.464844 6.863282 15.328125 15.328125 15.328125h37.808594c-2.933594-10.515625-6.53125-20.75-10.757813-30.660156zm-272.320312 163.515625h-86.863281c-5.644531 0-10.222657-4.578125-10.222657-10.222656 0-5.640626 4.578126-10.21875 10.222657-10.21875h15.328125c8.464844 0 15.328125-6.863282 15.328125-15.328126 0-8.464843-6.863281-15.328124-15.328125-15.328124h-136.527344c.585938 10.398437 1.800781 20.632812 3.621094 30.65625h76.699218c5.644532 0 10.21875 4.578124 10.21875 10.21875 0 5.644531-4.574218 10.222656-10.21875 10.222656h-25.550781c-8.464843 0-15.328125 6.863281-15.328125 15.328125 0 8.464843 6.863282 15.328125 15.328125 15.328125h153.292969c8.46875 0 15.332031-6.863282 15.332031-15.328125 0-8.464844-6.863281-15.328125-15.332031-15.328125zm0 0" fill="#b0dde9"/><path d="m194.171875 143.074219h51.097656v339.738281c0 15.769531-14.28125 27.816406-29.785156 24.929688-7.21875-1.339844-14.328125-2.992188-21.3125-4.945313zm0 0" fill="#328091"/><path d="m245.269531 158.402344v143.074218c0 8.464844-6.863281 15.328126-15.328125 15.328126-8.46875 0-15.332031-6.863282-15.332031-15.328126v-143.074218c0-8.464844 6.863281-15.328125 15.332031-15.328125 8.464844 0 15.328125 6.863281 15.328125 15.328125zm0 0" fill="#458fa4"/><path d="m439.441406 97.085938v132.855468c0 8.464844-6.863281 15.328125-15.328125 15.328125h-337.246093c-8.46875 0-15.332032-6.863281-15.332032-15.328125v-214.613281c0-8.464844 6.863282-15.328125 15.332032-15.328125h255.488281c53.617187 0 97.085937 43.46875 97.085937 97.085938zm0 0" fill="#fd7a7a"/><path d="m439.441406 97.085938v102.195312c0 8.464844-6.863281 15.328125-15.328125 15.328125h-337.246093c-8.46875 0-15.332032-6.863281-15.332032-15.328125v-183.953125c0-8.464844 6.863282-15.328125 15.332032-15.328125h255.488281c53.617187 0 97.085937 43.46875 97.085937 97.085938zm0 0" fill="#fd9898"/><path d="m194.171875 97.085938v132.855468c0 8.464844-6.863281 15.328125-15.328125 15.328125h-163.515625c-8.464844 0-15.328125-6.863281-15.328125-15.328125v-132.855468c0-53.617188 43.46875-97.085938 97.085938-97.085938 53.617187 0 97.085937 43.46875 97.085937 97.085938zm0 0" fill="#fd5757"/><path d="m45.988281 245.269531h-30.660156c-8.464844 0-15.328125-6.863281-15.328125-15.328125v-132.855468c0-53.617188 43.46875-97.085938 97.085938-97.085938 5.21875 0 10.335937.417969 15.328124 1.207031-46.332031 7.351563-81.753906 47.476563-81.753906 95.878907v132.855468c0 8.464844 6.863282 15.328125 15.328125 15.328125zm0 0" fill="#fd4343"/><path d="m316.804688 235.050781h-30.65625v-173.734375h30.65625zm0 0" fill="#fd5757"/><path d="m337.246094 235.050781v10.21875h-51.097656v-51.097656h10.21875c22.574218 0 40.878906 18.300781 40.878906 40.878906zm0 0" fill="#fd4343"/><path d="m337.246094 20.4375v40.878906c0 11.289063-9.152344 20.441406-20.441406 20.441406h-30.65625v-61.320312c0-11.285156 9.148437-20.4375 20.4375-20.4375h10.21875c11.289062 0 20.441406 9.152344 20.441406 20.4375zm0 0" fill="#f52c2c"/><path d="m182.605469 51.097656c7.378906 13.6875 11.566406 29.347656 11.566406 45.988282v116.886718h-119.570313c-8.464843 0-15.328124-6.863281-15.328124-15.328125v-132.21875c0-8.464843 6.863281-15.328125 15.328124-15.328125zm0 0" fill="#fdf385"/><path d="m97.085938 51.097656h85.519531c7.378906 13.6875 11.566406 29.347656 11.566406 45.988282v116.886718h-97.085937c-8.464844 0-15.328126-6.863281-15.328126-15.328125v-132.21875c0-8.464843 6.863282-15.328125 15.328126-15.328125zm0 0" fill="#fcf498"/><path d="m194.171875 145.382812-91.265625 42.949219c-1.054688.496094-2.164062.730469-3.257812.730469-2.878907 0-5.632813-1.625-6.941407-4.402344-1.800781-3.832031-.15625-8.394531 3.671875-10.199218l89.367188-42.054688-88.824219-41.796875c-3.828125-1.804687-5.472656-6.371094-3.671875-10.199219 1.800781-3.832031 6.367188-5.476562 10.199219-3.671875l90.722656 42.691407zm0 0" fill="#fde803"/><path d="m489.515625 365.441406c-39.453125 86.464844-126.652344 146.558594-227.894531 146.558594-16.070313 0-31.78125-1.53125-47.011719-4.425781v-155c0-8.464844 6.863281-15.328125 15.332031-15.328125h244.246094c8.464844 0 15.328125 6.863281 15.328125 15.328125zm0 0" fill="#dca050"/><path d="m489.515625 365.441406c-39.453125 86.464844-126.652344 146.558594-227.894531 146.558594-5.84375 0-11.632813-.214844-17.375-.609375v-158.816406c0-8.464844 6.863281-15.328125 15.332031-15.328125h214.609375c8.464844 0 15.328125 6.863281 15.328125 15.328125zm0 0" fill="#ebae56"/><path d="m305.070312 425.863281-9.75 5.238281c-1.175781.628907-2.769531.984376-4.433593.984376-3.464844 0-6.273438-1.507813-6.273438-3.367188v-91.472656c0-.566406.460938-1.023438 1.023438-1.023438h132.855469c.5625 0 1.019531.457032 1.019531 1.023438v91.472656c0 1.859375-2.804688 3.367188-6.269531 3.367188-1.664063 0-3.257813-.355469-4.433594-.984376l-9.753906-5.238281c-1.984376-1.066406-5.238282-1.066406-7.222657 0l-7 3.757813c-2.9375 1.578125-6.925781 2.464844-11.078125 2.464844s-8.140625-.886719-11.078125-2.464844l-7-3.757813c-1.984375-1.066406-5.238281-1.066406-7.222656 0l-7 3.757813c-2.9375 1.578125-6.925781 2.464844-11.078125 2.464844-4.15625 0-8.140625-.886719-11.078125-2.464844l-7-3.757813c-1.988281-1.066406-5.238281-1.066406-7.226563 0zm0 0" fill="#fdf7bd"/><path d="m305.375 357.683594h93.378906c1.128906 0 2.046875.914062 2.046875 2.046875v11.238281c0 1.128906-.917969 2.046875-2.046875 2.046875h-93.378906c-1.128906 0-2.046875-.917969-2.046875-2.046875v-11.238281c0-1.132813.917969-2.046875 2.046875-2.046875zm-2.046875 30.148437v11.242188c0 1.128906.917969 2.042969 2.046875 2.042969h60.039062c1.128907 0 2.042969-.914063 2.042969-2.042969v-11.242188c0-1.128906-.914062-2.042969-2.042969-2.042969h-60.039062c-1.128906 0-2.046875.914063-2.046875 2.042969zm0 0" fill="#f9d19a"/></svg>