<svg height="512pt" viewBox="0 0 512 512.00051" width="512pt" xmlns="http://www.w3.org/2000/svg"><path d="m459.125 276.089844h13.902344c15.125 0 26.617187 13.625 24.039062 28.527344-20.386718 117.792968-123.066406 207.382812-246.6875 207.382812-136.8125 0-250.4453122-113.6875-250.378906-250.503906.0585938-119.128906 83.316406-218.792969 194.820312-244.054688 14.785157-3.351562 28.828126 8.015625 28.828126 23.171875 0 130.050781 105.425781 235.476563 235.476562 235.476563zm0 0" fill="#f7c37d"/><path d="m500.757812 261.621094c0 15.351562-1.386718 30.378906-4.035156 44.964844h-303.574218v-288.765626c18.382812-4.296874 37.539062-6.578124 57.230468-6.578124 138.28125 0 250.378906 112.097656 250.378906 250.378906zm0 0" fill="#49cb5c"/><path d="m223.808594 12.664062v293.921876h-30.660156v-288.765626c10.003906-2.339843 20.238281-4.054687 30.660156-5.15625zm0 0" fill="#0cc33c"/><path d="m101.171875 337.246094v-91.976563h-100.644531c1.371094-21.273437 5.394531-41.820312 11.753906-61.316406h88.890625v-123.40625c18.617187-13.839844 39.226563-25.144531 61.316406-33.429687v310.128906h326.632813c-6.929688 21.894531-16.78125 42.484375-29.109375 61.316406h-402.328125c-10.964844 0-21.027344-6.003906-26.304688-15.617188-7.917968-14.417968-14.375-29.710937-19.4375-45.699218zm0 0" fill="#f5b65d"/><path d="m364.414062 367.90625c0 5.644531-4.578124 10.21875-10.222656 10.21875-5.644531 0-10.21875-4.574219-10.21875-10.21875s4.574219-10.222656 10.21875-10.222656c5.644532 0 10.222656 4.578125 10.222656 10.222656zm-48.628906-10.222656c-5.644531 0-10.21875 4.578125-10.21875 10.222656s4.574219 10.21875 10.21875 10.21875c5.644532 0 10.21875-4.574219 10.21875-10.21875s-4.574218-10.222656-10.21875-10.222656zm76.816406 0c-5.644531 0-10.21875 4.578125-10.21875 10.222656s4.574219 10.21875 10.21875 10.21875c5.644532 0 10.21875-4.574219 10.21875-10.21875s-4.574218-10.222656-10.21875-10.222656zm84.425782-322.710938c-46.628906-46.628906-122.226563-46.628906-168.851563 0-39.054687 39.050782-46.226562 99.789063-17.34375 146.863282l96.246094 156.871093c2.527344 4.121094 8.515625 4.121094 11.046875 0l96.246094-156.871093c28.882812-47.074219 21.707031-107.8125-17.34375-146.863282zm0 0" fill="#fdf385"/><path d="m410.789062 318.0625-83.578124-136.226562c-28.878907-47.074219-21.707032-107.8125 17.34375-146.863282 18.671874-18.671875 41.992187-29.859375 66.234374-33.578125 24.246094 3.71875 47.566407 14.90625 66.238282 33.578125 39.050781 39.050782 46.226562 99.789063 17.34375 146.863282zm0 0" fill="#fcf498"/><path d="m392.601562 34.589844c-47.429687 0-85.882812 38.453125-85.882812 85.882812 0 47.429688 38.453125 85.882813 85.882812 85.882813 47.429688 0 85.878907-38.453125 85.878907-85.882813 0-47.429687-38.449219-85.882812-85.878907-85.882812zm0 143.136718c-31.621093 0-57.253906-25.632812-57.253906-57.253906s25.632813-57.253906 57.253906-57.253906c31.621094 0 57.253907 25.632812 57.253907 57.253906s-25.632813 57.253906-57.253907 57.253906zm35.785157-57.253906c0 19.761719-16.023438 35.785156-35.785157 35.785156-19.761718 0-35.785156-16.023437-35.785156-35.785156 0-19.761718 16.023438-35.785156 35.785156-35.785156 19.761719 0 35.785157 16.023438 35.785157 35.785156zm0 0" fill="#fde803"/><path d="m315.785156 117.527344v385.824218c-.15625.042969-.3125.082032-.46875.125-24.277344 6.503907-48.074218-11.996093-48.074218-37.128906 0-14.859375-12.046876-26.90625-26.90625-26.90625h-147.777344c-12.457032 0-24.238282-5.515625-32.34375-14.972656-11.03125-12.867188-20.78125-26.867188-29.042969-41.800781v-265.140625c0-8.46875 6.863281-15.332032 15.328125-15.332032h253.957031c8.464844 0 15.328125 6.863282 15.328125 15.332032zm0 0" fill="#328091"/><path d="m315.785156 117.527344v385.824218c-9.417968 2.542969-19.050781 4.550782-28.871094 5.992188-1.597656.234375-5.996093-.152344-12.535156-1.121094-122.835937-18.214844-213.570312-124.0625-213.570312-248.242187v-142.453125c0-8.46875 6.863281-15.332032 15.328125-15.332032h224.320312c8.464844 0 15.328125 6.863282 15.328125 15.332032zm0 0" fill="#458fa4"/><path d="m201.582031 136.941406h-56.207031c-4.234375 0-7.667969-3.429687-7.667969-7.664062 0-4.230469 3.433594-7.664063 7.667969-7.664063h56.207031c4.230469 0 7.664063 3.433594 7.664063 7.664063 0 4.234375-3.433594 7.664062-7.664063 7.664062zm0 0" fill="#2b6c7e"/><path d="m286.914062 264.21875v245.121094c-11.925781 1.742187-24.121093 2.660156-36.535156 2.660156-76.1875 0-144.417968-34.039062-190.339844-87.726562v-256.671876c0-8.464843 6.863282-15.328124 15.332032-15.328124h99.597656c61.824219 0 111.945312 50.121093 111.945312 111.945312zm0 0" fill="#fdf7bd"/><path d="m286.914062 352.574219v30.660156h-132.597656c-1.128906 0-2.042968.914063-2.042968 2.042969v106.742187c-10.617188-4.527343-20.859376-9.761719-30.660157-15.652343v-45.101563c0-1.128906-.914062-2.042969-2.042969-2.042969h-55.183593c-1.472657-1.628906-2.917969-3.28125-4.347657-4.949218v-25.710938h59.53125c1.128907 0 2.042969-.914062 2.042969-2.042969v-159.425781c0-1.128906-.914062-2.042969-2.042969-2.042969h-59.53125v-30.660156h59.53125c1.128907 0 2.042969-.914063 2.042969-2.042969v-50.074218h30.660157v198.257812c0 1.128906.914062 2.042969 2.042968 2.042969zm0 0" fill="#fdf385"/><path d="m286.914062 167.601562v163.511719h-112.414062v-178.839843h97.085938c8.464843 0 15.328124 6.863281 15.328124 15.328124zm0 0" fill="#ade4ad"/><path d="m169.609375 437.277344-67.414063-109.878906c-20.230468-32.972657-15.207031-75.515626 12.148438-102.867188 32.660156-32.660156 85.609375-32.660156 118.269531 0 27.351563 27.351562 32.378907 69.894531 12.148438 102.867188l-67.417969 109.878906c-1.769531 2.886718-5.964844 2.886718-7.734375 0zm0 0" fill="#fd5757"/><path d="m186.21875 422.8125-58.542969-95.414062c-20.226562-32.972657-15.203125-75.515626 12.148438-102.867188 13.078125-13.082031 29.414062-20.917969 46.394531-23.519531 16.980469 2.601562 33.3125 10.4375 46.394531 23.519531 27.351563 27.351562 32.375 69.894531 12.144531 102.867188zm0 0" fill="#fd7a7a"/><path d="m173.476562 233.894531c-27.902343 0-50.523437 22.621094-50.523437 50.523438 0 27.902343 22.621094 50.523437 50.523437 50.523437 27.902344 0 50.523438-22.621094 50.523438-50.523437 0-27.902344-22.621094-50.523438-50.523438-50.523438zm0 71.574219c-11.625 0-21.050781-9.425781-21.050781-21.050781s9.425781-21.050781 21.050781-21.050781c11.628907 0 21.050782 9.421874 21.050782 21.050781 0 11.625-9.421875 21.050781-21.050782 21.050781zm0 0" fill="#f8b0b0"/></svg>