<svg height="512pt" viewBox="0 0 512 512" width="512pt" xmlns="http://www.w3.org/2000/svg"><path d="m0 261.621094c0-138.097656 111.804688-250.082032 249.832031-250.378906 138.695313-.296876 250.566407 111.023437 250.925781 249.714843.171876 65.886719-25.117187 125.859375-66.570312 170.65625-9.363281 10.113281-24.867188 11.675781-35.980469 3.53125-41.425781-30.363281-92.53125-48.296875-147.828125-48.296875-55.316406 0-106.4375 17.949219-147.871094 48.328125-11.046874 8.101563-26.496093 6.625-35.804687-3.425781-41.394531-44.660156-66.703125-104.433594-66.703125-170.128906zm0 0" fill="#b0dde9"/><path d="m434.332031 86.867188v344.589843c-13.402343 14.507813-28.492187 27.425781-44.964843 38.441407-39.761719 26.59375-238.214844 26.589843-277.976563-.003907-16.472656-11.015625-31.566406-23.933593-44.964844-38.4375v-344.589843c0-8.46875 6.863281-15.332032 15.332031-15.332032h337.246094c8.464844 0 15.328125 6.863282 15.328125 15.332032zm0 0" fill="#458fa4"/><path d="m434.332031 86.867188v344.589843c-13.402343 14.507813-28.492187 27.425781-44.964843 38.441407-39.761719 26.59375-238.214844 26.589843-277.976563-.003907-4.894531-3.269531-9.664063-6.710937-14.304687-10.308593v-372.71875c0-8.46875 6.863281-15.332032 15.328124-15.332032h306.589844c8.464844 0 15.328125 6.863282 15.328125 15.332032zm0 0" fill="#649eb0"/><path d="m389.367188 117.523438v352.375c-39.765626 26.589843-87.5625 42.101562-138.988282 42.101562-51.425781 0-99.222656-15.511719-138.984375-42.101562v-352.375c0-2.820313 2.285157-5.109376 5.109375-5.109376h267.75c2.824219 0 5.113282 2.289063 5.113282 5.109376zm0 0" fill="#fdf7bd"/><path d="m353.800781 180.289062v9.929688c0 1.128906-.914062 2.042969-2.042969 2.042969h-136.125c-1.128906 0-2.042968-.914063-2.042968-2.042969v-9.929688c0-1.125.914062-2.042968 2.042968-2.042968h136.125c1.128907 0 2.042969.917968 2.042969 2.042968zm-138.167969 37.667969h98.75c1.128907 0 2.042969-.914062 2.042969-2.042969v-9.929687c0-1.128906-.914062-2.042969-2.042969-2.042969h-98.75c-1.128906 0-2.042968.914063-2.042968 2.042969v9.929687c0 1.128907.914062 2.042969 2.042968 2.042969zm-37.828124-45.0625c7.242187 7.242188 8.570312 18.507813 3.214843 27.234375l-14.515625 23.664063c-1.996094 3.25-6.71875 3.25-8.710937 0l-14.519531-23.664063c-5.355469-8.726562-4.027344-19.992187 3.214843-27.234375 8.648438-8.648437 22.667969-8.648437 31.316407 0zm-3.648438 15.65625c0-6.632812-5.378906-12.007812-12.007812-12.007812-6.632813 0-12.011719 5.375-12.011719 12.007812 0 6.632813 5.378906 12.007813 12.011719 12.007813 6.628906 0 12.007812-5.375 12.007812-12.007813zm177.601562 68.554688h-136.125c-1.128906 0-2.042968.917969-2.042968 2.046875v9.925781c0 1.128906.914062 2.042969 2.042968 2.042969h136.125c1.128907 0 2.042969-.914063 2.042969-2.042969v-9.925781c0-1.128906-.914062-2.046875-2.042969-2.046875zm-136.125 39.710937h98.75c1.128907 0 2.042969-.914062 2.042969-2.042968v-9.925782c0-1.132812-.914062-2.046875-2.042969-2.046875h-98.75c-1.128906 0-2.042968.914063-2.042968 2.046875v9.925782c0 1.128906.914062 2.042968 2.042968 2.042968zm-37.828124-45.0625c7.242187 7.242188 8.570312 18.507813 3.214843 27.238282l-14.515625 23.660156c-1.996094 3.25-6.71875 3.25-8.710937 0l-14.519531-23.660156c-5.355469-8.730469-4.027344-19.996094 3.214843-27.238282 8.648438-8.644531 22.667969-8.644531 31.316407 0zm-3.648438 15.65625c0-6.628906-5.378906-12.007812-12.007812-12.007812-6.632813 0-12.011719 5.378906-12.011719 12.007812 0 6.632813 5.378906 12.007813 12.011719 12.007813 6.628906 0 12.007812-5.375 12.007812-12.007813zm140.226562 97.148438h-98.75c-1.128906 0-2.042968.914062-2.042968 2.042968v9.929688c0 1.128906.914062 2.042969 2.042968 2.042969h98.75c1.128907 0 2.042969-.914063 2.042969-2.042969v-9.929688c0-1.128906-.914062-2.042968-2.042969-2.042968zm37.375-25.695313h-136.125c-1.128906 0-2.042968.914063-2.042968 2.042969v9.929688c0 1.125.914062 2.042968 2.042968 2.042968h136.125c1.128907 0 2.042969-.917968 2.042969-2.042968v-9.929688c0-1.128906-.914062-2.042969-2.042969-2.042969zm-173.953124-5.351562c7.242187 7.242187 8.570312 18.507812 3.214843 27.234375l-14.515625 23.664062c-1.996094 3.25-6.71875 3.25-8.710937 0l-14.519531-23.664062c-5.355469-8.726563-4.027344-19.992188 3.214843-27.234375 8.648438-8.648438 22.667969-8.648438 31.316407 0zm-3.648438 15.65625c0-6.632813-5.378906-12.007813-12.007812-12.007813-6.632813 0-12.011719 5.375-12.011719 12.007813 0 6.632812 5.378906 12.007812 12.011719 12.007812 6.628906 0 12.007812-5.375 12.007812-12.007812zm-32.105469 90.273437c-5.644531 0-10.21875 4.574219-10.21875 10.21875 0 5.644532 4.574219 10.21875 10.21875 10.21875s10.21875-4.574218 10.21875-10.21875c0-5.644531-4.574219-10.21875-10.21875-10.21875zm30.660157 0c-5.644532 0-10.21875 4.574219-10.21875 10.21875 0 5.644532 4.574218 10.21875 10.21875 10.21875 5.644531 0 10.21875-4.574218 10.21875-10.21875 0-5.644531-4.574219-10.21875-10.21875-10.21875zm32.957031 0c-5.644531 0-10.21875 4.574219-10.21875 10.21875 0 5.644532 4.574219 10.21875 10.21875 10.21875s10.21875-4.574218 10.21875-10.21875c0-5.644531-4.574219-10.21875-10.21875-10.21875zm0 0" fill="#f9d19a"/><path d="m348.488281 76.648438h-196.21875c-9.859375 0-17.882812 8.023437-17.882812 17.882812v20.4375c0 15.5 12.605469 28.105469 28.105469 28.105469h175.773437c15.5 0 28.105469-12.605469 28.105469-28.105469v-20.4375c0-9.859375-8.023438-17.882812-17.882813-17.882812zm2.554688 38.320312c0 7.046875-5.730469 12.777344-12.777344 12.777344h-175.773437c-7.046876 0-12.777344-5.730469-12.777344-12.777344v-20.4375c0-1.410156 1.148437-2.554688 2.554687-2.554688h196.21875c1.40625 0 2.554688 1.144532 2.554688 2.554688zm0 0" fill="#235967"/><path d="m317.828125 61.316406v40.878906c0 5.644532-4.574219 10.21875-10.21875 10.21875h-114.460937c-5.644532 0-10.21875-4.574218-10.21875-10.21875v-40.878906c0-5.644531 4.574218-10.21875 10.21875-10.21875h30.660156v-24.527344c0-14.671874 11.894531-26.570312 26.570312-26.570312 14.675782 0 26.570313 11.898438 26.570313 26.570312v24.527344h30.660156c5.644531 0 10.21875 4.574219 10.21875 10.21875zm0 0" fill="#f4aa39"/><path d="m317.828125 61.316406v40.878906c0 5.644532-4.574219 10.21875-10.21875 10.21875h-94.019531c-5.644532 0-10.21875-4.574218-10.21875-10.21875v-23.316406c0-6.875 5.574218-12.453125 12.453125-12.453125h41.199219c4.308593 0 7.789062-3.558593 7.660156-7.898437-.125-4.195313-3.785156-7.429688-7.984375-7.429688-6.875 0-12.453125-5.574218-12.453125-12.453125v-12.074219c0-11.050781 6.75-20.527343 16.351562-24.53125 9.601563 4.003907 16.351563 13.480469 16.351563 24.53125v24.527344h30.660156c5.644531 0 10.21875 4.574219 10.21875 10.21875zm0 0" fill="#f5b65d"/><path d="m265.707031 25.550781c0 8.464844-6.863281 15.328125-15.328125 15.328125s-15.328125-6.863281-15.328125-15.328125c0-8.46875 6.863281-15.332031 15.328125-15.332031s15.328125 6.863281 15.328125 15.332031zm0 0" fill="#d98800"/><path d="m278.980469 399.28125 12.957031 27.785156c2.386719 5.117188.171875 11.195313-4.945312 13.582032l-33.0625 15.417968c-2.601563 1.214844-5.496094 1.671875-8.347657 1.320313l-38.613281-4.742188c-2.25-.277343-3.433594-2.8125-2.199219-4.714843l21.1875-32.628907c1.5625-2.410156 3.773438-4.332031 6.378907-5.542969l33.0625-15.417968c5.117187-2.386719 11.195312-.171875 13.582031 4.941406zm0 0" fill="#f5b65d"/><path d="m204.769531 447.929688 7.894531-12.160157c3.390626 1.425781 6.285157 4.046875 7.960938 7.636719 1.675781 3.59375 1.820312 7.496094.734375 11.003906l-14.390625-1.765625c-2.25-.277343-3.433594-2.8125-2.199219-4.714843zm0 0" fill="#c98001"/><path d="m497.242188 342.609375-20.378907 9.5c-12.785156 5.964844-27.988281.429687-33.949219-12.355469-5.964843-12.789062-.429687-27.992187 12.355469-33.953125l20.378907-9.503906c12.785156-5.960937 27.988281-.429687 33.949218 12.359375 5.964844 12.789062.433594 27.988281-12.355468 33.953125zm0 0" fill="#faab90"/><path d="m447.6875 346.699219c1.1875-8.746094 6.949219-16.925781 15.953125-21.125l21.773437-10.152344c9.003907-4.199219 18.972657-3.355469 26.4375 1.355469 1.109376 10.546875-4.460937 21.097656-14.609374 25.832031l-20.378907 9.5c-10.148437 4.734375-21.8125 2.21875-29.175781-5.410156zm0 0" fill="#fbc0ad"/><path d="m459.902344 303.640625 21.59375 46.308594-222.289063 103.65625-21.59375-46.308594zm0 0" fill="#fd4343"/><path d="m468.972656 323.089844 12.523438 26.859375-222.289063 103.65625-12.523437-26.859375zm0 0" fill="#fd5757"/></svg>