<svg height="511pt" viewBox="-5 1 511 511.99974" width="511pt" xmlns="http://www.w3.org/2000/svg"><path d="m457.65625 367.902344h-413.375c-12.675781 0-24.035156-7.878906-28.417969-19.773438-9.933593-26.960937-15.363281-56.097656-15.363281-86.507812 0-138.28125 112.097656-250.378906 250.378906-250.378906 138.1875 0 250.65625 112.703124 250.378906 250.890624-.0625 30.363282-5.535156 59.453126-15.5 86.367188-4.335937 11.710938-15.613281 19.402344-28.101562 19.402344zm0 0" fill="#8ed0e1"/><path d="m142.550781 357.683594v-214.472656l168.625-122.632813 154.527344 112.382813c5.226563 8.710937 9.9375 17.765624 14.09375 27.121093v197.601563zm0 0" fill="#fdf7bd"/><path d="m314.132812.941406 180.199219 127.859375c3.703125 2.628907 5.90625 6.890625 5.90625 11.433594 0 11.378906-12.847656 18.015625-22.128906 11.429687l-166.933594-118.445312-166.933593 118.445312c-9.285157 6.585938-22.128907-.050781-22.128907-11.429687 0-4.542969 2.199219-8.804687 5.90625-11.433594l180.199219-127.859375c1.769531-1.253906 4.140625-1.253906 5.914062 0zm0 0" fill="#fd5757"/><path d="m432.789062 378.261719h-81.757812c-2.820312 0-5.109375-2.289063-5.109375-5.109375v-194.171875c0-2.820313 2.289063-5.109375 5.109375-5.109375h81.757812c2.820313 0 5.109376 2.289062 5.109376 5.109375v194.171875c0 2.820312-2.289063 5.109375-5.109376 5.109375zm0 0" fill="#fbc0ad"/><path d="m432.789062 378.261719h-61.320312c-2.820312 0-5.109375-2.289063-5.109375-5.109375v-194.171875c0-2.820313 2.289063-5.109375 5.109375-5.109375h61.320312c2.820313 0 5.109376 2.289062 5.109376 5.109375v194.171875c0 2.820312-2.289063 5.109375-5.109376 5.109375zm0 0" fill="#fdcbbb"/><path d="m453.226562 327.027344v40.875c0 5.644531-4.574218 10.222656-10.21875 10.222656h-102.195312c-5.644531 0-10.222656-4.578125-10.222656-10.222656v-40.875c0-5.644532 4.578125-10.222656 10.222656-10.222656h102.195312c5.644532 0 10.21875 4.578124 10.21875 10.222656zm0 0" fill="#faab90"/><path d="m381.691406 265.847656h-35.769531v-10.222656h35.769531c2.820313 0 5.109375 2.289062 5.109375 5.113281 0 2.820313-2.289062 5.109375-5.109375 5.109375zm0 0" fill="#f58057"/><path d="m486.152344 347.464844c-27.953125 76.589844-92.238282 135.695312-171.996094 156.464844-9.261719 2.414062-18.3125-4.582032-18.3125-14.15625 0-50.375-40.835938-91.210938-91.210938-91.210938h-148.105468c-9.742188 0-18.800782-5.167969-23.605469-13.640625-6.753906-11.914063-12.5625-24.429687-17.316406-37.457031zm0 0" fill="#49cb5c"/><path d="m316.285156 117.523438v195.5625c0 119.171874-130.929687 193.3125-232.183594 130.46875-9.59375-5.957032-17.566406-12.292969-23.304687-18.980469-11.066406-12.898438-20.839844-26.933594-29.128906-41.90625v-265.144531c0-8.464844 6.863281-15.328126 15.332031-15.328126h253.953125c8.46875 0 15.332031 6.863282 15.332031 15.328126zm0 0" fill="#328091"/><path d="m316.285156 117.523438v385.828124c-9.988281 2.695313-20.222656 4.792969-30.660156 6.246094-1.539062.214844-5.929688-.203125-12.492188-1.214844-122.023437-18.84375-211.828124-124.308593-211.828124-247.78125v-143.078124c0-8.464844 6.863281-15.328126 15.332031-15.328126h224.316406c8.46875 0 15.332031 6.863282 15.332031 15.328126zm0 0" fill="#458fa4"/><path d="m202.082031 136.941406h-56.207031c-4.234375 0-7.667969-3.429687-7.667969-7.664062s3.433594-7.664063 7.667969-7.664063h56.207031c4.230469 0 7.664063 3.429688 7.664063 7.664063s-3.433594 7.664062-7.664063 7.664062zm0 0" fill="#2b6c7e"/><path d="m287.414062 173.730469v335.609375c-11.925781 1.742187-24.125 2.660156-36.535156 2.660156-76.1875 0-144.417968-34.039062-190.339844-87.726562v-250.542969c0-8.464844 6.863282-15.328125 15.328126-15.328125h196.21875c8.464843 0 15.328124 6.863281 15.328124 15.328125zm0 0" fill="#fdf7bd"/><path d="m205.402344 475.210938v10.21875c0 2.820312-2.289063 5.109374-5.109375 5.109374h-50.953125c-2.097656-.933593-4.183594-1.886718-6.253906-2.875-.332032-.675781-.535157-1.429687-.535157-2.234374v-10.21875c0-2.824219 2.289063-5.113282 5.109375-5.113282h52.632813c2.820312 0 5.109375 2.289063 5.109375 5.113282zm19.671875-45.988282h-102.195313c-2.820312 0-5.109375 2.285156-5.109375 5.109375v10.21875c0 2.820313 2.289063 5.109375 5.109375 5.109375h102.195313c2.820312 0 5.109375-2.289062 5.109375-5.109375v-10.21875c0-2.824219-2.289063-5.109375-5.109375-5.109375zm0 0" fill="#f9d19a"/><path d="m244.046875 391.308594h-140.140625c-8.464844 0-15.328125-6.867188-15.328125-15.332032v-115.378906c0-8.464844 6.863281-15.328125 15.328125-15.328125h140.140625c8.464844 0 15.328125 6.863281 15.328125 15.328125v115.378906c0 8.464844-6.859375 15.332032-15.328125 15.332032zm0 0" fill="#f5b65d"/><path d="m244.046875 391.308594h-121.726563c-8.464843 0-15.328124-6.867188-15.328124-15.332032v-115.378906c0-8.464844 6.863281-15.328125 15.328124-15.328125h121.726563c8.46875 0 15.332031 6.863281 15.332031 15.328125v115.378906c-.003906 8.464844-6.863281 15.332032-15.332031 15.332032zm0 0" fill="#f7c37d"/><path d="m144.78125 300.328125-6.058594 3.253906c-.730468.390625-1.722656.613281-2.757812.613281-2.148438 0-3.894532-.9375-3.894532-2.09375v-56.832031h83.8125v56.832031c0 1.15625-1.742187 2.09375-3.894531 2.09375-1.035156 0-2.023437-.222656-2.757812-.613281l-6.054688-3.253906c-1.242187-.667969-3.25-.667969-4.492187 0l-4.347656 2.335937c-1.824219.976563-4.300782 1.527344-6.882813 1.527344s-5.054687-.550781-6.882813-1.527344l-4.347656-2.335937c-1.238281-.667969-3.25-.667969-4.488281 0l-4.351563 2.335937c-1.824218.976563-4.300781 1.527344-6.882812 1.527344-2.578125 0-5.054688-.550781-6.878906-1.527344l-4.351563-2.335937c-1.238281-.667969-3.25-.667969-4.488281 0zm-21.238281 58.929687v2.78125c0 5.644532-4.574219 10.21875-10.21875 10.21875h-2.78125c-5.644531 0-10.21875-4.574218-10.21875-10.21875v-2.78125c0-5.644531 4.574219-10.21875 10.21875-10.21875h2.78125c5.644531 0 10.21875 4.574219 10.21875 10.21875zm21.710937-10.21875h-2.78125c-5.644531 0-10.222656 4.574219-10.222656 10.21875v2.78125c0 5.644532 4.578125 10.21875 10.222656 10.21875h2.78125c5.644532 0 10.21875-4.574218 10.21875-10.21875v-2.78125c0-5.644531-4.574218-10.21875-10.21875-10.21875zm31.929688 0h-2.785156c-5.644532 0-10.21875 4.574219-10.21875 10.21875v2.78125c0 5.644532 4.574218 10.21875 10.21875 10.21875h2.785156c5.640625 0 10.21875-4.574218 10.21875-10.21875v-2.78125c0-5.644531-4.578125-10.21875-10.21875-10.21875zm0 0" fill="#ebae56"/><path d="m294.292969 162.492188v26.96875c0 13.324218-10.804688 24.128906-24.128907 24.128906-12.75 0-23.183593-9.894532-24.058593-22.421875-.875 12.527343-11.308594 22.421875-24.058594 22.421875-12.601563 0-22.941406-9.664063-24.027344-21.984375-1.085937 12.320312-11.425781 21.984375-24.023437 21.984375-12.828125 0-23.308594-10.007813-24.078125-22.640625-.769531 12.632812-11.25 22.640625-24.078125 22.640625-12.597656 0-22.9375-9.664063-24.023438-21.984375-1.089844 12.320312-11.425781 21.984375-24.027344 21.984375-13.324218 0-24.128906-10.804688-24.128906-24.128906v-26.96875c0-5.644532 4.578125-10.222657 10.222656-10.222657h220.191407c5.640625 0 10.21875 4.578125 10.21875 10.222657zm0 0" fill="#faab90"/><path d="m77.789062 213.589844c-13.324218 0-24.128906-10.804688-24.128906-24.128906v-26.96875c0-5.644532 4.578125-10.222657 10.222656-10.222657h38.03125v37.191407c0 13.324218-10.800781 24.128906-24.125 24.128906zm216.503907-24.128906v-26.96875c0-5.644532-4.578125-10.222657-10.222657-10.222657h-38.03125v37.191407c0 13.324218 10.800782 24.128906 24.125 24.128906 13.328126 0 24.128907-10.804688 24.128907-24.128906zm-96.171875 0v-37.191407h-48.253906v37.191407c0 13.324218 10.800781 24.128906 24.125 24.128906 13.328124 0 24.128906-10.804688 24.128906-24.128906zm0 0" fill="#fd4343"/><path d="m306.066406 403.671875c0 31.042969-25.167968 56.207031-56.210937 56.207031s-56.207031-25.164062-56.207031-56.207031 25.164062-56.207031 56.207031-56.207031 56.210937 25.164062 56.210937 56.207031zm0 0" fill="#fd5757"/><path d="m306.066406 403.671875c0 26.90625-18.914062 49.386719-44.164062 54.902344-25.253906-5.515625-44.164063-27.996094-44.164063-54.902344s18.914063-49.382813 44.164063-54.898437c25.25 5.515624 44.164062 27.992187 44.164062 54.898437zm0 0" fill="#fd7a7a"/><path d="m280.515625 403.671875c0 5.644531-4.574219 10.21875-10.21875 10.21875h-10.21875v10.222656c0 5.640625-4.578125 10.21875-10.222656 10.21875-5.640625 0-10.21875-4.578125-10.21875-10.21875v-10.222656h-10.21875c-5.644531 0-10.21875-4.574219-10.21875-10.21875s4.574219-10.21875 10.21875-10.21875h10.21875v-10.21875c0-5.644531 4.578125-10.21875 10.21875-10.21875 5.644531 0 10.222656 4.574219 10.222656 10.21875v10.21875h10.21875c5.644531 0 10.21875 4.574219 10.21875 10.21875zm0 0" fill="#fff5f5"/></svg>