<svg height="512pt" viewBox="0 -5 512 511" width="512pt" xmlns="http://www.w3.org/2000/svg"><path d="m11 256.5c0-135.140625 109.417969-244.726562 244.496094-245 134.859375-.269531 245.222656 109.617188 245.503906 244.480469.140625 67.660156-27.15625 128.9375-71.375 173.355469-3.363281 3.382812-8.285156 4.695312-12.867188 3.359374-48.941406-14.25-103.386718-22.195312-160.757812-22.195312s-111.816406 7.945312-160.757812 22.195312c-4.523438 1.316407-9.425782.09375-12.753907-3.242187-44.171875-44.3125-71.488281-105.441406-71.488281-172.953125zm0 0" fill="#69c3da"/><path d="m431 245.5v182.441406c-44.46875 45.386719-106.441406 73.558594-175 73.558594s-130.53125-28.175781-175-73.558594v-156.078125l-61.269531 36.757813c-8.683594 5.214844-19.730469-1.042969-19.730469-11.171875 0-4.363281 2.1875-8.4375 5.824219-10.851563l81.59375-53.386718c.191406-.136719.800781-.515626.800781-.515626 2.269531-1.382812 4.929688-2.195312 7.78125-2.195312h320c8.285156 0 15 6.714844 15 15zm0 0" fill="#f5b65d"/><path d="m512 297.449219c0 10.128906-11.046875 16.382812-19.730469 11.171875l-61.269531-36.757813v156.078125c-44.46875 45.386719-106.441406 73.558594-175 73.558594-54.710938 0-105.222656-17.9375-146-48.242188v-207.757812c0-8.285156 6.714844-15 15-15h291c2.855469 0 5.503906.785156 7.773438 2.167969l.234374.148437c.199219.125.378907.242188.570313.378906l81.597656 53.402344c3.636719 2.414063 5.824219 6.488282 5.824219 10.851563zm0 0" fill="#f7c37d"/><path d="m186.855469 450.5v16.570312c0 5.523438-4.476563 10-10 10h-16.570313c-5.523437 0-10-4.476562-10-10v-16.570312c0-5.523438 4.476563-10 10-10h16.570313c5.523437 0 10 4.476562 10 10zm-60.285157-10h-16.570312c-3.984375 0-7.417969 2.332031-9.023438 5.707031 4.824219 3.945313 9.792969 7.722657 14.914063 11.296875 6.503906 4.539063 13.238281 8.773438 20.179687 12.679688.320313-.976563.5-2.027344.5-3.113282v-16.570312c0-5.523438-4.476562-10-10-10zm100.574219 0h-16.574219c-5.519531 0-10 4.476562-10 10v16.570312c0 5.523438 4.480469 10 10 10h16.574219c5.519531 0 10-4.476562 10-10v-16.570312c0-5.523438-4.480469-10-10-10zm0 0" fill="#dca050"/><path d="m94.859375 230.542969c.375-.027344.757813-.042969 1.140625-.042969h320 .164062c7.417969.078125 12.578126 7.460938 10.429688 14.5625l-33.371094 110.28125c-1.914062 6.328125-7.746094 10.65625-14.355468 10.65625h-247.574219c-6.6875 0-12.566407-4.425781-14.414063-10.851562l-31.734375-110.246094c-1.945312-6.765625 2.691407-13.832032 9.714844-14.359375zm0 0" fill="#fff2b4"/><path d="m338.328125 102.574219-78.457031 96.085937c-2 2.453125-5.742188 2.453125-7.742188 0l-78.457031-96.085937c-2.667969-3.265625-.34375-8.164063 3.871094-8.164063h38.457031v-78.910156c0-8.285156 6.714844-15 15-15h50c8.285156 0 15 6.714844 15 15v78.910156h38.457031c4.214844 0 6.539063 4.898438 3.871094 8.164063zm0 0" fill="#fcf498"/><path d="m338.328125 102.574219-67.0625 82.132812-54.734375-67.035156c-1.066406-1.308594-.136719-3.265625 1.546875-3.265625h9.453125c5.523438 0 10-4.476562 10-10v-88.90625c0-8.285156 6.71875-15 15-15h28.46875c8.285156 0 15 6.714844 15 15v78.910156h38.457031c4.214844 0 6.539063 4.898438 3.871094 8.164063zm0 0" fill="#fdf7bd"/></svg>