<svg height="511pt" viewBox="-5 0 511 511.99958" width="511pt" xmlns="http://www.w3.org/2000/svg"><path d="m.5 261.621094c0-138.097656 111.800781-250.082032 249.828125-250.378906 138.554687-.296876 250.375 110.800781 250.929687 249.351562.273438 68.601562-27.050781 130.808594-71.496093 176.1875-6.789063 6.933594-17.691407 7.601562-25.351563 1.644531-42.394531-32.964843-95.664062-52.605469-153.53125-52.605469-57.867187 0-111.136718 19.640626-153.535156 52.609376-7.707031 5.992187-18.628906 5.21875-25.457031-1.761719-44.160157-45.140625-71.386719-106.910157-71.386719-175.046875zm0 0" fill="#fd5757"/><path d="m429.722656 25.550781v411.273438c-45.445312 46.382812-108.777344 75.175781-178.84375 75.175781s-133.398437-28.792969-178.84375-75.175781v-411.273438c0-14.683593 12.347656-26.347656 27.007813-25.5078122l35.230469 2.0117192c77.671874 4.4375 155.535156 4.4375 233.210937 0l35.230469-2.0117192c14.660156-.8398438 27.007812 10.8242192 27.007812 25.5078122zm0 0" fill="#f5b65d"/><path d="m250.878906 121.800781c69.308594 0 132.25-21.054687 178.84375-55.339843v370.363281c-45.445312 46.382812-108.777344 75.175781-178.84375 75.175781-51.425781 0-99.222656-15.511719-138.984375-42.101562v-371.269532c0-3.734375 3.863281-6.183594 7.257813-4.632812 38.625 17.660156 83.640625 27.804687 131.726562 27.804687zm151.835938-121.7578122-35.234375 2.0117192c-77.671875 4.4375-155.535157 4.4375-233.207031 0l-17.71875-1.011719c-2.933594 4.316406-4.660157 9.582031-4.660157 15.292969v39.832031c0 6.792969 4.464844 12.773437 10.976563 14.707031 39.003906 11.574219 82.347656 18.027344 128.007812 18.027344 66.644532 0 128.351563-13.742188 178.84375-37.105469v-26.246094c0-14.683593-12.347656-26.347656-27.007812-25.5078122zm0 0" fill="#f7c37d"/><path d="m247.265625 213.242188-6.8125 6.8125c-1.667969 1.667968-3.644531 3.027343-5.867187 3.824218-5.921876 2.132813-12.269532.566406-16.472657-3.636718l-7-7c-1.996093-1.996094-5.230469-1.996094-7.226562 0l-9.59375 9.59375c-1.0625 1.0625-2.4375 1.808593-3.933594 1.960937-3.757813.382813-6.929687-2.558594-6.929687-6.238281v-214.269532c0-.574218.476562-1.035156 1.054687-1.019531 44.25 1.4375 88.539063 1.4375 132.792969 0 .574218-.015625 1.050781.445313 1.050781 1.019531v214.046876c0 2.699218-1.605469 5.230468-4.152344 6.128906-2.359375.832031-4.878906.203125-6.550781-1.472656l-9.753906-9.75c-1.996094-1.996094-5.230469-1.996094-7.226563 0l-6.808593 6.8125c-1.667969 1.667968-3.648438 3.027343-5.867188 3.824218-5.925781 2.132813-12.273438.566406-16.476562-3.636718l-7-7c-1.996094-1.996094-5.230469-1.996094-7.226563 0zm0 0" fill="#fdf7bd"/><path d="m203.101562 147.875h100.917969c1.128907 0 2.046875.914062 2.046875 2.042969v11.242187c0 1.128906-.917968 2.042969-2.046875 2.042969h-100.917969c-1.128906 0-2.042968-.914063-2.042968-2.042969v-11.242187c0-1.128907.914062-2.042969 2.042968-2.042969zm-2.042968 30.144531v11.242188c0 1.128906.914062 2.046875 2.042968 2.046875h60.039063c1.132813 0 2.046875-.917969 2.046875-2.046875v-11.242188c0-1.128906-.914062-2.042969-2.046875-2.042969h-60.039063c-1.128906 0-2.042968.914063-2.042968 2.042969zm0 0" fill="#f9d19a"/><path d="m244.492188 70.714844v16.351562c0 1.128906-.917969 2.042969-2.042969 2.042969h-11.242188c-1.128906 0-2.042969-.914063-2.042969-2.042969v-16.351562c0-1.128906.914063-2.042969 2.042969-2.042969h11.242188c1.128906 0 2.042969.914063 2.042969 2.042969zm-2.042969 28.617187h-11.242188c-1.128906 0-2.042969.914063-2.042969 2.042969v26.570312c0 1.128907.914063 2.042969 2.042969 2.042969h11.242188c1.125 0 2.042969-.914062 2.042969-2.042969v-26.570312c0-1.128906-.914063-2.042969-2.042969-2.042969zm-28.105469-30.660156h-11.242188c-1.128906 0-2.042968.914063-2.042968 2.042969v57.230468c0 1.128907.914062 2.042969 2.042968 2.042969h11.242188c1.128906 0 2.042969-.914062 2.042969-2.042969v-57.230468c0-1.128906-.914063-2.042969-2.042969-2.042969zm84.3125 51.097656h-11.242188c-1.128906 0-2.042968.914063-2.042968 2.042969v6.132812c0 1.128907.914062 2.042969 2.042968 2.042969h11.242188c1.128906 0 2.042969-.914062 2.042969-2.042969v-6.132812c0-1.128906-.914063-2.042969-2.042969-2.042969zm-28.105469-51.097656h-11.242187c-1.125 0-2.042969.914063-2.042969 2.042969v57.230468c0 1.128907.917969 2.042969 2.042969 2.042969h11.242187c1.128907 0 2.042969-.914062 2.042969-2.042969v-57.230468c0-1.128906-.914062-2.042969-2.042969-2.042969zm28.105469 0h-11.242188c-1.128906 0-2.042968.914063-2.042968 2.042969v36.792968c0 1.128907.914062 2.042969 2.042968 2.042969h11.242188c1.128906 0 2.042969-.914062 2.042969-2.042969v-36.792968c0-1.128906-.914063-2.042969-2.042969-2.042969zm0 0" fill="#7a8c98"/></svg>