<svg height="511pt" viewBox="-5 1 511 511.99923" width="511pt" xmlns="http://www.w3.org/2000/svg"><path d="m501.257812 261.621094c0 138.28125-112.097656 250.378906-250.378906 250.378906s-250.378906-112.097656-250.378906-250.378906 112.097656-250.378906 250.378906-250.378906 250.378906 112.097656 250.378906 250.378906zm0 0" fill="#fdf061"/><path d="m242.992188 483.660156-137.433594-224.007812c-41.242188-67.21875-31-153.949219 24.761718-209.714844 66.582032-66.582031 174.535157-66.582031 241.117188 0 55.761719 55.765625 66.003906 142.496094 24.761719 209.714844l-137.433594 224.007812c-3.609375 5.882813-12.164063 5.882813-15.773437 0zm0 0" fill="#56bcd6"/><path d="m276.855469 454.175781-119.347657-194.523437c-41.242187-67.21875-31-153.949219 24.765626-209.714844 26.664062-26.664062 59.960937-42.640625 94.582031-47.949219 34.617187 5.308594 67.917969 21.285157 94.582031 47.949219 55.761719 55.765625 66.003906 142.496094 24.761719 209.714844zm0 0" fill="#69c3da"/><path d="m250.878906 49.394531c-67.730468 0-122.636718 54.90625-122.636718 122.632813 0 67.730468 54.90625 122.636718 122.636718 122.636718 67.730469 0 122.632813-54.90625 122.632813-122.636718 0-67.726563-54.902344-122.632813-122.632813-122.632813zm0 204.390625c-45.152344 0-81.757812-36.605468-81.757812-81.757812s36.605468-81.753906 81.757812-81.753906 81.757813 36.601562 81.757813 81.753906-36.605469 81.757812-81.757813 81.757812zm51.097656-81.757812c0 28.222656-22.878906 51.097656-51.097656 51.097656s-51.097656-22.875-51.097656-51.097656c0-28.21875 22.878906-51.097656 51.097656-51.097656s51.097656 22.878906 51.097656 51.097656zm0 0" fill="#17b0ce"/></svg>