<svg height="512pt" viewBox="0 0 512.00024 512" width="512pt" xmlns="http://www.w3.org/2000/svg"><path d="m500.757812 261.625c0 138.277344-112.097656 250.375-250.378906 250.375-45.589844 0-88.332031-12.183594-125.152344-33.472656-29.332031-16.960938-54.835937-39.714844-75.089843-66.675782-20.863281-27.773437-36.15625-60.011718-44.035157-95.039062-3.996093-17.757812-6.101562-36.226562-6.101562-55.1875 0-138.277344 112.097656-250.375 250.378906-250.375s250.378906 112.097656 250.378906 250.375zm0 0" fill="#17b0ce"/><path d="m448.640625 260.601562c0 8.46875-6.867187 15.332032-15.332031 15.332032h-102.195313c-8.464843 0-15.328125-6.863282-15.328125-15.332032 0-8.464843 6.863282-15.328124 15.328125-15.328124h102.195313c8.464844 0 15.332031 6.863281 15.332031 15.328124zm-255.492187 20.441407c0-8.464844-6.863282-15.332031-15.328126-15.332031h-97.085937c-5.644531 0-10.21875-4.574219-10.21875-10.21875 0-5.644532 4.574219-10.21875 10.21875-10.21875h5.109375c8.464844 0 15.328125-6.863282 15.328125-15.328126 0-8.46875-6.863281-15.332031-15.328125-15.332031h-81.4375c-1.90625 10.023438-3.210938 20.253907-3.882812 30.660157h39.332031c5.644531 0 10.21875 4.574218 10.21875 10.21875 0 5.644531-4.574219 10.21875-10.21875 10.21875h-15.328125c-8.464844 0-15.328125 6.863281-15.328125 15.332031 0 8.464843 6.863281 15.328125 15.328125 15.328125h153.292968c8.464844 0 15.328126-6.863282 15.328126-15.328125zm45.988281-219.71875c-8.464844 0-15.328125 6.863281-15.328125 15.332031 0 8.464844 6.863281 15.328125 15.328125 15.328125h132.855469c8.464843 0 15.328124-6.863281 15.328124-15.328125 0-8.46875-6.863281-15.332031-15.328124-15.332031zm112.417969 347.460937h-224.832032c-8.464844 0-15.328125 6.863282-15.328125 15.328125 0 8.464844 6.863281 15.328125 15.328125 15.328125h97.085938c5.644531 0 10.21875 4.578125 10.21875 10.222656 0 5.644532-4.574219 10.21875-10.21875 10.21875h-5.109375c-8.464844 0-15.328125 6.863282-15.328125 15.328126 0 8.464843 6.863281 15.332031 15.328125 15.332031h102.195312c8.464844 0 15.328125-6.867188 15.328125-15.332031 0-8.464844-6.863281-15.328126-15.328125-15.328126h-56.207031c-5.644531 0-10.21875-4.574218-10.21875-10.21875 0-5.644531 4.574219-10.222656 10.21875-10.222656h86.867188c8.464843 0 15.328124-6.863281 15.328124-15.328125 0-8.464843-6.863281-15.328125-15.328124-15.328125zm140.015624-214.605468h-48.042968c-8.464844 0-15.328125 6.863281-15.328125 15.328124 0 8.464844 6.863281 15.328126 15.328125 15.328126h54.546875c-1.539063-10.445313-3.71875-20.675782-6.503907-30.65625zm-441.496093-25.550782c0 8.464844 6.863281 15.328125 15.332031 15.328125h81.753906c8.46875 0 15.332032-6.863281 15.332032-15.328125s-6.863282-15.328125-15.332032-15.328125h-81.753906c-8.46875 0-15.332031 6.863281-15.332031 15.328125zm87.921875-130.800781c2.558594 1.90625 5.730468 3.058594 9.164062 3.058594h112.417969c8.464844 0 15.328125-6.863281 15.328125-15.328125 0-6.078125-3.585938-11.339844-8.714844-13.816406-5.242187-.328126-10.484375-.492188-15.8125-.492188-40.40625 0-78.589844 9.578125-112.382812 26.578125zm0 0" fill="#56bcd6"/><path d="m188.289062 92.476562-36.132812 36.128907c-7.980469 7.984375-20.921875 7.984375-28.902344 0-7.980468-7.980469-7.980468-20.921875 0-28.902344l36.128906-36.132813c7.984376-7.980468 20.925782-7.980468 28.90625 0 7.980469 7.984376 7.980469 20.925782 0 28.90625zm43.359376 14.453126c-7.984376-7.984376-20.925782-7.984376-28.90625 0l-36.132813 36.128906c-7.980469 7.984375-7.980469 20.925781 0 28.90625 7.984375 7.980468 20.925781 7.980468 28.90625 0l36.132813-36.132813c7.980468-7.980469 7.980468-20.921875 0-28.902343zm173.429687 173.429687c-7.980469-7.984375-20.921875-7.984375-28.902344 0l-36.132812 36.128906c-7.984375 7.980469-7.984375 20.921875 0 28.90625 7.980469 7.980469 20.921875 7.980469 28.90625 0l36.128906-36.132812c7.980469-7.980469 7.980469-20.921875 0-28.902344zm43.359375 43.355469c-7.984375-7.980469-20.925781-7.980469-28.90625 0l-36.132812 36.128906c-7.980469 7.984375-7.980469 20.925781 0 28.90625 7.984374 7.980469 20.925781 7.980469 28.90625 0l36.132812-36.132812c7.980469-7.980469 7.980469-20.921876 0-28.902344zm0 0" fill="#328091"/><path d="m45.347656 371.972656 110.90625-110.902344c-61.835937-76.28125-99.980468-159.972656-111.214844-236.285156-3.027343-20.578125 22.007813-33.085937 36.714844-18.378906l164.582032 164.582031 145.566406-145.5625c29.070312-29.070312 73.613281-33.203125 107.113281-12.445312 20.753906 33.496093 13.953125 77.011719-15.121094 106.085937 0 0-274.816406 276.902344-343.375 344.648438-9.1875 9.082031-99.75-87.164063-95.171875-91.742188zm0 0" fill="#c5d3dd"/><path d="m487.214844 466.953125c-76.3125-11.230469-159.992188-49.390625-236.277344-111.222656l-110.917969 110.914062c-4.578125 4.582031-9.5625 8.53125-14.808593 11.875-20.59375-11.910156-39.308594-26.679687-55.65625-43.746093l-.011719.011718c-.511719-.535156-1.015625-1.078125-1.523438-1.617187-.1875-.199219-.375-.398438-.5625-.597657-1.007812-1.078124-2.003906-2.164062-2.996093-3.257812-.039063-.046875-.082032-.089844-.121094-.136719-28.167969-31.253906-48.582032-69.632812-58.183594-112.113281l98.09375 39.683594c11.410156 4.617187 24.472656 1.960937 33.175781-6.742188l115.285157-115.28125c.324218-.324218.65625-.632812.984374-.949218.316407-.328126.625-.660157.949219-.984376l172.308594-172.304687c22.355469-22.355469 53.855469-29.945313 82.449219-22.832031 7.117187 28.59375-.476563 60.089844-22.832032 82.445312l-145.5625 145.5625 164.585938 164.582032c14.707031 14.707031 2.199219 39.738281-18.378906 36.710937zm0 0" fill="#d9e7ec"/><path d="m452.050781 96.089844-36.132812-36.132813c-7.980469-7.980469-7.980469-20.921875 0-28.902343 7.980469-7.984376 20.921875-7.984376 28.90625 0l36.128906 36.128906c7.980469 7.984375 7.980469 20.921875 0 28.90625-7.980469 7.980468-20.921875 7.980468-28.902344 0zm0 0" fill="#649eb0"/><path d="m452.050781 96.089844-15.175781-15.175782c-7.980469-7.980468-7.980469-20.921874 0-28.90625 7.980469-7.980468 20.921875-7.980468 28.90625 0l15.171875 15.175782c7.984375 7.984375 7.984375 20.921875 0 28.90625-7.980469 7.980468-20.921875 7.980468-28.902344 0zm0 0" fill="#7daebd"/></svg>