<svg height="511pt" viewBox="0 -5 511.99983 511" width="511pt" xmlns="http://www.w3.org/2000/svg"><path d="m500.75 253.078125c-.957031 110.617187-73.652344 204.113281-173.828125 236.242187-15.625 5.011719-31.578125-6.820312-31.578125-23.230468 0-105.316406-85.375-190.691406-190.695312-190.691406h-80.164063c-13.441406 0-24.4726562-10.835938-24.484375-24.277344 0-.082032 0-.167969 0-.25 0-138.277344 112.097656-250.371094 250.378906-250.371094 138.101563 0 251.5625 114.484375 250.371094 252.578125zm0 0" fill="#fd5757"/><path d="m0 250.871094c0-.453125.015625-.90625.015625-1.363282.1875-8.304687 6.964844-14.984374 15.3125-14.984374h296.367187c8.46875 0 15.332032 6.859374 15.332032 15.328124v239.128907c0 .101562-.015625.199219-.015625.300781-24.15625 7.757812-49.902344 11.964844-76.632813 11.964844-138.28125-.003906-250.378906-112.097656-250.378906-250.375zm0 0" fill="#f5b65d"/><path d="m327.027344 249.863281v239.132813c0 .101562-.015625.199218-.015625.300781-24.15625 7.757813-49.902344 11.960937-76.632813 11.960937-97.464844 0-181.917968-55.691406-223.28125-136.980468v-114.414063c0-8.464843 6.863282-15.328125 15.328125-15.328125h269.269531c8.46875 0 15.332032 6.863282 15.332032 15.328125zm0 0" fill="#f7c37d"/><path d="m169.789062 449.125v16.933594c0 5.644531-4.574218 10.222656-10.21875 10.222656h-16.933593c-.5625 0-1.113281-.058594-1.652344-.148438-1.828125-.886718-3.644531-1.800781-5.449219-2.734374-1.921875-1.855469-3.117187-4.457032-3.117187-7.339844v-16.933594c0-5.644531 4.574219-10.21875 10.21875-10.21875h16.933593c5.644532 0 10.21875 4.574219 10.21875 10.21875zm-61.609374-10.21875h-16.933594c-1.738282 0-3.375.4375-4.8125 1.203125 9.992187 8.664063 20.683594 16.554687 31.96875 23.566406v-14.550781c0-5.644531-4.578125-10.21875-10.222656-10.21875zm0 0" fill="#dca050"/><path d="m120.546875 385.382812-8.914063 8.914063c-1.074218 1.074219-2.535156 1.679687-4.054687 1.679687-3.164063 0-5.734375-2.566406-5.734375-5.734374v-155.722657h123.335938v155.722657c0 3.167968-2.566407 5.734374-5.730469 5.734374-1.523438 0-2.980469-.605468-4.054688-1.679687l-8.917969-8.914063c-1.824218-1.824218-4.78125-1.824218-6.605468 0l-6.398438 6.398438c-2.6875 2.6875-6.328125 4.195312-10.128906 4.195312-3.796875 0-7.441406-1.507812-10.128906-4.195312l-6.398438-6.398438c-1.824218-1.824218-4.78125-1.824218-6.605468 0l-6.402344 6.398438c-2.683594 2.6875-6.328125 4.195312-10.125 4.195312-3.800782 0-7.441406-1.507812-10.128906-4.195312l-6.398438-6.398438c-1.824219-1.824218-4.785156-1.824218-6.609375 0zm0 0" fill="#fdf7bd"/><path d="m120.007812 325.617188h91.917969c1.128907 0 2.042969.914062 2.042969 2.042968v9.929688c0 1.128906-.914062 2.042968-2.042969 2.042968h-91.917969c-1.128906 0-2.042968-.914062-2.042968-2.042968v-9.929688c0-1.125.914062-2.042968 2.042968-2.042968zm-2.042968 27.738281v9.925781c0 1.132812.914062 2.046875 2.042968 2.046875h54.542969c1.128907 0 2.042969-.914063 2.042969-2.046875v-9.925781c0-1.128907-.914062-2.042969-2.042969-2.042969h-54.542969c-1.128906 0-2.042968.914062-2.042968 2.042969zm0 0" fill="#f9d19a"/><path d="m131.976562 255.25v51.972656c0 1.128906-.914062 2.042969-2.042968 2.042969h-9.925782c-1.128906 0-2.042968-.914063-2.042968-2.042969v-51.972656c0-1.128906.914062-2.042969 2.042968-2.042969h9.925782c1.128906 0 2.042968.914063 2.042968 2.042969zm49.347657-2.042969h-9.925781c-1.128907 0-2.046876.914063-2.046876 2.042969v51.972656c0 1.128906.917969 2.042969 2.046876 2.042969h9.925781c1.128906 0 2.042969-.914063 2.042969-2.042969v-51.972656c0-1.128906-.914063-2.042969-2.042969-2.042969zm-25.695313 0h-9.925781c-1.128906 0-2.042969.914063-2.042969 2.042969v14.601562c0 1.128907.914063 2.042969 2.042969 2.042969h9.925781c1.128906 0 2.042969-.914062 2.042969-2.042969v-14.601562c0-1.128906-.914063-2.042969-2.042969-2.042969zm0 28.03125h-9.925781c-1.128906 0-2.042969.914063-2.042969 2.042969v23.941406c0 1.128906.914063 2.046875 2.042969 2.046875h9.925781c1.128906 0 2.042969-.917969 2.042969-2.046875v-23.941406c0-1.128906-.914063-2.042969-2.042969-2.042969zm51.390625-28.03125h-9.929687c-1.128906 0-2.042969.914063-2.042969 2.042969v33.285156c0 1.128906.914063 2.046875 2.042969 2.046875h9.929687c1.128907 0 2.042969-.917969 2.042969-2.046875v-33.285156c0-1.128906-.914062-2.042969-2.042969-2.042969zm0 46.71875h-9.929687c-1.128906 0-2.042969.914063-2.042969 2.042969v5.253906c0 1.128906.914063 2.046875 2.042969 2.046875h9.929687c1.128907 0 2.042969-.917969 2.042969-2.046875v-5.253906c0-1.128906-.914062-2.042969-2.042969-2.042969zm0 0" fill="#7a8c98"/><path d="m362.113281 2.34375 139.789063 50.828125c6.324218 2.300781 10.421875 8.460937 10.078125 15.179687-5.832031 113.558594-72.398438 206.910157-160.34375 231.792969-87.945313-24.882812-154.511719-118.234375-160.34375-231.792969-.34375-6.71875 3.753906-12.878906 10.078125-15.179687l139.789062-50.828125c6.769532-2.460938 14.183594-2.460938 20.953125 0zm0 0" fill="#73d37a"/><path d="m511.980469 68.351562c-4.199219 81.816407-39.933594 153.140626-92.46875 195.929688-103.867188-23.597656-183.183594-111.761719-193.523438-220.058594l115.171875-41.878906c6.769532-2.460938 14.183594-2.460938 20.953125 0l139.789063 50.828125c6.324218 2.300781 10.421875 8.460937 10.078125 15.179687zm0 0" fill="#8fdc91"/><path d="m351.636719 31.15625 128.917969 46.878906c-8.296876 89.953125-59.777344 165.839844-128.917969 189.972656-69.140625-24.132812-120.621094-100.015624-128.917969-189.972656zm0 0" fill="#ddf4ba"/><path d="m473.742188 86.953125-113.5625 124.5c-4.03125 4.417969-9.738282 6.9375-15.71875 6.9375-5.980469 0-11.683594-2.519531-15.714844-6.9375l-63.113282-69.191406c-7.917968-8.679688-7.300781-22.132813 1.378907-30.050781 8.679687-7.917969 22.136719-7.296876 30.050781 1.378906l47.398438 51.964844 97.847656-107.269532c7.917968-8.679687 21.375-9.296875 30.050781-1.382812 8.679687 7.917968 9.300781 21.371094 1.382813 30.050781zm0 0" fill="#49cb5c"/><path d="m358.230469 213.324219c-3.820313 3.246093-8.695313 5.066406-13.769531 5.066406-5.980469 0-11.683594-2.519531-15.714844-6.9375l-63.113282-69.191406c-7.917968-8.679688-7.300781-22.132813 1.378907-30.050781.425781-.386719.863281-.75 1.3125-1.09375.523437 4.210937 2.304687 8.308593 5.382812 11.683593l82.574219 88.652344c.613281.667969 1.265625 1.289063 1.949219 1.871094zm84.078125-155.039063-97.890625 107.082032c-3.578125 3.921874-3.535157 9.929687.089843 13.804687 4.058594 4.332031 10.945313 4.289063 14.945313-.097656l110.394531-120.789063c.613282-.675781 1.265625-1.296875 1.945313-1.871094-8.6875-7.390624-21.734375-6.625-29.484375 1.871094zm0 0" fill="#0cc33c"/></svg>