<svg height="511pt" viewBox="1 -10 511.999 511" width="511pt" xmlns="http://www.w3.org/2000/svg"><path d="m230 466.851562c0 12.664063-11.644531 22.097657-24.039062 19.523438-111.3125-23.101562-194.960938-121.714844-194.960938-239.875 0-135.140625 109.417969-244.726562 244.496094-245 133.589844-.269531 243.425781 107.582031 245.472656 241.15625.691406 45.046875-10.789062 87.351562-31.347656 123.859375-4.890625 8.6875-14.164063 13.984375-24.132813 13.984375h-129.136719c-47.691406 0-86.351562 38.660156-86.351562 86.351562zm0 0" fill="#b0dde9"/><path d="m106.089844 298.042969v38.457031h238.910156c8.285156 0 15 6.714844 15 15v50c0 8.285156-6.714844 15-15 15h-238.910156v38.457031c0 4.214844-4.898438 6.539063-8.164063 3.871094l-96.089843-78.457031c-2.449219-2-2.449219-5.742188 0-7.746094l96.089843-78.457031c3.265625-2.664063 8.164063-.339844 8.164063 3.875zm0 0" fill="#fd4343"/><path d="m106.089844 298.042969v38.457031h238.910156c8.285156 0 15 6.714844 15 15v28.464844c0 8.285156-6.714844 15-15 15h-248.90625c-5.523438 0-10 4.480468-10 10v9.457031c0 1.683594-1.960938 2.613281-3.265625 1.546875l-67.035156-54.734375 82.132812-67.066406c3.265625-2.664063 8.164063-.339844 8.164063 3.875zm0 0" fill="#fd5757"/><path d="m414.074219 34.167969 96.085937 78.457031c2.453125 2.003906 2.453125 5.746094 0 7.746094l-96.085937 78.457031c-3.269531 2.667969-8.164063.34375-8.164063-3.871094v-38.457031h-238.910156c-8.285156 0-15-6.714844-15-15v-50c0-8.285156 6.714844-15 15-15h238.910156v-38.457031c0-4.214844 4.894532-6.539063 8.164063-3.875zm0 0" fill="#0cc33c"/><path d="m414.074219 34.167969 82.132812 67.066406-67.035156 54.734375c-1.308594 1.066406-3.265625.136719-3.265625-1.546875v-9.457031c0-5.519532-4.476562-10-10-10h-248.90625c-8.285156 0-15-6.714844-15-15v-28.464844c0-8.285156 6.714844-15 15-15h238.910156v-38.457031c0-4.214844 4.894532-6.539063 8.164063-3.875zm0 0" fill="#49cb5c"/><path d="m256 491.5c-17.695312 0-34.945312-1.890625-51.574219-5.457031-2.140625-2.59375-3.425781-5.917969-3.425781-9.542969v-200c0-8.285156 6.714844-15 15-15h239c8.285156 0 15 6.714844 15 15v89.339844c-41.894531 74.964844-122.023438 125.660156-214 125.660156zm55-275v-200c0-8.285156-6.714844-15-15-15h-239c-8.285156 0-15 6.714844-15 15v200c0 8.285156 6.714844 15 15 15h239c8.285156 0 15-6.714844 15-15zm0 0" fill="#dca050"/><path d="m256 491.5c-4.890625 0-9.742188-.160156-14.558594-.441406-6.5625-1.601563-11.441406-7.503906-11.441406-14.558594v-200c0-8.285156 6.714844-15 15-15h210c8.285156 0 15 6.714844 15 15v89.339844c-41.894531 74.964844-122.023438 125.660156-214 125.660156zm55-275v-200c0-8.285156-6.714844-15-15-15h-210c-8.285156 0-15 6.714844-15 15v200c0 8.285156 6.714844 15 15 15h210c8.285156 0 15-6.714844 15-15zm0 0" fill="#ebae56"/><path d="m256.070312 434.929688v16.570312c0 5.523438-4.476562 10-10 10h-16.570312c-5.523438 0-10-4.476562-10-10v-16.570312c0-5.523438 4.476562-10 10-10h16.570312c5.523438 0 10 4.476562 10 10zm40.285157-10h-16.570313c-5.523437 0-10 4.476562-10 10v16.570312c0 5.523438 4.476563 10 10 10h16.570313c5.523437 0 10-4.476562 10-10v-16.570312c0-5.523438-4.476563-10-10-10zm50.285156 0h-16.570313c-5.523437 0-10 4.476562-10 10v16.570312c0 5.523438 4.476563 10 10 10h16.570313c5.523437 0 10-4.476562 10-10v-16.570312c0-5.523438-4.476563-10-10-10zm-249.570313-250v16.570312c0 5.523438-4.476562 10-10 10h-16.570312c-5.523438 0-10-4.476562-10-10v-16.570312c0-5.523438 4.476562-10 10-10h16.570312c5.523438 0 10 4.476562 10 10zm40.285157-10h-16.570313c-5.523437 0-10 4.476562-10 10v16.570312c0 5.523438 4.476563 10 10 10h16.570313c5.523437 0 10-4.476562 10-10v-16.570312c0-5.523438-4.476563-10-10-10zm50.285156 0h-16.570313c-5.523437 0-10 4.476562-10 10v16.570312c0 5.523438 4.476563 10 10 10h16.570313c5.523437 0 10-4.476562 10-10v-16.570312c0-5.523438-4.476563-10-10-10zm0 0" fill="#ce9047"/><path d="m289.515625 348.214844-9.542969 5.121094c-1.148437.621093-2.710937.964843-4.335937.964843-3.390625 0-6.136719-1.472656-6.136719-3.292969v-89.507812c0-.550781.449219-1 1-1h130c.550781 0 1 .449219 1 1v89.507812c0 1.820313-2.746094 3.292969-6.136719 3.292969-1.625 0-3.1875-.34375-4.339843-.964843l-9.539063-5.121094c-1.945313-1.046875-5.128906-1.046875-7.074219 0l-6.847656 3.675781c-2.875 1.542969-6.773438 2.410156-10.839844 2.410156-4.0625 0-7.964844-.867187-10.839844-2.410156l-6.847656-3.675781c-1.945312-1.046875-5.125-1.046875-7.070312 0l-6.847656 3.675781c-2.875 1.542969-6.777344 2.410156-10.839844 2.410156-4.066406 0-7.964844-.867187-10.839844-2.410156l-6.847656-3.675781c-1.949219-1.046875-5.128906-1.046875-7.074219 0zm-159-260-9.542969 5.121094c-1.148437.621093-2.710937.964843-4.335937.964843-3.390625 0-6.136719-1.472656-6.136719-3.292969v-89.507812c0-.550781.449219-1 1-1h130c.550781 0 1 .449219 1 1v89.507812c0 1.820313-2.746094 3.292969-6.136719 3.292969-1.625 0-3.1875-.34375-4.339843-.964843l-9.539063-5.121094c-1.945313-1.046875-5.128906-1.046875-7.074219 0l-6.847656 3.675781c-2.875 1.542969-6.773438 2.410156-10.839844 2.410156-4.0625 0-7.964844-.867187-10.839844-2.410156l-6.847656-3.675781c-1.945312-1.046875-5.125-1.046875-7.070312 0l-6.847656 3.675781c-2.875 1.542969-6.777344 2.410156-10.839844 2.410156-4.066406 0-7.964844-.867187-10.839844-2.410156l-6.847656-3.675781c-1.949219-1.046875-5.128906-1.046875-7.074219 0zm0 0" fill="#fdf7bd"/><path d="m289.8125 281.5h91.375c1.105469 0 2 .894531 2 2v11c0 1.105469-.894531 2-2 2h-91.375c-1.105469 0-2-.894531-2-2v-11c0-1.105469.894531-2 2-2zm-2 29.5v11c0 1.105469.894531 2 2 2h58.75c1.105469 0 2-.894531 2-2v-11c0-1.105469-.894531-2-2-2h-58.75c-1.105469 0-2 .894531-2 2zm-157-289.5h91.375c1.105469 0 2 .894531 2 2v11c0 1.105469-.894531 2-2 2h-91.375c-1.105469 0-2-.894531-2-2v-11c0-1.105469.894531-2 2-2zm-2 29.5v11c0 1.105469.894531 2 2 2h58.75c1.105469 0 2-.894531 2-2v-11c0-1.105469-.894531-2-2-2h-58.75c-1.105469 0-2 .894531-2 2zm0 0" fill="#f9d19a"/></svg>