<svg height="512pt" viewBox="0 -6 512 512" width="512pt" xmlns="http://www.w3.org/2000/svg"><path d="m500.757812 250.378906c0 138.28125-112.097656 250.378906-250.378906 250.378906s-250.378906-112.097656-250.378906-250.378906 112.097656-250.378906 250.378906-250.378906 250.378906 112.097656 250.378906 250.378906zm0 0" fill="#8ed0e1"/><path d="m285.101562 85.84375c0 8.464844-6.863281 15.328125-15.332031 15.328125h-143.074219c-8.464843 0-15.328124-6.863281-15.328124-15.328125s6.863281-15.328125 15.328124-15.328125h5.113282c5.640625 0 10.21875-4.578125 10.21875-10.21875 0-5.644531-4.578125-10.222656-10.21875-10.222656h-31.695313c16.363281-12.292969 34.292969-22.628907 53.421875-30.65625h34.480469c8.464844 0 15.328125 6.863281 15.328125 15.328125s-6.863281 15.328125-15.328125 15.328125h-15.332031c-5.644532 0-10.21875 4.578125-10.21875 10.222656 0 5.640625 4.574218 10.21875 10.21875 10.21875h97.085937c8.46875 0 15.332031 6.863281 15.332031 15.328125zm-86.867187 107.304688h-40.878906c-8.464844 0-15.328125 6.863281-15.328125 15.332031 0 8.464843 6.863281 15.328125 15.328125 15.328125h40.878906c8.464844 0 15.328125-6.863282 15.328125-15.328125 0-8.46875-6.863281-15.332031-15.328125-15.332031zm-35.769531-45.988282c0-8.464844-6.863282-15.328125-15.328125-15.328125h-91.976563c-8.464844 0-15.328125 6.863281-15.328125 15.328125 0 8.46875 6.863281 15.332032 15.328125 15.332032h91.976563c8.464843 0 15.328125-6.863282 15.328125-15.332032zm0 0" fill="#b0dde9"/><path d="m499.738281 157.382812v81.753907c0 8.46875-6.863281 15.332031-15.332031 15.332031h-143.074219c-8.464843 0-15.328125-6.863281-15.328125-15.332031v-81.753907c0-8.46875 6.863282-15.332031 15.328125-15.332031h143.074219c8.46875 0 15.332031 6.863281 15.332031 15.332031zm0 0" fill="#649eb0"/><path d="m387.320312 167.601562v71.535157c0 2.824219-2.289062 5.109375-5.109374 5.109375h-10.21875c-2.820313 0-5.109376-2.285156-5.109376-5.109375v-71.535157c0-2.824218 2.289063-5.109374 5.109376-5.109374h10.21875c2.820312 0 5.109374 2.285156 5.109374 5.109374zm76.648438-5.109374h-10.21875c-2.824219 0-5.109375 2.285156-5.109375 5.109374v71.535157c0 2.824219 2.285156 5.109375 5.109375 5.109375h10.21875c2.820312 0 5.109375-2.285156 5.109375-5.109375v-71.535157c0-2.824218-2.289063-5.109374-5.109375-5.109374zm-40.878906 0h-10.21875c-2.824219 0-5.109375 2.285156-5.109375 5.109374v71.535157c0 2.824219 2.285156 5.109375 5.109375 5.109375h10.21875c2.820312 0 5.109375-2.285156 5.109375-5.109375v-71.535157c0-2.824218-2.289063-5.109374-5.109375-5.109374zm0 0" fill="#328091"/><path d="m428.199219 44.964844v81.757812c0 8.464844-6.863281 15.328125-15.328125 15.328125h-143.074219c-8.464844 0-15.328125-6.863281-15.328125-15.328125v-81.757812c0-8.464844 6.863281-15.328125 15.328125-15.328125h143.074219c8.464844 0 15.328125 6.863281 15.328125 15.328125zm0 0" fill="#e8ce00"/><path d="m428.199219 44.964844v81.757812c0 8.464844-6.863281 15.328125-15.328125 15.328125h-122.636719c-8.464844 0-15.328125-6.863281-15.328125-15.328125v-81.757812c0-8.464844 6.863281-15.328125 15.328125-15.328125h122.636719c8.464844 0 15.328125 6.863281 15.328125 15.328125zm0 0" fill="#fded32"/><path d="m310.675781 121.613281h-10.21875c-2.824219 0-5.113281-2.289062-5.113281-5.109375v-61.316406c0-2.824219 2.289062-5.113281 5.113281-5.113281h10.21875c2.820313 0 5.109375 2.289062 5.109375 5.113281v61.316406c0 2.820313-2.289062 5.109375-5.109375 5.109375zm45.988281-5.109375v-61.316406c0-2.824219-2.289062-5.113281-5.109374-5.113281h-10.222657c-2.820312 0-5.109375 2.289062-5.109375 5.113281v61.316406c0 2.820313 2.289063 5.109375 5.109375 5.109375h10.222657c2.820312 0 5.109374-2.289062 5.109374-5.109375zm40.875 0v-61.316406c0-2.824219-2.285156-5.113281-5.109374-5.113281h-10.21875c-2.820313 0-5.109376 2.289062-5.109376 5.113281v61.316406c0 2.820313 2.289063 5.109375 5.109376 5.109375h10.21875c2.824218 0 5.109374-2.289062 5.109374-5.109375zm0 0" fill="#d6bf01"/><path d="m356.664062 157.382812v81.753907c0 8.46875-6.863281 15.332031-15.332031 15.332031h-143.074219c-8.464843 0-15.328124-6.863281-15.328124-15.332031v-81.753907c0-8.46875 6.863281-15.332031 15.328124-15.332031h143.074219c8.46875 0 15.332031 6.863281 15.332031 15.332031zm0 0" fill="#07b128"/><path d="m356.664062 157.382812v81.753907c0 8.46875-6.863281 15.332031-15.332031 15.332031h-122.632812c-8.464844 0-15.328125-6.863281-15.328125-15.332031v-81.753907c0-8.46875 6.863281-15.332031 15.328125-15.332031h122.632812c8.46875 0 15.332031 6.863281 15.332031 15.332031zm0 0" fill="#49cb5c"/><path d="m239.136719 244.246094h-10.21875c-2.820313 0-5.109375-2.285156-5.109375-5.109375v-71.535157c0-2.824218 2.289062-5.109374 5.109375-5.109374h10.21875c2.824219 0 5.109375 2.285156 5.109375 5.109374v71.535157c0 2.824219-2.285156 5.109375-5.109375 5.109375zm45.988281-5.109375v-71.535157c0-2.824218-2.289062-5.109374-5.109375-5.109374h-10.21875c-2.820313 0-5.109375 2.285156-5.109375 5.109374v71.535157c0 2.824219 2.289062 5.109375 5.109375 5.109375h10.21875c2.820313 0 5.109375-2.285156 5.109375-5.109375zm40.878906 0v-71.535157c0-2.824218-2.289062-5.109374-5.109375-5.109374h-10.21875c-2.824219 0-5.109375 2.285156-5.109375 5.109374v71.535157c0 2.824219 2.285156 5.109375 5.109375 5.109375h10.21875c2.820313 0 5.109375-2.285156 5.109375-5.109375zm0 0" fill="#07b128"/><path d="m121.613281 285.125h-72.3125c-27.535156 0-49.757812-22.753906-48.8125-50.273438.011719-.324218.023438-.597656.039063-.824218 2.371094-36.796875 12.699218-71.425782 29.269531-102.195313h48.589844c7.308593 0 13.597656 5.15625 15.03125 12.324219zm0 0" fill="#fdf7bd"/><path d="m103.21875 193.148438h-63.363281c-5.644531 0-10.21875-4.574219-10.21875-10.21875v-10.21875c0-5.644532 4.574219-10.21875 10.21875-10.21875h57.230469zm0 0" fill="#f9d19a"/><path d="m512 218.699219v35.769531c0 67.726562-54.90625 122.632812-122.632812 122.632812h-354.957032c-21.859375-37.171874-34.410156-80.480468-34.410156-126.722656 0-5.496094.175781-10.945312.523438-16.351562h334.96875l7.316406-20.484375c2.179687-6.101563 7.960937-10.171875 14.4375-10.171875h139.425781c8.464844 0 15.328125 6.863281 15.328125 15.328125zm0 0" fill="#fd5757"/><path d="m8.644531 315.785156h486.945313c-4.238282 7.328125-9.21875 14.171875-14.828125 20.4375h-465.640625c-2.441406-6.683594-4.601563-13.5-6.476563-20.4375zm0 0" fill="#fd7a7a"/><path d="m131.832031 274.90625c0 11.289062-9.148437 20.4375-20.4375 20.4375-11.289062 0-20.441406-9.148438-20.441406-20.4375s9.152344-20.4375 20.441406-20.4375c11.289063 0 20.4375 9.148438 20.4375 20.4375zm-81.757812-20.4375c-11.285157 0-20.4375 9.148438-20.4375 20.4375s9.152343 20.4375 20.4375 20.4375c11.289062 0 20.441406-9.148438 20.441406-20.4375s-9.152344-20.4375-20.441406-20.4375zm122.636719 0c-11.289063 0-20.441407 9.148438-20.441407 20.4375s9.152344 20.4375 20.441407 20.4375c11.289062 0 20.4375-9.148438 20.4375-20.4375s-9.148438-20.4375-20.4375-20.4375zm61.316406 0c-11.289063 0-20.4375 9.148438-20.4375 20.4375s9.148437 20.4375 20.4375 20.4375c11.289062 0 20.441406-9.148438 20.441406-20.4375s-9.152344-20.4375-20.441406-20.4375zm0 0" fill="#e12929"/><path d="m60.296875 274.90625c0 5.644531-4.578125 10.21875-10.222656 10.21875s-10.21875-4.574219-10.21875-10.21875 4.574219-10.21875 10.21875-10.21875 10.222656 4.574219 10.222656 10.21875zm51.097656-10.21875c-5.644531 0-10.222656 4.574219-10.222656 10.21875s4.578125 10.21875 10.222656 10.21875 10.21875-4.574219 10.21875-10.21875-4.574219-10.21875-10.21875-10.21875zm61.316407 0c-5.644532 0-10.21875 4.574219-10.21875 10.21875s4.574218 10.21875 10.21875 10.21875c5.644531 0 10.21875-4.574219 10.21875-10.21875s-4.574219-10.21875-10.21875-10.21875zm61.316406 0c-5.644532 0-10.21875 4.574219-10.21875 10.21875s4.574218 10.21875 10.21875 10.21875c5.644531 0 10.21875-4.574219 10.21875-10.21875s-4.574219-10.21875-10.21875-10.21875zm0 0" fill="#69c3da"/><path d="m478.476562 353.769531c-39.359374 86.695313-126.683593 146.988281-228.097656 146.988281-101.414062 0-188.738281-60.292968-228.097656-146.988281l13.371094 7.351563c12.15625 6.683594 26.886718 6.683594 39.039062 0 12.15625-6.683594 26.886719-6.683594 39.042969 0s26.882813 6.683594 39.039063 0 26.886718-6.683594 39.042968 0 26.882813 6.683594 39.039063 0 26.886719-6.683594 39.042969 0c12.152343 6.683594 26.882812 6.683594 39.039062 0s26.886719-6.683594 39.039062 0c12.15625 6.683594 26.886719 6.683594 39.042969 0s26.886719-6.683594 39.039063 0c12.15625 6.683594 26.886718 6.683594 39.042968 0zm0 0" fill="#69c3da"/><path d="m57.335938 409.835938c5.996093-.320313 11.933593-1.960938 17.359374-4.945313 12.15625-6.679687 26.882813-6.679687 39.039063 0 12.15625 6.683594 26.886719 6.683594 39.039063 0 12.15625-6.679687 26.886718-6.679687 39.042968 0 12.15625 6.683594 26.886719 6.683594 39.039063 0 12.15625-6.679687 26.886719-6.679687 39.042969 0 12.15625 6.683594 26.882812 6.683594 39.039062 0 12.15625-6.679687 26.886719-6.679687 39.042969 0 12.15625 6.683594 26.882812 6.683594 39.039062 0 12.15625-6.679687 26.886719-6.679687 39.042969 0 5.421875 2.984375 11.359375 4.625 17.355469 4.945313-9.101563 11.007812-19.140625 21.203124-29.96875 30.507812-8.929688-1.542969-18.261719-.085938-26.429688 4.40625-12.15625 6.679688-26.886719 6.679688-39.042969 0-12.15625-6.683594-26.882812-6.683594-39.039062 0-12.15625 6.679688-26.886719 6.679688-39.039062 0-12.15625-6.683594-26.886719-6.683594-39.042969 0-12.15625 6.679688-26.886719 6.679688-39.039063 0-12.15625-6.683594-26.886718-6.683594-39.042968 0-12.15625 6.679688-26.886719 6.679688-39.039063 0-8.171875-4.492188-17.5-5.953125-26.433594-4.40625-10.824219-9.304688-20.863281-19.503906-29.964843-30.507812zm0 0" fill="#17b0ce"/></svg>