<svg height="512pt" viewBox="0 0 512 512" width="512pt" xmlns="http://www.w3.org/2000/svg"><path d="m500.757812 261.621094c0 138.28125-112.097656 250.378906-250.378906 250.378906s-250.378906-112.097656-250.378906-250.378906 112.097656-250.378906 250.378906-250.378906 250.378906 112.097656 250.378906 250.378906zm0 0" fill="#8ed0e1"/><path d="m275.929688 256.511719v183.953125c0 11.285156-9.152344 20.4375-20.441407 20.4375h-156.710937c-17.964844-13.683594-34.019532-29.65625-47.679688-47.707032v-156.683593c0-11.289063 9.152344-20.441407 20.4375-20.441407h183.953125c11.289063 0 20.441407 9.152344 20.441407 20.441407zm0 0" fill="#328091"/><path d="m275.929688 256.511719v183.953125c0 11.285156-9.152344 20.4375-20.441407 20.4375h-155.335937c-.488282 0-.902344-.003906-1.375 0-.066406-.050782-.195313-.167969-.257813-.21875-11.613281-8.871094-18.335937-22.71875-18.410156-37.328125-.253906-49.820313-.398437-166.84375-.398437-166.84375 0-11.289063 9.152343-20.441407 20.441406-20.441407h155.335937c11.289063 0 20.441407 9.152344 20.441407 20.441407zm0 0" fill="#458fa4"/><path d="m237.09375 419.003906c0 5.640625-4.574219 10.21875-10.21875 10.21875h-135.921875c-5.644531 0-10.21875-4.578125-10.21875-10.21875 0-5.644531 4.574219-10.222656 10.21875-10.222656h14.304687v-81.753906h-16.308593c-3.785157 0-6.257813-3.972656-4.582031-7.371094l26.523437-53.835938c1.875-3.804687 7.296875-3.804687 9.167969 0l26.527344 53.835938c1.671874 3.398438-.796876 7.371094-4.582032 7.371094h-16.308594v81.753906h66.46875v-81.753906h-16.308593c-3.785157 0-6.253907-3.972656-4.582031-7.371094l26.527343-53.835938c1.875-3.804687 7.292969-3.804687 9.167969 0l26.527344 53.835938c1.671875 3.398438-.800782 7.371094-4.585938 7.371094h-16.304687v81.753906h14.269531c5.644531 0 10.21875 4.578125 10.21875 10.222656zm0 0" fill="#d9e7ec"/><path d="m373.523438 342.867188h-183.949219c-11.289063 0-20.441407-9.152344-20.441407-20.441407v-183.949219c0-11.289062 9.152344-20.441406 20.441407-20.441406h183.949219c11.289062 0 20.441406 9.152344 20.441406 20.441406v183.949219c0 11.289063-9.152344 20.441407-20.441406 20.441407zm0 0" fill="#fd4343"/><path d="m373.523438 342.867188h-155.335938c-11.289062 0-20.4375-9.152344-20.4375-20.441407v-183.949219c0-11.289062 9.148438-20.441406 20.4375-20.441406h155.335938c11.289062 0 20.441406 9.152344 20.441406 20.441406v183.949219c0 11.289063-9.152344 20.441407-20.441406 20.441407zm0 0" fill="#fd5757"/><path d="m346.1875 158.402344v52.886718c0 32.21875-23.578125 58.925782-54.417969 63.828126v21.25h11.75c8.46875 0 15.332031 6.863281 15.332031 15.328124 0 2.824219-2.289062 5.109376-5.109374 5.109376h-64.386719c-2.820313 0-5.109375-2.285157-5.109375-5.109376 0-8.464843 6.863281-15.328124 15.332031-15.328124h11.75v-21.25c-30.839844-4.902344-54.417969-31.605469-54.417969-63.828126v-52.886718c0-2.820313 2.289063-5.109375 5.109375-5.109375h20.277344c2.546875 0 4.878906 1.441406 6.019531 3.722656 1.660156 3.324219.3125 7.367187-3.011718 9.027344l-3.519532 1.757812c-3.488281 1.746094-6.398437 4.558594-7.976562 8.125-2.019532 4.558594-1.890625 9.609375.300781 13.996094l9.523437 19.039063c1.789063 3.582031 5.398438 5.652343 9.148438 5.652343 1.804688 0 3.636719-.480469 5.320312-1.5 4.589844-2.785156 6.070313-8.777343 3.671876-13.578125l-6.339844-12.675781c-.671875-1.335937-.128906-2.964844 1.210937-3.632813l7.472657-3.738281c4.210937-2.101562 7.265624-5.835937 8.496093-10.425781 1.058594-3.960938.484375-8.179688-1.347656-11.847656v-.003906c-.898437-1.800782.410156-3.917969 2.421875-3.917969h67.390625c2.820313 0 5.109375 2.289062 5.109375 5.109375zm0 0" fill="#fff5f5"/><path d="m491.5625 224.832031h-183.953125c-11.289063 0-20.441406-9.152343-20.441406-20.441406v-183.953125c0-11.285156 9.152343-20.4375 20.441406-20.4375h183.953125c11.285156 0 20.4375 9.152344 20.4375 20.4375v183.953125c0 11.289063-9.152344 20.441406-20.4375 20.441406zm0 0" fill="#f5b65d"/><path d="m491.5625 224.832031h-155.339844c-11.289062 0-20.4375-9.152343-20.4375-20.441406v-183.953125c0-11.285156 9.148438-20.4375 20.4375-20.4375h155.339844c11.285156 0 20.4375 9.152344 20.4375 20.4375v183.953125c0 11.289063-9.152344 20.441406-20.4375 20.441406zm0 0" fill="#f7c37d"/><path d="m471.867188 91.976562h-64.105469v71.535157c0 5.636719 4.582031 10.222656 10.21875 10.222656 5.632812 0 10.21875-4.585937 10.21875-10.222656 0-5.640625 4.578125-10.21875 10.21875-10.21875 5.644531 0 10.222656 4.578125 10.222656 10.21875 0 16.90625-13.753906 30.660156-30.660156 30.660156s-30.660157-13.753906-30.660157-30.660156v-71.535157h-60.015624c-3.550782 0-5.992188-3.519531-4.808594-6.863281 11.238281-31.726562 41.507812-54.453125 77.089844-54.453125 35.578124 0 65.847656 22.726563 77.085937 54.453125 1.183594 3.34375-1.257813 6.863281-4.804687 6.863281zm0 0" fill="#fff5f5"/></svg>