<svg height="512pt" viewBox="0 -6 512 512" width="512pt" xmlns="http://www.w3.org/2000/svg"><path d="m239.097656 387.320312c-137.214844 0-236.875-131.847656-197.871094-263.40625 3.875-13.066406 8.425782-23.453124 13.636719-29.957031 45.8125-57.1875 116.191407-93.839843 195.140625-93.957031 138.007813-.203125 250.753906 112.371094 250.753906 250.378906 0 50.546875-14.992187 97.589844-40.753906 136.941406zm0 0" fill="#8ed0e1"/><path d="m361.773438 101.175781h-194.171876c-8.464843 0-15.332031-6.867187-15.332031-15.332031s6.867188-15.328125 15.332031-15.328125h127.742188c5.644531 0 10.222656-4.574219 10.222656-10.21875s-4.578125-10.222656-10.222656-10.222656h-25.546875c-8.464844 0-15.328125-6.863281-15.328125-15.328125s6.863281-15.328125 15.328125-15.328125h77.40625c19.128906 8.027343 37.050781 18.363281 53.417969 30.65625h-64.398438c-5.644531 0-10.21875 4.578125-10.21875 10.222656s4.574219 10.21875 10.21875 10.21875h25.550782c8.464843 0 15.328124 6.863281 15.328124 15.328125s-6.863281 15.332031-15.328124 15.332031zm51.097656 71.535157h-61.316406c-8.46875 0-15.332032 6.863281-15.332032 15.328124 0 8.46875 6.863282 15.332032 15.332032 15.332032h61.316406c8.464844 0 15.328125-6.863282 15.328125-15.332032 0-8.464843-6.863281-15.328124-15.328125-15.328124zm45.785156-61.316407h-45.785156c-8.464844 0-15.332032 6.863281-15.332032 15.328125s6.867188 15.328125 15.332032 15.328125h63.300781c-5.125-10.660156-10.988281-20.898437-17.515625-30.65625zm0 0" fill="#b0dde9"/><path d="m366.964844 140.828125v235.847656c0 5.644531-4.574219 10.21875-10.21875 10.21875h-151.183594c-113.433594 0-202.800781-97.703125-191.5-210.574219.8125-8.09375 1.980469-14.390624 3.515625-18.257812 9.246094-23.28125 21.882813-44.851562 37.296875-64.09375l98.988281-36.78125c2.296875-.851562 4.824219-.851562 7.121094 0l199.320313 74.0625c4.003906 1.488281 6.660156 5.308594 6.660156 9.578125zm0 0" fill="#fff5f5"/><path d="m326.003906 173.390625v198.175781c0 8.464844-6.863281 15.328125-15.328125 15.328125h-260.203125c-6.332031 0-12.21875-3.316406-15.453125-8.761719-22.238281-37.402343-35.019531-81.082031-35.019531-127.753906 0-32.605468 6.238281-63.75 17.574219-92.316406h293.101562c8.464844 0 15.328125 6.863281 15.328125 15.328125zm0 0" fill="#458fa4"/><path d="m140.671875 326.003906h185.332031v20.441406h-306.898437c-9.308594-22.390624-15.464844-46.421874-17.90625-71.539062h23.328125c5.644531 0 10.21875 4.574219 10.21875 10.21875v35.769531c0 1.863281-.507813 3.605469-1.378906 5.109375h23.195312c-.871094-1.503906-1.375-3.246094-1.375-5.109375v-35.769531c0-5.644531 4.574219-10.21875 10.21875-10.21875h66.425781c5.644531 0 10.21875 4.574219 10.21875 10.21875v35.769531c0 1.863281-.503906 3.605469-1.378906 5.109375zm30.660156-91.976562c.871094-1.503906 1.378907-3.246094 1.378907-5.109375v-35.769531c0-5.644532-4.574219-10.21875-10.21875-10.21875h-51.097657c-5.644531 0-10.222656 4.574218-10.222656 10.21875v35.769531c0 1.863281.507813 3.605469 1.378906 5.109375h-33.414062c.871093-1.503906 1.378906-3.246094 1.378906-5.109375v-35.769531c0-5.644532-4.574219-10.21875-10.21875-10.21875h-51.09375c-5.988281 21.460937-9.203125 44.078124-9.203125 67.449218 0 1.367188.03125 2.726563.0507812 4.089844h325.9531248v-20.441406zm0 0" fill="#235967"/><path d="m466.347656 377.101562c-43.507812 73.988282-123.929687 123.65625-215.96875 123.65625-92.035156 0-172.460937-49.667968-215.96875-123.65625zm0 0" fill="#49cb5c"/><path d="m346.441406 280.015625v61.347656c0 8.46875-6.863281 15.332031-15.328125 15.332031h-90.90625c-2.800781 3.054688-6.816406 4.980469-11.289062 4.980469h-109.132813c-8.464844 0-15.328125-6.863281-15.328125-15.328125v-88.867187c0-8.464844 6.863281-15.328125 15.328125-15.328125h42.707032v-38.101563c0-8.464843 6.863281-15.328125 15.328124-15.328125h109.132813c8.464844 0 15.328125 6.863282 15.328125 15.328125v60.636719h28.832031c8.464844 0 15.328125 6.863281 15.328125 15.328125zm0 0" fill="#f5b65d"/><path d="m346.441406 280.015625v61.347656c0 8.46875-6.863281 15.332031-15.328125 15.332031h-94.0625c-8.464843 0-15.328125-6.863281-15.328125-15.332031v-61.347656c0-8.464844 6.863282-15.328125 15.328125-15.328125h-15.070312c-8.464844 0-15.328125 6.863281-15.328125 15.328125v61.347656c0 8.46875 6.863281 15.332031 15.328125 15.332031h18.226562c-2.800781 3.054688-6.816406 4.980469-11.289062 4.980469h-94.0625c-8.464844 0-15.328125-6.863281-15.328125-15.328125v-88.867187c0-8.464844 6.863281-15.328125 15.328125-15.328125h42.707031v-38.101563c0-8.464843 6.863281-15.328125 15.328125-15.328125h94.0625c8.464844 0 15.328125 6.863282 15.328125 15.328125v60.636719h28.832031c8.464844 0 15.328125 6.863281 15.328125 15.328125zm0 0" fill="#f7c37d"/><path d="m208.492188 218.8125-4.960938 2.664062c-.597656.320313-1.410156.5-2.253906.5-1.761719 0-3.1875-.765624-3.1875-1.710937v-31.542969h68.597656v31.542969c0 .945313-1.429688 1.710937-3.191406 1.710937-.84375 0-1.65625-.179687-2.253906-.5l-4.957032-2.664062c-1.015625-.542969-2.660156-.542969-3.675781 0l-3.558594 1.910156c-1.496093.804688-3.519531 1.253906-5.632812 1.253906s-4.140625-.449218-5.632813-1.253906l-3.5625-1.910156c-1.011718-.542969-2.660156-.542969-3.671875 0l-3.5625 1.910156c-1.492187.804688-3.519531 1.253906-5.632812 1.253906-2.109375 0-4.136719-.449218-5.632813-1.253906l-3.558594-1.910156c-1.011718-.546875-2.660156-.546875-3.671874 0zm-66.257813 56.503906-4.957031 2.660156c-.597656.324219-1.410156.503907-2.253906.503907-1.761719 0-3.191407-.765625-3.191407-1.714844v-34.613281h68.597657v34.613281c0 .945313-1.425782 1.714844-3.1875 1.714844-.847657 0-1.65625-.179688-2.253907-.503907l-4.960937-2.660156c-1.011719-.546875-2.660156-.546875-3.671875 0l-3.5625 1.910156c-1.492188.804688-3.519531 1.253907-5.632813 1.253907-2.113281 0-4.136718-.449219-5.632812-1.253907l-3.558594-1.910156c-1.015625-.546875-2.660156-.546875-3.675781 0l-3.558594 1.910156c-1.496094.804688-3.519531 1.253907-5.632813 1.253907-2.113281 0-4.140624-.449219-5.632812-1.253907l-3.558594-1.910156c-1.015625-.546875-2.660156-.546875-3.675781 0zm110.417969 19.460938-4.960938 2.664062c-.597656.320313-1.40625.503906-2.253906.503906-1.761719 0-3.1875-.769531-3.1875-1.714843v-31.542969h68.597656v31.542969c0 .945312-1.429687 1.710937-3.191406 1.710937-.84375 0-1.65625-.179687-2.253906-.5l-4.957032-2.664062c-1.015624-.542969-2.660156-.542969-3.675781 0l-3.558593 1.914062c-1.496094.800782-3.519532 1.25-5.632813 1.25s-4.140625-.449218-5.632813-1.25l-3.558593-1.914062c-1.015625-.542969-2.660157-.542969-3.675781 0l-3.558594 1.914062c-1.496094.800782-3.519532 1.25-5.636719 1.25-2.109375 0-4.136719-.449218-5.632813-1.25l-3.558593-1.914062c-1.011719-.542969-2.660157-.542969-3.671875 0zm0 0" fill="#fdf7bd"/><path d="m361.773438 392.335938h-255.488282c-8.46875 0-15.332031-6.863282-15.332031-15.328126v-40.878906c0-8.464844 6.863281-15.328125 15.332031-15.328125h255.488282c8.464843 0 15.328124 6.863281 15.328124 15.328125v40.878906c0 8.464844-6.863281 15.328126-15.328124 15.328126zm0 0" fill="#fd4343"/><path d="m361.773438 392.335938h-235.050782c-8.464844 0-15.328125-6.863282-15.328125-15.328126v-40.878906c0-8.464844 6.863281-15.328125 15.328125-15.328125h235.050782c8.464843 0 15.328124 6.863281 15.328124 15.328125v40.878906c0 8.464844-6.863281 15.328126-15.328124 15.328126zm0 0" fill="#fd5757"/><path d="m491.5625 392.335938h-112.417969c-11.289062 0-20.4375-9.148438-20.4375-20.4375v-132.855469c0-11.289063 9.148438-20.4375 20.4375-20.4375h64.484375c7.105469 0 13.699219 3.6875 17.417969 9.742187l41.890625 68.242188c5.925781 9.652344 9.0625 20.753906 9.0625 32.082031v43.226563c0 11.285156-9.152344 20.4375-20.4375 20.4375zm0 0" fill="#fde803"/><path d="m491.5625 392.335938h-83.800781c-11.289063 0-20.441407-9.152344-20.441407-20.4375v-132.855469c0-11.289063 9.152344-20.4375 20.441407-20.4375h35.867187c7.105469 0 13.699219 3.6875 17.417969 9.742187l41.890625 68.242188c5.925781 9.652344 9.0625 20.753906 9.0625 32.082031v43.226563c0 11.285156-9.152344 20.4375-20.4375 20.4375zm0 0" fill="#fdf061"/><path d="m512 366.882812h-12.261719c-5.644531 0-10.222656-4.574218-10.222656-10.21875 0-5.644531 4.578125-10.21875 10.222656-10.21875h12.261719zm0 0" fill="#fdf7bd"/><path d="m407.761719 239.820312h60.324219l34.851562 56.769532c5.925781 9.652344 9.0625 20.753906 9.0625 32.082031v3.121094h-104.238281c-11.289063 0-20.441407-9.148438-20.441407-20.4375v-51.097657c0-11.289062 9.152344-20.4375 20.441407-20.4375zm0 0" fill="#458fa4"/><path d="m512 328.671875v3.121094h-12.28125c.007812-.226563.019531-.449219.019531-.679688 0-14.109375-11.441406-25.546875-25.550781-25.546875s-25.546875 11.4375-25.546875 25.546875c0 .230469.007813.453125.015625.679688h-20.457031c-11.289063 0-20.4375-9.148438-20.4375-20.4375v-51.097657c0-11.289062 9.148437-20.4375 20.4375-20.4375h39.886719l34.851562 56.769532c5.925781 9.652344 9.0625 20.753906 9.0625 32.082031zm0 0" fill="#649eb0"/><path d="m223.808594 398.222656c0 25.398438-20.589844 45.988282-45.988282 45.988282-25.398437 0-45.988281-20.589844-45.988281-45.988282 0-25.398437 20.589844-45.988281 45.988281-45.988281 25.398438 0 45.988282 20.589844 45.988282 45.988281zm189.0625-45.988281c-25.398438 0-45.988282 20.589844-45.988282 45.988281 0 25.398438 20.589844 45.988282 45.988282 45.988282 25.398437 0 45.988281-20.589844 45.988281-45.988282 0-25.398437-20.589844-45.988281-45.988281-45.988281zm0 0" fill="#235967"/><path d="m203.371094 398.222656c0 14.109375-11.441406 25.546875-25.550782 25.546875-14.109374 0-25.550781-11.4375-25.550781-25.546875s11.441407-25.550781 25.550781-25.550781c14.109376 0 25.550782 11.441406 25.550782 25.550781zm209.5-25.550781c-14.109375 0-25.550782 11.441406-25.550782 25.550781s11.441407 25.546875 25.550782 25.546875 25.546875-11.4375 25.546875-25.546875-11.4375-25.550781-25.546875-25.550781zm0 0" fill="#b6c4cf"/><path d="m203.371094 398.222656c0 10.472656-6.308594 19.472656-15.332032 23.417969-9.019531-3.945313-15.328124-12.945313-15.328124-23.417969 0-10.476562 6.308593-19.476562 15.328124-23.417968 9.023438 3.941406 15.332032 12.941406 15.332032 23.417968zm219.71875-23.417968c-9.023438 3.941406-15.328125 12.941406-15.328125 23.417968 0 10.472656 6.304687 19.472656 15.328125 23.417969 9.023437-3.945313 15.328125-12.945313 15.328125-23.417969 0-10.476562-6.304688-19.476562-15.328125-23.417968zm0 0" fill="#d9e7ec"/></svg>