<svg height="511pt" viewBox="-5 0 511 511.99998" width="511pt" xmlns="http://www.w3.org/2000/svg"><path d="m.5 261.621094c0-138.097656 111.804688-250.085938 249.832031-250.378906 138.191407-.296876 249.871094 110.25 250.917969 248.4375.523438 68.949218-26.828125 131.503906-71.453125 177.082031-6.050781 6.179687-15.742187 6.757812-22.488281 1.351562-42.855469-34.335937-97.242188-54.878906-156.429688-54.878906-59.183594 0-113.566406 20.539063-156.421875 54.875-6.703125 5.371094-16.375 4.894531-22.386719-1.238281-44.269531-45.160156-71.570312-107.015625-71.570312-175.25zm0 0" fill="#49cb5c"/><path d="m72.035156 250.378906c0-8.464844 6.863282-15.328125 15.332032-15.328125h327.023437c8.46875 0 15.332031 6.863281 15.332031 15.328125v186.445313c-45.445312 46.382812-108.777344 75.175781-178.84375 75.175781s-133.398437-28.792969-178.84375-75.175781zm0 0" fill="#f5b65d"/><path d="m101.671875 462.695312v-212.316406c0-8.464844 6.863281-15.328125 15.332031-15.328125h297.386719c8.46875 0 15.332031 6.863281 15.332031 15.328125v186.445313c-45.445312 46.382812-108.777344 75.175781-178.84375 75.175781-55.910156 0-107.535156-18.332031-149.207031-49.304688zm0 0" fill="#f7c37d"/><path d="m180.21875 459.878906v16.9375c0 5.644532-4.574219 10.21875-10.21875 10.21875h-16.9375c-5.644531 0-10.21875-4.574218-10.21875-10.21875v-16.9375c0-5.644531 4.574219-10.21875 10.21875-10.21875h16.9375c5.644531 0 10.21875 4.574219 10.21875 10.21875zm-61.609375-10.21875h-16.9375c-4.070313 0-7.574219 2.382813-9.21875 5.832032 5.824219 4.765624 11.855469 9.277343 18.101563 13.511718 5.753906 3.894532 11.683593 7.570313 17.761718 10.992188.328125-1 .511719-2.074219.511719-3.179688v-16.9375c0-5.644531-4.574219-10.21875-10.21875-10.21875zm102.777344 0h-16.933594c-5.644531 0-10.21875 4.574219-10.21875 10.21875v16.9375c0 5.644532 4.574219 10.21875 10.21875 10.21875h16.933594c5.644531 0 10.222656-4.574218 10.222656-10.21875v-16.9375c0-5.644531-4.578125-10.21875-10.222656-10.21875zm0 0" fill="#dca050"/><path d="m203.886719 400.058594-9.75 9.75c-1.179688 1.179687-2.773438 1.839844-4.4375 1.839844-3.460938 0-6.269531-2.808594-6.269531-6.273438v-170.324219c0-.566406.457031-1.023437 1.023437-1.023437h132.851563c.566406 0 1.023437.457031 1.023437 1.023437v170.324219c0 3.464844-2.808594 6.273438-6.269531 6.273438-1.664063 0-3.257813-.660157-4.433594-1.839844l-9.753906-9.75c-1.996094-1.996094-5.230469-1.996094-7.226563 0l-7 7c-2.9375 2.9375-6.921875 4.589844-11.074219 4.589844-4.15625 0-8.140624-1.652344-11.078124-4.589844l-7-7c-1.996094-1.996094-5.230469-1.996094-7.226563 0l-7 7c-2.9375 2.9375-6.921875 4.589844-11.074219 4.589844-4.15625 0-8.140625-1.652344-11.078125-4.589844l-7-7c-1.996093-1.996094-5.230469-1.996094-7.226562 0zm0 0" fill="#fdf7bd"/><path d="m203.101562 334.691406h90.699219c1.128907 0 2.042969.914063 2.042969 2.042969v11.242187c0 1.128907-.914062 2.042969-2.042969 2.042969h-90.699219c-1.128906 0-2.042968-.914062-2.042968-2.042969v-11.242187c0-1.128906.914062-2.042969 2.042968-2.042969zm-2.042968 30.148438v11.238281c0 1.132813.914062 2.046875 2.042968 2.046875h60.042969c1.128907 0 2.042969-.914062 2.042969-2.046875v-11.238281c0-1.128906-.914062-2.046875-2.042969-2.046875h-60.042969c-1.128906 0-2.042968.917969-2.042968 2.046875zm0 0" fill="#f9d19a"/><path d="m216.386719 257.53125v57.230469c0 1.128906-.914063 2.042969-2.042969 2.042969h-11.242188c-1.128906 0-2.042968-.914063-2.042968-2.042969v-57.230469c0-1.128906.914062-2.042969 2.042968-2.042969h11.242188c1.128906 0 2.042969.914063 2.042969 2.042969zm54.164062-2.042969h-11.242187c-1.128906 0-2.042969.914063-2.042969 2.042969v57.230469c0 1.128906.914063 2.042969 2.042969 2.042969h11.242187c1.128907 0 2.046875-.914063 2.046875-2.042969v-57.230469c0-1.128906-.917968-2.042969-2.046875-2.042969zm-28.101562 0h-11.242188c-1.128906 0-2.042969.914063-2.042969 2.042969v16.351562c0 1.128907.914063 2.046876 2.042969 2.046876h11.242188c1.128906 0 2.042969-.917969 2.042969-2.046876v-16.351562c0-1.128906-.914063-2.042969-2.042969-2.042969zm0 30.660157h-11.242188c-1.128906 0-2.042969.914062-2.042969 2.042968v26.570313c0 1.128906.914063 2.042969 2.042969 2.042969h11.242188c1.128906 0 2.042969-.914063 2.042969-2.042969v-26.570313c0-1.128906-.914063-2.042968-2.042969-2.042968zm56.207031-30.660157h-11.242188c-1.128906 0-2.042968.914063-2.042968 2.042969v36.792969c0 1.128906.914062 2.042969 2.042968 2.042969h11.242188c1.128906 0 2.042969-.914063 2.042969-2.042969v-36.792969c0-1.128906-.914063-2.042969-2.042969-2.042969zm0 51.097657h-11.242188c-1.128906 0-2.042968.914062-2.042968 2.042968v6.132813c0 1.128906.914062 2.042969 2.042968 2.042969h11.242188c1.128906 0 2.042969-.914063 2.042969-2.042969v-6.132813c0-1.128906-.914063-2.042968-2.042969-2.042968zm0 0" fill="#7a8c98"/><path d="m409.390625 42.765625-136.390625 149.53125c-4.84375 5.304687-11.695312 8.332031-18.878906 8.332031s-14.035156-3.027344-18.875-8.332031l-75.800782-83.101563c-9.511718-10.425781-8.769531-26.585937 1.65625-36.09375 10.425782-9.507812 26.585938-8.765624 36.09375 1.65625l56.925782 62.410157 117.515625-128.835938c9.511719-10.425781 25.671875-11.167969 36.09375-1.660156 10.425781 9.507813 11.167969 25.667969 1.660156 36.09375zm0 0" fill="#fdf7bd"/><path d="m407.050781 6.082031c-.816406.691407-1.597656 1.4375-2.339843 2.25l-132.585938 145.078125c-4.804688 5.265625-13.078125 5.320313-17.949219.113282-4.355469-4.652344-4.402343-11.871094-.105469-16.582032l117.570313-128.609375c9.304687-10.203125 24.976563-11.125 35.410156-2.25zm-138.730469 186.214844-99.175781-106.476563c-3.695312-4.054687-5.835937-8.976562-6.46875-14.035156-.535156.417969-1.0625.851563-1.574219 1.316406-10.425781 9.507813-11.167968 25.667969-1.65625 36.09375l75.800782 83.101563c4.839844 5.304687 11.691406 8.332031 18.875 8.332031 6.097656 0 11.945312-2.183594 16.539062-6.085937-.820312-.699219-1.605468-1.441407-2.339844-2.246094zm0 0" fill="#fcf498"/></svg>