<svg height="512pt" viewBox="0 0 512.0004 512" width="512pt" xmlns="http://www.w3.org/2000/svg"><path d="m500.757812 261.621094c0 104.675781-64.238281 194.339844-155.441406 231.738281-9.207031 3.777344-19.3125-2.929687-19.3125-12.882813 0-28.308593-22.949218-51.253906-51.253906-51.253906h-193.9375c-10.941406 0-21.226562-5.105468-27.957031-13.734375-33.644531-43.128906-53.480469-97.554687-52.839844-156.636719 1.480469-136.925781 113.792969-247.800781 250.722656-247.609374 138.117188.191406 250.019531 112.21875 250.019531 250.378906zm0 0" fill="#69c3da"/><path d="m387.078125 338.707031-96.246094-156.871093c-28.882812-47.074219-21.710937-107.8125 17.34375-146.863282 46.625-46.628906 122.222657-46.628906 168.851563 0 39.050781 39.050782 46.226562 99.789063 17.34375 146.863282l-96.246094 156.871093c-2.53125 4.121094-8.519531 4.121094-11.046875 0zm0 0" fill="#fd4343"/><path d="m410.792969 318.0625-83.582031-136.226562c-28.878907-47.074219-21.707032-107.8125 17.34375-146.863282 18.671874-18.671875 41.992187-29.859375 66.238281-33.578125 24.242187 3.71875 47.5625 14.90625 66.234375 33.578125 39.050781 39.050782 46.226562 99.789063 17.34375 146.863282zm0 0" fill="#fd5757"/><path d="m428.386719 120.472656c0 19.761719-16.023438 35.78125-35.785157 35.78125-19.761718 0-35.785156-16.019531-35.785156-35.78125 0-19.761718 16.023438-35.785156 35.785156-35.785156 19.761719 0 35.785157 16.023438 35.785157 35.785156zm50.097656 0c0 47.429688-38.453125 85.878906-85.882813 85.878906-47.429687 0-85.882812-38.449218-85.882812-85.878906 0-47.433594 38.453125-85.882812 85.882812-85.882812 47.429688 0 85.882813 38.449218 85.882813 85.882812zm-28.628906 0c0-31.621094-25.632813-57.253906-57.253907-57.253906-31.621093 0-57.253906 25.632812-57.253906 57.253906s25.632813 57.253906 57.253906 57.253906c31.621094 0 57.253907-25.632812 57.253907-57.253906zm0 0" fill="#fd9898"/><path d="m375.152344 201.023438-28.726563 291.875c-29.578125 12.300781-62.015625 19.101562-96.046875 19.101562-21.417968 0-42.210937-2.691406-62.050781-7.753906-72.941406-18.605469-125.921875-81.679688-132.890625-156.632813l-13.628906-146.589843c-1.039063-9.097657 6.074218-17.070313 15.230468-17.070313h302.882813c9.15625 0 16.269531 7.972656 15.230469 17.070313zm0 0" fill="#f5b65d"/><path d="m375.152344 201.023438-28.726563 291.875c-29.578125 12.300781-62.015625 19.101562-96.046875 19.101562-21.335937 0-42.046875-2.671875-61.816406-7.695312-48.359375-12.285157-83.691406-53.785157-88.476562-103.453126l-19.25-199.828124c-1.039063-9.097657 6.074218-17.070313 15.230468-17.070313h263.855469c9.15625 0 16.269531 7.972656 15.230469 17.070313zm0 0" fill="#f7c37d"/><path d="m44.089844 335.203125h163.855468l-18.804687 169.238281c-54.757813-13.765625-102.355469-45.5625-136.101563-88.714844zm0 0" fill="#d9e7ec"/><path d="m53.039062 415.726562-8.949218-80.523437h33.042968l13.222657 118.980469c-13.765625-11.453125-26.28125-24.347656-37.316407-38.457032zm0 0" fill="#c5d3dd"/><path d="m220.550781 321.914062v20.78125c0 2.820313-2.289062 5.109376-5.113281 5.109376h-178.839844c-2.824218 0-5.109375-2.289063-5.109375-5.109376v-20.78125c0-2.820312 2.285157-5.109374 5.109375-5.109374h13.480469v-9.878907c0-2.820312 2.285156-5.109375 5.109375-5.109375h141.664062c2.820313 0 5.109376 2.289063 5.109376 5.109375v9.878907h13.476562c2.824219 0 5.113281 2.289062 5.113281 5.109374zm0 0" fill="#fff2b4"/><path d="m387.320312 181.300781v20.441407c0 2.820312-2.285156 5.109374-5.109374 5.109374h-117.523438v4.085938c0 8.46875-6.863281 15.332031-15.328125 15.332031h-81.757813c-8.464843 0-15.328124-6.863281-15.328124-15.332031v-4.085938h-117.527344c-2.820313 0-5.109375-2.289062-5.109375-5.109374v-20.441407c0-2.820312 2.289062-5.109375 5.109375-5.109375h347.464844c2.824218 0 5.109374 2.289063 5.109374 5.109375zm0 0" fill="#fadeb9"/><path d="m80.734375 206.851562h-45.988281c-2.820313 0-5.109375-2.289062-5.109375-5.109374v-20.441407c0-2.820312 2.289062-5.109375 5.109375-5.109375h45.988281c-2.820313 0-5.109375 2.289063-5.109375 5.109375v20.441407c0 2.820312 2.289062 5.109374 5.109375 5.109374zm0 0" fill="#f9d19a"/><path d="m215.4375 347.804688h-139.8125c-2.820312 0-5.109375-2.289063-5.109375-5.109376v-20.78125c0-2.820312 2.289063-5.109374 5.109375-5.109374h13.480469v-9.878907c0-2.820312 2.289062-5.109375 5.109375-5.109375h102.636718c2.820313 0 5.109376 2.289063 5.109376 5.109375v9.878907h13.476562c2.824219 0 5.113281 2.289062 5.113281 5.109374v20.78125c0 2.824219-2.289062 5.109376-5.113281 5.109376zm110.566406-101.097657c-5.644531 0-10.21875 4.574219-10.21875 10.21875v40.878907c0 5.644531-4.574218 10.21875-10.21875 10.21875-5.644531 0-10.21875-4.574219-10.21875-10.21875v-40.878907c0-5.644531-4.578125-10.21875-10.222656-10.21875s-10.21875 4.574219-10.21875 10.21875v40.878907c0 5.644531-4.574219 10.21875-10.21875 10.21875s-10.21875-4.574219-10.21875-10.21875v-40.878907c0-5.644531-4.578125-10.21875-10.21875-10.21875-5.644531 0-10.222656 4.574219-10.222656 10.21875v61.316407c0 19.050781 13.027344 35.054687 30.660156 39.59375v153.746093c13.984375-.753906 27.621094-2.714843 40.878906-5.699219v-148.046874c17.628906-4.539063 30.65625-20.542969 30.65625-39.59375v-61.316407c0-5.644531-4.574218-10.21875-10.21875-10.21875zm0 0" fill="#fff5f5"/></svg>