<svg height="512pt" viewBox="-6 0 512 512" width="512pt" xmlns="http://www.w3.org/2000/svg"><path d="m500.757812 261.621094c0 138.28125-112.097656 250.378906-250.378906 250.378906-10.410156 0-20.671875-.636719-30.75-1.871094-58.6875-7.183594-110.542968-34.664062-149.433594-75.222656-36.457031-38.015625-61.589843-87.527344-68.324218-142.535156-1.234375-10.078125-1.871094-20.339844-1.871094-30.75 0-138.28125 112.097656-250.378906 250.378906-250.378906s250.378906 112.097656 250.378906 250.378906zm0 0" fill="#f7c37d"/><path d="m136.941406 91.976562h316.808594c8.464844 0 15.328125 6.863282 15.328125 15.328126v214.613281c0 8.464843-6.863281 15.328125-15.328125 15.328125h-316.808594c-8.464844 0-15.328125-6.863282-15.328125-15.328125v-214.613281c0-8.464844 6.863281-15.328126 15.328125-15.328126zm0 0" fill="#fadeb9"/><path d="m157.382812 91.976562h296.367188c8.464844 0 15.328125 6.863282 15.328125 15.328126v214.613281c0 8.464843-6.863281 15.328125-15.328125 15.328125h-296.367188c-8.46875 0-15.332031-6.863282-15.332031-15.328125v-214.613281c0-8.464844 6.863281-15.328126 15.332031-15.328126zm0 0" fill="#fff5f5"/><path d="m366.882812 265.707031h61.316407c5.644531 0 10.21875 4.578125 10.21875 10.222657v20.4375c0 5.644531-4.574219 10.21875-10.21875 10.21875h-61.316407c-5.644531 0-10.21875-4.574219-10.21875-10.21875v-20.4375c0-5.644532 4.574219-10.222657 10.21875-10.222657zm-112.414062 10.222657v20.4375c0 5.644531 4.574219 10.21875 10.21875 10.21875h61.316406c5.644532 0 10.21875-4.574219 10.21875-10.21875v-20.4375c0-5.644532-4.574218-10.222657-10.21875-10.222657h-61.316406c-5.644531 0-10.21875 4.578125-10.21875 10.222657zm102.195312-61.320313v20.441406c0 5.644531 4.574219 10.21875 10.21875 10.21875h61.316407c5.644531 0 10.21875-4.574219 10.21875-10.21875v-20.441406c0-5.644531-4.574219-10.21875-10.21875-10.21875h-61.316407c-5.644531 0-10.21875 4.574219-10.21875 10.21875zm-102.195312 0v20.441406c0 5.644531 4.574219 10.21875 10.21875 10.21875h61.316406c5.644532 0 10.21875-4.574219 10.21875-10.21875v-20.441406c0-5.644531-4.574218-10.21875-10.21875-10.21875h-61.316406c-5.644531 0-10.21875 4.574219-10.21875 10.21875zm102.195312-61.316406v20.441406c0 5.640625 4.574219 10.21875 10.21875 10.21875h61.316407c5.644531 0 10.21875-4.578125 10.21875-10.21875v-20.441406c0-5.644531-4.574219-10.21875-10.21875-10.21875h-61.316407c-5.644531 0-10.21875 4.574219-10.21875 10.21875zm-102.195312 0v20.441406c0 5.640625 4.574219 10.21875 10.21875 10.21875h61.316406c5.644532 0 10.21875-4.578125 10.21875-10.21875v-20.441406c0-5.644531-4.574218-10.21875-10.21875-10.21875h-61.316406c-5.644531 0-10.21875 4.574219-10.21875 10.21875zm-102.199219 0v20.441406c0 5.640625 4.578125 10.21875 10.222657 10.21875h61.316406c5.644531 0 10.21875-4.578125 10.21875-10.21875v-20.441406c0-5.644531-4.574219-10.21875-10.21875-10.21875h-61.316406c-5.644532 0-10.222657 4.574219-10.222657 10.21875zm0 0" fill="#fdcbbb"/><path d="m136.941406 51.097656h316.808594c8.464844 0 15.328125 6.863282 15.328125 15.328125v45.988281h-347.464844v-45.988281c0-8.464843 6.863281-15.328125 15.328125-15.328125zm0 0" fill="#fd4343"/><path d="m157.382812 51.097656h296.367188c8.464844 0 15.328125 6.863282 15.328125 15.328125v45.988281h-327.027344v-45.988281c0-8.464843 6.863281-15.328125 15.332031-15.328125zm0 0" fill="#fd5757"/><path d="m320.894531 357.171875c0 68.726563-41.746093 127.695313-101.261719 152.945313-22.632812-2.769532-44.332031-8.5625-64.683593-16.957032-25.859375-10.671875-120.78125-99.597656-135.511719-134.679687-8.71875-20.761719-14.71875-42.949219-17.554688-66.113281 25.25-59.515626 84.21875-101.261719 152.945313-101.261719 91.714844 0 166.066406 74.351562 166.066406 166.066406zm0 0" fill="#458fa4"/><path d="m154.828125 191.105469c6.917969 0 13.738281.429687 20.4375 1.253906-82.074219 10.074219-145.628906 80.019531-145.628906 164.8125v.273437c.007812 5.554688-7.585938 7.175782-9.757813 2.066407-8.957031-21.058594-15.113281-43.59375-17.996094-67.144531 25.25-59.515626 84.21875-101.261719 152.945313-101.261719zm0 0" fill="#328091"/><path d="m290.234375 357.171875c0 74.785156-60.625 135.410156-135.40625 135.410156-.441406 0-.875-.011719-1.316406-.015625-60.378907-25.355468-108.722657-73.699218-134.078125-134.078125-.003906-.441406-.015625-.875-.015625-1.316406 0-74.78125 60.625-135.40625 135.410156-135.40625 74.78125 0 135.40625 60.625 135.40625 135.40625zm0 0" fill="#fff5f5"/><path d="m234.027344 81.757812c0 5.644532-4.574219 10.21875-10.21875 10.21875h-20.4375c-5.644532 0-10.222656-4.574218-10.222656-10.21875 0-5.644531 4.578124-10.222656 10.222656-10.222656h20.4375c5.644531 0 10.21875 4.578125 10.21875 10.222656zm183.953125-10.222656h-20.441407c-5.640624 0-10.21875 4.578125-10.21875 10.222656 0 5.644532 4.578126 10.21875 10.21875 10.21875h20.441407c5.644531 0 10.21875-4.574218 10.21875-10.21875 0-5.644531-4.574219-10.222656-10.21875-10.222656zm0 0" fill="#f52c2c"/><path d="m417.980469 30.660156v61.316406h-20.441407v-61.316406c0-5.636718-4.582031-10.222656-10.21875-10.222656-5.632812 0-10.21875 4.585938-10.21875 10.222656v20.4375h-20.4375v-20.4375c0-16.90625 13.753907-30.660156 30.65625-30.660156 16.90625 0 30.660157 13.753906 30.660157 30.660156zm-224.832031-30.660156c-16.902344 0-30.65625 13.753906-30.65625 30.660156v20.4375h20.4375v-20.4375c0-5.636718 4.585937-10.222656 10.21875-10.222656 5.636718 0 10.222656 4.585938 10.222656 10.222656v61.316406h20.4375v-61.316406c0-16.90625-13.753906-30.660156-30.660156-30.660156zm0 0" fill="#c5d3dd"/><path d="m165.046875 209.5v183.953125c0 2.820313-2.289063 5.109375-5.109375 5.109375h-10.222656c-2.820313 0-5.109375-2.289062-5.109375-5.109375v-183.953125c0-2.820312 2.289062-5.109375 5.109375-5.109375h10.222656c2.820312 0 5.109375 2.289063 5.109375 5.109375zm0 0" fill="#b6c4cf"/><path d="m259.578125 367.394531h-132.855469c-2.820312 0-5.109375-2.289062-5.109375-5.109375v-10.222656c0-2.820312 2.289063-5.109375 5.109375-5.109375h132.855469c2.820313 0 5.109375 2.289063 5.109375 5.109375v10.222656c0 2.820313-2.289062 5.109375-5.109375 5.109375zm0 0" fill="#235967"/><path d="m104.242188 414.984375c1.996093 1.996094 1.996093 5.230469 0 7.226563l-21.679688 21.679687c-.683594.683594-1.519531 1.117187-2.394531 1.332031-4.628907-4.292968-9.09375-8.761718-13.386719-13.390625.214844-.875.644531-1.710937 1.332031-2.394531l21.675781-21.679688c1.996094-1.996093 5.230469-1.996093 7.226563 0zm-26.0625-52.699219v-10.222656c0-2.820312-2.289063-5.109375-5.109376-5.109375h-30.660156c-2.820312 0-5.109375 2.289063-5.109375 5.109375v10.222656c0 2.820313 2.289063 5.109375 5.109375 5.109375h30.660156c2.820313 0 5.109376-2.289062 5.109376-5.109375zm134.457031-55.695312c1.996093 1.996094 5.230469 1.996094 7.226562 0l21.679688-21.679688c1.996093-1.996094 1.996093-5.230468 0-7.226562l-7.226563-7.226563c-1.996094-1.996093-5.230468-1.996093-7.226562 0l-21.679688 21.679688c-1.996094 1.996093-1.996094 5.230469 0 7.226562zm-52.699219 127.230468h-10.222656c-2.820313 0-5.109375 2.289063-5.109375 5.109376v30.660156c0 2.820312 2.289062 5.109375 5.109375 5.109375h10.222656c2.820312 0 5.109375-2.289063 5.109375-5.109375v-30.660156c0-2.820313-2.289063-5.109376-5.109375-5.109376zm59.925781-26.0625c-1.996093-1.996093-5.230469-1.996093-7.226562 0l-7.226563 7.226563c-1.996094 1.996094-1.996094 5.230469 0 7.226563l21.679688 21.679687c1.996094 1.996094 5.230468 1.996094 7.226562 0l7.226563-7.226563c1.996093-1.996093 1.996093-5.230468 0-7.226562zm-137.300781-137.300781c-1.996094-1.996093-5.230469-1.996093-7.226562 0l-7.226563 7.226563c-1.996094 1.996094-1.996094 5.230468 0 7.226562l21.679687 21.679688c1.996094 1.996094 5.230469 1.996094 7.226563 0l7.226563-7.226563c1.996093-1.996093 1.996093-5.230469 0-7.226562zm0 0" fill="#d9e7ec"/></svg>