<svg height="512pt" viewBox="-6 0 512 512" width="512pt" xmlns="http://www.w3.org/2000/svg"><path d="m500.757812 261.621094c0 115.648437-78.410156 212.988281-184.96875 241.75-20.851562 5.625-42.78125 8.03125-65.410156 8.03125-94.375 0-175.710937-52.992188-219.226562-128.734375-20.425782-35.554688-31.152344-77.140625-31.152344-121.046875 0-138.28125 112.097656-250.378906 250.378906-250.378906s250.378906 112.097656 250.378906 250.378906zm0 0" fill="#fadeb9"/><path d="m500.757812 261.621094c0 12.273437-.898437 24.335937-2.605468 36.136718-2.753906 4.085938-7.421875 6.777344-12.722656 6.777344h-296.367188c-8.464844 0-15.328125-6.863281-15.328125-15.328125v-272.855469c0-8.464843 6.863281-15.328124 15.328125-15.328124h296.367188c8.464843 0 15.328124 6.863281 15.328124 15.328124zm0 0" fill="#dca050"/><path d="m500.757812 250.378906c0 .753906-.070312 1.484375-.175781 2.207032.105469 3 .175781 6.011718.175781 9.035156 0 12.273437-.882812 24.335937-2.589843 36.136718-2.75 4.085938-7.4375 6.777344-12.738281 6.777344h-269.273438c-8.464844 0-15.328125-6.863281-15.328125-15.328125v-272.855469c0-8.464843 6.863281-15.328124 15.328125-15.328124h269.273438c8.464843 0 15.328124 6.863281 15.328124 15.328124zm0 0" fill="#ebae56"/><path d="m374.621094 249.347656v16.9375c0 5.644532-4.578125 10.21875-10.222656 10.21875h-16.933594c-5.644532 0-10.21875-4.574218-10.21875-10.21875v-16.9375c0-5.644531 4.574218-10.21875 10.21875-10.21875h16.933594c5.644531 0 10.222656 4.574219 10.222656 10.21875zm41.167968-10.21875h-16.933593c-5.644531 0-10.21875 4.574219-10.21875 10.21875v16.9375c0 5.644532 4.574219 10.21875 10.21875 10.21875h16.933593c5.644532 0 10.21875-4.574218 10.21875-10.21875v-16.9375c0-5.644531-4.574218-10.21875-10.21875-10.21875zm51.390626 0h-16.933594c-5.644532 0-10.21875 4.574219-10.21875 10.21875v16.9375c0 5.644532 4.574218 10.21875 10.21875 10.21875h16.933594c5.644531 0 10.21875-4.574218 10.21875-10.21875v-16.9375c0-5.644531-4.574219-10.21875-10.21875-10.21875zm0 0" fill="#ce9047"/><path d="m294.28125 150.867188-8.917969 8.914062c-1.074219 1.074219-2.53125 1.679688-4.050781 1.679688-3.167969 0-5.734375-2.566407-5.734375-5.734376v-154.703124c0-.566407.457031-1.023438 1.019531-1.023438h121.292969c.566406 0 1.023437.457031 1.023437 1.023438v154.703124c0 3.167969-2.566406 5.734376-5.734374 5.734376-1.519532 0-2.976563-.605469-4.054688-1.679688l-8.914062-8.914062c-1.824219-1.824219-4.78125-1.824219-6.605469 0l-6.402344 6.398437c-2.683594 2.6875-6.328125 4.195313-10.125 4.195313-3.800781 0-7.445313-1.507813-10.128906-4.195313l-6.398438-6.398437c-1.824219-1.824219-4.785156-1.824219-6.609375 0l-6.398437 6.398437c-2.6875 2.6875-6.328125 4.195313-10.128907 4.195313-3.796874 0-7.441406-1.507813-10.125-4.195313l-6.402343-6.398437c-1.824219-1.824219-4.78125-1.824219-6.605469 0zm0 0" fill="#fdf7bd"/><path d="m293.738281 91.101562h91.917969c1.128906 0 2.046875.914063 2.046875 2.042969v9.925781c0 1.128907-.917969 2.046876-2.046875 2.046876h-91.917969c-1.128906 0-2.042969-.917969-2.042969-2.046876v-9.925781c0-1.128906.914063-2.042969 2.042969-2.042969zm-2.042969 27.738282v9.925781c0 1.128906.914063 2.042969 2.042969 2.042969h54.542969c1.128906 0 2.046875-.914063 2.046875-2.042969v-9.925781c0-1.128906-.917969-2.042969-2.046875-2.042969h-54.542969c-1.128906 0-2.042969.914063-2.042969 2.042969zm0 0" fill="#f9d19a"/><path d="m305.710938 20.730469v51.972656c0 1.132813-.914063 2.046875-2.042969 2.046875h-9.929688c-1.128906 0-2.042969-.914062-2.042969-2.046875v-51.972656c0-1.128907.914063-2.042969 2.042969-2.042969h9.929688c1.128906 0 2.042969.914062 2.042969 2.042969zm49.347656-2.042969h-9.929688c-1.128906 0-2.042968.914062-2.042968 2.042969v51.972656c0 1.132813.914062 2.046875 2.042968 2.046875h9.929688c1.128906 0 2.042968-.914062 2.042968-2.046875v-51.972656c0-1.128907-.917968-2.042969-2.042968-2.042969zm-25.695313 0h-9.929687c-1.128906 0-2.042969.914062-2.042969 2.042969v14.601562c0 1.128907.914063 2.042969 2.042969 2.042969h9.929687c1.128907 0 2.042969-.914062 2.042969-2.042969v-14.601562c0-1.128907-.914062-2.042969-2.042969-2.042969zm0 28.03125h-9.929687c-1.128906 0-2.042969.914062-2.042969 2.042969v23.941406c0 1.132813.914063 2.046875 2.042969 2.046875h9.929687c1.128907 0 2.042969-.914062 2.042969-2.046875v-23.941406c0-1.128907-.914062-2.042969-2.042969-2.042969zm51.386719-28.03125h-9.925781c-1.128907 0-2.042969.914062-2.042969 2.042969v33.285156c0 1.132813.914062 2.046875 2.042969 2.046875h9.925781c1.128906 0 2.046875-.914062 2.046875-2.046875v-33.285156c0-1.128907-.917969-2.042969-2.046875-2.042969zm0 46.71875h-9.925781c-1.128907 0-2.042969.914062-2.042969 2.042969v5.253906c0 1.132813.914062 2.046875 2.042969 2.046875h9.925781c1.128906 0 2.046875-.914062 2.046875-2.046875v-5.253906c0-1.128907-.917969-2.042969-2.046875-2.042969zm0 0" fill="#7a8c98"/><path d="m315.785156 117.523438v195.367187c0 119.296875-131.136718 193.457031-232.425781 130.429687-9.605469-5.976562-17.578125-12.335937-23.320313-19.046874-10.957031-12.8125-20.648437-26.75-28.871093-41.605469v-265.144531c0-8.464844 6.863281-15.328126 15.332031-15.328126h253.957031c8.464844 0 15.328125 6.863282 15.328125 15.328126zm0 0" fill="#328091"/><path d="m315.785156 117.523438v385.828124c-9.417968 2.542969-19.050781 4.550782-28.871094 5.992188-1.597656.234375-5.996093-.152344-12.535156-1.121094-122.835937-18.214844-213.574218-124.0625-213.574218-248.242187v-142.457031c0-8.464844 6.863281-15.328126 15.332031-15.328126h224.320312c8.464844 0 15.328125 6.863282 15.328125 15.328126zm0 0" fill="#458fa4"/><path d="m201.582031 136.941406h-56.207031c-4.234375 0-7.667969-3.429687-7.667969-7.664062s3.433594-7.664063 7.667969-7.664063h56.207031c4.230469 0 7.664063 3.429688 7.664063 7.664063s-3.433594 7.664062-7.664063 7.664062zm0 0" fill="#2b6c7e"/><path d="m286.914062 263.027344v246.3125c-11.925781 1.742187-24.125 2.660156-36.535156 2.660156-76.1875 0-144.417968-34.039062-190.339844-87.726562v-256.671876c0-8.464843 6.863282-15.332031 15.332032-15.332031h100.789062c61.167969 0 110.753906 49.589844 110.753906 110.757813zm0 0" fill="#fdf7bd"/><path d="m121.613281 204.390625v-52.121094h30.65625v200.304688h134.644531v30.660156h-134.644531v108.785156c-10.613281-4.527343-20.855469-9.761719-30.65625-15.652343v-47.144532h-57.226562c-1.472657-1.632812-2.921875-3.28125-4.347657-4.949218v-25.710938h61.574219v-163.511719h-61.574219v-30.660156zm0 0" fill="#fdf385"/><path d="m286.914062 167.601562v163.511719h-112.414062v-178.84375h97.085938c8.464843 0 15.328124 6.867188 15.328124 15.332031zm0 0" fill="#ade4ad"/><path d="m204.152344 316.804688c0 16.941406-13.734375 30.675781-30.675782 30.675781-16.941406 0-30.671874-13.734375-30.671874-30.675781 0-16.9375 13.730468-30.671876 30.671874-30.671876 16.941407 0 30.675782 13.734376 30.675782 30.671876zm71.519531 0c0 8.46875-6.863281 15.332031-15.328125 15.332031h-2.375c-6.335938 35.136719-34.027344 62.824219-69.164062 69.160156v2.375c0 8.464844-6.863282 15.332031-15.328126 15.332031-8.464843 0-15.328124-6.867187-15.328124-15.332031v-2.375c-35.136719-6.335937-62.828126-34.023437-69.160157-69.160156h-2.378906c-8.464844 0-15.328125-6.863281-15.328125-15.332031 0-8.464844 6.863281-15.328126 15.328125-15.328126h2.378906c6.332031-35.136718 34.023438-62.824218 69.160157-69.160156v-2.375c0-8.46875 6.863281-15.332031 15.328124-15.332031 8.464844 0 15.328126 6.863281 15.328126 15.332031v2.375c35.136718 6.335938 62.828124 34.023438 69.164062 69.160156h2.375c8.464844 0 15.328125 6.863282 15.328125 15.328126zm-57.191406 0c0-6.734376 4.351562-12.445313 10.394531-14.5-5.214844-19.964844-20.929688-35.683594-40.894531-40.894532-2.058594 6.042969-7.765625 10.394532-14.503907 10.394532-6.738281 0-12.445312-4.355469-14.503906-10.394532-19.964844 5.210938-35.683594 20.929688-40.894531 40.894532 6.042969 2.054687 10.394531 7.765624 10.394531 14.5 0 6.738281-4.351562 12.445312-10.394531 14.503906 5.210937 19.964844 20.929687 35.683594 40.894531 40.894531 2.058594-6.042969 7.765625-10.394531 14.503906-10.394531 6.738282 0 12.445313 4.351562 14.503907 10.394531 19.964843-5.214844 35.679687-20.929687 40.894531-40.894531-6.042969-2.058594-10.394531-7.765625-10.394531-14.503906zm0 0" fill="#fd7a7a"/><path d="m186.679688 411.4375c-2.667969 4.519531-7.574219 7.566406-13.203126 7.566406-8.464843 0-15.328124-6.867187-15.328124-15.332031v-2.375c-35.136719-6.335937-62.828126-34.023437-69.160157-69.160156h-2.378906c-8.464844 0-15.328125-6.863281-15.328125-15.332031 0-8.464844 6.863281-15.328126 15.328125-15.328126h2.378906c6.332031-35.136718 34.023438-62.824218 69.160157-69.160156v-2.375c0-8.46875 6.863281-15.332031 15.328124-15.332031 5.628907 0 10.535157 3.042969 13.203126 7.566406-13.378907 11.039063-24.367188 24.863281-32.09375 40.582031-17.859376 6.238282-31.679688 21.070313-36.503907 39.546876 6.039063 2.054687 10.390625 7.765624 10.390625 14.5 0 6.738281-4.351562 12.445312-10.390625 14.503906 4.824219 18.476562 18.644531 33.304687 36.503907 39.546875 7.726562 15.71875 18.714843 29.542969 32.09375 40.582031zm0 0" fill="#fd5757"/></svg>