<svg height="512pt" viewBox="0 -11 512 512" width="512pt" xmlns="http://www.w3.org/2000/svg"><path d="m11 245c0-135.261719 109.609375-244.921875 244.851562-245 135.003907-.078125 245.148438 110 245.148438 245 0 83.675781-41.953125 157.539062-105.964844 201.734375-11.46875 7.921875-26.246094 9.285156-38.964844 3.582031-30.554687-13.695312-64.421874-21.316406-100.070312-21.316406-35.589844 0-69.402344 7.597656-99.914062 21.25-12.714844 5.6875-27.523438 4.484375-38.988282-3.421875-64.085937-44.1875-106.097656-118.097656-106.097656-201.828125zm0 0" fill="#b0dde9"/><path d="m490 389h-460v-30h460zm0 0" fill="#95bcc9"/><path d="m70 374c0 19.328125-15.671875 35-35 35s-35-15.671875-35-35 15.671875-35 35-35 35 15.671875 35 35zm407-35c-19.328125 0-35 15.671875-35 35s15.671875 35 35 35 35-15.671875 35-35-15.671875-35-35-35zm0 0" fill="#649eb0"/><path d="m512 374c0 5.800781-1.417969 11.265625-3.917969 16.082031-4.816406 2.5-10.28125 3.917969-16.082031 3.917969-19.328125 0-35-15.671875-35-35 0-5.800781 1.417969-11.265625 3.917969-16.082031 4.816406-2.5 10.28125-3.917969 16.082031-3.917969 19.328125 0 35 15.671875 35 35zm-477-35c-5.800781 0-11.265625 1.417969-16.082031 3.917969-2.5 4.816406-3.917969 10.28125-3.917969 16.082031 0 19.328125 15.671875 35 35 35 5.800781 0 11.265625-1.417969 16.082031-3.917969 2.5-4.816406 3.917969-10.28125 3.917969-16.082031 0-19.328125-15.671875-35-35-35zm0 0" fill="#7daebd"/><path d="m395.25 15v431.585938c-39.542969 27.367187-87.519531 43.414062-139.25 43.414062s-99.707031-16.046875-139.25-43.414062v-431.585938c0-8.285156 6.714844-15 15-15h248.5c8.285156 0 15 6.714844 15 15zm0 0" fill="#328091"/><path d="m395.25 15v431.585938c-39.542969 27.367187-87.519531 43.414062-139.25 43.414062-39.660156 0-77.109375-9.433594-110.25-26.164062v-448.835938c0-8.285156 6.714844-15 15-15h219.5c8.285156 0 15 6.714844 15 15zm0 0" fill="#458fa4"/><path d="m283.5 34h-55c-4.140625 0-7.5-3.359375-7.5-7.5s3.359375-7.5 7.5-7.5h55c4.140625 0 7.5 3.359375 7.5 7.5s-3.359375 7.5-7.5 7.5zm-27.5 447c5.523438 0 10-4.476562 10-10s-4.476562-10-10-10-10 4.476562-10 10 4.476562 10 10 10zm0 0" fill="#2b6c7e"/><path d="m352 451h-192c-8.285156 0-15-6.714844-15-15v-372c0-8.285156 6.714844-15 15-15h192c8.285156 0 15 6.714844 15 15v372c0 8.285156-6.714844 15-15 15zm0 0" fill="#fdf7bd"/><path d="m145 359h222v30h-222zm0 0" fill="#fbc0ad"/><path d="m291 374c0 19.328125-15.671875 35-35 35s-35-15.671875-35-35 15.671875-35 35-35 35 15.671875 35 35zm0 0" fill="#fd7a7a"/><path d="m325.75 203.628906-65.964844 107.515625c-1.734375 2.824219-5.835937 2.824219-7.570312 0l-65.964844-107.515625c-19.796875-32.265625-14.878906-73.894531 11.886719-100.660156 31.957031-31.957031 83.769531-31.957031 115.726562 0 26.765625 26.765625 31.683594 68.394531 11.886719 100.660156zm-69.75 155.371094c-8.285156 0-15 6.714844-15 15s6.714844 15 15 15 15-6.714844 15-15-6.714844-15-15-15zm0 0" fill="#fd5757"/><path d="m268.46875 296.992188-57.285156-93.363282c-19.792969-32.265625-14.878906-73.894531 11.886718-100.660156 12.796876-12.796875 28.78125-20.464844 45.398438-23.015625 16.613281 2.550781 32.597656 10.21875 45.394531 23.015625 26.765625 26.765625 31.683594 68.394531 11.886719 100.660156zm0 0" fill="#fd7a7a"/><path d="m256 112.132812c-27.304688 0-49.4375 22.132813-49.4375 49.4375 0 27.300782 22.132812 49.4375 49.4375 49.4375s49.4375-22.136718 49.4375-49.4375c0-27.304687-22.132812-49.4375-49.4375-49.4375zm0 70.035157c-11.375 0-20.597656-9.222657-20.597656-20.597657 0-11.378906 9.21875-20.601562 20.597656-20.601562s20.597656 9.222656 20.597656 20.601562c0 11.375-9.21875 20.597657-20.597656 20.597657zm0 0" fill="#f8b0b0"/></svg>