<svg height="512pt" viewBox="0 -6 512.00102 512" width="512pt" xmlns="http://www.w3.org/2000/svg"><path d="m0 250.378906c0-138.28125 112.097656-250.378906 250.378906-250.378906s250.378906 112.097656 250.378906 250.378906c0 69.539063-28.355468 132.449219-74.128906 177.820313h-352.5c-45.773437-45.371094-74.128906-108.28125-74.128906-177.820313zm0 0" fill="#8ed0e1"/><path d="m315.785156 361.773438c0 8.464843-6.863281 15.328124-15.328125 15.328124h-163.515625c-8.464844 0-15.328125-6.863281-15.328125-15.328124 0-8.464844 6.863281-15.328126 15.328125-15.328126h163.515625c8.464844 0 15.328125 6.863282 15.328125 15.328126zm-132.855468-327.027344c0-8.464844-6.863282-15.328125-15.328126-15.328125h-14.066406c-19.128906 8.027343-37.042968 18.363281-53.40625 30.660156h67.472656c8.464844 0 15.328126-6.863281 15.328126-15.332031zm122.636718 15.332031h95.0625c-16.367187-12.296875-34.277344-22.632813-53.40625-30.660156h-97.867187c-8.464844 0-15.328125 6.863281-15.328125 15.328125 0 8.46875 6.863281 15.332031 15.328125 15.332031h15.332031c5.644531 0 10.21875 4.574219 10.21875 10.21875s-4.574219 10.21875-10.21875 10.21875h-76.648438c-8.464843 0-15.328124 6.863281-15.328124 15.328125 0 8.46875 6.863281 15.332031 15.328124 15.332031h163.515626c8.464843 0 15.328124-6.863281 15.328124-15.332031 0-8.464844-6.863281-15.328125-15.328124-15.328125h-45.988282c-5.644531 0-10.222656-4.574219-10.222656-10.21875s4.578125-10.21875 10.222656-10.21875zm128.960938 30.65625h-11.4375c-8.464844 0-15.328125 6.863281-15.328125 15.328125 0 8.46875 6.863281 15.332031 15.328125 15.332031h35.582031c-7.253906-10.851562-15.328125-21.097656-24.144531-30.660156zm0 0" fill="#b0dde9"/><path d="m445.101562 407.761719c-45.902343 56.722656-116.070312 92.996093-194.722656 92.996093s-148.820312-36.273437-194.722656-92.996093zm0 0" fill="#458fa4"/><path d="m426.628906 428.199219c-11.484375 11.382812-24.0625 21.65625-37.566406 30.660156h-119.265625c-2.820313 0-5.109375-2.289063-5.109375-5.109375v-20.441406c0-2.820313 2.289062-5.109375 5.109375-5.109375zm-197.710937 0h-154.789063c11.484375 11.382812 24.0625 21.65625 37.570313 30.660156h117.21875c2.820312 0 5.109375-2.289063 5.109375-5.109375v-20.441406c0-2.820313-2.289063-5.109375-5.109375-5.109375zm0 0" fill="#649eb0"/><path d="m496.671875 356.664062h-203.371094c-15.804687 0-28.613281-12.8125-28.613281-28.617187v-188.039063c0-15.804687 12.808594-28.613281 28.613281-28.613281h87.695313c17.066406 0 33.359375 7.109375 44.960937 19.625l86.042969 123.449219v86.863281c0 8.46875-6.863281 15.332031-15.328125 15.332031zm0 0" fill="#fd5757"/><path d="m412.871094 285.125c42.707031 0 78.191406 30.832031 85.472656 71.441406-.550781.0625-1.105469.097656-1.671875.097656h-169.292969c7.246094-40.660156 42.75-71.539062 85.492188-71.539062zm0 0" fill="#fd4343"/><path d="m489.515625 305.566406c0-5.644531 4.578125-10.21875 10.222656-10.21875h12.261719v20.4375h-12.261719c-5.644531 0-10.222656-4.574218-10.222656-10.21875zm0 0" fill="#f52c2c"/><path d="m377.101562 131.832031h49.613282l71.65625 77.277344c8.761718 9.449219 13.628906 21.859375 13.628906 34.746094v10.613281h-134.898438c-11.289062 0-20.4375-9.152344-20.4375-20.441406v-81.753906c0-11.289063 9.148438-20.441407 20.4375-20.441407zm0 0" fill="#458fa4"/><path d="m512 243.855469v10.613281h-32.703125v-25.550781c0-8.464844-6.863281-15.328125-15.328125-15.328125s-15.328125 6.863281-15.328125 15.328125v25.550781h-42.925781c-11.285156 0-20.4375-9.152344-20.4375-20.441406v-81.753906c0-11.289063 9.152344-20.441407 20.4375-20.441407h21l71.65625 77.277344c8.761718 9.449219 13.628906 21.859375 13.628906 34.746094zm0 0" fill="#649eb0"/><path d="m458.859375 274.90625c0-5.644531 4.574219-10.21875 10.21875-10.21875h42.921875v20.4375h-42.921875c-5.644531 0-10.21875-4.574219-10.21875-10.21875zm0 0" fill="#f4aa39"/><path d="m479.296875 274.90625c0-5.644531 4.574219-10.21875 10.21875-10.21875h22.484375v20.4375h-22.484375c-5.644531 0-10.21875-4.574219-10.21875-10.21875zm0 0" fill="#f5b65d"/><path d="m295.34375 106.285156v250.378906h-271.710938c-15.152343-32.265624-23.632812-68.28125-23.632812-106.285156 0-60.574218 21.511719-116.121094 57.308594-159.425781h222.707031c8.464844 0 15.328125 6.863281 15.328125 15.332031zm0 0" fill="#fdf061"/><path d="m106.285156 285.125c42.738282 0 78.246094 30.878906 85.488282 71.539062h-168.140626c-.664062-1.414062-1.324218-2.832031-1.960937-4.261718 8.886719-38.535156 43.378906-67.277344 84.613281-67.277344zm0 0" fill="#fde803"/><path d="m224.320312 198.261719c0 36.683593-34.316406 66.425781-76.648437 66.425781-42.328125 0-76.644531-29.742188-76.644531-66.425781 0-36.6875 34.316406-66.429688 76.644531-66.429688 42.332031 0 76.648437 29.742188 76.648437 66.429688zm0 0" fill="#fff5f5"/><path d="m198.769531 247.757812c-13.558593 10.523438-31.460937 16.929688-51.097656 16.929688-19.632813 0-37.535156-6.40625-51.097656-16.929688v-75.046874c0-5.644532 4.574219-10.21875 10.21875-10.21875h81.757812c5.644531 0 10.21875 4.574218 10.21875 10.21875zm0 0" fill="#0cc33c"/><path d="m124.679688 190.59375h-5.109376c-2.824218 0-5.109374-2.285156-5.109374-5.109375v-30.65625c0-18.125 14.585937-32.902344 32.636718-33.210937 18.582032-.316407 33.789063 15.289062 33.789063 33.871093v29.996094c0 2.824219-2.289063 5.109375-5.109375 5.109375h-5.109375c-2.824219 0-5.109375-2.285156-5.109375-5.109375v-30.65625c0-9.761719-7.859375-17.722656-17.582032-17.882813-10.003906-.167968-18.1875 8.351563-18.1875 18.355469v30.183594c0 2.824219-2.289062 5.109375-5.109374 5.109375zm0 0" fill="#46853e"/><path d="m479.296875 371.992188c0 36.6875-29.742187 66.425781-66.425781 66.425781-36.6875 0-66.429688-29.738281-66.429688-66.425781s29.742188-66.425782 66.429688-66.425782c36.683594 0 66.425781 29.738282 66.425781 66.425782zm-373.011719-66.425782c-36.6875 0-66.429687 29.738282-66.429687 66.425782s29.742187 66.425781 66.429687 66.425781c36.683594 0 66.425782-29.738281 66.425782-66.425781s-29.742188-66.425782-66.425782-66.425782zm0 0" fill="#235967"/><path d="m448.640625 371.992188c0 19.753906-16.015625 35.769531-35.769531 35.769531s-35.769532-16.015625-35.769532-35.769531c0-19.753907 16.015626-35.769532 35.769532-35.769532s35.769531 16.015625 35.769531 35.769532zm-342.355469-35.769532c-19.757812 0-35.769531 16.015625-35.769531 35.769532 0 19.753906 16.011719 35.769531 35.769531 35.769531 19.753906 0 35.765625-16.015625 35.765625-35.769531 0-19.753907-16.011719-35.769532-35.765625-35.769532zm0 0" fill="#b6c4cf"/><path d="m142.050781 371.992188c0 14.269531-8.355469 26.582031-20.4375 32.320312-12.085937-5.738281-20.441406-18.050781-20.441406-32.320312 0-14.265626 8.355469-26.582032 20.441406-32.320313 12.082031 5.738281 20.4375 18.054687 20.4375 32.320313zm286.148438-32.320313c-12.082031 5.742187-20.4375 18.054687-20.4375 32.320313 0 14.269531 8.355469 26.582031 20.4375 32.320312 12.085937-5.738281 20.441406-18.050781 20.441406-32.320312 0-14.265626-8.355469-26.582032-20.441406-32.320313zm0 0" fill="#d9e7ec"/></svg>