<svg height="512pt" viewBox="0 -11 512.00026 512" width="512pt" xmlns="http://www.w3.org/2000/svg"><path d="m501 245c0 135.308594-109.691406 245-245 245s-245-109.691406-245-245 109.691406-245 245-245 245 109.691406 245 245zm0 0" fill="#69c3da"/><path d="m371 245c0 63.511719-51.488281 115-115 115s-115-51.488281-115-115 51.488281-115 115-115 115 51.488281 115 115zm0 0" fill="#328091"/><path d="m371 245c0 58.859375-44.222656 107.386719-101.253906 114.179688-57.035156-6.792969-101.257813-55.320313-101.257813-114.179688s44.222657-107.386719 101.257813-114.179688c57.03125 6.792969 101.253906 55.320313 101.253906 114.179688zm0 0" fill="#458fa4"/><path d="m256 122.5c-67.546875 0-122.5 54.953125-122.5 122.5s54.953125 122.5 122.5 122.5 122.5-54.953125 122.5-122.5-54.953125-122.5-122.5-122.5zm88.097656 60.972656c10.871094 15.519532 17.75 34.027344 19.136719 54.027344h-46.003906c-.453125-15.542969-2.308594-30.542969-5.445313-44.339844 11.1875-2.488281 22.015625-5.722656 32.3125-9.6875zm-10.015625-12.28125c-8.410156 3-17.179687 5.492188-26.199219 7.472656-2.03125-6.449218-4.375-12.53125-7.011718-18.164062-3.066406-6.546875-6.453125-12.300781-10.101563-17.226562 16.652344 5.707031 31.46875 15.394531 43.3125 27.917968zm-124.308593 66.308594c.453124-14.640625 2.21875-28.695312 5.179687-41.53125 13.375 2.132812 27.136719 3.238281 41.046875 3.238281 13.90625 0 27.671875-1.105469 41.046875-3.238281 2.960937 12.835938 4.726563 26.890625 5.175781 41.53125zm92.453124 15c-.453124 14.640625-2.21875 28.695312-5.179687 41.53125-13.371094-2.132812-27.136719-3.238281-41.046875-3.238281-13.90625 0-27.671875 1.105469-41.046875 3.238281-2.960937-12.835938-4.726563-26.890625-5.175781-41.53125zm-46.226562-115c11.144531 0 22.550781 10.703125 31.289062 29.363281 2.121094 4.53125 4.019532 9.414063 5.714844 14.558594-12.0625 1.835937-24.464844 2.785156-37.003906 2.785156s-24.941406-.949219-37.003906-2.785156c1.695312-5.144531 3.59375-10.027344 5.714844-14.558594 8.742187-18.660156 20.144531-29.363281 31.289062-29.363281zm-34.769531 5.773438c-3.648438 4.929687-7.035157 10.679687-10.101563 17.230468-2.636718 5.628906-4.980468 11.710938-7.011718 18.160156-9.019532-1.980468-17.789063-4.46875-26.199219-7.472656 11.84375-12.523437 26.664062-22.210937 43.3125-27.917968zm-53.328125 40.199218c10.300781 3.964844 21.125 7.199219 32.3125 9.6875-3.136719 13.796875-4.992188 28.796875-5.445313 44.339844h-46.003906c1.386719-20 8.261719-38.507812 19.136719-54.027344zm0 123.054688c-10.871094-15.519532-17.75-34.027344-19.136719-54.027344h46.003906c.453125 15.546875 2.308594 30.546875 5.445313 44.339844-11.1875 2.488281-22.011719 5.722656-32.3125 9.6875zm10.015625 12.28125c8.410156-3 17.179687-5.492188 26.199219-7.46875 2.03125 6.445312 4.375 12.527344 7.011718 18.160156 3.066406 6.546875 6.453125 12.300781 10.101563 17.226562-16.648438-5.707031-31.46875-15.394531-43.3125-27.917968zm78.082031 33.691406c-11.144531 0-22.550781-10.703125-31.289062-29.363281-2.121094-4.53125-4.019532-9.414063-5.714844-14.558594 12.0625-1.835937 24.464844-2.785156 37.003906-2.785156s24.941406.949219 37.003906 2.785156c-1.695312 5.144531-3.59375 10.027344-5.714844 14.558594-8.738281 18.660156-20.144531 29.363281-31.289062 29.363281zm34.769531-5.773438c3.648438-4.929687 7.035157-10.679687 10.101563-17.226562 2.636718-5.632812 4.980468-11.714844 7.011718-18.164062 9.019532 1.980468 17.789063 4.46875 26.199219 7.472656-11.84375 12.523437-26.660156 22.210937-43.3125 27.917968zm53.328125-40.199218c-10.296875-3.964844-21.125-7.199219-32.3125-9.6875 3.136719-13.796875 4.992188-28.796875 5.445313-44.339844h46.003906c-1.386719 20-8.261719 38.507812-19.136719 54.027344zm0 0" fill="#d9e7ec"/><path d="m511.183594 220.148438-56.398438 69.074218c-1.4375 1.761719-4.132812 1.761719-5.570312 0l-56.398438-69.074218c-1.917968-2.34375-.246094-5.867188 2.785156-5.867188h30.335938c-14.492188-80.707031-85.054688-141.957031-169.9375-141.957031-69.847656 0-130 41.476562-157.191406 101.136719-4.289063 9.40625-13.566406 15.539062-23.90625 15.539062-19.023438 0-31.6875-19.664062-23.816406-36.984375 35.378906-77.867187 113.8125-132.015625 204.914062-132.015625 113.839844 0 207.910156 84.554688 222.894531 194.28125h29.503907c3.03125 0 4.703124 3.523438 2.785156 5.867188zm0 0" fill="#fdf7bd"/><path d="m447.460938 287.070312-54.644532-66.921874c-1.917968-2.34375-.246094-5.867188 2.785156-5.867188h30.335938c-14.492188-80.707031-85.058594-141.957031-169.9375-141.957031-69.847656 0-130 41.476562-157.191406 101.136719-4.289063 9.40625-13.566406 15.539062-23.90625 15.539062-2.273438 0-4.457032-.289062-6.527344-.8125 24.355469-80.542969 99.136719-139.1875 187.625-139.1875 108.25 0 196 87.753906 196 196 0 14.445312-1.578125 28.515625-4.539062 42.070312zm0 0" fill="#fcf498"/><path d="m452.441406 354.730469c-38.488281 68.773437-112.023437 115.269531-196.441406 115.269531-108.65625 0-199.296875-77.03125-220.359375-179.457031h-32.039063c-3.03125 0-4.703124-3.519531-2.785156-5.867188l56.398438-69.074219c1.4375-1.757812 4.132812-1.757812 5.570312 0l56.398438 69.074219c1.917968 2.347657.246094 5.867188-2.785156 5.867188h-26.988282c19.984375 73.265625 86.992188 127.132812 166.589844 127.132812 62.546875 0 117.3125-33.257812 147.605469-83.054687 5.929687-9.75 16.59375-15.621094 28.007812-15.621094 18.335938 0 29.78125 19.730469 20.828125 35.730469zm0 0" fill="#fd5757"/><path d="m452.441406 354.730469c-38.488281 68.773437-112.023437 115.269531-196.441406 115.269531-108.65625 0-199.289062-77.03125-220.347656-179.457031h-32.050782c-3.03125 0-4.703124-3.519531-2.785156-5.867188l56.398438-69.074219c1.4375-1.757812 4.132812-1.757812 5.570312 0l4.515625 5.535157-.496093 1.824219c-15.511719 56.78125-1.328126 117.898437 38.617187 161.128906 37.445313 40.53125 91.042969 65.910156 150.578125 65.910156 85.449219 0 158.679688-52.289062 189.464844-126.609375 9.394531 6.71875 13.339844 19.964844 6.976562 31.339844zm0 0" fill="#fd4343"/></svg>