<svg xmlns="http://www.w3.org/2000/svg" height="512pt" version="1.1" viewBox="0 0 512.00038 512" width="512pt">
<g id="surface1">
<path d="M 512 256 C 512 397.386719 397.386719 512 256 512 C 114.613281 512 0 397.386719 0 256 C 0 114.617188 114.613281 0 256 0 C 397.386719 0 512 114.617188 512 256 Z M 512 256 " style=" stroke:none;fill-rule:nonzero;fill:rgb(6.27451%,29.019608%,48.627451%);fill-opacity:1;" />
<path d="M 371.722656 97.070312 L 312.074219 41.230469 C 309.382812 38.710938 304.980469 40.621094 304.980469 44.304688 L 304.980469 61.394531 L 95.175781 61.394531 L 95.175781 138.898438 L 304.980469 138.898438 L 304.980469 155.988281 C 304.980469 159.675781 309.382812 161.585938 312.074219 159.066406 L 371.722656 103.222656 C 373.503906 101.558594 373.503906 98.738281 371.722656 97.070312 Z M 371.722656 97.070312 " style=" stroke:none;fill-rule:nonzero;fill:rgb(98.431373%,56.862745%,54.117647%);fill-opacity:1;" />
<path d="M 441.195312 252.925781 L 381.546875 197.082031 C 378.851562 194.5625 374.453125 196.472656 374.453125 200.15625 L 374.453125 217.246094 L 95.175781 217.246094 L 95.175781 294.75 L 374.453125 294.75 L 374.453125 311.839844 C 374.453125 315.527344 378.855469 317.4375 381.546875 314.917969 L 441.195312 259.074219 C 442.972656 257.410156 442.972656 254.589844 441.195312 252.925781 Z M 441.195312 252.925781 " style=" stroke:none;fill-rule:nonzero;fill:rgb(98.823529%,52.54902%,74.901961%);fill-opacity:1;" />
<path d="M 510.664062 408.777344 L 451.015625 352.933594 C 448.324219 350.414062 443.921875 352.324219 443.921875 356.011719 L 443.921875 373.101562 L 95.175781 373.101562 L 95.175781 450.605469 L 443.925781 450.605469 L 443.925781 467.691406 C 443.925781 471.378906 448.324219 473.289062 451.015625 470.769531 L 510.667969 414.925781 C 512.445312 413.261719 512.445312 410.441406 510.664062 408.777344 Z M 510.664062 408.777344 " style=" stroke:none;fill-rule:nonzero;fill:rgb(53.333333%,49.411765%,100%);fill-opacity:1;" />
<path d="M 208.6875 416.894531 C 211.601562 414.164062 211.601562 409.542969 208.6875 406.8125 L 172.675781 373.101562 L 95.175781 373.101562 L 95.175781 450.605469 L 172.675781 450.605469 Z M 208.6875 416.894531 " style=" stroke:none;fill-rule:nonzero;fill:rgb(37.647059%,37.647059%,95.686275%);fill-opacity:1;" />
<path d="M 95.175781 450.605469 L 148.285156 450.605469 C 171.289062 427.578125 171.195312 396.039062 148.300781 373.101562 L 95.175781 373.101562 Z M 95.175781 450.605469 " style=" stroke:none;fill-rule:nonzero;fill:rgb(29.803922%,29.803922%,92.941176%);fill-opacity:1;" />
<path d="M 208.6875 261.039062 C 211.601562 258.3125 211.601562 253.6875 208.6875 250.960938 L 172.675781 217.25 L 95.175781 217.25 L 95.175781 294.753906 L 172.675781 294.753906 Z M 208.6875 261.039062 " style=" stroke:none;fill-rule:nonzero;fill:rgb(96.862745%,32.941176%,69.411765%);fill-opacity:1;" />
<path d="M 95.175781 294.753906 L 148.304688 294.753906 C 168.394531 274.566406 171.738281 246.628906 153.796875 223.484375 C 152.105469 221.300781 150.25 219.226562 148.28125 217.246094 L 95.175781 217.246094 Z M 95.175781 294.753906 " style=" stroke:none;fill-rule:nonzero;fill:rgb(94.901961%,25.098039%,68.235294%);fill-opacity:1;" />
<path d="M 208.6875 105.1875 C 211.601562 102.460938 211.601562 97.835938 208.6875 95.109375 L 172.675781 61.394531 L 95.175781 61.394531 L 95.175781 138.898438 L 172.675781 138.898438 Z M 208.6875 105.1875 " style=" stroke:none;fill-rule:nonzero;fill:rgb(95.686275%,41.176471%,41.176471%);fill-opacity:1;" />
<path d="M 95.175781 138.898438 L 148.300781 138.898438 C 171.207031 115.949219 171.277344 84.410156 148.285156 61.394531 L 95.175781 61.394531 Z M 95.175781 138.898438 " style=" stroke:none;fill-rule:nonzero;fill:rgb(92.941176%,36.470588%,36.470588%);fill-opacity:1;" />
<path d="M 28.785156 137.980469 C 40.582031 154.441406 59.859375 165.175781 81.65625 165.175781 C 117.566406 165.175781 146.683594 136.0625 146.683594 100.148438 C 146.683594 75.757812 133.242188 54.515625 113.375 43.386719 C 77.855469 67.261719 48.65625 99.804688 28.785156 137.980469 Z M 28.785156 137.980469 " style=" stroke:none;fill-rule:nonzero;fill:rgb(98.431373%,56.862745%,54.117647%);fill-opacity:1;" />
<path d="M 137.964844 223.480469 C 120.007812 192.378906 80.242188 181.722656 49.140625 199.679688 C 18.039062 217.636719 7.382812 257.40625 25.339844 288.507812 C 43.296875 319.609375 83.066406 330.265625 114.167969 312.308594 C 145.265625 294.351562 155.921875 254.582031 137.964844 223.480469 Z M 137.964844 223.480469 " style=" stroke:none;fill-rule:nonzero;fill:rgb(98.823529%,52.54902%,74.901961%);fill-opacity:1;" />
<path d="M 56.300781 270.640625 C 41.445312 244.90625 46.1875 213.257812 65.875 192.921875 C 60.144531 194.355469 54.511719 196.585938 49.140625 199.683594 C 18.039062 217.640625 7.382812 257.410156 25.339844 288.515625 C 43.296875 319.617188 83.066406 330.273438 114.167969 312.316406 C 119.539062 309.214844 124.285156 305.453125 128.394531 301.207031 C 100.9375 308.085938 71.15625 296.371094 56.300781 270.640625 Z M 56.300781 270.640625 " style=" stroke:none;fill-rule:nonzero;fill:rgb(96.862745%,32.941176%,69.411765%);fill-opacity:1;" />
<path d="M 128.382812 145.34375 C 96.007812 153.453125 61.871094 135.613281 50.914062 102.808594 C 42.632812 113.878906 35.214844 125.628906 28.785156 137.980469 C 52.441406 171 100.238281 174.46875 128.382812 145.34375 Z M 128.382812 145.34375 " style=" stroke:none;fill-rule:nonzero;fill:rgb(95.686275%,41.176471%,41.176471%);fill-opacity:1;" />
<path d="M 81.65625 346.824219 C 59.859375 346.824219 40.582031 357.558594 28.785156 374.019531 C 48.65625 412.195312 77.855469 444.738281 113.378906 468.613281 C 133.246094 457.484375 146.683594 436.246094 146.683594 411.851562 C 146.683594 375.9375 117.570312 346.824219 81.65625 346.824219 Z M 81.65625 346.824219 " style=" stroke:none;fill-rule:nonzero;fill:rgb(53.333333%,49.411765%,100%);fill-opacity:1;" />
<path d="M 28.785156 374.019531 C 34.722656 385.425781 41.511719 396.316406 49.03125 406.640625 C 44.628906 386.113281 50.488281 364.558594 64.6875 349.070312 C 50.019531 353.03125 37.402344 361.992188 28.785156 374.019531 Z M 28.785156 374.019531 " style=" stroke:none;fill-rule:nonzero;fill:rgb(37.647059%,37.647059%,95.686275%);fill-opacity:1;" />
<path d="M 37.855469 121.980469 C 45.882812 138.046875 62.476562 149.085938 81.65625 149.085938 C 108.683594 149.085938 130.59375 127.175781 130.59375 100.148438 C 130.59375 79.039062 117.226562 61.046875 98.492188 54.183594 C 74.476562 72.957031 53.902344 95.921875 37.855469 121.980469 Z M 37.855469 121.980469 " style=" stroke:none;fill-rule:nonzero;fill:rgb(95.686275%,41.176471%,41.176471%);fill-opacity:1;" />
<path d="M 81.65625 149.085938 C 87.820312 149.085938 93.714844 147.9375 99.148438 145.855469 C 76.03125 140.960938 58.09375 124.304688 50.914062 102.808594 C 45.960938 109.433594 41.914062 115.4375 37.867188 122.003906 C 45.898438 138.058594 62.484375 149.085938 81.65625 149.085938 Z M 81.65625 149.085938 " style=" stroke:none;fill-rule:nonzero;fill:rgb(92.941176%,36.470588%,36.470588%);fill-opacity:1;" />
<path d="M 124.035156 231.523438 C 110.519531 208.117188 80.589844 200.097656 57.183594 213.613281 C 33.777344 227.125 25.757812 257.058594 39.273438 280.464844 C 52.785156 303.871094 82.714844 311.890625 106.121094 298.375 C 129.527344 284.859375 137.546875 254.929688 124.035156 231.523438 Z M 124.035156 231.523438 " style=" stroke:none;fill-rule:nonzero;fill:rgb(96.862745%,32.941176%,69.411765%);fill-opacity:1;" />
<path d="M 50.804688 218.007812 C 32.425781 232.894531 27.074219 259.339844 39.273438 280.46875 C 51.472656 301.601562 77.050781 310.1875 99.132812 301.714844 C 81.726562 298.023438 65.898438 287.261719 56.300781 270.640625 C 46.703125 254.015625 45.296875 234.925781 50.804688 218.007812 Z M 50.804688 218.007812 " style=" stroke:none;fill-rule:nonzero;fill:rgb(94.901961%,25.098039%,68.235294%);fill-opacity:1;" />
<path d="M 81.65625 362.914062 C 62.476562 362.914062 45.882812 373.953125 37.855469 390.019531 C 53.902344 416.078125 74.476562 439.046875 98.492188 457.816406 C 117.226562 450.953125 130.59375 432.964844 130.59375 411.851562 C 130.59375 384.824219 108.683594 362.914062 81.65625 362.914062 Z M 81.65625 362.914062 " style=" stroke:none;fill-rule:nonzero;fill:rgb(37.647059%,37.647059%,95.686275%);fill-opacity:1;" />
<path d="M 37.867188 390.003906 C 41.378906 395.695312 45.101562 401.25 49.035156 406.640625 C 46.703125 395.769531 47.25 384.613281 50.386719 374.21875 C 45.199219 378.539062 40.914062 383.90625 37.867188 390.003906 Z M 37.867188 390.003906 " style=" stroke:none;fill-rule:nonzero;fill:rgb(29.803922%,29.803922%,92.941176%);fill-opacity:1;" />
<path d="M 87.261719 109.160156 L 76.046875 109.160156 C 71.070312 109.160156 67.035156 105.125 67.035156 100.148438 C 67.035156 95.167969 71.070312 91.132812 76.046875 91.132812 L 87.261719 91.132812 C 92.242188 91.132812 96.277344 95.167969 96.277344 100.148438 C 96.277344 105.125 92.242188 109.160156 87.261719 109.160156 Z M 87.261719 109.160156 " style=" stroke:none;fill-rule:nonzero;fill:rgb(98.431373%,56.862745%,54.117647%);fill-opacity:1;" />
<path d="M 87.261719 265.011719 L 76.046875 265.011719 C 71.070312 265.011719 67.035156 260.980469 67.035156 256 C 67.035156 251.023438 71.070312 246.988281 76.046875 246.988281 L 87.261719 246.988281 C 92.242188 246.988281 96.277344 251.023438 96.277344 256 C 96.277344 260.976562 92.242188 265.011719 87.261719 265.011719 Z M 87.261719 265.011719 " style=" stroke:none;fill-rule:nonzero;fill:rgb(98.823529%,52.54902%,74.901961%);fill-opacity:1;" />
<path d="M 87.261719 420.863281 L 76.046875 420.863281 C 71.070312 420.863281 67.035156 416.832031 67.035156 411.851562 C 67.035156 406.875 71.070312 402.839844 76.046875 402.839844 L 87.261719 402.839844 C 92.242188 402.839844 96.277344 406.875 96.277344 411.851562 C 96.277344 416.832031 92.242188 420.863281 87.261719 420.863281 Z M 87.261719 420.863281 " style=" stroke:none;fill-rule:nonzero;fill:rgb(53.333333%,49.411765%,100%);fill-opacity:1;" />
</g>
</svg>