<svg xmlns="http://www.w3.org/2000/svg" height="512pt" version="1.1" viewBox="0 0 512 512.00021" width="512pt">
<g id="surface1">
<path d="M 511.996094 255.996094 C 511.996094 397.382812 397.382812 511.996094 256 511.996094 C 114.613281 511.996094 0 397.382812 0 255.996094 C 0 114.613281 114.613281 0 256 0 C 397.382812 0 511.996094 114.613281 511.996094 255.996094 Z M 511.996094 255.996094 " style=" stroke:none;fill-rule:nonzero;fill:rgb(6.27451%,29.019608%,48.627451%);fill-opacity:1;" />
<path d="M 39.613281 390.84375 C 84.472656 463.085938 164.300781 511.414062 255.617188 511.996094 C 346.933594 512.574219 427.371094 465.261719 473.140625 393.59375 Z M 39.613281 390.84375 " style=" stroke:none;fill-rule:nonzero;fill:rgb(4.705882%,22.745098%,42.745098%);fill-opacity:1;" />
<path d="M 258.269531 400.414062 L 258.300781 392.214844 L 39.230469 392.214844 C 84.542969 464.171875 164.679688 511.996094 256 511.996094 C 256.753906 511.996094 257.503906 511.984375 258.257812 511.976562 C 205.941406 443.527344 258.269531 400.414062 258.269531 400.414062 Z M 258.269531 400.414062 " style=" stroke:none;fill-rule:nonzero;fill:rgb(2.745098%,16.470588%,36.862745%);fill-opacity:1;" />
<path d="M 79.152344 147.140625 L 68.949219 147.140625 C 64.417969 147.140625 60.746094 143.46875 60.746094 138.941406 C 60.746094 134.410156 64.417969 130.738281 68.949219 130.738281 L 79.152344 130.738281 C 83.679688 130.738281 87.351562 134.410156 87.351562 138.941406 C 87.351562 143.46875 83.679688 147.140625 79.152344 147.140625 Z M 79.152344 147.140625 " style=" stroke:none;fill-rule:nonzero;fill:rgb(20.784314%,55.686275%,72.941176%);fill-opacity:1;" />
<path d="M 79.152344 197.792969 L 68.949219 197.792969 C 64.417969 197.792969 60.746094 194.125 60.746094 189.59375 C 60.746094 185.066406 64.417969 181.394531 68.949219 181.394531 L 79.152344 181.394531 C 83.679688 181.394531 87.351562 185.066406 87.351562 189.59375 C 87.351562 194.125 83.679688 197.792969 79.152344 197.792969 Z M 79.152344 197.792969 " style=" stroke:none;fill-rule:nonzero;fill:rgb(20.784314%,55.686275%,72.941176%);fill-opacity:1;" />
<path d="M 79.152344 248.449219 L 68.949219 248.449219 C 64.417969 248.449219 60.746094 244.777344 60.746094 240.25 C 60.746094 235.722656 64.417969 232.050781 68.949219 232.050781 L 79.152344 232.050781 C 83.679688 232.050781 87.351562 235.722656 87.351562 240.25 C 87.351562 244.78125 83.679688 248.449219 79.152344 248.449219 Z M 79.152344 248.449219 " style=" stroke:none;fill-rule:nonzero;fill:rgb(20.784314%,55.686275%,72.941176%);fill-opacity:1;" />
<path d="M 79.152344 299.105469 L 68.949219 299.105469 C 64.417969 299.105469 60.746094 295.433594 60.746094 290.90625 C 60.746094 286.375 64.417969 282.707031 68.949219 282.707031 L 79.152344 282.707031 C 83.679688 282.707031 87.351562 286.375 87.351562 290.90625 C 87.351562 295.433594 83.679688 299.105469 79.152344 299.105469 Z M 79.152344 299.105469 " style=" stroke:none;fill-rule:nonzero;fill:rgb(20.784314%,55.686275%,72.941176%);fill-opacity:1;" />
<path d="M 79.152344 349.761719 L 68.949219 349.761719 C 64.417969 349.761719 60.746094 346.089844 60.746094 341.558594 C 60.746094 337.03125 64.417969 333.359375 68.949219 333.359375 L 79.152344 333.359375 C 83.679688 333.359375 87.351562 337.03125 87.351562 341.558594 C 87.351562 346.089844 83.679688 349.761719 79.152344 349.761719 Z M 79.152344 349.761719 " style=" stroke:none;fill-rule:nonzero;fill:rgb(20.784314%,55.686275%,72.941176%);fill-opacity:1;" />
<path d="M 42.382812 147.140625 L 42.261719 147.140625 C 37.734375 147.140625 34.0625 143.46875 34.0625 138.941406 C 34.0625 134.410156 37.734375 130.738281 42.261719 130.738281 L 42.382812 130.738281 C 46.914062 130.738281 50.585938 134.410156 50.585938 138.941406 C 50.585938 143.46875 46.914062 147.140625 42.382812 147.140625 Z M 42.382812 147.140625 " style=" stroke:none;fill-rule:nonzero;fill:rgb(20.784314%,55.686275%,72.941176%);fill-opacity:1;" />
<path d="M 42.382812 197.792969 L 42.261719 197.792969 C 37.734375 197.792969 34.0625 194.125 34.0625 189.59375 C 34.0625 185.066406 37.734375 181.394531 42.261719 181.394531 L 42.382812 181.394531 C 46.914062 181.394531 50.585938 185.066406 50.585938 189.59375 C 50.585938 194.125 46.914062 197.792969 42.382812 197.792969 Z M 42.382812 197.792969 " style=" stroke:none;fill-rule:nonzero;fill:rgb(20.784314%,55.686275%,72.941176%);fill-opacity:1;" />
<path d="M 42.382812 248.449219 L 42.261719 248.449219 C 37.734375 248.449219 34.0625 244.777344 34.0625 240.25 C 34.0625 235.722656 37.734375 232.050781 42.261719 232.050781 L 42.382812 232.050781 C 46.914062 232.050781 50.585938 235.722656 50.585938 240.25 C 50.585938 244.78125 46.914062 248.449219 42.382812 248.449219 Z M 42.382812 248.449219 " style=" stroke:none;fill-rule:nonzero;fill:rgb(20.784314%,55.686275%,72.941176%);fill-opacity:1;" />
<path d="M 42.382812 299.105469 L 42.261719 299.105469 C 37.734375 299.105469 34.0625 295.433594 34.0625 290.90625 C 34.0625 286.375 37.734375 282.707031 42.261719 282.707031 L 42.382812 282.707031 C 46.914062 282.707031 50.585938 286.375 50.585938 290.90625 C 50.585938 295.433594 46.914062 299.105469 42.382812 299.105469 Z M 42.382812 299.105469 " style=" stroke:none;fill-rule:nonzero;fill:rgb(20.784314%,55.686275%,72.941176%);fill-opacity:1;" />
<path d="M 42.382812 349.761719 L 42.261719 349.761719 C 37.734375 349.761719 34.0625 346.089844 34.0625 341.558594 C 34.0625 337.03125 37.734375 333.359375 42.261719 333.359375 L 42.382812 333.359375 C 46.914062 333.359375 50.585938 337.03125 50.585938 341.558594 C 50.585938 346.089844 46.914062 349.761719 42.382812 349.761719 Z M 42.382812 349.761719 " style=" stroke:none;fill-rule:nonzero;fill:rgb(20.784314%,55.686275%,72.941176%);fill-opacity:1;" />
<path d="M 129.808594 410.621094 C 125.277344 410.621094 121.605469 406.949219 121.605469 402.417969 L 121.605469 392.21875 C 121.605469 387.6875 125.277344 384.015625 129.808594 384.015625 C 134.335938 384.015625 138.007812 387.6875 138.007812 392.21875 L 138.007812 402.421875 C 138.007812 406.949219 134.335938 410.621094 129.808594 410.621094 Z M 129.808594 410.621094 " style=" stroke:none;fill-rule:nonzero;fill:rgb(20.784314%,55.686275%,72.941176%);fill-opacity:1;" />
<path d="M 180.460938 410.621094 C 175.933594 410.621094 172.261719 406.949219 172.261719 402.417969 L 172.261719 392.21875 C 172.261719 387.6875 175.933594 384.015625 180.460938 384.015625 C 184.992188 384.015625 188.664062 387.6875 188.664062 392.21875 L 188.664062 402.421875 C 188.660156 406.949219 184.992188 410.621094 180.460938 410.621094 Z M 180.460938 410.621094 " style=" stroke:none;fill-rule:nonzero;fill:rgb(20.784314%,55.686275%,72.941176%);fill-opacity:1;" />
<path d="M 231.117188 410.621094 C 226.589844 410.621094 222.917969 406.949219 222.917969 402.417969 L 222.917969 392.21875 C 222.917969 387.6875 226.589844 384.015625 231.117188 384.015625 C 235.644531 384.015625 239.316406 387.6875 239.316406 392.21875 L 239.316406 402.421875 C 239.316406 406.949219 235.644531 410.621094 231.117188 410.621094 Z M 231.117188 410.621094 " style=" stroke:none;fill-rule:nonzero;fill:rgb(20.784314%,55.686275%,72.941176%);fill-opacity:1;" />
<path d="M 281.773438 410.621094 C 277.242188 410.621094 273.574219 406.949219 273.574219 402.417969 L 273.574219 392.21875 C 273.574219 387.6875 277.242188 384.015625 281.773438 384.015625 C 286.300781 384.015625 289.972656 387.6875 289.972656 392.21875 L 289.972656 402.421875 C 289.972656 406.949219 286.300781 410.621094 281.773438 410.621094 Z M 281.773438 410.621094 " style=" stroke:none;fill-rule:nonzero;fill:rgb(24.313725%,64.313725%,80%);fill-opacity:1;" />
<path d="M 332.429688 410.621094 C 327.898438 410.621094 324.230469 406.949219 324.230469 402.417969 L 324.230469 392.21875 C 324.230469 387.6875 327.898438 384.015625 332.429688 384.015625 C 336.957031 384.015625 340.628906 387.6875 340.628906 392.21875 L 340.628906 402.421875 C 340.628906 406.949219 336.957031 410.621094 332.429688 410.621094 Z M 332.429688 410.621094 " style=" stroke:none;fill-rule:nonzero;fill:rgb(24.313725%,64.313725%,80%);fill-opacity:1;" />
<path d="M 383.082031 410.621094 C 378.554688 410.621094 374.882812 406.949219 374.882812 402.417969 L 374.882812 392.21875 C 374.882812 387.6875 378.554688 384.015625 383.082031 384.015625 C 387.613281 384.015625 391.28125 387.6875 391.28125 392.21875 L 391.28125 402.421875 C 391.28125 406.949219 387.613281 410.621094 383.082031 410.621094 Z M 383.082031 410.621094 " style=" stroke:none;fill-rule:nonzero;fill:rgb(24.313725%,64.313725%,80%);fill-opacity:1;" />
<path d="M 433.738281 410.621094 C 429.210938 410.621094 425.539062 406.949219 425.539062 402.417969 L 425.539062 392.21875 C 425.539062 387.6875 429.210938 384.015625 433.738281 384.015625 C 438.269531 384.015625 441.9375 387.6875 441.9375 392.21875 L 441.9375 402.421875 C 441.9375 406.949219 438.265625 410.621094 433.738281 410.621094 Z M 433.738281 410.621094 " style=" stroke:none;fill-rule:nonzero;fill:rgb(24.313725%,64.313725%,80%);fill-opacity:1;" />
<path d="M 129.804688 436.605469 C 125.277344 436.605469 121.605469 432.933594 121.605469 428.40625 L 121.605469 428.234375 C 121.605469 423.707031 125.277344 420.035156 129.804688 420.035156 C 134.335938 420.035156 138.003906 423.707031 138.003906 428.234375 L 138.003906 428.40625 C 138.003906 432.933594 134.332031 436.605469 129.804688 436.605469 Z M 129.804688 436.605469 " style=" stroke:none;fill-rule:nonzero;fill:rgb(20.784314%,55.686275%,72.941176%);fill-opacity:1;" />
<path d="M 180.460938 436.605469 C 175.933594 436.605469 172.261719 432.933594 172.261719 428.40625 L 172.261719 428.234375 C 172.261719 423.707031 175.933594 420.035156 180.460938 420.035156 C 184.988281 420.035156 188.660156 423.707031 188.660156 428.234375 L 188.660156 428.40625 C 188.660156 432.933594 184.988281 436.605469 180.460938 436.605469 Z M 180.460938 436.605469 " style=" stroke:none;fill-rule:nonzero;fill:rgb(20.784314%,55.686275%,72.941176%);fill-opacity:1;" />
<path d="M 231.117188 436.605469 C 226.585938 436.605469 222.914062 432.933594 222.914062 428.40625 L 222.914062 428.234375 C 222.914062 423.707031 226.585938 420.035156 231.117188 420.035156 C 235.644531 420.035156 239.316406 423.707031 239.316406 428.234375 L 239.316406 428.40625 C 239.3125 432.933594 235.644531 436.605469 231.117188 436.605469 Z M 231.117188 436.605469 " style=" stroke:none;fill-rule:nonzero;fill:rgb(20.784314%,55.686275%,72.941176%);fill-opacity:1;" />
<path d="M 281.769531 436.605469 C 277.242188 436.605469 273.570312 432.933594 273.570312 428.40625 L 273.570312 428.234375 C 273.570312 423.707031 277.242188 420.035156 281.769531 420.035156 C 286.300781 420.035156 289.972656 423.707031 289.972656 428.234375 L 289.972656 428.40625 C 289.96875 432.933594 286.300781 436.605469 281.769531 436.605469 Z M 281.769531 436.605469 " style=" stroke:none;fill-rule:nonzero;fill:rgb(24.313725%,64.313725%,80%);fill-opacity:1;" />
<path d="M 332.425781 436.605469 C 327.898438 436.605469 324.226562 432.933594 324.226562 428.40625 L 324.226562 428.234375 C 324.226562 423.707031 327.898438 420.035156 332.425781 420.035156 C 336.953125 420.035156 340.625 423.707031 340.625 428.234375 L 340.625 428.40625 C 340.625 432.933594 336.953125 436.605469 332.425781 436.605469 Z M 332.425781 436.605469 " style=" stroke:none;fill-rule:nonzero;fill:rgb(24.313725%,64.313725%,80%);fill-opacity:1;" />
<path d="M 383.082031 436.605469 C 378.550781 436.605469 374.882812 432.933594 374.882812 428.40625 L 374.882812 428.234375 C 374.882812 423.707031 378.550781 420.035156 383.082031 420.035156 C 387.609375 420.035156 391.28125 423.707031 391.28125 428.234375 L 391.28125 428.40625 C 391.28125 432.933594 387.609375 436.605469 383.082031 436.605469 Z M 383.082031 436.605469 " style=" stroke:none;fill-rule:nonzero;fill:rgb(24.313725%,64.313725%,80%);fill-opacity:1;" />
<path d="M 433.738281 436.605469 C 429.207031 436.605469 425.535156 432.933594 425.535156 428.40625 L 425.535156 428.234375 C 425.535156 423.707031 429.207031 420.035156 433.738281 420.035156 C 438.265625 420.035156 441.9375 423.707031 441.9375 428.234375 L 441.9375 428.40625 C 441.9375 432.933594 438.265625 436.605469 433.738281 436.605469 Z M 433.738281 436.605469 " style=" stroke:none;fill-rule:nonzero;fill:rgb(24.313725%,64.313725%,80%);fill-opacity:1;" />
<path d="M 477.726562 384.015625 L 68.949219 384.015625 C 64.417969 384.015625 60.746094 387.6875 60.746094 392.21875 C 60.746094 396.746094 64.417969 400.417969 68.949219 400.417969 L 467.382812 400.417969 C 471.03125 395.089844 474.484375 389.621094 477.726562 384.015625 Z M 477.726562 384.015625 " style=" stroke:none;fill-rule:nonzero;fill:rgb(20.784314%,55.686275%,72.941176%);fill-opacity:1;" />
<path d="M 70.953125 79.105469 L 70.953125 402.421875 C 70.953125 406.949219 74.625 410.621094 79.152344 410.621094 C 83.679688 410.621094 87.351562 406.949219 87.351562 402.421875 L 87.351562 63.414062 C 81.660156 68.40625 76.183594 73.636719 70.953125 79.105469 Z M 70.953125 79.105469 " style=" stroke:none;fill-rule:nonzero;fill:rgb(13.72549%,42.352941%,60.784314%);fill-opacity:1;" />
<path d="M 511.445312 313.308594 L 494.273438 263.984375 C 492.484375 258.847656 486.871094 256.132812 481.742188 257.921875 C 476.609375 259.710938 473.894531 265.320312 475.683594 270.453125 L 485.238281 297.90625 L 381.328125 250.148438 L 261.257812 70.042969 C 258.503906 65.914062 253.105469 64.480469 248.664062 66.699219 L 127.046875 127.507812 C 122.183594 129.9375 120.214844 135.851562 122.644531 140.710938 C 125.078125 145.574219 130.988281 147.542969 135.851562 145.113281 L 249.695312 88.191406 L 366.496094 263.386719 C 367.503906 264.902344 368.917969 266.109375 370.574219 266.871094 L 475.875 315.265625 L 449.589844 324.417969 C 444.457031 326.207031 441.742188 331.816406 443.53125 336.949219 C 445.320312 342.09375 450.9375 344.792969 456.0625 343.011719 L 505.386719 325.839844 C 510.519531 324.050781 513.234375 318.441406 511.445312 313.308594 Z M 511.445312 313.308594 " style=" stroke:none;fill-rule:nonzero;fill:rgb(98.431373%,56.862745%,54.117647%);fill-opacity:1;" />
<path d="M 335.910156 182.023438 L 261.257812 70.042969 C 258.503906 65.914062 253.105469 64.480469 248.664062 66.699219 L 127.046875 127.507812 C 122.183594 129.9375 120.214844 135.851562 122.644531 140.714844 C 125.078125 145.578125 130.988281 147.542969 135.851562 145.113281 L 249.695312 88.191406 L 320.238281 194.003906 C 319.746094 185.484375 327.980469 179.355469 335.910156 182.023438 Z M 335.910156 182.023438 " style=" stroke:none;fill-rule:nonzero;fill:rgb(95.686275%,41.176471%,41.176471%);fill-opacity:1;" />
<path d="M 252.625 392.21875 C 252.625 388.472656 254.96875 385.28125 258.269531 384.015625 L 68.949219 384.015625 C 64.417969 384.015625 60.746094 387.6875 60.746094 392.21875 C 60.746094 396.746094 64.417969 400.417969 68.949219 400.417969 L 258.269531 400.417969 C 254.96875 399.152344 252.625 395.960938 252.625 392.21875 Z M 252.625 392.21875 " style=" stroke:none;fill-rule:nonzero;fill:rgb(13.72549%,42.352941%,60.784314%);fill-opacity:1;" />
</g>
</svg>