<svg xmlns="http://www.w3.org/2000/svg" height="512pt" version="1.1" viewBox="0 0 512 512" width="512pt">
<g id="surface1">
<path d="M 512 256 C 512 397.386719 397.386719 512 256 512 C 114.613281 512 0 397.386719 0 256 C 0 114.613281 114.613281 0 256 0 C 397.386719 0 512 114.613281 512 256 Z M 512 256 " style=" stroke:none;fill-rule:nonzero;fill:rgb(6.27451%,29.019608%,48.627451%);fill-opacity:1;" />
<path d="M 38.023438 390.289062 C 138.023438 552.257812 373.691406 552.71875 473.972656 390.289062 Z M 38.023438 390.289062 " style=" stroke:none;fill-rule:nonzero;fill:rgb(4.705882%,22.745098%,42.745098%);fill-opacity:1;" />
<path d="M 246.859375 390.289062 L 38.023438 390.289062 C 81.578125 460.832031 158.402344 508.648438 246.617188 511.824219 C 203.683594 482.558594 203.875 419.335938 246.859375 390.289062 Z M 246.859375 390.289062 " style=" stroke:none;fill-rule:nonzero;fill:rgb(2.745098%,16.470588%,36.862745%);fill-opacity:1;" />
<path d="M 480.476562 132.859375 L 470.085938 132.859375 C 466.597656 132.859375 463.765625 135.6875 463.765625 139.179688 L 463.765625 390.289062 L 473.972656 390.289062 C 498.078125 351.246094 512 305.253906 512 256 C 512 211.359375 500.5625 169.394531 480.476562 132.859375 Z M 480.476562 132.859375 " style=" stroke:none;fill-rule:nonzero;fill:rgb(25.098039%,62.352941%,96.078431%);fill-opacity:1;" />
<path d="M 489.511719 150.960938 C 486.730469 144.792969 483.71875 138.753906 480.476562 132.859375 L 470.085938 132.859375 C 466.597656 132.859375 463.765625 135.6875 463.765625 139.179688 L 463.765625 390.289062 L 473.972656 390.289062 C 479.757812 380.921875 484.949219 371.144531 489.511719 361.027344 Z M 489.511719 150.960938 " style=" stroke:none;fill-rule:nonzero;fill:rgb(5.490196%,55.294118%,85.882353%);fill-opacity:1;" />
<path d="M 412.28125 390.289062 L 412.28125 350.277344 C 412.28125 346.785156 409.453125 343.953125 405.960938 343.953125 L 367.117188 343.953125 C 363.625 343.953125 360.796875 346.785156 360.796875 350.277344 L 360.796875 390.289062 Z M 412.28125 390.289062 " style=" stroke:none;fill-rule:nonzero;fill:rgb(53.333333%,49.411765%,100%);fill-opacity:1;" />
<path d="M 392.859375 343.953125 L 367.113281 343.953125 C 363.625 343.953125 360.792969 346.785156 360.792969 350.277344 L 360.792969 390.289062 L 386.539062 390.289062 L 386.539062 350.277344 C 386.539062 346.785156 389.367188 343.953125 392.859375 343.953125 Z M 392.859375 343.953125 " style=" stroke:none;fill-rule:nonzero;fill:rgb(37.647059%,37.647059%,95.686275%);fill-opacity:1;" />
<path d="M 206.335938 390.289062 L 206.335938 293.636719 C 206.335938 290.148438 203.507812 287.316406 200.015625 287.316406 L 161.171875 287.316406 C 157.679688 287.316406 154.851562 290.148438 154.851562 293.636719 L 154.851562 390.289062 Z M 206.335938 390.289062 " style=" stroke:none;fill-rule:nonzero;fill:rgb(98.431373%,56.862745%,54.117647%);fill-opacity:1;" />
<path d="M 186.914062 287.316406 L 161.171875 287.316406 C 157.679688 287.316406 154.851562 290.148438 154.851562 293.636719 L 154.851562 390.289062 L 180.59375 390.289062 L 180.59375 293.636719 C 180.59375 290.148438 183.425781 287.316406 186.914062 287.316406 Z M 186.914062 287.316406 " style=" stroke:none;fill-rule:nonzero;fill:rgb(95.686275%,41.176471%,41.176471%);fill-opacity:1;" />
<path d="M 309.308594 390.289062 L 309.308594 242.152344 C 309.308594 238.660156 306.480469 235.832031 302.988281 235.832031 L 264.144531 235.832031 C 260.652344 235.832031 257.820312 238.660156 257.820312 242.152344 L 257.820312 390.289062 Z M 309.308594 390.289062 " style=" stroke:none;fill-rule:nonzero;fill:rgb(98.823529%,52.54902%,74.901961%);fill-opacity:1;" />
<path d="M 289.886719 235.832031 L 264.144531 235.832031 C 260.652344 235.832031 257.824219 238.660156 257.824219 242.152344 L 257.824219 390.289062 L 283.566406 390.289062 L 283.566406 242.152344 C 283.566406 238.660156 286.394531 235.832031 289.886719 235.832031 Z M 289.886719 235.832031 " style=" stroke:none;fill-rule:nonzero;fill:rgb(96.862745%,32.941176%,69.411765%);fill-opacity:1;" />
<path d="M 77.625 141.191406 L 67.253906 141.191406 C 62.648438 141.191406 58.917969 137.460938 58.917969 132.859375 C 58.917969 128.253906 62.648438 124.523438 67.253906 124.523438 L 77.625 124.523438 C 82.226562 124.523438 85.957031 128.253906 85.957031 132.859375 C 85.957031 137.460938 82.226562 141.191406 77.625 141.191406 Z M 77.625 141.191406 " style=" stroke:none;fill-rule:nonzero;fill:rgb(20.784314%,55.686275%,72.941176%);fill-opacity:1;" />
<path d="M 77.625 192.679688 L 67.253906 192.679688 C 62.648438 192.679688 58.917969 188.949219 58.917969 184.34375 C 58.917969 179.742188 62.648438 176.011719 67.253906 176.011719 L 77.625 176.011719 C 82.226562 176.011719 85.957031 179.742188 85.957031 184.34375 C 85.957031 188.949219 82.226562 192.679688 77.625 192.679688 Z M 77.625 192.679688 " style=" stroke:none;fill-rule:nonzero;fill:rgb(20.784314%,55.686275%,72.941176%);fill-opacity:1;" />
<path d="M 77.625 244.164062 L 67.253906 244.164062 C 62.648438 244.164062 58.917969 240.433594 58.917969 235.832031 C 58.917969 231.226562 62.648438 227.496094 67.253906 227.496094 L 77.625 227.496094 C 82.226562 227.496094 85.957031 231.226562 85.957031 235.832031 C 85.957031 240.433594 82.226562 244.164062 77.625 244.164062 Z M 77.625 244.164062 " style=" stroke:none;fill-rule:nonzero;fill:rgb(20.784314%,55.686275%,72.941176%);fill-opacity:1;" />
<path d="M 77.625 295.648438 L 67.253906 295.648438 C 62.648438 295.648438 58.917969 291.917969 58.917969 287.316406 C 58.917969 282.714844 62.648438 278.980469 67.253906 278.980469 L 77.625 278.980469 C 82.226562 278.980469 85.957031 282.714844 85.957031 287.316406 C 85.957031 291.921875 82.226562 295.648438 77.625 295.648438 Z M 77.625 295.648438 " style=" stroke:none;fill-rule:nonzero;fill:rgb(20.784314%,55.686275%,72.941176%);fill-opacity:1;" />
<path d="M 77.625 347.136719 L 67.253906 347.136719 C 62.648438 347.136719 58.917969 343.40625 58.917969 338.804688 C 58.917969 334.199219 62.648438 330.46875 67.253906 330.46875 L 77.625 330.46875 C 82.226562 330.46875 85.957031 334.199219 85.957031 338.804688 C 85.957031 343.40625 82.226562 347.136719 77.625 347.136719 Z M 77.625 347.136719 " style=" stroke:none;fill-rule:nonzero;fill:rgb(20.784314%,55.686275%,72.941176%);fill-opacity:1;" />
<path d="M 40.253906 141.191406 L 40.128906 141.191406 C 35.527344 141.191406 31.796875 137.460938 31.796875 132.859375 C 31.796875 128.253906 35.527344 124.523438 40.128906 124.523438 L 40.253906 124.523438 C 44.859375 124.523438 48.589844 128.253906 48.589844 132.859375 C 48.589844 137.460938 44.855469 141.191406 40.253906 141.191406 Z M 40.253906 141.191406 " style=" stroke:none;fill-rule:nonzero;fill:rgb(20.784314%,55.686275%,72.941176%);fill-opacity:1;" />
<path d="M 40.253906 192.679688 L 40.128906 192.679688 C 35.527344 192.679688 31.796875 188.949219 31.796875 184.34375 C 31.796875 179.742188 35.527344 176.011719 40.128906 176.011719 L 40.253906 176.011719 C 44.859375 176.011719 48.589844 179.742188 48.589844 184.34375 C 48.589844 188.949219 44.855469 192.679688 40.253906 192.679688 Z M 40.253906 192.679688 " style=" stroke:none;fill-rule:nonzero;fill:rgb(20.784314%,55.686275%,72.941176%);fill-opacity:1;" />
<path d="M 40.253906 244.164062 L 40.128906 244.164062 C 35.527344 244.164062 31.796875 240.433594 31.796875 235.832031 C 31.796875 231.226562 35.527344 227.496094 40.128906 227.496094 L 40.253906 227.496094 C 44.859375 227.496094 48.589844 231.226562 48.589844 235.832031 C 48.589844 240.433594 44.855469 244.164062 40.253906 244.164062 Z M 40.253906 244.164062 " style=" stroke:none;fill-rule:nonzero;fill:rgb(20.784314%,55.686275%,72.941176%);fill-opacity:1;" />
<path d="M 40.253906 295.648438 L 40.128906 295.648438 C 35.527344 295.648438 31.796875 291.917969 31.796875 287.316406 C 31.796875 282.714844 35.527344 278.980469 40.128906 278.980469 L 40.253906 278.980469 C 44.859375 278.980469 48.589844 282.714844 48.589844 287.316406 C 48.589844 291.921875 44.855469 295.648438 40.253906 295.648438 Z M 40.253906 295.648438 " style=" stroke:none;fill-rule:nonzero;fill:rgb(20.784314%,55.686275%,72.941176%);fill-opacity:1;" />
<path d="M 40.253906 347.136719 L 40.128906 347.136719 C 35.527344 347.136719 31.796875 343.40625 31.796875 338.804688 C 31.796875 334.199219 35.527344 330.46875 40.128906 330.46875 L 40.253906 330.46875 C 44.859375 330.46875 48.589844 334.199219 48.589844 338.804688 C 48.589844 343.40625 44.855469 347.136719 40.253906 347.136719 Z M 40.253906 347.136719 " style=" stroke:none;fill-rule:nonzero;fill:rgb(20.784314%,55.686275%,72.941176%);fill-opacity:1;" />
<path d="M 180.597656 408.992188 C 175.992188 408.992188 172.261719 405.261719 172.261719 400.660156 L 172.261719 390.289062 C 172.261719 385.6875 175.992188 381.953125 180.597656 381.953125 C 185.199219 381.953125 188.929688 385.6875 188.929688 390.289062 L 188.929688 400.660156 C 188.929688 405.261719 185.199219 408.992188 180.597656 408.992188 Z M 180.597656 408.992188 " style=" stroke:none;fill-rule:nonzero;fill:rgb(20.784314%,55.686275%,72.941176%);fill-opacity:1;" />
<path d="M 283.566406 408.992188 C 278.964844 408.992188 275.234375 405.261719 275.234375 400.660156 L 275.234375 390.289062 C 275.234375 385.6875 278.964844 381.953125 283.566406 381.953125 C 288.171875 381.953125 291.902344 385.6875 291.902344 390.289062 L 291.902344 400.660156 C 291.902344 405.261719 288.171875 408.992188 283.566406 408.992188 Z M 283.566406 408.992188 " style=" stroke:none;fill-rule:nonzero;fill:rgb(24.313725%,64.313725%,80%);fill-opacity:1;" />
<path d="M 386.539062 408.992188 C 381.9375 408.992188 378.207031 405.261719 378.207031 400.660156 L 378.207031 390.289062 C 378.207031 385.6875 381.9375 381.953125 386.539062 381.953125 C 391.144531 381.953125 394.875 385.6875 394.875 390.289062 L 394.875 400.660156 C 394.875 405.261719 391.144531 408.992188 386.539062 408.992188 Z M 386.539062 408.992188 " style=" stroke:none;fill-rule:nonzero;fill:rgb(24.313725%,64.313725%,80%);fill-opacity:1;" />
<path d="M 180.59375 435.402344 C 175.992188 435.402344 172.261719 431.671875 172.261719 427.070312 L 172.261719 426.898438 C 172.261719 422.296875 175.992188 418.566406 180.59375 418.566406 C 185.195312 418.566406 188.929688 422.296875 188.929688 426.898438 L 188.929688 427.070312 C 188.929688 431.675781 185.195312 435.402344 180.59375 435.402344 Z M 180.59375 435.402344 " style=" stroke:none;fill-rule:nonzero;fill:rgb(20.784314%,55.686275%,72.941176%);fill-opacity:1;" />
<path d="M 283.566406 435.402344 C 278.964844 435.402344 275.230469 431.671875 275.230469 427.070312 L 275.230469 426.898438 C 275.230469 422.296875 278.964844 418.566406 283.566406 418.566406 C 288.167969 418.566406 291.898438 422.296875 291.898438 426.898438 L 291.898438 427.070312 C 291.898438 431.675781 288.167969 435.402344 283.566406 435.402344 Z M 283.566406 435.402344 " style=" stroke:none;fill-rule:nonzero;fill:rgb(24.313725%,64.313725%,80%);fill-opacity:1;" />
<path d="M 386.539062 435.402344 C 381.933594 435.402344 378.203125 431.671875 378.203125 427.070312 L 378.203125 426.898438 C 378.203125 422.296875 381.933594 418.566406 386.539062 418.566406 C 391.140625 418.566406 394.871094 422.296875 394.871094 426.898438 L 394.871094 427.070312 C 394.871094 431.675781 391.140625 435.402344 386.539062 435.402344 Z M 386.539062 435.402344 " style=" stroke:none;fill-rule:nonzero;fill:rgb(24.313725%,64.313725%,80%);fill-opacity:1;" />
<path d="M 478.90625 381.953125 L 67.253906 381.953125 C 62.648438 381.953125 58.917969 385.6875 58.917969 390.289062 C 58.917969 394.890625 62.648438 398.621094 67.253906 398.621094 L 468.613281 398.621094 C 472.253906 393.210938 475.679688 387.648438 478.90625 381.953125 Z M 478.90625 381.953125 " style=" stroke:none;fill-rule:nonzero;fill:rgb(20.784314%,55.686275%,72.941176%);fill-opacity:1;" />
<path d="M 236.375 381.953125 L 67.253906 381.953125 C 62.648438 381.953125 58.917969 385.6875 58.917969 390.289062 C 58.917969 394.890625 62.648438 398.621094 67.253906 398.621094 L 236.375 398.621094 C 229.027344 395.515625 229.015625 385.066406 236.375 381.953125 Z M 236.375 381.953125 " style=" stroke:none;fill-rule:nonzero;fill:rgb(13.72549%,42.352941%,60.784314%);fill-opacity:1;" />
<path d="M 69.289062 80.878906 L 69.289062 400.660156 C 69.289062 405.261719 73.019531 408.992188 77.625 408.992188 C 82.226562 408.992188 85.957031 405.261719 85.957031 400.660156 L 85.957031 64.652344 C 80.160156 69.808594 74.597656 75.222656 69.289062 80.878906 Z M 69.289062 80.878906 " style=" stroke:none;fill-rule:nonzero;fill:rgb(13.72549%,42.352941%,60.784314%);fill-opacity:1;" />
</g>
</svg>