<svg xmlns="http://www.w3.org/2000/svg" height="512pt" version="1.1" viewBox="0 -12 512.00042 512" width="512pt">
<g id="surface1">
<path d="M 500.039062 244.039062 C 500.039062 378.816406 390.777344 488.078125 256 488.078125 C 121.222656 488.078125 11.960938 378.816406 11.960938 244.039062 C 11.960938 109.257812 121.222656 0 256 0 C 390.777344 0 500.039062 109.257812 500.039062 244.039062 Z M 500.039062 244.039062 " style=" stroke:none;fill-rule:nonzero;fill:rgb(6.27451%,29.019608%,48.627451%);fill-opacity:1;" />
<path d="M 84.542969 200.207031 L 244.914062 83.960938 C 248.222656 81.5625 252.109375 80.367188 256 80.367188 L 256 0 C 251.390625 0 246.78125 1.421875 242.867188 4.265625 L 9.210938 174.027344 C 5.300781 176.867188 2.527344 180.804688 1.101562 185.179688 L 77.644531 209.730469 C 78.84375 205.992188 81.203125 202.625 84.542969 200.207031 Z M 84.542969 200.207031 " style=" stroke:none;fill-rule:nonzero;fill:rgb(96.862745%,87.45098%,60.392157%);fill-opacity:1;" />
<path d="M 138.632812 410.214844 L 77.652344 221.300781 C 76.40625 217.445312 76.464844 213.40625 77.644531 209.730469 L 1.101562 185.183594 C -0.328125 189.570312 -0.402344 194.398438 1.09375 199.007812 C 4.199219 208.558594 63.15625 390.015625 65.121094 396.066406 C 81.71875 416.878906 101.640625 434.925781 124.097656 449.378906 L 145.542969 419.714844 C 142.363281 417.417969 139.898438 414.132812 138.632812 410.214844 Z M 138.632812 410.214844 " style=" stroke:none;fill-rule:nonzero;fill:rgb(9.019608%,78.823529%,58.823529%);fill-opacity:1;" />
<path d="M 387.90625 449.382812 L 366.457031 419.714844 C 363.3125 421.988281 359.46875 423.300781 355.394531 423.300781 L 156.605469 423.300781 C 152.53125 423.300781 148.6875 421.988281 145.542969 419.714844 L 124.089844 449.386719 C 204.265625 500.992188 307.699219 501.011719 387.90625 449.382812 Z M 387.90625 449.382812 " style=" stroke:none;fill-rule:nonzero;fill:rgb(25.098039%,62.352941%,96.078431%);fill-opacity:1;" />
<path d="M 434.355469 209.730469 C 435.535156 213.40625 435.59375 217.441406 434.347656 221.300781 L 373.367188 410.214844 C 372.101562 414.132812 369.636719 417.417969 366.457031 419.714844 L 387.90625 449.378906 C 410.359375 434.925781 430.28125 416.878906 446.878906 396.066406 C 448.882812 389.898438 507.863281 208.371094 510.90625 199.007812 C 512.402344 194.398438 512.328125 189.570312 510.898438 185.183594 Z M 434.355469 209.730469 " style=" stroke:none;fill-rule:nonzero;fill:rgb(53.333333%,49.411765%,100%);fill-opacity:1;" />
<path d="M 267.082031 83.960938 L 427.457031 200.207031 C 430.796875 202.625 433.15625 205.992188 434.355469 209.730469 L 510.898438 185.179688 C 509.472656 180.804688 506.699219 176.871094 502.789062 174.027344 C 489.832031 164.613281 282.117188 13.703125 269.132812 4.269531 C 265.21875 1.421875 260.609375 0 256 0 L 256 80.367188 C 259.890625 80.367188 263.777344 81.5625 267.082031 83.960938 Z M 267.082031 83.960938 " style=" stroke:none;fill-rule:nonzero;fill:rgb(98.431373%,56.862745%,54.117647%);fill-opacity:1;" />
<path d="M 256 122.582031 L 256 80.367188 C 252.109375 80.367188 248.222656 81.5625 244.914062 83.960938 L 84.542969 200.207031 C 81.203125 202.625 78.84375 205.992188 77.644531 209.730469 L 117.9375 222.65625 Z M 256 122.582031 " style=" stroke:none;fill-rule:nonzero;fill:rgb(95.686275%,78.039216%,34.509804%);fill-opacity:1;" />
<path d="M 117.8125 222.746094 L 117.9375 222.65625 L 77.644531 209.730469 C 76.464844 213.40625 76.40625 217.441406 77.652344 221.300781 L 138.632812 410.214844 C 139.898438 414.132812 142.363281 417.417969 145.539062 419.714844 L 170.328125 385.433594 Z M 117.8125 222.746094 " style=" stroke:none;fill-rule:nonzero;fill:rgb(4.313725%,71.764706%,50.980392%);fill-opacity:1;" />
<path d="M 427.457031 200.207031 L 267.082031 83.960938 C 263.777344 81.5625 259.890625 80.367188 256 80.367188 L 256 122.582031 L 394.0625 222.652344 L 434.355469 209.730469 C 433.15625 205.992188 430.796875 202.625 427.457031 200.207031 Z M 427.457031 200.207031 " style=" stroke:none;fill-rule:nonzero;fill:rgb(95.686275%,41.176471%,41.176471%);fill-opacity:1;" />
<path d="M 341.640625 385.523438 L 170.359375 385.523438 L 170.328125 385.433594 L 145.542969 419.714844 C 148.6875 421.988281 152.53125 423.296875 156.609375 423.296875 L 355.394531 423.296875 C 359.46875 423.296875 363.3125 421.988281 366.457031 419.714844 L 341.671875 385.433594 Z M 341.640625 385.523438 " style=" stroke:none;fill-rule:nonzero;fill:rgb(5.490196%,55.294118%,85.882353%);fill-opacity:1;" />
<path d="M 394.1875 222.746094 L 341.671875 385.433594 L 366.457031 419.714844 C 369.636719 417.417969 372.101562 414.132812 373.367188 410.214844 L 434.347656 221.300781 C 435.589844 217.441406 435.535156 213.40625 434.355469 209.730469 L 394.0625 222.65625 Z M 394.1875 222.746094 " style=" stroke:none;fill-rule:nonzero;fill:rgb(37.647059%,37.647059%,95.686275%);fill-opacity:1;" />
<path d="M 155.125 68.015625 L 9.210938 174.027344 C 5.300781 176.871094 2.527344 180.804688 1.101562 185.179688 L 77.644531 209.730469 C 78.84375 205.992188 81.203125 202.625 84.542969 200.207031 L 165.863281 141.261719 C 143.578125 123.3125 139.046875 91.351562 155.125 68.015625 Z M 155.125 68.015625 " style=" stroke:none;fill-rule:nonzero;fill:rgb(95.686275%,78.039216%,34.509804%);fill-opacity:1;" />
<path d="M 165.863281 141.261719 L 84.542969 200.207031 C 81.203125 202.625 78.84375 205.992188 77.644531 209.730469 L 117.9375 222.65625 L 217.738281 150.3125 C 200.375 156.304688 180.75 153.257812 165.863281 141.261719 Z M 165.863281 141.261719 " style=" stroke:none;fill-rule:nonzero;fill:rgb(91.764706%,70.196078%,22.352941%);fill-opacity:1;" />
<path d="M 170.359375 385.523438 L 170.328125 385.433594 L 145.542969 419.714844 C 148.6875 421.988281 152.53125 423.296875 156.605469 423.296875 L 287.230469 423.296875 C 287.230469 408.621094 293.050781 395.3125 302.492188 385.523438 Z M 170.359375 385.523438 " style=" stroke:none;fill-rule:nonzero;fill:rgb(1.960784%,49.411765%,78.823529%);fill-opacity:1;" />
<path d="M 287.234375 423.300781 L 156.605469 423.300781 C 152.53125 423.300781 148.6875 421.988281 145.542969 419.714844 L 124.089844 449.386719 C 186.625 489.636719 262.75 498.136719 330.328125 476.546875 C 305.707031 471.324219 287.234375 449.472656 287.234375 423.300781 Z M 287.234375 423.300781 " style=" stroke:none;fill-rule:nonzero;fill:rgb(5.490196%,55.294118%,85.882353%);fill-opacity:1;" />
</g>
</svg>