<svg xmlns="http://www.w3.org/2000/svg" height="512pt" version="1.1" viewBox="0 0 512 512" width="512pt">
<g id="surface1">
<path d="M 512 256 C 512 397.386719 397.386719 512 256 512 C 114.613281 512 0 397.386719 0 256 C 0 114.613281 114.613281 0 256 0 C 397.386719 0 512 114.613281 512 256 Z M 512 256 " style=" stroke:none;fill-rule:nonzero;fill:rgb(6.27451%,29.019608%,48.627451%);fill-opacity:1;" />
<path d="M 46.300781 402.851562 C 92.605469 468.851562 169.257812 512 256 512 C 342.742188 512 419.394531 468.851562 465.699219 402.851562 Z M 46.300781 402.851562 " style=" stroke:none;fill-rule:nonzero;fill:rgb(4.705882%,22.745098%,42.745098%);fill-opacity:1;" />
<path d="M 280.101562 402.851562 L 46.300781 402.851562 C 92.605469 468.851562 169.257812 512 256 512 C 266.976562 512 277.792969 511.304688 288.40625 509.964844 C 241.152344 492.484375 236.042969 427.496094 280.101562 402.851562 Z M 280.101562 402.851562 " style=" stroke:none;fill-rule:nonzero;fill:rgb(2.745098%,16.470588%,36.862745%);fill-opacity:1;" />
<path d="M 134.085938 402.851562 L 134.085938 352.828125 C 134.085938 350.566406 132.253906 348.734375 129.996094 348.734375 L 84.0625 348.734375 C 81.800781 348.734375 79.96875 350.566406 79.96875 352.828125 L 79.96875 402.851562 Z M 134.085938 402.851562 " style=" stroke:none;fill-rule:nonzero;fill:rgb(53.333333%,49.411765%,100%);fill-opacity:1;" />
<path d="M 188.210938 402.851562 L 188.210938 298.703125 C 188.210938 296.445312 186.378906 294.613281 184.117188 294.613281 L 138.179688 294.613281 C 135.921875 294.613281 134.085938 296.445312 134.085938 298.703125 L 134.085938 402.851562 Z M 188.210938 402.851562 " style=" stroke:none;fill-rule:nonzero;fill:rgb(25.098039%,62.352941%,96.078431%);fill-opacity:1;" />
<path d="M 242.332031 402.851562 L 242.332031 352.824219 C 242.332031 350.566406 240.5 348.734375 238.238281 348.734375 L 192.300781 348.734375 C 190.039062 348.734375 188.207031 350.566406 188.207031 352.824219 L 188.207031 402.851562 Z M 242.332031 402.851562 " style=" stroke:none;fill-rule:nonzero;fill:rgb(53.333333%,49.411765%,100%);fill-opacity:1;" />
<path d="M 296.449219 402.851562 L 296.449219 244.585938 C 296.449219 242.324219 294.617188 240.492188 292.355469 240.492188 L 246.417969 240.492188 C 244.160156 240.492188 242.328125 242.324219 242.328125 244.585938 L 242.328125 402.855469 L 296.449219 402.855469 Z M 296.449219 402.851562 " style=" stroke:none;fill-rule:nonzero;fill:rgb(25.098039%,62.352941%,96.078431%);fill-opacity:1;" />
<path d="M 350.570312 402.851562 L 350.570312 190.464844 C 350.570312 188.203125 348.738281 186.371094 346.476562 186.371094 L 300.539062 186.371094 C 298.28125 186.371094 296.445312 188.203125 296.445312 190.464844 L 296.445312 402.851562 Z M 350.570312 402.851562 " style=" stroke:none;fill-rule:nonzero;fill:rgb(53.333333%,49.411765%,100%);fill-opacity:1;" />
<path d="M 404.691406 402.851562 L 404.691406 244.585938 C 404.691406 242.324219 402.859375 240.492188 400.597656 240.492188 L 354.660156 240.492188 C 352.398438 240.492188 350.566406 242.324219 350.566406 244.585938 L 350.566406 402.855469 L 404.691406 402.855469 Z M 404.691406 402.851562 " style=" stroke:none;fill-rule:nonzero;fill:rgb(25.098039%,62.352941%,96.078431%);fill-opacity:1;" />
<path d="M 458.8125 402.851562 L 458.8125 190.464844 C 458.8125 188.203125 456.980469 186.371094 454.71875 186.371094 L 408.78125 186.371094 C 406.519531 186.371094 404.6875 188.203125 404.6875 190.464844 L 404.6875 402.851562 Z M 458.8125 402.851562 " style=" stroke:none;fill-rule:nonzero;fill:rgb(53.333333%,49.411765%,100%);fill-opacity:1;" />
<path d="M 462.902344 132.25 C 460.640625 132.25 458.808594 134.085938 458.808594 136.34375 L 458.808594 402.851562 L 465.699219 402.851562 C 494.867188 361.277344 512 310.644531 512 256 C 512 211.113281 500.433594 168.929688 480.136719 132.25 Z M 462.902344 132.25 " style=" stroke:none;fill-rule:nonzero;fill:rgb(5.490196%,55.294118%,85.882353%);fill-opacity:1;" />
<path d="M 111.121094 348.734375 L 84.0625 348.734375 C 81.800781 348.734375 79.96875 350.566406 79.96875 352.828125 L 79.96875 402.851562 L 107.027344 402.851562 L 107.027344 352.828125 C 107.027344 350.566406 108.859375 348.734375 111.121094 348.734375 Z M 111.121094 348.734375 " style=" stroke:none;fill-rule:nonzero;fill:rgb(37.647059%,37.647059%,95.686275%);fill-opacity:1;" />
<path d="M 165.238281 294.613281 L 138.179688 294.613281 C 135.921875 294.613281 134.085938 296.445312 134.085938 298.703125 L 134.085938 402.851562 L 161.144531 402.851562 L 161.144531 298.703125 C 161.144531 296.445312 162.980469 294.613281 165.238281 294.613281 Z M 165.238281 294.613281 " style=" stroke:none;fill-rule:nonzero;fill:rgb(5.490196%,55.294118%,85.882353%);fill-opacity:1;" />
<path d="M 219.359375 348.734375 L 192.300781 348.734375 C 190.039062 348.734375 188.207031 350.566406 188.207031 352.824219 L 188.207031 402.851562 L 215.265625 402.851562 L 215.265625 352.824219 C 215.265625 350.566406 217.097656 348.734375 219.359375 348.734375 Z M 219.359375 348.734375 " style=" stroke:none;fill-rule:nonzero;fill:rgb(37.647059%,37.647059%,95.686275%);fill-opacity:1;" />
<path d="M 273.476562 240.492188 L 246.421875 240.492188 C 244.160156 240.492188 242.328125 242.324219 242.328125 244.585938 L 242.328125 402.851562 L 269.386719 402.851562 L 269.386719 244.585938 C 269.386719 242.324219 271.21875 240.492188 273.476562 240.492188 Z M 273.476562 240.492188 " style=" stroke:none;fill-rule:nonzero;fill:rgb(5.490196%,55.294118%,85.882353%);fill-opacity:1;" />
<path d="M 327.597656 186.371094 L 300.539062 186.371094 C 298.28125 186.371094 296.445312 188.203125 296.445312 190.464844 L 296.445312 402.851562 L 323.507812 402.851562 L 323.507812 190.464844 C 323.507812 188.203125 325.339844 186.371094 327.597656 186.371094 Z M 327.597656 186.371094 " style=" stroke:none;fill-rule:nonzero;fill:rgb(37.647059%,37.647059%,95.686275%);fill-opacity:1;" />
<path d="M 381.71875 240.492188 L 354.660156 240.492188 C 352.402344 240.492188 350.570312 242.324219 350.570312 244.585938 L 350.570312 402.851562 L 377.628906 402.851562 L 377.628906 244.585938 C 377.628906 242.324219 379.460938 240.492188 381.71875 240.492188 Z M 381.71875 240.492188 " style=" stroke:none;fill-rule:nonzero;fill:rgb(5.490196%,55.294118%,85.882353%);fill-opacity:1;" />
<path d="M 435.839844 186.371094 L 408.78125 186.371094 C 406.519531 186.371094 404.6875 188.203125 404.6875 190.464844 L 404.6875 402.851562 L 431.746094 402.851562 L 431.746094 190.464844 C 431.746094 188.203125 433.578125 186.371094 435.839844 186.371094 Z M 435.839844 186.371094 " style=" stroke:none;fill-rule:nonzero;fill:rgb(37.647059%,37.647059%,95.686275%);fill-opacity:1;" />
<path d="M 485.867188 368.765625 C 502.59375 334.742188 512 296.472656 512 256 C 512 215.527344 502.59375 177.257812 485.867188 143.230469 Z M 485.867188 368.765625 " style=" stroke:none;fill-rule:nonzero;fill:rgb(25.098039%,62.352941%,96.078431%);fill-opacity:1;" />
<path d="M 79.96875 141.011719 L 69.066406 141.011719 C 64.230469 141.011719 60.308594 137.089844 60.308594 132.253906 C 60.308594 127.414062 64.230469 123.492188 69.066406 123.492188 L 79.96875 123.492188 C 84.808594 123.492188 88.730469 127.414062 88.730469 132.253906 C 88.730469 137.089844 84.808594 141.011719 79.96875 141.011719 Z M 79.96875 141.011719 " style=" stroke:none;fill-rule:nonzero;fill:rgb(20.784314%,55.686275%,72.941176%);fill-opacity:1;" />
<path d="M 79.96875 195.132812 L 69.066406 195.132812 C 64.230469 195.132812 60.308594 191.210938 60.308594 186.371094 C 60.308594 181.53125 64.230469 177.613281 69.066406 177.613281 L 79.96875 177.613281 C 84.808594 177.613281 88.730469 181.535156 88.730469 186.371094 C 88.730469 191.210938 84.808594 195.132812 79.96875 195.132812 Z M 79.96875 195.132812 " style=" stroke:none;fill-rule:nonzero;fill:rgb(20.784314%,55.686275%,72.941176%);fill-opacity:1;" />
<path d="M 79.96875 249.253906 L 69.066406 249.253906 C 64.230469 249.253906 60.308594 245.328125 60.308594 240.492188 C 60.308594 235.652344 64.230469 231.730469 69.066406 231.730469 L 79.96875 231.730469 C 84.808594 231.730469 88.730469 235.652344 88.730469 240.492188 C 88.730469 245.328125 84.808594 249.253906 79.96875 249.253906 Z M 79.96875 249.253906 " style=" stroke:none;fill-rule:nonzero;fill:rgb(20.784314%,55.686275%,72.941176%);fill-opacity:1;" />
<path d="M 79.96875 303.371094 L 69.066406 303.371094 C 64.230469 303.371094 60.308594 299.449219 60.308594 294.613281 C 60.308594 289.773438 64.230469 285.851562 69.066406 285.851562 L 79.96875 285.851562 C 84.808594 285.851562 88.730469 289.773438 88.730469 294.613281 C 88.730469 299.453125 84.808594 303.371094 79.96875 303.371094 Z M 79.96875 303.371094 " style=" stroke:none;fill-rule:nonzero;fill:rgb(20.784314%,55.686275%,72.941176%);fill-opacity:1;" />
<path d="M 79.96875 357.492188 L 69.066406 357.492188 C 64.230469 357.492188 60.308594 353.570312 60.308594 348.734375 C 60.308594 343.894531 64.230469 339.972656 69.066406 339.972656 L 79.96875 339.972656 C 84.808594 339.972656 88.730469 343.894531 88.730469 348.734375 C 88.730469 353.570312 84.808594 357.492188 79.96875 357.492188 Z M 79.96875 357.492188 " style=" stroke:none;fill-rule:nonzero;fill:rgb(20.784314%,55.686275%,72.941176%);fill-opacity:1;" />
<path d="M 40.6875 141.011719 L 40.554688 141.011719 C 35.71875 141.011719 31.796875 137.089844 31.796875 132.253906 C 31.796875 127.414062 35.71875 123.492188 40.554688 123.492188 L 40.6875 123.492188 C 45.527344 123.492188 49.449219 127.414062 49.449219 132.253906 C 49.449219 137.089844 45.527344 141.011719 40.6875 141.011719 Z M 40.6875 141.011719 " style=" stroke:none;fill-rule:nonzero;fill:rgb(20.784314%,55.686275%,72.941176%);fill-opacity:1;" />
<path d="M 40.6875 195.132812 L 40.554688 195.132812 C 35.71875 195.132812 31.796875 191.210938 31.796875 186.371094 C 31.796875 181.53125 35.71875 177.613281 40.554688 177.613281 L 40.6875 177.613281 C 45.527344 177.613281 49.449219 181.535156 49.449219 186.371094 C 49.449219 191.210938 45.527344 195.132812 40.6875 195.132812 Z M 40.6875 195.132812 " style=" stroke:none;fill-rule:nonzero;fill:rgb(20.784314%,55.686275%,72.941176%);fill-opacity:1;" />
<path d="M 40.6875 249.253906 L 40.554688 249.253906 C 35.71875 249.253906 31.796875 245.328125 31.796875 240.492188 C 31.796875 235.652344 35.71875 231.730469 40.554688 231.730469 L 40.6875 231.730469 C 45.527344 231.730469 49.449219 235.652344 49.449219 240.492188 C 49.449219 245.328125 45.527344 249.253906 40.6875 249.253906 Z M 40.6875 249.253906 " style=" stroke:none;fill-rule:nonzero;fill:rgb(20.784314%,55.686275%,72.941176%);fill-opacity:1;" />
<path d="M 40.6875 303.371094 L 40.554688 303.371094 C 35.71875 303.371094 31.796875 299.449219 31.796875 294.613281 C 31.796875 289.773438 35.71875 285.851562 40.554688 285.851562 L 40.6875 285.851562 C 45.527344 285.851562 49.449219 289.773438 49.449219 294.613281 C 49.449219 299.453125 45.527344 303.371094 40.6875 303.371094 Z M 40.6875 303.371094 " style=" stroke:none;fill-rule:nonzero;fill:rgb(20.784314%,55.686275%,72.941176%);fill-opacity:1;" />
<path d="M 40.6875 357.492188 L 40.554688 357.492188 C 35.71875 357.492188 31.796875 353.570312 31.796875 348.734375 C 31.796875 343.894531 35.71875 339.972656 40.554688 339.972656 L 40.6875 339.972656 C 45.527344 339.972656 49.449219 343.894531 49.449219 348.734375 C 49.449219 353.570312 45.527344 357.492188 40.6875 357.492188 Z M 40.6875 357.492188 " style=" stroke:none;fill-rule:nonzero;fill:rgb(20.784314%,55.686275%,72.941176%);fill-opacity:1;" />
<path d="M 134.089844 422.515625 C 129.253906 422.515625 125.328125 418.59375 125.328125 413.757812 L 125.328125 402.851562 C 125.328125 398.015625 129.253906 394.09375 134.089844 394.09375 C 138.929688 394.09375 142.851562 398.015625 142.851562 402.851562 L 142.851562 413.757812 C 142.851562 418.59375 138.929688 422.515625 134.089844 422.515625 Z M 134.089844 422.515625 " style=" stroke:none;fill-rule:nonzero;fill:rgb(20.784314%,55.686275%,72.941176%);fill-opacity:1;" />
<path d="M 188.210938 422.515625 C 183.371094 422.515625 179.449219 418.59375 179.449219 413.757812 L 179.449219 402.851562 C 179.449219 398.015625 183.371094 394.09375 188.210938 394.09375 C 193.046875 394.09375 196.96875 398.015625 196.96875 402.851562 L 196.96875 413.757812 C 196.972656 418.59375 193.046875 422.515625 188.210938 422.515625 Z M 188.210938 422.515625 " style=" stroke:none;fill-rule:nonzero;fill:rgb(20.784314%,55.686275%,72.941176%);fill-opacity:1;" />
<path d="M 242.332031 422.515625 C 237.492188 422.515625 233.570312 418.59375 233.570312 413.757812 L 233.570312 402.851562 C 233.570312 398.015625 237.492188 394.09375 242.332031 394.09375 C 247.167969 394.09375 251.089844 398.015625 251.089844 402.851562 L 251.089844 413.757812 C 251.089844 418.59375 247.167969 422.515625 242.332031 422.515625 Z M 242.332031 422.515625 " style=" stroke:none;fill-rule:nonzero;fill:rgb(20.784314%,55.686275%,72.941176%);fill-opacity:1;" />
<path d="M 296.449219 422.515625 C 291.613281 422.515625 287.691406 418.59375 287.691406 413.757812 L 287.691406 402.851562 C 287.691406 398.015625 291.613281 394.09375 296.449219 394.09375 C 301.289062 394.09375 305.210938 398.015625 305.210938 402.851562 L 305.210938 413.757812 C 305.210938 418.59375 301.289062 422.515625 296.449219 422.515625 Z M 296.449219 422.515625 " style=" stroke:none;fill-rule:nonzero;fill:rgb(24.313725%,64.313725%,80%);fill-opacity:1;" />
<path d="M 350.570312 422.515625 C 345.734375 422.515625 341.8125 418.59375 341.8125 413.757812 L 341.8125 402.851562 C 341.8125 398.015625 345.734375 394.09375 350.570312 394.09375 C 355.410156 394.09375 359.332031 398.015625 359.332031 402.851562 L 359.332031 413.757812 C 359.332031 418.59375 355.410156 422.515625 350.570312 422.515625 Z M 350.570312 422.515625 " style=" stroke:none;fill-rule:nonzero;fill:rgb(24.313725%,64.313725%,80%);fill-opacity:1;" />
<path d="M 404.691406 422.515625 C 399.855469 422.515625 395.933594 418.59375 395.933594 413.757812 L 395.933594 402.851562 C 395.933594 398.015625 399.855469 394.09375 404.691406 394.09375 C 409.53125 394.09375 413.453125 398.015625 413.453125 402.851562 L 413.453125 413.757812 C 413.453125 418.59375 409.53125 422.515625 404.691406 422.515625 Z M 404.691406 422.515625 " style=" stroke:none;fill-rule:nonzero;fill:rgb(24.313725%,64.313725%,80%);fill-opacity:1;" />
<path d="M 134.085938 450.277344 C 129.25 450.277344 125.328125 446.355469 125.328125 441.515625 L 125.328125 441.335938 C 125.328125 436.496094 129.25 432.578125 134.085938 432.578125 C 138.925781 432.578125 142.847656 436.5 142.847656 441.335938 L 142.847656 441.515625 C 142.847656 446.355469 138.925781 450.277344 134.085938 450.277344 Z M 134.085938 450.277344 " style=" stroke:none;fill-rule:nonzero;fill:rgb(20.784314%,55.686275%,72.941176%);fill-opacity:1;" />
<path d="M 188.207031 450.277344 C 183.371094 450.277344 179.449219 446.355469 179.449219 441.515625 L 179.449219 441.335938 C 179.449219 436.496094 183.371094 432.578125 188.207031 432.578125 C 193.046875 432.578125 196.96875 436.5 196.96875 441.335938 L 196.96875 441.515625 C 196.96875 446.355469 193.046875 450.277344 188.207031 450.277344 Z M 188.207031 450.277344 " style=" stroke:none;fill-rule:nonzero;fill:rgb(20.784314%,55.686275%,72.941176%);fill-opacity:1;" />
<path d="M 242.328125 450.277344 C 237.492188 450.277344 233.570312 446.355469 233.570312 441.515625 L 233.570312 441.335938 C 233.570312 436.496094 237.492188 432.578125 242.328125 432.578125 C 247.167969 432.578125 251.089844 436.5 251.089844 441.335938 L 251.089844 441.515625 C 251.089844 446.355469 247.167969 450.277344 242.328125 450.277344 Z M 242.328125 450.277344 " style=" stroke:none;fill-rule:nonzero;fill:rgb(20.784314%,55.686275%,72.941176%);fill-opacity:1;" />
<path d="M 296.449219 450.277344 C 291.609375 450.277344 287.6875 446.355469 287.6875 441.515625 L 287.6875 441.335938 C 287.6875 436.496094 291.609375 432.578125 296.449219 432.578125 C 301.285156 432.578125 305.210938 436.5 305.210938 441.335938 L 305.210938 441.515625 C 305.210938 446.355469 301.285156 450.277344 296.449219 450.277344 Z M 296.449219 450.277344 " style=" stroke:none;fill-rule:nonzero;fill:rgb(24.313725%,64.313725%,80%);fill-opacity:1;" />
<path d="M 350.570312 450.277344 C 345.730469 450.277344 341.808594 446.355469 341.808594 441.515625 L 341.808594 441.335938 C 341.808594 436.496094 345.730469 432.578125 350.570312 432.578125 C 355.40625 432.578125 359.328125 436.5 359.328125 441.335938 L 359.328125 441.515625 C 359.328125 446.355469 355.40625 450.277344 350.570312 450.277344 Z M 350.570312 450.277344 " style=" stroke:none;fill-rule:nonzero;fill:rgb(24.313725%,64.313725%,80%);fill-opacity:1;" />
<path d="M 404.691406 450.277344 C 399.851562 450.277344 395.929688 446.355469 395.929688 441.515625 L 395.929688 441.335938 C 395.929688 436.496094 399.851562 432.578125 404.691406 432.578125 C 409.527344 432.578125 413.449219 436.5 413.449219 441.335938 L 413.449219 441.515625 C 413.449219 446.355469 409.527344 450.277344 404.691406 450.277344 Z M 404.691406 450.277344 " style=" stroke:none;fill-rule:nonzero;fill:rgb(24.313725%,64.313725%,80%);fill-opacity:1;" />
<path d="M 471.597656 394.09375 L 69.066406 394.09375 C 64.230469 394.09375 60.308594 398.015625 60.308594 402.851562 C 60.308594 407.691406 64.230469 411.613281 69.066406 411.613281 L 459.265625 411.613281 C 463.609375 405.953125 467.730469 400.113281 471.597656 394.09375 Z M 471.597656 394.09375 " style=" stroke:none;fill-rule:nonzero;fill:rgb(20.784314%,55.686275%,72.941176%);fill-opacity:1;" />
<path d="M 261.128906 402.851562 C 261.128906 398.464844 264.304688 394.828125 268.480469 394.09375 L 69.066406 394.09375 C 64.230469 394.09375 60.308594 398.015625 60.308594 402.851562 C 60.308594 407.691406 64.230469 411.613281 69.066406 411.613281 L 268.480469 411.613281 C 264.304688 410.878906 261.128906 407.238281 261.128906 402.851562 Z M 261.128906 402.851562 " style=" stroke:none;fill-rule:nonzero;fill:rgb(13.72549%,42.352941%,60.784314%);fill-opacity:1;" />
<path d="M 71.210938 78.84375 L 71.210938 413.757812 C 71.210938 418.59375 75.132812 422.515625 79.96875 422.515625 C 84.808594 422.515625 88.730469 418.59375 88.730469 413.757812 L 88.730469 62.203125 C 82.632812 67.472656 76.785156 73.027344 71.210938 78.84375 Z M 71.210938 78.84375 " style=" stroke:none;fill-rule:nonzero;fill:rgb(13.72549%,42.352941%,60.784314%);fill-opacity:1;" />
</g>
</svg>