<svg xmlns="http://www.w3.org/2000/svg" height="512pt" version="1.1" viewBox="0 0 512 512" width="512pt">
<g id="surface1">
<path d="M 512 256 C 512 397.386719 397.386719 512 256 512 C 114.613281 512 0 397.386719 0 256 C 0 114.613281 114.613281 0 256 0 C 397.386719 0 512 114.613281 512 256 Z M 512 256 " style=" stroke:none;fill-rule:nonzero;fill:rgb(6.27451%,29.019608%,48.627451%);fill-opacity:1;" />
<path d="M 460.675781 409.777344 L 382.863281 365.140625 C 381.691406 367.351562 379.929688 369.242188 377.6875 370.535156 L 262.78125 436.875 C 260.683594 438.089844 258.34375 438.691406 256 438.691406 L 256 512 C 339.671875 512 413.960938 471.855469 460.675781 409.777344 Z M 460.675781 409.777344 " style=" stroke:none;fill-rule:nonzero;fill:rgb(53.333333%,49.411765%,100%);fill-opacity:1;" />
<path d="M 345.421875 389.164062 L 262.78125 436.875 C 260.683594 438.089844 258.34375 438.691406 256 438.691406 L 256 512 C 299.519531 512 340.496094 501.136719 376.378906 481.980469 C 337.609375 469.273438 322.03125 422.566406 345.421875 389.164062 Z M 345.421875 389.164062 " style=" stroke:none;fill-rule:nonzero;fill:rgb(37.647059%,37.647059%,95.686275%);fill-opacity:1;" />
<path d="M 490.007812 149.511719 L 262.78125 18.324219 C 260.683594 17.113281 258.34375 16.507812 256 16.507812 L 256 146.203125 C 258.34375 146.203125 260.683594 146.808594 262.78125 148.019531 L 377.6875 214.359375 C 379.929688 215.652344 381.691406 217.546875 382.863281 219.753906 L 495.34375 155.230469 C 494.175781 152.882812 492.355469 150.867188 490.007812 149.511719 Z M 490.007812 149.511719 " style=" stroke:none;fill-rule:nonzero;fill:rgb(98.431373%,56.862745%,54.117647%);fill-opacity:1;" />
<path d="M 382.863281 365.140625 L 460.675781 409.777344 C 475.820312 389.652344 488.0625 367.222656 496.789062 343.105469 L 496.789062 161.261719 C 496.789062 159.125 496.261719 157.078125 495.34375 155.230469 L 382.863281 219.753906 C 383.890625 221.679688 384.46875 223.847656 384.46875 226.105469 L 384.46875 358.785156 C 384.46875 361.046875 383.890625 363.214844 382.863281 365.140625 Z M 382.863281 365.140625 " style=" stroke:none;fill-rule:nonzero;fill:rgb(98.823529%,52.54902%,74.901961%);fill-opacity:1;" />
<path d="M 249.21875 436.875 L 134.3125 370.535156 C 132.070312 369.242188 130.308594 367.351562 129.136719 365.140625 L 51.324219 409.777344 C 98.039062 471.855469 172.328125 512 256 512 L 256 438.695312 C 253.65625 438.695312 251.316406 438.089844 249.21875 436.875 Z M 249.21875 436.875 " style=" stroke:none;fill-rule:nonzero;fill:rgb(5.490196%,55.294118%,85.882353%);fill-opacity:1;" />
<path d="M 21.992188 149.511719 L 249.21875 18.324219 C 251.316406 17.113281 253.65625 16.507812 256 16.507812 L 256 146.203125 C 253.65625 146.203125 251.316406 146.808594 249.21875 148.019531 L 134.3125 214.359375 C 132.070312 215.652344 130.308594 217.546875 129.136719 219.753906 L 16.65625 155.230469 C 17.824219 152.882812 19.644531 150.867188 21.992188 149.511719 Z M 21.992188 149.511719 " style=" stroke:none;fill-rule:nonzero;fill:rgb(96.862745%,87.45098%,60.392157%);fill-opacity:1;" />
<path d="M 129.136719 365.140625 C 128.109375 363.214844 127.53125 361.046875 127.53125 358.789062 L 127.53125 226.105469 C 127.53125 223.847656 128.109375 221.683594 129.136719 219.753906 L 16.65625 155.230469 C 15.738281 157.078125 15.210938 159.125 15.210938 161.261719 L 15.210938 343.105469 C 23.9375 367.222656 36.179688 389.652344 51.324219 409.777344 Z M 129.136719 365.140625 " style=" stroke:none;fill-rule:nonzero;fill:rgb(9.019608%,78.823529%,58.823529%);fill-opacity:1;" />
<path d="M 426.21875 390.011719 L 382.863281 365.140625 C 381.691406 367.351562 379.929688 369.242188 377.6875 370.535156 L 262.78125 436.878906 C 260.683594 438.089844 258.34375 438.695312 256 438.695312 L 256 489 L 426.21875 390.722656 Z M 426.21875 390.011719 " style=" stroke:none;fill-rule:nonzero;fill:rgb(37.647059%,37.647059%,95.686275%);fill-opacity:1;" />
<path d="M 249.21875 436.875 L 134.3125 370.535156 C 132.070312 369.242188 130.308594 367.351562 129.136719 365.140625 L 85.78125 390.011719 L 85.78125 390.722656 L 256 489 L 256 438.695312 C 253.65625 438.695312 251.316406 438.089844 249.21875 436.875 Z M 249.21875 436.875 " style=" stroke:none;fill-rule:nonzero;fill:rgb(1.960784%,49.411765%,78.823529%);fill-opacity:1;" />
<path d="M 129.136719 219.753906 L 85.78125 194.882812 L 85.78125 390.011719 L 129.136719 365.140625 C 128.109375 363.214844 127.53125 361.046875 127.53125 358.789062 L 127.53125 226.105469 C 127.53125 223.851562 128.109375 221.683594 129.136719 219.753906 Z M 129.136719 219.753906 " style=" stroke:none;fill-rule:nonzero;fill:rgb(4.313725%,71.764706%,50.980392%);fill-opacity:1;" />
<path d="M 85.78125 194.882812 L 129.136719 219.753906 C 130.308594 217.546875 132.070312 215.65625 134.3125 214.359375 L 249.21875 148.019531 C 251.316406 146.808594 253.65625 146.203125 256 146.203125 L 256 95.898438 L 85.78125 194.171875 Z M 85.78125 194.882812 " style=" stroke:none;fill-rule:nonzero;fill:rgb(95.686275%,78.039216%,34.509804%);fill-opacity:1;" />
<path d="M 262.78125 148.019531 L 377.6875 214.359375 C 379.929688 215.652344 381.691406 217.546875 382.863281 219.753906 L 426.21875 194.882812 L 426.21875 194.171875 L 256 95.898438 L 256 146.203125 C 258.34375 146.203125 260.683594 146.808594 262.78125 148.019531 Z M 262.78125 148.019531 " style=" stroke:none;fill-rule:nonzero;fill:rgb(95.686275%,41.176471%,41.176471%);fill-opacity:1;" />
<path d="M 382.863281 365.140625 L 426.21875 390.011719 L 426.21875 194.882812 L 382.863281 219.753906 C 383.890625 221.683594 384.46875 223.851562 384.46875 226.105469 L 384.46875 358.789062 C 384.46875 361.046875 383.890625 363.214844 382.863281 365.140625 Z M 382.863281 365.140625 " style=" stroke:none;fill-rule:nonzero;fill:rgb(96.862745%,32.941176%,69.411765%);fill-opacity:1;" />
<path d="M 158.539062 70.679688 L 21.992188 149.511719 C 19.644531 150.867188 17.824219 152.882812 16.65625 155.230469 L 129.136719 219.753906 C 130.308594 217.542969 132.070312 215.652344 134.3125 214.359375 L 215.382812 167.554688 C 161.351562 174.660156 126.761719 113.148438 158.539062 70.679688 Z M 158.539062 70.679688 " style=" stroke:none;fill-rule:nonzero;fill:rgb(95.686275%,78.039216%,34.509804%);fill-opacity:1;" />
<path d="M 345.421875 389.164062 L 262.78125 436.875 C 260.683594 438.089844 258.34375 438.691406 256 438.691406 L 256 488.996094 L 337.148438 442.148438 C 331.722656 424.648438 334.328125 405.007812 345.421875 389.164062 Z M 345.421875 389.164062 " style=" stroke:none;fill-rule:nonzero;fill:rgb(29.803922%,29.803922%,92.941176%);fill-opacity:1;" />
<path d="M 163.417969 149.351562 L 85.78125 194.171875 L 85.78125 194.886719 L 129.136719 219.757812 C 130.308594 217.546875 132.070312 215.65625 134.3125 214.359375 L 215.382812 167.554688 C 195.59375 170.15625 176.605469 163.082031 163.417969 149.351562 Z M 163.417969 149.351562 " style=" stroke:none;fill-rule:nonzero;fill:rgb(91.764706%,70.196078%,22.352941%);fill-opacity:1;" />
</g>
</svg>