<svg xmlns="http://www.w3.org/2000/svg" height="512pt" version="1.1" viewBox="0 -11 512 512" width="512pt">
<g id="surface1">
<path d="M 489.214844 244.605469 C 489.214844 379.699219 379.699219 489.214844 244.605469 489.214844 C 109.515625 489.214844 0 379.699219 0 244.605469 C 0 109.515625 109.515625 0 244.605469 0 C 379.699219 0 489.214844 109.515625 489.214844 244.605469 Z M 489.214844 244.605469 " style=" stroke:none;fill-rule:nonzero;fill:rgb(6.27451%,29.019608%,48.627451%);fill-opacity:1;" />
<path d="M 40.324219 379.164062 C 137.003906 525.644531 351.945312 526.050781 448.890625 379.164062 Z M 40.324219 379.164062 " style=" stroke:none;fill-rule:nonzero;fill:rgb(4.705882%,22.745098%,42.745098%);fill-opacity:1;" />
<path d="M 234.898438 379.164062 L 40.324219 379.164062 C 80.453125 439.964844 146.984375 481.796875 223.597656 488.316406 C 186.816406 458.695312 192.472656 400.8125 234.898438 379.164062 Z M 234.898438 379.164062 " style=" stroke:none;fill-rule:nonzero;fill:rgb(2.745098%,16.470588%,36.862745%);fill-opacity:1;" />
<path d="M 79.988281 123.523438 L 182.125 123.523438 C 185.363281 123.523438 187.988281 120.894531 187.988281 117.65625 L 187.988281 100.652344 C 187.988281 97.414062 185.363281 94.789062 182.125 94.789062 L 79.988281 94.789062 Z M 79.988281 123.523438 " style=" stroke:none;fill-rule:nonzero;fill:rgb(96.862745%,87.45098%,60.392157%);fill-opacity:1;" />
<path d="M 79.988281 177.523438 L 236.128906 177.523438 C 239.367188 177.523438 241.992188 174.898438 241.992188 171.660156 L 241.992188 154.65625 C 241.992188 151.417969 239.367188 148.792969 236.128906 148.792969 L 79.988281 148.792969 Z M 79.988281 177.523438 " style=" stroke:none;fill-rule:nonzero;fill:rgb(98.431373%,56.862745%,54.117647%);fill-opacity:1;" />
<path d="M 398.132812 256.792969 L 79.988281 256.792969 L 79.988281 285.527344 L 398.128906 285.527344 C 401.371094 285.527344 403.996094 282.902344 403.996094 279.664062 L 403.996094 262.660156 C 403.996094 259.417969 401.371094 256.792969 398.132812 256.792969 Z M 398.132812 256.792969 " style=" stroke:none;fill-rule:nonzero;fill:rgb(25.098039%,62.352941%,96.078431%);fill-opacity:1;" />
<path d="M 290.128906 310.792969 L 79.988281 310.792969 L 79.988281 339.527344 L 290.128906 339.527344 C 293.367188 339.527344 295.992188 336.902344 295.992188 333.664062 L 295.992188 316.660156 C 295.992188 313.421875 293.367188 310.792969 290.128906 310.792969 Z M 290.128906 310.792969 " style=" stroke:none;fill-rule:nonzero;fill:rgb(16.470588%,87.843137%,68.627451%);fill-opacity:1;" />
<path d="M 506.132812 202.792969 L 79.988281 202.792969 L 79.988281 231.527344 L 506.132812 231.527344 C 509.375 231.527344 512 228.898438 512 225.660156 L 512 208.65625 C 512 205.417969 509.375 202.792969 506.132812 202.792969 Z M 506.132812 202.792969 " style=" stroke:none;fill-rule:nonzero;fill:rgb(53.333333%,49.411765%,100%);fill-opacity:1;" />
<path d="M 79.988281 148.789062 L 160.992188 148.789062 L 160.992188 177.523438 L 79.988281 177.523438 Z M 79.988281 148.789062 " style=" stroke:none;fill-rule:nonzero;fill:rgb(95.686275%,41.176471%,41.176471%);fill-opacity:1;" />
<path d="M 79.988281 202.792969 L 295.992188 202.792969 L 295.992188 231.527344 L 79.988281 231.527344 Z M 79.988281 202.792969 " style=" stroke:none;fill-rule:nonzero;fill:rgb(37.647059%,37.647059%,95.686275%);fill-opacity:1;" />
<path d="M 79.988281 256.792969 L 241.992188 256.792969 L 241.992188 285.527344 L 79.988281 285.527344 Z M 79.988281 256.792969 " style=" stroke:none;fill-rule:nonzero;fill:rgb(5.490196%,55.294118%,85.882353%);fill-opacity:1;" />
<path d="M 79.988281 310.792969 L 187.992188 310.792969 L 187.992188 339.527344 L 79.988281 339.527344 Z M 79.988281 310.792969 " style=" stroke:none;fill-rule:nonzero;fill:rgb(9.019608%,78.823529%,58.823529%);fill-opacity:1;" />
<path d="M 79.988281 94.789062 L 133.988281 94.789062 L 133.988281 123.523438 L 79.988281 123.523438 Z M 79.988281 94.789062 " style=" stroke:none;fill-rule:nonzero;fill:rgb(95.686275%,78.039216%,34.509804%);fill-opacity:1;" />
<path d="M 106.089844 163.15625 C 106.089844 155.222656 112.523438 148.789062 120.457031 148.789062 L 79.988281 148.789062 L 79.988281 177.523438 L 120.457031 177.523438 C 112.523438 177.523438 106.089844 171.089844 106.089844 163.15625 Z M 106.089844 163.15625 " style=" stroke:none;fill-rule:nonzero;fill:rgb(91.764706%,32.941176%,32.941176%);fill-opacity:1;" />
<path d="M 106.089844 217.160156 C 106.089844 209.222656 112.523438 202.792969 120.457031 202.792969 L 79.988281 202.792969 L 79.988281 231.527344 L 120.457031 231.527344 C 112.523438 231.527344 106.089844 225.09375 106.089844 217.160156 Z M 106.089844 217.160156 " style=" stroke:none;fill-rule:nonzero;fill:rgb(29.803922%,29.803922%,92.941176%);fill-opacity:1;" />
<path d="M 106.089844 271.160156 C 106.089844 263.226562 112.523438 256.792969 120.457031 256.792969 L 79.988281 256.792969 L 79.988281 285.527344 L 120.457031 285.527344 C 112.523438 285.527344 106.089844 279.097656 106.089844 271.160156 Z M 106.089844 271.160156 " style=" stroke:none;fill-rule:nonzero;fill:rgb(1.960784%,49.411765%,78.823529%);fill-opacity:1;" />
<path d="M 106.089844 325.160156 C 106.089844 317.226562 112.523438 310.792969 120.457031 310.792969 L 79.988281 310.792969 L 79.988281 339.527344 L 120.457031 339.527344 C 112.523438 339.527344 106.089844 333.097656 106.089844 325.160156 Z M 106.089844 325.160156 " style=" stroke:none;fill-rule:nonzero;fill:rgb(4.313725%,71.764706%,50.980392%);fill-opacity:1;" />
<path d="M 106.089844 109.15625 C 106.089844 101.21875 112.523438 94.789062 120.457031 94.789062 L 79.988281 94.789062 L 79.988281 123.523438 L 120.457031 123.523438 C 112.523438 123.523438 106.089844 117.089844 106.089844 109.15625 Z M 106.089844 109.15625 " style=" stroke:none;fill-rule:nonzero;fill:rgb(91.764706%,70.196078%,22.352941%);fill-opacity:1;" />
<path d="M 79.988281 117.898438 L 69.109375 117.898438 C 64.28125 117.898438 60.371094 113.984375 60.371094 109.15625 C 60.371094 104.328125 64.28125 100.414062 69.109375 100.414062 L 79.988281 100.414062 C 84.816406 100.414062 88.730469 104.328125 88.730469 109.15625 C 88.730469 113.984375 84.816406 117.898438 79.988281 117.898438 Z M 79.988281 117.898438 " style=" stroke:none;fill-rule:nonzero;fill:rgb(20.784314%,55.686275%,72.941176%);fill-opacity:1;" />
<path d="M 79.988281 171.898438 L 69.109375 171.898438 C 64.28125 171.898438 60.371094 167.984375 60.371094 163.15625 C 60.371094 158.328125 64.28125 154.417969 69.109375 154.417969 L 79.988281 154.417969 C 84.816406 154.417969 88.730469 158.328125 88.730469 163.15625 C 88.730469 167.984375 84.816406 171.898438 79.988281 171.898438 Z M 79.988281 171.898438 " style=" stroke:none;fill-rule:nonzero;fill:rgb(20.784314%,55.686275%,72.941176%);fill-opacity:1;" />
<path d="M 79.988281 225.898438 L 69.109375 225.898438 C 64.28125 225.898438 60.371094 221.988281 60.371094 217.160156 C 60.371094 212.332031 64.28125 208.417969 69.109375 208.417969 L 79.988281 208.417969 C 84.816406 208.417969 88.730469 212.332031 88.730469 217.160156 C 88.730469 221.988281 84.816406 225.898438 79.988281 225.898438 Z M 79.988281 225.898438 " style=" stroke:none;fill-rule:nonzero;fill:rgb(20.784314%,55.686275%,72.941176%);fill-opacity:1;" />
<path d="M 79.988281 279.902344 L 69.109375 279.902344 C 64.28125 279.902344 60.371094 275.988281 60.371094 271.160156 C 60.371094 266.332031 64.28125 262.417969 69.109375 262.417969 L 79.988281 262.417969 C 84.816406 262.417969 88.730469 266.332031 88.730469 271.160156 C 88.730469 275.988281 84.816406 279.902344 79.988281 279.902344 Z M 79.988281 279.902344 " style=" stroke:none;fill-rule:nonzero;fill:rgb(20.784314%,55.686275%,72.941176%);fill-opacity:1;" />
<path d="M 79.988281 333.902344 L 69.109375 333.902344 C 64.28125 333.902344 60.371094 329.988281 60.371094 325.160156 C 60.371094 320.335938 64.28125 316.421875 69.109375 316.421875 L 79.988281 316.421875 C 84.816406 316.421875 88.730469 320.335938 88.730469 325.160156 C 88.730469 329.988281 84.816406 333.902344 79.988281 333.902344 Z M 79.988281 333.902344 " style=" stroke:none;fill-rule:nonzero;fill:rgb(20.784314%,55.686275%,72.941176%);fill-opacity:1;" />
<path d="M 40.792969 117.898438 L 40.660156 117.898438 C 35.832031 117.898438 31.917969 113.984375 31.917969 109.15625 C 31.917969 104.328125 35.832031 100.414062 40.660156 100.414062 L 40.792969 100.414062 C 45.621094 100.414062 49.535156 104.328125 49.535156 109.15625 C 49.535156 113.984375 45.621094 117.898438 40.792969 117.898438 Z M 40.792969 117.898438 " style=" stroke:none;fill-rule:nonzero;fill:rgb(20.784314%,55.686275%,72.941176%);fill-opacity:1;" />
<path d="M 40.792969 171.898438 L 40.660156 171.898438 C 35.832031 171.898438 31.917969 167.984375 31.917969 163.15625 C 31.917969 158.328125 35.832031 154.417969 40.660156 154.417969 L 40.792969 154.417969 C 45.621094 154.417969 49.535156 158.328125 49.535156 163.15625 C 49.535156 167.984375 45.621094 171.898438 40.792969 171.898438 Z M 40.792969 171.898438 " style=" stroke:none;fill-rule:nonzero;fill:rgb(20.784314%,55.686275%,72.941176%);fill-opacity:1;" />
<path d="M 40.792969 225.898438 L 40.660156 225.898438 C 35.832031 225.898438 31.917969 221.988281 31.917969 217.160156 C 31.917969 212.332031 35.832031 208.417969 40.660156 208.417969 L 40.792969 208.417969 C 45.621094 208.417969 49.535156 212.332031 49.535156 217.160156 C 49.535156 221.988281 45.621094 225.898438 40.792969 225.898438 Z M 40.792969 225.898438 " style=" stroke:none;fill-rule:nonzero;fill:rgb(20.784314%,55.686275%,72.941176%);fill-opacity:1;" />
<path d="M 40.792969 279.902344 L 40.660156 279.902344 C 35.832031 279.902344 31.917969 275.988281 31.917969 271.160156 C 31.917969 266.332031 35.832031 262.417969 40.660156 262.417969 L 40.792969 262.417969 C 45.621094 262.417969 49.535156 266.332031 49.535156 271.160156 C 49.535156 275.988281 45.621094 279.902344 40.792969 279.902344 Z M 40.792969 279.902344 " style=" stroke:none;fill-rule:nonzero;fill:rgb(20.784314%,55.686275%,72.941176%);fill-opacity:1;" />
<path d="M 40.792969 333.902344 L 40.660156 333.902344 C 35.832031 333.902344 31.917969 329.988281 31.917969 325.160156 C 31.917969 320.335938 35.832031 316.421875 40.660156 316.421875 L 40.792969 316.421875 C 45.621094 316.421875 49.535156 320.335938 49.535156 325.160156 C 49.535156 329.988281 45.621094 333.902344 40.792969 333.902344 Z M 40.792969 333.902344 " style=" stroke:none;fill-rule:nonzero;fill:rgb(20.784314%,55.686275%,72.941176%);fill-opacity:1;" />
<path d="M 133.988281 398.785156 C 129.164062 398.785156 125.25 394.871094 125.25 390.042969 L 125.25 379.164062 C 125.25 374.335938 129.164062 370.421875 133.988281 370.421875 C 138.816406 370.421875 142.730469 374.335938 142.730469 379.164062 L 142.730469 390.042969 C 142.730469 394.871094 138.816406 398.785156 133.988281 398.785156 Z M 133.988281 398.785156 " style=" stroke:none;fill-rule:nonzero;fill:rgb(20.784314%,55.686275%,72.941176%);fill-opacity:1;" />
<path d="M 187.992188 398.785156 C 183.164062 398.785156 179.25 394.871094 179.25 390.042969 L 179.25 379.164062 C 179.25 374.335938 183.164062 370.421875 187.992188 370.421875 C 192.820312 370.421875 196.734375 374.335938 196.734375 379.164062 L 196.734375 390.042969 C 196.734375 394.871094 192.820312 398.785156 187.992188 398.785156 Z M 187.992188 398.785156 " style=" stroke:none;fill-rule:nonzero;fill:rgb(20.784314%,55.686275%,72.941176%);fill-opacity:1;" />
<path d="M 241.992188 398.785156 C 237.164062 398.785156 233.253906 394.871094 233.253906 390.042969 L 233.253906 379.164062 C 233.253906 374.335938 237.164062 370.421875 241.992188 370.421875 C 246.820312 370.421875 250.734375 374.335938 250.734375 379.164062 L 250.734375 390.042969 C 250.734375 394.871094 246.820312 398.785156 241.992188 398.785156 Z M 241.992188 398.785156 " style=" stroke:none;fill-rule:nonzero;fill:rgb(24.313725%,64.313725%,80%);fill-opacity:1;" />
<path d="M 295.996094 398.785156 C 291.167969 398.785156 287.253906 394.871094 287.253906 390.042969 L 287.253906 379.164062 C 287.253906 374.335938 291.167969 370.421875 295.996094 370.421875 C 300.824219 370.421875 304.734375 374.335938 304.734375 379.164062 L 304.734375 390.042969 C 304.734375 394.871094 300.824219 398.785156 295.996094 398.785156 Z M 295.996094 398.785156 " style=" stroke:none;fill-rule:nonzero;fill:rgb(24.313725%,64.313725%,80%);fill-opacity:1;" />
<path d="M 349.996094 398.785156 C 345.167969 398.785156 341.257812 394.871094 341.257812 390.042969 L 341.257812 379.164062 C 341.257812 374.335938 345.167969 370.421875 349.996094 370.421875 C 354.824219 370.421875 358.738281 374.335938 358.738281 379.164062 L 358.738281 390.042969 C 358.738281 394.871094 354.824219 398.785156 349.996094 398.785156 Z M 349.996094 398.785156 " style=" stroke:none;fill-rule:nonzero;fill:rgb(24.313725%,64.313725%,80%);fill-opacity:1;" />
<path d="M 404 398.785156 C 399.171875 398.785156 395.257812 394.871094 395.257812 390.042969 L 395.257812 379.164062 C 395.257812 374.335938 399.171875 370.421875 404 370.421875 C 408.828125 370.421875 412.738281 374.335938 412.738281 379.164062 L 412.738281 390.042969 C 412.738281 394.871094 408.828125 398.785156 404 398.785156 Z M 404 398.785156 " style=" stroke:none;fill-rule:nonzero;fill:rgb(24.313725%,64.313725%,80%);fill-opacity:1;" />
<path d="M 133.988281 426.484375 C 129.160156 426.484375 125.246094 422.570312 125.246094 417.742188 L 125.246094 417.5625 C 125.246094 412.734375 129.160156 408.820312 133.988281 408.820312 C 138.816406 408.820312 142.730469 412.734375 142.730469 417.5625 L 142.730469 417.742188 C 142.730469 422.570312 138.816406 426.484375 133.988281 426.484375 Z M 133.988281 426.484375 " style=" stroke:none;fill-rule:nonzero;fill:rgb(20.784314%,55.686275%,72.941176%);fill-opacity:1;" />
<path d="M 187.988281 426.484375 C 183.160156 426.484375 179.25 422.570312 179.25 417.742188 L 179.25 417.5625 C 179.25 412.734375 183.160156 408.820312 187.988281 408.820312 C 192.816406 408.820312 196.730469 412.734375 196.730469 417.5625 L 196.730469 417.742188 C 196.730469 422.570312 192.816406 426.484375 187.988281 426.484375 Z M 187.988281 426.484375 " style=" stroke:none;fill-rule:nonzero;fill:rgb(20.784314%,55.686275%,72.941176%);fill-opacity:1;" />
<path d="M 241.992188 426.484375 C 237.164062 426.484375 233.25 422.570312 233.25 417.742188 L 233.25 417.5625 C 233.25 412.734375 237.164062 408.820312 241.992188 408.820312 C 246.820312 408.820312 250.730469 412.734375 250.730469 417.5625 L 250.730469 417.742188 C 250.730469 422.570312 246.820312 426.484375 241.992188 426.484375 Z M 241.992188 426.484375 " style=" stroke:none;fill-rule:nonzero;fill:rgb(24.313725%,64.313725%,80%);fill-opacity:1;" />
<path d="M 295.992188 426.484375 C 291.164062 426.484375 287.25 422.570312 287.25 417.742188 L 287.25 417.5625 C 287.25 412.734375 291.164062 408.820312 295.992188 408.820312 C 300.820312 408.820312 304.734375 412.734375 304.734375 417.5625 L 304.734375 417.742188 C 304.734375 422.570312 300.820312 426.484375 295.992188 426.484375 Z M 295.992188 426.484375 " style=" stroke:none;fill-rule:nonzero;fill:rgb(24.313725%,64.313725%,80%);fill-opacity:1;" />
<path d="M 349.996094 426.484375 C 345.167969 426.484375 341.253906 422.570312 341.253906 417.742188 L 341.253906 417.5625 C 341.253906 412.734375 345.167969 408.820312 349.996094 408.820312 C 354.820312 408.820312 358.734375 412.734375 358.734375 417.5625 L 358.734375 417.742188 C 358.734375 422.570312 354.820312 426.484375 349.996094 426.484375 Z M 349.996094 426.484375 " style=" stroke:none;fill-rule:nonzero;fill:rgb(24.313725%,64.313725%,80%);fill-opacity:1;" />
<path d="M 403.996094 426.484375 C 399.167969 426.484375 395.253906 422.570312 395.253906 417.742188 L 395.253906 417.5625 C 395.253906 412.734375 399.167969 408.820312 403.996094 408.820312 C 408.824219 408.820312 412.738281 412.734375 412.738281 417.5625 L 412.738281 417.742188 C 412.738281 422.570312 408.824219 426.484375 403.996094 426.484375 Z M 403.996094 426.484375 " style=" stroke:none;fill-rule:nonzero;fill:rgb(24.313725%,64.313725%,80%);fill-opacity:1;" />
<path d="M 454.40625 370.421875 L 69.109375 370.421875 C 64.28125 370.421875 60.371094 374.335938 60.371094 379.164062 C 60.371094 383.992188 64.28125 387.90625 69.109375 387.90625 L 442.847656 387.90625 C 446.941406 382.253906 450.800781 376.421875 454.40625 370.421875 Z M 454.40625 370.421875 " style=" stroke:none;fill-rule:nonzero;fill:rgb(20.784314%,55.686275%,72.941176%);fill-opacity:1;" />
<path d="M 214.546875 379.164062 C 214.546875 375.050781 217.261719 371.574219 220.996094 370.421875 L 69.109375 370.421875 C 64.28125 370.421875 60.371094 374.335938 60.371094 379.164062 C 60.371094 383.992188 64.28125 387.90625 69.109375 387.90625 L 220.996094 387.90625 C 217.261719 386.753906 214.546875 383.277344 214.546875 379.164062 Z M 214.546875 379.164062 " style=" stroke:none;fill-rule:nonzero;fill:rgb(13.72549%,42.352941%,60.784314%);fill-opacity:1;" />
<path d="M 71.246094 72.050781 L 71.246094 390.042969 C 71.246094 394.871094 75.160156 398.785156 79.988281 398.785156 C 84.816406 398.785156 88.730469 394.871094 88.730469 390.042969 L 88.730469 56.097656 C 82.644531 61.132812 76.8125 66.457031 71.246094 72.050781 Z M 71.246094 72.050781 " style=" stroke:none;fill-rule:nonzero;fill:rgb(13.72549%,42.352941%,60.784314%);fill-opacity:1;" />
</g>
</svg>