<svg xmlns="http://www.w3.org/2000/svg" height="512pt" version="1.1" viewBox="0 -21 512.00101 512" width="512pt">
<g id="surface1">
<path d="M 469.636719 234.820312 C 469.636719 364.503906 364.503906 469.636719 234.816406 469.636719 C 105.132812 469.636719 0 364.503906 0 234.820312 C 0 105.132812 105.132812 0 234.816406 0 C 364.503906 0 469.636719 105.132812 469.636719 234.820312 Z M 469.636719 234.820312 " style=" stroke:none;fill-rule:nonzero;fill:rgb(6.27451%,29.019608%,48.627451%);fill-opacity:1;" />
<path d="M 230.386719 53.59375 C 112.085938 57.707031 15.660156 147.863281 1.734375 263.414062 C 2.929688 273.234375 4.726562 282.871094 7.09375 292.28125 L 238.832031 292.28125 L 238.832031 61.695312 C 238.832031 57.082031 234.992188 53.433594 230.386719 53.59375 Z M 230.386719 53.59375 " style=" stroke:none;fill-rule:nonzero;fill:rgb(96.862745%,87.45098%,60.392157%);fill-opacity:1;" />
<path d="M 238.832031 95.953125 C 130.40625 95.953125 42.507812 183.851562 42.507812 292.28125 L 238.832031 292.28125 Z M 238.832031 95.953125 " style=" stroke:none;fill-rule:nonzero;fill:rgb(95.686275%,78.039216%,34.509804%);fill-opacity:1;" />
<path d="M 238.902344 469.585938 C 346.957031 467.738281 437.226562 392.917969 462.539062 292.28125 L 238.902344 292.28125 Z M 238.902344 469.585938 " style=" stroke:none;fill-rule:nonzero;fill:rgb(53.333333%,49.411765%,100%);fill-opacity:1;" />
<path d="M 238.902344 292.28125 L 238.902344 469.585938 C 304.617188 468.460938 363.75 440.355469 405.699219 395.855469 C 424.410156 365.789062 435.230469 330.300781 435.230469 292.28125 Z M 238.902344 292.28125 " style=" stroke:none;fill-rule:nonzero;fill:rgb(37.647059%,37.647059%,95.686275%);fill-opacity:1;" />
<path d="M 503.894531 257.792969 L 281.058594 257.792969 C 276.777344 257.792969 273.308594 254.324219 273.308594 250.042969 L 273.308594 27.96875 C 273.308594 22.941406 277.496094 18.941406 282.523438 19.132812 C 407.355469 23.867188 507.652344 124.414062 511.996094 249.34375 C 512.15625 253.953125 508.507812 257.792969 503.894531 257.792969 Z M 503.894531 257.792969 " style=" stroke:none;fill-rule:nonzero;fill:rgb(98.823529%,52.54902%,74.901961%);fill-opacity:1;" />
<path d="M 273.308594 61.464844 L 273.308594 250.042969 C 273.308594 254.324219 276.777344 257.792969 281.058594 257.792969 L 469.636719 257.792969 C 469.636719 149.363281 381.738281 61.464844 273.308594 61.464844 Z M 273.308594 61.464844 " style=" stroke:none;fill-rule:nonzero;fill:rgb(96.862745%,32.941176%,69.411765%);fill-opacity:1;" />
<path d="M 238.832031 469.585938 L 238.832031 292.28125 L 7.09375 292.28125 C 33.1875 396.007812 127.785156 471.453125 238.832031 469.585938 Z M 238.832031 469.585938 " style=" stroke:none;fill-rule:nonzero;fill:rgb(98.431373%,56.862745%,54.117647%);fill-opacity:1;" />
<path d="M 88.320312 418.324219 C 130.625 452.140625 183.285156 470.519531 238.832031 469.585938 L 238.832031 292.28125 L 42.507812 292.28125 C 42.507812 340.265625 59.730469 384.21875 88.320312 418.324219 Z M 88.320312 418.324219 " style=" stroke:none;fill-rule:nonzero;fill:rgb(95.686275%,41.176471%,41.176471%);fill-opacity:1;" />
<path d="M 238.902344 455.125 L 238.902344 469.585938 C 250.039062 469.394531 260.976562 468.410156 271.683594 466.722656 C 260.398438 463.644531 249.453125 459.757812 238.902344 455.125 Z M 238.902344 455.125 " style=" stroke:none;fill-rule:nonzero;fill:rgb(29.803922%,29.803922%,92.941176%);fill-opacity:1;" />
<path d="M 103.140625 292.28125 L 7.09375 292.28125 C 33.1875 396.007812 127.785156 471.449219 238.832031 469.585938 L 238.832031 455.09375 C 171.40625 425.449219 120.386719 365.390625 103.140625 292.28125 Z M 103.140625 292.28125 " style=" stroke:none;fill-rule:nonzero;fill:rgb(95.686275%,41.176471%,41.176471%);fill-opacity:1;" />
<path d="M 173.871094 62.40625 C 82.507812 88.171875 13.359375 166.933594 1.734375 263.414062 C 2.929688 273.234375 4.726562 282.871094 7.09375 292.28125 L 103.140625 292.28125 C 83.621094 209.523438 109.402344 121.507812 173.871094 62.40625 Z M 173.871094 62.40625 " style=" stroke:none;fill-rule:nonzero;fill:rgb(95.686275%,78.039216%,34.509804%);fill-opacity:1;" />
<path d="M 238.832031 95.953125 C 130.40625 95.953125 42.507812 183.851562 42.507812 292.28125 L 238.832031 292.28125 Z M 238.832031 95.953125 " style=" stroke:none;fill-rule:nonzero;fill:rgb(95.686275%,78.039216%,34.509804%);fill-opacity:1;" />
<path d="M 119.296875 136.542969 C 72.605469 172.433594 42.507812 228.835938 42.507812 292.28125 L 103.140625 292.28125 C 91.003906 240.824219 96.179688 185.667969 119.296875 136.542969 Z M 119.296875 136.542969 " style=" stroke:none;fill-rule:nonzero;fill:rgb(91.764706%,70.196078%,22.352941%);fill-opacity:1;" />
<path d="M 88.320312 418.324219 C 130.625 452.140625 183.285156 470.519531 238.832031 469.585938 L 238.832031 292.28125 L 42.507812 292.28125 C 42.507812 340.265625 59.730469 384.21875 88.320312 418.324219 Z M 88.320312 418.324219 " style=" stroke:none;fill-rule:nonzero;fill:rgb(95.686275%,41.176471%,41.176471%);fill-opacity:1;" />
<path d="M 103.140625 292.28125 L 42.507812 292.28125 C 42.507812 340.265625 59.730469 384.21875 88.320312 418.324219 C 130.714844 452.214844 183.414062 470.515625 238.832031 469.585938 L 238.832031 455.09375 C 171.40625 425.449219 120.386719 365.390625 103.140625 292.28125 Z M 103.140625 292.28125 " style=" stroke:none;fill-rule:nonzero;fill:rgb(91.764706%,32.941176%,32.941176%);fill-opacity:1;" />
</g>
</svg>