<svg xmlns="http://www.w3.org/2000/svg" height="512pt" version="1.1" viewBox="-25 0 512 512.00075" width="512pt">
<g id="surface1">
<path d="M 462.839844 280.582031 C 462.839844 408.390625 359.230469 512 231.421875 512 C 103.609375 512 0 408.390625 0 280.582031 C 0 152.769531 103.609375 49.160156 231.421875 49.160156 C 359.230469 49.160156 462.839844 152.769531 462.839844 280.582031 Z M 462.839844 280.582031 " style=" stroke:none;fill-rule:nonzero;fill:rgb(16.470588%,87.843137%,68.627451%);fill-opacity:1;" />
<path d="M 239.9375 5.265625 C 236.429688 -1.753906 226.410156 -1.753906 222.898438 5.265625 L 161.535156 128 L 301.308594 128 Z M 239.9375 5.265625 " style=" stroke:none;fill-rule:nonzero;fill:rgb(96.862745%,87.45098%,60.392157%);fill-opacity:1;" />
<path d="M 97.535156 256 L 33.535156 384 L 429.304688 384 L 365.308594 256 Z M 97.535156 256 " style=" stroke:none;fill-rule:nonzero;fill:rgb(96.862745%,32.941176%,69.411765%);fill-opacity:1;" />
<path d="M 301.308594 128 L 161.535156 128 L 97.535156 256 L 365.308594 256 Z M 301.308594 128 " style=" stroke:none;fill-rule:nonzero;fill:rgb(98.431373%,56.862745%,54.117647%);fill-opacity:1;" />
<path d="M 433.769531 392.925781 L 429.304688 384 L 33.535156 384 L 29.070312 392.929688 C 68.585938 463.945312 144.382812 512 231.421875 512 C 318.457031 512 394.253906 463.945312 433.769531 392.925781 Z M 433.769531 392.925781 " style=" stroke:none;fill-rule:nonzero;fill:rgb(37.647059%,37.647059%,95.686275%);fill-opacity:1;" />
<path d="M 82.792969 418.445312 L 100.394531 384 L 33.535156 384 L 29.070312 392.929688 C 42.40625 416.894531 59.875 438.238281 80.511719 456.007812 C 76.203125 444.109375 76.613281 430.53125 82.792969 418.445312 Z M 82.792969 418.445312 " style=" stroke:none;fill-rule:nonzero;fill:rgb(29.803922%,29.803922%,92.941176%);fill-opacity:1;" />
<path d="M 165.824219 256 L 97.535156 256 L 33.535156 384 L 100.394531 384 Z M 165.824219 256 " style=" stroke:none;fill-rule:nonzero;fill:rgb(94.901961%,25.098039%,68.235294%);fill-opacity:1;" />
<path d="M 231.25 128 L 161.535156 128 L 97.535156 256 L 165.824219 256 Z M 231.25 128 " style=" stroke:none;fill-rule:nonzero;fill:rgb(95.686275%,41.176471%,41.176471%);fill-opacity:1;" />
<path d="M 248.90625 93.453125 C 254.21875 83.066406 262.917969 75.488281 272.984375 71.355469 L 239.941406 5.265625 C 236.429688 -1.753906 226.410156 -1.753906 222.902344 5.265625 L 161.535156 128 L 231.25 128 Z M 248.90625 93.453125 " style=" stroke:none;fill-rule:nonzero;fill:rgb(95.686275%,78.039216%,34.509804%);fill-opacity:1;" />
</g>
</svg>