<svg xmlns="http://www.w3.org/2000/svg" height="512pt" version="1.1" viewBox="0 0 512 512" width="512pt">
<g id="surface1">
<path d="M 512 256 C 512 397.386719 397.386719 512 256 512 C 114.613281 512 0 397.386719 0 256 C 0 114.613281 114.613281 0 256 0 C 397.386719 0 512 114.613281 512 256 Z M 512 256 " style=" stroke:none;fill-rule:nonzero;fill:rgb(6.27451%,29.019608%,48.627451%);fill-opacity:1;" />
<path d="M 511.210938 276.167969 C 500.929688 144.210938 390.597656 40.332031 256 40.332031 L 256 163.394531 C 329.417969 163.394531 388.9375 222.914062 388.9375 296.332031 L 508.828125 296.332031 C 509.878906 289.691406 510.679688 282.96875 511.210938 276.167969 Z M 511.210938 276.167969 " style=" stroke:none;fill-rule:nonzero;fill:rgb(98.431373%,56.862745%,54.117647%);fill-opacity:1;" />
<path d="M 256 125.398438 L 256 163.398438 C 329.417969 163.398438 388.9375 222.914062 388.9375 296.335938 L 426.933594 296.335938 C 426.933594 201.929688 350.402344 125.398438 256 125.398438 Z M 256 125.398438 " style=" stroke:none;fill-rule:nonzero;fill:rgb(95.686275%,41.176471%,41.176471%);fill-opacity:1;" />
<path d="M 508.828125 296.332031 L 388.9375 296.332031 C 388.9375 369.753906 329.417969 429.269531 256 429.269531 L 256 512 C 383.660156 512 489.480469 418.554688 508.828125 296.332031 Z M 508.828125 296.332031 " style=" stroke:none;fill-rule:nonzero;fill:rgb(25.098039%,62.352941%,96.078431%);fill-opacity:1;" />
<path d="M 256 467.265625 L 256 429.269531 C 329.417969 429.269531 388.9375 369.753906 388.9375 296.332031 L 426.933594 296.332031 C 426.933594 390.738281 350.402344 467.265625 256 467.265625 Z M 256 467.265625 " style=" stroke:none;fill-rule:nonzero;fill:rgb(5.490196%,55.294118%,85.882353%);fill-opacity:1;" />
<path d="M 256 40.332031 C 121.402344 40.332031 11.070312 144.210938 0.789062 276.167969 C 1.316406 282.96875 2.121094 289.691406 3.171875 296.332031 L 123.0625 296.332031 C 123.0625 222.914062 182.582031 163.394531 256 163.394531 Z M 256 40.332031 " style=" stroke:none;fill-rule:nonzero;fill:rgb(96.862745%,87.45098%,60.392157%);fill-opacity:1;" />
<path d="M 256 125.398438 L 256 163.398438 C 182.582031 163.398438 123.0625 222.914062 123.0625 296.335938 L 85.066406 296.335938 C 85.066406 201.929688 161.597656 125.398438 256 125.398438 Z M 256 125.398438 " style=" stroke:none;fill-rule:nonzero;fill:rgb(95.686275%,78.039216%,34.509804%);fill-opacity:1;" />
<path d="M 123.0625 296.332031 L 3.171875 296.332031 C 22.519531 418.554688 128.339844 512 256 512 L 256 429.269531 C 182.582031 429.269531 123.0625 369.753906 123.0625 296.332031 Z M 123.0625 296.332031 " style=" stroke:none;fill-rule:nonzero;fill:rgb(9.019608%,78.823529%,58.823529%);fill-opacity:1;" />
<path d="M 256 467.265625 L 256 429.269531 C 182.582031 429.269531 123.0625 369.753906 123.0625 296.332031 L 85.066406 296.332031 C 85.066406 390.738281 161.597656 467.265625 256 467.265625 Z M 256 467.265625 " style=" stroke:none;fill-rule:nonzero;fill:rgb(4.313725%,71.764706%,50.980392%);fill-opacity:1;" />
<path d="M 129.585938 113.210938 C 129.585938 89.578125 142.601562 69 161.847656 58.214844 C 73.003906 93.375 8.53125 176.808594 0.789062 276.171875 C 1.316406 282.96875 2.121094 289.691406 3.171875 296.335938 L 123.0625 296.335938 C 123.0625 242.960938 154.519531 196.945312 199.902344 175.789062 C 162.125 180.152344 129.585938 150.617188 129.585938 113.210938 Z M 129.585938 113.210938 " style=" stroke:none;fill-rule:nonzero;fill:rgb(95.686275%,78.039216%,34.509804%);fill-opacity:1;" />
<path d="M 317.597656 414.15625 C 299.183594 423.804688 278.230469 429.269531 256 429.269531 L 256 512 C 278.664062 512 300.632812 509.039062 321.558594 503.511719 C 295.628906 479.949219 293.898438 439.851562 317.597656 414.15625 Z M 317.597656 414.15625 " style=" stroke:none;fill-rule:nonzero;fill:rgb(5.490196%,55.294118%,85.882353%);fill-opacity:1;" />
<path d="M 151.570312 161.011719 C 111.121094 192.273438 85.066406 241.257812 85.066406 296.332031 L 123.0625 296.332031 C 123.0625 242.960938 154.519531 196.941406 199.902344 175.789062 C 181.800781 177.878906 164.566406 172.179688 151.570312 161.011719 Z M 151.570312 161.011719 " style=" stroke:none;fill-rule:nonzero;fill:rgb(91.764706%,70.196078%,22.352941%);fill-opacity:1;" />
<path d="M 317.597656 414.15625 C 299.183594 423.804688 278.230469 429.269531 256 429.269531 L 256 467.265625 C 271.605469 467.265625 286.714844 465.164062 301.074219 461.246094 C 299.859375 443.550781 305.96875 426.765625 317.597656 414.15625 Z M 317.597656 414.15625 " style=" stroke:none;fill-rule:nonzero;fill:rgb(1.960784%,49.411765%,78.823529%);fill-opacity:1;" />
</g>
</svg>