<svg xmlns="http://www.w3.org/2000/svg" height="512pt" version="1.1" viewBox="-17 0 512 512.00002" width="512pt">
<g id="surface1">
<path d="M 478.894531 272.554688 C 478.894531 404.796875 371.691406 512 239.445312 512 C 107.203125 512 0 404.796875 0 272.554688 C 0 140.308594 107.203125 33.105469 239.445312 33.105469 C 371.691406 33.105469 478.894531 140.308594 478.894531 272.554688 Z M 478.894531 272.554688 " style=" stroke:none;fill-rule:nonzero;fill:rgb(37.647059%,37.647059%,95.686275%);fill-opacity:1;" />
<path d="M 477.332031 299.890625 L 477.046875 299.523438 L 243.394531 399.773438 C 242.132812 400.316406 240.792969 400.585938 239.445312 400.585938 L 239.445312 512 C 362.441406 512 463.761719 419.257812 477.332031 299.890625 Z M 477.332031 299.890625 " style=" stroke:none;fill-rule:nonzero;fill:rgb(25.098039%,62.352941%,96.078431%);fill-opacity:1;" />
<path d="M 243.394531 264.144531 C 242.132812 264.6875 240.792969 264.957031 239.445312 264.957031 L 239.445312 400.585938 C 240.789062 400.585938 242.132812 400.316406 243.394531 399.773438 L 477.046875 299.523438 L 398.019531 197.800781 Z M 243.394531 264.144531 " style=" stroke:none;fill-rule:nonzero;fill:rgb(16.470588%,87.843137%,68.627451%);fill-opacity:1;" />
<path d="M 239.445312 129.324219 L 239.445312 264.957031 C 240.789062 264.957031 242.132812 264.6875 243.394531 264.144531 L 398.019531 197.800781 L 318.988281 96.078125 L 243.394531 128.515625 C 242.132812 129.054688 240.789062 129.324219 239.445312 129.324219 Z M 239.445312 129.324219 " style=" stroke:none;fill-rule:nonzero;fill:rgb(96.862745%,87.45098%,60.392157%);fill-opacity:1;" />
<path d="M 239.445312 0 L 239.445312 129.324219 C 240.789062 129.324219 242.132812 129.054688 243.394531 128.515625 L 318.988281 96.078125 L 247.351562 3.867188 C 245.347656 1.289062 242.398438 0 239.445312 0 Z M 239.445312 0 " style=" stroke:none;fill-rule:nonzero;fill:rgb(98.431373%,56.862745%,54.117647%);fill-opacity:1;" />
<path d="M 235.5 399.773438 L 1.847656 299.523438 L 1.5625 299.890625 C 15.132812 419.257812 116.449219 512 239.445312 512 L 239.445312 400.585938 C 238.105469 400.585938 236.761719 400.316406 235.5 399.773438 Z M 235.5 399.773438 " style=" stroke:none;fill-rule:nonzero;fill:rgb(5.490196%,55.294118%,85.882353%);fill-opacity:1;" />
<path d="M 239.445312 512 C 152.960938 465.984375 115.222656 404.5625 103.351562 343.074219 L 1.847656 299.523438 L 1.5625 299.890625 C 15.132812 419.257812 116.449219 512 239.445312 512 Z M 239.445312 512 " style=" stroke:none;fill-rule:nonzero;fill:rgb(1.960784%,49.411765%,78.823529%);fill-opacity:1;" />
<path d="M 80.875 197.800781 L 1.847656 299.523438 L 235.5 399.777344 C 236.761719 400.316406 238.105469 400.585938 239.449219 400.585938 L 239.449219 264.957031 C 238.105469 264.957031 236.761719 264.6875 235.5 264.144531 Z M 80.875 197.800781 " style=" stroke:none;fill-rule:nonzero;fill:rgb(9.019608%,78.823529%,58.823529%);fill-opacity:1;" />
<path d="M 110.796875 210.640625 L 80.875 197.804688 L 1.847656 299.523438 L 103.351562 343.074219 C 94.417969 296.785156 100.144531 250.460938 110.796875 210.640625 Z M 110.796875 210.640625 " style=" stroke:none;fill-rule:nonzero;fill:rgb(4.313725%,71.764706%,50.980392%);fill-opacity:1;" />
<path d="M 235.5 128.515625 L 159.902344 96.078125 L 80.875 197.800781 L 235.5 264.144531 C 236.761719 264.6875 238.105469 264.957031 239.449219 264.957031 L 239.449219 129.324219 C 238.105469 129.324219 236.761719 129.054688 235.5 128.515625 Z M 235.5 128.515625 " style=" stroke:none;fill-rule:nonzero;fill:rgb(95.686275%,78.039216%,34.509804%);fill-opacity:1;" />
<path d="M 159.90625 96.078125 L 80.875 197.800781 L 110.796875 210.640625 C 128.535156 144.339844 159.902344 96.078125 159.90625 96.078125 Z M 159.90625 96.078125 " style=" stroke:none;fill-rule:nonzero;fill:rgb(91.764706%,70.196078%,22.352941%);fill-opacity:1;" />
<path d="M 231.542969 3.867188 L 159.902344 96.078125 L 235.5 128.515625 C 236.761719 129.054688 238.105469 129.324219 239.445312 129.324219 L 239.445312 0 C 236.496094 0 233.546875 1.289062 231.542969 3.867188 Z M 231.542969 3.867188 " style=" stroke:none;fill-rule:nonzero;fill:rgb(95.686275%,41.176471%,41.176471%);fill-opacity:1;" />
</g>
</svg>