<svg xmlns="http://www.w3.org/2000/svg" height="512pt" version="1.1" viewBox="-14 0 512 512" width="512pt">
<g id="surface1">
<path d="M 483.050781 270.476562 C 483.050781 403.867188 374.914062 512 241.523438 512 C 108.132812 512 0 403.867188 0 270.476562 C 0 137.085938 108.132812 28.949219 241.523438 28.949219 C 374.914062 28.949219 483.050781 137.085938 483.050781 270.476562 Z M 483.050781 270.476562 " style=" stroke:none;fill-rule:nonzero;fill:rgb(37.647059%,37.647059%,95.686275%);fill-opacity:1;" />
<path d="M 483.050781 270.476562 C 483.050781 264.898438 482.84375 259.367188 482.472656 253.882812 C 478.90625 250.320312 475.304688 246.714844 471.480469 242.894531 C 468.679688 240.09375 464.304688 239.628906 460.976562 241.777344 L 434.269531 259.046875 C 427.007812 255.101562 419.285156 251.890625 411.214844 249.496094 L 404.539062 218.402344 C 403.710938 214.527344 400.285156 211.761719 396.324219 211.761719 C 382.820312 211.761719 371.21875 211.761719 357.71875 211.761719 C 353.757812 211.761719 350.335938 214.527344 349.503906 218.402344 L 342.828125 249.496094 C 334.757812 251.890625 327.035156 255.101562 319.773438 259.046875 L 293.066406 241.777344 C 289.738281 239.628906 285.363281 240.09375 282.5625 242.894531 C 273.015625 252.441406 264.8125 260.644531 255.265625 270.191406 C 252.464844 272.992188 251.996094 277.367188 254.148438 280.695312 L 271.417969 307.402344 C 267.472656 314.667969 264.261719 322.386719 261.867188 330.457031 L 230.773438 337.132812 C 226.898438 337.960938 224.132812 341.386719 224.132812 345.347656 C 224.132812 358.851562 224.132812 370.453125 224.132812 383.953125 C 224.132812 387.914062 226.898438 391.339844 230.773438 392.171875 L 261.867188 398.84375 C 264.261719 406.914062 267.472656 414.632812 271.417969 421.898438 L 254.148438 448.605469 C 251.996094 451.933594 252.460938 456.308594 255.265625 459.109375 C 264.8125 468.65625 273.015625 476.859375 282.5625 486.40625 C 285.363281 489.210938 289.738281 489.675781 293.066406 487.523438 L 319.773438 470.253906 C 327.035156 474.199219 334.757812 477.410156 342.828125 479.800781 L 344.773438 488.863281 C 426.507812 450.15625 483.050781 366.925781 483.050781 270.476562 Z M 305.328125 364.652344 C 305.328125 325.054688 337.425781 292.957031 377.019531 292.957031 C 416.617188 292.957031 448.714844 325.054688 448.714844 364.652344 C 448.714844 404.246094 416.617188 436.34375 377.019531 436.34375 C 337.425781 436.34375 305.328125 404.246094 305.328125 364.652344 Z M 305.328125 364.652344 " style=" stroke:none;fill-rule:nonzero;fill:rgb(16.470588%,87.843137%,68.627451%);fill-opacity:1;" />
<path d="M 368.648438 75.964844 L 349.804688 71.921875 C 348.355469 67.03125 346.410156 62.351562 344.019531 57.953125 L 354.484375 41.769531 C 355.785156 39.753906 355.507812 37.101562 353.808594 35.402344 C 348.023438 29.617188 343.050781 24.648438 337.265625 18.863281 C 335.570312 17.164062 332.917969 16.882812 330.902344 18.1875 L 314.71875 28.652344 C 310.316406 26.261719 305.640625 24.316406 300.75 22.863281 L 296.707031 4.023438 C 296.203125 1.675781 294.128906 0 291.726562 0 C 283.546875 0 276.515625 0 268.335938 0 C 265.933594 0 263.859375 1.675781 263.355469 4.023438 L 259.3125 22.867188 C 254.421875 24.316406 249.742188 26.261719 245.34375 28.652344 L 229.160156 18.1875 C 227.144531 16.886719 224.492188 17.164062 222.796875 18.863281 C 217.011719 24.648438 212.039062 29.621094 206.253906 35.40625 C 204.558594 37.101562 204.273438 39.753906 205.578125 41.769531 L 216.042969 57.953125 C 213.652344 62.355469 211.707031 67.03125 210.257812 71.921875 L 191.414062 75.964844 C 189.066406 76.46875 187.390625 78.542969 187.390625 80.945312 C 187.390625 89.125 187.390625 96.15625 187.390625 104.335938 C 187.390625 106.738281 189.066406 108.8125 191.414062 109.316406 L 210.257812 113.359375 C 211.707031 118.25 213.652344 122.929688 216.042969 127.328125 L 205.578125 143.511719 C 204.273438 145.527344 204.554688 148.179688 206.253906 149.878906 C 212.039062 155.664062 217.011719 160.632812 222.796875 166.417969 C 224.492188 168.117188 227.144531 168.398438 229.160156 167.09375 L 245.34375 156.632812 C 249.742188 159.023438 254.421875 160.96875 259.3125 162.417969 L 263.355469 181.257812 C 263.859375 183.605469 265.933594 185.28125 268.335938 185.28125 C 276.515625 185.28125 283.546875 185.28125 291.726562 185.28125 C 294.128906 185.28125 296.203125 183.605469 296.707031 181.257812 L 300.75 162.417969 C 305.640625 160.96875 310.316406 159.023438 314.71875 156.632812 L 330.902344 167.09375 C 332.917969 168.398438 335.570312 168.117188 337.265625 166.417969 C 343.050781 160.632812 348.023438 155.664062 353.808594 149.878906 C 355.503906 148.179688 355.785156 145.527344 354.484375 143.511719 L 344.019531 127.328125 C 346.410156 122.929688 348.355469 118.25 349.804688 113.359375 L 368.648438 109.316406 C 370.996094 108.8125 372.671875 106.738281 372.671875 104.335938 C 372.671875 96.15625 372.671875 89.125 372.671875 80.945312 C 372.671875 78.542969 370.996094 76.46875 368.648438 75.964844 Z M 280.03125 133.011719 C 257.734375 133.011719 239.660156 114.9375 239.660156 92.640625 C 239.660156 70.347656 257.734375 52.269531 280.03125 52.269531 C 302.328125 52.269531 320.402344 70.347656 320.402344 92.640625 C 320.402344 114.9375 302.328125 133.011719 280.03125 133.011719 Z M 280.03125 133.011719 " style=" stroke:none;fill-rule:nonzero;fill:rgb(96.862745%,87.45098%,60.392157%);fill-opacity:1;" />
<path d="M 230.09375 236.621094 L 206.171875 231.488281 C 204.332031 225.277344 201.863281 219.34375 198.828125 213.753906 L 212.113281 193.214844 C 213.765625 190.652344 213.410156 187.285156 211.253906 185.132812 C 203.910156 177.789062 197.601562 171.480469 190.257812 164.136719 C 188.101562 161.980469 184.734375 161.625 182.175781 163.277344 L 161.632812 176.5625 C 156.046875 173.527344 150.109375 171.054688 143.902344 169.214844 L 138.769531 145.296875 C 138.128906 142.316406 135.496094 140.191406 132.449219 140.191406 C 122.0625 140.191406 113.140625 140.191406 102.753906 140.191406 C 99.707031 140.191406 97.074219 142.316406 96.433594 145.296875 L 91.300781 169.214844 C 85.09375 171.054688 79.15625 173.527344 73.566406 176.5625 L 53.023438 163.277344 C 50.464844 161.621094 47.101562 161.980469 44.945312 164.136719 C 37.601562 171.480469 31.289062 177.789062 23.949219 185.132812 C 21.792969 187.289062 21.4375 190.65625 23.089844 193.214844 L 36.371094 213.753906 C 33.339844 219.34375 30.867188 225.277344 29.027344 231.488281 L 5.109375 236.621094 C 2.128906 237.261719 0.00390625 239.894531 0.00390625 242.941406 C 0.00390625 253.328125 0.00390625 262.25 0.00390625 272.636719 C 0.00390625 275.683594 2.128906 278.316406 5.109375 278.957031 L 29.027344 284.089844 C 30.867188 290.300781 33.335938 296.238281 36.371094 301.824219 L 23.089844 322.367188 C 21.4375 324.925781 21.792969 328.289062 23.949219 330.445312 C 31.289062 337.789062 37.601562 344.101562 44.945312 351.441406 C 47.101562 353.597656 50.464844 353.953125 53.023438 352.300781 L 73.566406 339.019531 C 79.15625 342.054688 85.09375 344.523438 91.300781 346.363281 L 96.433594 370.28125 C 97.074219 373.261719 99.707031 375.386719 102.753906 375.386719 C 113.140625 375.386719 122.0625 375.386719 132.449219 375.386719 C 135.496094 375.386719 138.128906 373.261719 138.769531 370.28125 L 143.902344 346.363281 C 150.109375 344.523438 156.046875 342.050781 161.632812 339.019531 L 182.175781 352.300781 C 184.734375 353.953125 188.101562 353.597656 190.257812 351.441406 C 197.601562 344.097656 203.910156 337.789062 211.253906 330.445312 C 213.410156 328.292969 213.765625 324.925781 212.113281 322.367188 L 198.828125 301.824219 C 201.863281 296.234375 204.332031 290.300781 206.171875 284.089844 L 230.09375 278.957031 C 233.070312 278.316406 235.199219 275.683594 235.199219 272.636719 C 235.199219 262.253906 235.199219 253.328125 235.199219 242.941406 C 235.199219 239.894531 233.070312 237.261719 230.09375 236.621094 Z M 117.597656 308.976562 C 89.328125 308.976562 66.414062 286.058594 66.414062 257.789062 C 66.414062 229.519531 89.328125 206.601562 117.597656 206.601562 C 145.867188 206.601562 168.785156 229.519531 168.785156 257.789062 C 168.785156 286.058594 145.867188 308.976562 117.597656 308.976562 Z M 117.597656 308.976562 " style=" stroke:none;fill-rule:nonzero;fill:rgb(98.431373%,56.862745%,54.117647%);fill-opacity:1;" />
<path d="M 419.964844 422.066406 C 407.992188 431.03125 393.128906 436.34375 377.019531 436.34375 C 337.425781 436.34375 305.328125 404.246094 305.328125 364.652344 C 305.328125 337.5625 320.351562 313.992188 342.519531 301.796875 C 326.976562 289.363281 324.589844 266.773438 336.980469 251.398438 C 331.015625 253.503906 325.261719 256.066406 319.773438 259.046875 L 293.066406 241.777344 C 289.738281 239.628906 285.363281 240.09375 282.5625 242.894531 C 273.015625 252.441406 264.8125 260.644531 255.265625 270.191406 C 252.464844 272.992188 251.996094 277.371094 254.148438 280.695312 L 271.417969 307.402344 C 267.472656 314.667969 264.261719 322.386719 261.867188 330.457031 L 230.773438 337.132812 C 226.898438 337.964844 224.132812 341.386719 224.132812 345.347656 C 224.132812 358.851562 224.132812 370.453125 224.132812 383.953125 C 224.132812 387.914062 226.898438 391.339844 230.773438 392.171875 L 261.867188 398.84375 C 264.261719 406.914062 267.472656 414.636719 271.417969 421.898438 L 254.148438 448.605469 C 251.996094 451.933594 252.460938 456.308594 255.265625 459.109375 C 264.8125 468.65625 273.015625 476.863281 282.5625 486.410156 C 285.363281 489.210938 289.738281 489.675781 293.066406 487.523438 L 319.773438 470.253906 C 327.035156 474.199219 334.757812 477.410156 342.828125 479.804688 L 344.773438 488.867188 C 374.878906 474.609375 401.558594 454.304688 423.261719 429.53125 Z M 419.964844 422.066406 " style=" stroke:none;fill-rule:nonzero;fill:rgb(9.019608%,78.823529%,58.823529%);fill-opacity:1;" />
<path d="M 459.773438 374.03125 C 460.117188 370.949219 460.3125 367.824219 460.3125 364.652344 C 460.3125 318.726562 422.949219 281.359375 377.019531 281.359375 C 331.09375 281.359375 293.726562 318.722656 293.726562 364.652344 C 293.726562 410.582031 331.089844 447.945312 377.019531 447.945312 C 390.507812 447.945312 403.242188 444.703125 414.523438 438.992188 C 432.949219 420.078125 448.304688 398.15625 459.773438 374.03125 Z M 316.921875 364.652344 C 316.921875 331.515625 343.882812 304.554688 377.019531 304.554688 C 410.160156 304.554688 437.121094 331.515625 437.121094 364.652344 C 437.121094 397.792969 410.160156 424.753906 377.019531 424.753906 C 343.882812 424.753906 316.921875 397.792969 316.921875 364.652344 Z M 316.921875 364.652344 " style=" stroke:none;fill-rule:nonzero;fill:rgb(9.019608%,78.823529%,58.823529%);fill-opacity:1;" />
<path d="M 411.496094 413.835938 C 401.726562 420.703125 389.839844 424.753906 377.019531 424.753906 C 343.882812 424.753906 316.921875 397.792969 316.921875 364.652344 C 316.921875 339.003906 333.074219 317.070312 355.742188 308.457031 C 346.902344 306.136719 339.402344 300.515625 334.628906 292.992188 C 310.164062 307.519531 293.726562 334.195312 293.726562 364.652344 C 293.726562 410.582031 331.089844 447.945312 377.019531 447.945312 C 390.507812 447.945312 403.242188 444.703125 414.523438 438.992188 C 416.058594 437.414062 417.5625 435.808594 419.054688 434.191406 C 414.621094 428.527344 411.851562 421.5 411.496094 413.835938 Z M 411.496094 413.835938 " style=" stroke:none;fill-rule:nonzero;fill:rgb(4.313725%,71.764706%,50.980392%);fill-opacity:1;" />
<path d="M 291.457031 131.644531 C 291.457031 131.546875 291.464844 131.453125 291.464844 131.359375 C 287.839844 132.425781 284.003906 133.011719 280.03125 133.011719 C 257.734375 133.011719 239.660156 114.9375 239.660156 92.640625 C 239.660156 77.632812 247.855469 64.550781 260.007812 57.589844 C 255.328125 52.648438 252.457031 45.984375 252.457031 38.644531 C 252.457031 33.113281 254.089844 27.96875 256.894531 23.652344 C 252.878906 24.996094 249.011719 26.660156 245.34375 28.652344 L 229.160156 18.1875 C 227.144531 16.886719 224.492188 17.164062 222.792969 18.863281 C 217.007812 24.648438 212.039062 29.621094 206.253906 35.40625 C 204.554688 37.101562 204.273438 39.753906 205.578125 41.769531 L 216.039062 57.953125 C 213.648438 62.355469 211.703125 67.03125 210.253906 71.921875 L 191.414062 75.964844 C 189.066406 76.46875 187.390625 78.542969 187.390625 80.945312 C 187.390625 89.125 187.390625 96.15625 187.390625 104.335938 C 187.390625 106.738281 189.066406 108.8125 191.414062 109.316406 L 210.253906 113.359375 C 211.703125 118.25 213.648438 122.929688 216.039062 127.328125 L 205.578125 143.511719 C 204.273438 145.527344 204.554688 148.179688 206.253906 149.878906 C 212.039062 155.664062 217.007812 160.632812 222.792969 166.417969 C 224.492188 168.117188 227.144531 168.398438 229.160156 167.09375 L 245.34375 156.632812 C 249.742188 159.023438 254.421875 160.96875 259.3125 162.417969 L 263.355469 181.257812 C 263.859375 183.605469 265.933594 185.28125 268.335938 185.28125 C 276.515625 185.28125 283.546875 185.28125 291.726562 185.28125 C 294.128906 185.28125 296.199219 183.605469 296.703125 181.257812 L 300.75 162.417969 C 304.511719 161.300781 308.144531 159.886719 311.628906 158.207031 C 299.996094 154.96875 291.457031 144.308594 291.457031 131.644531 Z M 291.457031 131.644531 " style=" stroke:none;fill-rule:nonzero;fill:rgb(95.686275%,78.039216%,34.509804%);fill-opacity:1;" />
<path d="M 127.910156 307.9375 C 96.128906 314.433594 66.414062 290.171875 66.414062 257.789062 C 66.414062 240.21875 75.269531 224.722656 88.757812 215.503906 C 77.042969 203.015625 76.363281 183.839844 87.117188 170.570312 C 82.414062 172.210938 77.886719 174.214844 73.566406 176.5625 L 53.023438 163.277344 C 50.464844 161.621094 47.097656 161.980469 44.941406 164.136719 C 37.597656 171.480469 31.289062 177.789062 23.945312 185.132812 C 21.792969 187.289062 21.433594 190.65625 23.089844 193.214844 L 36.371094 213.753906 C 33.335938 219.34375 30.867188 225.277344 29.027344 231.488281 L 5.105469 236.621094 C 2.128906 237.261719 0 239.894531 0 242.941406 C 0 253.328125 0 262.25 0 272.636719 C 0 275.683594 2.128906 278.316406 5.105469 278.957031 L 29.027344 284.089844 C 30.867188 290.300781 33.335938 296.238281 36.371094 301.824219 L 23.089844 322.367188 C 21.433594 324.925781 21.789062 328.289062 23.945312 330.445312 C 31.289062 337.789062 37.597656 344.101562 44.941406 351.441406 C 47.097656 353.597656 50.464844 353.953125 53.023438 352.300781 L 73.566406 339.019531 C 79.152344 342.054688 85.089844 344.523438 91.296875 346.363281 L 96.433594 370.28125 C 97.070312 373.261719 99.703125 375.386719 102.753906 375.386719 C 113.136719 375.386719 122.0625 375.386719 132.445312 375.386719 C 135.492188 375.386719 138.128906 373.261719 138.765625 370.28125 L 143.902344 346.363281 C 148.414062 345.023438 152.785156 343.347656 156.984375 341.367188 C 140.652344 338.910156 128.109375 324.90625 127.910156 307.9375 Z M 127.910156 307.9375 " style=" stroke:none;fill-rule:nonzero;fill:rgb(95.686275%,41.176471%,41.176471%);fill-opacity:1;" />
<path d="M 280.03125 144.171875 C 251.617188 144.171875 228.5 121.054688 228.5 92.640625 C 228.5 64.226562 251.617188 41.109375 280.03125 41.109375 C 308.445312 41.109375 331.5625 64.226562 331.5625 92.640625 C 331.5625 121.054688 308.445312 144.171875 280.03125 144.171875 Z M 280.03125 63.429688 C 263.925781 63.429688 250.820312 76.535156 250.820312 92.640625 C 250.820312 108.746094 263.925781 121.851562 280.03125 121.851562 C 296.136719 121.851562 309.242188 108.746094 309.242188 92.640625 C 309.242188 76.535156 296.136719 63.429688 280.03125 63.429688 Z M 280.03125 63.429688 " style=" stroke:none;fill-rule:nonzero;fill:rgb(95.686275%,78.039216%,34.509804%);fill-opacity:1;" />
<path d="M 291.457031 131.644531 C 291.457031 126.464844 292.886719 121.625 295.367188 117.484375 C 290.90625 120.25 285.652344 121.851562 280.03125 121.851562 C 263.925781 121.851562 250.820312 108.746094 250.820312 92.640625 C 250.820312 79.59375 259.421875 68.519531 271.246094 64.78125 C 263.320312 62.117188 256.996094 55.957031 254.128906 48.121094 C 238.816406 57.066406 228.5 73.667969 228.5 92.640625 C 228.5 121.054688 251.617188 144.171875 280.027344 144.171875 C 284.730469 144.171875 289.277344 143.527344 293.609375 142.34375 C 292.222656 139.050781 291.457031 135.4375 291.457031 131.644531 Z M 291.457031 131.644531 " style=" stroke:none;fill-rule:nonzero;fill:rgb(91.764706%,70.196078%,22.352941%);fill-opacity:1;" />
<path d="M 117.597656 320.136719 C 83.222656 320.136719 55.253906 292.167969 55.253906 257.789062 C 55.253906 223.410156 83.222656 195.445312 117.597656 195.445312 C 151.976562 195.445312 179.945312 223.410156 179.945312 257.789062 C 179.945312 292.164062 151.976562 320.136719 117.597656 320.136719 Z M 117.597656 217.765625 C 95.527344 217.765625 77.574219 235.71875 77.574219 257.789062 C 77.574219 279.859375 95.527344 297.816406 117.597656 297.816406 C 139.667969 297.816406 157.625 279.859375 157.625 257.789062 C 157.625 235.71875 139.671875 217.765625 117.597656 217.765625 Z M 117.597656 217.765625 " style=" stroke:none;fill-rule:nonzero;fill:rgb(95.686275%,41.176471%,41.176471%);fill-opacity:1;" />
<path d="M 129.941406 295.859375 C 104.082031 304.265625 77.574219 284.855469 77.574219 257.789062 C 77.574219 242.679688 85.992188 229.503906 98.378906 222.691406 C 91.40625 219.1875 85.800781 213.378906 82.558594 206.253906 C 66.089844 217.488281 55.253906 236.394531 55.253906 257.789062 C 55.253906 296.851562 91.082031 326.675781 129.847656 318.921875 C 127.160156 311.304688 127.304688 303.125 129.941406 295.859375 Z M 129.941406 295.859375 " style=" stroke:none;fill-rule:nonzero;fill:rgb(91.764706%,32.941176%,32.941176%);fill-opacity:1;" />
</g>
</svg>