<svg xmlns="http://www.w3.org/2000/svg" height="512pt" version="1.1" viewBox="0 0 512 512" width="512pt">
<g id="surface1">
<path d="M 512 256 C 512 397.386719 397.386719 512 256 512 C 114.613281 512 0 397.386719 0 256 C 0 114.613281 114.613281 0 256 0 C 397.386719 0 512 114.613281 512 256 Z M 512 256 " style=" stroke:none;fill-rule:nonzero;fill:rgb(96.862745%,87.45098%,60.392157%);fill-opacity:1;" />
<path d="M 510.101562 287.234375 C 494.691406 160.585938 386.808594 62.46875 256 62.46875 L 256 318.46875 L 504.308594 318.46875 C 506.863281 308.285156 508.808594 297.859375 510.101562 287.234375 Z M 510.101562 287.234375 " style=" stroke:none;fill-rule:nonzero;fill:rgb(16.470588%,87.843137%,68.627451%);fill-opacity:1;" />
<path d="M 1.898438 287.234375 C 3.191406 297.863281 5.136719 308.285156 7.691406 318.46875 L 256 318.46875 L 256 62.46875 C 125.191406 62.46875 17.308594 160.585938 1.898438 287.234375 Z M 1.898438 287.234375 " style=" stroke:none;fill-rule:nonzero;fill:rgb(98.823529%,52.54902%,74.901961%);fill-opacity:1;" />
<path d="M 504.308594 318.46875 L 256 318.46875 L 256 512 C 375.835938 512 476.425781 429.65625 504.308594 318.46875 Z M 504.308594 318.46875 " style=" stroke:none;fill-rule:nonzero;fill:rgb(25.098039%,62.352941%,96.078431%);fill-opacity:1;" />
<path d="M 7.691406 318.46875 C 35.574219 429.65625 136.164062 512 256 512 L 256 318.46875 Z M 7.691406 318.46875 " style=" stroke:none;fill-rule:nonzero;fill:rgb(53.333333%,49.411765%,100%);fill-opacity:1;" />
<path d="M 372.371094 318.46875 C 372.371094 254.199219 320.269531 202.097656 256 202.097656 L 256 318.46875 Z M 372.371094 318.46875 " style=" stroke:none;fill-rule:nonzero;fill:rgb(9.019608%,78.823529%,58.823529%);fill-opacity:1;" />
<path d="M 139.628906 318.46875 L 256 318.46875 L 256 202.097656 C 191.730469 202.097656 139.628906 254.199219 139.628906 318.46875 Z M 139.628906 318.46875 " style=" stroke:none;fill-rule:nonzero;fill:rgb(96.862745%,32.941176%,69.411765%);fill-opacity:1;" />
<path d="M 256 434.839844 C 320.269531 434.839844 372.371094 382.738281 372.371094 318.46875 L 256 318.46875 Z M 256 434.839844 " style=" stroke:none;fill-rule:nonzero;fill:rgb(5.490196%,55.294118%,85.882353%);fill-opacity:1;" />
<path d="M 139.628906 318.46875 C 139.628906 382.738281 191.730469 434.839844 256 434.839844 L 256 318.46875 Z M 139.628906 318.46875 " style=" stroke:none;fill-rule:nonzero;fill:rgb(37.647059%,37.647059%,95.686275%);fill-opacity:1;" />
<path d="M 95.480469 318.46875 L 7.691406 318.46875 C 35.574219 429.65625 136.164062 512 256 512 L 256 511.695312 C 173.570312 480.195312 111.59375 407.324219 95.480469 318.46875 Z M 95.480469 318.46875 " style=" stroke:none;fill-rule:nonzero;fill:rgb(37.647059%,37.647059%,95.686275%);fill-opacity:1;" />
<path d="M 91.355469 272.5 C 91.355469 190.898438 129.539062 118.21875 189.007812 71.339844 C 89.863281 98.15625 14.578125 183.027344 1.898438 287.234375 C 3.191406 297.863281 5.136719 308.285156 7.691406 318.46875 L 95.480469 318.46875 C 92.777344 303.554688 91.355469 288.191406 91.355469 272.5 Z M 91.355469 272.5 " style=" stroke:none;fill-rule:nonzero;fill:rgb(96.862745%,32.941176%,69.411765%);fill-opacity:1;" />
</g>
</svg>