<svg xmlns="http://www.w3.org/2000/svg" height="512pt" version="1.1" viewBox="0 0 512 512" width="512pt">
<g id="surface1">
<path d="M 512 256 C 512 397.386719 397.386719 512 256 512 C 114.613281 512 0 397.386719 0 256 C 0 114.613281 114.613281 0 256 0 C 397.386719 0 512 114.613281 512 256 Z M 512 256 " style=" stroke:none;fill-rule:nonzero;fill:rgb(37.647059%,37.647059%,95.686275%);fill-opacity:1;" />
<path d="M 219.347656 270.339844 L 120.503906 270.339844 C 73.507812 270.339844 32.796875 297.246094 12.929688 336.496094 C 38.160156 412.734375 98.246094 473.09375 174.316406 498.6875 C 213.855469 478.917969 241.011719 438.054688 241.011719 390.84375 L 241.011719 292.003906 C 241.011719 280.039062 231.3125 270.339844 219.347656 270.339844 Z M 219.347656 270.339844 " style=" stroke:none;fill-rule:nonzero;fill:rgb(9.019608%,78.823529%,58.823529%);fill-opacity:1;" />
<path d="M 12.929688 336.496094 C 18.046875 351.957031 24.597656 366.757812 32.425781 380.753906 C 37.550781 318.925781 89.351562 270.339844 152.503906 270.339844 L 120.503906 270.339844 C 73.507812 270.339844 32.796875 297.246094 12.929688 336.496094 Z M 12.929688 336.496094 " style=" stroke:none;fill-rule:nonzero;fill:rgb(4.313725%,71.764706%,50.980392%);fill-opacity:1;" />
<path d="M 292.652344 241.660156 L 391.496094 241.660156 C 458.046875 241.660156 512 187.710938 512 121.15625 C 512 54.601562 458.046875 0.652344 391.496094 0.652344 C 324.941406 0.652344 270.988281 54.605469 270.988281 121.15625 L 270.988281 219.996094 C 270.988281 231.960938 280.691406 241.660156 292.652344 241.660156 Z M 292.652344 241.660156 " style=" stroke:none;fill-rule:nonzero;fill:rgb(95.686275%,41.176471%,41.176471%);fill-opacity:1;" />
<path d="M 292.652344 270.339844 L 391.496094 270.339844 C 458.046875 270.339844 512 324.289062 512 390.84375 C 512 457.394531 458.046875 511.347656 391.496094 511.347656 C 324.941406 511.347656 270.988281 457.394531 270.988281 390.84375 L 270.988281 292.003906 C 270.988281 280.039062 280.691406 270.339844 292.652344 270.339844 Z M 292.652344 270.339844 " style=" stroke:none;fill-rule:nonzero;fill:rgb(5.490196%,55.294118%,85.882353%);fill-opacity:1;" />
<path d="M 302.988281 219.996094 L 302.988281 121.15625 C 302.988281 60.027344 348.507812 9.535156 407.496094 1.710938 C 402.261719 1.015625 396.921875 0.652344 391.496094 0.652344 C 324.941406 0.652344 270.988281 54.601562 270.988281 121.15625 L 270.988281 219.996094 C 270.988281 231.960938 280.6875 241.660156 292.652344 241.660156 L 324.652344 241.660156 C 312.6875 241.660156 302.988281 231.960938 302.988281 219.996094 Z M 302.988281 219.996094 " style=" stroke:none;fill-rule:nonzero;fill:rgb(91.764706%,32.941176%,32.941176%);fill-opacity:1;" />
<path d="M 302.988281 390.84375 L 302.988281 292.003906 C 302.988281 280.039062 312.6875 270.339844 324.652344 270.339844 L 292.652344 270.339844 C 280.6875 270.339844 270.988281 280.039062 270.988281 292.003906 L 270.988281 390.84375 C 270.988281 457.398438 324.941406 511.347656 391.496094 511.347656 C 396.921875 511.347656 402.257812 510.984375 407.496094 510.289062 C 348.507812 502.464844 302.988281 451.972656 302.988281 390.84375 Z M 302.988281 390.84375 " style=" stroke:none;fill-rule:nonzero;fill:rgb(1.960784%,49.411765%,78.823529%);fill-opacity:1;" />
<path d="M 219.347656 241.660156 L 120.503906 241.660156 C 53.953125 241.660156 0 187.710938 0 121.15625 C 0 54.601562 53.953125 0.652344 120.503906 0.652344 C 187.058594 0.652344 241.011719 54.605469 241.011719 121.15625 L 241.011719 219.996094 C 241.011719 231.960938 231.3125 241.660156 219.347656 241.660156 Z M 219.347656 241.660156 " style=" stroke:none;fill-rule:nonzero;fill:rgb(95.686275%,78.039216%,34.509804%);fill-opacity:1;" />
<path d="M 32 121.15625 C 32 60.027344 77.515625 9.539062 136.503906 1.710938 C 131.269531 1.015625 125.929688 0.652344 120.503906 0.652344 C 53.953125 0.652344 0 54.601562 0 121.15625 C 0 187.710938 53.953125 241.660156 120.503906 241.660156 L 152.503906 241.660156 C 85.953125 241.660156 32 187.710938 32 121.15625 Z M 32 121.15625 " style=" stroke:none;fill-rule:nonzero;fill:rgb(91.764706%,70.196078%,22.352941%);fill-opacity:1;" />
<path d="M 380.539062 120.117188 L 346.164062 120.117188 C 341.46875 120.117188 337.664062 116.3125 337.664062 111.617188 C 337.664062 106.921875 341.46875 103.117188 346.164062 103.117188 L 380.539062 103.117188 C 385.234375 103.117188 389.039062 106.921875 389.039062 111.617188 C 389.039062 116.3125 385.234375 120.117188 380.539062 120.117188 Z M 380.539062 120.117188 " style=" stroke:none;fill-rule:nonzero;fill:rgb(98.431373%,56.862745%,54.117647%);fill-opacity:1;" />
<path d="M 414.917969 149.203125 L 346.164062 149.203125 C 341.46875 149.203125 337.664062 145.398438 337.664062 140.703125 C 337.664062 136.007812 341.46875 132.203125 346.164062 132.203125 L 414.917969 132.203125 C 419.609375 132.203125 423.417969 136.007812 423.417969 140.703125 C 423.417969 145.398438 419.609375 149.203125 414.917969 149.203125 Z M 414.917969 149.203125 " style=" stroke:none;fill-rule:nonzero;fill:rgb(98.431373%,56.862745%,54.117647%);fill-opacity:1;" />
<path d="M 414.917969 178.292969 L 346.164062 178.292969 C 341.46875 178.292969 337.664062 174.488281 337.664062 169.792969 C 337.664062 165.097656 341.46875 161.292969 346.164062 161.292969 L 414.917969 161.292969 C 419.609375 161.292969 423.417969 165.097656 423.417969 169.792969 C 423.417969 174.488281 419.609375 178.292969 414.917969 178.292969 Z M 414.917969 178.292969 " style=" stroke:none;fill-rule:nonzero;fill:rgb(98.431373%,56.862745%,54.117647%);fill-opacity:1;" />
<path d="M 380.539062 359.730469 L 346.164062 359.730469 C 341.46875 359.730469 337.664062 355.925781 337.664062 351.230469 C 337.664062 346.535156 341.46875 342.730469 346.164062 342.730469 L 380.539062 342.730469 C 385.234375 342.730469 389.039062 346.535156 389.039062 351.230469 C 389.039062 355.925781 385.234375 359.730469 380.539062 359.730469 Z M 380.539062 359.730469 " style=" stroke:none;fill-rule:nonzero;fill:rgb(25.098039%,62.352941%,96.078431%);fill-opacity:1;" />
<path d="M 414.917969 388.816406 L 346.164062 388.816406 C 341.46875 388.816406 337.664062 385.011719 337.664062 380.316406 C 337.664062 375.621094 341.46875 371.816406 346.164062 371.816406 L 414.917969 371.816406 C 419.609375 371.816406 423.417969 375.621094 423.417969 380.316406 C 423.417969 385.011719 419.609375 388.816406 414.917969 388.816406 Z M 414.917969 388.816406 " style=" stroke:none;fill-rule:nonzero;fill:rgb(25.098039%,62.352941%,96.078431%);fill-opacity:1;" />
<path d="M 414.917969 417.90625 L 346.164062 417.90625 C 341.46875 417.90625 337.664062 414.101562 337.664062 409.40625 C 337.664062 404.710938 341.46875 400.90625 346.164062 400.90625 L 414.917969 400.90625 C 419.609375 400.90625 423.417969 404.710938 423.417969 409.40625 C 423.417969 414.101562 419.609375 417.90625 414.917969 417.90625 Z M 414.917969 417.90625 " style=" stroke:none;fill-rule:nonzero;fill:rgb(25.098039%,62.352941%,96.078431%);fill-opacity:1;" />
<path d="M 131.460938 120.117188 L 97.082031 120.117188 C 92.390625 120.117188 88.582031 116.3125 88.582031 111.617188 C 88.582031 106.921875 92.390625 103.117188 97.082031 103.117188 L 131.460938 103.117188 C 136.152344 103.117188 139.960938 106.921875 139.960938 111.617188 C 139.960938 116.3125 136.152344 120.117188 131.460938 120.117188 Z M 131.460938 120.117188 " style=" stroke:none;fill-rule:nonzero;fill:rgb(96.862745%,87.45098%,60.392157%);fill-opacity:1;" />
<path d="M 165.835938 149.203125 L 97.082031 149.203125 C 92.390625 149.203125 88.582031 145.398438 88.582031 140.703125 C 88.582031 136.007812 92.390625 132.203125 97.082031 132.203125 L 165.835938 132.203125 C 170.53125 132.203125 174.335938 136.007812 174.335938 140.703125 C 174.335938 145.398438 170.53125 149.203125 165.835938 149.203125 Z M 165.835938 149.203125 " style=" stroke:none;fill-rule:nonzero;fill:rgb(96.862745%,87.45098%,60.392157%);fill-opacity:1;" />
<path d="M 165.835938 178.292969 L 97.082031 178.292969 C 92.390625 178.292969 88.582031 174.488281 88.582031 169.792969 C 88.582031 165.097656 92.390625 161.292969 97.082031 161.292969 L 165.835938 161.292969 C 170.53125 161.292969 174.335938 165.097656 174.335938 169.792969 C 174.335938 174.488281 170.53125 178.292969 165.835938 178.292969 Z M 165.835938 178.292969 " style=" stroke:none;fill-rule:nonzero;fill:rgb(96.862745%,87.45098%,60.392157%);fill-opacity:1;" />
<path d="M 131.460938 359.730469 L 97.082031 359.730469 C 92.390625 359.730469 88.582031 355.925781 88.582031 351.230469 C 88.582031 346.535156 92.390625 342.730469 97.082031 342.730469 L 131.460938 342.730469 C 136.152344 342.730469 139.960938 346.535156 139.960938 351.230469 C 139.960938 355.925781 136.152344 359.730469 131.460938 359.730469 Z M 131.460938 359.730469 " style=" stroke:none;fill-rule:nonzero;fill:rgb(16.470588%,87.843137%,68.627451%);fill-opacity:1;" />
<path d="M 165.835938 388.816406 L 97.082031 388.816406 C 92.390625 388.816406 88.582031 385.011719 88.582031 380.316406 C 88.582031 375.621094 92.390625 371.816406 97.082031 371.816406 L 165.835938 371.816406 C 170.53125 371.816406 174.335938 375.621094 174.335938 380.316406 C 174.335938 385.011719 170.53125 388.816406 165.835938 388.816406 Z M 165.835938 388.816406 " style=" stroke:none;fill-rule:nonzero;fill:rgb(16.470588%,87.843137%,68.627451%);fill-opacity:1;" />
<path d="M 165.835938 417.90625 L 97.082031 417.90625 C 92.390625 417.90625 88.582031 414.101562 88.582031 409.40625 C 88.582031 404.710938 92.390625 400.90625 97.082031 400.90625 L 165.835938 400.90625 C 170.53125 400.90625 174.335938 404.710938 174.335938 409.40625 C 174.335938 414.101562 170.53125 417.90625 165.835938 417.90625 Z M 165.835938 417.90625 " style=" stroke:none;fill-rule:nonzero;fill:rgb(16.470588%,87.843137%,68.627451%);fill-opacity:1;" />
</g>
</svg>