<svg xmlns="http://www.w3.org/2000/svg" height="512pt" version="1.1" viewBox="0 -17 512 512" width="512pt">
<g id="surface1">
<path d="M 477.847656 239 C 477.847656 370.953125 370.878906 477.925781 238.925781 477.925781 C 106.96875 477.925781 0 370.953125 0 239 C 0 107.046875 106.96875 0.0742188 238.925781 0.0742188 C 370.878906 0.0742188 477.847656 107.046875 477.847656 239 Z M 477.847656 239 " style=" stroke:none;fill-rule:nonzero;fill:rgb(6.27451%,29.019608%,48.627451%);fill-opacity:1;" />
<path d="M 142.078125 279.34375 C 140.121094 265.761719 128.433594 255.324219 114.308594 255.324219 C 99.847656 255.324219 87.941406 266.261719 86.417969 280.316406 C 86.226562 282.070312 84.710938 283.378906 82.945312 283.378906 L 4.132812 283.378906 C 24.320312 390.851562 116.457031 472.925781 228.621094 477.6875 L 228.621094 428.152344 C 228.621094 426.835938 227.605469 425.761719 226.292969 425.652344 C 211.886719 424.472656 200.5625 412.402344 200.5625 397.691406 C 200.5625 383.003906 211.847656 370.949219 226.222656 369.734375 C 227.574219 369.621094 228.621094 368.515625 228.621094 367.160156 L 228.621094 283.382812 L 146.652344 283.382812 C 144.328125 283.378906 142.410156 281.644531 142.078125 279.34375 Z M 142.078125 279.34375 " style=" stroke:none;fill-rule:nonzero;fill:rgb(53.333333%,49.411765%,100%);fill-opacity:1;" />
<path d="M 425.582031 231.683594 C 425.773438 229.929688 427.289062 228.621094 429.054688 228.621094 L 498.351562 228.621094 C 505.855469 228.621094 512 222.476562 512 214.96875 C 512 96.738281 415.265625 0 297.03125 0 L 297.027344 0 C 289.523438 0 283.378906 6.140625 283.378906 13.648438 L 283.378906 83.847656 C 283.378906 85.164062 284.394531 86.238281 285.703125 86.347656 C 300.113281 87.527344 311.4375 99.597656 311.4375 114.308594 C 311.4375 128.996094 300.148438 141.050781 285.777344 142.265625 C 284.425781 142.378906 283.378906 143.488281 283.378906 144.84375 L 283.378906 214.96875 C 283.378906 222.476562 289.519531 228.621094 297.027344 228.621094 L 365.34375 228.621094 C 367.671875 228.621094 369.589844 230.355469 369.921875 232.65625 C 371.878906 246.238281 383.5625 256.675781 397.6875 256.675781 C 412.152344 256.675781 424.058594 245.738281 425.582031 231.683594 Z M 425.582031 231.683594 " style=" stroke:none;fill-rule:nonzero;fill:rgb(16.470588%,87.843137%,68.627451%);fill-opacity:1;" />
<path d="M 425.582031 231.683594 C 425.773438 229.929688 427.289062 228.621094 429.054688 228.621094 L 498.351562 228.621094 C 505.855469 228.621094 512 222.476562 512 214.96875 C 512 96.738281 415.265625 0 297.03125 0 L 297.027344 0 C 289.523438 0 283.378906 6.140625 283.378906 13.648438 L 283.378906 83.847656 C 283.378906 85.164062 284.394531 86.238281 285.703125 86.347656 C 300.113281 87.527344 311.4375 99.597656 311.4375 114.308594 C 311.4375 128.996094 300.148438 141.050781 285.777344 142.265625 C 284.425781 142.378906 283.378906 143.488281 283.378906 144.84375 L 283.378906 214.96875 C 283.378906 222.476562 289.519531 228.621094 297.027344 228.621094 L 365.34375 228.621094 C 367.671875 228.621094 369.589844 230.355469 369.921875 232.65625 C 371.878906 246.238281 383.5625 256.675781 397.6875 256.675781 C 412.152344 256.675781 424.058594 245.738281 425.582031 231.683594 Z M 425.582031 231.683594 " style=" stroke:none;fill-rule:nonzero;fill:rgb(16.470588%,87.843137%,68.627451%);fill-opacity:1;" />
<path d="M 231.683594 141.179688 C 229.929688 140.988281 228.621094 139.472656 228.621094 137.707031 L 228.621094 77.734375 C 228.621094 72.1875 226.527344 66.847656 222.757812 62.773438 C 218.167969 57.816406 211.503906 55.3125 204.78125 56.015625 C 97.347656 67.277344 11.4375 153.738281 1.054688 261.421875 C 1.746094 268.847656 2.777344 276.171875 4.132812 283.382812 L 83.847656 283.382812 C 85.160156 283.382812 86.238281 282.363281 86.347656 281.054688 C 87.527344 266.648438 99.597656 255.324219 114.308594 255.324219 C 128.996094 255.324219 141.050781 266.609375 142.265625 280.984375 C 142.378906 282.335938 143.484375 283.382812 144.839844 283.382812 L 228.617188 283.382812 L 228.617188 201.414062 C 228.617188 199.089844 230.355469 197.171875 232.65625 196.839844 C 246.238281 194.882812 256.675781 183.195312 256.675781 169.070312 C 256.675781 154.609375 245.738281 142.703125 231.683594 141.179688 Z M 231.683594 141.179688 " style=" stroke:none;fill-rule:nonzero;fill:rgb(98.823529%,52.54902%,74.901961%);fill-opacity:1;" />
<path d="M 450.8125 290.464844 C 446.632812 285.949219 440.757812 283.378906 434.601562 283.378906 L 373.433594 283.378906 C 372.117188 283.378906 371.039062 284.394531 370.933594 285.707031 C 369.75 300.113281 357.683594 311.4375 342.972656 311.4375 C 328.28125 311.4375 316.230469 300.152344 315.015625 285.777344 C 314.902344 284.425781 313.792969 283.378906 312.4375 283.378906 L 228.660156 283.378906 L 228.660156 365.347656 C 228.660156 367.671875 226.925781 369.589844 224.625 369.921875 C 211.042969 371.878906 200.605469 383.566406 200.605469 397.691406 C 200.605469 412.152344 211.542969 424.058594 225.597656 425.582031 C 227.351562 425.773438 228.660156 427.289062 228.660156 429.054688 L 228.660156 477.691406 C 317.8125 481.460938 398.054688 436.117188 442.378906 364.300781 C 449.359375 346.003906 454.058594 326.605469 456.101562 306.449219 C 456.695312 300.601562 454.804688 294.777344 450.8125 290.464844 Z M 450.8125 290.464844 " style=" stroke:none;fill-rule:nonzero;fill:rgb(25.098039%,62.352941%,96.078431%);fill-opacity:1;" />
<path d="M 290.488281 33.21875 C 288.105469 33.21875 285.738281 33.277344 283.378906 33.363281 L 283.378906 83.847656 C 283.378906 85.164062 284.394531 86.238281 285.707031 86.347656 C 300.113281 87.527344 311.4375 99.597656 311.4375 114.308594 C 311.4375 129 300.152344 141.050781 285.777344 142.265625 C 284.425781 142.382812 283.378906 143.488281 283.378906 144.84375 L 283.378906 214.972656 C 283.378906 222.476562 289.523438 228.621094 297.03125 228.621094 L 365.347656 228.621094 C 367.671875 228.621094 369.589844 230.355469 369.921875 232.65625 C 371.878906 246.238281 383.566406 256.679688 397.691406 256.679688 C 412.152344 256.679688 424.058594 245.738281 425.582031 231.683594 C 425.773438 229.929688 427.289062 228.621094 429.054688 228.621094 L 477.664062 228.621094 C 477.777344 225.953125 477.847656 223.273438 477.847656 220.578125 C 477.847656 117.101562 393.964844 33.21875 290.488281 33.21875 Z M 290.488281 33.21875 " style=" stroke:none;fill-rule:nonzero;fill:rgb(9.019608%,78.823529%,58.823529%);fill-opacity:1;" />
<path d="M 127.925781 78.300781 C 58.558594 112.609375 8.800781 181.109375 1.054688 261.421875 C 1.746094 268.847656 2.777344 276.171875 4.132812 283.382812 L 83.847656 283.382812 C 84.367188 283.382812 84.851562 283.21875 85.25 282.941406 C 67.960938 214.261719 81.410156 138.382812 127.925781 78.300781 Z M 127.925781 78.300781 " style=" stroke:none;fill-rule:nonzero;fill:rgb(96.862745%,32.941176%,69.411765%);fill-opacity:1;" />
<path d="M 85.164062 282.585938 C 84.554688 283.078125 83.78125 283.378906 82.945312 283.378906 L 4.132812 283.378906 C 24.320312 390.851562 116.457031 472.925781 228.621094 477.6875 L 228.621094 446.488281 C 157.957031 418.355469 103.894531 357.472656 85.164062 282.585938 Z M 85.164062 282.585938 " style=" stroke:none;fill-rule:nonzero;fill:rgb(37.647059%,37.647059%,95.686275%);fill-opacity:1;" />
<path d="M 316.945312 463.355469 C 285.761719 463.355469 255.972656 457.371094 228.660156 446.503906 L 228.660156 477.691406 C 260.546875 479.039062 291.84375 474.167969 321.390625 463.296875 C 319.910156 463.324219 318.433594 463.355469 316.945312 463.355469 Z M 316.945312 463.355469 " style=" stroke:none;fill-rule:nonzero;fill:rgb(5.490196%,55.294118%,85.882353%);fill-opacity:1;" />
<path d="M 231.683594 141.179688 C 229.929688 140.988281 228.617188 139.472656 228.617188 137.707031 L 228.617188 88.910156 C 121.21875 88.910156 34.152344 175.976562 34.152344 283.378906 L 83.847656 283.378906 C 85.164062 283.378906 86.238281 282.363281 86.347656 281.054688 C 87.53125 266.648438 99.597656 255.320312 114.308594 255.320312 C 129 255.320312 141.050781 266.609375 142.265625 280.984375 C 142.378906 282.332031 143.488281 283.378906 144.84375 283.378906 L 228.621094 283.378906 L 228.621094 201.414062 C 228.621094 199.089844 230.355469 197.171875 232.65625 196.839844 C 246.238281 194.882812 256.679688 183.195312 256.679688 169.070312 C 256.675781 154.609375 245.738281 142.703125 231.683594 141.179688 Z M 231.683594 141.179688 " style=" stroke:none;fill-rule:nonzero;fill:rgb(96.862745%,32.941176%,69.411765%);fill-opacity:1;" />
<path d="M 84.449219 283.296875 C 84.527344 283.277344 84.601562 283.257812 84.671875 283.234375 C 84.746094 283.207031 84.816406 283.179688 84.886719 283.148438 C 84.929688 283.125 84.976562 283.101562 85.019531 283.078125 C 85.097656 283.035156 85.179688 282.992188 85.253906 282.941406 C 74.269531 239.3125 75.414062 191.214844 91.320312 145.667969 C 56.007812 180.875 34.152344 229.574219 34.152344 283.378906 L 83.851562 283.378906 C 83.996094 283.378906 84.140625 283.363281 84.28125 283.339844 C 84.339844 283.328125 84.394531 283.3125 84.449219 283.296875 Z M 84.449219 283.296875 " style=" stroke:none;fill-rule:nonzero;fill:rgb(94.901961%,25.098039%,68.235294%);fill-opacity:1;" />
<path d="M 142.078125 279.34375 C 140.121094 265.761719 128.433594 255.324219 114.308594 255.324219 C 99.847656 255.324219 87.941406 266.261719 86.417969 280.316406 C 86.226562 282.070312 84.710938 283.378906 82.945312 283.378906 L 34.152344 283.378906 C 34.152344 359 77.316406 424.535156 140.347656 456.699219 C 167.449219 468.992188 197.253906 476.355469 228.621094 477.6875 L 228.621094 428.152344 C 228.621094 426.835938 227.605469 425.761719 226.292969 425.652344 C 211.886719 424.46875 200.5625 412.402344 200.5625 397.691406 C 200.5625 383.003906 211.847656 370.949219 226.222656 369.734375 C 227.574219 369.621094 228.621094 368.511719 228.621094 367.15625 L 228.621094 283.382812 L 146.652344 283.382812 C 144.328125 283.378906 142.410156 281.644531 142.078125 279.34375 Z M 142.078125 279.34375 " style=" stroke:none;fill-rule:nonzero;fill:rgb(37.647059%,37.647059%,95.686275%);fill-opacity:1;" />
<path d="M 228.535156 477.683594 C 228.5625 477.683594 228.589844 477.6875 228.621094 477.6875 L 228.621094 446.488281 C 157.957031 418.355469 103.894531 357.472656 85.164062 282.585938 C 84.859375 282.832031 84.519531 283.03125 84.144531 283.164062 C 84.105469 283.179688 84.0625 283.1875 84.019531 283.199219 C 83.871094 283.246094 83.726562 283.296875 83.570312 283.324219 C 83.367188 283.359375 83.164062 283.378906 82.953125 283.378906 C 82.949219 283.378906 82.949219 283.382812 82.945312 283.382812 L 34.152344 283.382812 C 34.152344 387.363281 113.121094 472.746094 228.535156 477.683594 Z M 228.535156 477.683594 " style=" stroke:none;fill-rule:nonzero;fill:rgb(29.803922%,29.803922%,92.941176%);fill-opacity:1;" />
<path d="M 231.738281 477.6875 C 337.699219 476.019531 423.085938 389.671875 423.085938 283.378906 L 373.429688 283.378906 C 372.117188 283.378906 371.039062 284.394531 370.933594 285.703125 C 369.75 300.101562 357.683594 311.421875 342.96875 311.421875 C 328.28125 311.421875 316.230469 300.140625 315.015625 285.773438 C 314.898438 284.425781 313.792969 283.378906 312.4375 283.378906 L 228.660156 283.378906 L 228.660156 365.296875 C 228.660156 367.617188 226.925781 369.535156 224.625 369.867188 C 211.039062 371.824219 200.601562 383.503906 200.601562 397.621094 C 200.601562 412.070312 211.542969 423.972656 225.597656 425.496094 C 227.351562 425.6875 228.660156 427.203125 228.660156 428.964844 L 228.660156 477.570312 C 229.6875 477.613281 230.710938 477.65625 231.738281 477.6875 Z M 231.738281 477.6875 " style=" stroke:none;fill-rule:nonzero;fill:rgb(5.490196%,55.294118%,85.882353%);fill-opacity:1;" />
<path d="M 228.660156 446.503906 L 228.660156 477.570312 C 248.148438 478.394531 277.140625 473.703125 303.089844 462.941406 C 276.933594 461.445312 251.898438 455.75 228.660156 446.503906 Z M 228.660156 446.503906 " style=" stroke:none;fill-rule:nonzero;fill:rgb(1.960784%,49.411765%,78.823529%);fill-opacity:1;" />
</g>
</svg>