<svg xmlns="http://www.w3.org/2000/svg" height="512pt" version="1.1" viewBox="0 0 512 512" width="512pt">
<g id="surface1">
<path d="M 512 256 C 512 397.386719 397.386719 512 256 512 C 114.613281 512 0 397.386719 0 256 C 0 114.613281 114.613281 0 256 0 C 397.386719 0 512 114.613281 512 256 Z M 512 256 " style=" stroke:none;fill-rule:nonzero;fill:rgb(6.27451%,29.019608%,48.627451%);fill-opacity:1;" />
<path d="M 499.722656 334.496094 C 481.417969 298.953125 444.367188 274.644531 401.636719 274.644531 L 283.546875 274.644531 C 278.574219 274.644531 274.542969 278.675781 274.542969 283.648438 L 274.542969 401.738281 C 274.542969 444.433594 298.816406 481.460938 334.3125 499.78125 C 412.640625 474.636719 474.519531 412.800781 499.722656 334.496094 Z M 499.722656 334.496094 " style=" stroke:none;fill-rule:nonzero;fill:rgb(37.647059%,37.647059%,95.686275%);fill-opacity:1;" />
<path d="M 127.195312 0 L 9.105469 0 C 4.132812 0 0.101562 4.03125 0.101562 9.003906 L 0.101562 127.09375 C 0.101562 187.988281 49.46875 237.355469 110.363281 237.355469 L 228.453125 237.355469 C 233.425781 237.355469 237.457031 233.324219 237.457031 228.351562 L 237.457031 110.261719 C 237.457031 49.367188 188.089844 0 127.195312 0 Z M 127.195312 0 " style=" stroke:none;fill-rule:nonzero;fill:rgb(96.862745%,32.941176%,69.411765%);fill-opacity:1;" />
<path d="M 135.128906 274.644531 L 230.207031 274.644531 C 234.210938 274.644531 237.457031 277.890625 237.457031 281.894531 L 237.457031 376.972656 C 237.457031 426.003906 197.710938 465.75 148.679688 465.75 L 53.601562 465.75 C 49.597656 465.75 46.351562 462.507812 46.351562 458.503906 L 46.351562 363.421875 C 46.351562 314.390625 86.097656 274.644531 135.128906 274.644531 Z M 135.128906 274.644531 " style=" stroke:none;fill-rule:nonzero;fill:rgb(96.862745%,87.45098%,60.392157%);fill-opacity:1;" />
<path d="M 376.871094 237.355469 L 281.792969 237.355469 C 277.789062 237.355469 274.542969 234.109375 274.542969 230.105469 L 274.542969 135.027344 C 274.542969 85.996094 314.289062 46.25 363.320312 46.25 L 458.398438 46.25 C 462.402344 46.25 465.648438 49.492188 465.648438 53.496094 L 465.648438 148.578125 C 465.648438 197.609375 425.902344 237.355469 376.871094 237.355469 Z M 376.871094 237.355469 " style=" stroke:none;fill-rule:nonzero;fill:rgb(98.431373%,56.862745%,54.117647%);fill-opacity:1;" />
<path d="M 313.542969 401.738281 L 313.542969 283.648438 C 313.542969 278.675781 317.574219 274.644531 322.546875 274.644531 L 283.546875 274.644531 C 278.574219 274.644531 274.542969 278.675781 274.542969 283.648438 L 274.542969 401.738281 C 274.542969 444.433594 298.816406 481.460938 334.3125 499.78125 C 342.582031 497.128906 350.652344 494.039062 358.53125 490.589844 C 331.253906 470.519531 313.542969 438.203125 313.542969 401.738281 Z M 313.542969 401.738281 " style=" stroke:none;fill-rule:nonzero;fill:rgb(29.803922%,29.803922%,92.941176%);fill-opacity:1;" />
<path d="M 39.101562 127.09375 L 39.101562 9.003906 C 39.101562 4.03125 43.132812 0 48.105469 0 L 9.105469 0 C 4.132812 0 0.101562 4.03125 0.101562 9.003906 L 0.101562 127.09375 C 0.101562 187.988281 49.46875 237.355469 110.363281 237.355469 L 149.363281 237.355469 C 88.46875 237.355469 39.101562 187.988281 39.101562 127.09375 Z M 39.101562 127.09375 " style=" stroke:none;fill-rule:nonzero;fill:rgb(94.901961%,25.098039%,68.235294%);fill-opacity:1;" />
<path d="M 85.351562 458.503906 L 85.351562 363.421875 C 85.351562 314.390625 125.097656 274.644531 174.128906 274.644531 L 135.128906 274.644531 C 86.097656 274.644531 46.351562 314.390625 46.351562 363.421875 L 46.351562 458.503906 C 46.351562 462.503906 49.597656 465.75 53.601562 465.75 L 92.601562 465.75 C 88.597656 465.75 85.351562 462.503906 85.351562 458.503906 Z M 85.351562 458.503906 " style=" stroke:none;fill-rule:nonzero;fill:rgb(95.686275%,78.039216%,34.509804%);fill-opacity:1;" />
<path d="M 313.542969 230.105469 L 313.542969 135.027344 C 313.542969 85.996094 353.289062 46.25 402.320312 46.25 L 363.320312 46.25 C 314.289062 46.25 274.542969 85.996094 274.542969 135.027344 L 274.542969 230.105469 C 274.542969 234.109375 277.789062 237.355469 281.792969 237.355469 L 320.792969 237.355469 C 316.789062 237.355469 313.542969 234.109375 313.542969 230.105469 Z M 313.542969 230.105469 " style=" stroke:none;fill-rule:nonzero;fill:rgb(95.686275%,41.176471%,41.176471%);fill-opacity:1;" />
<path d="M 118.78125 97.183594 L 82.894531 97.183594 C 77.992188 97.183594 74.019531 93.214844 74.019531 88.3125 C 74.019531 83.410156 77.992188 79.4375 82.894531 79.4375 L 118.78125 79.4375 C 123.679688 79.4375 127.652344 83.410156 127.652344 88.3125 C 127.652344 93.214844 123.679688 97.183594 118.78125 97.183594 Z M 118.78125 97.183594 " style=" stroke:none;fill-rule:nonzero;fill:rgb(98.823529%,52.54902%,74.901961%);fill-opacity:1;" />
<path d="M 154.664062 127.550781 L 82.894531 127.550781 C 77.992188 127.550781 74.019531 123.578125 74.019531 118.679688 C 74.019531 113.777344 77.992188 109.804688 82.894531 109.804688 L 154.664062 109.804688 C 159.566406 109.804688 163.539062 113.777344 163.539062 118.679688 C 163.539062 123.578125 159.566406 127.550781 154.664062 127.550781 Z M 154.664062 127.550781 " style=" stroke:none;fill-rule:nonzero;fill:rgb(98.823529%,52.54902%,74.901961%);fill-opacity:1;" />
<path d="M 154.664062 157.914062 L 82.894531 157.914062 C 77.992188 157.914062 74.019531 153.941406 74.019531 149.042969 C 74.019531 144.140625 77.992188 140.167969 82.894531 140.167969 L 154.664062 140.167969 C 159.566406 140.167969 163.539062 144.140625 163.539062 149.042969 C 163.539062 153.941406 159.566406 157.914062 154.664062 157.914062 Z M 154.664062 157.914062 " style=" stroke:none;fill-rule:nonzero;fill:rgb(98.823529%,52.54902%,74.901961%);fill-opacity:1;" />
<path d="M 393.21875 371.828125 L 357.335938 371.828125 C 352.433594 371.828125 348.460938 367.859375 348.460938 362.957031 C 348.460938 358.054688 352.433594 354.085938 357.335938 354.085938 L 393.21875 354.085938 C 398.121094 354.085938 402.09375 358.054688 402.09375 362.957031 C 402.09375 367.859375 398.121094 371.828125 393.21875 371.828125 Z M 393.21875 371.828125 " style=" stroke:none;fill-rule:nonzero;fill:rgb(53.333333%,49.411765%,100%);fill-opacity:1;" />
<path d="M 429.105469 402.195312 L 357.335938 402.195312 C 352.433594 402.195312 348.460938 398.222656 348.460938 393.324219 C 348.460938 388.421875 352.433594 384.449219 357.335938 384.449219 L 429.105469 384.449219 C 434.007812 384.449219 437.980469 388.421875 437.980469 393.324219 C 437.980469 398.222656 434.007812 402.195312 429.105469 402.195312 Z M 429.105469 402.195312 " style=" stroke:none;fill-rule:nonzero;fill:rgb(53.333333%,49.411765%,100%);fill-opacity:1;" />
<path d="M 429.105469 432.558594 L 357.335938 432.558594 C 352.433594 432.558594 348.460938 428.589844 348.460938 423.6875 C 348.460938 418.785156 352.433594 414.8125 357.335938 414.8125 L 429.105469 414.8125 C 434.007812 414.8125 437.980469 418.785156 437.980469 423.6875 C 437.980469 428.589844 434.007812 432.558594 429.105469 432.558594 Z M 429.105469 432.558594 " style=" stroke:none;fill-rule:nonzero;fill:rgb(53.333333%,49.411765%,100%);fill-opacity:1;" />
</g>
</svg>