<svg xmlns="http://www.w3.org/2000/svg" height="511pt" version="1.1" viewBox="-16 1 511 511.9999" width="511pt">
<g id="surface1">
<path d="M 480.347656 272.074219 C 480.347656 404.582031 372.929688 512 240.421875 512 C 107.917969 512 0.5 404.582031 0.5 272.074219 C 0.5 139.570312 107.917969 32.152344 240.421875 32.152344 C 372.929688 32.152344 480.347656 139.570312 480.347656 272.074219 Z M 480.347656 272.074219 " style=" stroke:none;fill-rule:nonzero;fill:rgb(37.647059%,37.647059%,95.686275%);fill-opacity:1;" />
<path d="M 240.421875 70.636719 L 240.421875 0.0078125 C 239.972656 0.0078125 239.527344 -0.00390625 239.078125 0 C 135.5 0.734375 51.425781 87.359375 54.769531 191.777344 L 119.285156 191.777344 C 119.285156 174.070312 133.640625 159.714844 151.34375 159.714844 C 169.050781 159.714844 183.40625 174.070312 183.40625 191.777344 L 240.421875 191.777344 L 240.421875 134.753906 C 258.128906 134.753906 272.480469 120.402344 272.480469 102.695312 C 272.480469 84.988281 258.128906 70.636719 240.421875 70.636719 Z M 240.421875 70.636719 " style=" stroke:none;fill-rule:nonzero;fill:rgb(95.686275%,78.039216%,34.509804%);fill-opacity:1;" />
<path d="M 240.421875 0.0078125 L 240.421875 70.636719 C 258.128906 70.636719 272.480469 84.992188 272.480469 102.695312 C 272.480469 120.402344 258.128906 134.757812 240.421875 134.757812 L 240.421875 191.777344 L 297.441406 191.777344 C 297.441406 209.484375 311.796875 223.835938 329.503906 223.835938 C 347.207031 223.835938 361.5625 209.484375 361.5625 191.777344 L 426.074219 191.777344 C 429.441406 86.207031 344.765625 0.0117188 240.421875 0.0078125 Z M 240.421875 0.0078125 " style=" stroke:none;fill-rule:nonzero;fill:rgb(96.862745%,87.45098%,60.392157%);fill-opacity:1;" />
<path d="M 361.5625 191.777344 C 361.5625 209.480469 347.207031 223.835938 329.5 223.835938 C 311.796875 223.835938 297.441406 209.480469 297.441406 191.777344 L 240.421875 191.777344 L 240.421875 248.796875 C 222.714844 248.796875 208.363281 263.148438 208.363281 280.855469 C 208.363281 298.5625 222.714844 312.914062 240.421875 312.914062 L 240.421875 406.339844 L 306.988281 406.339844 C 311.488281 378.136719 327.058594 352.632812 350.457031 335.40625 C 394.871094 302.703125 424.195312 250.707031 426.074219 191.777344 Z M 361.5625 191.777344 " style=" stroke:none;fill-rule:nonzero;fill:rgb(98.431373%,56.862745%,54.117647%);fill-opacity:1;" />
<path d="M 240.421875 248.792969 L 240.421875 191.773438 L 183.402344 191.773438 C 183.402344 174.070312 169.046875 159.714844 151.34375 159.714844 C 133.636719 159.714844 119.28125 174.070312 119.28125 191.773438 L 54.769531 191.773438 C 56.65625 250.980469 86.253906 303.191406 131.023438 335.867188 C 154.34375 352.890625 169.851562 378.257812 174.058594 406.335938 L 240.421875 406.335938 L 240.421875 312.914062 C 222.714844 312.914062 208.363281 298.558594 208.363281 280.851562 C 208.363281 263.148438 222.71875 248.792969 240.421875 248.792969 Z M 240.421875 248.792969 " style=" stroke:none;fill-rule:nonzero;fill:rgb(95.686275%,41.176471%,41.176471%);fill-opacity:1;" />
<path d="M 160.703125 18.085938 C 96.066406 49.054688 52.34375 115.992188 54.769531 191.773438 L 118.335938 191.773438 C 105.855469 130.6875 120.992188 67.074219 160.703125 18.085938 Z M 160.703125 18.085938 " style=" stroke:none;fill-rule:nonzero;fill:rgb(91.764706%,70.196078%,22.352941%);fill-opacity:1;" />
<path d="M 118.339844 191.777344 L 54.769531 191.777344 C 56.65625 250.984375 86.253906 303.191406 131.023438 335.867188 C 154.34375 352.890625 169.851562 378.257812 174.058594 406.335938 L 240.421875 406.335938 L 240.421875 341.757812 C 178.5625 315.054688 132.148438 259.355469 118.339844 191.777344 Z M 118.339844 191.777344 " style=" stroke:none;fill-rule:nonzero;fill:rgb(91.764706%,32.941176%,32.941176%);fill-opacity:1;" />
<path d="M 240.421875 341.757812 L 240.421875 406.335938 L 306.988281 406.335938 C 309.75 389.027344 316.6875 372.738281 327.042969 358.753906 C 297.636719 359.277344 268.285156 353.78125 240.421875 341.757812 Z M 240.421875 341.757812 " style=" stroke:none;fill-rule:nonzero;fill:rgb(95.686275%,41.176471%,41.176471%);fill-opacity:1;" />
<path d="M 189.289062 506.519531 C 222.933594 513.824219 257.882812 513.828125 291.554688 506.519531 L 302.445312 437.769531 L 178.398438 437.769531 Z M 189.289062 506.519531 " style=" stroke:none;fill-rule:nonzero;fill:rgb(74.117647%,85.098039%,93.72549%);fill-opacity:1;" />
<path d="M 189.289062 506.519531 C 207.589844 510.492188 226 512.285156 244.875 511.9375 C 224.636719 474.648438 243.113281 439.023438 243.113281 439.023438 L 242.601562 437.769531 L 178.398438 437.769531 Z M 189.289062 506.519531 " style=" stroke:none;fill-rule:nonzero;fill:rgb(59.215686%,78.039216%,90.980392%);fill-opacity:1;" />
<path d="M 189.289062 506.519531 C 222.9375 513.824219 257.882812 513.828125 291.558594 506.519531 L 296.128906 477.652344 L 184.714844 477.652344 Z M 189.289062 506.519531 " style=" stroke:none;fill-rule:nonzero;fill:rgb(59.215686%,78.039216%,90.980392%);fill-opacity:1;" />
<path d="M 184.714844 477.652344 L 189.289062 506.519531 C 207.589844 510.492188 226 512.289062 244.875 511.9375 C 238.375 499.964844 235.867188 488.160156 235.460938 477.652344 Z M 184.714844 477.652344 " style=" stroke:none;fill-rule:nonzero;fill:rgb(45.098039%,74.901961%,97.647059%);fill-opacity:1;" />
<path d="M 308.730469 439.023438 L 172.113281 439.023438 C 162.738281 439.023438 155.140625 431.425781 155.140625 422.050781 C 155.140625 412.679688 162.738281 405.078125 172.113281 405.078125 L 308.730469 405.078125 C 318.105469 405.078125 325.707031 412.679688 325.707031 422.050781 C 325.707031 431.425781 318.105469 439.023438 308.730469 439.023438 Z M 308.730469 439.023438 " style=" stroke:none;fill-rule:nonzero;fill:rgb(86.27451%,91.372549%,96.078431%);fill-opacity:1;" />
<path d="M 226.140625 422.054688 C 226.140625 412.679688 233.738281 405.082031 243.113281 405.082031 L 172.113281 405.082031 C 162.738281 405.082031 155.140625 412.679688 155.140625 422.054688 C 155.140625 431.425781 162.738281 439.027344 172.113281 439.027344 L 243.113281 439.027344 C 233.738281 439.027344 226.140625 431.425781 226.140625 422.054688 Z M 226.140625 422.054688 " style=" stroke:none;fill-rule:nonzero;fill:rgb(74.117647%,85.098039%,93.72549%);fill-opacity:1;" />
</g>
</svg>