<svg xmlns="http://www.w3.org/2000/svg" height="512pt" version="1.1" viewBox="0 -10 512 512" width="512pt">
<g id="surface1">
<path d="M 512 246.03125 C 512 381.910156 401.847656 492.0625 265.96875 492.0625 C 130.089844 492.0625 19.9375 381.910156 19.9375 246.03125 C 19.9375 110.152344 130.089844 0 265.96875 0 C 401.847656 0 512 110.152344 512 246.03125 Z M 512 246.03125 " style=" stroke:none;fill-rule:nonzero;fill:rgb(25.098039%,62.352941%,96.078431%);fill-opacity:1;" />
<path d="M 76.882812 36.949219 C 80.269531 36.949219 83.535156 38.203125 86.050781 40.46875 L 132.9375 82.664062 C 136.832031 86.171875 136.832031 92.273438 132.9375 95.777344 L 87.109375 137.019531 C 83.910156 139.898438 79.761719 141.492188 75.457031 141.492188 C 89.351562 141.492188 472.285156 141.492188 488.730469 141.492188 C 468.425781 98.300781 435.933594 61.976562 395.679688 36.953125 C 391.34375 36.949219 82 36.949219 76.882812 36.949219 Z M 76.882812 36.949219 " style=" stroke:none;fill-rule:nonzero;fill:rgb(74.117647%,85.098039%,93.72549%);fill-opacity:1;" />
<path d="M 137.886719 99.484375 L 137.886719 78.957031 C 137.886719 55.757812 156.691406 36.949219 179.894531 36.949219 L 76.882812 36.949219 C 80.269531 36.949219 83.535156 38.203125 86.050781 40.46875 L 132.9375 82.664062 C 136.832031 86.171875 136.832031 92.273438 132.9375 95.777344 L 87.109375 137.019531 C 83.910156 139.898438 79.761719 141.492188 75.457031 141.492188 L 179.894531 141.492188 C 156.695312 141.492188 137.886719 122.683594 137.886719 99.484375 Z M 137.886719 99.484375 " style=" stroke:none;fill-rule:nonzero;fill:rgb(59.215686%,78.039216%,90.980392%);fill-opacity:1;" />
<path d="M 76.882812 141.492188 C 80.269531 141.492188 83.535156 142.742188 86.050781 145.007812 L 132.9375 187.207031 C 136.832031 190.710938 136.832031 196.8125 132.9375 200.316406 L 87.109375 241.558594 C 83.910156 244.4375 79.761719 246.03125 75.457031 246.03125 C 112.210938 246.03125 491.332031 246.03125 512 246.03125 C 512 208.648438 503.648438 173.222656 488.730469 141.492188 C 464.183594 141.492188 89.558594 141.492188 76.882812 141.492188 Z M 76.882812 141.492188 " style=" stroke:none;fill-rule:nonzero;fill:rgb(86.27451%,91.372549%,96.078431%);fill-opacity:1;" />
<path d="M 137.886719 204.023438 L 137.886719 183.496094 C 137.886719 160.296875 156.691406 141.492188 179.894531 141.492188 L 76.882812 141.492188 C 80.269531 141.492188 83.535156 142.742188 86.050781 145.007812 L 132.9375 187.207031 C 136.832031 190.710938 136.832031 196.8125 132.9375 200.316406 L 87.109375 241.558594 C 83.910156 244.4375 79.761719 246.03125 75.457031 246.03125 L 179.894531 246.03125 C 156.695312 246.03125 137.886719 227.222656 137.886719 204.023438 Z M 137.886719 204.023438 " style=" stroke:none;fill-rule:nonzero;fill:rgb(74.117647%,85.098039%,93.72549%);fill-opacity:1;" />
<path d="M 76.882812 246.03125 C 80.269531 246.03125 83.535156 247.285156 86.050781 249.546875 L 132.9375 291.746094 C 136.832031 295.25 136.832031 301.351562 132.9375 304.855469 L 87.109375 346.097656 C 83.910156 348.976562 79.761719 350.570312 75.457031 350.570312 C 89.351562 350.570312 472.285156 350.570312 488.730469 350.570312 C 503.648438 318.839844 512 283.414062 512 246.03125 C 487.484375 246.03125 96.160156 246.03125 76.882812 246.03125 Z M 76.882812 246.03125 " style=" stroke:none;fill-rule:nonzero;fill:rgb(74.117647%,85.098039%,93.72549%);fill-opacity:1;" />
<path d="M 87.109375 346.097656 C 83.910156 348.976562 79.761719 350.570312 75.457031 350.570312 L 179.890625 350.570312 C 156.691406 350.570312 137.886719 331.765625 137.886719 308.566406 L 137.886719 288.035156 C 137.886719 264.839844 156.691406 246.03125 179.894531 246.03125 L 76.886719 246.03125 C 80.269531 246.03125 83.535156 247.285156 86.050781 249.546875 L 132.9375 291.746094 C 136.832031 295.25 136.832031 301.351562 132.9375 304.855469 Z M 87.109375 346.097656 " style=" stroke:none;fill-rule:nonzero;fill:rgb(59.215686%,78.039216%,90.980392%);fill-opacity:1;" />
<path d="M 76.882812 350.570312 C 80.269531 350.570312 83.535156 351.824219 86.050781 354.089844 L 132.9375 396.285156 C 136.832031 399.789062 136.832031 405.894531 132.9375 409.398438 L 87.109375 450.640625 C 83.910156 453.519531 79.761719 455.109375 75.457031 455.109375 C 92.785156 455.109375 382.167969 455.109375 395.679688 455.109375 C 435.933594 430.085938 468.425781 393.765625 488.730469 350.570312 C 464.183594 350.570312 89.558594 350.570312 76.882812 350.570312 Z M 76.882812 350.570312 " style=" stroke:none;fill-rule:nonzero;fill:rgb(86.27451%,91.372549%,96.078431%);fill-opacity:1;" />
<path d="M 87.109375 450.640625 C 83.910156 453.519531 79.761719 455.109375 75.457031 455.109375 L 179.890625 455.109375 C 156.691406 455.109375 137.886719 436.304688 137.886719 413.105469 L 137.886719 392.578125 C 137.886719 369.378906 156.691406 350.570312 179.894531 350.570312 L 76.886719 350.570312 C 80.269531 350.570312 83.535156 351.824219 86.050781 354.089844 L 132.9375 396.285156 C 136.832031 399.789062 136.832031 405.894531 132.9375 409.398438 Z M 87.109375 450.640625 " style=" stroke:none;fill-rule:nonzero;fill:rgb(74.117647%,85.098039%,93.72549%);fill-opacity:1;" />
<path d="M 135.28125 95.777344 C 139.175781 92.273438 139.175781 86.167969 135.28125 82.664062 L 88.394531 40.46875 C 85.878906 38.203125 82.613281 36.949219 79.226562 36.949219 L 10.699219 36.949219 C 4.789062 36.949219 0 41.742188 0 47.652344 L 0 130.792969 C 0 136.699219 4.789062 141.492188 10.699219 141.492188 L 77.800781 141.492188 C 82.105469 141.492188 86.253906 139.898438 89.453125 137.019531 Z M 135.28125 95.777344 " style=" stroke:none;fill-rule:nonzero;fill:rgb(95.686275%,41.176471%,41.176471%);fill-opacity:1;" />
<path d="M 135.28125 200.316406 C 139.175781 196.8125 139.175781 190.710938 135.28125 187.207031 L 88.394531 145.007812 C 85.878906 142.746094 82.613281 141.492188 79.226562 141.492188 L 10.699219 141.492188 C 4.789062 141.492188 0 146.28125 0 152.191406 L 0 235.332031 C 0 241.238281 4.789062 246.03125 10.699219 246.03125 L 77.800781 246.03125 C 82.105469 246.03125 86.253906 244.4375 89.453125 241.558594 Z M 135.28125 200.316406 " style=" stroke:none;fill-rule:nonzero;fill:rgb(95.686275%,78.039216%,34.509804%);fill-opacity:1;" />
<path d="M 135.28125 304.855469 C 139.175781 301.355469 139.175781 295.25 135.28125 291.746094 L 88.394531 249.546875 C 85.878906 247.285156 82.613281 246.03125 79.226562 246.03125 L 10.699219 246.03125 C 4.789062 246.03125 0 250.820312 0 256.730469 L 0 339.871094 C 0 345.78125 4.789062 350.570312 10.699219 350.570312 L 77.800781 350.570312 C 82.105469 350.570312 86.253906 348.980469 89.453125 346.101562 Z M 135.28125 304.855469 " style=" stroke:none;fill-rule:nonzero;fill:rgb(9.019608%,78.823529%,58.823529%);fill-opacity:1;" />
<path d="M 135.28125 409.398438 C 139.175781 405.894531 139.175781 399.789062 135.28125 396.285156 L 88.394531 354.089844 C 85.878906 351.824219 82.613281 350.570312 79.226562 350.570312 L 10.699219 350.570312 C 4.789062 350.570312 0 355.359375 0 361.269531 L 0 444.410156 C 0 450.320312 4.789062 455.113281 10.699219 455.113281 L 77.800781 455.113281 C 82.105469 455.113281 86.253906 453.519531 89.453125 450.640625 Z M 135.28125 409.398438 " style=" stroke:none;fill-rule:nonzero;fill:rgb(5.490196%,55.294118%,85.882353%);fill-opacity:1;" />
<path d="M 34.894531 99.484375 L 34.894531 78.957031 C 34.894531 55.757812 53.699219 36.949219 76.898438 36.949219 L 10.699219 36.949219 C 4.789062 36.949219 0 41.742188 0 47.652344 L 0 130.792969 C 0 136.699219 4.789062 141.492188 10.699219 141.492188 L 76.898438 141.492188 C 53.699219 141.492188 34.894531 122.683594 34.894531 99.484375 Z M 34.894531 99.484375 " style=" stroke:none;fill-rule:nonzero;fill:rgb(91.764706%,32.941176%,32.941176%);fill-opacity:1;" />
<path d="M 34.894531 204.023438 L 34.894531 183.496094 C 34.894531 160.296875 53.699219 141.492188 76.898438 141.492188 L 10.699219 141.492188 C 4.789062 141.492188 0 146.28125 0 152.191406 L 0 235.332031 C 0 241.238281 4.789062 246.03125 10.699219 246.03125 L 76.898438 246.03125 C 53.699219 246.03125 34.894531 227.222656 34.894531 204.023438 Z M 34.894531 204.023438 " style=" stroke:none;fill-rule:nonzero;fill:rgb(91.764706%,70.196078%,22.352941%);fill-opacity:1;" />
<path d="M 34.894531 308.566406 L 34.894531 288.035156 C 34.894531 264.835938 53.699219 246.03125 76.898438 246.03125 L 10.699219 246.03125 C 4.789062 246.03125 0 250.820312 0 256.730469 L 0 339.871094 C 0 345.78125 4.789062 350.570312 10.699219 350.570312 L 76.898438 350.570312 C 53.699219 350.570312 34.894531 331.765625 34.894531 308.566406 Z M 34.894531 308.566406 " style=" stroke:none;fill-rule:nonzero;fill:rgb(4.313725%,71.764706%,50.980392%);fill-opacity:1;" />
<path d="M 34.894531 413.105469 L 34.894531 392.574219 C 34.894531 369.378906 53.699219 350.570312 76.898438 350.570312 L 10.699219 350.570312 C 4.789062 350.570312 0 355.359375 0 361.269531 L 0 444.410156 C 0 450.320312 4.789062 455.109375 10.699219 455.109375 L 76.898438 455.109375 C 53.699219 455.109375 34.894531 436.304688 34.894531 413.105469 Z M 34.894531 413.105469 " style=" stroke:none;fill-rule:nonzero;fill:rgb(1.960784%,49.411765%,78.823529%);fill-opacity:1;" />
<path d="M 181.90625 98.007812 C 177.054688 98.007812 173.09375 94.074219 173.09375 89.222656 C 173.09375 84.367188 176.996094 80.4375 181.847656 80.4375 L 181.90625 80.4375 C 186.757812 80.4375 190.691406 84.371094 190.691406 89.222656 C 190.691406 94.074219 186.757812 98.007812 181.90625 98.007812 Z M 181.90625 98.007812 " style=" stroke:none;fill-rule:nonzero;fill:rgb(86.27451%,91.372549%,96.078431%);fill-opacity:1;" />
<path d="M 382.339844 98.007812 C 377.488281 98.007812 373.5 94.074219 373.5 89.222656 C 373.5 84.367188 377.375 80.4375 382.226562 80.4375 L 382.339844 80.4375 C 387.191406 80.4375 391.125 84.371094 391.125 89.222656 C 391.125 94.074219 387.191406 98.007812 382.339844 98.007812 Z M 342.253906 98.007812 C 337.402344 98.007812 333.410156 94.074219 333.410156 89.222656 C 333.410156 84.367188 337.289062 80.4375 342.140625 80.4375 L 342.253906 80.4375 C 347.105469 80.4375 351.039062 84.371094 351.039062 89.222656 C 351.039062 94.074219 347.105469 98.007812 342.253906 98.007812 Z M 302.167969 98.007812 C 297.316406 98.007812 293.324219 94.074219 293.324219 89.222656 C 293.324219 84.367188 297.203125 80.4375 302.054688 80.4375 L 302.167969 80.4375 C 307.019531 80.4375 310.953125 84.371094 310.953125 89.222656 C 310.953125 94.074219 307.019531 98.007812 302.167969 98.007812 Z M 262.082031 98.007812 C 257.230469 98.007812 253.238281 94.074219 253.238281 89.222656 C 253.238281 84.367188 257.113281 80.4375 261.964844 80.4375 L 262.078125 80.4375 C 266.933594 80.4375 270.863281 84.371094 270.863281 89.222656 C 270.867188 94.074219 266.933594 98.007812 262.082031 98.007812 Z M 221.992188 98.007812 C 217.140625 98.007812 213.152344 94.074219 213.152344 89.222656 C 213.152344 84.367188 217.027344 80.4375 221.878906 80.4375 L 221.992188 80.4375 C 226.847656 80.4375 230.777344 84.371094 230.777344 89.222656 C 230.78125 94.074219 226.847656 98.007812 221.992188 98.007812 Z M 221.992188 98.007812 " style=" stroke:none;fill-rule:nonzero;fill:rgb(86.27451%,91.372549%,96.078431%);fill-opacity:1;" />
<path d="M 422.371094 98.007812 C 417.519531 98.007812 413.558594 94.074219 413.558594 89.222656 C 413.558594 84.367188 417.460938 80.4375 422.3125 80.4375 L 422.371094 80.4375 C 427.222656 80.4375 431.15625 84.371094 431.15625 89.222656 C 431.15625 94.074219 427.222656 98.007812 422.371094 98.007812 Z M 422.371094 98.007812 " style=" stroke:none;fill-rule:nonzero;fill:rgb(86.27451%,91.372549%,96.078431%);fill-opacity:1;" />
<path d="M 181.90625 202.546875 C 177.054688 202.546875 173.09375 198.613281 173.09375 193.761719 C 173.09375 188.910156 176.996094 184.976562 181.847656 184.976562 L 181.90625 184.976562 C 186.757812 184.976562 190.691406 188.910156 190.691406 193.761719 C 190.691406 198.613281 186.757812 202.546875 181.90625 202.546875 Z M 181.90625 202.546875 " style=" stroke:none;fill-rule:nonzero;fill:rgb(100%,100%,100%);fill-opacity:1;" />
<path d="M 382.339844 202.546875 C 377.488281 202.546875 373.5 198.613281 373.5 193.761719 C 373.5 188.910156 377.375 184.976562 382.226562 184.976562 L 382.339844 184.976562 C 387.191406 184.976562 391.125 188.910156 391.125 193.761719 C 391.125 198.613281 387.191406 202.546875 382.339844 202.546875 Z M 342.253906 202.546875 C 337.402344 202.546875 333.410156 198.613281 333.410156 193.761719 C 333.410156 188.910156 337.289062 184.976562 342.140625 184.976562 L 342.253906 184.976562 C 347.105469 184.976562 351.039062 188.910156 351.039062 193.761719 C 351.039062 198.613281 347.105469 202.546875 342.253906 202.546875 Z M 302.167969 202.546875 C 297.316406 202.546875 293.324219 198.613281 293.324219 193.761719 C 293.324219 188.910156 297.203125 184.976562 302.054688 184.976562 L 302.167969 184.976562 C 307.019531 184.976562 310.953125 188.910156 310.953125 193.761719 C 310.953125 198.613281 307.019531 202.546875 302.167969 202.546875 Z M 262.082031 202.546875 C 257.230469 202.546875 253.238281 198.613281 253.238281 193.761719 C 253.238281 188.910156 257.113281 184.976562 261.964844 184.976562 L 262.078125 184.976562 C 266.933594 184.976562 270.863281 188.910156 270.863281 193.761719 C 270.867188 198.613281 266.933594 202.546875 262.082031 202.546875 Z M 221.992188 202.546875 C 217.140625 202.546875 213.152344 198.613281 213.152344 193.761719 C 213.152344 188.910156 217.027344 184.976562 221.878906 184.976562 L 221.992188 184.976562 C 226.847656 184.976562 230.777344 188.910156 230.777344 193.761719 C 230.78125 198.613281 226.847656 202.546875 221.992188 202.546875 Z M 221.992188 202.546875 " style=" stroke:none;fill-rule:nonzero;fill:rgb(100%,100%,100%);fill-opacity:1;" />
<path d="M 422.371094 202.546875 C 417.519531 202.546875 413.558594 198.613281 413.558594 193.761719 C 413.558594 188.910156 417.460938 184.976562 422.3125 184.976562 L 422.371094 184.976562 C 427.222656 184.976562 431.15625 188.910156 431.15625 193.761719 C 431.15625 198.613281 427.222656 202.546875 422.371094 202.546875 Z M 422.371094 202.546875 " style=" stroke:none;fill-rule:nonzero;fill:rgb(100%,100%,100%);fill-opacity:1;" />
<path d="M 181.90625 307.085938 C 177.054688 307.085938 173.09375 303.152344 173.09375 298.300781 C 173.09375 293.449219 176.996094 289.515625 181.847656 289.515625 L 181.90625 289.515625 C 186.757812 289.515625 190.691406 293.449219 190.691406 298.300781 C 190.691406 303.152344 186.757812 307.085938 181.90625 307.085938 Z M 181.90625 307.085938 " style=" stroke:none;fill-rule:nonzero;fill:rgb(86.27451%,91.372549%,96.078431%);fill-opacity:1;" />
<path d="M 382.339844 307.085938 C 377.488281 307.085938 373.5 303.152344 373.5 298.300781 C 373.5 293.449219 377.375 289.515625 382.226562 289.515625 L 382.339844 289.515625 C 387.191406 289.515625 391.125 293.449219 391.125 298.300781 C 391.125 303.152344 387.191406 307.085938 382.339844 307.085938 Z M 342.253906 307.085938 C 337.402344 307.085938 333.410156 303.152344 333.410156 298.300781 C 333.410156 293.449219 337.289062 289.515625 342.140625 289.515625 L 342.253906 289.515625 C 347.105469 289.515625 351.039062 293.449219 351.039062 298.300781 C 351.039062 303.152344 347.105469 307.085938 342.253906 307.085938 Z M 302.167969 307.085938 C 297.316406 307.085938 293.324219 303.152344 293.324219 298.300781 C 293.324219 293.449219 297.203125 289.515625 302.054688 289.515625 L 302.167969 289.515625 C 307.019531 289.515625 310.953125 293.449219 310.953125 298.300781 C 310.953125 303.152344 307.019531 307.085938 302.167969 307.085938 Z M 262.082031 307.085938 C 257.230469 307.085938 253.238281 303.152344 253.238281 298.300781 C 253.238281 293.449219 257.113281 289.515625 261.964844 289.515625 L 262.078125 289.515625 C 266.933594 289.515625 270.863281 293.449219 270.863281 298.300781 C 270.867188 303.152344 266.933594 307.085938 262.082031 307.085938 Z M 221.992188 307.085938 C 217.140625 307.085938 213.152344 303.152344 213.152344 298.300781 C 213.152344 293.449219 217.027344 289.515625 221.878906 289.515625 L 221.992188 289.515625 C 226.847656 289.515625 230.777344 293.449219 230.777344 298.300781 C 230.78125 303.152344 226.847656 307.085938 221.992188 307.085938 Z M 221.992188 307.085938 " style=" stroke:none;fill-rule:nonzero;fill:rgb(86.27451%,91.372549%,96.078431%);fill-opacity:1;" />
<path d="M 422.371094 307.085938 C 417.519531 307.085938 413.558594 303.152344 413.558594 298.300781 C 413.558594 293.449219 417.460938 289.515625 422.3125 289.515625 L 422.371094 289.515625 C 427.222656 289.515625 431.15625 293.449219 431.15625 298.300781 C 431.15625 303.152344 427.222656 307.085938 422.371094 307.085938 Z M 422.371094 307.085938 " style=" stroke:none;fill-rule:nonzero;fill:rgb(86.27451%,91.372549%,96.078431%);fill-opacity:1;" />
<path d="M 181.90625 411.625 C 177.054688 411.625 173.09375 407.691406 173.09375 402.839844 C 173.09375 397.988281 176.996094 394.054688 181.847656 394.054688 L 181.90625 394.054688 C 186.757812 394.054688 190.691406 397.988281 190.691406 402.839844 C 190.691406 407.695312 186.757812 411.625 181.90625 411.625 Z M 181.90625 411.625 " style=" stroke:none;fill-rule:nonzero;fill:rgb(100%,100%,100%);fill-opacity:1;" />
<path d="M 382.339844 411.625 C 377.488281 411.625 373.5 407.691406 373.5 402.839844 C 373.5 397.988281 377.375 394.054688 382.226562 394.054688 L 382.339844 394.054688 C 387.191406 394.054688 391.125 397.988281 391.125 402.839844 C 391.125 407.695312 387.191406 411.625 382.339844 411.625 Z M 342.253906 411.625 C 337.402344 411.625 333.410156 407.691406 333.410156 402.839844 C 333.410156 397.988281 337.289062 394.054688 342.140625 394.054688 L 342.253906 394.054688 C 347.105469 394.054688 351.039062 397.988281 351.039062 402.839844 C 351.039062 407.695312 347.105469 411.625 342.253906 411.625 Z M 302.167969 411.625 C 297.316406 411.625 293.324219 407.691406 293.324219 402.839844 C 293.324219 397.988281 297.203125 394.054688 302.054688 394.054688 L 302.167969 394.054688 C 307.019531 394.054688 310.953125 397.988281 310.953125 402.839844 C 310.953125 407.695312 307.019531 411.625 302.167969 411.625 Z M 262.082031 411.625 C 257.230469 411.625 253.238281 407.691406 253.238281 402.839844 C 253.238281 397.988281 257.113281 394.054688 261.964844 394.054688 L 262.078125 394.054688 C 266.933594 394.054688 270.863281 397.988281 270.863281 402.839844 C 270.867188 407.695312 266.933594 411.625 262.082031 411.625 Z M 221.992188 411.625 C 217.140625 411.625 213.152344 407.691406 213.152344 402.839844 C 213.152344 397.988281 217.027344 394.054688 221.878906 394.054688 L 221.992188 394.054688 C 226.847656 394.054688 230.777344 397.988281 230.777344 402.839844 C 230.78125 407.695312 226.847656 411.625 221.992188 411.625 Z M 221.992188 411.625 " style=" stroke:none;fill-rule:nonzero;fill:rgb(100%,100%,100%);fill-opacity:1;" />
<path d="M 422.371094 411.625 C 417.519531 411.625 413.558594 407.691406 413.558594 402.839844 C 413.558594 397.988281 417.460938 394.054688 422.3125 394.054688 L 422.371094 394.054688 C 427.222656 394.054688 431.15625 397.988281 431.15625 402.839844 C 431.15625 407.695312 427.222656 411.625 422.371094 411.625 Z M 422.371094 411.625 " style=" stroke:none;fill-rule:nonzero;fill:rgb(100%,100%,100%);fill-opacity:1;" />
<path d="M 67.929688 98.007812 L 42.761719 98.007812 C 37.910156 98.007812 33.976562 94.074219 33.976562 89.222656 C 33.976562 84.367188 37.910156 80.4375 42.761719 80.4375 L 67.929688 80.4375 C 72.78125 80.4375 76.714844 84.371094 76.714844 89.222656 C 76.714844 94.074219 72.78125 98.007812 67.929688 98.007812 Z M 67.929688 98.007812 " style=" stroke:none;fill-rule:nonzero;fill:rgb(98.431373%,56.862745%,54.117647%);fill-opacity:1;" />
<path d="M 67.929688 202.546875 L 42.761719 202.546875 C 37.910156 202.546875 33.976562 198.613281 33.976562 193.761719 C 33.976562 188.910156 37.910156 184.976562 42.761719 184.976562 L 67.929688 184.976562 C 72.78125 184.976562 76.714844 188.910156 76.714844 193.761719 C 76.714844 198.613281 72.78125 202.546875 67.929688 202.546875 Z M 67.929688 202.546875 " style=" stroke:none;fill-rule:nonzero;fill:rgb(96.862745%,87.45098%,60.392157%);fill-opacity:1;" />
<path d="M 67.929688 307.085938 L 42.761719 307.085938 C 37.910156 307.085938 33.976562 303.152344 33.976562 298.300781 C 33.976562 293.449219 37.910156 289.515625 42.761719 289.515625 L 67.929688 289.515625 C 72.78125 289.515625 76.714844 293.449219 76.714844 298.300781 C 76.714844 303.152344 72.78125 307.085938 67.929688 307.085938 Z M 67.929688 307.085938 " style=" stroke:none;fill-rule:nonzero;fill:rgb(16.470588%,87.843137%,68.627451%);fill-opacity:1;" />
<path d="M 67.929688 411.625 L 42.761719 411.625 C 37.910156 411.625 33.976562 407.691406 33.976562 402.839844 C 33.976562 397.988281 37.910156 394.054688 42.761719 394.054688 L 67.929688 394.054688 C 72.78125 394.054688 76.714844 397.988281 76.714844 402.839844 C 76.714844 407.695312 72.78125 411.625 67.929688 411.625 Z M 67.929688 411.625 " style=" stroke:none;fill-rule:nonzero;fill:rgb(25.098039%,62.352941%,96.078431%);fill-opacity:1;" />
</g>
</svg>