<svg xmlns="http://www.w3.org/2000/svg" height="512pt" version="1.1" viewBox="-9 0 512 512.00052" width="512pt">
<g id="surface1">
<path d="M 493.566406 265.21875 C 493.566406 401.511719 383.078125 512 246.785156 512 C 110.488281 512 0 401.511719 0 265.21875 C 0 128.921875 110.488281 18.433594 246.785156 18.433594 C 383.078125 18.433594 493.566406 128.921875 493.566406 265.21875 Z M 493.566406 265.21875 " style=" stroke:none;fill-rule:nonzero;fill:rgb(6.27451%,29.019608%,48.627451%);fill-opacity:1;" />
<path d="M 47.371094 410.601562 C 92.257812 472.058594 164.851562 512 246.785156 512 C 328.71875 512 401.308594 472.0625 446.195312 410.601562 Z M 47.371094 410.601562 " style=" stroke:none;fill-rule:nonzero;fill:rgb(4.705882%,22.745098%,42.745098%);fill-opacity:1;" />
<path d="M 229.546875 459.40625 C 229.546875 437.546875 242.742188 418.777344 261.59375 410.601562 L 47.371094 410.601562 C 92.257812 472.058594 164.851562 512 246.785156 512 C 254.484375 512 262.101562 511.648438 269.625 510.957031 C 246.589844 505.117188 229.546875 484.253906 229.546875 459.40625 Z M 229.546875 459.40625 " style=" stroke:none;fill-rule:nonzero;fill:rgb(2.745098%,16.470588%,36.862745%);fill-opacity:1;" />
<path d="M 353.136719 410.601562 L 390.621094 410.601562 L 390.621094 18.433594 L 353.136719 18.433594 Z M 353.136719 410.601562 " style=" stroke:none;fill-rule:nonzero;fill:rgb(1.960784%,49.411765%,78.823529%);fill-opacity:1;" />
<path d="M 390.621094 410.601562 L 428.105469 410.601562 L 428.105469 18.433594 L 390.621094 18.433594 Z M 390.621094 410.601562 " style=" stroke:none;fill-rule:nonzero;fill:rgb(5.490196%,55.294118%,85.882353%);fill-opacity:1;" />
<path d="M 257.246094 410.601562 L 294.730469 410.601562 L 294.730469 118.378906 L 257.246094 118.378906 Z M 257.246094 410.601562 " style=" stroke:none;fill-rule:nonzero;fill:rgb(4.313725%,71.764706%,50.980392%);fill-opacity:1;" />
<path d="M 294.730469 410.601562 L 332.214844 410.601562 L 332.214844 118.378906 L 294.730469 118.378906 Z M 294.730469 410.601562 " style=" stroke:none;fill-rule:nonzero;fill:rgb(9.019608%,78.823529%,58.823529%);fill-opacity:1;" />
<path d="M 298.535156 100.382812 C 296.097656 99.117188 293.363281 99.117188 290.925781 100.382812 L 257.246094 117.867188 L 294.730469 137.328125 L 332.214844 117.867188 Z M 298.535156 100.382812 " style=" stroke:none;fill-rule:nonzero;fill:rgb(16.470588%,87.843137%,68.627451%);fill-opacity:1;" />
<path d="M 394.429688 0.949219 C 391.992188 -0.316406 389.253906 -0.316406 386.816406 0.949219 L 353.136719 18.433594 L 390.621094 37.894531 L 428.105469 18.433594 Z M 394.429688 0.949219 " style=" stroke:none;fill-rule:nonzero;fill:rgb(25.098039%,62.352941%,96.078431%);fill-opacity:1;" />
<path d="M 161.351562 410.601562 L 198.835938 410.601562 L 198.835938 217.8125 L 161.351562 217.8125 Z M 161.351562 410.601562 " style=" stroke:none;fill-rule:nonzero;fill:rgb(91.764706%,70.196078%,22.352941%);fill-opacity:1;" />
<path d="M 198.835938 410.601562 L 236.320312 410.601562 L 236.320312 217.8125 L 198.835938 217.8125 Z M 198.835938 410.601562 " style=" stroke:none;fill-rule:nonzero;fill:rgb(95.686275%,78.039216%,34.509804%);fill-opacity:1;" />
<path d="M 202.644531 199.8125 C 200.207031 198.546875 197.46875 198.546875 195.03125 199.8125 L 161.351562 217.296875 L 198.835938 236.757812 L 236.320312 217.296875 Z M 202.644531 199.8125 " style=" stroke:none;fill-rule:nonzero;fill:rgb(96.862745%,87.45098%,60.392157%);fill-opacity:1;" />
<path d="M 195.03125 199.8125 L 161.351562 217.296875 L 198.835938 236.757812 L 195.03125 234.78125 C 180.867188 227.429688 180.867188 207.167969 195.03125 199.8125 Z M 195.03125 199.8125 " style=" stroke:none;fill-rule:nonzero;fill:rgb(95.686275%,78.039216%,34.509804%);fill-opacity:1;" />
<path d="M 65.460938 410.601562 L 102.945312 410.601562 L 102.945312 317.242188 L 65.460938 317.242188 Z M 65.460938 410.601562 " style=" stroke:none;fill-rule:nonzero;fill:rgb(91.764706%,32.941176%,32.941176%);fill-opacity:1;" />
<path d="M 102.945312 410.601562 L 140.429688 410.601562 L 140.429688 317.242188 L 102.945312 317.242188 Z M 102.945312 410.601562 " style=" stroke:none;fill-rule:nonzero;fill:rgb(95.686275%,41.176471%,41.176471%);fill-opacity:1;" />
<path d="M 106.75 299.246094 C 104.3125 297.976562 101.578125 297.976562 99.136719 299.246094 L 65.460938 316.730469 L 102.945312 336.191406 L 140.429688 316.730469 Z M 106.75 299.246094 " style=" stroke:none;fill-rule:nonzero;fill:rgb(98.431373%,56.862745%,54.117647%);fill-opacity:1;" />
<path d="M 290.925781 100.382812 L 257.246094 117.867188 L 294.730469 137.328125 L 290.925781 135.351562 C 276.761719 128 276.761719 107.738281 290.925781 100.382812 Z M 290.925781 100.382812 " style=" stroke:none;fill-rule:nonzero;fill:rgb(9.019608%,78.823529%,58.823529%);fill-opacity:1;" />
<path d="M 386.816406 0.949219 L 353.136719 18.433594 L 390.621094 37.894531 L 386.816406 35.917969 C 372.652344 28.566406 372.652344 8.304688 386.816406 0.949219 Z M 386.816406 0.949219 " style=" stroke:none;fill-rule:nonzero;fill:rgb(5.490196%,55.294118%,85.882353%);fill-opacity:1;" />
<path d="M 99.136719 299.246094 L 65.460938 316.730469 L 99.136719 334.214844 C 84.972656 326.863281 84.972656 306.597656 99.136719 299.246094 Z M 99.136719 299.246094 " style=" stroke:none;fill-rule:nonzero;fill:rgb(95.686275%,41.176471%,41.176471%);fill-opacity:1;" />
<path d="M 102.945312 438.367188 C 98.660156 438.367188 95.183594 434.894531 95.183594 430.609375 L 95.183594 410.601562 C 95.183594 406.3125 98.660156 402.839844 102.945312 402.839844 C 107.230469 402.839844 110.707031 406.3125 110.707031 410.601562 L 110.707031 430.605469 C 110.707031 434.894531 107.230469 438.367188 102.945312 438.367188 Z M 102.945312 438.367188 " style=" stroke:none;fill-rule:nonzero;fill:rgb(20.784314%,55.686275%,72.941176%);fill-opacity:1;" />
<path d="M 198.835938 438.367188 C 194.550781 438.367188 191.078125 434.894531 191.078125 430.609375 L 191.078125 410.601562 C 191.078125 406.3125 194.550781 402.839844 198.835938 402.839844 C 203.125 402.839844 206.597656 406.3125 206.597656 410.601562 L 206.597656 430.605469 C 206.597656 434.894531 203.125 438.367188 198.835938 438.367188 Z M 198.835938 438.367188 " style=" stroke:none;fill-rule:nonzero;fill:rgb(20.784314%,55.686275%,72.941176%);fill-opacity:1;" />
<path d="M 294.730469 438.367188 C 290.445312 438.367188 286.96875 434.894531 286.96875 430.609375 L 286.96875 410.601562 C 286.96875 406.3125 290.445312 402.839844 294.730469 402.839844 C 299.015625 402.839844 302.492188 406.3125 302.492188 410.601562 L 302.492188 430.605469 C 302.492188 434.894531 299.015625 438.367188 294.730469 438.367188 Z M 294.730469 438.367188 " style=" stroke:none;fill-rule:nonzero;fill:rgb(24.313725%,64.313725%,80%);fill-opacity:1;" />
<path d="M 390.625 438.367188 C 386.339844 438.367188 382.863281 434.894531 382.863281 430.609375 L 382.863281 410.601562 C 382.863281 406.3125 386.339844 402.839844 390.625 402.839844 C 394.910156 402.839844 398.386719 406.3125 398.386719 410.601562 L 398.386719 430.605469 C 398.386719 434.894531 394.910156 438.367188 390.625 438.367188 Z M 390.625 438.367188 " style=" stroke:none;fill-rule:nonzero;fill:rgb(24.313725%,64.313725%,80%);fill-opacity:1;" />
<path d="M 102.941406 462.964844 C 98.65625 462.964844 95.179688 459.488281 95.179688 455.203125 L 95.179688 455.042969 C 95.179688 450.753906 98.65625 447.28125 102.941406 447.28125 C 107.226562 447.28125 110.703125 450.753906 110.703125 455.042969 L 110.703125 455.203125 C 110.703125 459.488281 107.226562 462.964844 102.941406 462.964844 Z M 102.941406 462.964844 " style=" stroke:none;fill-rule:nonzero;fill:rgb(20.784314%,55.686275%,72.941176%);fill-opacity:1;" />
<path d="M 198.835938 462.964844 C 194.550781 462.964844 191.074219 459.488281 191.074219 455.203125 L 191.074219 455.042969 C 191.074219 450.753906 194.550781 447.28125 198.835938 447.28125 C 203.121094 447.28125 206.597656 450.753906 206.597656 455.042969 L 206.597656 455.203125 C 206.597656 459.488281 203.121094 462.964844 198.835938 462.964844 Z M 198.835938 462.964844 " style=" stroke:none;fill-rule:nonzero;fill:rgb(20.784314%,55.686275%,72.941176%);fill-opacity:1;" />
<path d="M 294.730469 462.964844 C 290.441406 462.964844 286.96875 459.488281 286.96875 455.203125 L 286.96875 455.042969 C 286.96875 450.753906 290.441406 447.28125 294.730469 447.28125 C 299.015625 447.28125 302.492188 450.753906 302.492188 455.042969 L 302.492188 455.203125 C 302.492188 459.488281 299.015625 462.964844 294.730469 462.964844 Z M 294.730469 462.964844 " style=" stroke:none;fill-rule:nonzero;fill:rgb(24.313725%,64.313725%,80%);fill-opacity:1;" />
<path d="M 390.621094 462.964844 C 386.335938 462.964844 382.859375 459.488281 382.859375 455.203125 L 382.859375 455.042969 C 382.859375 450.753906 386.335938 447.28125 390.621094 447.28125 C 394.910156 447.28125 398.382812 450.753906 398.382812 455.042969 L 398.382812 455.203125 C 398.382812 459.488281 394.910156 462.964844 390.621094 462.964844 Z M 390.621094 462.964844 " style=" stroke:none;fill-rule:nonzero;fill:rgb(24.313725%,64.313725%,80%);fill-opacity:1;" />
<path d="M 451.652344 402.839844 L 41.914062 402.839844 C 45.496094 408.164062 49.289062 413.339844 53.265625 418.363281 L 440.300781 418.363281 C 444.277344 413.339844 448.070312 408.164062 451.652344 402.839844 Z M 451.652344 402.839844 " style=" stroke:none;fill-rule:nonzero;fill:rgb(20.784314%,55.686275%,72.941176%);fill-opacity:1;" />
<path d="M 244.105469 410.601562 C 244.105469 407.191406 246.082031 404.25 248.945312 402.839844 L 41.914062 402.839844 C 45.496094 408.164062 49.289062 413.339844 53.265625 418.363281 L 248.945312 418.363281 C 246.082031 416.953125 244.105469 414.011719 244.105469 410.601562 Z M 244.105469 410.601562 " style=" stroke:none;fill-rule:nonzero;fill:rgb(13.72549%,42.352941%,60.784314%);fill-opacity:1;" />
</g>
</svg>