<svg xmlns="http://www.w3.org/2000/svg" height="512pt" version="1.1" viewBox="0 -13 512.0015 512" width="512pt">
<g id="surface1">
<path d="M 486.421875 243.210938 C 486.421875 377.53125 377.53125 486.421875 243.210938 486.421875 C 108.890625 486.421875 0 377.53125 0 243.210938 C 0 108.890625 108.890625 0 243.210938 0 C 377.53125 0 486.421875 108.890625 486.421875 243.210938 Z M 486.421875 243.210938 " style=" stroke:none;fill-rule:nonzero;fill:rgb(37.647059%,37.647059%,95.686275%);fill-opacity:1;" />
<path d="M 488.332031 50.980469 L 201.113281 50.980469 C 198 50.980469 195 52.132812 192.6875 54.214844 L 149.578125 93.011719 C 145.996094 96.234375 145.996094 101.84375 149.578125 105.066406 L 191.710938 142.984375 C 194.652344 145.628906 198.46875 147.097656 202.425781 147.097656 L 488.332031 147.097656 C 493.765625 147.097656 498.167969 142.691406 498.167969 137.257812 L 498.167969 60.820312 C 498.167969 55.386719 493.765625 50.980469 488.332031 50.980469 Z M 488.332031 50.980469 " style=" stroke:none;fill-rule:nonzero;fill:rgb(9.019608%,78.823529%,58.823529%);fill-opacity:1;" />
<path d="M 212.601562 137.257812 L 212.601562 60.820312 C 212.601562 55.386719 217.007812 50.980469 222.4375 50.980469 L 201.113281 50.980469 C 198 50.980469 195 52.132812 192.6875 54.214844 L 149.578125 93.011719 C 145.996094 96.234375 145.996094 101.847656 149.578125 105.066406 L 191.710938 142.984375 C 194.652344 145.632812 198.46875 147.097656 202.425781 147.097656 L 222.441406 147.097656 C 217.007812 147.097656 212.601562 142.691406 212.601562 137.257812 Z M 212.601562 137.257812 " style=" stroke:none;fill-rule:nonzero;fill:rgb(4.313725%,71.764706%,50.980392%);fill-opacity:1;" />
<path d="M 488.332031 339.324219 L 201.113281 339.324219 C 198 339.324219 195 340.476562 192.6875 342.558594 L 149.578125 381.355469 C 145.996094 384.578125 145.996094 390.191406 149.578125 393.410156 L 191.710938 431.328125 C 194.652344 433.976562 198.46875 435.441406 202.425781 435.441406 L 488.332031 435.441406 C 493.765625 435.441406 498.167969 431.035156 498.167969 425.605469 L 498.167969 349.164062 C 498.167969 343.730469 493.765625 339.324219 488.332031 339.324219 Z M 488.332031 339.324219 " style=" stroke:none;fill-rule:nonzero;fill:rgb(95.686275%,78.039216%,34.509804%);fill-opacity:1;" />
<path d="M 212.601562 425.601562 L 212.601562 349.164062 C 212.601562 343.730469 217.007812 339.324219 222.4375 339.324219 L 201.113281 339.324219 C 198 339.324219 195 340.476562 192.6875 342.558594 L 149.578125 381.355469 C 145.996094 384.578125 145.996094 390.191406 149.578125 393.410156 L 191.710938 431.328125 C 194.652344 433.976562 198.46875 435.441406 202.425781 435.441406 L 222.441406 435.441406 C 217.007812 435.441406 212.601562 431.035156 212.601562 425.601562 Z M 212.601562 425.601562 " style=" stroke:none;fill-rule:nonzero;fill:rgb(91.764706%,70.196078%,22.352941%);fill-opacity:1;" />
<path d="M 411.890625 291.269531 L 488.332031 291.269531 C 493.765625 291.269531 498.167969 286.863281 498.167969 281.433594 L 498.167969 204.992188 C 498.167969 199.558594 493.765625 195.152344 488.332031 195.152344 L 411.890625 195.152344 C 406.457031 195.152344 402.054688 199.558594 402.054688 204.992188 L 402.054688 281.433594 C 402.054688 286.863281 406.457031 291.269531 411.890625 291.269531 Z M 411.890625 291.269531 " style=" stroke:none;fill-rule:nonzero;fill:rgb(86.27451%,91.372549%,96.078431%);fill-opacity:1;" />
<path d="M 450.109375 281.429688 L 450.109375 204.992188 C 450.109375 199.558594 454.515625 195.152344 459.949219 195.152344 L 411.890625 195.152344 C 406.457031 195.152344 402.054688 199.558594 402.054688 204.992188 L 402.054688 281.429688 C 402.054688 286.863281 406.457031 291.269531 411.890625 291.269531 L 459.949219 291.269531 C 454.515625 291.269531 450.109375 286.863281 450.109375 281.429688 Z M 450.109375 281.429688 " style=" stroke:none;fill-rule:nonzero;fill:rgb(74.117647%,85.098039%,93.72549%);fill-opacity:1;" />
<path d="M 25.007812 195.152344 L 312.226562 195.152344 C 315.339844 195.152344 318.339844 196.304688 320.652344 198.386719 L 363.761719 237.183594 C 367.34375 240.40625 367.34375 246.019531 363.761719 249.238281 L 321.628906 287.15625 C 318.6875 289.804688 314.871094 291.269531 310.914062 291.269531 L 25.007812 291.269531 C 19.574219 291.269531 15.171875 286.863281 15.171875 281.433594 L 15.171875 204.992188 C 15.171875 199.558594 19.574219 195.152344 25.007812 195.152344 Z M 25.007812 195.152344 " style=" stroke:none;fill-rule:nonzero;fill:rgb(25.098039%,62.352941%,96.078431%);fill-opacity:1;" />
<path d="M 80.882812 281.429688 L 80.882812 204.992188 C 80.882812 199.558594 85.285156 195.152344 90.71875 195.152344 L 25.007812 195.152344 C 19.574219 195.152344 15.171875 199.558594 15.171875 204.992188 L 15.171875 281.429688 C 15.171875 286.863281 19.574219 291.269531 25.007812 291.269531 L 90.71875 291.269531 C 85.285156 291.269531 80.882812 286.863281 80.882812 281.429688 Z M 80.882812 281.429688 " style=" stroke:none;fill-rule:nonzero;fill:rgb(5.490196%,55.294118%,85.882353%);fill-opacity:1;" />
<path d="M 424.125 93.292969 L 368.609375 93.292969 C 364.148438 93.292969 360.53125 89.679688 360.53125 85.21875 C 360.53125 80.757812 364.148438 77.140625 368.609375 77.140625 L 424.125 77.140625 C 428.585938 77.140625 432.203125 80.757812 432.203125 85.21875 C 432.203125 89.679688 428.585938 93.292969 424.125 93.292969 Z M 424.125 93.292969 " style=" stroke:none;fill-rule:nonzero;fill:rgb(16.470588%,87.843137%,68.627451%);fill-opacity:1;" />
<path d="M 311.960938 93.292969 L 271.125 93.292969 C 266.664062 93.292969 263.046875 89.679688 263.046875 85.21875 C 263.046875 80.757812 266.664062 77.140625 271.125 77.140625 L 311.960938 77.140625 C 316.421875 77.140625 320.035156 80.757812 320.035156 85.21875 C 320.035156 89.679688 316.417969 93.292969 311.960938 93.292969 Z M 311.960938 93.292969 " style=" stroke:none;fill-rule:nonzero;fill:rgb(16.470588%,87.843137%,68.627451%);fill-opacity:1;" />
<path d="M 342.386719 93.292969 L 338.886719 93.292969 C 334.425781 93.292969 330.808594 89.679688 330.808594 85.21875 C 330.808594 80.757812 334.425781 77.140625 338.886719 77.140625 L 342.386719 77.140625 C 346.847656 77.140625 350.464844 80.757812 350.464844 85.21875 C 350.464844 89.679688 346.847656 93.292969 342.386719 93.292969 Z M 342.386719 93.292969 " style=" stroke:none;fill-rule:nonzero;fill:rgb(16.470588%,87.843137%,68.627451%);fill-opacity:1;" />
<path d="M 245.816406 93.292969 L 233.859375 93.292969 C 229.398438 93.292969 225.78125 89.679688 225.78125 85.21875 C 225.78125 80.757812 229.398438 77.140625 233.859375 77.140625 L 245.816406 77.140625 C 250.277344 77.140625 253.890625 80.757812 253.890625 85.21875 C 253.890625 89.679688 250.277344 93.292969 245.816406 93.292969 Z M 245.816406 93.292969 " style=" stroke:none;fill-rule:nonzero;fill:rgb(16.470588%,87.843137%,68.627451%);fill-opacity:1;" />
<path d="M 385.949219 120.9375 L 330.433594 120.9375 C 325.972656 120.9375 322.355469 117.320312 322.355469 112.859375 C 322.355469 108.398438 325.972656 104.785156 330.433594 104.785156 L 385.949219 104.785156 C 390.410156 104.785156 394.023438 108.398438 394.023438 112.859375 C 394.023438 117.320312 390.410156 120.9375 385.949219 120.9375 Z M 385.949219 120.9375 " style=" stroke:none;fill-rule:nonzero;fill:rgb(16.470588%,87.843137%,68.627451%);fill-opacity:1;" />
<path d="M 305.121094 120.9375 L 264.289062 120.9375 C 259.828125 120.9375 256.210938 117.320312 256.210938 112.859375 C 256.210938 108.398438 259.828125 104.785156 264.289062 104.785156 L 305.121094 104.785156 C 309.585938 104.785156 313.199219 108.398438 313.199219 112.859375 C 313.199219 117.320312 309.585938 120.9375 305.121094 120.9375 Z M 305.121094 120.9375 " style=" stroke:none;fill-rule:nonzero;fill:rgb(16.470588%,87.843137%,68.627451%);fill-opacity:1;" />
<path d="M 237.363281 120.9375 L 233.859375 120.9375 C 229.398438 120.9375 225.78125 117.320312 225.78125 112.859375 C 225.78125 108.398438 229.398438 104.785156 233.859375 104.785156 L 237.363281 104.785156 C 241.824219 104.785156 245.4375 108.398438 245.4375 112.859375 C 245.4375 117.320312 241.824219 120.9375 237.363281 120.9375 Z M 237.363281 120.9375 " style=" stroke:none;fill-rule:nonzero;fill:rgb(16.470588%,87.843137%,68.627451%);fill-opacity:1;" />
<path d="M 424.125 120.9375 L 412.171875 120.9375 C 407.710938 120.9375 404.09375 117.320312 404.09375 112.859375 C 404.09375 108.398438 407.710938 104.785156 412.171875 104.785156 L 424.125 104.785156 C 428.585938 104.785156 432.203125 108.398438 432.203125 112.859375 C 432.203125 117.320312 428.585938 120.9375 424.125 120.9375 Z M 424.125 120.9375 " style=" stroke:none;fill-rule:nonzero;fill:rgb(16.470588%,87.843137%,68.627451%);fill-opacity:1;" />
<path d="M 455.714844 274.886719 C 452.253906 274.886719 448.789062 273.566406 446.148438 270.921875 L 422.335938 247.113281 C 417.050781 241.828125 417.050781 233.257812 422.335938 227.972656 C 427.621094 222.691406 436.191406 222.691406 441.476562 227.972656 L 455.71875 242.214844 L 488.898438 209.035156 C 494.183594 203.75 502.753906 203.75 508.035156 209.035156 C 513.324219 214.320312 513.324219 222.890625 508.035156 228.175781 L 465.285156 270.921875 C 462.644531 273.566406 459.179688 274.886719 455.714844 274.886719 Z M 455.714844 274.886719 " style=" stroke:none;fill-rule:nonzero;fill:rgb(25.098039%,62.352941%,96.078431%);fill-opacity:1;" />
<path d="M 269.394531 237.464844 L 213.878906 237.464844 C 209.417969 237.464844 205.804688 233.851562 205.804688 229.390625 C 205.804688 224.929688 209.417969 221.3125 213.878906 221.3125 L 269.394531 221.3125 C 273.855469 221.3125 277.472656 224.929688 277.472656 229.390625 C 277.472656 233.851562 273.855469 237.464844 269.394531 237.464844 Z M 269.394531 237.464844 " style=" stroke:none;fill-rule:nonzero;fill:rgb(59.215686%,78.039216%,90.980392%);fill-opacity:1;" />
<path d="M 157.230469 237.464844 L 116.394531 237.464844 C 111.933594 237.464844 108.316406 233.851562 108.316406 229.390625 C 108.316406 224.929688 111.933594 221.3125 116.394531 221.3125 L 157.230469 221.3125 C 161.691406 221.3125 165.304688 224.929688 165.304688 229.390625 C 165.308594 233.851562 161.691406 237.464844 157.230469 237.464844 Z M 157.230469 237.464844 " style=" stroke:none;fill-rule:nonzero;fill:rgb(59.215686%,78.039216%,90.980392%);fill-opacity:1;" />
<path d="M 187.65625 237.464844 L 184.15625 237.464844 C 179.695312 237.464844 176.078125 233.851562 176.078125 229.390625 C 176.078125 224.929688 179.695312 221.3125 184.15625 221.3125 L 187.65625 221.3125 C 192.117188 221.3125 195.734375 224.929688 195.734375 229.390625 C 195.734375 233.851562 192.117188 237.464844 187.65625 237.464844 Z M 187.65625 237.464844 " style=" stroke:none;fill-rule:nonzero;fill:rgb(59.215686%,78.039216%,90.980392%);fill-opacity:1;" />
<path d="M 91.085938 237.464844 L 79.132812 237.464844 C 74.671875 237.464844 71.054688 233.851562 71.054688 229.390625 C 71.054688 224.929688 74.671875 221.3125 79.132812 221.3125 L 91.085938 221.3125 C 95.546875 221.3125 99.164062 224.929688 99.164062 229.390625 C 99.164062 233.851562 95.546875 237.464844 91.085938 237.464844 Z M 91.085938 237.464844 " style=" stroke:none;fill-rule:nonzero;fill:rgb(59.215686%,78.039216%,90.980392%);fill-opacity:1;" />
<path d="M 231.21875 265.109375 L 175.703125 265.109375 C 171.242188 265.109375 167.625 261.492188 167.625 257.03125 C 167.625 252.570312 171.242188 248.953125 175.703125 248.953125 L 231.21875 248.953125 C 235.679688 248.953125 239.296875 252.570312 239.296875 257.03125 C 239.296875 261.492188 235.679688 265.109375 231.21875 265.109375 Z M 231.21875 265.109375 " style=" stroke:none;fill-rule:nonzero;fill:rgb(59.215686%,78.039216%,90.980392%);fill-opacity:1;" />
<path d="M 150.394531 265.109375 L 109.558594 265.109375 C 105.097656 265.109375 101.480469 261.492188 101.480469 257.03125 C 101.480469 252.570312 105.097656 248.953125 109.558594 248.953125 L 150.394531 248.953125 C 154.855469 248.953125 158.472656 252.570312 158.472656 257.03125 C 158.472656 261.492188 154.855469 265.109375 150.394531 265.109375 Z M 150.394531 265.109375 " style=" stroke:none;fill-rule:nonzero;fill:rgb(59.215686%,78.039216%,90.980392%);fill-opacity:1;" />
<path d="M 82.632812 265.109375 L 79.132812 265.109375 C 74.671875 265.109375 71.054688 261.492188 71.054688 257.03125 C 71.054688 252.570312 74.671875 248.953125 79.132812 248.953125 L 82.632812 248.953125 C 87.09375 248.953125 90.710938 252.570312 90.710938 257.03125 C 90.710938 261.492188 87.09375 265.109375 82.632812 265.109375 Z M 82.632812 265.109375 " style=" stroke:none;fill-rule:nonzero;fill:rgb(59.215686%,78.039216%,90.980392%);fill-opacity:1;" />
<path d="M 269.394531 265.109375 L 257.441406 265.109375 C 252.980469 265.109375 249.363281 261.492188 249.363281 257.03125 C 249.363281 252.570312 252.980469 248.953125 257.441406 248.953125 L 269.394531 248.953125 C 273.855469 248.953125 277.472656 252.570312 277.472656 257.03125 C 277.472656 261.492188 273.855469 265.109375 269.394531 265.109375 Z M 269.394531 265.109375 " style=" stroke:none;fill-rule:nonzero;fill:rgb(59.215686%,78.039216%,90.980392%);fill-opacity:1;" />
<path d="M 424.125 381.640625 L 368.609375 381.640625 C 364.148438 381.640625 360.53125 378.023438 360.53125 373.5625 C 360.53125 369.101562 364.148438 365.484375 368.609375 365.484375 L 424.125 365.484375 C 428.585938 365.484375 432.203125 369.101562 432.203125 373.5625 C 432.203125 378.023438 428.585938 381.640625 424.125 381.640625 Z M 424.125 381.640625 " style=" stroke:none;fill-rule:nonzero;fill:rgb(96.862745%,87.45098%,60.392157%);fill-opacity:1;" />
<path d="M 311.960938 381.640625 L 271.125 381.640625 C 266.664062 381.640625 263.046875 378.023438 263.046875 373.5625 C 263.046875 369.101562 266.664062 365.484375 271.125 365.484375 L 311.960938 365.484375 C 316.421875 365.484375 320.035156 369.101562 320.035156 373.5625 C 320.035156 378.023438 316.417969 381.640625 311.960938 381.640625 Z M 311.960938 381.640625 " style=" stroke:none;fill-rule:nonzero;fill:rgb(96.862745%,87.45098%,60.392157%);fill-opacity:1;" />
<path d="M 342.386719 381.640625 L 338.886719 381.640625 C 334.425781 381.640625 330.808594 378.023438 330.808594 373.5625 C 330.808594 369.101562 334.425781 365.484375 338.886719 365.484375 L 342.386719 365.484375 C 346.847656 365.484375 350.464844 369.101562 350.464844 373.5625 C 350.464844 378.023438 346.847656 381.640625 342.386719 381.640625 Z M 342.386719 381.640625 " style=" stroke:none;fill-rule:nonzero;fill:rgb(96.862745%,87.45098%,60.392157%);fill-opacity:1;" />
<path d="M 245.816406 381.640625 L 233.859375 381.640625 C 229.398438 381.640625 225.78125 378.023438 225.78125 373.5625 C 225.78125 369.101562 229.398438 365.484375 233.859375 365.484375 L 245.816406 365.484375 C 250.277344 365.484375 253.890625 369.101562 253.890625 373.5625 C 253.890625 378.023438 250.277344 381.640625 245.816406 381.640625 Z M 245.816406 381.640625 " style=" stroke:none;fill-rule:nonzero;fill:rgb(96.862745%,87.45098%,60.392157%);fill-opacity:1;" />
<path d="M 385.949219 409.28125 L 330.433594 409.28125 C 325.972656 409.28125 322.355469 405.664062 322.355469 401.203125 C 322.355469 396.742188 325.972656 393.125 330.433594 393.125 L 385.949219 393.125 C 390.410156 393.125 394.023438 396.742188 394.023438 401.203125 C 394.023438 405.664062 390.410156 409.28125 385.949219 409.28125 Z M 385.949219 409.28125 " style=" stroke:none;fill-rule:nonzero;fill:rgb(96.862745%,87.45098%,60.392157%);fill-opacity:1;" />
<path d="M 305.121094 409.28125 L 264.289062 409.28125 C 259.828125 409.28125 256.210938 405.664062 256.210938 401.203125 C 256.210938 396.742188 259.828125 393.125 264.289062 393.125 L 305.121094 393.125 C 309.585938 393.125 313.199219 396.742188 313.199219 401.203125 C 313.199219 405.664062 309.585938 409.28125 305.121094 409.28125 Z M 305.121094 409.28125 " style=" stroke:none;fill-rule:nonzero;fill:rgb(96.862745%,87.45098%,60.392157%);fill-opacity:1;" />
<path d="M 237.363281 409.28125 L 233.859375 409.28125 C 229.398438 409.28125 225.78125 405.664062 225.78125 401.203125 C 225.78125 396.742188 229.398438 393.125 233.859375 393.125 L 237.363281 393.125 C 241.824219 393.125 245.4375 396.742188 245.4375 401.203125 C 245.4375 405.664062 241.824219 409.28125 237.363281 409.28125 Z M 237.363281 409.28125 " style=" stroke:none;fill-rule:nonzero;fill:rgb(96.862745%,87.45098%,60.392157%);fill-opacity:1;" />
<path d="M 424.125 409.28125 L 412.171875 409.28125 C 407.710938 409.28125 404.09375 405.664062 404.09375 401.203125 C 404.09375 396.742188 407.710938 393.125 412.171875 393.125 L 424.125 393.125 C 428.585938 393.125 432.203125 396.742188 432.203125 401.203125 C 432.203125 405.664062 428.585938 409.28125 424.125 409.28125 Z M 424.125 409.28125 " style=" stroke:none;fill-rule:nonzero;fill:rgb(96.862745%,87.45098%,60.392157%);fill-opacity:1;" />
<path d="M 462.976562 234.957031 L 455.714844 242.214844 L 441.472656 227.976562 C 436.191406 222.691406 427.621094 222.691406 422.335938 227.976562 C 417.050781 233.257812 417.050781 241.828125 422.335938 247.113281 L 446.144531 270.925781 C 448.789062 273.566406 452.253906 274.890625 455.714844 274.890625 C 459.175781 274.890625 462.640625 273.566406 465.285156 270.925781 L 480.761719 255.445312 C 467.878906 261.492188 455.269531 246.722656 462.976562 234.957031 Z M 462.976562 234.957031 " style=" stroke:none;fill-rule:nonzero;fill:rgb(5.490196%,55.294118%,85.882353%);fill-opacity:1;" />
<path d="M 20.277344 145.882812 C 21.679688 146.65625 23.292969 147.097656 25.007812 147.097656 L 101.449219 147.097656 C 106.882812 147.097656 111.285156 142.691406 111.285156 137.257812 L 111.285156 60.816406 C 111.285156 55.382812 106.882812 50.980469 101.449219 50.980469 L 94.21875 50.980469 C 62.273438 75.777344 36.679688 108.359375 20.277344 145.882812 Z M 20.277344 145.882812 " style=" stroke:none;fill-rule:nonzero;fill:rgb(86.27451%,91.372549%,96.078431%);fill-opacity:1;" />
<path d="M 20.277344 145.882812 C 21.679688 146.65625 23.292969 147.097656 25.007812 147.097656 L 73.066406 147.097656 C 67.632812 147.097656 63.230469 142.691406 63.230469 137.257812 L 63.230469 79.628906 C 45.53125 99.089844 30.960938 121.445312 20.277344 145.882812 Z M 20.277344 145.882812 " style=" stroke:none;fill-rule:nonzero;fill:rgb(74.117647%,85.098039%,93.72549%);fill-opacity:1;" />
<path d="M 102.015625 64.863281 L 68.835938 98.042969 L 57.261719 86.46875 C 51.386719 93.429688 45.898438 100.71875 40.824219 108.3125 L 59.265625 126.753906 C 61.910156 129.394531 65.371094 130.714844 68.835938 130.714844 C 72.296875 130.714844 75.761719 129.394531 78.402344 126.753906 L 121.152344 84.003906 C 126.4375 78.71875 126.4375 70.152344 121.152344 64.863281 C 115.867188 59.578125 107.300781 59.578125 102.015625 64.863281 Z M 102.015625 64.863281 " style=" stroke:none;fill-rule:nonzero;fill:rgb(9.019608%,78.823529%,58.823529%);fill-opacity:1;" />
<path d="M 76.09375 90.785156 L 68.835938 98.042969 L 57.261719 86.46875 C 51.386719 93.429688 45.898438 100.71875 40.824219 108.3125 L 59.265625 126.753906 C 61.90625 129.394531 65.371094 130.714844 68.835938 130.714844 C 72.296875 130.714844 75.761719 129.394531 78.402344 126.753906 L 93.882812 111.273438 C 80.964844 117.332031 68.398438 102.53125 76.09375 90.785156 Z M 76.09375 90.785156 " style=" stroke:none;fill-rule:nonzero;fill:rgb(4.313725%,71.764706%,50.980392%);fill-opacity:1;" />
<path d="M 101.449219 339.324219 L 25.007812 339.324219 C 23.292969 339.324219 21.679688 339.769531 20.277344 340.539062 C 36.683594 378.0625 62.273438 410.644531 94.222656 435.441406 L 101.449219 435.441406 C 106.882812 435.441406 111.285156 431.035156 111.285156 425.605469 L 111.285156 349.164062 C 111.285156 343.730469 106.882812 339.324219 101.449219 339.324219 Z M 101.449219 339.324219 " style=" stroke:none;fill-rule:nonzero;fill:rgb(86.27451%,91.372549%,96.078431%);fill-opacity:1;" />
<path d="M 20.277344 340.539062 C 30.960938 364.980469 45.53125 387.328125 63.230469 406.789062 L 63.230469 349.164062 C 63.230469 343.730469 67.632812 339.324219 73.066406 339.324219 L 25.007812 339.324219 C 23.292969 339.324219 21.679688 339.765625 20.277344 340.539062 Z M 20.277344 340.539062 " style=" stroke:none;fill-rule:nonzero;fill:rgb(74.117647%,85.098039%,93.72549%);fill-opacity:1;" />
<path d="M 102.015625 353.207031 L 68.835938 386.390625 L 54.59375 372.148438 C 49.621094 367.171875 41.738281 366.882812 36.425781 371.269531 C 47.039062 388.371094 59.710938 404.058594 74.101562 417.988281 C 75.664062 417.328125 77.132812 416.371094 78.402344 415.097656 L 121.152344 372.347656 C 126.4375 367.0625 126.4375 358.496094 121.152344 353.207031 C 115.867188 347.921875 107.300781 347.921875 102.015625 353.207031 Z M 102.015625 353.207031 " style=" stroke:none;fill-rule:nonzero;fill:rgb(95.686275%,78.039216%,34.509804%);fill-opacity:1;" />
<path d="M 76.09375 379.128906 L 68.835938 386.390625 L 54.59375 372.148438 C 49.621094 367.175781 41.738281 366.882812 36.425781 371.269531 C 47.039062 388.371094 59.710938 404.058594 74.101562 417.988281 C 75.664062 417.328125 77.132812 416.371094 78.402344 415.097656 L 93.882812 399.617188 C 81.039062 405.640625 68.359375 390.9375 76.09375 379.128906 Z M 76.09375 379.128906 " style=" stroke:none;fill-rule:nonzero;fill:rgb(91.764706%,70.196078%,22.352941%);fill-opacity:1;" />
</g>
</svg>