<svg xmlns="http://www.w3.org/2000/svg" height="512pt" version="1.1" viewBox="-21 0 512 512.00028" width="512pt">
<g id="surface1">
<path d="M 470.90625 276.546875 C 470.90625 406.582031 365.488281 511.996094 235.453125 511.996094 C 105.414062 511.996094 0 406.582031 0 276.546875 C 0 146.507812 105.414062 41.09375 235.453125 41.09375 C 365.488281 41.09375 470.90625 146.507812 470.90625 276.546875 Z M 470.90625 276.546875 " style=" stroke:none;fill-rule:nonzero;fill:rgb(96.862745%,87.45098%,60.392157%);fill-opacity:1;" />
<path d="M 82.769531 140.1875 C 81.105469 138.410156 78.285156 138.410156 76.625 140.1875 L 20.816406 199.800781 C 18.296875 202.492188 20.207031 206.890625 23.890625 206.890625 L 40.96875 206.890625 L 40.96875 409.28125 C 42.652344 411.742188 44.378906 414.171875 46.152344 416.566406 L 118.425781 416.566406 L 118.425781 206.890625 L 135.503906 206.890625 C 139.191406 206.890625 141.097656 202.492188 138.578125 199.800781 Z M 82.769531 140.1875 " style=" stroke:none;fill-rule:nonzero;fill:rgb(53.333333%,49.411765%,100%);fill-opacity:1;" />
<path d="M 424.75 416.566406 C 426.523438 414.171875 428.25 411.742188 429.933594 409.28125 L 429.933594 206.890625 L 447.011719 206.890625 C 450.699219 206.890625 452.605469 202.492188 450.085938 199.800781 L 394.28125 140.1875 C 392.617188 138.410156 389.796875 138.410156 388.132812 140.1875 L 332.328125 199.800781 C 329.808594 202.492188 331.714844 206.890625 335.402344 206.890625 L 352.480469 206.890625 L 352.480469 416.566406 Z M 424.75 416.566406 " style=" stroke:none;fill-rule:nonzero;fill:rgb(16.470588%,87.843137%,68.627451%);fill-opacity:1;" />
<path d="M 232.378906 1.332031 L 176.570312 60.945312 C 174.050781 63.636719 175.960938 68.035156 179.644531 68.035156 L 196.722656 68.035156 L 196.722656 416.566406 L 274.179688 416.566406 L 274.179688 68.035156 L 291.257812 68.035156 C 294.945312 68.035156 296.851562 63.636719 294.332031 60.945312 L 238.527344 1.332031 C 236.863281 -0.445312 234.042969 -0.445312 232.378906 1.332031 Z M 232.378906 1.332031 " style=" stroke:none;fill-rule:nonzero;fill:rgb(25.098039%,62.352941%,96.078431%);fill-opacity:1;" />
<path d="M 102.839844 471.113281 L 118.425781 416.566406 L 46.152344 416.566406 C 61.855469 437.757812 81.03125 456.222656 102.839844 471.113281 Z M 102.839844 471.113281 " style=" stroke:none;fill-rule:nonzero;fill:rgb(29.803922%,29.803922%,92.941176%);fill-opacity:1;" />
<path d="M 171.933594 503.320312 C 212.679688 514.707031 256.910156 515.078125 298.96875 503.320312 L 274.179688 416.566406 L 196.722656 416.566406 Z M 171.933594 503.320312 " style=" stroke:none;fill-rule:nonzero;fill:rgb(1.960784%,49.411765%,78.823529%);fill-opacity:1;" />
<path d="M 368.066406 471.113281 C 389.875 456.222656 409.050781 437.757812 424.75 416.566406 L 352.480469 416.566406 Z M 368.066406 471.113281 " style=" stroke:none;fill-rule:nonzero;fill:rgb(4.313725%,71.764706%,50.980392%);fill-opacity:1;" />
<path d="M 40.96875 349.382812 L 40.96875 409.28125 C 42.652344 411.742188 44.378906 414.171875 46.152344 416.566406 L 118.425781 416.566406 L 118.425781 349.382812 C 103.671875 383.132812 55.722656 383.132812 40.96875 349.382812 Z M 40.96875 349.382812 " style=" stroke:none;fill-rule:nonzero;fill:rgb(37.647059%,37.647059%,95.686275%);fill-opacity:1;" />
<path d="M 196.722656 349.382812 L 196.722656 416.566406 L 274.179688 416.566406 L 274.179688 349.382812 C 259.425781 383.132812 211.476562 383.132812 196.722656 349.382812 Z M 196.722656 349.382812 " style=" stroke:none;fill-rule:nonzero;fill:rgb(5.490196%,55.294118%,85.882353%);fill-opacity:1;" />
<path d="M 352.480469 349.382812 L 352.480469 416.566406 L 424.75 416.566406 C 426.523438 414.171875 428.25 411.742188 429.933594 409.28125 L 429.933594 349.382812 C 415.179688 383.132812 367.234375 383.132812 352.480469 349.382812 Z M 352.480469 349.382812 " style=" stroke:none;fill-rule:nonzero;fill:rgb(9.019608%,78.823529%,58.823529%);fill-opacity:1;" />
</g>
</svg>