<svg xmlns="http://www.w3.org/2000/svg" height="512pt" version="1.1" viewBox="-7 0 511 512" width="512pt">
<g id="surface1">
<path d="M 497.042969 263.726562 C 497.042969 400.84375 385.890625 512 248.773438 512 C 111.65625 512 0.5 400.84375 0.5 263.726562 C 0.5 126.609375 111.65625 15.457031 248.773438 15.457031 C 385.890625 15.457031 497.042969 126.609375 497.042969 263.726562 Z M 497.042969 263.726562 " style=" stroke:none;fill-rule:nonzero;fill:rgb(6.27451%,29.019608%,48.627451%);fill-opacity:1;" />
<path d="M 44.964844 405.515625 C 89.824219 469.875 164.371094 512 248.773438 512 C 333.171875 512 407.722656 469.875 452.578125 405.515625 Z M 44.964844 405.515625 " style=" stroke:none;fill-rule:nonzero;fill:rgb(4.705882%,22.745098%,42.745098%);fill-opacity:1;" />
<path d="M 224.074219 462.121094 C 224.074219 434.59375 243.207031 411.546875 268.898438 405.515625 L 44.964844 405.515625 C 89.824219 469.875 164.371094 512 248.773438 512 C 249.9375 512 251.101562 511.988281 252.265625 511.972656 C 235.375 501.796875 224.074219 483.28125 224.074219 462.121094 Z M 224.074219 462.121094 " style=" stroke:none;fill-rule:nonzero;fill:rgb(2.745098%,16.470588%,36.862745%);fill-opacity:1;" />
<path d="M 101.394531 436.085938 C 97.003906 436.085938 93.441406 432.527344 93.441406 428.132812 L 93.441406 405.515625 C 93.441406 401.121094 97.003906 397.5625 101.394531 397.5625 C 105.785156 397.5625 109.347656 401.121094 109.347656 405.515625 L 109.347656 428.132812 C 109.347656 432.527344 105.785156 436.085938 101.394531 436.085938 Z M 101.394531 436.085938 " style=" stroke:none;fill-rule:nonzero;fill:rgb(20.784314%,55.686275%,72.941176%);fill-opacity:1;" />
<path d="M 199.648438 436.085938 C 195.253906 436.085938 191.695312 432.527344 191.695312 428.132812 L 191.695312 405.515625 C 191.695312 401.121094 195.253906 397.5625 199.648438 397.5625 C 204.039062 397.5625 207.597656 401.121094 207.597656 405.515625 L 207.597656 428.132812 C 207.597656 432.527344 204.039062 436.085938 199.648438 436.085938 Z M 199.648438 436.085938 " style=" stroke:none;fill-rule:nonzero;fill:rgb(20.784314%,55.686275%,72.941176%);fill-opacity:1;" />
<path d="M 297.898438 436.085938 C 293.507812 436.085938 289.945312 432.527344 289.945312 428.132812 L 289.945312 405.515625 C 289.945312 401.121094 293.507812 397.5625 297.898438 397.5625 C 302.289062 397.5625 305.851562 401.121094 305.851562 405.515625 L 305.851562 428.132812 C 305.851562 432.527344 302.289062 436.085938 297.898438 436.085938 Z M 297.898438 436.085938 " style=" stroke:none;fill-rule:nonzero;fill:rgb(24.313725%,64.313725%,80%);fill-opacity:1;" />
<path d="M 396.152344 436.085938 C 391.761719 436.085938 388.199219 432.527344 388.199219 428.132812 L 388.199219 405.515625 C 388.199219 401.121094 391.761719 397.5625 396.152344 397.5625 C 400.542969 397.5625 404.105469 401.121094 404.105469 405.515625 L 404.105469 428.132812 C 404.105469 432.527344 400.542969 436.085938 396.152344 436.085938 Z M 396.152344 436.085938 " style=" stroke:none;fill-rule:nonzero;fill:rgb(24.313725%,64.313725%,80%);fill-opacity:1;" />
<path d="M 101.394531 461.285156 C 97 461.285156 93.441406 457.726562 93.441406 453.335938 L 93.441406 453.171875 C 93.441406 448.777344 97 445.21875 101.394531 445.21875 C 105.785156 445.21875 109.34375 448.777344 109.34375 453.171875 L 109.34375 453.335938 C 109.34375 457.726562 105.785156 461.285156 101.394531 461.285156 Z M 101.394531 461.285156 " style=" stroke:none;fill-rule:nonzero;fill:rgb(20.784314%,55.686275%,72.941176%);fill-opacity:1;" />
<path d="M 199.644531 461.285156 C 195.253906 461.285156 191.691406 457.726562 191.691406 453.335938 L 191.691406 453.171875 C 191.691406 448.777344 195.253906 445.21875 199.644531 445.21875 C 204.035156 445.21875 207.597656 448.777344 207.597656 453.171875 L 207.597656 453.335938 C 207.597656 457.726562 204.035156 461.285156 199.644531 461.285156 Z M 199.644531 461.285156 " style=" stroke:none;fill-rule:nonzero;fill:rgb(20.784314%,55.686275%,72.941176%);fill-opacity:1;" />
<path d="M 297.898438 461.285156 C 293.503906 461.285156 289.945312 457.726562 289.945312 453.335938 L 289.945312 453.171875 C 289.945312 448.777344 293.503906 445.21875 297.898438 445.21875 C 302.289062 445.21875 305.847656 448.777344 305.847656 453.171875 L 305.847656 453.335938 C 305.847656 457.726562 302.289062 461.285156 297.898438 461.285156 Z M 297.898438 461.285156 " style=" stroke:none;fill-rule:nonzero;fill:rgb(24.313725%,64.313725%,80%);fill-opacity:1;" />
<path d="M 396.148438 461.285156 C 391.757812 461.285156 388.195312 457.726562 388.195312 453.335938 L 388.195312 453.171875 C 388.195312 448.777344 391.757812 445.21875 396.148438 445.21875 C 400.539062 445.21875 404.101562 448.777344 404.101562 453.171875 L 404.101562 453.335938 C 404.101562 457.726562 400.539062 461.285156 396.148438 461.285156 Z M 396.148438 461.285156 " style=" stroke:none;fill-rule:nonzero;fill:rgb(24.313725%,64.313725%,80%);fill-opacity:1;" />
<path d="M 104.703125 298.199219 C 103.457031 295.285156 99.328125 295.285156 98.085938 298.199219 L 52.265625 405.515625 L 150.519531 405.515625 Z M 104.703125 298.199219 " style=" stroke:none;fill-rule:nonzero;fill:rgb(98.431373%,56.862745%,54.117647%);fill-opacity:1;" />
<path d="M 201.980469 198.878906 C 201.414062 196.390625 197.875 196.390625 197.308594 198.878906 L 150.519531 405.515625 L 248.769531 405.515625 Z M 201.980469 198.878906 " style=" stroke:none;fill-rule:nonzero;fill:rgb(96.862745%,87.45098%,60.392157%);fill-opacity:1;" />
<path d="M 300.582031 104.125 C 300.109375 101.054688 295.683594 101.054688 295.210938 104.125 L 248.769531 405.515625 L 347.023438 405.515625 Z M 300.582031 104.125 " style=" stroke:none;fill-rule:nonzero;fill:rgb(16.470588%,87.843137%,68.627451%);fill-opacity:1;" />
<path d="M 398.128906 1.761719 C 397.855469 -0.585938 394.445312 -0.585938 394.171875 1.761719 L 347.023438 405.515625 L 445.273438 405.515625 Z M 398.128906 1.761719 " style=" stroke:none;fill-rule:nonzero;fill:rgb(25.098039%,62.352941%,96.078431%);fill-opacity:1;" />
<path d="M 129.816406 357.023438 C 117.460938 379.441406 85.339844 379.472656 72.96875 357.023438 L 52.265625 405.515625 L 150.519531 405.515625 Z M 129.816406 357.023438 " style=" stroke:none;fill-rule:nonzero;fill:rgb(95.686275%,41.176471%,41.176471%);fill-opacity:1;" />
<path d="M 236.039062 349.289062 C 222.746094 382.054688 176.519531 382 163.25 349.289062 L 150.519531 405.515625 L 248.769531 405.515625 Z M 236.039062 349.289062 " style=" stroke:none;fill-rule:nonzero;fill:rgb(95.686275%,78.039216%,34.509804%);fill-opacity:1;" />
<path d="M 337.757812 345.394531 C 324.6875 383.34375 271.089844 383.296875 258.035156 345.394531 L 248.769531 405.515625 L 347.023438 405.515625 Z M 337.757812 345.394531 " style=" stroke:none;fill-rule:nonzero;fill:rgb(4.313725%,71.764706%,50.980392%);fill-opacity:1;" />
<path d="M 437.964844 342.914062 C 432.527344 360.652344 416.035156 373.847656 396.148438 373.847656 C 376.261719 373.847656 359.769531 360.65625 354.332031 342.914062 L 347.023438 405.515625 L 445.273438 405.515625 Z M 437.964844 342.914062 " style=" stroke:none;fill-rule:nonzero;fill:rgb(5.490196%,55.294118%,85.882353%);fill-opacity:1;" />
<path d="M 457.917969 397.5625 L 39.625 397.5625 C 43.121094 403.019531 46.839844 408.316406 50.738281 413.46875 L 446.804688 413.46875 C 450.707031 408.316406 454.421875 403.015625 457.917969 397.5625 Z M 457.917969 397.5625 " style=" stroke:none;fill-rule:nonzero;fill:rgb(20.784314%,55.686275%,72.941176%);fill-opacity:1;" />
<path d="M 244.621094 405.515625 C 244.621094 401.921875 246.828125 398.847656 249.957031 397.5625 L 39.625 397.5625 C 43.121094 403.015625 46.839844 408.316406 50.738281 413.46875 L 249.960938 413.46875 C 246.828125 412.183594 244.621094 409.109375 244.621094 405.515625 Z M 244.621094 405.515625 " style=" stroke:none;fill-rule:nonzero;fill:rgb(13.72549%,42.352941%,60.784314%);fill-opacity:1;" />
</g>
</svg>