<svg xmlns="http://www.w3.org/2000/svg" height="512pt" version="1.1" viewBox="0 0 512 512" width="512pt">
<g id="surface1">
<path d="M 512 256 C 512 397.386719 397.386719 512 256 512 C 114.613281 512 0 397.386719 0 256 C 0 114.613281 114.613281 0 256 0 C 397.386719 0 512 114.613281 512 256 Z M 512 256 " style=" stroke:none;fill-rule:nonzero;fill:rgb(37.647059%,37.647059%,95.686275%);fill-opacity:1;" />
<path d="M 507.9375 301.644531 C 486.476562 181.960938 381.859375 91.121094 256 91.121094 L 256 512 C 381.804688 512 486.410156 421.25 507.9375 301.644531 Z M 507.9375 301.644531 " style=" stroke:none;fill-rule:nonzero;fill:rgb(16.470588%,87.843137%,68.627451%);fill-opacity:1;" />
<path d="M 256 136.683594 L 256 512 C 335.886719 512 407.222656 475.402344 454.167969 418.0625 C 462.105469 395.894531 466.4375 372.015625 466.4375 347.121094 C 466.4375 230.898438 372.222656 136.683594 256 136.683594 Z M 256 136.683594 " style=" stroke:none;fill-rule:nonzero;fill:rgb(9.019608%,78.823529%,58.823529%);fill-opacity:1;" />
<path d="M 252.617188 45.582031 C 120.449219 47.292969 12.453125 149.171875 1.019531 278.78125 C 12.550781 409.492188 122.292969 512 256 512 L 256 48.941406 C 256 47.078125 254.480469 45.558594 252.617188 45.582031 Z M 252.617188 45.582031 " style=" stroke:none;fill-rule:nonzero;fill:rgb(25.098039%,62.352941%,96.078431%);fill-opacity:1;" />
<path d="M 349.089844 479.34375 C 316.246094 479.34375 284.851562 473.152344 256 461.882812 L 256 512 C 303.355469 512 347.703125 499.136719 385.75 476.71875 C 373.777344 478.4375 361.539062 479.34375 349.089844 479.34375 Z M 349.089844 479.34375 " style=" stroke:none;fill-rule:nonzero;fill:rgb(4.313725%,71.764706%,50.980392%);fill-opacity:1;" />
<path d="M 93.089844 223.34375 C 93.089844 166.707031 111.496094 114.375 142.636719 71.976562 C 64.574219 110.601562 9.039062 187.867188 1.019531 278.78125 C 12.550781 409.492188 122.292969 512 256 512 L 256 461.882812 C 160.644531 424.640625 93.089844 331.886719 93.089844 223.34375 Z M 93.089844 223.34375 " style=" stroke:none;fill-rule:nonzero;fill:rgb(5.490196%,55.294118%,85.882353%);fill-opacity:1;" />
<path d="M 256 512 L 256 91.121094 C 139.777344 91.121094 45.5625 185.339844 45.5625 301.5625 C 45.5625 417.785156 139.777344 512 256 512 Z M 256 512 " style=" stroke:none;fill-rule:nonzero;fill:rgb(5.490196%,55.294118%,85.882353%);fill-opacity:1;" />
<path d="M 93.089844 223.34375 C 93.089844 201.097656 95.941406 179.515625 101.277344 158.9375 C 66.695312 196.4375 45.5625 246.527344 45.5625 301.5625 C 45.5625 417.78125 139.777344 512 256 512 L 256 461.882812 C 160.644531 424.640625 93.089844 331.886719 93.089844 223.34375 Z M 93.089844 223.34375 " style=" stroke:none;fill-rule:nonzero;fill:rgb(1.960784%,49.411765%,78.823529%);fill-opacity:1;" />
<path d="M 134.230469 333.429688 L 115.011719 333.429688 C 109.992188 333.429688 105.925781 329.359375 105.925781 324.339844 C 105.925781 319.320312 109.996094 315.253906 115.011719 315.253906 L 134.230469 315.253906 C 136.988281 315.253906 139.234375 313.007812 139.234375 310.25 C 139.234375 307.488281 136.988281 305.242188 134.230469 305.242188 L 115.011719 305.242188 C 109.992188 305.242188 105.925781 301.175781 105.925781 296.15625 L 105.925781 269.070312 C 105.925781 264.054688 109.996094 259.984375 115.011719 259.984375 L 148.320312 259.984375 C 153.339844 259.984375 157.40625 264.054688 157.40625 269.070312 C 157.40625 274.089844 153.339844 278.160156 148.320312 278.160156 L 124.101562 278.160156 L 124.101562 287.070312 L 134.230469 287.070312 C 147.011719 287.070312 157.40625 297.46875 157.40625 310.25 C 157.40625 323.03125 147.011719 333.429688 134.230469 333.429688 Z M 134.230469 333.429688 " style=" stroke:none;fill-rule:nonzero;fill:rgb(86.27451%,91.372549%,96.078431%);fill-opacity:1;" />
<path d="M 188.648438 333.429688 C 174.457031 333.429688 162.90625 321.882812 162.90625 307.6875 L 162.90625 285.726562 C 162.90625 271.53125 174.457031 259.984375 188.648438 259.984375 C 202.84375 259.984375 214.390625 271.53125 214.390625 285.726562 L 214.390625 307.6875 C 214.390625 321.882812 202.84375 333.429688 188.648438 333.429688 Z M 188.648438 278.160156 C 184.476562 278.160156 181.082031 281.554688 181.082031 285.726562 L 181.082031 307.6875 C 181.082031 311.859375 184.476562 315.253906 188.648438 315.253906 C 192.820312 315.253906 196.21875 311.859375 196.21875 307.6875 L 196.21875 285.726562 C 196.21875 281.554688 192.820312 278.160156 188.648438 278.160156 Z M 188.648438 278.160156 " style=" stroke:none;fill-rule:nonzero;fill:rgb(86.27451%,91.372549%,96.078431%);fill-opacity:1;" />
<path d="M 128.511719 324.871094 C 128.511719 320.917969 130.445312 317.421875 133.414062 315.253906 L 115.011719 315.253906 C 109.992188 315.253906 105.925781 319.320312 105.925781 324.339844 C 105.925781 329.359375 109.992188 333.429688 115.011719 333.429688 L 132.140625 333.429688 C 129.90625 331.261719 128.511719 328.234375 128.511719 324.871094 Z M 128.511719 324.871094 " style=" stroke:none;fill-rule:nonzero;fill:rgb(74.117647%,85.098039%,93.72549%);fill-opacity:1;" />
<path d="M 115.011719 305.242188 L 132.121094 305.242188 C 126.820312 300.085938 127.433594 291.429688 133.4375 287.070312 L 124.101562 287.070312 L 124.101562 278.160156 L 148.320312 278.160156 C 153.339844 278.160156 157.40625 274.089844 157.40625 269.070312 C 157.40625 264.054688 153.339844 259.984375 148.320312 259.984375 L 115.011719 259.984375 C 109.992188 259.984375 105.925781 264.054688 105.925781 269.070312 L 105.925781 296.15625 C 105.925781 301.175781 109.992188 305.242188 115.011719 305.242188 Z M 115.011719 305.242188 " style=" stroke:none;fill-rule:nonzero;fill:rgb(74.117647%,85.098039%,93.72549%);fill-opacity:1;" />
<path d="M 189.472656 315.207031 C 184.953125 315.695312 181.082031 312.144531 181.082031 307.6875 L 181.082031 285.726562 C 181.082031 281.175781 185.128906 277.539062 189.796875 278.253906 C 184.441406 273.195312 184.882812 264.554688 190.824219 260.082031 C 175.632812 258.804688 162.910156 270.847656 162.910156 285.726562 L 162.910156 307.6875 C 162.910156 322.75 175.902344 334.773438 191.136719 333.304688 C 185.070312 329.046875 184.335938 320.4375 189.472656 315.207031 Z M 189.472656 315.207031 " style=" stroke:none;fill-rule:nonzero;fill:rgb(74.117647%,85.098039%,93.72549%);fill-opacity:1;" />
<path d="M 325.910156 388.695312 L 306.695312 388.695312 C 301.675781 388.695312 297.609375 384.628906 297.609375 379.609375 C 297.609375 374.589844 301.675781 370.523438 306.695312 370.523438 L 325.910156 370.523438 C 328.671875 370.523438 330.917969 368.277344 330.917969 365.519531 C 330.917969 362.757812 328.671875 360.511719 325.910156 360.511719 L 306.695312 360.511719 C 301.675781 360.511719 297.609375 356.445312 297.609375 351.425781 L 297.609375 324.339844 C 297.609375 319.320312 301.675781 315.253906 306.695312 315.253906 L 340.003906 315.253906 C 345.023438 315.253906 349.089844 319.320312 349.089844 324.339844 C 349.089844 329.359375 345.023438 333.429688 340.003906 333.429688 L 315.78125 333.429688 L 315.78125 342.339844 L 325.910156 342.339844 C 338.691406 342.339844 349.089844 352.738281 349.089844 365.519531 C 349.089844 378.300781 338.691406 388.695312 325.910156 388.695312 Z M 325.910156 388.695312 " style=" stroke:none;fill-rule:nonzero;fill:rgb(86.27451%,91.372549%,96.078431%);fill-opacity:1;" />
<path d="M 380.332031 388.695312 C 366.140625 388.695312 354.59375 377.148438 354.59375 362.957031 L 354.59375 340.992188 C 354.59375 326.800781 366.140625 315.253906 380.332031 315.253906 C 394.527344 315.253906 406.074219 326.800781 406.074219 340.992188 L 406.074219 362.957031 C 406.074219 377.148438 394.527344 388.695312 380.332031 388.695312 Z M 380.332031 333.429688 C 376.160156 333.429688 372.765625 336.824219 372.765625 340.996094 L 372.765625 362.957031 C 372.765625 367.128906 376.160156 370.523438 380.332031 370.523438 C 384.503906 370.523438 387.898438 367.128906 387.898438 362.957031 L 387.898438 340.996094 C 387.898438 336.824219 384.503906 333.429688 380.332031 333.429688 Z M 380.332031 333.429688 " style=" stroke:none;fill-rule:nonzero;fill:rgb(86.27451%,91.372549%,96.078431%);fill-opacity:1;" />
<path d="M 325.097656 370.523438 L 306.695312 370.523438 C 301.675781 370.523438 297.609375 374.589844 297.609375 379.609375 C 297.609375 384.628906 301.675781 388.695312 306.695312 388.695312 L 323.824219 388.695312 C 318.511719 383.550781 319.109375 374.894531 325.097656 370.523438 Z M 325.097656 370.523438 " style=" stroke:none;fill-rule:nonzero;fill:rgb(74.117647%,85.098039%,93.72549%);fill-opacity:1;" />
<path d="M 306.695312 360.511719 L 323.804688 360.511719 C 318.503906 355.355469 319.117188 346.699219 325.121094 342.339844 L 315.78125 342.339844 L 315.78125 333.429688 L 340.003906 333.429688 C 345.023438 333.429688 349.089844 329.359375 349.089844 324.339844 C 349.089844 319.320312 345.023438 315.253906 340.003906 315.253906 L 306.695312 315.253906 C 301.675781 315.253906 297.609375 319.320312 297.609375 324.339844 L 297.609375 351.425781 C 297.609375 356.445312 301.675781 360.511719 306.695312 360.511719 Z M 306.695312 360.511719 " style=" stroke:none;fill-rule:nonzero;fill:rgb(74.117647%,85.098039%,93.72549%);fill-opacity:1;" />
<path d="M 381.15625 370.476562 C 376.636719 370.964844 372.765625 367.414062 372.765625 362.957031 L 372.765625 340.992188 C 372.765625 336.441406 376.8125 332.808594 381.480469 333.523438 C 376.125 328.464844 376.566406 319.820312 382.507812 315.351562 C 367.3125 314.074219 354.59375 326.117188 354.59375 340.992188 L 354.59375 362.957031 C 354.59375 378.019531 367.585938 390.042969 382.820312 388.574219 C 376.753906 384.316406 376.019531 375.707031 381.15625 370.476562 Z M 381.15625 370.476562 " style=" stroke:none;fill-rule:nonzero;fill:rgb(74.117647%,85.098039%,93.72549%);fill-opacity:1;" />
</g>
</svg>