<svg xmlns="http://www.w3.org/2000/svg" height="512pt" version="1.1" viewBox="-5 0 512 512.01159" width="512pt">
<g id="surface1">
<path d="M 246.929688 28.949219 C 113.550781 25.988281 3.027344 131.710938 0.0664062 265.089844 C -2.894531 398.464844 102.828125 508.992188 236.203125 511.953125 C 369.582031 514.914062 480.105469 409.191406 483.066406 275.8125 C 486.03125 142.4375 380.304688 31.910156 246.929688 28.949219 Z M 246.929688 28.949219 " style=" stroke:none;fill-rule:nonzero;fill:rgb(37.647059%,37.647059%,95.686275%);fill-opacity:1;" />
<path d="M 323.222656 318.761719 L 252.101562 274.371094 C 250.722656 273.511719 249.882812 272 249.882812 270.371094 L 249.882812 200.015625 C 249.882812 195.746094 246.660156 192.015625 242.398438 191.742188 C 237.726562 191.4375 233.84375 195.136719 233.84375 199.742188 L 233.84375 271.058594 C 233.84375 272.257812 233.226562 273.371094 232.210938 274.007812 L 160.507812 318.761719 C 156.75 321.105469 155.605469 326.050781 157.949219 329.808594 C 160.296875 333.566406 165.242188 334.714844 169 332.367188 L 239.714844 288.230469 C 241.03125 287.410156 242.695312 287.410156 244.011719 288.230469 C 317.035156 333.289062 314.644531 333.585938 318.96875 333.585938 C 327.003906 333.585938 330.042969 323.019531 323.222656 318.761719 Z M 323.222656 318.761719 " style=" stroke:none;fill-rule:nonzero;fill:rgb(86.27451%,91.372549%,96.078431%);fill-opacity:1;" />
<path d="M 263.667969 281.589844 L 252.101562 274.371094 C 250.71875 273.511719 249.882812 272 249.882812 270.375 L 249.882812 255.53125 C 245.898438 261.023438 237.828125 261.019531 233.84375 255.53125 L 233.84375 271.0625 C 233.84375 272.261719 233.226562 273.375 232.210938 274.007812 L 160.503906 318.761719 C 156.75 321.109375 155.605469 326.054688 157.949219 329.808594 C 160.292969 333.570312 165.238281 334.714844 168.996094 332.367188 L 239.714844 288.230469 C 241.027344 287.410156 242.695312 287.410156 244.011719 288.230469 L 254.535156 294.796875 C 252.253906 288.40625 256.96875 281.726562 263.667969 281.589844 Z M 263.667969 281.589844 " style=" stroke:none;fill-rule:nonzero;fill:rgb(74.117647%,85.098039%,93.72549%);fill-opacity:1;" />
<path d="M 449.679688 466.519531 C 398.496094 496.070312 332.8125 478.472656 303.261719 427.285156 C 273.707031 376.101562 291.308594 310.417969 342.492188 280.867188 C 393.679688 251.316406 459.363281 268.914062 488.914062 320.097656 C 518.464844 371.285156 500.867188 436.96875 449.679688 466.519531 Z M 449.679688 466.519531 " style=" stroke:none;fill-rule:nonzero;fill:rgb(98.431373%,56.862745%,54.117647%);fill-opacity:1;" />
<path d="M 438.960938 431.914062 L 367.054688 307.371094 C 351.246094 313.03125 335.609375 298.464844 340.097656 282.289062 C 290.765625 312.484375 274.171875 376.90625 303.261719 427.285156 C 332.363281 477.695312 396.511719 495.527344 447.339844 467.832031 C 430.964844 463.714844 426.132812 442.796875 438.960938 431.914062 Z M 438.960938 431.914062 " style=" stroke:none;fill-rule:nonzero;fill:rgb(95.686275%,41.176471%,41.176471%);fill-opacity:1;" />
<path d="M 356.929688 305.867188 C 319.527344 327.460938 306.667969 375.453125 328.261719 412.851562 C 349.855469 450.25 397.847656 463.109375 435.246094 441.519531 C 472.644531 419.925781 485.503906 371.933594 463.914062 334.535156 C 442.320312 297.136719 394.328125 284.277344 356.929688 305.867188 Z M 356.929688 305.867188 " style=" stroke:none;fill-rule:nonzero;fill:rgb(95.686275%,41.176471%,41.176471%);fill-opacity:1;" />
<path d="M 361.054688 393.917969 C 345.332031 366.6875 343.707031 335.117188 353.898438 307.71875 C 318.851562 330.105469 307.265625 376.484375 328.261719 412.851562 C 349.257812 449.21875 395.214844 462.371094 432.125 443.214844 C 403.304688 438.34375 376.777344 421.152344 361.054688 393.917969 Z M 361.054688 393.917969 " style=" stroke:none;fill-rule:nonzero;fill:rgb(91.764706%,32.941176%,32.941176%);fill-opacity:1;" />
<path d="M 2.902344 308.066406 C 14.070312 379.464844 56.617188 440.753906 116.25 477.003906 C 183.761719 458.320312 215.421875 380.636719 180.46875 320.101562 C 142.371094 254.117188 49.242188 248.070312 2.902344 308.066406 Z M 2.902344 308.066406 " style=" stroke:none;fill-rule:nonzero;fill:rgb(16.470588%,87.843137%,68.627451%);fill-opacity:1;" />
<path d="M 130.515625 431.914062 L 58.609375 307.371094 C 42.800781 313.03125 27.164062 298.464844 31.652344 282.289062 C 20.273438 289.257812 10.636719 298.046875 2.898438 308.066406 C 14.070312 379.464844 56.613281 440.75 116.242188 477 C 123.972656 474.859375 131.574219 471.820312 138.894531 467.832031 C 122.542969 463.722656 117.660156 442.816406 130.515625 431.914062 Z M 130.515625 431.914062 " style=" stroke:none;fill-rule:nonzero;fill:rgb(9.019608%,78.823529%,58.823529%);fill-opacity:1;" />
<path d="M 13.21875 349.445312 C 27 389.269531 50.933594 424.429688 81.976562 451.777344 C 143.949219 456.363281 187.015625 389.179688 155.464844 334.535156 C 121.714844 276.074219 34.101562 285.238281 13.21875 349.445312 Z M 13.21875 349.445312 " style=" stroke:none;fill-rule:nonzero;fill:rgb(9.019608%,78.823529%,58.823529%);fill-opacity:1;" />
<path d="M 52.609375 393.917969 C 36.886719 366.6875 35.261719 335.117188 45.453125 307.71875 C 29.667969 317.804688 18.660156 332.761719 13.230469 349.472656 C 27.011719 389.269531 50.925781 424.414062 81.949219 451.75 C 95.976562 452.792969 110.410156 450.101562 123.679688 443.214844 C 94.855469 438.34375 68.332031 421.152344 52.609375 393.917969 Z M 52.609375 393.917969 " style=" stroke:none;fill-rule:nonzero;fill:rgb(4.313725%,71.764706%,50.980392%);fill-opacity:1;" />
<path d="M 295.457031 199.992188 C 244.273438 229.542969 178.589844 211.945312 149.039062 160.757812 C 119.484375 109.574219 137.085938 43.890625 188.269531 14.339844 C 239.457031 -15.210938 305.136719 2.386719 334.691406 53.574219 C 364.242188 104.757812 346.644531 170.441406 295.457031 199.992188 Z M 295.457031 199.992188 " style=" stroke:none;fill-rule:nonzero;fill:rgb(96.862745%,87.45098%,60.392157%);fill-opacity:1;" />
<path d="M 284.738281 165.386719 L 212.832031 40.84375 C 197.023438 46.503906 181.386719 31.9375 185.875 15.761719 C 136.542969 45.957031 119.949219 110.382812 149.039062 160.757812 C 178.140625 211.167969 242.289062 229 293.117188 201.304688 C 276.742188 197.1875 271.910156 176.269531 284.738281 165.386719 Z M 284.738281 165.386719 " style=" stroke:none;fill-rule:nonzero;fill:rgb(95.686275%,78.039216%,34.509804%);fill-opacity:1;" />
<path d="M 202.707031 39.339844 C 165.304688 60.933594 152.445312 108.925781 174.039062 146.324219 C 195.632812 183.722656 243.625 196.582031 281.023438 174.992188 C 318.421875 153.398438 331.28125 105.40625 309.6875 68.007812 C 288.097656 30.609375 240.105469 17.746094 202.707031 39.339844 Z M 202.707031 39.339844 " style=" stroke:none;fill-rule:nonzero;fill:rgb(95.686275%,78.039216%,34.509804%);fill-opacity:1;" />
<path d="M 206.832031 127.394531 C 191.109375 100.160156 189.484375 68.589844 199.675781 41.195312 C 164.628906 63.578125 153.042969 109.957031 174.039062 146.324219 C 195.035156 182.691406 240.992188 195.84375 277.902344 176.6875 C 249.082031 171.816406 222.554688 154.625 206.832031 127.394531 Z M 206.832031 127.394531 " style=" stroke:none;fill-rule:nonzero;fill:rgb(91.764706%,70.196078%,22.352941%);fill-opacity:1;" />
<path d="M 241.863281 87.742188 L 209.429688 87.742188 C 205 87.742188 201.410156 84.152344 201.410156 79.722656 C 201.410156 75.292969 205 71.703125 209.429688 71.703125 L 241.863281 71.703125 C 246.292969 71.703125 249.882812 75.292969 249.882812 79.722656 C 249.882812 84.152344 246.292969 87.742188 241.863281 87.742188 Z M 241.863281 87.742188 " style=" stroke:none;fill-rule:nonzero;fill:rgb(96.862745%,87.45098%,60.392157%);fill-opacity:1;" />
<path d="M 274.296875 115.183594 L 209.429688 115.183594 C 205 115.183594 201.410156 111.59375 201.410156 107.164062 C 201.410156 102.734375 205 99.144531 209.429688 99.144531 L 274.296875 99.144531 C 278.726562 99.144531 282.316406 102.734375 282.316406 107.164062 C 282.316406 111.59375 278.726562 115.183594 274.296875 115.183594 Z M 274.296875 115.183594 " style=" stroke:none;fill-rule:nonzero;fill:rgb(96.862745%,87.45098%,60.392157%);fill-opacity:1;" />
<path d="M 274.296875 142.628906 L 209.429688 142.628906 C 205 142.628906 201.410156 139.039062 201.410156 134.609375 C 201.410156 130.179688 205 126.589844 209.429688 126.589844 L 274.296875 126.589844 C 278.726562 126.589844 282.316406 130.179688 282.316406 134.609375 C 282.316406 139.039062 278.726562 142.628906 274.296875 142.628906 Z M 274.296875 142.628906 " style=" stroke:none;fill-rule:nonzero;fill:rgb(96.862745%,87.45098%,60.392157%);fill-opacity:1;" />
<path d="M 396.085938 352.910156 L 363.652344 352.910156 C 359.226562 352.910156 355.632812 349.320312 355.632812 344.890625 C 355.632812 340.460938 359.226562 336.871094 363.652344 336.871094 L 396.085938 336.871094 C 400.515625 336.871094 404.105469 340.460938 404.105469 344.890625 C 404.105469 349.320312 400.515625 352.910156 396.085938 352.910156 Z M 396.085938 352.910156 " style=" stroke:none;fill-rule:nonzero;fill:rgb(98.431373%,56.862745%,54.117647%);fill-opacity:1;" />
<path d="M 428.519531 380.355469 L 363.652344 380.355469 C 359.226562 380.355469 355.632812 376.765625 355.632812 372.335938 C 355.632812 367.90625 359.226562 364.316406 363.652344 364.316406 L 428.519531 364.316406 C 432.949219 364.316406 436.539062 367.90625 436.539062 372.335938 C 436.539062 376.765625 432.949219 380.355469 428.519531 380.355469 Z M 428.519531 380.355469 " style=" stroke:none;fill-rule:nonzero;fill:rgb(98.431373%,56.862745%,54.117647%);fill-opacity:1;" />
<path d="M 428.519531 407.796875 L 363.652344 407.796875 C 359.226562 407.796875 355.632812 404.207031 355.632812 399.777344 C 355.632812 395.347656 359.226562 391.757812 363.652344 391.757812 L 428.519531 391.757812 C 432.949219 391.757812 436.539062 395.347656 436.539062 399.777344 C 436.539062 404.207031 432.949219 407.796875 428.519531 407.796875 Z M 428.519531 407.796875 " style=" stroke:none;fill-rule:nonzero;fill:rgb(98.431373%,56.862745%,54.117647%);fill-opacity:1;" />
<path d="M 87.640625 354.269531 L 55.207031 354.269531 C 50.777344 354.269531 47.1875 350.679688 47.1875 346.25 C 47.1875 341.820312 50.777344 338.230469 55.207031 338.230469 L 87.640625 338.230469 C 92.070312 338.230469 95.660156 341.820312 95.660156 346.25 C 95.660156 350.679688 92.070312 354.269531 87.640625 354.269531 Z M 87.640625 354.269531 " style=" stroke:none;fill-rule:nonzero;fill:rgb(16.470588%,87.843137%,68.627451%);fill-opacity:1;" />
<path d="M 120.074219 381.710938 L 55.207031 381.710938 C 50.777344 381.710938 47.1875 378.121094 47.1875 373.691406 C 47.1875 369.261719 50.777344 365.671875 55.207031 365.671875 L 120.074219 365.671875 C 124.503906 365.671875 128.09375 369.261719 128.09375 373.691406 C 128.09375 378.121094 124.503906 381.710938 120.074219 381.710938 Z M 120.074219 381.710938 " style=" stroke:none;fill-rule:nonzero;fill:rgb(16.470588%,87.843137%,68.627451%);fill-opacity:1;" />
<path d="M 120.074219 409.15625 L 55.207031 409.15625 C 50.777344 409.15625 47.1875 405.566406 47.1875 401.136719 C 47.1875 396.707031 50.777344 393.117188 55.207031 393.117188 L 120.074219 393.117188 C 124.503906 393.117188 128.09375 396.707031 128.09375 401.136719 C 128.09375 405.566406 124.503906 409.15625 120.074219 409.15625 Z M 120.074219 409.15625 " style=" stroke:none;fill-rule:nonzero;fill:rgb(16.470588%,87.843137%,68.627451%);fill-opacity:1;" />
</g>
</svg>