<svg xmlns="http://www.w3.org/2000/svg" height="512pt" version="1.1" viewBox="0 0 512 512" width="512pt">
<g id="surface1">
<path d="M 512 256 C 512 397.386719 397.386719 512 256 512 C 114.613281 512 0 397.386719 0 256 C 0 114.613281 114.613281 0 256 0 C 397.386719 0 512 114.613281 512 256 Z M 512 256 " style=" stroke:none;fill-rule:nonzero;fill:rgb(6.27451%,29.019608%,48.627451%);fill-opacity:1;" />
<path d="M 256 57.34375 L 256 109.015625 C 359.089844 109.015625 442.660156 192.585938 442.660156 295.675781 L 494.332031 295.675781 C 494.332031 164.050781 387.628906 57.34375 256 57.34375 Z M 256 57.34375 " style=" stroke:none;fill-rule:nonzero;fill:rgb(98.823529%,52.54902%,74.901961%);fill-opacity:1;" />
<path d="M 396.511719 470.003906 L 373.132812 441 C 341.105469 466.847656 300.363281 482.335938 256 482.335938 C 152.910156 482.335938 69.339844 398.765625 69.339844 295.675781 C 69.339844 192.589844 152.910156 109.019531 256 109.019531 L 256 57.34375 C 124.371094 57.34375 17.667969 164.050781 17.667969 295.675781 C 17.667969 327.558594 23.941406 357.972656 35.300781 385.765625 C 79.8125 461.304688 161.980469 512 256 512 C 307.894531 512 356.171875 496.542969 396.511719 470.003906 Z M 396.511719 470.003906 " style=" stroke:none;fill-rule:nonzero;fill:rgb(53.333333%,49.411765%,100%);fill-opacity:1;" />
<path d="M 466.820312 401.234375 C 470.257812 396.257812 473.515625 391.15625 476.597656 385.9375 C 488.011719 358.09375 494.335938 327.628906 494.335938 295.675781 L 442.660156 295.675781 C 442.660156 325.726562 435.539062 354.109375 422.921875 379.253906 Z M 466.820312 401.234375 " style=" stroke:none;fill-rule:nonzero;fill:rgb(96.862745%,87.45098%,60.392157%);fill-opacity:1;" />
<path d="M 466.820312 401.234375 L 422.921875 379.253906 C 410.882812 403.246094 393.835938 424.292969 373.132812 441 L 396.511719 470.003906 C 424.148438 451.820312 448.046875 428.4375 466.820312 401.234375 Z M 466.820312 401.234375 " style=" stroke:none;fill-rule:nonzero;fill:rgb(98.431373%,56.862745%,54.117647%);fill-opacity:1;" />
<path d="M 331.886719 466.246094 C 308.699219 476.578125 283.023438 482.335938 256 482.335938 C 152.910156 482.335938 69.339844 398.765625 69.339844 295.675781 C 69.339844 227.765625 105.609375 168.335938 159.832031 135.675781 C 136.132812 135.863281 122.316406 108.609375 136.371094 89.511719 C 65.390625 130.785156 17.667969 207.652344 17.667969 295.675781 C 17.667969 327.558594 23.941406 357.972656 35.300781 385.765625 C 79.8125 461.304688 161.980469 512 256 512 C 282.714844 512 308.464844 507.894531 332.671875 500.300781 C 325.046875 490.300781 324.753906 476.546875 331.886719 466.246094 Z M 331.886719 466.246094 " style=" stroke:none;fill-rule:nonzero;fill:rgb(29.803922%,29.803922%,92.941176%);fill-opacity:1;" />
</g>
</svg>