<svg xmlns="http://www.w3.org/2000/svg" height="511pt" version="1.1" viewBox="0 -12 511.98336 511" width="511pt">
<g id="surface1">
<path d="M 261.207031 0.550781 C 126.605469 -2.4375 15.066406 104.257812 12.078125 238.859375 C 9.089844 373.460938 115.78125 485 250.382812 487.988281 C 384.984375 490.976562 496.523438 384.28125 499.515625 249.679688 C 502.503906 115.078125 395.808594 3.539062 261.207031 0.550781 Z M 261.207031 0.550781 " style=" stroke:none;fill-rule:nonzero;fill:rgb(6.27451%,29.019608%,48.627451%);fill-opacity:1;" />
<path d="M 256.011719 200.9375 C 250.867188 200.9375 246.699219 196.769531 246.699219 191.625 L 246.699219 89.890625 C 246.699219 84.746094 250.867188 80.578125 256.011719 80.578125 C 261.15625 80.578125 265.324219 84.746094 265.324219 89.890625 L 265.324219 191.625 C 265.324219 196.769531 261.15625 200.9375 256.011719 200.9375 Z M 256.011719 200.9375 " style=" stroke:none;fill-rule:nonzero;fill:rgb(20.784314%,55.686275%,72.941176%);fill-opacity:1;" />
<path d="M 265.324219 487.835938 L 265.324219 426.476562 C 265.324219 421.332031 261.15625 417.164062 256.011719 417.164062 C 250.867188 417.164062 246.699219 421.332031 246.699219 426.476562 L 246.699219 487.847656 C 252.222656 488.050781 257.414062 488.140625 265.324219 487.835938 Z M 265.324219 487.835938 " style=" stroke:none;fill-rule:nonzero;fill:rgb(20.784314%,55.686275%,72.941176%);fill-opacity:1;" />
<path d="M 166.855469 233.3125 L 94.257812 160.714844 C 90.617188 157.074219 90.617188 151.179688 94.257812 147.542969 C 97.890625 143.90625 103.789062 143.90625 107.425781 147.542969 L 180.023438 220.140625 C 183.664062 223.78125 183.664062 229.675781 180.023438 233.3125 C 176.386719 236.949219 170.492188 236.949219 166.855469 233.3125 Z M 166.855469 233.3125 " style=" stroke:none;fill-rule:nonzero;fill:rgb(20.784314%,55.686275%,72.941176%);fill-opacity:1;" />
<path d="M 346.714844 386.828125 C 343.078125 383.195312 337.179688 383.195312 333.542969 386.828125 C 329.90625 390.46875 329.90625 396.363281 333.542969 400 L 384.703125 451.160156 C 390.074219 447.808594 395.304688 444.25 400.386719 440.5 Z M 346.714844 386.828125 " style=" stroke:none;fill-rule:nonzero;fill:rgb(20.784314%,55.686275%,72.941176%);fill-opacity:1;" />
<path d="M 137.363281 318.613281 L 32.402344 318.613281 C 27.261719 318.613281 23.089844 314.441406 23.089844 309.300781 C 23.089844 304.15625 27.261719 299.988281 32.402344 299.988281 L 137.363281 299.988281 C 142.503906 299.988281 146.675781 304.15625 146.675781 309.300781 C 146.675781 314.441406 142.503906 318.613281 137.363281 318.613281 Z M 137.363281 318.613281 " style=" stroke:none;fill-rule:nonzero;fill:rgb(20.784314%,55.686275%,72.941176%);fill-opacity:1;" />
<path d="M 474.019531 318.613281 L 375.035156 318.613281 C 369.890625 318.613281 365.722656 314.441406 365.722656 309.300781 C 365.722656 304.15625 369.890625 299.988281 375.035156 299.988281 L 474.019531 299.988281 C 479.164062 299.988281 483.332031 304.15625 483.332031 309.300781 C 483.332031 314.441406 479.164062 318.613281 474.019531 318.613281 Z M 474.019531 318.613281 " style=" stroke:none;fill-rule:nonzero;fill:rgb(20.784314%,55.686275%,72.941176%);fill-opacity:1;" />
<path d="M 169.054688 383.085938 L 111.425781 440.710938 C 116.511719 444.457031 121.75 448.003906 127.128906 451.351562 L 182.222656 396.253906 C 185.863281 392.617188 185.863281 386.722656 182.222656 383.085938 C 178.589844 379.449219 172.691406 379.449219 169.054688 383.085938 Z M 169.054688 383.085938 " style=" stroke:none;fill-rule:nonzero;fill:rgb(20.784314%,55.686275%,72.941176%);fill-opacity:1;" />
<path d="M 331.191406 234.121094 C 327.554688 230.480469 327.554688 224.585938 331.191406 220.949219 L 405.570312 146.570312 C 409.203125 142.933594 415.101562 142.933594 418.738281 146.570312 C 422.375 150.207031 422.375 156.105469 418.738281 159.742188 L 344.359375 234.121094 C 340.722656 237.757812 334.828125 237.757812 331.191406 234.121094 Z M 331.191406 234.121094 " style=" stroke:none;fill-rule:nonzero;fill:rgb(20.784314%,55.686275%,72.941176%);fill-opacity:1;" />
<path d="M 256.011719 167.222656 C 251.902344 167.222656 248.355469 164.796875 246.699219 161.308594 L 246.699219 191.625 C 246.699219 196.769531 250.867188 200.9375 256.011719 200.9375 C 261.15625 200.9375 265.324219 196.769531 265.324219 191.625 L 265.324219 161.308594 C 263.667969 164.796875 260.121094 167.222656 256.011719 167.222656 Z M 256.011719 167.222656 " style=" stroke:none;fill-rule:nonzero;fill:rgb(13.72549%,42.352941%,60.784314%);fill-opacity:1;" />
<path d="M 265.324219 457.289062 L 265.324219 426.476562 C 265.324219 421.335938 261.15625 417.164062 256.011719 417.164062 C 250.867188 417.164062 246.699219 421.332031 246.699219 426.476562 L 246.699219 457.289062 C 250.433594 449.417969 261.585938 449.414062 265.324219 457.289062 Z M 265.324219 457.289062 " style=" stroke:none;fill-rule:nonzero;fill:rgb(13.72549%,42.352941%,60.784314%);fill-opacity:1;" />
<path d="M 180.023438 220.140625 L 157.953125 198.070312 C 159.25 201.707031 158.457031 205.929688 155.550781 208.835938 C 153.539062 210.847656 150.898438 211.851562 148.257812 211.851562 C 147.078125 211.851562 145.90625 211.640625 144.78125 211.242188 L 166.855469 233.3125 C 170.496094 236.949219 176.390625 236.949219 180.027344 233.3125 C 183.664062 229.675781 183.664062 223.777344 180.023438 220.140625 Z M 180.023438 220.140625 " style=" stroke:none;fill-rule:nonzero;fill:rgb(13.72549%,42.352941%,60.784314%);fill-opacity:1;" />
<path d="M 367.242188 407.355469 L 346.714844 386.828125 C 343.078125 383.195312 337.179688 383.195312 333.542969 386.828125 C 329.90625 390.46875 329.90625 396.363281 333.542969 400 L 354.070312 420.527344 C 351.148438 412.324219 359.03125 404.433594 367.242188 407.355469 Z M 367.242188 407.355469 " style=" stroke:none;fill-rule:nonzero;fill:rgb(13.72549%,42.352941%,60.784314%);fill-opacity:1;" />
<path d="M 137.363281 299.988281 L 108.023438 299.988281 C 115.890625 303.722656 115.898438 314.875 108.023438 318.613281 L 137.363281 318.613281 C 142.503906 318.613281 146.675781 314.445312 146.675781 309.300781 C 146.675781 304.15625 142.503906 299.988281 137.363281 299.988281 Z M 137.363281 299.988281 " style=" stroke:none;fill-rule:nonzero;fill:rgb(13.72549%,42.352941%,60.784314%);fill-opacity:1;" />
<path d="M 404 299.988281 L 375.035156 299.988281 C 369.890625 299.988281 365.722656 304.15625 365.722656 309.300781 C 365.722656 314.445312 369.890625 318.613281 375.035156 318.613281 L 404 318.613281 C 396.132812 314.878906 396.125 303.726562 404 299.988281 Z M 404 299.988281 " style=" stroke:none;fill-rule:nonzero;fill:rgb(13.72549%,42.352941%,60.784314%);fill-opacity:1;" />
<path d="M 182.222656 383.085938 C 178.589844 379.449219 172.691406 379.449219 169.054688 383.085938 L 144.78125 407.359375 C 152.980469 404.433594 160.878906 412.3125 157.953125 420.523438 L 182.222656 396.253906 C 185.863281 392.617188 185.863281 386.722656 182.222656 383.085938 Z M 182.222656 383.085938 " style=" stroke:none;fill-rule:nonzero;fill:rgb(13.72549%,42.352941%,60.784314%);fill-opacity:1;" />
<path d="M 354.070312 198.070312 L 331.191406 220.949219 C 327.554688 224.585938 327.554688 230.484375 331.191406 234.121094 C 334.828125 237.757812 340.722656 237.753906 344.359375 234.121094 L 367.242188 211.238281 C 359.050781 214.15625 351.136719 206.300781 354.070312 198.070312 Z M 354.070312 198.070312 " style=" stroke:none;fill-rule:nonzero;fill:rgb(13.72549%,42.352941%,60.784314%);fill-opacity:1;" />
<path d="M 318.25 417.097656 C 258.808594 451.414062 182.53125 430.976562 148.210938 371.535156 C 113.894531 312.09375 134.332031 235.816406 193.773438 201.5 C 253.214844 167.179688 329.492188 187.621094 363.8125 247.058594 C 398.128906 306.503906 377.691406 382.78125 318.25 417.097656 Z M 318.25 417.097656 " style=" stroke:none;fill-rule:nonzero;fill:rgb(25.098039%,62.352941%,96.078431%);fill-opacity:1;" />
<path d="M 314.183594 372.386719 L 230.566406 227.550781 C 211.472656 238.097656 190.234375 217.414062 200.21875 198.035156 C 135.910156 230.328125 112.652344 309.949219 148.210938 371.539062 C 183.726562 433.050781 264.144531 452.742188 324.234375 413.410156 C 302.722656 412.046875 295.605469 383.585938 314.183594 372.386719 Z M 314.183594 372.386719 " style=" stroke:none;fill-rule:nonzero;fill:rgb(5.490196%,55.294118%,85.882353%);fill-opacity:1;" />
<path d="M 274.554688 64.023438 C 268.640625 53.777344 255.539062 50.269531 245.292969 56.183594 C 235.050781 62.097656 231.539062 75.199219 237.453125 85.445312 C 243.371094 95.691406 256.46875 99.199219 266.714844 93.285156 C 276.960938 87.371094 280.472656 74.269531 274.554688 64.023438 Z M 274.554688 64.023438 " style=" stroke:none;fill-rule:nonzero;fill:rgb(96.862745%,87.45098%,60.392157%);fill-opacity:1;" />
<path d="M 95.6875 122.746094 C 84.261719 119.683594 72.515625 126.464844 69.453125 137.894531 C 66.390625 149.320312 73.171875 161.066406 84.601562 164.128906 C 96.027344 167.191406 107.773438 160.410156 110.835938 148.980469 C 113.894531 137.554688 107.113281 125.808594 95.6875 122.746094 Z M 95.6875 122.746094 " style=" stroke:none;fill-rule:nonzero;fill:rgb(16.470588%,87.843137%,68.627451%);fill-opacity:1;" />
<path d="M 40 298.582031 C 34.082031 288.335938 20.984375 284.824219 10.738281 290.742188 C 0.492188 296.65625 -3.019531 309.757812 2.898438 320 C 8.8125 330.246094 21.914062 333.757812 32.160156 327.84375 C 42.402344 321.925781 45.914062 308.824219 40 298.582031 Z M 40 298.582031 " style=" stroke:none;fill-rule:nonzero;fill:rgb(25.098039%,62.352941%,96.078431%);fill-opacity:1;" />
<path d="M 509.113281 298.582031 C 503.199219 288.335938 490.097656 284.824219 479.851562 290.742188 C 469.605469 296.65625 466.097656 309.757812 472.011719 320.003906 C 477.925781 330.246094 491.027344 333.757812 501.273438 327.84375 C 511.519531 321.925781 515.027344 308.828125 509.113281 298.582031 Z M 509.113281 298.582031 " style=" stroke:none;fill-rule:nonzero;fill:rgb(98.823529%,52.54902%,74.901961%);fill-opacity:1;" />
<path d="M 427.402344 122.753906 C 415.976562 119.691406 404.230469 126.472656 401.167969 137.902344 C 398.109375 149.328125 404.890625 161.074219 416.316406 164.136719 C 427.742188 167.199219 439.488281 160.417969 442.550781 148.988281 C 445.613281 137.5625 438.832031 125.816406 427.402344 122.753906 Z M 427.402344 122.753906 " style=" stroke:none;fill-rule:nonzero;fill:rgb(98.431373%,56.862745%,54.117647%);fill-opacity:1;" />
<path d="M 255.429688 75.070312 C 251.398438 68.085938 251.753906 59.78125 255.628906 53.324219 C 252.113281 53.382812 248.5625 54.300781 245.300781 56.183594 C 235.054688 62.101562 231.542969 75.199219 237.460938 85.445312 C 243.375 95.691406 256.476562 99.203125 266.722656 93.289062 C 269.984375 91.402344 272.554688 88.789062 274.363281 85.773438 C 266.835938 85.902344 259.460938 82.054688 255.429688 75.070312 Z M 255.429688 75.070312 " style=" stroke:none;fill-rule:nonzero;fill:rgb(95.686275%,78.039216%,34.509804%);fill-opacity:1;" />
<path d="M 89.773438 122.03125 C 80.457031 122.191406 71.988281 128.449219 69.457031 137.894531 C 66.394531 149.320312 73.179688 161.066406 84.605469 164.128906 C 94.050781 166.660156 103.703125 162.453125 108.5 154.46875 C 91.59375 154.757812 81.152344 136.390625 89.773438 122.03125 Z M 89.773438 122.03125 " style=" stroke:none;fill-rule:nonzero;fill:rgb(4.313725%,71.764706%,50.980392%);fill-opacity:1;" />
<path d="M 21.066406 287.886719 C 4.875 288.160156 -5.296875 305.820312 2.894531 320.011719 C 11.085938 334.199219 31.46875 334.222656 39.800781 320.335938 C 23.023438 320.621094 12.375 302.363281 21.066406 287.886719 Z M 21.066406 287.886719 " style=" stroke:none;fill-rule:nonzero;fill:rgb(5.490196%,55.294118%,85.882353%);fill-opacity:1;" />
<path d="M 490.191406 287.886719 C 474 288.160156 463.832031 305.820312 472.023438 320.011719 C 480.214844 334.199219 500.59375 334.21875 508.929688 320.335938 C 492.148438 320.621094 481.503906 302.363281 490.191406 287.886719 Z M 490.191406 287.886719 " style=" stroke:none;fill-rule:nonzero;fill:rgb(96.862745%,32.941176%,69.411765%);fill-opacity:1;" />
<path d="M 421.496094 122.03125 C 412.179688 122.191406 403.710938 128.449219 401.179688 137.894531 C 398.121094 149.320312 404.902344 161.066406 416.328125 164.128906 C 425.773438 166.660156 435.425781 162.453125 440.222656 154.46875 C 423.484375 154.757812 412.789062 136.527344 421.496094 122.03125 Z M 421.496094 122.03125 " style=" stroke:none;fill-rule:nonzero;fill:rgb(95.686275%,41.176471%,41.176471%);fill-opacity:1;" />
<path d="M 210.535156 230.535156 C 167.105469 255.609375 152.171875 311.34375 177.246094 354.773438 C 202.324219 398.207031 258.058594 413.140625 301.488281 388.0625 C 344.917969 362.988281 359.851562 307.253906 334.777344 263.824219 C 309.703125 220.394531 253.96875 205.457031 210.535156 230.535156 Z M 210.535156 230.535156 " style=" stroke:none;fill-rule:nonzero;fill:rgb(5.490196%,55.294118%,85.882353%);fill-opacity:1;" />
<path d="M 215.328125 332.789062 C 196.246094 299.738281 196.726562 260.679688 213.140625 229.09375 C 167.308594 253.625 151.902344 310.875 177.246094 354.773438 C 202.6875 398.839844 260.042969 413.851562 304.035156 386.53125 C 268.472656 384.953125 234.410156 365.835938 215.328125 332.789062 Z M 215.328125 332.789062 " style=" stroke:none;fill-rule:nonzero;fill:rgb(1.960784%,49.411765%,78.823529%);fill-opacity:1;" />
<path d="M 256.011719 285.164062 L 218.347656 285.164062 C 213.203125 285.164062 209.035156 280.996094 209.035156 275.851562 C 209.035156 270.707031 213.203125 266.539062 218.347656 266.539062 L 256.011719 266.539062 C 261.15625 266.539062 265.324219 270.707031 265.324219 275.851562 C 265.324219 280.996094 261.15625 285.164062 256.011719 285.164062 Z M 256.011719 285.164062 " style=" stroke:none;fill-rule:nonzero;fill:rgb(25.098039%,62.352941%,96.078431%);fill-opacity:1;" />
<path d="M 293.675781 317.03125 L 218.347656 317.03125 C 213.203125 317.03125 209.035156 312.863281 209.035156 307.71875 C 209.035156 302.574219 213.203125 298.40625 218.347656 298.40625 L 293.675781 298.40625 C 298.820312 298.40625 302.988281 302.578125 302.988281 307.71875 C 302.988281 312.863281 298.820312 317.03125 293.675781 317.03125 Z M 293.675781 317.03125 " style=" stroke:none;fill-rule:nonzero;fill:rgb(25.098039%,62.352941%,96.078431%);fill-opacity:1;" />
<path d="M 293.675781 348.902344 L 218.347656 348.902344 C 213.203125 348.902344 209.035156 344.734375 209.035156 339.589844 C 209.035156 334.445312 213.203125 330.277344 218.347656 330.277344 L 293.675781 330.277344 C 298.820312 330.277344 302.988281 334.445312 302.988281 339.589844 C 302.988281 344.734375 298.820312 348.902344 293.675781 348.902344 Z M 293.675781 348.902344 " style=" stroke:none;fill-rule:nonzero;fill:rgb(25.098039%,62.352941%,96.078431%);fill-opacity:1;" />
</g>
</svg>