<svg xmlns="http://www.w3.org/2000/svg" height="512pt" version="1.1" viewBox="0 0 512 512" width="512pt">
<g id="surface1">
<path d="M 512 256 C 512 397.386719 397.386719 512 256 512 C 114.613281 512 0 397.386719 0 256 C 0 114.613281 114.613281 0 256 0 C 397.386719 0 512 114.613281 512 256 Z M 512 256 " style=" stroke:none;fill-rule:nonzero;fill:rgb(6.27451%,29.019608%,48.627451%);fill-opacity:1;" />
<path d="M 43.324219 325.457031 C 28.035156 325.457031 15.640625 313.0625 15.640625 297.773438 C 15.640625 233.550781 40.648438 173.175781 86.0625 127.765625 C 131.472656 82.351562 191.847656 57.34375 256.070312 57.34375 C 271.359375 57.34375 283.753906 69.738281 283.753906 85.027344 C 283.753906 100.316406 271.359375 112.710938 256.070312 112.710938 C 154.023438 112.710938 71.007812 195.730469 71.007812 297.773438 C 71.007812 313.0625 58.613281 325.457031 43.324219 325.457031 Z M 43.324219 325.457031 " style=" stroke:none;fill-rule:nonzero;fill:rgb(86.27451%,91.372549%,96.078431%);fill-opacity:1;" />
<path d="M 124.472656 96.480469 C 110.785156 105.46875 97.910156 115.914062 86.0625 127.765625 C 40.648438 173.175781 15.640625 233.554688 15.640625 297.773438 C 15.640625 313.0625 28.035156 325.457031 43.324219 325.457031 C 58.613281 325.457031 71.007812 313.0625 71.007812 297.773438 C 71.007812 233.113281 104.347656 176.105469 154.730469 143.003906 C 128.472656 147.398438 110.019531 118.273438 124.472656 96.480469 Z M 124.472656 96.480469 " style=" stroke:none;fill-rule:nonzero;fill:rgb(74.117647%,85.098039%,93.72549%);fill-opacity:1;" />
<path d="M 283.753906 510.496094 C 283.742188 495.21875 271.351562 482.839844 256.070312 482.839844 C 154.027344 482.839844 71.007812 399.820312 71.007812 297.773438 C 71.007812 282.484375 58.613281 270.089844 43.324219 270.089844 C 28.035156 270.089844 15.640625 282.484375 15.640625 297.773438 C 15.640625 322.441406 19.34375 346.535156 26.464844 369.441406 C 68.289062 453.910156 155.355469 512 256 512 C 265.378906 512 274.636719 511.480469 283.753906 510.496094 Z M 283.753906 510.496094 " style=" stroke:none;fill-rule:nonzero;fill:rgb(67.45098%,66.666667%,97.647059%);fill-opacity:1;" />
<path d="M 468.816406 270.089844 C 453.527344 270.089844 441.136719 282.484375 441.136719 297.773438 C 441.136719 399.816406 358.117188 482.835938 256.070312 482.835938 C 240.785156 482.835938 228.390625 495.226562 228.386719 510.515625 C 237.460938 511.488281 246.671875 512 256 512 C 356.957031 512 444.25 453.554688 485.925781 368.65625 C 492.886719 345.988281 496.5 322.160156 496.5 297.773438 C 496.5 282.484375 484.105469 270.089844 468.816406 270.089844 Z M 468.816406 270.089844 " style=" stroke:none;fill-rule:nonzero;fill:rgb(53.333333%,49.411765%,100%);fill-opacity:1;" />
<path d="M 468.816406 325.457031 C 453.527344 325.457031 441.136719 313.0625 441.136719 297.773438 C 441.136719 195.726562 358.117188 112.710938 256.070312 112.710938 C 240.78125 112.710938 228.386719 100.316406 228.386719 85.027344 C 228.386719 69.738281 240.78125 57.34375 256.070312 57.34375 C 320.292969 57.34375 380.667969 82.351562 426.078125 127.761719 C 471.492188 173.175781 496.5 233.550781 496.5 297.773438 C 496.5 313.0625 484.105469 325.457031 468.816406 325.457031 Z M 468.816406 325.457031 " style=" stroke:none;fill-rule:nonzero;fill:rgb(37.647059%,37.647059%,95.686275%);fill-opacity:1;" />
<path d="M 213.230469 297 C 191.734375 297 174.246094 276.734375 174.246094 251.828125 C 174.246094 226.921875 191.734375 206.65625 213.230469 206.65625 C 234.726562 206.65625 252.214844 226.921875 252.214844 251.828125 C 252.214844 276.734375 234.726562 297 213.230469 297 Z M 213.230469 234.339844 C 207.882812 234.339844 201.929688 241.523438 201.929688 251.828125 C 201.929688 262.132812 207.882812 269.316406 213.230469 269.316406 C 218.574219 269.316406 224.53125 262.132812 224.53125 251.828125 C 224.53125 241.523438 218.574219 234.339844 213.230469 234.339844 Z M 213.230469 234.339844 " style=" stroke:none;fill-rule:nonzero;fill:rgb(86.27451%,91.372549%,96.078431%);fill-opacity:1;" />
<path d="M 205.207031 380.144531 C 198.710938 376.113281 196.714844 367.578125 200.75 361.085938 L 288.453125 219.859375 C 292.484375 213.363281 301.019531 211.367188 307.515625 215.402344 C 314.007812 219.433594 316.003906 227.96875 311.972656 234.460938 L 224.265625 375.6875 C 220.261719 382.136719 211.742188 384.203125 205.207031 380.144531 Z M 205.207031 380.144531 " style=" stroke:none;fill-rule:nonzero;fill:rgb(86.27451%,91.372549%,96.078431%);fill-opacity:1;" />
<path d="M 212.3125 269.238281 C 207.222656 268.480469 201.929688 261.546875 201.929688 251.828125 C 201.929688 242.109375 207.226562 235.175781 212.3125 234.414062 C 204.726562 225.128906 208.90625 211.035156 220.394531 207.433594 C 218.070312 206.933594 215.679688 206.65625 213.230469 206.65625 C 191.734375 206.65625 174.246094 226.921875 174.246094 251.828125 C 174.246094 276.734375 191.734375 296.996094 213.230469 296.996094 C 215.679688 296.996094 218.070312 296.722656 220.394531 296.21875 C 208.910156 292.621094 204.726562 278.527344 212.3125 269.238281 Z M 212.3125 269.238281 " style=" stroke:none;fill-rule:nonzero;fill:rgb(74.117647%,85.098039%,93.72549%);fill-opacity:1;" />
<path d="M 299.488281 388.804688 C 277.992188 388.804688 260.507812 368.542969 260.507812 343.636719 C 260.507812 318.726562 277.992188 298.464844 299.488281 298.464844 C 320.984375 298.464844 338.476562 318.726562 338.476562 343.636719 C 338.472656 368.542969 320.984375 388.804688 299.488281 388.804688 Z M 299.488281 326.148438 C 294.144531 326.148438 288.1875 333.328125 288.1875 343.636719 C 288.1875 353.941406 294.144531 361.121094 299.488281 361.121094 C 304.835938 361.121094 310.792969 353.941406 310.792969 343.636719 C 310.792969 333.328125 304.835938 326.148438 299.488281 326.148438 Z M 299.488281 326.148438 " style=" stroke:none;fill-rule:nonzero;fill:rgb(86.27451%,91.372549%,96.078431%);fill-opacity:1;" />
<path d="M 298.570312 361.046875 C 293.484375 360.289062 288.1875 353.355469 288.1875 343.636719 C 288.1875 333.914062 293.484375 326.980469 298.570312 326.222656 C 290.988281 316.9375 295.167969 302.84375 306.65625 299.242188 C 304.332031 298.738281 301.9375 298.464844 299.488281 298.464844 C 277.992188 298.464844 260.507812 318.726562 260.507812 343.636719 C 260.507812 368.542969 277.992188 388.804688 299.488281 388.804688 C 301.9375 388.804688 304.332031 388.53125 306.65625 388.027344 C 295.167969 384.425781 290.988281 370.335938 298.570312 361.046875 Z M 298.570312 361.046875 " style=" stroke:none;fill-rule:nonzero;fill:rgb(74.117647%,85.098039%,93.72549%);fill-opacity:1;" />
<path d="M 245.15625 289.578125 L 200.75 361.085938 C 196.714844 367.578125 198.710938 376.113281 205.203125 380.144531 C 211.753906 384.210938 220.265625 382.128906 224.265625 375.6875 L 268.753906 304.054688 C 258.210938 313.15625 241.746094 303.453125 245.15625 289.578125 Z M 245.15625 289.578125 " style=" stroke:none;fill-rule:nonzero;fill:rgb(74.117647%,85.098039%,93.72549%);fill-opacity:1;" />
</g>
</svg>