<svg xmlns="http://www.w3.org/2000/svg" height="512pt" version="1.1" viewBox="0 -11 512 512" width="512pt">
<g id="surface1">
<path d="M 489.972656 244.984375 C 489.972656 380.289062 380.289062 489.972656 244.988281 489.972656 C 109.683594 489.972656 0 380.289062 0 244.984375 C 0 109.683594 109.683594 0 244.988281 0 C 380.289062 0 489.972656 109.683594 489.972656 244.984375 Z M 489.972656 244.984375 " style=" stroke:none;fill-rule:nonzero;fill:rgb(16.470588%,87.843137%,68.627451%);fill-opacity:1;" />
<path d="M 324.652344 244.984375 C 324.652344 174.394531 282.929688 112.765625 225.925781 79.789062 C 168.921875 112.765625 127.195312 174.394531 127.195312 244.984375 C 127.195312 315.578125 168.921875 377.207031 225.925781 410.183594 C 282.929688 377.207031 324.652344 315.578125 324.652344 244.984375 Z M 324.652344 244.984375 " style=" stroke:none;fill-rule:nonzero;fill:rgb(37.647059%,37.647059%,95.686275%);fill-opacity:1;" />
<path d="M 0 244.984375 C 0 318.902344 32.738281 385.171875 84.5 430.089844 C 131.628906 441.777344 182.507812 435.300781 225.925781 410.183594 C 98.867188 336.679688 98.871094 153.285156 225.925781 79.789062 C 182.597656 54.726562 131.703125 48.175781 84.5 59.882812 C 32.738281 104.800781 0 171.070312 0 244.984375 Z M 0 244.984375 " style=" stroke:none;fill-rule:nonzero;fill:rgb(96.862745%,32.941176%,69.411765%);fill-opacity:1;" />
<path d="M 24.785156 137.53125 C 8.921875 169.976562 0 206.4375 0 244.984375 C 0 318.902344 32.738281 385.171875 84.5 430.089844 C 127.617188 440.785156 174.316406 436.335938 215.609375 415.726562 C 90.6875 389.199219 4.023438 268.804688 24.785156 137.53125 Z M 24.785156 137.53125 " style=" stroke:none;fill-rule:nonzero;fill:rgb(94.901961%,25.098039%,68.235294%);fill-opacity:1;" />
<path d="M 225.925781 79.789062 C 352.980469 153.289062 352.976562 336.683594 225.925781 410.183594 C 351.917969 483.070312 512 392.414062 512 244.984375 C 512 97.597656 351.933594 6.894531 225.925781 79.789062 Z M 225.925781 79.789062 " style=" stroke:none;fill-rule:nonzero;fill:rgb(5.490196%,55.294118%,85.882353%);fill-opacity:1;" />
<path d="M 423.0625 224.148438 L 383.75 224.148438 C 379.097656 224.148438 375.324219 220.375 375.324219 215.722656 C 375.324219 211.066406 379.097656 207.296875 383.75 207.296875 L 423.0625 207.296875 C 427.71875 207.296875 431.488281 211.066406 431.488281 215.722656 C 431.488281 220.375 427.71875 224.148438 423.0625 224.148438 Z M 423.0625 224.148438 " style=" stroke:none;fill-rule:nonzero;fill:rgb(25.098039%,62.352941%,96.078431%);fill-opacity:1;" />
<path d="M 448.527344 253.414062 L 383.75 253.414062 C 379.097656 253.414062 375.324219 249.640625 375.324219 244.988281 C 375.324219 240.332031 379.097656 236.558594 383.75 236.558594 L 448.527344 236.558594 C 453.183594 236.558594 456.953125 240.332031 456.953125 244.988281 C 456.953125 249.640625 453.179688 253.414062 448.527344 253.414062 Z M 448.527344 253.414062 " style=" stroke:none;fill-rule:nonzero;fill:rgb(25.098039%,62.352941%,96.078431%);fill-opacity:1;" />
<path d="M 448.527344 282.675781 L 383.75 282.675781 C 379.097656 282.675781 375.324219 278.90625 375.324219 274.25 C 375.324219 269.59375 379.097656 265.824219 383.75 265.824219 L 448.527344 265.824219 C 453.183594 265.824219 456.953125 269.59375 456.953125 274.25 C 456.953125 278.90625 453.179688 282.675781 448.527344 282.675781 Z M 448.527344 282.675781 " style=" stroke:none;fill-rule:nonzero;fill:rgb(25.098039%,62.352941%,96.078431%);fill-opacity:1;" />
<path d="M 42.632812 224.148438 C 47.289062 224.148438 51.058594 220.375 51.058594 215.722656 C 51.058594 211.066406 47.285156 207.296875 42.632812 207.296875 L 2.886719 207.296875 C 2.027344 212.851562 1.367188 218.476562 0.890625 224.148438 Z M 42.632812 224.148438 " style=" stroke:none;fill-rule:nonzero;fill:rgb(98.823529%,52.54902%,74.901961%);fill-opacity:1;" />
<path d="M 76.523438 274.25 C 76.523438 269.597656 72.753906 265.824219 68.097656 265.824219 L 0.890625 265.824219 C 1.367188 271.5 2.027344 277.121094 2.886719 282.679688 L 68.097656 282.679688 C 72.753906 282.675781 76.523438 278.90625 76.523438 274.25 Z M 76.523438 274.25 " style=" stroke:none;fill-rule:nonzero;fill:rgb(98.823529%,52.54902%,74.901961%);fill-opacity:1;" />
<path d="M 68.097656 236.558594 L 0.160156 236.558594 C 0.0664062 239.359375 0 242.164062 0 244.984375 C 0 247.808594 0.0664062 250.613281 0.160156 253.410156 L 68.097656 253.410156 C 72.753906 253.410156 76.523438 249.640625 76.523438 244.984375 C 76.523438 240.332031 72.753906 236.558594 68.097656 236.558594 Z M 68.097656 236.558594 " style=" stroke:none;fill-rule:nonzero;fill:rgb(98.823529%,52.54902%,74.901961%);fill-opacity:1;" />
<path d="M 287.640625 353.152344 C 271.578125 376.429688 250.488281 395.972656 225.925781 410.183594 C 281.347656 442.246094 349.339844 444.101562 406.171875 415.800781 C 360.75 406.226562 319.96875 384.078125 287.640625 353.152344 Z M 287.640625 353.152344 " style=" stroke:none;fill-rule:nonzero;fill:rgb(1.960784%,49.411765%,78.823529%);fill-opacity:1;" />
<path d="M 230.492188 82.519531 C 228.980469 81.589844 227.460938 80.675781 225.925781 79.789062 C 168.921875 112.765625 127.195312 174.394531 127.195312 244.984375 C 127.195312 315.578125 168.921875 377.207031 225.925781 410.183594 C 250.222656 396.125 271.742188 376.859375 288.441406 353.914062 C 213.566406 282.933594 192.40625 174.582031 230.492188 82.519531 Z M 230.492188 82.519531 " style=" stroke:none;fill-rule:nonzero;fill:rgb(29.803922%,29.803922%,92.941176%);fill-opacity:1;" />
<path d="M 232.847656 224.148438 L 193.535156 224.148438 C 188.882812 224.148438 185.109375 220.375 185.109375 215.722656 C 185.109375 211.066406 188.882812 207.296875 193.535156 207.296875 L 232.847656 207.296875 C 237.503906 207.296875 241.273438 211.066406 241.273438 215.722656 C 241.273438 220.375 237.503906 224.148438 232.847656 224.148438 Z M 232.847656 224.148438 " style=" stroke:none;fill-rule:nonzero;fill:rgb(53.333333%,49.411765%,100%);fill-opacity:1;" />
<path d="M 258.3125 253.414062 L 193.535156 253.414062 C 188.882812 253.414062 185.109375 249.640625 185.109375 244.988281 C 185.109375 240.332031 188.882812 236.558594 193.535156 236.558594 L 258.3125 236.558594 C 262.96875 236.558594 266.738281 240.332031 266.738281 244.988281 C 266.738281 249.640625 262.96875 253.414062 258.3125 253.414062 Z M 258.3125 253.414062 " style=" stroke:none;fill-rule:nonzero;fill:rgb(53.333333%,49.411765%,100%);fill-opacity:1;" />
<path d="M 258.3125 282.675781 L 193.535156 282.675781 C 188.882812 282.675781 185.109375 278.90625 185.109375 274.25 C 185.109375 269.59375 188.882812 265.824219 193.535156 265.824219 L 258.3125 265.824219 C 262.96875 265.824219 266.738281 269.59375 266.738281 274.25 C 266.738281 278.90625 262.96875 282.675781 258.3125 282.675781 Z M 258.3125 282.675781 " style=" stroke:none;fill-rule:nonzero;fill:rgb(53.333333%,49.411765%,100%);fill-opacity:1;" />
</g>
</svg>