<svg xmlns="http://www.w3.org/2000/svg" height="512pt" version="1.1" viewBox="0 0 512 512" width="512pt">
<g id="surface1">
<path d="M 512 256 C 512 397.386719 397.386719 512 256 512 C 114.613281 512 0 397.386719 0 256 C 0 114.613281 114.613281 0 256 0 C 397.386719 0 512 114.613281 512 256 Z M 512 256 " style=" stroke:none;fill-rule:nonzero;fill:rgb(25.098039%,62.352941%,96.078431%);fill-opacity:1;" />
<path d="M 285.476562 377.761719 L 285.476562 176.890625 C 285.476562 174.488281 283.527344 172.539062 281.128906 172.539062 L 232.316406 172.539062 C 229.914062 172.539062 227.964844 174.488281 227.964844 176.890625 L 227.964844 377.761719 Z M 285.476562 377.761719 " style=" stroke:none;fill-rule:nonzero;fill:rgb(37.647059%,37.647059%,95.686275%);fill-opacity:1;" />
<path d="M 342.992188 377.761719 L 342.992188 119.375 C 342.992188 116.972656 341.042969 115.023438 338.640625 115.023438 L 289.824219 115.023438 C 287.421875 115.023438 285.476562 116.972656 285.476562 119.375 L 285.476562 377.761719 Z M 342.992188 377.761719 " style=" stroke:none;fill-rule:nonzero;fill:rgb(96.862745%,32.941176%,69.411765%);fill-opacity:1;" />
<path d="M 400.503906 377.761719 L 400.503906 4.347656 C 400.503906 1.945312 398.554688 0 396.152344 0 L 347.335938 0 C 344.933594 0 342.988281 1.945312 342.988281 4.347656 L 342.988281 377.761719 Z M 400.503906 377.761719 " style=" stroke:none;fill-rule:nonzero;fill:rgb(98.431373%,56.862745%,54.117647%);fill-opacity:1;" />
<path d="M 458.015625 377.761719 L 458.015625 61.863281 C 458.015625 59.460938 456.070312 57.511719 453.667969 57.511719 L 404.847656 57.511719 C 402.445312 57.511719 400.5 59.460938 400.5 61.863281 L 400.5 377.761719 Z M 458.015625 377.761719 " style=" stroke:none;fill-rule:nonzero;fill:rgb(96.862745%,87.45098%,60.392157%);fill-opacity:1;" />
<path d="M 261.070312 172.539062 L 232.316406 172.539062 C 229.914062 172.539062 227.964844 174.488281 227.964844 176.890625 L 227.964844 377.761719 L 256.71875 377.761719 L 256.71875 176.890625 C 256.71875 174.488281 258.667969 172.539062 261.070312 172.539062 Z M 261.070312 172.539062 " style=" stroke:none;fill-rule:nonzero;fill:rgb(29.803922%,29.803922%,92.941176%);fill-opacity:1;" />
<path d="M 318.578125 115.023438 L 289.824219 115.023438 C 287.421875 115.023438 285.476562 116.972656 285.476562 119.375 L 285.476562 377.761719 L 314.230469 377.761719 L 314.230469 119.375 C 314.230469 116.972656 316.175781 115.023438 318.578125 115.023438 Z M 318.578125 115.023438 " style=" stroke:none;fill-rule:nonzero;fill:rgb(94.901961%,25.098039%,68.235294%);fill-opacity:1;" />
<path d="M 376.089844 0 L 347.335938 0 C 344.933594 0 342.988281 1.945312 342.988281 4.347656 L 342.988281 377.761719 L 371.742188 377.761719 L 371.742188 4.347656 C 371.742188 1.945312 373.6875 0 376.089844 0 Z M 376.089844 0 " style=" stroke:none;fill-rule:nonzero;fill:rgb(95.686275%,41.176471%,41.176471%);fill-opacity:1;" />
<path d="M 433.601562 57.511719 L 404.847656 57.511719 C 402.445312 57.511719 400.5 59.460938 400.5 61.859375 L 400.5 377.761719 L 429.253906 377.761719 L 429.253906 61.859375 C 429.253906 59.460938 431.199219 57.511719 433.601562 57.511719 Z M 433.601562 57.511719 " style=" stroke:none;fill-rule:nonzero;fill:rgb(95.686275%,78.039216%,34.509804%);fill-opacity:1;" />
<path d="M 506.074219 332.746094 C 498.082031 323.445312 486.316406 323.726562 474.53125 330.289062 C 446.933594 345.660156 387.039062 373.089844 387.039062 373.089844 C 388.941406 370.03125 390.058594 366.261719 390.058594 361.617188 C 390.058594 346.59375 367.648438 338.492188 341.960938 334.136719 C 322.214844 328.722656 301.144531 327.820312 277.300781 311.898438 C 249.667969 293.441406 220.058594 297.410156 199.140625 303.632812 C 176.683594 310.308594 160.117188 307.757812 143.421875 308.3125 L 143.421875 422.882812 C 152.644531 423.695312 163.222656 422.148438 177.832031 428.085938 C 203.484375 438.515625 272.902344 461.789062 320.460938 461.789062 C 359.609375 461.789062 456.542969 406.21875 501.054688 367.984375 C 512.753906 357.933594 516.078125 344.386719 506.074219 332.746094 Z M 506.074219 332.746094 " style=" stroke:none;fill-rule:nonzero;fill:rgb(100%,86.666667%,82.352941%);fill-opacity:1;" />
<path d="M 387.039062 373.089844 C 381.324219 380.210938 371.773438 384.050781 362.640625 382.773438 L 277.554688 370.9375 C 273.175781 370.324219 269.128906 373.382812 268.519531 377.761719 C 267.910156 382.140625 270.96875 386.183594 275.347656 386.796875 L 360.433594 398.632812 C 375.386719 400.710938 391.042969 394.742188 401.199219 380.472656 C 401.925781 379.402344 402.867188 377.375 409.03125 365.796875 C 409.601562 364.71875 409.890625 363.566406 409.945312 362.425781 C 396.652344 368.6875 387.039062 373.089844 387.039062 373.089844 Z M 387.039062 373.089844 " style=" stroke:none;fill-rule:nonzero;fill:rgb(98.823529%,81.176471%,76.470588%);fill-opacity:1;" />
<path d="M 218.328125 299.40625 C 198.425781 302.136719 191.824219 308.3125 166.082031 308.3125 L 143.421875 308.3125 C 143.421875 349.074219 143.421875 399.308594 143.421875 422.882812 C 152.644531 423.695312 163.226562 422.144531 177.832031 428.085938 C 186.421875 431.578125 199.921875 436.511719 215.855469 441.527344 C 168.394531 405.257812 169.945312 333.792969 218.328125 299.40625 Z M 218.328125 299.40625 " style=" stroke:none;fill-rule:nonzero;fill:rgb(98.823529%,81.176471%,76.470588%);fill-opacity:1;" />
<path d="M 93.953125 454.179688 L 93.953125 303.285156 L 4.375 303.285156 C 15.667969 363.746094 48.203125 416.726562 93.953125 454.179688 Z M 93.953125 454.179688 " style=" stroke:none;fill-rule:nonzero;fill:rgb(6.27451%,29.019608%,48.627451%);fill-opacity:1;" />
<path d="M 93.953125 454.179688 L 93.953125 382.953125 L 33.667969 382.953125 C 49.28125 410.242188 69.769531 434.382812 93.953125 454.179688 Z M 93.953125 454.179688 " style=" stroke:none;fill-rule:nonzero;fill:rgb(4.705882%,22.745098%,42.745098%);fill-opacity:1;" />
<path d="M 138.039062 295.414062 L 92.371094 295.414062 C 87.300781 295.414062 83.191406 299.523438 83.191406 304.597656 L 83.191406 444.863281 C 90.988281 452.003906 99.226562 458.675781 107.871094 464.816406 L 138.039062 464.816406 C 143.109375 464.816406 147.222656 460.703125 147.222656 455.632812 L 147.222656 304.597656 C 147.222656 299.523438 143.113281 295.414062 138.039062 295.414062 Z M 138.039062 295.414062 " style=" stroke:none;fill-rule:nonzero;fill:rgb(74.117647%,85.098039%,93.72549%);fill-opacity:1;" />
<path d="M 138.039062 383.246094 L 92.371094 383.246094 C 87.300781 383.246094 83.191406 379.136719 83.191406 374.066406 L 83.191406 444.859375 C 90.988281 452.003906 99.226562 458.671875 107.871094 464.8125 L 138.039062 464.8125 C 143.109375 464.8125 147.222656 460.703125 147.222656 455.632812 L 147.222656 374.066406 C 147.222656 379.136719 143.113281 383.246094 138.039062 383.246094 Z M 138.039062 383.246094 " style=" stroke:none;fill-rule:nonzero;fill:rgb(59.215686%,78.039216%,90.980392%);fill-opacity:1;" />
<path d="M 128.707031 339.171875 C 128.707031 346.628906 122.664062 352.671875 115.207031 352.671875 C 107.75 352.671875 101.707031 346.628906 101.707031 339.171875 C 101.707031 331.714844 107.75 325.671875 115.207031 325.671875 C 122.664062 325.671875 128.707031 331.714844 128.707031 339.171875 Z M 128.707031 339.171875 " style=" stroke:none;fill-rule:nonzero;fill:rgb(86.27451%,91.372549%,96.078431%);fill-opacity:1;" />
</g>
</svg>