<svg xmlns="http://www.w3.org/2000/svg" height="512pt" version="1.1" viewBox="-10 0 512 512.0005" width="512pt">
<g id="surface1">
<path d="M 483.226562 274.710938 C 483.226562 405.761719 376.988281 512 245.9375 512 C 114.886719 512 8.652344 405.761719 8.652344 274.710938 C 8.652344 143.660156 114.886719 37.425781 245.9375 37.425781 C 376.988281 37.425781 483.226562 143.660156 483.226562 274.710938 Z M 483.226562 274.710938 " style=" stroke:none;fill-rule:nonzero;fill:rgb(6.27451%,29.019608%,48.627451%);fill-opacity:1;" />
<path d="M 489.949219 204.070312 L 430.320312 158.675781 C 427.101562 156.222656 422.472656 158.519531 422.472656 162.566406 C 422.472656 167.449219 422.472656 173.820312 422.472656 180.949219 L 398.054688 180.949219 C 350.226562 180.949219 311.3125 219.859375 311.3125 267.691406 L 311.3125 452.957031 L 365.144531 452.957031 L 365.144531 267.691406 C 365.144531 249.542969 379.90625 234.78125 398.054688 234.78125 L 422.472656 234.78125 C 422.472656 242.507812 422.472656 249.058594 422.472656 253.359375 C 422.472656 257.402344 427.101562 259.699219 430.320312 257.25 L 489.949219 211.851562 C 492.519531 209.894531 492.519531 206.027344 489.949219 204.070312 Z M 489.949219 204.070312 " style=" stroke:none;fill-rule:nonzero;fill:rgb(96.862745%,87.45098%,60.392157%);fill-opacity:1;" />
<path d="M 295.226562 61.554688 L 249.828125 1.925781 C 247.871094 -0.640625 244.003906 -0.640625 242.046875 1.925781 L 196.652344 61.554688 C 194.203125 64.773438 196.496094 69.40625 200.542969 69.40625 C 205.449219 69.40625 211.855469 69.40625 219.023438 69.40625 L 219.023438 452.953125 L 272.855469 452.953125 L 272.855469 69.40625 C 280.542969 69.40625 287.054688 69.40625 291.335938 69.40625 C 295.378906 69.40625 297.675781 64.773438 295.226562 61.554688 Z M 295.226562 61.554688 " style=" stroke:none;fill-rule:nonzero;fill:rgb(98.431373%,56.862745%,54.117647%);fill-opacity:1;" />
<path d="M 93.824219 180.949219 L 69.40625 180.949219 C 69.40625 173.820312 69.40625 167.449219 69.40625 162.566406 C 69.40625 158.519531 64.773438 156.222656 61.558594 158.675781 L 1.929688 204.070312 C -0.640625 206.027344 -0.640625 209.894531 1.929688 211.851562 L 61.558594 257.25 C 64.773438 259.699219 69.40625 257.402344 69.40625 253.359375 C 69.40625 249.054688 69.40625 242.507812 69.40625 234.777344 L 93.824219 234.777344 C 111.96875 234.777344 126.734375 249.542969 126.734375 267.691406 L 126.734375 452.953125 L 180.566406 452.953125 L 180.566406 267.691406 C 180.566406 219.859375 141.652344 180.949219 93.824219 180.949219 Z M 93.824219 180.949219 " style=" stroke:none;fill-rule:nonzero;fill:rgb(98.823529%,52.54902%,74.901961%);fill-opacity:1;" />
<path d="M 249.828125 254.121094 C 247.871094 251.550781 244.003906 251.550781 242.046875 254.121094 L 219.023438 284.363281 C 219.023438 295.957031 219.023438 433.324219 219.023438 452.957031 L 272.855469 452.957031 C 272.855469 420.359375 272.855469 298.6875 272.855469 284.363281 Z M 249.828125 254.121094 " style=" stroke:none;fill-rule:nonzero;fill:rgb(95.686275%,41.176471%,41.176471%);fill-opacity:1;" />
<path d="M 334.339844 309.34375 L 311.3125 339.585938 L 311.3125 452.957031 L 365.144531 452.957031 L 365.144531 339.585938 L 342.117188 309.34375 C 340.160156 306.773438 336.296875 306.773438 334.339844 309.34375 Z M 334.339844 309.34375 " style=" stroke:none;fill-rule:nonzero;fill:rgb(95.686275%,78.039216%,34.509804%);fill-opacity:1;" />
<path d="M 149.757812 309.34375 L 126.734375 339.585938 C 126.734375 346.5625 126.734375 415.289062 126.734375 452.957031 L 180.566406 452.957031 C 180.566406 415.375 180.566406 348.589844 180.566406 339.585938 L 157.539062 309.34375 C 155.582031 306.773438 151.714844 306.773438 149.757812 309.34375 Z M 149.757812 309.34375 " style=" stroke:none;fill-rule:nonzero;fill:rgb(96.862745%,32.941176%,69.411765%);fill-opacity:1;" />
<path d="M 245.9375 396.621094 C 233.105469 396.621094 222.273438 387.914062 219.023438 376.09375 C 219.023438 410.792969 219.023438 444.035156 219.023438 452.953125 L 272.855469 452.953125 C 272.855469 438.785156 272.855469 407.789062 272.855469 376.09375 C 269.605469 387.914062 258.773438 396.621094 245.9375 396.621094 Z M 245.9375 396.621094 " style=" stroke:none;fill-rule:nonzero;fill:rgb(91.764706%,32.941176%,32.941176%);fill-opacity:1;" />
<path d="M 338.230469 396.621094 C 325.394531 396.621094 314.5625 387.914062 311.3125 376.09375 L 311.3125 452.957031 L 365.144531 452.957031 L 365.144531 376.09375 C 361.894531 387.914062 351.0625 396.621094 338.230469 396.621094 Z M 338.230469 396.621094 " style=" stroke:none;fill-rule:nonzero;fill:rgb(91.764706%,70.196078%,22.352941%);fill-opacity:1;" />
<path d="M 153.648438 396.621094 C 140.816406 396.621094 129.984375 387.914062 126.734375 376.09375 C 126.734375 400.46875 126.734375 431.667969 126.734375 452.953125 L 180.566406 452.953125 C 180.566406 431.460938 180.566406 400.417969 180.566406 376.09375 C 177.316406 387.910156 166.484375 396.621094 153.648438 396.621094 Z M 153.648438 396.621094 " style=" stroke:none;fill-rule:nonzero;fill:rgb(94.901961%,25.098039%,68.235294%);fill-opacity:1;" />
<path d="M 412.316406 443.875 L 79.558594 443.875 C 86.105469 450.316406 93.023438 456.382812 100.28125 462.035156 L 391.597656 462.035156 C 398.855469 456.382812 405.769531 450.316406 412.316406 443.875 Z M 412.316406 443.875 " style=" stroke:none;fill-rule:nonzero;fill:rgb(20.784314%,55.686275%,72.941176%);fill-opacity:1;" />
<path d="M 272.882812 443.875 L 79.558594 443.875 C 86.105469 450.316406 93.023438 456.382812 100.28125 462.035156 L 272.882812 462.035156 C 265.25 458.402344 265.203125 447.53125 272.882812 443.875 Z M 272.882812 443.875 " style=" stroke:none;fill-rule:nonzero;fill:rgb(13.72549%,42.352941%,60.784314%);fill-opacity:1;" />
</g>
</svg>