<svg xmlns="http://www.w3.org/2000/svg" height="512pt" version="1.1" viewBox="0 0 512 512" width="512pt">
<g id="surface1">
<path d="M 512 256 C 512 397.386719 397.386719 512 256 512 C 114.613281 512 0 397.386719 0 256 C 0 114.613281 114.613281 0 256 0 C 397.386719 0 512 114.613281 512 256 Z M 512 256 " style=" stroke:none;fill-rule:nonzero;fill:rgb(25.098039%,62.352941%,96.078431%);fill-opacity:1;" />
<path d="M 327.710938 344.019531 C 232.863281 344.019531 155.703125 266.855469 155.703125 172.011719 C 155.703125 77.164062 232.867188 0 327.710938 0 C 340.695312 0 351.222656 10.527344 351.222656 23.511719 C 351.222656 36.496094 340.695312 47.023438 327.710938 47.023438 C 258.796875 47.023438 202.726562 103.09375 202.726562 172.007812 C 202.726562 240.925781 258.796875 296.992188 327.710938 296.992188 C 340.695312 296.992188 351.222656 307.519531 351.222656 320.503906 C 351.222656 333.492188 340.695312 344.019531 327.710938 344.019531 Z M 327.710938 344.019531 " style=" stroke:none;fill-rule:nonzero;fill:rgb(37.647059%,37.647059%,95.686275%);fill-opacity:1;" />
<path d="M 327.710938 296.992188 C 258.796875 296.992188 202.726562 240.925781 202.726562 172.007812 C 202.726562 125.015625 228.804688 84 267.242188 62.660156 C 245.046875 62.492188 233.476562 36.425781 247.660156 19.800781 C 193.027344 48.652344 155.703125 106.050781 155.703125 172.007812 C 155.703125 266.855469 232.863281 344.015625 327.710938 344.015625 C 340.695312 344.015625 351.222656 333.488281 351.222656 320.503906 C 351.222656 307.519531 340.695312 296.992188 327.710938 296.992188 Z M 327.710938 296.992188 " style=" stroke:none;fill-rule:nonzero;fill:rgb(29.803922%,29.803922%,92.941176%);fill-opacity:1;" />
<path d="M 327.710938 344.019531 C 314.726562 344.019531 304.199219 333.492188 304.199219 320.507812 C 304.199219 307.519531 314.726562 296.992188 327.710938 296.992188 C 363.09375 296.992188 396.972656 281.894531 420.65625 255.570312 C 429.34375 245.914062 444.210938 245.132812 453.863281 253.816406 C 463.515625 262.503906 464.300781 277.371094 455.617188 287.023438 C 423.027344 323.242188 376.40625 344.019531 327.710938 344.019531 Z M 327.710938 344.019531 " style=" stroke:none;fill-rule:nonzero;fill:rgb(96.862745%,32.941176%,69.411765%);fill-opacity:1;" />
<path d="M 438.128906 294.808594 C 432.527344 294.808594 426.902344 292.816406 422.410156 288.773438 C 412.757812 280.089844 411.972656 265.222656 420.65625 255.570312 C 441.316406 232.605469 452.695312 202.933594 452.695312 172.007812 C 452.695312 159.023438 463.222656 148.496094 476.207031 148.496094 C 489.191406 148.496094 499.71875 159.023438 499.71875 172.007812 C 499.71875 214.566406 484.054688 255.410156 455.613281 287.019531 C 450.972656 292.183594 444.5625 294.808594 438.128906 294.808594 Z M 438.128906 294.808594 " style=" stroke:none;fill-rule:nonzero;fill:rgb(98.431373%,56.862745%,54.117647%);fill-opacity:1;" />
<path d="M 476.207031 195.523438 C 463.222656 195.523438 452.695312 184.996094 452.695312 172.011719 C 452.695312 103.09375 396.628906 47.023438 327.710938 47.023438 C 314.726562 47.023438 304.199219 36.5 304.199219 23.511719 C 304.199219 10.527344 314.726562 0 327.710938 0 C 422.558594 0 499.71875 77.164062 499.71875 172.007812 C 499.71875 184.996094 489.191406 195.523438 476.207031 195.523438 Z M 476.207031 195.523438 " style=" stroke:none;fill-rule:nonzero;fill:rgb(96.862745%,87.45098%,60.392157%);fill-opacity:1;" />
<path d="M 370.585938 289.378906 C 356.976562 294.355469 342.476562 296.992188 327.710938 296.992188 C 314.726562 296.992188 304.199219 307.519531 304.199219 320.503906 C 304.199219 333.492188 314.726562 344.015625 327.710938 344.015625 C 348.390625 344.015625 368.691406 340.257812 387.703125 333.171875 C 365.894531 331.710938 355.5 305.320312 370.585938 289.378906 Z M 370.585938 289.378906 " style=" stroke:none;fill-rule:nonzero;fill:rgb(94.901961%,25.098039%,68.235294%);fill-opacity:1;" />
<path d="M 506.074219 332.746094 C 498.082031 323.445312 486.316406 323.726562 474.53125 330.289062 C 446.933594 345.660156 387.039062 373.089844 387.039062 373.089844 C 388.941406 370.03125 390.058594 366.257812 390.058594 361.617188 C 390.058594 346.59375 367.648438 338.492188 341.960938 334.136719 C 322.214844 328.722656 301.144531 327.820312 277.300781 311.898438 C 249.667969 293.441406 220.058594 297.410156 199.140625 303.632812 C 176.683594 310.308594 160.117188 307.757812 143.421875 308.3125 L 143.421875 422.882812 C 152.644531 423.695312 163.222656 422.148438 177.832031 428.085938 C 203.484375 438.515625 272.902344 461.789062 320.460938 461.789062 C 359.609375 461.789062 456.542969 406.21875 501.054688 367.984375 C 512.753906 357.933594 516.078125 344.386719 506.074219 332.746094 Z M 506.074219 332.746094 " style=" stroke:none;fill-rule:nonzero;fill:rgb(100%,86.666667%,82.352941%);fill-opacity:1;" />
<path d="M 387.039062 373.089844 C 381.324219 380.210938 371.773438 384.050781 362.640625 382.773438 L 277.554688 370.9375 C 273.175781 370.324219 269.128906 373.382812 268.519531 377.761719 C 267.910156 382.140625 270.96875 386.183594 275.347656 386.796875 L 360.433594 398.632812 C 375.386719 400.710938 391.042969 394.742188 401.199219 380.472656 C 401.925781 379.402344 402.867188 377.375 409.03125 365.796875 C 409.601562 364.71875 409.890625 363.566406 409.945312 362.425781 C 396.652344 368.6875 387.039062 373.089844 387.039062 373.089844 Z M 387.039062 373.089844 " style=" stroke:none;fill-rule:nonzero;fill:rgb(98.823529%,81.176471%,76.470588%);fill-opacity:1;" />
<path d="M 218.328125 299.40625 C 198.425781 302.136719 191.824219 308.3125 166.082031 308.3125 L 143.421875 308.3125 C 143.421875 349.074219 143.421875 399.308594 143.421875 422.882812 C 152.644531 423.695312 163.226562 422.148438 177.832031 428.085938 C 186.421875 431.578125 199.921875 436.511719 215.855469 441.527344 C 168.394531 405.257812 169.945312 333.792969 218.328125 299.40625 Z M 218.328125 299.40625 " style=" stroke:none;fill-rule:nonzero;fill:rgb(98.823529%,81.176471%,76.470588%);fill-opacity:1;" />
<path d="M 93.953125 454.179688 L 93.953125 303.285156 L 4.375 303.285156 C 15.667969 363.746094 48.203125 416.726562 93.953125 454.179688 Z M 93.953125 454.179688 " style=" stroke:none;fill-rule:nonzero;fill:rgb(6.27451%,29.019608%,48.627451%);fill-opacity:1;" />
<path d="M 32.078125 380.113281 C 47.882812 408.566406 68.933594 433.699219 93.953125 454.179688 L 93.953125 380.113281 Z M 32.078125 380.113281 " style=" stroke:none;fill-rule:nonzero;fill:rgb(4.705882%,22.745098%,42.745098%);fill-opacity:1;" />
<path d="M 138.039062 295.414062 L 92.371094 295.414062 C 87.300781 295.414062 83.191406 299.523438 83.191406 304.597656 L 83.191406 444.863281 C 90.988281 452.003906 99.226562 458.675781 107.871094 464.816406 L 138.039062 464.816406 C 143.109375 464.816406 147.222656 460.703125 147.222656 455.632812 L 147.222656 304.597656 C 147.222656 299.523438 143.113281 295.414062 138.039062 295.414062 Z M 138.039062 295.414062 " style=" stroke:none;fill-rule:nonzero;fill:rgb(74.117647%,85.098039%,93.72549%);fill-opacity:1;" />
<path d="M 138.039062 380.113281 L 92.371094 380.113281 C 87.300781 380.113281 83.191406 376.003906 83.191406 370.933594 L 83.191406 444.859375 C 90.988281 452.003906 99.226562 458.671875 107.871094 464.8125 L 138.039062 464.8125 C 143.109375 464.8125 147.222656 460.703125 147.222656 455.632812 L 147.222656 370.933594 C 147.222656 376.003906 143.113281 380.113281 138.039062 380.113281 Z M 138.039062 380.113281 " style=" stroke:none;fill-rule:nonzero;fill:rgb(59.215686%,78.039216%,90.980392%);fill-opacity:1;" />
<path d="M 128.707031 339.171875 C 128.707031 346.628906 122.664062 352.671875 115.207031 352.671875 C 107.75 352.671875 101.707031 346.628906 101.707031 339.171875 C 101.707031 331.714844 107.75 325.671875 115.207031 325.671875 C 122.664062 325.671875 128.707031 331.714844 128.707031 339.171875 Z M 128.707031 339.171875 " style=" stroke:none;fill-rule:nonzero;fill:rgb(86.27451%,91.372549%,96.078431%);fill-opacity:1;" />
</g>
</svg>