<svg xmlns="http://www.w3.org/2000/svg" height="512pt" version="1.1" viewBox="0 0 512 512" width="512pt">
<g id="surface1">
<path d="M 512 256 C 512 397.386719 397.386719 512 256 512 C 114.613281 512 0 397.386719 0 256 C 0 114.613281 114.613281 0 256 0 C 397.386719 0 512 114.613281 512 256 Z M 512 256 " style=" stroke:none;fill-rule:nonzero;fill:rgb(6.27451%,29.019608%,48.627451%);fill-opacity:1;" />
<path d="M 113.3125 316.195312 L 7.136719 316.195312 C 11.242188 333.230469 17.050781 349.601562 24.371094 365.117188 L 63.1875 373.449219 C 67.191406 386.964844 72.566406 399.890625 79.175781 412.050781 L 67.847656 429.570312 C 93.21875 457.058594 124.53125 478.96875 159.753906 493.269531 L 160.144531 493.019531 C 174.589844 500.867188 215.367188 512 256 512 L 256 458.882812 C 177.320312 458.882812 113.3125 394.871094 113.3125 316.195312 Z M 113.3125 316.195312 " style=" stroke:none;fill-rule:nonzero;fill:rgb(9.019608%,78.823529%,58.823529%);fill-opacity:1;" />
<path d="M 256 60.195312 C 245.492188 60.195312 234.984375 60.195312 223.679688 60.195312 C 217.046875 60.195312 211.3125 64.828125 209.921875 71.3125 L 198.746094 123.382812 C 185.230469 127.386719 172.308594 132.761719 160.144531 139.367188 L 115.425781 110.453125 C 109.855469 106.851562 102.527344 107.628906 97.835938 112.320312 C 81.851562 128.304688 68.113281 142.042969 52.128906 158.027344 C 47.4375 162.71875 46.65625 170.046875 50.261719 175.617188 L 79.175781 220.339844 C 72.566406 232.5 67.191406 245.425781 63.1875 258.9375 L 11.117188 270.117188 C 6.421875 271.125 2.707031 274.414062 1.011719 278.667969 C 2.136719 291.46875 4.199219 304.003906 7.136719 316.195312 L 113.3125 316.195312 C 113.3125 237.515625 177.320312 173.507812 256 173.507812 Z M 256 60.195312 " style=" stroke:none;fill-rule:nonzero;fill:rgb(96.862745%,87.45098%,60.392157%);fill-opacity:1;" />
<path d="M 510.988281 278.667969 C 509.292969 274.414062 505.578125 271.125 500.882812 270.117188 L 448.8125 258.9375 C 444.808594 245.425781 439.433594 232.5 432.824219 220.339844 L 461.742188 175.617188 C 465.34375 170.050781 464.566406 162.71875 459.875 158.027344 C 443.886719 142.042969 430.152344 128.304688 414.164062 112.320312 C 409.476562 107.628906 402.148438 106.851562 396.574219 110.453125 L 351.855469 139.367188 C 339.695312 132.761719 326.769531 127.386719 313.253906 123.382812 L 302.078125 71.3125 C 300.6875 64.828125 294.953125 60.195312 288.320312 60.195312 C 277.015625 60.195312 266.507812 60.195312 256 60.195312 L 256 173.507812 C 334.679688 173.507812 398.6875 237.519531 398.6875 316.195312 L 504.863281 316.195312 C 507.800781 304.003906 509.867188 291.46875 510.988281 278.667969 Z M 510.988281 278.667969 " style=" stroke:none;fill-rule:nonzero;fill:rgb(98.431373%,56.862745%,54.117647%);fill-opacity:1;" />
<path d="M 399.136719 316.195312 C 399.136719 237.65625 335.878906 173.058594 256 173.058594 L 256 316.195312 Z M 399.136719 316.195312 " style=" stroke:none;fill-rule:nonzero;fill:rgb(95.686275%,41.176471%,41.176471%);fill-opacity:1;" />
<path d="M 112.863281 316.195312 L 256 316.195312 L 256 173.058594 C 176.207031 173.058594 112.863281 237.578125 112.863281 316.195312 Z M 112.863281 316.195312 " style=" stroke:none;fill-rule:nonzero;fill:rgb(95.686275%,78.039216%,34.509804%);fill-opacity:1;" />
<path d="M 256 459.332031 C 335.792969 459.332031 399.136719 394.8125 399.136719 316.195312 L 256 316.195312 Z M 256 459.332031 " style=" stroke:none;fill-rule:nonzero;fill:rgb(5.490196%,55.294118%,85.882353%);fill-opacity:1;" />
<path d="M 112.863281 316.195312 C 112.863281 394.734375 176.121094 459.332031 256 459.332031 L 256 316.195312 Z M 112.863281 316.195312 " style=" stroke:none;fill-rule:nonzero;fill:rgb(4.313725%,71.764706%,50.980392%);fill-opacity:1;" />
<path d="M 186.984375 190.679688 C 141.941406 215.480469 112.863281 263.015625 112.863281 316.195312 L 256 316.195312 L 256 200.292969 C 234.222656 216.21875 203.691406 212.019531 186.984375 190.679688 Z M 186.984375 190.679688 " style=" stroke:none;fill-rule:nonzero;fill:rgb(91.764706%,70.196078%,22.352941%);fill-opacity:1;" />
<path d="M 189 126.546875 C 178.996094 130.078125 169.351562 134.367188 160.144531 139.371094 L 115.425781 110.453125 C 109.855469 106.851562 102.527344 107.632812 97.835938 112.320312 C 81.851562 128.308594 68.113281 142.042969 52.128906 158.03125 C 47.4375 162.722656 46.65625 170.050781 50.261719 175.621094 L 79.175781 220.339844 C 72.566406 232.503906 67.191406 245.425781 63.1875 258.941406 L 11.117188 270.117188 C 6.421875 271.125 2.707031 274.414062 1.011719 278.667969 C 2.136719 291.472656 4.199219 304.003906 7.136719 316.195312 L 113.3125 316.195312 C 113.3125 262.386719 143.257812 215.445312 187.351562 191.144531 C 172.207031 172.261719 172.621094 144.96875 189 126.546875 Z M 189 126.546875 " style=" stroke:none;fill-rule:nonzero;fill:rgb(95.686275%,78.039216%,34.509804%);fill-opacity:1;" />
<path d="M 311.371094 412.050781 L 256 412.050781 L 256 459.332031 C 270.984375 459.332031 285.605469 457.046875 299.480469 452.65625 C 297.296875 438.210938 301.417969 423.378906 311.371094 412.050781 Z M 311.371094 412.050781 " style=" stroke:none;fill-rule:nonzero;fill:rgb(1.960784%,49.411765%,78.823529%);fill-opacity:1;" />
<path d="M 299.410156 452.121094 C 285.714844 456.507812 271.132812 458.882812 256 458.882812 L 256 512 C 288.210938 512 319.015625 506.03125 347.410156 495.171875 C 322.847656 494.394531 302.753906 475.949219 299.410156 452.121094 Z M 299.410156 452.121094 " style=" stroke:none;fill-rule:nonzero;fill:rgb(5.490196%,55.294118%,85.882353%);fill-opacity:1;" />
<path d="M 337.175781 397.367188 C 292.414062 442.128906 219.585938 442.128906 174.824219 397.367188 C 130.066406 352.609375 130.066406 279.78125 174.824219 235.019531 C 219.585938 190.261719 292.414062 190.261719 337.175781 235.019531 C 381.933594 279.78125 381.933594 352.609375 337.175781 397.367188 Z M 337.175781 397.367188 " style=" stroke:none;fill-rule:nonzero;fill:rgb(86.27451%,91.372549%,96.078431%);fill-opacity:1;" />
<path d="M 215.015625 208.972656 C 137.761719 238.367188 115.941406 338.488281 174.824219 397.367188 C 210.109375 432.652344 262.835938 440.113281 305.503906 419.769531 C 206.394531 406.300781 155.6875 291.296875 215.015625 208.972656 Z M 215.015625 208.972656 " style=" stroke:none;fill-rule:nonzero;fill:rgb(74.117647%,85.098039%,93.72549%);fill-opacity:1;" />
<path d="M 233.351562 358.859375 L 201.578125 327.089844 C 196.132812 321.640625 196.132812 312.8125 201.578125 307.367188 C 207.023438 301.921875 215.855469 301.921875 221.300781 307.367188 L 243.210938 329.277344 L 296.894531 275.59375 C 302.339844 270.148438 311.171875 270.148438 316.617188 275.59375 C 322.0625 281.039062 322.0625 289.871094 316.617188 295.316406 L 253.070312 358.859375 C 247.628906 364.308594 238.796875 364.304688 233.351562 358.859375 Z M 233.351562 358.859375 " style=" stroke:none;fill-rule:nonzero;fill:rgb(13.72549%,42.352941%,60.784314%);fill-opacity:1;" />
<path d="M 255.910156 316.582031 L 243.214844 329.277344 L 221.300781 307.367188 C 215.855469 301.921875 207.027344 301.921875 201.582031 307.367188 C 196.136719 312.8125 196.136719 321.644531 201.582031 327.089844 L 233.351562 358.859375 C 238.800781 364.308594 247.628906 364.304688 253.074219 358.859375 L 275.445312 336.488281 C 263.363281 340.265625 251.84375 328.785156 255.910156 316.582031 Z M 255.910156 316.582031 " style=" stroke:none;fill-rule:nonzero;fill:rgb(6.27451%,29.019608%,48.627451%);fill-opacity:1;" />
</g>
</svg>