<svg xmlns="http://www.w3.org/2000/svg" height="511pt" version="1.1" viewBox="-15 1 511 511.9995" width="511pt">
<g id="surface1">
<path d="M 481.578125 271.460938 C 481.578125 404.304688 373.886719 512 241.039062 512 C 108.191406 512 0.5 404.304688 0.5 271.460938 C 0.5 138.613281 108.191406 30.921875 241.039062 30.921875 C 373.886719 30.921875 481.578125 138.613281 481.578125 271.460938 Z M 481.578125 271.460938 " style=" stroke:none;fill-rule:nonzero;fill:rgb(6.27451%,29.019608%,48.627451%);fill-opacity:1;" />
<path d="M 434.457031 56.875 L 392.511719 1.78125 C 390.703125 -0.59375 387.128906 -0.59375 385.324219 1.78125 L 343.375 56.875 C 341.113281 59.847656 343.234375 64.128906 346.96875 64.128906 C 351.109375 64.128906 356.410156 64.128906 362.339844 64.128906 L 362.339844 220.199219 C 362.339844 234.878906 374.238281 246.777344 388.917969 246.777344 C 403.597656 246.777344 415.496094 234.878906 415.496094 220.199219 L 415.496094 64.128906 C 421.847656 64.128906 427.230469 64.128906 430.863281 64.128906 C 434.601562 64.128906 436.722656 59.851562 434.457031 56.875 Z M 434.457031 56.875 " style=" stroke:none;fill-rule:nonzero;fill:rgb(96.862745%,87.45098%,60.392157%);fill-opacity:1;" />
<path d="M 434.457031 56.875 L 392.511719 1.78125 C 390.703125 -0.59375 387.128906 -0.59375 385.324219 1.78125 L 343.375 56.875 C 341.113281 59.847656 343.234375 64.128906 346.96875 64.128906 C 351.109375 64.128906 356.410156 64.128906 362.339844 64.128906 L 362.339844 220.199219 C 362.339844 234.878906 374.238281 246.777344 388.917969 246.777344 C 403.597656 246.777344 415.496094 234.878906 415.496094 220.199219 L 415.496094 64.128906 C 421.847656 64.128906 427.230469 64.128906 430.863281 64.128906 C 434.601562 64.128906 436.722656 59.851562 434.457031 56.875 Z M 434.457031 56.875 " style=" stroke:none;fill-rule:nonzero;fill:rgb(96.862745%,87.45098%,60.392157%);fill-opacity:1;" />
<path d="M 388.917969 166.777344 C 374.238281 166.777344 362.339844 154.878906 362.339844 140.199219 L 362.339844 220.199219 C 362.339844 234.878906 374.238281 246.777344 388.917969 246.777344 C 403.597656 246.777344 415.496094 234.878906 415.496094 220.199219 L 415.496094 140.199219 C 415.492188 154.878906 403.59375 166.777344 388.917969 166.777344 Z M 388.917969 166.777344 " style=" stroke:none;fill-rule:nonzero;fill:rgb(95.686275%,78.039216%,34.509804%);fill-opacity:1;" />
<path d="M 388.917969 246.777344 L 231.089844 246.777344 C 216.414062 246.777344 204.515625 234.878906 204.515625 220.199219 C 204.515625 205.519531 216.414062 193.621094 231.089844 193.621094 L 388.917969 193.621094 C 403.59375 193.621094 415.496094 205.519531 415.496094 220.199219 C 415.492188 234.878906 403.59375 246.777344 388.917969 246.777344 Z M 388.917969 246.777344 " style=" stroke:none;fill-rule:nonzero;fill:rgb(98.431373%,56.862745%,54.117647%);fill-opacity:1;" />
<path d="M 296.179688 220.199219 C 296.179688 205.519531 308.078125 193.621094 322.757812 193.621094 L 231.089844 193.621094 C 216.414062 193.621094 204.515625 205.519531 204.515625 220.199219 C 204.515625 234.878906 216.414062 246.777344 231.089844 246.777344 L 322.757812 246.777344 C 308.078125 246.777344 296.179688 234.878906 296.179688 220.199219 Z M 296.179688 220.199219 " style=" stroke:none;fill-rule:nonzero;fill:rgb(95.686275%,41.176471%,41.176471%);fill-opacity:1;" />
<path d="M 231.089844 379.386719 C 216.414062 379.386719 204.515625 367.488281 204.515625 352.808594 L 204.515625 220.199219 C 204.515625 205.519531 216.414062 193.621094 231.089844 193.621094 C 245.769531 193.621094 257.667969 205.519531 257.667969 220.199219 L 257.667969 352.808594 C 257.667969 367.488281 245.769531 379.386719 231.089844 379.386719 Z M 231.089844 379.386719 " style=" stroke:none;fill-rule:nonzero;fill:rgb(98.823529%,52.54902%,74.901961%);fill-opacity:1;" />
<path d="M 231.089844 299.386719 C 216.414062 299.386719 204.515625 287.488281 204.515625 272.808594 L 204.515625 352.808594 C 204.515625 367.488281 216.414062 379.386719 231.089844 379.386719 C 245.769531 379.386719 257.667969 367.488281 257.667969 352.808594 L 257.667969 272.808594 C 257.667969 287.488281 245.769531 299.386719 231.089844 299.386719 Z M 231.089844 299.386719 " style=" stroke:none;fill-rule:nonzero;fill:rgb(96.862745%,32.941176%,69.411765%);fill-opacity:1;" />
<path d="M 231.089844 379.386719 L 73.265625 379.386719 C 58.589844 379.386719 46.691406 367.488281 46.691406 352.808594 C 46.691406 338.132812 58.589844 326.234375 73.265625 326.234375 L 231.089844 326.234375 C 245.769531 326.234375 257.667969 338.132812 257.667969 352.808594 C 257.667969 367.488281 245.769531 379.386719 231.089844 379.386719 Z M 231.089844 379.386719 " style=" stroke:none;fill-rule:nonzero;fill:rgb(53.333333%,49.411765%,100%);fill-opacity:1;" />
<path d="M 138.355469 352.808594 C 138.355469 338.132812 150.253906 326.234375 164.933594 326.234375 L 73.265625 326.234375 C 58.589844 326.234375 46.6875 338.132812 46.6875 352.808594 C 46.6875 367.488281 58.585938 379.386719 73.265625 379.386719 L 164.933594 379.386719 C 150.253906 379.386719 138.355469 367.488281 138.355469 352.808594 Z M 138.355469 352.808594 " style=" stroke:none;fill-rule:nonzero;fill:rgb(37.647059%,37.647059%,95.686275%);fill-opacity:1;" />
<path d="M 73.265625 326.234375 C 58.589844 326.234375 46.6875 338.132812 46.6875 352.808594 L 46.6875 413.1875 C 61.53125 433.507812 79.480469 451.410156 99.84375 466.199219 L 99.84375 352.808594 C 99.84375 338.132812 87.945312 326.234375 73.265625 326.234375 Z M 73.265625 326.234375 " style=" stroke:none;fill-rule:nonzero;fill:rgb(25.098039%,62.352941%,96.078431%);fill-opacity:1;" />
<path d="M 73.265625 411.425781 C 58.589844 411.425781 46.6875 399.527344 46.6875 384.847656 L 46.6875 413.1875 C 61.53125 433.507812 79.480469 451.410156 99.84375 466.199219 L 99.84375 384.847656 C 99.84375 399.527344 87.945312 411.425781 73.265625 411.425781 Z M 73.265625 411.425781 " style=" stroke:none;fill-rule:nonzero;fill:rgb(5.490196%,55.294118%,85.882353%);fill-opacity:1;" />
</g>
</svg>