<svg xmlns="http://www.w3.org/2000/svg" height="511.98602pt" version="1.1" viewBox="0 0 511.98602 511.98602" width="511.98602pt">
<g id="surface1">
<path d="M 511.984375 255.992188 C 511.984375 397.375 397.375 511.984375 255.992188 511.984375 C 114.613281 511.984375 0 397.375 0 255.992188 C 0 114.613281 114.613281 0 255.992188 0 C 397.375 0 511.984375 114.613281 511.984375 255.992188 Z M 511.984375 255.992188 " style=" stroke:none;fill-rule:nonzero;fill:rgb(6.27451%,29.019608%,48.627451%);fill-opacity:1;" />
<path d="M 193.441406 358.773438 C 187.957031 358.773438 183.511719 354.328125 183.511719 348.84375 L 183.511719 319.054688 C 183.511719 313.570312 187.957031 309.125 193.441406 309.125 C 198.925781 309.125 203.371094 313.570312 203.371094 319.054688 L 203.371094 348.84375 C 203.371094 354.328125 198.925781 358.773438 193.441406 358.773438 Z M 193.441406 358.773438 " style=" stroke:none;fill-rule:nonzero;fill:rgb(37.647059%,37.647059%,95.686275%);fill-opacity:1;" />
<path d="M 428.980469 204.996094 C 423.496094 204.996094 419.050781 200.550781 419.050781 195.066406 L 419.050781 165.277344 C 419.050781 159.792969 423.496094 155.347656 428.980469 155.347656 C 434.464844 155.347656 438.910156 159.792969 438.910156 165.277344 L 438.910156 195.066406 C 438.910156 200.550781 434.464844 204.996094 428.980469 204.996094 Z M 428.980469 204.996094 " style=" stroke:none;fill-rule:nonzero;fill:rgb(94.901961%,25.098039%,68.235294%);fill-opacity:1;" />
<path d="M 265.320312 380.28125 C 242.398438 340.578125 191.632812 326.976562 151.933594 349.898438 C 112.230469 372.820312 98.628906 423.585938 121.550781 463.285156 C 144.472656 502.988281 195.238281 516.589844 234.9375 493.667969 C 274.640625 470.746094 288.242188 419.980469 265.320312 380.28125 Z M 265.320312 380.28125 " style=" stroke:none;fill-rule:nonzero;fill:rgb(37.647059%,37.647059%,95.686275%);fill-opacity:1;" />
<path d="M 500.851562 50.824219 C 477.929688 11.125 427.164062 -2.476562 387.464844 20.441406 C 347.765625 43.363281 334.164062 94.128906 357.085938 133.832031 C 380.007812 173.53125 430.769531 187.132812 470.472656 164.210938 C 510.171875 141.289062 523.773438 90.523438 500.851562 50.824219 Z M 500.851562 50.824219 " style=" stroke:none;fill-rule:nonzero;fill:rgb(96.862745%,32.941176%,69.411765%);fill-opacity:1;" />
<path d="M 160.8125 440.632812 C 141.824219 407.738281 147.925781 367.265625 173.144531 341.3125 C 165.882812 343.144531 158.746094 345.976562 151.9375 349.90625 C 112.234375 372.828125 98.632812 423.59375 121.554688 463.296875 C 144.476562 503 195.242188 516.601562 234.945312 493.679688 C 241.753906 489.746094 247.773438 484.980469 252.992188 479.609375 C 217.90625 488.476562 179.804688 473.523438 160.8125 440.632812 Z M 160.8125 440.632812 " style=" stroke:none;fill-rule:nonzero;fill:rgb(29.803922%,29.803922%,92.941176%);fill-opacity:1;" />
<path d="M 396.351562 111.167969 C 377.363281 78.273438 383.460938 37.800781 408.683594 11.847656 C 401.421875 13.679688 394.285156 16.511719 387.476562 20.445312 C 347.773438 43.363281 334.171875 94.132812 357.09375 133.832031 C 380.015625 173.535156 430.78125 187.136719 470.480469 164.214844 C 477.289062 160.285156 483.3125 155.519531 488.53125 150.144531 C 453.445312 159.011719 415.34375 144.058594 396.351562 111.167969 Z M 396.351562 111.167969 " style=" stroke:none;fill-rule:nonzero;fill:rgb(94.901961%,25.098039%,68.235294%);fill-opacity:1;" />
<path d="M 435.71875 274.933594 L 193.441406 274.933594 C 183.570312 274.933594 175.566406 266.933594 175.566406 257.0625 C 175.566406 247.191406 183.570312 239.191406 193.441406 239.191406 L 435.71875 239.191406 C 445.589844 239.191406 453.589844 247.191406 453.589844 257.0625 C 453.589844 266.933594 445.589844 274.933594 435.71875 274.933594 Z M 435.71875 274.933594 " style=" stroke:none;fill-rule:nonzero;fill:rgb(98.823529%,52.54902%,74.901961%);fill-opacity:1;" />
<path d="M 275.183594 257.0625 C 275.183594 247.191406 283.1875 239.191406 293.058594 239.191406 L 193.441406 239.191406 C 183.570312 239.191406 175.566406 247.191406 175.566406 257.0625 C 175.566406 266.933594 183.570312 274.933594 193.441406 274.933594 L 293.058594 274.933594 C 283.1875 274.933594 275.183594 266.933594 275.183594 257.0625 Z M 275.183594 257.0625 " style=" stroke:none;fill-rule:nonzero;fill:rgb(96.862745%,32.941176%,69.411765%);fill-opacity:1;" />
<path d="M 193.441406 239.1875 L 0.5625 239.1875 C 0.203125 244.746094 0 250.34375 0 255.992188 C 0 262.363281 0.242188 268.679688 0.699219 274.933594 L 193.441406 274.933594 C 203.3125 274.933594 211.3125 266.933594 211.3125 257.0625 C 211.3125 247.191406 203.3125 239.1875 193.441406 239.1875 Z M 193.441406 239.1875 " style=" stroke:none;fill-rule:nonzero;fill:rgb(53.333333%,49.411765%,100%);fill-opacity:1;" />
<path d="M 59.652344 257.0625 C 59.652344 247.191406 67.652344 239.191406 77.523438 239.191406 L 0.5625 239.191406 C 0.203125 244.746094 0 250.34375 0 255.992188 C 0 262.363281 0.242188 268.679688 0.699219 274.933594 L 77.523438 274.933594 C 67.652344 274.933594 59.652344 266.933594 59.652344 257.0625 Z M 59.652344 257.0625 " style=" stroke:none;fill-rule:nonzero;fill:rgb(37.647059%,37.647059%,95.686275%);fill-opacity:1;" />
<path d="M 453.332031 242.988281 C 445.5625 229.535156 428.359375 224.925781 414.902344 232.695312 C 401.449219 240.460938 396.835938 257.667969 404.605469 271.121094 C 412.375 284.578125 429.578125 289.1875 443.035156 281.417969 C 456.488281 273.648438 461.097656 256.445312 453.332031 242.988281 Z M 453.332031 242.988281 " style=" stroke:none;fill-rule:nonzero;fill:rgb(96.862745%,32.941176%,69.411765%);fill-opacity:1;" />
<path d="M 217.796875 242.988281 C 210.03125 229.535156 192.824219 224.925781 179.371094 232.691406 C 165.914062 240.460938 161.304688 257.667969 169.074219 271.121094 C 176.84375 284.578125 194.046875 289.1875 207.503906 281.417969 C 220.957031 273.648438 225.566406 256.445312 217.796875 242.988281 Z M 217.796875 242.988281 " style=" stroke:none;fill-rule:nonzero;fill:rgb(37.647059%,37.647059%,95.686275%);fill-opacity:1;" />
<path d="M 428.980469 257.0625 C 423.773438 248.046875 424.132812 237.347656 428.980469 228.933594 C 424.199219 228.929688 419.355469 230.136719 414.914062 232.699219 C 401.457031 240.46875 396.847656 257.671875 404.617188 271.128906 C 412.386719 284.582031 429.589844 289.191406 443.046875 281.425781 C 447.484375 278.863281 450.953125 275.265625 453.339844 271.125 C 443.628906 271.113281 434.183594 266.078125 428.980469 257.0625 Z M 428.980469 257.0625 " style=" stroke:none;fill-rule:nonzero;fill:rgb(94.901961%,25.098039%,68.235294%);fill-opacity:1;" />
<path d="M 193.441406 228.933594 C 188.660156 228.929688 183.8125 230.136719 179.375 232.699219 C 165.917969 240.46875 161.308594 257.671875 169.078125 271.128906 C 179.949219 289.960938 207.082031 289.734375 217.800781 271.125 C 196.144531 271.101562 182.636719 247.695312 193.441406 228.933594 Z M 193.441406 228.933594 " style=" stroke:none;fill-rule:nonzero;fill:rgb(29.803922%,29.803922%,92.941176%);fill-opacity:1;" />
<path d="M 193.441406 397.742188 L 163.871094 397.742188 C 158.386719 397.742188 153.941406 393.296875 153.941406 387.8125 C 153.941406 382.328125 158.386719 377.882812 163.871094 377.882812 L 193.441406 377.882812 C 198.925781 377.882812 203.371094 382.328125 203.371094 387.8125 C 203.371094 393.296875 198.925781 397.742188 193.441406 397.742188 Z M 193.441406 397.742188 " style=" stroke:none;fill-rule:nonzero;fill:rgb(53.333333%,49.411765%,100%);fill-opacity:1;" />
<path d="M 223.007812 431.722656 L 163.871094 431.722656 C 158.386719 431.722656 153.941406 427.277344 153.941406 421.792969 C 153.941406 416.308594 158.386719 411.863281 163.871094 411.863281 L 223.007812 411.863281 C 228.492188 411.863281 232.9375 416.308594 232.9375 421.792969 C 232.9375 427.277344 228.492188 431.722656 223.007812 431.722656 Z M 223.007812 431.722656 " style=" stroke:none;fill-rule:nonzero;fill:rgb(53.333333%,49.411765%,100%);fill-opacity:1;" />
<path d="M 223.007812 465.703125 L 163.871094 465.703125 C 158.386719 465.703125 153.941406 461.257812 153.941406 455.773438 C 153.941406 450.289062 158.386719 445.84375 163.871094 445.84375 L 223.007812 445.84375 C 228.492188 445.84375 232.9375 450.289062 232.9375 455.773438 C 232.9375 461.257812 228.492188 465.703125 223.007812 465.703125 Z M 223.007812 465.703125 " style=" stroke:none;fill-rule:nonzero;fill:rgb(53.333333%,49.411765%,100%);fill-opacity:1;" />
<path d="M 428.980469 68.277344 L 399.410156 68.277344 C 393.925781 68.277344 389.480469 63.832031 389.480469 58.347656 C 389.480469 52.863281 393.925781 48.417969 399.410156 48.417969 L 428.980469 48.417969 C 434.464844 48.417969 438.910156 52.863281 438.910156 58.347656 C 438.910156 63.832031 434.464844 68.277344 428.980469 68.277344 Z M 428.980469 68.277344 " style=" stroke:none;fill-rule:nonzero;fill:rgb(98.823529%,52.54902%,74.901961%);fill-opacity:1;" />
<path d="M 458.546875 102.257812 L 399.410156 102.257812 C 393.929688 102.257812 389.480469 97.8125 389.480469 92.328125 C 389.480469 86.84375 393.929688 82.398438 399.410156 82.398438 L 458.546875 82.398438 C 464.03125 82.398438 468.476562 86.84375 468.476562 92.328125 C 468.476562 97.8125 464.03125 102.257812 458.546875 102.257812 Z M 458.546875 102.257812 " style=" stroke:none;fill-rule:nonzero;fill:rgb(98.823529%,52.54902%,74.901961%);fill-opacity:1;" />
<path d="M 458.546875 136.238281 L 399.410156 136.238281 C 393.929688 136.238281 389.480469 131.792969 389.480469 126.308594 C 389.480469 120.824219 393.929688 116.378906 399.410156 116.378906 L 458.546875 116.378906 C 464.03125 116.378906 468.476562 120.824219 468.476562 126.308594 C 468.476562 131.792969 464.03125 136.238281 458.546875 136.238281 Z M 458.546875 136.238281 " style=" stroke:none;fill-rule:nonzero;fill:rgb(98.823529%,52.54902%,74.901961%);fill-opacity:1;" />
</g>
</svg>