<svg xmlns="http://www.w3.org/2000/svg" height="511pt" version="1.1" viewBox="1 -7 511.99932 511" width="511pt">
<g id="surface1">
<path d="M 497.019531 249 C 497.019531 386.242188 385.761719 497.5 248.519531 497.5 C 111.273438 497.5 0.015625 386.242188 0.015625 249 C 0.015625 111.757812 111.273438 0.5 248.519531 0.5 C 385.761719 0.5 497.019531 111.757812 497.019531 249 Z M 497.019531 249 " style=" stroke:none;fill-rule:nonzero;fill:rgb(37.647059%,37.647059%,95.686275%);fill-opacity:1;" />
<path d="M 510.707031 111.898438 L 452.910156 57.792969 C 450.300781 55.351562 446.039062 57.199219 446.039062 60.773438 L 446.039062 77.332031 L 260.390625 77.332031 C 292.082031 94.875 318.398438 120.933594 336.257812 152.425781 L 446.039062 152.425781 L 446.039062 168.984375 C 446.039062 172.558594 450.300781 174.40625 452.910156 171.964844 L 510.707031 117.859375 C 512.429688 116.246094 512.429688 113.511719 510.707031 111.898438 Z M 510.707031 111.898438 " style=" stroke:none;fill-rule:nonzero;fill:rgb(96.862745%,87.45098%,60.392157%);fill-opacity:1;" />
<path d="M 510.707031 380.140625 L 452.910156 326.035156 C 450.300781 323.59375 446.039062 325.441406 446.039062 329.015625 L 446.039062 345.570312 L 336.257812 345.570312 C 318.398438 377.066406 292.082031 403.125 260.390625 420.667969 L 446.039062 420.667969 L 446.039062 437.226562 C 446.039062 440.800781 450.300781 442.648438 452.910156 440.207031 L 510.707031 386.101562 C 512.429688 384.488281 512.429688 381.753906 510.707031 380.140625 Z M 510.707031 380.140625 " style=" stroke:none;fill-rule:nonzero;fill:rgb(96.862745%,32.941176%,69.411765%);fill-opacity:1;" />
<path d="M 510.707031 246.019531 L 452.910156 191.914062 C 450.300781 189.472656 446.039062 191.320312 446.039062 194.894531 L 446.039062 211.453125 L 358.050781 211.453125 C 362.773438 235.800781 362.945312 261.3125 358.050781 286.546875 L 446.039062 286.546875 L 446.039062 303.105469 C 446.039062 306.679688 450.300781 308.527344 452.910156 306.085938 L 510.707031 251.980469 C 512.429688 250.367188 512.429688 247.632812 510.707031 246.019531 Z M 510.707031 246.019531 " style=" stroke:none;fill-rule:nonzero;fill:rgb(98.431373%,56.862745%,54.117647%);fill-opacity:1;" />
<path d="M 390.253906 77.332031 L 260.390625 77.332031 C 292.082031 94.875 318.398438 120.933594 336.257812 152.425781 L 390.253906 152.425781 C 363.40625 134.5625 363.417969 95.191406 390.253906 77.332031 Z M 390.253906 77.332031 " style=" stroke:none;fill-rule:nonzero;fill:rgb(95.686275%,78.039216%,34.509804%);fill-opacity:1;" />
<path d="M 390.253906 286.546875 C 363.40625 268.683594 363.417969 229.3125 390.253906 211.453125 L 358.050781 211.453125 C 362.773438 235.800781 362.945312 261.3125 358.050781 286.546875 Z M 390.253906 286.546875 " style=" stroke:none;fill-rule:nonzero;fill:rgb(95.686275%,41.176471%,41.176471%);fill-opacity:1;" />
<path d="M 390.253906 345.574219 L 336.257812 345.574219 C 318.398438 377.066406 292.082031 403.125 260.390625 420.667969 L 390.253906 420.667969 C 363.40625 402.804688 363.417969 363.433594 390.253906 345.574219 Z M 390.253906 345.574219 " style=" stroke:none;fill-rule:nonzero;fill:rgb(94.901961%,25.098039%,68.235294%);fill-opacity:1;" />
<path d="M 62.253906 84.53125 C -20.710938 178.414062 -20.792969 319.496094 62.253906 413.472656 C 92.980469 433.46875 129.660156 445.097656 169.054688 445.097656 C 277.355469 445.097656 365.152344 357.300781 365.152344 249 C 365.152344 92.410156 191.082031 0.699219 62.253906 84.53125 Z M 62.253906 84.53125 " style=" stroke:none;fill-rule:nonzero;fill:rgb(25.098039%,62.352941%,96.078431%);fill-opacity:1;" />
<path d="M 82.289062 73.117188 C 75.371094 76.539062 68.679688 80.347656 62.253906 84.53125 C -20.710938 178.414062 -20.789062 319.496094 62.253906 413.472656 C 92.984375 433.46875 129.660156 445.097656 169.054688 445.097656 C 203.507812 445.097656 235.875 436.199219 264.011719 420.597656 C 104.734375 391.800781 15.402344 219.835938 82.289062 73.117188 Z M 82.289062 73.117188 " style=" stroke:none;fill-rule:nonzero;fill:rgb(5.490196%,55.294118%,85.882353%);fill-opacity:1;" />
<path d="M 313.753906 240.269531 C 313.042969 212.707031 308.984375 186.03125 301.859375 161.351562 C 318.957031 164.828125 335.15625 168.984375 350.199219 173.789062 C 347.144531 166.445312 343.660156 159.332031 339.773438 152.46875 C 325.796875 148.589844 311.027344 145.210938 295.628906 142.359375 C 286.300781 117.128906 272.839844 92.636719 254.855469 72.632812 C 239.484375 65.140625 222.988281 59.605469 205.691406 56.335938 C 238.316406 72.058594 261.585938 105.664062 275.535156 138.988281 C 258.910156 136.480469 241.6875 134.558594 224.0625 133.257812 C 219.84375 108.910156 212.394531 77.09375 200.472656 55.421875 C 193.03125 54.222656 185.453125 53.441406 177.753906 53.105469 C 192.847656 69.621094 202.121094 110.210938 206.128906 132.152344 C 180.9375 130.90625 155.898438 130.902344 130.695312 132.152344 C 134.734375 110.050781 144 69.667969 159.027344 53.15625 C 151.339844 53.542969 143.773438 54.386719 136.34375 55.636719 C 126.074219 74.140625 118.167969 101.421875 112.707031 133.261719 C 95.101562 134.566406 77.898438 136.484375 61.292969 138.988281 C 75.171875 105.828125 98.1875 72.605469 130.269531 56.746094 C 112.875 60.238281 96.316406 66.03125 80.917969 73.792969 C 63.601562 93.417969 50.382812 117.511719 41.199219 142.359375 C 34.746094 143.554688 28.417969 144.851562 22.199219 146.230469 C 19.265625 152.683594 16.609375 159.289062 14.222656 166.023438 C 20.972656 164.355469 27.886719 162.789062 34.96875 161.351562 C 27.84375 186.03125 23.785156 212.707031 23.074219 240.269531 L 0.1875 240.269531 C -0.0390625 246.769531 -0.0390625 251.207031 0.1875 257.734375 L 23.078125 257.734375 C 23.789062 285.292969 27.847656 311.96875 34.972656 336.652344 C 27.890625 335.210938 20.976562 333.648438 14.226562 331.976562 C 16.613281 338.710938 19.269531 345.316406 22.203125 351.773438 C 28.421875 353.148438 34.753906 354.445312 41.203125 355.640625 C 50.386719 380.484375 63.601562 404.578125 80.917969 424.207031 C 96.320312 431.96875 112.886719 437.765625 130.285156 441.253906 C 98.140625 425.371094 75.140625 392.09375 61.292969 359.011719 C 77.917969 361.519531 95.140625 363.4375 112.769531 364.742188 C 116.996094 389.128906 124.414062 420.738281 136.222656 442.34375 C 143.691406 443.601562 151.296875 444.453125 159.027344 444.84375 C 143.988281 428.316406 134.726562 387.898438 130.699219 365.847656 C 155.652344 367.082031 180.675781 367.109375 206.132812 365.847656 C 202.125 387.78125 192.847656 428.378906 177.753906 444.890625 C 185.410156 444.558594 192.949219 443.785156 200.351562 442.597656 C 210.683594 424.085938 218.636719 396.710938 224.121094 364.738281 C 241.726562 363.433594 258.929688 361.515625 275.535156 359.011719 C 261.597656 392.304688 238.335938 425.925781 205.703125 441.660156 C 222.996094 438.390625 239.488281 432.855469 254.855469 425.367188 C 272.835938 405.367188 286.300781 380.871094 295.628906 355.640625 C 311.027344 352.785156 325.796875 349.40625 339.773438 345.527344 C 343.660156 338.667969 347.144531 331.550781 350.195312 324.210938 C 335.15625 329.015625 318.953125 333.171875 301.859375 336.648438 C 308.984375 311.96875 313.042969 285.292969 313.753906 257.734375 L 364.945312 257.734375 C 365.21875 251.574219 365.21875 246.457031 364.945312 240.269531 Z M 54.324219 157.769531 C 72.164062 154.785156 90.804688 152.507812 109.984375 150.980469 C 106.148438 178.9375 104.039062 209.535156 103.707031 240.269531 L 40.546875 240.269531 C 41.335938 211.152344 46.054688 183.164062 54.324219 157.769531 Z M 54.324219 340.230469 C 46.054688 314.835938 41.335938 286.847656 40.546875 257.734375 L 103.703125 257.734375 C 104.042969 289.253906 106.210938 319.585938 110.011719 347.023438 C 90.828125 345.496094 72.171875 343.21875 54.324219 340.230469 Z M 209.015625 348.214844 C 182.378906 349.667969 155.207031 349.710938 127.816406 348.214844 C 123.804688 320.667969 121.519531 289.871094 121.171875 257.734375 L 215.660156 257.734375 C 215.308594 289.871094 213.023438 320.667969 209.015625 348.214844 Z M 121.171875 240.269531 C 121.519531 208.128906 123.804688 177.335938 127.816406 149.785156 C 154.8125 148.3125 182.003906 148.3125 209.015625 149.785156 C 213.027344 177.335938 215.3125 208.128906 215.660156 240.269531 Z M 282.507812 340.230469 C 264.667969 343.214844 246.027344 345.496094 226.847656 347.023438 C 230.683594 319.066406 232.789062 288.46875 233.125 257.734375 L 296.285156 257.734375 C 295.496094 286.847656 290.777344 314.835938 282.507812 340.230469 Z M 233.128906 240.269531 C 232.789062 208.75 230.625 178.417969 226.820312 150.976562 C 246.007812 152.503906 264.660156 154.785156 282.507812 157.769531 C 290.777344 183.164062 295.496094 211.152344 296.285156 240.269531 Z M 233.128906 240.269531 " style=" stroke:none;fill-rule:nonzero;fill:rgb(45.098039%,74.901961%,97.647059%);fill-opacity:1;" />
<path d="M 214.769531 406.265625 C 209.28125 404.027344 203.886719 401.601562 198.601562 398.992188 C 191.742188 423.480469 184.222656 437.8125 177.765625 444.882812 C 185.863281 444.527344 193.371094 443.71875 200.351562 442.597656 C 205.835938 432.777344 210.640625 420.441406 214.769531 406.265625 Z M 214.769531 406.265625 " style=" stroke:none;fill-rule:nonzero;fill:rgb(25.098039%,62.352941%,96.078431%);fill-opacity:1;" />
<path d="M 259.679688 419.765625 C 253.207031 418.476562 246.824219 416.929688 240.542969 415.148438 C 229.789062 426.785156 218.0625 435.703125 205.714844 441.65625 C 222.867188 438.285156 238.128906 433.492188 254.898438 425.320312 C 256.511719 423.523438 258.105469 421.667969 259.679688 419.765625 Z M 259.679688 419.765625 " style=" stroke:none;fill-rule:nonzero;fill:rgb(25.098039%,62.352941%,96.078431%);fill-opacity:1;" />
<path d="M 0.1875 257.734375 L 23.078125 257.734375 C 23.789062 285.292969 27.847656 311.96875 34.972656 336.652344 C 27.890625 335.210938 20.976562 333.648438 14.226562 331.976562 C 16.550781 338.542969 19.257812 345.257812 22.226562 351.777344 C 28.433594 353.152344 34.757812 354.445312 41.203125 355.640625 C 50.40625 380.535156 63.628906 404.609375 80.910156 424.199219 C 96.382812 431.964844 112.679688 437.726562 130.285156 441.253906 C 98.140625 425.375 75.140625 392.097656 61.292969 359.011719 C 77.917969 361.519531 95.140625 363.441406 112.769531 364.742188 C 116.996094 389.132812 124.414062 420.742188 136.222656 442.34375 C 144.039062 443.660156 151.757812 444.472656 159.023438 444.835938 C 143.984375 428.304688 134.726562 387.894531 130.699219 365.847656 C 136.726562 366.148438 142.796875 366.371094 148.890625 366.53125 C 142.0625 360.800781 135.542969 354.710938 129.367188 348.289062 C 128.851562 348.261719 128.332031 348.242188 127.816406 348.214844 C 127.726562 347.601562 127.644531 346.980469 127.554688 346.367188 C 120.195312 338.550781 113.339844 330.261719 107.035156 321.542969 C 107.875 330.265625 108.871094 338.777344 110.011719 347.023438 C 90.824219 345.496094 72.171875 343.214844 54.324219 340.230469 C 46.054688 314.835938 41.332031 286.847656 40.546875 257.730469 L 73.738281 257.730469 C 71.746094 252.003906 69.972656 246.175781 68.398438 240.265625 L 40.546875 240.265625 C 41.335938 211.152344 46.054688 183.164062 54.324219 157.769531 C 56.457031 157.410156 58.605469 157.066406 60.765625 156.726562 C 61.234375 150.675781 61.925781 144.6875 62.816406 138.765625 C 62.3125 138.839844 61.800781 138.910156 61.292969 138.984375 C 62.058594 137.15625 62.851562 135.347656 63.65625 133.554688 C 67.3125 112.378906 73.625 92.113281 82.277344 73.132812 C 82.101562 73.21875 81.925781 73.300781 81.75 73.386719 C 81.457031 73.535156 81.171875 73.6875 80.882812 73.835938 C 63.675781 93.347656 50.441406 117.363281 41.199219 142.359375 C 34.757812 143.550781 28.433594 144.84375 22.226562 146.222656 C 17.097656 157.476562 14.921875 164.238281 14.226562 166.023438 C 20.976562 164.351562 27.890625 162.789062 34.96875 161.347656 C 27.84375 186.027344 23.785156 212.703125 23.078125 240.265625 L 0.1875 240.265625 C -0.0429688 246.976562 -0.0273438 251.542969 0.1875 257.734375 Z M 0.1875 257.734375 " style=" stroke:none;fill-rule:nonzero;fill:rgb(25.098039%,62.352941%,96.078431%);fill-opacity:1;" />
</g>
</svg>