<svg xmlns="http://www.w3.org/2000/svg" height="511pt" version="1.1" viewBox="1 1 511.99862 511" width="511pt">
<g id="surface1">
<path d="M 512 256.449219 C 512 397.808594 397.40625 512.402344 256.046875 512.402344 C 114.691406 512.402344 0.0976562 397.808594 0.0976562 256.449219 C 0.0976562 115.09375 114.691406 0.5 256.046875 0.5 C 397.40625 0.5 512 115.09375 512 256.449219 Z M 512 256.449219 " style=" stroke:none;fill-rule:nonzero;fill:rgb(96.862745%,87.45098%,60.392157%);fill-opacity:1;" />
<path d="M 458.566406 271.808594 L 250.265625 271.808594 C 241.777344 271.808594 234.898438 264.925781 234.898438 256.441406 C 234.898438 247.953125 241.777344 241.074219 250.265625 241.074219 L 458.566406 241.074219 C 467.054688 241.074219 473.933594 247.953125 473.933594 256.441406 C 473.933594 264.925781 467.054688 271.808594 458.566406 271.808594 Z M 458.566406 271.808594 " style=" stroke:none;fill-rule:nonzero;fill:rgb(100%,100%,100%);fill-opacity:1;" />
<path d="M 250.265625 271.808594 L 41.960938 271.808594 C 33.472656 271.808594 26.59375 264.925781 26.59375 256.441406 C 26.59375 247.953125 33.472656 241.074219 41.960938 241.074219 L 250.265625 241.074219 C 258.75 241.074219 265.628906 247.953125 265.628906 256.441406 C 265.628906 264.925781 258.75 271.808594 250.265625 271.808594 Z M 250.265625 271.808594 " style=" stroke:none;fill-rule:nonzero;fill:rgb(98.431373%,56.862745%,54.117647%);fill-opacity:1;" />
<path d="M 338.210938 256.441406 C 338.210938 247.953125 345.089844 241.074219 353.578125 241.074219 L 250.265625 241.074219 C 241.777344 241.074219 234.898438 247.953125 234.898438 256.441406 C 234.898438 264.925781 241.777344 271.808594 250.265625 271.808594 L 353.578125 271.808594 C 345.089844 271.808594 338.210938 264.925781 338.210938 256.441406 Z M 338.210938 256.441406 " style=" stroke:none;fill-rule:nonzero;fill:rgb(86.27451%,91.372549%,96.078431%);fill-opacity:1;" />
<path d="M 109.910156 256.441406 C 109.910156 247.953125 116.789062 241.074219 125.277344 241.074219 L 41.960938 241.074219 C 33.472656 241.074219 26.59375 247.953125 26.59375 256.441406 C 26.59375 264.925781 33.472656 271.808594 41.960938 271.808594 L 125.277344 271.808594 C 116.789062 271.808594 109.910156 264.925781 109.910156 256.441406 Z M 109.910156 256.441406 " style=" stroke:none;fill-rule:nonzero;fill:rgb(95.686275%,41.176471%,41.176471%);fill-opacity:1;" />
<path d="M 423.992188 131.644531 L 383.472656 131.644531 C 383.460938 131.175781 383.53125 130.707031 383.679688 130.257812 C 383.234375 131.609375 383.511719 133.144531 384.507812 134.261719 L 445.582031 202.910156 L 449.714844 207.554688 C 450.339844 208.257812 451.148438 208.683594 451.996094 208.847656 L 449.839844 202.910156 Z M 423.992188 131.644531 " style=" stroke:none;fill-rule:nonzero;fill:rgb(3.529412%,44.705882%,81.960784%);fill-opacity:1;" />
<path d="M 383.6875 130.226562 C 383.753906 130.027344 383.84375 129.835938 383.941406 129.648438 C 383.84375 129.835938 383.753906 130.027344 383.6875 130.226562 Z M 383.6875 130.226562 " style=" stroke:none;fill-rule:nonzero;fill:rgb(25.098039%,62.352941%,96.078431%);fill-opacity:1;" />
<path d="M 383.980469 129.554688 C 384.101562 129.339844 384.242188 129.132812 384.402344 128.9375 C 384.242188 129.132812 384.101562 129.339844 383.980469 129.554688 Z M 383.980469 129.554688 " style=" stroke:none;fill-rule:nonzero;fill:rgb(25.098039%,62.352941%,96.078431%);fill-opacity:1;" />
<path d="M 480.761719 133.832031 L 453.550781 208.847656 C 453.320312 208.890625 453.085938 208.910156 452.855469 208.914062 C 453.949219 208.894531 455.039062 208.449219 455.832031 207.554688 L 494.71875 163.847656 C 490.703125 153.5 486.035156 143.476562 480.761719 133.832031 Z M 480.761719 133.832031 " style=" stroke:none;fill-rule:nonzero;fill:rgb(25.098039%,62.352941%,96.078431%);fill-opacity:1;" />
<path d="M 452.855469 208.914062 C 452.800781 208.917969 452.746094 208.917969 452.691406 208.914062 C 452.746094 208.917969 452.800781 208.917969 452.855469 208.914062 Z M 452.855469 208.914062 " style=" stroke:none;fill-rule:nonzero;fill:rgb(25.098039%,62.352941%,96.078431%);fill-opacity:1;" />
<path d="M 452.691406 208.914062 C 452.460938 208.910156 452.226562 208.894531 451.996094 208.847656 C 452.226562 208.894531 452.457031 208.910156 452.691406 208.914062 Z M 452.691406 208.914062 " style=" stroke:none;fill-rule:nonzero;fill:rgb(25.098039%,62.352941%,96.078431%);fill-opacity:1;" />
<path d="M 383.941406 129.648438 C 383.957031 129.621094 383.964844 129.585938 383.980469 129.554688 C 383.964844 129.585938 383.957031 129.617188 383.941406 129.648438 Z M 383.941406 129.648438 " style=" stroke:none;fill-rule:nonzero;fill:rgb(25.098039%,62.352941%,96.078431%);fill-opacity:1;" />
<path d="M 383.679688 130.257812 C 383.683594 130.25 383.683594 130.238281 383.6875 130.226562 C 383.683594 130.238281 383.683594 130.246094 383.679688 130.257812 Z M 383.679688 130.257812 " style=" stroke:none;fill-rule:nonzero;fill:rgb(25.098039%,62.352941%,96.078431%);fill-opacity:1;" />
<path d="M 423.992188 131.644531 L 438.382812 88.71875 L 419.410156 88.71875 C 418.183594 88.71875 417.023438 89.265625 416.246094 90.210938 L 384.402344 128.9375 C 384.238281 129.132812 384.101562 129.339844 383.980469 129.554688 C 383.964844 129.585938 383.957031 129.617188 383.941406 129.648438 C 383.84375 129.835938 383.753906 130.027344 383.6875 130.226562 C 383.683594 130.234375 383.683594 130.246094 383.679688 130.257812 C 383.53125 130.707031 383.460938 131.175781 383.472656 131.644531 Z M 423.992188 131.644531 " style=" stroke:none;fill-rule:nonzero;fill:rgb(5.490196%,55.294118%,85.882353%);fill-opacity:1;" />
<path d="M 299.898438 256.441406 C 299.898438 283.851562 277.675781 306.074219 250.265625 306.074219 C 222.851562 306.074219 200.628906 283.851562 200.628906 256.441406 C 200.628906 229.027344 222.851562 206.808594 250.265625 206.808594 C 277.675781 206.808594 299.898438 229.027344 299.898438 256.441406 Z M 299.898438 256.441406 " style=" stroke:none;fill-rule:nonzero;fill:rgb(98.431373%,56.862745%,54.117647%);fill-opacity:1;" />
<path d="M 271.203125 244.339844 C 264.523438 232.773438 249.730469 228.808594 238.164062 235.488281 C 226.59375 242.167969 222.632812 256.960938 229.3125 268.527344 C 235.988281 280.09375 250.78125 284.058594 262.351562 277.378906 C 273.917969 270.699219 277.882812 255.910156 271.203125 244.339844 Z M 271.203125 244.339844 " style=" stroke:none;fill-rule:nonzero;fill:rgb(95.686275%,41.176471%,41.176471%);fill-opacity:1;" />
<path d="M 314.375 454.175781 L 186.152344 454.175781 C 178.386719 454.175781 172.097656 447.882812 172.097656 440.121094 L 172.097656 342.546875 C 172.097656 334.785156 178.386719 328.492188 186.152344 328.492188 L 216.203125 328.492188 C 219.929688 328.492188 223.503906 327.011719 226.140625 324.375 L 240.324219 310.191406 C 245.8125 304.699219 254.714844 304.699219 260.199219 310.191406 L 274.386719 324.375 C 277.019531 327.011719 280.597656 328.492188 284.324219 328.492188 L 314.375 328.492188 C 322.136719 328.492188 328.429688 334.785156 328.429688 342.546875 L 328.429688 440.121094 C 328.429688 447.882812 322.136719 454.175781 314.375 454.175781 Z M 314.375 454.175781 " style=" stroke:none;fill-rule:nonzero;fill:rgb(100%,100%,100%);fill-opacity:1;" />
<path d="M 250.265625 440.121094 L 250.265625 317.550781 C 250.265625 313.316406 252.144531 309.523438 255.113281 306.949219 C 250.128906 305.121094 244.324219 306.191406 240.324219 310.191406 L 226.140625 324.375 C 223.507812 327.011719 219.929688 328.492188 216.203125 328.492188 L 186.152344 328.492188 C 178.390625 328.492188 172.097656 334.785156 172.097656 342.546875 L 172.097656 440.121094 C 172.097656 447.882812 178.390625 454.175781 186.152344 454.175781 L 264.320312 454.175781 C 256.554688 454.175781 250.265625 447.882812 250.265625 440.121094 Z M 250.265625 440.121094 " style=" stroke:none;fill-rule:nonzero;fill:rgb(86.27451%,91.372549%,96.078431%);fill-opacity:1;" />
<path d="M 250.265625 370.089844 L 215.738281 370.089844 C 211.019531 370.089844 207.199219 366.269531 207.199219 361.554688 C 207.199219 356.839844 211.019531 353.015625 215.738281 353.015625 L 250.265625 353.015625 C 254.980469 353.015625 258.800781 356.839844 258.800781 361.554688 C 258.800781 366.269531 254.976562 370.089844 250.265625 370.089844 Z M 250.265625 370.089844 " style=" stroke:none;fill-rule:nonzero;fill:rgb(74.117647%,85.098039%,93.72549%);fill-opacity:1;" />
<path d="M 284.792969 399.308594 L 215.734375 399.308594 C 211.019531 399.308594 207.199219 395.484375 207.199219 390.769531 C 207.199219 386.054688 211.019531 382.230469 215.734375 382.230469 L 284.792969 382.230469 C 289.507812 382.230469 293.328125 386.054688 293.328125 390.769531 C 293.328125 395.484375 289.507812 399.308594 284.792969 399.308594 Z M 284.792969 399.308594 " style=" stroke:none;fill-rule:nonzero;fill:rgb(74.117647%,85.098039%,93.72549%);fill-opacity:1;" />
<path d="M 284.792969 428.523438 L 215.734375 428.523438 C 211.019531 428.523438 207.199219 424.699219 207.199219 419.984375 C 207.199219 415.269531 211.019531 411.449219 215.734375 411.449219 L 284.792969 411.449219 C 289.507812 411.449219 293.328125 415.269531 293.328125 419.984375 C 293.328125 424.699219 289.507812 428.523438 284.792969 428.523438 Z M 284.792969 428.523438 " style=" stroke:none;fill-rule:nonzero;fill:rgb(74.117647%,85.098039%,93.72549%);fill-opacity:1;" />
<path d="M 473.707031 244.339844 C 467.03125 232.773438 452.238281 228.808594 440.667969 235.488281 C 429.101562 242.167969 425.136719 256.957031 431.816406 268.527344 C 438.496094 280.09375 453.289062 284.058594 464.855469 277.378906 C 476.425781 270.699219 480.386719 255.90625 473.707031 244.339844 Z M 473.707031 244.339844 " style=" stroke:none;fill-rule:nonzero;fill:rgb(25.098039%,62.352941%,96.078431%);fill-opacity:1;" />
<path d="M 68.699219 244.339844 C 62.019531 232.773438 47.226562 228.808594 35.660156 235.488281 C 24.089844 242.167969 20.125 256.960938 26.804688 268.527344 C 33.484375 280.097656 48.277344 284.058594 59.847656 277.378906 C 71.414062 270.699219 75.378906 255.910156 68.699219 244.339844 Z M 68.699219 244.339844 " style=" stroke:none;fill-rule:nonzero;fill:rgb(95.686275%,41.176471%,41.176471%);fill-opacity:1;" />
<path d="M 250.265625 256.441406 C 245.789062 248.6875 246.097656 239.492188 250.265625 232.257812 C 246.152344 232.25 241.988281 233.289062 238.167969 235.492188 C 226.601562 242.171875 222.636719 256.964844 229.316406 268.535156 C 235.996094 280.101562 250.789062 284.066406 262.355469 277.386719 C 266.171875 275.183594 269.15625 272.09375 271.207031 268.53125 C 262.859375 268.523438 254.738281 264.191406 250.265625 256.441406 Z M 250.265625 256.441406 " style=" stroke:none;fill-rule:nonzero;fill:rgb(91.764706%,32.941176%,32.941176%);fill-opacity:1;" />
<path d="M 452.773438 256.441406 C 448.296875 248.6875 448.609375 239.492188 452.777344 232.257812 C 448.664062 232.25 444.496094 233.289062 440.679688 235.492188 C 429.113281 242.171875 425.148438 256.964844 431.828125 268.535156 C 438.503906 280.101562 453.300781 284.066406 464.867188 277.386719 C 468.683594 275.183594 471.667969 272.09375 473.71875 268.53125 C 465.367188 268.523438 457.25 264.191406 452.773438 256.441406 Z M 452.773438 256.441406 " style=" stroke:none;fill-rule:nonzero;fill:rgb(5.490196%,55.294118%,85.882353%);fill-opacity:1;" />
<path d="M 47.753906 256.441406 C 43.277344 248.6875 43.585938 239.492188 47.753906 232.257812 C 43.644531 232.25 39.476562 233.289062 35.660156 235.492188 C 24.089844 242.171875 20.128906 256.964844 26.808594 268.535156 C 33.484375 280.101562 48.277344 284.066406 59.847656 277.386719 C 63.664062 275.183594 66.648438 272.09375 68.699219 268.53125 C 60.347656 268.523438 52.230469 264.191406 47.753906 256.441406 Z M 47.753906 256.441406 " style=" stroke:none;fill-rule:nonzero;fill:rgb(91.764706%,32.941176%,32.941176%);fill-opacity:1;" />
<path d="M 453.550781 208.847656 L 480.761719 133.832031 C 480.363281 133.097656 479.949219 132.375 479.539062 131.644531 L 423.992188 131.644531 L 449.84375 202.910156 L 451.996094 208.851562 L 452 208.851562 C 452.511719 208.949219 453.039062 208.949219 453.550781 208.847656 Z M 453.550781 208.847656 " style=" stroke:none;fill-rule:nonzero;fill:rgb(5.490196%,55.294118%,85.882353%);fill-opacity:1;" />
<path d="M 479.539062 131.644531 C 470.949219 116.292969 460.832031 101.910156 449.378906 88.71875 L 438.382812 88.71875 L 423.992188 131.644531 Z M 479.539062 131.644531 " style=" stroke:none;fill-rule:nonzero;fill:rgb(25.098039%,62.352941%,96.078431%);fill-opacity:1;" />
<path d="M 77.214844 103.628906 C 59.894531 89.964844 35.605469 89.972656 18.289062 103.628906 C -2.429688 119.964844 -5.980469 150.003906 10.359375 170.722656 L 44.582031 214.125 C 46.199219 216.171875 49.304688 216.171875 50.921875 214.125 L 85.144531 170.722656 C 101.484375 150.003906 97.933594 119.964844 77.214844 103.628906 Z M 47.753906 158.492188 C 38.101562 158.492188 30.277344 150.667969 30.277344 141.015625 C 30.277344 131.367188 38.101562 123.539062 47.753906 123.539062 C 57.40625 123.539062 65.230469 131.363281 65.230469 141.015625 C 65.230469 150.667969 57.40625 158.492188 47.753906 158.492188 Z M 47.753906 158.492188 " style=" stroke:none;fill-rule:nonzero;fill:rgb(95.686275%,41.176471%,41.176471%);fill-opacity:1;" />
<path d="M 47.53125 158.480469 C 37.984375 158.359375 30.277344 150.59375 30.277344 141.015625 C 30.277344 131.34375 38.171875 123.382812 48.074219 123.558594 C 38.226562 115.859375 38.238281 101.105469 47.980469 93.386719 C 8.773438 93.199219 -14.703125 138.941406 10.359375 170.722656 L 44.585938 214.125 C 46.199219 216.171875 49.308594 216.171875 50.921875 214.125 L 57.125 206.257812 C 39.914062 196.648438 35.363281 173.945312 47.53125 158.480469 Z M 47.53125 158.480469 " style=" stroke:none;fill-rule:nonzero;fill:rgb(91.764706%,32.941176%,32.941176%);fill-opacity:1;" />
</g>
</svg>