<svg xmlns="http://www.w3.org/2000/svg" height="512pt" version="1.1" viewBox="0 0 512 512.00152" width="512pt">
<g id="surface1">
<path d="M 511.972656 255.988281 C 511.972656 397.363281 397.363281 511.972656 255.988281 511.972656 C 114.609375 511.972656 0 397.363281 0 255.988281 C 0 114.609375 114.609375 0 255.988281 0 C 397.363281 0 511.972656 114.609375 511.972656 255.988281 Z M 511.972656 255.988281 " style=" stroke:none;fill-rule:nonzero;fill:rgb(16.470588%,87.843137%,68.627451%);fill-opacity:1;" />
<path d="M 255.988281 88.996094 C 88.660156 88.996094 -18.171875 264.039062 52.855469 411.757812 C 155.5 545.40625 356.535156 545.332031 459.117188 411.757812 C 473.304688 382.253906 481.253906 349.1875 481.253906 314.261719 C 481.253906 189.851562 380.398438 88.996094 255.988281 88.996094 Z M 255.988281 88.996094 " style=" stroke:none;fill-rule:nonzero;fill:rgb(25.098039%,62.352941%,96.078431%);fill-opacity:1;" />
<path d="M 193.875 97.671875 C 59.246094 136.207031 -7.121094 287.019531 52.855469 411.757812 C 119.675781 498.765625 231.730469 531.640625 332.003906 500.488281 C 155.9375 454.105469 83.347656 242.324219 193.875 97.671875 Z M 193.875 97.671875 " style=" stroke:none;fill-rule:nonzero;fill:rgb(5.490196%,55.294118%,85.882353%);fill-opacity:1;" />
<path d="M 459.035156 411.863281 C 460.808594 408.179688 462.5 404.453125 464.074219 400.660156 C 446.796875 406.179688 428.1875 410.957031 408.546875 414.949219 C 416.730469 386.597656 421.394531 355.953125 422.210938 324.292969 L 481.019531 324.292969 C 481.164062 320.96875 481.253906 317.625 481.253906 314.261719 C 481.253906 310.898438 481.164062 307.554688 481.019531 304.230469 L 422.210938 304.230469 C 421.394531 272.570312 416.730469 241.925781 408.546875 213.570312 C 428.1875 217.566406 446.796875 222.34375 464.074219 227.859375 C 460.570312 219.425781 456.566406 211.25 452.101562 203.371094 C 436.046875 198.917969 419.078125 195.035156 401.386719 191.757812 C 390.675781 162.777344 375.207031 134.636719 354.550781 111.65625 C 336.894531 103.050781 317.945312 96.691406 298.070312 92.9375 C 335.5625 111.003906 362.289062 149.617188 378.308594 187.882812 C 359.210938 185.003906 339.425781 182.796875 319.175781 181.296875 C 314.332031 153.332031 305.773438 116.777344 292.082031 91.886719 C 283.53125 90.507812 274.824219 89.613281 265.980469 89.226562 C 283.320312 108.191406 293.976562 154.828125 298.578125 180.027344 C 269.644531 178.59375 240.878906 178.59375 211.925781 180.027344 C 216.5625 154.636719 227.203125 108.25 244.46875 89.285156 C 235.636719 89.730469 226.945312 90.699219 218.414062 92.132812 C 206.613281 113.390625 197.53125 144.726562 191.257812 181.304688 C 171.03125 182.800781 151.269531 185.007812 132.195312 187.882812 C 148.140625 149.789062 174.578125 111.625 211.433594 93.410156 C 191.453125 97.417969 172.429688 104.070312 154.742188 112.988281 C 134.84375 135.539062 119.664062 163.214844 109.113281 191.757812 C 92.058594 194.917969 75.679688 198.644531 60.136719 202.898438 C 55.65625 210.757812 51.640625 218.914062 48.117188 227.328125 C 64.917969 222.035156 82.953125 217.433594 101.957031 213.570312 C 93.773438 241.925781 89.109375 272.570312 88.292969 304.230469 L 30.953125 304.230469 C 30.644531 311.3125 30.640625 317.183594 30.953125 324.292969 L 88.292969 324.292969 C 89.109375 355.949219 93.769531 386.597656 101.957031 414.949219 C 82.953125 411.085938 64.917969 406.484375 48.113281 401.191406 C 49.625 404.800781 51.246094 408.351562 52.9375 411.863281 C 56.964844 417.097656 61.183594 422.175781 65.59375 427.082031 C 79.496094 430.734375 94.039062 433.972656 109.113281 436.765625 C 114.464844 451.242188 120.800781 464.972656 128.058594 477.757812 C 139.367188 484.292969 151.226562 489.984375 163.539062 494.753906 C 150.664062 478.480469 140.304688 460.011719 132.195312 440.636719 C 151.292969 443.519531 171.078125 445.722656 191.328125 447.222656 C 194.746094 466.945312 199.449219 487.917969 205.871094 507.054688 C 213.289062 508.527344 220.824219 509.679688 228.460938 510.496094 C 221.007812 491.449219 215.613281 468.691406 211.921875 448.488281 C 240.859375 449.925781 269.625 449.925781 298.578125 448.488281 C 294.890625 468.683594 289.476562 491.546875 281.972656 510.667969 C 289.621094 509.894531 297.164062 508.769531 304.597656 507.34375 C 310.515625 489.996094 315.40625 469.589844 319.246094 447.21875 C 339.46875 445.71875 359.234375 443.515625 378.308594 440.636719 C 370.011719 460.460938 359.429688 479.175781 346.320312 495.558594 C 358.597656 490.925781 370.421875 485.382812 381.71875 479 C 389.277344 465.859375 395.859375 451.71875 401.386719 436.765625 C 417.15625 433.84375 432.34375 430.4375 446.828125 426.578125 C 451.074219 421.832031 455.148438 416.921875 459.035156 411.863281 Z M 124.1875 209.460938 C 144.683594 206.03125 166.097656 203.414062 188.125 201.660156 C 183.722656 233.777344 181.300781 268.925781 180.914062 304.230469 L 108.359375 304.230469 C 109.265625 270.785156 114.6875 238.632812 124.1875 209.460938 Z M 124.1875 419.0625 C 114.6875 389.894531 109.265625 357.738281 108.359375 324.292969 L 180.914062 324.292969 C 181.304688 360.503906 183.792969 395.347656 188.160156 426.867188 C 166.121094 425.113281 144.691406 422.492188 124.1875 419.0625 Z M 301.890625 428.234375 C 270.984375 429.921875 239.765625 429.9375 208.609375 428.234375 C 204.003906 396.585938 201.378906 361.210938 200.976562 324.292969 L 309.523438 324.292969 C 309.121094 361.210938 306.496094 396.585938 301.890625 428.234375 Z M 200.976562 304.230469 C 201.378906 267.3125 204.003906 231.9375 208.609375 200.289062 C 239.613281 198.59375 270.859375 198.59375 301.890625 200.289062 C 306.496094 231.9375 309.121094 267.3125 309.527344 304.230469 Z M 386.316406 419.0625 C 365.820312 422.492188 344.40625 425.109375 322.375 426.867188 C 326.78125 394.75 329.203125 359.597656 329.585938 324.292969 L 402.140625 324.292969 C 401.238281 357.738281 395.816406 389.890625 386.316406 419.0625 Z M 329.589844 304.230469 C 329.199219 268.023438 326.710938 233.175781 322.339844 201.65625 C 344.382812 203.410156 365.808594 206.03125 386.316406 209.460938 C 395.816406 238.632812 401.238281 270.785156 402.144531 304.230469 Z M 329.589844 304.230469 " style=" stroke:none;fill-rule:nonzero;fill:rgb(45.098039%,74.901961%,97.647059%);fill-opacity:1;" />
<path d="M 290.234375 485.460938 C 287.546875 495.183594 284.769531 503.542969 281.976562 510.660156 C 289.558594 509.890625 296.921875 508.820312 304.597656 507.34375 C 306.132812 502.839844 307.601562 498.125 309 493.226562 C 302.621094 490.882812 296.363281 488.289062 290.234375 485.460938 Z M 290.234375 485.460938 " style=" stroke:none;fill-rule:nonzero;fill:rgb(25.098039%,62.352941%,96.078431%);fill-opacity:1;" />
<path d="M 210.972656 428.347656 C 210.1875 428.308594 209.394531 428.277344 208.609375 428.234375 C 208.472656 427.285156 208.34375 426.324219 208.207031 425.371094 C 199.578125 415.90625 191.652344 405.796875 184.503906 395.117188 C 185.519531 406.003906 186.738281 416.613281 188.160156 426.867188 C 166.121094 425.113281 144.691406 422.492188 124.1875 419.0625 C 114.6875 389.890625 109.265625 357.738281 108.359375 324.292969 L 151.496094 324.292969 C 149.585938 317.710938 147.941406 311.015625 146.558594 304.230469 L 108.359375 304.230469 C 109.265625 270.78125 114.6875 238.628906 124.1875 209.457031 C 131.242188 208.277344 138.414062 207.203125 145.671875 206.214844 C 146.972656 199.164062 148.5625 192.210938 150.429688 185.371094 C 144.289062 186.144531 138.203125 186.976562 132.191406 187.882812 C 143.757812 160.253906 160.6875 132.828125 183.214844 112.734375 C 186.589844 107.589844 190.136719 102.5625 193.867188 97.683594 C 179.402344 101.835938 165.523438 107.453125 154.738281 112.988281 C 134.855469 135.527344 119.671875 163.191406 109.113281 191.757812 C 92.054688 194.917969 75.679688 198.644531 60.136719 202.902344 C 55.855469 210.414062 51.738281 218.679688 48.113281 227.332031 C 64.917969 222.039062 82.953125 217.4375 101.957031 213.574219 C 93.769531 241.925781 89.109375 272.570312 88.292969 304.230469 L 30.953125 304.230469 C 30.640625 311.355469 30.644531 317.046875 30.964844 324.292969 L 88.292969 324.292969 C 89.109375 355.953125 93.769531 386.597656 101.957031 414.949219 C 82.953125 411.085938 64.917969 406.484375 48.117188 401.195312 C 51.804688 410 51.683594 411.597656 65.613281 427.089844 C 79.511719 430.738281 94.046875 433.972656 109.113281 436.765625 C 114.464844 451.242188 120.796875 464.96875 128.054688 477.75 C 139.4375 484.332031 151.261719 490 163.539062 494.757812 C 150.660156 478.480469 140.300781 460.011719 132.191406 440.640625 C 151.289062 443.519531 171.078125 445.726562 191.324219 447.222656 C 194.742188 466.949219 199.445312 487.917969 205.867188 507.054688 C 213.289062 508.527344 220.824219 509.683594 228.460938 510.496094 C 221.007812 491.449219 215.613281 468.695312 211.921875 448.492188 C 218.960938 448.839844 226.046875 449.105469 233.164062 449.285156 C 225.359375 442.75 217.949219 435.757812 210.972656 428.347656 Z M 210.972656 428.347656 " style=" stroke:none;fill-rule:nonzero;fill:rgb(25.098039%,62.352941%,96.078431%);fill-opacity:1;" />
<path d="M 204.167969 439.300781 C 198.925781 439.019531 194.902344 434.539062 195.183594 429.292969 L 197.003906 395.605469 C 200.632812 328.460938 173.652344 261.523438 121.046875 215.519531 C 117.09375 212.066406 116.691406 206.054688 120.148438 202.101562 C 123.605469 198.144531 129.613281 197.746094 133.566406 201.203125 C 188.5 249.238281 220.089844 320.90625 216 396.628906 L 214.179688 430.316406 C 213.902344 435.4375 209.566406 439.570312 204.167969 439.300781 Z M 204.167969 439.300781 " style=" stroke:none;fill-rule:nonzero;fill:rgb(74.117647%,85.098039%,93.72549%);fill-opacity:1;" />
<path d="M 201.40625 438.734375 C 196.476562 436.925781 193.945312 431.460938 195.753906 426.53125 L 198.664062 418.59375 C 229.597656 334.257812 317.542969 285.261719 405.421875 303.140625 C 410.566406 304.1875 413.890625 309.210938 412.84375 314.355469 C 411.796875 319.503906 406.777344 322.820312 401.628906 321.78125 C 322.828125 305.742188 244.171875 349.757812 216.523438 425.140625 L 213.613281 433.082031 C 211.8125 437.984375 206.363281 440.550781 201.40625 438.734375 Z M 201.40625 438.734375 " style=" stroke:none;fill-rule:nonzero;fill:rgb(86.27451%,91.372549%,96.078431%);fill-opacity:1;" />
<path d="M 395.28125 317.203125 L 390.484375 308.875 C 338.363281 218.355469 227.960938 179.535156 130.746094 217.230469 C 125.847656 219.128906 120.339844 216.699219 118.441406 211.800781 C 116.542969 206.902344 118.972656 201.394531 123.867188 199.496094 C 229.796875 158.414062 350.144531 200.699219 406.96875 299.382812 L 411.765625 307.714844 C 414.386719 312.265625 412.820312 318.078125 408.269531 320.699219 C 403.734375 323.316406 397.914062 321.773438 395.28125 317.203125 Z M 395.28125 317.203125 " style=" stroke:none;fill-rule:nonzero;fill:rgb(86.27451%,91.372549%,96.078431%);fill-opacity:1;" />
<path d="M 388.773438 286.914062 C 375.101562 295.214844 370.5 312.960938 378.539062 326.886719 C 386.578125 340.8125 404.246094 345.699219 418.273438 338.007812 C 431.949219 329.703125 436.550781 311.957031 428.511719 298.035156 C 420.472656 284.109375 402.800781 279.222656 388.773438 286.914062 Z M 388.773438 286.914062 " style=" stroke:none;fill-rule:nonzero;fill:rgb(95.686275%,78.039216%,34.509804%);fill-opacity:1;" />
<path d="M 403.339844 283.289062 C 398.40625 283.222656 393.394531 284.378906 388.773438 286.914062 C 375.101562 295.214844 370.5 312.960938 378.539062 326.886719 C 386.578125 340.8125 404.246094 345.699219 418.273438 338.007812 C 422.777344 335.273438 426.289062 331.511719 428.695312 327.203125 C 406.382812 326.898438 392.386719 302.886719 403.339844 283.289062 Z M 403.339844 283.289062 " style=" stroke:none;fill-rule:nonzero;fill:rgb(91.764706%,70.196078%,22.352941%);fill-opacity:1;" />
<path d="M 171.621094 15.40625 C 145.566406 -5.140625 109.039062 -5.132812 82.996094 15.40625 C 51.835938 39.980469 46.492188 85.164062 71.066406 116.324219 L 122.542969 181.597656 C 124.972656 184.679688 129.644531 184.679688 132.074219 181.597656 L 183.550781 116.324219 C 208.125 85.164062 202.78125 39.980469 171.621094 15.40625 Z M 127.308594 97.925781 C 112.792969 97.925781 101.023438 86.160156 101.023438 71.644531 C 101.023438 57.128906 112.792969 45.359375 127.308594 45.359375 C 141.824219 45.359375 153.589844 57.128906 153.589844 71.644531 C 153.589844 86.160156 141.824219 97.925781 127.308594 97.925781 Z M 127.308594 97.925781 " style=" stroke:none;fill-rule:nonzero;fill:rgb(95.686275%,41.176471%,41.176471%);fill-opacity:1;" />
<path d="M 126.972656 97.910156 C 112.613281 97.730469 101.023438 86.046875 101.023438 71.644531 C 101.023438 57.128906 112.792969 45.359375 127.308594 45.359375 C 127.46875 45.359375 127.625 45.382812 127.789062 45.382812 C 121.03125 40.097656 116.667969 31.890625 116.667969 22.644531 C 116.667969 13.460938 120.96875 5.296875 127.648438 0.0078125 C 111.890625 -0.0664062 96.113281 5.0625 82.996094 15.410156 C 51.832031 39.980469 46.492188 85.164062 71.066406 116.324219 L 122.542969 181.601562 C 124.972656 184.683594 129.644531 184.683594 132.074219 181.601562 L 141.402344 169.769531 C 115.519531 155.3125 108.671875 121.171875 126.972656 97.910156 Z M 126.972656 97.910156 " style=" stroke:none;fill-rule:nonzero;fill:rgb(91.764706%,32.941176%,32.941176%);fill-opacity:1;" />
<path d="M 264.148438 191.046875 C 217.828125 179.246094 168.734375 182.097656 123.871094 199.496094 C 118.972656 201.394531 116.542969 206.90625 118.441406 211.800781 C 120.339844 216.699219 125.847656 219.128906 130.746094 217.230469 C 171.386719 201.472656 215.800781 198.730469 257.816406 209.082031 C 253.695312 202.375 256.835938 193.679688 264.148438 191.046875 Z M 264.148438 191.046875 " style=" stroke:none;fill-rule:nonzero;fill:rgb(74.117647%,85.098039%,93.72549%);fill-opacity:1;" />
<path d="M 285.699219 319.835938 C 214.132812 356.886719 197.621094 423.285156 195.753906 426.53125 C 193.472656 432.753906 198.105469 439.320312 204.683594 439.320312 C 208.558594 439.320312 212.199219 436.933594 213.613281 433.082031 L 216.523438 425.144531 C 230.152344 387.980469 256.988281 356.84375 292.148438 337.9375 C 284.734375 335.359375 281.546875 326.574219 285.699219 319.835938 Z M 285.699219 319.835938 " style=" stroke:none;fill-rule:nonzero;fill:rgb(74.117647%,85.098039%,93.72549%);fill-opacity:1;" />
<path d="M 189.933594 404.257812 C 176.257812 412.5625 171.65625 430.308594 179.695312 444.230469 C 187.734375 458.15625 205.40625 463.042969 219.433594 455.351562 C 233.105469 447.050781 237.710938 429.304688 229.671875 415.378906 C 221.628906 401.453125 203.960938 396.570312 189.933594 404.257812 Z M 189.933594 404.257812 " style=" stroke:none;fill-rule:nonzero;fill:rgb(37.647059%,37.647059%,95.686275%);fill-opacity:1;" />
<path d="M 204.5 400.632812 C 199.566406 400.566406 194.550781 401.726562 189.933594 404.257812 C 176.257812 412.5625 171.65625 430.308594 179.695312 444.230469 C 187.734375 458.15625 205.40625 463.042969 219.433594 455.351562 C 223.933594 452.617188 227.445312 448.859375 229.855469 444.550781 C 207.542969 444.242188 193.542969 420.230469 204.5 400.632812 Z M 204.5 400.632812 " style=" stroke:none;fill-rule:nonzero;fill:rgb(29.803922%,29.803922%,92.941176%);fill-opacity:1;" />
<path d="M 118.175781 192.542969 C 109.707031 197.683594 106.855469 208.671875 111.835938 217.296875 C 116.8125 225.917969 127.753906 228.945312 136.441406 224.183594 C 144.90625 219.042969 147.757812 208.054688 142.78125 199.429688 C 137.800781 190.808594 126.859375 187.78125 118.175781 192.542969 Z M 118.175781 192.542969 " style=" stroke:none;fill-rule:nonzero;fill:rgb(95.686275%,41.176471%,41.176471%);fill-opacity:1;" />
<path d="M 127.132812 190.308594 C 124.097656 190.277344 121.015625 190.984375 118.175781 192.542969 C 109.707031 197.683594 106.859375 208.671875 111.835938 217.296875 C 116.816406 225.917969 127.757812 228.945312 136.441406 224.183594 C 139.25 222.480469 141.421875 220.125 142.914062 217.4375 C 128.972656 217.28125 120.457031 202.335938 127.132812 190.308594 Z M 127.132812 190.308594 " style=" stroke:none;fill-rule:nonzero;fill:rgb(91.764706%,32.941176%,32.941176%);fill-opacity:1;" />
</g>
</svg>