<svg xmlns="http://www.w3.org/2000/svg" height="512pt" version="1.1" viewBox="0 0 512.00034 512" width="512pt">
<g id="surface1">
<path d="M 511.996094 256 C 511.996094 397.382812 397.382812 511.996094 255.996094 511.996094 C 114.613281 511.996094 0 397.382812 0 256 C 0 114.613281 114.613281 0 255.996094 0 C 397.382812 0 511.996094 114.613281 511.996094 256 Z M 511.996094 256 " style=" stroke:none;fill-rule:nonzero;fill:rgb(6.27451%,29.019608%,48.627451%);fill-opacity:1;" />
<path d="M 113.222656 206.007812 L 287.367188 206.007812 L 312.074219 183.511719 C 313.949219 181.804688 313.949219 178.859375 312.074219 177.152344 L 287.367188 154.65625 L 113.222656 154.65625 C 99.042969 154.65625 87.550781 166.152344 87.550781 180.332031 C 87.550781 194.511719 99.042969 206.007812 113.222656 206.007812 Z M 113.222656 206.007812 " style=" stroke:none;fill-rule:nonzero;fill:rgb(98.431373%,56.862745%,54.117647%);fill-opacity:1;" />
<path d="M 202.578125 154.65625 L 113.222656 154.65625 C 99.042969 154.65625 87.550781 166.152344 87.550781 180.332031 C 87.550781 194.511719 99.042969 206.003906 113.222656 206.003906 L 202.578125 206.003906 C 179.925781 196.441406 179.898438 164.238281 202.578125 154.65625 Z M 202.578125 154.65625 " style=" stroke:none;fill-rule:nonzero;fill:rgb(95.686275%,41.176471%,41.176471%);fill-opacity:1;" />
<path d="M 455.503906 154.65625 L 287.367188 154.65625 L 312.074219 177.152344 C 313.949219 178.859375 313.949219 181.804688 312.074219 183.507812 L 287.367188 206.003906 L 455.503906 206.003906 C 476.429688 206.003906 493.457031 223.03125 493.457031 243.957031 C 493.457031 264.882812 476.429688 281.90625 455.503906 281.90625 L 297.34375 281.90625 L 272.636719 304.402344 C 270.761719 306.109375 270.761719 309.054688 272.636719 310.757812 L 297.34375 333.253906 L 455.503906 333.253906 C 473.476562 333.253906 490.214844 327.90625 504.238281 318.734375 C 516.953125 268.265625 514.1875 213.828125 494.886719 163.832031 C 483 157.964844 469.632812 154.65625 455.503906 154.65625 Z M 455.503906 154.65625 " style=" stroke:none;fill-rule:nonzero;fill:rgb(96.862745%,87.45098%,60.392157%);fill-opacity:1;" />
<path d="M 342.253906 431.917969 L 289.90625 392.0625 C 287.078125 389.910156 283.011719 391.925781 283.011719 395.476562 L 283.011719 409.160156 L 98.847656 409.160156 C 77.921875 409.160156 60.898438 392.136719 60.898438 371.207031 C 60.898438 350.28125 77.921875 333.257812 98.847656 333.257812 L 297.34375 333.257812 L 272.636719 310.761719 C 270.761719 309.058594 270.761719 306.109375 272.636719 304.402344 L 297.34375 281.90625 L 98.847656 281.90625 C 49.609375 281.90625 9.550781 321.96875 9.550781 371.207031 C 9.550781 420.449219 49.609375 460.507812 98.847656 460.507812 L 283.011719 460.507812 L 283.011719 475.183594 C 283.011719 478.738281 287.078125 480.75 289.90625 478.601562 L 342.253906 438.746094 C 344.507812 437.027344 344.507812 433.632812 342.253906 431.917969 Z M 342.253906 431.917969 " style=" stroke:none;fill-rule:nonzero;fill:rgb(25.098039%,62.352941%,96.078431%);fill-opacity:1;" />
<path d="M 141.898438 28.890625 C 124.191406 14.925781 99.367188 14.929688 81.667969 28.890625 C 60.492188 45.589844 56.863281 76.292969 73.5625 97.46875 L 108.542969 141.828125 C 110.195312 143.925781 113.371094 143.925781 115.023438 141.828125 L 150.003906 97.46875 C 166.703125 76.292969 163.074219 45.589844 141.898438 28.890625 Z M 111.78125 84.96875 C 101.917969 84.96875 93.921875 76.972656 93.921875 67.105469 C 93.921875 57.242188 101.917969 49.246094 111.78125 49.246094 C 121.648438 49.246094 129.644531 57.242188 129.644531 67.105469 C 129.644531 76.972656 121.648438 84.96875 111.78125 84.96875 Z M 111.78125 84.96875 " style=" stroke:none;fill-rule:nonzero;fill:rgb(95.686275%,41.176471%,41.176471%);fill-opacity:1;" />
<path d="M 112.644531 154.671875 C 98.734375 154.980469 87.550781 166.347656 87.550781 180.332031 C 87.550781 194.316406 98.734375 205.683594 112.644531 205.992188 C 126.558594 205.683594 137.742188 194.316406 137.742188 180.332031 C 137.742188 166.347656 126.558594 154.980469 112.644531 154.671875 Z M 112.644531 154.671875 " style=" stroke:none;fill-rule:nonzero;fill:rgb(91.764706%,32.941176%,32.941176%);fill-opacity:1;" />
<path d="M 498.179688 411.96875 C 498.339844 412.160156 498.476562 412.363281 498.59375 412.578125 C 498.476562 412.363281 498.339844 412.160156 498.179688 411.96875 Z M 498.179688 411.96875 " style=" stroke:none;fill-rule:nonzero;fill:rgb(25.098039%,62.352941%,96.078431%);fill-opacity:1;" />
<path d="M 498.644531 412.6875 C 498.734375 412.867188 498.820312 413.050781 498.886719 413.238281 C 498.820312 413.050781 498.734375 412.867188 498.644531 412.6875 Z M 498.644531 412.6875 " style=" stroke:none;fill-rule:nonzero;fill:rgb(25.098039%,62.352941%,96.078431%);fill-opacity:1;" />
<path d="M 402.292969 414.636719 L 362.300781 414.636719 C 362.289062 414.175781 362.359375 413.714844 362.503906 413.269531 C 362.066406 414.605469 362.339844 416.117188 363.320312 417.21875 C 367.644531 422.082031 419.613281 480.492188 427.679688 489.558594 C 428.296875 490.253906 429.09375 490.675781 429.929688 490.835938 C 407.425781 428.792969 409.28125 433.902344 402.292969 414.636719 Z M 402.292969 414.636719 " style=" stroke:none;fill-rule:nonzero;fill:rgb(3.529412%,44.705882%,81.960784%);fill-opacity:1;" />
<path d="M 498.898438 413.285156 C 499.039062 413.726562 499.105469 414.183594 499.097656 414.636719 C 499.109375 414.179688 499.039062 413.722656 498.898438 413.285156 Z M 498.898438 413.285156 " style=" stroke:none;fill-rule:nonzero;fill:rgb(25.098039%,62.352941%,96.078431%);fill-opacity:1;" />
<path d="M 431.464844 490.835938 C 430.960938 490.933594 430.441406 490.933594 429.933594 490.835938 C 431.277344 491.09375 432.730469 490.671875 433.71875 489.5625 L 498.078125 417.222656 C 498.734375 416.484375 499.070312 415.566406 499.097656 414.640625 L 459.105469 414.640625 Z M 431.464844 490.835938 " style=" stroke:none;fill-rule:nonzero;fill:rgb(25.098039%,62.352941%,96.078431%);fill-opacity:1;" />
<path d="M 498.886719 413.238281 C 498.890625 413.253906 498.894531 413.269531 498.898438 413.285156 C 498.890625 413.269531 498.890625 413.253906 498.886719 413.238281 Z M 498.886719 413.238281 " style=" stroke:none;fill-rule:nonzero;fill:rgb(25.098039%,62.352941%,96.078431%);fill-opacity:1;" />
<path d="M 498.59375 412.578125 C 498.613281 412.613281 498.625 412.652344 498.640625 412.6875 C 498.625 412.652344 498.613281 412.613281 498.59375 412.578125 Z M 498.59375 412.578125 " style=" stroke:none;fill-rule:nonzero;fill:rgb(25.098039%,62.352941%,96.078431%);fill-opacity:1;" />
<path d="M 498.179688 411.96875 L 466.75 373.746094 C 465.984375 372.8125 464.835938 372.273438 463.628906 372.273438 L 444.902344 372.273438 L 459.105469 414.640625 L 499.097656 414.640625 C 499.054688 414.332031 499.195312 413.199219 498.179688 411.96875 Z M 498.179688 411.96875 " style=" stroke:none;fill-rule:nonzero;fill:rgb(45.098039%,74.901961%,97.647059%);fill-opacity:1;" />
<path d="M 402.292969 414.636719 L 416.496094 372.269531 L 397.769531 372.269531 C 396.5625 372.269531 395.414062 372.8125 394.648438 373.746094 L 363.21875 411.96875 C 362.570312 412.753906 362.277344 413.726562 362.300781 414.636719 Z M 402.292969 414.636719 " style=" stroke:none;fill-rule:nonzero;fill:rgb(5.490196%,55.294118%,85.882353%);fill-opacity:1;" />
<path d="M 431.464844 490.835938 L 459.105469 414.640625 L 402.292969 414.640625 C 409.28125 433.910156 407.425781 428.792969 429.929688 490.835938 L 429.933594 490.835938 C 430.441406 490.933594 430.960938 490.933594 431.464844 490.835938 Z M 431.464844 490.835938 " style=" stroke:none;fill-rule:nonzero;fill:rgb(5.490196%,55.294118%,85.882353%);fill-opacity:1;" />
<path d="M 459.105469 414.636719 L 444.902344 372.269531 L 416.496094 372.269531 L 402.292969 414.636719 Z M 459.105469 414.636719 " style=" stroke:none;fill-rule:nonzero;fill:rgb(25.098039%,62.352941%,96.078431%);fill-opacity:1;" />
<path d="M 111.554688 84.957031 C 101.796875 84.832031 93.921875 76.894531 93.921875 67.105469 C 93.921875 57.21875 101.988281 49.082031 112.109375 49.261719 C 102.046875 41.390625 102.054688 26.308594 112.015625 18.425781 C 101.304688 18.371094 90.582031 21.859375 81.667969 28.890625 C 60.492188 45.589844 56.863281 76.292969 73.5625 97.46875 L 108.542969 141.828125 C 110.195312 143.925781 113.371094 143.925781 115.023438 141.828125 L 121.363281 133.789062 C 103.769531 123.964844 99.121094 100.765625 111.554688 84.957031 Z M 111.554688 84.957031 " style=" stroke:none;fill-rule:nonzero;fill:rgb(91.764706%,32.941176%,32.941176%);fill-opacity:1;" />
<path d="M 202.957031 409.15625 L 98.847656 409.15625 C 77.921875 409.15625 60.898438 392.132812 60.898438 371.207031 C 60.898438 350.28125 77.921875 333.257812 98.847656 333.257812 L 202.726562 333.257812 C 179.878906 323.820312 179.847656 291.359375 202.726562 281.90625 L 98.847656 281.90625 C 49.609375 281.90625 9.550781 321.964844 9.550781 371.207031 C 9.550781 420.445312 49.609375 460.507812 98.847656 460.507812 L 202.496094 460.507812 C 179.710938 450.855469 180.019531 418.390625 202.957031 409.15625 Z M 202.957031 409.15625 " style=" stroke:none;fill-rule:nonzero;fill:rgb(5.490196%,55.294118%,85.882353%);fill-opacity:1;" />
</g>
</svg>