<svg xmlns="http://www.w3.org/2000/svg" height="512pt" version="1.1" viewBox="0 0 512 512.00005" width="512pt">
<g id="surface1">
<path d="M 511.910156 255.957031 C 511.910156 397.316406 397.316406 511.910156 255.957031 511.910156 C 114.59375 511.910156 0 397.316406 0 255.957031 C 0 114.59375 114.59375 0 255.957031 0 C 397.316406 0 511.910156 114.59375 511.910156 255.957031 Z M 511.910156 255.957031 " style=" stroke:none;fill-rule:nonzero;fill:rgb(6.27451%,29.019608%,48.627451%);fill-opacity:1;" />
<path d="M 33.023438 313.097656 C 20.214844 313.097656 9.832031 302.714844 9.832031 289.90625 C 9.832031 153.878906 119.914062 43.78125 255.957031 43.78125 C 268.765625 43.78125 279.148438 54.164062 279.148438 66.972656 C 279.148438 79.78125 268.765625 90.167969 255.957031 90.167969 C 145.820312 90.167969 56.214844 179.769531 56.214844 289.90625 C 56.214844 302.714844 45.832031 313.097656 33.023438 313.097656 Z M 33.023438 313.097656 " style=" stroke:none;fill-rule:nonzero;fill:rgb(86.27451%,91.372549%,96.078431%);fill-opacity:1;" />
<path d="M 134.359375 75.800781 C 60.15625 118.09375 9.832031 197.742188 9.832031 289.90625 C 9.832031 302.714844 20.214844 313.097656 33.023438 313.097656 C 45.832031 313.097656 56.214844 302.714844 56.214844 289.90625 C 56.214844 216.132812 96.421875 151.574219 156.074219 116.988281 C 134.039062 118.085938 121.304688 92.902344 134.359375 75.800781 Z M 134.359375 75.800781 " style=" stroke:none;fill-rule:nonzero;fill:rgb(74.117647%,85.098039%,93.72549%);fill-opacity:1;" />
<path d="M 255.957031 468.074219 C 157.714844 468.074219 77.789062 388.148438 77.789062 289.90625 C 77.789062 191.664062 157.714844 111.738281 255.957031 111.738281 C 268.765625 111.738281 279.148438 122.121094 279.148438 134.929688 C 279.148438 147.738281 268.765625 158.121094 255.957031 158.121094 C 183.289062 158.121094 124.171875 217.242188 124.171875 289.90625 C 124.171875 362.574219 183.289062 421.691406 255.957031 421.691406 C 268.765625 421.691406 279.148438 432.074219 279.148438 444.882812 C 279.148438 457.691406 268.765625 468.074219 255.957031 468.074219 Z M 255.957031 468.074219 " style=" stroke:none;fill-rule:nonzero;fill:rgb(86.27451%,91.372549%,96.078431%);fill-opacity:1;" />
<path d="M 255.957031 398.808594 C 195.90625 398.808594 147.050781 349.957031 147.050781 289.90625 C 147.050781 229.855469 195.90625 181 255.957031 181 C 268.765625 181 279.148438 191.382812 279.148438 204.195312 C 279.148438 217.003906 268.765625 227.386719 255.957031 227.386719 C 221.480469 227.386719 193.433594 255.429688 193.433594 289.90625 C 193.433594 324.382812 221.480469 352.429688 255.957031 352.429688 C 290.429688 352.429688 318.476562 324.382812 318.476562 289.90625 C 318.476562 277.097656 328.859375 266.714844 341.667969 266.714844 C 354.476562 266.714844 364.859375 277.097656 364.859375 289.90625 C 364.859375 349.957031 316.007812 398.808594 255.957031 398.808594 Z M 255.957031 398.808594 " style=" stroke:none;fill-rule:nonzero;fill:rgb(86.27451%,91.372549%,96.078431%);fill-opacity:1;" />
<path d="M 255.957031 43.78125 C 243.148438 43.78125 232.765625 54.164062 232.765625 66.972656 C 232.765625 79.78125 243.148438 90.167969 255.957031 90.167969 C 366.09375 90.167969 455.695312 179.769531 455.695312 289.90625 C 455.695312 400.042969 366.09375 489.644531 255.957031 489.644531 C 145.820312 489.644531 56.214844 400.042969 56.214844 289.90625 C 56.214844 277.097656 45.832031 266.714844 33.023438 266.714844 C 20.214844 266.714844 9.832031 277.097656 9.832031 289.90625 C 9.832031 308.847656 11.972656 327.464844 16.109375 345.480469 C 52.40625 442.6875 146.089844 511.910156 255.957031 511.910156 C 365.820312 511.910156 459.503906 442.6875 495.804688 345.480469 C 531.542969 189.871094 413.253906 43.78125 255.957031 43.78125 Z M 255.957031 43.78125 " style=" stroke:none;fill-rule:nonzero;fill:rgb(5.490196%,55.294118%,85.882353%);fill-opacity:1;" />
<path d="M 341.667969 313.097656 C 328.859375 313.097656 318.476562 302.714844 318.476562 289.90625 C 318.476562 255.429688 290.429688 227.382812 255.957031 227.382812 C 243.148438 227.382812 232.761719 217 232.761719 204.191406 C 232.761719 191.382812 243.148438 181 255.957031 181 C 316.007812 181 364.859375 229.855469 364.859375 289.90625 C 364.859375 302.714844 354.476562 313.097656 341.667969 313.097656 Z M 341.667969 313.097656 " style=" stroke:none;fill-rule:nonzero;fill:rgb(45.098039%,74.901961%,97.647059%);fill-opacity:1;" />
<path d="M 255.957031 421.691406 C 183.289062 421.691406 124.171875 362.570312 124.171875 289.90625 C 124.171875 242.972656 148.835938 201.699219 185.882812 178.347656 C 164.027344 180.132812 150.523438 155.699219 162.65625 138.183594 C 111.773438 169.589844 77.789062 225.851562 77.789062 289.90625 C 77.789062 388.148438 157.714844 468.074219 255.957031 468.074219 C 268.765625 468.074219 279.148438 457.691406 279.148438 444.882812 C 279.148438 432.074219 268.765625 421.691406 255.957031 421.691406 Z M 255.957031 421.691406 " style=" stroke:none;fill-rule:nonzero;fill:rgb(74.117647%,85.098039%,93.72549%);fill-opacity:1;" />
<path d="M 282.855469 346.335938 C 241.664062 366.050781 193.433594 335.929688 193.433594 289.90625 C 193.433594 270.027344 202.769531 252.300781 217.273438 240.84375 C 195.109375 242.566406 181.660156 217.363281 194.683594 199.921875 C 165.953125 219.546875 147.050781 252.558594 147.050781 289.90625 C 147.050781 370.648438 232.171875 423.082031 304.003906 387.621094 C 282.003906 388.261719 269.902344 363.160156 282.855469 346.335938 Z M 282.855469 346.335938 " style=" stroke:none;fill-rule:nonzero;fill:rgb(74.117647%,85.098039%,93.72549%);fill-opacity:1;" />
<path d="M 344.402344 468.960938 C 212.855469 534.203125 56.214844 438.351562 56.214844 289.90625 C 56.214844 277.097656 45.832031 266.714844 33.023438 266.714844 C 20.214844 266.714844 9.832031 277.097656 9.832031 289.90625 C 9.832031 308.847656 11.972656 327.464844 16.109375 345.480469 C 64.863281 476.042969 209.417969 543.65625 340.804688 497.5 C 336.167969 488.386719 337.296875 477.050781 344.402344 468.960938 Z M 344.402344 468.960938 " style=" stroke:none;fill-rule:nonzero;fill:rgb(1.960784%,49.411765%,78.823529%);fill-opacity:1;" />
<path d="M 255.957031 468.074219 C 243.148438 468.074219 232.761719 457.691406 232.761719 444.882812 C 232.761719 432.074219 243.148438 421.691406 255.957031 421.691406 C 328.621094 421.691406 387.742188 362.570312 387.742188 289.90625 C 387.742188 217.238281 328.621094 158.121094 255.957031 158.121094 C 243.148438 158.121094 232.761719 147.734375 232.761719 134.925781 C 232.761719 122.117188 243.148438 111.734375 255.957031 111.734375 C 354.199219 111.734375 434.125 191.660156 434.125 289.902344 C 434.125 388.148438 354.199219 468.074219 255.957031 468.074219 Z M 255.957031 468.074219 " style=" stroke:none;fill-rule:nonzero;fill:rgb(25.098039%,62.352941%,96.078431%);fill-opacity:1;" />
<path d="M 310.339844 409.9375 C 293.75 417.484375 275.335938 421.691406 255.957031 421.691406 C 243.148438 421.691406 232.761719 432.074219 232.761719 444.882812 C 232.761719 457.691406 243.148438 468.074219 255.957031 468.074219 C 285.058594 468.074219 312.550781 461.058594 336.835938 448.632812 C 314.632812 452.699219 298.902344 428.476562 310.339844 409.9375 Z M 310.339844 409.9375 " style=" stroke:none;fill-rule:nonzero;fill:rgb(5.490196%,55.294118%,85.882353%);fill-opacity:1;" />
</g>
</svg>