<svg xmlns="http://www.w3.org/2000/svg" height="512pt" version="1.1" viewBox="0 0 512 512" width="512pt">
<g id="surface1">
<path d="M 512 256 C 512 397.386719 397.386719 512 256 512 C 114.613281 512 0 397.386719 0 256 C 0 114.613281 114.613281 0 256 0 C 397.386719 0 512 114.613281 512 256 Z M 512 256 " style=" stroke:none;fill-rule:nonzero;fill:rgb(95.686275%,78.039216%,34.509804%);fill-opacity:1;" />
<path d="M 404.59375 367.078125 C 394.210938 356.691406 377.367188 356.691406 366.984375 367.078125 C 356.597656 377.464844 356.597656 394.304688 366.984375 404.691406 L 417.175781 454.882812 C 430.980469 443.683594 443.59375 431.078125 454.796875 417.28125 Z M 404.59375 367.078125 " style=" stroke:none;fill-rule:nonzero;fill:rgb(98.431373%,56.862745%,54.117647%);fill-opacity:1;" />
<path d="M 388.023438 390.269531 C 379.675781 381.921875 378.042969 369.410156 383.113281 359.425781 C 361.070312 361.640625 351.042969 388.75 366.980469 404.691406 L 417.175781 454.882812 C 423.683594 449.601562 429.914062 444 435.871094 438.117188 Z M 388.023438 390.269531 " style=" stroke:none;fill-rule:nonzero;fill:rgb(85.882353%,25.098039%,25.098039%);fill-opacity:1;" />
<path d="M 53.371094 61.53125 C -18.621094 137.742188 -17.652344 258.261719 55.496094 333.359375 C 116.480469 395.96875 209.042969 409 283.183594 372.472656 C 308.636719 359.933594 339.140625 364.714844 359.722656 384.035156 C 360.21875 377.996094 362.765625 372.097656 367.382812 367.480469 C 372.085938 362.78125 378.109375 360.238281 384.257812 359.800781 C 365.714844 337.816406 361.269531 306.820312 373.722656 280.496094 C 408.214844 207.582031 395.359375 117.664062 335.132812 57.441406 C 257.207031 -20.484375 129.558594 -19.121094 53.371094 61.53125 Z M 53.371094 61.53125 " style=" stroke:none;fill-rule:nonzero;fill:rgb(86.27451%,91.372549%,96.078431%);fill-opacity:1;" />
<path d="M 209.664062 344.25 C 108.765625 315.785156 47.667969 211.898438 71.90625 109.902344 C 81.207031 70.773438 101.578125 37.292969 128.835938 11.859375 C 101.058594 21.960938 75.117188 38.511719 53.371094 61.53125 C -18.621094 137.742188 -17.652344 258.261719 55.496094 333.359375 C 116.480469 395.96875 209.042969 409 283.183594 372.472656 C 308.636719 359.933594 339.140625 364.714844 359.722656 384.035156 C 360.796875 371.011719 371.15625 360.726562 384.257812 359.800781 C 374.933594 348.746094 369.175781 335.410156 367.339844 321.535156 C 322 349.949219 265.273438 359.9375 209.664062 344.25 Z M 209.664062 344.25 " style=" stroke:none;fill-rule:nonzero;fill:rgb(74.117647%,85.098039%,93.72549%);fill-opacity:1;" />
<path d="M 323.671875 366.371094 C 336.90625 368.472656 349.53125 374.46875 359.722656 384.035156 C 360.796875 371.011719 371.15625 360.726562 384.257812 359.800781 C 375.160156 349.019531 369.46875 336.0625 367.484375 322.558594 Z M 323.671875 366.371094 " style=" stroke:none;fill-rule:nonzero;fill:rgb(59.215686%,78.039216%,90.980392%);fill-opacity:1;" />
<path d="M 366.980469 367.078125 C 356.597656 377.464844 356.597656 394.304688 366.980469 404.691406 L 377.058594 414.765625 L 414.667969 377.152344 L 404.59375 367.078125 C 394.207031 356.691406 377.367188 356.691406 366.980469 367.078125 Z M 366.980469 367.078125 " style=" stroke:none;fill-rule:nonzero;fill:rgb(85.882353%,25.098039%,25.098039%);fill-opacity:1;" />
<path d="M 388.023438 390.269531 C 379.675781 381.921875 378.042969 369.410156 383.113281 359.425781 C 361.070312 361.640625 351.042969 388.75 366.980469 404.691406 L 417.175781 454.882812 C 423.683594 449.601562 429.914062 444 435.871094 438.117188 Z M 388.023438 390.269531 " style=" stroke:none;fill-rule:nonzero;fill:rgb(95.686275%,41.176471%,41.176471%);fill-opacity:1;" />
<path d="M 366.980469 367.078125 C 356.597656 377.464844 356.597656 394.304688 366.980469 404.691406 L 377.058594 414.765625 L 414.667969 377.152344 L 404.59375 367.078125 C 394.207031 356.691406 377.367188 356.691406 366.980469 367.078125 Z M 366.980469 367.078125 " style=" stroke:none;fill-rule:nonzero;fill:rgb(95.686275%,41.176471%,41.176471%);fill-opacity:1;" />
<path d="M 364.574219 369.851562 C 356.675781 380.273438 357.476562 395.183594 366.980469 404.691406 L 377.058594 414.765625 L 394.789062 397.03125 L 388.023438 390.265625 C 379.675781 381.921875 378.042969 369.40625 383.113281 359.425781 C 382.628906 359.578125 372.015625 360.03125 364.574219 369.851562 Z M 364.574219 369.851562 " style=" stroke:none;fill-rule:nonzero;fill:rgb(91.764706%,32.941176%,32.941176%);fill-opacity:1;" />
<path d="M 310.976562 311.074219 C 247.710938 374.339844 144.769531 374.339844 81.5 311.074219 C 18.234375 247.808594 18.234375 144.863281 81.5 81.597656 C 144.769531 18.332031 247.710938 18.332031 310.976562 81.597656 C 374.246094 144.863281 374.242188 247.808594 310.976562 311.074219 Z M 310.976562 311.074219 " style=" stroke:none;fill-rule:nonzero;fill:rgb(25.098039%,62.352941%,96.078431%);fill-opacity:1;" />
<path d="M 80.519531 82.605469 C 18.246094 145.953125 18.566406 248.140625 81.5 311.074219 C 125.828125 355.398438 189.632812 368.664062 245.617188 350.878906 C 125.519531 340.132812 44.601562 224.800781 71.90625 109.902344 C 74.148438 100.460938 77.042969 91.355469 80.519531 82.605469 Z M 80.519531 82.605469 " style=" stroke:none;fill-rule:nonzero;fill:rgb(5.490196%,55.294118%,85.882353%);fill-opacity:1;" />
<path d="M 444.5625 68.695312 L 431.40625 12.28125 C 430.527344 8.511719 428.1875 5.246094 424.898438 3.199219 C 421.609375 1.15625 417.644531 0.503906 413.875 1.378906 L 357.460938 14.535156 C 349.609375 16.367188 344.726562 24.21875 346.558594 32.070312 C 348.390625 39.921875 356.242188 44.804688 364.09375 42.972656 L 384.742188 38.160156 L 273.113281 200.960938 L 148.230469 167.078125 C 143.691406 165.847656 138.835938 166.878906 135.191406 169.84375 L 41.761719 245.898438 C 44.820312 255.492188 48.789062 264.851562 53.675781 273.847656 L 147.8125 197.21875 L 275.46875 231.855469 C 281.457031 233.480469 287.824219 231.140625 291.332031 226.023438 L 410.679688 51.96875 L 416.128906 75.328125 C 417.953125 83.167969 425.792969 88.0625 433.660156 86.230469 C 441.515625 84.398438 446.394531 76.546875 444.5625 68.695312 Z M 444.5625 68.695312 " style=" stroke:none;fill-rule:nonzero;fill:rgb(98.431373%,56.862745%,54.117647%);fill-opacity:1;" />
<path d="M 301.1875 160.015625 L 273.109375 200.960938 L 148.230469 167.078125 C 143.691406 165.847656 138.835938 166.878906 135.191406 169.84375 L 41.761719 245.898438 C 44.820312 255.488281 48.789062 264.851562 53.675781 273.847656 L 147.8125 197.21875 L 275.46875 231.855469 C 281.457031 233.480469 287.824219 231.140625 291.332031 226.023438 L 324.3125 177.925781 C 312.277344 184.222656 298.054688 173.554688 301.1875 160.015625 Z M 301.1875 160.015625 " style=" stroke:none;fill-rule:nonzero;fill:rgb(95.686275%,41.176471%,41.176471%);fill-opacity:1;" />
<path d="M 195.652344 179.945312 L 148.230469 167.078125 C 143.691406 165.847656 138.835938 166.878906 135.191406 169.84375 L 41.761719 245.898438 C 44.820312 255.488281 48.789062 264.851562 53.675781 273.847656 L 147.8125 197.21875 L 187.917969 208.101562 C 178.84375 198.9375 183.011719 183.226562 195.652344 179.945312 Z M 195.652344 179.945312 " style=" stroke:none;fill-rule:nonzero;fill:rgb(91.764706%,32.941176%,32.941176%);fill-opacity:1;" />
<path d="M 300.847656 202.960938 C 293.644531 190.488281 277.691406 186.210938 265.214844 193.414062 C 252.738281 200.617188 248.464844 216.570312 255.667969 229.046875 C 262.871094 241.523438 278.824219 245.796875 291.300781 238.59375 C 303.777344 231.390625 308.050781 215.4375 300.847656 202.960938 Z M 300.847656 202.960938 " style=" stroke:none;fill-rule:nonzero;fill:rgb(98.431373%,56.862745%,54.117647%);fill-opacity:1;" />
<path d="M 166.351562 170.964844 C 159.148438 158.488281 143.195312 154.214844 130.71875 161.417969 C 118.242188 168.621094 113.96875 184.574219 121.171875 197.046875 C 128.375 209.523438 144.328125 213.796875 156.804688 206.59375 C 169.28125 199.390625 173.554688 183.4375 166.351562 170.964844 Z M 166.351562 170.964844 " style=" stroke:none;fill-rule:nonzero;fill:rgb(98.431373%,56.862745%,54.117647%);fill-opacity:1;" />
<path d="M 278.074219 189.929688 C 273.703125 189.957031 269.277344 191.078125 265.222656 193.421875 C 252.746094 200.621094 248.472656 216.578125 255.675781 229.054688 C 265.710938 246.4375 290.730469 246.328125 300.757812 229.21875 C 280.527344 229.347656 267.828125 207.414062 278.074219 189.929688 Z M 278.074219 189.929688 " style=" stroke:none;fill-rule:nonzero;fill:rgb(95.686275%,41.176471%,41.176471%);fill-opacity:1;" />
<path d="M 143.574219 157.929688 C 123.742188 158.054688 111.136719 179.664062 121.175781 197.054688 C 131.210938 214.4375 156.230469 214.328125 166.257812 197.21875 C 146.027344 197.347656 133.328125 175.414062 143.574219 157.929688 Z M 143.574219 157.929688 " style=" stroke:none;fill-rule:nonzero;fill:rgb(95.686275%,41.176471%,41.176471%);fill-opacity:1;" />
</g>
</svg>