<svg xmlns="http://www.w3.org/2000/svg" height="512pt" version="1.1" viewBox="0 0 512 512" width="512pt">
<g id="surface1">
<path d="M 512 256 C 512 397.386719 397.386719 512 256 512 C 114.613281 512 0 397.386719 0 256 C 0 114.613281 114.613281 0 256 0 C 397.386719 0 512 114.613281 512 256 Z M 512 256 " style=" stroke:none;fill-rule:nonzero;fill:rgb(6.27451%,29.019608%,48.627451%);fill-opacity:1;" />
<path d="M 42.585938 397.40625 C 88.4375 466.464844 166.894531 512 256 512 C 345.105469 512 423.5625 466.464844 469.414062 397.40625 Z M 42.585938 397.40625 " style=" stroke:none;fill-rule:nonzero;fill:rgb(4.705882%,22.745098%,42.745098%);fill-opacity:1;" />
<path d="M 262.046875 456.820312 C 262.046875 427.179688 283.398438 402.542969 311.558594 397.40625 L 42.585938 397.40625 C 88.4375 466.464844 166.894531 512 256 512 C 268.460938 512 280.714844 511.109375 292.699219 509.386719 C 274.398438 499.003906 262.046875 479.363281 262.046875 456.820312 Z M 262.046875 456.820312 " style=" stroke:none;fill-rule:nonzero;fill:rgb(2.745098%,16.470588%,36.862745%);fill-opacity:1;" />
<path d="M 211.390625 298.484375 C 205.109375 282.882812 186.09375 282.648438 179.53125 298.09375 C 177.582031 301.050781 155.324219 372.359375 82.3125 397.40625 L 195.808594 397.40625 C 209.066406 383.820312 221.597656 364.21875 233.132812 339.425781 C 219.019531 319.46875 212.082031 299.976562 211.390625 298.484375 Z M 211.390625 298.484375 " style=" stroke:none;fill-rule:nonzero;fill:rgb(25.098039%,62.352941%,96.078431%);fill-opacity:1;" />
<path d="M 199.699219 298.09375 C 200.75 294.128906 202.316406 291.203125 204.125 289.300781 C 195.851562 283.882812 184.34375 286.765625 179.53125 298.09375 C 177.582031 301.050781 155.324219 372.359375 82.3125 397.40625 L 139.058594 397.40625 C 184.296875 372.527344 198.671875 300.59375 199.699219 298.09375 Z M 199.699219 298.09375 " style=" stroke:none;fill-rule:nonzero;fill:rgb(5.490196%,55.294118%,85.882353%);fill-opacity:1;" />
<path d="M 371.554688 307.949219 C 352.394531 256.851562 336.777344 190.101562 326.300781 112.378906 C 323.195312 89.320312 294.671875 89.179688 291.398438 112.207031 C 290.085938 118.949219 275.378906 248.617188 233.136719 339.425781 C 252.675781 367.050781 279.148438 387.457031 309.316406 397.40625 C 332.859375 380.105469 354.121094 349.183594 371.554688 307.949219 Z M 371.554688 307.949219 " style=" stroke:none;fill-rule:nonzero;fill:rgb(96.862745%,32.941176%,69.411765%);fill-opacity:1;" />
<path d="M 233.136719 339.425781 C 221.601562 364.21875 209.066406 383.820312 195.8125 397.40625 L 309.316406 397.40625 C 279.144531 387.457031 252.675781 367.050781 233.136719 339.425781 Z M 233.136719 339.425781 " style=" stroke:none;fill-rule:nonzero;fill:rgb(53.333333%,49.411765%,100%);fill-opacity:1;" />
<path d="M 243.375 397.40625 C 248.871094 389.683594 254.195312 380.011719 259.3125 368.554688 C 249.640625 360.097656 240.847656 350.328125 233.132812 339.425781 C 221.597656 364.21875 209.066406 383.820312 195.808594 397.40625 L 309.3125 397.40625 Z M 243.375 397.40625 " style=" stroke:none;fill-rule:nonzero;fill:rgb(37.647059%,37.647059%,95.686275%);fill-opacity:1;" />
<path d="M 259.3125 368.554688 C 288.824219 302.484375 304.570312 194.332031 312.042969 122.320312 C 313.128906 116.324219 312.140625 104.921875 318.648438 98.277344 C 309.011719 91.121094 293.742188 95.726562 291.398438 112.207031 C 290.085938 118.949219 275.378906 248.617188 233.132812 339.425781 C 240.847656 350.328125 249.640625 360.101562 259.3125 368.554688 Z M 259.3125 368.554688 " style=" stroke:none;fill-rule:nonzero;fill:rgb(94.901961%,25.098039%,68.235294%);fill-opacity:1;" />
<path d="M 494.328125 349.648438 C 455.425781 286.136719 442.234375 201.992188 439.617188 192.015625 C 435.589844 170.589844 409.363281 170.414062 405.121094 191.78125 C 403.921875 196.773438 394.628906 253.378906 371.554688 307.949219 C 386.691406 348.308594 404.035156 378.90625 422.8125 397.40625 L 469.414062 397.40625 C 479.308594 382.507812 487.691406 366.519531 494.328125 349.648438 Z M 494.328125 349.648438 " style=" stroke:none;fill-rule:nonzero;fill:rgb(96.862745%,87.45098%,60.392157%);fill-opacity:1;" />
<path d="M 309.316406 397.40625 L 422.8125 397.40625 C 404.035156 378.90625 386.691406 348.3125 371.554688 307.949219 C 354.121094 349.183594 332.859375 380.105469 309.316406 397.40625 Z M 309.316406 397.40625 " style=" stroke:none;fill-rule:nonzero;fill:rgb(98.431373%,56.862745%,54.117647%);fill-opacity:1;" />
<path d="M 358.527344 397.40625 C 369.535156 386.382812 379.863281 369.828125 389.21875 348.605469 C 383.054688 336.46875 377.152344 322.878906 371.554688 307.949219 C 354.121094 349.183594 332.859375 380.101562 309.316406 397.40625 L 422.8125 397.40625 Z M 358.527344 397.40625 " style=" stroke:none;fill-rule:nonzero;fill:rgb(95.686275%,41.176471%,41.176471%);fill-opacity:1;" />
<path d="M 428.851562 191.78125 C 429.589844 186.691406 431.253906 182.835938 433.390625 180.1875 C 424.152344 171.785156 408.335938 175.597656 405.121094 191.78125 C 403.921875 196.773438 394.628906 253.378906 371.554688 307.949219 C 377.152344 322.878906 383.054688 336.46875 389.21875 348.605469 C 415.988281 287.890625 425.152344 212.675781 428.851562 191.78125 Z M 428.851562 191.78125 " style=" stroke:none;fill-rule:nonzero;fill:rgb(95.686275%,78.039216%,34.509804%);fill-opacity:1;" />
<path d="M 82.3125 122.839844 L 70.878906 122.839844 C 65.804688 122.839844 61.691406 118.726562 61.691406 113.652344 C 61.691406 108.578125 65.804688 104.46875 70.878906 104.46875 L 82.3125 104.46875 C 87.382812 104.46875 91.496094 108.578125 91.496094 113.652344 C 91.496094 118.726562 87.386719 122.839844 82.3125 122.839844 Z M 82.3125 122.839844 " style=" stroke:none;fill-rule:nonzero;fill:rgb(20.784314%,55.686275%,72.941176%);fill-opacity:1;" />
<path d="M 82.3125 179.589844 L 70.878906 179.589844 C 65.804688 179.589844 61.691406 175.476562 61.691406 170.402344 C 61.691406 165.328125 65.804688 161.21875 70.878906 161.21875 L 82.3125 161.21875 C 87.382812 161.21875 91.496094 165.328125 91.496094 170.402344 C 91.496094 175.476562 87.386719 179.589844 82.3125 179.589844 Z M 82.3125 179.589844 " style=" stroke:none;fill-rule:nonzero;fill:rgb(20.784314%,55.686275%,72.941176%);fill-opacity:1;" />
<path d="M 82.3125 236.339844 L 70.878906 236.339844 C 65.804688 236.339844 61.691406 232.230469 61.691406 227.15625 C 61.691406 222.082031 65.804688 217.96875 70.878906 217.96875 L 82.3125 217.96875 C 87.382812 217.96875 91.496094 222.082031 91.496094 227.15625 C 91.496094 232.230469 87.386719 236.339844 82.3125 236.339844 Z M 82.3125 236.339844 " style=" stroke:none;fill-rule:nonzero;fill:rgb(20.784314%,55.686275%,72.941176%);fill-opacity:1;" />
<path d="M 82.3125 293.089844 L 70.878906 293.089844 C 65.804688 293.089844 61.691406 288.980469 61.691406 283.90625 C 61.691406 278.832031 65.804688 274.71875 70.878906 274.71875 L 82.3125 274.71875 C 87.382812 274.71875 91.496094 278.832031 91.496094 283.90625 C 91.496094 288.980469 87.386719 293.089844 82.3125 293.089844 Z M 82.3125 293.089844 " style=" stroke:none;fill-rule:nonzero;fill:rgb(20.784314%,55.686275%,72.941176%);fill-opacity:1;" />
<path d="M 82.3125 349.84375 L 70.878906 349.84375 C 65.804688 349.84375 61.691406 345.730469 61.691406 340.65625 C 61.691406 335.582031 65.804688 331.472656 70.878906 331.472656 L 82.3125 331.472656 C 87.382812 331.472656 91.496094 335.582031 91.496094 340.65625 C 91.496094 345.730469 87.386719 349.84375 82.3125 349.84375 Z M 82.3125 349.84375 " style=" stroke:none;fill-rule:nonzero;fill:rgb(20.784314%,55.686275%,72.941176%);fill-opacity:1;" />
<path d="M 41.121094 122.839844 L 40.980469 122.839844 C 35.910156 122.839844 31.796875 118.726562 31.796875 113.652344 C 31.796875 108.578125 35.910156 104.46875 40.980469 104.46875 L 41.121094 104.46875 C 46.191406 104.46875 50.304688 108.578125 50.304688 113.652344 C 50.304688 118.726562 46.191406 122.839844 41.121094 122.839844 Z M 41.121094 122.839844 " style=" stroke:none;fill-rule:nonzero;fill:rgb(20.784314%,55.686275%,72.941176%);fill-opacity:1;" />
<path d="M 41.121094 179.589844 L 40.980469 179.589844 C 35.910156 179.589844 31.796875 175.476562 31.796875 170.402344 C 31.796875 165.328125 35.910156 161.21875 40.980469 161.21875 L 41.121094 161.21875 C 46.191406 161.21875 50.304688 165.328125 50.304688 170.402344 C 50.304688 175.476562 46.191406 179.589844 41.121094 179.589844 Z M 41.121094 179.589844 " style=" stroke:none;fill-rule:nonzero;fill:rgb(20.784314%,55.686275%,72.941176%);fill-opacity:1;" />
<path d="M 41.121094 236.339844 L 40.980469 236.339844 C 35.910156 236.339844 31.796875 232.230469 31.796875 227.15625 C 31.796875 222.082031 35.910156 217.96875 40.980469 217.96875 L 41.121094 217.96875 C 46.191406 217.96875 50.304688 222.082031 50.304688 227.15625 C 50.304688 232.230469 46.191406 236.339844 41.121094 236.339844 Z M 41.121094 236.339844 " style=" stroke:none;fill-rule:nonzero;fill:rgb(20.784314%,55.686275%,72.941176%);fill-opacity:1;" />
<path d="M 41.121094 293.089844 L 40.980469 293.089844 C 35.910156 293.089844 31.796875 288.980469 31.796875 283.90625 C 31.796875 278.832031 35.910156 274.71875 40.980469 274.71875 L 41.121094 274.71875 C 46.191406 274.71875 50.304688 278.832031 50.304688 283.90625 C 50.304688 288.980469 46.191406 293.089844 41.121094 293.089844 Z M 41.121094 293.089844 " style=" stroke:none;fill-rule:nonzero;fill:rgb(20.784314%,55.686275%,72.941176%);fill-opacity:1;" />
<path d="M 41.121094 349.84375 L 40.980469 349.84375 C 35.910156 349.84375 31.796875 345.730469 31.796875 340.65625 C 31.796875 335.582031 35.910156 331.472656 40.980469 331.472656 L 41.121094 331.472656 C 46.191406 331.472656 50.304688 335.582031 50.304688 340.65625 C 50.304688 345.730469 46.191406 349.84375 41.121094 349.84375 Z M 41.121094 349.84375 " style=" stroke:none;fill-rule:nonzero;fill:rgb(20.784314%,55.686275%,72.941176%);fill-opacity:1;" />
<path d="M 139.0625 418.023438 C 133.988281 418.023438 129.875 413.914062 129.875 408.839844 L 129.875 397.40625 C 129.875 392.332031 133.988281 388.222656 139.0625 388.222656 C 144.136719 388.222656 148.246094 392.332031 148.246094 397.40625 L 148.246094 408.839844 C 148.246094 413.914062 144.136719 418.023438 139.0625 418.023438 Z M 139.0625 418.023438 " style=" stroke:none;fill-rule:nonzero;fill:rgb(20.784314%,55.686275%,72.941176%);fill-opacity:1;" />
<path d="M 195.8125 418.023438 C 190.738281 418.023438 186.628906 413.914062 186.628906 408.839844 L 186.628906 397.40625 C 186.628906 392.332031 190.738281 388.222656 195.8125 388.222656 C 200.886719 388.222656 205 392.332031 205 397.40625 L 205 408.839844 C 205 413.914062 200.886719 418.023438 195.8125 418.023438 Z M 195.8125 418.023438 " style=" stroke:none;fill-rule:nonzero;fill:rgb(20.784314%,55.686275%,72.941176%);fill-opacity:1;" />
<path d="M 252.5625 418.023438 C 247.492188 418.023438 243.378906 413.914062 243.378906 408.839844 L 243.378906 397.40625 C 243.378906 392.332031 247.492188 388.222656 252.5625 388.222656 C 257.636719 388.222656 261.75 392.332031 261.75 397.40625 L 261.75 408.839844 C 261.75 413.914062 257.636719 418.023438 252.5625 418.023438 Z M 252.5625 418.023438 " style=" stroke:none;fill-rule:nonzero;fill:rgb(20.784314%,55.686275%,72.941176%);fill-opacity:1;" />
<path d="M 309.316406 418.023438 C 304.242188 418.023438 300.128906 413.914062 300.128906 408.839844 L 300.128906 397.40625 C 300.128906 392.332031 304.242188 388.222656 309.316406 388.222656 C 314.386719 388.222656 318.5 392.332031 318.5 397.40625 L 318.5 408.839844 C 318.5 413.914062 314.386719 418.023438 309.316406 418.023438 Z M 309.316406 418.023438 " style=" stroke:none;fill-rule:nonzero;fill:rgb(24.313725%,64.313725%,80%);fill-opacity:1;" />
<path d="M 366.066406 418.023438 C 360.992188 418.023438 356.878906 413.914062 356.878906 408.839844 L 356.878906 397.40625 C 356.878906 392.332031 360.992188 388.222656 366.066406 388.222656 C 371.140625 388.222656 375.253906 392.332031 375.253906 397.40625 L 375.253906 408.839844 C 375.253906 413.914062 371.140625 418.023438 366.066406 418.023438 Z M 366.066406 418.023438 " style=" stroke:none;fill-rule:nonzero;fill:rgb(24.313725%,64.313725%,80%);fill-opacity:1;" />
<path d="M 422.816406 418.023438 C 417.742188 418.023438 413.632812 413.914062 413.632812 408.839844 L 413.632812 397.40625 C 413.632812 392.332031 417.742188 388.222656 422.816406 388.222656 C 427.890625 388.222656 432.003906 392.332031 432.003906 397.40625 L 432.003906 408.839844 C 432.003906 413.914062 427.890625 418.023438 422.816406 418.023438 Z M 422.816406 418.023438 " style=" stroke:none;fill-rule:nonzero;fill:rgb(24.313725%,64.313725%,80%);fill-opacity:1;" />
<path d="M 139.058594 447.136719 C 133.984375 447.136719 129.871094 443.023438 129.871094 437.949219 L 129.871094 437.761719 C 129.871094 432.6875 133.984375 428.574219 139.058594 428.574219 C 144.132812 428.574219 148.246094 432.6875 148.246094 437.761719 L 148.246094 437.949219 C 148.246094 443.023438 144.132812 447.136719 139.058594 447.136719 Z M 139.058594 447.136719 " style=" stroke:none;fill-rule:nonzero;fill:rgb(20.784314%,55.686275%,72.941176%);fill-opacity:1;" />
<path d="M 195.8125 447.136719 C 190.738281 447.136719 186.625 443.023438 186.625 437.949219 L 186.625 437.761719 C 186.625 432.6875 190.738281 428.574219 195.8125 428.574219 C 200.882812 428.574219 204.996094 432.6875 204.996094 437.761719 L 204.996094 437.949219 C 204.996094 443.023438 200.882812 447.136719 195.8125 447.136719 Z M 195.8125 447.136719 " style=" stroke:none;fill-rule:nonzero;fill:rgb(20.784314%,55.686275%,72.941176%);fill-opacity:1;" />
<path d="M 252.5625 447.136719 C 247.488281 447.136719 243.375 443.023438 243.375 437.949219 L 243.375 437.761719 C 243.375 432.6875 247.488281 428.574219 252.5625 428.574219 C 257.632812 428.574219 261.746094 432.6875 261.746094 437.761719 L 261.746094 437.949219 C 261.746094 443.023438 257.636719 447.136719 252.5625 447.136719 Z M 252.5625 447.136719 " style=" stroke:none;fill-rule:nonzero;fill:rgb(20.784314%,55.686275%,72.941176%);fill-opacity:1;" />
<path d="M 309.3125 447.136719 C 304.238281 447.136719 300.128906 443.023438 300.128906 437.949219 L 300.128906 437.761719 C 300.128906 432.6875 304.238281 428.574219 309.3125 428.574219 C 314.386719 428.574219 318.5 432.6875 318.5 437.761719 L 318.5 437.949219 C 318.5 443.023438 314.386719 447.136719 309.3125 447.136719 Z M 309.3125 447.136719 " style=" stroke:none;fill-rule:nonzero;fill:rgb(24.313725%,64.313725%,80%);fill-opacity:1;" />
<path d="M 366.0625 447.136719 C 360.992188 447.136719 356.878906 443.023438 356.878906 437.949219 L 356.878906 437.761719 C 356.878906 432.6875 360.992188 428.574219 366.0625 428.574219 C 371.136719 428.574219 375.25 432.6875 375.25 437.761719 L 375.25 437.949219 C 375.25 443.023438 371.136719 447.136719 366.0625 447.136719 Z M 366.0625 447.136719 " style=" stroke:none;fill-rule:nonzero;fill:rgb(24.313725%,64.313725%,80%);fill-opacity:1;" />
<path d="M 422.8125 447.136719 C 417.742188 447.136719 413.628906 443.023438 413.628906 437.949219 L 413.628906 437.761719 C 413.628906 432.6875 417.742188 428.574219 422.8125 428.574219 C 427.886719 428.574219 432 432.6875 432 437.761719 L 432 437.949219 C 432 443.023438 427.886719 447.136719 422.8125 447.136719 Z M 422.8125 447.136719 " style=" stroke:none;fill-rule:nonzero;fill:rgb(24.313725%,64.313725%,80%);fill-opacity:1;" />
<path d="M 475.246094 388.222656 L 70.878906 388.222656 C 65.804688 388.222656 61.691406 392.332031 61.691406 397.40625 C 61.691406 402.480469 65.804688 406.59375 70.878906 406.59375 L 463.019531 406.59375 C 467.347656 400.65625 471.433594 394.53125 475.246094 388.222656 Z M 475.246094 388.222656 " style=" stroke:none;fill-rule:nonzero;fill:rgb(20.784314%,55.686275%,72.941176%);fill-opacity:1;" />
<path d="M 280.691406 397.40625 C 280.691406 392.332031 284.804688 388.222656 289.878906 388.222656 L 70.878906 388.222656 C 65.804688 388.222656 61.691406 392.332031 61.691406 397.40625 C 61.691406 402.480469 65.804688 406.59375 70.878906 406.59375 L 289.878906 406.59375 C 284.804688 406.59375 280.691406 402.480469 280.691406 397.40625 Z M 280.691406 397.40625 " style=" stroke:none;fill-rule:nonzero;fill:rgb(13.72549%,42.352941%,60.784314%);fill-opacity:1;" />
<path d="M 73.125 76.882812 L 73.125 408.839844 C 73.125 413.914062 77.238281 418.023438 82.3125 418.023438 C 87.382812 418.023438 91.496094 413.914062 91.496094 408.839844 L 91.496094 59.863281 C 85.097656 65.238281 78.96875 70.917969 73.125 76.882812 Z M 73.125 76.882812 " style=" stroke:none;fill-rule:nonzero;fill:rgb(13.72549%,42.352941%,60.784314%);fill-opacity:1;" />
</g>
</svg>