<svg xmlns="http://www.w3.org/2000/svg" height="512pt" version="1.1" viewBox="0 0 512 512" width="512pt">
<g id="surface1">
<path d="M 512 256 C 512 397.386719 397.386719 512 256 512 C 114.613281 512 0 397.386719 0 256 C 0 114.613281 114.613281 0 256 0 C 397.386719 0 512 114.613281 512 256 Z M 512 256 " style=" stroke:none;fill-rule:nonzero;fill:rgb(37.647059%,37.647059%,95.686275%);fill-opacity:1;" />
<path d="M 404.59375 367.078125 C 394.210938 356.691406 377.367188 356.691406 366.984375 367.078125 C 356.597656 377.464844 356.597656 394.304688 366.984375 404.691406 L 417.175781 454.882812 C 430.980469 443.683594 443.59375 431.078125 454.796875 417.28125 Z M 404.59375 367.078125 " style=" stroke:none;fill-rule:nonzero;fill:rgb(98.431373%,56.862745%,54.117647%);fill-opacity:1;" />
<path d="M 388.023438 390.269531 C 379.675781 381.921875 378.042969 369.410156 383.113281 359.425781 C 361.070312 361.640625 351.042969 388.75 366.980469 404.691406 L 417.175781 454.882812 C 423.683594 449.601562 429.914062 444 435.871094 438.117188 Z M 388.023438 390.269531 " style=" stroke:none;fill-rule:nonzero;fill:rgb(85.882353%,25.098039%,25.098039%);fill-opacity:1;" />
<path d="M 53.371094 61.53125 C -18.621094 137.742188 -17.652344 258.261719 55.496094 333.359375 C 116.480469 395.96875 209.042969 409 283.183594 372.472656 C 308.636719 359.933594 339.140625 364.714844 359.722656 384.035156 C 360.21875 377.996094 362.765625 372.097656 367.382812 367.480469 C 372.085938 362.78125 378.109375 360.238281 384.257812 359.800781 C 365.714844 337.816406 361.269531 306.820312 373.722656 280.496094 C 408.214844 207.582031 395.359375 117.664062 335.132812 57.441406 C 257.207031 -20.484375 129.558594 -19.121094 53.371094 61.53125 Z M 53.371094 61.53125 " style=" stroke:none;fill-rule:nonzero;fill:rgb(86.27451%,91.372549%,96.078431%);fill-opacity:1;" />
<path d="M 209.664062 344.25 C 108.765625 315.785156 47.667969 211.898438 71.90625 109.902344 C 81.207031 70.773438 101.578125 37.292969 128.835938 11.859375 C 101.058594 21.960938 75.117188 38.507812 53.371094 61.53125 C -18.621094 137.742188 -17.652344 258.261719 55.496094 333.359375 C 116.480469 395.96875 209.042969 409 283.183594 372.472656 C 308.636719 359.933594 339.140625 364.714844 359.722656 384.035156 C 360.796875 371.011719 371.15625 360.726562 384.257812 359.800781 C 374.933594 348.746094 369.175781 335.410156 367.339844 321.535156 C 322 349.949219 265.273438 359.933594 209.664062 344.25 Z M 209.664062 344.25 " style=" stroke:none;fill-rule:nonzero;fill:rgb(74.117647%,85.098039%,93.72549%);fill-opacity:1;" />
<path d="M 323.671875 366.371094 C 336.90625 368.472656 349.53125 374.46875 359.722656 384.035156 C 360.796875 371.011719 371.15625 360.726562 384.257812 359.800781 C 375.160156 349.019531 369.46875 336.0625 367.484375 322.558594 Z M 323.671875 366.371094 " style=" stroke:none;fill-rule:nonzero;fill:rgb(59.215686%,78.039216%,90.980392%);fill-opacity:1;" />
<path d="M 366.984375 367.078125 C 356.597656 377.464844 356.597656 394.304688 366.984375 404.691406 L 377.058594 414.765625 L 414.671875 377.152344 L 404.59375 367.078125 C 394.207031 356.691406 377.367188 356.691406 366.984375 367.078125 Z M 366.984375 367.078125 " style=" stroke:none;fill-rule:nonzero;fill:rgb(85.882353%,25.098039%,25.098039%);fill-opacity:1;" />
<path d="M 388.023438 390.269531 C 379.675781 381.921875 378.042969 369.410156 383.113281 359.425781 C 361.070312 361.640625 351.042969 388.75 366.980469 404.691406 L 417.175781 454.882812 C 423.683594 449.601562 429.914062 444 435.871094 438.117188 Z M 388.023438 390.269531 " style=" stroke:none;fill-rule:nonzero;fill:rgb(95.686275%,41.176471%,41.176471%);fill-opacity:1;" />
<path d="M 366.984375 367.078125 C 356.597656 377.464844 356.597656 394.304688 366.984375 404.691406 L 377.058594 414.765625 L 414.671875 377.152344 L 404.59375 367.078125 C 394.207031 356.691406 377.367188 356.691406 366.984375 367.078125 Z M 366.984375 367.078125 " style=" stroke:none;fill-rule:nonzero;fill:rgb(95.686275%,41.176471%,41.176471%);fill-opacity:1;" />
<path d="M 364.574219 369.851562 C 356.675781 380.273438 357.476562 395.183594 366.980469 404.691406 L 377.058594 414.765625 L 394.789062 397.03125 L 388.023438 390.265625 C 379.675781 381.921875 378.042969 369.40625 383.113281 359.425781 C 382.628906 359.578125 372.015625 360.03125 364.574219 369.851562 Z M 364.574219 369.851562 " style=" stroke:none;fill-rule:nonzero;fill:rgb(91.764706%,32.941176%,32.941176%);fill-opacity:1;" />
<path d="M 310.976562 311.074219 C 247.710938 374.339844 144.769531 374.339844 81.5 311.074219 C 18.234375 247.808594 18.234375 144.863281 81.5 81.597656 C 144.769531 18.332031 247.710938 18.332031 310.976562 81.597656 C 374.246094 144.863281 374.242188 247.808594 310.976562 311.074219 Z M 310.976562 311.074219 " style=" stroke:none;fill-rule:nonzero;fill:rgb(53.333333%,49.411765%,100%);fill-opacity:1;" />
<path d="M 80.519531 82.605469 C 18.246094 145.953125 18.566406 248.140625 81.5 311.074219 C 125.828125 355.398438 189.632812 368.664062 245.617188 350.878906 C 233.664062 349.808594 221.640625 347.628906 209.664062 344.25 C 108.765625 315.785156 47.667969 211.898438 71.90625 109.902344 C 74.148438 100.460938 77.042969 91.355469 80.519531 82.605469 Z M 80.519531 82.605469 " style=" stroke:none;fill-rule:nonzero;fill:rgb(37.647059%,37.647059%,95.686275%);fill-opacity:1;" />
<path d="M 74.472656 219.835938 C 62.046875 219.835938 51.972656 209.761719 51.972656 197.335938 C 51.972656 118.398438 116.191406 54.179688 195.128906 54.179688 C 207.554688 54.179688 217.628906 64.253906 217.628906 76.679688 C 217.628906 89.109375 207.554688 99.179688 195.128906 99.179688 C 141.003906 99.179688 96.972656 143.214844 96.972656 197.335938 C 96.972656 209.761719 86.898438 219.835938 74.472656 219.835938 Z M 74.472656 219.835938 " style=" stroke:none;fill-rule:nonzero;fill:rgb(86.27451%,91.372549%,96.078431%);fill-opacity:1;" />
<path d="M 109.179688 82.925781 C 74.464844 109.074219 51.972656 150.625 51.972656 197.335938 C 51.972656 209.761719 62.046875 219.835938 74.472656 219.835938 C 86.898438 219.835938 96.972656 209.761719 96.972656 197.335938 C 96.972656 165.441406 112.269531 137.054688 135.90625 119.113281 C 113.941406 126.980469 95.386719 101.332031 109.179688 82.925781 Z M 109.179688 82.925781 " style=" stroke:none;fill-rule:nonzero;fill:rgb(74.117647%,85.098039%,93.72549%);fill-opacity:1;" />
<path d="M 195.128906 54.179688 C 182.703125 54.179688 172.628906 64.253906 172.628906 76.679688 C 172.628906 89.109375 182.703125 99.179688 195.128906 99.179688 C 249.25 99.179688 293.28125 143.214844 293.28125 197.335938 C 293.28125 251.457031 249.25 295.488281 195.128906 295.488281 C 182.703125 295.488281 172.628906 305.5625 172.628906 317.988281 C 172.628906 330.414062 182.703125 340.488281 195.128906 340.488281 C 274.0625 340.488281 338.28125 276.269531 338.28125 197.335938 C 338.28125 118.398438 274.0625 54.179688 195.128906 54.179688 Z M 195.128906 54.179688 " style=" stroke:none;fill-rule:nonzero;fill:rgb(98.823529%,52.54902%,74.901961%);fill-opacity:1;" />
<path d="M 166.761719 195.78125 C 152.625 195.78125 141.121094 182.457031 141.121094 166.074219 C 141.121094 149.695312 152.625 136.367188 166.761719 136.367188 C 180.898438 136.367188 192.402344 149.695312 192.402344 166.074219 C 192.402344 182.457031 180.898438 195.78125 166.761719 195.78125 Z M 166.761719 154.574219 C 163.246094 154.574219 159.328125 159.296875 159.328125 166.074219 C 159.328125 172.855469 163.246094 177.578125 166.761719 177.578125 C 170.277344 177.578125 174.195312 172.855469 174.195312 166.074219 C 174.195312 159.296875 170.277344 154.574219 166.761719 154.574219 Z M 166.761719 154.574219 " style=" stroke:none;fill-rule:nonzero;fill:rgb(86.27451%,91.372549%,96.078431%);fill-opacity:1;" />
<path d="M 161.484375 250.46875 C 157.214844 247.816406 155.898438 242.203125 158.554688 237.929688 L 216.234375 145.050781 C 218.886719 140.777344 224.5 139.464844 228.769531 142.117188 C 233.042969 144.769531 234.355469 150.382812 231.703125 154.652344 L 174.019531 247.535156 C 171.386719 251.777344 165.785156 253.136719 161.484375 250.46875 Z M 161.484375 250.46875 " style=" stroke:none;fill-rule:nonzero;fill:rgb(86.27451%,91.372549%,96.078431%);fill-opacity:1;" />
<path d="M 166.15625 177.527344 C 162.8125 177.027344 159.328125 172.46875 159.328125 166.074219 C 159.328125 159.683594 162.8125 155.125 166.15625 154.625 C 161.171875 148.515625 163.917969 139.246094 171.472656 136.878906 C 169.945312 136.546875 168.371094 136.367188 166.761719 136.367188 C 152.621094 136.367188 141.121094 149.695312 141.121094 166.074219 C 141.121094 184.476562 155.570312 198.710938 171.472656 195.269531 C 163.921875 192.902344 161.167969 183.636719 166.15625 177.527344 Z M 166.15625 177.527344 " style=" stroke:none;fill-rule:nonzero;fill:rgb(74.117647%,85.098039%,93.72549%);fill-opacity:1;" />
<path d="M 223.492188 256.164062 C 209.355469 256.164062 197.855469 242.835938 197.855469 226.457031 C 197.855469 210.074219 209.355469 196.746094 223.492188 196.746094 C 237.632812 196.746094 249.132812 210.074219 249.132812 226.457031 C 249.132812 242.835938 237.632812 256.164062 223.492188 256.164062 Z M 223.492188 214.953125 C 219.976562 214.953125 216.058594 219.679688 216.058594 226.457031 C 216.058594 233.234375 219.976562 237.957031 223.492188 237.957031 C 227.007812 237.957031 230.925781 233.234375 230.925781 226.457031 C 230.925781 219.679688 227.007812 214.953125 223.492188 214.953125 Z M 223.492188 214.953125 " style=" stroke:none;fill-rule:nonzero;fill:rgb(86.27451%,91.372549%,96.078431%);fill-opacity:1;" />
<path d="M 222.890625 237.90625 C 219.542969 237.40625 216.0625 232.847656 216.0625 226.453125 C 216.0625 220.0625 219.542969 215.503906 222.890625 215.003906 C 217.902344 208.894531 220.652344 199.628906 228.207031 197.257812 C 226.675781 196.925781 225.105469 196.746094 223.492188 196.746094 C 209.355469 196.746094 197.855469 210.074219 197.855469 226.453125 C 197.855469 244.855469 212.300781 259.089844 228.207031 255.648438 C 220.652344 253.28125 217.902344 244.015625 222.890625 237.90625 Z M 222.890625 237.90625 " style=" stroke:none;fill-rule:nonzero;fill:rgb(74.117647%,85.098039%,93.72549%);fill-opacity:1;" />
<path d="M 187.472656 193.1875 C 187.472656 192.398438 187.578125 191.636719 187.757812 190.902344 L 158.554688 237.933594 C 155.898438 242.203125 157.214844 247.816406 161.484375 250.46875 C 165.789062 253.140625 171.390625 251.773438 174.019531 247.535156 L 203.277344 200.425781 C 197.105469 205.753906 187.472656 201.347656 187.472656 193.1875 Z M 187.472656 193.1875 " style=" stroke:none;fill-rule:nonzero;fill:rgb(74.117647%,85.098039%,93.72549%);fill-opacity:1;" />
<path d="M 253.464844 328.050781 C 230.1875 332.398438 216.214844 303.703125 233.046875 287.867188 C 221.375 292.773438 208.5625 295.488281 195.128906 295.488281 C 195.128906 295.488281 195.125 295.488281 195.125 295.488281 C 141.003906 295.488281 96.972656 251.457031 96.972656 197.335938 C 96.972656 184.90625 86.898438 174.835938 74.472656 174.835938 C 62.046875 174.835938 51.972656 184.90625 51.972656 197.335938 C 51.972656 276.269531 116.191406 340.488281 195.128906 340.488281 C 195.132812 340.488281 195.136719 340.488281 195.136719 340.488281 C 215.898438 340.488281 235.640625 336.039062 253.464844 328.050781 Z M 253.464844 328.050781 " style=" stroke:none;fill-rule:nonzero;fill:rgb(96.862745%,32.941176%,69.411765%);fill-opacity:1;" />
</g>
</svg>