<svg xmlns="http://www.w3.org/2000/svg" height="512pt" version="1.1" viewBox="-15 0 512 512.00023" width="512pt">
<g id="surface1">
<path d="M 481.398438 271.300781 C 481.398438 404.234375 373.636719 512 240.699219 512 C 107.765625 512 0 404.234375 0 271.300781 C 0 138.367188 107.765625 30.601562 240.699219 30.601562 C 373.636719 30.601562 481.398438 138.367188 481.398438 271.300781 Z M 481.398438 271.300781 " style=" stroke:none;fill-rule:nonzero;fill:rgb(6.27451%,29.019608%,48.627451%);fill-opacity:1;" />
<path d="M 94.425781 134.304688 C 92.832031 132.601562 90.132812 132.601562 88.539062 134.304688 L 35.074219 191.414062 C 32.660156 193.992188 34.488281 198.207031 38.019531 198.207031 L 54.378906 198.207031 L 54.378906 423.683594 C 65.164062 436.855469 77.320312 448.855469 90.625 459.480469 L 128.585938 459.480469 L 128.585938 198.207031 L 144.945312 198.207031 C 148.476562 198.207031 150.304688 193.992188 147.890625 191.414062 Z M 94.425781 134.304688 " style=" stroke:none;fill-rule:nonzero;fill:rgb(96.862745%,87.45098%,60.392157%);fill-opacity:1;" />
<path d="M 427.019531 198.207031 L 443.382812 198.207031 C 446.914062 198.207031 448.738281 193.992188 446.328125 191.414062 L 392.863281 134.304688 C 391.269531 132.601562 388.566406 132.601562 386.972656 134.304688 L 333.507812 191.414062 C 331.097656 193.992188 332.925781 198.207031 336.453125 198.207031 L 352.816406 198.207031 L 352.816406 459.480469 L 390.773438 459.480469 C 404.082031 448.855469 416.234375 436.851562 427.019531 423.683594 Z M 427.019531 198.207031 " style=" stroke:none;fill-rule:nonzero;fill:rgb(98.823529%,52.54902%,74.901961%);fill-opacity:1;" />
<path d="M 237.753906 1.277344 L 184.289062 58.386719 C 181.878906 60.964844 183.707031 65.179688 187.234375 65.179688 L 203.597656 65.179688 L 203.597656 459.480469 L 277.800781 459.480469 L 277.800781 65.179688 L 294.164062 65.179688 C 297.695312 65.179688 299.523438 60.964844 297.109375 58.386719 L 243.644531 1.277344 C 242.050781 -0.425781 239.347656 -0.425781 237.753906 1.277344 Z M 237.753906 1.277344 " style=" stroke:none;fill-rule:nonzero;fill:rgb(98.431373%,56.862745%,54.117647%);fill-opacity:1;" />
<path d="M 88.539062 289.058594 L 54.378906 325.546875 C 54.378906 334.777344 54.378906 413.960938 54.378906 423.683594 C 65.164062 436.855469 77.320312 448.855469 90.625 459.480469 L 128.585938 459.480469 C 128.585938 443.023438 128.585938 342.691406 128.585938 325.546875 L 94.425781 289.058594 C 92.832031 287.355469 90.132812 287.355469 88.539062 289.058594 Z M 88.539062 289.058594 " style=" stroke:none;fill-rule:nonzero;fill:rgb(95.686275%,78.039216%,34.509804%);fill-opacity:1;" />
<path d="M 427.019531 325.546875 L 392.859375 289.058594 C 391.265625 287.355469 388.566406 287.355469 386.972656 289.058594 L 352.8125 325.546875 C 352.8125 342.6875 352.8125 443.023438 352.8125 459.480469 L 390.773438 459.480469 C 404.078125 448.855469 416.234375 436.851562 427.019531 423.683594 C 427.019531 413.964844 427.019531 334.78125 427.019531 325.546875 Z M 427.019531 325.546875 " style=" stroke:none;fill-rule:nonzero;fill:rgb(96.862745%,32.941176%,69.411765%);fill-opacity:1;" />
<path d="M 243.644531 156.03125 C 242.050781 154.328125 239.347656 154.328125 237.753906 156.03125 L 203.597656 192.519531 C 203.597656 204.300781 203.597656 446.847656 203.597656 459.480469 L 277.800781 459.480469 C 277.800781 446.84375 277.800781 204.300781 277.800781 192.519531 Z M 243.644531 156.03125 " style=" stroke:none;fill-rule:nonzero;fill:rgb(95.686275%,41.176471%,41.176471%);fill-opacity:1;" />
<path d="M 54.378906 377.335938 L 54.378906 423.683594 C 65.164062 436.855469 77.320312 448.855469 90.625 459.480469 L 128.585938 459.480469 L 128.585938 377.335938 C 114.050781 409.058594 68.921875 409.070312 54.378906 377.335938 Z M 54.378906 377.335938 " style=" stroke:none;fill-rule:nonzero;fill:rgb(91.764706%,70.196078%,22.352941%);fill-opacity:1;" />
<path d="M 203.597656 377.332031 L 203.597656 459.480469 L 277.800781 459.480469 L 277.800781 377.335938 C 263.269531 409.058594 218.136719 409.070312 203.597656 377.332031 Z M 203.597656 377.332031 " style=" stroke:none;fill-rule:nonzero;fill:rgb(91.764706%,32.941176%,32.941176%);fill-opacity:1;" />
<path d="M 352.816406 377.335938 L 352.816406 459.480469 L 390.773438 459.480469 C 404.078125 448.855469 416.234375 436.855469 427.019531 423.683594 L 427.019531 377.335938 C 412.484375 409.058594 367.355469 409.070312 352.816406 377.335938 Z M 352.816406 377.335938 " style=" stroke:none;fill-rule:nonzero;fill:rgb(94.901961%,25.098039%,68.235294%);fill-opacity:1;" />
<path d="M 400.503906 451.277344 L 80.898438 451.277344 C 87.453125 457.105469 94.320312 462.589844 101.488281 467.679688 L 379.914062 467.679688 C 387.082031 462.589844 393.945312 457.105469 400.503906 451.277344 Z M 400.503906 451.277344 " style=" stroke:none;fill-rule:nonzero;fill:rgb(20.784314%,55.686275%,72.941176%);fill-opacity:1;" />
<path d="M 278.003906 451.277344 L 80.898438 451.277344 C 87.453125 457.105469 94.320312 462.589844 101.488281 467.679688 L 278.003906 467.679688 C 271.289062 464.269531 271.277344 454.691406 278.003906 451.277344 Z M 278.003906 451.277344 " style=" stroke:none;fill-rule:nonzero;fill:rgb(13.72549%,42.352941%,60.784314%);fill-opacity:1;" />
</g>
</svg>