<svg xmlns="http://www.w3.org/2000/svg" height="512pt" version="1.1" viewBox="-8 0 512 512.00025" width="512pt">
<g id="surface1">
<path d="M 495.449219 264.273438 C 495.449219 401.089844 384.539062 512 247.726562 512 C 110.910156 512 0 401.089844 0 264.273438 C 0 127.460938 110.910156 16.550781 247.726562 16.550781 C 384.539062 16.550781 495.449219 127.460938 495.449219 264.273438 Z M 495.449219 264.273438 " style=" stroke:none;fill-rule:nonzero;fill:rgb(6.27451%,29.019608%,48.627451%);fill-opacity:1;" />
<path d="M 5.179688 314.871094 C 28.539062 427.421875 128.25 512 247.726562 512 L 247.726562 314.871094 Z M 5.179688 314.871094 " style=" stroke:none;fill-rule:nonzero;fill:rgb(1.960784%,49.411765%,78.823529%);fill-opacity:1;" />
<path d="M 490.269531 314.871094 L 247.726562 314.871094 L 247.726562 512 C 367.199219 512 466.914062 427.421875 490.269531 314.871094 Z M 490.269531 314.871094 " style=" stroke:none;fill-rule:nonzero;fill:rgb(5.490196%,55.294118%,85.882353%);fill-opacity:1;" />
<path d="M 3.519531 306.015625 C 4.640625 312.636719 6.019531 319.171875 7.65625 325.601562 L 247.726562 434.542969 L 487.792969 325.601562 C 489.429688 319.171875 490.804688 312.636719 491.929688 306.019531 L 274.5 207.351562 C 257.34375 199.566406 238.105469 199.566406 220.949219 207.351562 Z M 3.519531 306.015625 " style=" stroke:none;fill-rule:nonzero;fill:rgb(25.098039%,62.352941%,96.078431%);fill-opacity:1;" />
<path d="M 183.054688 224.546875 L 3.519531 306.015625 C 4.640625 312.636719 6.019531 319.171875 7.65625 325.601562 L 247.726562 434.542969 C 247.726562 434.542969 103.445312 352.390625 183.054688 224.546875 Z M 183.054688 224.546875 " style=" stroke:none;fill-rule:nonzero;fill:rgb(5.490196%,55.294118%,85.882353%);fill-opacity:1;" />
<path d="M 59.628906 311.828125 C 59.628906 313.789062 60.777344 315.570312 62.5625 316.378906 L 222.355469 388.890625 C 230.308594 392.5 239.019531 394.304688 247.726562 394.304688 L 247.726562 214.03125 L 59.628906 214.03125 Z M 59.628906 311.828125 " style=" stroke:none;fill-rule:nonzero;fill:rgb(4.313725%,71.764706%,50.980392%);fill-opacity:1;" />
<path d="M 247.726562 394.304688 C 256.433594 394.304688 265.140625 392.5 273.097656 388.890625 L 433.21875 316.226562 C 434.800781 315.507812 435.820312 313.933594 435.820312 312.195312 L 435.820312 214.03125 L 247.726562 214.03125 Z M 247.726562 394.304688 " style=" stroke:none;fill-rule:nonzero;fill:rgb(9.019608%,78.823529%,58.823529%);fill-opacity:1;" />
<path d="M 266.820312 137.34375 C 254.585938 131.792969 240.863281 131.792969 228.628906 137.34375 L 59.628906 214.03125 L 247.726562 299.386719 L 435.820312 214.03125 Z M 266.820312 137.34375 " style=" stroke:none;fill-rule:nonzero;fill:rgb(16.470588%,87.843137%,68.627451%);fill-opacity:1;" />
<path d="M 228.628906 137.34375 L 59.628906 214.03125 L 247.726562 299.386719 L 228.628906 290.722656 C 162.742188 260.820312 162.742188 167.242188 228.628906 137.34375 Z M 228.628906 137.34375 " style=" stroke:none;fill-rule:nonzero;fill:rgb(9.019608%,78.823529%,58.823529%);fill-opacity:1;" />
<path d="M 131.671875 208.585938 C 131.671875 212.128906 133.746094 215.347656 136.972656 216.808594 C 240.339844 263.714844 236.5625 263.304688 247.726562 263.304688 L 247.726562 113.773438 L 131.671875 113.773438 Z M 131.671875 208.585938 " style=" stroke:none;fill-rule:nonzero;fill:rgb(91.764706%,70.196078%,22.352941%);fill-opacity:1;" />
<path d="M 247.726562 263.304688 C 253.097656 263.304688 258.472656 262.191406 263.378906 259.964844 L 358.917969 209.371094 C 361.90625 207.785156 363.773438 204.679688 363.773438 201.300781 L 363.777344 113.773438 L 247.726562 113.773438 Z M 247.726562 263.304688 " style=" stroke:none;fill-rule:nonzero;fill:rgb(95.686275%,78.039216%,34.509804%);fill-opacity:1;" />
<path d="M 259.507812 66.457031 C 251.957031 63.035156 243.492188 63.035156 235.941406 66.457031 L 131.671875 113.773438 L 247.726562 166.4375 L 363.777344 113.773438 Z M 259.507812 66.457031 " style=" stroke:none;fill-rule:nonzero;fill:rgb(96.862745%,87.45098%,60.392157%);fill-opacity:1;" />
<path d="M 235.941406 66.457031 L 131.671875 113.773438 L 247.726562 166.4375 L 235.941406 161.089844 C 195.292969 142.644531 195.292969 84.90625 235.941406 66.457031 Z M 235.941406 66.457031 " style=" stroke:none;fill-rule:nonzero;fill:rgb(95.686275%,78.039216%,34.509804%);fill-opacity:1;" />
<path d="M 199.503906 113.800781 L 241.222656 132.730469 C 243.257812 133.65625 245.492188 134.121094 247.722656 134.121094 L 247.722656 20.726562 L 199.503906 20.726562 Z M 199.503906 113.800781 " style=" stroke:none;fill-rule:nonzero;fill:rgb(91.764706%,32.941176%,32.941176%);fill-opacity:1;" />
<path d="M 247.722656 134.121094 C 249.957031 134.121094 252.1875 133.65625 254.226562 132.730469 L 295.941406 113.800781 L 295.945312 106.191406 L 295.945312 20.726562 L 247.726562 20.726562 L 247.726562 134.121094 Z M 247.722656 134.121094 " style=" stroke:none;fill-rule:nonzero;fill:rgb(95.686275%,41.176471%,41.176471%);fill-opacity:1;" />
<path d="M 252.621094 1.066406 C 249.484375 -0.355469 245.964844 -0.355469 242.828125 1.066406 L 199.503906 20.726562 L 247.722656 42.609375 L 295.941406 20.726562 Z M 252.621094 1.066406 " style=" stroke:none;fill-rule:nonzero;fill:rgb(98.431373%,56.862745%,54.117647%);fill-opacity:1;" />
<path d="M 242.828125 1.066406 L 199.503906 20.726562 L 247.722656 42.609375 L 242.828125 40.386719 C 225.9375 32.722656 225.9375 8.730469 242.828125 1.066406 Z M 242.828125 1.066406 " style=" stroke:none;fill-rule:nonzero;fill:rgb(95.686275%,41.176471%,41.176471%);fill-opacity:1;" />
</g>
</svg>