<svg xmlns="http://www.w3.org/2000/svg" height="512pt" version="1.1" viewBox="0 -13 512 512" width="512pt">
<g id="surface1">
<path d="M 485.023438 242.511719 C 485.023438 376.445312 376.445312 485.023438 242.511719 485.023438 C 108.574219 485.023438 0 376.445312 0 242.511719 C 0 108.574219 108.574219 0 242.511719 0 C 376.445312 0 485.023438 108.574219 485.023438 242.511719 Z M 485.023438 242.511719 " style=" stroke:none;fill-rule:nonzero;fill:rgb(6.27451%,29.019608%,48.627451%);fill-opacity:1;" />
<path d="M 33.074219 364.816406 C 126.738281 524.867188 358.160156 525.074219 451.949219 364.816406 Z M 33.074219 364.816406 " style=" stroke:none;fill-rule:nonzero;fill:rgb(4.705882%,22.745098%,42.745098%);fill-opacity:1;" />
<path d="M 257.09375 364.816406 L 33.074219 364.816406 C 78.542969 442.511719 163.886719 490.003906 256.8125 484.597656 C 214.402344 422.007812 257.09375 373.359375 257.09375 373.359375 Z M 257.09375 364.816406 " style=" stroke:none;fill-rule:nonzero;fill:rgb(2.745098%,16.470588%,36.862745%);fill-opacity:1;" />
<path d="M 484.777344 162.164062 L 379.238281 108.472656 C 375.035156 106.335938 373.359375 101.191406 375.5 96.988281 C 377.636719 92.78125 382.78125 91.105469 386.984375 93.246094 L 492.523438 146.9375 C 496.726562 149.078125 498.402344 154.222656 496.261719 158.425781 C 494.132812 162.617188 488.992188 164.3125 484.777344 162.164062 Z M 484.777344 162.164062 " style=" stroke:none;fill-rule:nonzero;fill:rgb(96.862745%,87.45098%,60.392157%);fill-opacity:1;" />
<path d="M 272.742188 261.820312 C 268.851562 259.152344 267.863281 253.835938 270.53125 249.945312 L 376.066406 96.027344 C 378.734375 92.136719 384.054688 91.148438 387.941406 93.816406 C 391.835938 96.484375 392.824219 101.800781 390.15625 105.691406 L 284.617188 259.605469 C 281.957031 263.492188 276.640625 264.492188 272.742188 261.820312 Z M 272.742188 261.820312 " style=" stroke:none;fill-rule:nonzero;fill:rgb(96.862745%,87.45098%,60.392157%);fill-opacity:1;" />
<path d="M 298.160156 209.648438 L 270.53125 249.945312 C 267.863281 253.835938 268.851562 259.152344 272.742188 261.820312 C 276.644531 264.492188 281.957031 263.488281 284.617188 259.605469 L 312.011719 219.660156 C 305.222656 220.953125 299.015625 216.210938 298.160156 209.648438 Z M 298.160156 209.648438 " style=" stroke:none;fill-rule:nonzero;fill:rgb(95.686275%,78.039216%,34.509804%);fill-opacity:1;" />
<path d="M 275.339844 263.019531 L 169.800781 234.386719 C 165.246094 233.148438 162.558594 228.457031 163.792969 223.90625 C 165.027344 219.351562 169.722656 216.660156 174.273438 217.898438 L 279.8125 246.535156 C 284.363281 247.769531 287.054688 252.460938 285.816406 257.015625 C 284.582031 261.570312 279.882812 264.257812 275.339844 263.019531 Z M 275.339844 263.019531 " style=" stroke:none;fill-rule:nonzero;fill:rgb(95.686275%,78.039216%,34.509804%);fill-opacity:1;" />
<path d="M 66.503906 320.589844 C 58.492188 320.589844 54.890625 310.484375 61.105469 305.425781 L 166.644531 219.515625 C 170.304688 216.535156 175.683594 217.089844 178.660156 220.746094 C 181.640625 224.40625 181.089844 229.785156 177.429688 232.765625 C 67.628906 321.210938 72.273438 320.589844 66.503906 320.589844 Z M 66.503906 320.589844 " style=" stroke:none;fill-rule:nonzero;fill:rgb(95.686275%,78.039216%,34.509804%);fill-opacity:1;" />
<path d="M 66.5 109.515625 L 55.867188 109.515625 C 51.152344 109.515625 47.328125 105.691406 47.328125 100.972656 C 47.328125 96.253906 51.152344 92.429688 55.867188 92.429688 L 66.496094 92.429688 C 71.214844 92.429688 75.039062 96.253906 75.039062 100.972656 C 75.039062 105.691406 71.214844 109.515625 66.5 109.515625 Z M 66.5 109.515625 " style=" stroke:none;fill-rule:nonzero;fill:rgb(20.784314%,55.686275%,72.941176%);fill-opacity:1;" />
<path d="M 66.5 162.285156 L 55.867188 162.285156 C 51.152344 162.285156 47.328125 158.460938 47.328125 153.742188 C 47.328125 149.023438 51.152344 145.199219 55.867188 145.199219 L 66.496094 145.199219 C 71.214844 145.199219 75.039062 149.023438 75.039062 153.742188 C 75.039062 158.460938 71.214844 162.285156 66.5 162.285156 Z M 66.5 162.285156 " style=" stroke:none;fill-rule:nonzero;fill:rgb(20.784314%,55.686275%,72.941176%);fill-opacity:1;" />
<path d="M 66.5 215.054688 L 55.867188 215.054688 C 51.152344 215.054688 47.328125 211.230469 47.328125 206.511719 C 47.328125 201.792969 51.152344 197.96875 55.867188 197.96875 L 66.496094 197.96875 C 71.214844 197.96875 75.039062 201.792969 75.039062 206.511719 C 75.039062 211.230469 71.214844 215.054688 66.5 215.054688 Z M 66.5 215.054688 " style=" stroke:none;fill-rule:nonzero;fill:rgb(20.784314%,55.686275%,72.941176%);fill-opacity:1;" />
<path d="M 66.5 267.820312 L 55.867188 267.820312 C 51.152344 267.820312 47.328125 263.996094 47.328125 259.28125 C 47.328125 254.5625 51.152344 250.738281 55.867188 250.738281 L 66.496094 250.738281 C 71.214844 250.738281 75.039062 254.5625 75.039062 259.28125 C 75.039062 263.996094 71.214844 267.820312 66.5 267.820312 Z M 66.5 267.820312 " style=" stroke:none;fill-rule:nonzero;fill:rgb(20.784314%,55.686275%,72.941176%);fill-opacity:1;" />
<path d="M 119.269531 383.988281 C 114.550781 383.988281 110.726562 380.164062 110.726562 375.445312 L 110.726562 364.816406 C 110.726562 360.101562 114.550781 356.277344 119.269531 356.277344 C 123.984375 356.277344 127.808594 360.101562 127.808594 364.816406 L 127.808594 375.445312 C 127.808594 380.164062 123.984375 383.988281 119.269531 383.988281 Z M 119.269531 383.988281 " style=" stroke:none;fill-rule:nonzero;fill:rgb(20.784314%,55.686275%,72.941176%);fill-opacity:1;" />
<path d="M 172.035156 383.988281 C 167.320312 383.988281 163.496094 380.164062 163.496094 375.445312 L 163.496094 364.816406 C 163.496094 360.101562 167.320312 356.277344 172.035156 356.277344 C 176.753906 356.277344 180.578125 360.101562 180.578125 364.816406 L 180.578125 375.445312 C 180.578125 380.164062 176.753906 383.988281 172.035156 383.988281 Z M 172.035156 383.988281 " style=" stroke:none;fill-rule:nonzero;fill:rgb(20.784314%,55.686275%,72.941176%);fill-opacity:1;" />
<path d="M 224.804688 383.988281 C 220.089844 383.988281 216.261719 380.164062 216.261719 375.445312 L 216.261719 364.816406 C 216.261719 360.101562 220.085938 356.277344 224.804688 356.277344 C 229.523438 356.277344 233.347656 360.101562 233.347656 364.816406 L 233.347656 375.445312 C 233.347656 380.164062 229.523438 383.988281 224.804688 383.988281 Z M 224.804688 383.988281 " style=" stroke:none;fill-rule:nonzero;fill:rgb(20.784314%,55.686275%,72.941176%);fill-opacity:1;" />
<path d="M 277.574219 383.988281 C 272.855469 383.988281 269.03125 380.164062 269.03125 375.445312 L 269.03125 364.816406 C 269.03125 360.101562 272.855469 356.277344 277.574219 356.277344 C 282.292969 356.277344 286.117188 360.101562 286.117188 364.816406 L 286.117188 375.445312 C 286.117188 380.164062 282.292969 383.988281 277.574219 383.988281 Z M 277.574219 383.988281 " style=" stroke:none;fill-rule:nonzero;fill:rgb(24.313725%,64.313725%,80%);fill-opacity:1;" />
<path d="M 330.34375 383.988281 C 325.625 383.988281 321.800781 380.164062 321.800781 375.445312 L 321.800781 364.816406 C 321.800781 360.101562 325.625 356.277344 330.34375 356.277344 C 335.0625 356.277344 338.886719 360.101562 338.886719 364.816406 L 338.886719 375.445312 C 338.886719 380.164062 335.0625 383.988281 330.34375 383.988281 Z M 330.34375 383.988281 " style=" stroke:none;fill-rule:nonzero;fill:rgb(24.313725%,64.313725%,80%);fill-opacity:1;" />
<path d="M 383.113281 383.988281 C 378.394531 383.988281 374.570312 380.164062 374.570312 375.445312 L 374.570312 364.816406 C 374.570312 360.101562 378.394531 356.277344 383.113281 356.277344 C 387.828125 356.277344 391.652344 360.101562 391.652344 364.816406 L 391.652344 375.445312 C 391.652344 380.164062 387.828125 383.988281 383.113281 383.988281 Z M 383.113281 383.988281 " style=" stroke:none;fill-rule:nonzero;fill:rgb(24.313725%,64.313725%,80%);fill-opacity:1;" />
<path d="M 435.882812 383.988281 C 431.164062 383.988281 427.339844 380.164062 427.339844 375.445312 L 427.339844 364.816406 C 427.339844 360.101562 431.164062 356.277344 435.882812 356.277344 C 440.597656 356.277344 444.421875 360.101562 444.421875 364.816406 L 444.421875 375.445312 C 444.421875 380.164062 440.597656 383.988281 435.882812 383.988281 Z M 435.882812 383.988281 " style=" stroke:none;fill-rule:nonzero;fill:rgb(24.313725%,64.313725%,80%);fill-opacity:1;" />
<path d="M 456.71875 356.277344 L 55.867188 356.277344 C 51.152344 356.277344 47.328125 360.101562 47.328125 364.816406 C 47.328125 369.535156 51.152344 373.359375 55.867188 373.359375 L 446.726562 373.359375 C 450.285156 367.816406 453.609375 362.113281 456.71875 356.277344 Z M 456.71875 356.277344 " style=" stroke:none;fill-rule:nonzero;fill:rgb(20.784314%,55.686275%,72.941176%);fill-opacity:1;" />
<path d="M 57.957031 85.199219 L 57.957031 375.445312 C 57.957031 380.164062 61.78125 383.988281 66.5 383.988281 C 71.21875 383.988281 75.039062 380.164062 75.039062 375.445312 L 75.039062 67.113281 C 69.039062 72.84375 63.34375 78.886719 57.957031 85.199219 Z M 57.957031 85.199219 " style=" stroke:none;fill-rule:nonzero;fill:rgb(13.72549%,42.352941%,60.784314%);fill-opacity:1;" />
<path d="M 172.027344 204.992188 C 159.15625 204.992188 148.6875 215.464844 148.6875 228.339844 C 148.6875 241.214844 159.164062 251.6875 172.039062 251.6875 C 184.914062 251.6875 195.386719 241.210938 195.386719 228.339844 C 195.386719 215.464844 184.914062 204.992188 172.027344 204.992188 Z M 172.027344 204.992188 " style=" stroke:none;fill-rule:nonzero;fill:rgb(98.431373%,56.862745%,54.117647%);fill-opacity:1;" />
<path d="M 277.566406 230.886719 C 264.695312 230.886719 254.222656 241.359375 254.222656 254.230469 C 254.222656 267.105469 264.699219 277.578125 277.578125 277.578125 C 290.449219 277.578125 300.925781 267.105469 300.925781 254.230469 C 300.925781 241.359375 290.449219 230.886719 277.566406 230.886719 Z M 277.566406 230.886719 " style=" stroke:none;fill-rule:nonzero;fill:rgb(98.431373%,56.862745%,54.117647%);fill-opacity:1;" />
<path d="M 383.101562 78.652344 C 370.230469 78.652344 359.761719 89.125 359.761719 102 C 359.761719 114.871094 370.238281 125.347656 383.113281 125.347656 C 395.988281 125.347656 406.460938 114.871094 406.460938 102 C 406.460938 89.125 395.988281 78.652344 383.101562 78.652344 Z M 383.101562 78.652344 " style=" stroke:none;fill-rule:nonzero;fill:rgb(98.431373%,56.862745%,54.117647%);fill-opacity:1;" />
<path d="M 488.640625 130.394531 C 475.769531 130.394531 465.300781 140.867188 465.300781 153.742188 C 465.300781 166.617188 475.777344 177.089844 488.652344 177.089844 C 501.527344 177.089844 512 166.613281 512 153.742188 C 512 140.867188 501.527344 130.394531 488.640625 130.394531 Z M 488.640625 130.394531 " style=" stroke:none;fill-rule:nonzero;fill:rgb(98.431373%,56.862745%,54.117647%);fill-opacity:1;" />
<path d="M 66.488281 288.699219 C 53.621094 288.699219 43.148438 299.175781 43.148438 312.046875 C 43.148438 324.921875 53.625 335.394531 66.503906 335.394531 C 79.375 335.394531 89.847656 324.921875 89.847656 312.046875 C 89.847656 299.175781 79.375 288.699219 66.488281 288.699219 Z M 66.488281 288.699219 " style=" stroke:none;fill-rule:nonzero;fill:rgb(98.431373%,56.862745%,54.117647%);fill-opacity:1;" />
<path d="M 166.945312 205.554688 C 156.511719 207.882812 148.6875 217.210938 148.6875 228.339844 C 148.6875 241.214844 159.160156 251.6875 172.039062 251.6875 C 180.304688 251.6875 187.570312 247.367188 191.722656 240.871094 C 171.289062 245.433594 155.875 222.882812 166.945312 205.554688 Z M 166.945312 205.554688 " style=" stroke:none;fill-rule:nonzero;fill:rgb(95.686275%,41.176471%,41.176471%);fill-opacity:1;" />
<path d="M 272.484375 231.449219 C 262.050781 233.777344 254.222656 243.105469 254.222656 254.234375 C 254.222656 267.105469 264.699219 277.578125 277.578125 277.578125 C 285.839844 277.578125 293.109375 273.261719 297.261719 266.765625 C 276.828125 271.328125 261.410156 248.777344 272.484375 231.449219 Z M 272.484375 231.449219 " style=" stroke:none;fill-rule:nonzero;fill:rgb(95.686275%,41.176471%,41.176471%);fill-opacity:1;" />
<path d="M 378.019531 79.214844 C 367.585938 81.542969 359.761719 90.871094 359.761719 102 C 359.761719 114.871094 370.238281 125.347656 383.113281 125.347656 C 391.378906 125.347656 398.648438 121.027344 402.796875 114.53125 C 382.363281 119.09375 366.949219 96.542969 378.019531 79.214844 Z M 378.019531 79.214844 " style=" stroke:none;fill-rule:nonzero;fill:rgb(95.686275%,41.176471%,41.176471%);fill-opacity:1;" />
<path d="M 483.558594 130.960938 C 473.125 133.285156 465.300781 142.613281 465.300781 153.742188 C 465.300781 166.617188 475.773438 177.089844 488.652344 177.089844 C 496.914062 177.089844 504.183594 172.769531 508.335938 166.273438 C 487.902344 170.835938 472.488281 148.285156 483.558594 130.960938 Z M 483.558594 130.960938 " style=" stroke:none;fill-rule:nonzero;fill:rgb(95.686275%,41.176471%,41.176471%);fill-opacity:1;" />
<path d="M 61.40625 289.265625 C 50.972656 291.59375 43.148438 300.921875 43.148438 312.046875 C 43.148438 324.921875 53.625 335.394531 66.5 335.394531 C 74.765625 335.394531 82.035156 331.074219 86.183594 324.578125 C 65.75 329.140625 50.335938 306.59375 61.40625 289.265625 Z M 61.40625 289.265625 " style=" stroke:none;fill-rule:nonzero;fill:rgb(95.686275%,41.176471%,41.176471%);fill-opacity:1;" />
<path d="M 172.039062 243.714844 C 163.546875 243.714844 156.65625 236.832031 156.65625 228.339844 C 156.65625 219.847656 163.535156 212.964844 172.027344 212.964844 L 172.039062 212.964844 C 180.53125 212.964844 187.414062 219.847656 187.414062 228.339844 C 187.414062 236.832031 180.53125 243.714844 172.039062 243.714844 Z M 172.039062 243.714844 " style=" stroke:none;fill-rule:nonzero;fill:rgb(95.686275%,41.176471%,41.176471%);fill-opacity:1;" />
<path d="M 163.429688 215.59375 C 159.34375 218.355469 156.660156 223.035156 156.660156 228.339844 C 156.660156 236.832031 163.546875 243.714844 172.039062 243.714844 C 175.421875 243.714844 178.535156 242.609375 181.074219 240.761719 C 170.039062 238.054688 162.144531 227.539062 163.429688 215.59375 Z M 163.429688 215.59375 " style=" stroke:none;fill-rule:nonzero;fill:rgb(91.764706%,32.941176%,32.941176%);fill-opacity:1;" />
<path d="M 277.578125 269.605469 C 269.085938 269.605469 262.195312 262.722656 262.195312 254.230469 C 262.195312 245.738281 269.074219 238.855469 277.566406 238.855469 L 277.578125 238.855469 C 286.070312 238.855469 292.953125 245.738281 292.953125 254.230469 C 292.953125 262.722656 286.070312 269.605469 277.578125 269.605469 Z M 277.578125 269.605469 " style=" stroke:none;fill-rule:nonzero;fill:rgb(95.686275%,41.176471%,41.176471%);fill-opacity:1;" />
<path d="M 268.96875 241.484375 C 264.882812 244.25 262.195312 248.925781 262.195312 254.234375 C 262.195312 262.726562 269.085938 269.609375 277.578125 269.609375 C 280.957031 269.609375 284.070312 268.503906 286.609375 266.65625 C 275.597656 263.953125 267.683594 253.460938 268.96875 241.484375 Z M 268.96875 241.484375 " style=" stroke:none;fill-rule:nonzero;fill:rgb(91.764706%,32.941176%,32.941176%);fill-opacity:1;" />
<path d="M 383.113281 117.375 C 374.621094 117.375 367.734375 110.492188 367.734375 102 C 367.734375 93.507812 374.613281 86.625 383.101562 86.625 L 383.113281 86.625 C 391.605469 86.625 398.488281 93.507812 398.488281 102 C 398.488281 110.492188 391.605469 117.375 383.113281 117.375 Z M 383.113281 117.375 " style=" stroke:none;fill-rule:nonzero;fill:rgb(95.686275%,41.176471%,41.176471%);fill-opacity:1;" />
<path d="M 392.148438 114.421875 C 381.132812 111.71875 373.222656 101.222656 374.503906 89.253906 C 370.417969 92.015625 367.734375 96.691406 367.734375 102 C 367.734375 110.492188 374.621094 117.375 383.113281 117.375 C 386.492188 117.375 389.609375 116.269531 392.148438 114.421875 Z M 392.148438 114.421875 " style=" stroke:none;fill-rule:nonzero;fill:rgb(91.764706%,32.941176%,32.941176%);fill-opacity:1;" />
<path d="M 488.652344 169.117188 C 480.160156 169.117188 473.269531 162.234375 473.269531 153.742188 C 473.269531 145.25 480.148438 138.367188 488.640625 138.367188 L 488.652344 138.367188 C 497.144531 138.367188 504.027344 145.25 504.027344 153.742188 C 504.027344 162.234375 497.144531 169.117188 488.652344 169.117188 Z M 488.652344 169.117188 " style=" stroke:none;fill-rule:nonzero;fill:rgb(95.686275%,41.176471%,41.176471%);fill-opacity:1;" />
<path d="M 480.042969 140.996094 C 475.957031 143.757812 473.273438 148.4375 473.273438 153.742188 C 473.273438 162.234375 480.160156 169.117188 488.652344 169.117188 C 492.03125 169.117188 495.148438 168.011719 497.6875 166.164062 C 486.671875 163.464844 478.757812 152.96875 480.042969 140.996094 Z M 480.042969 140.996094 " style=" stroke:none;fill-rule:nonzero;fill:rgb(91.764706%,32.941176%,32.941176%);fill-opacity:1;" />
<path d="M 66.5 327.425781 C 58.007812 327.425781 51.121094 320.539062 51.121094 312.050781 C 51.121094 303.558594 57.996094 296.675781 66.488281 296.675781 L 66.5 296.675781 C 74.992188 296.675781 81.875 303.558594 81.875 312.050781 C 81.878906 320.539062 74.992188 327.425781 66.5 327.425781 Z M 66.5 327.425781 " style=" stroke:none;fill-rule:nonzero;fill:rgb(95.686275%,41.176471%,41.176471%);fill-opacity:1;" />
<path d="M 75.535156 324.472656 C 64.503906 321.765625 56.605469 311.253906 57.890625 299.304688 C 53.804688 302.066406 51.121094 306.742188 51.121094 312.050781 C 51.121094 320.542969 58.011719 327.425781 66.503906 327.425781 C 69.882812 327.425781 72.996094 326.320312 75.535156 324.472656 Z M 75.535156 324.472656 " style=" stroke:none;fill-rule:nonzero;fill:rgb(91.764706%,32.941176%,32.941176%);fill-opacity:1;" />
<path d="M 252.023438 364.816406 C 252.023438 361.132812 254.070312 357.925781 257.09375 356.277344 L 55.867188 356.277344 C 51.152344 356.277344 47.328125 360.101562 47.328125 364.816406 C 47.328125 369.535156 51.152344 373.359375 55.867188 373.359375 L 257.09375 373.359375 C 254.070312 371.710938 252.023438 368.503906 252.023438 364.816406 Z M 252.023438 364.816406 " style=" stroke:none;fill-rule:nonzero;fill:rgb(13.72549%,42.352941%,60.784314%);fill-opacity:1;" />
</g>
</svg>