<svg xmlns="http://www.w3.org/2000/svg" height="511pt" version="1.1" viewBox="0 0 511.99981 511" width="511pt">
<g id="surface1">
<path d="M 511.992188 256.496094 C 511.992188 397.878906 397.378906 512.492188 255.996094 512.492188 C 114.613281 512.492188 0 397.878906 0 256.496094 C 0 115.113281 114.613281 0.5 255.996094 0.5 C 397.378906 0.5 511.992188 115.113281 511.992188 256.496094 Z M 511.992188 256.496094 " style=" stroke:none;fill-rule:nonzero;fill:rgb(6.27451%,29.019608%,48.627451%);fill-opacity:1;" />
<path d="M 24.457031 365.796875 C 65.460938 452.5 153.714844 512.492188 255.996094 512.492188 C 358.277344 512.492188 446.53125 452.5 487.535156 365.796875 Z M 24.457031 365.796875 " style=" stroke:none;fill-rule:nonzero;fill:rgb(4.705882%,22.745098%,42.745098%);fill-opacity:1;" />
<path d="M 254.40625 512.476562 C 200.253906 435.875 254.417969 374.542969 254.417969 374.542969 L 254.417969 365.792969 L 24.457031 365.792969 C 65.246094 452.050781 152.804688 511.859375 254.40625 512.476562 Z M 254.40625 512.476562 " style=" stroke:none;fill-rule:nonzero;fill:rgb(2.745098%,16.470588%,36.862745%);fill-opacity:1;" />
<path d="M 441.058594 187.601562 L 401.675781 113.699219 C 388.660156 89.273438 353.542969 89.582031 340.957031 114.234375 L 282.371094 228.96875 C 271.207031 250.824219 241.355469 254.191406 225.605469 235.367188 L 205.074219 210.828125 C 190.855469 193.832031 164.480469 194.613281 151.289062 212.417969 L 116.886719 258.863281 C 103.894531 276.402344 78.035156 277.476562 63.636719 261.074219 L 63.636719 365.796875 L 487.535156 365.796875 C 514.3125 309.171875 518.949219 244.945312 502.222656 186.226562 L 501.601562 187.410156 C 488.824219 211.761719 453.996094 211.875 441.058594 187.601562 Z M 441.058594 187.601562 " style=" stroke:none;fill-rule:nonzero;fill:rgb(96.862745%,32.941176%,69.411765%);fill-opacity:1;" />
<path d="M 508.6875 215.300781 L 501.605469 228.863281 C 488.824219 247.554688 453.996094 247.640625 441.058594 229.007812 L 401.675781 172.28125 C 388.660156 153.53125 353.542969 153.765625 340.957031 172.6875 L 282.371094 260.761719 C 271.207031 277.539062 241.355469 280.125 225.605469 265.675781 L 205.074219 246.835938 C 190.855469 233.789062 164.480469 234.390625 151.289062 248.058594 L 116.886719 283.710938 C 103.894531 297.171875 78.035156 298 63.636719 285.410156 L 63.636719 365.796875 L 487.535156 365.796875 C 510.335938 317.582031 516.714844 264.914062 508.6875 215.300781 Z M 508.6875 215.300781 " style=" stroke:none;fill-rule:nonzero;fill:rgb(98.823529%,52.54902%,74.901961%);fill-opacity:1;" />
<path d="M 511.644531 269.914062 L 507.664062 273.417969 C 486.953125 291.632812 455.96875 291.75 435.121094 273.691406 L 407.699219 249.9375 C 386.636719 231.691406 355.269531 232.027344 334.597656 250.714844 L 288.011719 292.828125 C 270.546875 308.617188 244.988281 311.578125 224.375 300.207031 L 205.515625 289.800781 C 188.015625 280.144531 166.660156 280.710938 149.699219 291.285156 L 118.472656 310.742188 C 101.847656 321.101562 80.972656 321.867188 63.632812 312.753906 L 63.632812 365.796875 L 487.535156 365.796875 C 501.40625 336.460938 509.878906 304.078125 511.644531 269.914062 Z M 511.644531 269.914062 " style=" stroke:none;fill-rule:nonzero;fill:rgb(53.333333%,49.411765%,100%);fill-opacity:1;" />
<path d="M 118.472656 332.4375 L 149.699219 320.648438 C 185.441406 307.152344 215.804688 324.300781 224.378906 326.054688 C 244.988281 332.945312 270.546875 331.152344 288.011719 321.585938 L 334.601562 296.066406 C 355.273438 284.746094 386.636719 284.542969 407.699219 295.597656 L 435.125 309.992188 C 455.503906 320.6875 485.5625 320.851562 506.25 310.542969 C 509.089844 297.347656 510.925781 283.78125 511.644531 269.917969 L 507.664062 273.417969 C 486.953125 291.632812 455.972656 291.75 435.125 273.691406 L 407.699219 249.941406 C 386.636719 231.695312 355.273438 232.027344 334.601562 250.714844 L 288.011719 292.832031 C 270.546875 308.617188 244.988281 311.578125 224.378906 300.207031 L 205.515625 289.800781 C 188.015625 280.144531 166.660156 280.714844 149.699219 291.285156 L 118.472656 310.742188 C 101.847656 321.105469 80.976562 321.867188 63.636719 312.753906 L 63.636719 333.65625 C 80.976562 339.179688 101.847656 338.714844 118.472656 332.4375 Z M 118.472656 332.4375 " style=" stroke:none;fill-rule:nonzero;fill:rgb(37.647059%,37.647059%,95.686275%);fill-opacity:1;" />
<path d="M 63.636719 158.355469 L 52.75 158.355469 C 47.917969 158.355469 44 154.441406 44 149.609375 C 44 144.777344 47.917969 140.859375 52.75 140.859375 L 63.636719 140.859375 C 68.46875 140.859375 72.382812 144.773438 72.382812 149.609375 C 72.382812 154.441406 68.46875 158.355469 63.636719 158.355469 Z M 63.636719 158.355469 " style=" stroke:none;fill-rule:nonzero;fill:rgb(20.784314%,55.686275%,72.941176%);fill-opacity:1;" />
<path d="M 63.636719 212.402344 L 52.75 212.402344 C 47.917969 212.402344 44 208.488281 44 203.65625 C 44 198.820312 47.917969 194.90625 52.75 194.90625 L 63.636719 194.90625 C 68.46875 194.90625 72.382812 198.820312 72.382812 203.65625 C 72.382812 208.488281 68.46875 212.402344 63.636719 212.402344 Z M 63.636719 212.402344 " style=" stroke:none;fill-rule:nonzero;fill:rgb(20.784314%,55.686275%,72.941176%);fill-opacity:1;" />
<path d="M 63.636719 266.449219 L 52.75 266.449219 C 47.917969 266.449219 44 262.535156 44 257.703125 C 44 252.871094 47.917969 248.953125 52.75 248.953125 L 63.636719 248.953125 C 68.46875 248.953125 72.382812 252.867188 72.382812 257.703125 C 72.382812 262.535156 68.46875 266.449219 63.636719 266.449219 Z M 63.636719 266.449219 " style=" stroke:none;fill-rule:nonzero;fill:rgb(20.784314%,55.686275%,72.941176%);fill-opacity:1;" />
<path d="M 63.636719 320.496094 L 52.75 320.496094 C 47.917969 320.496094 44 316.582031 44 311.746094 C 44 306.914062 47.917969 303 52.75 303 L 63.636719 303 C 68.46875 303 72.382812 306.914062 72.382812 311.746094 C 72.382812 316.582031 68.46875 320.496094 63.636719 320.496094 Z M 63.636719 320.496094 " style=" stroke:none;fill-rule:nonzero;fill:rgb(20.784314%,55.686275%,72.941176%);fill-opacity:1;" />
<path d="M 117.679688 385.429688 C 112.847656 385.429688 108.933594 381.515625 108.933594 376.683594 L 108.933594 365.792969 C 108.933594 360.960938 112.847656 357.046875 117.679688 357.046875 C 122.511719 357.046875 126.429688 360.960938 126.429688 365.792969 L 126.429688 376.683594 C 126.429688 381.515625 122.511719 385.429688 117.679688 385.429688 Z M 117.679688 385.429688 " style=" stroke:none;fill-rule:nonzero;fill:rgb(20.784314%,55.686275%,72.941176%);fill-opacity:1;" />
<path d="M 171.726562 385.429688 C 166.894531 385.429688 162.980469 381.515625 162.980469 376.683594 L 162.980469 365.792969 C 162.980469 360.960938 166.894531 357.046875 171.726562 357.046875 C 176.558594 357.046875 180.476562 360.960938 180.476562 365.792969 L 180.476562 376.683594 C 180.476562 381.515625 176.558594 385.429688 171.726562 385.429688 Z M 171.726562 385.429688 " style=" stroke:none;fill-rule:nonzero;fill:rgb(20.784314%,55.686275%,72.941176%);fill-opacity:1;" />
<path d="M 225.777344 385.429688 C 220.945312 385.429688 217.027344 381.515625 217.027344 376.683594 L 217.027344 365.792969 C 217.027344 360.960938 220.945312 357.046875 225.777344 357.046875 C 230.605469 357.046875 234.523438 360.960938 234.523438 365.792969 L 234.523438 376.683594 C 234.523438 381.515625 230.605469 385.429688 225.777344 385.429688 Z M 225.777344 385.429688 " style=" stroke:none;fill-rule:nonzero;fill:rgb(20.784314%,55.686275%,72.941176%);fill-opacity:1;" />
<path d="M 279.820312 385.429688 C 274.988281 385.429688 271.074219 381.515625 271.074219 376.683594 L 271.074219 365.792969 C 271.074219 360.960938 274.988281 357.046875 279.820312 357.046875 C 284.652344 357.046875 288.570312 360.960938 288.570312 365.792969 L 288.570312 376.683594 C 288.570312 381.515625 284.652344 385.429688 279.820312 385.429688 Z M 279.820312 385.429688 " style=" stroke:none;fill-rule:nonzero;fill:rgb(24.313725%,64.313725%,80%);fill-opacity:1;" />
<path d="M 333.867188 385.429688 C 329.035156 385.429688 325.121094 381.515625 325.121094 376.683594 L 325.121094 365.792969 C 325.121094 360.960938 329.035156 357.046875 333.867188 357.046875 C 338.699219 357.046875 342.617188 360.960938 342.617188 365.792969 L 342.617188 376.683594 C 342.617188 381.515625 338.699219 385.429688 333.867188 385.429688 Z M 333.867188 385.429688 " style=" stroke:none;fill-rule:nonzero;fill:rgb(24.313725%,64.313725%,80%);fill-opacity:1;" />
<path d="M 387.914062 385.429688 C 383.085938 385.429688 379.167969 381.515625 379.167969 376.683594 L 379.167969 365.792969 C 379.167969 360.960938 383.085938 357.046875 387.914062 357.046875 C 392.746094 357.046875 396.664062 360.960938 396.664062 365.792969 L 396.664062 376.683594 C 396.664062 381.515625 392.746094 385.429688 387.914062 385.429688 Z M 387.914062 385.429688 " style=" stroke:none;fill-rule:nonzero;fill:rgb(24.313725%,64.313725%,80%);fill-opacity:1;" />
<path d="M 441.960938 385.429688 C 437.128906 385.429688 433.214844 381.515625 433.214844 376.683594 L 433.214844 365.792969 C 433.214844 360.960938 437.128906 357.046875 441.960938 357.046875 C 446.792969 357.046875 450.710938 360.960938 450.710938 365.792969 L 450.710938 376.683594 C 450.710938 381.515625 446.792969 385.429688 441.960938 385.429688 Z M 441.960938 385.429688 " style=" stroke:none;fill-rule:nonzero;fill:rgb(24.313725%,64.313725%,80%);fill-opacity:1;" />
<path d="M 491.476562 357.046875 L 52.75 357.046875 C 47.917969 357.046875 44 360.960938 44 365.796875 C 44 370.628906 47.917969 374.542969 52.75 374.542969 L 483.191406 374.542969 C 486.164062 368.832031 488.933594 363 491.476562 357.046875 Z M 491.476562 357.046875 " style=" stroke:none;fill-rule:nonzero;fill:rgb(20.784314%,55.686275%,72.941176%);fill-opacity:1;" />
<path d="M 54.886719 98.089844 L 54.886719 376.683594 C 54.886719 381.515625 58.804688 385.429688 63.636719 385.429688 C 68.46875 385.429688 72.382812 381.515625 72.382812 376.683594 L 72.382812 78.136719 C 66.21875 84.484375 60.371094 91.136719 54.886719 98.089844 Z M 54.886719 98.089844 " style=" stroke:none;fill-rule:nonzero;fill:rgb(13.72549%,42.352941%,60.784314%);fill-opacity:1;" />
<path d="M 178.75 216.292969 C 170.054688 216.292969 162.996094 209.242188 162.996094 200.542969 C 162.996094 191.847656 170.042969 184.796875 178.738281 184.796875 L 178.75 184.796875 C 187.445312 184.796875 194.496094 191.847656 194.496094 200.542969 C 194.496094 209.242188 187.449219 216.292969 178.75 216.292969 Z M 178.75 216.292969 " style=" stroke:none;fill-rule:nonzero;fill:rgb(98.823529%,52.54902%,74.901961%);fill-opacity:1;" />
<path d="M 213.808594 89.589844 L 143.6875 89.589844 C 139.441406 89.589844 136 93.03125 136 97.277344 L 136 141.921875 C 136 146.167969 139.441406 149.609375 143.6875 149.609375 L 160.121094 149.609375 C 162.160156 149.609375 164.117188 150.417969 165.554688 151.859375 L 173.3125 159.617188 C 176.316406 162.617188 181.179688 162.617188 184.183594 159.617188 L 191.941406 151.859375 C 193.382812 150.417969 195.335938 149.609375 197.375 149.609375 L 213.808594 149.609375 C 218.054688 149.609375 221.496094 146.167969 221.496094 141.921875 L 221.496094 97.277344 C 221.492188 93.03125 218.050781 89.589844 213.808594 89.589844 Z M 213.808594 89.589844 " style=" stroke:none;fill-rule:nonzero;fill:rgb(20.784314%,55.686275%,72.941176%);fill-opacity:1;" />
<path d="M 186.761719 143.246094 L 186.761719 94.953125 C 186.761719 92.90625 187.5 91.039062 188.722656 89.589844 L 143.6875 89.589844 C 139.441406 89.589844 136 93.03125 136 97.277344 L 136 141.921875 C 136 146.167969 139.441406 149.609375 143.6875 149.609375 L 160.121094 149.609375 C 162.160156 149.609375 164.117188 150.417969 165.554688 151.859375 L 173.3125 159.617188 C 176.316406 162.617188 181.179688 162.617188 184.183594 159.617188 L 191.941406 151.859375 C 192.175781 151.621094 192.429688 151.410156 192.691406 151.207031 C 189.261719 150.183594 186.761719 147.007812 186.761719 143.246094 Z M 186.761719 143.246094 " style=" stroke:none;fill-rule:nonzero;fill:rgb(13.72549%,42.352941%,60.784314%);fill-opacity:1;" />
<path d="M 248.671875 365.796875 C 248.671875 361.875 251.035156 358.511719 254.417969 357.046875 L 52.75 357.046875 C 47.917969 357.046875 44 360.960938 44 365.796875 C 44 370.628906 47.917969 374.542969 52.75 374.542969 L 254.417969 374.542969 C 251.035156 373.078125 248.671875 369.714844 248.671875 365.796875 Z M 248.671875 365.796875 " style=" stroke:none;fill-rule:nonzero;fill:rgb(13.72549%,42.352941%,60.784314%);fill-opacity:1;" />
</g>
</svg>