<svg xmlns="http://www.w3.org/2000/svg" height="512pt" version="1.1" viewBox="0 0 512 512" width="512pt">
<g id="surface1">
<path d="M 512 256 C 512 397.386719 397.386719 512 256 512 C 114.613281 512 0 397.386719 0 256 C 0 114.613281 114.613281 0 256 0 C 397.386719 0 512 114.613281 512 256 Z M 512 256 " style=" stroke:none;fill-rule:nonzero;fill:rgb(6.27451%,29.019608%,48.627451%);fill-opacity:1;" />
<path d="M 38.128906 390.453125 C 138.15625 552.195312 373.546875 552.671875 473.871094 390.453125 Z M 38.128906 390.453125 " style=" stroke:none;fill-rule:nonzero;fill:rgb(4.705882%,22.745098%,42.745098%);fill-opacity:1;" />
<path d="M 260.839844 398.734375 L 260.839844 390.453125 L 38.128906 390.453125 C 85.105469 466.414062 168.765625 513.648438 260.804688 511.953125 C 207.808594 451.226562 260.839844 398.734375 260.839844 398.734375 Z M 260.839844 398.734375 " style=" stroke:none;fill-rule:nonzero;fill:rgb(2.745098%,16.470588%,36.862745%);fill-opacity:1;" />
<path d="M 77.324219 142.988281 L 67.019531 142.988281 C 62.449219 142.988281 58.742188 139.28125 58.742188 134.710938 C 58.742188 130.140625 62.449219 126.433594 67.019531 126.433594 L 77.324219 126.433594 C 81.898438 126.433594 85.601562 130.140625 85.601562 134.710938 C 85.601562 139.28125 81.898438 142.988281 77.324219 142.988281 Z M 77.324219 142.988281 " style=" stroke:none;fill-rule:nonzero;fill:rgb(20.784314%,55.686275%,72.941176%);fill-opacity:1;" />
<path d="M 77.324219 194.136719 L 67.019531 194.136719 C 62.449219 194.136719 58.742188 190.433594 58.742188 185.859375 C 58.742188 181.285156 62.449219 177.578125 67.019531 177.578125 L 77.324219 177.578125 C 81.898438 177.578125 85.601562 181.285156 85.601562 185.859375 C 85.605469 190.433594 81.898438 194.136719 77.324219 194.136719 Z M 77.324219 194.136719 " style=" stroke:none;fill-rule:nonzero;fill:rgb(20.784314%,55.686275%,72.941176%);fill-opacity:1;" />
<path d="M 77.324219 245.289062 L 67.019531 245.289062 C 62.449219 245.289062 58.742188 241.582031 58.742188 237.007812 C 58.742188 232.4375 62.449219 228.730469 67.019531 228.730469 L 77.324219 228.730469 C 81.898438 228.730469 85.601562 232.4375 85.601562 237.007812 C 85.601562 241.582031 81.898438 245.289062 77.324219 245.289062 Z M 77.324219 245.289062 " style=" stroke:none;fill-rule:nonzero;fill:rgb(20.784314%,55.686275%,72.941176%);fill-opacity:1;" />
<path d="M 77.324219 296.4375 L 67.019531 296.4375 C 62.449219 296.4375 58.742188 292.730469 58.742188 288.15625 C 58.742188 283.582031 62.449219 279.878906 67.019531 279.878906 L 77.324219 279.878906 C 81.898438 279.878906 85.601562 283.582031 85.601562 288.15625 C 85.605469 292.730469 81.898438 296.4375 77.324219 296.4375 Z M 77.324219 296.4375 " style=" stroke:none;fill-rule:nonzero;fill:rgb(20.784314%,55.686275%,72.941176%);fill-opacity:1;" />
<path d="M 77.324219 347.585938 L 67.019531 347.585938 C 62.449219 347.585938 58.742188 343.878906 58.742188 339.304688 C 58.742188 334.730469 62.449219 331.027344 67.019531 331.027344 L 77.324219 331.027344 C 81.898438 331.027344 85.601562 334.730469 85.601562 339.304688 C 85.605469 343.878906 81.898438 347.585938 77.324219 347.585938 Z M 77.324219 347.585938 " style=" stroke:none;fill-rule:nonzero;fill:rgb(20.784314%,55.686275%,72.941176%);fill-opacity:1;" />
<path d="M 40.199219 142.988281 L 40.074219 142.988281 C 35.5 142.988281 31.792969 139.28125 31.792969 134.710938 C 31.792969 130.140625 35.5 126.433594 40.074219 126.433594 L 40.199219 126.433594 C 44.773438 126.433594 48.476562 130.140625 48.476562 134.710938 C 48.476562 139.28125 44.773438 142.988281 40.199219 142.988281 Z M 40.199219 142.988281 " style=" stroke:none;fill-rule:nonzero;fill:rgb(20.784314%,55.686275%,72.941176%);fill-opacity:1;" />
<path d="M 40.199219 194.136719 L 40.074219 194.136719 C 35.5 194.136719 31.792969 190.433594 31.792969 185.859375 C 31.792969 181.285156 35.5 177.578125 40.074219 177.578125 L 40.199219 177.578125 C 44.773438 177.578125 48.476562 181.285156 48.476562 185.859375 C 48.480469 190.433594 44.773438 194.136719 40.199219 194.136719 Z M 40.199219 194.136719 " style=" stroke:none;fill-rule:nonzero;fill:rgb(20.784314%,55.686275%,72.941176%);fill-opacity:1;" />
<path d="M 40.199219 245.289062 L 40.074219 245.289062 C 35.5 245.289062 31.792969 241.582031 31.792969 237.007812 C 31.792969 232.4375 35.5 228.730469 40.074219 228.730469 L 40.199219 228.730469 C 44.773438 228.730469 48.476562 232.4375 48.476562 237.007812 C 48.476562 241.582031 44.773438 245.289062 40.199219 245.289062 Z M 40.199219 245.289062 " style=" stroke:none;fill-rule:nonzero;fill:rgb(20.784314%,55.686275%,72.941176%);fill-opacity:1;" />
<path d="M 40.199219 296.4375 L 40.074219 296.4375 C 35.5 296.4375 31.792969 292.730469 31.792969 288.15625 C 31.792969 283.582031 35.5 279.878906 40.074219 279.878906 L 40.199219 279.878906 C 44.773438 279.878906 48.476562 283.582031 48.476562 288.15625 C 48.480469 292.730469 44.773438 296.4375 40.199219 296.4375 Z M 40.199219 296.4375 " style=" stroke:none;fill-rule:nonzero;fill:rgb(20.784314%,55.686275%,72.941176%);fill-opacity:1;" />
<path d="M 40.199219 347.585938 L 40.074219 347.585938 C 35.5 347.585938 31.792969 343.878906 31.792969 339.304688 C 31.792969 334.730469 35.5 331.027344 40.074219 331.027344 L 40.199219 331.027344 C 44.773438 331.027344 48.476562 334.730469 48.476562 339.304688 C 48.480469 343.878906 44.773438 347.585938 40.199219 347.585938 Z M 40.199219 347.585938 " style=" stroke:none;fill-rule:nonzero;fill:rgb(20.784314%,55.686275%,72.941176%);fill-opacity:1;" />
<path d="M 128.472656 409.035156 C 123.898438 409.035156 120.191406 405.332031 120.191406 400.757812 L 120.191406 390.453125 C 120.191406 385.882812 123.898438 382.175781 128.472656 382.175781 C 133.046875 382.175781 136.753906 385.882812 136.753906 390.453125 L 136.753906 400.757812 C 136.753906 405.332031 133.046875 409.035156 128.472656 409.035156 Z M 128.472656 409.035156 " style=" stroke:none;fill-rule:nonzero;fill:rgb(20.784314%,55.686275%,72.941176%);fill-opacity:1;" />
<path d="M 179.621094 409.035156 C 175.050781 409.035156 171.34375 405.332031 171.34375 400.757812 L 171.34375 390.453125 C 171.34375 385.882812 175.050781 382.175781 179.621094 382.175781 C 184.195312 382.175781 187.902344 385.882812 187.902344 390.453125 L 187.902344 400.757812 C 187.902344 405.332031 184.195312 409.035156 179.621094 409.035156 Z M 179.621094 409.035156 " style=" stroke:none;fill-rule:nonzero;fill:rgb(20.784314%,55.686275%,72.941176%);fill-opacity:1;" />
<path d="M 230.769531 409.035156 C 226.199219 409.035156 222.492188 405.332031 222.492188 400.757812 L 222.492188 390.453125 C 222.492188 385.882812 226.199219 382.175781 230.769531 382.175781 C 235.34375 382.175781 239.050781 385.882812 239.050781 390.453125 L 239.050781 400.757812 C 239.050781 405.332031 235.34375 409.035156 230.769531 409.035156 Z M 230.769531 409.035156 " style=" stroke:none;fill-rule:nonzero;fill:rgb(20.784314%,55.686275%,72.941176%);fill-opacity:1;" />
<path d="M 281.917969 409.035156 C 277.347656 409.035156 273.640625 405.332031 273.640625 400.757812 L 273.640625 390.453125 C 273.640625 385.882812 277.347656 382.175781 281.917969 382.175781 C 286.492188 382.175781 290.199219 385.882812 290.199219 390.453125 L 290.199219 400.757812 C 290.199219 405.332031 286.492188 409.035156 281.917969 409.035156 Z M 281.917969 409.035156 " style=" stroke:none;fill-rule:nonzero;fill:rgb(24.313725%,64.313725%,80%);fill-opacity:1;" />
<path d="M 333.066406 409.035156 C 328.496094 409.035156 324.789062 405.332031 324.789062 400.757812 L 324.789062 390.453125 C 324.789062 385.882812 328.496094 382.175781 333.066406 382.175781 C 337.640625 382.175781 341.347656 385.882812 341.347656 390.453125 L 341.347656 400.757812 C 341.347656 405.332031 337.640625 409.035156 333.066406 409.035156 Z M 333.066406 409.035156 " style=" stroke:none;fill-rule:nonzero;fill:rgb(24.313725%,64.313725%,80%);fill-opacity:1;" />
<path d="M 384.21875 409.035156 C 379.644531 409.035156 375.9375 405.332031 375.9375 400.757812 L 375.9375 390.453125 C 375.9375 385.882812 379.644531 382.175781 384.21875 382.175781 C 388.789062 382.175781 392.496094 385.882812 392.496094 390.453125 L 392.496094 400.757812 C 392.496094 405.332031 388.789062 409.035156 384.21875 409.035156 Z M 384.21875 409.035156 " style=" stroke:none;fill-rule:nonzero;fill:rgb(24.313725%,64.313725%,80%);fill-opacity:1;" />
<path d="M 435.367188 409.035156 C 430.792969 409.035156 427.085938 405.332031 427.085938 400.757812 L 427.085938 390.453125 C 427.085938 385.882812 430.792969 382.175781 435.367188 382.175781 C 439.9375 382.175781 443.644531 385.882812 443.644531 390.453125 L 443.644531 400.757812 C 443.644531 405.332031 439.9375 409.035156 435.367188 409.035156 Z M 435.367188 409.035156 " style=" stroke:none;fill-rule:nonzero;fill:rgb(24.313725%,64.313725%,80%);fill-opacity:1;" />
<path d="M 128.472656 435.273438 C 123.898438 435.273438 120.191406 431.570312 120.191406 426.996094 L 120.191406 426.824219 C 120.191406 422.253906 123.898438 418.546875 128.472656 418.546875 C 133.042969 418.546875 136.75 422.25 136.75 426.824219 L 136.75 426.996094 C 136.75 431.566406 133.042969 435.273438 128.472656 435.273438 Z M 128.472656 435.273438 " style=" stroke:none;fill-rule:nonzero;fill:rgb(20.784314%,55.686275%,72.941176%);fill-opacity:1;" />
<path d="M 179.621094 435.273438 C 175.046875 435.273438 171.339844 431.570312 171.339844 426.996094 L 171.339844 426.824219 C 171.339844 422.253906 175.046875 418.546875 179.621094 418.546875 C 184.191406 418.546875 187.898438 422.25 187.898438 426.824219 L 187.898438 426.996094 C 187.898438 431.566406 184.191406 435.273438 179.621094 435.273438 Z M 179.621094 435.273438 " style=" stroke:none;fill-rule:nonzero;fill:rgb(20.784314%,55.686275%,72.941176%);fill-opacity:1;" />
<path d="M 230.769531 435.273438 C 226.195312 435.273438 222.488281 431.570312 222.488281 426.996094 L 222.488281 426.824219 C 222.488281 422.253906 226.195312 418.546875 230.769531 418.546875 C 235.339844 418.546875 239.046875 422.25 239.046875 426.824219 L 239.046875 426.996094 C 239.046875 431.566406 235.339844 435.273438 230.769531 435.273438 Z M 230.769531 435.273438 " style=" stroke:none;fill-rule:nonzero;fill:rgb(20.784314%,55.686275%,72.941176%);fill-opacity:1;" />
<path d="M 281.917969 435.273438 C 277.34375 435.273438 273.636719 431.570312 273.636719 426.996094 L 273.636719 426.824219 C 273.636719 422.253906 277.34375 418.546875 281.917969 418.546875 C 286.488281 418.546875 290.195312 422.25 290.195312 426.824219 L 290.195312 426.996094 C 290.195312 431.566406 286.488281 435.273438 281.917969 435.273438 Z M 281.917969 435.273438 " style=" stroke:none;fill-rule:nonzero;fill:rgb(24.313725%,64.313725%,80%);fill-opacity:1;" />
<path d="M 333.066406 435.273438 C 328.492188 435.273438 324.785156 431.570312 324.785156 426.996094 L 324.785156 426.824219 C 324.785156 422.253906 328.492188 418.546875 333.066406 418.546875 C 337.640625 418.546875 341.347656 422.25 341.347656 426.824219 L 341.347656 426.996094 C 341.347656 431.566406 337.640625 435.273438 333.066406 435.273438 Z M 333.066406 435.273438 " style=" stroke:none;fill-rule:nonzero;fill:rgb(24.313725%,64.313725%,80%);fill-opacity:1;" />
<path d="M 384.214844 435.273438 C 379.640625 435.273438 375.9375 431.570312 375.9375 426.996094 L 375.9375 426.824219 C 375.9375 422.253906 379.644531 418.546875 384.214844 418.546875 C 388.789062 418.546875 392.492188 422.25 392.492188 426.824219 L 392.492188 426.996094 C 392.496094 431.566406 388.789062 435.273438 384.214844 435.273438 Z M 384.214844 435.273438 " style=" stroke:none;fill-rule:nonzero;fill:rgb(24.313725%,64.313725%,80%);fill-opacity:1;" />
<path d="M 435.363281 435.273438 C 430.789062 435.273438 427.085938 431.570312 427.085938 426.996094 L 427.085938 426.824219 C 427.085938 422.253906 430.789062 418.546875 435.363281 418.546875 C 439.9375 418.546875 443.644531 422.25 443.644531 426.824219 L 443.644531 426.996094 C 443.644531 431.566406 439.9375 435.273438 435.363281 435.273438 Z M 435.363281 435.273438 " style=" stroke:none;fill-rule:nonzero;fill:rgb(24.313725%,64.313725%,80%);fill-opacity:1;" />
<path d="M 478.78125 382.175781 L 67.019531 382.175781 C 62.449219 382.175781 58.742188 385.882812 58.742188 390.453125 C 58.742188 395.027344 62.449219 398.734375 67.019531 398.734375 L 468.539062 398.734375 C 472.160156 393.355469 475.570312 387.832031 478.78125 382.175781 Z M 478.78125 382.175781 " style=" stroke:none;fill-rule:nonzero;fill:rgb(20.784314%,55.686275%,72.941176%);fill-opacity:1;" />
<path d="M 77.324219 409.035156 C 72.753906 409.035156 69.046875 405.332031 69.046875 400.757812 L 69.046875 99.015625 C 69.046875 94.441406 72.753906 90.738281 77.324219 90.738281 C 81.898438 90.738281 85.605469 94.445312 85.605469 99.015625 L 85.605469 400.757812 C 85.605469 405.332031 81.898438 409.035156 77.324219 409.035156 Z M 77.324219 409.035156 " style=" stroke:none;fill-rule:nonzero;fill:rgb(13.72549%,42.352941%,60.784314%);fill-opacity:1;" />
<path d="M 501.746094 148.984375 L 490.101562 99.050781 C 488.890625 93.855469 483.691406 90.625 478.496094 91.835938 L 428.566406 103.480469 C 423.367188 104.691406 420.136719 109.886719 421.347656 115.085938 C 422.5625 120.28125 427.757812 123.511719 432.953125 122.300781 L 459.40625 116.132812 L 354.542969 269.066406 L 241.773438 238.46875 C 238.769531 237.652344 235.558594 238.335938 233.144531 240.300781 L 113.757812 337.480469 C 109.617188 340.851562 108.992188 346.9375 112.363281 351.074219 C 115.722656 355.199219 121.808594 355.847656 125.957031 352.46875 L 241.5 258.417969 L 356.105469 289.515625 C 360.070312 290.59375 364.28125 289.039062 366.601562 285.652344 L 476.421875 125.488281 L 482.925781 153.371094 C 483.964844 157.832031 487.9375 160.84375 492.328125 160.84375 C 498.542969 160.84375 503.160156 155.050781 501.746094 148.984375 Z M 501.746094 148.984375 " style=" stroke:none;fill-rule:nonzero;fill:rgb(25.098039%,62.352941%,96.078431%);fill-opacity:1;" />
<path d="M 354.523438 269.0625 L 241.777344 238.46875 C 238.769531 237.652344 235.558594 238.335938 233.144531 240.300781 L 113.757812 337.480469 C 109.617188 340.851562 108.992188 346.9375 112.363281 351.074219 C 115.71875 355.199219 121.808594 355.847656 125.957031 352.46875 L 241.5 258.417969 L 356.105469 289.515625 C 363.5 291.523438 367.117188 284.839844 367.21875 284.757812 C 358.300781 286.117188 351.355469 277.382812 354.523438 269.0625 Z M 354.523438 269.0625 " style=" stroke:none;fill-rule:nonzero;fill:rgb(5.490196%,55.294118%,85.882353%);fill-opacity:1;" />
<path d="M 256.1875 390.453125 C 256.1875 386.945312 258.054688 383.882812 260.839844 382.175781 L 67.019531 382.175781 C 62.449219 382.175781 58.742188 385.882812 58.742188 390.453125 C 58.742188 395.027344 62.449219 398.734375 67.019531 398.734375 L 260.839844 398.734375 C 258.054688 397.027344 256.1875 393.964844 256.1875 390.453125 Z M 256.1875 390.453125 " style=" stroke:none;fill-rule:nonzero;fill:rgb(13.72549%,42.352941%,60.784314%);fill-opacity:1;" />
</g>
</svg>