<svg xmlns="http://www.w3.org/2000/svg" height="512pt" version="1.1" viewBox="0 0 512 512.00017" width="512pt">
<g id="surface1">
<path d="M 512 256 C 512 397.382812 397.382812 512 256 512 C 114.613281 512 0 397.382812 0 256 C 0 114.613281 114.613281 0 256 0 C 397.382812 0 512 114.613281 512 256 Z M 512 256 " style=" stroke:none;fill-rule:nonzero;fill:rgb(6.27451%,29.019608%,48.627451%);fill-opacity:1;" />
<path d="M 26.917969 370.355469 C 68.917969 454.332031 155.71875 512 256 512 C 356.28125 512 443.078125 454.332031 485.082031 370.355469 Z M 26.917969 370.355469 " style=" stroke:none;fill-rule:nonzero;fill:rgb(4.705882%,22.745098%,42.745098%);fill-opacity:1;" />
<path d="M 265.324219 511.832031 C 216.539062 439.671875 265.300781 381.703125 265.300781 381.601562 L 265.140625 370.355469 L 26.917969 370.355469 C 70.3125 457.113281 161.378906 515.554688 265.324219 511.832031 Z M 265.324219 511.832031 " style=" stroke:none;fill-rule:nonzero;fill:rgb(2.745098%,16.470588%,36.862745%);fill-opacity:1;" />
<path d="M 64.375 157.257812 L 53.078125 157.257812 C 48.0625 157.257812 44 153.191406 44 148.175781 C 44 143.164062 48.0625 139.097656 53.078125 139.097656 L 64.375 139.097656 C 69.390625 139.097656 73.453125 143.164062 73.453125 148.175781 C 73.453125 153.191406 69.390625 157.257812 64.375 157.257812 Z M 64.375 157.257812 " style=" stroke:none;fill-rule:nonzero;fill:rgb(20.784314%,55.686275%,72.941176%);fill-opacity:1;" />
<path d="M 64.375 213.34375 L 53.078125 213.34375 C 48.0625 213.34375 44 209.28125 44 204.265625 C 44 199.25 48.0625 195.1875 53.078125 195.1875 L 64.375 195.1875 C 69.390625 195.1875 73.453125 199.25 73.453125 204.265625 C 73.453125 209.277344 69.390625 213.34375 64.375 213.34375 Z M 64.375 213.34375 " style=" stroke:none;fill-rule:nonzero;fill:rgb(20.784314%,55.686275%,72.941176%);fill-opacity:1;" />
<path d="M 64.375 269.429688 L 53.078125 269.429688 C 48.0625 269.429688 44 265.367188 44 260.351562 C 44 255.335938 48.0625 251.273438 53.078125 251.273438 L 64.375 251.273438 C 69.390625 251.273438 73.453125 255.335938 73.453125 260.351562 C 73.453125 265.367188 69.390625 269.429688 64.375 269.429688 Z M 64.375 269.429688 " style=" stroke:none;fill-rule:nonzero;fill:rgb(20.784314%,55.686275%,72.941176%);fill-opacity:1;" />
<path d="M 64.375 325.515625 L 53.078125 325.515625 C 48.0625 325.515625 44 321.453125 44 316.4375 C 44 311.421875 48.0625 307.359375 53.078125 307.359375 L 64.375 307.359375 C 69.390625 307.359375 73.453125 311.421875 73.453125 316.4375 C 73.453125 321.453125 69.390625 325.515625 64.375 325.515625 Z M 64.375 325.515625 " style=" stroke:none;fill-rule:nonzero;fill:rgb(20.784314%,55.686275%,72.941176%);fill-opacity:1;" />
<path d="M 120.460938 392.902344 C 115.449219 392.902344 111.382812 388.839844 111.382812 383.824219 L 111.382812 372.523438 C 111.382812 367.507812 115.449219 363.445312 120.460938 363.445312 C 125.476562 363.445312 129.542969 367.507812 129.542969 372.523438 L 129.542969 383.824219 C 129.542969 388.839844 125.476562 392.902344 120.460938 392.902344 Z M 120.460938 392.902344 " style=" stroke:none;fill-rule:nonzero;fill:rgb(20.784314%,55.686275%,72.941176%);fill-opacity:1;" />
<path d="M 176.550781 392.902344 C 171.535156 392.902344 167.472656 388.839844 167.472656 383.824219 L 167.472656 372.523438 C 167.472656 367.507812 171.535156 363.445312 176.550781 363.445312 C 181.5625 363.445312 185.628906 367.507812 185.628906 372.523438 L 185.628906 383.824219 C 185.628906 388.839844 181.5625 392.902344 176.550781 392.902344 Z M 176.550781 392.902344 " style=" stroke:none;fill-rule:nonzero;fill:rgb(20.784314%,55.686275%,72.941176%);fill-opacity:1;" />
<path d="M 232.636719 392.902344 C 227.621094 392.902344 223.558594 388.839844 223.558594 383.824219 L 223.558594 372.523438 C 223.558594 367.507812 227.621094 363.445312 232.636719 363.445312 C 237.652344 363.445312 241.714844 367.507812 241.714844 372.523438 L 241.714844 383.824219 C 241.714844 388.839844 237.652344 392.902344 232.636719 392.902344 Z M 232.636719 392.902344 " style=" stroke:none;fill-rule:nonzero;fill:rgb(20.784314%,55.686275%,72.941176%);fill-opacity:1;" />
<path d="M 288.722656 392.902344 C 283.710938 392.902344 279.644531 388.839844 279.644531 383.824219 L 279.644531 372.523438 C 279.644531 367.507812 283.710938 363.445312 288.722656 363.445312 C 293.738281 363.445312 297.800781 367.507812 297.800781 372.523438 L 297.800781 383.824219 C 297.800781 388.839844 293.738281 392.902344 288.722656 392.902344 Z M 288.722656 392.902344 " style=" stroke:none;fill-rule:nonzero;fill:rgb(24.313725%,64.313725%,80%);fill-opacity:1;" />
<path d="M 344.808594 392.902344 C 339.796875 392.902344 335.730469 388.839844 335.730469 383.824219 L 335.730469 372.523438 C 335.730469 367.507812 339.796875 363.445312 344.808594 363.445312 C 349.824219 363.445312 353.890625 367.507812 353.890625 372.523438 L 353.890625 383.824219 C 353.890625 388.839844 349.824219 392.902344 344.808594 392.902344 Z M 344.808594 392.902344 " style=" stroke:none;fill-rule:nonzero;fill:rgb(24.313725%,64.313725%,80%);fill-opacity:1;" />
<path d="M 400.894531 392.902344 C 395.882812 392.902344 391.816406 388.839844 391.816406 383.824219 L 391.816406 372.523438 C 391.816406 367.507812 395.882812 363.445312 400.894531 363.445312 C 405.910156 363.445312 409.976562 367.507812 409.976562 372.523438 L 409.976562 383.824219 C 409.976562 388.839844 405.910156 392.902344 400.894531 392.902344 Z M 400.894531 392.902344 " style=" stroke:none;fill-rule:nonzero;fill:rgb(24.313725%,64.313725%,80%);fill-opacity:1;" />
<path d="M 456.984375 392.902344 C 451.96875 392.902344 447.90625 388.839844 447.90625 383.824219 L 447.90625 372.523438 C 447.90625 367.507812 451.96875 363.445312 456.984375 363.445312 C 462 363.445312 466.0625 367.507812 466.0625 372.523438 L 466.0625 383.824219 C 466.0625 388.839844 462 392.902344 456.984375 392.902344 Z M 456.984375 392.902344 " style=" stroke:none;fill-rule:nonzero;fill:rgb(24.313725%,64.313725%,80%);fill-opacity:1;" />
<path d="M 456.984375 372.523438 L 484 372.523438 C 501.898438 337.574219 512 297.964844 512 256 C 512 209.21875 499.441406 165.371094 477.527344 127.636719 L 456.984375 148.179688 Z M 456.984375 372.523438 " style=" stroke:none;fill-rule:nonzero;fill:rgb(96.862745%,87.45098%,60.392157%);fill-opacity:1;" />
<path d="M 502.03125 185.0625 C 496.191406 164.773438 487.910156 145.519531 477.527344 127.636719 L 456.984375 148.179688 L 456.984375 222.953125 Z M 502.03125 185.0625 " style=" stroke:none;fill-rule:nonzero;fill:rgb(95.686275%,78.039216%,34.509804%);fill-opacity:1;" />
<path d="M 405.367188 199.796875 C 404.132812 201.03125 402.515625 201.648438 400.898438 201.648438 L 400.898438 372.523438 L 456.984375 372.523438 L 456.984375 148.179688 Z M 405.367188 199.796875 " style=" stroke:none;fill-rule:nonzero;fill:rgb(95.686275%,78.039216%,34.509804%);fill-opacity:1;" />
<path d="M 400.898438 201.648438 L 400.898438 265.453125 C 404.320312 265.460938 407.746094 264.367188 410.347656 262.179688 L 456.984375 222.953125 L 456.984375 148.179688 L 405.367188 199.796875 C 404.132812 201.03125 402.515625 201.648438 400.898438 201.648438 Z M 400.898438 201.648438 " style=" stroke:none;fill-rule:nonzero;fill:rgb(91.764706%,70.196078%,22.352941%);fill-opacity:1;" />
<path d="M 400.898438 201.648438 C 399.28125 201.648438 397.664062 201.03125 396.425781 199.796875 L 350.019531 153.386719 C 348.582031 151.949219 346.695312 151.230469 344.808594 151.230469 L 344.808594 372.523438 L 400.898438 372.523438 Z M 400.898438 201.648438 " style=" stroke:none;fill-rule:nonzero;fill:rgb(96.862745%,87.45098%,60.392157%);fill-opacity:1;" />
<path d="M 350.019531 153.386719 C 348.582031 151.949219 346.695312 151.230469 344.808594 151.230469 L 344.808594 226.640625 C 347.9375 226.8125 351.003906 227.894531 353.382812 229.90625 L 391.480469 262.15625 C 394.070312 264.347656 397.480469 265.445312 400.898438 265.453125 L 400.898438 201.648438 C 399.28125 201.648438 397.664062 201.03125 396.429688 199.796875 Z M 350.019531 153.386719 " style=" stroke:none;fill-rule:nonzero;fill:rgb(95.686275%,78.039216%,34.509804%);fill-opacity:1;" />
<path d="M 344.808594 151.230469 C 342.925781 151.230469 341.039062 151.949219 339.601562 153.386719 C 290.058594 203.160156 291.371094 201.097656 288.722656 204.921875 L 288.722656 372.527344 L 344.808594 372.527344 Z M 344.808594 151.230469 " style=" stroke:none;fill-rule:nonzero;fill:rgb(95.686275%,78.039216%,34.509804%);fill-opacity:1;" />
<path d="M 288.722656 204.921875 L 288.722656 270.335938 C 289.929688 268.875 287.65625 271.148438 334.3125 230.054688 C 337.140625 227.566406 341.019531 226.433594 344.808594 226.640625 L 344.808594 151.230469 C 342.925781 151.230469 341.039062 151.949219 339.601562 153.386719 C 290.058594 203.160156 291.371094 201.097656 288.722656 204.921875 Z M 288.722656 204.921875 " style=" stroke:none;fill-rule:nonzero;fill:rgb(91.764706%,70.196078%,22.352941%);fill-opacity:1;" />
<path d="M 288.722656 204.921875 C 286.46875 208.175781 289.402344 203.15625 235.882812 309.949219 C 235.183594 311.34375 233.980469 312.257812 232.636719 312.640625 L 232.636719 372.527344 L 288.722656 372.527344 Z M 288.722656 204.921875 " style=" stroke:none;fill-rule:nonzero;fill:rgb(96.862745%,87.45098%,60.392157%);fill-opacity:1;" />
<path d="M 235.882812 309.949219 C 235.183594 311.34375 233.980469 312.257812 232.636719 312.640625 L 232.636719 352.851562 C 235.875 352.019531 238.753906 350.164062 240.484375 347.394531 C 291.050781 266.492188 287.710938 271.5625 288.722656 270.335938 L 288.722656 204.921875 C 286.46875 208.175781 289.515625 202.925781 235.882812 309.949219 Z M 235.882812 309.949219 " style=" stroke:none;fill-rule:nonzero;fill:rgb(95.686275%,78.039216%,34.509804%);fill-opacity:1;" />
<path d="M 232.636719 312.640625 C 230.902344 313.132812 228.929688 312.730469 227.507812 311.308594 L 180.957031 264.761719 C 179.738281 263.542969 178.144531 262.933594 176.550781 262.933594 L 176.550781 372.527344 L 232.636719 372.527344 Z M 232.636719 312.640625 " style=" stroke:none;fill-rule:nonzero;fill:rgb(95.686275%,78.039216%,34.509804%);fill-opacity:1;" />
<path d="M 227.507812 311.308594 L 180.957031 264.761719 C 179.742188 263.542969 178.144531 262.933594 176.550781 262.933594 L 176.550781 322.449219 C 179.785156 322.386719 183.042969 323.308594 185.636719 325.226562 L 219.921875 350.566406 C 223.578125 353.269531 228.410156 353.9375 232.636719 352.851562 L 232.636719 312.640625 C 230.902344 313.132812 228.929688 312.730469 227.507812 311.308594 Z M 227.507812 311.308594 " style=" stroke:none;fill-rule:nonzero;fill:rgb(91.764706%,70.196078%,22.352941%);fill-opacity:1;" />
<path d="M 176.550781 262.933594 C 174.953125 262.933594 173.359375 263.542969 172.140625 264.761719 C 120.957031 315.773438 123.742188 313.5625 120.460938 315.964844 L 120.460938 372.523438 L 176.550781 372.523438 Z M 176.550781 262.933594 " style=" stroke:none;fill-rule:nonzero;fill:rgb(96.862745%,87.45098%,60.392157%);fill-opacity:1;" />
<path d="M 120.460938 315.964844 L 120.460938 352.582031 C 131.15625 346.21875 154.742188 332.914062 167.726562 325.464844 C 170.203125 323.511719 173.363281 322.503906 176.550781 322.449219 L 176.550781 262.933594 C 174.953125 262.933594 173.359375 263.542969 172.140625 264.761719 C 120.957031 315.773438 123.742188 313.5625 120.460938 315.964844 Z M 120.460938 315.964844 " style=" stroke:none;fill-rule:nonzero;fill:rgb(95.686275%,78.039216%,34.509804%);fill-opacity:1;" />
<path d="M 120.460938 372.523438 L 120.460938 315.964844 C 116.910156 318.570312 119.167969 316.914062 64.375 344.222656 L 64.375 372.523438 Z M 120.460938 372.523438 " style=" stroke:none;fill-rule:nonzero;fill:rgb(95.686275%,78.039216%,34.509804%);fill-opacity:1;" />
<path d="M 64.375 344.222656 L 64.375 372.523438 L 73.367188 372.523438 C 120.808594 352.535156 118.820312 353.558594 120.464844 352.582031 L 120.464844 315.964844 C 116.910156 318.570312 119.167969 316.914062 64.375 344.222656 Z M 64.375 344.222656 " style=" stroke:none;fill-rule:nonzero;fill:rgb(91.764706%,70.196078%,22.352941%);fill-opacity:1;" />
<path d="M 488.40625 363.445312 L 53.078125 363.445312 C 48.0625 363.445312 44 367.511719 44 372.523438 C 44 377.539062 48.0625 381.605469 53.078125 381.605469 L 479.097656 381.605469 C 482.433594 375.691406 485.539062 369.636719 488.40625 363.445312 Z M 488.40625 363.445312 " style=" stroke:none;fill-rule:nonzero;fill:rgb(20.784314%,55.686275%,72.941176%);fill-opacity:1;" />
<path d="M 55.296875 97.082031 L 55.296875 383.824219 C 55.296875 388.839844 59.363281 392.902344 64.375 392.902344 C 69.390625 392.902344 73.453125 388.839844 73.453125 383.824219 L 73.453125 76.542969 C 67.046875 83.058594 60.980469 89.914062 55.296875 97.082031 Z M 55.296875 97.082031 " style=" stroke:none;fill-rule:nonzero;fill:rgb(13.72549%,42.352941%,60.784314%);fill-opacity:1;" />
<path d="M 260.679688 372.523438 C 260.679688 368.792969 262.503906 365.496094 265.296875 363.445312 L 53.078125 363.445312 C 48.0625 363.445312 44 367.511719 44 372.523438 C 44 377.539062 48.0625 381.605469 53.078125 381.605469 L 265.296875 381.605469 C 262.503906 379.554688 260.679688 376.257812 260.679688 372.523438 Z M 260.679688 372.523438 " style=" stroke:none;fill-rule:nonzero;fill:rgb(13.72549%,42.352941%,60.784314%);fill-opacity:1;" />
</g>
</svg>