<svg id="Capa_1" enable-background="new 0 0 512 512" height="512" viewBox="0 0 512 512" width="512" xmlns="http://www.w3.org/2000/svg"><path d="m441.427 432.5c43.729-45.927 70.573-108.078 70.573-176.5 0-141.385-114.615-256-256-256s-256 114.615-256 256c0 68.422 26.844 130.573 70.573 176.5l185.427 40z" fill="#ffd00d"/><path d="m441.427 432.5h-370.854c46.632 48.975 112.464 79.5 185.427 79.5s138.795-30.525 185.427-79.5z" fill="#293d7c"/><path d="m307.764 305.031v-47.031h-51.764-51.764v47.031c0 45.316-13.294 89.635-38.236 127.469h90 90c-24.942-37.834-38.236-82.154-38.236-127.469z" fill="#d9eafc"/><path d="m320.237 380c-8.214-24.008-12.474-49.329-12.474-74.969v-47.031h-51.763-11.764-40v47.031c0 45.316-13.294 89.635-38.236 127.469h40c8.385-12.72 15.452-26.174 21.141-40.151 3.05-7.493 10.384-12.349 18.473-12.349z" fill="#c3ddf4"/><path d="m461 340h-410c-11.046 0-20-8.954-20-20v-37h450v37c0 11.046-8.954 20-20 20z" fill="#fff"/><path d="m72 320v-37h-41v37c0 11.046 8.954 20 20 20h41c-11.046 0-20-8.954-20-20z" fill="#d9eafc"/><path d="m31 290v-230c0-11.046 8.954-20 20-20h410c11.046 0 20 8.954 20 20v230z" fill="#445ea0"/><path d="m92 40h-41c-11.046 0-20 8.954-20 20v230h41v-230c0-11.046 8.954-20 20-20z" fill="#2e4c89"/><path d="m151-40h210v410h-210z" fill="#69cdff" transform="matrix(0 1 -1 0 421 -91)"/><path d="m51 60h40v210h-40z" fill="#52bbef"/><path d="m366 447.5h-220c-8.284 0-15-6.716-15-15 0-8.284 6.716-15 15-15h220c8.284 0 15 6.716 15 15 0 8.284-6.716 15-15 15z" fill="#fff"/><path d="m171 432.5c0-8.284 6.716-15 15-15h-40c-8.284 0-15 6.716-15 15s6.716 15 15 15h40c-8.284 0-15-6.716-15-15z" fill="#d9eafc"/><g fill="#91e0e8"><path d="m275.559 270h-40l-70-210h40z"/><path d="m452.892 270h-40l-70-210h40z"/><path d="m326 270h-20l-70-210h20z"/></g></svg>