<svg id="Capa_1" enable-background="new 0 0 512 512" height="512" viewBox="0 0 512 512" width="512" xmlns="http://www.w3.org/2000/svg"><path d="m256 0c-141.385 0-256 114.615-256 256 0 112.333 72.355 207.757 173 242.235h166c100.645-34.478 173-129.902 173-242.235 0-141.385-114.615-256-256-256z" fill="#69cdff"/><path d="m339 417.5h-166v80.735c26.03 8.916 53.948 13.765 83 13.765s56.97-4.849 83-13.765z" fill="#445ea0"/><path d="m271 464.638h-44.252c-7.593 0-13.748-6.155-13.748-13.748v-33.39h-40v80.735c12.899 4.419 26.264 7.827 40 10.151 0-7.593 6.155-13.748 13.748-13.748h44.252c8.284 0 15-6.716 15-15 0-8.285-6.716-15-15-15z" fill="#2e4c89"/><path d="m431 175c0-95.724-76.857-173.498-172.228-174.978-97.178-1.509-177.505 77.3-177.771 174.49-.098 35.783 10.546 69.07 28.888 96.826 30.549 46.227 46.111 100.752 46.111 156.162 0 11.046 8.954 20 20 20h160c11.046 0 20-8.954 20-20v-.005c0-55.911 16.487-110.488 46.919-157.392 17.763-27.379 28.081-60.035 28.081-95.103z" fill="#ffd00d"/><path d="m273.515 314.176c-.464 0-.937-.065-1.405-.202-2.651-.774-4.171-3.551-3.397-6.202l29.657-101.494h-4.625c-2.474-.001-4.847-.911-6.684-2.563l-13.149-11.819-11.23 10.095c-3.812 3.426-9.56 3.425-13.37 0l-11.229-10.095-13.146 11.817c-1.838 1.652-4.211 2.563-6.684 2.563h-4.623l29.657 101.494c.774 2.65-.746 5.427-3.397 6.202-2.647.775-5.427-.746-6.202-3.397l-29.657-101.494c-.892-3.051-.309-6.259 1.597-8.803 1.907-2.543 4.823-4.002 8.001-4.002h4.621l13.146-11.817c3.811-3.427 9.56-3.426 13.371 0l11.229 10.094 11.229-10.095c3.812-3.426 9.56-3.426 13.37-.001l13.149 11.819h4.625c3.178 0 6.095 1.458 8.001 4.002 1.906 2.543 2.489 5.752 1.597 8.803l-29.657 101.494c-.636 2.184-2.631 3.601-4.795 3.601z" fill="#ff9518"/><path d="m296 350c-96.65 0-175-78.35-175-175 0-89.9 67.792-163.953 155.042-173.86-5.679-.648-11.44-1.028-17.271-1.118-97.178-1.509-177.505 77.3-177.771 174.49-.098 35.783 10.547 69.07 28.888 96.826 30.55 46.227 46.112 100.752 46.112 156.162 0 11.046 8.954 20 20 20h160c11.046 0 20-8.954 20-20v-.005c0-32.512 5.586-64.57 16.236-94.934-23.045 11.171-48.908 17.439-76.236 17.439z" fill="#ffaf10"/><path d="m276 297.5h-40c-5.523 0-10 4.477-10 10v140h60v-140c0-5.523-4.477-10-10-10z" fill="#ff9518"/><path d="m226 335.424v112.076h60v-97.791c-21.235-1.196-41.454-6.181-60-14.285z" fill="#ef8318"/></svg>