<svg id="Capa_1" enable-background="new 0 0 512 512" height="512" viewBox="0 0 512 512" width="512" xmlns="http://www.w3.org/2000/svg"><path d="m81.029 442.85h349.942c49.862-46.711 81.029-113.136 81.029-186.85 0-141.385-114.615-256-256-256s-256 114.615-256 256c0 73.714 31.167 140.139 81.029 186.85z" fill="#37c47a"/><path d="m101 459.75c-6.96-5.29-13.63-10.94-20-16.9v-402.85c0-22.09 17.91-40 40-40h270c22.09 0 40 17.91 40 40v402.85c-6.37 5.96-13.04 11.61-20 16.9z" fill="#445ea0"/><path d="m121 40c0-22.09 17.91-40 40-40h-40c-22.09 0-40 17.91-40 40v402.85c6.37 5.96 13.04 11.61 20 16.9h20z" fill="#2e4c89"/><path d="m411 111v348.75c-43.02 32.78-96.74 52.25-155 52.25-41.36 0-80.42-9.81-115-27.23-6.85-3.45-13.52-7.19-20-11.22-6.9-4.29-13.57-8.89-20-13.8v-348.75c0-6.08 4.92-11 11-11h288c6.08 0 11 4.92 11 11z" fill="#69cdff"/><path d="m152 100c-6.08 0-11 4.92-11 11v373.77c-6.85-3.45-13.52-7.19-20-11.22-6.9-4.29-13.57-8.89-20-13.8v-348.75c0-6.08 4.92-11 11-11z" fill="#52bbef"/><path d="m296 80h-80c-5.523 0-10-4.477-10-10 0-5.523 4.477-10 10-10h80c5.523 0 10 4.477 10 10 0 5.523-4.477 10-10 10z" fill="#2e4c89"/><path d="m246 70c0-5.523 4.477-10 10-10h-40c-5.523 0-10 4.477-10 10s4.477 10 10 10h40c-5.523 0-10-4.477-10-10z" fill="#293d7c"/><circle cx="176" cy="70" fill="#2e4c89" r="10"/><circle cx="256" cy="30" fill="#2e4c89" r="10"/><g fill="#91e0e8"><path d="m411 459.75v-109.607l-85-250.143h-60l126.589 372.533c6.328-4 12.475-8.26 18.411-12.783z"/><path d="m367.358 486.566-131.358-386.566h-30l135.075 397.507c9.001-3.171 17.775-6.823 26.283-10.941z"/><path d="m178.433 500.032c21.415 6.803 44.052 10.859 67.498 11.767l-139.428-410.32c-3.288 1.902-5.503 5.447-5.503 9.521v161.157z"/></g><path d="m141 203-34.497-101.521c-3.288 1.902-5.503 5.447-5.503 9.521v161.157l40 117.714z" fill="#69cdff"/></svg>