<svg id="Capa_1" enable-background="new 0 0 512 512" height="512" viewBox="0 0 512 512" width="512" xmlns="http://www.w3.org/2000/svg"><path d="m512 256c0 141.385-114.615 256-256 256s-256-114.615-256-256c0-122.798 86.461-225.403 201.828-250.257 17.462-3.762 90.883-3.762 108.345 0 115.366 24.854 201.827 127.459 201.827 250.257z" fill="#2e4c89"/><path d="m220.108 66.867h71.783l18.277-61.105c-17.462-3.763-35.58-5.762-54.168-5.762-5.391 0-10.737.187-16.046.515z" fill="#e6283c"/><path d="m209.027 104.688 11.081-37.821h71.783l11.081 37.821h20.84l-12.728-43.444c-2.497-8.522-10.313-14.377-19.193-14.377h-71.783c-8.88 0-16.697 5.855-19.193 14.377l-12.728 43.444z" fill="#ffaf10"/><circle cx="256" cy="285.274" fill="#ffd00d" r="199.496"/><path d="m171.642 285.274c0-90.162 59.817-166.34 141.927-191.049-18.229-5.486-37.552-8.447-57.569-8.447-110.179 0-199.496 89.317-199.496 199.496s89.317 199.496 199.496 199.496c20.017 0 39.34-2.961 57.569-8.447-82.11-24.709-141.927-100.887-141.927-191.049z" fill="#ffaf10"/><circle cx="256" cy="285.274" fill="#ffaf10" r="176.697"/><path d="m171.642 285.274c0-75.832 42.312-141.78 104.614-175.529-6.649-.762-13.406-1.168-20.256-1.168-97.431 0-176.697 79.266-176.697 176.697s79.266 176.696 176.697 176.696c6.85 0 13.606-.405 20.256-1.168-62.302-33.748-104.614-99.696-104.614-175.528z" fill="#ff9518"/><circle cx="256" cy="285.274" fill="#ff9518" r="131.097"/><path d="m171.642 285.274c0-47.166 16.379-90.5 43.744-124.649-52.467 17.137-90.483 66.533-90.483 124.649s38.016 107.512 90.483 124.649c-27.366-34.149-43.744-77.483-43.744-124.649z" fill="#ef8318"/><path d="m301.599 219.725c0-4.722-3.828-8.55-8.55-8.55h-74.099c-4.722 0-8.55 3.828-8.55 8.55 0 4.722 3.828 8.55 8.55 8.55 4.722 0 8.55 3.828 8.55 8.55v96.898c0 4.722-3.828 8.55-8.55 8.55-4.722 0-8.55 3.828-8.55 8.55 0 4.722 3.828 8.55 8.55 8.55h74.099c4.722 0 8.55-3.828 8.55-8.55 0-4.722-3.828-8.55-8.55-8.55-4.722 0-8.55-3.828-8.55-8.55v-96.898c0-4.722 3.828-8.55 8.55-8.55 4.722 0 8.55-3.828 8.55-8.55z" fill="#ffd00d"/><path d="m238.474 350.823c0-4.722 3.828-8.55 8.55-8.55 4.722 0 8.55-3.828 8.55-8.55v-96.898c0-4.722-3.828-8.55-8.55-8.55-4.722 0-8.55-3.828-8.55-8.55s3.828-8.55 8.55-8.55h-28.073c-4.722 0-8.55 3.828-8.55 8.55s3.828 8.55 8.55 8.55 8.55 3.828 8.55 8.55v96.898c0 4.722-3.828 8.55-8.55 8.55s-8.55 3.828-8.55 8.55 3.828 8.55 8.55 8.55h28.073c-4.722 0-8.55-3.828-8.55-8.55z" fill="#ffaf10"/><path d="m242.987 66.867h48.904l-19.845-66.352c-5.309-.328-10.655-.515-16.046-.515-10.977 0-21.791.693-32.404 2.034z" fill="#fe3745"/><path d="m220.108 66.867h35.892l-19.775-66.114c-11.704.894-23.182 2.593-34.394 5.008z" fill="#e6283c"/></svg>