<svg id="Capa_1" enable-background="new 0 0 512 512" height="512" viewBox="0 0 512 512" width="512" xmlns="http://www.w3.org/2000/svg"><path d="m455.982 415.81c35.047-43.8 56.018-99.352 56.018-159.81 0-141.385-114.615-256-256-256s-256 114.615-256 256c0 60.458 20.971 116.01 56.018 159.81z" fill="#69cdff"/><path d="m456 20v395.81c-46.91 58.63-119.07 96.19-200 96.19-60.54 0-116.17-21.02-160-56.15-14.76-11.83-28.18-25.27-40-40.04v-265.81l110-40 40-110h230c11.05 0 20 8.95 20 20z" fill="#d9eafc"/><path d="m206 110v50c0 11.05-8.95 20-20 20h-40c-27.61 0-50 22.39-50 50v225.85c-14.76-11.83-28.18-25.27-40-40.04v-265.81z" fill="#c3ddf4"/><path d="m206 0v130c0 11.046-8.954 20-20 20h-130z" fill="#fff"/><path d="m226 181h230c11.046 0 20 8.954 20 20v110c0 11.046-8.954 20-20 20h-230c-11.046 0-20-8.954-20-20v-110c0-11.046 8.954-20 20-20z" fill="#fe3745"/><path d="m247.482 311v-110c0-11.046 8.954-20 20-20h-41.482c-11.046 0-20 8.954-20 20v110c0 11.046 8.954 20 20 20h41.482c-11.046 0-20-8.954-20-20z" fill="#e6283c"/><g fill="#fff"><path d="m402.146 300.726c-4.142 0-7.5-3.358-7.5-7.5v-74.451c0-4.142 3.358-7.5 7.5-7.5h30.175c4.142 0 7.5 3.358 7.5 7.5s-3.358 7.5-7.5 7.5h-22.675v66.951c0 4.142-3.358 7.5-7.5 7.5z"/><path d="m429.924 262.795h-27.778c-4.142 0-7.5-3.358-7.5-7.5s3.358-7.5 7.5-7.5h27.778c4.142 0 7.5 3.358 7.5 7.5s-3.358 7.5-7.5 7.5z"/><path d="m322.142 298.708c-4.142 0-7.5-3.358-7.5-7.5v-71.524c0-4.142 3.358-7.5 7.5-7.5s7.5 3.358 7.5 7.5v71.524c0 4.143-3.358 7.5-7.5 7.5z"/><path d="m322.289 299.891c-1.979 0-3.878-.782-5.284-2.177-1.412-1.401-2.209-3.307-2.216-5.296 0 0-.095-26.382-.095-36.498 0-8.299-.053-36.296-.053-36.296-.004-1.992.785-3.903 2.192-5.313s3.316-2.202 5.308-2.202h20.613c22.066 0 36.891 17.638 36.891 43.891 0 24.972-15.206 43.363-36.157 43.729-5.862.102-20.549.159-21.171.161-.009.001-.019.001-.028.001zm7.366-72.782c.016 8.913.039 23.262.039 28.811 0 6.654.041 20.357.069 28.934 4.686-.027 10.395-.069 13.463-.123 14.716-.257 21.419-15.074 21.419-28.731 0-13.967-5.751-28.891-21.891-28.891z"/><path d="m249.679 301c-4.142 0-7.5-3.358-7.5-7.5v-75c0-4.142 3.358-7.5 7.5-7.5s7.5 3.358 7.5 7.5v75c0 4.142-3.358 7.5-7.5 7.5z"/><path d="m249.824 268.423c-1.973 0-3.866-.777-5.271-2.164-1.416-1.398-2.217-3.301-2.229-5.291 0 0-.093-15.399-.093-21.304 0-4.834-.052-21.141-.052-21.141-.006-1.993.781-3.907 2.188-5.319s3.319-2.205 5.312-2.205h20.883c16.035 0 29.08 12.859 29.08 28.665s-13.045 28.665-29.08 28.665c-5.784 0-20.691.093-20.691.093-.016.001-.031.001-.047.001zm7.377-42.423c.014 4.965.03 11.024.03 13.665 0 3.136.026 8.961.051 13.715 4.618-.024 10.22-.05 13.28-.05 7.632 0 14.08-6.258 14.08-13.665s-6.448-13.665-14.08-13.665z"/></g></svg>