<svg id="Capa_1" enable-background="new 0 0 512 512" height="512" viewBox="0 0 512 512" width="512" xmlns="http://www.w3.org/2000/svg"><path d="m0 256c0-141.385 114.615-256 256-256s256 114.615 256 256z" fill="#ffd00d"/><path d="m512 61v195c0 35.23-7.12 68.8-20 99.35-38.79 92.04-459.98 28.52-472 0-12.88-30.55-20-64.12-20-99.35v-195c0-11.05 8.95-20 20-20h472c11.05 0 20 8.95 20 20z" fill="#445ea0"/><path d="m90 41c-11.05 0-20 8.95-20 20v322.5c-20.95-22.15-37.98.37-50-28.15-12.88-30.55-20-64.12-20-99.35v-195c0-11.05 8.95-20 20-20z" fill="#2e4c89"/><path d="m492 144.16v211.19c-38.79 92.04-129.85 156.65-236 156.65-73.26 0-139.33-30.78-186-80.1-20.95-22.15-37.98-48.03-50-76.55v-211.19c0-2.38 1.67-4.42 4-4.89 1.77-.36 3.45-.95 5.02-1.75 6.52-3.3 10.98-10.06 10.98-17.85 0-.36-.01-.72-.03-1.08-.2-3.7-1.4-7.14-3.34-10.04-2.55-3.81-3.8-8.16-3.8-12.49 0-5.74 2.2-11.43 6.5-15.73 7.55-7.54 19.36-8.63 28.23-2.7.77.52 1.59.99 2.44 1.4.23.11.46.22.7.33 2.44 1.05 5.13 1.64 7.97 1.64 9.67 0 17.74-6.87 19.6-16 .47-2.33 2.51-4 4.89-4h305.68c2.38 0 4.42 1.67 4.89 4 1.86 9.13 9.93 16 19.6 16 2.84 0 5.53-.59 7.97-1.64 1.1-.49 2.16-1.06 3.14-1.73 3.81-2.55 8.17-3.8 12.5-3.8 5.74 0 11.43 2.2 15.73 6.5 7.54 7.55 8.63 19.36 2.7 28.22-1.94 2.9-3.14 6.34-3.34 10.04-.02.36-.03.72-.03 1.08 0 7.79 4.46 14.55 10.98 17.85 1.57.8 3.25 1.39 5.02 1.75 2.33.47 4 2.51 4 4.89z" fill="#d9eafc"/><path d="m70 79.03v352.87c-20.95-22.15-37.98-48.03-50-76.55v-211.19c0-2.38 1.67-4.42 4-4.89 1.77-.36 3.45-.95 5.02-1.75 6.52-3.3 10.98-10.06 10.98-17.85 0-.36-.01-.72-.03-1.08-.2-3.7-1.4-7.14-3.34-10.04-2.55-3.81-3.8-8.16-3.8-12.49 0-5.74 2.2-11.43 6.5-15.73 7.55-7.54 19.36-8.63 28.23-2.7.77.52 1.59.99 2.44 1.4z" fill="#c3ddf4"/><path d="m401.491 511.469-30.345-15.173c-1.399-.7-3.046-.7-4.445 0l-30.346 15.173c-3.305 1.652-7.193-.751-7.193-4.445v-109.319h79.522v109.318c0 3.695-3.888 6.098-7.193 4.446z" fill="#fe3745"/><path d="m358.983 397.705h-29.821v109.318c0 3.695 3.888 6.098 7.193 4.445l22.628-11.314z" fill="#e6283c"/><circle cx="368.923" cy="366" fill="#ffd00d" r="75"/><path d="m333.923 366c0-34.492 23.292-63.527 55-72.282-6.37-1.759-13.071-2.718-20-2.718-41.421 0-75 33.579-75 75s33.579 75 75 75c6.929 0 13.63-.959 20-2.718-31.708-8.755-55-37.79-55-72.282z" fill="#ffaf10"/><circle cx="368.923" cy="366" fill="#ff9518" r="55"/><path d="m356.46 312.442c-24.341 5.663-42.537 27.519-42.537 53.558 0 26.04 18.196 47.896 42.538 53.559-13.9-13.608-22.538-32.567-22.538-53.559 0-20.991 8.637-39.951 22.537-53.558z" fill="#ef8318"/><path d="m391.261 333.889c0-2.313-1.875-4.188-4.188-4.188h-36.299c-2.313 0-4.188 1.875-4.188 4.188 0 2.313 1.875 4.188 4.188 4.188 2.313 0 4.188 1.875 4.188 4.188v47.468c0 2.313-1.875 4.188-4.188 4.188-2.313 0-4.188 1.875-4.188 4.188 0 2.313 1.875 4.188 4.188 4.188h36.299c2.313 0 4.188-1.875 4.188-4.188 0-2.313-1.875-4.188-4.188-4.188-2.313 0-4.188-1.875-4.188-4.188v-47.468c0-2.313 1.875-4.188 4.188-4.188 2.313.001 4.188-1.875 4.188-4.188z" fill="#ffd00d"/><path d="m361.324 398.111c0-2.313 1.875-4.188 4.188-4.188s4.188-1.875 4.188-4.188v-47.468c0-2.313-1.875-4.188-4.188-4.188s-4.188-1.875-4.188-4.188 1.875-4.188 4.188-4.188h-14.739c-2.313 0-4.188 1.875-4.188 4.188s1.875 4.188 4.188 4.188 4.188 1.875 4.188 4.188v47.468c0 2.313-1.875 4.188-4.188 4.188s-4.188 1.875-4.188 4.188 1.875 4.188 4.188 4.188h14.739c-2.313 0-4.188-1.875-4.188-4.188z" fill="#ffaf10"/><g fill="#b5d3ea"><path d="m406 148.5h-300c-4.142 0-7.5-3.358-7.5-7.5s3.358-7.5 7.5-7.5h300c4.142 0 7.5 3.358 7.5 7.5s-3.358 7.5-7.5 7.5z"/><path d="m406 198.5h-165c-4.142 0-7.5-3.358-7.5-7.5s3.358-7.5 7.5-7.5h165c4.142 0 7.5 3.358 7.5 7.5s-3.358 7.5-7.5 7.5z"/><path d="m211 198.5h-105c-4.142 0-7.5-3.358-7.5-7.5s3.358-7.5 7.5-7.5h105c4.142 0 7.5 3.358 7.5 7.5s-3.358 7.5-7.5 7.5z"/><path d="m406 248.5h-300c-4.142 0-7.5-3.358-7.5-7.5s3.358-7.5 7.5-7.5h300c4.142 0 7.5 3.358 7.5 7.5s-3.358 7.5-7.5 7.5z"/><path d="m253.923 298.5h-147.923c-4.142 0-7.5-3.358-7.5-7.5s3.358-7.5 7.5-7.5h147.923c4.142 0 7.5 3.358 7.5 7.5s-3.358 7.5-7.5 7.5z"/><path d="m253.923 348.5h-147.923c-4.142 0-7.5-3.358-7.5-7.5s3.358-7.5 7.5-7.5h147.923c4.142 0 7.5 3.358 7.5 7.5s-3.358 7.5-7.5 7.5z"/><path d="m173 398.5h-67c-4.142 0-7.5-3.358-7.5-7.5s3.358-7.5 7.5-7.5h67c4.142 0 7.5 3.358 7.5 7.5s-3.358 7.5-7.5 7.5z"/></g></svg>