<svg id="Capa_1" enable-background="new 0 0 512 512" height="512" viewBox="0 0 512 512" width="512" xmlns="http://www.w3.org/2000/svg"><circle cx="256" cy="256" fill="#d9eafc" r="256"/><path d="m475.19 216.607c0-41.422-33.579-75-75-75h-373.253c-17.227 34.429-26.937 73.275-26.937 114.393 0 12.085.857 23.968 2.477 35.607h397.713c41.421 0 75-33.578 75-75z" fill="#fff"/><path d="m215.513 508.802c13.189 2.095 26.708 3.198 40.487 3.198s27.298-1.103 40.487-3.198l-7.438-108.587h-66.099z" fill="#2e4c89"/><path d="m215.513 508.802c11.915 1.893 24.103 2.959 36.506 3.148l7.653-111.735h-36.721z" fill="#293d7c"/><path d="m292.721 375.733h-73.443c-6.76 0-12.24 5.48-12.24 12.24v24.481c0 6.76 5.48 12.24 12.24 12.24h73.443c6.76 0 12.24-5.48 12.24-12.24v-24.481c.001-6.759-5.479-12.24-12.24-12.24z" fill="#ffd00d"/><path d="m256 412.455v-24.481c0-6.76 5.48-12.24 12.24-12.24h-48.962c-6.76 0-12.24 5.48-12.24 12.24v24.481c0 6.76 5.48 12.24 12.24 12.24h48.962c-6.76 0-12.24-5.48-12.24-12.24z" fill="#ffaf10"/><circle cx="256" cy="216.607" fill="#2e4c89" r="183.607"/><path d="m142.393 216.607c0-89.433 63.946-163.918 148.607-180.261-11.332-2.187-23.03-3.346-35-3.346-101.403 0-183.607 82.204-183.607 183.607s82.204 183.607 183.607 183.607c11.97 0 23.668-1.159 35-3.346-84.661-16.342-148.607-90.828-148.607-180.261z" fill="#293d7c"/><circle cx="256" cy="216.607" fill="#69cdff" r="159.126"/><path d="m231.067 59.439c-75.94 12.002-134.193 77.907-134.193 157.168s58.253 145.166 134.193 157.168c-53.146-32.165-88.674-90.511-88.674-157.168s35.527-125.002 88.674-157.168z" fill="#52bbef"/><path d="m415.126 216.607c0-27.103-6.818-52.641-18.818-75h-280.616c-12 22.359-18.818 47.897-18.818 75s6.818 52.641 18.818 75h280.616c12-22.359 18.818-47.897 18.818-75z" fill="#d9eafc"/><path d="m142.393 216.607c0-26.719 5.712-52.101 15.974-75h-42.675c-12 22.359-18.818 47.897-18.818 75s6.818 52.641 18.818 75h42.675c-10.263-22.899-15.974-48.281-15.974-75z" fill="#c3ddf4"/><g fill="#2e4c89"><path d="m195.779 256.383c-3.031 0-5.885-1.851-7.019-4.854l-18.01-47.722-18.184 47.744c-1.475 3.87-5.808 5.812-9.678 4.339-3.871-1.474-5.814-5.807-4.339-9.678l23.885-62.711c.021-.056.043-.112.066-.168 1.378-3.372 4.623-5.554 8.266-5.558h.011c3.639 0 6.884 2.173 8.269 5.539.028.068.055.137.082.207l23.667 62.714c1.462 3.875-.494 8.202-4.369 9.665-.872.328-1.767.483-2.647.483z"/><path d="m188.449 240.763h-35.442c-4.142 0-7.5-3.358-7.5-7.5s3.358-7.5 7.5-7.5h35.442c4.142 0 7.5 3.358 7.5 7.5s-3.358 7.5-7.5 7.5z"/><path d="m235.778 221.17c-1.983 0-3.886-.785-5.292-2.185-1.414-1.407-2.208-3.32-2.208-5.315v-29.337c0-4.142 3.358-7.5 7.5-7.5h18.476c12.206 0 22.137 9.93 22.137 22.136s-9.931 22.136-22.137 22.136c-4.001 0-18.441.065-18.442.065-.012 0-.023 0-.034 0zm7.5-29.337v14.305c4.179-.017 8.933-.033 10.976-.033 3.936 0 7.137-3.201 7.137-7.136s-3.201-7.136-7.137-7.136z"/><path d="m235.778 255.441c-1.983 0-3.886-.785-5.292-2.185-1.414-1.407-2.208-3.32-2.208-5.315v-34.318c0-4.142 3.358-7.5 7.5-7.5h21.703c13.576 0 24.621 11.045 24.621 24.621s-11.045 24.621-24.621 24.621c-4.682 0-21.669.076-21.669.076-.012 0-.023 0-.034 0zm7.5-34.318v19.286c5.188-.021 11.596-.044 14.203-.044 5.305 0 9.621-4.316 9.621-9.621s-4.316-9.621-9.621-9.621z"/><path d="m346.405 255.441c-21.672 0-39.304-17.631-39.304-39.304s17.632-39.304 39.304-39.304c7.875 0 15.476 2.323 21.98 6.717 3.433 2.319 4.335 6.981 2.017 10.413-2.318 3.433-6.98 4.335-10.413 2.017-4.016-2.713-8.713-4.146-13.584-4.146-13.401 0-24.304 10.903-24.304 24.304s10.902 24.304 24.304 24.304c4.982 0 9.177-1.486 12.467-4.416.642-.571 1.254-1.204 1.822-1.881 2.661-3.174 7.392-3.59 10.566-.928s3.589 7.392.928 10.566c-1.035 1.234-2.159 2.393-3.341 3.446-6.032 5.372-13.792 8.212-22.442 8.212z"/></g></svg>