<svg id="Capa_1" enable-background="new 0 0 512 512" height="512" viewBox="0 0 512 512" width="512" xmlns="http://www.w3.org/2000/svg"><path d="m81 442.823h350c49.845-46.709 81-113.123 81-186.823 0-122.798-86.461-225.402-201.828-250.257-17.462-3.762-90.883-3.762-108.345 0-115.366 24.854-201.827 127.459-201.827 250.257 0 73.7 31.155 140.114 81 186.823z" fill="#69cdff"/><path d="m220.108 92.602h71.783l18.277-86.84c-17.462-3.763-35.58-5.762-54.168-5.762-5.391 0-10.737.187-16.046.515z" fill="#d9eafc"/><path d="m411 92.602h-310c-11.046 0-20 8.954-20 20v330.221c4.048 3.793 8.219 7.457 12.507 10.984 2.426 1.996 7.39-4.145 7.39-4.145s5.036 13.769 7.607 15.585c41.692 29.447 92.57 46.753 147.496 46.753s105.804-17.306 147.496-46.754c2.563-1.81 7.583-16.567 7.583-16.567s4.979 7.129 7.413 5.128c4.288-3.527 8.459-7.19 12.507-10.984v-330.221c.001-11.046-8.953-20-19.999-20z" fill="#fe3745"/><path d="m81 112.602v330.221c4.048 3.794 8.22 7.457 12.508 10.983 2.316 1.905 7.05-.406 7.05-.406s5.259 9.946 7.947 11.844c4.079 2.88 8.245 5.644 12.495 8.287v-360.929c0-11.046 8.954-20 20-20h-40c-11.046 0-20 8.954-20 20z" fill="#e6283c"/><path d="m401 105.102h-290c-9.649 0-17.5 7.851-17.5 17.5v331.214c4.853 3.991 9.858 7.804 15 11.436v-342.65c0-1.378 1.121-2.5 2.5-2.5h290c1.379 0 2.5 1.122 2.5 2.5v342.65c5.142-3.631 10.147-7.444 15-11.436v-331.214c0-9.65-7.851-17.5-17.5-17.5z" fill="#fff"/><path d="m111 105.102c-9.649 0-17.5 7.851-17.5 17.5v331.175c4.854 3.992 9.857 7.809 15 11.441v-342.616c0-1.378 1.121-2.5 2.5-2.5h10v-7.5c0-2.654.528-5.182 1.467-7.5z" fill="#d9eafc"/><path d="m322.103 381.636h-132.206c-4.914 0-8.897-3.983-8.897-8.897v-182.205c0-4.914 3.983-8.897 8.897-8.897h132.205c4.914 0 8.897 3.983 8.897 8.897v182.205c.001 4.914-3.982 8.897-8.896 8.897z" fill="#fff"/><path d="m216.589 372.739v-182.205c0-4.914 3.984-8.897 8.897-8.897h-35.589c-4.914 0-8.897 3.983-8.897 8.897v182.205c0 4.914 3.984 8.897 8.897 8.897h35.589c-4.913 0-8.897-3.983-8.897-8.897z" fill="#d9eafc"/><path d="m278.589 304.409c15.324-7.939 25.802-23.932 25.802-42.381 0-26.352-21.363-47.714-47.714-47.714-26.352 0-47.714 21.362-47.714 47.714 0 18.45 10.478 34.442 25.802 42.381-15.324 7.939-25.802 23.929-25.802 42.378h.05v34.849h95.378v-34.849c0-18.449-10.479-34.439-25.802-42.378z" fill="#445ea0"/><path d="m235.281 346.787c0-18.449 10.478-34.439 25.802-42.378-15.324-7.939-25.802-23.932-25.802-42.381 0-21.785 14.606-40.147 34.555-45.862-4.182-1.198-8.593-1.853-13.159-1.853-26.352 0-47.714 21.362-47.714 47.714 0 18.45 10.478 34.442 25.802 42.381-15.324 7.939-25.802 23.929-25.802 42.378h.05v34.849h26.319v-34.849h-.051z" fill="#2e4c89"/><path d="m333.5 161.636h-155c-5.523 0-10-4.477-10-10v-60c0-5.523 4.477-10 10-10h155c5.523 0 10 4.477 10 10v60c0 5.523-4.477 10-10 10z" fill="#445ea0"/><path d="m198.5 151.636v-60c0-5.523 4.477-10 10-10h-30c-5.523 0-10 4.477-10 10v60c0 5.523 4.477 10 10 10h30c-5.523 0-10-4.477-10-10z" fill="#2e4c89"/><path d="m297.867 106.867h-83.734c-3.939 0-7.133-3.193-7.133-7.133 0-3.939 3.193-7.133 7.133-7.133h83.734c3.939 0 7.133 3.193 7.133 7.133 0 3.94-3.193 7.133-7.133 7.133z" fill="#69cdff"/><path d="m291.892 92.602h-71.783l-18.277-86.84c17.462-3.763 35.58-5.762 54.168-5.762 5.391 0 10.737.187 16.046.515z" fill="#fff"/><path d="m201.832 5.762 18.277 86.84h35.165l-19.709-91.789c-11.473.912-22.734 2.579-33.733 4.949z" fill="#d9eafc"/><g fill="#fff"><path d="m343.5 429.136h-175c-4.143 0-7.5-3.358-7.5-7.5s3.357-7.5 7.5-7.5h175c4.143 0 7.5 3.358 7.5 7.5s-3.357 7.5-7.5 7.5z"/><path d="m318.5 479.136h-125c-4.143 0-7.5-3.358-7.5-7.5s3.357-7.5 7.5-7.5h125c4.143 0 7.5 3.358 7.5 7.5s-3.357 7.5-7.5 7.5z"/></g></svg>