<svg id="Capa_1" enable-background="new 0 0 512 512" height="512" viewBox="0 0 512 512" width="512" xmlns="http://www.w3.org/2000/svg"><path d="m455.982 415.81c35.047-43.8 56.018-99.352 56.018-159.81 0-141.385-114.615-256-256-256s-256 114.615-256 256c0 60.458 20.971 116.01 56.018 159.81z" fill="#2e4c89"/><path d="m456 20v395.81c-46.91 58.63-119.07 96.19-200 96.19-60.54 0-116.17-21.02-160-56.15-14.76-11.83-28.18-25.27-40-40.04v-265.81l110-40 40-110h230c11.05 0 20 8.95 20 20z" fill="#d9eafc"/><path d="m206 110v50c0 11.05-8.95 20-20 20h-40c-27.61 0-50 22.39-50 50v225.85c-14.76-11.83-28.18-25.27-40-40.04v-265.81z" fill="#c3ddf4"/><path d="m206 0v130c0 11.046-8.954 20-20 20h-130z" fill="#fff"/><path d="m226 181h230c11.046 0 20 8.954 20 20v110c0 11.046-8.954 20-20 20h-230c-11.046 0-20-8.954-20-20v-110c0-11.046 8.954-20 20-20z" fill="#69cdff"/><path d="m247.482 311v-110c0-11.046 8.954-20 20-20h-41.482c-11.046 0-20 8.954-20 20v110c0 11.046 8.954 20 20 20h41.482c-11.046 0-20-8.954-20-20z" fill="#52bbef"/><g fill="#fff"><path d="m375.408 289.185-25.216-35.845 21.5-30.52c2.386-3.386 1.575-8.065-1.812-10.451-3.386-2.386-8.065-1.574-10.45 1.812l-18.406 26.127-18.377-26.123c-2.382-3.386-7.058-4.203-10.449-1.819-3.388 2.383-4.202 7.062-1.818 10.45l21.469 30.518-25.254 35.847c-2.386 3.386-1.575 8.065 1.812 10.451 1.313.925 2.82 1.369 4.313 1.369 2.357 0 4.678-1.108 6.138-3.181l22.159-31.455 22.125 31.451c1.46 2.076 3.781 3.185 6.141 3.185 1.49 0 2.996-.443 4.309-1.366 3.386-2.384 4.2-7.062 1.816-10.45z"/><path d="m282.726 211h-41.419c-4.143 0-7.5 3.358-7.5 7.5s3.357 7.5 7.5 7.5h13.126v67.5c0 4.142 3.357 7.5 7.5 7.5s7.5-3.358 7.5-7.5v-67.5h13.293c4.143 0 7.5-3.358 7.5-7.5s-3.358-7.5-7.5-7.5z"/><path d="m440.693 211h-41.419c-4.143 0-7.5 3.358-7.5 7.5s3.357 7.5 7.5 7.5h13.126v67.5c0 4.142 3.357 7.5 7.5 7.5s7.5-3.358 7.5-7.5v-67.5h13.293c4.143 0 7.5-3.358 7.5-7.5s-3.357-7.5-7.5-7.5z"/></g></svg>