<svg id="Capa_1" enable-background="new 0 0 512 512" height="512" viewBox="0 0 512 512" width="512" xmlns="http://www.w3.org/2000/svg"><path d="m512 256c0-141.385-114.615-256-256-256s-256 114.615-256 256l394.991 215.005c70.413-45.613 117.009-124.863 117.009-215.005z" fill="#d9eafc"/><path d="m105 100v362.74c-25.73-18.82-47.82-42.34-65-69.28-25.32-39.71-40-86.87-40-137.46v-156c0-5.52 4.48-10 10-10h85c5.52 0 10 4.48 10 10z" fill="#69cdff"/><path d="m50 90c-5.52 0-10 4.48-10 10v293.46c-25.32-39.71-40-86.87-40-137.46v-156c0-5.52 4.48-10 10-10z" fill="#52bbef"/><path d="m80 122.62h-55c-2.761 0-5 2.239-5 5v227.739c11.701 27.76 28.167 53.013 48.358 74.761h11.642c2.761 0 5-2.239 5-5v-297.5c0-2.761-2.239-5-5-5z" fill="#52bbef"/><path d="m40 122.62v270.84c-7.69-12.05-14.39-24.79-20-38.11v-227.73c0-2.76 2.24-5 5-5z" fill="#1e99d6"/><path d="m270 10v502h-14c-39.77 0-77.42-9.07-111-25.26-14.1-6.79-27.48-14.84-40-24v-452.74c0-5.52 4.48-10 10-10h145c.34 0 .69.02 1.02.05h.01.01c5.04.53 8.96 4.78 8.96 9.95z" fill="#445ea0"/><path d="m155 0c-5.52 0-10 4.48-10 10v476.74c-14.1-6.79-27.48-14.84-40-24v-452.74c0-5.52 4.48-10 10-10z" fill="#2e4c89"/><path d="m395 160v311.01c-25.56 16.56-54.25 28.68-85 35.28-12.99 2.79-26.35 4.6-40 5.33v-351.62c0-5.52 4.48-10 10-10h105c5.52 0 10 4.48 10 10z" fill="#ffd00d"/><path d="m320 150c-5.52 0-10 4.48-10 10v346.29c-12.99 2.79-26.35 4.6-40 5.33v-351.62c0-5.52 4.48-10 10-10z" fill="#ffaf10"/><path d="m130 34.5h114.168c2.761 0 5 2.239 5 5v50c0 2.761-2.239 5-5 5h-114.168c-2.761 0-5-2.239-5-5v-50c0-2.761 2.239-5 5-5z" fill="#2e4c89"/><path d="m145 34.5h-15c-2.761 0-5 2.239-5 5v50c0 2.761 2.239 5 5 5h15z" fill="#293d7c"/><path d="m130 114.5h114.168c2.761 0 5 2.239 5 5v20c0 2.761-2.239 5-5 5h-114.168c-2.761 0-5-2.239-5-5v-20c0-2.761 2.239-5 5-5z" fill="#2e4c89"/><path d="m145 114.5h-15c-2.761 0-5 2.239-5 5v20c0 2.761 2.239 5 5 5h15z" fill="#293d7c"/><path d="m241.668 408.46h-109.168c-4.142 0-7.5-3.358-7.5-7.5s3.358-7.5 7.5-7.5h109.168c4.142 0 7.5 3.358 7.5 7.5s-3.358 7.5-7.5 7.5z" fill="#2e4c89"/><path d="m145 393.46h-12.5c-4.142 0-7.5 3.358-7.5 7.5s3.358 7.5 7.5 7.5h12.5z" fill="#293d7c"/><path d="m270 336.118h125v40h-125z" fill="#ffaf10"/><path d="m270 336.118h40v40h-40z" fill="#ff9518"/><path d="m270 396.118h125v20h-125z" fill="#ffaf10"/><path d="m270 396.118h40v20h-40z" fill="#ff9518"/><path d="m370.054 246.203-20.866-10.433c-.962-.481-2.095-.481-3.057 0l-20.866 10.433c-2.272 1.136-4.946-.516-4.946-3.057v-93.146h54.681v93.146c0 2.54-2.674 4.193-4.946 3.057z" fill="#fe3745"/><path d="m340.825 150h-20.505v93.146c0 2.54 2.674 4.193 4.946 3.057l15.559-7.78z" fill="#e6283c"/></svg>