<svg id="Capa_1" enable-background="new 0 0 512 512" height="512" viewBox="0 0 512 512" width="512" xmlns="http://www.w3.org/2000/svg"><path d="m0 256c0-141.385 114.615-256 256-256s256 114.615 256 256z" fill="#2e4c89"/><path d="m415.256 217h-277.923c-11.046 0-20-8.954-20-20v-73c0-11.046 8.954-20 20-20h277.923c11.046 0 20 8.954 20 20v73c0 11.046-8.954 20-20 20z" fill="#ffaf10"/><path d="m0 95.62v160.38c0 141.38 114.62 256 256 256s256-114.62 256-256v-91.92c0-7.14-3.74-13.4-9.37-16.93-3.08-1.95-6.72-3.07-10.63-3.07h-307.7c-7.94 0-15.13-4.7-18.32-11.98l-19.5-44.51c-3.19-7.27-10.38-11.97-18.32-11.97h-108.16c-11.05 0-20 8.95-20 20z" fill="#ffd00d"/><path d="m406 201.58h-300c-4.142 0-7.5-3.358-7.5-7.5s3.358-7.5 7.5-7.5h300c4.142 0 7.5 3.358 7.5 7.5s-3.358 7.5-7.5 7.5z" fill="#fff"/><path d="m60 256v-160.38c0-11.05 8.95-20 20-20h-60c-11.05 0-20 8.95-20 20v160.38c0 141.38 114.62 256 256 256 10.151 0 20.158-.61 30-1.759-127.242-14.857-226-123.012-226-254.241z" fill="#ffaf10"/></svg>