<svg id="Capa_1" enable-background="new 0 0 512 512" height="512" viewBox="0 0 512 512" width="512" xmlns="http://www.w3.org/2000/svg"><circle cx="256" cy="256" fill="#69cdff" r="256"/><path d="m64.072 177.321v151.857c0 15.59 7.246 30.314 19.661 39.744 29.998 22.785 92.246 61.008 172.267 61.008s142.269-38.223 172.267-61.008c12.415-9.43 19.661-24.154 19.661-39.744v-151.857z" fill="#2e4c89"/><path d="m256 177.321h-191.928v89.568 62.289c0 15.59 7.246 30.314 19.66 39.744 29.998 22.785 92.246 61.009 172.267 61.009v-22.133c0-27.55 15.825-52.472 40.495-64.736.126-.063.253-.126.379-.189l151.054-75.983v-89.569z" fill="#293d7c"/><path d="m500.776 195.531-221.876 111.608c-14.406 7.247-31.393 7.247-45.799 0l-221.877-111.608c-14.965-7.528-14.965-28.892 0-36.419l221.876-111.608c14.406-7.247 31.393-7.247 45.799 0l221.877 111.608c14.965 7.527 14.965 28.891 0 36.419z" fill="#445ea0"/><path d="m396.634 315.415c-4.143 0-7.5-3.358-7.5-7.5v-53.834c0-.95-.527-1.806-1.377-2.233l-135.125-67.971c-3.701-1.861-5.191-6.37-3.33-10.07 1.861-3.701 6.369-5.191 10.071-3.33l135.125 67.971c5.944 2.99 9.637 8.98 9.637 15.634v53.834c-.001 4.141-3.359 7.499-7.501 7.499z" fill="#1a2b63"/><path d="m396.633 292.685c-11.046 0-20 8.954-20 20v31.792c0 5.523 4.477 10 10 10h20c5.523 0 10-4.477 10-10v-31.792c0-11.045-8.954-20-20-20z" fill="#ffd00d"/><path d="m396.633 344.477v-31.792c0-7.398 4.028-13.843 10-17.303-2.944-1.705-6.353-2.697-10-2.697-11.046 0-20 8.954-20 20v31.792c0 5.523 4.477 10 10 10h20c-5.523 0-10-4.477-10-10z" fill="#ffaf10"/><path d="m233.101 47.504-221.877 111.608c-14.965 7.528-14.965 28.892 0 36.419l221.877 111.608c7.204 3.624 15.052 5.435 22.901 5.435-88.438-88.438-93.258-177.249-.002-270.505-7.848 0-15.696 1.811-22.899 5.435z" fill="#2e4c89"/><path d="m410 296.936h-26.733c-4.143 0-7.5-3.358-7.5-7.5s3.357-7.5 7.5-7.5h26.733c4.143 0 7.5 3.358 7.5 7.5s-3.357 7.5-7.5 7.5z" fill="#ffaf10"/></svg>