<svg id="Capa_1" enable-background="new 0 0 512 512" height="512" viewBox="0 0 512 512" width="512" xmlns="http://www.w3.org/2000/svg"><path d="m0 256c0-141.385 114.615-256 256-256s256 114.615 256 256z" fill="#2e4c89"/><path d="m256.677 225.658-168.865 223.334c44.981 39.24 103.806 63.008 168.188 63.008 65.187 0 124.678-24.367 169.869-64.488z" fill="#c3ddf4"/><path d="m109.594 420.184-21.782 28.808c44.981 39.24 103.806 63.008 168.188 63.008 8.442 0 16.786-.417 25.019-1.216-68.72-6.656-129.482-40.48-171.425-90.6z" fill="#b5d3ea"/><path d="m512 134.5v121.5c0 77-34 146.06-87.8 192.98l-168.2-150.73 236.71-169.9 12.42-8.92c4.2 3.67 6.87 9.05 6.87 15.07z" fill="#d9eafc"/><path d="m256 298.25-168.2 150.73c-53.8-46.92-87.8-115.98-87.8-192.98v-121.5c0-6.02 2.67-11.4 6.87-15.07l12.42 8.92z" fill="#d9eafc"/><path d="m50 256v-105.608l-30.71-22.042-12.42-8.92c-4.2 3.67-6.87 9.05-6.87 15.07v121.5c0 77 34 146.06 87.8 192.98l26.296-23.565c-39.88-45.14-64.096-104.445-64.096-169.415z" fill="#c3ddf4"/><path d="m275.425 315.828 230.395-195.763c-3.592-3.44-8.453-5.565-13.82-5.565h-236-236c-5.366 0-10.228 2.125-13.82 5.565l230.394 195.763c11.202 9.518 27.65 9.518 38.851 0z" fill="#fff"/><circle cx="75.167" cy="124.833" fill="#fe3745" r="75.167"/><path d="m30 124.833c0-36.376 25.841-66.714 60.167-73.666-4.848-.982-9.863-1.501-15-1.501-41.514.001-75.167 33.654-75.167 75.167 0 41.514 33.653 75.167 75.167 75.167 5.137 0 10.152-.519 15-1.501-34.326-6.952-60.167-37.289-60.167-73.666z" fill="#e6283c"/><path d="m72.674 157.348c-9.632 0-10.392-.254-11.398-.589-2.401-.801-4.271-2.701-5.003-5.082-1.241-4.036.671-6.54 3.839-10.688 2.481-3.249 7.101-9.298 14.846-20.364 2.527-3.611 3.56-6.153 3.974-7.723l.114-.893c-.191-2.61-2.376-4.676-5.035-4.676-2.408 0-4.492 1.708-4.954 4.062-.798 4.064-4.739 6.712-8.805 5.914-4.064-.798-6.713-4.741-5.914-8.805 1.841-9.37 10.114-16.17 19.673-16.17 11.055 0 20.049 8.994 20.049 20.048 0 .319-.021.637-.061.954l-.243 1.897c-.032.249-.076.495-.133.739-.953 4.111-3.098 8.571-6.376 13.254-3.832 5.475-6.92 9.754-9.375 13.091 3.42-.019 7.13-.052 10.672-.097h.096c4.099 0 7.446 3.296 7.497 7.406.053 4.142-3.263 7.542-7.405 7.594-7.098.089-12.266.128-16.058.128z" fill="#fff"/></svg>