<svg id="Capa_1" enable-background="new 0 0 512 512" height="512" viewBox="0 0 512 512" width="512" xmlns="http://www.w3.org/2000/svg"><path d="m0 256c0-141.385 114.615-256 256-256s256 114.615 256 256z" fill="#69cdff"/><path d="m512 125.62v130.38c0 141.38-114.62 256-256 256s-256-114.62-256-256v-130.38z" fill="#d9eafc"/><path d="m40 256v-130.38h-40v130.38c0 141.38 114.62 256 256 256 6.731 0 13.4-.263 20-.773-132.033-10.205-236-120.578-236-255.227z" fill="#c3ddf4"/><g fill="#52bbef"><path d="m256 471.31c-73.061 0-132.5-59.439-132.5-132.5s59.439-132.5 132.5-132.5 132.5 59.439 132.5 132.5-59.439 132.5-132.5 132.5zm0-250c-64.79 0-117.5 52.71-117.5 117.5s52.71 117.5 117.5 117.5 117.5-52.71 117.5-117.5-52.71-117.5-117.5-117.5z"/><path d="m366.273 293.817h-220.546c-4.142 0-7.5-3.358-7.5-7.5s3.358-7.5 7.5-7.5h220.547c4.142 0 7.5 3.358 7.5 7.5s-3.358 7.5-7.501 7.5z"/><path d="m366.273 398.802h-220.546c-4.142 0-7.5-3.358-7.5-7.5s3.358-7.5 7.5-7.5h220.547c4.142 0 7.5 3.358 7.5 7.5s-3.358 7.5-7.501 7.5z"/><path d="m256 471.31c-26.92 0-50.199-30.044-60.751-78.409-.883-4.047 1.682-8.043 5.729-8.926 4.043-.886 8.043 1.681 8.926 5.729 8.692 39.839 27.217 66.606 46.096 66.606s37.403-26.767 46.096-66.606c.883-4.047 4.881-6.613 8.926-5.729 4.047.883 6.612 4.879 5.729 8.926-10.552 48.365-33.831 78.409-60.751 78.409z"/><path d="m309.416 293.819c-3.45 0-6.555-2.394-7.32-5.903-8.692-39.839-27.217-66.606-46.096-66.606s-37.403 26.767-46.096 66.606c-.883 4.047-4.882 6.612-8.926 5.729-4.047-.883-6.612-4.879-5.729-8.926 10.552-48.365 33.831-78.409 60.751-78.409s50.199 30.044 60.751 78.409c.883 4.047-1.682 8.043-5.729 8.926-.539.118-1.076.174-1.606.174z"/><path d="m173.958 368.986c-3.602 0-6.825-2.273-8.032-5.672-.122-.344-.219-.696-.29-1.054l-8.836-44.671c-.804-4.063 1.839-8.009 5.902-8.813 4.064-.803 8.009 1.839 8.813 5.902l3.834 19.385 6.21-20.064c1.225-3.957 5.425-6.171 9.382-4.947 3.957 1.225 6.171 5.425 4.947 9.382l-13.797 44.575c-.021.066-.042.131-.064.197-1.167 3.433-4.387 5.755-8.013 5.779-.017.001-.036.001-.056.001z"/><path d="m203.451 368.986c-3.602 0-6.825-2.273-8.032-5.672-.035-.1-.068-.2-.1-.301l-13.762-44.671c-1.22-3.958 1.001-8.156 4.959-9.375 3.957-1.22 8.156 1 9.375 4.959l6.202 20.131 3.841-19.303c.809-4.063 4.758-6.699 8.82-5.892 4.063.809 6.7 4.757 5.892 8.82l-8.871 44.575c-.064.322-.149.64-.255.951-1.167 3.433-4.387 5.755-8.013 5.779-.017-.001-.037-.001-.056-.001z"/><path d="m241.233 368.986c-3.602 0-6.825-2.273-8.032-5.672-.122-.344-.219-.696-.29-1.054l-8.836-44.671c-.804-4.063 1.839-8.009 5.902-8.813 4.066-.803 8.01 1.839 8.813 5.902l3.834 19.385 6.21-20.064c1.225-3.957 5.426-6.171 9.382-4.947 3.957 1.225 6.172 5.425 4.947 9.382l-13.797 44.575c-.021.066-.042.131-.064.197-1.167 3.433-4.387 5.755-8.013 5.779-.017.001-.037.001-.056.001z"/><path d="m270.726 368.986c-3.601 0-6.823-2.271-8.031-5.668-.036-.101-.07-.202-.101-.305l-13.762-44.671c-1.22-3.958 1.001-8.156 4.959-9.375 3.958-1.22 8.156 1 9.375 4.959l6.202 20.131 3.842-19.303c.809-4.063 4.759-6.699 8.82-5.892 4.063.809 6.7 4.757 5.892 8.82l-8.872 44.575c-.064.321-.149.638-.254.947-1.166 3.433-4.384 5.757-8.009 5.783-.02-.001-.04-.001-.061-.001z"/><path d="m308.508 368.986c-3.601 0-6.823-2.271-8.031-5.668-.123-.345-.22-.698-.291-1.058l-8.836-44.671c-.804-4.063 1.839-8.009 5.902-8.813 4.062-.804 8.009 1.838 8.813 5.902l3.834 19.385 6.211-20.063c1.225-3.957 5.425-6.171 9.382-4.947 3.957 1.225 6.172 5.425 4.947 9.382l-13.797 44.575c-.02.065-.041.129-.063.193-1.166 3.433-4.385 5.757-8.01 5.783-.02 0-.04 0-.061 0z"/><path d="m338 368.986c-3.602 0-6.825-2.273-8.032-5.672-.035-.1-.068-.2-.1-.301l-13.762-44.671c-1.22-3.958 1.001-8.156 4.959-9.375 3.958-1.22 8.157 1 9.375 4.959l6.202 20.131 3.842-19.303c.809-4.063 4.756-6.699 8.82-5.892 4.063.809 6.7 4.757 5.892 8.82l-8.872 44.575c-.064.322-.149.64-.255.951-1.167 3.433-4.387 5.755-8.013 5.779-.017-.001-.036-.001-.056-.001z"/></g><path d="m512 165.62h-512v-100c0-11.046 8.954-20 20-20h472c11.046 0 20 8.954 20 20z" fill="#445ea0"/><path d="m60 45.62h-40c-11.046 0-20 8.954-20 20v100h40v-100c0-11.046 8.954-20 20-20z" fill="#2e4c89"/><circle cx="452" cy="105.62" fill="#fe3745" r="37.5"/><path d="m444.5 105.62c0-15.376 9.258-28.583 22.5-34.371-4.594-2.008-9.665-3.129-15-3.129-20.711 0-37.5 16.789-37.5 37.5s16.789 37.5 37.5 37.5c5.335 0 10.406-1.121 15-3.129-13.242-5.788-22.5-18.995-22.5-34.371z" fill="#e6283c"/><path d="m464.5 125.473c-1.919 0-3.839-.732-5.303-2.197l-24.707-24.706c-2.929-2.929-2.929-7.678 0-10.606 2.929-2.929 7.678-2.929 10.606 0l24.707 24.707c2.929 2.929 2.929 7.678 0 10.606-1.464 1.464-3.384 2.196-5.303 2.196z" fill="#fff"/><path d="m439.5 125.473c-1.919 0-3.839-.732-5.303-2.197-2.929-2.929-2.929-7.678 0-10.606l24.707-24.707c2.929-2.929 7.678-2.929 10.606 0 2.929 2.929 2.929 7.678 0 10.606l-24.707 24.707c-1.464 1.465-3.384 2.197-5.303 2.197z" fill="#fff"/><circle cx="357" cy="105.62" fill="#37c47a" r="37.5"/><path d="m349.5 105.62c0-15.376 9.258-28.583 22.5-34.371-4.594-2.008-9.665-3.129-15-3.129-20.711 0-37.5 16.789-37.5 37.5s16.789 37.5 37.5 37.5c5.335 0 10.406-1.121 15-3.129-13.242-5.788-22.5-18.995-22.5-34.371z" fill="#02af8e"/><path d="m374.574 113.016h-34.94c-4.142 0-7.5-3.358-7.5-7.5s3.358-7.5 7.5-7.5h34.94c4.142 0 7.5 3.358 7.5 7.5s-3.358 7.5-7.5 7.5z" fill="#fff"/><path d="m242 143.12h-182c-20.711 0-37.5-16.789-37.5-37.5 0-20.711 16.789-37.5 37.5-37.5h182c20.711 0 37.5 16.789 37.5 37.5 0 20.711-16.789 37.5-37.5 37.5z" fill="#2e4c89"/><path d="m62.5 105.62c0-20.711 16.789-37.5 37.5-37.5h-40c-20.711 0-37.5 16.789-37.5 37.5 0 20.711 16.789 37.5 37.5 37.5h40c-20.711 0-37.5-16.789-37.5-37.5z" fill="#293d7c"/></svg>