<svg id="Capa_1" enable-background="new 0 0 512 512" height="512" viewBox="0 0 512 512" width="512" xmlns="http://www.w3.org/2000/svg"><path d="m0 256c0-141.385 114.615-256 256-256s256 114.615 256 256z" fill="#69cdff"/><path d="m512 125.62v130.38c0 141.38-114.62 256-256 256s-256-114.62-256-256v-130.38z" fill="#d9eafc"/><path d="m40 256v-130.38h-40v130.38c0 141.38 114.62 256 256 256 6.731 0 13.4-.263 20-.773-132.033-10.205-236-120.578-236-255.227z" fill="#c3ddf4"/><path d="m512 165.62h-512v-100c0-11.046 8.954-20 20-20h472c11.046 0 20 8.954 20 20z" fill="#445ea0"/><path d="m60 45.62h-40c-11.046 0-20 8.954-20 20v100h40v-100c0-11.046 8.954-20 20-20z" fill="#2e4c89"/><circle cx="452" cy="105.62" fill="#fe3745" r="37.5"/><path d="m444.5 105.62c0-15.376 9.258-28.583 22.5-34.371-4.594-2.008-9.665-3.129-15-3.129-20.711 0-37.5 16.789-37.5 37.5s16.789 37.5 37.5 37.5c5.335 0 10.406-1.121 15-3.129-13.242-5.788-22.5-18.995-22.5-34.371z" fill="#e6283c"/><path d="m464.5 125.473c-1.92 0-3.839-.732-5.304-2.197l-24.706-24.706c-2.929-2.929-2.929-7.678 0-10.606 2.931-2.929 7.679-2.929 10.607 0l24.706 24.707c2.929 2.929 2.929 7.678 0 10.606-1.464 1.464-3.384 2.196-5.303 2.196z" fill="#fff"/><path d="m439.5 125.473c-1.919 0-3.839-.732-5.304-2.197-2.929-2.929-2.929-7.678 0-10.606l24.706-24.707c2.93-2.929 7.678-2.929 10.607 0s2.929 7.678 0 10.606l-24.706 24.707c-1.464 1.465-3.384 2.197-5.303 2.197z" fill="#fff"/><circle cx="357" cy="105.62" fill="#37c47a" r="37.5"/><path d="m349.5 105.62c0-15.376 9.258-28.583 22.5-34.371-4.594-2.008-9.665-3.129-15-3.129-20.711 0-37.5 16.789-37.5 37.5s16.789 37.5 37.5 37.5c5.335 0 10.406-1.121 15-3.129-13.242-5.788-22.5-18.995-22.5-34.371z" fill="#02af8e"/><path d="m374.574 113.016h-34.94c-4.143 0-7.5-3.358-7.5-7.5s3.357-7.5 7.5-7.5h34.94c4.143 0 7.5 3.358 7.5 7.5s-3.357 7.5-7.5 7.5z" fill="#fff"/><path d="m242 143.12h-182c-20.711 0-37.5-16.789-37.5-37.5 0-20.711 16.789-37.5 37.5-37.5h182c20.711 0 37.5 16.789 37.5 37.5 0 20.711-16.789 37.5-37.5 37.5z" fill="#2e4c89"/><path d="m62.5 105.62c0-20.711 16.789-37.5 37.5-37.5h-40c-20.711 0-37.5 16.789-37.5 37.5 0 20.711 16.789 37.5 37.5 37.5h40c-20.711 0-37.5-16.789-37.5-37.5z" fill="#293d7c"/><path d="m338.5 451.31h-165c-27.614 0-50-22.386-50-50v-125c0-27.614 22.386-50 50-50h165c27.614 0 50 22.386 50 50v125c0 27.614-22.386 50-50 50z" fill="#fe3745"/><path d="m163.5 401.31v-125c0-27.614 22.386-50 50-50h-40c-27.614 0-50 22.386-50 50v125c0 27.614 22.386 50 50 50h40c-27.614 0-50-22.386-50-50z" fill="#e6283c"/><path d="m218.419 289.565 80.512 42.351c5.55 2.92 5.55 10.867 0 13.787l-80.512 42.351c-4.322 2.274-9.513-.861-9.513-5.745v-86.999c0-4.884 5.191-8.018 9.513-5.745z" fill="#fff"/><path d="m230.27 373.589v-69.558c0-3.267 2.906-5.545 5.879-5.139l-17.73-9.326c-4.322-2.274-9.513.861-9.513 5.745v87.001c0 4.884 5.19 8.018 9.513 5.745l17.73-9.326c-2.973.403-5.879-1.874-5.879-5.142z" fill="#d9eafc"/></svg>