<svg id="Capa_1" enable-background="new 0 0 512 512" height="512" viewBox="0 0 512 512" width="512" xmlns="http://www.w3.org/2000/svg"><path d="m0 256c0-141.385 114.615-256 256-256s256 114.615 256 256z" fill="#69cdff"/><path d="m512 125.62v130.38c0 141.38-114.62 256-256 256s-256-114.62-256-256v-130.38z" fill="#d9eafc"/><path d="m40 256v-130.38h-40v130.38c0 141.38 114.62 256 256 256 6.731 0 13.4-.263 20-.773-132.033-10.205-236-120.578-236-255.227z" fill="#c3ddf4"/><path d="m512 165.62h-512v-100c0-11.046 8.954-20 20-20h472c11.046 0 20 8.954 20 20z" fill="#445ea0"/><path d="m60 45.62h-40c-11.046 0-20 8.954-20 20v100h40v-100c0-11.046 8.954-20 20-20z" fill="#2e4c89"/><circle cx="452" cy="105.62" fill="#fe3745" r="37.5"/><path d="m444.5 105.62c0-15.376 9.258-28.583 22.5-34.371-4.594-2.008-9.665-3.129-15-3.129-20.711 0-37.5 16.789-37.5 37.5s16.789 37.5 37.5 37.5c5.335 0 10.406-1.121 15-3.129-13.242-5.788-22.5-18.995-22.5-34.371z" fill="#e6283c"/><path d="m464.5 125.473c-1.92 0-3.839-.732-5.304-2.197l-24.706-24.706c-2.929-2.929-2.929-7.678 0-10.606 2.931-2.929 7.679-2.929 10.607 0l24.706 24.707c2.929 2.929 2.929 7.678 0 10.606-1.464 1.464-3.384 2.196-5.303 2.196z" fill="#fff"/><path d="m439.5 125.473c-1.919 0-3.839-.732-5.304-2.197-2.929-2.929-2.929-7.678 0-10.606l24.706-24.707c2.93-2.929 7.678-2.929 10.607 0s2.929 7.678 0 10.606l-24.706 24.707c-1.464 1.465-3.384 2.197-5.303 2.197z" fill="#fff"/><circle cx="357" cy="105.62" fill="#37c47a" r="37.5"/><path d="m349.5 105.62c0-15.376 9.258-28.583 22.5-34.371-4.594-2.008-9.665-3.129-15-3.129-20.711 0-37.5 16.789-37.5 37.5s16.789 37.5 37.5 37.5c5.335 0 10.406-1.121 15-3.129-13.242-5.788-22.5-18.995-22.5-34.371z" fill="#02af8e"/><path d="m374.574 113.016h-34.94c-4.143 0-7.5-3.358-7.5-7.5s3.357-7.5 7.5-7.5h34.94c4.143 0 7.5 3.358 7.5 7.5s-3.357 7.5-7.5 7.5z" fill="#fff"/><path d="m242 143.12h-182c-20.711 0-37.5-16.789-37.5-37.5 0-20.711 16.789-37.5 37.5-37.5h182c20.711 0 37.5 16.789 37.5 37.5 0 20.711-16.789 37.5-37.5 37.5z" fill="#2e4c89"/><path d="m62.5 105.62c0-20.711 16.789-37.5 37.5-37.5h-40c-20.711 0-37.5 16.789-37.5 37.5 0 20.711 16.789 37.5 37.5 37.5h40c-20.711 0-37.5-16.789-37.5-37.5z" fill="#293d7c"/><path d="m144.662 291.426v88.093c0 9.044 4.203 17.586 11.405 23.056 17.402 13.218 53.512 35.391 99.933 35.391s82.531-22.173 99.933-35.391c7.202-5.47 11.405-14.012 11.405-23.056v-88.093z" fill="#2e4c89"/><path d="m256 291.426h-111.338v51.959 36.134c0 9.044 4.203 17.585 11.405 23.056 17.402 13.218 53.512 35.391 99.933 35.391v-12.84c0-15.982 9.18-30.439 23.491-37.553.073-.036.147-.073.22-.11l87.627-44.078v-51.959z" fill="#293d7c"/><path d="m397.995 301.99-128.711 64.744c-8.357 4.204-18.211 4.204-26.568 0l-128.711-64.744c-8.681-4.367-8.681-16.76 0-21.127l128.711-64.744c8.357-4.204 18.211-4.204 26.568 0l128.711 64.744c8.681 4.366 8.681 16.76 0 21.127z" fill="#445ea0"/><path d="m337.582 374.684c-4.143 0-7.5-3.358-7.5-7.5v-30.182l-77.451-38.959c-3.7-1.861-5.191-6.37-3.33-10.07s6.37-5.192 10.07-3.33l78.387 39.43c4.518 2.272 7.324 6.826 7.324 11.882v31.229c0 4.142-3.357 7.5-7.5 7.5z" fill="#1a2b63"/><path d="m337.582 358.349c-6.408 0-11.602 5.194-11.602 11.602v18.443c0 3.204 2.597 5.801 5.801 5.801h11.602c3.204 0 5.801-2.597 5.801-5.801v-18.443c0-6.408-5.195-11.602-11.602-11.602z" fill="#ffd00d"/><path d="m337.582 388.394v-18.443c0-4.292 2.337-8.03 5.801-10.037-1.708-.989-3.685-1.565-5.801-1.565-6.408 0-11.602 5.194-11.602 11.602v18.443c0 3.204 2.597 5.801 5.801 5.801h11.602c-3.204 0-5.801-2.598-5.801-5.801z" fill="#ffaf10"/><path d="m242.716 216.119-128.711 64.744c-8.681 4.367-8.681 16.76 0 21.127l128.711 64.744c4.179 2.102 8.732 3.153 13.285 3.153-51.303-51.303-54.099-102.822-.001-156.921-4.553 0-9.105 1.051-13.284 3.153z" fill="#2e4c89"/><path d="m345.336 363.963h-15.508c-4.143 0-7.5-3.358-7.5-7.5s3.357-7.5 7.5-7.5h15.508c4.143 0 7.5 3.358 7.5 7.5s-3.357 7.5-7.5 7.5z" fill="#ffaf10"/></svg>