<svg id="Capa_1" enable-background="new 0 0 512 512" height="512" viewBox="0 0 512 512" width="512" xmlns="http://www.w3.org/2000/svg"><path d="m441.427 432.5c43.729-45.927 70.573-108.078 70.573-176.5 0-141.385-114.615-256-256-256s-256 114.615-256 256c0 68.422 26.844 130.573 70.573 176.5l185.427 40z" fill="#69cdff"/><path d="m441.427 432.5h-370.854c46.632 48.975 112.464 79.5 185.427 79.5s138.795-30.525 185.427-79.5z" fill="#293d7c"/><path d="m307.764 305.031v-47.031h-51.764-51.764v47.031c0 45.316-13.294 89.635-38.236 127.469h90 90c-24.942-37.834-38.236-82.154-38.236-127.469z" fill="#d9eafc"/><path d="m320.237 380c-8.214-24.008-12.474-49.329-12.474-74.969v-47.031h-51.763-11.764-40v47.031c0 45.316-13.294 89.635-38.236 127.469h40c8.385-12.72 15.452-26.174 21.141-40.151 3.05-7.493 10.384-12.349 18.473-12.349z" fill="#c3ddf4"/><path d="m461 340h-410c-11.046 0-20-8.954-20-20v-37h450v37c0 11.046-8.954 20-20 20z" fill="#fff"/><path d="m72 320v-37h-41v37c0 11.046 8.954 20 20 20h41c-11.046 0-20-8.954-20-20z" fill="#d9eafc"/><path d="m31 290v-230c0-11.046 8.954-20 20-20h410c11.046 0 20 8.954 20 20v230z" fill="#445ea0"/><path d="m92 40h-41c-11.046 0-20 8.954-20 20v230h41v-230c0-11.046 8.954-20 20-20z" fill="#2e4c89"/><path d="m151 85.442h210v159.116h-210z" fill="#ffd00d" transform="matrix(0 1 -1 0 421 -91)"/><path d="m51 60h136.667v210h-136.667z" fill="#fe3745"/><path d="m324.333 60h136.667v210h-136.667z" fill="#37c47a"/><path d="m51 60h40v210h-40z" fill="#e6283c"/><path d="m176.442 60h40v210h-40z" fill="#ffaf10"/><path d="m324.333 60h40v210h-40z" fill="#02af8e"/><path d="m366 447.5h-220c-8.284 0-15-6.716-15-15 0-8.284 6.716-15 15-15h220c8.284 0 15 6.716 15 15 0 8.284-6.716 15-15 15z" fill="#fff"/><path d="m171 432.5c0-8.284 6.716-15 15-15h-40c-8.284 0-15 6.716-15 15s6.716 15 15 15h40c-8.284 0-15-6.716-15-15z" fill="#d9eafc"/><path d="m141.245 190.096c15.324-7.939 25.802-23.932 25.802-42.381 0-26.352-21.363-47.714-47.714-47.714-26.352 0-47.714 21.362-47.714 47.714 0 18.45 10.478 34.442 25.802 42.381-15.324 7.939-25.802 23.929-25.802 42.378h.05v37.526h95.378v-37.527c.001-18.449-10.478-34.439-25.802-42.377z" fill="#cf1834"/><path d="m96.619 232.474c0-18.449 10.478-34.439 25.802-42.378-15.324-7.939-25.802-23.932-25.802-42.381 0-22.025 14.927-40.554 35.214-46.049-3.985-1.079-8.173-1.666-12.5-1.666-26.352 0-47.714 21.362-47.714 47.714 0 18.45 10.478 34.442 25.802 42.381-15.324 7.939-25.802 23.929-25.802 42.378h.05v37.527h25v-37.526z" fill="#b7092b"/><path d="m277.912 190.096c15.324-7.939 25.802-23.932 25.802-42.381 0-26.353-21.362-47.715-47.714-47.715s-47.714 21.362-47.714 47.714c0 18.45 10.478 34.442 25.802 42.381-15.324 7.939-25.802 23.929-25.802 42.378h.05v37.527h95.378v-37.527c0-18.449-10.478-34.439-25.802-42.377z" fill="#ff9518"/><path d="m233.286 232.474c0-18.449 10.478-34.439 25.802-42.378-15.324-7.939-25.802-23.932-25.802-42.381 0-22.025 14.927-40.554 35.214-46.049-3.985-1.079-8.173-1.666-12.5-1.666-26.352 0-47.714 21.362-47.714 47.714 0 18.45 10.478 34.442 25.802 42.381-15.324 7.939-25.802 23.929-25.802 42.378h.05v37.527h25v-37.526z" fill="#ef8318"/><path d="m414.579 190.096c15.324-7.939 25.802-23.932 25.802-42.381 0-26.352-21.363-47.714-47.714-47.714-26.352 0-47.714 21.362-47.714 47.714 0 18.45 10.478 34.442 25.802 42.381-15.324 7.939-25.802 23.929-25.802 42.378h.05v37.526h95.378v-37.527c0-18.449-10.479-34.439-25.802-42.377z" fill="#0f9390"/><path d="m369.952 232.474c0-18.449 10.478-34.439 25.802-42.378-15.324-7.939-25.802-23.932-25.802-42.381 0-22.025 14.927-40.554 35.214-46.049-3.985-1.079-8.173-1.666-12.5-1.666-26.352 0-47.714 21.362-47.714 47.714 0 18.45 10.478 34.442 25.802 42.381-15.324 7.939-25.802 23.929-25.802 42.378h.05v37.527h25v-37.526z" fill="#0b8781"/><circle cx="256" cy="51" fill="#fff" r="35"/><circle cx="256" cy="51" fill="#445ea0" r="25"/><circle cx="256" cy="51" fill="#2e4c89" r="15"/><circle cx="262.533" cy="43.564" fill="#fff" r="9.833"/></svg>