<svg id="Capa_1" enable-background="new 0 0 512 512" height="512" viewBox="0 0 512 512" width="512" xmlns="http://www.w3.org/2000/svg"><path d="m455.983 415.809c35.046-43.799 56.017-99.351 56.017-159.809 0-141.385-114.615-256-256-256s-256 114.615-256 256c0 60.458 20.971 116.01 56.017 159.809z" fill="#d9eafc"/><path d="m69.5 94.5h376.5v-84.5h-340l-36.5 20z" fill="#d9eafc"/><path d="m146 80c-16.569 0-30-13.431-30-30 0-16.568 13.431-30 30-30v-10h-40l-36.5 20v64.5h76.5z" fill="#c3ddf4"/><path d="m69.5 42.5h376.5v15h-376.5z" fill="#c3ddf4"/><path d="m456 90v325.81c-46.91 58.63-119.07 96.19-200 96.19-43.36 0-84.21-10.78-120-29.82-31.01-16.48-58.23-39.16-80-66.37v-364.81c0-28.17 22.83-51 51-51h339c5.52 0 10 4.48 10 10s-4.48 10-10 10h-340c-8.28 0-15.78 3.36-21.21 8.79s-8.79 12.93-8.79 21.21c0 6.81 2.27 13.09 6.1 18.13 5.48 7.21 14.14 11.87 23.9 11.87h340c5.52 0 10 4.48 10 10z" fill="#fe3745"/><path d="m456 10c0 5.52-4.48 10-10 10h-340c-8.28 0-15.78 3.36-21.21 8.79s-8.79 12.93-8.79 21.21c0 6.81 2.27 13.09 6.1 18.13 5.48 7.21 14.14 11.87 23.9 11.87h30v402.18c-31.01-16.48-58.23-39.16-80-66.37v-364.81c0-28.17 22.83-51 51-51h339c5.52 0 10 4.48 10 10z" fill="#e6283c"/><path d="m228.354 167.359 144.921 76.233c9.991 5.255 9.991 19.561 0 24.816l-144.921 76.233c-7.78 4.093-17.123-1.549-17.123-10.34v-156.602c.001-8.79 9.343-14.432 17.123-10.34z" fill="#fff"/><path d="m249.685 318.602v-125.205c0-5.881 5.231-9.98 10.583-9.251l-31.914-16.788c-7.78-4.092-17.123 1.549-17.123 10.34v156.601c0 8.791 9.342 14.433 17.123 10.34l31.914-16.788c-5.352.732-10.583-3.367-10.583-9.249z" fill="#d9eafc"/><path d="m121 110c-8.284 0-15 6.716-15 15v338.453c9.527 6.901 19.548 13.16 30 18.717v-357.17c0-8.284-6.716-15-15-15z" fill="#cf1834"/><path d="m416 420h-240c-4.142 0-7.5-3.358-7.5-7.5s3.358-7.5 7.5-7.5h240c4.142 0 7.5 3.358 7.5 7.5s-3.358 7.5-7.5 7.5z" fill="#cf1834"/><path d="m211.232 442.5c-8.284 0-15-6.716-15-15v-30c0-8.284 6.716-15 15-15 8.284 0 15 6.716 15 15v30c0 8.284-6.716 15-15 15z" fill="#fff"/><path d="m211.232 427.5v-30c0-5.549 3.021-10.382 7.5-12.977-2.208-1.279-4.765-2.023-7.5-2.023-8.284 0-15 6.716-15 15v30c0 8.284 6.716 15 15 15 2.735 0 5.292-.744 7.5-2.023-4.479-2.595-7.5-7.428-7.5-12.977z" fill="#d9eafc"/></svg>