<svg id="Capa_1" enable-background="new 0 0 512 512" height="512" viewBox="0 0 512 512" width="512" xmlns="http://www.w3.org/2000/svg"><path d="m497.002 342.5c9.7-27.021 14.998-56.14 14.998-86.5 0-141.385-114.615-256-256-256s-256 114.615-256 256c0 30.36 5.298 59.479 14.998 86.5l241.002 136.5z" fill="#ffd00d"/><path d="m441.427 432.5h-370.854c46.632 48.975 112.464 79.5 185.427 79.5s138.795-30.525 185.427-79.5z" fill="#293d7c"/><path d="m31 295.5h450v77h-450z" fill="#d9eafc"/><path d="m31 295.5h41v77h-41z" fill="#c3ddf4"/><path d="m31 302.5v-230c0-11.046 8.954-20 20-20h410c11.046 0 20 8.954 20 20v230z" fill="#445ea0"/><path d="m92 52.5h-41c-11.046 0-20 8.954-20 20v230h41v-230c0-11.046 8.954-20 20-20z" fill="#2e4c89"/><path d="m151-27.5h210v410h-210z" fill="#69cdff" transform="matrix(0 1 -1 0 433.5 -78.5)"/><path d="m51 72.5h40v210h-40z" fill="#52bbef"/><g fill="#91e0e8"><path d="m270.5 282.5h-50l-70-210h50z"/><path d="m452.892 282.5h-40l-70-210h40z"/><path d="m392.892 282.5h-20l-70-210h20z"/></g><path d="m46.056 402.5h419.889c12.85-18.381 23.348-38.524 31.058-60h-482.005c7.709 21.476 18.207 41.619 31.058 60z" fill="#fff"/><path d="m14.998 342.5c7.709 21.476 18.207 41.619 31.057 60h40c-12.85-18.381-23.348-38.524-31.057-60z" fill="#d9eafc"/><path d="m70.573 432.5h370.853c16.915-17.765 31.304-37.956 42.589-60h-153.6c-8.608 0-16.251 5.509-18.974 13.675l-.883 2.649c-2.722 8.167-10.365 13.675-18.974 13.675h-71.17c-8.609 0-16.251-5.509-18.974-13.675l-.883-2.649c-2.722-8.167-10.365-13.675-18.974-13.675h-153.599c11.286 22.044 25.675 42.235 42.589 60z" fill="#d9eafc"/><path d="m27.984 372.5c11.286 22.044 25.675 42.235 42.589 60h40c-16.915-17.765-31.304-37.956-42.589-60z" fill="#c3ddf4"/><circle cx="377.892" cy="402.5" fill="#37c47a" r="15"/><circle cx="427.892" cy="402.5" fill="#fe3745" r="15"/><path d="m159.912 202.596c15.324-7.939 25.802-23.932 25.802-42.381 0-26.352-21.363-47.714-47.714-47.714-26.352 0-47.714 21.362-47.714 47.714 0 18.45 10.478 34.442 25.802 42.381-15.324 7.939-25.802 23.929-25.802 42.378h.05v37.526h95.378v-37.527c0-18.449-10.478-34.439-25.802-42.377z" fill="#52bbef"/><path d="m115.286 244.974c0-18.449 10.478-34.439 25.802-42.378-15.324-7.939-25.802-23.932-25.802-42.381 0-22.025 14.928-40.554 35.214-46.049-3.985-1.079-8.173-1.666-12.5-1.666-26.352 0-47.714 21.362-47.714 47.714 0 18.45 10.478 34.442 25.802 42.381-15.324 7.939-25.802 23.929-25.802 42.378h.05v37.527h25v-37.526z" fill="#1e99d6"/><path d="m401 20h-165.286c-11.046 0-20 8.954-20 20v137.5c0 11.046 8.954 20 20 20v21.167l21.167-21.167h144.119c11.046 0 20-8.954 20-20v-137.5c0-11.046-8.954-20-20-20z" fill="#fe3745"/><path d="m255.714 177.5v-137.5c0-11.046 8.954-20 20-20h-40c-11.046 0-20 8.954-20 20v137.5c0 11.046 8.954 20 20 20v21.167l21.167-21.167h18.833c-11.045 0-20-8.954-20-20z" fill="#e6283c"/><path d="m380.857 116.25h-125c-4.142 0-7.5-3.358-7.5-7.5s3.358-7.5 7.5-7.5h125c4.143 0 7.5 3.358 7.5 7.5s-3.357 7.5-7.5 7.5z" fill="#fff"/><path d="m318.357 166.25h-62.5c-4.142 0-7.5-3.358-7.5-7.5s3.358-7.5 7.5-7.5h62.5c4.143 0 7.5 3.358 7.5 7.5s-3.357 7.5-7.5 7.5z" fill="#fff"/><path d="m380.857 66.25h-125c-4.142 0-7.5-3.358-7.5-7.5s3.358-7.5 7.5-7.5h125c4.143 0 7.5 3.358 7.5 7.5s-3.357 7.5-7.5 7.5z" fill="#fff"/></svg>