<svg id="Capa_1" enable-background="new 0 0 512 512" height="512" viewBox="0 0 512 512" width="512" xmlns="http://www.w3.org/2000/svg"><path d="m455.983 415.809c35.046-43.799 56.017-99.351 56.017-159.809 0-141.385-114.615-256-256-256s-256 114.615-256 256c0 60.458 20.971 116.01 56.017 159.809z" fill="#2e4c89"/><path d="m69.5 94.5h376.5v-84.5h-340l-36.5 20z" fill="#d9eafc"/><path d="m146 80c-16.569 0-30-13.431-30-30 0-16.568 13.431-30 30-30v-10h-40l-36.5 20v64.5h76.5z" fill="#c3ddf4"/><path d="m69.5 42.5h376.5v15h-376.5z" fill="#c3ddf4"/><path d="m456 90v325.81c-46.91 58.63-119.07 96.19-200 96.19-43.36 0-84.21-10.78-120-29.82-31.01-16.48-58.23-39.16-80-66.37v-364.81c0-28.17 22.83-51 51-51h339c5.52 0 10 4.48 10 10s-4.48 10-10 10h-340c-8.28 0-15.78 3.36-21.21 8.79s-8.79 12.93-8.79 21.21c0 6.81 2.27 13.09 6.1 18.13 5.48 7.21 14.14 11.87 23.9 11.87h340c5.52 0 10 4.48 10 10z" fill="#69cdff"/><g fill="#fff"><path d="m203.657 308.515c-.888 0-1.79-.158-2.668-.493-3.871-1.474-5.814-5.807-4.34-9.678l42.804-112.387c.021-.057.044-.114.067-.171 1.556-3.802 5.216-6.262 9.323-6.265h.01c4.104 0 7.764 2.451 9.325 6.248.027.068.055.136.08.205l42.415 112.392c1.463 3.875-.493 8.203-4.368 9.665-3.874 1.464-8.203-.494-9.665-4.369l-37.809-100.186-38.165 100.207c-1.139 2.991-3.987 4.832-7.009 4.832z"/><path d="m280.523 280.522h-63.517c-4.143 0-7.5-3.358-7.5-7.5s3.357-7.5 7.5-7.5h63.517c4.143 0 7.5 3.358 7.5 7.5s-3.357 7.5-7.5 7.5z"/><path d="m356 304.212c-21.969 0-39.842-17.873-39.842-39.842s17.873-39.842 39.842-39.842 39.842 17.873 39.842 39.842-17.873 39.842-39.842 39.842zm0-64.684c-13.698 0-24.842 11.144-24.842 24.842s11.144 24.842 24.842 24.842 24.842-11.144 24.842-24.842-11.144-24.842-24.842-24.842z"/><path d="m388.342 308.513c-4.143 0-7.5-3.358-7.5-7.5v-73.286c0-4.142 3.357-7.5 7.5-7.5s7.5 3.358 7.5 7.5v73.286c0 4.142-3.358 7.5-7.5 7.5z"/><path d="m393.742 362.48h-195.484c-4.143 0-7.5-3.358-7.5-7.5s3.357-7.5 7.5-7.5h195.484c4.143 0 7.5 3.358 7.5 7.5s-3.357 7.5-7.5 7.5z"/><path d="m356 412.48h-120c-4.143 0-7.5-3.358-7.5-7.5s3.357-7.5 7.5-7.5h120c4.143 0 7.5 3.358 7.5 7.5s-3.357 7.5-7.5 7.5z"/></g><path d="m456 10c0 5.52-4.48 10-10 10h-340c-8.28 0-15.78 3.36-21.21 8.79s-8.79 12.93-8.79 21.21c0 6.81 2.27 13.09 6.1 18.13 5.48 7.21 14.14 11.87 23.9 11.87h30v402.18c-31.01-16.48-58.23-39.16-80-66.37v-364.81c0-28.17 22.83-51 51-51h339c5.52 0 10 4.48 10 10z" fill="#52bbef"/><path d="m121 110c-8.284 0-15 6.716-15 15v338.453c9.527 6.901 19.548 13.16 30 18.717v-357.17c0-8.284-6.716-15-15-15z" fill="#1e99d6"/><path d="m386.55 180.469-30.346-15.173c-1.399-.7-3.046-.7-4.445 0l-30.346 15.173c-3.305 1.652-7.193-.751-7.193-4.445v-133.399h79.522v133.398c.001 3.695-3.888 6.098-7.192 4.446z" fill="#37c47a"/><path d="m344.041 42.625h-29.821v133.399c0 3.695 3.888 6.098 7.193 4.445l22.628-11.314z" fill="#02af8e"/></svg>