<svg id="Capa_1" enable-background="new 0 0 512 512" height="512" viewBox="0 0 512 512" width="512" xmlns="http://www.w3.org/2000/svg"><path d="m256 0c-141.385 0-256 114.615-256 256 0 66.3 25.204 126.712 66.553 172.181l108.941 70.888c6.57 2.175 13.26 4.086 20.053 5.732l.011-.013h120.948v.001c6.797-1.649 13.49-3.563 20.064-5.74l108.877-70.867c41.349-45.469 66.553-105.882 66.553-172.182 0-141.385-114.615-256-256-256z" fill="#69cdff"/><path d="m31 336.935v-276.935c0-11.046 8.954-20 20-20h410c11.046 0 20 8.954 20 20v276.935c0 11.046-8.954 20-20 20h-410c-11.046 0-20-8.955-20-20z" fill="#445ea0"/><path d="m72 336.935v-276.935c0-11.046 8.954-20 20-20h-41c-11.046 0-20 8.954-20 20v276.935c0 11.046 8.954 20 20 20h41c-11.046 0-20-8.955-20-20z" fill="#2e4c89"/><path d="m117.533-6.533h276.935v410h-276.935z" fill="#2e4c89" transform="matrix(0 1 -1 0 454.467 -57.533)"/><path d="m51 60h40v276.935h-40z" fill="#293d7c"/><g fill="#fff"><path d="m421 110.715h-330c-4.142 0-7.5-3.357-7.5-7.5s3.358-7.5 7.5-7.5h330c4.142 0 7.5 3.357 7.5 7.5s-3.358 7.5-7.5 7.5z"/><path d="m421 160.715h-237c-4.142 0-7.5-3.357-7.5-7.5s3.358-7.5 7.5-7.5h237c4.142 0 7.5 3.357 7.5 7.5s-3.358 7.5-7.5 7.5z"/><path d="m154 160.715h-63c-4.142 0-7.5-3.357-7.5-7.5s3.358-7.5 7.5-7.5h63c4.142 0 7.5 3.357 7.5 7.5s-3.358 7.5-7.5 7.5z"/><path d="m421 210.715h-330c-4.142 0-7.5-3.357-7.5-7.5s3.358-7.5 7.5-7.5h330c4.142 0 7.5 3.357 7.5 7.5s-3.358 7.5-7.5 7.5z"/><path d="m338.5 260.715h-165c-4.142 0-7.5-3.357-7.5-7.5s3.358-7.5 7.5-7.5h165c4.142 0 7.5 3.357 7.5 7.5s-3.358 7.5-7.5 7.5z"/><path d="m175.494 356.934c0-33.416-27.09-60.506-60.506-60.506-33.417 0-60.506 27.089-60.506 60.506 0 23.396 13.287 43.675 32.719 53.743-8.138 4.216-15.191 10.227-20.649 17.503 29.286 32.204 66.676 56.897 108.941 70.888v-34.653c0-23.395-13.288-43.672-32.719-53.739 19.433-10.066 32.72-30.346 32.72-53.742z"/></g><path d="m130.839 298.541c-5.054-1.369-10.364-2.112-15.851-2.112-33.417 0-60.506 27.089-60.506 60.506 0 23.396 13.287 43.675 32.719 53.743-8.138 4.216-15.191 10.227-20.649 17.503 6.765 7.439 13.965 14.474 21.554 21.073 4.34-16.798 15.715-30.764 30.797-38.577-19.432-10.068-32.719-30.347-32.719-53.743.001-27.929 18.93-51.426 44.655-58.393z" fill="#d9eafc"/><path d="m316.506 356.934c0-33.416-27.09-60.506-60.506-60.506s-60.506 27.089-60.506 60.506c0 23.396 13.287 43.675 32.719 53.743-19.432 10.067-32.719 30.344-32.719 53.739h.064v40.387c19.382 4.692 39.618 7.197 60.442 7.197 20.847 0 41.105-2.51 60.506-7.212v-40.372c0-23.395-13.288-43.672-32.72-53.739 19.432-10.067 32.72-30.347 32.72-53.743z" fill="#fff"/><path d="m271.851 298.541c-5.054-1.369-10.364-2.112-15.851-2.112-33.417 0-60.506 27.089-60.506 60.506 0 23.396 13.287 43.675 32.719 53.743-19.432 10.067-32.719 30.344-32.719 53.739h.064v40.387c10.337 2.502 20.918 4.377 31.702 5.582v-45.969h-.064c0-23.395 13.287-43.672 32.719-53.739-19.432-10.068-32.719-30.347-32.719-53.743 0-27.93 18.93-51.427 44.655-58.394z" fill="#d9eafc"/><path d="m445.447 428.181c-5.458-7.276-12.512-13.288-20.649-17.503 19.432-10.068 32.719-30.347 32.719-53.743 0-33.416-27.09-60.506-60.506-60.506-33.417 0-60.506 27.089-60.506 60.506 0 23.396 13.287 43.675 32.719 53.743-19.432 10.067-32.719 30.344-32.719 53.739h.064v34.632c42.24-13.996 79.607-38.681 108.878-70.868z" fill="#fff"/><path d="m412.863 298.541c-5.054-1.369-10.364-2.112-15.851-2.112-33.417 0-60.506 27.089-60.506 60.506 0 23.396 13.287 43.675 32.719 53.743-19.432 10.067-32.719 30.344-32.719 53.739h.064v34.632c10.911-3.615 21.497-7.943 31.702-12.931v-21.701h-.064c0-23.395 13.287-43.672 32.719-53.739-19.432-10.068-32.719-30.347-32.719-53.743 0-27.93 18.929-51.427 44.655-58.394z" fill="#d9eafc"/></svg>