<svg id="Capa_1" enable-background="new 0 0 512 512" height="512" viewBox="0 0 512 512" width="512" xmlns="http://www.w3.org/2000/svg"><circle cx="256" cy="256" fill="#ffd00d" r="256"/><path d="m416.491 106.917c-40.124 0-40.124 22.765-80.248 22.765s-40.124-22.765-80.248-22.765c-40.122 0-40.122 22.765-80.244 22.765-40.121 0-40.121-22.765-80.242-22.765l43.253-43.667 71.709-18.781 56.343-9.675 73.985 20.488 52.359 26.956z" fill="#37c47a"/><path d="m73.882 447.429v-202.062c0-100.581 81.537-182.118 182.118-182.118 100.581 0 182.118 81.537 182.118 182.118v202.062h22.765c12.573 0 22.765-10.192 22.765-22.765v-179.297c-.001-125.726-101.922-227.647-227.648-227.647-125.726 0-227.647 101.921-227.647 227.647v179.297c0 12.573 10.192 22.765 22.765 22.765z" fill="#2e4c89"/><path d="m256 40.484c-113.154 0-204.883 91.729-204.883 204.882v202.062h22.765v-202.061c0-100.581 81.537-182.118 182.118-182.118 100.581 0 182.118 81.537 182.118 182.117v202.062h22.765v-202.061c-.001-113.154-91.729-204.883-204.883-204.883z" fill="#293d7c"/><path d="m164.941 504.279h-56.912l-22.765-99.331 22.765-99.331h56.912c18.859 0 34.147 15.288 34.147 34.147v130.367c0 18.86-15.288 34.148-34.147 34.148z" fill="#2e4c89"/><path d="m193.397 458.75c-18.859 0-34.147-15.288-34.147-34.147v-118.985h-51.221l-22.765 99.331 22.765 99.331h56.912c18.859 0 34.147-15.288 34.147-34.147v-11.383z" fill="#293d7c"/><path d="m108.029 305.938v198.341c-25.145 0-45.529-20.384-45.529-45.529v-107.283c0-25.145 20.384-45.529 45.529-45.529z" fill="#37c47a"/><path d="m153.559 298.136h-22.765c-3.143 0-5.691 2.548-5.691 5.691v202.242c0 3.143 2.548 5.691 5.691 5.691h22.765c3.143 0 5.691-2.548 5.691-5.691v-202.242c0-3.143-2.548-5.691-5.691-5.691z" fill="#445ea0"/><path d="m142.176 506.069v-202.242c0-3.143 2.548-5.691 5.691-5.691h-17.074c-3.143 0-5.691 2.548-5.691 5.691v202.242c0 3.143 2.548 5.691 5.691 5.691h17.074c-3.143 0-5.691-2.548-5.691-5.691z" fill="#2e4c89"/><path d="m347.059 504.279h56.912l22.765-99.331-22.765-99.331h-56.912c-18.859 0-34.147 15.288-34.147 34.147v130.367c0 18.86 15.288 34.148 34.147 34.148z" fill="#2e4c89"/><path d="m318.603 458.75c18.859 0 34.147-15.288 34.147-34.147v-118.985h51.221l22.765 99.331-22.765 99.331h-56.912c-18.859 0-34.147-15.288-34.147-34.147v-11.383z" fill="#293d7c"/><path d="m403.971 305.938v198.341c25.145 0 45.529-20.384 45.529-45.529v-107.283c0-25.145-20.384-45.529-45.529-45.529z" fill="#37c47a"/><path d="m358.441 298.136h22.765c3.143 0 5.691 2.548 5.691 5.691v202.242c0 3.143-2.548 5.691-5.691 5.691h-22.765c-3.143 0-5.691-2.548-5.691-5.691v-202.242c0-3.143 2.548-5.691 5.691-5.691z" fill="#445ea0"/><path d="m369.824 506.069v-202.242c0-3.143 2.548-5.691 5.691-5.691h-17.074c-3.143 0-5.691 2.548-5.691 5.691v202.242c0 3.143 2.548 5.691 5.691 5.691h17.074c-3.143 0-5.691-2.548-5.691-5.691z" fill="#2e4c89"/></svg>