<svg id="Capa_1" enable-background="new 0 0 512 512" height="512" viewBox="0 0 512 512" width="512" xmlns="http://www.w3.org/2000/svg"><path d="m256 0c-141.385 0-256 114.615-256 256 0 109.71 69.02 203.285 166 239.714h180c96.98-36.429 166-130.004 166-239.714 0-141.385-114.615-256-256-256z" fill="#37c47a"/><path d="m226 445h60v49.988h-60z" fill="#293d7c"/><path d="m226 445h30v49.987h-30z" fill="#1a2b63"/><path d="m256.009 452.5c-89.598 0-162.491-72.894-162.491-162.491 0-4.143 3.357-7.5 7.5-7.5s7.5 3.357 7.5 7.5c0 81.327 66.164 147.491 147.491 147.491s147.491-66.164 147.491-147.491c0-4.143 3.357-7.5 7.5-7.5s7.5 3.357 7.5 7.5c0 89.597-72.894 162.491-162.491 162.491z" fill="#1a2b63"/><path d="m418 266.36h-324c-11.046 0-20 8.954-20 20 0 11.046 8.954 20 20 20h324c11.046 0 20-8.954 20-20 0-11.045-8.954-20-20-20z" fill="#293d7c"/><path d="m256.009 415c-69.031 0-124.992-55.961-124.992-124.991v-43.649h249.983v43.648c0 69.031-55.961 124.992-124.991 124.992z" fill="#2e4c89"/><path d="m171.017 290.009v-43.649h-40v43.648c0 69.031 55.961 124.991 124.991 124.991 6.808 0 13.487-.552 20-1.6-59.522-9.573-104.991-61.168-104.991-123.39z" fill="#293d7c"/><path d="m380.983 246.36c.005-.454.017-.905.017-1.36v-120c0-69.036-55.964-125-125-125-69.036 0-125 55.964-125 125v120c0 .455.012.907.017 1.36z" fill="#293d7c"/><g fill="#1a2b63"><path d="m171 125c0-62.227 45.473-113.826 105-123.4-6.513-1.048-13.192-1.6-20-1.6-69.036 0-125 55.964-125 125v120c0 .455.012.907.017 1.36h40c-.005-.454-.017-.905-.017-1.36z"/><circle cx="256" cy="45" r="15"/><circle cx="256" cy="105" r="15"/><circle cx="256" cy="165" r="15"/><circle cx="256" cy="225" r="15"/><path d="m376.027 90.001c-.009 0-.018-.001-.027-.001-8.284 0-15 6.716-15 15s6.716 15 15 15c1.704 0 3.334-.298 4.861-.821-.463-10.084-2.121-19.855-4.834-29.178z"/><path d="m381 150.872c-1.566-.554-3.244-.872-5-.872-8.284 0-15 6.716-15 15s6.716 15 15 15c1.756 0 3.434-.317 5-.872z"/><path d="m381 210.872c-1.566-.554-3.244-.872-5-.872-8.284 0-15 6.716-15 15s6.716 15 15 15c1.756 0 3.434-.317 5-.872z"/><circle cx="316" cy="75" r="15"/><circle cx="316" cy="135" r="15"/><circle cx="316" cy="195" r="15"/><circle cx="196" cy="75" r="15"/><circle cx="196" cy="135" r="15"/><circle cx="196" cy="195" r="15"/></g><path d="m381 266.36h-249.983c-5.523 0-10-4.477-10-10v-20c0-5.523 4.477-10 10-10h249.983c5.523 0 10 4.477 10 10v20c0 5.523-4.477 10-10 10z" fill="#445ea0"/><path d="m161.017 256.36v-20c0-5.523 4.477-10 10-10h-40c-5.523 0-10 4.477-10 10v20c0 5.523 4.477 10 10 10h40c-5.523 0-10-4.477-10-10z" fill="#2e4c89"/><path d="m326 475.594h-140c-11.046 0-20 8.954-20 20v.12c28 10.518 58.324 16.286 90 16.286s62-5.768 90-16.286v-.12c0-11.046-8.954-20-20-20z" fill="#2e4c89"/><path d="m166 495.594v.12c12.873 4.836 26.237 8.665 40 11.39v-11.51c0-11.046 8.954-20 20-20h-40c-11.046 0-20 8.954-20 20z" fill="#293d7c"/></svg>