<svg id="Capa_1" enable-background="new 0 0 512 512" height="512" viewBox="0 0 512 512" width="512" xmlns="http://www.w3.org/2000/svg"><path d="m256 0c-141.385 0-256 114.615-256 256 0 70.042 28.14 133.504 73.718 179.726l113.776 66.989c21.806 6.042 44.776 9.285 68.506 9.285 141.385 0 256-114.615 256-256s-114.615-256-256-256z" fill="#69cdff"/><path d="m31 336.935v-276.935c0-11.046 8.954-20 20-20h410c11.046 0 20 8.954 20 20v276.935c0 11.046-8.954 20-20 20h-410c-11.046 0-20-8.955-20-20z" fill="#445ea0"/><path d="m72 336.935v-276.935c0-11.046 8.954-20 20-20h-41c-11.046 0-20 8.954-20 20v276.935c0 11.046 8.954 20 20 20h41c-11.046 0-20-8.955-20-20z" fill="#2e4c89"/><path d="m117.533-6.533h276.935v410h-276.935z" fill="#2e4c89" transform="matrix(0 1 -1 0 454.467 -57.533)"/><path d="m51 60h40v276.935h-40z" fill="#293d7c"/><path d="m492 20h-303.5c-11.046 0-20 8.954-20 20v212.048c0 11.046 8.954 20 20 20v21.167l21.167-21.167h282.333c11.046 0 20-8.954 20-20v-212.048c0-11.046-8.954-20-20-20z" fill="#ffd00d"/><path d="m208.5 252.048v-212.048c0-11.046 8.954-20 20-20h-40c-11.046 0-20 8.954-20 20v212.048c0 11.046 8.954 20 20 20v21.167l21.167-21.167h18.833c-11.046 0-20-8.955-20-20z" fill="#ffaf10"/><g fill="#fff"><path d="m465.25 78.523h-250c-4.143 0-7.5-3.357-7.5-7.5s3.357-7.5 7.5-7.5h250c4.143 0 7.5 3.357 7.5 7.5s-3.357 7.5-7.5 7.5z"/><path d="m465.25 128.523h-157c-4.143 0-7.5-3.357-7.5-7.5s3.357-7.5 7.5-7.5h157c4.143 0 7.5 3.357 7.5 7.5s-3.357 7.5-7.5 7.5z"/><path d="m278.25 128.523h-63c-4.143 0-7.5-3.357-7.5-7.5s3.357-7.5 7.5-7.5h63c4.143 0 7.5 3.357 7.5 7.5s-3.357 7.5-7.5 7.5z"/><path d="m465.25 178.523h-250c-4.143 0-7.5-3.357-7.5-7.5s3.357-7.5 7.5-7.5h250c4.143 0 7.5 3.357 7.5 7.5s-3.357 7.5-7.5 7.5z"/><path d="m340.25 228.523h-125c-4.143 0-7.5-3.357-7.5-7.5s3.357-7.5 7.5-7.5h125c4.143 0 7.5 3.357 7.5 7.5s-3.357 7.5-7.5 7.5z"/><path d="m187.494 356.934c0-33.416-27.089-60.506-60.506-60.506s-60.506 27.089-60.506 60.506c0 23.396 13.287 43.675 32.719 53.743-10.806 5.598-19.707 14.356-25.484 25.049 30.983 31.42 70.023 54.866 113.776 66.989v-38.299c0-23.395-13.288-43.672-32.719-53.739 19.433-10.067 32.72-30.347 32.72-53.743z"/></g><path d="m142.839 298.541c-5.054-1.369-10.364-2.112-15.851-2.112-33.417 0-60.506 27.089-60.506 60.506 0 23.396 13.287 43.675 32.719 53.743-10.806 5.598-19.707 14.356-25.484 25.049 7.784 7.894 16.071 15.29 24.82 22.124 2.223-20.583 14.777-38.061 32.366-47.173-19.432-10.068-32.719-30.347-32.719-53.743.001-27.93 18.93-51.427 44.655-58.394z" fill="#d9eafc"/></svg>