<svg id="Capa_1" enable-background="new 0 0 512 512" height="512" viewBox="0 0 512 512" width="512" xmlns="http://www.w3.org/2000/svg"><path d="m455.98 415.813c35.048-43.8 56.02-99.354 56.02-159.813 0-141.385-114.615-256-256-256s-256 114.615-256 256c0 60.459 20.972 116.013 56.02 159.813z" fill="#2e4c89"/><path d="m76 150h360c11.046 0 20-8.954 20-20v-110c0-11.046-8.954-20-20-20h-360c-11.046 0-20 8.954-20 20v110c0 11.046 8.954 20 20 20z" fill="#fe3745"/><path d="m96 130v-110c0-11.046 8.954-20 20-20h-40c-11.046 0-20 8.954-20 20v110c0 11.046 8.954 20 20 20h40c-11.046 0-20-8.954-20-20z" fill="#e6283c"/><g fill="#fff"><path d="m356 109.727h-43.032c-4.143 0-7.5-3.357-7.5-7.5s3.357-7.5 7.5-7.5h43.032c4.143 0 7.5 3.357 7.5 7.5s-3.357 7.5-7.5 7.5z"/><path d="m282.968 109.727h-93.976c-4.143 0-7.5-3.357-7.5-7.5s3.357-7.5 7.5-7.5h93.976c4.143 0 7.5 3.357 7.5 7.5s-3.358 7.5-7.5 7.5z"/><path d="m406 55.273h-217.008c-4.143 0-7.5-3.357-7.5-7.5s3.357-7.5 7.5-7.5h217.008c4.143 0 7.5 3.357 7.5 7.5s-3.357 7.5-7.5 7.5z"/><path d="m138.993 109.729c-3.03 0-5.885-1.851-7.018-4.854l-14.413-38.19-14.554 38.211c-1.475 3.872-5.812 5.814-9.678 4.34-3.871-1.475-5.814-5.808-4.34-9.678l20.447-53.687c.021-.058.044-.114.067-.171 1.348-3.293 4.517-5.424 8.074-5.427h.009c3.555 0 6.725 2.123 8.077 5.411.028.067.056.137.081.205l20.262 53.688c1.463 3.876-.493 8.203-4.368 9.665-.87.33-1.766.487-2.646.487z"/><path d="m132.718 96.355h-30.341c-4.143 0-7.5-3.357-7.5-7.5s3.357-7.5 7.5-7.5h30.341c4.143 0 7.5 3.357 7.5 7.5s-3.358 7.5-7.5 7.5z"/></g><path d="m76 331h360c11.046 0 20-8.954 20-20v-110c0-11.046-8.954-20-20-20h-360c-11.046 0-20 8.954-20 20v110c0 11.046 8.954 20 20 20z" fill="#52bbef"/><path d="m96 311v-110c0-11.046 8.954-20 20-20h-40c-11.046 0-20 8.954-20 20v110c0 11.046 8.954 20 20 20h40c-11.046 0-20-8.954-20-20z" fill="#1e99d6"/><path d="m406 290.727h-217.008c-4.143 0-7.5-3.357-7.5-7.5s3.357-7.5 7.5-7.5h217.008c4.143 0 7.5 3.357 7.5 7.5s-3.357 7.5-7.5 7.5z" fill="#fff"/><path d="m406 236.273h-70c-4.143 0-7.5-3.357-7.5-7.5s3.357-7.5 7.5-7.5h70c4.143 0 7.5 3.357 7.5 7.5s-3.357 7.5-7.5 7.5z" fill="#fff"/><path d="m306 236.273h-117.008c-4.143 0-7.5-3.357-7.5-7.5s3.357-7.5 7.5-7.5h117.008c4.143 0 7.5 3.357 7.5 7.5s-3.357 7.5-7.5 7.5z" fill="#fff"/><path d="m96 261.389c-1.982 0-3.886-.785-5.291-2.185-1.414-1.408-2.209-3.32-2.209-5.315v-25.115c0-4.143 3.357-7.5 7.5-7.5h15.817c11.044 0 20.029 8.985 20.029 20.029 0 11.045-8.985 20.03-20.029 20.03-3.424 0-15.782.056-15.783.056-.012 0-.023 0-.034 0zm7.5-25.116v10.084c3.285-.013 6.742-.024 8.317-.024 2.773 0 5.029-2.257 5.029-5.03s-2.256-5.029-5.029-5.029h-8.317z" fill="#fff"/><path d="m96 290.727c-1.983 0-3.886-.785-5.292-2.185-1.413-1.408-2.208-3.32-2.208-5.315v-29.379c0-4.143 3.357-7.5 7.5-7.5h18.58c12.217 0 22.156 9.939 22.156 22.157s-9.939 22.157-22.156 22.157c-4.007 0-18.545.064-18.547.064-.011.001-.022.001-.033.001zm7.5-29.379v14.348c4.216-.017 9.026-.033 11.08-.033 3.946 0 7.156-3.211 7.156-7.157s-3.21-7.157-7.156-7.157h-11.08z" fill="#fff"/><path d="m456 415.788v-33.788c0-11.046-8.954-20-20-20h-360c-11.046 0-20 8.954-20 20v33.788c46.912 58.641 119.063 96.212 200 96.212s153.088-37.571 200-96.212z" fill="#37c47a"/><path d="m56 382v33.788c11.819 14.774 25.239 28.207 40 40.041v-73.829c0-11.046 8.954-20 20-20h-40c-11.046 0-20 8.954-20 20z" fill="#02af8e"/><path d="m336 471.727h-147.008c-4.143 0-7.5-3.357-7.5-7.5s3.357-7.5 7.5-7.5h147.008c4.143 0 7.5 3.357 7.5 7.5s-3.357 7.5-7.5 7.5z" fill="#fff"/><path d="m406 417.273h-217.008c-4.143 0-7.5-3.357-7.5-7.5s3.357-7.5 7.5-7.5h217.008c4.143 0 7.5 3.357 7.5 7.5s-3.357 7.5-7.5 7.5z" fill="#fff"/><path d="m145.193 450.79c-3.175-2.658-7.904-2.24-10.564.936-.449.536-.936 1.038-1.448 1.494-2.612 2.327-5.962 3.507-9.954 3.507-10.877 0-19.727-8.85-19.727-19.727s8.85-19.727 19.727-19.727c3.954 0 7.766 1.163 11.023 3.364 3.431 2.319 8.094 1.417 10.413-2.015s1.417-8.095-2.015-10.413c-5.747-3.884-12.463-5.937-19.422-5.937-19.148 0-34.727 15.578-34.727 34.727 0 5.71 1.394 11.097 3.846 15.853 7.937 6.606 16.277 12.741 24.983 18.362 1.918.33 3.887.511 5.898.511 7.673 0 14.564-2.526 19.928-7.304 1.056-.938 2.057-1.971 2.975-3.068 2.659-3.174 2.241-7.904-.936-10.563z" fill="#fff"/></svg>