<svg id="Capa_1" enable-background="new 0 0 512 512" height="512" viewBox="0 0 512 512" width="512" xmlns="http://www.w3.org/2000/svg"><path d="m96.983 456.621h318.033c59.085-46.895 96.984-119.328 96.984-200.621 0-141.385-114.615-256-256-256s-256 114.615-256 256c0 81.293 37.899 153.726 96.983 200.621z" fill="#37c47a"/><path d="m206 304.27h100v119.397h-100z" fill="#ffc987"/><path d="m197.957 411.821c-38.556 7.946-73.151 23.621-100.974 44.8 43.676 34.665 98.925 55.379 159.017 55.379s115.341-20.714 159.017-55.379c-27.822-21.179-62.418-36.854-100.974-44.8z" fill="#2e4c89"/><path d="m197.957 411.821c-38.556 7.946-73.151 23.621-100.974 44.8 12.78 10.143 26.557 19.081 41.15 26.666 30.733-34.697 76.505-60.476 129.854-71.466z" fill="#293d7c"/><path d="m190.426 503.517c20.928 5.532 42.906 8.483 65.574 8.483s44.646-2.951 65.574-8.483v-90.029c-2.494-.587-5.003-1.145-7.531-1.667h-116.086c-2.528.521-5.038 1.08-7.531 1.667z" fill="#1a2b63"/><path d="m314.043 411.821-58.043-9.782-58.043 9.782c-2.528.521-5.038 1.08-7.531 1.667 1.119 35.263 30.038 63.512 65.574 63.512s64.455-28.249 65.574-63.512c-2.493-.587-5.002-1.146-7.531-1.667z" fill="#d9eafc"/><path d="m85.984 199.08c23.326-6.25 64.936 2.868 71.186 26.194s-25.226 52.027-48.552 58.278c-23.326 6.25-29.668-12.318-35.919-35.644-6.25-23.327-10.041-42.578 13.285-48.828z" fill="#ffc987"/><path d="m426.016 199.08c-23.326-6.25-64.936 2.868-71.186 26.194s25.226 52.027 48.552 58.278c23.326 6.25 29.668-12.318 35.919-35.644 6.25-23.327 10.041-42.578-13.285-48.828z" fill="#ffd5a0"/><path d="m99.718 205.254c0-86.312 69.97-156.282 156.282-156.282s156.282 69.97 156.282 156.282-22.838 174.016-156.282 174.016-156.282-87.704-156.282-174.016z" fill="#ffe2b8"/><path d="m139.719 205.254v-104.405c-24.865 27.676-40 64.271-40 104.405 0 86.312 22.838 174.016 156.281 174.016 1.88 0 3.73-.023 5.566-.058 1-.02 1.985-.051 2.973-.081.738-.022 1.477-.043 2.208-.07 1.313-.05 2.614-.11 3.904-.178.31-.016.618-.033.927-.05 1.487-.084 2.963-.176 4.421-.282h.001c-115.75-8.453-136.281-91.493-136.281-173.297z" fill="#ffd5a0"/><path d="m255.43 48.974c-86.3.308-156.186 72.644-155.704 158.944.062 11.072.516 22.152 1.544 33.052 13.101 0 24.466-9.05 27.398-21.819l13.656-59.462h113.676 113.667l13.656 59.462c2.932 12.769 14.297 21.819 27.398 21.819h.01c1.11-11.774 1.551-23.758 1.551-35.715-.001-86.503-70.278-156.59-156.852-156.281z" fill="#fe3745"/><path d="m256 333.107c-24.864 0-46.956-14.931-56.282-38.039-1.55-3.841.308-8.212 4.148-9.762 3.845-1.551 8.212.308 9.762 4.148 7.024 17.405 23.656 28.652 42.372 28.652 18.717 0 35.349-11.247 42.372-28.652 1.549-3.84 5.915-5.7 9.762-4.148 3.841 1.55 5.698 5.92 4.148 9.762-9.324 23.108-31.417 38.039-56.282 38.039z" fill="#ffc987"/><path d="m256 276.067c-8.45 0-15.461-6.534-16.056-14.963l-8.188-115.959c-.409-5.786 4.175-10.704 9.975-10.704h28.538c5.8 0 10.384 4.919 9.975 10.704l-8.188 115.959c-.595 8.43-7.606 14.963-16.056 14.963z" fill="#ffd5a0"/><path d="m345.638 215.642c-4.368-4.476-10.597-7.127-17.436-6.702-11.139.691-20.204 9.757-20.896 20.896-.425 6.84 2.227 13.069 6.702 17.436 5.812 5.672 15.62 1.376 15.62-6.745 0-5.116 4.148-9.264 9.264-9.264 8.121-.001 12.418-9.809 6.746-15.621z" fill="#1a2b63"/><path d="m166.362 215.642c4.368-4.476 10.597-7.127 17.436-6.702 11.139.691 20.204 9.757 20.896 20.896.425 6.84-2.227 13.069-6.702 17.436-5.812 5.672-15.62 1.376-15.62-6.745 0-5.116-4.148-9.264-9.264-9.264-8.121-.001-12.418-9.809-6.746-15.621z" fill="#1a2b63"/><path d="m99.758 71.483h312.485v129.47h-312.485z" fill="#2e4c89" transform="matrix(-1 0 0 -1 512 272.436)"/><path d="m99.758 71.483h40v129.47h-40z" fill="#293d7c"/><path d="m52.5 103.013h407c5.523 0 10-4.477 10-10v-43.06c0-5.523-4.477-10-10-10h-407c-5.523 0-10 4.477-10 10v43.061c0 5.522 4.477 9.999 10 9.999z" fill="#445ea0"/><path d="m85 93.013v-43.06c0-5.523 4.477-10 10-10h-42.5c-5.523 0-10 4.477-10 10v43.061c0 5.523 4.477 10 10 10h42.5c-5.523-.001-10-4.478-10-10.001z" fill="#2e4c89"/><g fill="#fff"><path d="m256 402.039h-51.673c-3.056 0-5.944 1.397-7.841 3.793l-6.06 7.655 40.153 20.259c5.119 2.583 11.358.341 13.662-4.91z"/><path d="m256 402.039h51.673c3.056 0 5.944 1.397 7.841 3.793l6.06 7.655-40.153 20.259c-5.119 2.583-11.358.341-13.662-4.91z"/></g></svg>