<svg id="Capa_1" enable-background="new 0 0 512 512" height="512" viewBox="0 0 512 512" width="512" xmlns="http://www.w3.org/2000/svg"><path d="m457.353 414.108c34.229-43.531 54.647-98.435 54.647-158.108 0-141.385-114.615-256-256-256s-256 114.615-256 256c0 59.673 20.418 114.577 54.647 158.108z" fill="#69cdff"/><path d="m370.734 56.096c-10.034-4.618-21.912-.227-26.529 9.808l-36.37 79.033 36.337 16.722 36.37-79.033c4.617-10.035.226-21.913-9.808-26.53z" fill="#2e4c89"/><path d="m378.69 62.726c-1.961-2.78-4.643-5.106-7.957-6.631-10.034-4.618-21.912-.226-26.529 9.808l-36.37 79.033 18.169 8.361 36.37-79.033c3.093-6.721 9.446-10.892 16.317-11.538z" fill="#293d7c"/><path d="m372.542 111.968-45.421-20.902c-7.526-3.463-10.819-12.371-7.356-19.897 3.463-7.526 12.371-10.819 19.897-7.356l45.421 20.902c7.526 3.463 10.819 12.371 7.356 19.897-3.463 7.526-12.371 10.819-19.897 7.356z" fill="#445ea0"/><path d="m337.934 79.53c3.463-7.526 12.371-10.819 19.897-7.356l-18.169-8.361c-7.526-3.463-16.434-.17-19.897 7.356-3.463 7.526-.17 16.434 7.356 19.897l18.169 8.361c-7.526-3.463-10.819-12.372-7.356-19.897z" fill="#2e4c89"/><path d="m317.474 7.448c.023.692.053 1.382.053 2.079 0 33.926-27.601 61.526-61.527 61.526s-61.527-27.601-61.527-61.526c0-.697.03-1.387.053-2.079-5.059 1.247-10.064 2.631-15 4.173 1.117 41.23 34.979 74.432 76.474 74.432s75.357-33.202 76.474-74.432c-4.936-1.542-9.941-2.925-15-4.173z" fill="#293d7c"/><path d="m256 0c-11.046 0-20 8.954-20 20v107h40v-107c0-11.046-8.954-20-20-20z" fill="#2e4c89"/><path d="m266 2.698c-2.944-1.706-6.353-2.698-10-2.698-11.046 0-20 8.954-20 20v107h20v-107c0-7.398 4.028-13.843 10-17.302z" fill="#293d7c"/><path d="m256 97c-122.687 0-222.5 99.813-222.5 222.5 0 33.813 7.595 65.881 21.147 94.608 46.871 59.608 119.641 97.892 201.353 97.892s154.482-38.284 201.353-97.892c13.552-28.727 21.147-60.795 21.147-94.608 0-122.687-99.813-222.5-222.5-222.5z" fill="#445ea0"/><path d="m316 105.227c-19.096-5.354-39.218-8.227-60-8.227-122.687 0-222.5 99.813-222.5 222.5 0 33.813 7.595 65.881 21.147 94.608 46.871 59.608 119.641 97.892 201.353 97.892 2.777 0 5.539-.06 8.294-.148-66.201-38.591-110.794-110.355-110.794-192.352 0-101.904 68.865-188.02 162.5-214.273z" fill="#2e4c89"/><circle cx="256" cy="319.5" fill="#fff" r="192.5"/><path d="m153.5 319.5c0-81.964 44.555-153.709 110.712-192.313-2.724-.115-5.46-.187-8.212-.187-106.145 0-192.5 86.355-192.5 192.5s86.355 192.5 192.5 192.5c2.752 0 5.487-.072 8.212-.187-66.157-38.604-110.712-110.349-110.712-192.313z" fill="#d9eafc"/><path d="m367.611 207.889c-30.771-30.771-71.191-46.157-111.611-46.157v157.768l111.611 111.611c61.542-61.542 61.543-161.679 0-223.222z" fill="#37c47a"/><path d="m256 327c-4.142 0-7.5-3.357-7.5-7.5v-157.842c0-4.143 3.358-7.5 7.5-7.5s7.5 3.357 7.5 7.5v157.842c0 4.143-3.358 7.5-7.5 7.5z" fill="#1a2b63"/><path d="m367.611 438.611c-1.919 0-3.839-.732-5.303-2.196l-111.611-111.611c-2.929-2.93-2.929-7.678 0-10.607 2.929-2.928 7.678-2.928 10.606 0l111.611 111.611c2.929 2.93 2.929 7.678 0 10.607-1.464 1.464-3.384 2.196-5.303 2.196z" fill="#1a2b63"/><path d="m281 50h-50c-8.284 0-15-6.716-15-15 0-8.284 6.716-15 15-15h50c8.284 0 15 6.716 15 15 0 8.284-6.716 15-15 15z" fill="#445ea0"/><path d="m236 35c0-8.284 6.716-15 15-15h-20c-8.284 0-15 6.716-15 15 0 8.284 6.716 15 15 15h20c-8.284 0-15-6.716-15-15z" fill="#2e4c89"/><circle cx="256" cy="319.5" fill="#ffd00d" r="25"/><path d="m251 319.5c0-10.251 6.172-19.055 15-22.914-3.063-1.339-6.443-2.086-10-2.086-13.807 0-25 11.193-25 25s11.193 25 25 25c3.557 0 6.937-.748 10-2.086-8.828-3.859-15-12.663-15-22.914z" fill="#ffaf10"/><g fill="#1a2b63"><path d="m256 495.342c-4.142 0-7.5-3.357-7.5-7.5v-21c0-4.143 3.358-7.5 7.5-7.5s7.5 3.357 7.5 7.5v21c0 4.142-3.358 7.5-7.5 7.5z"/><path d="m360.127 222.956c-1.919 0-3.839-.732-5.303-2.196-2.929-2.93-2.929-7.678 0-10.606l14.849-14.85c2.929-2.93 7.678-2.929 10.606-.001 2.929 2.93 2.929 7.678 0 10.606l-14.849 14.85c-1.464 1.465-3.383 2.197-5.303 2.197z"/><path d="m137.023 446.061c-1.919 0-3.839-.732-5.303-2.196-2.929-2.93-2.929-7.678 0-10.607l14.85-14.85c2.929-2.928 7.678-2.928 10.606 0 2.929 2.93 2.929 7.678 0 10.607l-14.85 14.85c-1.464 1.463-3.384 2.196-5.303 2.196z"/><path d="m424.258 327.083h-21c-4.142 0-7.5-3.357-7.5-7.5s3.358-7.5 7.5-7.5h21c4.142 0 7.5 3.357 7.5 7.5s-3.358 7.5-7.5 7.5z"/><path d="m108.741 327.083h-21c-4.142 0-7.5-3.357-7.5-7.5s3.358-7.5 7.5-7.5h21c4.142 0 7.5 3.357 7.5 7.5s-3.358 7.5-7.5 7.5z"/><path d="m151.873 222.956c-1.919 0-3.839-.732-5.303-2.196l-14.85-14.85c-2.929-2.93-2.929-7.678 0-10.607 2.929-2.928 7.678-2.928 10.606 0l14.85 14.85c2.929 2.93 2.929 7.678 0 10.607-1.465 1.464-3.384 2.196-5.303 2.196z"/></g></svg>