<svg id="Capa_1" enable-background="new 0 0 512 512" height="512" viewBox="0 0 512 512" width="512" xmlns="http://www.w3.org/2000/svg"><path d="m512 256c0 99.231-56.459 185.276-139.006 227.763-4.439 2.285-11.044-1.109-15.629.919s-7.15 9.478-11.871 11.24c-27.858 10.395-58.012 16.078-89.494 16.078-31.172 0-61.043-5.571-88.671-15.773-4.707-1.738-5.813-13.321-10.385-15.323-4.611-2.019-12.686 5.54-17.151 3.262-82.975-42.344-139.793-128.62-139.793-228.166 0-141.385 114.615-256 256-256s256 114.615 256 256z" fill="#37c47a"/><path d="m174.133 416.111h163.733v30h-163.733z" fill="#c3ddf4"/><path d="m139.795 484.163c8.891 4.537 18.083 8.567 27.537 12.058l53.307-146.46-28.191-10.261z" fill="#d9eafc"/><path d="m139.795 484.163c4.464 2.278 9.01 4.416 13.621 6.435l53.128-145.967-14.095-5.13z" fill="#c3ddf4"/><path d="m319.552 336.935-28.191 10.261 54.127 148.713c9.443-3.524 18.626-7.581 27.503-12.15z" fill="#d9eafc"/><path d="m305.456 342.065-14.095 5.13 54.127 148.713c4.701-1.754 9.336-3.645 13.901-5.664z" fill="#c3ddf4"/><path d="m31 336.935v-236.935h450v236.935c0 11.046-8.954 20-20 20h-410c-11.046 0-20-8.955-20-20z" fill="#d9eafc"/><path d="m72 336.935v-236.935h-41v236.935c0 11.046 8.954 20 20 20h41c-11.046 0-20-8.955-20-20z" fill="#c3ddf4"/><path d="m137.533 13.467h236.935v410h-236.935z" fill="#fe3745" transform="matrix(0 1 -1 0 474.467 -37.533)"/><path d="m51 100h40v236.935h-40z" fill="#e6283c"/><path d="m336 336.935h-160c-11.046 0-20 8.954-20 20 0 11.046 8.954 20 20 20h160c11.046 0 20-8.954 20-20 0-11.046-8.954-20-20-20z" fill="#fff"/><path d="m196 356.935c0-11.046 8.954-20 20-20h-40c-11.046 0-20 8.954-20 20 0 11.046 8.954 20 20 20h40c-11.046 0-20-8.955-20-20z" fill="#d9eafc"/><path d="m481 120h-450v-60c0-11.046 8.954-20 20-20h410c11.046 0 20 8.954 20 20z" fill="#ffd00d"/><path d="m401 87.5h-290c-4.142 0-7.5-3.357-7.5-7.5s3.358-7.5 7.5-7.5h290c4.142 0 7.5 3.357 7.5 7.5s-3.358 7.5-7.5 7.5z" fill="#ff9518"/><path d="m134 99.782c-4.142 0-7.5-3.357-7.5-7.5v-24.564c0-4.143 3.358-7.5 7.5-7.5s7.5 3.357 7.5 7.5v24.564c0 4.143-3.358 7.5-7.5 7.5z" fill="#fff"/><path d="m92 40h-41c-11.046 0-20 8.954-20 20v60h41v-60c0-11.046 8.954-20 20-20z" fill="#ffaf10"/><path d="m212.986 172.104 92.15 48.474c6.353 3.342 6.353 12.438 0 15.78l-92.15 48.474c-4.947 2.602-10.888-.985-10.888-6.575v-99.577c.001-5.591 5.941-9.179 10.888-6.576z" fill="#fff"/><path d="m226.55 268.274v-79.614c0-3.74 3.326-6.346 6.729-5.882l-20.293-10.675c-4.947-2.602-10.888.985-10.888 6.575v99.577c0 5.59 5.941 9.177 10.888 6.575l20.293-10.675c-3.403.465-6.729-2.141-6.729-5.881z" fill="#d9eafc"/></svg>