<svg id="Capa_1" enable-background="new 0 0 512 512" height="512" viewBox="0 0 512 512" width="512" xmlns="http://www.w3.org/2000/svg"><path d="m91.336 452 164.664 30 164.664-30c55.838-46.96 91.336-117.329 91.336-196 0-141.385-114.615-256-256-256-76.134 0-144.506 33.235-191.398 85.988-40.19 45.212-40.181 294.804.012 340.014 8.265 9.297 17.198 17.988 26.722 25.998z" fill="#52bbef"/><path d="m91.336 452c44.514 37.436 101.95 60 164.664 60s120.15-22.564 164.664-60z" fill="#293d7c"/><path d="m331.108 406h-92.215v52c0 5.523 4.477 10 10 10h72.215c5.523 0 10-4.477 10-10z" fill="#c3ddf4"/><path d="m278.892 458v-52h-40v52c0 5.523 4.477 10 10 10h40c-5.523 0-10-4.477-10-10z" fill="#b5d3ea"/><path d="m396 386h-360.561c8.437 14.283 18.219 27.673 29.176 40h331.385c11.046 0 20-8.954 20-20 0-11.046-8.954-20-20-20z" fill="#d9eafc"/><path d="m105.439 406c0-11.046 8.954-20 20-20h-90c8.437 14.283 18.219 27.673 29.176 40h60.824c-11.046 0-20-8.954-20-20z" fill="#c3ddf4"/><path d="m396 86h-331.385c-10.957 12.327-20.74 25.717-29.176 40h360.561c11.046 0 20-8.954 20-20 0-11.046-8.954-20-20-20z" fill="#d9eafc"/><path d="m105.439 106c0-11.046 8.954-20 20-20h-60.824c-10.957 12.327-20.74 25.717-29.176 40h90c-11.046 0-20-8.954-20-20z" fill="#c3ddf4"/><path d="m420 406c11.046 0 20-8.954 20-20v-260c0-11.046-8.954-20-20-20h-371.453c-30.533 42.154-48.547 93.97-48.547 150s18.014 107.846 48.547 150z" fill="#fff"/><path d="m82 386v-260c0-11.046 8.954-20 20-20h-53.453c-30.533 42.154-48.547 93.97-48.547 150s18.014 107.846 48.547 150h53.453c-11.046 0-20-8.954-20-20z" fill="#d9eafc"/><circle cx="285" cy="256" fill="#d9eafc" r="120.025"/><path d="m214.975 256c0-57.714 40.738-105.907 95.025-117.41-8.065-1.709-16.426-2.615-25-2.615-66.288 0-120.025 53.737-120.025 120.025s53.737 120.025 120.025 120.025c8.574 0 16.935-.906 25-2.615-54.287-11.503-95.025-59.696-95.025-117.41z" fill="#c3ddf4"/><ellipse cx="285" cy="256" fill="#445ea0" rx="100.025" ry="100.025" transform="matrix(.16 -.987 .987 .16 -13.346 496.313)"/><path d="m265.988 157.795c-46.092 8.906-81.013 49.551-81.013 98.205s34.921 89.299 81.013 98.205c-30.854-21.719-51.013-57.606-51.013-98.205s20.159-76.486 51.013-98.205z" fill="#2e4c89"/><ellipse cx="285" cy="256" fill="#2e4c89" rx="60.025" ry="60.025" transform="matrix(.16 -.987 .987 .16 -13.346 496.313)"/><ellipse cx="326.989" cy="214.011" fill="#fff" rx="25" ry="25" transform="matrix(.16 -.987 .987 .16 63.363 502.497)"/><ellipse cx="149.975" cy="150.975" fill="#fe3745" rx="15" ry="15" transform="matrix(.16 -.987 .987 .16 -23.074 274.83)"/></svg>