<svg id="Capa_1" enable-background="new 0 0 512 512" height="512" viewBox="0 0 512 512" width="512" xmlns="http://www.w3.org/2000/svg"><circle cx="256" cy="256" fill="#ffd00d" r="256"/><path d="m256 468.293c-4.143 0-7.5-3.357-7.5-7.5v-123.858c0-4.143 3.357-7.5 7.5-7.5s7.5 3.357 7.5 7.5v123.858c0 4.143-3.357 7.5-7.5 7.5z" fill="#1a2b63"/><circle cx="256" cy="460.793" fill="#445ea0" r="25"/><path d="m251 460.793c0-10.251 6.172-19.055 15-22.914-3.063-1.339-6.443-2.086-10-2.086-13.807 0-25 11.193-25 25s11.193 25 25 25c3.557 0 6.937-.748 10-2.086-8.828-3.859-15-12.664-15-22.914z" fill="#2e4c89"/><path d="m31 336.935v-236.935h450v236.935c0 11.046-8.954 20-20 20h-410c-11.046 0-20-8.955-20-20z" fill="#293d7c"/><path d="m72 336.935v-236.935h-41v236.935c0 11.046 8.954 20 20 20h41c-11.046 0-20-8.955-20-20z" fill="#1a2b63"/><path d="m137.533 13.467h236.935v410h-236.935z" fill="#fff" transform="matrix(0 1 -1 0 474.467 -37.533)"/><g fill="#b5d3ea"><path d="m416.792 235.968h-43.032c-4.143 0-7.5-3.357-7.5-7.5s3.357-7.5 7.5-7.5h43.032c4.143 0 7.5 3.357 7.5 7.5s-3.357 7.5-7.5 7.5z"/><path d="m343.76 235.968h-87.825c-4.143 0-7.5-3.357-7.5-7.5s3.357-7.5 7.5-7.5h87.825c4.143 0 7.5 3.357 7.5 7.5s-3.358 7.5-7.5 7.5z"/><path d="m373.761 290.421h-117.826c-4.143 0-7.5-3.357-7.5-7.5s3.357-7.5 7.5-7.5h117.826c4.143 0 7.5 3.357 7.5 7.5s-3.358 7.5-7.5 7.5z"/><path d="m416.792 181.515h-160.857c-4.143 0-7.5-3.357-7.5-7.5s3.357-7.5 7.5-7.5h160.857c4.143 0 7.5 3.357 7.5 7.5s-3.357 7.5-7.5 7.5z"/></g><path d="m51 100h40v236.935h-40z" fill="#d9eafc"/><path d="m481 120h-450v-60c0-11.046 8.954-20 20-20h410c11.046 0 20 8.954 20 20z" fill="#445ea0"/><path d="m92 40h-41c-11.046 0-20 8.954-20 20v60h41v-60c0-11.046 8.954-20 20-20z" fill="#2e4c89"/><path d="m153.467 166c-34.499 0-62.467 27.968-62.467 62.467s27.968 62.467 62.467 62.467l31.234-62.467z" fill="#fe3745"/><path d="m131 228.467c0-21.646 11.013-40.717 27.738-51.925l-5.271-10.542c-34.499 0-62.467 27.968-62.467 62.467s27.968 62.467 62.467 62.467l5.271-10.542c-16.725-11.208-27.738-30.278-27.738-51.925z" fill="#e6283c"/><path d="m153.467 166v62.467h62.467c.001-34.499-27.967-62.467-62.467-62.467z" fill="#ffd00d"/><path d="m153.467 290.935c34.5 0 62.467-27.968 62.467-62.467h-62.467z" fill="#37c47a"/><path d="m153.467 276.441v14.494c6.998 0 13.719-1.168 20-3.29-7.38-2.494-14.145-6.318-20-11.204z" fill="#02af8e"/><path d="m173.467 169.29c-6.281-2.122-13.002-3.29-20-3.29v14.494c5.855-4.887 12.62-8.71 20-11.204z" fill="#ffaf10"/><path d="m336 336.935h-160c-11.046 0-20 8.954-20 20 0 11.046 8.954 20 20 20h160c11.046 0 20-8.954 20-20 0-11.046-8.954-20-20-20z" fill="#445ea0"/><path d="m196 356.935c0-11.046 8.954-20 20-20h-40c-11.046 0-20 8.954-20 20 0 11.046 8.954 20 20 20h40c-11.046 0-20-8.955-20-20z" fill="#2e4c89"/></svg>