<svg id="Capa_1" enable-background="new 0 0 512 512" height="512" viewBox="0 0 512 512" width="512" xmlns="http://www.w3.org/2000/svg"><path d="m256 0c-141.385 0-256 114.615-256 256 0 109.709 69.02 203.285 166 239.714h180c96.98-36.429 166-130.005 166-239.714 0-141.385-114.615-256-256-256z" fill="#2e4c89"/><path d="m221 375h70v103.042h-70z" fill="#c3ddf4"/><path d="m221 375h35v103.042h-35z" fill="#b5d3ea"/><path d="m291 355h-70c-11.046 0-20 8.954-20 20 0 11.046 8.954 20 20 20h70c11.046 0 20-8.954 20-20 0-11.046-8.954-20-20-20z" fill="#d9eafc"/><path d="m241 375c0-11.046 8.954-20 20-20h-40c-11.046 0-20 8.954-20 20 0 11.046 8.954 20 20 20h40c-11.046 0-20-8.954-20-20z" fill="#c3ddf4"/><circle cx="256" cy="187.5" fill="#fff" r="187.5"/><path d="m138.5 187.5c0-91.59 65.676-167.829 152.5-184.225-11.34-2.141-23.037-3.275-35-3.275-103.553 0-187.5 83.947-187.5 187.5s83.947 187.5 187.5 187.5c11.963 0 23.66-1.134 35-3.275-86.824-16.396-152.5-92.635-152.5-184.225z" fill="#d9eafc"/><path d="m256 50c-31.757 0-57.5 25.744-57.5 57.5v160c0 31.756 25.744 57.5 57.5 57.5 31.756 0 57.5-25.744 57.5-57.5v-160c0-31.756-25.744-57.5-57.5-57.5z" fill="#b5d3ea"/><circle cx="256" cy="187.5" fill="#d9eafc" r="87.5"/><path d="m218.5 187.5c0-39.563 26.396-73.072 62.5-83.855-7.925-2.367-16.315-3.645-25-3.645-48.248 0-87.5 39.252-87.5 87.5s39.252 87.5 87.5 87.5c8.685 0 17.075-1.278 25-3.645-36.104-10.783-62.5-44.292-62.5-83.855z" fill="#c3ddf4"/><circle cx="256" cy="187.5" fill="#445ea0" r="67.5"/><path d="m250.07 120.276c-34.451 3.015-61.57 32.004-61.57 67.224s27.119 64.21 61.57 67.224c-19.276-16.061-31.57-40.23-31.57-67.224s12.294-51.163 31.57-67.224z" fill="#2e4c89"/><circle cx="256" cy="187.5" fill="#2e4c89" r="27.5"/><circle cx="273.84" cy="166.833" fill="#fff" r="15"/><path d="m326 448.98h-140c-11.046 0-20 8.954-20 20v26.734c28 10.518 58.324 16.286 90 16.286s62-5.768 90-16.286v-26.734c0-11.046-8.954-20-20-20z" fill="#d9eafc"/><path d="m166 468.98v26.734c12.873 4.836 26.237 8.665 40 11.39v-38.124c0-11.046 8.954-20 20-20h-40c-11.046 0-20 8.954-20 20z" fill="#c3ddf4"/></svg>