<svg id="Capa_1" enable-background="new 0 0 512 512" height="512" viewBox="0 0 512 512" width="512" xmlns="http://www.w3.org/2000/svg"><path d="m512 256c0 126.684-92.019 231.875-212.863 252.381-14.024 2.38-72.25 2.38-86.273 0-120.845-20.506-212.864-125.697-212.864-252.381 0-141.385 114.615-256 256-256s256 114.615 256 256z" fill="#fe3745"/><path d="m444.291 174.212c-2.068-22.494-20.272-40.305-42.937-41.764-6.831-74.278-69.294-132.448-145.354-132.448s-138.523 58.17-145.354 132.448c-22.665 1.459-40.869 19.27-42.937 41.764-38.547 7.286-67.709 41.122-67.709 81.788 0 45.983 37.277 83.26 83.26 83.26h345.48c45.983 0 83.26-37.277 83.26-83.26 0-40.666-29.162-74.502-67.709-81.788z" fill="#fff"/><path d="m161.724 164.122c0-74.2 46.144-137.618 111.3-163.135-5.585-.648-11.265-.987-17.024-.987-76.06 0-138.523 58.17-145.354 132.448-22.665 1.459-40.869 19.27-42.937 41.764-38.547 7.286-67.709 41.122-67.709 81.788 0 45.983 37.277 83.26 83.26 83.26h253.601c-96.725 0-175.137-78.412-175.137-175.138z" fill="#d9eafc"/><path d="m299.134 479.65c0-5.956-4.828-10.783-10.783-10.783h-64.7c-5.956 0-10.783 4.828-10.783 10.783v28.713c14.023 2.38 28.43 3.637 43.132 3.637s29.109-1.257 43.134-3.637z" fill="#ffd00d"/><path d="m256 501.217v-21.567c0-5.956 4.828-10.783 10.783-10.783h-43.133c-5.956 0-10.783 4.828-10.783 10.783v28.713c14.024 2.38 28.431 3.637 43.133 3.637 2.988 0 5.958-.07 8.921-.172-5.066-.883-8.921-5.292-8.921-10.611z" fill="#ffaf10"/><circle cx="256" cy="328.682" fill="#2e4c89" r="161.751"/><path d="m154.249 328.682c0-79.081 56.754-144.896 131.751-158.963-9.723-1.824-19.748-2.788-30-2.788-89.333 0-161.751 72.418-161.751 161.751s72.418 161.751 161.751 161.751c10.252 0 20.277-.965 30-2.788-74.997-14.067-131.751-79.882-131.751-158.963z" fill="#293d7c"/><circle cx="256" cy="328.683" fill="#69cdff" r="141.751"/><path d="m235.4 188.433c-68.433 10.007-121.151 69.083-121.151 140.249 0 71.167 52.719 130.243 121.153 140.25-48.497-27.926-81.153-80.268-81.153-140.25 0-59.981 32.655-112.322 81.151-140.249z" fill="#52bbef"/><path d="m397.751 328.683c0-78.162-63.589-141.751-141.751-141.751s-141.751 63.589-141.751 141.751c0 3.558.135 7.085.394 10.578h282.714c.259-3.493.394-7.02.394-10.578z" fill="#d9eafc"/><g fill="#c3ddf4"><path d="m169.646 216.353c-33.664 25.94-55.397 66.641-55.397 112.329 0 3.558.135 7.085.394 10.578h222.219c-78.535 0-144.994-51.691-167.216-122.907z"/><path d="m154.249 328.683c0-71.374 53.027-130.585 121.751-140.333-6.536-.927-13.212-1.417-20-1.417-78.162 0-141.751 63.589-141.751 141.751 0 3.558.135 7.085.394 10.578h40c-.259-3.494-.394-7.021-.394-10.579z"/></g></svg>