<svg id="Capa_1" enable-background="new 0 0 512 512" height="512" viewBox="0 0 512 512" width="512" xmlns="http://www.w3.org/2000/svg"><path d="m0 256c0-141.385 114.615-256 256-256s256 114.615 256 256z" fill="#69cdff"/><path d="m512 125.62v130.38c0 141.38-114.62 256-256 256s-256-114.62-256-256v-130.38z" fill="#d9eafc"/><path d="m40 256v-130.38h-40v130.38c0 141.38 114.62 256 256 256 6.731 0 13.4-.263 20-.773-132.033-10.205-236-120.578-236-255.227z" fill="#c3ddf4"/><path d="m512 165.62h-512v-100c0-11.046 8.954-20 20-20h472c11.046 0 20 8.954 20 20z" fill="#445ea0"/><path d="m60 45.62h-40c-11.046 0-20 8.954-20 20v100h40v-100c0-11.046 8.954-20 20-20z" fill="#2e4c89"/><circle cx="452" cy="105.62" fill="#fe3745" r="37.5"/><path d="m444.5 105.62c0-15.376 9.258-28.583 22.5-34.371-4.594-2.008-9.665-3.129-15-3.129-20.711 0-37.5 16.789-37.5 37.5s16.789 37.5 37.5 37.5c5.335 0 10.406-1.121 15-3.129-13.242-5.788-22.5-18.995-22.5-34.371z" fill="#e6283c"/><path d="m464.5 125.474c-1.919 0-3.839-.732-5.303-2.196l-24.707-24.708c-2.929-2.93-2.929-7.678 0-10.607 2.929-2.928 7.678-2.928 10.606 0l24.707 24.707c2.929 2.93 2.929 7.678 0 10.607-1.464 1.464-3.384 2.197-5.303 2.197z" fill="#fff"/><path d="m439.5 125.474c-1.919 0-3.839-.732-5.303-2.196-2.929-2.93-2.929-7.678 0-10.607l24.707-24.707c2.929-2.928 7.678-2.928 10.606 0 2.929 2.93 2.929 7.678 0 10.607l-24.707 24.707c-1.464 1.463-3.384 2.196-5.303 2.196z" fill="#fff"/><circle cx="357" cy="105.62" fill="#37c47a" r="37.5"/><path d="m349.5 105.62c0-15.376 9.258-28.583 22.5-34.371-4.594-2.008-9.665-3.129-15-3.129-20.711 0-37.5 16.789-37.5 37.5s16.789 37.5 37.5 37.5c5.335 0 10.406-1.121 15-3.129-13.242-5.788-22.5-18.995-22.5-34.371z" fill="#02af8e"/><path d="m374.574 113.017h-34.94c-4.142 0-7.5-3.357-7.5-7.5s3.358-7.5 7.5-7.5h34.94c4.142 0 7.5 3.357 7.5 7.5s-3.358 7.5-7.5 7.5z" fill="#fff"/><path d="m242 143.12h-182c-20.711 0-37.5-16.789-37.5-37.5 0-20.711 16.789-37.5 37.5-37.5h182c20.711 0 37.5 16.789 37.5 37.5 0 20.711-16.789 37.5-37.5 37.5z" fill="#2e4c89"/><path d="m62.5 105.62c0-20.711 16.789-37.5 37.5-37.5h-40c-20.711 0-37.5 16.789-37.5 37.5 0 20.711 16.789 37.5 37.5 37.5h40c-20.711 0-37.5-16.789-37.5-37.5z" fill="#293d7c"/><path d="m286 376.541c0-17.045-14.215-30.77-31.438-29.966-15.189.709-27.711 13.146-28.519 28.331-.627 11.779 5.561 22.147 14.956 27.59v33.583c0 8.284 6.716 15 15 15 8.284 0 15-6.716 15-15v-33.583c8.959-5.19 15.001-14.857 15.001-25.955z" fill="#2e4c89"/><path d="m80 226.541h352c22.091 0 40 17.909 40 40 0 22.091-17.909 40-40 40h-352c-22.091 0-40-17.909-40-40 0-22.091 17.909-40 40-40z" fill="#fff"/><g fill="#2e4c89"><circle cx="132.378" cy="266.541" r="20.604"/><circle cx="214.793" cy="266.541" r="20.604"/><circle cx="297.207" cy="266.541" r="20.604"/><circle cx="379.622" cy="266.541" r="20.604"/></g></svg>