<svg id="Capa_1" enable-background="new 0 0 512 512" height="512" viewBox="0 0 512 512" width="512" xmlns="http://www.w3.org/2000/svg"><path d="m455.982 415.81c35.047-43.8 56.018-99.352 56.018-159.81 0-141.385-114.615-256-256-256s-256 114.615-256 256c0 60.458 20.971 116.01 56.018 159.81z" fill="#2e4c89"/><path d="m456 20v395.81c-46.91 58.63-119.07 96.19-200 96.19-60.54 0-116.17-21.02-160-56.15-14.76-11.83-28.18-25.27-40-40.04v-265.81l110-40 40-110h230c11.05 0 20 8.95 20 20z" fill="#d9eafc"/><path d="m206 110v50c0 11.05-8.95 20-20 20h-40c-27.61 0-50 22.39-50 50v225.85c-14.76-11.83-28.18-25.27-40-40.04v-265.81z" fill="#c3ddf4"/><path d="m206 0v130c0 11.046-8.954 20-20 20h-130z" fill="#fff"/><path d="m285.999 187.502c-.888 0-1.79-.158-2.668-.493-3.871-1.475-5.814-5.808-4.34-9.678l42.804-112.388c.021-.058.044-.115.067-.172 1.557-3.802 5.217-6.261 9.325-6.265h.009c4.104 0 7.764 2.451 9.325 6.247.027.068.055.137.08.205l42.415 112.393c1.463 3.876-.493 8.203-4.368 9.665-3.874 1.464-8.203-.493-9.665-4.368l-37.81-100.188-38.165 100.208c-1.139 2.994-3.987 4.834-7.009 4.834z" fill="#fe3745"/><path d="m362.866 159.51h-63.516c-4.143 0-7.5-3.357-7.5-7.5s3.357-7.5 7.5-7.5h63.517c4.143 0 7.5 3.357 7.5 7.5s-3.358 7.5-7.501 7.5z" fill="#fe3745"/><path d="m398.461 109.007c-4.143 0-7.5-3.357-7.5-7.5v-35.5c0-4.143 3.357-7.5 7.5-7.5s7.5 3.357 7.5 7.5v35.5c0 4.142-3.357 7.5-7.5 7.5z" fill="#fe3745"/><path d="m416 91.046h-35.5c-4.143 0-7.5-3.357-7.5-7.5s3.357-7.5 7.5-7.5h35.5c4.143 0 7.5 3.357 7.5 7.5s-3.357 7.5-7.5 7.5z" fill="#fe3745"/><g fill="#b5d3ea"><path d="m416 278.5h-320c-4.142 0-7.5-3.357-7.5-7.5s3.358-7.5 7.5-7.5h320c4.143 0 7.5 3.357 7.5 7.5s-3.357 7.5-7.5 7.5z"/><path d="m416 328.5h-232c-4.142 0-7.5-3.357-7.5-7.5s3.358-7.5 7.5-7.5h232c4.143 0 7.5 3.357 7.5 7.5s-3.357 7.5-7.5 7.5z"/><path d="m154 328.5h-58c-4.142 0-7.5-3.357-7.5-7.5s3.358-7.5 7.5-7.5h58c4.142 0 7.5 3.357 7.5 7.5s-3.358 7.5-7.5 7.5z"/><path d="m416 378.5h-320c-4.142 0-7.5-3.357-7.5-7.5s3.358-7.5 7.5-7.5h320c4.143 0 7.5 3.357 7.5 7.5s-3.357 7.5-7.5 7.5z"/><path d="m338.5 428.5h-165c-4.142 0-7.5-3.357-7.5-7.5s3.358-7.5 7.5-7.5h165c4.143 0 7.5 3.357 7.5 7.5s-3.357 7.5-7.5 7.5z"/></g></svg>