<svg id="Capa_1" enable-background="new 0 0 512 512" height="512" viewBox="0 0 512 512" width="512" xmlns="http://www.w3.org/2000/svg"><path d="m0 256c0-141.385 114.615-256 256-256s256 114.615 256 256z" fill="#69cdff"/><path d="m512 125.62v130.38c0 141.38-114.62 256-256 256s-256-114.62-256-256v-130.38z" fill="#d9eafc"/><path d="m498.5 251.31h-85v-125.69h-15v125.69h-85v-125.69h-15v125.69h-85v-125.69h-15v125.69h-85v-125.69h-15v125.69h-85v-125.69h-13.5v130.38c0 28.77 4.748 56.43 13.5 82.243v-71.933h85v85h-80.153c2.04 5.082 4.232 10.085 6.583 15h73.57v85h-7.976c7.319 6.208 14.984 12.018 22.976 17.383v-2.383h85v39.203c4.945 1.135 9.95 2.111 15 2.955v-42.158h85v42.158c5.05-.844 10.055-1.82 15-2.955v-39.203h85v2.383c7.992-5.365 15.657-11.176 22.976-17.383h-7.976v-85h73.57c2.351-4.915 4.543-9.918 6.583-15h-80.153v-85h85v71.934c8.752-25.814 13.5-53.474 13.5-82.244v-130.38h-13.5zm-300 200h-85v-85h85zm0-100h-85v-85h85zm100 100h-85v-85h85zm0-100h-85v-85h85zm100 100h-85v-85h85zm0-100h-85v-85h85z" fill="#c3ddf4"/><path d="m40 256v-130.38h-40v130.38c0 141.38 114.62 256 256 256 6.731 0 13.4-.263 20-.773-132.033-10.205-236-120.578-236-255.227z" fill="#c3ddf4"/><path d="m512 165.62h-512v-100c0-11.046 8.954-20 20-20h472c11.046 0 20 8.954 20 20z" fill="#fe3745"/><path d="m60 45.62h-40c-11.046 0-20 8.954-20 20v100h40v-100c0-11.046 8.954-20 20-20z" fill="#e6283c"/><circle cx="452" cy="105.62" fill="#ffd00d" r="37.5"/><path d="m444.5 105.62c0-15.376 9.258-28.583 22.5-34.371-4.594-2.008-9.665-3.129-15-3.129-20.711 0-37.5 16.789-37.5 37.5s16.789 37.5 37.5 37.5c5.335 0 10.406-1.121 15-3.129-13.242-5.788-22.5-18.995-22.5-34.371z" fill="#ffaf10"/><path d="m464.5 125.474c-1.92 0-3.839-.732-5.304-2.197l-24.706-24.708c-2.929-2.929-2.929-7.678.001-10.606 2.929-2.929 7.678-2.928 10.606.001l24.706 24.707c2.929 2.929 2.929 7.678-.001 10.606-1.463 1.464-3.383 2.197-5.302 2.197z" fill="#fff"/><path d="m439.5 125.474c-1.919 0-3.839-.732-5.303-2.196-2.93-2.929-2.93-7.678-.001-10.606l24.706-24.707c2.93-2.93 7.679-2.929 10.606-.001 2.93 2.929 2.93 7.678.001 10.606l-24.706 24.707c-1.464 1.464-3.384 2.197-5.303 2.197z" fill="#fff"/><circle cx="357" cy="105.62" fill="#445ea0" r="37.5"/><path d="m349.5 105.62c0-15.376 9.258-28.583 22.5-34.371-4.594-2.008-9.665-3.129-15-3.129-20.711 0-37.5 16.789-37.5 37.5s16.789 37.5 37.5 37.5c5.335 0 10.406-1.121 15-3.129-13.242-5.788-22.5-18.995-22.5-34.371z" fill="#2e4c89"/><path d="m374.574 113.017h-34.94c-4.143 0-7.5-3.357-7.5-7.5s3.357-7.5 7.5-7.5h34.94c4.143 0 7.5 3.357 7.5 7.5s-3.357 7.5-7.5 7.5z" fill="#fff"/><path d="m242 143.12h-182c-20.711 0-37.5-16.789-37.5-37.5 0-20.711 16.789-37.5 37.5-37.5h182c20.711 0 37.5 16.789 37.5 37.5 0 20.711-16.789 37.5-37.5 37.5z" fill="#e6283c"/><path d="m62.5 105.62c0-20.711 16.789-37.5 37.5-37.5h-40c-20.711 0-37.5 16.789-37.5 37.5 0 20.711 16.789 37.5 37.5 37.5h40c-20.711 0-37.5-16.789-37.5-37.5z" fill="#cf1834"/><path d="m187.662 270.056-31.657 31.657-9.045-9.045c-4.995-4.995-13.094-4.995-18.09 0-4.995 4.995-4.995 13.094 0 18.09l18.09 18.09c4.995 4.995 13.094 4.995 18.09 0l40.702-40.702c4.995-4.995 4.995-13.094 0-18.09-4.996-4.995-13.095-4.995-18.09 0z" fill="#37c47a"/><path d="m144.957 305.654c2.893-2.893 6.638-4.412 10.427-4.561l-8.425-8.425c-4.995-4.995-13.094-4.995-18.09 0-4.995 4.995-4.995 13.094 0 18.09l13.41 13.41c-3.226-5.926-2.336-13.5 2.678-18.514z" fill="#02af8e"/><path d="m87.662 270.056-31.657 31.657-9.045-9.045c-4.995-4.995-13.094-4.995-18.09 0-4.995 4.995-4.995 13.094 0 18.09l18.09 18.09c4.995 4.995 13.094 4.995 18.09 0l40.702-40.702c4.995-4.995 4.995-13.094 0-18.09-4.996-4.995-13.095-4.995-18.09 0z" fill="#37c47a"/><path d="m44.957 305.654c2.893-2.893 6.638-4.412 10.427-4.561l-8.425-8.425c-4.995-4.995-13.094-4.995-18.09 0-4.995 4.995-4.995 13.094 0 18.09l13.41 13.41c-3.226-5.926-2.336-13.5 2.678-18.514z" fill="#02af8e"/><path d="m287.662 169.366-31.657 31.657-9.045-9.045c-4.995-4.995-13.094-4.995-18.09 0-4.995 4.995-4.995 13.094 0 18.09l18.09 18.09c4.995 4.995 13.094 4.995 18.09 0l40.702-40.702c4.995-4.995 4.995-13.094 0-18.09-4.996-4.995-13.095-4.995-18.09 0z" fill="#37c47a"/><path d="m244.957 204.964c2.893-2.893 6.638-4.412 10.427-4.561l-8.425-8.425c-4.995-4.995-13.094-4.995-18.09 0-4.995 4.995-4.995 13.094 0 18.09l13.41 13.41c-3.226-5.926-2.336-13.499 2.678-18.514z" fill="#02af8e"/><path d="m287.662 370.056-31.657 31.657-9.045-9.045c-4.995-4.995-13.094-4.995-18.09 0-4.995 4.995-4.995 13.094 0 18.09l18.09 18.09c4.995 4.995 13.094 4.995 18.09 0l40.702-40.702c4.995-4.995 4.995-13.094 0-18.09-4.996-4.995-13.095-4.995-18.09 0z" fill="#37c47a"/><path d="m244.957 405.654c2.893-2.893 6.638-4.412 10.427-4.561l-8.425-8.424c-4.995-4.995-13.094-4.995-18.09 0-4.995 4.995-4.995 13.094 0 18.09l13.41 13.41c-3.226-5.927-2.336-13.501 2.678-18.515z" fill="#02af8e"/><path d="m387.662 270.056-31.657 31.657-9.045-9.045c-4.995-4.995-13.094-4.995-18.09 0-4.995 4.995-4.995 13.094 0 18.09l18.09 18.09c4.995 4.995 13.094 4.995 18.09 0l40.702-40.702c4.995-4.995 4.995-13.094 0-18.09-4.996-4.995-13.095-4.995-18.09 0z" fill="#37c47a"/><path d="m344.957 305.654c2.893-2.893 6.638-4.412 10.427-4.561l-8.424-8.425c-4.995-4.995-13.094-4.995-18.09 0-4.995 4.995-4.995 13.094 0 18.09l13.41 13.41c-3.227-5.926-2.337-13.5 2.677-18.514z" fill="#02af8e"/><path d="m387.662 370.056-31.657 31.657-9.045-9.045c-4.995-4.995-13.094-4.995-18.09 0-4.995 4.995-4.995 13.094 0 18.09l18.09 18.09c4.995 4.995 13.094 4.995 18.09 0l40.702-40.702c4.995-4.995 4.995-13.094 0-18.09-4.996-4.995-13.095-4.995-18.09 0z" fill="#37c47a"/><path d="m344.957 405.654c2.893-2.893 6.638-4.412 10.427-4.561l-8.424-8.424c-4.995-4.995-13.094-4.995-18.09 0-4.995 4.995-4.995 13.094 0 18.09l13.41 13.41c-3.227-5.927-2.337-13.501 2.677-18.515z" fill="#02af8e"/></svg>