<svg id="Capa_1" enable-background="new 0 0 512 512" height="512" viewBox="0 0 512 512" width="512" xmlns="http://www.w3.org/2000/svg"><circle cx="256" cy="256" fill="#2e4c89" r="256"/><path d="m405.51 391.986h-28.388v-127.956c0-5.69-4.612-10.302-10.302-10.302h-61.811c-5.69 0-10.302 4.612-10.302 10.302v127.956h-28.387c-8.335 0-13.219 9.382-8.439 16.21l69.595 99.41c4.101 5.858 12.777 5.858 16.878 0l69.595-99.41c4.78-6.827-.104-16.21-8.439-16.21z" fill="#69cdff"/><path d="m305.009 253.729h20.604c5.69 0 10.302 4.612 10.302 10.302v117.654c0 5.69-4.612 10.302-10.302 10.302h-30.905v-127.957c0-5.689 4.612-10.301 10.301-10.301z" fill="#52bbef"/><path d="m444.291 174.212c-2.068-22.494-20.272-40.305-42.937-41.764-6.831-74.278-69.294-132.448-145.354-132.448s-138.523 58.17-145.354 132.448c-22.665 1.459-40.869 19.27-42.937 41.764-38.547 7.286-67.709 41.122-67.709 81.788 0 45.983 37.277 83.26 83.26 83.26h345.48c45.983 0 83.26-37.277 83.26-83.26 0-40.666-29.162-74.502-67.709-81.788z" fill="#fff"/><path d="m161.724 164.122c0-74.2 46.144-137.618 111.3-163.135-5.585-.648-11.265-.987-17.024-.987-76.06 0-138.523 58.17-145.354 132.448-22.665 1.459-40.869 19.27-42.937 41.764-38.547 7.286-67.709 41.122-67.709 81.788 0 45.983 37.277 83.26 83.26 83.26h253.601c-96.725 0-175.137-78.412-175.137-175.138z" fill="#d9eafc"/><path d="m254.12 270.29-69.595-99.41c-4.101-5.858-12.777-5.858-16.878 0l-69.595 99.41c-4.78 6.828.105 16.21 8.439 16.21h28.388v127.956c0 5.69 4.612 10.302 10.302 10.302h61.811c5.69 0 10.302-4.612 10.302-10.302v-127.956h28.388c8.333 0 13.218-9.382 8.438-16.21z" fill="#37c47a"/><path d="m165.783 424.758h-20.603c-5.69 0-10.302-4.612-10.302-10.302v-127.956h30.905c5.69 0 10.302 4.612 10.302 10.302v117.654c0 5.69-4.612 10.302-10.302 10.302z" fill="#02af8e"/></svg>