<svg id="Capa_1" enable-background="new 0 0 512 512" height="512" viewBox="0 0 512 512" width="512" xmlns="http://www.w3.org/2000/svg"><path d="m455.982 415.81c35.047-43.8 56.018-99.352 56.018-159.81 0-141.385-114.615-256-256-256s-256 114.615-256 256c0 60.458 20.971 116.01 56.018 159.81z" fill="#37c47a"/><path d="m75.99 437.997h360.017c7.08-7.003 13.765-14.403 19.993-22.187v-346.81h-400v346.81c6.228 7.782 12.912 15.184 19.99 22.187z" fill="#2e4c89"/><path d="m96 455.85c43.83 35.13 99.46 56.15 160 56.15 70.182 0 133.756-28.259 180-73.997v-369.003h-360v369.006c6.353 6.285 13.021 12.25 20 17.844z" fill="#d9eafc"/><path d="m96 455.85c6.419 5.145 13.097 9.977 20 14.494v-401.344h-40v369.006c6.353 6.285 13.021 12.25 20 17.844z" fill="#c3ddf4"/><g fill="#b5d3ea"><path d="m396 345.496h-212c-4.142 0-7.5-3.357-7.5-7.5s3.358-7.5 7.5-7.5h212c4.142 0 7.5 3.357 7.5 7.5s-3.358 7.5-7.5 7.5z"/><path d="m154 345.496h-38c-4.142 0-7.5-3.357-7.5-7.5s3.358-7.5 7.5-7.5h38c4.142 0 7.5 3.357 7.5 7.5s-3.358 7.5-7.5 7.5z"/><path d="m396 395.496h-280c-4.142 0-7.5-3.357-7.5-7.5s3.358-7.5 7.5-7.5h280c4.142 0 7.5 3.357 7.5 7.5s-3.358 7.5-7.5 7.5z"/><path d="m338.5 445.496h-165c-4.142 0-7.5-3.357-7.5-7.5s3.358-7.5 7.5-7.5h165c4.142 0 7.5 3.357 7.5 7.5s-3.358 7.5-7.5 7.5z"/></g><path d="m301.001 295.498c-3.031 0-5.885-1.851-7.019-4.854l-37.809-100.187-38.166 100.207c-1.474 3.872-5.808 5.813-9.678 4.34-3.871-1.475-5.813-5.808-4.339-9.679l42.804-112.386c.021-.058.044-.113.067-.17 1.555-3.803 5.214-6.263 9.323-6.267h.011c4.104 0 7.764 2.451 9.325 6.247.028.068.055.137.081.205l42.415 112.392c1.462 3.876-.494 8.203-4.369 9.665-.871.331-1.766.487-2.646.487z" fill="#fe3745"/><path d="m287.866 267.506h-63.517c-4.142 0-7.5-3.357-7.5-7.5s3.358-7.5 7.5-7.5h63.517c4.142 0 7.5 3.357 7.5 7.5s-3.358 7.5-7.5 7.5z" fill="#fe3745"/><path d="m323.461 217.004c-4.142 0-7.5-3.357-7.5-7.5v-35.5c0-4.143 3.358-7.5 7.5-7.5s7.5 3.357 7.5 7.5v35.5c0 4.142-3.358 7.5-7.5 7.5z" fill="#fe3745"/><path d="m341 199.043h-35.5c-4.142 0-7.5-3.357-7.5-7.5s3.358-7.5 7.5-7.5h35.5c4.142 0 7.5 3.357 7.5 7.5s-3.358 7.5-7.5 7.5z" fill="#fe3745"/><path d="m456 120h-400v-100c0-11.046 8.954-20 20-20h360c11.046 0 20 8.954 20 20z" fill="#69cdff"/><path d="m116 0h-40c-11.046 0-20 8.954-20 20v100h40v-100c0-11.046 8.954-20 20-20z" fill="#52bbef"/><circle cx="396" cy="60" fill="#fe3745" r="37.5"/><path d="m388.5 60c0-15.376 9.258-28.583 22.5-34.371-4.594-2.008-9.665-3.129-15-3.129-20.711 0-37.5 16.789-37.5 37.5s16.789 37.5 37.5 37.5c5.335 0 10.406-1.121 15-3.129-13.242-5.788-22.5-18.995-22.5-34.371z" fill="#e6283c"/><path d="m408.5 79.854c-1.919 0-3.839-.732-5.303-2.196l-24.707-24.708c-2.929-2.93-2.929-7.678 0-10.607 2.929-2.928 7.678-2.928 10.606 0l24.707 24.707c2.929 2.93 2.929 7.678 0 10.607-1.464 1.464-3.384 2.197-5.303 2.197z" fill="#fff"/><path d="m383.5 79.854c-1.919 0-3.839-.732-5.303-2.196-2.929-2.93-2.929-7.678 0-10.607l24.707-24.707c2.929-2.928 7.678-2.928 10.606 0 2.929 2.93 2.929 7.678 0 10.607l-24.707 24.707c-1.464 1.463-3.384 2.196-5.303 2.196z" fill="#fff"/><circle cx="301" cy="60" fill="#37c47a" r="37.5"/><path d="m293.5 60c0-15.376 9.258-28.583 22.5-34.371-4.594-2.008-9.665-3.129-15-3.129-20.711 0-37.5 16.789-37.5 37.5s16.789 37.5 37.5 37.5c5.335 0 10.406-1.121 15-3.129-13.242-5.788-22.5-18.995-22.5-34.371z" fill="#02af8e"/><path d="m318.574 67.396h-34.94c-4.142 0-7.5-3.357-7.5-7.5s3.358-7.5 7.5-7.5h34.94c4.142 0 7.5 3.357 7.5 7.5s-3.358 7.5-7.5 7.5z" fill="#fff"/></svg>