<svg id="Capa_1" enable-background="new 0 0 512 512" height="512" viewBox="0 0 512 512" width="512" xmlns="http://www.w3.org/2000/svg"><path d="m93.5 453.816h325c57.089-46.952 93.5-118.13 93.5-197.816 0-141.385-114.615-256-256-256s-256 114.615-256 256c0 79.686 36.411 150.864 93.5 197.816z" fill="#69cdff"/><path d="m462 71.91c0 8.16-3.39 15.54-8.84 20.79-5.21 5.07-12.31 8.18-20.13 8.18h-155.56c-7.7 0-13.97 6.27-13.97 13.97v84.53c0 4.15-3.36 7.5-7.5 7.5s-7.5-3.35-7.5-7.5v-84.53c0-15.97 13-28.97 28.97-28.97h155.56c4.03 0 7.67-1.72 10.21-4.46 2.33-2.5 3.76-5.84 3.76-9.51 0-7.7-6.27-13.97-13.97-13.97h-339.23c6.49-5.32 13.24-10.33 20.24-15h318.99c15.97 0 28.97 13 28.97 28.97z" fill="#d9eafc"/><path d="m293.5 131.61h-75c-69.036 0-125 55.965-125 125v197.206c44.203 36.353 100.801 58.184 162.5 58.184s118.297-21.831 162.5-58.184v-197.206c0-69.036-55.964-125-125-125z" fill="#445ea0"/><path d="m93.5 256.61v197.206c12.41 10.206 25.797 19.266 40 27.021v-224.227c0-69.035 55.964-125 125-125h-40c-69.036 0-125 55.964-125 125z" fill="#2e4c89"/><path d="m256 381.61c-4.142 0-7.5-3.358-7.5-7.5v-242.5h15v242.5c0 4.142-3.358 7.5-7.5 7.5z" fill="#293d7c"/><path d="m256 330.5c-11.046 0-20-8.954-20-20v-80c0-11.046 8.954-20 20-20 11.046 0 20 8.954 20 20v80c0 11.046-8.954 20-20 20z" fill="#2e4c89"/><path d="m256 310.5v-80c0-7.398 4.028-13.843 10-17.302-2.944-1.706-6.353-2.698-10-2.698-11.046 0-20 8.954-20 20v80c0 11.046 8.954 20 20 20 3.647 0 7.056-.992 10-2.698-5.972-3.459-10-9.904-10-17.302z" fill="#293d7c"/></svg>