<svg id="Capa_1" enable-background="new 0 0 512 512" height="512" viewBox="0 0 512 512" width="512" xmlns="http://www.w3.org/2000/svg"><path d="m441.427 432.5c43.729-45.927 70.573-108.078 70.573-176.5 0-141.385-114.615-256-256-256s-256 114.615-256 256c0 68.422 26.844 130.573 70.573 176.5l185.427 40z" fill="#fe3745"/><path d="m441.427 432.5h-370.854c46.632 48.975 112.464 79.5 185.427 79.5s138.795-30.525 185.427-79.5z" fill="#293d7c"/><path d="m439.487 183.524c0-.053.002-.106.002-.16 0-101.269-82.095-183.364-183.364-183.364s-183.364 82.095-183.364 183.364v.001c0 1.609.022 3.213.063 4.812 2.661 162.841 139.383 284.413 183.301 284.413 43.919 0 180.641-121.573 183.301-284.415.04-1.546.06-3.097.061-4.651z" fill="#fff"/><path d="m161.791 161.644c-.045-1.748-.069-3.501-.069-5.261v-.001c0-62.568 28.668-118.434 73.579-155.198-91.462 10.341-162.54 87.953-162.54 182.18v.001c0 1.609.022 3.213.063 4.812 2.661 162.841 139.383 284.413 183.301 284.413 11.999 0 30.932-9.093 52.159-25.605-62.139-46.846-144.342-153.763-146.493-285.341z" fill="#d9eafc"/><path d="m153.694 141.557v81.045c0 8.32 3.867 16.179 10.493 21.211 16.01 12.16 49.231 32.56 91.938 32.56s75.928-20.399 91.938-32.56c6.626-5.033 10.493-12.891 10.493-21.211v-81.045z" fill="#2e4c89"/><path d="m256.125 141.557h-102.431v47.802 33.243c0 8.32 3.867 16.179 10.493 21.211 16.01 12.16 49.231 32.56 91.938 32.56v-11.812c0-14.703 8.446-28.004 21.612-34.549.068-.034.135-.067.202-.101l80.616-40.551v-47.802h-102.43z" fill="#293d7c"/><path d="m386.761 151.276-118.415 59.564c-7.689 3.868-16.754 3.868-24.443 0l-118.414-59.564c-7.987-4.018-7.987-15.419 0-19.437l118.414-59.564c7.689-3.868 16.754-3.868 24.443 0l118.414 59.564c7.987 4.018 7.987 15.419.001 19.437z" fill="#445ea0"/><path d="m331.18 218.755c-4.143 0-7.5-3.357-7.5-7.5v-27.398l-70.924-35.676c-3.701-1.861-5.191-6.37-3.33-10.07 1.861-3.699 6.37-5.19 10.07-3.33l72.115 36.275c4.36 2.193 7.068 6.587 7.068 11.468v28.731c.001 4.142-3.357 7.5-7.499 7.5z" fill="#1a2b63"/><path d="m331.18 203.127c-5.895 0-10.674 4.779-10.674 10.674v16.967c0 2.948 2.389 5.337 5.337 5.337h10.674c2.948 0 5.337-2.389 5.337-5.337v-16.968c0-5.895-4.779-10.673-10.674-10.673z" fill="#ffd00d"/><path d="m331.18 230.768v-16.968c0-3.949 2.15-7.388 5.337-9.234-1.571-.91-3.39-1.44-5.337-1.44-5.895 0-10.674 4.779-10.674 10.674v16.967c0 2.947 2.389 5.337 5.337 5.337h10.674c-2.947.001-5.337-2.389-5.337-5.336z" fill="#ffaf10"/><path d="m243.904 72.275-118.414 59.565c-7.987 4.018-7.987 15.419 0 19.437l118.414 59.565c3.845 1.934 8.033 2.901 12.222 2.901-47.199-47.199-49.771-94.597-.001-144.367-4.189-.002-8.377.965-12.221 2.899z" fill="#2e4c89"/><path d="m338.313 208.892h-14.267c-4.143 0-7.5-3.357-7.5-7.5s3.357-7.5 7.5-7.5h14.267c4.143 0 7.5 3.357 7.5 7.5s-3.357 7.5-7.5 7.5z" fill="#ffaf10"/></svg>