<svg id="Capa_1" enable-background="new 0 0 512 512" height="512" viewBox="0 0 512 512" width="512" xmlns="http://www.w3.org/2000/svg"><path d="m455.982 415.81c35.047-43.8 56.018-99.352 56.018-159.81 0-141.385-114.615-256-256-256s-256 114.615-256 256c0 60.458 20.971 116.01 56.018 159.81z" fill="#52bbef"/><path d="m456 150v265.81c-46.91 58.63-119.07 96.19-200 96.19-60.54 0-116.17-21.02-160-56.15-14.76-11.83-28.18-25.27-40-40.04v-135.81l110-40 40-110h230c11.05 0 20 8.95 20 20z" fill="#d9eafc"/><path d="m206 240v50c0 11.05-8.95 20-20 20h-40c-27.61 0-50 22.39-50 50v95.85c-14.76-11.83-28.18-25.27-40-40.04v-135.81z" fill="#c3ddf4"/><path d="m206 130v130c0 11.046-8.954 20-20 20h-130z" fill="#fff"/><g fill="#b5d3ea"><path d="m416 317.5h-170c-4.143 0-7.5-3.357-7.5-7.5s3.357-7.5 7.5-7.5h170c4.143 0 7.5 3.357 7.5 7.5s-3.357 7.5-7.5 7.5z"/><path d="m416 367.5h-232c-4.143 0-7.5-3.357-7.5-7.5s3.357-7.5 7.5-7.5h232c4.143 0 7.5 3.357 7.5 7.5s-3.357 7.5-7.5 7.5z"/><path d="m154 367.5h-58c-4.143 0-7.5-3.357-7.5-7.5s3.357-7.5 7.5-7.5h58c4.143 0 7.5 3.357 7.5 7.5s-3.357 7.5-7.5 7.5z"/><path d="m416 417.5h-320c-4.143 0-7.5-3.357-7.5-7.5s3.357-7.5 7.5-7.5h320c4.143 0 7.5 3.357 7.5 7.5s-3.357 7.5-7.5 7.5z"/><path d="m338.5 467.5h-165c-4.143 0-7.5-3.357-7.5-7.5s3.357-7.5 7.5-7.5h165c4.143 0 7.5 3.357 7.5 7.5s-3.357 7.5-7.5 7.5z"/></g><path d="m323.023 257.966c-.852 0-1.717-.146-2.564-.454-3.892-1.417-5.899-5.721-4.482-9.613l33.176-91.15c1.416-3.892 5.716-5.897 9.613-4.482 3.892 1.417 5.899 5.721 4.482 9.613l-33.176 91.15c-1.108 3.044-3.985 4.936-7.049 4.936z" fill="#1a2b63"/><path d="m322.866 36.445h110v126.688h-110z" fill="#e6283c" transform="matrix(.94 .342 -.342 .94 56.918 -123.22)"/><path d="m281.632 67.819h126.688v40h-126.688z" fill="#cf1834" transform="matrix(.342 -.94 .94 .342 144.465 381.955)"/><path d="m442.663 82.569-103.366-37.622-.764-24.299c-.445-14.142 13.535-24.262 26.831-19.423l85.436 31.096c13.296 4.839 17.5 21.577 8.069 32.125z" fill="#fe3745"/><path d="m402.951 14.906-37.588-13.681c-13.296-4.839-27.275 5.28-26.83 19.423l.764 24.299 37.588 13.681-.764-24.299c-.445-14.143 13.534-24.262 26.83-19.423z" fill="#e6283c"/><path d="m313.068 117.01 103.366 37.622.764 24.299c.445 14.142-13.535 24.262-26.831 19.423l-85.436-31.096c-13.296-4.839-17.5-21.577-8.069-32.125z" fill="#fe3745"/><path d="m334.451 148.814 16.204-18.123-37.588-13.681-16.204 18.123c-9.431 10.548-5.227 27.285 8.069 32.125l37.588 13.681c-13.296-4.84-17.5-21.578-8.069-32.125z" fill="#e6283c"/></svg>