<svg height="512pt" viewBox="0 0 512 512" width="512pt" xmlns="http://www.w3.org/2000/svg"><path d="m512 256c0 121.78125-85.042969 223.710938-198.96875 249.617188-4.785156 1.09375-9.625 2.046874-14.515625 2.863281-5.527344.929687-11.105469 1.671875-16.738281 2.234375-7.25.730468-14.597656 1.148437-22.027344 1.253906-1.253906.019531-2.496094.03125-3.75.03125-14.230469 0-28.203125-1.160156-41.804688-3.40625-6.019531-.992188-11.976562-2.183594-17.847656-3.59375-18.128906-4.316406-35.507812-10.574219-51.902344-18.527344-18.503906-8.976562-35.777343-20.113281-51.46875-33.089844-14.558593-12.039062-27.765624-25.644531-39.332031-40.574218-33.632812-43.320313-53.644531-97.730469-53.644531-156.808594 0-141.386719 114.613281-256 256-256s256 114.613281 256 256zm0 0" fill="#3d4159"/><path d="m298.515625 449.578125v29.246094c-25.546875 14.503906-53.84375 24.722656-83.902344 29.707031-.136719.019531-.285156.042969-.417969.0625-45.589843-7.480469-87.113281-27.011719-121.21875-55.210938-14.558593-12.039062-27.765624-25.644531-39.332031-40.574218 11.273438-26.875 34.542969-47.492188 63.113281-55.128906 1.484376-.398438 2.976563-.761719 4.492188-1.085938 4.035156-.878906 8.171875-1.484375 12.382812-1.828125 2.570313-.210937 5.160157-.316406 7.785157-.316406h61.949219c6.929687 0 13.679687.734375 20.179687 2.144531.375.070312.75.15625 1.117187.238281 1.097657.25 2.195313.523438 3.269532.816407.03125.007812.050781.007812.085937.019531 10.707031 2.863281 20.675781 7.554687 29.539063 13.710937 24.75 17.175782 40.957031 45.796875 40.957031 78.199219zm0 0" fill="#dd3033"/><path d="m298.515625 449.578125v58.902344c-13.824219 2.316406-28.035156 3.519531-42.515625 3.519531-61.953125 0-118.742188-21.996094-163.023438-58.617188v-3.804687c0-44.011719 29.882813-81.042969 70.476563-91.898437 1.484375-.398438 2.976563-.761719 4.492187-1.085938 4.035157-.878906 8.171876-1.484375 12.382813-1.828125 2.570313-.210937 5.164063-.316406 7.785156-.316406h15.253907c6.929687 0 13.679687.734375 20.179687 2.144531.375.070312.75.15625 1.117187.238281 1.097657.25 2.195313.523438 3.269532.816407.03125.007812.050781.007812.085937.019531 10.707031 2.863281 20.675781 7.554687 29.539063 13.710937 24.75 17.175782 40.957031 45.796875 40.957031 78.199219zm0 0" fill="#f74f4f"/><path d="m228.246094 356.59375-.226563 1.074219-31.671875 147.332031c-18.128906-4.316406-35.507812-10.574219-51.902344-18.527344l-27.6875-128.792968-.230468-1.085938zm0 0" fill="#f2f0ec"/><path d="m172.386719 393.394531-42.828125 23.804688-13.027344-60.605469 26.613281-15.675781" fill="#d8d5d0"/><path d="m172.386719 393.394531 42.832031 23.804688 13.027344-60.605469-26.609375-15.675781" fill="#d8d5d0"/><path d="m44.511719 331.515625v-143.476563c0-14.578124 2.433593-28.863281 7.230469-42.453124 17.953124-51.101563 66.445312-85.441407 120.652343-85.441407 6.714844 0 13.417969.519531 19.925781 1.546875 29.785157 4.65625 57.109376 19.859375 76.921876 42.808594 20.019531 23.191406 31.046874 52.859375 31.046874 83.539062v143.476563" fill="#cc7a3b"/><path d="m97.117188 193.640625c0 50.75 29.71875 109.464844 46.039062 137.875h-98.648438v-143.476563c0-14.574218 2.433594-28.859374 7.230469-42.453124 17.847657-50.804688 65.890625-85.042969 119.722657-85.429688-39.316407.980469-74.34375 64.0625-74.34375 133.484375zm0 0" fill="#a35418"/><path d="m206.34375 317.800781v41.65625c0 15.25-10.054688 28.140625-23.90625 32.421875-3.167969.980469-6.546875 1.515625-10.042969 1.515625-18.742187 0-33.9375-15.195312-33.9375-33.9375v-41.65625zm0 0" fill="#eab599"/><path d="m206.34375 356.816406v2.640625c0 15.25-10.054688 28.140625-23.90625 32.421875-12.496094-3.84375-21.890625-14.707031-23.625-28.003906 2.265625.140625 4.546875.210938 6.835938.210938 6.421874 0 12.71875-.511719 18.851562-1.519532 7.554688-1.210937 14.855469-3.15625 21.84375-5.75zm0 0" fill="#f6caae"/><path d="m79.292969 249.535156c0 15.710938-11.480469 28.742188-26.511719 31.160156-1.640625.265626-3.332031.402344-5.054688.402344-17.4375 0-31.566406-14.125-31.566406-31.5625s14.128906-31.566406 31.566406-31.566406c1.722657 0 3.414063.140625 5.054688.40625 15.03125 2.417969 26.511719 15.445312 26.511719 31.160156zm0 0" fill="#f6caae"/><g fill="#eab599"><path d="m79.292969 249.535156c0 15.710938-11.480469 28.742188-26.511719 31.160156-2.730469-9.929687-4.1875-20.378906-4.1875-31.160156 0-10.785156 1.457031-21.234375 4.1875-31.160156 15.03125 2.417969 26.511719 15.445312 26.511719 31.160156zm0 0"/><path d="m59.007812 249.535156c0 6.230469-5.050781 11.28125-11.28125 11.28125-6.230468 0-11.28125-5.050781-11.28125-11.28125 0-6.230468 5.050782-11.28125 11.28125-11.28125 6.230469 0 11.28125 5.050782 11.28125 11.28125zm0 0"/><path d="m253.449219 209.230469v108.5c-16.769531 16.007812-38.277344 27.09375-62.203125 30.949219-.1875.03125-.386719.0625-.574219.097656-5.945313.949218-12.046875 1.417968-18.277344 1.417968-64.855469 0-117.433593-52.578124-117.433593-117.433593v-44.722657c0-5.726562.40625-11.359374 1.199218-16.863281 27.941406 20.089844 68.003906 18.105469 93.53125-6.019531 8.453125-7.984375 14.324219-17.492188 17.648438-27.574219 1.847656 17.65625 9.925781 34.847657 24.238281 48.378907 17.042969 16.089843 39.5625 23.855468 61.871094 23.269531zm0 0"/></g><path d="m253.449219 209.230469v108.5c-16.769531 16.007812-38.277344 27.09375-62.203125 30.949219-.1875.03125-.386719.0625-.574219.097656-56.175781-8.777344-99.140625-57.386719-99.140625-116.015625v-44.722657c0-1.191406.019531-2.371093.0625-3.554687 20.710938 2.121094 42.214844-4.3125 58.097656-19.328125 8.453125-7.984375 14.324219-17.492188 17.648438-27.574219 1.847656 17.65625 9.925781 34.847657 24.238281 48.378907 17.042969 16.089843 39.5625 23.855468 61.871094 23.269531zm0 0" fill="#f6caae"/><path d="m235.46875 222.84375c0-10.773438-8.730469-19.507812-19.503906-19.507812-10.773438 0-19.507813 8.734374-19.507813 19.507812" fill="#eab599"/><path d="m148.351562 222.84375c0-10.773438-8.730468-19.507812-19.503906-19.507812-10.773437 0-19.507812 8.734374-19.507812 19.507812" fill="#eab599"/><path d="m142.167969 231.144531c0 7.359375-5.964844 13.324219-13.320313 13.324219-7.359375 0-13.324218-5.964844-13.324218-13.324219 0-7.355469 5.964843-13.320312 13.324218-13.320312 7.355469 0 13.320313 5.964843 13.320313 13.320312zm0 0" fill="#3d4159"/><path d="m229.289062 231.144531c0 7.359375-5.964843 13.324219-13.324218 13.324219s-13.324219-5.964844-13.324219-13.324219c0-7.355469 5.964844-13.320312 13.324219-13.320312s13.324218 5.964843 13.324218 13.320312zm0 0" fill="#3d4159"/><path d="m185.730469 264.6875h-26.648438c-3.171875 0-5.746093-2.570312-5.746093-5.746094 0-3.171875 2.574218-5.746094 5.746093-5.746094h26.648438c3.171875 0 5.746093 2.574219 5.746093 5.746094 0 3.175782-2.574218 5.746094-5.746093 5.746094zm0 0" fill="#eab599"/><path d="m172.40625 301.046875c-9.835938 0-19.667969-2.460937-28.632812-7.390625-2.527344-1.390625-3.449219-4.566406-2.0625-7.09375 1.390624-2.527344 4.570312-3.449219 7.097656-2.0625 14.777344 8.125 32.417968 8.125 47.195312 0 2.527344-1.390625 5.703125-.46875 7.09375 2.0625 1.390625 2.527344.46875 5.703125-2.058594 7.09375-8.964843 4.929688-18.800781 7.390625-28.632812 7.390625zm0 0" fill="#eab599"/><path d="m139.453125 228.796875c0 3.152344-2.554687 5.707031-5.707031 5.707031s-5.710938-2.554687-5.710938-5.707031c0-3.15625 2.558594-5.710937 5.710938-5.710937s5.707031 2.554687 5.707031 5.710937zm0 0" fill="#fff"/><path d="m227.222656 228.796875c0 3.152344-2.554687 5.707031-5.707031 5.707031s-5.707031-2.554687-5.707031-5.707031c0-3.15625 2.554687-5.710937 5.707031-5.710937s5.707031 2.554687 5.707031 5.710937zm0 0" fill="#fff"/><path d="m252.335938 263.59375c0 8.082031-6.550782 14.628906-14.628907 14.628906s-14.628906-6.546875-14.628906-14.628906c0-8.078125 6.550781-14.628906 14.628906-14.628906s14.628907 6.550781 14.628907 14.628906zm0 0" fill="#eab599"/><path d="m121.722656 263.59375c0 8.082031-6.546875 14.628906-14.628906 14.628906-8.078125 0-14.628906-6.546875-14.628906-14.628906 0-8.078125 6.550781-14.628906 14.628906-14.628906 8.082031 0 14.628906 6.550781 14.628906 14.628906zm0 0" fill="#eab599"/><path d="m250.289062 28.042969h231.90625v174.316406h-231.90625zm0 0" fill="#f2f0ec"/><path d="m296.980469 191.464844-24.902344 59.140625 108.949219-62.253907zm0 0" fill="#f2f0ec"/><path d="m313.03125 457.75v47.867188c-4.785156 1.09375-9.625 2.046874-14.515625 2.863281-12.632813 2.121093-25.578125 3.300781-38.765625 3.488281v-54.21875zm0 0" fill="#f74f4f"/><path d="m281.777344 457.75v52.964844c-7.25.730468-14.597656 1.148437-22.027344 1.253906v-54.21875zm0 0" fill="#dd3033"/><path d="m362.574219 442.347656c0 8.507813-6.894531 15.402344-15.402344 15.402344h-87.425781v-15.402344c0-8.503906 6.898437-15.398437 15.402344-15.398437h72.023437c4.253906 0 8.109375 1.722656 10.890625 4.511719 1.460938 1.464843 2.632812 3.230468 3.414062 5.183593.710938 1.765625 1.097657 3.6875 1.097657 5.703125zm0 0" fill="#eab599"/><path d="m361.476562 436.644531c-2.265624 5.683594-7.8125 9.695313-14.304687 9.695313h-87.425781v-3.992188c0-8.503906 6.898437-15.398437 15.402344-15.398437h72.023437c4.253906 0 8.109375 1.722656 10.890625 4.511719 1.460938 1.464843 2.632812 3.230468 3.414062 5.183593zm0 0" fill="#f6caae"/><path d="m421.386719 98.320312c0 29.863282-24.210938 54.070313-54.070313 54.070313-29.863281 0-54.070312-24.207031-54.070312-54.070313 0-29.863281 24.207031-54.070312 54.070312-54.070312 29.859375 0 54.070313 24.207031 54.070313 54.070312zm0 0" fill="#ffe152"/><path d="m367.316406 119.136719c-18.675781 0-33.871094-15.195313-33.871094-33.871094h10.449219c0 12.914063 10.507813 23.421875 23.421875 23.421875 12.910156 0 23.417969-10.507812 23.417969-23.421875h10.449219c0 18.675781-15.195313 33.871094-33.867188 33.871094zm0 0" fill="#fff"/><path d="m362.089844 113.910156h10.449218v49.277344h-10.449218zm0 0" fill="#fff"/><path d="m381.21875 176.871094h-27.808594c-7.796875 0-14.113281-6.320313-14.113281-14.117188v-19.53125h56.039063v19.53125c0 7.796875-6.320313 14.117188-14.117188 14.117188zm0 0" fill="#3d4159"/></svg>