<svg height="512pt" viewBox="0 0 512 512" width="512pt" xmlns="http://www.w3.org/2000/svg"><path d="m512 256c0 126.902344-92.328125 232.230469-213.472656 252.480469-13.835938 2.316406-28.035156 3.519531-42.527344 3.519531-14.242188 0-28.203125-1.160156-41.804688-3.40625-6.019531-.992188-11.964843-2.183594-17.839843-3.59375-18.128907-4.316406-35.503907-10.566406-51.898438-18.527344-18.503906-8.964844-35.789062-20.09375-51.472656-33.082031-14.554687-12.027344-27.75-25.628906-39.339844-40.5625-33.625-43.320313-53.644531-97.738281-53.644531-156.828125 0-141.386719 114.613281-256 256-256s256 114.613281 256 256zm0 0" fill="#ffe152"/><path d="m381.386719 0v479.242188c-8.085938 4.554687-16.457031 8.683593-25.078125 12.339843v-491.582031zm0 0" fill="#3d4159"/><path d="m25.078125 241.652344c119.117187 106.496094 238.238281-106.496094 357.355469 0 0-68.265625 0-136.53125 0-204.796875-119.117188-106.496094-238.238282 106.492187-357.355469 0zm0 0" fill="#f74f4f"/><path d="m396.808594 424.230469v29.746093c0 11.203126-6.914063 20.792969-16.714844 24.722657-3.074219 1.246093-6.417969 1.921875-9.929688 1.921875-14.710937 0-26.644531-11.929688-26.644531-26.644532v-29.746093c0-14.714844 11.933594-26.644531 26.644531-26.644531 3.511719 0 6.855469.679687 9.929688 1.910156 3.363281 1.347656 6.394531 3.367187 8.910156 5.894531 4.816406 4.828125 7.804688 11.484375 7.804688 18.839844zm0 0" fill="#eab599"/><path d="m396.808594 424.230469v29.746093c0 11.203126-6.914063 20.792969-16.714844 24.722657-9.804688-3.929688-16.71875-13.519531-16.71875-24.722657v-29.746093c0-11.203125 6.914062-20.792969 16.71875-24.734375 3.363281 1.347656 6.394531 3.367187 8.910156 5.894531 4.816406 4.828125 7.804688 11.484375 7.804688 18.839844zm0 0" fill="#f6caae"/><path d="m298.527344 449.578125v29.246094c-25.546875 14.503906-53.84375 24.722656-83.90625 29.707031-.144532.019531-.28125.042969-.425782.0625-45.589843-7.480469-87.113281-27-121.210937-55.203125-14.554687-12.027344-27.75-25.628906-39.339844-40.5625 11.273438-26.882813 34.542969-47.511719 63.121094-55.148437 1.484375-.398438 2.980469-.761719 4.496094-1.085938 4.03125-.878906 8.167969-1.484375 12.378906-1.828125 2.574219-.210937 5.164063-.316406 7.785156-.316406h61.953125c6.925782 0 13.679688.734375 20.175782 2.144531.378906.070312.753906.15625 1.121093.238281 1.09375.25 2.191407.523438 3.269531.816407.03125.007812.050782.007812.082032.019531 10.710937 2.863281 20.679687 7.554687 29.539062 13.710937 24.753906 17.175782 40.960938 45.796875 40.960938 78.199219zm0 0" fill="#dd3033"/><path d="m298.527344 449.578125v58.902344c-13.835938 2.316406-28.035156 3.519531-42.527344 3.519531-61.941406 0-118.742188-21.996094-163.015625-58.609375v-3.8125c0-44.011719 29.886719-81.042969 70.480469-91.898437 1.484375-.398438 2.976562-.761719 4.492187-1.085938 4.03125-.878906 8.171875-1.484375 12.382813-1.828125 2.570312-.210937 5.160156-.316406 7.785156-.316406h15.253906c6.925782 0 13.679688.734375 20.175782 2.144531.378906.070312.753906.15625 1.121093.238281 1.09375.25 2.191407.523438 3.269531.816407.03125.007812.050782.007812.082032.019531 10.710937 2.863281 20.679687 7.554687 29.539062 13.710937 24.753906 17.175782 40.960938 45.796875 40.960938 78.199219zm0 0" fill="#f74f4f"/><path d="m228.257812 356.59375-.230468 1.074219-31.671875 147.332031c-18.128907-4.316406-35.503907-10.566406-51.898438-18.527344l-27.691406-128.792968-.226563-1.085938zm0 0" fill="#f2f0ec"/><path d="m172.394531 393.394531-42.832031 23.804688-13.027344-60.605469 26.613282-15.675781" fill="#d8d5d0"/><path d="m172.394531 393.394531 42.828125 23.804688 13.03125-60.605469-26.613281-15.675781" fill="#d8d5d0"/><path d="m44.515625 331.515625v-143.476563c0-14.578124 2.433594-28.863281 7.230469-42.453124 17.957031-51.101563 66.445312-85.441407 120.65625-85.441407 6.714844 0 13.414062.519531 19.921875 1.546875 29.785156 4.65625 57.109375 19.859375 76.921875 42.808594 20.023437 23.191406 31.050781 52.859375 31.050781 83.539062v143.476563" fill="#3d4159"/><path d="m97.125 193.640625c0 50.75 29.714844 109.464844 46.035156 137.875h-98.648437v-143.476563c0-14.574218 2.433593-28.859374 7.230469-42.453124 17.847656-50.804688 65.890624-85.042969 119.726562-85.429688-39.320312.980469-74.34375 64.0625-74.34375 133.484375zm0 0" fill="#2a2f4f"/><path d="m206.347656 317.800781v41.65625c0 15.25-10.054687 28.140625-23.902344 32.421875-3.171874.980469-6.550781 1.515625-10.042968 1.515625-18.746094 0-33.9375-15.195312-33.9375-33.9375v-41.65625zm0 0" fill="#eab599"/><path d="m206.347656 356.816406v2.640625c0 15.25-10.054687 28.140625-23.902344 32.421875-12.496093-3.84375-21.890624-14.707031-23.628906-28.003906 2.269532.140625 4.546875.210938 6.839844.210938 6.421875 0 12.714844-.511719 18.847656-1.519532 7.554688-1.210937 14.855469-3.15625 21.84375-5.75zm0 0" fill="#f6caae"/><path d="m79.296875 249.535156c0 15.710938-11.480469 28.742188-26.507813 31.160156-1.644531.265626-3.335937.402344-5.058593.402344-17.4375 0-31.566407-14.125-31.566407-31.5625s14.128907-31.566406 31.566407-31.566406c1.722656 0 3.414062.140625 5.058593.40625 15.027344 2.417969 26.507813 15.445312 26.507813 31.160156zm0 0" fill="#f6caae"/><g fill="#eab599"><path d="m79.296875 249.535156c0 15.710938-11.480469 28.742188-26.507813 31.160156-2.730468-9.929687-4.191406-20.378906-4.191406-31.160156 0-10.785156 1.457032-21.234375 4.191406-31.160156 15.027344 2.417969 26.507813 15.445312 26.507813 31.160156zm0 0"/><path d="m59.011719 249.535156c0 6.230469-5.050781 11.28125-11.28125 11.28125s-11.28125-5.050781-11.28125-11.28125c0-6.230468 5.050781-11.28125 11.28125-11.28125s11.28125 5.050782 11.28125 11.28125zm0 0"/><path d="m253.453125 209.230469v108.5c-16.769531 16.007812-38.273437 27.09375-62.203125 30.949219-.1875.03125-.386719.0625-.574219.097656-5.945312.949218-12.046875 1.417968-18.273437 1.417968-64.859375 0-117.4375-52.578124-117.4375-117.433593v-44.722657c0-5.726562.40625-11.359374 1.203125-16.863281 27.9375 20.089844 68 18.105469 93.527343-6.019531 8.453126-7.984375 14.324219-17.492188 17.648438-27.574219 1.847656 17.65625 9.925781 34.847657 24.242188 48.378907 17.042968 16.089843 39.558593 23.855468 61.867187 23.269531zm0 0"/></g><path d="m253.453125 209.230469v108.5c-16.769531 16.007812-38.273437 27.09375-62.203125 30.949219-.1875.03125-.386719.0625-.574219.097656-56.171875-8.777344-99.140625-57.386719-99.140625-116.015625v-44.722657c0-1.191406.023438-2.371093.0625-3.554687 20.710938 2.121094 42.214844-4.3125 58.097656-19.328125 8.453126-7.984375 14.324219-17.492188 17.648438-27.574219 1.847656 17.65625 9.925781 34.847657 24.242188 48.378907 17.042968 16.089843 39.558593 23.855468 61.867187 23.269531zm0 0" fill="#f6caae"/><path d="m235.476562 222.84375c0-10.773438-8.734374-19.507812-19.507812-19.507812s-19.503906 8.734374-19.503906 19.507812" fill="#eab599"/><path d="m148.355469 222.84375c0-10.773438-8.730469-19.507812-19.503907-19.507812-10.773437 0-19.503906 8.734374-19.503906 19.507812" fill="#eab599"/><path d="m142.175781 231.144531c0 7.359375-5.964843 13.324219-13.324219 13.324219-7.359374 0-13.324218-5.964844-13.324218-13.324219 0-7.355469 5.964844-13.320312 13.324218-13.320312 7.359376 0 13.324219 5.964843 13.324219 13.320312zm0 0" fill="#3d4159"/><path d="m229.292969 231.144531c0 7.359375-5.964844 13.324219-13.324219 13.324219-7.355469 0-13.320312-5.964844-13.320312-13.324219 0-7.355469 5.964843-13.320312 13.320312-13.320312 7.359375 0 13.324219 5.964843 13.324219 13.320312zm0 0" fill="#3d4159"/><path d="m185.734375 264.6875h-26.644531c-3.175782 0-5.746094-2.570312-5.746094-5.746094 0-3.171875 2.570312-5.746094 5.746094-5.746094h26.644531c3.171875 0 5.746094 2.574219 5.746094 5.746094 0 3.175782-2.574219 5.746094-5.746094 5.746094zm0 0" fill="#eab599"/><path d="m172.410156 301.046875c-9.832031 0-19.667968-2.460937-28.632812-7.390625-2.527344-1.390625-3.449219-4.566406-2.058594-7.09375s4.566406-3.449219 7.09375-2.0625c14.777344 8.125 32.421875 8.125 47.195312 0 2.527344-1.390625 5.707032-.46875 7.097657 2.0625 1.390625 2.527344.464843 5.703125-2.0625 7.09375-8.964844 4.929688-18.796875 7.390625-28.632813 7.390625zm0 0" fill="#eab599"/><path d="m139.457031 228.796875c0 3.152344-2.554687 5.707031-5.707031 5.707031s-5.707031-2.554687-5.707031-5.707031c0-3.15625 2.554687-5.710937 5.707031-5.710937s5.707031 2.554687 5.707031 5.710937zm0 0" fill="#fff"/><path d="m227.230469 228.796875c0 3.152344-2.554688 5.707031-5.707031 5.707031-3.15625 0-5.710938-2.554687-5.710938-5.707031 0-3.15625 2.554688-5.710937 5.710938-5.710937 3.152343 0 5.707031 2.554687 5.707031 5.710937zm0 0" fill="#fff"/><path d="m252.339844 263.59375c0 8.082031-6.546875 14.628906-14.628906 14.628906-8.078126 0-14.628907-6.546875-14.628907-14.628906 0-8.078125 6.550781-14.628906 14.628907-14.628906 8.082031 0 14.628906 6.550781 14.628906 14.628906zm0 0" fill="#eab599"/><path d="m121.730469 263.59375c0 8.082031-6.550781 14.628906-14.628907 14.628906-8.082031 0-14.628906-6.546875-14.628906-14.628906 0-8.078125 6.546875-14.628906 14.628906-14.628906 8.078126 0 14.628907 6.550781 14.628907 14.628906zm0 0" fill="#eab599"/></svg>