<svg height="512pt" viewBox="0 0 512 512" width="512pt" xmlns="http://www.w3.org/2000/svg"><path d="m512 256c0 62.359375-22.296875 119.515625-59.359375 163.921875-12.9375 15.507813-27.671875 29.457031-43.875 41.527344-8.714844 6.488281-17.847656 12.433593-27.378906 17.792969-8.085938 4.554687-16.457031 8.683593-25.078125 12.339843-1.929688.835938-3.875 1.628907-5.839844 2.414063-13.375 5.320312-27.3125 9.539062-41.691406 12.550781-4.996094 1.054687-10.03125 1.953125-15.128906 2.703125-12.289063 1.808594-24.859376 2.75-37.648438 2.75-17.429688 0-34.441406-1.746094-50.886719-5.058594-117.007812-23.59375-205.113281-126.976562-205.113281-250.941406 0-141.386719 114.613281-256 256-256 35.601562 0 69.507812 7.261719 100.308594 20.40625 8.613281 3.667969 16.980468 7.796875 25.078125 12.363281 77.960937 43.875 130.613281 127.402344 130.613281 223.230469zm0 0" fill="#66baed"/><path d="m381.386719 0v479.242188c-8.085938 4.554687-16.457031 8.683593-25.078125 12.339843v-491.582031zm0 0" fill="#3d4159"/><path d="m25.078125 241.652344c119.117187 106.496094 238.238281-106.496094 357.355469 0 0-68.265625 0-136.53125 0-204.796875-119.117188-106.496094-238.238282 106.492187-357.355469 0zm0 0" fill="#f74f4f"/><path d="m306.886719 449.578125v29.246094c-26.855469 15.234375-56.75 25.757812-88.535157 30.425781-42.714843-6.296875-82.003906-23.140625-115.117187-47.800781-16.203125-12.070313-30.9375-26.019531-43.875-41.527344 11.683594-35.648437 43.875-62.023437 82.640625-65.15625 2.570312-.210937 5.164062-.316406 7.785156-.316406h61.953125c7.324219 0 14.449219.816406 21.292969 2.382812 42.300781 9.675781 73.855469 47.53125 73.855469 92.746094zm0 0" fill="#bfd5de"/><path d="m306.886719 449.578125v57.363281c-16.445313 3.3125-33.457031 5.058594-50.886719 5.058594-57.261719 0-110.121094-18.796875-152.765625-50.550781v-11.871094c0-52.539063 42.601563-95.128906 95.148437-95.128906h13.355469c52.558594 0 95.148438 42.589843 95.148438 95.128906zm0 0" fill="#dde8ed"/><path d="m87.652344 249.535156c0 15.710938-11.476563 28.742188-26.507813 31.160156-1.644531.265626-3.332031.402344-5.058593.402344-17.4375 0-31.5625-14.125-31.5625-31.5625s14.125-31.566406 31.5625-31.566406c1.726562 0 3.414062.140625 5.058593.40625 15.03125 2.417969 26.507813 15.445312 26.507813 31.160156zm0 0" fill="#d3a489"/><path d="m206.300781 388.773438-25.535156 40.960937-25.539063-40.960937" fill="#f74f4f"/><path d="m203.222656 506.546875c-14.378906-3.011719-28.316406-7.230469-41.691406-12.550781l19.234375-74.917969zm0 0" fill="#f74f4f"/><path d="m87.652344 249.535156c0 15.710938-11.476563 28.742188-26.507813 31.160156-2.730469-9.929687-4.191406-20.378906-4.191406-31.160156 0-10.785156 1.457031-21.234375 4.191406-31.160156 15.03125 2.417969 26.507813 15.445312 26.507813 31.160156zm0 0" fill="#bf8e75"/><path d="m67.367188 249.535156c0 6.230469-5.050782 11.28125-11.28125 11.28125-6.230469 0-11.28125-5.050781-11.28125-11.28125 0-6.230468 5.050781-11.28125 11.28125-11.28125 6.230468 0 11.28125 5.050782 11.28125 11.28125zm0 0" fill="#bf8e75"/><path d="m180.753906 393.394531-42.828125 23.800781-13.027343-60.601562 26.613281-15.675781" fill="#bfd5de"/><path d="m180.753906 393.394531 42.832032 23.800781 13.027343-60.601562-26.609375-15.675781" fill="#bfd5de"/><path d="m273.867188 249.535156c0 15.710938 11.480468 28.742188 26.511718 31.160156 1.640625.265626 3.332032.402344 5.054688.402344 17.4375 0 31.566406-14.125 31.566406-31.5625s-14.128906-31.566406-31.566406-31.566406c-1.722656 0-3.414063.140625-5.054688.40625-15.03125 2.417969-26.511718 15.445312-26.511718 31.160156zm0 0" fill="#d3a489"/><g fill="#bf8e75"><path d="m273.867188 249.535156c0 15.710938 11.480468 28.742188 26.511718 31.160156 2.730469-9.929687 4.1875-20.378906 4.1875-31.160156 0-10.785156-1.457031-21.234375-4.1875-31.160156-15.03125 2.417969-26.511718 15.445312-26.511718 31.160156zm0 0"/><path d="m316.714844 249.535156c0 6.230469-5.050782 11.28125-11.28125 11.28125-6.230469 0-11.28125-5.050781-11.28125-11.28125 0-6.230468 5.050781-11.28125 11.28125-11.28125 6.230468 0 11.28125 5.050782 11.28125 11.28125zm0 0"/><path d="m298.207031 232.757812c0 58.441407-42.699219 106.925782-98.597656 115.925782-6.128906 1.007812-12.425781 1.515625-18.847656 1.515625-64.867188 0-117.441407-52.578125-117.441407-117.441407 0-30.691406 22.417969-76.761718 41.691407-97.683593 21.460937-23.300781 41.574219-19.761719 75.75-19.761719 6.421875 0 12.71875.507812 18.847656 1.515625 55.898437 9.003906 98.597656 57.484375 98.597656 115.929687zm0 0"/><path d="m214.703125 317.800781v41.65625c0 15.25-10.054687 28.140625-23.902344 32.421875-3.171875.980469-6.550781 1.515625-10.046875 1.515625-18.742187 0-33.933594-15.195312-33.933594-33.9375v-41.65625zm0 0"/></g><path d="m214.703125 356.816406v2.640625c0 15.25-10.054687 28.140625-23.902344 32.421875-12.496093-3.84375-21.894531-14.707031-23.628906-28.003906 2.269531.140625 4.546875.210938 6.839844.210938 6.421875 0 12.714843-.511719 18.847656-1.519532 7.554687-1.210937 14.855469-3.15625 21.84375-5.75zm0 0" fill="#d3a489"/><path d="m298.207031 232.757812c0 58.441407-42.699219 106.925782-98.597656 115.925782-55.898437-9-98.59375-57.484375-98.59375-115.925782 0-35.988281 16.1875-68.199218 41.691406-89.746093 15.898438-13.445313 35.429688-22.722657 56.902344-26.183594 52.117187 8.386719 92.765625 51.109375 98.015625 104.21875.382812 3.851563.582031 7.765625.582031 11.710937zm0 0" fill="#d3a489"/><path d="m180.761719 295.824219c-9.835938 0-19.667969-2.464844-28.632813-7.390625-2.527344-1.390625-3.449218-4.566406-2.0625-7.097656 1.394532-2.527344 4.570313-3.449219 7.097656-2.058594 14.777344 8.121094 32.421876 8.121094 47.195313 0 2.527344-1.390625 5.703125-.46875 7.09375 2.058594 1.394531 2.53125.46875 5.707031-2.058594 7.097656-8.964843 4.925781-18.800781 7.390625-28.632812 7.390625zm0 0" fill="#bf8e75"/><path d="m155.75 225.921875c0 7.359375-5.964844 13.320313-13.320312 13.320313-7.359376 0-13.324219-5.960938-13.324219-13.320313s5.964843-13.324219 13.324219-13.324219c7.355468 0 13.320312 5.964844 13.320312 13.324219zm0 0" fill="#3d4159"/><path d="m232.417969 225.921875c0 7.359375-5.964844 13.320313-13.320313 13.320313-7.359375 0-13.324218-5.960938-13.324218-13.320313s5.964843-13.324219 13.324218-13.324219c7.355469 0 13.320313 5.964844 13.320313 13.324219zm0 0" fill="#3d4159"/><path d="m153.035156 223.570312c0 3.152344-2.558594 5.707032-5.710937 5.707032-3.152344 0-5.707031-2.554688-5.707031-5.707032 0-3.152343 2.554687-5.707031 5.707031-5.707031 3.152343 0 5.710937 2.554688 5.710937 5.707031zm0 0" fill="#fff"/><path d="m230.355469 223.570312c0 3.152344-2.554688 5.707032-5.707031 5.707032-3.152344 0-5.707032-2.554688-5.707032-5.707032 0-3.152343 2.554688-5.707031 5.707032-5.707031 3.152343 0 5.707031 2.554688 5.707031 5.707031zm0 0" fill="#fff"/><path d="m194.085938 259.464844h-26.644532c-3.175781 0-5.75-2.574219-5.75-5.746094 0-3.175781 2.574219-5.746094 5.75-5.746094h26.644532c3.171874 0 5.746093 2.570313 5.746093 5.746094 0 3.171875-2.574219 5.746094-5.746093 5.746094zm0 0" fill="#bf8e75"/><path d="m219.429688 446.453125h51.199218v15.675781h-51.199218zm0 0" fill="#bfd5de"/><path d="m173.890625 81.761719c35.574219 2.542969 64.140625 31.28125 65.953125 67.460937l.335938 6.789063h20.460937l11.027344 73.300781 26.699219-8.265625-3.585938-71.824219c-1.894531-38-33.324219-67.785156-71.363281-67.644531zm0 0" fill="#2a2f4f"/><path d="m292.519531 53.417969c28.328125 28.328125 28.328125 74.261719 0 102.59375-28.332031 28.328125-74.265625 28.328125-102.597656 0zm0 0" fill="#3d4159"/><path d="m189.921875 156.007812h-89.035156l-11.027344 73.304688-26.695313-8.261719 3.582032-71.832031c1.890625-37.992188 33.324218-67.785156 71.367187-67.640625l128.585938.480469 17.003906 30.601562" fill="#3d4159"/><path d="m187.632812 81.761719c-35.574218 2.542969-64.140624 31.28125-65.953124 67.460937l-.335938 6.789063h-20.464844l-11.023437 73.300781-26.699219-8.265625 3.585938-71.824219c1.894531-38 33.324218-67.785156 71.363281-67.644531zm0 0" fill="#2a2f4f"/><path d="m396.808594 424.230469v29.746093c0 11.203126-6.914063 20.792969-16.714844 24.722657-3.074219 1.246093-6.417969 1.921875-9.929688 1.921875-14.710937 0-26.644531-11.929688-26.644531-26.644532v-29.746093c0-14.714844 11.933594-26.644531 26.644531-26.644531 3.511719 0 6.855469.679687 9.929688 1.910156 3.363281 1.347656 6.394531 3.367187 8.910156 5.894531 4.816406 4.828125 7.804688 11.484375 7.804688 18.839844zm0 0" fill="#bf8e75"/><path d="m396.808594 424.230469v29.746093c0 11.203126-6.914063 20.792969-16.714844 24.722657-9.804688-3.929688-16.71875-13.519531-16.71875-24.722657v-29.746093c0-11.203125 6.914062-20.792969 16.71875-24.734375 3.363281 1.347656 6.394531 3.367187 8.910156 5.894531 4.816406 4.828125 7.804688 11.484375 7.804688 18.839844zm0 0" fill="#d3a489"/></svg>