<svg height="512pt" viewBox="0 0 512 512" width="512pt" xmlns="http://www.w3.org/2000/svg"><path d="m512 256c0 141.386719-114.613281 256-256 256s-256-114.613281-256-256 114.613281-256 256-256 256 114.613281 256 256zm0 0" fill="#ffe152"/><path d="m306.890625 449.578125v29.246094c-26.855469 15.234375-56.75 25.757812-88.535156 30.425781-42.714844-6.300781-82.003907-23.144531-115.117188-47.804688-16.207031-12.066406-30.9375-26.015624-43.875-41.523437 11.683594-35.652344 43.875-62.023437 82.640625-65.160156 2.570313-.207031 5.164063-.3125 7.785156-.3125h61.953126c7.324218 0 14.449218.816406 21.292968 2.382812 42.296875 9.675781 73.855469 47.53125 73.855469 92.746094zm0 0" fill="#dd3033"/><path d="m306.890625 449.578125v57.363281c-16.449219 3.3125-33.457031 5.058594-50.886719 5.058594-57.261718 0-110.121094-18.796875-152.765625-50.554688v-11.867187c0-52.539063 42.601563-95.128906 95.148438-95.128906h13.355469c52.558593 0 95.148437 42.589843 95.148437 95.128906zm0 0" fill="#f74f4f"/><path d="m87.65625 249.53125c0 15.714844-11.480469 28.742188-26.511719 31.160156-1.640625.269532-3.332031.40625-5.054687.40625-17.4375 0-31.566406-14.128906-31.566406-31.566406 0-17.433594 14.128906-31.5625 31.566406-31.5625 1.722656 0 3.414062.136719 5.054687.40625 15.03125 2.417969 26.511719 15.445312 26.511719 31.15625zm0 0" fill="#d3a489"/><path d="m206.304688 388.773438-25.539063 40.960937-25.535156-40.960937" fill="#f2f0ec"/><path d="m203.226562 506.542969c-14.378906-3.007813-28.316406-7.230469-41.691406-12.546875l19.234375-74.917969zm0 0" fill="#f2f0ec"/><path d="m87.65625 249.53125c0 15.714844-11.480469 28.742188-26.511719 31.160156-2.726562-9.925781-4.1875-20.375-4.1875-31.160156 0-10.78125 1.457031-21.230469 4.1875-31.15625 15.03125 2.417969 26.511719 15.445312 26.511719 31.15625zm0 0" fill="#bf8e75"/><path d="m67.371094 249.53125c0 6.234375-5.050782 11.285156-11.28125 11.285156-6.230469 0-11.28125-5.050781-11.28125-11.285156 0-6.230469 5.050781-11.28125 11.28125-11.28125 6.230468 0 11.28125 5.050781 11.28125 11.28125zm0 0" fill="#bf8e75"/><path d="m180.761719 393.394531-42.832031 23.800781-13.027344-60.601562 26.609375-15.675781" fill="#dd3033"/><path d="m180.761719 393.394531 42.828125 23.800781 13.027344-60.601562-26.613282-15.675781" fill="#dd3033"/><path d="m273.871094 249.53125c0 15.714844 11.480468 28.742188 26.511718 31.160156 1.640626.269532 3.332032.40625 5.054688.40625 17.4375 0 31.566406-14.128906 31.566406-31.566406 0-17.433594-14.128906-31.5625-31.566406-31.5625-1.722656 0-3.414062.136719-5.054688.40625-15.03125 2.417969-26.511718 15.445312-26.511718 31.15625zm0 0" fill="#d3a489"/><g fill="#bf8e75"><path d="m273.871094 249.53125c0 15.714844 11.480468 28.742188 26.511718 31.160156 2.726563-9.925781 4.1875-20.375 4.1875-31.160156 0-10.78125-1.457031-21.230469-4.1875-31.15625-15.03125 2.417969-26.511718 15.445312-26.511718 31.15625zm0 0"/><path d="m316.71875 249.53125c0 6.234375-5.050781 11.285156-11.28125 11.285156s-11.28125-5.050781-11.28125-11.285156c0-6.230469 5.050781-11.28125 11.28125-11.28125s11.28125 5.050781 11.28125 11.28125zm0 0"/><path d="m298.207031 232.753906c0 58.445313-42.695312 106.925782-98.59375 115.929688-6.132812 1.003906-12.425781 1.515625-18.847656 1.515625-64.867187 0-117.445313-52.578125-117.445313-117.445313 0-30.6875 22.421876-76.761718 41.695313-97.683594 21.460937-23.296874 41.574219-19.757812 75.75-19.757812 6.421875 0 12.714844.507812 18.847656 1.515625 55.898438 9 98.59375 57.484375 98.59375 115.925781zm0 0"/><path d="m214.707031 317.800781v41.65625c0 15.25-10.054687 28.136719-23.902343 32.417969-3.171876.984375-6.550782 1.519531-10.042969 1.519531-18.746094 0-33.9375-15.195312-33.9375-33.9375v-41.65625zm0 0"/></g><path d="m214.707031 356.816406v2.640625c0 15.25-10.054687 28.136719-23.902343 32.417969-12.496094-3.839844-21.894532-14.707031-23.628907-28 2.269531.140625 4.546875.207031 6.839844.207031 6.421875 0 12.714844-.507812 18.847656-1.515625 7.554688-1.214844 14.855469-3.15625 21.84375-5.75zm0 0" fill="#d3a489"/><path d="m298.207031 232.753906c0 58.445313-42.695312 106.925782-98.59375 115.929688-55.898437-9.003906-98.59375-57.484375-98.59375-115.929688 0-35.984375 16.1875-68.195312 41.691407-89.742187 15.894531-13.445313 35.425781-22.726563 56.902343-26.183594 52.113281 8.386719 92.765625 51.105469 98.015625 104.21875.382813 3.851563.578125 7.761719.578125 11.707031zm0 0" fill="#d3a489"/><path d="m180.765625 295.824219c-9.835937 0-19.667969-2.464844-28.632813-7.394531-2.527343-1.386719-3.449218-4.5625-2.0625-7.09375 1.390626-2.527344 4.566407-3.449219 7.097657-2.0625 14.773437 8.125 32.417969 8.125 47.195312 0 2.527344-1.386719 5.703125-.464844 7.09375 2.0625 1.390625 2.53125.46875 5.707031-2.058593 7.09375-8.964844 4.929687-18.796876 7.394531-28.632813 7.394531zm0 0" fill="#bf8e75"/><path d="m155.753906 225.921875c0 7.355469-5.964844 13.320313-13.324218 13.320313-7.355469 0-13.320313-5.964844-13.320313-13.320313 0-7.359375 5.964844-13.324219 13.320313-13.324219 7.359374 0 13.324218 5.964844 13.324218 13.324219zm0 0" fill="#3d4159"/><path d="m232.421875 225.921875c0 7.355469-5.964844 13.320313-13.324219 13.320313-7.355468 0-13.320312-5.964844-13.320312-13.320313 0-7.359375 5.964844-13.324219 13.320312-13.324219 7.359375 0 13.324219 5.964844 13.324219 13.324219zm0 0" fill="#3d4159"/><path d="m153.035156 223.570312c0 3.152344-2.554687 5.707032-5.707031 5.707032s-5.707031-2.554688-5.707031-5.707032c0-3.152343 2.554687-5.710937 5.707031-5.710937s5.707031 2.558594 5.707031 5.710937zm0 0" fill="#fff"/><path d="m230.359375 223.570312c0 3.152344-2.554687 5.707032-5.707031 5.707032s-5.710938-2.554688-5.710938-5.707032c0-3.152343 2.558594-5.710937 5.710938-5.710937s5.707031 2.558594 5.707031 5.710937zm0 0" fill="#fff"/><path d="m194.085938 259.464844h-26.644532c-3.171875 0-5.746094-2.574219-5.746094-5.746094 0-3.175781 2.574219-5.75 5.746094-5.75h26.644532c3.175781 0 5.75 2.574219 5.75 5.75 0 3.171875-2.574219 5.746094-5.75 5.746094zm0 0" fill="#bf8e75"/><path d="m219.433594 446.453125h51.199218v15.671875h-51.199218zm0 0" fill="#dd3033"/><path d="m173.894531 81.761719c35.574219 2.542969 64.140625 31.28125 65.953125 67.460937l.335938 6.789063h20.460937l11.027344 73.300781 26.699219-8.265625-3.585938-71.824219c-1.894531-38.003906-33.324218-67.785156-71.363281-67.648437zm0 0" fill="#2a2f4f"/><path d="m292.519531 53.414062c28.332031 28.332032 28.332031 74.265626 0 102.59375-28.328125 28.332032-74.261719 28.332032-102.59375 0zm0 0" fill="#3d4159"/><path d="m189.929688 156.007812h-89.039063l-11.027344 73.304688-26.695312-8.265625 3.582031-71.828125c1.890625-37.996094 33.324219-67.785156 71.363281-67.644531l128.589844.484375 17 30.601562" fill="#3d4159"/><path d="m187.636719 81.761719c-35.574219 2.542969-64.140625 31.28125-65.953125 67.460937l-.335938 6.789063h-20.460937l-11.027344 73.300781-26.699219-8.265625 3.589844-71.824219c1.890625-38.003906 33.320312-67.785156 71.359375-67.648437zm0 0" fill="#2a2f4f"/><path d="m250.292969 28.039062h231.90625v174.316407h-231.90625zm0 0" fill="#f2f0ec"/><path d="m296.984375 191.464844-24.902344 59.140625 108.949219-62.253907zm0 0" fill="#f2f0ec"/><path d="m356.371094 133.289062c0 5.148438 4.246094 9.027344 9.871094 9.027344 4.75 0 9.875-3.449218 9.875-9.027344 0-10.914062.429687-23.089843.84375-34.863281.417968-11.808593.847656-24.019531.847656-35.011719 0-6.539062-4.863282-11.28125-11.5625-11.28125-6.808594 0-11.5625 4.636719-11.5625 11.28125 0 10.992188.429687 23.203126.84375 35.011719.414062 11.773438.84375 23.949219.84375 34.863281zm0 0" fill="#3d4159"/><path d="m366.386719 153.027344c-7 0-12.691407 5.691406-12.691407 12.691406 0 6.917969 5.691407 12.550781 12.691407 12.550781 6.726562 0 12.410156-5.75 12.410156-12.550781 0-7-5.566406-12.691406-12.410156-12.691406zm0 0" fill="#3d4159"/></svg>