<svg height="512pt" viewBox="0 0 512 512" width="512pt" xmlns="http://www.w3.org/2000/svg"><path d="m512 256c0 141.386719-114.613281 256-256 256s-256-114.613281-256-256 114.613281-256 256-256 256 114.613281 256 256zm0 0" fill="#3fb777"/><path d="m382.121094 378.242188v29.246093c-25.546875 14.503907-53.84375 24.722657-83.902344 29.707031-6.449219 1.066407-12.96875 1.902344-19.5625 2.476563-4.105469.363281-8.242188.625-12.414062.78125-3.394532.148437-6.8125.210937-10.238282.210937-7.648437 0-15.203125-.335937-22.675781-.992187-18.953125-1.664063-37.3125-5.390625-54.855469-10.960937-17.03125-5.402344-33.300781-12.550782-48.589844-21.222657v-29.246093c0-44.011719 29.886719-81.042969 70.480469-91.898438 1.484375-.398438 2.976563-.765625 4.492188-1.085938 4.035156-.878906 8.171875-1.484374 12.382812-1.832031 2.570313-.207031 5.160157-.3125 7.785157-.3125h61.949218c6.929688 0 13.679688.730469 20.179688 2.144531.375.070313.75.15625 1.117187.238282 1.097657.25 2.195313.523437 3.269531.816406.03125.007812.050782.007812.085938.019531 10.707031 2.863281 20.675781 7.554688 29.539062 13.710938 24.75 17.175781 40.957032 45.796875 40.957032 78.199219zm0 0" fill="#3d4159"/><path d="m311.851562 285.257812-.226562 1.074219-32.96875 153.339844c-7.460938.65625-15.023438.992187-22.652344.992187-7.648437 0-15.203125-.335937-22.675781-.992187l-32.964844-153.328125-.230469-1.085938zm0 0" fill="#f2f0ec"/><path d="m162.886719 178.199219c0 15.714843-11.476563 28.742187-26.507813 31.160156-1.640625.265625-3.332031.40625-5.054687.40625-17.4375 0-31.566407-14.128906-31.566407-31.566406s14.128907-31.566407 31.566407-31.566407c1.722656 0 3.414062.140626 5.054687.40625 15.03125 2.417969 26.507813 15.449219 26.507813 31.160157zm0 0" fill="#f6caae"/><path d="m281.539062 317.441406-25.539062 40.960938-25.539062-40.960938" fill="#f74f4f"/><path d="m279.574219 439.578125c-7.761719.722656-15.628907 1.085937-23.570313 1.085937-7.953125 0-15.820312-.363281-23.585937-1.074218l23.585937-91.847656zm0 0" fill="#f74f4f"/><path d="m162.886719 178.199219c0 15.714843-11.476563 28.742187-26.507813 31.160156-2.730468-9.925781-4.1875-20.375-4.1875-31.160156 0-10.785157 1.457032-21.230469 4.1875-31.160157 15.03125 2.417969 26.507813 15.449219 26.507813 31.160157zm0 0" fill="#eab599"/><path d="m142.605469 178.199219c0 6.230469-5.050781 11.28125-11.28125 11.28125s-11.285157-5.050781-11.285157-11.28125 5.054688-11.28125 11.285157-11.28125 11.28125 5.050781 11.28125 11.28125zm0 0" fill="#eab599"/><path d="m255.992188 322.058594-42.828126 23.804687-13.03125-60.605469 26.613282-15.671874" fill="#d8d5d0"/><path d="m255.992188 322.058594 42.828124 23.804687 13.03125-60.605469-26.613281-15.671874" fill="#d8d5d0"/><path d="m349.105469 178.199219c0 15.714843 11.476562 28.742187 26.507812 31.160156 1.644531.265625 3.332031.40625 5.054688.40625 17.4375 0 31.566406-14.128906 31.566406-31.566406s-14.128906-31.566407-31.566406-31.566407c-1.722657 0-3.410157.140626-5.054688.40625-15.03125 2.417969-26.507812 15.449219-26.507812 31.160157zm0 0" fill="#f6caae"/><g fill="#eab599"><path d="m349.105469 178.199219c0 15.714843 11.476562 28.742187 26.507812 31.160156 2.730469-9.925781 4.1875-20.375 4.1875-31.160156 0-10.785157-1.457031-21.230469-4.1875-31.160157-15.03125 2.417969-26.507812 15.449219-26.507812 31.160157zm0 0"/><path d="m391.953125 178.199219c0 6.230469-5.050781 11.28125-11.285156 11.28125-6.230469 0-11.28125-5.050781-11.28125-11.28125s5.050781-11.28125 11.28125-11.28125c6.234375 0 11.285156 5.050781 11.285156 11.28125zm0 0"/><path d="m373.441406 161.421875c0 58.445313-42.695312 106.925781-98.59375 115.925781-6.132812 1.007813-12.429687 1.519532-18.851562 1.519532-64.863282 0-117.441406-52.578126-117.441406-117.445313 0-30.691406-2.632813-76.761719 16.640624-97.683594 21.460938-23.296875 66.625-19.761719 100.800782-19.761719 6.421875 0 12.71875.511719 18.851562 1.515626 55.898438 9.003906 98.59375 57.484374 98.59375 115.929687zm0 0"/><path d="m289.941406 246.46875v41.652344c0 15.25-10.054687 28.140625-23.90625 32.421875-3.171875.984375-6.550781 1.515625-10.042968 1.515625-18.746094 0-33.9375-15.191406-33.9375-33.9375v-41.652344zm0 0"/></g><path d="m289.941406 285.484375v2.636719c0 15.25-10.054687 28.140625-23.90625 32.421875-12.496094-3.839844-21.890625-14.707031-23.628906-28 2.269531.136719 4.550781.207031 6.839844.207031 6.421875 0 12.714844-.507812 18.847656-1.515625 7.558594-1.214844 14.859375-3.15625 21.847656-5.75zm0 0" fill="#f6caae"/><path d="m373.441406 161.421875c0 58.445313-42.695312 106.925781-98.59375 115.925781-55.898437-9-98.59375-57.480468-98.59375-115.925781 0-35.984375 16.1875-68.199219 41.6875-89.742187 15.898438-13.445313 35.429688-22.726563 56.90625-26.1875 52.113282 8.390624 92.761719 51.109374 98.015625 104.21875.382813 3.855468.578125 7.765624.578125 11.710937zm0 0" fill="#f6caae"/><path d="m255.996094 224.488281c-9.832032 0-19.667969-2.460937-28.628906-7.390625-2.53125-1.390625-3.453126-4.566406-2.0625-7.09375 1.390624-2.527344 4.566406-3.449218 7.09375-2.0625 14.777343 8.125 32.421874 8.125 47.199218 0 2.523438-1.390625 5.703125-.46875 7.09375 2.0625 1.390625 2.527344.464844 5.703125-2.0625 7.09375-8.960937 4.929688-18.796875 7.390625-28.632812 7.390625zm0 0" fill="#eab599"/><path d="m230.984375 154.585938c0 7.359374-5.960937 13.324218-13.320313 13.324218-7.359374 0-13.324218-5.964844-13.324218-13.324218 0-7.355469 5.964844-13.320313 13.324218-13.320313 7.359376 0 13.320313 5.964844 13.320313 13.320313zm0 0" fill="#3d4159"/><path d="m307.65625 154.585938c0 7.359374-5.964844 13.324218-13.324219 13.324218s-13.324219-5.964844-13.324219-13.324218c0-7.355469 5.964844-13.320313 13.324219-13.320313s13.324219 5.964844 13.324219 13.320313zm0 0" fill="#3d4159"/><path d="m228.269531 152.238281c0 3.152344-2.554687 5.707031-5.707031 5.707031s-5.710938-2.554687-5.710938-5.707031c0-3.15625 2.558594-5.710937 5.710938-5.710937s5.707031 2.554687 5.707031 5.710937zm0 0" fill="#fff"/><path d="m305.59375 152.238281c0 3.152344-2.558594 5.707031-5.710938 5.707031-3.152343 0-5.707031-2.554687-5.707031-5.707031 0-3.15625 2.554688-5.710937 5.707031-5.710937 3.152344 0 5.710938 2.554687 5.710938 5.710937zm0 0" fill="#fff"/><path d="m269.320312 188.128906h-26.644531c-3.175781 0-5.746093-2.570312-5.746093-5.746094 0-3.171874 2.570312-5.746093 5.746093-5.746093h26.644531c3.175782 0 5.746094 2.574219 5.746094 5.746093 0 3.175782-2.570312 5.746094-5.746094 5.746094zm0 0" fill="#eab599"/><path d="m373.4375 94.554688v45.8125h-21.859375v-35.875l-157.777344-29.320313-33.386719-6.207031v71.402344h-21.859374v-45.8125c0-52.226563 42.332031-94.554688 94.542968-94.554688h45.800782c1.242187 0 2.484374.0234375 3.730468.0859375 50.476563 1.9414065 90.808594 43.4882815 90.808594 94.4687505zm0 0" fill="#2a2f4f"/><path d="m373.4375 94.554688v45.8125h-21.859375v-35.875l-157.777344-29.320313c8.691407-41.753906 44.917969-73.394531 88.828125-75.0859375 50.476563 1.9414065 90.808594 43.4882815 90.808594 94.4687505zm0 0" fill="#3d4159"/><path d="m341.164062 300.042969-27.691406 66.996093h13.582032l-28.835938 70.15625c-6.449219 1.066407-12.96875 1.902344-19.5625 2.476563-4.105469.363281-8.242188.625-12.414062.78125l45.296874-154.140625.3125-1.054688zm0 0" fill="#2a2f4f"/><path d="m170.507812 300.042969 27.691407 66.996093h-13.582031l28.835937 70.15625c6.449219 1.066407 12.96875 1.902344 19.5625 2.476563 4.105469.363281 8.242187.625 12.414063.78125l-45.296876-154.140625-.3125-1.054688zm0 0" fill="#2a2f4f"/><path d="m310.792969 363.90625h11.039062v52.246094h-11.039062zm0 0" fill="#d8d5d0"/><path d="m250.480469 363.90625h11.039062v52.246094h-11.039062zm0 0" fill="#d8d5d0"/><path d="m190.175781 363.90625h11.035157v52.246094h-11.035157zm0 0" fill="#d8d5d0"/><path d="m332.738281 346.140625v17.765625c0 7.21875-4.566406 13.363281-10.972656 15.703125-1.785156.660156-3.730469 1.015625-5.746094 1.015625-9.238281 0-16.71875-7.484375-16.71875-16.71875v-17.765625c0-9.234375 7.480469-16.714844 16.71875-16.714844 2.015625 0 3.960938.351563 5.746094 1.011719 2.308594.847656 4.378906 2.171875 6.082031 3.875 3.019532 3.03125 4.890625 7.210938 4.890625 11.828125zm0 0" fill="#e8c934"/><path d="m332.738281 346.140625v17.765625c0 7.21875-4.566406 13.363281-10.972656 15.703125-6.40625-2.339844-10.972656-8.484375-10.972656-15.703125v-17.765625c0-7.21875 4.566406-13.363281 10.972656-15.703125 2.308594.847656 4.378906 2.171875 6.082031 3.875 3.019532 3.03125 4.890625 7.210938 4.890625 11.828125zm0 0" fill="#ffe152"/><path d="m272.722656 346.140625v17.765625c0 7.21875-4.566406 13.363281-10.972656 15.703125-1.785156.660156-3.730469 1.015625-5.746094 1.015625-9.238281 0-16.71875-7.484375-16.71875-16.71875v-17.765625c0-9.234375 7.480469-16.714844 16.71875-16.714844 2.015625 0 3.960938.351563 5.746094 1.011719 2.308594.847656 4.378906 2.171875 6.082031 3.875 3.019531 3.03125 4.890625 7.210938 4.890625 11.828125zm0 0" fill="#e8c934"/><path d="m272.722656 346.140625v17.765625c0 7.21875-4.566406 13.363281-10.972656 15.703125-6.40625-2.339844-10.972656-8.484375-10.972656-15.703125v-17.765625c0-7.21875 4.566406-13.363281 10.972656-15.703125 2.308594.847656 4.378906 2.171875 6.082031 3.875 3.019531 3.03125 4.890625 7.210938 4.890625 11.828125zm0 0" fill="#ffe152"/><path d="m212.574219 346.140625v17.765625c0 7.21875-4.566407 13.363281-10.972657 15.703125-1.785156.660156-3.730468 1.015625-5.746093 1.015625-9.238281 0-16.71875-7.484375-16.71875-16.71875v-17.765625c0-9.234375 7.480469-16.714844 16.71875-16.714844 2.015625 0 3.960937.351563 5.746093 1.011719 2.308594.847656 4.378907 2.171875 6.082032 3.875 3.019531 3.03125 4.890625 7.210938 4.890625 11.828125zm0 0" fill="#e8c934"/><path d="m212.574219 346.140625v17.765625c0 7.21875-4.566407 13.363281-10.972657 15.703125-6.402343-2.339844-10.96875-8.484375-10.96875-15.703125v-17.765625c0-7.21875 4.566407-13.363281 10.96875-15.703125 2.308594.847656 4.378907 2.171875 6.082032 3.875 3.019531 3.03125 4.890625 7.210938 4.890625 11.828125zm0 0" fill="#ffe152"/><path d="m394.734375 426.902344v44.28125c-39.96875 25.832031-87.59375 40.816406-138.730469 40.816406-35.160156 0-68.660156-7.085938-99.160156-19.925781-13.910156-5.84375-27.179688-12.886719-39.707031-20.984375v-44.1875zm0 0" fill="#a35418"/><path d="m394.734375 461.386719v9.796875c-39.96875 25.832031-87.59375 40.816406-138.730469 40.816406-35.160156 0-68.660156-7.085938-99.160156-19.925781v-30.6875zm0 0" fill="#cc7a3b"/><path d="m91.425781 405.703125h329.023438v35.523437h-329.023438zm0 0" fill="#cc7a3b"/><path d="m181.492188 222.792969h45.984374c15.753907 0 28.523438-12.773438 28.523438-28.527344v-5.570313h-45.984375c-15.753906 0-28.523437 12.769532-28.523437 28.523438zm0 0" fill="#3d4159"/><path d="m330.507812 222.792969h-45.980468c-15.753906 0-28.527344-12.773438-28.527344-28.527344v-5.570313h45.984375c15.753906 0 28.523437 12.769532 28.523437 28.523438zm0 0" fill="#3d4159"/></svg>