<svg height="512pt" viewBox="0 0 512 512" width="512pt" xmlns="http://www.w3.org/2000/svg"><path d="m512 256c0 74.636719-31.941406 141.8125-82.902344 188.59375-3.78125 3.488281-7.667968 6.855469-11.660156 10.082031-4.628906 3.773438-9.394531 7.378907-14.285156 10.816407-5.695313 4.011718-11.546875 7.785156-17.5625 11.324218-3.941406 2.320313-7.953125 4.535156-12.027344 6.648438-4.140625 2.140625-8.328125 4.179687-12.59375 6.089844-4.367188 1.964843-8.796875 3.816406-13.289062 5.539062-.28125.105469-.566407.21875-.847657.324219-4.148437 1.578125-8.335937 3.039062-12.570312 4.386719-4.742188 1.527343-9.550781 2.917968-14.417969 4.160156-6.875 1.777344-13.875 3.261718-20.960938 4.449218-3.554687.609376-7.136718 1.140626-10.730468 1.578126-3.910156.492187-7.835938.898437-11.796875 1.203124-3.28125.261719-6.582031.460938-9.90625.597657-3.34375.132812-6.707031.207031-10.082031.207031h-.367188c-3.5 0-6.980469-.074219-10.449219-.207031-3.3125-.136719-6.613281-.335938-9.90625-.585938h-.007812c-3.699219-.292969-7.359375-.660156-11.003907-1.121093-3.867187-.46875-7.710937-1.023438-11.515624-1.671876-7.09375-1.179687-14.09375-2.671874-20.972657-4.4375-4.542969-1.171874-9.035156-2.457031-13.476562-3.867187-4.554688-1.441406-9.050781-3.007813-13.492188-4.691406-.28125-.105469-.574219-.21875-.855469-.335938-4.492187-1.722656-8.921874-3.574219-13.289062-5.535156-4.265625-1.914063-8.453125-3.941406-12.59375-6.082031-4.074219-2.113282-8.085938-4.328125-12.027344-6.648438-6.027344-3.53125-11.890625-7.3125-17.574218-11.324218-4.890626-3.449219-9.644532-7.054688-14.273438-10.816407-3.992188-3.226562-7.878906-6.59375-11.660156-10.082031-50.960938-46.78125-82.902344-113.957031-82.902344-188.59375 0-141.386719 114.613281-256 256-256s256 114.613281 256 256zm0 0" fill="#713775"/><path d="m205.929688 332.214844v174.882812c-12.96875-2.570312-25.570313-6.109375-37.742188-10.5625-7.054688-2.570312-13.960938-5.445312-20.710938-8.609375-2.296874-1.078125-4.585937-2.195312-6.855468-3.355469-5.828125-2.945312-11.523438-6.113281-17.082032-9.488281-27.847656-16.863281-52.214843-38.890625-71.796874-64.75-11.753907-15.527343-21.773438-32.433593-29.777344-50.449219v-27.667968c0-32.097656 21.796875-59.109375 51.398437-67.019532 1.085938-.292968 2.171875-.566406 3.28125-.792968 2.933594-.648438 5.953125-1.089844 9.027344-1.339844 1.871094-.144531 3.761719-.230469 5.671875-.230469h45.191406c5.046875 0 9.96875.535157 14.714844 1.570313.269531.050781.542969.113281.8125.175781.796875.179687 1.601562.375 2.382812.585937.023438.011719.042969.011719.0625.019532 7.816407 2.089844 15.078126 5.507812 21.546876 10 18.054687 12.527344 29.875 33.394531 29.875 57.03125zm0 0" fill="#2ba1cf"/><path d="m205.929688 332.214844v174.882812c-12.96875-2.570312-25.570313-6.109375-37.742188-10.5625-7.054688-2.570312-13.960938-5.445312-20.710938-8.609375-2.296874-1.078125-4.585937-2.195312-6.855468-3.355469-5.828125-2.945312-11.523438-6.113281-17.082032-9.488281-27.847656-16.863281-52.214843-38.890625-71.796874-64.75v-78.117187c0-32.097656 21.796874-59.109375 51.398437-67.019532 1.089844-.292968 2.175781-.566406 3.28125-.792968 2.9375-.648438 5.957031-1.089844 9.027344-1.339844 1.871093-.144531 3.761719-.230469 5.675781-.230469h15.410156c5.046875 0 9.96875.535157 14.714844 1.570313.269531.050781.542969.113281.8125.175781.796875.179687 1.601562.375 2.382812.585937.023438.011719.042969.011719.0625.019532 7.816407 2.089844 15.078126 5.507812 21.546876 10 18.054687 12.527344 29.875 33.394531 29.875 57.03125zm0 0" fill="#66baed"/><path d="m154.679688 264.398438-.164063.785156-20.757813 96.542968c-1.992187 9.277344-10.15625 16.003907-19.640624 16.011719-.058594 0-.113282 0-.167969 0-.0625 0-.121094 0-.183594 0-9.488281-.007812-17.648437-6.734375-19.640625-16.011719l-20.757812-96.535156-.164063-.792968zm0 0" fill="#f2f0ec"/><path d="m113.941406 291.238281-31.238281 17.359375-9.5-44.199218 19.410156-11.429688" fill="#d8d5d0"/><path d="m113.941406 291.238281 31.238282 17.359375 9.5-44.199218-19.410157-11.429688" fill="#d8d5d0"/><path d="m20.675781 246.109375v-104.640625c0-10.632812 1.773438-21.050781 5.273438-30.964844 13.097656-37.265625 48.460937-62.3125 87.996093-62.3125 4.898438 0 9.785157.378906 14.535157 1.128906 21.71875 3.394532 41.648437 14.480469 56.097656 31.21875 14.601563 16.917969 22.644531 38.554688 22.644531 60.929688v104.640625" fill="#ffe152"/><path d="m59.042969 145.554688c0 37.011718 21.675781 79.832031 33.578125 100.554687h-71.949219v-104.640625c0-10.628906 1.777344-21.046875 5.273437-30.964844 13.019532-37.050781 48.058594-62.023437 87.320313-62.304687-28.675781.714843-54.222656 46.722656-54.222656 97.355469zm0 0" fill="#e8c934"/><path d="m138.703125 236.105469v30.382812c0 11.121094-7.332031 20.523438-17.433594 23.644531-2.3125.71875-4.777343 1.105469-7.324219 1.105469-13.671874 0-24.75-11.078125-24.75-24.75v-30.382812zm0 0" fill="#eab599"/><path d="m138.703125 264.5625v1.925781c0 11.121094-7.332031 20.523438-17.433594 23.644531-9.113281-2.800781-15.964843-10.726562-17.230469-20.421874 1.652344.101562 3.316407.152343 4.984376.152343 4.683593 0 9.277343-.371093 13.746093-1.105469 5.511719-.886718 10.839844-2.304687 15.933594-4.195312zm0 0" fill="#f6caae"/><path d="m46.042969 186.316406c0 11.460938-8.371094 20.964844-19.335938 22.726563-1.195312.195312-2.429687.296875-3.6875.296875-12.714843 0-23.019531-10.304688-23.019531-23.023438 0-12.714844 10.304688-23.019531 23.019531-23.019531 1.257813 0 2.492188.101563 3.6875.296875 10.964844 1.761719 19.335938 11.261719 19.335938 22.722656zm0 0" fill="#f6caae"/><path d="m46.042969 186.316406c0 11.460938-8.371094 20.964844-19.335938 22.726563-1.988281-7.238281-3.054687-14.859375-3.054687-22.726563 0-7.863281 1.066406-15.484375 3.054687-22.722656 10.964844 1.761719 19.335938 11.261719 19.335938 22.722656zm0 0" fill="#eab599"/><path d="m31.25 186.316406c0 4.546875-3.683594 8.230469-8.230469 8.230469-4.542969 0-8.226562-3.683594-8.226562-8.230469 0-4.542968 3.683593-8.226562 8.226562-8.226562 4.546875 0 8.230469 3.683594 8.230469 8.226562zm0 0" fill="#eab599"/><path d="m173.058594 156.921875v79.132813c-12.230469 11.675781-27.914063 19.761718-45.363282 22.574218-.136718.023438-.285156.046875-.421874.070313-4.335938.691406-8.785157 1.035156-13.328126 1.035156-47.300781 0-85.648437-38.347656-85.648437-85.648437v-32.617188c0-4.175781.296875-8.285156.875-12.300781 20.378906 14.65625 49.597656 13.207031 68.214844-4.386719 6.164062-5.824219 10.449219-12.757812 12.871093-20.113281 1.347657 12.878906 7.238282 25.414062 17.679688 35.285156 12.429688 11.734375 28.851562 17.394531 45.121094 16.96875zm0 0" fill="#eab599"/><path d="m173.058594 156.921875v79.132813c-12.230469 11.675781-27.914063 19.761718-45.363282 22.574218-.136718.023438-.285156.046875-.421874.070313-40.96875-6.402344-72.304688-41.855469-72.304688-84.613281v-32.617188c0-.867188.015625-1.730469.046875-2.589844 15.101563 1.546875 30.789063-3.148437 42.371094-14.101562 6.164062-5.820313 10.449219-12.757813 12.871093-20.109375 1.347657 12.878906 7.238282 25.414062 17.679688 35.285156 12.429688 11.734375 28.851562 17.394531 45.121094 16.96875zm0 0" fill="#f6caae"/><path d="m159.949219 166.851562c0-7.859374-6.371094-14.226562-14.226563-14.226562-7.855468 0-14.226562 6.367188-14.226562 14.226562" fill="#eab599"/><path d="m96.410156 166.851562c0-7.859374-6.371094-14.226562-14.226562-14.226562-7.855469 0-14.222656 6.367188-14.222656 14.226562" fill="#eab599"/><path d="m91.902344 172.90625c0 5.367188-4.351563 9.71875-9.71875 9.71875-5.367188 0-9.714844-4.351562-9.714844-9.71875s4.347656-9.714844 9.714844-9.714844c5.367187 0 9.71875 4.347656 9.71875 9.714844zm0 0" fill="#3d4159"/><path d="m155.4375 172.90625c0 5.367188-4.347656 9.71875-9.714844 9.71875-5.367187 0-9.714844-4.351562-9.714844-9.71875s4.347657-9.714844 9.714844-9.714844c5.367188 0 9.714844 4.347656 9.714844 9.714844zm0 0" fill="#3d4159"/><path d="m123.671875 197.371094h-19.433594c-2.316406 0-4.191406-1.878906-4.191406-4.191406s1.875-4.191407 4.191406-4.191407h19.433594c2.3125 0 4.1875 1.878907 4.1875 4.191407s-1.875 4.191406-4.1875 4.191406zm0 0" fill="#eab599"/><path d="m113.953125 223.890625c-7.171875 0-14.34375-1.796875-20.882813-5.394531-1.84375-1.011719-2.515624-3.328125-1.503906-5.171875 1.015625-1.84375 3.332032-2.515625 5.175782-1.503907 10.777343 5.925782 23.644531 5.925782 34.421874 0 1.84375-1.015624 4.160157-.339843 5.175782 1.503907 1.011718 1.84375.339844 4.160156-1.503906 5.171875-6.539063 3.597656-13.710938 5.394531-20.882813 5.394531zm0 0" fill="#eab599"/><path d="m89.921875 171.191406c0 2.300782-1.867187 4.164063-4.164063 4.164063-2.300781 0-4.164062-1.863281-4.164062-4.164063 0-2.300781 1.863281-4.164062 4.164062-4.164062 2.296876 0 4.164063 1.863281 4.164063 4.164062zm0 0" fill="#fff"/><path d="m153.933594 171.191406c0 2.300782-1.863282 4.164063-4.160156 4.164063-2.300782 0-4.164063-1.863281-4.164063-4.164063 0-2.300781 1.863281-4.164062 4.164063-4.164062 2.296874 0 4.160156 1.863281 4.160156 4.164062zm0 0" fill="#fff"/><path d="m172.25 196.574219c0 5.890625-4.777344 10.667969-10.671875 10.667969-5.890625 0-10.667969-4.777344-10.667969-10.667969 0-5.894531 4.777344-10.671875 10.667969-10.671875 5.894531 0 10.671875 4.777344 10.671875 10.671875zm0 0" fill="#eab599"/><path d="m76.988281 196.574219c0 5.890625-4.773437 10.667969-10.667969 10.667969-5.890624 0-10.667968-4.777344-10.667968-10.667969 0-5.894531 4.777344-10.671875 10.667968-10.671875 5.894532 0 10.667969 4.777344 10.667969 10.671875zm0 0" fill="#eab599"/><path d="m489.023438 330.105469v32.046875c-25.222657 55.285156-69.539063 100.015625-124.511719 125.785156-9.957031 4.660156-20.269531 8.703125-30.886719 12.066406-11.941406 3.816406-24.261719 6.75-36.90625 8.765625-.050781.011719-.113281.023438-.167969.023438v-178.6875c0-38.085938 29.332031-69.332031 66.65625-72.339844 1.964844-.167969 3.9375-.238281 5.933594-.238281h47.273437c5.589844 0 11.03125.613281 16.257813 1.816406 32.265625 7.375 56.351563 36.269531 56.351563 70.761719zm0 0" fill="#bfd5de"/><path d="m489.023438 330.105469v32.046875c-25.222657 55.285156-69.539063 100.015625-124.511719 125.785156-9.957031 4.660156-20.269531 8.703125-30.886719 12.066406v-169.898437c0-40.082031 32.507812-72.578125 72.601562-72.578125h10.195313c40.105469 0 72.601563 32.496094 72.601563 72.578125zm0 0" fill="#dde8ed"/><path d="m321.734375 177.464844c0 11.992187-8.757813 21.933594-20.226563 23.777344-1.253906.203124-2.542968.308593-3.859374.308593-13.304688 0-24.085938-10.78125-24.085938-24.085937 0-13.304688 10.78125-24.085938 24.085938-24.085938 1.316406 0 2.605468.105469 3.859374.308594 11.46875 1.847656 20.226563 11.789062 20.226563 23.777344zm0 0" fill="#d3a489"/><path d="m412.273438 283.710938-19.488282 31.257812-19.488281-31.257812" fill="#f74f4f"/><path d="m419.003906 403.265625-26.21875 33.085937-26.222656-33.085937 26.226562-96.429687zm0 0" fill="#f74f4f"/><path d="m321.734375 177.464844c0 11.992187-8.757813 21.933594-20.226563 23.777344-2.082031-7.574219-3.195312-15.546876-3.195312-23.777344 0-8.226563 1.113281-16.199219 3.195312-23.777344 11.46875 1.847656 20.226563 11.789062 20.226563 23.777344zm0 0" fill="#bf8e75"/><path d="m306.257812 177.464844c0 4.753906-3.855468 8.609375-8.609374 8.609375-4.753907 0-8.605469-3.855469-8.605469-8.609375s3.851562-8.605469 8.605469-8.605469c4.753906 0 8.609374 3.851563 8.609374 8.605469zm0 0" fill="#bf8e75"/><path d="m392.777344 287.238281-32.679688 18.164063-9.941406-46.246094 20.304688-11.960938" fill="#bfd5de"/><path d="m392.777344 287.238281 32.683594 18.164063 9.941406-46.246094-20.308594-11.960938" fill="#bfd5de"/><path d="m463.828125 177.464844c0 11.992187 8.757813 21.933594 20.226563 23.777344 1.253906.203124 2.542968.308593 3.859374.308593 13.304688 0 24.085938-10.78125 24.085938-24.085937 0-13.304688-10.78125-24.085938-24.085938-24.085938-1.316406 0-2.605468.105469-3.859374.308594-11.46875 1.847656-20.226563 11.789062-20.226563 23.777344zm0 0" fill="#d3a489"/><g fill="#bf8e75"><path d="m463.828125 177.464844c0 11.992187 8.757813 21.933594 20.226563 23.777344 2.085937-7.574219 3.195312-15.546876 3.195312-23.777344 0-8.226563-1.109375-16.199219-3.195312-23.777344-11.46875 1.847656-20.226563 11.789062-20.226563 23.777344zm0 0"/><path d="m496.523438 177.464844c0 4.753906-3.855469 8.609375-8.609376 8.609375-4.753906 0-8.609374-3.855469-8.609374-8.609375s3.855468-8.605469 8.609374-8.605469c4.753907 0 8.609376 3.851563 8.609376 8.605469zm0 0"/><path d="m482.398438 164.664062c0 44.59375-32.578126 81.589844-75.234376 88.457032-4.675781.769531-9.480468 1.15625-14.382812 1.15625-49.496094 0-89.613281-40.117188-89.613281-89.613282 0-23.417968 8.132812-58.574218 22.839843-74.539062 16.375-17.777344 40.695313-15.078125 66.773438-15.078125 4.902344 0 9.703125.390625 14.382812 1.160156 42.65625 6.867188 75.234376 43.859375 75.234376 88.457031zm0 0"/><path d="m418.683594 229.558594v31.785156c0 11.636719-7.671875 21.472656-18.242188 24.738281-2.417968.75-4.996094 1.15625-7.664062 1.15625-14.300782 0-25.894532-11.59375-25.894532-25.894531v-31.785156zm0 0"/></g><path d="m418.683594 259.328125v2.015625c0 11.636719-7.671875 21.472656-18.242188 24.738281-9.535156-2.929687-16.703125-11.222656-18.027344-21.367187 1.730469.105468 3.46875.160156 5.21875.160156 4.898438 0 9.703126-.390625 14.382813-1.15625 5.765625-.929688 11.335937-2.410156 16.667969-4.390625zm0 0" fill="#d3a489"/><path d="m482.398438 164.664062c0 44.59375-32.578126 81.589844-75.234376 88.457032-42.652343-6.867188-75.230468-43.863282-75.230468-88.457032 0-27.460937 12.351562-52.039062 31.808594-68.480468 12.132812-10.257813 27.035156-17.339844 43.421874-19.980469 39.765626 6.402344 70.785157 39 74.792969 79.523437.292969 2.941407.441407 5.925782.441407 8.9375zm0 0" fill="#d3a489"/><path d="m392.785156 208.800781c-7.507812 0-15.007812-1.878906-21.847656-5.640625-1.933594-1.058594-2.636719-3.484375-1.574219-5.414062 1.058594-1.929688 3.484375-2.632813 5.414063-1.570313 11.273437 6.195313 24.738281 6.195313 36.015625 0 1.925781-1.0625 4.351562-.359375 5.410156 1.570313 1.0625 1.929687.359375 4.355468-1.570313 5.414062-6.839843 3.761719-14.347656 5.640625-21.847656 5.640625zm0 0" fill="#bf8e75"/><path d="m373.699219 159.449219c0 5.613281-4.550781 10.164062-10.167969 10.164062-5.613281 0-10.164062-4.550781-10.164062-10.164062 0-5.617188 4.550781-10.167969 10.164062-10.167969 5.617188 0 10.167969 4.550781 10.167969 10.167969zm0 0" fill="#3d4159"/><path d="m432.199219 159.449219c0 5.613281-4.550781 10.164062-10.164063 10.164062-5.617187 0-10.167968-4.550781-10.167968-10.164062 0-5.617188 4.550781-10.167969 10.167968-10.167969 5.613282 0 10.164063 4.550781 10.164063 10.167969zm0 0" fill="#3d4159"/><path d="m371.625 157.652344c0 2.40625-1.949219 4.359375-4.355469 4.359375s-4.355469-1.953125-4.355469-4.359375c0-2.402344 1.949219-4.355469 4.355469-4.355469s4.355469 1.953125 4.355469 4.355469zm0 0" fill="#fff"/><path d="m430.625 157.652344c0 2.40625-1.949219 4.359375-4.355469 4.359375s-4.355469-1.953125-4.355469-4.359375c0-2.402344 1.949219-4.355469 4.355469-4.355469s4.355469 1.953125 4.355469 4.355469zm0 0" fill="#fff"/><path d="m402.949219 185.042969h-20.332031c-2.421876 0-4.386719-1.964844-4.386719-4.386719s1.964843-4.382812 4.386719-4.382812h20.332031c2.421875 0 4.386719 1.960937 4.386719 4.382812-.003907 2.421875-1.964844 4.386719-4.386719 4.386719zm0 0" fill="#bf8e75"/><path d="m422.289062 327.726562h39.066407v11.957032h-39.066407zm0 0" fill="#bfd5de"/><path d="m387.539062 49.449219c27.148438 1.9375 48.945313 23.867187 50.324219 51.472656l.257813 5.183594h15.617187l8.410157 55.929687 20.371093-6.304687-2.734375-54.804688c-1.445312-29-25.429687-51.726562-54.453125-51.617187zm0 0" fill="#2a2f4f"/><path d="m478.058594 27.816406c21.617187 21.617188 21.617187 56.667969 0 78.285156-21.617188 21.617188-56.667969 21.617188-78.285156 0zm0 0" fill="#3d4159"/><path d="m399.773438 106.101562h-67.9375l-8.414063 55.933594-20.371094-6.304687 2.730469-54.808594c1.445312-28.992187 25.429688-51.726563 54.457031-51.617187l98.121094.371093 12.972656 23.347657" fill="#3d4159"/><path d="m398.027344 49.449219c-27.148438 1.9375-48.945313 23.867187-50.324219 51.472656l-.257813 5.183594h-15.613281l-8.414062 55.929687-20.371094-6.304687 2.734375-54.804688c1.445312-29 25.429688-51.726562 54.453125-51.617187zm0 0" fill="#2a2f4f"/><path d="m266.449219 264.390625v247.402344c-3.34375.132812-6.707031.207031-10.082031.207031h-.367188c-3.5 0-6.980469-.074219-10.449219-.207031v-247.402344c0-5.769531 4.671875-10.449219 10.449219-10.449219 1.976562 0 3.824219.554688 5.402344 1.515625h.011718c3.019532 1.828125 5.035157 5.152344 5.035157 8.933594zm0 0" fill="#a35418"/><path d="m266.449219 264.390625v247.402344c-3.34375.132812-6.707031.207031-10.082031.207031v-247.609375c0-3.78125 2.015624-7.105469 5.035156-8.933594h.011718c3.019532 1.828125 5.035157 5.152344 5.035157 8.933594zm0 0" fill="#cc7a3b"/><path d="m360.375 295.164062-75.828125 131.332032-10.449219 18.097656-3.824218 6.625-2.203126 3.824219-1.621093 2.800781-2.800781 4.847656-1.621094 2.800782-2.203125 3.824218-3.824219 6.625-10.449219 18.097656-9.90625 17.167969h-.007812c-3.699219-.292969-7.359375-.660156-11.003907-1.121093-3.867187-.46875-7.710937-1.023438-11.515624-1.671876l14.335937-24.824218 10.449219-18.097656 3.824218-6.625 2.203126-3.824219 1.621093-2.800781 2.800781-4.847657 1.621094-2.800781 2.203125-3.824219 3.824219-6.625 10.449219-18.097656 75.828125-131.332031c2.882812-5.007813 9.269531-6.71875 14.273437-3.835938 1.714844.992188 3.03125 2.394532 3.917969 4.023438h.011719c1.703125 3.09375 1.785156 6.980468-.105469 10.261718zm0 0" fill="#a35418"/><path d="m360.375 295.164062-86.277344 149.429688-.367187.625-3.457031 6-1.996094 3.457031-.207032.367188-1.621093 2.800781-1.222657 2.109375-1.578124 2.738281-1.410157 2.433594-5.871093 10.179688-20.722657 35.902343c-3.699219-.292969-7.367187-.660156-11.011719-1.121093l21.546876-37.3125 10.082031-17.46875.105469-.167969.050781-.09375.074219-.136719.132812-.230469 4.914062-8.503906.699219-1.210937.207031-.367188 4.003907-6.929688 85.191406-147.546874c1.890625-3.273438 5.296875-5.140626 8.828125-5.214844h.011719c1.703125 3.09375 1.785156 6.980468-.105469 10.261718zm0 0" fill="#cc7a3b"/><path d="m431.554688 359.9375c-.074219 3.53125-1.945313 6.9375-5.226563 8.828125l-131.332031 75.828125-18.097656 10.449219-6.625 3.824219-3.824219 2.203124-2.800781 1.621094-4.847657 2.800782-2.800781 1.617187-3.824219 2.207031-6.625 3.824219-18.097656 10.449219-35.308594 20.386718c-4.542969-1.171874-9.035156-2.457031-13.476562-3.867187-4.554688-1.441406-9.050781-3.007813-13.492188-4.691406l51.828125-29.925781 18.097656-10.449219 6.625-3.824219 3.824219-2.207031 2.800781-1.617188 4.847657-2.800781 2.800781-1.621094 3.824219-2.203125 6.625-3.824219 18.097656-10.449218 131.332031-75.828125c5.007813-2.882813 11.390625-1.179688 14.285156 3.824219.980469 1.714843 1.429688 3.582031 1.378907 5.433593 0 0 .011719 0 .011719.011719zm0 0" fill="#a35418"/><path d="m431.554688 359.9375c-.074219 3.53125-1.945313 6.9375-5.226563 8.828125l-131.332031 75.828125-17.460938 10.082031-.636718.367188-6.625 3.824219-3.457032 1.996093-.367187.207031-2.800781 1.621094-2.109376 1.222656-5.171874 2.976563-10.1875 5.882813-54.035157 31.203124c-4.542969-1.171874-9.035156-2.457031-13.476562-3.867187l77.59375-44.804687.105469-.054688.125-.070312.230468-.136719.636719-.367188 7.867187-4.542969 1.222657-.703124.367187-.207032 6.914063-4.003906 1.097656-.625 146.464844-84.5625c3.28125-1.890625 7.15625-1.808594 10.25-.105469 0 0 .011719 0 .011719.011719zm0 0" fill="#cc7a3b"/><path d="m298.882812 508.414062c-3.554687.609376-7.136718 1.140626-10.730468 1.578126-3.910156.492187-7.835938.898437-11.796875 1.203124l-9.90625-17.15625-10.449219-18.097656-3.824219-6.625-2.203125-3.824218-1.621094-2.800782-2.800781-4.847656-1.621093-2.800781-2.203126-3.824219-3.824218-6.625-10.449219-18.097656-75.828125-131.332032c-2.882812-5.007812-1.179688-11.390624 3.824219-14.285156 1.714843-.980468 3.585937-1.429687 5.433593-1.378906 0 0 0-.011719.011719-.011719 3.53125.074219 6.9375 1.945313 8.828125 5.226563l75.828125 131.332031 10.449219 18.097656 3.824219 6.625 2.203125 3.824219 1.621094 2.800781 2.800781 4.847657 1.621093 2.800781 2.203126 3.824219 3.824218 6.625 10.449219 18.097656zm0 0" fill="#a35418"/><path d="m298.882812 508.414062c-3.554687.609376-7.136718 1.140626-10.730468 1.578126l-21.703125-37.574219-4.210938-7.292969-.699219-1.210938-5.046874-8.734374-.074219-.136719-.050781-.09375-.105469-.167969-.054688-.105469-5.816406-10.082031-4.210937-7.28125-85.191407-147.5625c-1.890625-3.28125-1.808593-7.15625-.105469-10.25 0 0 0-.011719.011719-.011719 3.53125.074219 6.9375 1.945313 8.828125 5.226563l86.644532 150.066406 5.660156 9.8125.210937.367188 1.410157 2.433593 1.578124 2.738281 1.222657 2.109376 1.398437 2.433593.222656.367188 2.203126 3.824219 3.457031 5.996093zm0 0" fill="#cc7a3b"/><path d="m346.832031 495.417969c-4.148437 1.578125-8.335937 3.039062-12.570312 4.386719-4.742188 1.527343-9.550781 2.917968-14.417969 4.160156l-35.296875-20.375-18.097656-10.449219-6.625-3.824219-3.824219-2.207031-2.800781-1.617187-4.847657-2.800782-2.800781-1.621094-3.824219-2.203124-6.625-3.824219-18.097656-10.449219-131.332031-75.828125c-5.003906-2.882813-6.71875-9.269531-3.835937-14.273437.992187-1.714844 2.394531-3.03125 4.023437-3.917969 0 0 0 0 0-.011719 3.09375-1.703125 6.980469-1.785156 10.261719.105469l131.332031 75.828125 18.097656 10.449218 6.625 3.824219 3.824219 2.203125 2.800781 1.621094 4.847657 2.800781 2.800781 1.617188 3.824219 2.207031 6.625 3.824219 18.097656 10.449219zm0 0" fill="#a35418"/><path d="m346.832031 495.417969c-4.148437 1.578125-8.335937 3.039062-12.570312 4.386719l-60.53125-34.941407-6.914063-4-.367187-.210937-1.222657-.699219-8.503906-4.910156-.230468-.136719-.125-.074219-.105469-.050781-.167969-.105469-17.46875-10.082031-147.550781-85.191406c-3.269531-1.890625-5.140625-5.296875-5.214844-8.828125 0 0 0 0 0-.011719 3.09375-1.703125 6.980469-1.785156 10.261719.105469l150.058594 86.644531 10.1875 5.882812 2.433593 1.398438 2.738281 1.578125 2.109376 1.222656 2.800781 1.617188.367187.210937 3.457032 1.996094 5.988281 3.457031.636719.367188zm0 0" fill="#cc7a3b"/><path d="m429.097656 444.59375c-3.78125 3.488281-7.667968 6.855469-11.660156 10.082031-4.628906 3.773438-9.394531 7.378907-14.285156 10.816407h-294.316406c-4.890626-3.449219-9.644532-7.054688-14.273438-10.816407-3.992188-3.226562-7.878906-6.59375-11.660156-10.082031zm0 0" fill="#a35418"/><path d="m429.097656 444.59375c-3.78125 3.488281-7.667968 6.855469-11.660156 10.082031h-322.875c-3.992188-3.226562-7.878906-6.59375-11.660156-10.082031zm0 0" fill="#cc7a3b"/><path d="m302.179688 455.042969c0 25.507812-20.675782 46.183593-46.183594 46.183593-25.503906 0-46.179688-20.675781-46.179688-46.183593 0-25.503907 20.675782-46.179688 46.179688-46.179688 25.507812 0 46.183594 20.675781 46.183594 46.179688zm0 0" fill="#a35418"/><path d="m277.109375 455.042969c0 11.660156-9.453125 21.113281-21.113281 21.113281s-21.113282-9.453125-21.113282-21.113281c0-11.660157 9.453126-21.113281 21.113282-21.113281s21.113281 9.453124 21.113281 21.113281zm0 0" fill="#cc7a3b"/><path d="m466.714844 401.40625c-10.25 14.851562-22.046875 28.558594-35.128906 40.886719l-14.523438-20.601563-22.6875-32.175781 42.726562-30.113281 21.105469 29.9375zm0 0" fill="#bfd5de"/><path d="m433.484375 376.828125-21.226563 16.765625c-7.992187 6.316406-18.734374 6.785156-27.0625 2.007812-2.617187-1.492187-4.988281-3.496093-6.964843-6-8.292969-10.496093-6.503907-25.738281 3.992187-34.027343l21.226563-16.769531c10.496093-8.289063 25.738281-6.503907 34.03125 3.996093 1.976562 2.503907 3.378906 5.273438 4.230469 8.160157.933593 3.160156 1.203124 6.457031.816406 9.679687-.726563 6.160156-3.792969 12.042969-9.042969 16.1875zm0 0" fill="#bf8e75"/><path d="m433.484375 376.828125-21.226563 16.765625c-7.992187 6.316406-18.734374 6.785156-27.0625 2.007812-2.71875-9.207031.226563-19.550781 8.21875-25.863281l21.226563-16.765625c7.992187-6.316406 18.734375-6.785156 27.070313-2.011718.933593 3.160156 1.203124 6.457031.816406 9.679687-.726563 6.160156-3.792969 12.042969-9.042969 16.1875zm0 0" fill="#d3a489"/><path d="m45.28125 401.40625c10.25 14.851562 22.046875 28.558594 35.128906 40.886719l14.523438-20.601563 22.683594-32.175781-42.726563-30.113281-21.105469 29.9375zm0 0" fill="#2ba1cf"/><path d="m129.769531 355.570312-21.226562-16.765624c-7.992188-6.3125-18.734375-6.785157-27.0625-2.003907-2.617188 1.488281-4.988281 3.492188-6.964844 5.996094-8.292969 10.5-6.503906 25.738281 3.992187 34.03125l21.226563 16.765625c10.496094 8.292969 25.734375 6.503906 34.027344-3.992188 1.980469-2.503906 3.378906-5.273437 4.230469-8.160156.933593-3.164062 1.203124-6.460937.820312-9.683594-.730469-6.15625-3.796875-12.039062-9.042969-16.1875zm0 0" fill="#eab599"/><path d="m129.769531 355.570312-21.226562-16.765624c-7.992188-6.3125-18.734375-6.785157-27.0625-2.003907-2.722657 9.207031.222656 19.550781 8.214843 25.863281l21.226563 16.765626c7.992187 6.3125 18.738281 6.785156 27.070313 2.011718.933593-3.160156 1.203124-6.460937.820312-9.679687-.730469-6.160157-3.796875-12.042969-9.042969-16.191407zm0 0" fill="#f6caae"/><path d="m256 323.648438c-72.453125 0-131.394531 58.941406-131.394531 131.394531 0 7.417969.613281 14.691406 1.804687 21.773437 12.039063 7.085938 24.714844 13.210938 37.910156 18.265625-5.382812-12.265625-8.371093-25.808593-8.371093-40.039062 0-55.160157 44.878906-100.050781 100.050781-100.050781 55.160156 0 100.050781 44.890624 100.050781 100.050781 0 14.230469-2.988281 27.785156-8.371093 40.050781 13.207031-5.066406 25.871093-11.191406 37.910156-18.277344 1.191406-7.082031 1.804687-14.355468 1.804687-21.773437 0-72.453125-58.953125-131.394531-131.394531-131.394531zm0 0" fill="#cc7a3b"/><path d="m256 334.09375c-66.695312 0-120.945312 54.261719-120.945312 120.949219 0 9.789062 1.167968 19.308593 3.382812 28.421875 4.140625 2.140625 8.328125 4.167968 12.59375 6.082031-3.597656-10.859375-5.527344-22.457031-5.527344-34.503906 0-60.929688 49.566406-110.5 110.496094-110.5s110.496094 49.570312 110.496094 110.5c0 12.046875-1.929688 23.644531-5.527344 34.511719 4.265625-1.910157 8.453125-3.949219 12.59375-6.089844 2.214844-9.113282 3.382812-18.632813 3.382812-28.421875 0-66.6875-54.261718-120.949219-120.945312-120.949219zm0 0" fill="#a35418"/></svg>