<svg height="512pt" viewBox="0 0 512.00104 512" width="512pt" xmlns="http://www.w3.org/2000/svg"><path d="m512 255.992188c0 137-107.628906 248.875-242.949219 255.667968-.867187.039063-1.726562.082032-2.59375.113282-3.46875.136718-6.945312.210937-10.445312.210937-1.328125 0-2.65625-.011719-3.984375-.03125-2.160156-.03125-4.3125-.097656-6.464844-.179687-.867188-.03125-1.726562-.074219-2.59375-.113282-135.320312-6.792968-242.9492188-118.667968-242.9492188-255.667968 0-137.878907 109.0078128-250.296876 245.5429688-255.78125 3.46875-.1367192 6.945312-.210938 10.449219-.210938 3.5 0 6.976562.0742188 10.445312.210938 136.535157 5.484374 245.542969 117.902343 245.542969 255.78125zm0 0" fill="#dde8ed"/><path d="m438.964844 435.039062c-45.261719 46.246094-107.914063 75.398438-177.375 76.882813v-6.730469c0-37.875 25.714844-69.734375 60.644531-79.074218 1.273437-.347657 2.558594-.660157 3.863281-.941407 3.46875-.753906 7.035156-1.273437 10.648438-1.566406 2.214844-.179687 4.441406-.273437 6.699218-.273437h53.308594c5.964844 0 11.765625.628906 17.363282 1.839843.324218.0625.648437.136719.960937.207031.941406.222657 1.882813.449219 2.8125.703126.03125.007812.042969.007812.074219.019531 7.46875 1.996093 14.53125 5.035156 21 8.933593zm0 0" fill="#3d4159"/><path d="m418.160156 425.175781-.195312.929688-7.285156 33.875c-1.160157.886719-2.339844 1.765625-3.519532 2.632812-19.519531 14.304688-41.136718 25.914063-64.320312 34.261719-1.664063.59375-3.335938 1.179688-5.015625 1.742188l-15.589844-72.5-.199219-.941407zm0 0" fill="#66baed"/><path d="m392.070312 452.875-19.328124 31c-1.335938.691406-2.6875 1.371094-4.035157 2.015625l-20.582031-33.015625zm0 0" fill="#3d4159"/><path d="m370.09375 456.847656-36.851562 20.480469-11.210938-52.144531 22.898438-13.488282" fill="#2ba1cf"/><path d="m418.160156 425.1875-7.480468 34.792969c-1.160157.886719-2.339844 1.765625-3.519532 2.632812-3.886718 2.839844-7.859375 5.578125-11.902344 8.210938l-25.160156-13.980469 25.160156-45.148438zm0 0" fill="#2ba1cf"/><path d="m441.222656 432.710938c-.753906.78125-1.503906 1.554687-2.257812 2.328124-9.820313 10.03125-20.457032 19.257813-31.804688 27.574219l10.730469-36.527343.269531-.910157zm0 0" fill="#2a2f4f"/><path d="m342.839844 496.875c-9.738282 3.511719-19.761719 6.457031-30.011719 8.777344l-4.148437-10.105469h11.695312l-23.835938-62.136719 25.222657-8.234375.273437.910157zm0 0" fill="#2a2f4f"/><path d="m399.304688 391.804688v35.84375c0 13.121093-8.652344 24.210937-20.570313 27.894531-2.726563.847656-5.632813 1.304687-8.640625 1.304687-16.128906 0-29.199219-13.074218-29.199219-29.199218v-35.84375zm0 0" fill="#eab599"/><path d="m399.304688 425.375v2.273438c0 13.121093-8.652344 24.210937-20.570313 27.894531-10.75-3.304688-18.835937-12.652344-20.328125-24.09375 1.953125.121093 3.914062.179687 5.882812.179687 5.527344 0 10.941407-.4375 16.21875-1.304687 6.5-1.042969 12.785157-2.71875 18.796876-4.949219zm0 0" fill="#f6caae"/><path d="m289.984375 333.066406c0 13.519532-9.875 24.730469-22.808594 26.8125-1.414062.226563-2.867187.347656-4.351562.347656-15.003907 0-27.160157-12.15625-27.160157-27.160156s12.15625-27.160156 27.160157-27.160156c1.484375 0 2.9375.117188 4.351562.347656 12.933594 2.082032 22.808594 13.292969 22.808594 26.8125zm0 0" fill="#f6caae"/><path d="m289.984375 333.066406c0 13.519532-9.875 24.730469-22.808594 26.8125-2.351562-8.542968-3.605469-17.535156-3.605469-26.8125 0-9.28125 1.257813-18.269531 3.605469-26.8125 12.933594 2.082032 22.808594 13.292969 22.808594 26.8125zm0 0" fill="#eab599"/><path d="m272.53125 333.066406c0 5.359375-4.34375 9.707032-9.707031 9.707032-5.359375 0-9.707031-4.347657-9.707031-9.707032 0-5.363281 4.347656-9.707031 9.707031-9.707031 5.363281 0 9.707031 4.34375 9.707031 9.707031zm0 0" fill="#eab599"/><path d="m502.910156 323.824219c-3.039062 11.105469-6.8125 21.898437-11.253906 32.347656-4.148438 2.570313-9.035156 4.054687-14.28125 4.054687-1.484375 0-2.9375-.125-4.359375-.355468-12.921875-2.078125-22.808594-13.289063-22.808594-26.808594 0-13.523438 9.886719-24.722656 22.808594-26.8125 1.421875-.230469 2.875-.34375 4.359375-.34375 11.765625 0 21.765625 7.46875 25.535156 17.917969zm0 0" fill="#f6caae"/><g fill="#eab599"><path d="m450.210938 333.066406c0 13.519532 9.878906 24.730469 22.808593 26.8125 2.351563-8.542968 3.605469-17.535156 3.605469-26.8125 0-9.28125-1.253906-18.269531-3.605469-26.8125-12.929687 2.082032-22.808593 13.292969-22.808593 26.8125zm0 0"/><path d="m471.148438 280.152344v38.480468c0 50.285157-36.734376 92-84.832032 99.742188-.164062.027344-.335937.054688-.496094.082031-5.117187.816407-10.367187 1.222657-15.722656 1.222657-55.804687 0-101.046875-45.242188-101.046875-101.046876v-38.480468c0-11.75 2.003907-23.042969 5.710938-33.53125 13.816406-39.328125 51.289062-67.523438 95.335937-67.523438h.007813c5.351562 0 10.609375.414063 15.734375 1.222656 48.332031 7.550782 85.308594 49.378907 85.308594 99.832032zm0 0"/><path d="m487.078125 333.066406c0 5.359375-4.34375 9.707032-9.707031 9.707032-5.359375 0-9.707032-4.347657-9.707032-9.707032 0-5.363281 4.347657-9.707031 9.707032-9.707031 5.363281 0 9.707031 4.34375 9.707031 9.707031zm0 0"/></g><path d="m471.148438 280.152344v38.480468c0 50.285157-36.734376 92-84.832032 99.742188-.164062.027344-.335937.054688-.496094.082031-48.335937-7.550781-85.304687-49.375-85.304687-99.824219v-38.480468c0-50.453125 36.980469-92.277344 85.324219-99.832032 48.332031 7.550782 85.308594 49.378907 85.308594 99.832032zm0 0" fill="#f6caae"/><path d="m348.578125 312.75c0 6.328125-5.132813 11.460938-11.460937 11.460938-6.332032 0-11.464844-5.132813-11.464844-11.460938 0-6.332031 5.132812-11.464844 11.464844-11.464844 6.328124 0 11.460937 5.132813 11.460937 11.464844zm0 0" fill="#3d4159"/><path d="m414.546875 312.75c0 6.328125-5.132813 11.460938-11.464844 11.460938-6.328125 0-11.460937-5.132813-11.460937-11.460938 0-6.332031 5.132812-11.464844 11.460937-11.464844 6.332031 0 11.464844 5.132813 11.464844 11.464844zm0 0" fill="#3d4159"/><path d="m346.242188 310.726562c0 2.710938-2.199219 4.910157-4.910157 4.910157-2.714843 0-4.914062-2.199219-4.914062-4.910157 0-2.714843 2.199219-4.914062 4.914062-4.914062 2.710938 0 4.910157 2.199219 4.910157 4.914062zm0 0" fill="#fff"/><path d="m412.773438 310.726562c0 2.710938-2.199219 4.910157-4.914063 4.910157-2.710937 0-4.910156-2.199219-4.910156-4.910157 0-2.714843 2.199219-4.914062 4.910156-4.914062 2.714844 0 4.914063 2.199219 4.914063 4.914062zm0 0" fill="#fff"/><path d="m381.5625 337.113281h-22.925781c-2.730469 0-4.945313-2.210937-4.945313-4.945312 0-2.730469 2.214844-4.945313 4.945313-4.945313h22.925781c2.730469 0 4.945312 2.214844 4.945312 4.945313 0 2.734375-2.214843 4.945312-4.945312 4.945312zm0 0" fill="#eab599"/><path d="m370.101562 368.398438c-8.460937 0-16.925781-2.117188-24.636718-6.359376-2.175782-1.195312-2.96875-3.929687-1.773438-6.105468 1.195313-2.175782 3.929688-2.96875 6.105469-1.773438 12.714844 6.992188 27.894531 6.988282 40.609375 0 2.175781-1.195312 4.910156-.402344 6.105469 1.773438 1.195312 2.175781.402343 4.910156-1.773438 6.105468-7.714843 4.242188-16.175781 6.359376-24.636719 6.359376zm0 0" fill="#eab599"/><path d="m471.148438 245.230469v39.417969h-18.808594v-30.867188l-135.757813-25.230469-28.726562-5.339843v61.4375h-18.808594v-39.417969c0-44.9375 36.421875-81.355469 81.347656-81.355469h39.40625c1.070313 0 2.140625.015625 3.210938.070312 43.433593 1.671876 78.136719 37.417969 78.136719 81.285157zm0 0" fill="#2a2f4f"/><path d="m471.148438 245.230469v39.417969h-18.808594v-30.867188l-135.757813-25.230469c7.480469-35.925781 38.652344-63.148437 76.429688-64.605469 43.433593 1.671876 78.136719 37.417969 78.136719 81.285157zm0 0" fill="#3d4159"/><path d="m254.695312 504.824219v7.148437c-27.179687-.136718-53.351562-4.503906-77.886718-12.488281-26.582032-8.628906-51.25-21.5-73.222656-37.8125-4.597657-3.40625-9.070313-6.96875-13.425782-10.675781-6.144531-5.226563-12.027344-10.742188-17.636718-16.519532 7.03125-4.464843 14.78125-7.910156 23.039062-10.117187 1.292969-.34375 2.601562-.667969 3.925781-.949219 3.53125-.761718 7.160157-1.296875 10.847657-1.597656 2.246093-.1875 4.511718-.273438 6.8125-.273438h54.238281c6.058593 0 11.972656.636719 17.667969 1.871094.324218.0625.660156.136719.972656.207032.960937.222656 1.921875.460937 2.863281.722656.03125 0 .050781 0 .074219.011718 9.382812 2.507813 18.105468 6.613282 25.859375 12.003907 21.679687 15.035156 35.871093 40.101562 35.871093 68.46875zm0 0" fill="#2ba394"/><path d="m254.695312 504.824219v7.148437c-62.765624-.3125-120.171874-23.207031-164.535156-60.976562 10.792969-12.75 25.359375-22.195313 41.972656-26.636719 1.292969-.34375 2.601563-.667969 3.925782-.949219 3.53125-.761718 7.160156-1.296875 10.847656-1.597656 2.246094-.1875 4.511719-.273438 6.8125-.273438h17.667969c6.058593 0 11.972656.636719 17.667969 1.871094.324218.0625.660156.136719.972656.207032.960937.222656 1.921875.460937 2.863281.722656.03125 0 .050781 0 .074219.011718 9.382812 2.507813 18.105468 6.613282 25.859375 12.003907 21.679687 15.035156 35.871093 40.101562 35.871093 68.46875zm0 0" fill="#3fb777"/><path d="m193.171875 423.410156-.207031.941406-16.15625 75.132813c-26.582032-8.628906-51.25-21.5-73.222656-37.8125l-8.023438-37.3125-.210938-.949219zm0 0" fill="#f2f0ec"/><path d="m144.261719 455.632812-27.417969 15.246094c-4.523438-2.9375-8.941406-6.007812-13.257812-9.207031 0 0-.011719 0-.011719-.007813l-8.222657-38.242187 23.300782-13.730469zm0 0" fill="#d8d5d0"/><path d="m144.261719 455.636719 37.496093 20.839843 11.40625-53.058593-23.300781-13.722657" fill="#d8d5d0"/><path d="m256.238281 275.84375v125.613281h-210.894531c-4.667969-6.75-9.015625-13.738281-13.039062-20.9375v-104.675781c0-12.757812 2.132812-25.265625 6.332031-37.164062 15.714843-44.742188 58.167969-74.804688 105.625-74.804688 5.882812 0 11.753906.449219 17.449219 1.359375 26.078124 4.066406 49.996093 17.375 67.339843 37.46875 17.535157 20.3125 27.1875 46.289063 27.1875 73.140625zm0 0" fill="#f74f4f"/><path d="m78.363281 280.753906c0 44.429688 26.015625 95.835938 40.300781 120.703125h-73.320312c-4.667969-6.761719-9.027344-13.75-13.050781-20.960937v-104.652344c0-12.757812 2.132812-25.265625 6.332031-37.164062 15.632812-44.480469 57.6875-74.457032 104.820312-74.792969-34.417968.855469-65.082031 56.089843-65.082031 116.867187zm0 0" fill="#dd3033"/><path d="m173.988281 389.457031v36.46875c0 13.351563-8.804687 24.636719-20.929687 28.382813-2.777344.863281-5.734375 1.328125-8.792969 1.328125-16.414063 0-29.714844-13.300781-29.714844-29.710938v-36.46875zm0 0" fill="#eab599"/><path d="m173.988281 423.617188v2.308593c0 13.351563-8.804687 24.636719-20.929687 28.386719-10.941406-3.367188-19.167969-12.878906-20.6875-24.515625 1.984375.121094 3.980468.179687 5.988281.179687 5.621094 0 11.132813-.445312 16.5-1.328124 6.617187-1.0625 13.007813-2.765626 19.128906-5.03125zm0 0" fill="#f6caae"/><path d="m62.753906 329.6875c0 13.757812-10.054687 25.160156-23.207031 27.28125-1.441406.226562-2.917969.355469-4.429687.355469-6.21875 0-11.945313-2.050781-16.5625-5.507813-3.90625-9.6875-7.242188-19.65625-9.96875-29.882812 3.34375-11.496094 13.960937-19.882813 26.53125-19.882813 1.511718 0 2.988281.125 4.429687.355469 13.152344 2.121094 23.207031 13.519531 23.207031 27.28125zm0 0" fill="#f6caae"/><path d="m62.753906 329.6875c0 13.757812-10.050781 25.164062-23.210937 27.28125-2.390625-8.691406-3.667969-17.839844-3.667969-27.28125s1.277344-18.589844 3.667969-27.28125c13.160156 2.117188 23.210937 13.523438 23.210937 27.28125zm0 0" fill="#eab599"/><path d="m44.992188 329.6875c0 5.453125-4.421876 9.875-9.875 9.875-5.457032 0-9.878907-4.421875-9.878907-9.875 0-5.457031 4.421875-9.878906 9.878907-9.878906 5.453124 0 9.875 4.421875 9.875 9.878906zm0 0" fill="#eab599"/><path d="m215.226562 294.398438v94.996093c-14.679687 14.015625-33.507812 23.722657-54.457031 27.097657-.164062.027343-.339843.054687-.503906.082031-5.203125.832031-10.546875 1.242187-16 1.242187-56.78125 0-102.816406-46.03125-102.816406-102.816406v-39.152344c0-5.015625.359375-9.945312 1.050781-14.765625 24.464844 17.59375 59.539062 15.855469 81.886719-5.269531 7.402343-6.988281 12.542969-15.3125 15.453125-24.140625 1.617187 15.460937 8.6875 30.507813 21.222656 42.355469 14.921875 14.085937 34.632812 20.886718 54.164062 20.371094zm0 0" fill="#eab599"/><path d="m215.226562 294.398438v94.996093c-14.679687 14.015625-33.507812 23.722657-54.457031 27.097657-.164062.027343-.339843.054687-.503906.082031-49.179687-7.683594-86.796875-50.242188-86.796875-101.574219v-39.152344c0-1.042968.019531-2.078125.054688-3.109375 18.132812 1.855469 36.960937-3.78125 50.863281-16.925781 7.402343-6.988281 12.542969-15.3125 15.453125-24.140625 1.617187 15.460937 8.691406 30.507813 21.222656 42.355469 14.921875 14.085937 34.632812 20.886718 54.164062 20.371094zm0 0" fill="#f6caae"/><path d="m199.488281 306.320312c0-9.433593-7.644531-17.078124-17.078125-17.078124-9.429687 0-17.074218 7.644531-17.074218 17.078124" fill="#eab599"/><path d="m123.214844 306.320312c0-9.433593-7.644532-17.078124-17.074219-17.078124-9.433594 0-17.078125 7.644531-17.078125 17.078124" fill="#eab599"/><path d="m117.800781 313.589844c0 6.441406-5.222656 11.664062-11.664062 11.664062-6.441407 0-11.664063-5.222656-11.664063-11.664062s5.222656-11.664063 11.664063-11.664063c6.441406 0 11.664062 5.222657 11.664062 11.664063zm0 0" fill="#3d4159"/><path d="m194.074219 313.589844c0 6.441406-5.222657 11.664062-11.664063 11.664062s-11.664062-5.222656-11.664062-11.664062 5.222656-11.664063 11.664062-11.664063 11.664063 5.222657 11.664063 11.664063zm0 0" fill="#3d4159"/><path d="m155.9375 342.957031h-23.328125c-2.777344 0-5.03125-2.253906-5.03125-5.03125 0-2.78125 2.253906-5.03125 5.03125-5.03125h23.328125c2.78125 0 5.03125 2.25 5.03125 5.03125 0 2.777344-2.25 5.03125-5.03125 5.03125zm0 0" fill="#eab599"/><path d="m144.273438 374.789062c-8.609376 0-17.21875-2.160156-25.066407-6.472656-2.214843-1.21875-3.023437-3.996094-1.804687-6.210937 1.214844-2.214844 4-3.023438 6.210937-1.804688 12.9375 7.113281 28.386719 7.113281 41.324219 0 2.210938-1.21875 4.992188-.410156 6.210938 1.804688 1.214843 2.214843.410156 4.992187-1.804688 6.210937-7.851562 4.316406-16.460938 6.472656-25.070312 6.472656zm0 0" fill="#eab599"/><path d="m115.421875 311.53125c0 2.757812-2.234375 4.996094-4.996094 4.996094-2.757812 0-4.996093-2.238282-4.996093-4.996094 0-2.761719 2.238281-5 4.996093-5 2.761719 0 4.996094 2.238281 4.996094 5zm0 0" fill="#fff"/><path d="m192.269531 311.53125c0 2.757812-2.238281 4.996094-4.996093 4.996094-2.761719 0-5-2.238282-5-4.996094 0-2.761719 2.238281-5 5-5 2.757812 0 4.996093 2.238281 4.996093 5zm0 0" fill="#fff"/><path d="m214.253906 342c0 7.070312-5.734375 12.804688-12.808594 12.804688-7.074218 0-12.808593-5.734376-12.808593-12.804688 0-7.074219 5.734375-12.808594 12.808593-12.808594 7.074219 0 12.808594 5.734375 12.808594 12.808594zm0 0" fill="#eab599"/><path d="m99.902344 342c0 7.070312-5.734375 12.804688-12.808594 12.804688s-12.808594-5.734376-12.808594-12.804688c0-7.074219 5.734375-12.808594 12.808594-12.808594s12.808594 5.734375 12.808594 12.808594zm0 0" fill="#eab599"/><path d="m269.050781 13.039062v498.621094c-.867187.039063-1.726562.082032-2.59375.113282-3.46875.136718-6.945312.210937-10.445312.210937-3.503907 0-6.980469-.074219-10.449219-.210937-.867188-.03125-1.726562-.074219-2.59375-.113282v-498.621094c0-7.199218 5.84375-13.039062 13.042969-13.039062 1.585937 0 3.113281.28125 4.523437.816406 1.773438.65625 3.375 1.691406 4.691406 3.007813 2.359376 2.351562 3.824219 5.613281 3.824219 9.214843zm0 0" fill="#2a2f4f"/><path d="m269.050781 13.039062v30.480469c-4.328125-.21875-8.671875-.324219-13.039062-.324219-1.328125 0-2.65625.011719-3.984375.03125v-30.1875c0-5.597656 3.535156-10.382812 8.507812-12.222656 1.773438.65625 3.375 1.691406 4.691406 3.007813 2.359376 2.351562 3.824219 5.613281 3.824219 9.214843zm0 0" fill="#3d4159"/><path d="m269.050781 194.074219v317.585937c-.867187.039063-1.726562.082032-2.59375.113282-3.46875.136718-6.945312.210937-10.445312.210937-1.328125 0-2.65625-.011719-3.984375-.03125v-307.683594c2.570312 4.304688 3.984375 8.964844 3.984375 13.824219 0-9.039062 4.855469-17.363281 13.039062-24.019531zm0 0" fill="#3d4159"/><path d="m282.652344 452.949219v29.746093c0 11.203126-6.917969 20.792969-16.71875 24.722657-3.070313 1.242187-6.414063 1.921875-9.925782 1.921875-14.710937 0-26.644531-11.933594-26.644531-26.644532v-29.746093c0-14.710938 11.933594-26.644531 26.644531-26.644531 3.511719 0 6.855469.679687 9.925782 1.914062 3.363281 1.347656 6.394531 3.363281 8.914062 5.890625 4.816406 4.828125 7.804688 11.484375 7.804688 18.839844zm0 0" fill="#eab599"/><path d="m282.652344 452.949219v29.746093c0 11.203126-6.917969 20.792969-16.71875 24.722657-9.800782-3.929688-16.71875-13.519531-16.71875-24.722657v-29.746093c0-11.199219 6.917968-20.792969 16.71875-24.730469 3.363281 1.347656 6.394531 3.363281 8.914062 5.890625 4.816406 4.828125 7.804688 11.484375 7.804688 18.839844zm0 0" fill="#f6caae"/><path d="m511.996094 177.277344c-14.785156-12.460938-42.539063-20.9375-66.679688-20.9375-34.847656 0-63.101562 17.671875-63.101562 39.46875 0-21.800782-28.253906-39.46875-63.101563-39.46875-34.847656 0-63.101562 17.671875-63.101562 39.46875 0-21.800782-28.257813-39.46875-63.105469-39.46875s-63.101562 17.671875-63.101562 39.46875c0-21.800782-28.253907-39.46875-63.101563-39.46875-24.152344 0-51.929687 8.492187-66.703125 20.964844 57.433594-94.773438 150.707031-156.402344 256.011719-156.402344 105.300781 0 198.550781 61.628906 255.984375 156.375zm0 0" fill="#966a99"/><path d="m256.011719 21.917969c-51.757813.011719-125.738281 65.613281-126.207031 173.890625-.859376-21.328125-28.773438-38.453125-63.078126-38.453125-24.152343 0-51.929687 8.492187-66.7031245 20.964843 57.4335935-94.757812 150.6953125-156.390624 255.9882815-156.402343zm0 0" fill="#854f89"/><path d="m382.234375 196.824219c0-21.800781-28.253906-39.46875-63.101563-39.46875-34.847656 0-63.101562 17.671875-63.101562 39.46875v-174.90625c51.929688.011719 126.203125 59.519531 126.203125 174.90625zm0 0" fill="#854f89"/><path d="m256.011719 20.902344v174.90625c0-21.800782-28.257813-39.46875-63.105469-39.46875s-63.101562 17.671875-63.101562 39.46875c0-.285156 0-.574219-.019532-.847656v-.167969c.46875-108.277344 74.449219-173.878907 126.203125-173.890625zm0 0" fill="#713775"/></svg>