<svg height="512pt" viewBox="0 0 512 512" width="512pt" xmlns="http://www.w3.org/2000/svg"><path d="m512 256c0 46.90625-12.613281 90.875-34.648438 128.679688v.011718c-7.660156 13.152344-16.46875 25.554688-26.269531 37.082032-3.480469 4.09375-7.09375 8.078124-10.824219 11.953124-9.59375 9.949219-20 19.121094-31.085937 27.417969-12.308594 9.195313-25.476563 17.324219-39.363281 24.230469-11.585938 5.757812-23.675782 10.660156-36.183594 14.640625-11.996094 3.8125-24.378906 6.769531-37.074219 8.785156-13.207031 2.101563-26.746093 3.199219-40.550781 3.199219-17.136719 0-33.875-1.683594-50.070312-4.902344-31.953126-6.332031-61.765626-18.609375-88.242188-35.640625-8.316406-5.347656-16.3125-11.167969-23.9375-17.429687-15.058594-12.347656-28.671875-26.390625-40.574219-41.816406-6.542969-8.484376-12.5625-17.386719-18.015625-26.664063-22.351562-38.003906-35.160156-82.277344-35.160156-129.546875 0-141.386719 114.613281-256 256-256s256 114.613281 256 256zm0 0" fill="#ffe152"/><path d="m205.929688 426.265625v80.832031c-61.839844-12.253906-115.660157-46.789062-152.753907-94.886718-6.542969-8.484376-12.5625-17.386719-18.015625-26.664063 9.214844-12.695313 22.632813-22.140625 38.203125-26.300781 1.085938-.292969 2.171875-.5625 3.28125-.792969 2.933594-.648437 5.953125-1.085937 9.027344-1.339844 1.871094-.144531 3.761719-.226562 5.671875-.226562h45.191406c5.046875 0 9.96875.53125 14.714844 1.566406.269531.050781.542969.113281.8125.175781.796875.179688 1.601562.378906 2.382812.585938.023438.011718.042969.011718.0625.019531 7.816407 2.089844 15.078126 5.507813 21.546876 10 18.054687 12.53125 29.875 33.394531 29.875 57.03125zm0 0" fill="#2ba1cf"/><path d="m205.929688 426.265625v80.832031c-61.839844-12.253906-115.660157-46.789062-152.753907-94.886718 5.285157-25.722657 24.804688-46.246094 49.964844-52.964844 1.089844-.292969 2.175781-.5625 3.28125-.792969 2.9375-.648437 5.957031-1.085937 9.027344-1.339844 1.871093-.144531 3.761719-.226562 5.675781-.226562h15.410156c5.046875 0 9.96875.53125 14.714844 1.566406.269531.050781.542969.113281.8125.175781.796875.179688 1.601562.378906 2.382812.585938.023438.011718.042969.011718.0625.019531 7.816407 2.089844 15.078126 5.507813 21.546876 10 18.054687 12.53125 29.875 33.394531 29.875 57.03125zm0 0" fill="#66baed"/><path d="m154.6875 358.441406-.179688.785156-20.75 96.546876c-1.746093 8.089843-8.171874 14.242187-16.070312 15.683593-8.316406-5.347656-16.3125-11.167969-23.9375-17.429687l-20.378906-94.792969-.164063-.792969zm0 0" fill="#f2f0ec"/><path d="m113.941406 385.285156-31.238281 17.359375-9.5-44.199219 19.410156-11.429687" fill="#d8d5d0"/><path d="m113.941406 385.285156 31.238282 17.359375 9.5-44.199219-19.410157-11.429687" fill="#d8d5d0"/><path d="m20.675781 340.15625v-104.640625c0-10.632813 1.773438-21.050781 5.273438-30.964844 13.097656-37.265625 48.460937-62.3125 87.996093-62.3125 4.898438 0 9.785157.378907 14.535157 1.128907 21.71875 3.394531 41.648437 14.480468 56.097656 31.21875 14.601563 16.917968 22.644531 38.554687 22.644531 60.929687v104.636719" fill="#f74f4f"/><path d="m59.042969 239.601562c0 37.011719 21.675781 79.832032 33.578125 100.554688h-71.949219v-104.640625c0-10.632813 1.777344-21.050781 5.273437-30.964844 13.019532-37.050781 48.058594-62.023437 87.320313-62.308593-28.675781.71875-54.222656 46.726562-54.222656 97.359374zm0 0" fill="#dd3033"/><path d="m138.703125 330.15625v30.378906c0 11.121094-7.332031 20.523438-17.433594 23.644532-2.3125.71875-4.777343 1.105468-7.324219 1.105468-13.671874 0-24.75-11.078125-24.75-24.75v-30.378906zm0 0" fill="#eab599"/><path d="m138.703125 358.609375v1.925781c0 11.121094-7.332031 20.523438-17.433594 23.644532-9.113281-2.800782-15.964843-10.726563-17.230469-20.421876 1.652344.101563 3.316407.152344 4.984376.152344 4.683593 0 9.277343-.371094 13.746093-1.105468 5.511719-.886719 10.839844-2.304688 15.933594-4.195313zm0 0" fill="#f6caae"/><path d="m46.042969 280.363281c0 11.460938-8.371094 20.960938-19.335938 22.726563-1.195312.195312-2.429687.296875-3.6875.296875-12.714843 0-23.019531-10.304688-23.019531-23.023438s10.304688-23.019531 23.019531-23.019531c1.257813 0 2.492188.101562 3.6875.292969 10.964844 1.765625 19.335938 11.269531 19.335938 22.726562zm0 0" fill="#f6caae"/><path d="m46.042969 280.363281c0 11.460938-8.371094 20.960938-19.335938 22.726563-1.988281-7.242188-3.054687-14.859375-3.054687-22.726563 0-7.863281 1.066406-15.484375 3.054687-22.726562 10.964844 1.765625 19.335938 11.269531 19.335938 22.726562zm0 0" fill="#eab599"/><path d="m31.25 280.363281c0 4.542969-3.683594 8.226563-8.230469 8.226563-4.542969 0-8.226562-3.683594-8.226562-8.226563s3.683593-8.226562 8.226562-8.226562c4.546875 0 8.230469 3.683593 8.230469 8.226562zm0 0" fill="#eab599"/><path d="m173.058594 250.96875v79.132812c-12.230469 11.675782-27.914063 19.761719-45.363282 22.574219-.136718.023438-.285156.046875-.421874.066407-4.335938.695312-8.785157 1.039062-13.328126 1.039062-47.300781 0-85.648437-38.347656-85.648437-85.648438v-32.617187c0-4.175781.296875-8.285156.875-12.300781 20.378906 14.65625 49.597656 13.207031 68.214844-4.390625 6.164062-5.820313 10.449219-12.753907 12.871093-20.109375 1.347657 12.878906 7.238282 25.414062 17.679688 35.285156 12.429688 11.734375 28.851562 17.394531 45.121094 16.96875zm0 0" fill="#eab599"/><path d="m173.058594 250.96875v79.132812c-12.230469 11.675782-27.914063 19.761719-45.363282 22.574219-.136718.023438-.285156.046875-.421874.066407-40.96875-6.398438-72.304688-41.851563-72.304688-84.609376v-32.617187c0-.871094.015625-1.730469.046875-2.59375 15.101563 1.550781 30.789063-3.144531 42.371094-14.097656 6.164062-5.820313 10.449219-12.757813 12.871093-20.109375 1.347657 12.878906 7.238282 25.414062 17.679688 35.28125 12.429688 11.738281 28.851562 17.398437 45.121094 16.972656zm0 0" fill="#f6caae"/><path d="m159.949219 260.898438c0-7.859376-6.371094-14.226563-14.226563-14.226563-7.855468 0-14.226562 6.367187-14.226562 14.226563" fill="#eab599"/><path d="m96.410156 260.898438c0-7.859376-6.371094-14.226563-14.226562-14.226563-7.855469 0-14.222656 6.367187-14.222656 14.226563" fill="#eab599"/><path d="m91.902344 266.953125c0 5.367187-4.351563 9.71875-9.71875 9.71875-5.367188 0-9.714844-4.351563-9.714844-9.71875s4.347656-9.714844 9.714844-9.714844c5.367187 0 9.71875 4.347657 9.71875 9.714844zm0 0" fill="#3d4159"/><path d="m155.4375 266.953125c0 5.367187-4.347656 9.71875-9.714844 9.71875-5.367187 0-9.714844-4.351563-9.714844-9.71875s4.347657-9.714844 9.714844-9.714844c5.367188 0 9.714844 4.347657 9.714844 9.714844zm0 0" fill="#3d4159"/><path d="m123.671875 291.417969h-19.433594c-2.316406 0-4.191406-1.875-4.191406-4.191407 0-2.3125 1.875-4.191406 4.191406-4.191406h19.433594c2.3125 0 4.1875 1.878906 4.1875 4.191406 0 2.316407-1.875 4.191407-4.1875 4.191407zm0 0" fill="#eab599"/><path d="m113.953125 317.933594c-7.171875 0-14.34375-1.796875-20.882813-5.390625-1.84375-1.011719-2.515624-3.328125-1.503906-5.171875 1.015625-1.847656 3.332032-2.519532 5.175782-1.503906 10.777343 5.921874 23.644531 5.921874 34.421874 0 1.84375-1.015626 4.160157-.34375 5.175782 1.503906 1.011718 1.84375.339844 4.160156-1.503906 5.171875-6.539063 3.597656-13.710938 5.390625-20.882813 5.390625zm0 0" fill="#eab599"/><path d="m89.921875 265.238281c0 2.300781-1.867187 4.164063-4.164063 4.164063-2.300781 0-4.164062-1.863282-4.164062-4.164063s1.863281-4.164062 4.164062-4.164062c2.296876 0 4.164063 1.863281 4.164063 4.164062zm0 0" fill="#fff"/><path d="m153.933594 265.238281c0 2.300781-1.863282 4.164063-4.160156 4.164063-2.300782 0-4.164063-1.863282-4.164063-4.164063s1.863281-4.164062 4.164063-4.164062c2.296874 0 4.160156 1.863281 4.160156 4.164062zm0 0" fill="#fff"/><path d="m172.25 290.621094c0 5.890625-4.777344 10.667968-10.671875 10.667968-5.890625 0-10.667969-4.777343-10.667969-10.667968 0-5.894532 4.777344-10.671875 10.667969-10.671875 5.894531 0 10.671875 4.777343 10.671875 10.671875zm0 0" fill="#eab599"/><path d="m76.988281 290.621094c0 5.890625-4.773437 10.667968-10.667969 10.667968-5.890624 0-10.667968-4.777343-10.667968-10.667968 0-5.894532 4.777344-10.671875 10.667968-10.671875 5.894532 0 10.667969 4.777343 10.667969 10.671875zm0 0" fill="#eab599"/><path d="m477.351562 384.679688v.011718c-31.660156 54.332032-82.734374 95.941406-143.726562 115.324219-11.996094 3.8125-24.378906 6.769531-37.074219 8.785156v-84.644531c0-38.085938 29.332031-69.328125 66.65625-72.339844 1.964844-.167968 3.9375-.238281 5.933594-.238281h47.273437c5.589844 0 11.03125.613281 16.257813 1.816406 18.652344 4.261719 34.566406 15.714844 44.679687 31.285157zm0 0" fill="#bfd5de"/><path d="m477.351562 384.679688c-31.648437 54.335937-82.734374 95.953124-143.726562 115.335937v-75.859375c0-40.082031 32.507812-72.578125 72.601562-72.578125h10.195313c25.539063 0 47.992187 13.175781 60.929687 33.101563zm0 0" fill="#f74f4f"/><path d="m321.734375 271.511719c0 11.992187-8.757813 21.933593-20.226563 23.777343-1.253906.203126-2.542968.308594-3.859374.308594-13.304688 0-24.085938-10.78125-24.085938-24.085937 0-13.304688 10.78125-24.085938 24.085938-24.085938 1.316406 0 2.605468.105469 3.859374.308594 11.46875 1.847656 20.226563 11.789063 20.226563 23.777344zm0 0" fill="#d3a489"/><path d="m412.273438 377.761719-19.488282 31.253906-19.488281-31.253906" fill="#3d4159"/><path d="m409.171875 461.144531c-12.308594 9.195313-25.476563 17.324219-39.363281 24.230469l22.980468-84.488281zm0 0" fill="#3d4159"/><path d="m321.734375 271.511719c0 11.992187-8.757813 21.933593-20.226563 23.777343-2.082031-7.574218-3.195312-15.546874-3.195312-23.777343 0-8.226563 1.113281-16.199219 3.195312-23.777344 11.46875 1.847656 20.226563 11.789063 20.226563 23.777344zm0 0" fill="#bf8e75"/><path d="m306.257812 271.511719c0 4.753906-3.855468 8.609375-8.609374 8.609375-4.753907 0-8.605469-3.855469-8.605469-8.609375 0-4.753907 3.851562-8.605469 8.605469-8.605469 4.753906 0 8.609374 3.851562 8.609374 8.605469zm0 0" fill="#bf8e75"/><path d="m392.777344 381.285156-32.679688 18.160156-9.941406-46.242187 20.304688-11.960937" fill="#dd3033"/><path d="m392.777344 381.285156 32.683594 18.160156 9.941406-46.242187-20.308594-11.960937" fill="#dd3033"/><path d="m463.828125 271.511719c0 11.992187 8.757813 21.933593 20.226563 23.777343 1.253906.203126 2.542968.308594 3.859374.308594 13.304688 0 24.085938-10.78125 24.085938-24.085937 0-13.304688-10.78125-24.085938-24.085938-24.085938-1.316406 0-2.605468.105469-3.859374.308594-11.46875 1.847656-20.226563 11.789063-20.226563 23.777344zm0 0" fill="#d3a489"/><path d="m463.828125 271.511719c0 11.992187 8.757813 21.933593 20.226563 23.777343 2.085937-7.574218 3.195312-15.546874 3.195312-23.777343 0-8.226563-1.109375-16.199219-3.195312-23.777344-11.46875 1.847656-20.226563 11.789063-20.226563 23.777344zm0 0" fill="#bf8e75"/><path d="m496.523438 271.511719c0 4.753906-3.855469 8.609375-8.609376 8.609375-4.753906 0-8.609374-3.855469-8.609374-8.609375 0-4.753907 3.855468-8.605469 8.609374-8.605469 4.753907 0 8.609376 3.851562 8.609376 8.605469zm0 0" fill="#bf8e75"/><path d="m482.398438 258.710938c0 44.597656-32.578126 81.589843-75.234376 88.457031-4.675781.769531-9.480468 1.15625-14.382812 1.15625-49.496094 0-89.613281-40.117188-89.613281-89.613281 0-23.417969 8.132812-58.574219 22.839843-74.539063 16.375-17.777344 40.695313-15.074219 66.773438-15.074219 4.902344 0 9.703125.386719 14.382812 1.15625 42.65625 6.867188 75.234376 43.859375 75.234376 88.457032zm0 0" fill="#bf8e75"/><path d="m418.683594 323.605469v31.78125c0 11.640625-7.671875 21.472656-18.242188 24.742187-2.417968.75-4.996094 1.15625-7.664062 1.15625-14.300782 0-25.894532-11.59375-25.894532-25.898437v-31.78125zm0 0" fill="#bf8e75"/><path d="m418.683594 353.375v2.015625c0 11.636719-7.671875 21.472656-18.242188 24.738281-9.535156-2.929687-16.703125-11.222656-18.027344-21.367187 1.730469.105469 3.46875.160156 5.21875.160156 4.898438 0 9.703126-.390625 14.382813-1.15625 5.765625-.929687 11.335937-2.414063 16.667969-4.390625zm0 0" fill="#d3a489"/><path d="m482.398438 258.710938c0 44.597656-32.578126 81.589843-75.234376 88.457031-42.652343-6.867188-75.230468-43.859375-75.230468-88.457031 0-27.460938 12.351562-52.039063 31.808594-68.480469 12.132812-10.257813 27.035156-17.339844 43.421874-19.980469 39.765626 6.402344 70.785157 39 74.792969 79.527344.292969 2.9375.441407 5.921875.441407 8.933594zm0 0" fill="#d3a489"/><path d="m392.785156 302.847656c-7.507812 0-15.007812-1.878906-21.847656-5.640625-1.933594-1.0625-2.636719-3.484375-1.574219-5.414062 1.058594-1.929688 3.484375-2.632813 5.414063-1.574219 11.273437 6.199219 24.738281 6.199219 36.015625 0 1.925781-1.058594 4.351562-.355469 5.410156 1.574219 1.0625 1.929687.359375 4.351562-1.570313 5.414062-6.839843 3.761719-14.347656 5.640625-21.847656 5.640625zm0 0" fill="#bf8e75"/><path d="m373.699219 253.496094c0 5.613281-4.550781 10.164062-10.167969 10.164062-5.613281 0-10.164062-4.550781-10.164062-10.164062 0-5.617188 4.550781-10.167969 10.164062-10.167969 5.617188 0 10.167969 4.550781 10.167969 10.167969zm0 0" fill="#3d4159"/><path d="m432.199219 253.496094c0 5.613281-4.550781 10.164062-10.164063 10.164062-5.617187 0-10.167968-4.550781-10.167968-10.164062 0-5.617188 4.550781-10.167969 10.167968-10.167969 5.613282 0 10.164063 4.550781 10.164063 10.167969zm0 0" fill="#3d4159"/><path d="m371.625 251.699219c0 2.40625-1.949219 4.355469-4.355469 4.355469s-4.355469-1.949219-4.355469-4.355469 1.949219-4.355469 4.355469-4.355469 4.355469 1.949219 4.355469 4.355469zm0 0" fill="#fff"/><path d="m430.625 251.699219c0 2.40625-1.949219 4.355469-4.355469 4.355469s-4.355469-1.949219-4.355469-4.355469 1.949219-4.355469 4.355469-4.355469 4.355469 1.949219 4.355469 4.355469zm0 0" fill="#fff"/><path d="m402.949219 279.089844h-20.332031c-2.421876 0-4.386719-1.964844-4.386719-4.386719s1.964843-4.382813 4.386719-4.382813h20.332031c2.421875 0 4.386719 1.960938 4.386719 4.382813-.003907 2.421875-1.964844 4.386719-4.386719 4.386719zm0 0" fill="#bf8e75"/><path d="m451.082031 421.773438c-3.480469 4.09375-7.09375 8.078124-10.824219 11.953124h-17.972656v-11.953124zm0 0" fill="#dd3033"/><path d="m387.539062 143.492188c27.148438 1.941406 48.945313 23.871093 50.324219 51.476562l.257813 5.183594h15.617187l8.410157 55.929687 20.371093-6.304687-2.734375-54.808594c-1.445312-28.996094-25.429687-51.722656-54.453125-51.617188zm0 0" fill="#2a2f4f"/><path d="m478.058594 121.863281c21.617187 21.617188 21.617187 56.667969 0 78.285157-21.617188 21.617187-56.667969 21.617187-78.285156 0zm0 0" fill="#3d4159"/><path d="m399.773438 200.148438h-67.9375l-8.414063 55.933593-20.371094-6.304687 2.730469-54.808594c1.445312-28.992188 25.429688-51.726562 54.457031-51.617188l98.121094.371094 12.972656 23.347656" fill="#3d4159"/><path d="m382.121094 378.242188v29.246093c-25.550782 14.503907-53.84375 24.722657-83.90625 29.707031-6.449219 1.066407-12.96875 1.902344-19.5625 2.476563-4.105469.367187-8.242188.628906-12.414063.785156-3.394531.144531-6.8125.207031-10.238281.207031-7.648438 0-15.203125-.332031-22.675781-.992187-18.953125-1.660156-37.3125-5.390625-54.855469-10.960937-17.03125-5.402344-33.300781-12.550782-48.589844-21.222657v-29.246093c0-44.011719 29.886719-81.042969 70.480469-91.898438 1.484375-.398438 2.976563-.761719 4.492187-1.085938 4.035157-.878906 8.171876-1.484374 12.382813-1.828124 2.570313-.210938 5.160156-.316407 7.785156-.316407h61.953125c6.925782 0 13.675782.734375 20.175782 2.144531.375.074219.75.15625 1.117187.238282 1.097656.253906 2.195313.523437 3.269531.816406.03125.011719.054688.011719.085938.019531 10.710937 2.863281 20.675781 7.554688 29.539062 13.710938 24.753906 17.175781 40.960938 45.796875 40.960938 78.199219zm0 0" fill="#3d4159"/><path d="m311.851562 285.257812-.230468 1.074219-32.96875 153.339844c-7.460938.660156-15.023438.992187-22.652344.992187-7.648438 0-15.203125-.332031-22.675781-.992187l-32.964844-153.328125-.230469-1.085938zm0 0" fill="#f2f0ec"/><path d="m162.886719 178.199219c0 15.714843-11.480469 28.742187-26.511719 31.160156-1.640625.269531-3.332031.40625-5.054688.40625-17.4375 0-31.566406-14.128906-31.566406-31.566406 0-17.433594 14.128906-31.5625 31.566406-31.5625 1.722657 0 3.414063.136719 5.054688.40625 15.03125 2.417969 26.511719 15.445312 26.511719 31.15625zm0 0" fill="#f6caae"/><path d="m281.535156 317.441406-25.539062 40.960938-25.539063-40.960938" fill="#f74f4f"/><path d="m279.574219 439.582031c-7.765625.71875-15.632813 1.085938-23.574219 1.085938-7.953125 0-15.820312-.367188-23.582031-1.078125l23.582031-91.847656zm0 0" fill="#f74f4f"/><path d="m162.886719 178.199219c0 15.714843-11.480469 28.742187-26.511719 31.160156-2.730469-9.925781-4.1875-20.375-4.1875-31.160156 0-10.78125 1.457031-21.230469 4.1875-31.15625 15.03125 2.417969 26.511719 15.445312 26.511719 31.15625zm0 0" fill="#eab599"/><path d="m142.601562 178.199219c0 6.234375-5.050781 11.285156-11.28125 11.285156-6.230468 0-11.28125-5.050781-11.28125-11.285156 0-6.230469 5.050782-11.28125 11.28125-11.28125 6.230469 0 11.28125 5.050781 11.28125 11.28125zm0 0" fill="#eab599"/><path d="m255.988281 322.058594-42.828125 23.804687-13.03125-60.601562 26.613282-15.675781" fill="#d8d5d0"/><path d="m255.988281 322.058594 42.832031 23.804687 13.027344-60.601562-26.613281-15.675781" fill="#d8d5d0"/><path d="m349.101562 178.199219c0 15.714843 11.476563 28.742187 26.507813 31.160156 1.644531.269531 3.332031.40625 5.058594.40625 17.4375 0 31.5625-14.128906 31.5625-31.566406 0-17.433594-14.125-31.5625-31.5625-31.5625-1.726563 0-3.414063.136719-5.058594.40625-15.03125 2.417969-26.507813 15.445312-26.507813 31.15625zm0 0" fill="#f6caae"/><g fill="#eab599"><path d="m349.101562 178.199219c0 15.714843 11.476563 28.742187 26.507813 31.160156 2.730469-9.925781 4.191406-20.375 4.191406-31.160156 0-10.78125-1.457031-21.230469-4.191406-31.15625-15.03125 2.417969-26.507813 15.445312-26.507813 31.15625zm0 0"/><path d="m391.949219 178.199219c0 6.234375-5.050781 11.285156-11.28125 11.285156s-11.28125-5.050781-11.28125-11.285156c0-6.230469 5.050781-11.28125 11.28125-11.28125s11.28125 5.050781 11.28125 11.28125zm0 0"/><path d="m373.4375 161.421875c0 58.445313-42.695312 106.925781-98.59375 115.929687-6.132812 1.003907-12.425781 1.515626-18.847656 1.515626-64.867188 0-117.445313-52.578126-117.445313-117.445313 0-30.6875-2.632812-76.761719 16.640625-97.683594 21.460938-23.296875 66.625-19.757812 100.804688-19.757812 6.421875 0 12.714844.507812 18.847656 1.515625 55.898438 9 98.59375 57.484375 98.59375 115.925781zm0 0"/><path d="m289.9375 246.46875v41.65625c0 15.25-10.054688 28.136719-23.90625 32.417969-3.167969.984375-6.546875 1.515625-10.042969 1.515625-18.746093 0-33.9375-15.191406-33.9375-33.933594v-41.65625zm0 0"/></g><path d="m289.9375 285.484375v2.640625c0 15.25-10.054688 28.136719-23.90625 32.417969-12.496094-3.839844-21.890625-14.707031-23.625-28 2.265625.140625 4.546875.207031 6.835938.207031 6.421874 0 12.71875-.507812 18.847656-1.515625 7.558594-1.214844 14.859375-3.15625 21.847656-5.75zm0 0" fill="#f6caae"/><path d="m373.4375 161.421875c0 58.445313-42.695312 106.925781-98.59375 115.929687-55.898438-9.003906-98.59375-57.484374-98.59375-115.929687 0-35.984375 16.1875-68.195313 41.6875-89.742187 15.898438-13.445313 35.429688-22.726563 56.90625-26.183594 52.113281 8.386718 92.761719 51.105468 98.015625 104.21875.382813 3.851562.578125 7.761718.578125 11.707031zm0 0" fill="#f6caae"/><path d="m255.996094 219.265625c-9.835938 0-19.667969-2.460937-28.632813-7.390625-2.53125-1.390625-3.453125-4.566406-2.0625-7.09375 1.390625-2.53125 4.566407-3.453125 7.09375-2.0625 14.777344 8.125 32.421875 8.121094 47.199219 0 2.527344-1.390625 5.703125-.46875 7.09375 2.0625 1.390625 2.527344.46875 5.703125-2.0625 7.09375-8.960938 4.925781-18.796875 7.390625-28.628906 7.390625zm0 0" fill="#eab599"/><path d="m230.984375 154.585938c0 7.359374-5.964844 13.324218-13.324219 13.324218-7.355468 0-13.320312-5.964844-13.320312-13.324218 0-7.355469 5.964844-13.320313 13.320312-13.320313 7.359375 0 13.324219 5.964844 13.324219 13.320313zm0 0" fill="#3d4159"/><path d="m307.652344 154.585938c0 7.359374-5.964844 13.324218-13.324219 13.324218-7.355469 0-13.320313-5.964844-13.320313-13.324218 0-7.355469 5.964844-13.320313 13.320313-13.320313 7.359375 0 13.324219 5.964844 13.324219 13.320313zm0 0" fill="#3d4159"/><path d="m228.265625 152.238281c0 3.152344-2.554687 5.707031-5.707031 5.707031s-5.707032-2.554687-5.707032-5.707031c0-3.15625 2.554688-5.710937 5.707032-5.710937s5.707031 2.554687 5.707031 5.710937zm0 0" fill="#fff"/><path d="m305.589844 152.238281c0 3.152344-2.558594 5.707031-5.710938 5.707031s-5.707031-2.554687-5.707031-5.707031c0-3.15625 2.554687-5.710937 5.707031-5.710937s5.710938 2.554687 5.710938 5.710937zm0 0" fill="#fff"/><path d="m269.316406 188.132812h-26.644531c-3.175781 0-5.746094-2.574218-5.746094-5.746093 0-3.175781 2.570313-5.75 5.746094-5.75h26.644531c3.175782 0 5.746094 2.574219 5.746094 5.75 0 3.171875-2.570312 5.746093-5.746094 5.746093zm0 0" fill="#eab599"/><path d="m373.4375 94.554688v45.8125h-21.859375v-35.875l-157.78125-29.320313-33.382813-6.207031v71.402344h-21.859374v-45.8125c0-52.222657 42.328124-94.55078175 94.542968-94.55078175h45.796875c1.242188 0 2.484375.01953125 3.730469.08203125 50.476562 1.9414065 90.8125 43.4882815 90.8125 94.4687505zm0 0" fill="#2a2f4f"/><path d="m373.4375 94.554688v45.8125h-21.859375v-35.875l-157.78125-29.320313c8.695313-41.753906 44.921875-73.394531 88.828125-75.0859375 50.476562 1.9414065 90.8125 43.4882815 90.8125 94.4687505zm0 0" fill="#3d4159"/><path d="m341.160156 300.042969-27.691406 67h13.585938l-28.839844 70.152343c-6.449219 1.066407-12.96875 1.902344-19.5625 2.476563-4.105469.367187-8.242188.628906-12.414063.785156l45.296875-154.144531.316406-1.054688zm0 0" fill="#2a2f4f"/><path d="m170.507812 300.042969 27.6875 67h-13.582031l28.839844 70.152343c6.445313 1.066407 12.964844 1.902344 19.558594 2.476563 4.105469.367187 8.246093.628906 12.414062.785156l-45.296875-154.144531-.3125-1.054688zm0 0" fill="#2a2f4f"/><path d="m310.792969 363.90625h11.035156v52.246094h-11.035156zm0 0" fill="#d8d5d0"/><path d="m250.476562 363.90625h11.039063v52.246094h-11.039063zm0 0" fill="#d8d5d0"/><path d="m190.171875 363.90625h11.035156v52.246094h-11.035156zm0 0" fill="#d8d5d0"/><path d="m332.734375 346.144531v17.761719c0 7.21875-4.566406 13.363281-10.972656 15.707031-1.785157.65625-3.730469 1.011719-5.746094 1.011719-9.238281 0-16.71875-7.480469-16.71875-16.71875v-17.761719c0-9.238281 7.480469-16.71875 16.71875-16.71875 2.015625 0 3.960937.355469 5.746094 1.011719 2.308593.847656 4.378906 2.175781 6.082031 3.878906 3.019531 3.027344 4.890625 7.207032 4.890625 11.828125zm0 0" fill="#2da365"/><path d="m332.734375 346.144531v17.761719c0 7.21875-4.566406 13.363281-10.972656 15.707031-6.402344-2.34375-10.96875-8.488281-10.96875-15.707031v-17.761719c0-7.222656 4.566406-13.367187 10.96875-15.707031 2.308593.847656 4.378906 2.175781 6.082031 3.878906 3.019531 3.027344 4.890625 7.207032 4.890625 11.828125zm0 0" fill="#3fb777"/><path d="m272.71875 346.144531v17.761719c0 7.21875-4.566406 13.363281-10.972656 15.707031-1.785156.65625-3.730469 1.011719-5.746094 1.011719-9.238281 0-16.71875-7.480469-16.71875-16.71875v-17.761719c0-9.238281 7.480469-16.71875 16.71875-16.71875 2.015625 0 3.960938.355469 5.746094 1.011719 2.308594.847656 4.378906 2.175781 6.082031 3.878906 3.019531 3.027344 4.890625 7.207032 4.890625 11.828125zm0 0" fill="#2da365"/><path d="m272.71875 346.144531v17.761719c0 7.21875-4.566406 13.363281-10.972656 15.707031-6.40625-2.34375-10.96875-8.488281-10.96875-15.707031v-17.761719c0-7.222656 4.5625-13.367187 10.96875-15.707031 2.308594.847656 4.378906 2.175781 6.082031 3.878906 3.019531 3.027344 4.890625 7.207032 4.890625 11.828125zm0 0" fill="#3fb777"/><path d="m212.570312 346.144531v17.761719c0 7.21875-4.566406 13.363281-10.972656 15.707031-1.785156.65625-3.726562 1.011719-5.746094 1.011719-9.234374 0-16.71875-7.480469-16.71875-16.71875v-17.761719c0-9.238281 7.484376-16.71875 16.71875-16.71875 2.019532 0 3.960938.355469 5.746094 1.011719 2.3125.847656 4.378906 2.175781 6.082032 3.878906 3.019531 3.027344 4.890624 7.207032 4.890624 11.828125zm0 0" fill="#2da365"/><path d="m212.570312 346.144531v17.761719c0 7.21875-4.566406 13.363281-10.972656 15.707031-6.402344-2.34375-10.96875-8.488281-10.96875-15.707031v-17.761719c0-7.222656 4.566406-13.367187 10.96875-15.707031 2.3125.847656 4.378906 2.175781 6.082032 3.878906 3.019531 3.027344 4.890624 7.207032 4.890624 11.828125zm0 0" fill="#3fb777"/><path d="m394.730469 426.902344v44.285156c-39.964844 25.828125-87.59375 40.8125-138.730469 40.8125-35.160156 0-68.660156-7.085938-99.160156-19.925781-13.910156-5.839844-27.179688-12.882813-39.707032-20.980469v-44.191406zm0 0" fill="#a35418"/><path d="m394.730469 461.386719v9.800781c-39.964844 25.828125-87.59375 40.8125-138.730469 40.8125-35.160156 0-68.660156-7.085938-99.160156-19.925781v-30.6875zm0 0" fill="#cc7a3b"/><path d="m91.421875 405.703125h329.023437v35.527344h-329.023437zm0 0" fill="#cc7a3b"/></svg>