<svg height="512pt" viewBox="0 0 512 512" width="512pt" xmlns="http://www.w3.org/2000/svg"><path d="m512 256c0 141.386719-114.613281 256-256 256s-256-114.613281-256-256 114.613281-256 256-256 256 114.613281 256 256zm0 0" fill="#3fb777"/><path d="m382.121094 449.578125v29.246094c-25.546875 14.503906-53.84375 24.722656-83.902344 29.707031-6.449219 1.0625-12.96875 1.898438-19.5625 2.476562-4.105469.363282-8.242188.625-12.414062.78125-3.394532.148438-6.8125.210938-10.238282.210938-7.648437 0-15.203125-.335938-22.675781-.992188-18.953125-1.664062-37.3125-5.394531-54.855469-10.960937-.628906-.199219-1.265625-.410156-1.890625-.617187-16.34375-5.320313-31.976562-12.257813-46.699219-20.605469v-29.246094c0-44.011719 29.886719-81.042969 70.480469-91.898437 1.484375-.398438 2.976563-.765626 4.492188-1.089844 4.035156-.875 8.171875-1.480469 12.382812-1.828125 2.570313-.207031 5.160157-.3125 7.785157-.3125h61.949218c6.929688 0 13.679688.730469 20.179688 2.140625.375.074218.75.15625 1.117187.242187 1.097657.25 2.195313.523438 3.269531.816407.03125.007812.050782.007812.085938.019531 10.707031 2.863281 20.675781 7.554687 29.539062 13.707031 24.75 17.179688 40.957032 45.800781 40.957032 78.203125zm0 0" fill="#2a2f4f"/><path d="m382.121094 449.578125v29.246094c-25.546875 14.503906-53.84375 24.722656-83.902344 29.707031-6.449219 1.0625-12.96875 1.898438-19.5625 2.476562-4.105469.363282-8.242188.625-12.414062.78125-3.394532.148438-6.8125.210938-10.238282.210938-7.648437 0-15.203125-.335938-22.675781-.992188-18.953125-1.664062-37.3125-5.394531-54.855469-10.960937-.628906-.199219-1.265625-.410156-1.890625-.617187v-49.851563c0-44.011719 29.882813-81.042969 70.476563-91.898437 1.484375-.398438 2.976562-.765626 4.492187-1.089844 4.035157-.875 8.171875-1.480469 12.382813-1.828125 2.570312-.207031 5.164062-.3125 7.785156-.3125h15.253906c6.929688 0 13.679688.730469 20.179688 2.140625.375.074218.75.15625 1.117187.242187 1.097657.25 2.195313.523438 3.269531.816407.03125.007812.050782.007812.085938.019531 10.707031 2.863281 20.675781 7.554687 29.539062 13.707031 24.75 17.179688 40.957032 45.800781 40.957032 78.203125zm0 0" fill="#3d4159"/><path d="m311.851562 356.589844-.230468 1.078125-32.96875 153.335937c-7.460938.660156-15.023438.992188-22.652344.992188-7.648438 0-15.203125-.332032-22.675781-.992188l-32.964844-153.328125-.230469-1.085937zm0 0" fill="#f2f0ec"/><path d="m255.988281 393.394531-42.828125 23.800781-13.03125-60.601562 26.613282-15.675781" fill="#d8d5d0"/><path d="m255.988281 393.394531 42.832031 23.800781 13.027344-60.601562-26.613281-15.675781" fill="#d8d5d0"/><path d="m128.109375 331.511719v-143.472657c0-14.578124 2.433594-28.863281 7.230469-42.453124 17.957031-51.101563 66.445312-85.445313 120.65625-85.445313 6.714844 0 13.414062.523437 19.925781 1.550781 29.78125 4.652344 57.105469 19.855469 76.917969 42.808594 20.023437 23.191406 31.050781 52.859375 31.050781 83.539062v143.472657" fill="#f74f4f"/><path d="m180.71875 193.640625c0 50.75 29.714844 109.460937 46.039062 137.875h-98.648437v-143.476563c0-14.578124 2.433594-28.859374 7.230469-42.453124 17.84375-50.804688 65.890625-85.046876 119.722656-85.433594-39.320312.984375-74.34375 64.0625-74.34375 133.488281zm0 0" fill="#dd3033"/><path d="m289.945312 317.800781v41.65625c0 15.25-10.054687 28.136719-23.90625 32.417969-3.167968.984375-6.550781 1.519531-10.042968 1.519531-18.746094 0-33.9375-15.195312-33.9375-33.9375v-41.65625zm0 0" fill="#eab599"/><path d="m289.945312 356.816406v2.640625c0 15.25-10.054687 28.136719-23.90625 32.417969-12.496093-3.839844-21.890624-14.707031-23.625-28 2.265626.140625 4.546876.207031 6.835938.207031 6.421875 0 12.714844-.507812 18.847656-1.515625 7.558594-1.214844 14.859375-3.15625 21.847656-5.75zm0 0" fill="#f6caae"/><path d="m162.890625 249.53125c0 15.714844-11.476563 28.742188-26.507813 31.160156-1.644531.269532-3.332031.40625-5.058593.40625-17.4375 0-31.5625-14.128906-31.5625-31.566406 0-17.433594 14.125-31.5625 31.5625-31.5625 1.726562 0 3.414062.136719 5.058593.40625 15.03125 2.417969 26.507813 15.445312 26.507813 31.15625zm0 0" fill="#f6caae"/><path d="m162.890625 249.53125c0 15.714844-11.476563 28.742188-26.507813 31.160156-2.730468-9.925781-4.191406-20.375-4.191406-31.160156 0-10.78125 1.460938-21.230469 4.191406-31.15625 15.03125 2.417969 26.507813 15.445312 26.507813 31.15625zm0 0" fill="#eab599"/><path d="m142.609375 249.53125c0 6.234375-5.050781 11.285156-11.28125 11.285156s-11.28125-5.050781-11.28125-11.285156c0-6.230469 5.050781-11.28125 11.28125-11.28125s11.28125 5.050781 11.28125 11.28125zm0 0" fill="#eab599"/><path d="m337.046875 209.226562v108.503907c-16.769531 16.007812-38.273437 27.09375-62.199219 30.949219-.191406.03125-.386718.0625-.578125.09375-5.945312.953124-12.046875 1.421874-18.273437 1.421874-64.855469 0-117.4375-52.578124-117.4375-117.4375v-44.71875c0-5.726562.410156-11.359374 1.203125-16.867187 27.941406 20.09375 68 18.109375 93.527343-6.015625 8.453126-7.984375 14.328126-17.492188 17.648438-27.578125 1.851562 17.660156 9.925781 34.847656 24.242188 48.378906 17.042968 16.09375 39.558593 23.855469 61.867187 23.269531zm0 0" fill="#eab599"/><path d="m337.046875 209.230469v108.5c-16.773437 16.007812-38.277344 27.09375-62.203125 30.949219-.1875.03125-.386719.0625-.574219.097656-56.175781-8.777344-99.140625-57.386719-99.140625-116.015625v-44.722657c0-1.191406.019532-2.371093.0625-3.554687 20.710938 2.121094 42.214844-4.3125 58.09375-19.328125 8.457032-7.984375 14.328125-17.492188 17.648438-27.574219 1.851562 17.65625 9.929687 34.847657 24.242187 48.378907 5.039063 4.753906 10.542969 8.777343 16.394531 12.078124 3 1.691407 6.082032 3.195313 9.226563 4.503907h.011719c10.972656 4.554687 22.757812 6.789062 34.523437 6.707031.574219 0 1.140625-.011719 1.714844-.019531zm0 0" fill="#f6caae"/><path d="m228.445312 218.476562h86.261719v41.460938h-86.261719zm0 0" fill="#eab599"/><path d="m335.9375 263.59375c0 8.078125-6.550781 14.628906-14.628906 14.628906-8.082032 0-14.628906-6.550781-14.628906-14.628906s6.546874-14.628906 14.628906-14.628906c8.078125 0 14.628906 6.550781 14.628906 14.628906zm0 0" fill="#eab599"/><path d="m205.324219 263.59375c0 8.078125-6.550781 14.628906-14.628907 14.628906-8.078124 0-14.628906-6.550781-14.628906-14.628906s6.550782-14.628906 14.628906-14.628906c8.078126 0 14.628907 6.550781 14.628907 14.628906zm0 0" fill="#eab599"/><path d="m176.554688 234.988281v.011719c.289062 17.863281 14.753906 32.238281 32.621093 32.449219.78125.007812 1.566407.007812 2.351563-.003907 18.007812-.242187 32.460937-14.964843 32.460937-32.976562v.523438-10.449219l-.347656-12.96875c-.046875-1.765625-1.191406-3.308594-2.863281-3.890625-19.878906-6.925782-41.527344-6.878906-61.375.128906-1.699219.597656-2.84375 2.195312-2.84375 3.996094v23.699218-.519531zm0 0" fill="#dde8ed"/><path d="m336.460938 224.535156v9.929688c0 18.011718-14.453126 32.734375-32.464844 32.984375-.785156.011719-1.566406.011719-2.351563 0-17.867187-.207031-32.328125-14.585938-32.613281-32.453125v-23.1875c0-1.804688 1.140625-3.394532 2.84375-4 9.363281-3.300782 19.121094-5.058594 28.921875-5.265625h.011719c10.972656 4.554687 22.757812 6.789062 34.523437 6.707031.480469.667969.753907 1.464844.785157 2.320312zm0 0" fill="#dde8ed"/><path d="m319.070312 222.839844c0-10.769532-8.734374-19.503906-19.503906-19.503906-10.773437 0-19.507812 8.730468-19.507812 19.503906" fill="#bfd5de"/><path d="m231.953125 222.839844c0-10.769532-8.734375-19.503906-19.507813-19.503906-10.769531 0-19.503906 8.730468-19.503906 19.503906" fill="#bfd5de"/><path d="m225.769531 231.144531c0 7.359375-5.964843 13.324219-13.320312 13.324219-7.359375 0-13.324219-5.964844-13.324219-13.324219 0-7.355469 5.964844-13.320312 13.324219-13.320312 7.355469 0 13.320312 5.964843 13.320312 13.320312zm0 0" fill="#3d4159"/><path d="m312.886719 231.144531c0 7.359375-5.964844 13.324219-13.320313 13.324219-7.359375 0-13.324218-5.964844-13.324218-13.324219 0-7.355469 5.964843-13.320312 13.324218-13.320312 7.355469 0 13.320313 5.964843 13.320313 13.320312zm0 0" fill="#3d4159"/><path d="m256.007812 301.046875c-9.835937 0-19.667968-2.464844-28.632812-7.390625-2.53125-1.390625-3.453125-4.566406-2.0625-7.09375 1.390625-2.53125 4.566406-3.453125 7.09375-2.0625 14.777344 8.125 32.421875 8.121094 47.199219 0 2.523437-1.390625 5.703125-.46875 7.09375 2.0625 1.390625 2.527344.46875 5.703125-2.0625 7.09375-8.960938 4.925781-18.796875 7.390625-28.628907 7.390625zm0 0" fill="#eab599"/><path d="m223.054688 228.792969c0 3.152343-2.558594 5.710937-5.710938 5.710937s-5.707031-2.558594-5.707031-5.710937c0-3.152344 2.554687-5.707031 5.707031-5.707031s5.710938 2.554687 5.710938 5.707031zm0 0" fill="#fff"/><path d="m270.375 267.300781h-26.644531c-3.175781 0-5.75-2.574219-5.75-5.746093 0-3.175782 2.574219-5.746094 5.75-5.746094h26.644531c3.171875 0 5.746094 2.570312 5.746094 5.746094 0 3.171874-2.574219 5.746093-5.746094 5.746093zm0 0" fill="#eab599"/><path d="m310.824219 228.792969c0 3.152343-2.554688 5.710937-5.707031 5.710937-3.152344 0-5.710938-2.558594-5.710938-5.710937 0-3.152344 2.558594-5.707031 5.710938-5.707031 3.152343 0 5.707031 2.554687 5.707031 5.707031zm0 0" fill="#fff"/><g fill="#f2f0ec"><path d="m182.496094 235.511719h-10.449219v-23.703125c0-4 2.542969-7.585938 6.328125-8.921875 20.890625-7.375 43.917969-7.421875 64.835938-.132813 3.703124 1.289063 6.261718 4.777344 6.367187 8.683594l.347656 13.105469v10.449219h-10.449219v-10.378907l-.328124-12.207031c-18.304688-6.222656-38.371094-6.183594-56.652344.109375zm0 0"/><path d="m337.046875 209.230469v25.753906h-5.101563v-10.375l-.324218-12.203125c-18.304688-6.226562-38.367188-6.1875-56.652344.105469v22.996093h-10.449219v-23.699218c0-4 2.550781-7.585938 6.332031-8.921875 6.730469-2.371094 13.6875-3.992188 20.71875-4.847657 13.929688 7.867188 29.761719 11.597657 45.476563 11.191407zm0 0"/><path d="m244.355469 211.574219h25.390625v10.449219h-25.390625zm0 0"/><path d="m178.910156 213.710938-3.292968 9.917968-7.167969-2.382812-29.894531-9.246094v-10.992188l31.472656 9.746094zm0 0"/></g><path d="m228.574219 383.644531-10.511719 13.667969-28.703125 7.65625-16.949219 4.515625-13.226562-12.195313c-.367188-.34375-.742188-.679687-1.097656-1.035156-37.28125-34.792968-54.898438-62.148437-71.136719-110.496094-.167969-.46875-.324219-.949218-.480469-1.433593l-5.632812-17.082031 11.140624-13.5625 18.847657-22.957032 16.769531-3.917968 2.605469 6.613281 7.324219 18.632812 10.605468 26.976563-13.804687 12.601562-9.320313 8.507813c4.273438 13.699219 25.046875 45.964843 35.746094 55.535156l11.597656-4.964844 17.179688-7.375 20.175781 20.84375 13.929687 14.378907.011719-.011719zm0 0" fill="#66baed"/><path d="m189.53125 343.335938-17.1875 7.371093 45.722656 46.601563 10.507813-13.660156zm0 0" fill="#f2f0ec"/><path d="m148.132812 279.03125-13.828124 12.589844-23.488282-60.910156 16.785156-3.910157zm0 0" fill="#f2f0ec"/><path d="m189.359375 404.96875-16.949219 4.515625-13.226562-12.195313c-.367188-.34375-.742188-.679687-1.097656-1.035156-37.28125-34.792968-54.898438-62.148437-71.136719-110.496094-.167969-.46875-.324219-.949218-.480469-1.433593l-5.632812-17.082031 11.140624-13.5625s3.550782 92.558593 97.371094 151.28125c0 0 .011719 0 .011719.007812zm0 0" fill="#2ba1cf"/><path d="m157.808594 344.125-15.886719 15.886719c-4.234375 4.234375-9.78125 6.355469-15.332031 6.347656-3.523438.007813-7.054688-.851563-10.246094-2.566406-1.824219-.980469-3.539062-2.238281-5.085938-3.78125-8.464843-8.464844-8.464843-22.195313 0-30.660157l15.886719-15.886718c8.46875-8.46875 22.195313-8.46875 30.664063 0 1.542968 1.542968 2.800781 3.257812 3.78125 5.082031 4.410156 8.210937 3.140625 18.65625-3.78125 25.578125zm0 0" fill="#eab599"/><path d="m157.808594 344.125-15.886719 15.886719c-4.234375 4.234375-9.78125 6.355469-15.332031 6.347656-3.523438.007813-7.054688-.851563-10.246094-2.566406-4.410156-8.207031-3.140625-18.652344 3.78125-25.578125l15.886719-15.882813c6.921875-6.925781 17.371093-8.195312 25.578125-3.785156 4.410156 8.210937 3.140625 18.65625-3.78125 25.578125zm0 0" fill="#f6caae"/><path d="m137.261719 482.855469c-12.078125-6.339844-23.59375-13.613281-34.449219-21.734375-5.664062-4.230469-11.140625-8.691406-16.417969-13.371094-.917969-31.984375 4.378907-64.105469 15.871094-94.535156 4.589844 1.734375 9.1875 3.46875 13.773437 5.203125 9.90625 3.742187 19.8125 7.492187 29.726563 11.234375-13.730469 36.332031-16.5625 75.640625-8.503906 113.203125zm0 0" fill="#2a2f4f"/><path d="m137.261719 482.855469c-12.078125-6.339844-23.59375-13.613281-34.449219-21.734375-2.863281-34.554688 1.542969-69.558594 13.226562-102.703125 9.90625 3.742187 19.8125 7.492187 29.726563 11.234375-13.730469 36.332031-16.5625 75.640625-8.503906 113.203125zm0 0" fill="#3d4159"/><path d="m294.8125 17h190.539062v143.226562h-190.539062zm0 0" fill="#f2f0ec"/><path d="m391.609375 151.273438-20.460937 48.59375 89.515624-51.152344zm0 0" fill="#f2f0ec"/><path d="m387.199219 115.652344c-6.328125 0-11.476563 5.203125-11.476563 11.59375 0 6.222656 5.253906 11.472656 11.476563 11.472656 6.324219 0 11.472656-5.144531 11.472656-11.472656 0-6.390625-5.148437-11.59375-11.472656-11.59375zm0 0" fill="#3d4159"/><path d="m388.160156 38.503906c-11.679687 0-24.695312 6.488282-24.695312 15.800782 0 5.675781 4.710937 9.191406 9.070312 9.191406 3.480469 0 5.664063-2.105469 7.109375-3.496094 1.734375-1.671875 3.234375-3.117188 8.035157-3.117188 9.914062 0 9.914062 6.5625 9.914062 8.71875 0 6.84375-4.3125 10.644532-8.878906 14.671876-1.164063 1.023437-2.261719 1.996093-3.289063 3.023437-.363281.359375-.757812.675781-1.214843 1.035156-4.207032 3.335938-6.085938 6.6875-6.085938 17.742188 0 6.054687 3.390625 9.671875 9.074219 9.671875 6.394531 0 9.308593-4.390625 9.308593-8.46875 0-2.328125 0-4.96875.238282-5.695313.078125-.238281 1.074218-1.226562 1.875-2.019531l.921875-.914062.191406-.199219c.667969-.742188 1.648437-1.648438 2.78125-2.699219 5.304687-4.914062 14.179687-13.140625 14.179687-26.992188 0-15.703124-11.46875-26.253906-28.535156-26.253906zm0 0" fill="#3d4159"/></svg>