<svg height="512pt" viewBox="0 0 512 512" width="512pt" xmlns="http://www.w3.org/2000/svg"><path d="m512 256c0 141.386719-114.613281 256-256 256s-256-114.613281-256-256 114.613281-256 256-256 256 114.613281 256 256zm0 0" fill="#854f89"/><path d="m512 166.316406c0 62.066406-34 116.191406-84.394531 144.761719v.007813c-24.179688 13.710937-52.140625 21.546874-81.921875 21.546874-21.722656 0-42.476563-4.167968-61.492188-11.746093h-.019531c-61.410156-24.449219-104.804687-84.4375-104.804687-154.570313 0-46.613281 19.175781-88.753906 50.070312-118.941406 29.980469-29.308594 71.003906-47.375 116.246094-47.375 18.996094 0 37.25 3.1875 54.25 9.046875 65.214844 22.5 112.066406 84.410156 112.066406 157.269531zm0 0" fill="#66baed"/><path d="m380.78125 328.914062c-11.316406 2.433594-23.058594 3.71875-35.097656 3.71875-21.722656 0-42.476563-4.167968-61.492188-11.746093h-.019531c-61.410156-24.449219-104.804687-84.4375-104.804687-154.570313 0-46.613281 19.175781-88.753906 50.070312-118.941406 29.980469-29.308594 71.003906-47.375 116.246094-47.375 12.039062 0 23.769531 1.273438 35.078125 3.71875-31.191407 6.699219-59.132813 22.152344-81.125 43.65625-30.898438 30.1875-50.074219 72.328125-50.074219 118.941406 0 70.132813 43.394531 130.121094 104.804688 154.570313h.019531c8.476562 3.375 17.292969 6.082031 26.394531 8.027343zm0 0" fill="#2ba1cf"/><path d="m512 166.316406c0 62.066406-34 116.191406-84.394531 144.761719-28.988281-59.039063-96.402344-6.78125-104.242188-80.4375-7.824219-73.664063 80.71875-47.804687 106.582031-73.664063 25.859376-25.863281 0-65.832031-21.945312-43.886718-21.941406 21.941406-54.855469 15.671875-47.019531-6.269532 7.835937-21.941406 45.453125-31.347656 18.390625-40.75-27.074219-9.394531 0-36.46875 20.542968-57.011718l.019532-.011719c43.25 14.921875 78.421875 47.179687 97.199218 88.464844-20.167968 0-38.976562 34.386719-20.167968 53.195312 10.207031 10.207031 22.894531 12.996094 35.023437 13.90625.011719.5625.011719 1.140625.011719 1.703125zm0 0" fill="#ffe152"/><path d="m284.191406 320.886719h-.019531c-61.410156-24.449219-104.804687-84.4375-104.804687-154.570313 0-46.613281 19.175781-88.753906 50.070312-118.941406 45.351562 10.867188 53.1875 42.203125 23.40625 53.175781-29.351562 10.8125-31.292969 30.761719-1.347656 40.332031.449218.148438.886718.28125 1.347656.417969 21.179688 6.355469 13.019531 26.3125-2.726562 38.589844-7.542969 5.882813-16.84375 10-25.484376 10-26.644531 0-4.703124 54.070313 27.429688 54.070313 32.128906 0 32.128906 76.925781 32.128906 76.925781zm0 0" fill="#ffe152"/><path d="m284.191406 320.886719h-.019531c-61.410156-24.449219-104.804687-84.4375-104.804687-154.570313 0-46.613281 19.175781-88.753906 50.070312-118.941406 45.351562 10.867188 53.1875 42.203125 23.40625 53.175781-29.351562 10.8125-31.292969 30.761719-1.347656 40.332031-1.273438 8.296876-1.933594 16.78125-1.933594 25.433594 0 4.566406.1875 9.089844.554688 13.574219-7.542969 5.882813-16.84375 10-25.484376 10-26.644531 0-4.703124 54.070313 27.429688 54.070313 32.128906 0 32.128906 76.925781 32.128906 76.925781zm0 0" fill="#e8c934"/><path d="m306.910156 449.578125v57.351563c-16.457031 3.324218-33.476562 5.070312-50.90625 5.070312-79.015625 0-149.660156-35.800781-196.621094-92.054688 9.929688-30.347656 34.714844-53.960937 65.769532-62.265624 1.480468-.398438 2.976562-.765626 4.492187-1.089844 4.03125-.875 8.171875-1.480469 12.382813-1.828125 2.570312-.207031 5.160156-.3125 7.78125-.3125h61.953125c6.929687 0 13.679687.730469 20.175781 2.140625.378906.074218.753906.15625 1.121094.242187 1.097656.25 2.191406.523438 3.269531.816407.03125.007812.050781.007812.082031.019531 10.710938 2.863281 20.679688 7.554687 29.539063 13.707031 24.753906 17.179688 40.960937 45.800781 40.960937 78.203125zm0 0" fill="#66baed"/><path d="m236.640625 356.589844-.230469 1.078125-32.054687 149.105469c-.378907-.070313-.742188-.15625-1.109375-.230469-3.386719-.699219-6.738282-1.472657-10.0625-2.316407-9.414063-2.375-18.621094-5.269531-27.574219-8.652343-1.359375-.511719-2.707031-1.035157-4.054687-1.570313-2.621094-1.042968-5.222657-2.121094-7.792969-3.238281l-28.609375-133.085937-.230469-1.089844zm0 0" fill="#dde8ed"/><path d="m206.328125 388.773438-25.539063 40.960937-25.535156-40.960937" fill="#f74f4f"/><path d="m203.246094 506.542969c-3.386719-.699219-6.738282-1.472657-10.0625-2.316407-9.414063-2.375-18.621094-5.269531-27.574219-8.652343-1.359375-.511719-2.707031-1.035157-4.054687-1.570313l19.238281-74.925781zm0 0" fill="#f74f4f"/><path d="m180.78125 393.394531-42.828125 23.800781-13.03125-60.601562 26.613281-15.675781" fill="#bfd5de"/><path d="m180.78125 393.394531 42.832031 23.800781 13.027344-60.601562-26.613281-15.675781" fill="#bfd5de"/><path d="m238.261719 438.375h13.582031l-28.839844 70.15625c-1.535156.25-3.082031.488281-4.628906.71875-8.546875-1.253906-16.945312-2.933594-25.191406-5.023438l43.457031-152.859374 29.308594 14.785156zm0 0" fill="#2ba1cf"/><path d="m165.609375 495.574219c-14.253906-5.371094-27.890625-11.984375-40.792969-19.699219l-15.414062-37.5h13.585937l-27.691406-72.222656 29.625-13.730469zm0 0" fill="#2ba1cf"/><path d="m214.730469 317.800781v41.65625c0 15.25-10.054688 28.140625-23.90625 32.421875-3.167969.980469-6.546875 1.515625-10.042969 1.515625-18.742188 0-33.9375-15.195312-33.9375-33.9375v-41.65625zm0 0" fill="#eab599"/><path d="m214.730469 356.816406v2.640625c0 15.25-10.054688 28.140625-23.90625 32.421875-12.496094-3.84375-21.890625-14.707031-23.625-28.003906 2.265625.140625 4.546875.210938 6.835937.210938 6.421875 0 12.71875-.511719 18.851563-1.519532 7.554687-1.210937 14.855469-3.15625 21.84375-5.75zm0 0" fill="#f6caae"/><path d="m87.679688 249.53125c0 15.714844-11.480469 28.742188-26.511719 31.160156-1.640625.269532-3.332031.40625-5.054688.40625-17.4375 0-31.566406-14.128906-31.566406-31.566406 0-17.433594 14.128906-31.5625 31.566406-31.5625 1.722657 0 3.414063.136719 5.054688.40625 15.03125 2.417969 26.511719 15.445312 26.511719 31.15625zm0 0" fill="#f6caae"/><path d="m87.679688 249.53125c0 15.714844-11.480469 28.742188-26.511719 31.160156-2.730469-9.925781-4.1875-20.375-4.1875-31.160156 0-10.78125 1.457031-21.230469 4.1875-31.15625 15.03125 2.417969 26.511719 15.445312 26.511719 31.15625zm0 0" fill="#eab599"/><path d="m67.394531 249.53125c0 6.234375-5.050781 11.285156-11.28125 11.285156s-11.28125-5.050781-11.28125-11.285156c0-6.230469 5.050781-11.28125 11.28125-11.28125s11.28125 5.050781 11.28125 11.28125zm0 0" fill="#eab599"/><path d="m273.894531 249.53125c0 15.714844 11.480469 28.742188 26.507813 31.160156 1.644531.269532 3.332031.40625 5.058594.40625 17.4375 0 31.566406-14.128906 31.566406-31.566406 0-17.433594-14.128906-31.5625-31.566406-31.5625-1.726563 0-3.414063.136719-5.058594.40625-15.027344 2.417969-26.507813 15.445312-26.507813 31.15625zm0 0" fill="#f6caae"/><g fill="#eab599"><path d="m273.894531 249.53125c0 15.714844 11.480469 28.742188 26.507813 31.160156 2.730468-9.925781 4.191406-20.375 4.191406-31.160156 0-10.78125-1.457031-21.230469-4.191406-31.15625-15.027344 2.417969-26.507813 15.445312-26.507813 31.15625zm0 0"/><path d="m298.226562 188.039062v44.722657c0 58.441406-42.695312 106.921875-98.59375 115.917969-.191406.03125-.386718.0625-.578124.097656-5.945313.949218-12.046876 1.417968-18.273438 1.417968-64.855469 0-117.4375-52.578124-117.4375-117.433593v-44.933594c.023438-13.582031 2.351562-26.632813 6.636719-38.765625 16.058593-45.703125 59.609375-78.46875 110.800781-78.46875h.011719c6.214843 0 12.328125.480469 18.285156 1.417969 56.171875 8.777343 99.148437 57.386719 99.148437 116.027343zm0 0"/><path d="m316.742188 249.53125c0 6.234375-5.050782 11.285156-11.28125 11.285156-6.230469 0-11.28125-5.050781-11.28125-11.285156 0-6.230469 5.050781-11.28125 11.28125-11.28125 6.230468 0 11.28125 5.050781 11.28125 11.28125zm0 0"/></g><path d="m298.230469 188.039062v44.722657c0 58.441406-42.695313 106.921875-98.597657 115.917969-.1875.03125-.386718.0625-.574218.097656-56.175782-8.777344-99.140625-57.386719-99.140625-116.015625v-44.722657c0-58.640624 42.976562-107.25 99.160156-116.027343 56.175781 8.777343 99.152344 57.386719 99.152344 116.027343zm0 0" fill="#f6caae"/><path d="m155.777344 220.695312c0 7.359376-5.964844 13.324219-13.324219 13.324219-7.355469 0-13.320313-5.964843-13.320313-13.324219 0-7.355468 5.964844-13.320312 13.320313-13.320312 7.359375 0 13.324219 5.964844 13.324219 13.320312zm0 0" fill="#3d4159"/><path d="m232.445312 220.695312c0 7.359376-5.964843 13.324219-13.324218 13.324219-7.355469 0-13.320313-5.964843-13.320313-13.324219 0-7.355468 5.964844-13.320312 13.320313-13.320312 7.359375 0 13.324218 5.964844 13.324218 13.320312zm0 0" fill="#3d4159"/><path d="m153.058594 218.34375c0 3.152344-2.554688 5.710938-5.707032 5.710938-3.152343 0-5.707031-2.558594-5.707031-5.710938s2.554688-5.707031 5.707031-5.707031c3.152344 0 5.707032 2.554687 5.707032 5.707031zm0 0" fill="#fff"/><path d="m230.382812 218.34375c0 3.152344-2.554687 5.710938-5.707031 5.710938-3.15625 0-5.710937-2.558594-5.710937-5.710938s2.554687-5.707031 5.710937-5.707031c3.152344 0 5.707031 2.554687 5.707031 5.707031zm0 0" fill="#fff"/><path d="m196.390625 256.328125h-29.117187c-3.175782 0-5.746094-2.570313-5.746094-5.746094s2.570312-5.746093 5.746094-5.746093h29.117187c3.171875 0 5.746094 2.570312 5.746094 5.746093s-2.574219 5.746094-5.746094 5.746094zm0 0" fill="#eab599"/><path d="m180.789062 290.601562c-9.835937 0-19.667968-2.464843-28.632812-7.394531-2.527344-1.386719-3.453125-4.566406-2.0625-7.09375 1.390625-2.527343 4.566406-3.449219 7.09375-2.0625 14.777344 8.125 32.421875 8.125 47.199219 0 2.527343-1.390625 5.703125-.46875 7.09375 2.0625 1.390625 2.527344.46875 5.707031-2.0625 7.09375-8.960938 4.929688-18.796875 7.394531-28.628907 7.394531zm0 0" fill="#eab599"/><path d="m298.230469 147.453125v45.808594h-21.859375v-35.871094l-157.78125-29.320313-33.382813-6.207031v71.398438h-21.859375v-45.808594c0-52.226563 42.328125-94.554687 94.542969-94.554687h45.796875c1.242188 0 2.488281.019531 3.730469.085937 50.480469 1.941406 90.8125 43.488281 90.8125 94.46875zm0 0" fill="#2a2f4f"/><path d="m298.230469 147.453125v45.808594h-21.859375v-35.871094l-157.78125-29.320313c8.695312-41.753906 44.921875-73.394531 88.828125-75.085937 50.480469 1.941406 90.8125 43.488281 90.8125 94.46875zm0 0" fill="#3d4159"/><path d="m313.035156 457.746094v47.867187c-4.789062 1.097657-9.625 2.050781-14.515625 2.863281-12.632812 2.121094-25.578125 3.304688-38.765625 3.492188v-54.222656zm0 0" fill="#2ba1cf"/><path d="m362.578125 442.347656c0 8.507813-6.894531 15.402344-15.402344 15.402344h-87.425781v-15.402344c0-8.503906 6.894531-15.402344 15.402344-15.402344h72.023437c4.253907 0 8.109375 1.726563 10.890625 4.515626 1.460938 1.460937 2.632813 3.226562 3.414063 5.183593.710937 1.765625 1.097656 3.6875 1.097656 5.703125zm0 0" fill="#eab599"/><path d="m361.480469 436.644531c-2.265625 5.683594-7.816407 9.695313-14.304688 9.695313h-87.425781v-3.992188c0-8.503906 6.894531-15.402344 15.402344-15.402344h72.023437c4.253907 0 8.109375 1.726563 10.890625 4.515626 1.460938 1.460937 2.632813 3.226562 3.414063 5.183593zm0 0" fill="#f6caae"/><path d="m463.632812 36.519531c-.921874-43.101562-65.660156-43.101562-66.582031 0-.007812.472657-.011719.941407-.011719 1.414063 0 24.382812 13.433594 45.625 33.304688 56.734375 19.871094-11.109375 33.304688-32.351563 33.304688-56.734375 0-.472656-.003907-.941406-.015626-1.414063zm0 0" fill="#f74f4f"/><path d="m447.3125 36.828125c0 5.441406-2.558594 10.28125-6.542969 13.386719-2.875 2.246094-6.496093 3.582031-10.425781 3.582031s-7.550781-1.335937-10.429688-3.582031c-3.980468-3.105469-6.539062-7.945313-6.539062-13.386719 0-9.371094 7.59375-16.96875 16.96875-16.96875 9.371094 0 16.96875 7.597656 16.96875 16.96875zm0 0" fill="#dde8ed"/><path d="m393.277344 170.964844c-.921875-43.105469-65.660156-43.105469-66.582032 0-.011718.46875-.015624.941406-.015624 1.414062 0 24.382813 13.4375 45.625 33.308593 56.734375 19.867188-11.109375 33.304688-32.351562 33.304688-56.734375 0-.472656-.007813-.945312-.015625-1.414062zm0 0" fill="#f74f4f"/><path d="m376.957031 171.269531c0 5.441407-2.5625 10.285157-6.542969 13.390625-2.875 2.246094-6.496093 3.582032-10.429687 3.582032-3.929687 0-7.550781-1.339844-10.425781-3.582032-3.984375-3.105468-6.542969-7.949218-6.542969-13.390625 0-9.371093 7.597656-16.96875 16.96875-16.96875 9.375 0 16.972656 7.597657 16.972656 16.96875zm0 0" fill="#dde8ed"/><path d="m482.441406 207.882812c-.921875-43.101562-65.660156-43.101562-66.582031 0-.011719.472657-.015625.941407-.015625 1.414063 0 24.382813 13.4375 45.625 33.308594 56.734375 19.867187-11.109375 33.304687-32.351562 33.304687-56.734375 0-.472656-.003906-.941406-.015625-1.414063zm0 0" fill="#f74f4f"/><path d="m466.121094 208.191406c0 5.441406-2.558594 10.28125-6.542969 13.386719-2.875 2.246094-6.496094 3.582031-10.425781 3.582031-3.933594 0-7.550782-1.335937-10.429688-3.582031-3.980468-3.105469-6.542968-7.945313-6.542968-13.386719 0-9.371094 7.597656-16.96875 16.972656-16.96875 9.371094 0 16.96875 7.597656 16.96875 16.96875zm0 0" fill="#dde8ed"/></svg>