<svg height="511pt" viewBox="0 1 511 511.99999" width="511pt" xmlns="http://www.w3.org/2000/svg"><path d="m511.402344 256.546875c0 141.082031-114.367188 255.453125-255.449219 255.453125s-255.453125-114.371094-255.453125-255.453125 114.371094-255.449219 255.453125-255.449219 255.449219 114.367188 255.449219 255.449219zm0 0" fill="#66baed"/><path d="m480.785156 111.765625v259.085937h-449.667968v-259.085937c0-23.035156 18.671874-41.707031 41.703124-41.707031h366.257813c23.03125 0 41.707031 18.671875 41.707031 41.707031zm0 0" fill="#3d4159"/><path d="m449.503906 111.765625v227.808594h-387.109375v-227.808594c0-5.746094 4.683594-10.429687 10.425781-10.429687h366.257813c5.746094 0 10.425781 4.683593 10.425781 10.429687zm0 0" fill="#dde8ed"/><path d="m31.117188 346.820312h449.667968v20.425782h-449.667968zm0 0" fill="#2a2f4f"/><path d="m488.238281 362.992188c-7.558593 16.484374-16.828125 32.019531-27.578125 46.390624-6.160156 8.234376-12.804687 16.085938-19.894531 23.511719h-369.621094c-7.089843-7.425781-13.734375-15.277343-19.894531-23.511719-10.75-14.371093-20.019531-29.90625-27.578125-46.390624 2.636719-.625 5.390625-.957032 8.214844-.957032h448.136719c2.824218 0 5.578124.332032 8.214843.957032zm0 0" fill="#3d4159"/><g fill="#2a2f4f"><path d="m437.933594 346.347656h-363.964844c-10.136719 0-18.351562-8.214844-18.351562-18.347656v-216.234375c0-9.503906 7.703124-17.207031 17.203124-17.207031h366.257813c9.5 0 17.203125 7.703125 17.203125 17.207031v216.234375c0 10.132812-8.214844 18.347656-18.347656 18.347656zm-362.539063-13.554687h361.109375c3.4375 0 6.222656-2.785157 6.222656-6.222657v-214.804687c0-2.015625-1.632812-3.652344-3.648437-3.652344h-366.257813c-2.011718 0-3.648437 1.636719-3.648437 3.652344v214.804687c0 3.4375 2.785156 6.222657 6.222656 6.222657zm0 0"/><path d="m295.117188 387.484375h-78.324219c-13.351563 0-24.175781-10.824219-24.175781-24.175781v-1.273438h126.675781v1.273438c0 13.351562-10.824219 24.175781-24.175781 24.175781zm0 0"/><path d="m460.660156 409.382812c-6.160156 8.234376-12.804687 16.085938-19.894531 23.511719h-369.621094c-7.089843-7.425781-13.734375-15.277343-19.894531-23.511719zm0 0"/></g><path d="m364.945312 339.574219h-221.390624c1.035156-37.621094 26.933593-69.015625 61.851562-78.355469 1.304688-.34375 2.617188-.667969 3.941406-.960938 3.546875-.761718 7.175782-1.292968 10.875-1.605468 2.253906-.175782 4.527344-.269532 6.828125-.269532h54.398438c6.078125 0 12 .644532 17.714843 1.875.320313.074219.65625.148438.980469.21875.957031.21875 1.925781.460938 2.867188.710938.03125.007812.050781.007812.070312.019531 9.40625 2.511719 18.152344 6.632813 25.933594 12.03125 21.144531 14.671875 35.179687 38.851563 35.929687 66.335938zm0 0" fill="#dd3033"/><path d="m364.945312 339.574219h-180.390624c1.03125-37.621094 26.929687-69.015625 61.851562-78.355469 1.300781-.34375 2.617188-.667969 3.9375-.960938 3.546875-.761718 7.175781-1.292968 10.875-1.605468 2.253906-.175782 4.527344-.269532 6.832031-.269532h13.398438c6.078125 0 12 .644532 17.714843 1.875.320313.074219.65625.148438.980469.21875.957031.21875 1.925781.460938 2.867188.710938.03125.007812.050781.007812.070312.019531 9.40625 2.511719 18.152344 6.632813 25.933594 12.03125 21.144531 14.671875 35.179687 38.851563 35.929687 66.335938zm0 0" fill="#f74f4f"/><path d="m303.28125 260.261719-.199219.945312-16.847656 78.367188h-63.988281l-16.839844-78.355469-.207031-.957031zm0 0" fill="#f2f0ec"/><path d="m254.242188 292.574219-37.601563 20.898437-11.4375-53.207031 23.363281-13.761719" fill="#d8d5d0"/><path d="m254.242188 292.574219 37.601562 20.898437 11.4375-53.207031-23.363281-13.761719" fill="#d8d5d0"/><path d="m141.972656 238.246094v-125.960938c0-12.800781 2.136719-25.339844 6.351563-37.273437 15.761719-44.859375 58.332031-75.011719 105.925781-75.011719 5.894531 0 11.777344.457031 17.492188 1.359375 26.148437 4.085937 50.136718 17.433594 67.53125 37.582031 17.578124 20.363282 27.261718 46.410156 27.261718 73.34375v125.960938" fill="#ffe152"/><path d="m188.160156 117.203125c0 44.554687 26.089844 96.101563 40.417969 121.046875h-86.609375v-125.964844c0-12.796875 2.140625-25.335937 6.347656-37.273437 15.667969-44.601563 57.851563-74.664063 105.113282-75.0000002-34.519532.8593752-65.269532 56.2421872-65.269532 117.1914062zm0 0" fill="#e8c934"/><path d="m284.054688 226.207031v36.570313c0 13.390625-8.828126 24.707031-20.988282 28.464844-2.785156.863281-5.75 1.332031-8.820312 1.332031-16.457032 0-29.792969-13.339844-29.792969-29.796875v-36.570313zm0 0" fill="#eab599"/><path d="m284.054688 260.460938v2.316406c0 13.390625-8.828126 24.707031-20.988282 28.464844-10.972656-3.375-19.21875-12.910157-20.746094-24.585938 1.992188.125 3.992188.183594 6.003907.183594 5.636719 0 11.164062-.445313 16.550781-1.332032 6.632812-1.0625 13.042969-2.769531 19.179688-5.046874zm0 0" fill="#f6caae"/><path d="m172.507812 166.273438c0 13.796874-10.078124 25.234374-23.273437 27.355468-1.441406.234375-2.925781.355469-4.4375.355469-15.308594 0-27.710937-12.402344-27.710937-27.710937 0-15.308594 12.402343-27.710938 27.710937-27.710938 1.511719 0 2.996094.121094 4.4375.355469 13.195313 2.121093 23.273437 13.558593 23.273437 27.355469zm0 0" fill="#f6caae"/><path d="m172.507812 166.273438c0 13.796874-10.078124 25.234374-23.273437 27.355468-2.394531-8.714844-3.675781-17.886718-3.675781-27.355468s1.28125-18.640626 3.675781-27.355469c13.195313 2.121093 23.273437 13.558593 23.273437 27.355469zm0 0" fill="#eab599"/><path d="m154.699219 166.273438c0 5.46875-4.433594 9.902343-9.902344 9.902343-5.472656 0-9.90625-4.433593-9.90625-9.902343s4.433594-9.90625 9.90625-9.90625c5.46875 0 9.902344 4.4375 9.902344 9.90625zm0 0" fill="#eab599"/><path d="m325.40625 130.886719v95.261719c-14.722656 14.050781-33.601562 23.785156-54.609375 27.171874-.164063.027344-.339844.054688-.503906.082032-5.21875.835937-10.578125 1.246094-16.042969 1.246094-56.941406 0-103.101562-46.160157-103.101562-103.101563v-39.261719c0-5.027344.355468-9.972656 1.054687-14.808594 24.53125 17.644532 59.699219 15.898438 82.113281-5.28125 7.421875-7.011718 12.574219-15.355468 15.492188-24.210937 1.625 15.503906 8.714844 30.59375 21.28125 42.472656 14.964844 14.128907 34.734375 20.945313 54.316406 20.429688zm0 0" fill="#eab599"/><path d="m325.40625 130.886719v95.261719c-14.722656 14.050781-33.601562 23.785156-54.609375 27.171874-.164063.027344-.339844.054688-.503906.082032-49.316407-7.707032-87.039063-50.382813-87.039063-101.855469v-39.261719c0-1.046875.019532-2.082031.054688-3.121094 18.183594 1.863282 37.0625-3.789062 51.003906-16.96875 7.421875-7.011718 12.578125-15.355468 15.496094-24.210937 1.621094 15.503906 8.714844 30.59375 21.28125 42.472656 14.964844 14.128907 34.734375 20.945313 54.316406 20.429688zm0 0" fill="#f6caae"/><path d="m309.625 142.839844c0-9.457032-7.667969-17.125-17.125-17.125s-17.125 7.667968-17.125 17.125" fill="#eab599"/><path d="m233.140625 142.839844c0-9.457032-7.667969-17.125-17.125-17.125s-17.125 7.667968-17.125 17.125" fill="#eab599"/><path d="m227.710938 150.128906c0 6.460938-5.234376 11.699219-11.695313 11.699219s-11.695313-5.238281-11.695313-11.699219c0-6.460937 5.234376-11.695312 11.695313-11.695312s11.695313 5.234375 11.695313 11.695312zm0 0" fill="#3d4159"/><path d="m304.195312 150.128906c0 6.460938-5.234374 11.699219-11.695312 11.699219s-11.695312-5.238281-11.695312-11.699219c0-6.460937 5.234374-11.695312 11.695312-11.695312s11.695312 5.234375 11.695312 11.695312zm0 0" fill="#3d4159"/><path d="m265.953125 179.578125h-23.390625c-2.789062 0-5.046875-2.257813-5.046875-5.042969 0-2.789062 2.257813-5.046875 5.046875-5.046875h23.390625c2.789063 0 5.046875 2.257813 5.046875 5.046875 0 2.785156-2.257812 5.042969-5.046875 5.042969zm0 0" fill="#eab599"/><path d="m254.257812 211.5c-8.632812 0-17.269531-2.164062-25.136718-6.488281-2.21875-1.21875-3.03125-4.007813-1.8125-6.230469 1.222656-2.21875 4.011718-3.027344 6.230468-1.808594 12.972657 7.132813 28.464844 7.132813 41.4375 0 2.21875-1.21875 5.007813-.410156 6.226563 1.808594 1.222656 2.222656.410156 5.011719-1.808594 6.230469-7.871093 4.324219-16.503906 6.488281-25.136719 6.488281zm0 0" fill="#eab599"/><path d="m225.328125 148.066406c0 2.765625-2.246094 5.011719-5.011719 5.011719-2.769531 0-5.011718-2.246094-5.011718-5.011719 0-2.769531 2.242187-5.011718 5.011718-5.011718 2.765625 0 5.011719 2.242187 5.011719 5.011718zm0 0" fill="#fff"/><path d="m302.386719 148.066406c0 2.765625-2.246094 5.011719-5.011719 5.011719-2.769531 0-5.011719-2.246094-5.011719-5.011719 0-2.769531 2.242188-5.011718 5.011719-5.011718 2.765625 0 5.011719 2.242187 5.011719 5.011718zm0 0" fill="#fff"/><path d="m324.433594 178.617188c0 7.09375-5.75 12.84375-12.84375 12.84375s-12.84375-5.75-12.84375-12.84375 5.75-12.84375 12.84375-12.84375 12.84375 5.75 12.84375 12.84375zm0 0" fill="#eab599"/><path d="m209.761719 178.617188c0 7.09375-5.75 12.84375-12.84375 12.84375s-12.84375-5.75-12.84375-12.84375 5.75-12.84375 12.84375-12.84375 12.84375 5.75 12.84375 12.84375zm0 0" fill="#eab599"/><path d="m75.394531 332.792969h361.109375v13.554687h-361.109375zm0 0" fill="#2a2f4f"/></svg>