<svg height="512pt" viewBox="0 0 512 512" width="512pt" xmlns="http://www.w3.org/2000/svg"><path d="m512 256c0 141.386719-114.613281 256-256 256s-256-114.613281-256-256 114.613281-256 256-256 256 114.613281 256 256zm0 0" fill="#66baed"/><path d="m497.28125 341.765625c-21.566406 60.65625-65.347656 110.777344-121.554688 140.558594-16.738281 8.882812-34.585937 15.957031-53.277343 20.949219-9.476563 2.550781-19.175781 4.566406-29.058594 6.007812-12.207031 1.796875-24.691406 2.71875-37.386719 2.71875-2.332031 0-4.660156-.03125-6.980468-.09375-10.375-.285156-20.605469-1.171875-30.636719-2.664062-28.140625-4.128907-54.785157-12.855469-79.160157-25.371094-17.941406-9.207032-34.640624-20.46875-49.800781-33.480469-3.449219-2.957031-6.8125-5.996094-10.09375-9.132813-6.8125-6.488281-13.269531-13.363281-19.332031-20.582031-2.359375-2.800781-4.660156-5.652343-6.894531-8.558593-16.257813-21.085938-29.289063-44.785157-38.378907-70.351563zm0 0" fill="#a35418"/><path d="m503.152344 322.957031c-1.722656 6.371094-3.675782 12.640625-5.871094 18.808594-2.464844 6.9375-5.226562 13.726563-8.253906 20.375h-466.046875c-3.03125-6.648437-5.789063-13.4375-8.253907-20.375-2.195312-6.167969-4.148437-12.4375-5.875-18.808594zm0 0" fill="#cc7a3b"/><path d="m308.511719 272.640625h73.660156v73.660156h-73.660156zm0 0" fill="#2a2f4f"/><path d="m193.78125 1.324219h292.664062c14.113282 0 25.554688 11.441406 25.554688 25.554687v237.449219c0 14.109375-11.441406 25.550781-25.554688 25.550781h-292.664062c-14.113281 0-25.550781-11.441406-25.550781-25.550781v-237.449219c0-14.113281 11.4375-25.554687 25.550781-25.554687zm0 0" fill="#3d4159"/><path d="m491.105469 26.882812v237.445313c0 2.570313-2.089844 4.660156-4.660157 4.660156h-292.664062c-2.5625 0-4.652344-2.089843-4.652344-4.660156v-237.445313c0-2.570312 2.089844-4.660156 4.652344-4.660156h292.664062c2.570313 0 4.660157 2.089844 4.660157 4.660156zm0 0" fill="#dde8ed"/><path d="m452.371094 268.988281h-179.222656c9.65625-17.597656 26.21875-30.867187 46.050781-36.175781 1.160156-.3125 2.328125-.59375 3.511719-.847656 3.164062-.6875 6.402343-1.160156 9.695312-1.429688 2.015625-.167968 4.042969-.25 6.101562-.25h48.515626c5.421874 0 10.710937.574219 15.796874 1.679688.292969.054687.585938.117187.867188.191406.867188.195312 1.726562.40625 2.5625.636719.03125.007812.039062.007812.070312.007812 8.382813 2.246094 16.1875 5.925781 23.125 10.742188 9.476563 6.574219 17.347657 15.277343 22.925782 25.445312zm0 0" fill="#3d4159"/><path d="m406.5 231.964844-.179688.835937-7.78125 36.1875h-71.566406l-7.773437-36.175781-.1875-.847656zm0 0" fill="#dde8ed"/><path d="m382.757812 257.167969-7.363281 11.820312h-25.265625l-7.367187-11.820312zm0 0" fill="#f74f4f"/><path d="m362.761719 260.785156-14.753907 8.203125h-21.035156l-7.953125-37.023437 20.835938-12.277344zm0 0" fill="#f2f0ec"/><path d="m406.5 231.964844-7.953125 37.023437h-21.03125l-14.753906-8.203125 22.902343-41.097656zm0 0" fill="#f2f0ec"/><path d="m429.445312 239.449219-11.328124 29.539062h-23.308594l11.691406-41.117187zm0 0" fill="#2a2f4f"/><path d="m330.460938 268.988281h-23.320313l-11.328125-29.539062 23.199219-10.753907zm0 0" fill="#2a2f4f"/><path d="m389.34375 201.589844v32.617187c0 11.941407-7.875 22.035157-18.71875 25.386719-2.484375.773438-5.128906 1.1875-7.867188 1.1875-14.679687 0-26.574218-11.894531-26.574218-26.574219v-32.617187zm0 0" fill="#eab599"/><path d="m389.34375 232.140625v2.066406c0 11.941407-7.875 22.035157-18.71875 25.386719-9.789062-3.007812-17.144531-11.515625-18.503906-21.925781 1.777344.109375 3.5625.164062 5.355468.164062 5.027344 0 9.957032-.398437 14.761719-1.1875 5.914063-.949219 11.632813-2.472656 17.105469-4.503906zm0 0" fill="#f6caae"/><path d="m289.851562 148.132812c0 12.304688-8.988281 22.503907-20.757812 24.398438-1.285156.207031-2.609375.316406-3.957031.316406-13.65625 0-24.71875-11.0625-24.71875-24.714844 0-13.65625 11.0625-24.71875 24.71875-24.71875 1.347656 0 2.671875.109376 3.957031.316407 11.769531 1.894531 20.757812 12.097656 20.757812 24.402343zm0 0" fill="#f6caae"/><path d="m289.851562 148.132812c0 12.304688-8.988281 22.503907-20.757812 24.398438-2.136719-7.773438-3.277344-15.957031-3.277344-24.398438 0-8.445312 1.140625-16.628906 3.277344-24.402343 11.769531 1.894531 20.757812 12.097656 20.757812 24.402343zm0 0" fill="#eab599"/><path d="m273.96875 148.132812c0 4.878907-3.953125 8.832032-8.835938 8.832032-4.878906 0-8.832031-3.953125-8.832031-8.832032 0-4.882812 3.953125-8.835937 8.832031-8.835937 4.882813 0 8.835938 3.953125 8.835938 8.835937zm0 0" fill="#eab599"/><path d="m435.671875 148.132812c0 12.304688 8.988281 22.503907 20.757813 24.398438 1.285156.207031 2.609374.316406 3.960937.316406 13.652344 0 24.714844-11.0625 24.714844-24.714844 0-13.65625-11.0625-24.71875-24.714844-24.71875-1.351563 0-2.675781.109376-3.960937.316407-11.769532 1.894531-20.757813 12.097656-20.757813 24.402343zm0 0" fill="#f6caae"/><path d="m435.671875 148.132812c0 12.304688 8.988281 22.503907 20.757813 24.398438 2.136718-7.773438 3.28125-15.957031 3.28125-24.398438 0-8.445312-1.144532-16.628906-3.28125-24.402343-11.769532 1.894531-20.757813 12.097656-20.757813 24.402343zm0 0" fill="#eab599"/><path d="m454.722656 99.976562v35.023438c0 45.753906-33.425781 83.726562-77.207031 90.769531-.148437.019531-.304687.054688-.449219.074219-4.652344.742188-9.4375 1.117188-14.304687 1.117188-50.792969 0-91.960938-41.179688-91.960938-91.960938v-35.191406c.007813-10.636719 1.835938-20.855469 5.191407-30.355469 6.90625-19.65625 20.300781-36.257813 37.625-47.230469h98.265624c25.746094 16.292969 42.839844 45.027344 42.839844 77.753906zm0 0" fill="#eab599"/><path d="m469.222656 148.132812c0 4.878907-3.953125 8.832032-8.832031 8.832032s-8.835937-3.953125-8.835937-8.832032c0-4.882812 3.957031-8.835937 8.835937-8.835937s8.832031 3.953125 8.832031 8.835937zm0 0" fill="#eab599"/><path d="m454.730469 99.976562v35.023438c0 45.753906-33.433594 83.726562-77.207031 90.769531-.15625.019531-.300782.054688-.457032.074219-43.980468-6.875-77.625-44.941406-77.625-90.84375v-35.023438c0-32.726562 17.09375-61.460937 42.839844-77.753906h69.609375c25.746094 16.292969 42.839844 45.035156 42.839844 77.753906zm0 0" fill="#f6caae"/><path d="m454.730469 68.1875v35.882812h-17.125v-28.097656l-123.546875-22.957031-26.144532-4.855469v55.910156h-17.113281v-35.882812c0-17.363281 5.976563-33.339844 15.996094-45.964844h151.949219c10 12.632813 15.984375 28.601563 15.984375 45.964844zm0 0" fill="#e8c934"/><path d="m454.730469 68.1875v35.882812h-17.125v-28.097656l-123.546875-22.957031c2.390625-11.460937 7.429687-21.941406 14.441406-30.792969h110.246094c10 12.632813 15.984375 28.601563 15.984375 45.964844zm0 0" fill="#ffe152"/><path d="m338.371094 115.570312h61.214844v33.34375h-61.214844zm0 0" fill="#eab599"/><path d="m301.117188 126.921875v.007813c.222656 13.992187 11.550781 25.246093 25.539062 25.410156.613281.007812 1.230469.007812 1.84375 0 14.101562-.191406 25.417969-11.71875 25.417969-25.824219v.410156-8.183593l-.269531-10.15625c-.039063-1.382813-.933594-2.589844-2.242188-3.042969-15.566406-5.425781-32.519531-5.386719-48.0625.097656-1.328125.46875-2.226562 1.71875-2.226562 3.132813v18.558593" fill="#dde8ed"/><path d="m305.207031 127.332031h-8.183593v-18.5625c0-3.132812 1.992187-5.941406 4.957031-6.988281 16.359375-5.773438 34.390625-5.8125 50.769531-.105469 2.902344 1.011719 4.902344 3.742188 4.984375 6.800781l.273437 10.261719v8.183594h-8.179687v-8.125l-.257813-9.5625c-14.335937-4.871094-30.046874-4.839844-44.363281.089844zm0 0" fill="#3d4159"/><path d="m373.527344 126.921875v.007813c.226562 13.992187 11.554687 25.246093 25.542968 25.410156.613282.007812 1.226563.007812 1.839844 0 14.105469-.191406 25.421875-11.71875 25.421875-25.824219v.410156-8.183593l-.273437-10.15625c-.035156-1.382813-.933594-2.589844-2.238282-3.042969-15.566406-5.425781-32.519531-5.386719-48.0625.097656-1.332031.46875-2.230468 1.71875-2.230468 3.132813v18.558593" fill="#dde8ed"/><g fill="#3d4159"><path d="m377.617188 127.332031h-8.179688v-18.5625c0-3.132812 1.992188-5.941406 4.957031-6.988281 16.355469-5.773438 34.386719-5.8125 50.769531-.105469 2.898438 1.011719 4.902344 3.742188 4.984376 6.800781l.273437 10.265626v8.179687h-8.183594v-8.125l-.253906-9.558594c-14.335937-4.871093-30.046875-4.84375-44.367187.085938zm0 0"/><path d="m353.644531 108.585938h19.882813v8.183593h-19.882813zm0 0"/><path d="m454.726562 100.761719v8.589843l-22.257812 7.023438-.0625.023438-4.902344 1.628906-2.585937-7.765625 6.25-2.078125.066406-.023438zm0 0"/><path d="m302.40625 110.261719-2.578125 7.765625-5.613281-1.867188-23.417969-7.722656v-8.625l24.652344 8.132812zm0 0"/><path d="m344.222656 130.25c0 5.761719-4.671875 10.433594-10.433594 10.433594-5.761718 0-10.433593-4.671875-10.433593-10.433594s4.671875-10.429688 10.433593-10.429688c5.761719 0 10.433594 4.667969 10.433594 10.429688zm0 0"/><path d="m400.078125 130.25c0 5.761719-4.667969 10.433594-10.429687 10.433594-5.761719 0-10.433594-4.671875-10.433594-10.433594s4.671875-10.429688 10.433594-10.429688c5.761718 0 10.429687 4.667969 10.429687 10.429688zm0 0"/></g><path d="m342.09375 128.410156c0 2.46875-2 4.46875-4.46875 4.46875s-4.46875-2-4.46875-4.46875 2-4.46875 4.46875-4.46875 4.46875 2 4.46875 4.46875zm0 0" fill="#fff"/><path d="m398.464844 128.410156c0 2.46875-2.003906 4.46875-4.472656 4.46875s-4.46875-2-4.46875-4.46875 2-4.46875 4.46875-4.46875 4.472656 2 4.472656 4.46875zm0 0" fill="#fff"/><path d="m374.980469 153.453125h-22.800781c-2.484376 0-4.5-2.015625-4.5-4.5 0-2.488281 2.015624-4.5 4.5-4.5h22.800781c2.484375 0 4.5 2.011719 4.5 4.5 0 2.484375-2.015625 4.5-4.5 4.5zm0 0" fill="#eab599"/><path d="m338.898438 163.980469c0 13.851562 11.226562 25.078125 25.078124 25.078125 13.851563 0 25.078126-11.226563 25.078126-25.078125" fill="#f2f0ec"/><path d="m428.410156 357.269531c0 6.0625-2.453125 11.546875-6.425781 15.519531-3.980469 3.96875-9.457031 6.425782-15.515625 6.425782h-122.253906c-12.109375 0-21.941406-9.824219-21.941406-21.945313 0-6.058593 2.453124-11.546875 6.425781-15.515625 3.980469-3.972656 9.457031-6.425781 15.515625-6.425781h122.253906c12.109375 0 21.941406 9.820313 21.941406 21.941406zm0 0" fill="#2a2f4f"/><path d="m428.410156 357.269531c0 6.0625-2.453125 11.546875-6.425781 15.519531-3.980469 3.96875-9.457031 6.425782-15.515625 6.425782h-81.410156c-12.117188 0-21.941406-9.824219-21.941406-21.945313 0-6.058593 2.457031-11.546875 6.425781-15.515625 3.972656-3.972656 9.457031-6.425781 15.515625-6.425781h81.410156c12.109375 0 21.941406 9.820313 21.941406 21.941406zm0 0" fill="#3d4159"/><path d="m204.058594 311.871094v40.367187c0 14.777344-9.742188 27.269531-23.164063 31.417969-3.074219.953125-6.347656 1.46875-9.734375 1.46875-18.164062 0-32.886718-14.722656-32.886718-32.886719v-40.367187zm0 0" fill="#eab599"/><path d="m128.527344 336.390625h88.464844v26.46875h-88.464844zm0 0" fill="#bfd5de"/><path d="m204.058594 349.679688v2.558593c0 14.777344-9.742188 27.269531-23.164063 31.417969-12.109375-3.722656-21.214843-14.25-22.898437-27.136719 2.199218.136719 4.40625.203125 6.628906.203125 6.222656 0 12.320312-.492187 18.265625-1.46875 7.320313-1.175781 14.398437-3.0625 21.167969-5.574218zm0 0" fill="#f6caae"/><path d="m295.101562 186.117188v139.042968l-70.039062 7.167969-14.09375 1.441406-97.480469 9.96875-66.253906 6.773438v-164.394531c0-14.128907 2.347656-27.972657 7-41.136719 15.109375-42.988281 52.515625-73.742188 96.496094-81.097657 5.703125-.949218 11.523437-1.515624 17.417969-1.660156.710937-.019531 1.410156-.03125 2.109374-.03125.304688-.011718.597657-.011718.898438-.011718 6.511719 0 13.011719.503906 19.3125 1.496093 28.867188 4.511719 55.347656 19.246094 74.542969 41.480469 19.402343 22.476562 30.089843 51.234375 30.089843 80.960938zm0 0" fill="#f74f4f"/><path d="m98.214844 191.550781c0 45.640625 2.296875 119.746094 15.273437 152.1875l-66.253906 6.773438v-164.394531c0-14.128907 2.347656-27.972657 7-41.136719 17.074219-48.570313 62.609375-81.515625 113.914063-82.757813.710937-.019531 1.410156-.03125 2.109374-.03125-38.105468.949219-72.042968 62.078125-72.042968 129.359375zm0 0" fill="#dd3033"/><path d="m293.390625 439.578125v19.582031c-36.5 17.132813-77.269531 26.714844-120.269531 26.714844-11.472656 0-22.777344-.675781-33.894532-2.003906-17.941406-9.207032-34.640624-20.46875-49.800781-33.480469-13.375-11.460937-25.558593-24.292969-36.320312-38.273437 9.351562-30.007813 33.613281-53.445313 64.144531-61.605469 1.433594-.378907 2.875-.742188 4.347656-1.058594 3.90625-.835937 7.921875-1.429687 12.007813-1.765625 2.484375-.207031 4.992187-.300781 7.53125-.300781h60.039062c6.710938 0 13.261719.710937 19.5625 2.066406.355469.074219.730469.160156 1.074219.242187 1.066406.238282 2.121094.5 3.167969.792969.03125 0 .0625 0 .082031.011719 10.386719 2.777344 20.042969 7.324219 28.621094 13.289062 24 16.648438 39.707031 44.390626 39.707031 75.789063zm0 0" fill="#bfd5de"/><path d="m293.390625 439.578125v69.703125c-12.207031 1.796875-24.691406 2.71875-37.386719 2.71875-63.613281 0-121.804687-23.199219-166.578125-61.609375v-10.8125c0-42.652344 28.953125-78.546875 68.304688-89.066406 1.429687-.378907 2.875-.742188 4.347656-1.058594 3.90625-.835937 7.917969-1.429687 12.003906-1.765625 2.488281-.207031 4.996094-.300781 7.535157-.300781h19.558593c6.710938 0 13.261719.710937 19.5625 2.066406.355469.074219.730469.160156 1.074219.242187 1.066406.238282 2.121094.5 3.167969.792969.03125 0 .0625 0 .082031.011719 10.386719 2.777344 20.042969 7.324219 28.621094 13.289062 24 16.648438 39.707031 44.390626 39.707031 75.789063zm0 0" fill="#dde8ed"/><path d="m170.257812 62.191406s-22.925781 28.296875-22.925781 86.121094c0 0-16.558593-41.460938 3.398438-84.429688 5.703125-.949218 11.523437-1.515624 17.417969-1.660156.710937-.019531 1.410156-.03125 2.109374-.03125zm0 0" fill="#dd3033"/><path d="m249.023438 454.050781v57.855469c-10.375-.285156-20.605469-1.171875-30.636719-2.664062-28.140625-4.128907-54.785157-12.855469-79.160157-25.371094-17.941406-9.207032-34.640624-20.46875-49.800781-33.480469-3.449219-2.957031-6.8125-5.996094-10.09375-9.132813 5.632813-21.085937 24.859375-36.601562 47.71875-36.601562h72.582031c27.28125 0 49.390626 22.109375 49.390626 49.394531zm0 0" fill="#854f89"/><path d="m218.386719 454.050781v55.191407c-28.140625-4.128907-54.785157-12.855469-79.160157-25.371094-17.941406-9.207032-34.640624-20.46875-49.800781-33.480469-3.449219-2.957031-6.8125-5.996094-10.09375-9.132813-6.8125-6.488281-13.269531-13.363281-19.332031-20.582031 9.027344-9.84375 21.996094-16.019531 36.40625-16.019531h72.589844c27.28125 0 49.390625 22.109375 49.390625 49.394531zm0 0" fill="#713775"/><path d="m262.828125 328.460938v-104.40625l-17.0625 106.152343" fill="#dd3033"/><path d="m225.0625 246.09375v86.234375l-14.09375 1.441406zm0 0" fill="#dd3033"/></svg>