<svg height="512pt" viewBox="0 0 512 512" width="512pt" xmlns="http://www.w3.org/2000/svg"><path d="m512 256c0 40.292969-9.308594 78.386719-25.882812 112.296875-26.789063 54.792969-72.566407 98.605469-128.761719 122.855469-11.160157 4.820312-22.726563 8.863281-34.648438 12.070312-3.835937 1.035156-7.703125 1.976563-11.597656 2.832032-13.542969 2.976562-27.503906 4.867187-41.753906 5.589843-4.421875.242188-8.871094.355469-13.355469.355469-9.519531 0-18.921875-.523438-28.179688-1.546875-13.175781-1.429687-26.050781-3.875-38.546874-7.242187-11.914063-3.195313-23.46875-7.238282-34.628907-12.066407-38.167969-16.480469-71.535156-41.964843-97.40625-73.792969-12.976562-15.976562-24.074219-33.539062-32.945312-52.367187-15.578125-33.0625-24.292969-70.007813-24.292969-108.984375 0-141.386719 114.613281-256 256-256s256 114.613281 256 256zm0 0" fill="#854f89"/><path d="m227.820312 362.414062v148.039063c-13.175781-1.429687-26.050781-3.875-38.546874-7.242187-11.914063-3.195313-23.46875-7.238282-34.628907-12.066407-38.167969-16.480469-71.535156-41.964843-97.40625-73.792969-12.976562-15.976562-24.074219-33.539062-32.945312-52.367187v-2.570313c0-35.519531 24.117187-65.402343 56.863281-74.148437 1.203125-.324219 2.414062-.625 3.636719-.875 3.25-.722656 6.582031-1.203125 9.988281-1.484375 2.070312-.15625 4.160156-.253906 6.269531-.253906h50c5.589844 0 11.035157.585937 16.277344 1.738281.304687.050781.597656.125.902344.195313.875.1875 1.765625.410156 2.632812.648437.03125.011719.050781.011719.070313.023437 8.652344 2.308594 16.679687 6.089844 23.835937 11.0625 19.976563 13.855469 33.050781 36.9375 33.050781 63.09375zm0 0" fill="#dd3033"/><path d="m227.820312 362.414062v148.039063c-13.175781-1.429687-26.050781-3.875-38.546874-7.242187-11.914063-3.195313-23.46875-7.238282-34.628907-12.066407-38.167969-16.480469-71.535156-41.964843-97.40625-73.792969v-54.9375c0-35.519531 24.117188-65.402343 56.863281-74.148437 1.203126-.324219 2.414063-.625 3.636719-.875 3.25-.722656 6.582031-1.203125 9.988281-1.484375 2.070313-.15625 4.160157-.253906 6.269532-.253906h17.054687c5.589844 0 11.035157.585937 16.277344 1.738281.304687.050781.597656.125.902344.195313.875.1875 1.765625.410156 2.632812.648437.03125.011719.050781.011719.070313.023437 8.652344 2.308594 16.679687 6.089844 23.835937 11.0625 19.976563 13.855469 33.050781 36.9375 33.050781 63.09375zm0 0" fill="#f74f4f"/><path d="m171.125 287.382812-.183594.867188-22.964844 106.808594c-2.207031 10.261718-11.234374 17.707031-21.730468 17.714844-.0625 0-.121094 0-.183594 0-.066406 0-.136719 0-.203125 0-10.496094-.007813-19.523437-7.453126-21.730469-17.714844l-22.960937-106.800782-.183594-.875zm0 0" fill="#f2f0ec"/><path d="m126.054688 317.078125-34.558594 19.207031-10.511719-48.902344 21.472656-12.644531" fill="#d8d5d0"/><path d="m126.054688 317.078125 34.558593 19.207031 10.511719-48.902344-21.472656-12.644531" fill="#d8d5d0"/><path d="m22.875 267.148438v-115.761719c0-11.765625 1.964844-23.289063 5.835938-34.253907 14.484374-41.234374 53.609374-68.941406 97.351562-68.941406 5.417969 0 10.824219.417969 16.074219 1.25 24.03125 3.753906 46.078125 16.019532 62.066406 34.539063 16.152344 18.714843 25.050781 42.652343 25.050781 67.40625v120.988281" fill="#cc7a3b"/><path d="m65.320312 155.902344c0 40.949218 23.976563 88.324218 37.148438 111.246094h-79.597656v-115.761719c0-11.761719 1.964844-23.289063 5.835937-34.257813 14.398438-40.992187 53.164063-68.617187 96.601563-68.929687-31.726563.792969-59.988282 51.691406-59.988282 107.703125zm0 0" fill="#a35418"/><path d="m153.453125 256.085938v33.609374c0 12.304688-8.113281 22.707032-19.289063 26.160157-2.558593.792969-5.285156 1.222656-8.101562 1.222656-15.125 0-27.382812-12.257813-27.382812-27.382813v-33.613281h54.773437zm0 0" fill="#eab599"/><path d="m153.453125 287.566406v2.128906c0 12.304688-8.113281 22.707032-19.289063 26.160157-10.082031-3.101563-17.664062-11.867188-19.0625-22.59375 1.828126.109375 3.667969.167969 5.515626.167969 5.179687 0 10.257812-.410157 15.207031-1.222657 6.097656-.980469 11.988281-2.550781 17.628906-4.640625zm0 0" fill="#f6caae"/><path d="m50.9375 201c0 12.679688-9.261719 23.191406-21.390625 25.144531-1.324219.214844-2.6875.328125-4.078125.328125-14.070312 0-25.46875-11.402344-25.46875-25.472656 0-14.066406 11.398438-25.464844 25.46875-25.464844 1.390625 0 2.753906.109375 4.078125.324219 12.128906 1.953125 21.390625 12.464844 21.390625 25.140625zm0 0" fill="#f6caae"/><path d="m50.9375 201c0 12.679688-9.261719 23.191406-21.390625 25.144531-2.203125-8.011719-3.378906-16.441406-3.378906-25.144531 0-8.699219 1.179687-17.128906 3.378906-25.140625 12.128906 1.953125 21.390625 12.464844 21.390625 25.140625zm0 0" fill="#eab599"/><path d="m34.570312 201c0 5.03125-4.074218 9.105469-9.101562 9.105469s-9.105469-4.074219-9.105469-9.105469c0-5.027344 4.078125-9.101562 9.105469-9.101562s9.101562 4.074218 9.101562 9.101562zm0 0" fill="#eab599"/><path d="m191.457031 168.484375v87.542969c-13.53125 12.917968-30.878906 21.863281-50.1875 24.972656-.152343.027344-.3125.050781-.464843.078125-4.796876.765625-9.71875 1.144531-14.746094 1.144531-52.328125 0-94.753906-42.421875-94.753906-94.753906v-36.082031c0-4.621094.328124-9.167969.96875-13.609375 22.546874 16.210937 54.871093 14.609375 75.464843-4.855469 6.820313-6.441406 11.558594-14.113281 14.242188-22.25 1.492187 14.246094 8.007812 28.117187 19.558593 39.035156 13.75 12.984375 31.917969 19.246094 49.917969 18.777344zm0 0" fill="#eab599"/><path d="m191.457031 168.484375v87.542969c-13.53125 12.917968-30.878906 21.863281-50.1875 24.972656-.152343.027344-.3125.050781-.464843.078125-45.324219-7.082031-79.992188-46.304687-79.992188-93.609375v-36.085938c0-.960937.015625-1.914062.050781-2.863281 16.710938 1.710938 34.058594-3.484375 46.875-15.597656 6.820313-6.441406 11.558594-14.113281 14.242188-22.25 1.492187 14.246094 8.007812 28.117187 19.558593 39.035156 13.75 12.984375 31.917969 19.246094 49.917969 18.777344zm0 0" fill="#f6caae"/><path d="m176.953125 179.464844c0-8.691406-7.046875-15.738282-15.738281-15.738282s-15.738282 7.046876-15.738282 15.738282" fill="#eab599"/><path d="m106.660156 179.464844c0-8.691406-7.046875-15.738282-15.738281-15.738282s-15.734375 7.046876-15.734375 15.738282" fill="#eab599"/><path d="m101.671875 186.164062c0 5.9375-4.8125 10.75-10.75 10.75s-10.75-4.8125-10.75-10.75c0-5.933593 4.8125-10.746093 10.75-10.746093s10.75 4.8125 10.75 10.746093zm0 0" fill="#3d4159"/><path d="m171.964844 186.164062c0 5.9375-4.8125 10.75-10.75 10.75s-10.75-4.8125-10.75-10.75c0-5.933593 4.8125-10.746093 10.75-10.746093s10.75 4.8125 10.75 10.746093zm0 0" fill="#3d4159"/><path d="m136.816406 213.230469h-21.5c-2.558594 0-4.636718-2.078125-4.636718-4.636719 0-2.5625 2.078124-4.636719 4.636718-4.636719h21.5c2.5625 0 4.636719 2.074219 4.636719 4.636719s-2.074219 4.636719-4.636719 4.636719zm0 0" fill="#eab599"/><path d="m126.066406 242.566406c-7.933594 0-15.867187-1.988281-23.101562-5.960937-2.039063-1.125-2.785156-3.6875-1.664063-5.726563 1.125-2.042968 3.6875-2.785156 5.726563-1.664062 11.921875 6.554687 26.160156 6.554687 38.082031 0 2.039063-1.121094 4.601563-.378906 5.726563 1.664062 1.121093 2.039063.375 4.601563-1.664063 5.726563-7.234375 3.972656-15.167969 5.960937-23.105469 5.960937zm0 0" fill="#eab599"/><path d="m99.480469 184.269531c0 2.542969-2.0625 4.605469-4.605469 4.605469-2.546875 0-4.605469-2.0625-4.605469-4.605469s2.058594-4.605469 4.605469-4.605469c2.542969 0 4.605469 2.0625 4.605469 4.605469zm0 0" fill="#fff"/><path d="m170.300781 184.269531c0 2.542969-2.0625 4.605469-4.605469 4.605469-2.546874 0-4.609374-2.0625-4.609374-4.605469s2.0625-4.605469 4.609374-4.605469c2.542969 0 4.605469 2.0625 4.605469 4.605469zm0 0" fill="#fff"/><path d="m190.558594 212.347656c0 6.519532-5.28125 11.804688-11.800782 11.804688-6.519531 0-11.804687-5.285156-11.804687-11.804688 0-6.519531 5.285156-11.800781 11.804687-11.800781 6.519532 0 11.800782 5.28125 11.800782 11.800781zm0 0" fill="#eab599"/><path d="m85.175781 212.347656c0 6.519532-5.285156 11.804688-11.804687 11.804688-6.519532 0-11.800782-5.285156-11.800782-11.804688 0-6.519531 5.28125-11.800781 11.800782-11.800781 6.519531 0 11.804687 5.28125 11.804687 11.800781zm0 0" fill="#eab599"/><path d="m486.117188 368.265625v.03125c-26.789063 54.792969-72.566407 98.605469-128.761719 122.855469-11.160157 4.820312-22.726563 8.863281-34.648438 12.070312-3.835937 1.035156-7.703125 1.976563-11.597656 2.832032-13.542969 2.976562-27.503906 4.867187-41.753906 5.589843v-143.378906c0-42.894531 33.027343-78.078125 75.0625-81.472656 2.214843-.1875 4.441406-.261719 6.6875-.261719h53.238281c6.300781 0 12.425781.691406 18.308594 2.039062 36.339844 8.316407 63.464844 40.855469 63.464844 79.695313zm0 0" fill="#bfd5de"/><path d="m486.117188 368.265625v.03125c-26.789063 54.792969-72.566407 98.605469-128.761719 122.855469-11.160157 4.820312-22.726563 8.863281-34.648438 12.070312-3.835937 1.035156-7.703125 1.976563-11.597656 2.832032v-137.789063c0-45.140625 36.613281-81.734375 81.761719-81.734375h11.484375c45.171875 0 81.761719 36.59375 81.761719 81.734375zm0 0" fill="#dde8ed"/><path d="m297.714844 196.359375c0 13.503906-9.863282 24.699219-22.78125 26.777344-1.410156.230469-2.863282.347656-4.347656.347656-14.984376 0-27.125-12.140625-27.125-27.125s12.140624-27.125 27.125-27.125c1.484374 0 2.933593.117187 4.347656.347656 12.917968 2.078125 22.78125 13.273438 22.78125 26.777344zm0 0" fill="#d3a489"/><path d="m399.679688 316.019531-21.945313 35.203125-21.949219-35.203125" fill="#f74f4f"/><path d="m407.261719 440.214844-29.527344 37.265625-29.535156-37.265625 29.539062-108.605469zm0 0" fill="#f74f4f"/><path d="m297.714844 196.359375c0 13.503906-9.863282 24.699219-22.78125 26.777344-2.347656-8.53125-3.601563-17.511719-3.601563-26.777344s1.253907-18.246094 3.601563-26.777344c12.917968 2.078125 22.78125 13.273438 22.78125 26.777344zm0 0" fill="#bf8e75"/><path d="m280.285156 196.359375c0 5.355469-4.34375 9.695313-9.699218 9.695313-5.351563 0-9.695313-4.339844-9.695313-9.695313s4.34375-9.695313 9.695313-9.695313c5.355468 0 9.699218 4.339844 9.699218 9.695313zm0 0" fill="#bf8e75"/><path d="m377.726562 319.992188-36.808593 20.453124-11.195313-52.082031 22.871094-13.46875" fill="#bfd5de"/><path d="m377.726562 319.992188 36.808594 20.453124 11.195313-52.082031-22.871094-13.46875" fill="#bfd5de"/><path d="m457.746094 196.359375c0 13.503906 9.863281 24.699219 22.78125 26.777344 1.410156.230469 2.863281.347656 4.347656.347656 14.984375 0 27.125-12.140625 27.125-27.125s-12.140625-27.125-27.125-27.125c-1.484375 0-2.933594.117187-4.347656.347656-12.917969 2.078125-22.78125 13.273438-22.78125 26.777344zm0 0" fill="#d3a489"/><g fill="#bf8e75"><path d="m457.746094 196.359375c0 13.503906 9.863281 24.699219 22.78125 26.777344 2.347656-8.53125 3.601562-17.511719 3.601562-26.777344s-1.253906-18.246094-3.601562-26.777344c-12.917969 2.078125-22.78125 13.273438-22.78125 26.777344zm0 0"/><path d="m494.570312 196.359375c0 5.355469-4.34375 9.695313-9.695312 9.695313-5.355469 0-9.695312-4.339844-9.695312-9.695313s4.339843-9.695313 9.695312-9.695313c5.351562 0 9.695312 4.339844 9.695312 9.695313zm0 0"/><path d="m478.660156 181.941406c0 50.226563-36.691406 91.890625-84.730468 99.625-5.269532.867188-10.679688 1.304688-16.195313 1.304688-55.746094 0-100.929687-45.183594-100.929687-100.929688 0-26.375 9.160156-65.96875 25.722656-83.949218 18.441406-20.019532 45.835937-16.980469 75.203125-16.980469 5.519531 0 10.929687.4375 16.199219 1.304687 48.039062 7.734375 84.730468 49.398438 84.730468 99.625zm0 0"/><path d="m406.902344 255.027344v35.796875c0 13.105469-8.640625 24.183593-20.542969 27.863281-2.726563.84375-5.628906 1.300781-8.632813 1.300781-16.109374 0-29.164062-13.054687-29.164062-29.164062v-35.796875zm0 0"/></g><path d="m406.902344 288.558594v2.265625c0 13.105469-8.640625 24.183593-20.542969 27.863281-10.742187-3.300781-18.8125-12.636719-20.304687-24.0625 1.945312.117188 3.90625.175781 5.875.175781 5.519531 0 10.929687-.4375 16.199218-1.300781 6.492188-1.042969 12.765625-2.714844 18.773438-4.941406zm0 0" fill="#d3a489"/><path d="m478.660156 181.941406c0 50.226563-36.691406 91.890625-84.730468 99.625-48.039063-7.734375-84.730469-49.398437-84.730469-99.625 0-30.925781 13.914062-58.609375 35.828125-77.125 13.664062-11.554687 30.449218-19.527344 48.902344-22.503906 44.789062 7.210938 79.71875 43.921875 84.234374 89.566406.328126 3.308594.496094 6.671875.496094 10.0625zm0 0" fill="#d3a489"/><path d="m377.730469 231.652344c-8.449219 0-16.902344-2.121094-24.605469-6.355469-2.171875-1.195313-2.964844-3.921875-1.769531-6.097656 1.191406-2.171875 3.921875-2.964844 6.097656-1.769531 12.699219 6.980468 27.859375 6.980468 40.558594 0 2.171875-1.195313 4.902343-.402344 6.097656 1.769531 1.195313 2.175781.402344 4.902343-1.769531 6.097656-7.707032 4.234375-16.15625 6.355469-24.609375 6.355469zm0 0" fill="#bf8e75"/><path d="m356.238281 176.066406c0 6.324219-5.128906 11.449219-11.449219 11.449219-6.324218 0-11.449218-5.125-11.449218-11.449219 0-6.324218 5.125-11.449218 11.449218-11.449218 6.320313 0 11.449219 5.125 11.449219 11.449218zm0 0" fill="#3d4159"/><path d="m422.125 176.066406c0 6.324219-5.125 11.449219-11.449219 11.449219s-11.449219-5.125-11.449219-11.449219c0-6.324218 5.125-11.449218 11.449219-11.449218s11.449219 5.125 11.449219 11.449218zm0 0" fill="#3d4159"/><path d="m353.902344 174.046875c0 2.710937-2.195313 4.90625-4.90625 4.90625-2.707032 0-4.90625-2.195313-4.90625-4.90625s2.199218-4.90625 4.90625-4.90625c2.710937 0 4.90625 2.195313 4.90625 4.90625zm0 0" fill="#fff"/><path d="m420.351562 174.046875c0 2.710937-2.195312 4.90625-4.90625 4.90625-2.707031 0-4.902343-2.195313-4.902343-4.90625s2.195312-4.90625 4.902343-4.90625c2.710938 0 4.90625 2.195313 4.90625 4.90625zm0 0" fill="#fff"/><path d="m389.179688 204.894531h-22.898438c-2.726562 0-4.9375-2.210937-4.9375-4.941406 0-2.726563 2.210938-4.9375 4.9375-4.9375h22.898438c2.726562 0 4.941406 2.210937 4.941406 4.9375 0 2.730469-2.210938 4.941406-4.941406 4.941406zm0 0" fill="#bf8e75"/><path d="m410.960938 365.589844h44v13.46875h-44zm0 0" fill="#bfd5de"/><path d="m371.828125 52.179688c30.574219 2.183593 55.121094 26.882812 56.675781 57.972656l.289063 5.835937h17.585937l9.476563 62.992188 22.945312-7.101563-3.082031-61.726562c-1.628906-32.65625-28.640625-58.253906-61.328125-58.132813zm0 0" fill="#2a2f4f"/><path d="m473.773438 27.816406c24.347656 24.347656 24.347656 63.820313 0 88.167969-24.347657 24.347656-63.820313 24.347656-88.167969 0zm0 0" fill="#3d4159"/><path d="m385.605469 115.984375h-76.515625l-9.476563 62.996094-22.941406-7.101563 3.074219-61.726562c1.628906-32.652344 28.640625-58.257813 61.332031-58.132813l110.507813.414063 14.609374 26.296875" fill="#3d4159"/><path d="m383.636719 52.179688c-30.574219 2.183593-55.121094 26.882812-56.679688 57.972656l-.289062 5.835937h-17.585938l-9.476562 62.992188-22.941407-7.101563 3.082032-61.726562c1.625-32.65625 28.640625-58.253906 61.328125-58.132813zm0 0" fill="#2a2f4f"/><path d="m357.355469 491.152344c-31.074219 13.417968-65.347657 20.847656-101.355469 20.847656-23.082031 0-45.453125-3.050781-66.726562-8.789062-11.914063-3.195313-23.46875-7.238282-34.628907-12.066407-55.335937-86.476562-54.1875-194.238281-54.1875-194.238281l155.542969-57.175781 155.53125 57.175781s1.152344 107.773438-54.175781 194.246094zm0 0" fill="#3fb777"/><path d="m256 239.730469v272.269531c-23.082031 0-45.453125-3.050781-66.726562-8.789062-11.914063-3.195313-23.46875-7.238282-34.628907-12.066407-55.335937-86.476562-54.1875-194.238281-54.1875-194.238281zm0 0" fill="#2da365"/><path d="m390.132812 311.304688c-1.160156 19.363281-4.984374 56.257812-17.480468 96.308593-10.460938 33.523438-24.890625 62.695313-42.894532 86.695313-2.285156 3.050781-4.636718 6.03125-7.050781 8.914062-21.265625 5.726563-43.625 8.777344-66.707031 8.777344s-45.453125-3.050781-66.726562-8.789062c-2.414063-2.882813-4.753907-5.851563-7.042969-8.902344-17.992188-24-32.421875-53.171875-42.894531-86.695313-12.496094-40.050781-16.308594-76.933593-17.480469-96.308593l134.144531-49.308594zm0 0" fill="#ffe152"/><path d="m256 261.996094v250.003906c-23.082031 0-45.453125-3.050781-66.726562-8.789062-2.414063-2.882813-4.753907-5.851563-7.042969-8.902344-17.992188-24-32.421875-53.171875-42.894531-86.695313-12.496094-40.050781-16.308594-76.933593-17.480469-96.308593zm0 0" fill="#e8c934"/><path d="m334.386719 335.664062-76.441407 134.238282-1.945312-2.75-56.695312-80.027344 25.578124-18.121094 30.1875 42.601563.929688-1.628907 51.148438-89.820312zm0 0" fill="#3fb777"/><path d="m256 409.976562v57.175782l-56.695312-80.027344 25.578124-18.121094 30.1875 42.601563zm0 0" fill="#2da365"/></svg>