<svg height="512pt" viewBox="0 0 512 512" width="512pt" xmlns="http://www.w3.org/2000/svg"><path d="m512 256c0 23.417969-3.144531 46.101562-9.039062 67.65625-3.625 13.292969-8.304688 26.15625-13.9375 38.496094-.890626 1.953125-1.796876 3.886718-2.738282 5.808594-2.863281 5.871093-5.933594 11.621093-9.226562 17.230468-4.105469 7.011719-8.535156 13.8125-13.269532 20.375-6.550781 9.089844-13.6875 17.730469-21.347656 25.863282-46.6875 49.597656-112.953125 80.570312-186.441406 80.570312-141.386719 0-256-114.613281-256-256s114.613281-256 256-256 256 114.613281 256 256zm0 0" fill="#ffe152"/><path d="m263.101562 280.972656h232.015626c9.324218 0 16.878906-7.558594 16.878906-16.878906v-75.953125c0-9.320313-7.554688-16.875-16.878906-16.875h-232.015626c-9.320312 0-16.875 7.554687-16.875 16.875v75.953125c-.003906 9.320312 7.554688 16.878906 16.875 16.878906zm0 0" fill="#dde8ed"/><path d="m326.839844 226.117188c0 13.074218-10.597656 23.675781-23.675782 23.675781-13.074218 0-23.671874-10.601563-23.671874-23.675781 0-13.074219 10.597656-23.671876 23.671874-23.671876 13.078126 0 23.675782 10.597657 23.675782 23.671876zm0 0" fill="#66baed"/><path d="m346.746094 197.125h142.273437v20.371094h-142.273437zm0 0" fill="#3d4159"/><path d="m346.746094 234.738281h142.273437v20.375h-142.273437zm0 0" fill="#3d4159"/><path d="m502.960938 323.65625c-3.625 13.292969-8.304688 26.15625-13.9375 38.496094-.890626 1.953125-1.796876 3.886718-2.738282 5.808594-2.863281 5.871093-5.933594 11.621093-9.226562 17.230468-4.105469 7.011719-8.535156 13.8125-13.269532 20.375-6.550781 9.089844-13.6875 17.730469-21.347656 25.863282h-179.335937c-9.320313 0-16.886719-7.554688-16.886719-16.875v-75.957032c0-9.320312 7.566406-16.875 16.886719-16.875h232.007812c2.832031 0 5.507813.703125 7.847657 1.933594zm0 0" fill="#dde8ed"/><path d="m326.839844 376.574219c0 13.078125-10.597656 23.675781-23.675782 23.675781-13.074218 0-23.671874-10.597656-23.671874-23.675781 0-13.074219 10.597656-23.671875 23.671874-23.671875 13.078126 0 23.675782 10.597656 23.675782 23.671875zm0 0" fill="#3fb777"/><path d="m489.023438 347.585938v14.566406c-.890626 1.953125-1.796876 3.886718-2.738282 5.808594h-139.535156v-20.375zm0 0" fill="#3d4159"/><path d="m477.058594 385.191406c-4.105469 7.011719-8.535156 13.8125-13.269532 20.375h-117.039062v-20.375zm0 0" fill="#3d4159"/><path d="m306.886719 449.578125v29.246094c-26.855469 15.234375-56.75 25.757812-88.535157 30.425781-42.714843-6.296875-82.003906-23.140625-115.117187-47.800781-16.203125-12.070313-30.9375-26.019531-43.875-41.527344 11.683594-35.648437 43.875-62.023437 82.640625-65.15625 2.570312-.210937 5.164062-.316406 7.785156-.316406h61.953125c7.324219 0 14.449219.816406 21.292969 2.382812 42.300781 9.675781 73.855469 47.53125 73.855469 92.746094zm0 0" fill="#dd3033"/><path d="m306.886719 449.578125v57.363281c-16.445313 3.3125-33.457031 5.058594-50.886719 5.058594-9.082031 0-18.046875-.46875-26.886719-1.398438-46.882812-4.890624-89.996093-22.4375-125.878906-49.152343v-11.871094c0-52.539063 42.601563-95.128906 95.148437-95.128906h13.355469c23.238281 0 44.535157 8.328125 61.054688 22.164062v.007813c9.714843 8.132812 17.78125 18.164062 23.625 29.53125 6.695312 13.019531 10.46875 27.785156 10.46875 43.425781zm0 0" fill="#f74f4f"/><path d="m87.652344 249.535156c0 15.710938-11.476563 28.742188-26.507813 31.160156-1.644531.265626-3.332031.402344-5.058593.402344-17.4375 0-31.5625-14.125-31.5625-31.5625s14.125-31.566406 31.5625-31.566406c1.726562 0 3.414062.140625 5.058593.40625 15.03125 2.417969 26.507813 15.445312 26.507813 31.160156zm0 0" fill="#d3a489"/><path d="m206.300781 388.773438-25.535156 40.960937-25.539063-40.960937" fill="#dde8ed"/><path d="m203.222656 506.546875c-14.378906-3.011719-28.316406-7.230469-41.691406-12.550781l19.234375-74.917969zm0 0" fill="#dde8ed"/><path d="m87.652344 249.535156c0 15.710938-11.476563 28.742188-26.507813 31.160156-2.730469-9.929687-4.191406-20.378906-4.191406-31.160156 0-10.785156 1.457031-21.234375 4.191406-31.160156 15.03125 2.417969 26.507813 15.445312 26.507813 31.160156zm0 0" fill="#bf8e75"/><path d="m67.367188 249.535156c0 6.230469-5.050782 11.28125-11.28125 11.28125-6.230469 0-11.28125-5.050781-11.28125-11.28125 0-6.230468 5.050781-11.28125 11.28125-11.28125 6.230468 0 11.28125 5.050782 11.28125 11.28125zm0 0" fill="#bf8e75"/><path d="m180.753906 393.394531-42.828125 23.800781-13.027343-60.601562 26.613281-15.675781" fill="#dd3033"/><path d="m180.753906 393.394531 42.832032 23.800781 13.027343-60.601562-26.609375-15.675781" fill="#dd3033"/><path d="m273.867188 249.535156c0 15.710938 11.480468 28.742188 26.511718 31.160156 1.640625.265626 3.332032.402344 5.054688.402344 17.4375 0 31.566406-14.125 31.566406-31.5625s-14.128906-31.566406-31.566406-31.566406c-1.722656 0-3.414063.140625-5.054688.40625-15.03125 2.417969-26.511718 15.445312-26.511718 31.160156zm0 0" fill="#d3a489"/><g fill="#bf8e75"><path d="m273.867188 249.535156c0 15.710938 11.480468 28.742188 26.511718 31.160156 2.730469-9.929687 4.1875-20.378906 4.1875-31.160156 0-10.785156-1.457031-21.234375-4.1875-31.160156-15.03125 2.417969-26.511718 15.445312-26.511718 31.160156zm0 0"/><path d="m316.714844 249.535156c0 6.230469-5.050782 11.28125-11.28125 11.28125-6.230469 0-11.28125-5.050781-11.28125-11.28125 0-6.230468 5.050781-11.28125 11.28125-11.28125 6.230468 0 11.28125 5.050782 11.28125 11.28125zm0 0"/><path d="m298.207031 232.757812c0 58.441407-42.699219 106.925782-98.597656 115.925782-6.128906 1.007812-12.425781 1.515625-18.847656 1.515625-64.867188 0-117.441407-52.578125-117.441407-117.441407 0-30.691406 22.417969-76.761718 41.691407-97.683593 21.460937-23.300781 41.574219-19.761719 75.75-19.761719 6.421875 0 12.71875.507812 18.847656 1.515625 55.898437 9.003906 98.597656 57.484375 98.597656 115.929687zm0 0"/><path d="m214.703125 317.800781v41.65625c0 15.25-10.054687 28.140625-23.902344 32.421875-3.171875.980469-6.550781 1.515625-10.046875 1.515625-18.742187 0-33.933594-15.195312-33.933594-33.9375v-41.65625zm0 0"/></g><path d="m214.703125 356.816406v2.640625c0 15.25-10.054687 28.140625-23.902344 32.421875-12.496093-3.84375-21.894531-14.707031-23.628906-28.003906 2.269531.140625 4.546875.210938 6.839844.210938 6.421875 0 12.714843-.511719 18.847656-1.519532 7.554687-1.210937 14.855469-3.15625 21.84375-5.75zm0 0" fill="#d3a489"/><path d="m298.207031 232.757812c0 58.441407-42.699219 106.925782-98.597656 115.925782-55.898437-9-98.59375-57.484375-98.59375-115.925782 0-35.988281 16.1875-68.199218 41.691406-89.746093 15.898438-13.445313 35.429688-22.722657 56.902344-26.183594 52.117187 8.386719 92.765625 51.109375 98.015625 104.21875.382812 3.851563.582031 7.765625.582031 11.710937zm0 0" fill="#d3a489"/><path d="m180.761719 295.824219c-9.835938 0-19.667969-2.464844-28.632813-7.390625-2.527344-1.390625-3.449218-4.566406-2.0625-7.097656 1.394532-2.527344 4.570313-3.449219 7.097656-2.058594 14.777344 8.121094 32.421876 8.121094 47.195313 0 2.527344-1.390625 5.703125-.46875 7.09375 2.058594 1.394531 2.53125.46875 5.707031-2.058594 7.097656-8.964843 4.925781-18.800781 7.390625-28.632812 7.390625zm0 0" fill="#bf8e75"/><path d="m155.75 225.921875c0 7.359375-5.964844 13.320313-13.320312 13.320313-7.359376 0-13.324219-5.960938-13.324219-13.320313s5.964843-13.324219 13.324219-13.324219c7.355468 0 13.320312 5.964844 13.320312 13.324219zm0 0" fill="#3d4159"/><path d="m232.417969 225.921875c0 7.359375-5.964844 13.320313-13.320313 13.320313-7.359375 0-13.324218-5.960938-13.324218-13.320313s5.964843-13.324219 13.324218-13.324219c7.355469 0 13.320313 5.964844 13.320313 13.324219zm0 0" fill="#3d4159"/><path d="m153.035156 223.570312c0 3.152344-2.558594 5.707032-5.710937 5.707032-3.152344 0-5.707031-2.554688-5.707031-5.707032 0-3.152343 2.554687-5.707031 5.707031-5.707031 3.152343 0 5.710937 2.554688 5.710937 5.707031zm0 0" fill="#fff"/><path d="m230.355469 223.570312c0 3.152344-2.554688 5.707032-5.707031 5.707032-3.152344 0-5.707032-2.554688-5.707032-5.707032 0-3.152343 2.554688-5.707031 5.707032-5.707031 3.152343 0 5.707031 2.554688 5.707031 5.707031zm0 0" fill="#fff"/><path d="m194.085938 259.464844h-26.644532c-3.175781 0-5.75-2.574219-5.75-5.746094 0-3.175781 2.574219-5.746094 5.75-5.746094h26.644532c3.171874 0 5.746093 2.570313 5.746093 5.746094 0 3.171875-2.574219 5.746094-5.746093 5.746094zm0 0" fill="#bf8e75"/><path d="m219.429688 446.453125h51.199218v15.675781h-51.199218zm0 0" fill="#dd3033"/><path d="m173.890625 81.761719c35.574219 2.542969 64.140625 31.28125 65.953125 67.460937l.335938 6.789063h20.460937l11.027344 73.300781 26.699219-8.265625-3.585938-71.824219c-1.894531-38-33.324219-67.785156-71.363281-67.644531zm0 0" fill="#2a2f4f"/><path d="m292.519531 53.417969c28.328125 28.328125 28.328125 74.261719 0 102.59375-28.332031 28.328125-74.265625 28.328125-102.597656 0zm0 0" fill="#3d4159"/><path d="m189.921875 156.007812h-89.035156l-11.027344 73.304688-26.695313-8.261719 3.582032-71.832031c1.890625-37.992188 33.324218-67.785156 71.367187-67.640625l128.585938.480469 17.003906 30.601562" fill="#3d4159"/><path d="m187.632812 81.761719c-35.574218 2.542969-64.140624 31.28125-65.953124 67.460937l-.335938 6.789063h-20.464844l-11.023437 73.300781-26.699219-8.265625 3.585938-71.824219c1.894531-38 33.324218-67.785156 71.363281-67.644531zm0 0" fill="#2a2f4f"/><path d="m263.101562 136.785156h232.015626c9.324218 0 16.878906-7.558594 16.878906-16.878906v-75.953125c0-9.320313-7.554688-16.878906-16.878906-16.878906h-232.015626c-9.320312 0-16.875 7.558593-16.875 16.878906v75.953125c-.003906 9.320312 7.554688 16.878906 16.875 16.878906zm0 0" fill="#dde8ed"/><path d="m326.839844 81.929688c0 13.074218-10.597656 23.675781-23.675782 23.675781-13.074218 0-23.671874-10.601563-23.671874-23.675781 0-13.074219 10.597656-23.675782 23.671874-23.675782 13.078126 0 23.675782 10.601563 23.675782 23.675782zm0 0" fill="#f74f4f"/><path d="m346.746094 52.933594h142.273437v20.375h-142.273437zm0 0" fill="#3d4159"/><path d="m346.746094 90.546875h142.273437v20.375h-142.273437zm0 0" fill="#3d4159"/></svg>