<svg height="512pt" viewBox="0 0 512 512" width="512pt" xmlns="http://www.w3.org/2000/svg"><path d="m511.996094 256c0 141.382812-114.613282 255.996094-255.996094 255.996094-141.386719 0-256-114.613282-256-255.996094s114.613281-256 256-256c141.382812 0 255.996094 114.617188 255.996094 256zm0 0" fill="#ffe152"/><path d="m382.121094 449.574219v29.246093c-25.546875 14.503907-53.84375 24.722657-83.90625 29.707032-6.445313 1.066406-12.964844 1.902344-19.558594 2.476562-4.109375.367188-8.246094.628906-12.414062.785156-3.398438.144532-6.8125.207032-10.242188.207032-7.648438 0-15.203125-.332032-22.671875-.992188-18.953125-1.660156-37.3125-5.390625-54.859375-10.960937-.625-.199219-1.261719-.40625-1.890625-.617188-16.339844-5.316406-31.972656-12.253906-46.695313-20.605469v-29.246093c0-44.011719 29.882813-81.039063 70.476563-91.898438 1.484375-.394531 2.980469-.761719 4.496094-1.085937 4.03125-.878906 8.167969-1.484375 12.378906-1.828125 2.570313-.210938 5.164063-.3125 7.785156-.3125h61.953125c6.925782 0 13.675782.730469 20.175782 2.140625.375.074218.753906.15625 1.117187.242187 1.097656.25 2.195313.519531 3.273437.8125.03125.011719.050782.011719.082032.023438 10.710937 2.863281 20.679687 7.554687 29.539062 13.707031 24.753906 17.179688 40.960938 45.796875 40.960938 78.199219zm0 0" fill="#dd3033"/><path d="m382.121094 449.574219v29.246093c-25.546875 14.503907-53.84375 24.722657-83.90625 29.707032-6.445313 1.066406-12.964844 1.902344-19.558594 2.476562-4.109375.367188-8.246094.628906-12.414062.785156-3.398438.144532-6.8125.207032-10.242188.207032-7.648438 0-15.203125-.332032-22.671875-.992188-18.953125-1.660156-37.3125-5.390625-54.859375-10.960937-.625-.199219-1.261719-.40625-1.890625-.617188v-49.851562c0-44.011719 29.886719-81.039063 70.480469-91.898438 1.484375-.394531 2.976562-.761719 4.492187-1.085937 4.03125-.878906 8.171875-1.484375 12.382813-1.828125 2.570312-.210938 5.160156-.3125 7.78125-.3125h15.257812c6.925782 0 13.675782.730469 20.175782 2.140625.375.074218.753906.15625 1.117187.242187 1.097656.25 2.195313.519531 3.273437.8125.03125.011719.050782.011719.082032.023438 10.710937 2.863281 20.679687 7.554687 29.539062 13.707031 24.753906 17.179688 40.960938 45.796875 40.960938 78.199219zm0 0" fill="#f74f4f"/><path d="m311.847656 356.589844-.230468 1.074218-32.964844 153.339844c-7.460938.65625-15.027344.992188-22.652344.992188-7.648438 0-15.203125-.335938-22.675781-.992188l-32.964844-153.328125-.230469-1.085937zm0 0" fill="#f2f0ec"/><path d="m255.988281 393.390625-42.832031 23.804687-13.027344-60.601562 26.613282-15.675781" fill="#d8d5d0"/><path d="m255.988281 393.390625 42.828125 23.804687 13.03125-60.601562-26.613281-15.675781" fill="#d8d5d0"/><path d="m128.109375 331.511719v-143.472657c0-14.578124 2.433594-28.863281 7.230469-42.453124 17.957031-51.101563 66.445312-85.441407 120.65625-85.441407 6.714844 0 13.414062.519531 19.921875 1.546875 29.785156 4.652344 57.109375 19.855469 76.921875 42.808594 20.019531 23.191406 31.046875 52.859375 31.046875 83.539062v143.472657" fill="#cc7a3b"/><path d="m180.71875 193.640625c0 50.75 29.714844 109.460937 46.035156 137.871094h-98.648437v-143.472657c0-14.578124 2.4375-28.859374 7.230469-42.453124 17.847656-50.804688 65.890624-85.042969 119.726562-85.429688-39.320312.980469-74.34375 64.058594-74.34375 133.484375zm0 0" fill="#a35418"/><path d="m289.941406 317.800781v41.652344c0 15.25-10.054687 28.140625-23.902344 32.421875-3.171874.984375-6.550781 1.515625-10.042968 1.515625-18.746094 0-33.9375-15.191406-33.9375-33.9375v-41.652344zm0 0" fill="#eab599"/><path d="m289.941406 356.816406v2.636719c0 15.25-10.054687 28.140625-23.902344 32.421875-12.496093-3.839844-21.894531-14.707031-23.628906-28 2.269532.136719 4.546875.207031 6.839844.207031 6.421875 0 12.714844-.507812 18.847656-1.515625 7.554688-1.214844 14.855469-3.15625 21.84375-5.75zm0 0" fill="#f6caae"/><path d="m162.890625 249.53125c0 15.714844-11.480469 28.742188-26.507813 31.160156-1.644531.265625-3.332031.40625-5.058593.40625-17.4375 0-31.5625-14.128906-31.5625-31.566406s14.125-31.5625 31.5625-31.5625c1.726562 0 3.414062.136719 5.058593.402344 15.027344 2.417968 26.507813 15.449218 26.507813 31.160156zm0 0" fill="#f6caae"/><path d="m162.890625 249.53125c0 15.714844-11.480469 28.742188-26.507813 31.160156-2.730468-9.925781-4.191406-20.375-4.191406-31.160156 0-10.78125 1.457032-21.230469 4.191406-31.160156 15.027344 2.417968 26.507813 15.449218 26.507813 31.160156zm0 0" fill="#eab599"/><path d="m142.609375 249.53125c0 6.230469-5.050781 11.28125-11.285156 11.28125-6.230469 0-11.28125-5.050781-11.28125-11.28125s5.050781-11.28125 11.28125-11.28125c6.234375 0 11.285156 5.050781 11.285156 11.28125zm0 0" fill="#eab599"/><path d="m337.046875 209.226562v108.503907c-16.769531 16.007812-38.273437 27.09375-62.203125 30.949219-.1875.03125-.386719.0625-.574219.09375-5.945312.949218-12.046875 1.421874-18.273437 1.421874-64.859375 0-117.4375-52.578124-117.4375-117.4375v-44.71875c0-5.726562.40625-11.359374 1.203125-16.867187 27.9375 20.09375 68 18.109375 93.527343-6.015625 8.453126-7.984375 14.324219-17.492188 17.648438-27.578125 1.847656 17.660156 9.925781 34.847656 24.242188 48.378906 17.039062 16.09375 39.558593 23.855469 61.867187 23.269531zm0 0" fill="#eab599"/><path d="m337.046875 209.226562v108.503907c-16.769531 16.007812-38.273437 27.09375-62.203125 30.949219-.1875.03125-.386719.0625-.574219.09375-56.171875-8.777344-99.140625-57.386719-99.140625-116.015626v-44.71875c0-1.191406.023438-2.375.0625-3.554687 20.710938 2.121094 42.214844-4.316406 58.097656-19.328125 8.453126-7.984375 14.324219-17.492188 17.648438-27.578125 1.847656 17.660156 9.925781 34.847656 24.242188 48.378906 17.039062 16.09375 39.558593 23.855469 61.867187 23.269531zm0 0" fill="#f6caae"/><path d="m319.066406 222.839844c0-10.769532-8.730468-19.503906-19.503906-19.503906-10.769531 0-19.503906 8.730468-19.503906 19.503906" fill="#eab599"/><path d="m231.949219 222.839844c0-10.769532-8.730469-19.503906-19.503907-19.503906-10.773437 0-19.503906 8.730468-19.503906 19.503906" fill="#eab599"/><path d="m225.769531 231.144531c0 7.359375-5.964843 13.324219-13.324219 13.324219-7.355468 0-13.320312-5.964844-13.320312-13.324219s5.964844-13.320312 13.320312-13.320312c7.359376 0 13.324219 5.960937 13.324219 13.320312zm0 0" fill="#3d4159"/><path d="m312.886719 231.144531c0 7.359375-5.964844 13.324219-13.324219 13.324219-7.355469 0-13.320312-5.964844-13.320312-13.324219s5.964843-13.320312 13.320312-13.320312c7.359375 0 13.324219 5.960937 13.324219 13.320312zm0 0" fill="#3d4159"/><path d="m269.328125 264.6875h-26.644531c-3.175782 0-5.75-2.574219-5.75-5.746094 0-3.175781 2.574218-5.746094 5.75-5.746094h26.644531c3.171875 0 5.746094 2.570313 5.746094 5.746094 0 3.171875-2.574219 5.746094-5.746094 5.746094zm0 0" fill="#eab599"/><path d="m256.003906 301.046875c-9.832031 0-19.667968-2.464844-28.632812-7.390625-2.527344-1.390625-3.449219-4.566406-2.058594-7.097656 1.390625-2.527344 4.566406-3.449219 7.09375-2.058594 14.777344 8.121094 32.421875 8.121094 47.195312 0 2.527344-1.390625 5.703126-.46875 7.097657 2.058594 1.390625 2.53125.464843 5.707031-2.0625 7.097656-8.964844 4.925781-18.796875 7.390625-28.632813 7.390625zm0 0" fill="#eab599"/><path d="m223.050781 228.792969c0 3.152343-2.554687 5.707031-5.707031 5.707031s-5.707031-2.554688-5.707031-5.707031c0-3.152344 2.554687-5.707031 5.707031-5.707031s5.707031 2.554687 5.707031 5.707031zm0 0" fill="#fff"/><path d="m310.824219 228.792969c0 3.152343-2.558594 5.707031-5.710938 5.707031-3.152343 0-5.707031-2.554688-5.707031-5.707031 0-3.152344 2.554688-5.707031 5.707031-5.707031 3.152344 0 5.710938 2.554687 5.710938 5.707031zm0 0" fill="#fff"/><path d="m335.933594 263.59375c0 8.078125-6.550782 14.628906-14.628906 14.628906-8.078126 0-14.628907-6.550781-14.628907-14.628906s6.550781-14.628906 14.628907-14.628906c8.078124 0 14.628906 6.550781 14.628906 14.628906zm0 0" fill="#eab599"/><path d="m205.320312 263.59375c0 8.078125-6.546874 14.628906-14.625 14.628906-8.082031 0-14.628906-6.550781-14.628906-14.628906s6.546875-14.628906 14.628906-14.628906c8.078126 0 14.625 6.550781 14.625 14.628906zm0 0" fill="#eab599"/><g fill="#3d4159"><path d="m271.675781 409.167969v102.347656c-5.183593.324219-10.40625.480469-15.675781.480469-5.265625 0-10.488281-.15625-15.671875-.480469v-102.347656zm0 0"/><path d="m271.675781.480469v102.359375h-31.347656v-102.359375c5.183594-.324219 10.40625-.480469 15.671875-.480469 5.269531 0 10.492188.15625 15.675781.480469zm0 0"/><path d="m102.832031 240.324219v31.347656h-102.347656c-.324219-5.183594-.48046875-10.40625-.48046875-15.671875 0-5.269531.15624975-10.492188.48046875-15.675781zm0 0"/><path d="m512 256c0 5.265625-.15625 10.488281-.480469 15.671875h-102.359375v-31.347656h102.359375c.324219 5.183593.480469 10.40625.480469 15.675781zm0 0"/><path d="m471.4375 240.324219c-7.679688-106.640625-93.132812-192.082031-199.761719-199.761719-5.171875-.375-10.40625-.5625-15.675781-.5625-5.265625 0-10.5.1875-15.671875.5625-106.640625 7.679688-192.09375 93.121094-199.773437 199.761719-.375 5.171875-.5625 10.40625-.5625 15.675781 0 5.265625.1875 10.5.5625 15.671875 7.679687 106.640625 93.132812 192.082031 199.773437 199.761719 5.171875.375 10.40625.566406 15.671875.566406 5.269531 0 10.503906-.191406 15.675781-.566406 106.628907-7.679688 192.082031-93.121094 199.761719-199.761719.375-5.171875.5625-10.40625.5625-15.671875 0-5.269531-.1875-10.503906-.5625-15.675781zm-199.761719 199.667969c-5.164062.441406-10.398437.660156-15.675781.660156-5.273438 0-10.511719-.21875-15.671875-.660156-89.347656-7.542969-160.789063-78.972657-168.332031-168.320313-.4375-5.171875-.660156-10.398437-.660156-15.671875 0-5.277344.222656-10.511719.660156-15.675781 7.542968-89.335938 78.984375-160.777344 168.332031-168.320313 5.160156-.4375 10.398437-.660156 15.671875-.660156 5.277344 0 10.511719.222656 15.675781.660156 89.335938 7.542969 160.777344 78.984375 168.320313 168.320313.4375 5.164062.660156 10.398437.660156 15.675781 0 5.273438-.222656 10.5-.660156 15.671875-7.542969 89.347656-78.984375 160.777344-168.320313 168.320313zm0 0"/></g></svg>