<svg height="512pt" viewBox="0 0 512 512" width="512pt" xmlns="http://www.w3.org/2000/svg"><path d="m512 256c0 141.386719-114.613281 256-256 256-78.679688 0-149.074219-35.496094-196.035156-91.355469-6.507813-7.730469-12.558594-15.851562-18.128906-24.324219-26.445313-40.300781-41.835938-88.515624-41.835938-140.320312 0-141.386719 114.613281-256 256-256s256 114.613281 256 256zm0 0" fill="#f74f4f"/><path d="m84.097656 256h-20.898437c0-106.308594 86.488281-192.796875 192.796875-192.796875 32.207031 0 64.082031 8.101563 92.1875 23.429687l-10.007813 18.347657c-25.042969-13.660157-53.460937-20.878907-82.179687-20.878907-94.785156 0-171.898438 77.113282-171.898438 171.898438zm0 0" fill="#ffe152"/><path d="m255.996094 448.796875c-56.183594 0-109.449219-24.4375-146.144532-67.046875l15.835938-13.636719c32.71875 37.992188 80.214844 59.785157 130.308594 59.785157 94.785156 0 171.898437-77.113282 171.898437-171.898438h20.898438c0 106.308594-86.488281 192.796875-192.796875 192.796875zm0 0" fill="#ffe152"/><path d="m89.996094 397.300781c0 11.996094-8.765625 21.933594-20.226563 23.78125-1.253906.199219-2.550781.304688-3.855469.304688-2.050781 0-4.046874-.25-5.949218-.742188-6.507813-7.730469-12.558594-15.851562-18.128906-24.324219.515624-12.84375 11.089843-23.105468 24.078124-23.105468 1.304688 0 2.601563.105468 3.855469.316406 11.460938 1.839844 20.226563 11.785156 20.226563 23.769531zm0 0" fill="#d3a489"/><path d="m89.992188 397.300781c0 11.992188-8.757813 21.933594-20.226563 23.777344-2.082031-7.574219-3.195313-15.546875-3.195313-23.777344 0-8.226562 1.113282-16.199219 3.195313-23.773437 11.46875 1.84375 20.226563 11.785156 20.226563 23.773437zm0 0" fill="#bf8e75"/><path d="m74.515625 397.300781c0 4.753907-3.855469 8.609375-8.609375 8.609375s-8.605469-3.855468-8.605469-8.609375c0-4.753906 3.851563-8.605469 8.605469-8.605469s8.609375 3.851563 8.609375 8.605469zm0 0" fill="#bf8e75"/><path d="m232.085938 397.300781c0 11.992188 8.757812 21.933594 20.226562 23.777344 1.253906.203125 2.542969.308594 3.859375.308594 13.304687 0 24.085937-10.777344 24.085937-24.085938 0-13.304687-10.78125-24.085937-24.085937-24.085937-1.316406 0-2.605469.105468-3.859375.3125-11.46875 1.84375-20.226562 11.785156-20.226562 23.773437zm0 0" fill="#d3a489"/><g fill="#bf8e75"><path d="m232.085938 397.300781c0 11.992188 8.757812 21.933594 20.226562 23.777344 2.082031-7.574219 3.195312-15.546875 3.195312-23.777344 0-8.226562-1.113281-16.199219-3.195312-23.773437-11.46875 1.84375-20.226562 11.785156-20.226562 23.773437zm0 0"/><path d="m264.777344 397.300781c0 4.753907-3.851563 8.609375-8.605469 8.609375s-8.609375-3.855468-8.609375-8.609375c0-4.753906 3.855469-8.605469 8.609375-8.605469s8.605469 3.851563 8.605469 8.605469zm0 0"/><path d="m250.65625 384.5c0 44.597656-32.578125 81.589844-75.234375 88.460938-4.679687.765624-9.480469 1.15625-14.382813 1.15625-49.496093 0-89.613281-40.121094-89.613281-89.617188 0-23.417969 8.132813-58.574219 22.839844-74.535156 16.375-17.777344 40.695313-15.078125 66.773437-15.078125 4.902344 0 9.703126.386719 14.382813 1.15625 42.65625 6.867187 75.234375 43.863281 75.234375 88.457031zm0 0"/></g><path d="m250.65625 384.5c0 44.597656-32.578125 81.589844-75.234375 88.460938-42.652344-6.871094-75.230469-43.863282-75.230469-88.460938 0-27.457031 12.351563-52.039062 31.808594-68.476562 12.132812-10.261719 27.035156-17.339844 43.421875-19.980469 39.765625 6.398437 70.785156 38.996093 74.792969 79.523437.289062 2.941406.441406 5.921875.441406 8.933594zm0 0" fill="#d3a489"/><path d="m161.039062 428.636719c-7.503906 0-15.007812-1.878907-21.847656-5.640625-1.929687-1.058594-2.632812-3.484375-1.570312-5.410156 1.058594-1.933594 3.484375-2.636719 5.414062-1.574219 11.273438 6.199219 24.738282 6.199219 36.011719 0 1.929687-1.0625 4.355469-.355469 5.414063 1.574219 1.0625 1.929687.359374 4.351562-1.570313 5.410156-6.84375 3.761718-14.347656 5.640625-21.851563 5.640625zm0 0" fill="#bf8e75"/><path d="m141.957031 379.285156c0 5.613282-4.554687 10.167969-10.167969 10.167969-5.613281 0-10.164062-4.554687-10.164062-10.167969 0-5.613281 4.550781-10.164062 10.164062-10.164062 5.613282 0 10.167969 4.550781 10.167969 10.164062zm0 0" fill="#3d4159"/><path d="m200.457031 379.285156c0 5.613282-4.550781 10.167969-10.167969 10.167969-5.613281 0-10.164062-4.554687-10.164062-10.167969 0-5.613281 4.550781-10.164062 10.164062-10.164062 5.617188 0 10.167969 4.550781 10.167969 10.164062zm0 0" fill="#3d4159"/><path d="m139.882812 377.492188c0 2.40625-1.949218 4.355468-4.355468 4.355468s-4.355469-1.949218-4.355469-4.355468 1.949219-4.355469 4.355469-4.355469 4.355468 1.949219 4.355468 4.355469zm0 0" fill="#fff"/><path d="m198.882812 377.492188c0 2.40625-1.949218 4.355468-4.355468 4.355468s-4.355469-1.949218-4.355469-4.355468 1.949219-4.355469 4.355469-4.355469 4.355468 1.949219 4.355468 4.355469zm0 0" fill="#fff"/><path d="m171.207031 404.878906h-20.332031c-2.421875 0-4.386719-1.960937-4.386719-4.382812s1.964844-4.386719 4.386719-4.386719h20.332031c2.421875 0 4.382813 1.964844 4.382813 4.386719s-1.960938 4.382812-4.382813 4.382812zm0 0" fill="#bf8e75"/><path d="m155.796875 269.285156c27.148437 1.9375 48.945313 23.871094 50.324219 51.476563l.257812 5.179687h15.613282l8.414062 55.933594 20.371094-6.308594-2.738282-54.804687c-1.441406-28.996094-25.425781-51.722657-54.449218-51.617188zm0 0" fill="#2a2f4f"/><path d="m246.316406 247.65625c21.617188 21.617188 21.617188 56.667969 0 78.285156-21.617187 21.617188-56.667968 21.617188-78.285156 0zm0 0" fill="#3d4159"/><path d="m168.03125 325.9375h-67.9375l-8.414062 55.933594-20.371094-6.304688 2.730468-54.808594c1.445313-28.992187 25.429688-51.722656 54.457032-51.613281l98.121094.367188 12.96875 23.347656" fill="#3d4159"/><path d="m166.28125 269.285156c-27.144531 1.9375-48.941406 23.871094-50.324219 51.476563l-.253906 5.179687h-15.617187l-8.414063 55.933594-20.367187-6.308594 2.734374-54.804687c1.445313-28.996094 25.429688-51.722657 54.453126-51.617188zm0 0" fill="#2a2f4f"/><path d="m316.304688 166.203125c0 11.183594-8.167969 20.453125-18.863282 22.171875-1.167968.191406-2.371094.289062-3.597656.289062-12.40625 0-22.457031-10.050781-22.457031-22.457031 0-12.410156 10.050781-22.460937 22.457031-22.460937 1.226562 0 2.429688.101562 3.597656.289062 10.695313 1.71875 18.863282 10.988282 18.863282 22.167969zm0 0" fill="#f6caae"/><path d="m316.304688 166.203125c0 11.183594-8.167969 20.453125-18.863282 22.171875-1.941406-7.0625-2.980468-14.496094-2.980468-22.171875 0-7.671875 1.039062-15.105469 2.980468-22.171875 10.695313 1.722656 18.863282 10.992188 18.863282 22.171875zm0 0" fill="#eab599"/><path d="m301.871094 166.203125c0 4.433594-3.59375 8.027344-8.027344 8.027344s-8.027344-3.59375-8.027344-8.027344 3.59375-8.027344 8.027344-8.027344 8.027344 3.59375 8.027344 8.027344zm0 0" fill="#eab599"/><path d="m448.800781 166.203125c0 11.183594 8.167969 20.453125 18.863281 22.171875 1.167969.191406 2.371094.289062 3.597657.289062 12.40625 0 22.457031-10.050781 22.457031-22.457031 0-12.410156-10.050781-22.460937-22.457031-22.460937-1.226563 0-2.429688.101562-3.597657.289062-10.695312 1.71875-18.863281 10.988282-18.863281 22.167969zm0 0" fill="#f6caae"/><path d="m448.800781 166.203125c0 11.183594 8.167969 20.453125 18.863281 22.171875 1.941407-7.0625 2.980469-14.496094 2.980469-22.171875 0-7.671875-1.039062-15.105469-2.980469-22.171875-10.695312 1.722656-18.863281 10.992188-18.863281 22.171875zm0 0" fill="#eab599"/><path d="m466.117188 122.449219v31.820312c0 41.582031-30.378907 76.082031-70.15625 82.480469-.132813.023438-.273438.046875-.40625.066406-4.230469.675782-8.574219 1.011719-13.003907 1.011719-46.148437 0-83.558593-37.410156-83.558593-83.558594v-31.820312c0-9.71875 1.65625-19.054688 4.71875-27.730469 11.425781-32.519531 42.414062-55.835938 78.835937-55.835938h.007813c4.425781 0 8.773437.339844 13.011718 1.011719 39.972656 6.242188 70.550782 40.832031 70.550782 82.554688zm0 0" fill="#eab599"/><path d="m479.289062 166.203125c0 4.433594-3.59375 8.027344-8.027343 8.027344-4.433594 0-8.027344-3.59375-8.027344-8.027344s3.59375-8.027344 8.027344-8.027344c4.433593 0 8.027343 3.59375 8.027343 8.027344zm0 0" fill="#eab599"/><path d="m466.117188 122.449219v31.820312c0 41.582031-30.378907 76.078125-70.15625 82.480469-.132813.023438-.273438.042969-.40625.066406-39.96875-6.246094-70.542969-40.832031-70.542969-82.546875v-31.820312c0-41.722657 30.578125-76.3125 70.554687-82.554688 39.972656 6.242188 70.550782 40.832031 70.550782 82.554688zm0 0" fill="#f6caae"/><path d="m364.757812 149.402344c0 5.238281-4.246093 9.480468-9.480468 9.480468s-9.480469-4.242187-9.480469-9.480468c0-5.234375 4.246094-9.476563 9.480469-9.476563s9.480468 4.242188 9.480468 9.476563zm0 0" fill="#3d4159"/><path d="m419.308594 149.402344c0 5.238281-4.246094 9.480468-9.480469 9.480468s-9.480469-4.242187-9.480469-9.480468c0-5.234375 4.246094-9.476563 9.480469-9.476563s9.480469 4.242188 9.480469 9.476563zm0 0" fill="#3d4159"/><path d="m362.824219 147.730469c0 2.242187-1.820313 4.0625-4.0625 4.0625-2.242188 0-4.0625-1.820313-4.0625-4.0625 0-2.242188 1.820312-4.0625 4.0625-4.0625 2.242187 0 4.0625 1.820312 4.0625 4.0625zm0 0" fill="#fff"/><path d="m417.839844 147.730469c0 2.242187-1.816406 4.0625-4.058594 4.0625-2.246094 0-4.0625-1.820313-4.0625-4.0625 0-2.242188 1.816406-4.0625 4.0625-4.0625 2.242188 0 4.058594 1.820312 4.058594 4.0625zm0 0" fill="#fff"/><path d="m392.03125 169.550781h-18.957031c-2.257813 0-4.089844-1.828125-4.089844-4.085937 0-2.257813 1.832031-4.089844 4.089844-4.089844h18.957031c2.261719 0 4.089844 1.832031 4.089844 4.089844 0 2.257812-1.828125 4.085937-4.089844 4.085937zm0 0" fill="#eab599"/><path d="m382.554688 195.421875c-7 0-13.996094-1.753906-20.375-5.257813-1.796876-.992187-2.453126-3.25-1.464844-5.050781.988281-1.796875 3.25-2.453125 5.046875-1.464843 10.515625 5.78125 23.070312 5.78125 33.582031 0 1.800781-.988282 4.058594-.332032 5.046875 1.464843.992187 1.800781.332031 4.0625-1.464844 5.050781-6.378906 3.507813-13.375 5.257813-20.371093 5.257813zm0 0" fill="#eab599"/><path d="m466.117188 93.570312v32.597657h-15.554688v-25.527344l-112.265625-20.863281-23.753906-4.414063v50.804688h-15.550781v-32.597657c0-37.160156 30.117187-67.277343 67.269531-67.277343h32.585937c.882813 0 1.769532.015625 2.652344.058593 35.917969 1.382813 64.617188 30.945313 64.617188 67.21875zm0 0" fill="#a35418"/><path d="m466.117188 93.570312v32.597657h-15.554688v-25.527344l-112.265625-20.863281c6.1875-29.707032 31.964844-52.21875 63.203125-53.425782 35.917969 1.382813 64.617188 30.945313 64.617188 67.21875zm0 0" fill="#cc7a3b"/><path d="m462.699219 295.132812-25.617188-25.613281-29.945312 20.46875-11.792969-17.253906 44.257812-30.25 37.875 37.871094zm0 0" fill="#ffe152"/><path d="m72.390625 269.519531-37.875-37.875 14.777344-14.777343 25.617187 25.617187 29.945313-20.46875 11.792969 17.253906zm0 0" fill="#ffe152"/></svg>