<svg height="512pt" viewBox="0 0 512 512" width="512pt" xmlns="http://www.w3.org/2000/svg"><path d="m512 256c0 141.386719-114.613281 256-256 256s-256-114.613281-256-256 114.613281-256 256-256 256 114.613281 256 256zm0 0" fill="#854f89"/><path d="m512 166.316406c0 62.066406-34 116.191406-84.394531 144.761719v.007813c-24.179688 13.710937-52.140625 21.546874-81.921875 21.546874-21.722656 0-42.476563-4.167968-61.492188-11.746093h-.019531c-61.410156-24.449219-104.804687-84.4375-104.804687-154.570313 0-46.613281 19.175781-88.753906 50.070312-118.941406 29.980469-29.308594 71.003906-47.375 116.246094-47.375 18.996094 0 37.25 3.1875 54.25 9.046875 65.214844 22.5 112.066406 84.410156 112.066406 157.269531zm0 0" fill="#66baed"/><path d="m380.78125 328.914062c-11.316406 2.433594-23.058594 3.71875-35.097656 3.71875-21.722656 0-42.476563-4.167968-61.492188-11.746093h-.019531c-61.410156-24.449219-104.804687-84.4375-104.804687-154.570313 0-46.613281 19.175781-88.753906 50.070312-118.941406 29.980469-29.308594 71.003906-47.375 116.246094-47.375 12.039062 0 23.769531 1.273438 35.078125 3.71875-31.191407 6.699219-59.132813 22.152344-81.125 43.65625-30.898438 30.1875-50.074219 72.328125-50.074219 118.941406 0 70.132813 43.394531 130.121094 104.804688 154.570313h.019531c8.476562 3.375 17.292969 6.082031 26.394531 8.027343zm0 0" fill="#2ba1cf"/><path d="m512 166.316406c0 62.066406-34 116.191406-84.394531 144.761719-28.988281-59.039063-96.402344-6.78125-104.242188-80.4375-7.824219-73.664063 80.71875-47.804687 106.582031-73.664063 25.859376-25.863281 0-65.832031-21.945312-43.886718-21.941406 21.941406-54.855469 15.671875-47.019531-6.269532 7.835937-21.941406 45.453125-31.347656 18.390625-40.75-27.074219-9.394531 0-36.46875 20.542968-57.011718l.019532-.011719c43.25 14.921875 78.421875 47.179687 97.199218 88.464844-20.167968 0-38.976562 34.386719-20.167968 53.195312 10.207031 10.207031 22.894531 12.996094 35.023437 13.90625.011719.5625.011719 1.140625.011719 1.703125zm0 0" fill="#3fb777"/><path d="m284.191406 320.886719h-.019531c-61.410156-24.449219-104.804687-84.4375-104.804687-154.570313 0-46.613281 19.175781-88.753906 50.070312-118.941406 45.351562 10.867188 53.1875 42.203125 23.40625 53.175781-29.351562 10.8125-31.292969 30.761719-1.347656 40.332031.449218.148438.886718.28125 1.347656.417969 21.179688 6.355469 13.019531 26.3125-2.726562 38.589844-7.542969 5.882813-16.84375 10-25.484376 10-26.644531 0-4.703124 54.070313 27.429688 54.070313 32.128906 0 32.128906 76.925781 32.128906 76.925781zm0 0" fill="#ffe152"/><path d="m284.191406 320.886719h-.019531c-61.410156-24.449219-104.804687-84.4375-104.804687-154.570313 0-46.613281 19.175781-88.753906 50.070312-118.941406 45.351562 10.867188 53.1875 42.203125 23.40625 53.175781-29.351562 10.8125-31.292969 30.761719-1.347656 40.332031-1.273438 8.296876-1.933594 16.78125-1.933594 25.433594 0 4.566406.1875 9.089844.554688 13.574219-7.542969 5.882813-16.84375 10-25.484376 10-26.644531 0-4.703124 54.070313 27.429688 54.070313 32.128906 0 32.128906 76.925781 32.128906 76.925781zm0 0" fill="#2da365"/><path d="m463.632812 36.519531c-.921874-43.101562-65.660156-43.101562-66.582031 0-.007812.472657-.011719.941407-.011719 1.414063 0 24.382812 13.433594 45.625 33.304688 56.734375 19.871094-11.109375 33.304688-32.351563 33.304688-56.734375 0-.472656-.003907-.941406-.015626-1.414063zm0 0" fill="#f74f4f"/><path d="m447.3125 36.828125c0 5.441406-2.558594 10.28125-6.542969 13.386719-2.875 2.246094-6.496093 3.582031-10.425781 3.582031s-7.550781-1.335937-10.429688-3.582031c-3.980468-3.105469-6.539062-7.945313-6.539062-13.386719 0-9.371094 7.59375-16.96875 16.96875-16.96875 9.371094 0 16.96875 7.597656 16.96875 16.96875zm0 0" fill="#dde8ed"/><path d="m393.277344 170.964844c-.921875-43.105469-65.660156-43.105469-66.582032 0-.011718.46875-.015624.941406-.015624 1.414062 0 24.382813 13.4375 45.625 33.308593 56.734375 19.867188-11.109375 33.304688-32.351562 33.304688-56.734375 0-.472656-.007813-.945312-.015625-1.414062zm0 0" fill="#f74f4f"/><path d="m376.957031 171.269531c0 5.441407-2.5625 10.285157-6.542969 13.390625-2.875 2.246094-6.496093 3.582032-10.429687 3.582032-3.929687 0-7.550781-1.339844-10.425781-3.582032-3.984375-3.105468-6.542969-7.949218-6.542969-13.390625 0-9.371093 7.597656-16.96875 16.96875-16.96875 9.375 0 16.972656 7.597657 16.972656 16.96875zm0 0" fill="#dde8ed"/><path d="m482.441406 207.882812c-.921875-43.101562-65.660156-43.101562-66.582031 0-.011719.472657-.015625.941407-.015625 1.414063 0 24.382813 13.4375 45.625 33.308594 56.734375 19.867187-11.109375 33.304687-32.351562 33.304687-56.734375 0-.472656-.003906-.941406-.015625-1.414063zm0 0" fill="#f74f4f"/><path d="m466.121094 208.191406c0 5.441406-2.558594 10.28125-6.542969 13.386719-2.875 2.246094-6.496094 3.582031-10.425781 3.582031-3.933594 0-7.550782-1.335937-10.429688-3.582031-3.980468-3.105469-6.542968-7.945313-6.542968-13.386719 0-9.371094 7.597656-16.96875 16.972656-16.96875 9.371094 0 16.96875 7.597656 16.96875 16.96875zm0 0" fill="#dde8ed"/><path d="m298.53125 449.578125v29.246094c-25.546875 14.503906-53.84375 24.722656-83.90625 29.707031-.144531.019531-.28125.039062-.429688.0625-45.585937-7.484375-87.113281-27-121.207031-55.203125-14.554687-12.027344-27.753906-25.632813-39.339843-40.5625 11.273437-26.886719 34.542968-47.511719 63.121093-55.148437 1.484375-.398438 2.980469-.765626 4.492188-1.089844 4.035156-.875 8.171875-1.480469 12.382812-1.828125 2.570313-.207031 5.164063-.3125 7.785157-.3125h61.953124c6.925782 0 13.675782.730469 20.175782 2.140625.375.074218.753906.15625 1.117187.242187 1.097657.25 2.195313.523438 3.273438.816407.03125.007812.050781.007812.082031.019531 10.710938 2.863281 20.679688 7.554687 29.539062 13.707031 24.753907 17.179688 40.960938 45.800781 40.960938 78.203125zm0 0" fill="#a35418"/><path d="m298.53125 449.578125v58.898437c-13.835938 2.320313-28.035156 3.523438-42.527344 3.523438-61.941406 0-118.742187-21.996094-163.015625-58.609375v-3.8125c0-44.011719 29.882813-81.042969 70.480469-91.898437 1.480469-.398438 2.976562-.765626 4.492188-1.089844 4.03125-.875 8.171874-1.480469 12.382812-1.828125 2.570312-.207031 5.160156-.3125 7.78125-.3125h15.257812c6.925782 0 13.675782.730469 20.175782 2.140625.375.074218.753906.15625 1.117187.242187 1.097657.25 2.195313.523438 3.273438.816407.03125.007812.050781.007812.082031.019531 10.710938 2.863281 20.679688 7.554687 29.539062 13.707031 24.753907 17.179688 40.960938 45.800781 40.960938 78.203125zm0 0" fill="#cc7a3b"/><path d="m228.261719 356.589844-.230469 1.078125-31.671875 147.332031c-18.128906-4.316406-35.503906-10.566406-51.898437-18.527344l-27.691407-128.792968-.230469-1.089844zm0 0" fill="#f2f0ec"/><path d="m172.398438 393.394531-42.832032 23.800781-13.027344-60.601562 26.613282-15.675781" fill="#d8d5d0"/><path d="m172.398438 393.394531 42.828124 23.800781 13.03125-60.601562-26.613281-15.675781" fill="#d8d5d0"/><path d="m44.519531 331.511719v-143.472657c0-14.578124 2.433594-28.863281 7.230469-42.453124 17.957031-51.101563 66.445312-85.445313 120.652344-85.445313 6.71875 0 13.417968.523437 19.925781 1.550781 29.785156 4.652344 57.109375 19.855469 76.921875 42.808594 20.023438 23.191406 31.046875 52.859375 31.046875 83.539062v143.472657" fill="#3d4159"/><path d="m97.125 193.640625c0 50.75 29.71875 109.460937 46.039062 137.875h-98.648437v-143.476563c0-14.578124 2.433594-28.859374 7.230469-42.453124 17.847656-50.804688 65.890625-85.046876 119.726562-85.433594-39.320312.984375-74.347656 64.0625-74.347656 133.488281zm0 0" fill="#2a2f4f"/><path d="m206.351562 317.800781v41.65625c0 15.25-10.054687 28.136719-23.902343 32.417969-3.171875.984375-6.550781 1.519531-10.046875 1.519531-18.742188 0-33.9375-15.195312-33.9375-33.9375v-41.65625zm0 0" fill="#eab599"/><path d="m206.351562 356.816406v2.640625c0 15.25-10.054687 28.140625-23.902343 32.421875-12.496094-3.84375-21.894531-14.707031-23.628907-28.003906 2.265626.140625 4.546876.210938 6.835938.210938 6.421875 0 12.71875-.511719 18.851562-1.519532 7.554688-1.214844 14.855469-3.15625 21.84375-5.75zm0 0" fill="#f6caae"/><path d="m79.300781 249.53125c0 15.714844-11.480469 28.742188-26.511719 31.160156-1.640624.269532-3.332031.40625-5.054687.40625-17.4375 0-31.566406-14.128906-31.566406-31.566406 0-17.433594 14.128906-31.5625 31.566406-31.5625 1.722656 0 3.414063.136719 5.054687.40625 15.03125 2.417969 26.511719 15.445312 26.511719 31.15625zm0 0" fill="#f6caae"/><g fill="#eab599"><path d="m79.300781 249.53125c0 15.714844-11.480469 28.742188-26.511719 31.160156-2.730468-9.925781-4.1875-20.375-4.1875-31.160156 0-10.78125 1.457032-21.230469 4.1875-31.15625 15.03125 2.417969 26.511719 15.445312 26.511719 31.15625zm0 0"/><path d="m59.015625 249.53125c0 6.234375-5.050781 11.285156-11.28125 11.285156s-11.28125-5.050781-11.28125-11.285156c0-6.230469 5.050781-11.28125 11.28125-11.28125s11.28125 5.050781 11.28125 11.28125zm0 0"/><path d="m253.457031 209.226562v108.503907c-16.769531 16.007812-38.273437 27.09375-62.203125 30.949219-.1875.03125-.386718.0625-.574218.09375-5.945313.953124-12.046876 1.421874-18.277344 1.421874-64.855469 0-117.433594-52.578124-117.433594-117.4375v-44.71875c0-5.726562.40625-11.359374 1.199219-16.867187 27.941406 20.09375 68.003906 18.109375 93.53125-6.015625 8.453125-7.984375 14.324219-17.492188 17.648437-27.578125 1.847656 17.660156 9.925782 34.847656 24.242188 48.378906 17.039062 16.09375 39.558594 23.855469 61.867187 23.269531zm0 0"/></g><path d="m253.457031 209.226562v108.503907c-16.769531 16.007812-38.273437 27.09375-62.203125 30.949219-.1875.03125-.386718.0625-.574218.09375-56.175782-8.777344-99.140626-57.386719-99.140626-116.015626v-44.71875c0-1.191406.019532-2.375.0625-3.554687 20.710938 2.121094 42.214844-4.316406 58.097657-19.328125 8.453125-7.984375 14.324219-17.492188 17.648437-27.578125 1.847656 17.660156 9.925782 34.847656 24.242188 48.378906 17.039062 16.09375 39.558594 23.855469 61.867187 23.269531zm0 0" fill="#f6caae"/><path d="m235.476562 222.839844c0-10.769532-8.730468-19.503906-19.503906-19.503906-10.769531 0-19.503906 8.730468-19.503906 19.503906" fill="#eab599"/><path d="m148.359375 222.839844c0-10.769532-8.730469-19.503906-19.503906-19.503906-10.773438 0-19.503907 8.730468-19.503907 19.503906" fill="#eab599"/><path d="m142.175781 231.144531c0 7.359375-5.964843 13.324219-13.320312 13.324219-7.359375 0-13.324219-5.964844-13.324219-13.324219 0-7.355469 5.964844-13.320312 13.324219-13.320312 7.355469 0 13.320312 5.964843 13.320312 13.320312zm0 0" fill="#3d4159"/><path d="m229.296875 231.144531c0 7.359375-5.964844 13.324219-13.324219 13.324219-7.355468 0-13.320312-5.964844-13.320312-13.324219 0-7.355469 5.964844-13.320312 13.320312-13.320312 7.359375 0 13.324219 5.964843 13.324219 13.320312zm0 0" fill="#3d4159"/><path d="m185.738281 264.6875h-26.644531c-3.175781 0-5.75-2.570312-5.75-5.746094 0-3.175781 2.574219-5.746094 5.75-5.746094h26.644531c3.171875 0 5.746094 2.570313 5.746094 5.746094 0 3.175782-2.574219 5.746094-5.746094 5.746094zm0 0" fill="#eab599"/><path d="m172.414062 301.046875c-9.835937 0-19.667968-2.464844-28.632812-7.390625-2.527344-1.390625-3.449219-4.566406-2.0625-7.09375 1.390625-2.53125 4.570312-3.453125 7.097656-2.0625 14.777344 8.125 32.421875 8.121094 47.195313 0 2.527343-1.390625 5.703125-.46875 7.09375 2.0625 1.390625 2.527344.46875 5.703125-2.058594 7.09375-8.964844 4.925781-18.800781 7.390625-28.632813 7.390625zm0 0" fill="#eab599"/><path d="m139.460938 228.792969c0 3.152343-2.554688 5.710937-5.707032 5.710937s-5.707031-2.558594-5.707031-5.710937c0-3.152344 2.554687-5.707031 5.707031-5.707031s5.707032 2.554687 5.707032 5.707031zm0 0" fill="#fff"/><path d="m227.234375 228.792969c0 3.152343-2.558594 5.710937-5.710937 5.710937-3.152344 0-5.707032-2.558594-5.707032-5.710937 0-3.152344 2.554688-5.707031 5.707032-5.707031 3.152343 0 5.710937 2.554687 5.710937 5.707031zm0 0" fill="#fff"/><path d="m252.34375 263.59375c0 8.078125-6.550781 14.628906-14.628906 14.628906s-14.628906-6.550781-14.628906-14.628906 6.550781-14.628906 14.628906-14.628906 14.628906 6.550781 14.628906 14.628906zm0 0" fill="#eab599"/><path d="m121.730469 263.59375c0 8.078125-6.546875 14.628906-14.628907 14.628906-8.078124 0-14.628906-6.550781-14.628906-14.628906s6.550782-14.628906 14.628906-14.628906c8.082032 0 14.628907 6.550781 14.628907 14.628906zm0 0" fill="#eab599"/><path d="m379.992188 248.421875-128.460938 263.535156c-7.554688-.125-15.035156-.585937-22.414062-1.359375l139.527343-267.898437c1.609375-3.085938 5.390625-4.296875 8.492188-2.738281 3.105469 1.566406 4.378906 5.339843 2.855469 8.460937zm0 0" fill="#3d4159"/></svg>