<svg height="512pt" viewBox="0 0 512 512" width="512pt" xmlns="http://www.w3.org/2000/svg"><path d="m512 256c0 56.183594-18.097656 108.148438-48.785156 150.351562-10.09375 13.886719-21.535156 26.707032-34.160156 38.285157-7.898438 7.25-16.246094 14.011719-25.011719 20.226562-6.144531 4.367188-12.488281 8.476563-19.03125 12.289063-37.875 22.152344-81.960938 34.847656-129.011719 34.847656-43.613281 0-84.667969-10.898438-120.601562-30.136719-28.902344-15.460937-54.480469-36.308593-75.410157-61.199219-4.136719-4.910156-8.089843-9.976562-11.851562-15.203124-1.890625-2.621094-3.730469-5.277344-5.503907-7.972657-3.261718-4.898437-6.355468-9.914062-9.269531-15.046875-21.230469-37.300781-33.363281-80.457031-33.363281-126.441406 0-141.386719 114.613281-256 256-256s256 114.613281 256 256zm0 0" fill="#66baed"/><path d="m394.273438 351.542969h-18.808594v-97.875h-241.71875v97.875h-18.808594v-116.679688h279.335938zm0 0" fill="#ffe152"/><path d="m246.589844 171.742188h18.808594v69.738281h-18.808594zm0 0" fill="#ffe152"/><path d="m463.214844 360.21875v46.132812c-10.09375 13.886719-21.535156 26.707032-34.160156 38.285157-7.898438 7.25-16.246094 14.011719-25.011719 20.226562h-127.375v-104.644531c0-10.628906 1.777343-21.042969 5.277343-30.960938 13.09375-37.273437 48.460938-62.316406 87.992188-62.316406 4.898438 0 9.789062.386719 14.53125 1.128906 21.726562 3.394532 41.652344 14.480469 56.101562 31.21875 14.609376 16.917969 22.644532 38.558594 22.644532 60.929688zm0 0" fill="#f74f4f"/><path d="m315.039062 364.304688c0 37.011718 21.671876 79.835937 33.574219 100.554687h-71.945312v-104.640625c0-10.628906 1.777343-21.046875 5.273437-30.960938 13.015625-37.054687 48.054688-62.027343 87.316406-62.308593-28.675781.71875-54.21875 46.722656-54.21875 97.355469zm0 0" fill="#dd3033"/><path d="m302.035156 405.070312c0 11.460938-8.371094 20.960938-19.332031 22.722657-1.199219.195312-2.429687.296875-3.6875.296875-12.71875 0-23.023437-10.304688-23.023437-23.019532 0-12.71875 10.304687-23.023437 23.023437-23.023437 1.257813 0 2.488281.101563 3.6875.296875 10.960937 1.765625 19.332031 11.265625 19.332031 22.726562zm0 0" fill="#f6caae"/><g fill="#eab599"><path d="m302.035156 405.070312c0 11.460938-8.371094 20.960938-19.332031 22.722657-1.992187-7.238281-3.054687-14.859375-3.054687-22.722657 0-7.867187 1.0625-15.488281 3.054687-22.726562 10.960937 1.765625 19.332031 11.265625 19.332031 22.726562zm0 0"/><path d="m287.242188 405.070312c0 4.542969-3.683594 8.226563-8.226563 8.226563s-8.226563-3.683594-8.226563-8.226563c0-4.546874 3.683594-8.230468 8.226563-8.230468s8.226563 3.683594 8.226563 8.230468zm0 0"/><path d="m429.054688 375.671875v68.964844c-7.898438 7.25-16.246094 14.011719-25.011719 20.226562-6.144531 4.367188-12.488281 8.476563-19.03125 12.289063-.4375.082031-.886719.15625-1.324219.230468-.136719.019532-.28125.042969-.417969.0625-4.335937.699219-8.789062 1.042969-13.332031 1.042969-47.292969 0-85.640625-38.347656-85.640625-85.648437v-32.621094c0-4.179688.292969-8.285156.867187-12.300781 20.386719 14.660156 49.601563 13.210937 68.21875-4.386719 6.167969-5.820312 10.449219-12.757812 12.863282-20.113281 1.359375 12.882812 7.242187 25.421875 17.679687 35.285156 12.433594 11.734375 28.859375 17.398437 45.128907 16.96875zm0 0"/></g><path d="m429.054688 375.671875v68.964844c-13.4375 12.339843-28.191407 23.257812-44.042969 32.515625-.4375.082031-.886719.15625-1.324219.230468-.136719.019532-.28125.042969-.417969.0625-40.972656-6.394531-72.308593-41.847656-72.308593-84.605468v-32.621094c0-.867188.023437-1.726562.054687-2.589844 15.097656 1.542969 30.78125-3.144531 42.367187-14.097656 6.167969-5.820312 10.449219-12.757812 12.863282-20.113281 1.359375 12.882812 7.242187 25.421875 17.679687 35.285156 12.433594 11.734375 28.859375 17.398437 45.128907 16.96875zm0 0" fill="#f6caae"/><path d="m415.941406 385.601562c0-7.855468-6.367187-14.222656-14.226562-14.222656-7.855469 0-14.222656 6.367188-14.222656 14.222656" fill="#eab599"/><path d="m352.40625 385.601562c0-7.855468-6.371094-14.222656-14.226562-14.222656-7.855469 0-14.226563 6.367188-14.226563 14.222656" fill="#eab599"/><path d="m347.894531 391.660156c0 5.363282-4.347656 9.714844-9.714843 9.714844-5.367188 0-9.71875-4.351562-9.71875-9.714844 0-5.367187 4.351562-9.71875 9.71875-9.71875 5.367187 0 9.714843 4.351563 9.714843 9.71875zm0 0" fill="#3d4159"/><path d="m411.433594 391.660156c0 5.363282-4.351563 9.714844-9.71875 9.714844-5.363282 0-9.714844-4.351562-9.714844-9.714844 0-5.367187 4.351562-9.71875 9.714844-9.71875 5.367187 0 9.71875 4.351563 9.71875 9.71875zm0 0" fill="#3d4159"/><path d="m379.664062 416.125h-19.433593c-2.3125 0-4.191407-1.878906-4.191407-4.191406 0-2.316406 1.878907-4.191406 4.191407-4.191406h19.433593c2.3125 0 4.191407 1.875 4.191407 4.191406 0 2.3125-1.878907 4.191406-4.191407 4.191406zm0 0" fill="#eab599"/><path d="m369.945312 442.640625c-7.171874 0-14.34375-1.796875-20.878906-5.390625-1.847656-1.015625-2.519531-3.332031-1.503906-5.175781 1.011719-1.84375 3.328125-2.515625 5.171875-1.503907 10.777344 5.925782 23.648437 5.925782 34.421875 0 1.84375-1.011718 4.164062-.339843 5.175781 1.503907s.339844 4.160156-1.503906 5.175781c-6.535156 3.59375-13.707031 5.390625-20.882813 5.390625zm0 0" fill="#eab599"/><path d="m345.914062 389.945312c0 2.296876-1.863281 4.164063-4.164062 4.164063s-4.164062-1.867187-4.164062-4.164063c0-2.300781 1.863281-4.164062 4.164062-4.164062s4.164062 1.863281 4.164062 4.164062zm0 0" fill="#fff"/><path d="m409.929688 389.945312c0 2.296876-1.863282 4.164063-4.164063 4.164063s-4.164063-1.867187-4.164063-4.164063c0-2.300781 1.863282-4.164062 4.164063-4.164062s4.164063 1.863281 4.164063 4.164062zm0 0" fill="#fff"/><path d="m428.242188 415.324219c0 5.894531-4.777344 10.671875-10.667969 10.671875-5.894531 0-10.671875-4.777344-10.671875-10.671875 0-5.890625 4.777344-10.667969 10.671875-10.667969 5.890625 0 10.667969 4.777344 10.667969 10.667969zm0 0" fill="#eab599"/><path d="m332.984375 415.324219c0 5.894531-4.777344 10.671875-10.671875 10.671875-5.890625 0-10.667969-4.777344-10.667969-10.671875 0-5.890625 4.777344-10.667969 10.667969-10.667969 5.894531 0 10.671875 4.777344 10.671875 10.667969zm0 0" fill="#eab599"/><path d="m65.734375 405.066406c0 5.953125-2.164063 11.398438-5.746094 15.597656-4.136719-4.910156-8.089843-9.976562-11.851562-15.203124-5.316407-7.386719-10.25-15.066407-14.773438-23.019532 2.582031-.949218 5.371094-1.460937 8.277344-1.460937 1.316406 0 2.609375.105469 3.863281.3125 11.464844 1.839843 20.230469 11.789062 20.230469 23.773437zm0 0" fill="#d3a489"/><path d="m65.734375 405.066406c0 5.953125-2.164063 11.398438-5.746094 15.597656-4.136719-4.910156-8.089843-9.976562-11.851562-15.203124-1.890625-2.621094-3.730469-5.277344-5.503907-7.972657.457032-5.558593 1.429688-10.96875 2.871094-16.195312 11.464844 1.839843 20.230469 11.789062 20.230469 23.773437zm0 0" fill="#bf8e75"/><path d="m207.824219 405.070312c0 11.988282 8.757812 21.929688 20.226562 23.777344 1.253907.199219 2.542969.308594 3.859375.308594 13.304688 0 24.085938-10.78125 24.085938-24.085938 0-13.308593-10.78125-24.085937-24.085938-24.085937-1.316406 0-2.605468.105469-3.859375.308594-11.46875 1.84375-20.226562 11.785156-20.226562 23.777343zm0 0" fill="#d3a489"/><path d="m207.824219 405.070312c0 11.988282 8.757812 21.929688 20.226562 23.777344 2.082031-7.578125 3.195313-15.550781 3.195313-23.777344 0-8.230468-1.113282-16.203124-3.195313-23.777343-11.46875 1.84375-20.226562 11.785156-20.226562 23.777343zm0 0" fill="#bf8e75"/><path d="m240.515625 405.070312c0 4.753907-3.855469 8.605469-8.609375 8.605469s-8.605469-3.851562-8.605469-8.605469c0-4.753906 3.851563-8.609374 8.605469-8.609374s8.609375 3.855468 8.609375 8.609374zm0 0" fill="#bf8e75"/><path d="m226.386719 392.265625c0 44.597656-32.570313 81.59375-75.230469 88.460937-4.671875.773438-9.480469 1.160157-14.378906 1.160157-.460938 0-.917969 0-1.378906-.023438-34.609376-18.515625-64.460938-44.75-87.261719-76.402343-.636719-4.304688-.96875-8.714844-.96875-13.195313 0-23.417969 8.128906-58.566406 22.828125-74.53125 16.386718-17.785156 40.699218-15.078125 66.78125-15.078125 4.898437 0 9.707031.386719 14.378906 1.148438 42.660156 6.875 75.230469 43.863281 75.230469 88.460937zm0 0" fill="#bf8e75"/><path d="m226.394531 392.265625c0 44.597656-32.582031 81.589844-75.234375 88.460937-42.652344-6.871093-75.234375-43.863281-75.234375-88.460937 0-27.457031 12.351563-52.039063 31.8125-68.476563 12.132813-10.261718 27.035157-17.339843 43.421875-19.980468 39.765625 6.402344 70.78125 38.996094 74.789063 79.523437.292969 2.941407.445312 5.925781.445312 8.933594zm0 0" fill="#d3a489"/><path d="m136.777344 436.40625c-7.503906 0-15.007813-1.882812-21.847656-5.640625-1.929688-1.0625-2.632813-3.484375-1.574219-5.414063 1.0625-1.929687 3.484375-2.632812 5.414062-1.574218 11.277344 6.199218 24.738281 6.199218 36.015625 0 1.925782-1.058594 4.351563-.355469 5.414063 1.574218 1.058593 1.929688.355469 4.351563-1.574219 5.414063-6.839844 3.757813-14.34375 5.640625-21.847656 5.640625zm0 0" fill="#bf8e75"/><path d="m117.691406 387.050781c0 5.617188-4.550781 10.167969-10.164062 10.167969-5.617188 0-10.167969-4.550781-10.167969-10.167969 0-5.613281 4.550781-10.164062 10.167969-10.164062 5.613281 0 10.164062 4.550781 10.164062 10.164062zm0 0" fill="#3d4159"/><path d="m176.195312 387.050781c0 5.617188-4.554687 10.167969-10.167968 10.167969-5.613282 0-10.164063-4.550781-10.164063-10.167969 0-5.613281 4.550781-10.164062 10.164063-10.164062 5.613281 0 10.167968 4.550781 10.167968 10.164062zm0 0" fill="#3d4159"/><path d="m115.621094 385.257812c0 2.40625-1.953125 4.355469-4.355469 4.355469-2.40625 0-4.359375-1.949219-4.359375-4.355469s1.953125-4.355468 4.359375-4.355468c2.402344 0 4.355469 1.949218 4.355469 4.355468zm0 0" fill="#fff"/><path d="m174.621094 385.257812c0 2.40625-1.953125 4.355469-4.355469 4.355469-2.40625 0-4.359375-1.949219-4.359375-4.355469s1.953125-4.355468 4.359375-4.355468c2.402344 0 4.355469 1.949218 4.355469 4.355468zm0 0" fill="#fff"/><path d="m146.941406 412.648438h-20.328125c-2.425781 0-4.386719-1.964844-4.386719-4.386719s1.960938-4.386719 4.386719-4.386719h20.328125c2.421875 0 4.386719 1.964844 4.386719 4.386719s-1.964844 4.386719-4.386719 4.386719zm0 0" fill="#bf8e75"/><path d="m131.535156 277.050781c27.144532 1.941407 48.941406 23.871094 50.324219 51.476563l.257813 5.183594h15.613281l8.414062 55.929687 20.371094-6.304687-2.738281-54.808594c-1.445313-28.996094-25.425782-51.722656-54.453125-51.617188zm0 0" fill="#2a2f4f"/><path d="m222.050781 255.421875c21.621094 21.617187 21.621094 56.667969 0 78.285156-21.617187 21.617188-56.664062 21.617188-78.285156 0zm0 0" fill="#3d4159"/><path d="m143.769531 333.707031h-67.941406l-8.414063 55.933594-20.371093-6.304687 2.734375-54.8125c1.445312-28.988282 25.425781-51.722657 54.453125-51.613282l98.121093.367188 12.972657 23.351562" fill="#3d4159"/><path d="m142.019531 277.050781c-27.144531 1.941407-48.941406 23.871094-50.324219 51.476563l-.257812 5.183594h-15.613281l-8.414063 55.929687-20.371094-6.304687 2.738282-54.808594c1.445312-28.996094 25.425781-51.722656 54.453125-51.617188zm0 0" fill="#2a2f4f"/><path d="m189.746094 139.910156c0 11.183594-8.164063 20.453125-18.859375 22.171875-1.171875.191407-2.371094.289063-3.597657.289063-12.40625 0-22.460937-10.050782-22.460937-22.457032 0-12.410156 10.054687-22.460937 22.460937-22.460937 1.226563 0 2.425782.101563 3.597657.289063 10.695312 1.71875 18.859375 10.988281 18.859375 22.167968zm0 0" fill="#f6caae"/><path d="m189.746094 139.910156c0 11.183594-8.164063 20.453125-18.859375 22.171875-1.945313-7.0625-2.980469-14.496093-2.980469-22.171875 0-7.671875 1.035156-15.105468 2.980469-22.171875 10.695312 1.722657 18.859375 10.992188 18.859375 22.171875zm0 0" fill="#eab599"/><path d="m175.316406 139.910156c0 4.433594-3.59375 8.027344-8.027344 8.027344-4.433593 0-8.027343-3.59375-8.027343-8.027344 0-4.429687 3.59375-8.023437 8.027343-8.023437 4.433594 0 8.027344 3.59375 8.027344 8.023437zm0 0" fill="#eab599"/><path d="m322.246094 139.910156c0 11.183594 8.167968 20.453125 18.859375 22.171875 1.171875.191407 2.371093.289063 3.597656.289063 12.410156 0 22.460937-10.050782 22.460937-22.457032 0-12.410156-10.050781-22.460937-22.460937-22.460937-1.226563 0-2.425781.101563-3.597656.289063-10.691407 1.71875-18.859375 10.988281-18.859375 22.167968zm0 0" fill="#f6caae"/><path d="m322.246094 139.910156c0 11.183594 8.167968 20.453125 18.859375 22.171875 1.945312-7.0625 2.980469-14.496093 2.980469-22.171875 0-7.671875-1.035157-15.105468-2.980469-22.171875-10.691407 1.722657-18.859375 10.992188-18.859375 22.171875zm0 0" fill="#eab599"/><path d="m339.558594 96.15625v31.820312c0 41.582032-30.375 76.082032-70.152344 82.480469-.132812.023438-.273438.046875-.410156.066407-4.230469.675781-8.570313 1.011718-13.003906 1.011718-46.144532 0-83.558594-37.410156-83.558594-83.558594v-31.820312c0-9.71875 1.660156-19.054688 4.722656-27.730469 11.425781-32.519531 42.414062-55.835937 78.835938-55.835937h.007812c4.425781 0 8.773438.34375 13.011719 1.011718 39.96875 6.246094 70.546875 40.832032 70.546875 82.554688zm0 0" fill="#eab599"/><path d="m352.734375 139.910156c0 4.433594-3.59375 8.027344-8.027344 8.027344-4.433593 0-8.027343-3.59375-8.027343-8.027344 0-4.429687 3.59375-8.023437 8.027343-8.023437 4.433594 0 8.027344 3.59375 8.027344 8.023437zm0 0" fill="#eab599"/><path d="m339.558594 96.15625v31.820312c0 41.582032-30.375 76.082032-70.152344 82.480469-.132812.023438-.273438.046875-.410156.066407-39.96875-6.242188-70.539063-40.828126-70.539063-82.546876v-31.820312c0-41.722656 30.578125-76.308594 70.554688-82.554688 39.96875 6.246094 70.546875 40.832032 70.546875 82.554688zm0 0" fill="#f6caae"/><path d="m238.203125 123.109375c0 5.238281-4.246094 9.480469-9.480469 9.480469s-9.480468-4.242188-9.480468-9.480469c0-5.234375 4.246093-9.476563 9.480468-9.476563s9.480469 4.242188 9.480469 9.476563zm0 0" fill="#3d4159"/><path d="m292.753906 123.109375c0 5.238281-4.246094 9.480469-9.480468 9.480469-5.234376 0-9.480469-4.242188-9.480469-9.480469 0-5.234375 4.246093-9.476563 9.480469-9.476563 5.234374 0 9.480468 4.242188 9.480468 9.476563zm0 0" fill="#3d4159"/><path d="m236.269531 121.4375c0 2.242188-1.820312 4.0625-4.0625 4.0625-2.242187 0-4.0625-1.820312-4.0625-4.0625s1.820313-4.0625 4.0625-4.0625c2.242188 0 4.0625 1.820312 4.0625 4.0625zm0 0" fill="#fff"/><path d="m291.285156 121.4375c0 2.242188-1.820312 4.0625-4.0625 4.0625-2.242187 0-4.058594-1.820312-4.058594-4.0625s1.816407-4.0625 4.058594-4.0625c2.242188 0 4.0625 1.820312 4.0625 4.0625zm0 0" fill="#fff"/><path d="m265.476562 143.261719h-18.957031c-2.257812 0-4.089843-1.832031-4.089843-4.089844s1.832031-4.089844 4.089843-4.089844h18.957031c2.257813 0 4.089844 1.832031 4.089844 4.089844s-1.832031 4.089844-4.089844 4.089844zm0 0" fill="#eab599"/><path d="m255.996094 169.132812c-6.996094 0-13.992188-1.753906-20.371094-5.261718-1.800781-.988282-2.457031-3.25-1.46875-5.046875.992188-1.800781 3.25-2.457031 5.050781-1.46875 10.511719 5.78125 23.066407 5.78125 33.582031 0 1.796876-.988281 4.058594-.332031 5.046876 1.46875.988281 1.796875.332031 4.058593-1.46875 5.046875-6.375 3.507812-13.371094 5.261718-20.371094 5.261718zm0 0" fill="#eab599"/><path d="m339.558594 67.277344v32.597656h-15.550782v-25.527344l-112.265624-20.863281-23.753907-4.414063v50.804688h-15.554687v-32.597656c0-37.15625 30.121094-67.277344 67.269531-67.277344h32.585937c.886719 0 1.773438.015625 2.65625.0625 35.917969 1.378906 64.613282 30.941406 64.613282 67.214844zm0 0" fill="#a35418"/><path d="m339.558594 67.277344v32.597656h-15.550782v-25.527344l-112.265624-20.863281c6.1875-29.707031 31.960937-52.21875 63.203124-53.421875 35.917969 1.378906 64.613282 30.941406 64.613282 67.214844zm0 0" fill="#cc7a3b"/></svg>