<svg height="512pt" viewBox="0 0 512.00001 512" width="512pt" xmlns="http://www.w3.org/2000/svg"><path d="m511.996094 256c0 141.382812-114.613282 255.996094-255.996094 255.996094-141.386719 0-256-114.613282-256-255.996094s114.613281-256 256-256c141.382812 0 255.996094 114.617188 255.996094 256zm0 0" fill="#854f89"/><path d="m382.117188 449.574219v29.246093c-37.21875 21.117188-80.257813 33.175782-126.117188 33.175782-27.03125 0-53.070312-4.1875-77.53125-11.953125-17.03125-5.402344-33.300781-12.546875-48.589844-21.222657v-29.246093c0-49.914063 38.441406-90.863281 87.355469-94.8125 2.570313-.210938 5.160156-.3125 7.78125-.3125h61.953125c7.324219 0 14.449219.8125 21.296875 2.382812 42.296875 9.675781 73.851563 47.53125 73.851563 92.742188zm0 0" fill="#bfd5de"/><path d="m382.121094 449.574219v29.246093c-30.773438 17.460938-65.515625 28.726563-102.546875 32.089844-7.761719.722656-15.632813 1.085938-23.574219 1.085938-7.949219 0-15.816406-.363282-23.582031-1.074219-18.628907-1.703125-36.6875-5.402344-53.949219-10.878906v-50.46875c0-52.535157 42.601562-95.125 95.148438-95.125h13.355468c52.558594 0 95.148438 42.589843 95.148438 95.125zm0 0" fill="#dde8ed"/><path d="m162.886719 249.53125c0 15.714844-11.476563 28.742188-26.507813 31.160156-1.644531.265625-3.332031.40625-5.058594.40625-17.433593 0-31.5625-14.128906-31.5625-31.566406s14.128907-31.5625 31.5625-31.5625c1.726563 0 3.414063.136719 5.058594.402344 15.03125 2.417968 26.507813 15.449218 26.507813 31.160156zm0 0" fill="#d3a489"/><path d="m281.535156 388.773438-25.535156 40.960937-25.539062-40.960937" fill="#f74f4f"/><path d="m279.574219 510.910156c-7.761719.722656-15.632813 1.085938-23.574219 1.085938-7.949219 0-15.816406-.363282-23.582031-1.074219l23.582031-91.847656zm0 0" fill="#f74f4f"/><path d="m162.886719 249.53125c0 15.714844-11.476563 28.742188-26.507813 31.160156-2.730468-9.925781-4.191406-20.375-4.191406-31.160156 0-10.78125 1.460938-21.230469 4.191406-31.160156 15.03125 2.417968 26.507813 15.449218 26.507813 31.160156zm0 0" fill="#bf8e75"/><path d="m142.605469 249.53125c0 6.230469-5.054688 11.28125-11.285157 11.28125-6.230468 0-11.28125-5.050781-11.28125-11.28125s5.050782-11.28125 11.28125-11.28125c6.230469 0 11.285157 5.050781 11.285157 11.28125zm0 0" fill="#bf8e75"/><path d="m255.992188 393.390625-42.832032 23.804687-13.027344-60.605468 26.613282-15.671875" fill="#bfd5de"/><path d="m255.992188 393.390625 42.828124 23.804687 13.027344-60.605468-26.609375-15.671875" fill="#bfd5de"/><path d="m349.101562 249.53125c0 15.714844 11.480469 28.742188 26.511719 31.160156 1.640625.265625 3.332031.40625 5.054688.40625 17.4375 0 31.566406-14.128906 31.566406-31.566406s-14.128906-31.5625-31.566406-31.5625c-1.722657 0-3.414063.136719-5.054688.402344-15.03125 2.417968-26.511719 15.449218-26.511719 31.160156zm0 0" fill="#d3a489"/><g fill="#bf8e75"><path d="m349.101562 249.53125c0 15.714844 11.480469 28.742188 26.511719 31.160156 2.726563-9.925781 4.1875-20.375 4.1875-31.160156 0-10.78125-1.457031-21.230469-4.1875-31.160156-15.03125 2.417968-26.511719 15.449218-26.511719 31.160156zm0 0"/><path d="m391.949219 249.53125c0 6.230469-5.050781 11.28125-11.28125 11.28125s-11.28125-5.050781-11.28125-11.28125 5.050781-11.28125 11.28125-11.28125 11.28125 5.050781 11.28125 11.28125zm0 0"/><path d="m373.4375 232.753906c0 58.445313-42.695312 106.925782-98.59375 115.925782-6.132812 1.007812-12.425781 1.519531-18.847656 1.519531-64.867188 0-117.441406-52.578125-117.441406-117.445313 0-30.6875 14.582031-76.761718 33.855468-97.683594 21.460938-23.296874 49.410156-19.757812 83.585938-19.757812 6.421875 0 12.714844.507812 18.847656 1.515625 55.898438 9 98.59375 57.484375 98.59375 115.925781zm0 0"/><path d="m289.941406 317.800781v41.652344c0 15.25-10.058594 28.140625-23.90625 32.421875-3.171875.984375-6.550781 1.515625-10.042968 1.515625-18.746094 0-33.9375-15.191406-33.9375-33.9375v-41.652344zm0 0"/></g><path d="m289.941406 356.816406v2.640625c0 15.25-10.058594 28.136719-23.90625 32.417969-12.496094-3.839844-21.890625-14.703125-23.628906-28 2.269531.140625 4.546875.207031 6.839844.207031 6.421875 0 12.714844-.507812 18.847656-1.515625 7.554688-1.214844 14.855469-3.15625 21.847656-5.75zm0 0" fill="#d3a489"/><path d="m373.4375 232.753906c0 58.445313-42.695312 106.925782-98.59375 115.925782-55.898438-9-98.59375-57.480469-98.59375-115.925782 0-35.984375 16.1875-68.195312 41.691406-89.742187 15.898438-13.445313 35.429688-22.726563 56.902344-26.183594 52.117188 8.386719 92.765625 51.105469 98.015625 104.214844.382813 3.855469.578125 7.765625.578125 11.710937zm0 0" fill="#d3a489"/><path d="m255.996094 278.625c9.835937 0 19.667968 2.464844 28.632812 7.394531 2.527344 1.386719 3.449219 4.566407 2.0625 7.09375-1.390625 2.527344-4.570312 3.449219-7.097656 2.0625-14.773438-8.125-32.417969-8.125-47.195312 0-2.527344 1.386719-5.703126.46875-7.09375-2.0625-1.390626-2.527343-.46875-5.707031 2.0625-7.09375 8.960937-4.929687 18.796874-7.394531 28.628906-7.394531zm0 0" fill="#bf8e75"/><path d="m230.984375 225.921875c0 7.355469-5.964844 13.320313-13.320313 13.320313-7.359374 0-13.324218-5.964844-13.324218-13.320313 0-7.359375 5.964844-13.324219 13.324218-13.324219 7.355469 0 13.320313 5.964844 13.320313 13.324219zm0 0" fill="#3d4159"/><path d="m307.652344 225.921875c0 7.355469-5.964844 13.320313-13.320313 13.320313-7.359375 0-13.324219-5.964844-13.324219-13.320313 0-7.359375 5.964844-13.324219 13.324219-13.324219 7.355469 0 13.320313 5.964844 13.320313 13.324219zm0 0" fill="#3d4159"/><path d="m228.269531 223.570312c0 3.152344-2.558593 5.707032-5.710937 5.707032s-5.707032-2.554688-5.707032-5.707032c0-3.152343 2.554688-5.710937 5.707032-5.710937s5.710937 2.558594 5.710937 5.710937zm0 0" fill="#fff"/><path d="m305.589844 223.570312c0 3.152344-2.554688 5.707032-5.707032 5.707032-3.152343 0-5.710937-2.554688-5.710937-5.707032 0-3.152343 2.558594-5.710937 5.710937-5.710937 3.152344 0 5.707032 2.558594 5.707032 5.710937zm0 0" fill="#fff"/><path d="m269.320312 259.464844h-26.644531c-3.175781 0-5.75-2.574219-5.75-5.75 0-3.171875 2.574219-5.746094 5.75-5.746094h26.644531c3.171876 0 5.746094 2.574219 5.746094 5.746094 0 3.175781-2.574218 5.75-5.746094 5.75zm0 0" fill="#bf8e75"/><path d="m294.664062 446.449219h51.199219v15.675781h-51.199219zm0 0" fill="#bfd5de"/><path d="m249.125 81.761719c35.574219 2.542969 64.140625 31.28125 65.953125 67.460937l.335937 6.789063h20.460938l11.027344 73.300781 26.699218-8.265625-3.585937-71.824219c-1.894531-38.003906-33.324219-67.785156-71.363281-67.648437zm0 0" fill="#2a2f4f"/><path d="m367.75 53.414062c28.332031 28.332032 28.332031 74.265626 0 102.59375-28.328125 28.332032-74.261719 28.332032-102.59375 0zm0 0" fill="#3d4159"/><path d="m265.160156 156.007812h-89.039062l-11.023438 73.304688-26.695312-8.265625 3.578125-71.828125c1.894531-37.996094 33.324219-67.785156 71.367187-67.644531l128.585938.484375 17.003906 30.601562" fill="#3d4159"/><path d="m262.867188 81.761719c-35.574219 2.542969-64.140626 31.28125-65.949219 67.460937l-.339844 6.789063h-20.460937l-11.027344 73.300781-26.695313-8.265625 3.585938-71.824219c1.890625-38.003906 33.324219-67.785156 71.359375-67.648437zm0 0" fill="#2a2f4f"/><path d="m512 92.660156c0 51.175782-41.484375 92.660156-92.660156 92.660156-51.175782 0-92.660156-41.484374-92.660156-92.660156 0-51.175781 41.484374-92.660156 92.660156-92.660156 51.175781 0 92.660156 41.484375 92.660156 92.660156zm0 0" fill="#f74f4f"/><path d="m468.164062 113.9375-27.539062 27.539062-70.101562-70.097656 27.539062-27.542968zm0 0" fill="#f2f0ec"/><path d="m398.0625 141.484375-27.539062-27.539063 70.101562-70.101562 27.539062 27.539062zm0 0" fill="#f2f0ec"/></svg>