<svg height="512pt" viewBox="0 0 512 512" width="512pt" xmlns="http://www.w3.org/2000/svg"><path d="m511.867188 256.066406c0 23.160156-3.082032 45.597656-8.847657 66.941406-1.722656 6.371094-3.675781 12.636719-5.871093 18.800782-2.464844 6.9375-5.222657 13.726562-8.253907 20.371094-40.320312 88.386718-129.46875 149.820312-232.960937 149.820312-103.492188 0-192.640625-61.433594-232.960938-149.820312-3.03125-6.644532-5.789062-13.433594-8.253906-20.371094-2.195312-6.164063-4.148438-12.429688-5.871094-18.800782-5.765625-21.34375-8.847656-43.78125-8.847656-66.941406 0-141.347656 114.585938-255.933594 255.933594-255.933594s255.933594 114.585938 255.933594 255.933594zm0 0" fill="#3fb777"/><path d="m488.894531 302.207031v32.039063c-25.214843 55.273437-69.519531 99.992187-124.476562 125.753906-9.953125 4.660156-20.265625 8.703125-30.878907 12.066406-11.941406 3.8125-24.257812 6.746094-36.894531 8.761719-.054687.011719-.117187.023437-.167969.023437v-178.644531c0-38.074219 29.320313-69.308593 66.636719-72.316406 1.964844-.167969 3.9375-.242187 5.933594-.242187h47.257813c5.589843 0 11.03125.617187 16.253906 1.816406 32.257812 7.375 56.335937 36.261718 56.335937 70.742187zm0 0" fill="#bfd5de"/><path d="m488.894531 302.207031v32.039063c-25.214843 55.273437-69.519531 99.992187-124.476562 125.753906-9.953125 4.660156-20.265625 8.703125-30.878907 12.066406v-169.859375c0-40.070312 32.5-72.558593 72.582032-72.558593h10.195312c40.089844 0 72.578125 32.488281 72.578125 72.558593zm0 0" fill="#dde8ed"/><path d="m321.652344 149.609375c0 11.988281-8.753906 21.925781-20.222656 23.769531-1.25.203125-2.539063.308594-3.855469.308594-13.304688 0-24.082031-10.777344-24.082031-24.078125s10.777343-24.078125 24.082031-24.078125c1.316406 0 2.605469.105469 3.855469.308594 11.464843 1.84375 20.222656 11.78125 20.222656 23.769531zm0 0" fill="#d3a489"/><path d="m412.164062 255.828125-19.480468 31.246094-19.480469-31.246094" fill="#f74f4f"/><path d="m418.894531 375.347656-26.210937 33.082032-26.21875-33.082032 26.222656-96.402344zm0 0" fill="#f74f4f"/><path d="m321.652344 149.609375c0 11.988281-8.753906 21.925781-20.222656 23.769531-2.082032-7.574218-3.195313-15.542968-3.195313-23.769531s1.113281-16.195313 3.195313-23.769531c11.464843 1.84375 20.222656 11.78125 20.222656 23.769531zm0 0" fill="#bf8e75"/><path d="m306.179688 149.609375c0 4.753906-3.851563 8.605469-8.605469 8.605469-4.753907 0-8.605469-3.851563-8.605469-8.605469s3.851562-8.605469 8.605469-8.605469c4.753906 0 8.605469 3.851563 8.605469 8.605469zm0 0" fill="#bf8e75"/><path d="m392.675781 259.351562-32.671875 18.160157-9.9375-46.230469 20.300782-11.957031" fill="#bfd5de"/><path d="m392.675781 259.351562 32.675781 18.160157 9.9375-46.230469-20.300781-11.957031" fill="#bfd5de"/><path d="m463.707031 149.609375c0 11.988281 8.757813 21.925781 20.222657 23.769531 1.253906.203125 2.542968.308594 3.859374.308594 13.300782 0 24.078126-10.777344 24.078126-24.078125s-10.777344-24.078125-24.078126-24.078125c-1.316406 0-2.605468.105469-3.859374.308594-11.464844 1.84375-20.222657 11.78125-20.222657 23.769531zm0 0" fill="#d3a489"/><g fill="#bf8e75"><path d="m463.707031 149.609375c0 11.988281 8.757813 21.925781 20.222657 23.769531 2.085937-7.574218 3.195312-15.542968 3.195312-23.769531s-1.109375-16.195313-3.195312-23.769531c-11.464844 1.84375-20.222657 11.78125-20.222657 23.769531zm0 0"/><path d="m496.394531 149.609375c0 4.753906-3.855469 8.605469-8.605469 8.605469-4.753906 0-8.605468-3.851563-8.605468-8.605469s3.851562-8.605469 8.605468-8.605469c4.75 0 8.605469 3.851563 8.605469 8.605469zm0 0"/><path d="m482.273438 136.8125c0 44.582031-32.570313 81.566406-75.210938 88.433594-4.679688.769531-9.480469 1.15625-14.382812 1.15625-49.480469 0-89.589844-40.109375-89.589844-89.589844 0-23.414062 8.132812-58.558594 22.832031-74.519531 16.375-17.773438 40.6875-15.074219 66.757813-15.074219 4.902343 0 9.703124.390625 14.382812 1.15625 42.640625 6.867188 75.210938 43.851562 75.210938 88.4375zm0 0"/><path d="m418.574219 201.6875v31.777344c0 11.632812-7.671875 21.464844-18.234375 24.730468-2.417969.75-4.996094 1.15625-7.664063 1.15625-14.296875 0-25.886719-11.589843-25.886719-25.886718v-31.777344zm0 0"/></g><path d="m418.574219 231.453125v2.011719c0 11.632812-7.671875 21.46875-18.234375 24.734375-9.535156-2.933594-16.703125-11.222657-18.023438-21.363281 1.726563.105468 3.46875.160156 5.214844.160156 4.898438 0 9.699219-.390625 14.378906-1.15625 5.765625-.929688 11.332032-2.410156 16.664063-4.386719zm0 0" fill="#d3a489"/><path d="m482.273438 136.8125c0 44.582031-32.570313 81.566406-75.210938 88.433594-42.644531-6.867188-75.214844-43.851563-75.214844-88.433594 0-27.453125 12.347656-52.027344 31.804688-68.460938 12.125-10.257812 27.027344-17.335937 43.410156-19.976562 39.753906 6.398438 70.761719 38.988281 74.769531 79.503906.292969 2.9375.441407 5.921875.441407 8.933594zm0 0" fill="#d3a489"/><path d="m392.679688 180.9375c-7.5 0-15.003907-1.882812-21.839844-5.640625-1.929688-1.058594-2.632813-3.484375-1.574219-5.414063 1.0625-1.925781 3.484375-2.628906 5.414063-1.570312 11.273437 6.195312 24.734374 6.195312 36.003906 0 1.929687-1.058594 4.351562-.355469 5.414062 1.570312 1.058594 1.929688.355469 4.355469-1.574218 5.414063-6.835938 3.757813-14.339844 5.640625-21.84375 5.640625zm0 0" fill="#bf8e75"/><path d="m373.601562 131.597656c0 5.609375-4.550781 10.160156-10.164062 10.160156s-10.164062-4.550781-10.164062-10.160156c0-5.613281 4.550781-10.164062 10.164062-10.164062s10.164062 4.550781 10.164062 10.164062zm0 0" fill="#3d4159"/><path d="m432.089844 131.597656c0 5.609375-4.550782 10.160156-10.164063 10.160156s-10.164062-4.550781-10.164062-10.160156c0-5.613281 4.550781-10.164062 10.164062-10.164062s10.164063 4.550781 10.164063 10.164062zm0 0" fill="#3d4159"/><path d="m371.53125 129.800781c0 2.40625-1.949219 4.355469-4.355469 4.355469s-4.355469-1.949219-4.355469-4.355469c0-2.402343 1.949219-4.355469 4.355469-4.355469s4.355469 1.953126 4.355469 4.355469zm0 0" fill="#fff"/><path d="m430.515625 129.800781c0 2.40625-1.949219 4.355469-4.355469 4.355469s-4.355468-1.949219-4.355468-4.355469c0-2.402343 1.949218-4.355469 4.355468-4.355469s4.355469 1.953126 4.355469 4.355469zm0 0" fill="#fff"/><path d="m402.84375 157.183594h-20.324219c-2.421875 0-4.386719-1.960938-4.386719-4.382813s1.964844-4.382812 4.386719-4.382812h20.324219c2.421875 0 4.386719 1.960937 4.386719 4.382812s-1.964844 4.382813-4.386719 4.382813zm0 0" fill="#bf8e75"/><path d="m422.179688 299.828125h39.058593v11.957031h-39.058593zm0 0" fill="#bfd5de"/><path d="m387.441406 21.625c27.136719 1.9375 48.929688 23.863281 50.308594 51.460938l.257812 5.179687h15.609376l8.414062 55.917969 20.363281-6.304688-2.734375-54.792968c-1.445312-28.988282-25.421875-51.710938-54.4375-51.601563zm0 0" fill="#2a2f4f"/><path d="m477.933594 0c21.613281 21.613281 21.613281 56.652344 0 78.265625-21.609375 21.609375-56.652344 21.609375-78.261719 0zm0 0" fill="#3d4159"/><path d="m399.671875 78.265625h-67.921875l-8.414062 55.917969-20.363282-6.304688 2.730469-54.792968c1.445313-28.984376 25.421875-51.710938 54.441406-51.601563l98.09375.367187 12.96875 23.34375" fill="#3d4159"/><path d="m397.921875 21.625c-27.136719 1.9375-48.929687 23.863281-50.308594 51.460938l-.257812 5.179687h-15.609375l-8.414063 55.917969-20.363281-6.304688 2.734375-54.792968c1.445313-28.988282 25.421875-51.710938 54.4375-51.601563zm0 0" fill="#2a2f4f"/><path d="m497.148438 341.808594c-21.5625 60.640625-65.332032 110.753906-121.519532 140.523437-16.738281 8.878907-34.578125 15.953125-53.265625 20.945313-9.476562 2.550781-19.171875 4.566406-29.054687 6.007812-12.199219 1.796875-24.683594 2.714844-37.375 2.714844-2.328125 0-4.660156-.03125-6.976563-.09375-10.375-.28125-20.601562-1.171875-30.628906-2.664062-28.132813-4.125-54.769531-12.847657-79.140625-25.363282-17.9375-9.203125-34.628906-20.464844-49.789062-33.46875-3.445313-2.957031-6.808594-5.996094-10.089844-9.132812-6.8125-6.484375-13.265625-13.359375-19.324219-20.578125-2.363281-2.800781-4.660156-5.652344-6.894531-8.554688-16.257813-21.082031-29.28125-44.773437-38.371094-70.335937zm0 0" fill="#a35418"/><path d="m503.019531 323.007812c-1.722656 6.371094-3.675781 12.636719-5.871093 18.800782-2.464844 6.9375-5.222657 13.726562-8.253907 20.371094h-465.921875c-3.03125-6.644532-5.789062-13.433594-8.253906-20.371094-2.195312-6.164063-4.148438-12.429688-5.871094-18.800782zm0 0" fill="#cc7a3b"/><path d="m204.003906 311.921875v40.359375c0 14.773438-9.742187 27.261719-23.160156 31.410156-3.070312.953125-6.34375 1.46875-9.730469 1.46875-18.160156 0-32.878906-14.71875-32.878906-32.878906v-40.359375zm0 0" fill="#eab599"/><path d="m128.488281 336.4375h88.445313v26.460938h-88.445313zm0 0" fill="#2ba1cf"/><path d="m204.003906 349.722656v2.558594c0 14.773438-9.742187 27.261719-23.160156 31.410156-12.105469-3.722656-21.210938-14.25-22.890625-27.128906 2.195313.136719 4.40625.203125 6.625.203125 6.222656 0 12.320313-.496094 18.261719-1.46875 7.320312-1.179687 14.394531-3.0625 21.164062-5.574219zm0 0" fill="#f6caae"/><path d="m295.023438 186.203125v139.007813l-181.566407 18.574218-66.238281 6.769532v-164.351563c0-14.125 2.347656-27.964844 6.996094-41.128906 15.105468-42.976563 52.503906-73.71875 96.472656-81.074219 5.703125-.949219 11.523438-1.511719 17.414062-1.660156.710938-.019532 1.410157-.03125 2.109376-.03125.304687-.011719.597656-.011719.898437-.011719 6.507813 0 13.007813.503906 19.304687 1.496094 28.863282 4.511719 55.335938 19.242187 74.523438 41.472656 19.398438 22.46875 30.085938 51.214844 30.085938 80.9375zm0 0" fill="#3d4159"/><path d="m98.183594 191.632812c0 45.628907 2.300781 119.714844 15.273437 152.152344l-66.238281 6.769532v-164.351563c0-14.125 2.347656-27.964844 6.996094-41.128906 17.070312-48.554688 62.59375-81.492188 113.886718-82.734375.710938-.019532 1.410157-.03125 2.109376-.03125-38.097657.949218-72.027344 62.0625-72.027344 129.324218zm0 0" fill="#2a2f4f"/><path d="m293.308594 439.597656v19.574219c-36.488282 17.132813-77.25 26.710937-120.234375 26.710937-11.46875 0-22.773438-.675781-33.886719-2.003906-17.9375-9.203125-34.628906-20.464844-49.789062-33.46875-13.371094-11.460937-25.550782-24.289062-36.308594-38.265625 9.347656-30.003906 33.605468-53.433593 64.128906-61.589843 1.429688-.378907 2.871094-.742188 4.34375-1.058594 3.90625-.835938 7.917969-1.429688 12.003906-1.765625 2.484375-.207031 4.992188-.300781 7.53125-.300781h60.023438c6.707031 0 13.257812.710937 19.554687 2.066406.355469.074218.734375.160156 1.078125.242187 1.066406.238281 2.121094.5 3.164063.792969.03125 0 .0625 0 .085937.011719 10.382813 2.777343 20.035156 7.324219 28.609375 13.285156 23.996094 16.644531 39.695313 44.378906 39.695313 75.769531zm0 0" fill="#2ba1cf"/><path d="m293.308594 439.597656v69.6875c-12.199219 1.796875-24.683594 2.714844-37.375 2.714844-63.597656 0-121.773438-23.191406-166.535156-61.589844v-10.8125c0-42.640625 28.949218-78.527344 68.289062-89.042968 1.429688-.378907 2.871094-.742188 4.34375-1.058594 3.90625-.835938 7.917969-1.429688 12.003906-1.765625 2.484375-.207031 4.992188-.300781 7.53125-.300781h19.554688c6.707031 0 13.257812.710937 19.554687 2.066406.355469.074218.734375.160156 1.078125.242187 1.066406.238281 2.121094.5 3.164063.792969.03125 0 .0625 0 .085937.011719 10.382813 2.777343 20.035156 7.324219 28.609375 13.285156 23.996094 16.644531 39.695313 44.378906 39.695313 75.769531zm0 0" fill="#66baed"/><path d="m170.210938 62.308594s-22.917969 28.289062-22.917969 86.097656c0 0-16.558594-41.449219 3.394531-84.40625 5.703125-.949219 11.523438-1.511719 17.414062-1.660156.710938-.019532 1.410157-.03125 2.109376-.03125zm0 0" fill="#2a2f4f"/><path d="m375.628906 426.425781v55.90625c-10.039062 5.328125-20.464844 9.996094-31.246094 13.957031-7.1875 2.652344-14.53125 4.992188-22.019531 6.988282v-76.851563zm0 0" fill="#66baed"/><path d="m344.382812 426.425781v69.863281c-7.1875 2.652344-14.53125 4.992188-22.019531 6.988282v-76.851563zm0 0" fill="#2ba1cf"/><path d="m425.164062 411.027344c0 8.503906-6.894531 15.398437-15.398437 15.398437h-87.402344v-15.398437c0-8.503906 6.894531-15.398438 15.394531-15.398438h72.007813c4.25 0 8.105469 1.722656 10.886719 4.511719 1.460937 1.464844 2.628906 3.230469 3.414062 5.183594.710938 1.765625 1.097656 3.6875 1.097656 5.703125zm0 0" fill="#eab599"/><path d="m424.066406 405.324219c-2.265625 5.679687-7.8125 9.691406-14.300781 9.691406h-87.402344v-3.988281c0-8.503906 6.894531-15.398438 15.394531-15.398438h72.007813c4.25 0 8.105469 1.722656 10.886719 4.511719 1.460937 1.464844 2.628906 3.230469 3.414062 5.183594zm0 0" fill="#f6caae"/><path d="m248.957031 454.066406v57.839844c-10.375-.28125-20.601562-1.171875-30.628906-2.664062-28.132813-4.125-54.769531-12.847657-79.140625-25.363282-17.9375-9.203125-34.628906-20.464844-49.789062-33.46875-3.445313-2.957031-6.808594-5.996094-10.089844-9.132812 5.628906-21.078125 24.851562-36.59375 47.707031-36.59375h72.558594c27.277343 0 49.382812 22.105468 49.382812 49.382812zm0 0" fill="#854f89"/><path d="m218.328125 454.066406v55.175782c-28.132813-4.125-54.769531-12.847657-79.140625-25.363282-17.9375-9.203125-34.628906-20.464844-49.789062-33.46875-3.445313-2.957031-6.808594-5.996094-10.089844-9.132812-6.8125-6.484375-13.265625-13.359375-19.324219-20.578125 9.023437-9.839844 21.988281-16.015625 36.394531-16.015625h72.570313c27.273437 0 49.378906 22.105468 49.378906 49.382812zm0 0" fill="#713775"/></svg>