<?xml version="1.0" encoding="iso-8859-1"?>
<!-- Generator: Adobe Illustrator 19.0.0, SVG Export Plug-In . SVG Version: 6.00 Build 0)  -->
<svg xmlns="http://www.w3.org/2000/svg" xmlns:xlink="http://www.w3.org/1999/xlink" version="1.1" id="Capa_1" x="0px" y="0px" viewBox="0 0 512 512" style="enable-background:new 0 0 512 512;" xml:space="preserve">
<circle style="fill:#FFD15C;" cx="256" cy="256" r="256"/>
<path style="fill:#34ABE0;" d="M334.287,408.178v91.627c-24.67,7.92-50.981,12.194-78.284,12.194  c-20.71,0-40.845-2.456-60.134-7.105c-13.375-3.218-26.342-7.481-38.808-12.716c-14.2-5.956-27.742-13.145-40.5-21.452  c-12.946-8.422-25.078-17.993-36.268-28.557c-15.12-14.263-28.505-30.365-39.79-47.929c-2.33-3.605-4.556-7.283-6.698-11.024  l71.022-36.049l1.097-0.554l22.444-2.873l25.349-3.25l1.808-0.23l20.24-2.591l9.676,1.243h0.01l12.361,1.578l28.578,3.657  l19.226,2.466l1.097,0.554l72.798,36.948C328.571,388.711,334.287,398.011,334.287,408.178z"/>
<path style="fill:#279FC9;" d="M185.441,338.912l-27.261,3.49l-3.521,0.449l-26.29,3.365l-3.082,0.397l-14.336,7.272l-59.559,30.229  c-4.598,2.33-8.328,5.872-10.888,10.125c-2.33-3.605-4.556-7.283-6.698-11.024l71.022-36.049l1.097-0.554l22.444-2.873l25.349-3.25  l1.808-0.23l20.24-2.591L185.441,338.912z"/>
<rect x="128.366" y="293.543" style="fill:#F9D6B9;" width="98.032" height="63.028"/>
<g>
	<circle style="fill:#E5BFA3;" cx="80.405" cy="187.423" r="30.294"/>
	<circle style="fill:#E5BFA3;" cx="271.141" cy="187.423" r="30.294"/>
	<path style="fill:#E5BFA3;" d="M154.213,293.543L154.213,293.543l-25.845-0.001v0.001h-0.001v26.652c0,0,0.001,0,0.001,0.001   v26.371h25.845l0,0c0-8.928,7.435-16.107,16.354-15.687c1.724,0.081,3.458,0.122,5.201,0.122c18.27,0,35.494-4.493,50.627-12.427   v-25.033H154.213z"/>
</g>
<path style="fill:#F9D6B9;" d="M284.904,48.833H66.638V211.08c0,60.273,48.86,109.133,109.133,109.133l0,0  c60.273,0,109.133-48.86,109.133-109.133V48.833H284.904z"/>
<path style="fill:#E5BFA3;" d="M272.026,8.476c-0.331-0.063-0.667-0.108-1.002-0.137c-3.161-0.279-6.275,0.909-8.584,3.085  c-1.652,1.556-3.765,3.509-5.2,4.699c-18.421,15.256-41.776,23.583-65.917,23.583H98.306c-10.199,0-19.601,3.402-27.144,9.127  h-4.524v3.93c-8.198,8.142-13.276,19.42-13.276,31.887v66.856c0,7.95,5.726,14.551,13.276,15.919v43.655  c0,60.273,48.86,109.133,109.133,109.133l0,0c4.068,0,8.081-0.23,12.034-0.664c-54.609-5.991-97.099-52.265-97.099-108.47v-64.396  c0-10.071,7.839-18.594,17.901-18.991c0.317-0.013,0.635-0.019,0.955-0.019l0,0c10.269,0,20.264,3.448,28.266,9.885  c10.384,8.353,23.687,15.102,37.944,13.353c28.398-3.484,27.56-22.243,37.944-30.596c8.002-6.437,17.996-9.885,28.266-9.885h0.443  c13.127,0,23.374-4.902,23.394,8.225c0.014,8.838,6.975,49.162,15.812,49.361c4.611,0.103,8.805-1.724,11.814-4.738  c2.927-2.927,4.737-6.972,4.737-11.443V40.442C298.18,24.92,287.276,11.365,272.026,8.476z"/>
<path style="fill:#5C5E70;" d="M298.18,32.142v139.1c0,4.471-1.81,8.515-4.737,11.443c-3.01,3.016-7.204,4.841-11.813,4.737  c-8.847-0.2-15.813-7.658-15.813-16.505v-27.703c0-6.584-2.667-12.538-6.983-16.853c-4.315-4.315-10.269-6.983-16.853-6.983  c-10.269,0-20.262,3.447-28.268,9.888c-10.38,8.35-23.576,13.351-37.945,13.351c-14.364,0-27.56-5.002-37.94-13.351  c-1.372-1.107-2.806-2.119-4.288-3.043c-0.017-0.017-0.039-0.027-0.055-0.039c-2.822-1.76-5.821-3.187-8.941-4.277  c-4.786-1.666-9.849-2.529-14.984-2.529c-13.163,0-23.836,10.674-23.836,23.836v28.036c0,4.465-1.81,8.515-4.742,11.443  c-2.927,2.927-6.972,4.737-11.443,4.737c-8.936,0-16.178-7.242-16.178-16.184V76.351c0-24.822,20.124-44.944,44.944-44.944h93.016  c24.14,0,47.495-8.327,65.914-23.581c1.439-1.189,3.553-3.143,5.202-4.698c2.312-2.18,5.428-3.365,8.587-3.088  c0.332,0.027,0.67,0.072,1.001,0.138C287.275,3.067,298.18,16.622,298.18,32.142z"/>
<path style="fill:#494B5B;" d="M143.234,31.409c-24.827,0-44.941,20.125-44.941,44.941v45.85  c-7.481,4.023-12.57,11.922-12.57,21.013v28.035c0,4.462-1.808,8.516-4.744,11.442c-2.926,2.926-6.969,4.733-11.442,4.733  c-8.934,0-16.175-7.241-16.175-16.185V76.35c0-24.816,20.114-44.941,44.941-44.941C98.303,31.409,143.234,31.409,143.234,31.409z"/>
<path style="fill:#E5BFA3;" d="M152.085,182.232c-0.608,5.03-5.047,8.722-10.114,8.722h-26.329c-2.75,0-5.24-1.112-7.044-2.916  c-2.065-2.071-3.232-5.046-2.841-8.281c0.608-5.03,5.047-8.722,10.114-8.722H142.2c2.75,0,5.24,1.112,7.044,2.916  C151.308,176.022,152.476,178.998,152.085,182.232z"/>
<path style="fill:#FFFFFF;" d="M152.085,189.216c-0.608,5.03-5.047,8.722-10.114,8.722h-26.329c-2.75,0-5.24-1.112-7.044-2.916  c-2.065-2.071-3.232-5.046-2.841-8.281c0.608-5.03,5.047-8.722,10.114-8.722H142.2c2.75,0,5.24,1.112,7.044,2.916  C151.308,183.007,152.476,185.981,152.085,189.216z"/>
<path style="fill:#E5BFA3;" d="M242.9,171.036h-26.557c-5.5,0-9.959,4.459-9.959,9.959l0,0c0,5.5,4.459,9.959,9.959,9.959H242.9  c5.5,0,9.959-4.459,9.959-9.959l0,0C252.859,175.495,248.4,171.036,242.9,171.036z"/>
<path style="fill:#FFFFFF;" d="M242.9,178.02h-26.557c-5.5,0-9.959,4.459-9.959,9.959l0,0c0,5.5,4.459,9.959,9.959,9.959H242.9  c5.5,0,9.959-4.459,9.959-9.959l0,0C252.859,182.479,248.4,178.02,242.9,178.02z"/>
<path style="fill:#E5BFA3;" d="M251.514,151.14h-43.785c-3.1,0-5.613,2.513-5.613,5.613l0,0c0,3.1,2.513,5.613,5.613,5.613h43.785  c3.1,0,5.613-2.513,5.613-5.613l0,0C257.127,153.653,254.614,151.14,251.514,151.14z"/>
<g>
	<path style="fill:#41B787;" d="M142.167,184.693c0,7.314-5.931,13.246-13.246,13.246c-7.314,0-13.246-5.931-13.246-13.246   c0-2.435,0.658-4.715,1.81-6.673h22.874C141.508,179.978,142.167,182.258,142.167,184.693z"/>
	<path style="fill:#41B787;" d="M242.868,184.693c0,7.314-5.931,13.246-13.246,13.246c-7.314,0-13.246-5.931-13.246-13.246   c0-2.435,0.658-4.715,1.81-6.673h22.873C242.209,179.978,242.868,182.258,242.868,184.693z"/>
</g>
<g>
	<path style="fill:#E5BFA3;" d="M107.214,151.14c-3.091,0-5.742,2.418-5.798,5.508c-0.057,3.148,2.477,5.719,5.612,5.719h30.762   c12.214,0,22.116,9.901,22.116,22.116v54.793h5.573c7.159,0,12.963-5.803,12.963-12.963V168.03c0-9.328-7.562-16.889-16.889-16.889   h-54.34V151.14z"/>
	<path style="fill:#E5BFA3;" d="M194.371,256.669c-12.288,2.35-24.911,2.35-37.199,0c-3.305-0.627-6.662,1.299-7.536,4.547l0,0   c-0.874,3.242,1.456,6.685,5.25,7.408c13.799,2.639,27.974,2.639,41.773,0c3.792-0.723,6.123-4.166,5.25-7.408l0,0   C201.031,257.968,197.677,256.042,194.371,256.669z"/>
	<path style="fill:#E5BFA3;" d="M180.723,276.653h-9.906c-2.526,0-4.574,2.048-4.574,4.574l0,0c0,2.526,2.047,4.574,4.574,4.574   h9.906c2.526,0,4.574-2.048,4.574-4.574l0,0C185.297,278.7,183.249,276.653,180.723,276.653z"/>
</g>
<path style="fill:#FFD15C;" d="M195.869,504.894c-13.375-3.218-26.342-7.481-38.808-12.716l10.71-98.262l0.387-3.584h15.214  l0.387,3.584L195.869,504.894z"/>
<path style="fill:#EDBB4C;" d="M181.208,394.2h-10.874c-6.47,0-11.715-5.245-11.715-11.715v-14.194  c0-6.47,5.245-11.715,11.715-11.715h10.874c6.47,0,11.715,5.245,11.715,11.715v14.194C192.924,388.955,187.678,394.2,181.208,394.2z  "/>
<g>
	<path style="fill:#279FC9;" d="M121.846,326.828l48.376,20.733c4.986,2.137,7.03,8.117,4.396,12.86l-15.666,28.2   c-3.04,5.471-10.549,6.347-14.767,1.722l-39.868-43.726c-3.676-4.031-3.031-10.362,1.38-13.57l7.159-5.207   C115.464,325.941,118.88,325.557,121.846,326.828z"/>
	<path style="fill:#279FC9;" d="M229.698,326.828l-48.376,20.733c-4.986,2.137-7.03,8.117-4.396,12.86l15.666,28.2   c3.04,5.471,10.549,6.347,14.767,1.722l39.868-43.726c3.676-4.031,3.031-10.362-1.38-13.57l-7.159-5.207   C236.078,325.941,232.663,325.557,229.698,326.828z"/>
	<polygon style="fill:#279FC9;" points="280.068,463.75 248.254,475.369 215.885,463.75 215.885,442.172 280.068,442.172  "/>
	<path style="fill:#279FC9;" d="M135.652,442.168v21.577l-19.09,6.98c-12.946-8.422-25.078-17.993-36.268-28.557H135.652z"/>
</g>
<path style="fill:#4BC999;" d="M463.645,397.311c0,3.009-0.125,5.998-0.366,8.944c-9.237,12.727-19.623,24.566-31.002,35.38  c-27.554,26.185-60.938,46.289-97.991,58.169c-2.09,0.669-4.2,1.317-6.311,1.933c-46.247-12.215-80.342-54.345-80.342-104.427  c0-59.643,48.358-108.001,108.011-108.001C415.287,289.31,463.645,337.668,463.645,397.311z"/>
<path style="fill:#FCF8F2;" d="M417.518,378.189h-31.603c-6.158,0-11.149-4.991-11.149-11.149v-31.603  c0-6.158-4.991-11.149-11.149-11.149h-15.955c-6.158,0-11.149,4.991-11.149,11.149v31.603c0,6.158-4.991,11.149-11.149,11.149  h-31.603c-6.158,0-11.149,4.991-11.149,11.149v15.955c0,6.158,4.991,11.149,11.149,11.149h31.603  c6.158,0,11.149,4.991,11.149,11.149v31.603c0,6.158,4.991,11.149,11.149,11.149h15.955c6.158,0,11.149-4.991,11.149-11.149v-31.603  c0-6.158,4.991-11.149,11.149-11.149h31.603c6.158,0,11.149-4.991,11.149-11.149v-15.955  C428.667,383.181,423.676,378.189,417.518,378.189z"/>
<g>
</g>
<g>
</g>
<g>
</g>
<g>
</g>
<g>
</g>
<g>
</g>
<g>
</g>
<g>
</g>
<g>
</g>
<g>
</g>
<g>
</g>
<g>
</g>
<g>
</g>
<g>
</g>
<g>
</g>
</svg>
