<?xml version="1.0" encoding="iso-8859-1"?>
<!-- Generator: Adobe Illustrator 19.0.0, SVG Export Plug-In . SVG Version: 6.00 Build 0)  -->
<svg xmlns="http://www.w3.org/2000/svg" xmlns:xlink="http://www.w3.org/1999/xlink" version="1.1" id="Capa_1" x="0px" y="0px" viewBox="0 0 512 512" style="enable-background:new 0 0 512 512;" xml:space="preserve">
<circle style="fill:#5C5E70;" cx="256" cy="257.811" r="254.19"/>
<path style="fill:#34ABE0;" d="M83.528,106.561c-17.807,19.414-31.366,41.213-40.716,64.263  C18.53,230.581,22.477,298.749,53.761,355.4c10.947,19.83,25.25,38.247,42.863,54.402c24.135,22.136,51.976,37.706,81.31,46.816  c76.838,23.841,163.947,3.307,221.93-59.912c21.696-23.655,37.099-50.865,46.278-79.547c24.702-77.264,4.334-165.28-59.364-223.704  c-30.495-27.97-66.893-45.464-104.771-52.659C211.4,27.359,135.677,49.704,83.528,106.561z"/>
<g>
	<path style="fill:#FFD15C;" d="M53.761,355.4c10.947,19.83,25.25,38.247,42.863,54.402c24.135,22.136,51.976,37.706,81.31,46.816   c8.085-36.473,23.119-95.216,66.054-113.771c55.251-23.876,91.152,93.709,155.876,53.859   c21.696-23.655,37.099-50.865,46.278-79.547c-1.845-20.663-12.459-38.993-27.338-49.402c0,0-54.519-53.929-103.466-26.231   c-48.947,27.697-54.912,79.121-93.815,78.754c-38.902-0.367-46.348-54.281-97.337-26.496C94.581,309.91,69.55,336.195,53.761,355.4   z"/>
	<path style="fill:#FFD15C;" d="M83.528,106.561c-17.807,19.414-31.366,41.213-40.716,64.263c25.242,4.18,58.51,7.737,71.995,0.564   c23.008-12.25,14.585-65.1,54.024-76.013s53.636,33.5,77.974,28.356s35.203-82.936,35.203-82.936   C211.4,27.359,135.677,49.704,83.528,106.561z"/>
</g>
<path id="SVGCleanerId_0" style="fill:#279FC9;" d="M282.006,40.796c37.877,7.195,74.275,24.689,104.771,52.659  c-23.226-21.302-50.946-34.625-79.794-40.105c-53.774-10.233-111.445,6.784-151.162,50.087  c-13.561,14.786-23.888,31.388-31.009,48.943c-18.493,45.51-15.487,97.427,8.338,140.572c8.336,15.103,19.23,29.128,32.644,41.432  c18.38,16.858,39.585,28.717,61.925,35.655c58.52,18.157,124.862,2.518,169.023-45.629c16.524-18.015,28.254-38.739,35.245-60.582  c18.813-58.844,3.3-125.878-45.211-170.372c63.698,58.423,84.066,146.44,59.364,223.704c-9.179,28.681-24.582,55.892-46.278,79.547  c-57.984,63.219-145.092,83.753-221.93,59.912c-29.333-9.109-57.175-24.679-81.31-46.815  c-17.614-16.155-31.917-34.571-42.863-54.402c-31.284-56.651-35.231-124.818-10.949-184.576c9.35-23.05,22.909-44.849,40.716-64.263  C135.677,49.704,211.4,27.358,282.006,40.796z"/>
<g>
	<path id="SVGCleanerId_0_1_" style="fill:#279FC9;" d="M282.006,40.796c37.877,7.195,74.275,24.689,104.771,52.659   c-23.226-21.302-50.946-34.625-79.794-40.105c-53.774-10.233-111.445,6.784-151.162,50.087   c-13.561,14.786-23.888,31.388-31.009,48.943c-18.493,45.51-15.487,97.427,8.338,140.572c8.336,15.103,19.23,29.128,32.644,41.432   c18.38,16.858,39.585,28.717,61.925,35.655c58.52,18.157,124.862,2.518,169.023-45.629c16.524-18.015,28.254-38.739,35.245-60.582   c18.813-58.844,3.3-125.878-45.211-170.372c63.698,58.423,84.066,146.44,59.364,223.704c-9.179,28.681-24.582,55.892-46.278,79.547   c-57.984,63.219-145.092,83.753-221.93,59.912c-29.333-9.109-57.175-24.679-81.31-46.815   c-17.614-16.155-31.917-34.571-42.863-54.402c-31.284-56.651-35.231-124.818-10.949-184.576   c9.35-23.05,22.909-44.849,40.716-64.263C135.677,49.704,211.4,27.358,282.006,40.796z"/>
</g>
<g>
	<path style="fill:#EDBB4C;" d="M446.144,317.153c-1.448-16.22-8.307-31.003-18.393-41.648   c-7.135,17.537-17.457,34.131-31.005,48.901c-22.732,24.784-51.339,40.953-81.728,48.34c24.994,22.546,50.972,44.81,84.851,23.959   C421.557,373.046,436.967,345.837,446.144,317.153z"/>
	<path style="fill:#EDBB4C;" d="M133.151,292.953c-0.507-0.923-1.015-1.857-1.501-2.791c-2.377,0.996-4.868,2.204-7.466,3.615   c-29.606,16.129-54.63,42.413-70.427,61.622c10.95,19.829,25.256,38.247,42.871,54.403c24.135,22.136,51.974,37.705,81.31,46.813   c5.902-26.611,15.497-65.096,36.948-91.153c-17.61-7.142-34.267-17.483-49.092-31.08   C152.385,322.082,141.488,308.055,133.151,292.953z"/>
	<path style="fill:#EDBB4C;" d="M83.531,106.561c-17.813,19.41-31.368,41.212-40.716,64.264c25.238,4.175,58.509,7.734,71.991,0.568   c1.675-0.892,3.185-1.996,4.552-3.301c1.537-5.301,3.366-10.55,5.459-15.709c3.567-8.794,7.933-17.353,13.113-25.552   c5.161-8.188,11.126-16.016,17.89-23.391c1.477-1.611,2.978-3.192,4.511-4.723c32.79-33.048,76.526-49.288,120.064-48.198   c1.083-5.945,1.615-9.728,1.615-9.728C211.396,27.358,135.679,49.705,83.531,106.561z"/>
</g>
<g>
	<path style="fill:#FF525D;" d="M106.743,11.82L106.743,11.82c-3.569-4.674-0.409-11.388,5.465-11.693   c19.282-1,42.692,3.872,69.256,14.594c3.258,1.307,6.557,2.708,9.908,4.202c11.807,5.25,23.915,11.454,36.188,18.54   c-8.279,0.54-16.528,1.567-24.713,3.061c-5.852-3.009-11.651-5.789-17.378-8.331c-8.85-3.932-17.358-7.221-25.45-9.836   c-16.009-5.188-30.42-7.802-42.745-7.802c-1.455,0-2.882,0.036-4.278,0.109C110.564,14.792,108.221,13.755,106.743,11.82z"/>
	<path style="fill:#FF525D;" d="M337.982,393.102c-43.918-23.832-90.74-59.771-134.368-103.388   C151.469,237.569,110.29,180.838,87.683,129.99c-2.967-6.671-5.561-13.135-7.781-19.381c-3.569-10.043-6.173-19.516-7.802-28.293   c-0.506-2.718-0.916-5.369-1.233-7.949c-0.794-6.476,5.842-11.318,11.814-8.69l0,0c4.091,1.8,8.556-1.63,7.873-6.047l-6.276-40.529   c-0.633-4.088-5.293-6.138-8.734-3.843L41.424,38.013c-3.718,2.481-3.23,8.089,0.861,9.89l8.205,3.609   c3.128,1.377,5.125,4.496,5.044,7.912c-0.259,10.901,1.275,23.05,4.635,36.307c2.241,8.86,5.291,18.208,9.14,28.002   c1.556,3.984,3.258,8.041,5.094,12.16c23.323,52.436,65.56,110.713,118.94,164.092c44.561,44.551,92.525,81.33,137.657,105.847   c4.212,2.283,9.441-0.031,10.551-4.679C342.319,397.968,340.856,394.658,337.982,393.102z"/>
	<path style="fill:#FF525D;" d="M402.738,405.823l0.944-2.469c1.596-4.175-2.05-8.466-6.428-7.564l-40.17,8.269   c-4.051,0.834-5.869,5.59-3.407,8.913l24.414,32.954c2.661,3.592,8.239,2.827,9.835-1.349l1.196-3.129   c2.041-5.34,7.691-8.404,13.269-7.149c10.491,2.358,20.26,3.545,29.211,3.55c1.318,0,2.625-0.021,3.901-0.083   c5.53-5.509,10.811-11.278,15.812-17.285c-10.627,3.434-24.099,3.702-39.796,0.84C404.381,420.02,400.148,412.598,402.738,405.823z   "/>
	<path style="fill:#FF525D;" d="M491.268,354.206c-2.791-15.729-8.414-33.263-16.86-52.249   c-5.25-11.807-11.464-23.915-18.551-36.199c-0.54,8.279-1.556,16.538-3.061,24.724c3.019,5.852,5.8,11.651,8.342,17.378   c12.678,28.531,18.561,53.421,17.524,72.646C483.351,372.018,487.564,363.241,491.268,354.206z"/>
</g>
<g>
</g>
<g>
</g>
<g>
</g>
<g>
</g>
<g>
</g>
<g>
</g>
<g>
</g>
<g>
</g>
<g>
</g>
<g>
</g>
<g>
</g>
<g>
</g>
<g>
</g>
<g>
</g>
<g>
</g>
</svg>
