<?xml version="1.0" encoding="iso-8859-1"?>
<!-- Generator: Adobe Illustrator 19.0.0, SVG Export Plug-In . SVG Version: 6.00 Build 0)  -->
<svg xmlns="http://www.w3.org/2000/svg" xmlns:xlink="http://www.w3.org/1999/xlink" version="1.1" id="Capa_1" x="0px" y="0px" viewBox="0 0 511.999 511.999" style="enable-background:new 0 0 511.999 511.999;" xml:space="preserve">
<circle style="fill:#F4A14E;" cx="255.999" cy="255.999" r="255.999"/>
<path style="fill:#494B5B;" d="M288.103,109.045v310.94H59.438c-1.484-1.755-2.926-3.532-4.336-5.329V109.045H288.103z"/>
<rect x="130.215" y="305.81" style="fill:#F9D6B9;" width="96.904" height="62.307"/>
<path style="fill:#E5BFA3;" d="M155.764,305.804L155.764,305.804l-25.55-0.001v0.001h-0.001v26.348h0.001v26.069h25.55l0,0  c0-8.826,7.351-15.923,16.167-15.508c1.704,0.08,3.418,0.121,5.142,0.121c18.061,0,35.089-4.442,50.048-12.285v-24.745H155.764z"/>
<path style="fill:#F9D6B9;" d="M274.977,115.413L79.173,103.926v120.357c0,59.583,43.832,107.885,97.902,107.885l0,0  c54.07,0,97.902-48.302,97.902-107.885V115.413H274.977z"/>
<g>
	<path style="fill:#E5BFA3;" d="M105.23,224.284V105.455l-26.058-1.529v120.357c0,59.583,43.832,107.885,97.903,107.885l0,0   c4.418,0,8.766-0.328,13.029-0.953C142.195,324.195,105.23,278.999,105.23,224.284z"/>
	<path style="fill:#E5BFA3;" d="M120.447,145.784c0,0,60.932,19.403,118.807,12.25s-10.22-45.712-10.22-45.712l-98.451-6.563   l-13.947,6.563"/>
	<path style="fill:#E5BFA3;" d="M251.953,167.764h-43.286c-3.065,0-5.549,2.485-5.549,5.549l0,0c0,3.065,2.485,5.549,5.549,5.549   h43.286c3.065,0,5.549-2.485,5.549-5.549l0,0C257.501,170.248,255.017,167.764,251.953,167.764z"/>
	<path style="fill:#E5BFA3;" d="M109.301,167.764c-3.055,0-5.676,2.391-5.732,5.445c-0.056,3.113,2.449,5.653,5.548,5.653h30.411   c12.075,0,21.863,9.789,21.863,21.863v43.227h5.51c7.077,0,12.815-5.738,12.815-12.815v-46.678c0-9.221-7.475-16.695-16.695-16.695   h-53.719V167.764z"/>
</g>
<path style="fill:#FF6E7C;" d="M191.327,274.704c-9.307,2.707-19.197,2.707-28.503,0c-2.491-0.718-5.254,0.393-6.241,2.765l0,0  c-0.986,2.362,0.609,5.27,3.647,6.152c11.001,3.201,22.69,3.201,33.691,0c3.038-0.881,4.633-3.789,3.647-6.152l0,0  C196.581,275.098,193.818,273.986,191.327,274.704z"/>
<path style="fill:#E5BFA3;" d="M182.103,290.458h-10.056c-2.564,0-4.642,2.078-4.642,4.644l0,0c0,2.564,2.078,4.643,4.642,4.643  h10.056c2.564,0,4.642-2.078,4.642-4.643l0,0C186.746,292.536,184.668,290.458,182.103,290.458z"/>
<path style="fill:#5C5E70;" d="M308.519,131.412V389.94l-27.901-13.182c0,0,0-95.065,0-122.101s12.28-95.486-63.203-100.408  c-38.77-2.527-67.005-18.477-85.301-33.393c-0.005,0.022-0.017,0.088-0.039,0.196c0,0.005,0,0.005,0,0.005  c-0.618,3.326-9.621,46.039-62.886,50.464v212.095l-23.526,12.395V131.412c0-58.52,38.251-108.104,91.115-125.115h0.005  c12.695-4.092,26.233-6.295,40.29-6.295h0.032C249.687,0.001,308.519,58.834,308.519,131.412z"/>
<path style="fill:#494B5B;" d="M206.882,3.385c-3.574,0.825-7.084,1.797-10.543,2.915c-52.861,17.011-91.115,66.591-91.115,125.116  v28.494c-8.871,5.831-20.595,10.324-36.038,11.609v212.093l-23.521,12.403V131.417c0-58.525,38.254-108.105,91.115-125.116  c6.353-2.048,12.904-3.626,19.634-4.681C163.143,0.554,170.049,0,177.071,0h0.042C187.353,0,197.311,1.17,206.882,3.385z"/>
<path style="fill:#F9EED7;" d="M333.775,419.129v80.844c-24.524,7.816-50.657,12.027-77.772,12.027  c-24.137,0-47.501-3.344-69.632-9.582c-6.301-1.776-12.507-3.793-18.599-6.029c-53.227-19.54-98.158-56.257-128.083-103.434  l68.336-34.68l59.747,8.965l4.608,0.69l13.991,2.33l0.272,0.042v9.853l59.475-21.88l73.049,37.073  C328.133,399.892,333.775,409.077,333.775,419.129z"/>
<path style="fill:#E8DBC4;" d="M144.67,361.555l-17.502-3.281l-73.049,37.073c-3.281,1.661-6.123,3.95-8.401,6.677  c-2.079-2.978-4.086-5.998-6.029-9.07l68.336-34.68l27.345-8.85L144.67,361.555z"/>
<path style="fill:#FCF8F2;" d="M186.372,366.476v135.941c-6.301-1.776-12.507-3.793-18.599-6.029V366.476H186.372z"/>
<path style="fill:#F9EED7;" d="M190.613,366.839h-22.472v1.826l-0.365-0.157v29.028l8.155-14.681  c0.776-1.395,1.143-2.905,1.143-4.386c0,1.483,0.367,2.986,1.143,4.386l8.155,14.681V378.47h4.239L190.613,366.839L190.613,366.839z  "/>
<g>
	<path style="fill:#FCF8F2;" d="M123.766,338.708l47.822,20.496c4.929,2.113,6.951,8.024,4.346,12.712l-15.487,27.878   c-3.004,5.408-10.429,6.275-14.597,1.702l-39.412-43.226c-3.633-3.985-2.997-10.243,1.365-13.415l7.077-5.147   C117.458,337.832,120.834,337.452,123.766,338.708z"/>
	<path style="fill:#FCF8F2;" d="M230.385,338.708l-47.822,20.496c-4.929,2.113-6.951,8.024-4.346,12.712l15.487,27.878   c3.004,5.408,10.429,6.275,14.597,1.702l39.412-43.226c3.633-3.985,2.997-10.243-1.365-13.415l-7.077-5.147   C236.693,337.832,233.316,337.452,230.385,338.708z"/>
</g>
<g>
	<circle style="fill:#5C5E70;" cx="177.078" cy="388.628" r="6.017"/>
	<circle style="fill:#5C5E70;" cx="177.078" cy="436.944" r="6.017"/>
	<circle style="fill:#5C5E70;" cx="177.078" cy="485.26" r="6.017"/>
</g>
<g>
	<path style="fill:#FFFFFF;" d="M253.281,202.869c0,4.715-3.818,8.538-8.533,8.538h-28.875c-2.357,0-4.491-0.957-6.033-2.499   c-1.547-1.548-2.499-3.681-2.499-6.038c0-1.45,0.363-2.817,1.001-4.013c1.436-2.689,1.816-6.973,5.078-6.973l33.259-0.44   c2.357,0,4.196,4.996,4.695,2.871c0.592-2.521,0.507,3.794,0.905,4.541C252.917,200.051,253.281,201.417,253.281,202.869z"/>
	<path style="fill:#FFFFFF;" d="M153.957,202.869c0,4.715-3.818,8.538-8.533,8.538H116.55c-2.357,0-4.491-0.957-6.033-2.499   c-1.547-1.548-2.499-3.681-2.499-6.038c0-1.45,0.363-2.817,1.001-4.013c1.436-2.689,1.816-6.973,5.078-6.973l33.259-0.44   c2.357,0,4.196,4.996,4.695,2.871c0.592-2.521,0.507,3.794,0.905,4.541C153.593,200.051,153.957,201.417,153.957,202.869z"/>
</g>
<g>
	<path style="fill:#34ABE0;" d="M151.393,195.708c0,7.232-5.863,13.095-13.095,13.095s-13.095-5.863-13.095-13.095   C125.204,188.476,151.393,188.476,151.393,195.708z"/>
	<path style="fill:#34ABE0;" d="M248.435,195.708c0,7.232-5.863,13.095-13.095,13.095c-7.232,0-13.095-5.863-13.095-13.095   S248.435,188.476,248.435,195.708z"/>
</g>
<path style="fill:#494B5B;" d="M116.549,194.336h28.875c2.357,0,4.491,0.957,6.033,2.499c0.592,0.592,1.096,1.274,1.495,2.02  c0.637-1.304,1.005-2.764,1.005-4.313c0-5.438-4.407-9.845-9.845-9.845h-26.253c-5.438,0-9.845,4.407-9.845,9.845  c0,1.55,0.368,3.009,1.005,4.313C110.456,196.168,113.287,194.336,116.549,194.336z"/>
<path style="fill:#F9EED7;" d="M488.579,164.972H370.448c-12.935,0-23.421-10.486-23.421-23.421V23.421  C347.027,10.486,357.513,0,370.448,0h118.131c12.935,0,23.42,10.486,23.42,23.421v118.131  C511.999,154.487,501.513,164.972,488.579,164.972z"/>
<circle style="fill:#E8DBC4;" cx="366.591" cy="199.335" r="19.331"/>
<circle style="fill:#D6C8B0;" cx="332.799" cy="235.206" r="10.623"/>
<circle style="fill:#FCF8F2;" cx="429.515" cy="67.072" r="59.068"/>
<circle style="fill:#FFD15C;" cx="429.515" cy="67.072" r="41.796"/>
<g>
	<circle style="fill:#FFDC8D;" cx="450.068" cy="52.097" r="11.146"/>
	<circle style="fill:#FFDC8D;" cx="436.652" cy="36.592" r="5.747"/>
</g>
<path style="fill:#5C5E70;" d="M436.74,139.694h-14.455c-9.386,0-16.996-7.61-16.996-16.996v-21.745h48.448v21.745  C453.737,132.085,446.128,139.694,436.74,139.694z"/>
<path style="fill:#494B5B;" d="M416.263,122.698v-21.745h-10.975v21.745c0,9.386,7.61,16.996,16.996,16.996h10.975  C423.873,139.694,416.263,132.085,416.263,122.698z"/>
<path style="fill:#797B89;" d="M443.532,128.226L443.532,128.226c-2.583,0-4.677-2.094-4.677-4.677v-11.057  c0-2.583,2.094-4.677,4.677-4.677l0,0c2.583,0,4.677,2.094,4.677,4.677v11.057C448.209,126.132,446.115,128.226,443.532,128.226z"/>
<path style="fill:#494B5B;" d="M215.872,194.336h28.875c2.357,0,4.491,0.957,6.033,2.499c0.592,0.592,1.097,1.274,1.495,2.02  c0.637-1.304,1.005-2.764,1.005-4.313c0-5.438-4.407-9.845-9.845-9.845h-26.253c-5.438,0-9.845,4.407-9.845,9.845  c0,1.55,0.368,3.009,1.005,4.313C209.78,196.168,212.61,194.336,215.872,194.336z"/>
<g>
</g>
<g>
</g>
<g>
</g>
<g>
</g>
<g>
</g>
<g>
</g>
<g>
</g>
<g>
</g>
<g>
</g>
<g>
</g>
<g>
</g>
<g>
</g>
<g>
</g>
<g>
</g>
<g>
</g>
</svg>
