<?xml version="1.0" encoding="iso-8859-1"?>
<!-- Generator: Adobe Illustrator 19.0.0, SVG Export Plug-In . SVG Version: 6.00 Build 0)  -->
<svg xmlns="http://www.w3.org/2000/svg" xmlns:xlink="http://www.w3.org/1999/xlink" version="1.1" id="Capa_1" x="0px" y="0px" viewBox="0 0 512 512" style="enable-background:new 0 0 512 512;" xml:space="preserve">
<circle style="fill:#5C5E70;" cx="256" cy="256" r="256"/>
<g>
	<path style="fill:#4BC999;" d="M413.783,223.889l0.598,0.433C415.224,223.098,415.112,222.855,413.783,223.889z"/>
	<path style="fill:#4BC999;" d="M489.663,360.74c-38.912,86.664-124.625,147.769-224.967,151.113l-8.202-0.01l-9.613-0.01   c-100.31-3.511-185.95-64.731-224.716-151.489L22.322,151.3l0.063-78.921c0.01-15.611,12.675-28.254,28.275-28.244l61.534,0.042   h0.031l143.276,0.115l144.624,0.115l61.565,0.042c15.611,0.01,28.254,12.675,28.244,28.285l-0.052,79.015l-0.084,125.827h-0.115   l-1.797-0.01l0.01,0.01l1.797,1.306l0.052,0.031l-0.052,81.763"/>
</g>
<path style="fill:#FFD15C;" d="M489.747,161.342l-0.052,116.234v1.306l-0.031,81.857  c-38.912,86.664-124.625,147.769-224.967,151.113c-0.303,0.01-0.606,0.021-0.909,0.021h-7.293v-0.031l0.052-80.185  c10.355,12.309,25.851,20.146,43.196,20.156c31.943,0.021,57.72-26.509,56.445-58.755c-1.128-28.787-24.231-52.381-52.997-54.073  c-18.693-1.097-35.568,6.907-46.602,19.999l0.021-81.533l0.031-116.255l81.889,0.052c-13.845-10.804-22.538-27.909-21.713-47.01  c1.254-29.153,25.025-52.82,54.178-53.938c32.214-1.233,58.713,24.524,58.692,56.456c-0.01,18.108-8.558,34.21-21.817,44.534  L489.747,161.342z"/>
<path style="fill:#34ABE0;" d="M93.062,217.253c19.102,0.82,36.206-7.866,47.011-21.711l-0.052,81.881l196.895,0.051  c-13.088-11.034-21.099-27.9-19.996-46.595c1.695-28.766,25.284-51.868,54.078-53.002c32.24-1.271,58.766,24.501,58.745,56.453  c-0.011,17.34-7.844,32.841-20.153,43.191l80.213,0.051l0.131-204.841c0.01-15.608-12.634-28.268-28.241-28.277l-321.522-0.131  l-0.052,81.881c-10.324-13.264-26.424-21.81-44.534-21.822c-31.934-0.02-57.693,26.475-56.455,58.689  C40.247,192.229,63.909,216.001,93.062,217.253z"/>
<path style="fill:#FF525D;" d="M195.186,324.324c0.82-19.102-7.866-36.206-21.711-47.011l81.881,0.052l0.051-80.213  c-11.034,13.088-27.9,21.099-46.595,19.996c-28.766-1.695-51.868-25.284-53.002-54.078c-1.271-32.24,24.501-58.766,56.453-58.745  c17.34,0.011,32.841,7.844,43.191,20.153l0.051-80.213L50.663,44.135c-15.607-0.01-28.267,12.634-28.277,28.242l-0.131,204.841  l81.881,0.052c-13.264,10.324-21.81,26.424-21.822,44.534c-0.02,31.934,26.475,57.693,58.689,56.455  C170.162,377.138,193.933,353.476,195.186,324.324z"/>
<g>
</g>
<g>
</g>
<g>
</g>
<g>
</g>
<g>
</g>
<g>
</g>
<g>
</g>
<g>
</g>
<g>
</g>
<g>
</g>
<g>
</g>
<g>
</g>
<g>
</g>
<g>
</g>
<g>
</g>
</svg>
