<?xml version="1.0" encoding="iso-8859-1"?>
<!-- Generator: Adobe Illustrator 19.0.0, SVG Export Plug-In . SVG Version: 6.00 Build 0)  -->
<svg xmlns="http://www.w3.org/2000/svg" xmlns:xlink="http://www.w3.org/1999/xlink" version="1.1" id="Capa_1" x="0px" y="0px" viewBox="0 0 512 512" style="enable-background:new 0 0 512 512;" xml:space="preserve">
<circle style="fill:#34ABE0;" cx="256" cy="256" r="256"/>
<path style="fill:#FFD15C;" d="M334.287,408.178v91.627c-24.67,7.92-50.981,12.194-78.284,12.194  c-20.71,0-40.845-2.456-60.134-7.105c-4.305-1.034-8.568-2.184-12.79-3.438c-4.942-1.463-9.822-3.072-14.629-4.817  c-3.835-1.4-7.638-2.894-11.389-4.462c-14.2-5.956-27.742-13.145-40.5-21.452c-12.946-8.422-25.078-17.993-36.268-28.557  c-15.12-14.263-28.505-30.365-39.79-47.929c-2.33-3.605-4.556-7.283-6.698-11.024l71.022-36.049l1.097-0.554l22.444-2.873  l25.349-3.25l1.808-0.23l20.24-2.591l9.676,1.243h0.01l12.361,1.578l28.578,3.657l19.226,2.466l1.097,0.554l72.798,36.948  C328.571,388.711,334.287,398.011,334.287,408.178z"/>
<path style="fill:#EDBB4C;" d="M185.438,338.913l-27.261,3.49l-3.521,0.449l-26.29,3.365l-3.082,0.397l-14.336,7.272l-59.559,30.229  c-4.598,2.33-8.328,5.872-10.888,10.125c-2.33-3.605-4.556-7.283-6.698-11.024l71.022-36.049l1.097-0.554l22.444-2.873l25.349-3.25  l1.808-0.23l20.24-2.591L185.438,338.913z"/>
<rect x="126.757" y="293.543" style="fill:#F9D6B9;" width="98.032" height="63.028"/>
<g>
	<circle style="fill:#E5BFA3;" cx="80.402" cy="187.423" r="30.294"/>
	<circle style="fill:#E5BFA3;" cx="271.13" cy="187.423" r="30.294"/>
	<path style="fill:#E5BFA3;" d="M152.6,293.544L152.6,293.544l-25.845-0.001v0.001h-0.001v26.652c0,0,0.001,0,0.001,0.001v26.371   H152.6l0,0c0-8.928,7.436-16.107,16.354-15.687c1.724,0.082,3.458,0.122,5.202,0.122c18.27,0,35.494-4.493,50.627-12.427v-25.032   H152.6V293.544z"/>
</g>
<path style="fill:#F9D6B9;" d="M284.901,48.834H66.635v162.248c0,60.273,48.86,109.133,109.133,109.133l0,0  c60.273,0,109.133-48.86,109.133-109.133V48.834H284.901z"/>
<path style="fill:#E5BFA3;" d="M272.022,8.477c-0.331-0.063-0.667-0.108-1.002-0.137c-3.161-0.279-6.275,0.909-8.584,3.085  c-1.652,1.556-3.765,3.509-5.2,4.699c-18.421,15.256-41.777,23.582-65.917,23.582H98.303c-10.199,0-19.601,3.402-27.144,9.127  h-4.524v3.93c-8.198,8.142-13.276,19.42-13.276,31.887v66.856c0,7.95,5.726,14.551,13.276,15.919v43.655  c0,60.273,48.86,109.133,109.133,109.133l0,0c4.068,0,8.081-0.23,12.034-0.664c-54.609-5.991-97.099-52.265-97.099-108.47v-64.396  c0-10.071,7.839-18.594,17.901-18.991c0.317-0.013,0.635-0.019,0.955-0.019l0,0c10.269,0,20.264,3.448,28.266,9.885  c10.384,8.353,23.687,15.102,37.944,13.353c28.398-3.484,27.56-22.243,37.944-30.596c8.002-6.437,17.996-9.885,28.266-9.885h0.443  c13.127,0,23.374-4.902,23.394,8.225c0.014,8.838,6.975,49.162,15.812,49.361c4.611,0.103,8.805-1.724,11.814-4.738  c2.927-2.927,4.737-6.972,4.737-11.443V40.442C298.177,24.92,287.273,11.366,272.022,8.477z"/>
<path style="fill:#F4A14E;" d="M298.177,32.143v139.1c0,4.471-1.81,8.515-4.737,11.443c-3.01,3.016-7.204,4.841-11.813,4.737  c-8.847-0.2-15.813-7.658-15.813-16.505v-27.703c0-6.584-2.667-12.538-6.983-16.853c-4.315-4.315-10.269-6.983-16.853-6.983  c-10.269,0-20.262,3.447-28.268,9.888c-10.38,8.35-23.576,13.351-37.945,13.351c-14.364,0-27.56-5.002-37.94-13.351  c-1.372-1.107-2.806-2.119-4.288-3.043c-0.017-0.017-0.039-0.027-0.055-0.039c-2.822-1.76-5.821-3.187-8.941-4.277  c-4.786-1.666-9.849-2.529-14.984-2.529c-13.163,0-23.836,10.674-23.836,23.836v28.036c0,4.465-1.81,8.515-4.742,11.443  c-2.927,2.927-6.972,4.737-11.443,4.737c-8.936,0-16.178-7.242-16.178-16.184V76.352c0-24.822,20.124-44.944,44.944-44.944h93.016  c24.14,0,47.495-8.327,65.914-23.581c1.439-1.189,3.553-3.143,5.202-4.698c2.312-2.18,5.428-3.365,8.587-3.088  c0.332,0.027,0.67,0.072,1.001,0.138C287.272,3.067,298.177,16.623,298.177,32.143z"/>
<path style="fill:#E28D40;" d="M102.469,76.352c0-24.821,20.124-44.944,44.944-44.944h-49.11c-24.821,0-44.944,20.124-44.944,44.944  v94.89c0,8.942,7.243,16.184,16.178,16.184c4.471,0,8.515-1.809,11.442-4.737c2.933-2.927,4.742-6.977,4.742-11.443v-28.036  c0-10.695,7.046-19.745,16.748-22.764V76.352H102.469z"/>
<path style="fill:#E5BFA3;" d="M152.081,182.233c-0.608,5.03-5.047,8.722-10.114,8.722h-26.329c-2.75,0-5.24-1.112-7.044-2.916  c-2.065-2.071-3.232-5.046-2.841-8.281c0.608-5.03,5.047-8.722,10.114-8.722h26.329c2.75,0,5.24,1.112,7.044,2.916  C151.304,176.024,152.473,178.999,152.081,182.233z"/>
<path style="fill:#FFFFFF;" d="M152.081,189.217c-0.608,5.03-5.047,8.722-10.114,8.722h-26.329c-2.75,0-5.24-1.112-7.044-2.916  c-2.065-2.071-3.232-5.046-2.841-8.281c0.608-5.03,5.047-8.722,10.114-8.722h26.329c2.75,0,5.24,1.112,7.044,2.916  C151.304,183.008,152.473,185.982,152.081,189.217z"/>
<path style="fill:#E5BFA3;" d="M242.897,171.037H216.34c-5.5,0-9.959,4.459-9.959,9.959l0,0c0,5.5,4.459,9.959,9.959,9.959h26.557  c5.5,0,9.959-4.459,9.959-9.959l0,0C252.856,175.496,248.396,171.037,242.897,171.037z"/>
<path style="fill:#FFFFFF;" d="M242.897,178.021H216.34c-5.5,0-9.959,4.459-9.959,9.959l0,0c0,5.5,4.459,9.959,9.959,9.959h26.557  c5.5,0,9.959-4.459,9.959-9.959l0,0C252.856,182.48,248.396,178.021,242.897,178.021z"/>
<path style="fill:#E5BFA3;" d="M251.511,151.141h-43.785c-3.1,0-5.613,2.513-5.613,5.613l0,0c0,3.1,2.513,5.613,5.613,5.613h43.785  c3.1,0,5.613-2.513,5.613-5.613l0,0C257.124,153.654,254.611,151.141,251.511,151.141z"/>
<g>
	<path style="fill:#5C5E70;" d="M142.164,184.693c0,7.314-5.931,13.246-13.246,13.246c-7.314,0-13.246-5.931-13.246-13.246   c0-2.435,0.658-4.715,1.81-6.673h22.874C141.505,179.979,142.164,182.259,142.164,184.693z"/>
	<path style="fill:#5C5E70;" d="M242.865,184.693c0,7.314-5.931,13.246-13.246,13.246c-7.314,0-13.246-5.931-13.246-13.246   c0-2.435,0.658-4.715,1.81-6.673h22.874C242.205,179.979,242.865,182.259,242.865,184.693z"/>
</g>
<g>
	<path style="fill:#E5BFA3;" d="M107.211,151.141c-3.091,0-5.742,2.418-5.798,5.508c-0.057,3.148,2.477,5.719,5.612,5.719h30.762   c12.214,0,22.116,9.901,22.116,22.116v54.793h5.573c7.159,0,12.963-5.803,12.963-12.963V168.03c0-9.328-7.562-16.889-16.889-16.889   H107.211z"/>
	<path style="fill:#E5BFA3;" d="M157.168,270.487c12.288-2.35,24.911-2.35,37.199,0c3.305,0.627,6.662-1.299,7.536-4.547l0,0   c0.874-3.242-1.456-6.685-5.25-7.408c-13.799-2.639-27.974-2.639-41.773,0c-3.792,0.723-6.123,4.166-5.25,7.408l0,0   C150.508,269.189,153.862,271.114,157.168,270.487z"/>
	<path style="fill:#E5BFA3;" d="M180.72,276.654h-9.906c-2.526,0-4.574,2.048-4.574,4.574l0,0c0,2.526,2.047,4.574,4.574,4.574   h9.906c2.526,0,4.574-2.048,4.574-4.574l0,0C185.294,278.701,183.246,276.654,180.72,276.654z"/>
</g>
<g>
	<path style="fill:#EDBB4C;" d="M121.842,326.828l48.376,20.733c4.986,2.137,7.03,8.117,4.396,12.86l-15.666,28.2   c-3.04,5.471-10.549,6.347-14.767,1.722l-39.868-43.726c-3.676-4.031-3.031-10.362,1.38-13.57l7.159-5.207   C115.461,325.942,118.877,325.558,121.842,326.828z"/>
	<path style="fill:#EDBB4C;" d="M229.694,326.828l-48.376,20.733c-4.986,2.137-7.03,8.117-4.396,12.86l15.666,28.2   c3.04,5.471,10.549,6.347,14.766,1.722l39.868-43.726c3.676-4.031,3.031-10.362-1.38-13.57l-7.159-5.207   C236.075,325.942,232.659,325.558,229.694,326.828z"/>
	<polygon style="fill:#EDBB4C;" points="280.065,463.751 248.25,475.37 215.882,463.751 215.882,442.172 280.065,442.172  "/>
	<path style="fill:#EDBB4C;" d="M135.649,442.169v21.577l-19.09,6.98c-12.946-8.422-25.078-17.993-36.268-28.557H135.649z"/>
	<path style="fill:#EDBB4C;" d="M183.08,355.891v145.565c-4.942-1.463-9.822-3.072-14.629-4.817V355.891H183.08z"/>
</g>
<path style="fill:#FF525D;" d="M463.642,397.312c0,3.009-0.125,5.998-0.366,8.944c-9.237,12.727-19.623,24.566-31.002,35.38  c-27.554,26.185-60.938,46.289-97.991,58.169c-2.09,0.669-4.2,1.317-6.311,1.933c-46.247-12.215-80.342-54.345-80.342-104.427  c0-59.643,48.358-108.001,108.011-108.001C415.284,289.311,463.642,337.669,463.642,397.312z"/>
<path style="fill:#FCF8F2;" d="M417.515,378.19H293.76c-6.158,0-11.149,4.991-11.149,11.149v15.955  c0,6.158,4.991,11.149,11.149,11.149h123.755c6.158,0,11.149-4.991,11.149-11.149v-15.955  C428.664,383.182,423.673,378.19,417.515,378.19z"/>
<g>
</g>
<g>
</g>
<g>
</g>
<g>
</g>
<g>
</g>
<g>
</g>
<g>
</g>
<g>
</g>
<g>
</g>
<g>
</g>
<g>
</g>
<g>
</g>
<g>
</g>
<g>
</g>
<g>
</g>
</svg>
