<?xml version="1.0" encoding="iso-8859-1"?>
<!-- Generator: Adobe Illustrator 19.0.0, SVG Export Plug-In . SVG Version: 6.00 Build 0)  -->
<svg xmlns="http://www.w3.org/2000/svg" xmlns:xlink="http://www.w3.org/1999/xlink" version="1.1" id="Capa_1" x="0px" y="0px" viewBox="0 0 512 512" style="enable-background:new 0 0 512 512;" xml:space="preserve">
<circle style="fill:#F9EED7;" cx="256" cy="256" r="256"/>
<path style="fill:#FF525D;" d="M166.817,181.663L166.817,181.663c0,34.495-27.964,62.459-62.459,62.459H77.345  c-34.495,0-62.459-27.964-62.459-62.459l0,0c0-4.869,2.736-9.326,7.078-11.529l19.122-9.704  c10.781-5.471,22.421-9.053,34.414-10.589l15.35-1.966l4.637,0.593h0.003l10.71,1.372c11.993,1.536,23.635,5.119,34.417,10.591  l19.123,9.705C164.081,172.338,166.817,176.794,166.817,181.663z"/>
<g>
	<path style="fill:#E5BFA3;" d="M114.341,126.726v25.233c0,12.972-10.517,23.489-23.489,23.489l0,0   c-12.972,0-23.489-10.517-23.489-23.489v-25.233C67.362,126.726,114.341,126.726,114.341,126.726z"/>
	<circle style="fill:#E5BFA3;" cx="40.145" cy="85.452" r="14.518"/>
	<circle style="fill:#E5BFA3;" cx="141.563" cy="85.452" r="14.518"/>
</g>
<path style="fill:#F9D6B9;" d="M143.152,44.006L38.55,38.438v58.347c0,28.885,23.416,52.3,52.3,52.3l0,0  c28.885,0,52.3-23.416,52.3-52.3V44.006H143.152z"/>
<path style="fill:#E5BFA3;" d="M59.42,96.785V39.548l-20.87-1.111v58.347c0,28.885,23.416,52.3,52.3,52.3l0,0  c3.574,0,7.062-0.36,10.434-1.044C77.402,143.205,59.42,122.095,59.42,96.785z"/>
<path style="fill:#C98847;" d="M149.515,42.052v26.347c0,2.142-0.867,4.081-2.27,5.484c-1.442,1.445-3.452,2.32-5.661,2.27  c-4.24-0.095-7.579-3.67-7.579-7.91v-3.983c0-3.156-1.278-6.008-3.347-8.077c-2.068-2.068-4.921-3.347-8.077-3.347  c-4.921,0-9.71,1.652-13.547,4.739c-4.975,4.001-11.298,6.398-18.184,6.398c-6.884,0-13.208-2.397-18.182-6.398  c-0.657-0.531-1.345-1.016-2.055-1.459c-0.008-0.008-0.019-0.014-0.026-0.019c-1.352-0.843-2.79-1.528-4.285-2.05  c-2.297-0.798-4.723-1.212-7.186-1.212c-6.306,0-11.418,5.12-11.418,11.428v4.137c0,2.14-0.867,4.081-2.273,5.484  c-1.402,1.402-3.341,2.27-5.484,2.27c-4.282,0-7.753-3.471-7.753-7.756V42.052c0-23.069,18.699-41.771,41.769-41.771h33.787  C130.814,0.281,149.515,18.983,149.515,42.052z"/>
<path style="fill:#4BC999;" d="M497.113,181.663L497.113,181.663c0,34.495-27.964,62.459-62.459,62.459h-27.013  c-34.495,0-62.459-27.964-62.459-62.459l0,0c0-4.869,2.736-9.326,7.078-11.529l19.122-9.704  c10.781-5.471,22.421-9.053,34.414-10.589l15.35-1.966l4.637,0.593h0.003l10.71,1.372c11.993,1.536,23.635,5.119,34.417,10.591  l19.123,9.705C494.378,172.338,497.113,176.794,497.113,181.663z"/>
<g>
	<path style="fill:#E5BFA3;" d="M444.638,126.726v25.233c0,12.972-10.517,23.489-23.489,23.489l0,0   c-12.972,0-23.489-10.517-23.489-23.489v-25.233C397.659,126.726,444.638,126.726,444.638,126.726z"/>
	<circle style="fill:#E5BFA3;" cx="370.437" cy="85.452" r="14.518"/>
	<circle style="fill:#E5BFA3;" cx="471.855" cy="85.452" r="14.518"/>
</g>
<path style="fill:#F9D6B9;" d="M473.449,44.006l-104.602-5.568v58.347c0,28.885,23.416,52.3,52.3,52.3l0,0  c28.885,0,52.3-23.416,52.3-52.3V44.006H473.449z"/>
<path style="fill:#E5BFA3;" d="M389.718,96.785V39.548l-20.87-1.111v58.347c0,28.885,23.416,52.3,52.3,52.3l0,0  c3.574,0,7.062-0.36,10.434-1.044C407.698,143.205,389.718,122.095,389.718,96.785z"/>
<path style="fill:#5C5E70;" d="M479.813,42.052v26.347c0,2.142-0.867,4.081-2.27,5.484c-1.443,1.445-3.452,2.32-5.661,2.27  c-4.24-0.095-7.579-3.67-7.579-7.91v-3.983c0-3.156-1.278-6.008-3.347-8.077s-4.921-3.347-8.077-3.347  c-4.921,0-9.71,1.652-13.547,4.739c-4.975,4.001-11.298,6.398-18.184,6.398c-6.884,0-13.208-2.397-18.182-6.398  c-0.657-0.531-1.345-1.016-2.055-1.459c-0.008-0.008-0.019-0.014-0.026-0.019c-1.352-0.843-2.79-1.528-4.285-2.05  c-2.297-0.798-4.723-1.212-7.186-1.212c-6.306,0-11.418,5.12-11.418,11.428v4.137c0,2.14-0.867,4.081-2.273,5.484  c-1.402,1.402-3.341,2.27-5.484,2.27c-4.282,0-7.753-3.471-7.753-7.756V42.052c0-23.069,18.699-41.771,41.769-41.771h33.787  C461.11,0.281,479.813,18.983,479.813,42.052z"/>
<path style="fill:#494B5B;" d="M404.251,0.281h30.919c-23.061,0-41.765,18.704-41.765,41.775v11.149  c-1.306-0.24-2.644-0.366-3.992-0.366c-6.311,0-11.421,5.12-11.421,11.421v4.138c0,2.142-0.867,4.086-2.267,5.486  c-1.411,1.4-3.344,2.267-5.486,2.267c-4.284,0-7.753-3.469-7.753-7.753V42.056C362.487,18.985,381.18,0.281,404.251,0.281z"/>
<path style="fill:#BA773A;" d="M73.954,0.277h30.919c-23.061,0-41.765,18.704-41.765,41.775v11.149  c-1.306-0.24-2.644-0.366-3.992-0.366c-6.311,0-11.421,5.12-11.421,11.421v4.138c0,2.142-0.867,4.086-2.267,5.486  c-1.411,1.4-3.344,2.267-5.486,2.267c-4.284,0-7.753-3.469-7.753-7.753V42.052C32.189,18.981,50.882,0.277,73.954,0.277z"/>
<path style="fill:#FFD15C;" d="M331.967,475.94c0,9.404-2.079,18.328-5.799,26.331c-22.298,6.332-45.829,9.728-70.165,9.728  s-47.867-3.396-70.165-9.728c-3.72-8.004-5.799-16.927-5.799-26.331c0-2.435,0.679-4.765,1.902-6.76  c1.233-1.996,2.999-3.668,5.172-4.765l19.122-9.707c8.328-4.221,17.168-7.314,26.279-9.216c2.696-0.564,5.402-1.024,8.14-1.369  l8.934-1.139l6.416-0.825l4.629,0.596h0.01l1.766,0.23l8.944,1.139c2.727,0.345,5.454,0.805,8.14,1.379  c9.112,1.891,17.951,4.984,26.269,9.206l19.132,9.707C329.23,466.619,331.967,471.081,331.967,475.94z"/>
<g>
	<path style="fill:#E5BFA3;" d="M279.489,421.008v25.233c0,12.972-10.517,23.489-23.489,23.489l0,0   c-12.972,0-23.489-10.517-23.489-23.489v-25.233H279.489z"/>
	<circle style="fill:#E5BFA3;" cx="205.291" cy="379.726" r="14.518"/>
	<circle style="fill:#E5BFA3;" cx="306.709" cy="379.726" r="14.518"/>
</g>
<path style="fill:#F9D6B9;" d="M308.3,338.289l-104.602-5.568v58.347c0,28.885,23.416,52.3,52.3,52.3l0,0  c28.885,0,52.3-23.416,52.3-52.3v-52.779H308.3z"/>
<path style="fill:#E5BFA3;" d="M224.569,391.067v-57.235l-20.87-1.111v58.347c0,28.885,23.416,52.3,52.3,52.3l0,0  c3.574,0,7.062-0.36,10.434-1.044C242.55,437.487,224.569,416.378,224.569,391.067z"/>
<path style="fill:#C98847;" d="M314.664,336.334v26.346c0,2.142-0.867,4.081-2.27,5.484c-1.442,1.445-3.452,2.32-5.661,2.27  c-4.24-0.095-7.579-3.67-7.579-7.91v-3.983c0-3.156-1.278-6.008-3.347-8.077c-2.068-2.068-4.921-3.347-8.077-3.347  c-4.921,0-9.71,1.652-13.547,4.739c-4.975,4.001-11.298,6.398-18.184,6.398c-6.884,0-13.208-2.397-18.182-6.398  c-0.657-0.531-1.345-1.016-2.055-1.459c-0.008-0.008-0.019-0.014-0.026-0.019c-1.352-0.843-2.79-1.528-4.285-2.05  c-2.297-0.798-4.723-1.212-7.186-1.212c-6.306,0-11.418,5.12-11.418,11.428v4.137c0,2.14-0.867,4.081-2.273,5.484  c-1.402,1.402-3.341,2.27-5.484,2.27c-4.282,0-7.753-3.471-7.753-7.756v-26.346c0-23.069,18.699-41.771,41.769-41.771h33.787  C295.962,294.563,314.664,313.265,314.664,336.334z"/>
<path style="fill:#BA773A;" d="M239.102,294.559h30.919c-23.061,0-41.765,18.704-41.765,41.775v11.149  c-1.306-0.24-2.644-0.366-3.992-0.366c-6.311,0-11.421,5.12-11.421,11.421v4.138c0,2.142-0.867,4.086-2.267,5.486  c-1.411,1.4-3.344,2.267-5.486,2.267c-4.284,0-7.753-3.469-7.753-7.753v-26.342C197.337,313.262,216.031,294.559,239.102,294.559z"/>
<g>
	<path style="fill:#78CAEF;" d="M175.048,424.089C112.513,395.28,67.809,334.18,62.433,262.285   c-0.465-6.218-5.572-11.062-11.808-11.062h-0.002c-6.839,0-12.314,5.785-11.812,12.606   c5.952,80.782,56.154,149.453,126.405,181.799c7.847,3.613,16.804-2.111,16.804-10.75v-0.004   C182.019,430.22,179.274,426.036,175.048,424.089z"/>
	<path style="fill:#78CAEF;" d="M163.722,58.086c0,8.501,8.681,14.193,16.504,10.864c23.293-9.914,48.904-15.403,75.775-15.403   s52.482,5.489,75.775,15.403c7.822,3.329,16.504-2.363,16.504-10.864l0,0c0-4.778-2.888-9.055-7.285-10.926   C314.865,36.04,286.141,29.874,256,29.874s-58.865,6.166-84.994,17.286C166.609,49.031,163.722,53.308,163.722,58.086   L163.722,58.086z"/>
	<path style="fill:#78CAEF;" d="M449.568,262.285c-5.376,71.894-50.081,132.995-112.615,161.803   c-4.227,1.948-6.973,6.13-6.973,10.784v0.004c0,8.639,8.956,14.363,16.804,10.75C417.037,413.28,467.238,344.61,473.19,263.828   c0.503-6.82-4.973-12.606-11.811-12.606h-0.002C455.141,251.224,450.033,256.067,449.568,262.285z"/>
</g>
<g>
</g>
<g>
</g>
<g>
</g>
<g>
</g>
<g>
</g>
<g>
</g>
<g>
</g>
<g>
</g>
<g>
</g>
<g>
</g>
<g>
</g>
<g>
</g>
<g>
</g>
<g>
</g>
<g>
</g>
</svg>
