<?xml version="1.0" encoding="iso-8859-1"?>
<!-- Generator: Adobe Illustrator 19.0.0, SVG Export Plug-In . SVG Version: 6.00 Build 0)  -->
<svg xmlns="http://www.w3.org/2000/svg" xmlns:xlink="http://www.w3.org/1999/xlink" version="1.1" id="Capa_1" x="0px" y="0px" viewBox="0 0 512 512" style="enable-background:new 0 0 512 512;" xml:space="preserve">
<circle style="fill:#34ABE0;" cx="256" cy="256" r="256"/>
<g>
	<path style="fill:#E5BFA3;" d="M248.784,120.037l90.902,112.844l-64.258,87.767L246.3,306.385c0,0,7.536-78.507-4.51-109.441   l-16.262-41.732L248.784,120.037z"/>
	<path style="fill:#E5BFA3;" d="M166.841,63.047l-8.507-12.854c-9.864-14.882-5.778-34.96,9.119-44.808   C172.955,1.737,179.156,0,185.284,0c10.476,0,20.763,5.092,26.978,14.489l8.316,12.548l41.525,62.726"/>
	<path style="fill:#E5BFA3;" d="M300.115,102.69l-41.73-63.032c-6.231-9.397-16.517-14.489-26.993-14.489   c-3.633,0-7.295,0.612-10.812,1.867l-20.381,20.906l56.421,89.335L300.115,102.69"/>
</g>
<path style="fill:#FFD15C;" d="M195.734,201.579c0,23.189-10.284,43.985-26.541,58.061c-13.46,11.659-31.018,18.705-50.225,18.705  c-18.37,0-35.229-6.453-48.446-17.216c-17.284-14.076-28.32-35.525-28.32-59.551c0-42.396,34.37-76.766,76.766-76.766  S195.734,159.182,195.734,201.579z"/>
<path style="fill:#FFDC8D;" d="M182.031,201.579c0,19.05-8.448,36.133-21.803,47.696c-11.058,9.578-25.481,15.366-41.259,15.366  c-15.091,0-28.939-5.301-39.798-14.142c-14.198-11.564-23.265-29.184-23.265-48.92c0-34.827,28.234-63.062,63.062-63.062  S182.031,166.75,182.031,201.579z"/>
<path style="fill:#FF525D;" d="M160.633,244.005c0,1.792-0.137,3.553-0.405,5.269c-11.058,9.578-25.481,15.366-41.259,15.366  c-15.091,0-28.939-5.301-39.798-14.142c-0.412-2.104-0.625-4.27-0.625-6.494c0-1.318,0.369-2.573,1.037-3.653  c0.661-1.08,1.617-1.979,2.791-2.573l10.327-5.244c4.495-2.285,9.279-3.959,14.198-4.982c1.454-0.306,2.916-0.55,4.396-0.737  l4.833-0.625l3.465-0.443l2.504,0.325l0.93,0.118l0.025,0.006l4.833,0.619c1.48,0.187,2.94,0.43,4.396,0.737  c4.927,1.024,9.703,2.697,14.198,4.982l10.333,5.244C159.154,238.966,160.633,241.377,160.633,244.005z"/>
<g>
	<path style="fill:#E5BFA3;" d="M132.282,214.325v13.633c0,7.009-5.682,12.691-12.691,12.691l0,0   c-7.009,0-12.691-5.682-12.691-12.691v-13.633H132.282z"/>
	<circle style="fill:#E5BFA3;" cx="92.191" cy="192.021" r="7.844"/>
	<circle style="fill:#E5BFA3;" cx="146.986" cy="192.021" r="7.844"/>
</g>
<path style="fill:#F9D6B9;" d="M147.848,169.633l-56.514-3.008v31.524c0,15.607,12.652,28.257,28.257,28.257l0,0  c15.606,0,28.257-12.652,28.257-28.257V169.633z"/>
<path style="fill:#E5BFA3;" d="M107.922,198.148v-30.641l-16.589-0.883v31.524c0,15.607,12.652,28.257,28.257,28.257l0,0  c2.887,0,5.672-0.436,8.294-1.239C116.327,221.622,107.922,210.868,107.922,198.148z"/>
<path style="fill:#5C5E70;" d="M151.287,168.578v14.235c0,1.158-0.468,2.205-1.227,2.962c-0.779,0.781-1.865,1.254-3.058,1.227  c-2.29-0.051-4.095-1.983-4.095-4.274v-2.151c0-1.705-0.691-3.246-1.808-4.363c-1.117-1.117-2.659-1.808-4.363-1.808  c-2.659,0-5.246,0.892-7.32,2.56c-2.687,2.162-6.104,3.457-9.825,3.457c-3.719,0-7.136-1.295-9.823-3.457  c-0.355-0.286-0.726-0.549-1.111-0.788c-0.004-0.004-0.01-0.007-0.015-0.01c-0.73-0.456-1.507-0.825-2.315-1.108  c-1.24-0.432-2.552-0.655-3.883-0.655c-3.406,0-6.169,2.767-6.169,6.174v2.235c0,1.156-0.468,2.205-1.228,2.962  c-0.758,0.758-1.806,1.227-2.962,1.227c-2.313,0-4.189-1.876-4.189-4.19v-14.235c0-12.464,10.103-22.569,22.567-22.569h18.254  C141.182,146.009,151.287,156.113,151.287,168.578z"/>
<path style="fill:#494B5B;" d="M126.928,146.011c-12.466,0-22.569,10.103-22.569,22.569v5.986c-0.627-0.107-1.267-0.16-1.915-0.16  c-3.403,0-6.166,2.763-6.166,6.173v2.236c0,1.155-0.467,2.203-1.228,2.963c-0.761,0.754-1.801,1.228-2.963,1.228  c-2.315,0-4.191-1.875-4.191-4.191v-14.234c0-12.466,10.103-22.569,22.569-22.569h16.463V146.011z"/>
<path style="fill:#F9D6B9;" d="M420.47,452.179c-38.285,32.141-86.11,53.269-138.627,58.535l-31.451-91.188  c-15.653-4.587-30.699-11.003-44.837-19.09s-27.355-17.857-39.361-29.163l-52.736-49.654c-17.314-16.3-6.071-45.61,17.711-45.808  h0.502c12.758,0,25.6,4.012,36.488,12.246l24.022,18.171c15.799,11.933,37.543,12.152,53.561,0.522l28.275-21.619  c12.257-9.362,16.697-25.788,10.836-40.051l-33.834-82.338l-128.408-37.93c-15.684-6.28-24.858-22.674-21.985-39.33  c1.578-9.143,6.457-16.823,13.176-22.079c6.186-4.859,13.939-7.659,22.068-7.659c3.114,0,6.269,0.408,9.425,1.264l132.399,37.125  c22.194,6.029,42.203,18.244,57.699,35.234l63.885,99.161c6.092,9.456,9.404,20.428,9.571,31.671l1.808,124.782  C410.993,407.781,414.305,430.371,420.47,452.179z"/>
<g>
	<path style="fill:#E5BFA3;" d="M314.465,505.291c-10.627,2.487-21.525,4.305-32.622,5.423l-31.451-91.188   c-15.653-4.587-30.699-11.003-44.837-19.09s-27.355-17.857-39.361-29.163l-52.736-49.654c-17.314-16.3-6.071-45.61,17.711-45.808   h0.502c5.538,0,11.076,0.752,16.468,2.288c-17.471,4.451-30.605,14.89-17.512,27.22l70.05,65.954   c12.006,11.306,25.224,21.076,39.361,29.163s29.184,14.503,44.837,19.09L314.465,505.291z"/>
	<path style="fill:#E5BFA3;" d="M251.019,162.742l-128.408-37.93c-15.684-6.28-24.858-22.674-21.985-39.33   c1.578-9.143,6.457-16.823,13.176-22.079c-3.124,22.371,4.274,41.368,20.992,46.592c16.718,5.224,105.535,30.302,105.535,30.302   L251.019,162.742z"/>
</g>
<g>
</g>
<g>
</g>
<g>
</g>
<g>
</g>
<g>
</g>
<g>
</g>
<g>
</g>
<g>
</g>
<g>
</g>
<g>
</g>
<g>
</g>
<g>
</g>
<g>
</g>
<g>
</g>
<g>
</g>
</svg>
