<?xml version="1.0" encoding="iso-8859-1"?>
<!-- Generator: Adobe Illustrator 19.0.0, SVG Export Plug-In . SVG Version: 6.00 Build 0)  -->
<svg xmlns="http://www.w3.org/2000/svg" xmlns:xlink="http://www.w3.org/1999/xlink" version="1.1" id="Capa_1" x="0px" y="0px" viewBox="0 0 512 512" style="enable-background:new 0 0 512 512;" xml:space="preserve">
<circle style="fill:#78CAEF;" cx="255.998" cy="255.999" r="255.998"/>
<path style="fill:#E8DBC4;" d="M339.477,67.921c0,12.731-8.93,23.369-20.872,25.999c-1.852,0.405-3.779,0.624-5.752,0.624  c-14.703,0-26.612-11.92-26.612-26.623c0-14.704,11.91-26.624,26.612-26.624c1.972,0,3.901,0.219,5.752,0.625  C330.548,44.551,339.477,55.19,339.477,67.921z"/>
<path style="fill:#5C5E70;" d="M474.405,389.611c-4.974,8.119-10.376,15.924-16.196,23.406  c-41.608,53.498-103.977,90.049-175.009,97.551c-8.087,0.857-16.279,1.337-24.576,1.411c-0.878,0.021-1.745,0.021-2.623,0.021  c-43.917,0-85.253-11.055-121.364-30.542c-13.176-7.105-25.652-15.329-37.313-24.555c-13.469-10.647-25.83-22.611-36.906-35.714  c-1.526-1.808-3.03-3.636-4.503-5.486c-0.711-0.888-1.421-1.787-2.111-2.685c-5.82-7.481-11.233-15.297-16.206-23.406  L474.405,389.611L474.405,389.611z"/>
<rect x="245.654" y="350.322" style="fill:#F9EED7;" width="126.777" height="49.455"/>
<g>
	<path style="fill:#E8DBC4;" d="M390.97,424.51H227.11c-6.646,0-9.216-8.192-4.598-12.142c0.387-0.334,0.825-0.637,1.327-0.899   l21.807-11.692h126.787l21.807,11.692c0.502,0.261,0.94,0.564,1.327,0.899C400.186,416.318,397.616,424.51,390.97,424.51z"/>
	<rect x="245.654" y="350.322" style="fill:#E8DBC4;" width="126.777" height="19.083"/>
</g>
<g>
	<path style="fill:#F9EED7;" d="M395.568,412.369c-1.16,1.034-2.717,1.693-4.598,1.693H227.11c-1.881,0-3.438-0.658-4.598-1.693   c0.387-0.334,0.825-0.637,1.327-0.899l21.807-11.692h126.787l21.807,11.692C394.742,411.731,395.181,412.034,395.568,412.369z"/>
	<path style="fill:#F9EED7;" d="M512,73.28v182.72c0,35.37-7.178,69.078-20.156,99.724H126.111   c-11.065,0-20.031-8.965-20.031-20.031V73.28c0-11.065,8.965-20.031,20.031-20.031h365.858C503.035,53.25,512,62.215,512,73.28z"/>
</g>
<path style="fill:#797B89;" d="M124.889,293.384V73.275c0-0.674,0.546-1.22,1.22-1.22h365.864c0.674,0,1.22,0.546,1.22,1.22v220.11  c0,0.674-0.547,1.22-1.22,1.22H126.109C125.435,294.604,124.889,294.058,124.889,293.384z"/>
<path style="fill:#FFD15C;" d="M461.717,294.604H260.853c0.179-6.252,3.758-11.923,9.355-14.754l46.117-23.415l0.703-0.356  l14.22-1.818l16.076-2.053l1.135-0.149l12.823-1.64l6.14,0.777l7.837,1.003l18.109,2.325l12.176,1.556l0.703,0.356l46.117,23.415  C457.958,282.682,461.539,288.352,461.717,294.604z"/>
<path style="fill:#EDBB4C;" d="M367.419,251.196l-17.285,2.212l-2.231,0.29l-16.657,2.127l-1.95,0.253l-9.083,4.612l-37.737,19.159  c-5.596,2.831-9.176,8.501-9.355,14.754h-12.27c0.179-6.252,3.758-11.923,9.355-14.754l46.117-23.415l0.703-0.356l14.22-1.818  l16.076-2.053l1.135-0.149l12.823-1.64L367.419,251.196z"/>
<rect x="331.252" y="222.458" style="fill:#F9D6B9;" width="62.119" height="39.936"/>
<g>
	<circle style="fill:#E5BFA3;" cx="294.241" cy="155.209" r="19.196"/>
	<circle style="fill:#E5BFA3;" cx="428.332" cy="155.209" r="19.196"/>
	<path style="fill:#E5BFA3;" d="M347.627,222.454L347.627,222.454l-16.377-0.001v0.001h-0.001v16.888h0.001v16.71h16.377l0,0   c0-5.657,4.711-10.207,10.362-9.94c1.092,0.051,2.191,0.077,3.296,0.077c11.576,0,22.49-2.847,32.079-7.874v-15.86L347.627,222.454   L347.627,222.454z"/>
</g>
<path style="fill:#F9D6B9;" d="M430.437,100.42l-138.302-7.362v77.144c0,38.191,30.96,69.151,69.151,69.151l0,0  c38.191,0,69.151-30.96,69.151-69.151L430.437,100.42L430.437,100.42z"/>
<g>
	<path style="fill:#E5BFA3;" d="M408.85,99.271l7.133,7.123c-2.615-1.218-7.171,0.038-12.467,0.038h-0.281   c-6.506,0-12.832,2.184-17.903,6.262c-3.14,2.521-4.669,6.551-7.358,10.311c-2.943,4.124-7.283,7.92-16.685,9.074   c-9.036,1.105-17.463-3.168-24.043-8.465c-2.54-2.044-5.39-3.6-8.418-4.658c-3.028-1.06-6.243-1.603-9.495-1.603   c-0.206,0-0.403,0.009-0.609,0.009c-6.374,0.253-11.342,5.652-11.342,12.035V170.2c0,20.875,9.242,39.574,23.865,52.257   c10.32,8.952,23.34,14.903,37.663,16.479c-0.628,0.066-1.256,0.131-1.884,0.178c-0.628,0.056-1.265,0.103-1.893,0.131   c-0.637,0.038-1.275,0.066-1.912,0.085c-0.647,0.019-1.284,0.028-1.931,0.028c-10.77,0-20.959-2.456-30.042-6.852   c-21.98-10.611-37.494-32.525-38.984-58.199c-0.094-1.359-0.132-2.728-0.132-4.105v-27.661c-3.337-0.6-3.328-2.821-3.019-5.831   c0.132-1.294,0.319-2.738,0.319-4.256l2.699-9.617l8.165-29.076v-0.272c0.075-7.79,3.272-14.829,8.418-19.938v-0.159h74.22   L408.85,99.271z"/>
	<path style="fill:#E5BFA3;" d="M417.708,108.119l-1.725-1.725C416.725,106.741,417.306,107.295,417.708,108.119z"/>
	<path style="fill:#E5BFA3;" d="M435.846,139.914c-1.444,1.444-3.319,2.455-5.408,2.831c-0.666,0.131-1.359,0.187-2.072,0.168   c-1.772-0.038-3.421-2.615-4.846-6.289c-3.102-7.977-5.165-21.147-5.174-24.98c0-1.537-0.225-2.681-0.637-3.524l12.729,12.71   l2.381,2.38l2.521,9.458c0,1.893,1.06,3.664,1.209,5.193C436.615,138.611,436.465,139.296,435.846,139.914z"/>
</g>
<path style="fill:#5C5E70;" d="M438.856,97.836v34.831c0,2.043-0.6,3.936-1.622,5.531c-0.394,0.619-0.862,1.2-1.388,1.716v0.009  c-1.444,1.444-3.319,2.456-5.408,2.831c-0.666,0.132-1.359,0.188-2.072,0.169c-3.6-0.075-6.711-2.063-8.465-4.95  c-0.994-1.612-1.556-3.506-1.556-5.512v-5.268c0-4.171-1.687-7.939-4.424-10.676c-2.737-2.738-6.505-4.424-10.677-4.424  c-6.515,0-12.842,2.184-17.913,6.27c-2.259,1.81-4.724,3.375-7.358,4.64c-5.043,2.446-10.705,3.815-16.685,3.815  c-9.102,0-17.463-3.168-24.043-8.455c-0.871-0.703-1.781-1.35-2.719-1.931c-0.009-0.009-0.028-0.019-0.038-0.028  c-1.781-1.115-3.683-2.016-5.661-2.709c-3.028-1.05-6.224-1.603-9.476-1.603c-2.878,0-5.568,0.797-7.854,2.193  c-0.413,0.253-0.815,0.525-1.2,0.816c-0.385,0.281-0.76,0.6-1.116,0.918c-0.178,0.169-0.356,0.338-0.525,0.506  c-2.738,2.737-4.424,6.515-4.424,10.686v5.465c0,1.95-0.543,3.768-1.499,5.325c-0.422,0.694-0.928,1.341-1.509,1.922  c-1.856,1.856-4.415,3-7.245,3c-0.628,0-1.247-0.056-1.846-0.169c-2.849-0.515-5.286-2.203-6.787-4.556  c-1.022-1.593-1.622-3.496-1.622-5.531V97.836c0-8.774,2.044-17.078,5.699-24.446h143.733  C436.812,80.759,438.856,89.063,438.856,97.836z"/>
<path style="fill:#494B5B;" d="M321.82,73.394c-3.657,7.366-5.705,15.663-5.705,24.44v14.608c-1.661,0.355-3.218,0.982-4.618,1.839  c-0.408,0.261-0.815,0.533-1.202,0.825c-0.376,0.272-0.752,0.596-1.108,0.909c-0.178,0.178-0.366,0.345-0.533,0.512  c-2.738,2.738-4.42,6.51-4.42,10.689v5.465c0,1.943-0.543,3.762-1.505,5.318c-0.418,0.69-0.919,1.337-1.505,1.923  c-1.86,1.86-4.42,2.999-7.241,2.999c-0.637,0-1.254-0.052-1.849-0.167c-2.853-0.512-5.287-2.205-6.792-4.556  c-1.014-1.599-1.62-3.5-1.62-5.527V97.834c0-8.777,2.048-17.074,5.705-24.44C289.429,73.394,321.82,73.394,321.82,73.394z"/>
<path style="fill:#E5BFA3;" d="M346.277,151.924c-0.386,3.187-3.198,5.526-6.408,5.526h-16.683c-1.743,0-3.32-0.704-4.463-1.847  c-1.308-1.312-2.048-3.197-1.8-5.247c0.386-3.187,3.198-5.526,6.408-5.526h16.683c1.743,0,3.32,0.704,4.463,1.847  C345.786,147.989,346.526,149.874,346.277,151.924z"/>
<path style="fill:#FFFFFF;" d="M346.277,156.349c-0.386,3.187-3.198,5.526-6.408,5.526h-16.683c-1.743,0-3.32-0.704-4.463-1.847  c-1.308-1.312-2.048-3.197-1.8-5.247c0.386-3.187,3.198-5.526,6.408-5.526h16.683c1.743,0,3.32,0.704,4.463,1.847  C345.786,152.414,346.526,154.299,346.277,156.349z"/>
<path style="fill:#E5BFA3;" d="M403.821,144.829h-16.828c-3.485,0-6.31,2.825-6.31,6.31l0,0c0,3.485,2.825,6.31,6.31,6.31h16.828  c3.485,0,6.31-2.825,6.31-6.31l0,0C410.132,147.655,407.307,144.829,403.821,144.829z"/>
<path style="fill:#FFFFFF;" d="M403.821,149.254h-16.828c-3.485,0-6.31,2.825-6.31,6.31l0,0c0,3.485,2.825,6.31,6.31,6.31h16.828  c3.485,0,6.31-2.825,6.31-6.31l0,0C410.132,152.08,407.307,149.254,403.821,149.254z"/>
<path style="fill:#E5BFA3;" d="M409.28,132.223h-27.744c-1.964,0-3.557,1.592-3.557,3.557l0,0c0,1.964,1.592,3.557,3.557,3.557  h27.744c1.964,0,3.557-1.592,3.557-3.557l0,0C412.837,133.815,411.244,132.223,409.28,132.223z"/>
<g>
	<path style="fill:#5C5E70;" d="M339.993,153.482c0,4.635-3.758,8.394-8.394,8.394c-4.635,0-8.394-3.758-8.394-8.394   c0-1.542,0.417-2.987,1.146-4.228h14.494C339.576,150.496,339.993,151.94,339.993,153.482z"/>
	<path style="fill:#5C5E70;" d="M403.801,153.482c0,4.635-3.758,8.394-8.394,8.394c-4.635,0-8.394-3.758-8.394-8.394   c0-1.542,0.417-2.987,1.146-4.228h14.494C403.384,150.496,403.801,151.94,403.801,153.482z"/>
</g>
<g>
	<path style="fill:#E5BFA3;" d="M317.846,132.223c-1.958,0-3.638,1.532-3.674,3.49c-0.037,1.995,1.569,3.624,3.556,3.624h19.492   c7.74,0,14.013,6.274,14.013,14.013v34.719h3.532c4.536,0,8.214-3.677,8.214-8.214v-36.931c0-5.91-4.791-10.702-10.702-10.702   h-34.431V132.223z"/>
	<path style="fill:#E5BFA3;" d="M373.15,199.691c-7.703,2.537-16.022,2.537-23.725,0c-2.058-0.67-4.41,0.134-5.326,2.059l0,0   c-0.914,1.918,0.349,4.425,2.912,5.266c9.27,3.054,19.282,3.054,28.553,0c2.563-0.843,3.826-3.346,2.912-5.266l0,0   C377.559,199.823,375.208,199.018,373.15,199.691z"/>
	<path style="fill:#E5BFA3;" d="M365.463,214.328h-8.353c-2.129,0-3.857,1.726-3.857,3.857l0,0c0,2.129,1.726,3.857,3.857,3.857   h8.353c2.129,0,3.857-1.726,3.857-3.857l0,0C369.319,216.055,367.593,214.328,365.463,214.328z"/>
</g>
<g>
	<path style="fill:#EDBB4C;" d="M327.117,243.545l30.652,13.136c3.16,1.354,4.454,5.143,2.786,8.148l-9.926,17.869   c-1.926,3.467-6.684,4.022-9.356,1.091l-25.261-27.706c-2.329-2.555-1.921-6.566,0.875-8.598l4.536-3.299   C323.074,242.983,325.238,242.74,327.117,243.545z"/>
	<path style="fill:#EDBB4C;" d="M395.456,243.545l-30.652,13.136c-3.16,1.354-4.454,5.143-2.786,8.148l9.926,17.869   c1.926,3.467,6.684,4.022,9.356,1.091l25.261-27.706c2.329-2.555,1.921-6.566-0.875-8.598l-4.536-3.299   C399.5,242.983,397.335,242.74,395.456,243.545z"/>
</g>
<path style="fill:#FF525D;" d="M283.2,440.748v69.82c-8.087,0.857-16.279,1.337-24.576,1.411c-0.878,0.021-1.745,0.021-2.623,0.021  c-43.917,0-85.253-11.055-121.364-30.542c-13.176-7.105-25.652-15.329-37.313-24.555c-13.469-10.647-25.83-22.611-36.906-35.714  c-1.526-1.808-3.03-3.636-4.503-5.486l37.616-19.09h0.01l8.976-4.566l17.753-2.278l37.512-4.807l7.649,0.982l32.402,4.159h0.01  l15.203,1.943l8.955,4.566l0.021,0.01l49.476,25.098C278.676,425.346,283.2,432.702,283.2,440.748z"/>
<path style="fill:#EF4152;" d="M165.43,385.943l-45.16,5.789l-2.445,0.313l-21.671,10.992h-0.01l-35.725,18.15  c-1.526-1.808-3.03-3.636-4.503-5.486l37.616-19.09h0.01l8.976-4.566l17.753-2.278l37.512-4.807L165.43,385.943z"/>
<g>
	<rect x="120.267" y="350.05" style="fill:#E5BFA3;" width="77.562" height="49.869"/>
	<circle style="fill:#E5BFA3;" cx="74.055" cy="266.093" r="23.969"/>
	<circle style="fill:#E5BFA3;" cx="241.495" cy="266.093" r="23.969"/>
	<path style="fill:#E5BFA3;" d="M244.123,197.669l-172.694-9.193v96.329c0,47.688,38.659,86.347,86.347,86.347l0,0   c47.688,0,86.347-38.659,86.347-86.347v-87.136H244.123z"/>
</g>
<path style="fill:#C98847;" d="M181.989,125.48h-48.422c-39.336,0-70.49,33.234-67.951,72.488l6.746,104.304  c1.124,17.389,9.772,33.424,23.682,43.918l0,0c8.835,6.664,20.388,8.541,30.877,5.014l13.94-4.686c10.977-3.69,22.859-3.69,33.836,0  l13.94,4.686c10.49,3.526,22.043,1.65,30.877-5.014l0,0c13.911-10.494,22.557-26.529,23.682-43.918l6.746-104.304  C252.479,158.715,221.326,125.48,181.989,125.48z"/>
<path style="fill:#BA773A;" d="M107.405,197.967l6.75,104.301c1.128,17.397,9.77,33.426,23.677,43.927  c0.418,0.313,0.846,0.627,1.285,0.909l-12.204,4.106c-3.479,1.17-7.084,1.745-10.668,1.745c-7.189,0-14.305-2.32-20.208-6.76  c-13.908-10.501-22.549-26.53-23.677-43.927l-6.75-104.301c-2.539-39.257,28.62-72.484,67.96-72.484h41.796  C136.025,125.483,104.866,158.711,107.405,197.967z"/>
<path style="fill:#EF4152;" d="M214.604,406.243c-36.928,12.015-76.728,12.015-113.656,0c-5.929-1.929-8.96-8.506-6.665-14.304  c1.457-3.679,2.913-7.358,4.37-11.037c2.104-5.316,7.968-8.078,13.414-6.336c29.727,9.504,61.691,9.504,91.419,0  c5.446-1.741,11.309,1.021,13.414,6.336c1.457,3.679,2.913,7.358,4.37,11.037C223.565,397.737,220.533,404.315,214.604,406.243z"/>
<path style="fill:#F4A14E;" d="M258.624,484.633v27.345c-0.878,0.021-1.745,0.021-2.623,0.021  c-43.917,0-85.253-11.055-121.364-30.542c-13.176-7.105-25.652-15.329-37.313-24.555h133.568  C246.211,456.902,258.624,469.315,258.624,484.633z"/>
<path style="fill:#F9AF6B;" d="M258.624,509.178v2.8c-0.878,0.021-1.745,0.021-2.623,0.021c-43.917,0-85.253-11.055-121.364-30.542  h96.255C246.211,481.457,258.624,493.87,258.624,509.178z"/>
<path style="fill:#E8DBC4;" d="M339.477,26.627c0,12.731-8.93,23.369-20.872,25.999c-1.852,0.405-3.779,0.624-5.752,0.624  c-14.703,0-26.612-11.92-26.612-26.623c0-14.704,11.91-26.624,26.612-26.624c1.972,0,3.901,0.219,5.752,0.625  C330.548,3.257,339.477,13.895,339.477,26.627z"/>
<path style="fill:#F9EED7;" d="M339.477,26.627c0,12.731-8.93,23.369-20.872,25.999c-11.931-2.63-20.86-13.268-20.86-25.999  s8.93-23.369,20.86-25.999C330.548,3.257,339.477,13.895,339.477,26.627z"/>
<circle style="fill:#5C5E70;" cx="312.861" cy="26.627" r="9.98"/>
<g>
</g>
<g>
</g>
<g>
</g>
<g>
</g>
<g>
</g>
<g>
</g>
<g>
</g>
<g>
</g>
<g>
</g>
<g>
</g>
<g>
</g>
<g>
</g>
<g>
</g>
<g>
</g>
<g>
</g>
</svg>
