<?xml version="1.0" encoding="iso-8859-1"?>
<!-- Generator: Adobe Illustrator 19.0.0, SVG Export Plug-In . SVG Version: 6.00 Build 0)  -->
<svg xmlns="http://www.w3.org/2000/svg" xmlns:xlink="http://www.w3.org/1999/xlink" version="1.1" id="Capa_1" x="0px" y="0px" viewBox="0 0 512 512" style="enable-background:new 0 0 512 512;" xml:space="preserve">
<circle style="fill:#FFD15C;" cx="256" cy="256" r="256"/>
<path style="fill:#F9EED7;" d="M484.825,41.91v329.007c-4.399,8.746-9.289,17.209-14.629,25.349  c-5.433,8.276-11.337,16.227-17.669,23.793C405.57,476.254,334.966,512,256.003,512c-16.948,0-33.51-1.651-49.539-4.786  c-7.649-1.505-15.172-3.344-22.559-5.507c-49.256-14.43-92.359-43.269-124.437-81.648c-6.332-7.565-12.225-15.517-17.659-23.793  c-5.339-8.14-10.23-16.603-14.629-25.349V41.91c0-7.011,5.674-12.696,12.685-12.696H472.13  C479.141,29.214,484.825,34.899,484.825,41.91z"/>
<path style="fill:#FCF8F2;" d="M470.197,93.476v302.791c-5.433,8.276-11.337,16.227-17.669,23.793  C405.57,476.254,334.966,512,256.003,512c-16.948,0-33.51-1.651-49.539-4.786c-7.649-1.505-15.172-3.344-22.559-5.507  c-49.256-14.43-92.359-43.269-124.437-81.648c-6.332-7.565-12.225-15.517-17.659-23.793V93.476H470.197z"/>
<circle style="fill:#FF525D;" cx="80.091" cy="62.657" r="15.672"/>
<circle style="fill:#FFD15C;" cx="127.112" cy="62.657" r="15.672"/>
<circle style="fill:#4BC999;" cx="176.441" cy="62.657" r="15.672"/>
<path style="fill:#E8DBC4;" d="M420.972,47.769H232.899c-8.223,0-14.889,6.666-14.889,14.889l0,0  c0,8.223,6.666,14.889,14.889,14.889h188.072c8.223,0,14.889-6.666,14.889-14.889l0,0C435.86,54.435,429.194,47.769,420.972,47.769z  "/>
<g>
	<rect x="249.041" y="201.268" style="fill:#D6C8B0;" width="13.93" height="140.685"/>
	<path style="fill:#D6C8B0;" d="M116.539,365.311h1.638v-99.162c0-2.789,2.268-5.057,5.057-5.057h129.374h136.165   c2.789,0,5.057,2.268,5.057,5.057v104.038l1.638-9.752l10.652,9.752h1.638V266.149c0-10.469-8.518-18.987-18.987-18.987H252.607   H123.234c-10.469,0-18.986,8.517-18.986,18.987v96.375h1.638L116.539,365.311z"/>
</g>
<path style="fill:#F4A14E;" d="M250.949,149.065L250.949,149.065c0,4.458-3.613,8.071-8.071,8.071H215.54  c-4.458,0-8.071,3.613-8.071,8.071v38.073c0,4.458,3.613,8.071,8.071,8.071h80.925c4.458,0,8.071-3.613,8.071-8.071v-54.215  c0-4.458-3.613-8.071-8.071-8.071H259.02C254.562,140.994,250.949,144.608,250.949,149.065z"/>
<polygon style="fill:#34ABE0;" points="145.593,332.527 145.593,394.908 76.63,394.908 76.63,309.226 122.292,309.226 "/>
<polygon style="fill:#78CAEF;" points="122.292,332.527 122.292,309.226 145.593,332.527 "/>
<polygon style="fill:#FFD15C;" points="290.485,332.527 290.485,394.908 221.521,394.908 221.521,309.226 267.184,309.226 "/>
<polygon style="fill:#FFDC8D;" points="267.184,332.527 267.184,309.226 290.485,332.527 "/>
<polygon style="fill:#FF525D;" points="435.378,332.527 435.378,394.908 366.414,394.908 366.414,309.226 412.076,309.226 "/>
<polygon style="fill:#FF6E7C;" points="412.076,332.527 412.076,309.226 435.378,332.527 "/>
<g>
</g>
<g>
</g>
<g>
</g>
<g>
</g>
<g>
</g>
<g>
</g>
<g>
</g>
<g>
</g>
<g>
</g>
<g>
</g>
<g>
</g>
<g>
</g>
<g>
</g>
<g>
</g>
<g>
</g>
</svg>
