<?xml version="1.0" encoding="iso-8859-1"?>
<!-- Generator: Adobe Illustrator 19.0.0, SVG Export Plug-In . SVG Version: 6.00 Build 0)  -->
<svg xmlns="http://www.w3.org/2000/svg" xmlns:xlink="http://www.w3.org/1999/xlink" version="1.1" id="Capa_1" x="0px" y="0px" viewBox="0 0 512.001 512.001" style="enable-background:new 0 0 512.001 512.001;" xml:space="preserve">
<circle style="fill:#FF525D;" cx="256" cy="256.001" r="256"/>
<path style="fill:#E8DBC4;" d="M506.861,201.95l-24.497-11.447c-3.495-1.63-5.5-5.32-5.069-9.149  c1.351-11.907,1.045-23.786-0.78-35.345c-0.599-3.801,1.253-7.59,4.679-9.373l23.995-12.492c4.164-2.172,5.933-7.199,4.039-11.489  l-13.356-30.401c-1.894-4.289-6.796-6.393-11.196-4.791l-25.43,9.247c-3.635,1.309-7.659,0.125-10.069-2.91  c-7.283-9.149-15.834-17.408-25.512-24.468c-3.119-2.271-4.47-6.239-3.314-9.916l8.119-25.778c1.42-4.485-0.891-9.289-5.264-10.987  L392.29,0.606c-4.373-1.699-9.316,0.293-11.308,4.54l-3.913,8.383l-7.534,16.099c-1.629,3.495-5.32,5.5-9.149,5.069  c-11.907-1.351-23.772-1.045-35.331,0.779c-3.816,0.599-7.604-1.239-9.386-4.665L303.177,6.804  c-2.159-4.164-7.186-5.933-11.489-4.039l-22.059,9.706l-8.328,3.649c-4.303,1.893-6.392,6.796-4.791,11.197l9.233,25.443  c1.323,3.621,0.125,7.659-2.91,10.069c-9.149,7.269-17.408,15.82-24.468,25.499c-2.27,3.119-6.239,4.47-9.915,3.314l-25.778-8.133  c-4.47-1.406-9.275,0.891-10.974,5.264l-12.047,30.93c-1.699,4.373,0.279,9.316,4.526,11.308l24.497,11.447  c3.482,1.629,5.487,5.32,5.055,9.149c-1.336,11.907-1.045,23.786,0.779,35.345c0.612,3.816-1.239,7.59-4.665,9.373l-23.995,12.492  c-4.164,2.159-5.933,7.186-4.052,11.489l13.355,30.401c1.894,4.289,6.782,6.378,11.197,4.791l25.443-9.233  c3.635-1.323,7.659-0.125,10.069,2.896c7.283,9.149,15.82,17.394,25.499,24.455c3.119,2.271,4.484,6.253,3.328,9.93l-8.132,25.791  c-1.42,4.471,0.891,9.276,5.264,10.974l30.916,12.047c4.373,1.699,9.316-0.279,11.308-4.54l11.447-24.496  c1.629-3.495,5.32-5.5,9.149-5.069c11.907,1.351,23.786,1.045,35.345-0.766c3.816-0.599,7.59,1.253,9.373,4.665l12.492,23.995  c2.172,4.164,7.2,5.933,11.489,4.053l30.401-13.369c4.289-1.88,6.392-6.781,4.791-11.197l-9.233-25.415  c-1.323-3.634-0.125-7.659,2.896-10.069c9.149-7.283,17.408-15.833,24.468-25.527c2.27-3.105,6.239-4.47,9.915-3.314l25.791,8.133  c4.485,1.42,9.275-0.891,10.988-5.264l12.032-30.916C513.099,208.871,511.108,203.928,506.861,201.95z M398.208,190.224  c-12.046,26.821-42.92,40.386-70.815,31.124c-32.587-10.806-48.616-47.28-34.565-78.599c12.032-26.821,42.935-40.4,70.828-31.139  C396.245,122.446,412.26,158.919,398.208,190.224z"/>
<path style="fill:#D6C8B0;" d="M345.526,56.492c-60.746,0-109.989,49.243-109.989,109.989S284.78,276.47,345.526,276.47  s109.989-49.243,109.989-109.989S406.272,56.492,345.526,56.492z M398.208,190.224c-12.046,26.821-42.92,40.386-70.815,31.124  c-32.587-10.806-48.616-47.28-34.565-78.599c12.032-26.821,42.935-40.4,70.828-31.139  C396.245,122.446,412.26,158.919,398.208,190.224z"/>
<path style="fill:#E8DBC4;" d="M279.576,391.836l-30.595-3.887c-4.357-0.554-7.826-3.866-8.694-8.171  c-2.685-13.406-7.158-26.196-13.166-38.118c-1.975-3.918-1.285-8.683,1.818-11.807l21.703-21.932  c3.762-3.814,3.929-9.885,0.376-13.887l-25.098-28.359c-3.553-4.002-9.603-4.577-13.824-1.296l-24.398,18.902  c-3.49,2.685-8.276,2.811-11.954,0.345c-11.097-7.398-23.259-13.385-36.237-17.68c-4.169-1.379-7.022-5.214-7.053-9.613  l-0.167-30.824c-0.021-5.36-4.2-9.77-9.55-10.094l-37.773-2.309c-5.339-0.313-10.01,3.563-10.7,8.871l-1.327,10.47l-2.57,20.114  c-0.543,4.357-3.856,7.826-8.171,8.694c-13.396,2.685-26.175,7.147-38.097,13.166c-3.929,1.975-8.683,1.296-11.818-1.797  L0.045,260.503c0.334,19.425,2.832,38.316,7.262,56.456c5.548,22.706,14.127,44.241,25.287,64.125  c10.815-22.413,33.98-37.7,59.977-37.439c39.163,0.408,69.266,34.429,64.92,73.331c-2.748,24.566-19.122,44.878-40.97,53.718  c19.153,12.466,40.072,22.444,62.297,29.456c13.834,4.378,28.181,7.607,42.914,9.571l-3.448-4.451  c-2.706-3.49-2.811-8.276-0.366-11.943c7.398-11.107,13.385-23.27,17.669-36.258c1.39-4.159,5.224-7.032,9.613-7.053l30.845-0.157  c5.371-0.021,9.77-4.2,10.104-9.55l2.288-37.773C288.771,397.176,284.884,392.505,279.576,391.836z"/>
<path style="fill:#D6C8B0;" d="M211.449,371.21c-21.17-65.964-91.815-102.285-157.79-81.105  c-17.784,5.705-33.426,15.015-46.352,26.854c5.548,22.706,14.127,44.241,25.287,64.125c10.815-22.413,33.98-37.7,59.977-37.439  c39.163,0.408,69.266,34.429,64.92,73.331c-2.748,24.566-19.122,44.878-40.97,53.718c19.153,12.466,40.072,22.444,62.297,29.456  C212.326,467.999,226.6,418.408,211.449,371.21z"/>
<path style="fill:#5C5E70;" d="M444.264,166.481c0,29.828-13.227,56.577-34.14,74.683c-17.314,14.997-39.898,24.06-64.603,24.06  c-23.629,0-45.314-8.301-62.316-22.143c-22.232-18.106-36.427-45.695-36.427-76.599c0-54.533,44.21-98.743,98.743-98.743  S444.264,111.948,444.264,166.481z"/>
<path style="fill:#4BC999;" d="M410.761,232.912c0,2.806-0.215,5.563-0.635,8.252c-17.314,14.997-39.898,24.06-64.603,24.06  c-23.629,0-45.314-8.301-62.316-22.143c-0.646-3.295-0.978-6.687-0.978-10.168c0-2.063,0.577-4.028,1.623-5.719  c1.037-1.692,2.532-3.099,4.37-4.028l16.17-8.212c7.039-3.579,14.528-6.198,22.232-7.801c2.278-0.48,4.566-0.86,6.883-1.154  l7.567-0.978l5.426-0.694l3.92,0.509l1.457,0.186l0.039,0.009l7.567,0.968c2.317,0.294,4.605,0.675,6.883,1.154  c7.713,1.603,15.193,4.223,22.232,7.801l16.18,8.212C408.443,225.023,410.761,228.797,410.761,232.912z"/>
<g>
	<path style="fill:#E5BFA3;" d="M366.368,186.441v21.347c0,10.975-8.897,19.872-19.872,19.872l0,0   c-10.975,0-19.872-8.897-19.872-19.872v-21.347L366.368,186.441L366.368,186.441z"/>
	<circle style="fill:#E5BFA3;" cx="303.595" cy="151.521" r="12.282"/>
	<circle style="fill:#E5BFA3;" cx="389.402" cy="151.521" r="12.282"/>
</g>
<path style="fill:#F9D6B9;" d="M390.742,116.461l-88.49-4.71v49.36c0,24.436,19.809,44.245,44.245,44.245l0,0  c24.436,0,44.245-19.809,44.245-44.245L390.742,116.461L390.742,116.461z"/>
<path style="fill:#E5BFA3;" d="M328.226,161.11v-47.978l-25.975-1.382v49.36c0,24.436,19.809,44.245,44.245,44.245l0,0  c4.52,0,8.881-0.681,12.987-1.941C341.387,197.866,328.226,181.027,328.226,161.11z"/>
<path style="fill:#C98847;" d="M396.125,114.808v22.289c0,1.813-0.733,3.452-1.921,4.639c-1.22,1.223-2.921,1.962-4.789,1.921  c-3.587-0.08-6.411-3.104-6.411-6.692v-3.37c0-2.67-1.081-5.083-2.831-6.833s-4.164-2.831-6.833-2.831  c-4.164,0-8.215,1.397-11.46,4.008c-4.208,3.385-9.559,5.413-15.384,5.413c-5.823,0-11.173-2.028-15.382-5.413  c-0.556-0.448-1.137-0.859-1.739-1.234c-0.006-0.006-0.016-0.011-0.022-0.016c-1.144-0.714-2.359-1.293-3.625-1.735  c-1.942-0.675-3.996-1.025-6.079-1.025c-5.334,0-9.659,4.332-9.659,9.668v3.499c0,1.81-0.734,3.452-1.923,4.639  c-1.187,1.187-2.826,1.921-4.639,1.921c-3.623,0-6.559-2.936-6.559-6.561v-22.289c0-19.516,15.819-35.337,35.335-35.337h28.583  C380.304,79.47,396.125,95.292,396.125,114.808z"/>
<path style="fill:#BA773A;" d="M357.985,79.474c-19.519,0-35.338,15.82-35.338,35.338v9.373c-0.982-0.167-1.985-0.251-2.999-0.251  c-5.329,0-9.655,4.326-9.655,9.665v3.5c0,1.808-0.731,3.448-1.923,4.639c-1.191,1.181-2.821,1.923-4.639,1.923  c-3.626,0-6.562-2.936-6.562-6.562v-22.288c0-19.519,15.82-35.338,35.338-35.338H357.985z"/>
<path style="fill:#E8DBC4;" d="M494.867,320.689c-0.084-5.089-4.106-9.226-9.195-9.467L459.57,310l-9.843-0.481  c-5.089-0.23-9.488,3.511-10.052,8.558l-3.312,29.153c-0.47,4.159-3.584,7.502-7.69,8.37c-12.392,2.644-24.534,6.959-36.049,12.946  c-3.709,1.933-8.213,1.327-11.233-1.567l-21.096-20.334c-3.657-3.521-9.435-3.605-13.187-0.188l-26.624,24.21  c-3.751,3.427-4.221,9.185-1.055,13.166l18.254,22.936c2.591,3.26,2.759,7.805,0.491,11.316c-7.043,10.909-12.497,22.58-16.3,34.68  c-1.243,4.002-4.869,6.771-9.049,6.855l-29.32,0.543c-5.089,0.084-9.226,4.117-9.477,9.195l-1.714,35.955  c-0.104,2.247,0.575,4.347,1.787,6.05c22.821-1.588,44.816-6.175,65.599-13.354c4.117-1.432,8.192-2.957,12.215-4.587  c18.934-7.649,36.739-17.502,53.102-29.236c0.376-0.637,0.763-1.275,1.17-1.902c1.714-2.675,3.657-5.245,5.831-7.68  c2.173-2.466,4.577-4.786,7.21-6.949c5.005-4.106,10.491-7.314,16.259-9.613c0-0.01,0.01-0.01,0.01-0.01  c0.272-0.104,0.554-0.219,0.826-0.313c11.107-11.024,21.201-23.04,30.135-35.924c2.644-3.803,5.183-7.69,7.617-11.64  c2.288-3.709,4.483-7.471,6.572-11.306c5.601-10.209,10.522-20.835,14.712-31.828L494.867,320.689z"/>
<path style="fill:#D6C8B0;" d="M352.165,443.047c-8.788,17.68-12.779,36.488-12.466,54.962c4.117-1.432,8.192-2.957,12.215-4.587  c18.934-7.649,36.739-17.502,53.102-29.236c0.376-0.637,0.763-1.275,1.17-1.902c1.714-2.675,3.657-5.245,5.831-7.68  c2.173-2.466,4.577-4.786,7.21-6.949c5.005-4.106,10.491-7.314,16.259-9.613c0-0.01,0.01-0.01,0.01-0.01  c0.272-0.104,0.554-0.219,0.826-0.313c11.107-11.024,21.201-23.04,30.135-35.924c2.644-3.803,5.183-7.69,7.617-11.64  c2.288-3.709,4.483-7.471,6.572-11.306C429.602,369.371,376.417,394.25,352.165,443.047z"/>
<polygon style="fill:#5C5E70;" points="440.177,438.292 435.966,438.063 440.177,438.282 "/>
<path style="fill:#34ABE0;" d="M436.321,437.718c-0.115,0.115-0.23,0.23-0.355,0.345c-7.534,7.45-15.538,14.44-23.949,20.92  c-1.923,1.473-3.866,2.936-5.831,4.357c-0.387,0.282-0.784,0.564-1.17,0.846c-16.363,11.734-34.168,21.588-53.102,29.236  c1.431-57.866,48.797-104.344,107.008-104.344c5.141,0,10.198,0.366,15.151,1.076c-2.435,3.95-4.974,7.837-7.617,11.64  C457.522,414.678,447.428,426.694,436.321,437.718z"/>
<path style="fill:#F9D6B9;" d="M435.966,438.063c-7.534,7.45-15.538,14.44-23.949,20.92v-22.194l23.468,1.254L435.966,438.063z"/>
<g>
	<path style="fill:#E5BFA3;" d="M435.496,438.031l0.47,0.031c-7.534,7.45-15.538,14.44-23.949,20.92v-22.194L435.496,438.031z"/>
	<polygon style="fill:#E5BFA3;" points="440.177,438.282 440.177,438.292 435.966,438.063  "/>
</g>
<polygon style="fill:#C98847;" points="435.966,438.063 440.177,438.282 440.177,438.292 "/>
<g>
	<path style="fill:#FFD15C;" d="M436.321,437.718c-0.115,0.115-0.23,0.23-0.355,0.345c-7.534,7.45-15.538,14.44-23.949,20.92   c-1.923,1.473-3.866,2.936-5.831,4.357v-23.239c0-21.149,17.147-38.306,38.306-38.306h21.964   C457.522,414.678,447.428,426.694,436.321,437.718z"/>
	<path style="fill:#FFD15C;" d="M185.138,408.899c0,17.762-4.828,35.375-13.954,50.618c-4.654,7.773-10.376,14.909-16.959,21.133   c-1.756,1.66-3.574,3.257-5.447,4.785c-0.433,0.353-0.868,0.702-1.307,1.048c-0.247,0.194-0.863,0.851-1.151,0.887   c-0.359,0.046-1.101-0.526-1.443-0.691c-0.72-0.347-1.439-0.698-2.156-1.052c-4.529-2.238-8.977-4.628-13.37-7.119   c-17.405-9.868-33.618-21.889-48.222-35.553c-14.636-13.693-27.541-29.084-38.675-45.739   c-11.032-16.503-20.034-34.431-26.86-53.065c-0.203-0.554-0.404-1.109-0.604-1.663c-0.106-0.295-0.278-0.621-0.331-0.928   c-0.113-0.657-0.138-0.191,0.089-0.604c0.453-0.824,1.573-1.628,2.239-2.287c1.441-1.426,2.927-2.808,4.452-4.142   c3.137-2.744,6.448-5.29,9.906-7.617c6.8-4.577,14.17-8.301,21.891-11.052c15.687-5.59,32.75-7.082,49.181-4.403   c14.102,2.299,27.639,7.71,39.452,15.746c11.602,7.892,21.484,18.256,28.809,30.224c7.547,12.33,12.312,26.293,13.877,40.664   C184.944,401.677,185.138,405.288,185.138,408.899z"/>
</g>
<path style="fill:#5C5E70;" d="M137.648,376.946v100.801l-7.962-3.762v4.713c-1.118-0.627-2.226-1.275-3.333-1.923  c-0.794-0.46-1.578-0.93-2.361-1.411c-2.027-1.212-4.023-2.456-6.008-3.73c-0.491-0.313-0.972-0.627-1.463-0.94  c-0.199-0.125-0.397-0.261-0.596-0.397c-0.951-0.616-1.881-1.233-2.821-1.881c-0.543-0.355-1.076-0.721-1.62-1.097  c-0.825-0.554-1.64-1.128-2.456-1.703c-1.233-0.857-2.445-1.724-3.657-2.612c-1.411-1.024-2.821-2.069-4.211-3.135  c-0.376-0.282-0.742-0.575-1.118-0.857c-1.369-1.045-2.717-2.111-4.065-3.197c-0.324-0.251-0.637-0.502-0.961-0.763  c-0.282-0.23-0.575-0.47-0.857-0.711h-0.01c-0.324-0.261-0.648-0.522-0.972-0.794c-0.104-0.073-0.199-0.157-0.293-0.24  c-5.266-4.368-10.344-8.913-15.245-13.678c-0.084-0.073-0.157-0.157-0.24-0.239c-1.411-1.369-2.811-2.769-4.19-4.18  c-0.773-0.784-1.546-1.578-2.299-2.373c-0.69-0.721-1.379-1.452-2.058-2.184c-0.418-0.439-0.825-0.878-1.233-1.327  c-1.275-1.379-2.539-2.769-3.772-4.18c-0.616-0.69-1.223-1.39-1.829-2.09c0-0.01-0.021-0.031-0.031-0.042  c-0.711-0.825-1.421-1.661-2.121-2.497c-0.899-1.066-1.776-2.142-2.644-3.218c-0.522-0.637-1.034-1.275-1.546-1.912  c-0.648-0.805-1.275-1.609-1.912-2.424c-0.637-0.815-1.264-1.63-1.881-2.456c-0.616-0.815-1.243-1.641-1.849-2.466  c-0.146-0.199-0.293-0.408-0.449-0.606c-0.46-0.627-0.909-1.254-1.369-1.891c-1.17-1.609-2.309-3.239-3.438-4.88l-0.157-0.219  c-1.63-2.382-3.229-4.807-4.786-7.252c-1.609-2.529-3.166-5.078-4.681-7.659v-8.589c0-11.41,3.73-21.943,10.031-30.459  c6.311-8.516,15.193-15.015,25.496-18.328c4.953-1.599,10.23-2.456,15.715-2.456h0.01  C114.702,325.705,137.648,348.651,137.648,376.946z"/>
<path style="fill:#34ABE0;" d="M147.49,479.137c0,2.654-0.209,5.256-0.606,7.805c-0.188,0.146-0.376,0.293-0.564,0.428  c-5.663-2.685-11.212-5.58-16.635-8.673c-4.472-2.529-8.861-5.204-13.166-8.004c-3.783-2.466-7.502-5.026-11.149-7.69  c-3.187-2.32-6.322-4.712-9.394-7.189c3.333,0.282,6.646,0.721,9.927,1.296c2.236,0.387,4.472,0.857,6.677,1.379  c8.547,2.048,16.854,5.089,24.743,9.101l0.324,0.157l4.159,2.111C145.296,471.625,147.49,475.219,147.49,479.137z"/>
<path style="fill:#E5BFA3;" d="M105.904,439.389v19.184c0,1.526-0.178,3.009-0.533,4.43c-0.711-0.522-1.421-1.045-2.132-1.567  c-1.076-0.794-2.142-1.609-3.197-2.424c-1.369-1.045-2.717-2.111-4.065-3.197c-0.324-0.251-0.637-0.502-0.961-0.763  c-0.282-0.23-0.575-0.47-0.857-0.711h-0.01c-0.324-0.261-0.648-0.522-0.972-0.794c-0.104-0.073-0.199-0.157-0.293-0.24  c-5.266-4.368-10.344-8.913-15.245-13.678c-0.084-0.073-0.157-0.157-0.24-0.239h28.505V439.389z"/>
<path style="fill:#494B5B;" d="M86.406,325.705c0,0-16.217,6.792-17.544,47.125c-0.585,17.711-6.614,32.057-13.187,42.559  c-2.57-3.218-5.057-6.499-7.461-9.843c-4.66-6.447-9.017-13.124-13.061-20.01v-8.589c0-11.41,3.73-21.943,10.031-30.459  c6.311-8.516,15.193-15.015,25.496-18.328c4.953-1.599,10.23-2.456,15.715-2.456H86.406z"/>
<path style="fill:#F9D6B9;" d="M123.552,422.807c-2.988,14.033-12.978,26.634-26.958,30.898c-0.627,0.188-1.787,0.721-2.414,0.627  c-0.021,0-0.052-0.01-0.073-0.01c-5.695-4.671-11.191-9.561-16.468-14.691c-1.536-1.494-3.062-3.009-4.556-4.545l-0.01-0.01  c-0.648-0.794-1.452-1.494-2.163-2.236c-0.69-0.721-1.379-1.452-2.058-2.184c-0.627-0.658-1.243-1.327-1.86-1.996  c-0.063-0.073-0.125-0.136-0.188-0.209c-0.073-0.084-0.146-0.157-0.219-0.24c-1.223-1.337-2.424-2.696-3.615-4.054  c-1.724-1.975-3.406-3.971-5.057-5.998c-0.731-0.878-1.452-1.766-2.163-2.664c-0.867-1.087-1.724-2.173-2.57-3.281  c-0.627-0.805-1.243-1.62-1.86-2.435c-0.575-0.784-1.16-1.557-1.735-2.341c-0.366-0.512-1.108-1.212-1.337-1.829  c-0.01-0.031-0.021-0.052-0.031-0.084c-0.094-0.313,0-0.805,0-1.139v-11.233c0-0.219-0.125-0.888,0-1.087  c0.146-0.23,1.808-0.408,2.132-0.491c0.93-0.251,1.849-0.543,2.748-0.878c6.928-2.55,12.403-7.993,14.932-14.932  c0.313-0.867,0.836-1.996,0.836-2.936c6.572,5.36,14.284,9.279,22.518,11.348c8.923,2.247,18.85,0.961,26.572,6.781  c2.968,2.247,5.193,5.287,6.614,8.704C124.565,407.311,125.161,415.284,123.552,422.807z"/>
<g>
	<path style="fill:#E5BFA3;" d="M67.535,413.163c0,7.68,1.907,15.343,5.674,22.047c-4.758-4.846-9.325-9.881-13.682-15.09   c-2.16-2.582-4.267-5.207-6.323-7.873c-1.068-1.386-2.121-2.782-3.159-4.188c-0.537-0.727-1.623-1.753-1.831-2.617   c-0.225-0.931,0-2.197,0-3.149c0-1.783,0-3.565,0-5.348c0-1.393,0-2.785,0-4.177c0-0.147-0.083-0.581,0-0.709   c0.154-0.24,1.767-0.39,2.131-0.486c0.815-0.216,1.624-0.467,2.419-0.75c3.214-1.146,6.186-2.88,8.71-5.182   c2.698-2.46,4.452-5.394,6.06-8.62c0,4.075,0,8.149,0,12.224c0,6.466,0,12.932,0,19.397   C67.535,410.148,67.535,411.656,67.535,413.163z"/>
	<path style="fill:#E5BFA3;" d="M96.05,453.861l-1.891,0.481h-0.01c-0.846-0.679-1.693-1.379-2.529-2.079   C93.051,452.89,94.535,453.422,96.05,453.861z"/>
</g>
<g>
</g>
<g>
</g>
<g>
</g>
<g>
</g>
<g>
</g>
<g>
</g>
<g>
</g>
<g>
</g>
<g>
</g>
<g>
</g>
<g>
</g>
<g>
</g>
<g>
</g>
<g>
</g>
<g>
</g>
</svg>
