<?xml version="1.0" encoding="iso-8859-1"?>
<!-- Generator: Adobe Illustrator 19.0.0, SVG Export Plug-In . SVG Version: 6.00 Build 0)  -->
<svg xmlns="http://www.w3.org/2000/svg" xmlns:xlink="http://www.w3.org/1999/xlink" version="1.1" id="Capa_1" x="0px" y="0px" viewBox="0 0 512 512" style="enable-background:new 0 0 512 512;" xml:space="preserve">
<circle style="fill:#4BC999;" cx="256" cy="256" r="256"/>
<path style="fill:#D6C8B0;" d="M480.36,69.949V353.21H31.64V69.949c0-11.357,9.198-20.556,20.556-20.556h407.611  C471.151,49.392,480.36,58.591,480.36,69.949z"/>
<path style="fill:#F9EED7;" d="M497.58,340.919c-8.338,23.74-20.083,45.871-34.649,65.829H49.068  c-14.566-19.958-26.311-42.089-34.649-65.829H497.58z"/>
<path style="fill:#34ABE0;" d="M454.534,88.073v226.461c0,5.559-4.504,10.062-10.062,10.062H67.535  c-5.559,0-10.062-4.504-10.062-10.062V88.073c0-5.569,4.504-10.073,10.062-10.073h376.936  C450.03,78.001,454.534,82.504,454.534,88.073z"/>
<path style="fill:#E8DBC4;" d="M316.91,374.356H195.09c-11.949,0-21.637-9.687-21.637-21.637v-11.8h165.094v11.8  C338.547,364.668,328.86,374.356,316.91,374.356z"/>
<path style="fill:#F4A14E;" d="M367.953,324.596H144.042c0.199-6.969,4.19-13.291,10.428-16.447l51.409-26.102l0.784-0.397  l15.851-2.027l17.92-2.288l1.264-0.167l14.294-1.829l6.844,0.867l8.735,1.118l20.187,2.591l13.573,1.735l0.784,0.397l51.409,26.102  C363.763,311.305,367.755,317.627,367.953,324.596z"/>
<path style="fill:#E28D40;" d="M262.837,276.207l-19.268,2.466l-2.487,0.324l-18.568,2.372l-2.173,0.282l-10.125,5.141  l-42.068,21.358c-6.238,3.156-10.23,9.477-10.428,16.447h-13.678c0.199-6.969,4.19-13.291,10.428-16.447l51.409-26.102l0.784-0.397  l15.851-2.027l17.92-2.288l1.264-0.167l14.294-1.829L262.837,276.207z"/>
<rect x="222.521" y="244.172" style="fill:#F9D6B9;" width="69.245" height="44.519"/>
<g>
	<circle style="fill:#E5BFA3;" cx="181.258" cy="169.211" r="21.397"/>
	<circle style="fill:#E5BFA3;" cx="330.742" cy="169.211" r="21.397"/>
	<path style="fill:#E5BFA3;" d="M240.773,244.168L240.773,244.168l-18.255-0.001v0.001h-0.001v18.826h0.001v18.626h18.255l0,0   c0-6.306,5.252-11.377,11.551-11.081c1.217,0.057,2.442,0.087,3.674,0.087c12.904,0,25.071-3.173,35.76-8.778v-17.681h-50.985   V244.168z"/>
</g>
<path style="fill:#F9D6B9;" d="M333.085,108.131l-154.171-8.208v85.996c0,42.573,34.512,77.085,77.085,77.085l0,0  c42.573,0,77.085-34.512,77.085-77.085V108.131z"/>
<g>
	<path style="fill:#E5BFA3;" d="M309.021,106.85l7.952,7.941c-2.915-1.358-7.993,0.042-13.897,0.042h-0.313   c-7.252,0-14.305,2.435-19.958,6.98c-3.5,2.811-5.204,7.304-8.202,11.494c-3.281,4.598-8.119,8.829-18.599,10.115   c-10.073,1.233-19.466-3.532-26.802-9.435c-2.832-2.278-6.008-4.012-9.383-5.193c-3.375-1.181-6.959-1.787-10.585-1.787   c-0.23,0-0.449,0.01-0.679,0.01c-7.105,0.282-12.643,6.301-12.643,13.416v45.484c0,23.27,10.303,44.116,26.603,58.253   c11.504,9.979,26.018,16.614,41.984,18.369c-0.7,0.073-1.4,0.146-2.1,0.199c-0.7,0.063-1.411,0.115-2.111,0.146   c-0.711,0.042-1.421,0.073-2.132,0.094c-0.721,0.021-1.431,0.031-2.152,0.031c-12.006,0-23.364-2.738-33.489-7.638   c-24.503-11.828-41.796-36.258-43.457-64.878c-0.105-1.515-0.146-3.041-0.146-4.577v-30.835c-3.72-0.669-3.709-3.145-3.365-6.499   c0.146-1.442,0.355-3.051,0.355-4.744l3.009-10.721l9.101-32.413v-0.303c0.084-8.683,3.647-16.53,9.383-22.225v-0.178h82.735   L309.021,106.85z"/>
	<path style="fill:#E5BFA3;" d="M318.896,116.714l-1.923-1.923C317.798,115.178,318.446,115.795,318.896,116.714z"/>
	<path style="fill:#E5BFA3;" d="M339.114,152.157c-1.609,1.609-3.699,2.738-6.029,3.156c-0.742,0.146-1.515,0.209-2.309,0.188   c-1.975-0.042-3.814-2.915-5.402-7.011c-3.459-8.892-5.757-23.573-5.768-27.847c0-1.714-0.251-2.988-0.711-3.929l14.19,14.169   l2.654,2.654l2.811,10.543c0,2.111,1.181,4.086,1.348,5.789C339.971,150.705,339.804,151.467,339.114,152.157z"/>
</g>
<path style="fill:#5C5E70;" d="M342.468,105.252v38.828c0,2.278-0.669,4.389-1.808,6.165c-0.439,0.69-0.961,1.337-1.546,1.912v0.01  c-1.609,1.609-3.699,2.738-6.029,3.156c-0.742,0.146-1.515,0.209-2.309,0.188c-4.012-0.084-7.481-2.299-9.435-5.517  c-1.108-1.797-1.735-3.908-1.735-6.144v-5.872c0-4.65-1.881-8.85-4.932-11.901c-3.051-3.051-7.252-4.932-11.901-4.932  c-7.262,0-14.315,2.435-19.968,6.99c-2.518,2.017-5.266,3.762-8.202,5.172c-5.622,2.727-11.933,4.253-18.599,4.253  c-10.146,0-19.466-3.532-26.802-9.425c-0.972-0.784-1.985-1.505-3.03-2.152c-0.01-0.01-0.031-0.021-0.042-0.031  c-1.985-1.243-4.106-2.247-6.311-3.02c-3.375-1.17-6.938-1.787-10.564-1.787c-3.208,0-6.207,0.888-8.756,2.445  c-0.46,0.282-0.909,0.585-1.337,0.909c-0.428,0.313-0.846,0.669-1.243,1.024c-0.199,0.188-0.397,0.376-0.585,0.564  c-3.051,3.051-4.932,7.262-4.932,11.912v6.092c0,2.173-0.606,4.201-1.672,5.935c-0.47,0.773-1.034,1.494-1.682,2.142  c-2.069,2.069-4.921,3.344-8.077,3.344c-0.7,0-1.39-0.063-2.058-0.188c-3.176-0.575-5.893-2.456-7.565-5.078  c-1.139-1.776-1.808-3.897-1.808-6.165v-38.828c0-9.78,2.278-19.038,6.353-27.251h160.225  C340.191,86.213,342.468,95.471,342.468,105.252z"/>
<path style="fill:#494B5B;" d="M209.328,78.001c-4.075,8.213-6.353,17.471-6.353,27.251v17.105  c-0.867,0.334-1.693,0.752-2.476,1.233c-0.46,0.282-0.909,0.585-1.337,0.909c-0.428,0.313-0.846,0.669-1.243,1.024  c-0.199,0.188-0.397,0.376-0.585,0.564c-3.051,3.051-4.932,7.262-4.932,11.912v6.092c0,2.173-0.606,4.201-1.672,5.935  c-0.47,0.773-1.034,1.494-1.682,2.142c-2.069,2.069-4.921,3.344-8.077,3.344c-0.7,0-1.39-0.063-2.058-0.188  c-3.176-0.575-5.893-2.456-7.565-5.078c-1.139-1.776-1.808-3.897-1.808-6.165v-38.828c0-9.78,2.278-19.038,6.353-27.251  L209.328,78.001L209.328,78.001z"/>
<path style="fill:#E5BFA3;" d="M239.269,165.545c-0.429,3.553-3.565,6.161-7.144,6.161h-18.597c-1.942,0-3.701-0.786-4.975-2.059  c-1.459-1.463-2.283-3.564-2.006-5.849c0.429-3.553,3.565-6.161,7.144-6.161h18.597c1.942,0,3.701,0.786,4.975,2.059  C238.721,161.159,239.545,163.26,239.269,165.545z"/>
<path style="fill:#FFFFFF;" d="M239.269,170.477c-0.429,3.553-3.565,6.161-7.144,6.161h-18.597c-1.942,0-3.701-0.786-4.975-2.059  c-1.459-1.463-2.283-3.564-2.006-5.849c0.429-3.553,3.565-6.161,7.144-6.161h18.597c1.942,0,3.701,0.786,4.975,2.059  C238.721,166.092,239.545,168.193,239.269,170.477z"/>
<path style="fill:#E5BFA3;" d="M303.415,157.636h-18.758c-3.885,0-7.034,3.149-7.034,7.034l0,0c0,3.885,3.149,7.034,7.034,7.034  h18.758c3.885,0,7.034-3.149,7.034-7.034l0,0C310.45,160.786,307.3,157.636,303.415,157.636z"/>
<path style="fill:#FFFFFF;" d="M303.415,162.569h-18.758c-3.885,0-7.034,3.149-7.034,7.034l0,0c0,3.885,3.149,7.034,7.034,7.034  h18.758c3.885,0,7.034-3.149,7.034-7.034l0,0C310.45,165.719,307.3,162.569,303.415,162.569z"/>
<path style="fill:#E5BFA3;" d="M309.5,143.583h-30.928c-2.19,0-3.964,1.775-3.964,3.964l0,0c0,2.19,1.775,3.964,3.964,3.964H309.5  c2.19,0,3.964-1.775,3.964-3.964l0,0C313.465,145.358,311.69,143.583,309.5,143.583z"/>
<g>
	<path style="fill:#5C5E70;" d="M232.263,167.282c0,5.167-4.19,9.356-9.356,9.356c-5.167,0-9.356-4.19-9.356-9.356   c0-1.72,0.465-3.33,1.278-4.714h16.156C231.798,163.953,232.263,165.563,232.263,167.282z"/>
	<path style="fill:#5C5E70;" d="M303.392,167.282c0,5.167-4.19,9.356-9.356,9.356c-5.167,0-9.356-4.19-9.356-9.356   c0-1.72,0.465-3.33,1.278-4.714h16.156C302.927,163.953,303.392,165.563,303.392,167.282z"/>
</g>
<g>
	<path style="fill:#E5BFA3;" d="M207.575,143.583c-2.183,0-4.055,1.708-4.096,3.89c-0.041,2.224,1.75,4.04,3.964,4.04h21.729   c8.628,0,15.621,6.993,15.621,15.621v38.703h3.936c5.056,0,9.156-4.099,9.156-9.156v-41.168c0-6.588-5.34-11.93-11.93-11.93   H207.575z"/>
	<path style="fill:#E5BFA3;" d="M269.223,218.793c-8.587,2.83-17.861,2.83-26.447,0c-2.294-0.747-4.916,0.147-5.937,2.296l0,0   c-1.02,2.137,0.389,4.933,3.246,5.87c10.334,3.405,21.495,3.405,31.829,0c2.857-0.939,4.265-3.724,3.246-5.871l0,0   C274.139,218.943,271.518,218.048,269.223,218.793z"/>
	<path style="fill:#E5BFA3;" d="M260.655,234.511h-9.311c-2.374,0-4.299,1.925-4.299,4.299l0,0c0,2.374,1.925,4.299,4.299,4.299   h9.311c2.374,0,4.299-1.925,4.299-4.299l0,0C264.955,236.435,263.03,234.511,260.655,234.511z"/>
</g>
<polygon style="fill:#E8DBC4;" points="262.69,324.596 249.305,324.596 250.35,315.067 250.622,312.528 261.374,312.528   261.646,315.067 "/>
<path style="fill:#D6C8B0;" d="M259.84,315.266h-7.681c-4.57,0-8.275-3.705-8.275-8.275v-10.026c0-4.57,3.705-8.275,8.275-8.275  h7.681c4.57,0,8.275,3.705,8.275,8.275v10.026C268.116,311.561,264.41,315.266,259.84,315.266z"/>
<g>
	<path style="fill:#E28D40;" d="M217.909,267.679l34.169,14.644c3.522,1.51,4.966,5.733,3.105,9.083l-11.065,19.919   c-2.147,3.864-7.451,4.483-10.43,1.216l-28.16-30.885c-2.597-2.847-2.141-7.32,0.975-9.586l5.056-3.677   C213.403,267.052,215.815,266.78,217.909,267.679z"/>
	<path style="fill:#E28D40;" d="M294.09,267.679l-34.169,14.644c-3.522,1.51-4.966,5.733-3.105,9.083l11.065,19.919   c2.147,3.864,7.451,4.483,10.43,1.216l28.16-30.885c2.597-2.847,2.141-7.32-0.975-9.586l-5.056-3.677   C298.597,267.052,296.185,266.78,294.09,267.679z"/>
</g>
<g>
</g>
<g>
</g>
<g>
</g>
<g>
</g>
<g>
</g>
<g>
</g>
<g>
</g>
<g>
</g>
<g>
</g>
<g>
</g>
<g>
</g>
<g>
</g>
<g>
</g>
<g>
</g>
<g>
</g>
</svg>
