<?xml version="1.0" encoding="iso-8859-1"?>
<!-- Generator: Adobe Illustrator 19.0.0, SVG Export Plug-In . SVG Version: 6.00 Build 0)  -->
<svg xmlns="http://www.w3.org/2000/svg" xmlns:xlink="http://www.w3.org/1999/xlink" version="1.1" id="Capa_1" x="0px" y="0px" viewBox="0 0 512 512" style="enable-background:new 0 0 512 512;" xml:space="preserve">
<circle style="fill:#F9EED7;" cx="256" cy="255.999" r="255.999"/>
<rect x="340.417" y="45.16" style="fill:#E28D40;" width="96.486" height="128.763"/>
<rect x="371.524" y="126.641" style="fill:#F9D6B9;" width="40.134" height="25.802"/>
<path style="fill:#E5BFA3;" d="M382.103,126.637L382.103,126.637h-10.581l0,0h-0.001v10.911h0.001v10.796h10.581l0,0  c0-3.655,3.044-6.594,6.695-6.422c0.705,0.033,1.416,0.05,2.13,0.05c7.479,0,14.53-1.839,20.725-5.088v-10.247  C411.653,126.637,382.103,126.637,382.103,126.637z"/>
<path style="fill:#F9D6B9;" d="M431.471,47.795l-81.084-4.756V92.88c0,24.674,18.151,44.677,40.542,44.677l0,0  c22.391,0,40.542-20.002,40.542-44.677L431.471,47.795L431.471,47.795z"/>
<g>
	<path style="fill:#E5BFA3;" d="M361.177,92.879V43.67l-10.791-0.633v49.842c0,24.674,18.151,44.677,40.542,44.677l0,0   c1.83,0,3.63-0.136,5.396-0.395C376.485,134.252,361.177,115.536,361.177,92.879z"/>
	<path style="fill:#E5BFA3;" d="M367.479,60.371c0,0,25.232,8.034,49.199,5.073c23.967-2.961-4.233-18.929-4.233-18.929   l-40.77-2.718l-5.775,2.718"/>
	<path style="fill:#E5BFA3;" d="M421.936,69.473h-17.925c-1.27,0-2.298,1.029-2.298,2.298l0,0c0,1.27,1.029,2.298,2.298,2.298   h17.925c1.27,0,2.298-1.029,2.298-2.298l0,0C424.234,70.502,423.205,69.473,421.936,69.473z"/>
	<path style="fill:#E5BFA3;" d="M362.864,69.473c-1.265,0-2.351,0.99-2.374,2.255c-0.024,1.288,1.015,2.341,2.298,2.341h12.593   c5,0,9.054,4.053,9.054,9.054v17.901h2.281c2.931,0,5.307-2.376,5.307-5.307v-19.33c0-3.818-3.095-6.914-6.914-6.914   L362.864,69.473z"/>
</g>
<path style="fill:#FF6E7C;" d="M396.831,113.758c-3.854,1.121-7.95,1.121-11.803,0c-1.031-0.297-2.175,0.163-2.584,1.145l0,0  c-0.409,0.978,0.252,2.183,1.51,2.547c4.556,1.325,9.396,1.325,13.951,0c1.258-0.365,1.918-1.569,1.51-2.547l0,0  C399.007,113.921,397.862,113.461,396.831,113.758z"/>
<path style="fill:#E5BFA3;" d="M393.011,120.282h-4.165c-1.062,0-1.923,0.861-1.923,1.923l0,0c0,1.062,0.861,1.923,1.923,1.923  h4.165c1.062,0,1.923-0.861,1.923-1.923l0,0C394.934,121.143,394.073,120.282,393.011,120.282z"/>
<path style="fill:#F4A14E;" d="M445.361,54.419v107.059l-11.554-5.459c0,0,0-39.367,0-50.564s5.086-39.541-26.173-41.58  c-16.055-1.046-27.747-7.652-35.324-13.828c-0.002,0.009-0.007,0.037-0.016,0.082c0,0.002,0,0.002,0,0.002  c-0.256,1.377-3.984,19.065-26.042,20.898v87.831l-9.743,5.133V54.419c0-24.234,15.84-44.766,37.731-51.811h0.002  c5.257-1.694,10.864-2.607,16.685-2.607h0.014C420.998,0.001,445.361,24.364,445.361,54.419z"/>
<path style="fill:#FFD15C;" d="M455.818,173.564v58.793c-17.731,12.912-38.498,21.904-61.037,25.699  c-2.545,0.433-5.108,0.793-7.702,1.089c-2.652,0.302-5.328,0.533-8.022,0.686l-53.02-32.916v-53.352  c0-4.162,2.338-7.968,6.045-9.851l30.258-15.351l24.74,3.718l1.906,0.284l5.796,0.964l0.113,0.018v4.079l24.628-9.063l30.252,15.351  C453.484,165.596,455.818,169.403,455.818,173.564z"/>
<path style="fill:#EDBB4C;" d="M377.509,149.723l-7.245-1.359l-30.253,15.353c-3.708,1.882-6.046,5.687-6.046,9.848v53.353h-7.928  v-53.353c0-4.161,2.337-7.966,6.046-9.848l30.253-15.353l11.322-3.662L377.509,149.723z"/>
<g>
	<path style="fill:#FCF8F2;" d="M368.853,140.263l19.804,8.488c2.042,0.875,2.878,3.323,1.799,5.264l-6.414,11.544   c-1.244,2.239-4.319,2.599-6.045,0.705l-16.321-17.9c-1.505-1.65-1.241-4.242,0.565-5.556l2.931-2.132   C366.241,139.9,367.639,139.742,368.853,140.263z"/>
	<path style="fill:#FCF8F2;" d="M413.005,140.263l-19.804,8.488c-2.042,0.875-2.878,3.323-1.799,5.264l6.414,11.544   c1.244,2.239,4.319,2.599,6.045,0.705l16.321-17.9c1.505-1.65,1.241-4.242-0.565-5.556l-2.931-2.132   C415.617,139.9,414.219,139.742,413.005,140.263z"/>
</g>
<g>
	<circle style="fill:#5C5E70;" cx="390.927" cy="160.935" r="2.492"/>
	<circle style="fill:#5C5E70;" cx="390.927" cy="180.945" r="2.492"/>
	<circle style="fill:#5C5E70;" cx="390.927" cy="200.954" r="2.492"/>
	<circle style="fill:#5C5E70;" cx="390.927" cy="220.964" r="2.492"/>
</g>
<path style="fill:#FFFFFF;" d="M422.486,84.011c0,1.953-1.581,3.536-3.534,3.536h-11.958c-0.976,0-1.86-0.396-2.498-1.035  c-0.641-0.641-1.035-1.525-1.035-2.5c0-0.601,0.15-1.166,0.415-1.662c0.595-1.113,0.752-2.887,2.103-2.887l13.773-0.183  c0.976,0,1.738,2.069,1.945,1.189c0.246-1.044,0.21,1.572,0.375,1.881C422.336,82.844,422.486,83.41,422.486,84.011z"/>
<path style="fill:#34ABE0;" d="M418.396,83.208c0,1.773-0.852,3.35-2.17,4.337h-6.506c-1.319-0.987-2.17-2.564-2.17-4.337  c0-0.997,0.27-1.93,0.741-2.731l4.973-0.882l4.391,0.882C418.126,81.279,418.396,82.212,418.396,83.208z"/>
<path style="fill:#5C5E70;" d="M406.996,80.477h11.958c0.976,0,1.86,0.396,2.498,1.035c0.246,0.246,0.455,0.528,0.62,0.837  c0.264-0.54,0.416-1.144,0.416-1.786c0-2.252-1.825-4.077-4.077-4.077h-10.872c-2.252,0-4.077,1.825-4.077,4.077  c0,0.642,0.153,1.247,0.417,1.787C404.472,81.235,405.645,80.477,406.996,80.477z"/>
<path style="fill:#FFFFFF;" d="M381.355,84.011c0,1.953-1.581,3.536-3.534,3.536h-11.958c-0.976,0-1.86-0.396-2.498-1.035  c-0.641-0.641-1.035-1.525-1.035-2.5c0-0.601,0.15-1.166,0.415-1.662c0.595-1.113,0.752-2.887,2.103-2.887l13.773-0.183  c0.976,0,1.738,2.069,1.945,1.189c0.246-1.044,0.21,1.572,0.375,1.881C381.205,82.844,381.355,83.41,381.355,84.011z"/>
<path style="fill:#34ABE0;" d="M377.264,83.208c0,1.773-0.852,3.35-2.17,4.337h-6.506c-1.319-0.987-2.17-2.564-2.17-4.337  c0-0.997,0.27-1.93,0.741-2.731l4.973-0.882l4.391,0.882C376.995,81.278,377.264,82.212,377.264,83.208z"/>
<path style="fill:#5C5E70;" d="M365.865,80.477h11.958c0.976,0,1.86,0.396,2.498,1.035c0.246,0.246,0.455,0.528,0.62,0.837  c0.264-0.54,0.416-1.144,0.416-1.786c0-2.252-1.825-4.077-4.077-4.077h-10.872c-2.252,0-4.077,1.825-4.077,4.077  c0,0.642,0.153,1.247,0.417,1.787C363.341,81.235,364.513,80.477,365.865,80.477z"/>
<path style="fill:#C98847;" d="M480.228,235.112v144.509c-6.301,11.4-13.448,22.277-21.347,32.528  c-2.393,3.114-4.869,6.165-7.398,9.164c-0.094,0.104-0.167,0.199-0.251,0.293c-1.588,1.87-3.197,3.709-4.838,5.527  c-2.633,2.926-5.329,5.799-8.098,8.6c-9.028,9.153-18.745,17.638-29.059,25.349c-14.608,10.951-30.438,20.355-47.229,28.003  c-0.084,0.042-0.157,0.084-0.24,0.115c-3.009,1.369-6.05,2.675-9.122,3.929c-7.147,2.915-14.461,5.527-21.922,7.795  c-4.817,1.473-9.697,2.8-14.639,3.981c-4.775,1.149-9.592,2.163-14.472,3.051V235.112H480.228z"/>
<rect x="301.62" y="226.607" style="fill:#BA773A;" width="178.614" height="25.515"/>
<rect x="427.917" y="184.058" style="fill:#494B5B;" width="6.011" height="21.216"/>
<path style="fill:#5C5E70;" d="M433.219,189.717h-4.584c-4.788,0-8.669-3.882-8.669-8.669v-11.656c0-4.788,3.882-8.669,8.669-8.669  h4.584c4.788,0,8.669,3.882,8.669,8.669v11.656C441.888,185.835,438.006,189.717,433.219,189.717z"/>
<g>
	<path style="fill:#494B5B;" d="M426.771,183.848v-17.26c0-3.24,2.627-5.867,5.867-5.867h-6.806c-3.24,0-5.867,2.627-5.867,5.867   v17.26c0,3.24,2.627,5.867,5.867,5.867h6.806C429.398,189.717,426.771,187.09,426.771,183.848z"/>
	<rect x="347.919" y="184.058" style="fill:#494B5B;" width="6.011" height="21.216"/>
</g>
<path style="fill:#5C5E70;" d="M353.219,189.717h-4.584c-4.788,0-8.669-3.882-8.669-8.669v-11.656c0-4.788,3.882-8.669,8.669-8.669  h4.584c4.788,0,8.669,3.882,8.669,8.669v11.656C361.889,185.835,358.007,189.717,353.219,189.717z"/>
<g>
	<path style="fill:#494B5B;" d="M346.772,183.848v-17.26c0-3.24,2.627-5.867,5.867-5.867h-6.806c-3.24,0-5.867,2.627-5.867,5.867   v17.26c0,3.24,2.627,5.867,5.867,5.867h6.806C349.399,189.717,346.772,187.09,346.772,183.848z"/>
	<rect x="387.918" y="184.058" style="fill:#494B5B;" width="6.011" height="21.216"/>
</g>
<path style="fill:#5C5E70;" d="M393.219,189.717h-4.584c-4.788,0-8.669-3.882-8.669-8.669v-11.656c0-4.788,3.882-8.669,8.669-8.669  h4.584c4.788,0,8.669,3.882,8.669,8.669v11.656C401.888,185.835,398.007,189.717,393.219,189.717z"/>
<path style="fill:#494B5B;" d="M386.772,183.848v-17.26c0-3.24,2.627-5.867,5.867-5.867h-6.806c-3.24,0-5.867,2.627-5.867,5.867  v17.26c0,3.24,2.627,5.867,5.867,5.867h6.806C389.399,189.717,386.772,187.09,386.772,183.848z"/>
<path style="fill:#C98847;" d="M489.429,235.109H292.421c-2.822,0-5.284-1.913-5.982-4.648l-6.396-25.076  c-0.996-3.904,1.954-7.699,5.982-7.699h209.798c4.028,0,6.978,3.796,5.982,7.699l-6.396,25.076  C494.713,233.195,492.25,235.109,489.429,235.109z"/>
<path style="fill:#FF525D;" d="M330.722,451.459v49.465C307.086,508.123,281.998,512,256.001,512  c-22.674,0-44.669-2.947-65.599-8.485c-3.062-0.805-6.102-1.672-9.122-2.591v-49.465c0-4.796,2.685-9.174,6.959-11.337  l29.487-14.963l5.35-2.717l10.574-1.358l22.35-2.863l4.556,0.585l19.31,2.476l9.059,1.16l5.339,2.717l29.487,14.963  C328.026,442.285,330.722,446.663,330.722,451.459z"/>
<path style="fill:#EF4152;" d="M260.557,418.806l-26.906,3.448l-1.452,0.188l-12.915,6.552l-21.922,11.128  c-4.263,2.163-6.959,6.541-6.959,11.337v52.057c-3.062-0.805-6.102-1.672-9.122-2.591v-49.465c0-4.796,2.685-9.174,6.959-11.337  l29.487-14.963l5.35-2.717l10.574-1.358l22.35-2.863L260.557,418.806z"/>
<g>
	<rect x="233.65" y="397.426" style="fill:#E5BFA3;" width="46.216" height="29.711"/>
	<circle style="fill:#E5BFA3;" cx="206.117" cy="347.396" r="14.281"/>
	<circle style="fill:#E5BFA3;" cx="305.883" cy="347.396" r="14.281"/>
	<path style="fill:#E5BFA3;" d="M307.442,306.635l-102.89-5.477v57.392c0,28.412,23.033,51.444,51.444,51.444l0,0   c28.412,0,51.444-23.033,51.444-51.444v-51.915H307.442z"/>
</g>
<path style="fill:#5C5E70;" d="M270.423,263.625h-28.85c-23.436,0-41.997,19.801-40.484,43.188l4.019,62.143  c0.67,10.36,5.822,19.914,14.109,26.166l0,0c5.263,3.971,12.147,5.089,18.396,2.987l8.306-2.792c6.54-2.198,13.619-2.198,20.159,0  l8.306,2.792c6.25,2.101,13.133,0.983,18.396-2.987l0,0c8.288-6.253,13.439-15.806,14.109-26.166l4.019-62.143  C312.42,283.426,293.859,263.625,270.423,263.625z"/>
<path style="fill:#EF4152;" d="M289.855,430.9c-22.001,7.159-45.714,7.159-67.714,0c-3.532-1.149-5.338-5.068-3.972-8.521  c0.868-2.192,1.736-4.383,2.604-6.576c1.254-3.167,4.747-4.813,7.992-3.775c17.711,5.662,36.755,5.662,54.466,0  c3.244-1.038,6.737,0.608,7.992,3.775c0.868,2.192,1.736,4.383,2.604,6.576C295.193,425.833,293.387,429.751,289.855,430.9z"/>
<path style="fill:#FFD15C;" d="M159.359,451.459v41.67c-32.392-13.218-61.482-32.872-85.65-57.396  c-2.769-2.8-5.465-5.674-8.098-8.599c-1.118-1.243-2.226-2.497-3.323-3.762c-0.282-0.334-0.575-0.669-0.857-1.003  c-0.303-0.355-0.606-0.7-0.909-1.055l1.766-0.23l22.35-2.863l4.556,0.585l19.31,2.476l9.059,1.16l5.339,2.717l29.487,14.963  C156.663,442.285,159.359,446.663,159.359,451.459z"/>
<path style="fill:#EF4152;" d="M89.194,418.806l-26.906,3.448l-0.857,0.115c-0.303-0.355-0.606-0.7-0.909-1.055l1.766-0.23  l22.35-2.863L89.194,418.806z"/>
<g>
	<path style="fill:#E5BFA3;" d="M108.504,397.417v29.717H65.611c-1.118-1.243-2.226-2.497-3.323-3.762v-25.955H108.504z"/>
	<circle style="fill:#E5BFA3;" cx="34.754" cy="347.396" r="14.281"/>
	<circle style="fill:#E5BFA3;" cx="134.52" cy="347.396" r="14.281"/>
	<path style="fill:#E5BFA3;" d="M136.079,306.635l-102.89-5.477v57.392c0,28.412,23.033,51.444,51.444,51.444l0,0   c28.412,0,51.444-23.033,51.444-51.444v-51.915H136.079z"/>
</g>
<path style="fill:#C98847;" d="M99.06,263.625H70.21c-23.436,0-41.997,19.801-40.484,43.188l4.019,62.143  c0.67,10.36,5.822,19.914,14.109,26.166l0,0c5.263,3.971,12.147,5.089,18.396,2.987l8.306-2.792c6.54-2.198,13.619-2.198,20.159,0  l8.306,2.792c6.25,2.101,13.133,0.983,18.396-2.987l0,0c8.288-6.253,13.439-15.806,14.109-26.166l4.019-62.143  C141.057,283.426,122.496,263.625,99.06,263.625z"/>
<path style="fill:#E28D40;" d="M406.097,2.142c-0.522,0.146-1.045,0.303-1.557,0.47c-21.891,7.043-37.731,27.575-37.731,51.806V61.2  c-3.814,4.556-10.135,8.965-20.564,9.832v87.823l-9.738,5.141V54.418c0-24.231,15.841-44.763,37.731-51.806  c2.623-0.846,5.339-1.505,8.129-1.944S388.021,0,390.925,0h0.01C396.201,0,401.29,0.742,406.097,2.142z"/>
<path style="fill:#494B5B;" d="M248.724,394.521c-0.951,0.219-1.881,0.481-2.811,0.794l-8.307,2.79  c-2.079,0.7-4.232,1.045-6.374,1.045c-4.284,0-8.516-1.379-12.016-4.023c-8.296-6.259-13.448-15.809-14.117-26.175l-4.012-62.14  c-1.515-23.385,17.042-43.186,40.479-43.186h28.85c0.24,0,0.491,0,0.731,0.01c-23.092,0.397-41.263,20.031-39.758,43.175  l4.012,62.14C236.051,378.984,240.898,388.252,248.724,394.521z"/>
<path style="fill:#BA773A;" d="M77.361,394.521c-0.951,0.219-1.881,0.481-2.811,0.794l-8.307,2.79  c-2.079,0.7-4.232,1.045-6.374,1.045c-4.284,0-8.516-1.379-12.016-4.023c-8.296-6.259-13.448-15.809-14.117-26.175l-4.012-62.14  c-1.515-23.385,17.042-43.186,40.479-43.186h28.85c0.24,0,0.491,0,0.731,0.01c-23.092,0.397-41.263,20.031-39.758,43.175  l4.012,62.14C64.687,378.984,69.535,388.252,77.361,394.521z"/>
<path style="fill:#EDBB4C;" d="M122.902,425.159c-0.146,2.56-1.818,4.901-4.409,5.747c-14.514,4.723-29.769,6.332-44.784,4.827  c-2.769-2.8-5.465-5.674-8.098-8.599c-1.118-1.243-2.226-2.497-3.323-3.762c-0.282-0.334-0.575-0.669-0.857-1.003  c-0.303-0.355-0.606-0.7-0.909-1.055c-2.529-2.999-5.005-6.05-7.398-9.164c1.327-0.512,2.821-0.585,4.274-0.125  c1.62,0.522,3.25,0.993,4.89,1.411c15.161,3.918,31.107,3.783,46.216-0.408c1.128-0.313,2.247-0.648,3.365-1.003  c3.25-1.034,6.74,0.616,7.993,3.783c0.867,2.184,1.735,4.378,2.602,6.572C122.829,423.299,122.965,424.239,122.902,425.159z"/>
<path style="fill:#F4A14E;" d="M17.564,0.001h238.64c9.7,0,17.564,7.864,17.564,17.564v188.762c0,9.7-7.864,17.564-17.564,17.564  H17.564c-9.7,0-17.564-7.864-17.564-17.564V17.565C0.002,7.864,7.864,0.001,17.564,0.001z"/>
<path style="fill:#5C5E70;" d="M15.674,199.476V24.415c0-4.827,3.913-8.741,8.741-8.741h224.938c4.827,0,8.741,3.913,8.741,8.741  v175.06c0,4.827-3.913,8.741-8.741,8.741H24.416C19.588,208.216,15.674,204.303,15.674,199.476z"/>
<g>
	<path style="fill:#FCF8F2;" d="M79.589,135.501c-2.072-2.404-5.701-2.674-8.105-0.6l-9.428,8.127l-8.126-7.067   c-2.395-2.084-6.026-1.83-8.107,0.566c-2.082,2.395-1.83,6.025,0.566,8.107l6.872,5.976l-12.078,10.412   c-2.404,2.072-2.673,5.701-0.6,8.105c1.136,1.319,2.741,1.995,4.355,1.995c1.329,0,2.664-0.458,3.75-1.394l13.337-11.497   l8.397,7.302c1.089,0.947,2.431,1.411,3.768,1.411c1.606,0,3.203-0.67,4.339-1.976c2.082-2.395,1.83-6.025-0.566-8.107   l-7.143-6.211l8.169-7.043C81.394,141.534,81.662,137.904,79.589,135.501z"/>
	<path style="fill:#FCF8F2;" d="M137.949,69.462c-2.189,2.299-2.1,5.936,0.199,8.125c1.112,1.06,2.538,1.585,3.962,1.585   c1.518,0,3.033-0.598,4.163-1.784l20.898-21.943c1.17-1.229,1.738-2.912,1.55-4.6c-0.188-1.686-1.112-3.204-2.524-4.145   l-25.077-16.718c-2.64-1.762-6.21-1.047-7.969,1.593c-1.761,2.64-1.047,6.209,1.593,7.969l11.021,7.347   c-32.36,1.399-51.177,17.082-61.369,30.345c-11.518,14.987-14.661,29.938-14.788,30.567c-0.633,3.11,1.374,6.145,4.485,6.778   c0.387,0.079,0.773,0.117,1.154,0.117c2.675,0,5.071-1.878,5.625-4.601c0.026-0.129,2.723-12.954,12.64-25.857   c12.895-16.779,31.42-25.478,55.055-25.925L137.949,69.462z"/>
	<path style="fill:#FCF8F2;" d="M167.71,120.445c0-12.387-10.078-22.465-22.465-22.465c-12.387,0-22.465,10.078-22.465,22.465   c0,6.641,2.914,12.602,7.512,16.718c-4.598,4.116-7.512,10.077-7.512,16.718c0,3.174,2.573,5.747,5.747,5.747h33.437   c3.174,0,5.747-2.573,5.747-5.747c0-6.641-2.914-12.602-7.512-16.718C164.795,133.048,167.71,127.086,167.71,120.445z    M154.588,148.135h-18.686c1.934-3.133,5.399-5.224,9.342-5.224C149.188,142.91,152.654,145.002,154.588,148.135z M134.274,120.445   c0-6.05,4.921-10.971,10.971-10.971c6.05,0,10.971,4.921,10.971,10.971c0,6.05-4.921,10.971-10.971,10.971   C139.195,131.417,134.274,126.495,134.274,120.445z"/>
	<path style="fill:#FCF8F2;" d="M179.207,153.882c0,3.174,2.573,5.747,5.747,5.747h33.437c3.174,0,5.747-2.573,5.747-5.747   c0-6.641-2.914-12.602-7.512-16.718c4.598-4.116,7.512-10.077,7.512-16.718c0-12.387-10.078-22.465-22.465-22.465   s-22.465,10.078-22.465,22.465c0,6.641,2.914,12.602,7.512,16.718C182.122,141.279,179.207,147.24,179.207,153.882z    M190.701,120.445c0-6.05,4.921-10.971,10.971-10.971s10.971,4.921,10.971,10.971c0,6.05-4.921,10.971-10.971,10.971   S190.701,126.495,190.701,120.445z M211.015,148.135h-18.686c1.934-3.133,5.399-5.224,9.342-5.224S209.081,145.002,211.015,148.135   z"/>
	<path style="fill:#FCF8F2;" d="M226.59,184.493l-20.691-12.539c-1.832-1.111-4.126-1.11-5.957,0l-17.712,10.734l-17.71-10.733   c-1.831-1.11-4.126-1.11-5.958,0l-17.708,10.733l-17.708-10.733c-2.716-1.646-6.247-0.778-7.894,1.936   c-1.645,2.715-0.778,6.248,1.936,7.894l20.687,12.539c1.832,1.11,4.126,1.11,5.958,0l17.708-10.733l17.71,10.733   c1.831,1.11,4.126,1.11,5.957,0l17.713-10.733l17.712,10.733c0.931,0.564,1.959,0.833,2.973,0.833c1.944,0,3.84-0.986,4.92-2.769   C230.172,189.672,229.305,186.139,226.59,184.493z"/>
	<path style="fill:#FCF8F2;" d="M230.093,36.641c-4.243-4.243-9.884-6.58-15.886-6.58c-6.002,0-11.642,2.337-15.886,6.58   s-6.58,9.884-6.58,15.886s2.337,11.642,6.58,15.886l11.821,11.822c1.077,1.077,2.54,1.683,4.064,1.683   c1.523,0,2.986-0.606,4.064-1.683l11.821-11.822c4.243-4.243,6.58-9.884,6.58-15.886S234.336,40.885,230.093,36.641z    M221.966,60.284l-7.757,7.758l-7.757-7.758c-2.072-2.072-3.214-4.827-3.214-7.757c0-2.93,1.141-5.685,3.214-7.757   c2.072-2.072,4.827-3.214,7.757-3.214c2.93,0,5.685,1.141,7.757,3.214c2.072,2.072,3.214,4.827,3.214,7.757   C225.18,55.457,224.038,58.212,221.966,60.284z"/>
	<path style="fill:#FCF8F2;" d="M37.621,44.69h39.706c3.174,0,5.747-2.573,5.747-5.747c0-3.174-2.573-5.747-5.747-5.747H37.621   c-3.174,0-5.747,2.573-5.747,5.747C31.874,42.118,34.447,44.69,37.621,44.69z"/>
	<path style="fill:#FCF8F2;" d="M83.074,61.931c0-3.174-2.573-5.747-5.747-5.747H37.621c-3.174,0-5.747,2.573-5.747,5.747   c0,3.174,2.573,5.747,5.747,5.747h39.706C80.5,67.678,83.074,65.105,83.074,61.931z"/>
</g>
<g>
</g>
<g>
</g>
<g>
</g>
<g>
</g>
<g>
</g>
<g>
</g>
<g>
</g>
<g>
</g>
<g>
</g>
<g>
</g>
<g>
</g>
<g>
</g>
<g>
</g>
<g>
</g>
<g>
</g>
</svg>
