<?xml version="1.0" encoding="iso-8859-1"?>
<!-- Generator: Adobe Illustrator 19.0.0, SVG Export Plug-In . SVG Version: 6.00 Build 0)  -->
<svg xmlns="http://www.w3.org/2000/svg" xmlns:xlink="http://www.w3.org/1999/xlink" version="1.1" id="Capa_1" x="0px" y="0px" viewBox="0 0 511.999 511.999" style="enable-background:new 0 0 511.999 511.999;" xml:space="preserve">
<circle style="fill:#5C5E70;" cx="255.999" cy="255.999" r="255.999"/>
<path style="fill:#34ABE0;" d="M96.698,109.9c-17.934,19.552-31.589,41.506-41.006,64.721  c-24.455,60.183-20.48,128.836,11.027,185.89c11.025,19.971,25.43,38.519,43.168,54.789c24.306,22.294,52.346,37.975,81.888,47.149  c77.385,24.011,165.114,3.33,223.511-60.339c21.851-23.824,37.363-51.227,46.608-80.113c24.878-77.814,4.365-166.457-59.787-225.297  c-30.713-28.169-67.37-45.787-105.517-53.034C225.481,30.134,149.218,52.639,96.698,109.9z"/>
<g>
	<path style="fill:#FFD15C;" d="M66.719,360.511c11.025,19.971,25.43,38.519,43.168,54.789   c24.306,22.294,52.346,37.975,81.888,47.149c8.143-36.732,23.283-95.894,66.524-114.581   c55.645-24.046,91.801,94.376,156.986,54.243c21.851-23.824,37.363-51.227,46.608-80.113c-1.858-20.81-12.548-39.27-27.533-49.754   c0,0-54.907-54.313-104.202-26.418s-55.303,79.685-94.483,79.315s-46.678-54.668-98.03-26.685   C107.83,314.698,82.621,341.17,66.719,360.511z"/>
	<path style="fill:#FFD15C;" d="M296.587,43.666c0,0-0.533,3.803-1.62,9.791c-3.866,21.19-14.723,69.695-33.834,73.738   c-24.503,5.183-38.807-39.549-78.524-28.557c-3.145,0.867-5.977,2.006-8.558,3.365c-11.661,6.134-17.972,16.844-22.57,28.306   c-0.01,0.01-0.021,0.031-0.021,0.042c-6.28,15.694-9.383,32.789-18.683,41.514c-0.01,0.01-0.021,0.021-0.042,0.042   c-1.369,1.296-2.873,2.393-4.535,3.281c-13.584,7.231-47.093,3.647-72.505-0.564c9.415-23.218,23.071-45.171,41.002-64.721   C149.215,52.642,225.482,30.135,296.587,43.666z"/>
</g>
<path id="SVGCleanerId_0" style="fill:#279FC9;" d="M296.591,43.666c38.147,7.246,74.804,24.864,105.517,53.034  c-23.391-21.454-51.309-34.871-80.362-40.39c-54.157-10.306-112.239,6.833-152.238,50.443  c-13.658,14.891-24.058,31.611-31.23,49.292c-18.624,45.834-15.597,98.121,8.398,141.573c8.396,15.211,19.367,29.335,32.877,41.727  c18.511,16.978,39.867,28.922,62.366,35.909c58.936,18.287,125.751,2.536,170.226-45.953c16.641-18.144,28.456-39.014,35.496-61.014  c18.947-59.263,3.324-126.774-45.533-171.585c64.151,58.839,84.665,147.483,59.787,225.297  c-9.244,28.885-24.757,56.29-46.608,80.113c-58.397,63.669-146.126,84.349-223.511,60.339  c-29.542-9.174-57.582-24.855-81.888-47.149c-17.739-16.27-32.144-34.817-43.168-54.789  c-31.507-57.054-35.482-125.707-11.027-185.89c9.417-23.214,23.072-45.169,41.006-64.721  C149.218,52.639,225.481,30.134,296.591,43.666z"/>
<g>
	<path id="SVGCleanerId_0_1_" style="fill:#279FC9;" d="M296.591,43.666c38.147,7.246,74.804,24.864,105.517,53.034   c-23.391-21.454-51.309-34.871-80.362-40.39c-54.157-10.306-112.239,6.833-152.238,50.443   c-13.658,14.891-24.058,31.611-31.23,49.292c-18.624,45.834-15.597,98.121,8.398,141.573c8.396,15.211,19.367,29.335,32.877,41.727   c18.511,16.978,39.867,28.922,62.366,35.909c58.936,18.287,125.751,2.536,170.226-45.953   c16.641-18.144,28.456-39.014,35.496-61.014c18.947-59.263,3.324-126.774-45.533-171.585   c64.151,58.839,84.665,147.483,59.787,225.297c-9.244,28.885-24.757,56.29-46.608,80.113   c-58.397,63.669-146.126,84.349-223.511,60.339c-29.542-9.174-57.582-24.855-81.888-47.149   c-17.739-16.27-32.144-34.817-43.168-54.789c-31.507-57.054-35.482-125.707-11.027-185.89   c9.417-23.214,23.072-45.169,41.006-64.721C149.218,52.639,225.481,30.134,296.591,43.666z"/>
</g>
<g>
	<path style="fill:#EDBB4C;" d="M461.896,321.991c-1.459-16.336-8.366-31.224-18.524-41.944   c-7.186,17.662-17.581,34.374-31.226,49.249c-22.894,24.959-51.705,41.244-82.31,48.684c25.172,22.707,51.335,45.129,85.455,24.13   C437.135,378.283,452.654,350.88,461.896,321.991z"/>
	<path style="fill:#EDBB4C;" d="M146.675,297.619c-0.511-0.93-1.022-1.87-1.512-2.811c-2.394,1.003-4.904,2.219-7.519,3.64   c-29.817,16.244-55.019,42.715-70.929,62.061c11.028,19.97,25.436,38.519,43.176,54.79c24.306,22.294,52.344,37.974,81.888,47.147   c5.944-26.801,15.608-65.56,37.211-91.802c-17.735-7.193-34.511-17.608-49.441-31.301   C166.046,326.956,155.071,312.829,146.675,297.619z"/>
	<path style="fill:#EDBB4C;" d="M296.587,43.666c0,0-0.533,3.803-1.62,9.791c-43.854-1.097-87.897,15.255-120.915,48.546   c-11.661,6.134-17.972,16.844-22.57,28.306c-0.01,0.01-0.021,0.031-0.021,0.042c-5.204,8.255-9.603,16.854-13.176,25.694   c-2.111,5.193-3.95,10.48-5.507,15.82c-0.01,0.01-0.021,0.021-0.042,0.042c-1.369,1.296-2.873,2.393-4.535,3.281   c-13.584,7.231-47.093,3.647-72.505-0.564c9.415-23.218,23.071-45.171,41.002-64.721C149.215,52.642,225.482,30.135,296.587,43.666   z"/>
</g>
<g>
	<circle style="fill:#78CAEF;" cx="355.829" cy="168.792" r="37.614"/>
	<circle style="fill:#78CAEF;" cx="416.955" cy="212.824" r="19.199"/>
</g>
<path style="fill:#FF525D;" d="M441.678,189.114c0,16.224-5.497,31.155-14.727,43.052c-3.627,4.676-7.831,8.881-12.507,12.516  c-11.897,9.238-26.844,14.735-43.076,14.735c-16.231,0-31.17-5.497-43.067-14.735c-16.573-12.856-27.234-32.967-27.234-55.567  c0-38.831,31.471-70.31,70.303-70.31c0.724,0,1.44,0.008,2.156,0.041C411.362,119.975,441.678,151.006,441.678,189.114z"/>
<path style="fill:#5C5E70;" d="M407.865,166.36c0-20.15-16.334-36.484-36.484-36.484h-0.009c-3.903,0-7.661,0.612-11.186,1.748  h-0.001c-14.677,4.723-25.296,18.488-25.296,34.735v73.459l2.621-1.38v8.035h64.686v-11.018l5.668,2.678V166.36H407.865z"/>
<path style="fill:#F9EED7;" d="M414.875,239.118c0,1.894-0.146,3.749-0.43,5.562c-11.897,9.238-26.844,14.735-43.076,14.735  c-16.231,0-31.17-5.497-43.067-14.735c-0.284-1.814-0.432-3.668-0.432-5.562c0-1.399,0.391-2.732,1.098-3.871  c0.699-1.146,1.707-2.098,2.952-2.732l2.969-1.505l0.219-0.114c7.344-3.725,15.191-6.278,23.258-7.612  c4.286-0.699,8.636-1.057,13.004-1.057c4.676,0,9.319,0.406,13.898,1.212c1.593,0.277,3.18,0.61,4.749,0.984  c6.091,1.456,12.003,3.618,17.622,6.473l0.228,0.114l2.96,1.505C413.314,233.776,414.875,236.329,414.875,239.118z"/>
<path style="fill:#E5BFA3;" d="M385.266,210.821v13.658c0,7.429-6.023,13.452-13.452,13.452l0,0  c-7.429,0-13.452-6.023-13.452-13.452v-13.658H385.266z"/>
<path style="fill:#F9D6B9;" d="M382.571,172.699c-10.763-0.701-18.602-5.129-23.682-9.27c-0.001,0.006-0.004,0.024-0.01,0.054  c0,0.001,0,0.001,0,0.001c-0.16,0.862-2.354,11.259-14.687,13.631v15.028c0,16.542,12.169,29.952,27.18,29.952l0,0  c15.011,0,27.18-13.41,27.18-29.952v-9.612C396.445,177.463,391.955,173.312,382.571,172.699z"/>
<path style="fill:#E5BFA3;" d="M357.948,192.144v-25.741c-1.488,3.504-5.154,9.059-13.756,10.713v15.028  c0,16.542,12.169,29.952,27.18,29.952l0,0c2.376,0,4.681-0.339,6.878-0.97C366.569,217.769,357.948,206.066,357.948,192.144z"/>
<polygon style="fill:#F9EED7;" points="371.372,296.569 347.795,252.11 371.372,246.474 394.95,252.11 "/>
<path style="fill:#5BD3A2;" d="M171.166,67.297c0,20.328-9.015,38.559-23.268,50.899c-11.8,10.221-27.192,16.398-44.03,16.398  c-16.105,0-30.883-5.657-42.47-15.091c-15.152-12.34-24.827-31.143-24.827-52.205C36.573,30.131,66.703,0,103.87,0  S171.166,30.131,171.166,67.297z"/>
<path style="fill:#279FC9;" d="M148.332,112.572c0,1.912-0.146,3.791-0.433,5.624c-11.8,10.221-27.192,16.398-44.03,16.398  c-16.105,0-30.883-5.657-42.47-15.091c-0.44-2.245-0.667-4.558-0.667-6.93c0-1.406,0.393-2.745,1.105-3.897  c0.706-1.153,1.726-2.113,2.978-2.745l11.021-5.596c4.797-2.439,9.901-4.225,15.152-5.317c1.553-0.327,3.112-0.586,4.691-0.787  l5.158-0.667l3.698-0.473l2.672,0.347l0.993,0.126l0.027,0.006l5.158,0.659c1.579,0.2,3.138,0.46,4.691,0.787  c5.257,1.093,10.354,2.879,15.152,5.317l11.027,5.596C146.752,107.195,148.332,109.766,148.332,112.572z"/>
<g>
	<path style="fill:#E5BFA3;" d="M118.077,80.899v14.548c0,7.479-6.064,13.543-13.543,13.543l0,0   c-7.479,0-13.543-6.064-13.543-13.543V80.899H118.077z"/>
	<circle style="fill:#E5BFA3;" cx="75.295" cy="57.1" r="8.37"/>
	<circle style="fill:#E5BFA3;" cx="133.768" cy="57.1" r="8.37"/>
</g>
<path style="fill:#F9D6B9;" d="M134.689,33.206L74.38,29.995v33.64c0,16.654,13.501,30.155,30.155,30.155l0,0  c16.654,0,30.155-13.501,30.155-30.155V33.206z"/>
<path style="fill:#E5BFA3;" d="M92.082,63.636V30.938L74.38,29.996v33.64c0,16.654,13.501,30.155,30.155,30.155l0,0  c3.08,0,6.052-0.465,8.851-1.323C101.051,88.686,92.082,77.209,92.082,63.636z"/>
<path style="fill:#C98847;" d="M138.358,32.079V47.27c0,1.235-0.499,2.353-1.308,3.162c-0.832,0.833-1.991,1.337-3.264,1.308  c-2.445-0.055-4.37-2.116-4.37-4.561v-2.297c0-1.819-0.737-3.464-1.929-4.657c-1.192-1.192-2.838-1.929-4.657-1.929  c-2.838,0-5.599,0.953-7.811,2.732c-2.868,2.307-6.514,3.69-10.484,3.69c-3.969,0-7.615-1.382-10.483-3.69  c-0.379-0.306-0.775-0.585-1.185-0.841c-0.004-0.004-0.01-0.007-0.016-0.01c-0.779-0.486-1.608-0.881-2.47-1.182  c-1.324-0.46-2.723-0.699-4.143-0.699c-3.635,0-6.583,2.952-6.583,6.589v2.385c0,1.234-0.499,2.353-1.31,3.162  c-0.809,0.809-1.927,1.308-3.162,1.308c-2.469,0-4.47-2.001-4.47-4.472v-15.19c0-13.3,10.781-24.084,24.082-24.084h19.48  C127.574,7.996,138.358,18.779,138.358,32.079z"/>
<polygon style="fill:#279FC9;" points="103.87,167.349 80.292,122.891 103.87,122.535 127.447,122.891 "/>
<path style="fill:#F9EED7;" d="M225.76,301.278c0,20.328-9.015,38.559-23.268,50.899c-11.8,10.221-27.192,16.398-44.03,16.398  c-16.105,0-30.883-5.657-42.47-15.091c-15.152-12.34-24.827-31.143-24.827-52.205c0-37.166,30.131-67.297,67.297-67.297  S225.76,264.112,225.76,301.278z"/>
<path style="fill:#5C5E70;" d="M202.926,346.553c0,1.912-0.146,3.791-0.433,5.624c-11.8,10.221-27.192,16.398-44.03,16.398  c-16.105,0-30.883-5.657-42.47-15.091c-0.44-2.245-0.667-4.558-0.667-6.93c0-1.406,0.393-2.745,1.105-3.897  c0.706-1.153,1.726-2.113,2.978-2.745l11.021-5.596c4.797-2.439,9.901-4.225,15.152-5.317c1.553-0.327,3.112-0.586,4.691-0.787  l5.158-0.667l3.698-0.473l2.672,0.347l0.993,0.126l0.027,0.006l5.158,0.659c1.579,0.2,3.138,0.46,4.691,0.787  c5.257,1.093,10.354,2.879,15.152,5.317l11.027,5.596C201.347,341.176,202.926,343.749,202.926,346.553z"/>
<g>
	<path style="fill:#E5BFA3;" d="M172.671,314.881v14.548c0,7.479-6.064,13.543-13.543,13.543l0,0   c-7.479,0-13.543-6.064-13.543-13.543v-14.548H172.671z"/>
	<circle style="fill:#E5BFA3;" cx="129.891" cy="291.077" r="8.37"/>
	<circle style="fill:#E5BFA3;" cx="188.363" cy="291.077" r="8.37"/>
</g>
<path style="fill:#F9D6B9;" d="M189.283,267.188l-60.309-3.211v33.64c0,16.654,13.501,30.155,30.155,30.155l0,0  c16.654,0,30.155-13.501,30.155-30.155L189.283,267.188L189.283,267.188z"/>
<path style="fill:#E5BFA3;" d="M146.676,297.618V264.92l-17.703-0.943v33.64c0,16.654,13.501,30.155,30.155,30.155l0,0  c3.08,0,6.052-0.465,8.851-1.323C155.645,322.668,146.676,311.192,146.676,297.618z"/>
<path style="fill:#C98847;" d="M192.951,266.061v15.191c0,1.235-0.499,2.353-1.308,3.162c-0.832,0.833-1.991,1.337-3.264,1.308  c-2.445-0.055-4.37-2.116-4.37-4.561v-2.297c0-1.819-0.737-3.464-1.929-4.657c-1.192-1.192-2.838-1.929-4.657-1.929  c-2.838,0-5.599,0.953-7.811,2.732c-2.868,2.307-6.514,3.69-10.484,3.69c-3.969,0-7.615-1.382-10.483-3.69  c-0.379-0.306-0.775-0.585-1.185-0.841c-0.004-0.004-0.01-0.007-0.016-0.01c-0.779-0.486-1.608-0.881-2.47-1.182  c-1.324-0.46-2.723-0.699-4.143-0.699c-3.635,0-6.583,2.952-6.583,6.589v2.385c0,1.234-0.499,2.353-1.31,3.162  c-0.809,0.809-1.927,1.308-3.162,1.308c-2.469,0-4.47-2.001-4.47-4.472V266.06c0-13.3,10.781-24.084,24.082-24.084h19.48  C182.168,241.977,192.951,252.76,192.951,266.061z"/>
<polygon style="fill:#5C5E70;" points="158.464,402.799 134.886,358.341 158.464,352.412 182.041,358.341 "/>
<g>
</g>
<g>
</g>
<g>
</g>
<g>
</g>
<g>
</g>
<g>
</g>
<g>
</g>
<g>
</g>
<g>
</g>
<g>
</g>
<g>
</g>
<g>
</g>
<g>
</g>
<g>
</g>
<g>
</g>
</svg>
