<?xml version="1.0" encoding="iso-8859-1"?>
<!-- Generator: Adobe Illustrator 19.0.0, SVG Export Plug-In . SVG Version: 6.00 Build 0)  -->
<svg xmlns="http://www.w3.org/2000/svg" xmlns:xlink="http://www.w3.org/1999/xlink" version="1.1" id="Capa_1" x="0px" y="0px" viewBox="0 0 512 512" style="enable-background:new 0 0 512 512;" xml:space="preserve">
<circle style="fill:#FF525D;" cx="256" cy="256" r="256"/>
<path style="fill:#F9EED7;" d="M471.249,127.76v266.867C425.681,465.251,346.3,512,256,512S86.319,465.251,40.751,394.627V22.8  c0-12.591,10.209-22.8,22.8-22.8h279.939L471.249,127.76z"/>
<g>
	<rect x="247.118" y="109.641" style="fill:#D6C8B0;" width="17.763" height="107.624"/>
	<path style="fill:#D6C8B0;" d="M278.205,284.32h-15.413v-59.219h-13.584v59.219H234.8c-12.198,0-22.123,9.924-22.123,22.123v84.632   h13.584v-84.632c0-4.708,3.831-8.539,8.539-8.539h43.405c4.708,0,8.539,3.831,8.539,8.539v84.632h13.584v-84.632   C300.328,294.243,290.403,284.32,278.205,284.32z"/>
	<path style="fill:#D6C8B0;" d="M411.884,284.32h-15.413v-59.219h2.09V109.303c0-13.351-10.863-24.212-24.213-24.212H256H137.653   c-13.351,0-24.212,10.862-24.212,24.212V225.1h2.09v59.219h-14.408c-12.198,0-22.123,9.924-22.123,22.123v84.632h13.584v-84.632   c0-4.708,3.831-8.539,8.539-8.539h43.405c4.708,0,8.539,3.831,8.539,8.539v84.632h13.584v-84.632   c0-12.198-9.924-22.123-22.123-22.123h-15.413V225.1h2.09V109.303c0-3.556,2.893-6.449,6.449-6.449H256h118.347   c3.556,0,6.45,2.893,6.45,6.449V225.1h2.09v59.219h-14.408c-12.198,0-22.123,9.924-22.123,22.123v84.632h13.584v-84.632   c0-4.708,3.831-8.539,8.539-8.539h43.405c4.708,0,8.539,3.831,8.539,8.539v84.632h13.584v-84.632   C434.007,294.243,424.082,284.32,411.884,284.32z"/>
</g>
<circle style="fill:#FF525D;" cx="256" cy="93.968" r="34.48"/>
<g>
	<circle style="fill:#FFD15C;" cx="85.797" cy="391.074" r="20.374"/>
	<circle style="fill:#FFD15C;" cx="159.859" cy="391.074" r="20.374"/>
	<circle style="fill:#FFD15C;" cx="219.47" cy="391.074" r="20.374"/>
	<circle style="fill:#FFD15C;" cx="293.533" cy="391.074" r="20.374"/>
	<circle style="fill:#FFD15C;" cx="353.144" cy="391.074" r="20.374"/>
	<circle style="fill:#FFD15C;" cx="427.217" cy="391.074" r="20.374"/>
</g>
<g>
	<circle style="fill:#34ABE0;" cx="256" cy="204.204" r="26.644"/>
	<circle style="fill:#34ABE0;" cx="122.326" cy="204.204" r="26.644"/>
	<circle style="fill:#34ABE0;" cx="389.674" cy="204.204" r="26.644"/>
</g>
<path style="fill:#FCF8F2;" d="M343.489,104.958V0l127.76,127.76H366.291C353.698,127.76,343.489,117.551,343.489,104.958z"/>
<g>
</g>
<g>
</g>
<g>
</g>
<g>
</g>
<g>
</g>
<g>
</g>
<g>
</g>
<g>
</g>
<g>
</g>
<g>
</g>
<g>
</g>
<g>
</g>
<g>
</g>
<g>
</g>
<g>
</g>
</svg>
