<?xml version="1.0" encoding="iso-8859-1"?>
<!-- Generator: Adobe Illustrator 19.0.0, SVG Export Plug-In . SVG Version: 6.00 Build 0)  -->
<svg xmlns="http://www.w3.org/2000/svg" xmlns:xlink="http://www.w3.org/1999/xlink" version="1.1" id="Capa_1" x="0px" y="0px" viewBox="0 0 512 512" style="enable-background:new 0 0 512 512;" xml:space="preserve">
<circle style="fill:#FFD15C;" cx="256" cy="255.999" r="255.999"/>
<rect x="181.374" y="66.719" style="fill:#E28D40;" width="142.566" height="190.255"/>
<rect x="227.328" y="187.109" style="fill:#F9D6B9;" width="59.295" height="38.124"/>
<path style="fill:#E5BFA3;" d="M242.964,187.113L242.964,187.113h-15.633l0,0h-0.001v16.122h0.001v15.951h15.633l0,0  c0-5.4,4.497-9.743,9.892-9.489c1.043,0.049,2.092,0.074,3.146,0.074c11.051,0,21.469-2.718,30.623-7.517v-15.141h-43.661V187.113z"/>
<path style="fill:#F9D6B9;" d="M315.907,70.618L196.1,63.59v73.643c0,36.457,26.819,66.011,59.903,66.011l0,0  c33.083,0,59.903-29.555,59.903-66.011V70.618H315.907z"/>
<g>
	<path style="fill:#E5BFA3;" d="M212.044,137.232V64.525L196.1,63.59v73.643c0,36.457,26.819,66.011,59.903,66.011l0,0   c2.703,0,5.363-0.201,7.971-0.583C234.661,198.365,212.044,170.711,212.044,137.232z"/>
	<path style="fill:#E5BFA3;" d="M221.354,89.201c0,0,37.283,11.872,72.694,7.496c35.412-4.376-6.254-27.97-6.254-27.97   l-60.239-4.016l-8.534,4.016"/>
	<path style="fill:#E5BFA3;" d="M301.819,102.65h-26.485c-1.876,0-3.395,1.52-3.395,3.395l0,0c0,1.876,1.52,3.395,3.395,3.395   h26.485c1.876,0,3.395-1.52,3.395-3.395l0,0C305.214,104.17,303.694,102.65,301.819,102.65z"/>
	<path style="fill:#E5BFA3;" d="M214.535,102.65c-1.869,0-3.473,1.463-3.508,3.332c-0.034,1.904,1.498,3.459,3.395,3.459h18.607   c7.388,0,13.378,5.989,13.378,13.378v26.449h3.371c4.33,0,7.841-3.511,7.841-7.841v-28.561c0-5.642-4.573-10.216-10.216-10.216   C247.404,102.65,214.535,102.65,214.535,102.65z"/>
</g>
<path style="fill:#FF6E7C;" d="M264.724,168.083c-5.695,1.656-11.746,1.656-17.44,0c-1.525-0.439-3.215,0.24-3.818,1.692l0,0  c-0.603,1.446,0.373,3.225,2.232,3.764c6.731,1.958,13.884,1.958,20.614,0c1.859-0.539,2.835-2.319,2.232-3.764l0,0  C267.939,168.324,266.247,167.644,264.724,168.083z"/>
<path style="fill:#E5BFA3;" d="M259.08,177.722h-6.153c-1.569,0-2.841,1.272-2.841,2.841l0,0c0,1.569,1.272,2.841,2.841,2.841h6.153  c1.569,0,2.841-1.272,2.841-2.841l0,0C261.921,178.994,260.649,177.722,259.08,177.722z"/>
<path style="fill:#F4A14E;" d="M336.431,80.407v158.186l-17.072-8.066c0,0,0-58.167,0-74.71s7.514-58.424-38.672-61.437  c-23.722-1.546-40.998-11.306-52.193-20.432c-0.003,0.014-0.01,0.053-0.023,0.12c0,0.003,0,0.003,0,0.003  c-0.378,2.034-5.887,28.169-38.478,30.878v129.775l-14.394,7.584V80.407c0-35.808,23.404-66.146,55.75-76.554h0.003  C239.121,1.349,247.404,0,256.005,0h0.02C300.432,0.001,336.431,35.999,336.431,80.407z"/>
<path style="fill:#E28D40;" d="M275.876,2.466c-1.62,0.418-3.229,0.878-4.817,1.39h-0.01c-32.34,10.407-55.745,40.74-55.745,76.549  v15.047c-5.716,4.692-13.834,8.547-25.318,9.498v129.776l-14.388,7.586V80.405c0-35.809,23.406-66.142,55.745-76.549h0.01  C239.117,1.348,247.403,0,256.002,0h0.021C262.877,0,269.523,0.857,275.876,2.466z"/>
<path style="fill:#F9EED7;" d="M351.88,256.451v86.87c-26.199,19.078-56.884,32.365-90.185,37.973  c-3.762,0.638-7.548,1.172-11.38,1.609c-3.918,0.446-7.872,0.788-11.852,1.015l-78.341-48.635v-78.831  c0-6.149,3.455-11.774,8.931-14.555l44.707-22.682l36.555,5.493l2.817,0.42l8.564,1.425l0.166,0.026v6.027l36.388-13.392  l44.699,22.682C348.432,244.677,351.88,250.302,351.88,256.451z"/>
<path style="fill:#E8DBC4;" d="M236.174,221.222l-10.705-2.008l-44.7,22.685c-5.478,2.782-8.933,8.404-8.933,14.552v78.833h-11.713  v-78.833c0-6.148,3.453-11.771,8.933-14.552l44.7-22.685l16.729-5.412L236.174,221.222z"/>
<path style="fill:#FCF8F2;" d="M261.695,224.235v157.057c-3.762,0.638-7.548,1.172-11.38,1.609V224.235H261.695z"/>
<path style="fill:#F9EED7;" d="M264.287,224.458h-13.75v1.118l-0.224-0.096v17.761l4.99-8.983c0.475-0.854,0.699-1.777,0.699-2.684  c0,0.907,0.225,1.828,0.699,2.684l4.99,8.983v-11.667h2.593v-7.116H264.287z"/>
<g>
	<path style="fill:#FCF8F2;" d="M223.386,207.246l29.261,12.541c3.016,1.293,4.253,4.91,2.659,7.778l-9.476,17.057   c-1.838,3.309-6.381,3.839-8.932,1.042l-24.115-26.448c-2.224-2.439-1.834-6.267,0.835-8.209l4.33-3.149   C219.526,206.709,221.592,206.477,223.386,207.246z"/>
	<path style="fill:#FCF8F2;" d="M288.622,207.246l-29.261,12.541c-3.016,1.293-4.253,4.91-2.659,7.778l9.476,17.057   c1.838,3.309,6.381,3.839,8.932,1.042l24.115-26.448c2.224-2.439,1.834-6.267-0.835-8.209l-4.33-3.149   C292.481,206.709,290.416,206.477,288.622,207.246z"/>
</g>
<g>
	<circle style="fill:#5C5E70;" cx="256" cy="237.787" r="3.681"/>
	<circle style="fill:#5C5E70;" cx="256" cy="267.357" r="3.681"/>
	<circle style="fill:#5C5E70;" cx="256" cy="296.918" r="3.681"/>
	<circle style="fill:#5C5E70;" cx="256" cy="326.478" r="3.681"/>
</g>
<path style="fill:#FFFFFF;" d="M302.632,124.129c0,2.885-2.336,5.224-5.221,5.224h-17.668c-1.442,0-2.748-0.586-3.692-1.53  c-0.947-0.947-1.53-2.253-1.53-3.695c0-0.887,0.222-1.724,0.612-2.456c0.879-1.645,1.111-4.266,3.108-4.266l20.35-0.27  c1.442,0,2.567,3.056,2.872,1.758c0.363-1.543,0.309,2.322,0.554,2.778C302.409,122.405,302.632,123.241,302.632,124.129z"/>
<path style="fill:#34ABE0;" d="M296.587,122.945c0,2.621-1.258,4.95-3.206,6.409h-9.612c-1.948-1.459-3.206-3.789-3.206-6.409  c0-1.472,0.398-2.852,1.094-4.036l7.348-1.304l6.488,1.304C296.189,120.093,296.587,121.472,296.587,122.945z"/>
<path style="fill:#5C5E70;" d="M279.742,118.908h17.668c1.442,0,2.748,0.586,3.692,1.53c0.363,0.363,0.671,0.779,0.915,1.236  c0.39-0.798,0.615-1.692,0.615-2.639c0-3.327-2.697-6.024-6.024-6.024h-16.064c-3.327,0-6.024,2.697-6.024,6.024  c0,0.948,0.225,1.841,0.615,2.639C276.014,120.029,277.746,118.908,279.742,118.908z"/>
<path style="fill:#FFFFFF;" d="M241.858,124.129c0,2.885-2.336,5.224-5.221,5.224h-17.668c-1.442,0-2.748-0.586-3.692-1.53  c-0.947-0.947-1.53-2.253-1.53-3.695c0-0.887,0.222-1.724,0.612-2.456c0.879-1.645,1.111-4.266,3.108-4.266l20.35-0.27  c1.443,0,2.567,3.056,2.872,1.758c0.363-1.543,0.309,2.322,0.554,2.778C241.636,122.405,241.858,123.241,241.858,124.129z"/>
<path style="fill:#34ABE0;" d="M235.814,122.945c0,2.621-1.258,4.95-3.206,6.409h-9.612c-1.948-1.459-3.206-3.789-3.206-6.409  c0-1.472,0.398-2.852,1.094-4.036l7.348-1.304l6.488,1.304C235.416,120.093,235.814,121.472,235.814,122.945z"/>
<path style="fill:#5C5E70;" d="M218.97,118.908h17.668c1.443,0,2.748,0.586,3.692,1.53c0.363,0.363,0.671,0.779,0.915,1.236  c0.39-0.798,0.615-1.692,0.615-2.639c0-3.327-2.697-6.024-6.024-6.024h-16.063c-3.327,0-6.024,2.697-6.024,6.024  c0,0.948,0.225,1.841,0.615,2.639C215.242,120.029,216.973,118.908,218.97,118.908z"/>
<path style="fill:#C98847;" d="M387.949,347.387v128.021C349.424,498.646,304.274,512,256,512s-93.424-13.364-131.96-36.592V347.387  H387.949z"/>
<rect x="124.04" y="334.816" style="fill:#BA773A;" width="263.909" height="37.7"/>
<rect x="310.658" y="271.955" style="fill:#494B5B;" width="8.882" height="31.347"/>
<path style="fill:#5C5E70;" d="M322.629,280.315h-15.053c-4.788,0-8.669-3.882-8.669-8.669v-25.502c0-4.788,3.882-8.669,8.669-8.669  h15.053c4.788,0,8.669,3.882,8.669,8.669v25.502C331.298,276.433,327.417,280.315,322.629,280.315z"/>
<g>
	<path style="fill:#494B5B;" d="M308.964,271.646v-25.502c0-4.788,3.882-8.669,8.669-8.669h-10.057   c-4.788,0-8.669,3.882-8.669,8.669v25.502c0,4.788,3.882,8.669,8.669,8.669h10.057   C312.845,280.315,308.964,276.433,308.964,271.646z"/>
	<rect x="192.46" y="271.955" style="fill:#494B5B;" width="8.882" height="31.347"/>
</g>
<path style="fill:#5C5E70;" d="M204.425,280.315h-15.053c-4.788,0-8.669-3.882-8.669-8.669v-25.502c0-4.788,3.882-8.669,8.669-8.669  h15.053c4.788,0,8.669,3.882,8.669,8.669v25.502C213.094,276.433,209.213,280.315,204.425,280.315z"/>
<g>
	<path style="fill:#494B5B;" d="M190.76,271.646v-25.502c0-4.788,3.882-8.669,8.669-8.669h-10.057c-4.788,0-8.669,3.882-8.669,8.669   v25.502c0,4.788,3.882,8.669,8.669,8.669h10.057C194.642,280.315,190.76,276.433,190.76,271.646z"/>
	<rect x="251.559" y="271.955" style="fill:#494B5B;" width="8.882" height="31.347"/>
</g>
<path style="fill:#5C5E70;" d="M263.527,280.315h-15.053c-4.788,0-8.669-3.882-8.669-8.669v-25.502c0-4.788,3.882-8.669,8.669-8.669  h15.053c4.788,0,8.669,3.882,8.669,8.669v25.502C272.196,276.433,268.315,280.315,263.527,280.315z"/>
<path style="fill:#494B5B;" d="M249.861,271.646v-25.502c0-4.788,3.882-8.669,8.669-8.669h-10.057c-4.788,0-8.669,3.882-8.669,8.669  v25.502c0,4.788,3.882,8.669,8.669,8.669h10.057C253.743,280.315,249.861,276.433,249.861,271.646z"/>
<path style="fill:#C98847;" d="M401.541,347.385H110.452c-4.169,0-7.809-2.827-8.839-6.867l-9.449-37.052  c-1.471-5.768,2.887-11.376,8.839-11.376h309.988c5.952,0,10.309,5.608,8.839,11.376l-9.449,37.052  C409.35,344.557,405.712,347.385,401.541,347.385z"/>
<path style="fill:#BA773A;" d="M202.963,490.339c-13.969,0-25.335-11.365-25.335-25.335v-36.057  c0-13.969,11.365-25.335,25.335-25.335h106.065c13.969,0,25.335,11.365,25.335,25.335v36.057c0,13.969-11.365,25.335-25.335,25.335  H202.963z"/>
<path style="fill:#F9EED7;" d="M309.027,479.89H202.963c-8.221,0-14.886-6.664-14.886-14.886v-36.057  c0-8.221,6.664-14.886,14.886-14.886h106.065c8.221,0,14.886,6.664,14.886,14.886v36.057  C323.913,473.226,317.249,479.89,309.027,479.89z"/>
<path style="fill:#FCF8F2;" d="M307.282,467.352h-8.522c-2.84,0-5.143-2.303-5.143-5.143v-28.375c0-2.84,2.303-5.143,5.143-5.143  h8.522c2.84,0,5.143,2.303,5.143,5.143v28.375C312.424,465.049,310.122,467.352,307.282,467.352z"/>
<g>
</g>
<g>
</g>
<g>
</g>
<g>
</g>
<g>
</g>
<g>
</g>
<g>
</g>
<g>
</g>
<g>
</g>
<g>
</g>
<g>
</g>
<g>
</g>
<g>
</g>
<g>
</g>
<g>
</g>
</svg>
