<?xml version="1.0" encoding="iso-8859-1"?>
<!-- Generator: Adobe Illustrator 19.0.0, SVG Export Plug-In . SVG Version: 6.00 Build 0)  -->
<svg xmlns="http://www.w3.org/2000/svg" xmlns:xlink="http://www.w3.org/1999/xlink" version="1.1" id="Capa_1" x="0px" y="0px" viewBox="0 0 512 512" style="enable-background:new 0 0 512 512;" xml:space="preserve">
<circle style="fill:#C98847;" cx="256" cy="256" r="256"/>
<path style="fill:#E8DBC4;" d="M488.347,108.595v255.039c-14.054,30.292-33.855,57.365-58.013,79.83  c-5.036,1.087-10.271,1.661-15.632,1.661H97.304c20.334,0,51.482-8.244,77.552-21.567c26.07-13.322,47.052-31.734,47.052-52.078  V108.595L488.347,108.595L488.347,108.595z"/>
<g>
	<path style="fill:#494B5B;" d="M435.301,177.893h-89.299c-8.507,0-15.403-6.896-15.403-15.403l0,0   c0-8.507,6.896-15.403,15.403-15.403h89.299c8.507,0,15.403,6.896,15.403,15.403l0,0   C450.704,170.997,443.808,177.893,435.301,177.893z"/>
	<path style="fill:#494B5B;" d="M435.301,233.292h-89.299c-8.507,0-15.403-6.896-15.403-15.403l0,0   c0-8.507,6.896-15.403,15.403-15.403h89.299c8.507,0,15.403,6.896,15.403,15.403l0,0   C450.704,226.396,443.808,233.292,435.301,233.292z"/>
	<path style="fill:#494B5B;" d="M435.301,288.692h-89.299c-8.507,0-15.403-6.896-15.403-15.403l0,0   c0-8.507,6.896-15.403,15.403-15.403h89.299c8.507,0,15.403,6.896,15.403,15.403l0,0   C450.704,281.795,443.808,288.692,435.301,288.692z"/>
	<path style="fill:#494B5B;" d="M435.301,344.091h-89.299c-8.507,0-15.403-6.896-15.403-15.403l0,0   c0-8.507,6.896-15.403,15.403-15.403h89.299c8.507,0,15.403,6.896,15.403,15.403l0,0   C450.704,337.195,443.808,344.091,435.301,344.091z"/>
	<path style="fill:#494B5B;" d="M435.301,399.491h-89.299c-8.507,0-15.403-6.896-15.403-15.403l0,0   c0-8.507,6.896-15.403,15.403-15.403h89.299c8.507,0,15.403,6.896,15.403,15.403l0,0   C450.704,392.594,443.808,399.491,435.301,399.491z"/>
</g>
<path style="fill:#F9EED7;" d="M414.702,445.125H97.304c-5.36,0-10.595-0.575-15.632-1.661  c-24.158-22.476-43.969-49.56-58.023-79.851V0h317.398v371.481c0,20.344,8.244,38.755,21.577,52.078  C375.947,436.881,394.368,445.125,414.702,445.125z"/>
<g>
	<path style="fill:#5C5E70;" d="M305.384,78.299H59.314c-8.507,0-15.403-6.896-15.403-15.403v-17.78   c0-8.507,6.896-15.403,15.403-15.403h246.07c8.507,0,15.403,6.896,15.403,15.403v17.779   C320.787,71.403,313.89,78.299,305.384,78.299z"/>
	<path style="fill:#5C5E70;" d="M154.79,145.153H65.491c-8.507,0-15.403-6.896-15.403-15.403l0,0   c0-8.507,6.896-15.403,15.403-15.403h89.299c8.507,0,15.403,6.896,15.403,15.403l0,0   C170.194,138.257,163.298,145.153,154.79,145.153z"/>
	<path style="fill:#5C5E70;" d="M154.79,200.552H65.491c-8.507,0-15.403-6.896-15.403-15.403l0,0   c0-8.507,6.896-15.403,15.403-15.403h89.299c8.507,0,15.403,6.896,15.403,15.403l0,0   C170.194,193.656,163.298,200.552,154.79,200.552z"/>
	<path style="fill:#5C5E70;" d="M154.79,255.952H65.491c-8.507,0-15.403-6.896-15.403-15.403l0,0   c0-8.507,6.896-15.403,15.403-15.403h89.299c8.507,0,15.403,6.896,15.403,15.403l0,0   C170.194,249.056,163.298,255.952,154.79,255.952z"/>
	<path style="fill:#5C5E70;" d="M230.801,311.351H65.491c-8.507,0-15.403-6.896-15.403-15.403l0,0   c0-8.507,6.896-15.403,15.403-15.403h165.31c8.507,0,15.403,6.896,15.403,15.403l0,0   C246.204,304.455,239.308,311.351,230.801,311.351z"/>
	<path style="fill:#5C5E70;" d="M299.205,311.351h-89.299c-8.507,0-15.403-6.896-15.403-15.403l0,0   c0-8.507,6.896-15.403,15.403-15.403h89.299c8.507,0,15.403,6.896,15.403,15.403l0,0   C314.609,304.455,307.713,311.351,299.205,311.351z"/>
	<path style="fill:#5C5E70;" d="M154.79,366.751H65.491c-8.507,0-15.403-6.896-15.403-15.403l0,0   c0-8.507,6.896-15.403,15.403-15.403h89.299c8.507,0,15.403,6.896,15.403,15.403l0,0   C170.194,359.854,163.298,366.751,154.79,366.751z"/>
	<path style="fill:#5C5E70;" d="M299.205,366.751h-89.299c-8.507,0-15.403-6.896-15.403-15.403l0,0   c0-8.507,6.896-15.403,15.403-15.403h89.299c8.507,0,15.403,6.896,15.403,15.403l0,0   C314.609,359.854,307.713,366.751,299.205,366.751z"/>
	<path style="fill:#5C5E70;" d="M160.015,422.15H70.716c-8.507,0-15.403-6.896-15.403-15.403l0,0   c0-8.507,6.896-15.403,15.403-15.403h89.299c8.507,0,15.403,6.896,15.403,15.403l0,0   C175.419,415.254,168.522,422.15,160.015,422.15z"/>
	<path style="fill:#5C5E70;" d="M304.43,422.15h-89.299c-8.507,0-15.403-6.896-15.403-15.403l0,0   c0-8.507,6.896-15.403,15.403-15.403h89.299c8.507,0,15.403,6.896,15.403,15.403l0,0C319.834,415.254,312.938,422.15,304.43,422.15   z"/>
</g>
<path style="fill:#797B89;" d="M299.205,255.952h-89.299c-8.507,0-15.403-6.896-15.403-15.403v-110.8  c0-8.507,6.896-15.403,15.403-15.403h89.299c8.507,0,15.403,6.896,15.403,15.403v110.799  C314.609,249.056,307.713,255.952,299.205,255.952z"/>
<g>
</g>
<g>
</g>
<g>
</g>
<g>
</g>
<g>
</g>
<g>
</g>
<g>
</g>
<g>
</g>
<g>
</g>
<g>
</g>
<g>
</g>
<g>
</g>
<g>
</g>
<g>
</g>
<g>
</g>
</svg>
