<?xml version="1.0" encoding="iso-8859-1"?>
<!-- Generator: Adobe Illustrator 19.0.0, SVG Export Plug-In . SVG Version: 6.00 Build 0)  -->
<svg xmlns="http://www.w3.org/2000/svg" xmlns:xlink="http://www.w3.org/1999/xlink" version="1.1" id="Capa_1" x="0px" y="0px" viewBox="0 0 512 512" style="enable-background:new 0 0 512 512;" xml:space="preserve">
<circle style="fill:#FF525D;" cx="256" cy="256" r="256"/>
<path style="fill:#34ABE0;" d="M245.512,443.892v67.887c-34.388-1.379-67.03-9.55-96.622-23.197  c-7.377-3.406-14.566-7.147-21.535-11.212c-24.775-14.42-46.895-32.883-65.484-54.481c-1.327-1.546-2.644-3.114-3.939-4.702  l31.242-15.862l0.752-0.376l15.287-1.954l17.283-2.215l1.223-0.157l13.793-1.766l6.593,0.846l8.422,1.076l19.477,2.497l13.093,1.672  l0.752,0.376l49.601,25.182C241.625,430.643,245.512,436.975,245.512,443.892z"/>
<path style="fill:#279FC9;" d="M144.105,396.705l-18.578,2.382l-2.403,0.303l-17.91,2.288l-2.1,0.272l-9.77,4.953L61.872,422.89  c-1.327-1.546-2.644-3.114-3.939-4.702l31.242-15.862l0.752-0.376l15.287-1.954l17.283-2.215l1.223-0.157l13.793-1.766  L144.105,396.705z"/>
<rect x="105.211" y="365.798" style="fill:#F9D6B9;" width="66.79" height="42.945"/>
<g>
	<circle style="fill:#E5BFA3;" cx="72.537" cy="293.491" r="20.641"/>
	<circle style="fill:#E5BFA3;" cx="202.491" cy="293.491" r="20.641"/>
	<path style="fill:#E5BFA3;" d="M122.824,365.794L122.824,365.794l-17.609-0.001v0.001h-0.001v18.159h0.001v17.967h17.609l0,0   c0-6.083,5.066-10.975,11.142-10.688c1.174,0.055,2.356,0.084,3.544,0.084c12.448,0,24.183-3.062,34.494-8.467v-17.055H122.824z"/>
</g>
<path style="fill:#F9D6B9;" d="M211.868,199.063H63.156v110.545c0,41.066,33.29,74.356,74.356,74.356l0,0  c41.066,0,74.356-33.29,74.356-74.356V199.063z"/>
<path style="fill:#E5BFA3;" d="M203.094,171.567c-0.226-0.043-0.453-0.073-0.682-0.093c-2.154-0.19-4.275,0.62-5.848,2.101  c-1.125,1.061-2.565,2.391-3.543,3.202c-12.55,10.395-28.464,16.068-44.912,16.068H84.732c-6.95,0-13.355,2.319-18.494,6.219h-3.082  v2.677c-5.586,5.547-9.046,13.232-9.046,21.727v45.551c0,5.416,3.902,9.914,9.046,10.846v29.744  c0,41.066,33.29,74.356,74.356,74.356l0,0c2.771,0,5.506-0.157,8.199-0.452c-37.207-4.082-66.158-35.61-66.158-73.905v-43.875  c0-6.862,5.34-12.669,12.197-12.939c0.215-0.008,0.433-0.013,0.651-0.013l0,0c6.997,0,13.806,2.349,19.259,6.735  c7.075,5.692,16.138,10.289,25.853,9.098c19.348-2.374,18.778-15.155,25.853-20.846c5.452-4.385,12.262-6.735,19.259-6.735h0.302  c8.943,0,15.925-3.339,15.939,5.604c0.009,6.021,4.752,33.496,10.774,33.631c3.142,0.07,6-1.174,8.049-3.228  c1.995-1.995,3.227-4.75,3.227-7.796v-75.898C220.913,182.77,213.484,173.536,203.094,171.567z"/>
<path style="fill:#5C5E70;" d="M220.913,187.692v94.773c0,3.046-1.233,5.801-3.227,7.796c-2.051,2.054-4.908,3.299-8.049,3.227  c-6.028-0.136-10.774-5.217-10.774-11.245v-18.875c0-4.486-1.817-8.542-4.757-11.483c-2.94-2.94-6.997-4.757-11.483-4.757  c-6.997,0-13.805,2.349-19.26,6.736c-7.072,5.688-16.063,9.097-25.854,9.097c-9.787,0-18.778-3.407-25.85-9.097  c-0.935-0.754-1.911-1.444-2.922-2.073c-0.011-0.011-0.026-0.019-0.038-0.026c-1.923-1.199-3.965-2.171-6.092-2.914  c-3.261-1.135-6.71-1.723-10.209-1.723c-8.968,0-16.241,7.273-16.241,16.241v19.102c0,3.043-1.233,5.801-3.231,7.796  c-1.995,1.995-4.75,3.227-7.796,3.227c-6.089,0-11.023-4.935-11.023-11.027v-64.653c0-16.912,13.711-30.623,30.623-30.623h63.375  c16.448,0,32.36-5.674,44.91-16.067c0.98-0.811,2.42-2.141,3.543-3.201c1.576-1.485,3.698-2.293,5.85-2.103  c0.226,0.019,0.457,0.049,0.682,0.094C213.483,167.882,220.913,177.118,220.913,187.692z"/>
<path style="fill:#E5BFA3;" d="M121.373,289.954c-0.414,3.427-3.439,5.942-6.891,5.942H96.543c-1.874,0-3.57-0.758-4.799-1.986  c-1.406-1.411-2.202-3.438-1.935-5.642c0.414-3.427,3.439-5.942,6.891-5.942h17.939c1.873,0,3.57,0.758,4.799,1.986  C120.845,285.723,121.64,287.75,121.373,289.954z"/>
<path style="fill:#FFFFFF;" d="M121.368,294.712c-0.408,3.427-3.438,5.945-6.886,5.945H96.541c-1.87,0-3.563-0.763-4.796-1.985  c-1.411-1.411-2.205-3.438-1.933-5.642c0.408-3.427,3.438-5.945,6.886-5.945h17.941c0.418,0,0.836,0.042,1.233,0.115  c1.379,0.251,2.612,0.919,3.563,1.87C120.846,290.481,121.64,292.508,121.368,294.712z"/>
<path style="fill:#E5BFA3;" d="M183.249,282.325h-18.094c-3.747,0-6.786,3.038-6.786,6.786l0,0c0,3.747,3.038,6.786,6.786,6.786  h18.094c3.747,0,6.786-3.038,6.786-6.786l0,0C190.035,285.364,186.996,282.325,183.249,282.325z"/>
<path style="fill:#FFFFFF;" d="M190.039,293.866c0,3.751-3.041,6.792-6.792,6.792h-18.098c-1.87,0-3.563-0.763-4.796-1.985  c-1.223-1.233-1.985-2.936-1.985-4.807c0-3.741,3.041-6.781,6.781-6.781h18.098c0.418,0,0.836,0.042,1.233,0.115  c1.379,0.251,2.623,0.919,3.574,1.87C189.276,290.303,190.039,291.996,190.039,293.866z"/>
<path style="fill:#E5BFA3;" d="M189.118,268.77h-29.833c-2.112,0-3.824,1.713-3.824,3.824l0,0c0,2.112,1.713,3.824,3.824,3.824  h29.833c2.112,0,3.824-1.713,3.824-3.824l0,0C192.942,270.482,191.231,268.77,189.118,268.77z"/>
<g>
	<path style="fill:#41B787;" d="M116.185,289.54c0,4.984-4.044,9.028-9.028,9.028s-9.028-4.044-9.028-9.028   c0-0.857,0.115-1.682,0.345-2.456h16.165c0.418,0,0.836,0.042,1.233,0.115C116.081,287.941,116.185,288.725,116.185,289.54z"/>
	<path style="fill:#41B787;" d="M184.793,289.54c0,4.984-4.044,9.028-9.028,9.028s-9.017-4.044-9.017-9.028   c0-0.857,0.115-1.682,0.345-2.456h16.154c0.418,0,0.836,0.042,1.233,0.115C184.689,287.941,184.793,288.725,184.793,289.54z"/>
</g>
<g>
	<path style="fill:#E5BFA3;" d="M90.802,268.77c-2.105,0-3.912,1.648-3.951,3.753c-0.04,2.145,1.688,3.896,3.824,3.896h20.96   c8.322,0,15.068,6.746,15.068,15.068v37.332h3.797c4.878,0,8.831-3.954,8.831-8.831v-39.71c0-6.355-5.151-11.507-11.507-11.507   H90.802V268.77z"/>
	<path style="fill:#E5BFA3;" d="M150.268,341.317c-8.283,2.729-17.229,2.729-25.511,0c-2.213-0.722-4.742,0.139-5.726,2.214l0,0   c-0.984,2.063,0.375,4.757,3.132,5.663c9.968,3.284,20.734,3.284,30.702,0c2.756-0.904,4.115-3.601,3.132-5.663l0,0   C155.01,341.458,152.481,340.597,150.268,341.317z"/>
	<path style="fill:#E5BFA3;" d="M142.003,356.662h-8.982c-2.29,0-4.147,1.857-4.147,4.147l0,0c0,2.29,1.857,4.147,4.147,4.147h8.982   c2.29,0,4.147-1.857,4.147-4.147l0,0C146.15,358.519,144.293,356.662,142.003,356.662z"/>
</g>
<path style="fill:#FFD15C;" d="M148.891,488.583c-7.377-3.406-14.566-7.147-21.535-11.212l4.712-43.196l0.261-2.435h10.365  l0.261,2.435L148.891,488.583z"/>
<path style="fill:#EDBB4C;" d="M141.216,434.375h-7.409c-4.408,0-7.982-3.574-7.982-7.982v-9.671c0-4.408,3.574-7.982,7.982-7.982  h7.409c4.408,0,7.982,3.574,7.982,7.982v9.671C149.198,430.801,145.624,434.375,141.216,434.375z"/>
<g>
	<path style="fill:#279FC9;" d="M100.77,388.472l32.96,14.126c3.397,1.456,4.79,5.531,2.995,8.761l-10.674,19.214   c-2.071,3.727-7.188,4.324-10.06,1.173l-27.164-29.793c-2.505-2.747-2.066-7.06,0.94-9.246l4.878-3.547   C96.423,387.867,98.75,387.606,100.77,388.472z"/>
	<path style="fill:#279FC9;" d="M174.253,388.472l-32.96,14.126c-3.397,1.456-4.79,5.531-2.995,8.761l10.674,19.214   c2.071,3.727,7.188,4.324,10.06,1.173l27.163-29.792c2.505-2.747,2.066-7.06-0.94-9.246l-4.878-3.547   C178.601,387.867,176.274,387.606,174.253,388.472z"/>
	<polygon style="fill:#279FC9;" points="208.573,481.762 186.897,489.678 164.843,481.762 164.843,467.059 208.573,467.059  "/>
</g>
<path style="fill:#E28D40;" d="M451.012,230.18v191.676c-6.802,7.993-14.075,15.548-21.797,22.633H290.422V230.18H451.012z"/>
<rect x="342.194" y="365.798" style="fill:#F9D6B9;" width="66.79" height="42.945"/>
<path style="fill:#E5BFA3;" d="M359.8,365.794L359.8,365.794l-17.609-0.001v0.001h-0.001v18.159h0.001v17.967H359.8l0,0  c0-6.083,5.066-10.975,11.142-10.688c1.174,0.055,2.356,0.084,3.544,0.084c12.448,0,24.183-3.062,34.494-8.467v-17.055H359.8z"/>
<path style="fill:#F9D6B9;" d="M441.964,234.573l-134.951-7.916v82.952c0,41.066,30.21,74.356,67.475,74.356l0,0  c37.265,0,67.475-33.29,67.475-74.356L441.964,234.573L441.964,234.573z"/>
<g>
	<path style="fill:#E5BFA3;" d="M324.972,309.608V227.71l-17.96-1.053v82.952c0,41.066,30.21,74.356,67.475,74.356l0,0   c3.045,0,6.042-0.227,8.98-0.657C350.447,378.468,324.972,347.319,324.972,309.608z"/>
	<path style="fill:#E5BFA3;" d="M335.459,255.506c0,0,41.996,13.373,81.883,8.443c39.888-4.929-7.044-31.505-7.044-31.505   l-67.854-4.523l-9.613,4.523L335.459,255.506z"/>
	<path style="fill:#E5BFA3;" d="M426.095,270.655h-29.833c-2.112,0-3.824,1.713-3.824,3.824l0,0c0,2.112,1.713,3.824,3.824,3.824   h29.833c2.112,0,3.824-1.713,3.824-3.824l0,0C429.919,272.367,428.206,270.655,426.095,270.655z"/>
	<path style="fill:#E5BFA3;" d="M327.777,270.655c-2.105,0-3.912,1.648-3.951,3.753c-0.04,2.145,1.688,3.896,3.824,3.896h20.96   c8.322,0,15.068,6.746,15.068,15.068v29.793h3.797c4.878,0,8.831-3.954,8.831-8.831v-32.171c0-6.355-5.151-11.507-11.507-11.507   h-37.023V270.655z"/>
</g>
<path style="fill:#FF6E7C;" d="M384.31,344.36c-6.415,1.866-13.23,1.866-19.645,0c-1.717-0.494-3.622,0.271-4.301,1.905l0,0  c-0.679,1.629,0.42,3.633,2.514,4.24c7.582,2.206,15.638,2.206,23.22,0c2.093-0.607,3.193-2.611,2.514-4.24l0,0  C387.932,344.63,386.027,343.864,384.31,344.36z"/>
<path style="fill:#E5BFA3;" d="M377.953,355.217h-6.931c-1.767,0-3.201,1.433-3.201,3.201l0,0c0,1.767,1.433,3.201,3.201,3.201  h6.931c1.767,0,3.201-1.433,3.201-3.201l0,0C381.154,356.65,379.721,355.217,377.953,355.217z"/>
<path style="fill:#F4A14E;" d="M465.077,245.602v158.166c-3.5,4.942-7.168,9.749-11.013,14.42c-0.063,0.094-0.136,0.188-0.219,0.282  l-2.832-1.337l-5.162-2.435c0,0,0-0.23,0-0.679v-83.477c0-10.303,2.591-29.33-3.887-44.857c-3.95-9.467-11.274-17.638-24.618-21.734  h-0.01c-4.347-1.337-9.331-2.236-15.047-2.612c-26.718-1.745-46.174-12.737-58.786-23.019c-0.01,0.021-0.01,0.063-0.031,0.136  c0,0.01,0,0.01,0,0.01c-0.219,1.139-1.86,9.028-8.014,17.032v0.01c-2.612,3.396-6.029,6.813-10.491,9.738  c-4.723,3.093-10.616,5.653-17.951,7.053c-2.163,0.428-4.462,0.742-6.886,0.94v146.181l-9.707,5.12l-6.499,3.427V245.602  c0-40.333,26.352-74.512,62.788-86.235h0.01c8.746-2.821,18.077-4.336,27.763-4.336h0.031  C424.535,155.03,465.077,195.583,465.077,245.602z"/>
<path style="fill:#494B5B;" d="M129.667,187.192c-16.917,0-30.626,13.709-30.626,30.616v30.041  c-2.173-0.481-4.399-0.721-6.635-0.721c-8.976,0-16.248,7.272-16.248,16.238v19.101c0,3.041-1.233,5.81-3.229,7.795  c-1.996,1.996-4.744,3.229-7.795,3.229c-6.092,0-11.024-4.932-11.024-11.024v-64.658c0-16.906,13.709-30.616,30.626-30.616H129.667z  "/>
<path style="fill:#E28D40;" d="M396.951,157.831c-1.787,0.46-3.553,0.972-5.298,1.536h-0.01  c-36.436,11.724-62.788,45.902-62.788,86.235v16.771c-1.202,0.993-2.487,1.954-3.887,2.873c-4.723,3.093-10.616,5.653-17.951,7.053  c-2.163,0.428-4.462,0.742-6.886,0.94v146.181l-9.707,5.12l-6.499,3.427V245.602c0-40.333,26.352-74.512,62.788-86.235h0.01  c8.746-2.821,18.077-4.336,27.763-4.336h0.031C382.26,155.03,389.784,156.002,396.951,157.831z"/>
<path style="fill:#F9EED7;" d="M454.064,418.188c-0.063,0.094-0.136,0.188-0.219,0.282c-0.93,1.139-1.881,2.267-2.832,3.385  c-6.802,7.993-14.075,15.548-21.797,22.633c-14.639,13.469-30.845,25.245-48.316,35.025c-4.2,2.351-8.474,4.598-12.821,6.708  c-27.126,13.239-56.936,21.817-88.398,24.691c-4.368,0.408-8.767,0.7-13.197,0.878v-67.897c0-6.917,3.897-13.249,10.062-16.384  l7.377-3.741l6.499-3.302l9.707-4.932l26.018-13.208l0.752-0.376l10.177,1.526l5.11,0.773l25.893,3.887l0.251,0.042l2.926,0.439  l0.69,0.115l2.476,0.408l0.125,0.021l6.353,1.055l0.188,0.031v6.781l22.559-8.296l5.329-1.964l13.103-4.817l0.752,0.376  l23.019,11.692l5.162,2.623L454.064,418.188z"/>
<path style="fill:#E8DBC4;" d="M352.155,404.218l-9.968-1.87l-2.09-0.397l-3.02,1.526l-6.75,3.438l-39.905,20.25l-0.679,0.345  c-6.175,3.135-10.062,9.467-10.062,16.384v67.02c-4.368,0.408-8.767,0.7-13.197,0.878v-67.897c0-6.917,3.897-13.249,10.062-16.384  l7.377-3.741l6.499-3.302l9.707-4.932l26.018-13.208l0.752-0.376l15.287-4.942l3.553-1.149l4.65,6.06L352.155,404.218z"/>
<path style="fill:#FCF8F2;" d="M380.9,407.614v71.899c-4.2,2.351-8.474,4.598-12.821,6.708v-78.608H380.9z"/>
<path style="fill:#F9EED7;" d="M383.819,407.86h-15.487v1.259l-0.252-0.108v20.007l5.621-10.118  c0.535-0.961,0.788-2.002,0.788-3.023c0,1.022,0.253,2.058,0.788,3.023l5.621,10.118v-13.142h2.922v-8.016H383.819z"/>
<g>
	<path style="fill:#FCF8F2;" d="M337.747,388.472l32.96,14.126c3.397,1.456,4.79,5.531,2.995,8.761l-10.674,19.214   c-2.071,3.727-7.188,4.324-10.06,1.173l-27.163-29.792c-2.505-2.747-2.066-7.06,0.94-9.246l4.878-3.547   C333.399,387.867,335.726,387.606,337.747,388.472z"/>
	<path style="fill:#FCF8F2;" d="M411.23,388.472l-32.96,14.126c-3.397,1.456-4.79,5.531-2.995,8.761l10.674,19.214   c2.071,3.727,7.188,4.324,10.061,1.173l27.163-29.792c2.505-2.747,2.066-7.06-0.94-9.246l-4.878-3.547   C415.577,387.867,413.25,387.606,411.23,388.472z"/>
</g>
<g>
	<circle style="fill:#5C5E70;" cx="374.491" cy="422.881" r="4.147"/>
	<circle style="fill:#5C5E70;" cx="374.491" cy="456.171" r="4.147"/>
</g>
<g>
	<path style="fill:#FFFFFF;" d="M427.01,294.849c0,3.25-2.631,5.885-5.881,5.885h-19.901c-1.625,0-3.095-0.659-4.158-1.723   c-1.067-1.067-1.723-2.537-1.723-4.162c0-1,0.25-1.941,0.69-2.766c0.99-1.853,1.252-4.805,3.5-4.805l22.923-0.303   c1.625,0,2.892,3.443,3.236,1.979c0.409-1.738,0.349,2.615,0.624,3.129C426.759,292.907,427.01,293.849,427.01,294.849z"/>
	<path style="fill:#FFFFFF;" d="M358.555,294.849c0,3.25-2.631,5.885-5.881,5.885h-19.901c-1.625,0-3.095-0.659-4.158-1.723   c-1.067-1.067-1.723-2.537-1.723-4.162c0-1,0.25-1.941,0.69-2.766c0.99-1.853,1.252-4.805,3.5-4.805l22.923-0.303   c1.625,0,2.892,3.443,3.236,1.979c0.409-1.738,0.349,2.615,0.624,3.129C358.305,292.907,358.555,293.848,358.555,294.849z"/>
</g>
<g>
	<path style="fill:#5C5E70;" d="M349.439,289.857c0,4.984-4.044,9.028-9.028,9.028c-4.984,0-9.028-4.044-9.028-9.028   c0-0.857,0.115-1.682,0.345-2.456h16.165c0.418,0,0.836,0.042,1.233,0.115C349.334,288.258,349.439,289.042,349.439,289.857z"/>
	<path style="fill:#5C5E70;" d="M418.047,289.857c0,4.984-4.044,9.028-9.028,9.028c-4.984,0-9.017-4.044-9.017-9.028   c0-0.857,0.115-1.682,0.345-2.456H416.5c0.418,0,0.836,0.042,1.233,0.115C417.942,288.258,418.047,289.042,418.047,289.857z"/>
	<path style="fill:#5C5E70;" d="M401.228,288.969h19.901c1.625,0,3.095,0.659,4.158,1.723c0.409,0.409,0.755,0.878,1.03,1.393   c0.44-0.899,0.693-1.905,0.693-2.973c0-3.747-3.038-6.786-6.786-6.786H402.13c-3.747,0-6.786,3.038-6.786,6.786   c0,1.068,0.254,2.074,0.693,2.973C397.028,290.231,398.98,288.969,401.228,288.969z"/>
	<path style="fill:#5C5E70;" d="M332.773,288.969h19.901c1.625,0,3.095,0.659,4.158,1.723c0.409,0.409,0.755,0.878,1.03,1.393   c0.44-0.899,0.693-1.905,0.693-2.973c0-3.747-3.038-6.786-6.786-6.786h-18.094c-3.747,0-6.786,3.038-6.786,6.786   c0,1.068,0.254,2.074,0.693,2.973C328.573,290.231,330.524,288.969,332.773,288.969z"/>
</g>
<path style="fill:#F9EED7;" d="M296.693,128.227h-81.385c-12.935,0-23.421-10.486-23.421-23.421V23.421  C191.887,10.486,202.373,0,215.307,0h81.385c12.935,0,23.421,10.486,23.421,23.421v81.385  C320.113,117.741,309.627,128.227,296.693,128.227z"/>
<circle style="fill:#FCF8F2;" cx="256" cy="52.134" r="45.909"/>
<circle style="fill:#FFD15C;" cx="256" cy="52.134" r="32.486"/>
<g>
	<circle style="fill:#FFDC8D;" cx="271.977" cy="40.493" r="8.663"/>
	<circle style="fill:#FFDC8D;" cx="261.548" cy="28.442" r="4.467"/>
</g>
<path style="fill:#5C5E70;" d="M257.832,108.578h-3.663c-9.386,0-16.996-7.61-16.996-16.996V78.467h37.656v13.117  C274.828,100.97,267.219,108.578,257.832,108.578z"/>
<path style="fill:#494B5B;" d="M245.701,95.369V78.467h-8.531v16.902c0,7.295,5.914,13.211,13.211,13.211h8.531  C251.617,108.578,245.701,102.664,245.701,95.369z"/>
<path style="fill:#797B89;" d="M266.896,99.666L266.896,99.666c-2.007,0-3.635-1.628-3.635-3.635v-8.594  c0-2.007,1.628-3.635,3.635-3.635l0,0c2.007,0,3.635,1.628,3.635,3.635v8.594C270.531,98.038,268.903,99.666,266.896,99.666z"/>
<g>
	<circle style="fill:#F9EED7;" cx="183.035" cy="137.164" r="13.932"/>
	<circle style="fill:#F9EED7;" cx="161.092" cy="166.766" r="7.314"/>
	<circle style="fill:#F9EED7;" cx="328.965" cy="137.164" r="13.932"/>
	<circle style="fill:#F9EED7;" cx="350.908" cy="166.766" r="7.314"/>
</g>
<g>
</g>
<g>
</g>
<g>
</g>
<g>
</g>
<g>
</g>
<g>
</g>
<g>
</g>
<g>
</g>
<g>
</g>
<g>
</g>
<g>
</g>
<g>
</g>
<g>
</g>
<g>
</g>
<g>
</g>
</svg>
