<?xml version="1.0" encoding="iso-8859-1"?>
<!-- Generator: Adobe Illustrator 19.0.0, SVG Export Plug-In . SVG Version: 6.00 Build 0)  -->
<svg xmlns="http://www.w3.org/2000/svg" xmlns:xlink="http://www.w3.org/1999/xlink" version="1.1" id="Capa_1" x="0px" y="0px" viewBox="0 0 511.999 511.999" style="enable-background:new 0 0 511.999 511.999;" xml:space="preserve">
<circle style="fill:#797B89;" cx="255.999" cy="255.999" r="255.999"/>
<path style="fill:#4BC999;" d="M476.215,181.382L476.215,181.382c0,34.495-27.964,62.459-62.459,62.459h-27.013  c-34.495,0-62.459-27.963-62.459-62.459l0,0c0-4.869,2.736-9.326,7.078-11.529l19.122-9.704  c10.781-5.471,22.421-9.053,34.414-10.589l15.35-1.967l4.637,0.593h0.003l10.71,1.372c11.993,1.536,23.634,5.119,34.417,10.591  l19.123,9.705C473.48,172.058,476.215,176.513,476.215,181.382z"/>
<g>
	<path style="fill:#E5BFA3;" d="M423.74,126.446v25.233c0,12.972-10.517,23.489-23.489,23.489l0,0   c-12.972,0-23.489-10.517-23.489-23.489v-25.233H423.74z"/>
	<circle style="fill:#E5BFA3;" cx="349.539" cy="85.169" r="14.518"/>
	<circle style="fill:#E5BFA3;" cx="450.956" cy="85.169" r="14.518"/>
</g>
<path style="fill:#F9D6B9;" d="M452.551,43.726l-104.601-5.568v58.347c0,28.885,23.416,52.3,52.3,52.3l0,0  c28.885,0,52.3-23.416,52.3-52.3V43.726H452.551z"/>
<path style="fill:#E5BFA3;" d="M368.819,96.504V39.268l-20.87-1.111v58.347c0,28.885,23.416,52.3,52.3,52.3l0,0  c3.574,0,7.062-0.36,10.434-1.044C386.801,142.925,368.819,121.815,368.819,96.504z"/>
<path style="fill:#C98847;" d="M458.914,41.772v26.346c0,2.142-0.867,4.081-2.27,5.484c-1.443,1.445-3.452,2.32-5.661,2.27  c-4.24-0.095-7.579-3.67-7.579-7.91v-3.982c0-3.156-1.278-6.008-3.347-8.077c-2.068-2.068-4.921-3.347-8.077-3.347  c-4.921,0-9.71,1.652-13.547,4.739c-4.975,4.001-11.298,6.398-18.184,6.398c-6.884,0-13.207-2.397-18.182-6.398  c-0.657-0.531-1.345-1.016-2.055-1.459c-0.008-0.008-0.019-0.014-0.026-0.019c-1.352-0.843-2.79-1.528-4.285-2.05  c-2.297-0.798-4.723-1.212-7.186-1.212c-6.306,0-11.418,5.12-11.418,11.428v4.137c0,2.14-0.867,4.081-2.273,5.484  c-1.402,1.402-3.341,2.27-5.484,2.27c-4.282,0-7.753-3.471-7.753-7.756V41.772c0-23.069,18.699-41.771,41.769-41.771h33.787  C440.212,0.001,458.914,18.703,458.914,41.772z"/>
<path style="fill:#BA773A;" d="M410.52,0c-23.071,0-41.764,18.704-41.764,41.775v10.794c-0.084-0.01-0.157-0.01-0.24-0.01  c-6.311,0-11.421,5.12-11.421,11.431v4.127c0,2.142-0.867,4.086-2.267,5.486c-1.411,1.4-3.344,2.267-5.486,2.267  c-4.284,0-7.753-3.469-7.753-7.753V41.775C341.588,18.704,360.281,0,383.352,0H410.52z"/>
<path style="fill:#5C5E70;" d="M167.135,59.904v117.854l-9.31-4.399v18.087H51.612v-13.197l-4.295,2.267V59.904  c0-13.333,4.357-25.663,11.724-35.61c7.377-9.958,17.763-17.544,29.811-21.42C94.64,1.003,100.805,0,107.221,0h0.01  C140.313,0,167.135,26.822,167.135,59.904z"/>
<path style="fill:#494B5B;" d="M106.092,191.446c0.313,1.39,0.491,2.142,0.491,2.142l-37.48-2.142l-17.492-1.003v-12.194  l-4.295,2.267V59.904c0-13.333,4.357-25.663,11.724-35.61c7.377-9.958,17.763-17.544,29.811-21.42C94.64,1.003,100.805,0,107.221,0  h0.01c0,0-18.965,7.941-20.511,55.087C85.309,97.98,102.895,177.423,106.092,191.446z"/>
<path style="fill:#FFD15C;" d="M178.647,179.371L178.647,179.371c0,32.437-26.295,58.732-58.731,58.732H94.516  c-32.437,0-58.732-26.295-58.732-58.732l0,0c0-4.579,2.573-8.77,6.656-10.842l5.234-2.656c18.451-9.363,38.85-14.243,59.54-14.243  l0,0c20.692,0,41.093,4.881,59.544,14.245l5.234,2.656C176.075,170.603,178.647,174.793,178.647,179.371z"/>
<path style="fill:#E5BFA3;" d="M130.029,132.908v22.425c0,12.198-9.889,22.087-22.087,22.087l0,0  c-12.198,0-22.087-9.889-22.087-22.087v-22.425C85.855,132.908,130.029,132.908,130.029,132.908z"/>
<path style="fill:#F9D6B9;" d="M125.605,70.314c-17.673-1.151-30.543-8.423-38.884-15.222c-0.002,0.009-0.007,0.04-0.018,0.09  c0,0.002,0,0.002,0,0.002C86.44,56.6,82.838,73.67,62.587,77.565v24.675c0,27.161,19.98,49.179,44.629,49.179l0,0  c24.647,0,44.629-22.018,44.629-49.179V86.457C148.385,78.134,141.012,71.318,125.605,70.314z"/>
<path style="fill:#E5BFA3;" d="M85.175,102.239V59.974c-2.442,5.753-8.464,14.874-22.586,17.591v24.675  c0,27.161,19.98,49.179,44.629,49.179l0,0c3.902,0,7.686-0.555,11.293-1.592C99.331,144.315,85.175,125.1,85.175,102.239z"/>
<path style="fill:#F4A14E;" d="M464.701,330.981v73.32c-6.134,8.62-12.8,16.844-19.937,24.618  c-11.337,12.382-23.886,23.646-37.46,33.604h-58.117v-13.197l-4.305,2.267V330.981c0-13.343,4.357-25.663,11.734-35.621  c7.366-9.947,17.753-17.544,29.8-21.42c5.789-1.86,11.964-2.863,18.369-2.863h0.01C437.889,271.077,464.701,297.889,464.701,330.981  z"/>
<path style="fill:#E28D40;" d="M403.658,462.523c0.313,1.39,0.491,2.142,0.491,2.142l-37.48-2.142l-17.492-1.003v-12.194  l-4.294,2.267V330.981c0-13.333,4.357-25.663,11.724-35.61c7.377-9.958,17.763-17.544,29.811-21.42  c5.789-1.87,11.954-2.873,18.369-2.873h0.01c0,0-18.965,7.941-20.511,55.087C382.875,369.057,400.46,448.501,403.658,462.523z"/>
<path style="fill:#FF525D;" d="M444.764,428.919c-11.337,12.382-23.886,23.646-37.46,33.604  c-16.959,12.445-35.506,22.852-55.285,30.856c-11.483-10.71-18.662-25.987-18.662-42.935c0-2.288,0.637-4.483,1.797-6.363  c1.149-1.87,2.811-3.438,4.859-4.483l4.869-2.476l0.355-0.178c12.048-6.113,24.931-10.313,38.181-12.497  c7.043-1.16,14.19-1.745,21.368-1.745c7.67,0,15.308,0.669,22.81,1.996c2.612,0.46,5.214,0.993,7.795,1.609  C438.547,427.059,441.671,427.937,444.764,428.919z"/>
<path style="fill:#E5BFA3;" d="M427.597,403.98v22.424c0,12.198-9.889,22.087-22.087,22.087l0,0  c-12.198,0-22.087-9.889-22.087-22.087V403.98H427.597z"/>
<path style="fill:#F9D6B9;" d="M423.172,341.386c-17.673-1.151-30.543-8.423-38.884-15.222c-0.002,0.009-0.007,0.04-0.018,0.09  c0,0.002,0,0.002,0,0.002c-0.263,1.416-3.865,18.486-24.116,22.381v24.675c0,27.161,19.98,49.179,44.629,49.179l0,0  c24.647,0,44.629-22.018,44.629-49.179v-15.783C445.953,349.206,438.579,342.391,423.172,341.386z"/>
<path style="fill:#E5BFA3;" d="M382.742,373.312v-42.265c-2.442,5.753-8.464,14.874-22.586,17.591v24.675  c0,27.161,19.98,49.179,44.629,49.179l0,0c3.902,0,7.686-0.555,11.293-1.592C396.898,415.387,382.742,396.172,382.742,373.312z"/>
<path style="fill:#F9EED7;" d="M271.519,287.347l48.34-48.34c4.285-4.285,4.285-11.232,0-15.517l0,0  c-4.285-4.285-11.232-4.285-15.517,0l-48.34,48.34l-48.34-48.34c-4.285-4.285-11.232-4.285-15.517,0l0,0  c-4.285,4.285-4.285,11.232,0,15.517l48.34,48.34l-48.34,48.34c-4.285,4.285-4.285,11.232,0,15.517  c4.285,4.285,11.232,4.285,15.517,0l48.34-48.34l48.34,48.34c4.285,4.285,11.232,4.285,15.517,0s4.285-11.232,0-15.517  L271.519,287.347z"/>
<path style="fill:#34ABE0;" d="M187.72,448.114c0,19.038-8.516,36.08-21.943,47.532c-39.33-14.817-74.062-39.037-101.428-69.924  c7.628-3.626,15.653-6.332,23.907-8.046c2.685-0.564,5.413-1.024,8.14-1.379l8.934-1.139l6.416-0.825l4.639,0.596l1.745,0.219  l0.021,0.01l8.944,1.139c2.738,0.355,5.444,0.805,8.14,1.379c9.111,1.891,17.951,4.984,26.279,9.206l19.122,9.707  C184.982,438.794,187.72,443.255,187.72,448.114z"/>
<g>
	<path style="fill:#E5BFA3;" d="M135.239,393.183v25.233c0,12.972-10.517,23.489-23.489,23.489l0,0   c-12.972,0-23.489-10.517-23.489-23.489v-25.233H135.239z"/>
	<circle style="fill:#E5BFA3;" cx="61.043" cy="351.91" r="14.518"/>
	<circle style="fill:#E5BFA3;" cx="162.46" cy="351.91" r="14.518"/>
</g>
<path style="fill:#F9D6B9;" d="M164.05,310.464l-104.601-5.568v58.347c0,28.885,23.416,52.3,52.3,52.3l0,0  c28.885,0,52.3-23.416,52.3-52.3v-52.779H164.05z"/>
<path style="fill:#E5BFA3;" d="M80.319,363.241v-57.235l-20.87-1.111v58.347c0,28.885,23.416,52.3,52.3,52.3l0,0  c3.574,0,7.062-0.361,10.434-1.044C98.3,409.662,80.319,388.553,80.319,363.241z"/>
<path style="fill:#C98847;" d="M170.413,308.509v26.346c0,2.142-0.867,4.081-2.27,5.484c-1.442,1.445-3.452,2.32-5.661,2.27  c-4.24-0.095-7.579-3.67-7.579-7.91v-3.983c0-3.156-1.278-6.008-3.347-8.077c-2.068-2.068-4.921-3.347-8.077-3.347  c-4.921,0-9.71,1.652-13.547,4.739c-4.975,4.001-11.298,6.398-18.184,6.398c-6.884,0-13.207-2.397-18.182-6.398  c-0.657-0.531-1.345-1.016-2.055-1.459c-0.008-0.008-0.019-0.014-0.026-0.019c-1.352-0.843-2.79-1.528-4.285-2.05  c-2.297-0.798-4.723-1.212-7.186-1.212c-6.306,0-11.418,5.12-11.418,11.428v4.137c0,2.14-0.867,4.08-2.273,5.484  c-1.402,1.402-3.341,2.27-5.484,2.27c-4.282,0-7.753-3.471-7.753-7.756v-26.346c0-23.069,18.699-41.771,41.769-41.771h33.787  C151.712,266.738,170.413,285.44,170.413,308.509z"/>
<path style="fill:#BA773A;" d="M122.019,266.734c-23.071,0-41.764,18.704-41.764,41.775v10.794c-0.084-0.01-0.157-0.01-0.24-0.01  c-6.311,0-11.421,5.12-11.421,11.431v4.127c0,2.142-0.867,4.086-2.267,5.486c-1.411,1.4-3.344,2.267-5.486,2.267  c-4.284,0-7.753-3.469-7.753-7.753v-26.342c0-23.071,18.693-41.775,41.764-41.775H122.019z"/>
<g>
</g>
<g>
</g>
<g>
</g>
<g>
</g>
<g>
</g>
<g>
</g>
<g>
</g>
<g>
</g>
<g>
</g>
<g>
</g>
<g>
</g>
<g>
</g>
<g>
</g>
<g>
</g>
<g>
</g>
</svg>
