<?xml version="1.0" encoding="iso-8859-1"?>
<!-- Generator: Adobe Illustrator 19.0.0, SVG Export Plug-In . SVG Version: 6.00 Build 0)  -->
<svg xmlns="http://www.w3.org/2000/svg" xmlns:xlink="http://www.w3.org/1999/xlink" version="1.1" id="Capa_1" x="0px" y="0px" viewBox="0 0 512 512" style="enable-background:new 0 0 512 512;" xml:space="preserve">
<circle style="fill:#4BC999;" cx="256" cy="256" r="256"/>
<path style="fill:#34ABE0;" d="M511.993,257.117c-0.355,84.647-41.806,159.608-105.42,205.949  c-26.258,19.122-56.299,33.374-88.785,41.42V279.52c0-6.928,3.897-13.27,10.073-16.405l50.364-25.558l47.616-6.102l6.593,0.846  l41.012,5.256L511.993,257.117z"/>
<path style="fill:#279FC9;" d="M432.432,232.303l-41.004,5.254l-50.372,25.563c-6.174,3.134-10.067,9.47-10.067,16.399v88.838h-13.2  v-88.838c0-6.929,3.892-13.264,10.067-16.399l50.372-25.563l47.608-6.099L432.432,232.303z"/>
<rect x="393.529" y="201.383" style="fill:#F9D6B9;" width="66.82" height="42.966"/>
<g>
	<circle style="fill:#E5BFA3;" cx="360.835" cy="129.045" r="20.649"/>
	<circle style="fill:#E5BFA3;" cx="490.841" cy="129.045" r="20.649"/>
	<path style="fill:#E5BFA3;" d="M411.143,201.38L411.143,201.38l-17.617-0.001v0.001h-0.001v18.168h0.001v17.975h17.617l0,0   c0-6.085,5.068-10.98,11.147-10.693c1.174,0.055,2.357,0.084,3.545,0.084c12.453,0,24.195-3.063,34.509-8.471V201.38   L411.143,201.38L411.143,201.38z"/>
</g>
<path style="fill:#F9D6B9;" d="M500.227,34.576H351.448V145.17c0,41.084,33.305,74.389,74.389,74.389l0,0  c41.084,0,74.389-33.305,74.389-74.389L500.227,34.576L500.227,34.576z"/>
<path style="fill:#E5BFA3;" d="M491.448,7.067c-0.226-0.043-0.455-0.073-0.683-0.093c-2.155-0.19-4.277,0.62-5.851,2.102  c-1.125,1.061-2.566,2.392-3.545,3.203c-12.555,10.399-28.477,16.076-44.932,16.076h-63.403c-6.953,0-13.361,2.32-18.502,6.221  h-3.085v2.678c-5.588,5.549-9.05,13.238-9.05,21.736v45.571c0,5.419,3.904,9.918,9.05,10.851v29.757  c0,41.084,33.305,74.389,74.389,74.389l0,0c2.773,0,5.509-0.157,8.202-0.452c-37.223-4.083-66.187-35.626-66.187-73.937v-43.894  c0-6.865,5.343-12.675,12.202-12.945c0.216-0.008,0.433-0.013,0.651-0.013l0,0c7,0,13.813,2.35,19.267,6.738  c7.078,5.694,16.146,10.294,25.864,9.101c19.358-2.375,18.786-15.161,25.864-20.855c5.454-4.388,12.267-6.738,19.267-6.738h0.302  c8.947,0,15.933-3.342,15.946,5.607c0.009,6.024,4.754,33.511,10.778,33.646c3.143,0.07,6.002-1.176,8.053-3.23  c1.995-1.995,3.229-4.752,3.229-7.799V28.855C509.277,18.275,501.844,9.036,491.448,7.067z"/>
<path style="fill:#5C5E70;" d="M509.277,23.199v94.816c0,3.047-1.233,5.804-3.229,7.799c-2.052,2.055-4.911,3.3-8.052,3.229  c-6.03-0.136-10.779-5.219-10.779-11.25V98.908c0-4.488-1.818-8.546-4.759-11.488c-2.941-2.941-7-4.76-11.488-4.76  c-7,0-13.811,2.35-19.269,6.74c-7.075,5.692-16.071,9.101-25.865,9.101c-9.791,0-18.786-3.41-25.861-9.101  c-0.935-0.754-1.912-1.444-2.923-2.074c-0.011-0.011-0.026-0.019-0.038-0.026c-1.924-1.2-3.967-2.172-6.095-2.915  c-3.262-1.135-6.713-1.724-10.213-1.724c-8.973,0-16.248,7.276-16.248,16.248v19.11c0,3.044-1.233,5.804-3.232,7.799  c-1.995,1.995-4.752,3.229-7.799,3.229c-6.091,0-11.028-4.937-11.028-11.032V53.333c0-16.919,13.717-30.636,30.636-30.636h63.402  c16.455,0,32.375-5.676,44.93-16.074c0.98-0.811,2.421-2.142,3.545-3.202c1.577-1.486,3.7-2.294,5.854-2.104  c0.227,0.019,0.457,0.049,0.682,0.094C501.844,3.379,509.277,12.619,509.277,23.199z"/>
<path style="fill:#494B5B;" d="M414.832,22.694c-16.917,0-30.636,13.72-30.636,30.636v29.529c-1.149-0.136-2.32-0.199-3.49-0.199  c-8.965,0-16.248,7.272-16.248,16.248v19.111c0,3.041-1.233,5.799-3.229,7.795c-1.996,1.996-4.754,3.229-7.795,3.229  c-6.092,0-11.034-4.932-11.034-11.034V53.331c0-16.917,13.72-30.636,30.636-30.636C373.036,22.694,414.832,22.694,414.832,22.694z"/>
<path style="fill:#E5BFA3;" d="M409.692,125.506c-0.415,3.428-3.441,5.945-6.894,5.945h-17.947c-1.875,0-3.571-0.759-4.801-1.987  c-1.407-1.412-2.203-3.44-1.936-5.645c0.415-3.428,3.44-5.945,6.894-5.945h17.947c1.875,0,3.571,0.759,4.801,1.987  C409.162,121.273,409.958,123.301,409.692,125.506z"/>
<path style="fill:#FFFFFF;" d="M409.692,130.266c-0.415,3.428-3.441,5.945-6.894,5.945h-17.947c-1.875,0-3.571-0.758-4.801-1.987  c-1.407-1.412-2.203-3.44-1.936-5.645c0.415-3.428,3.44-5.945,6.894-5.945h17.947c1.875,0,3.571,0.759,4.801,1.987  C409.162,126.033,409.958,128.062,409.692,130.266z"/>
<path style="fill:#E5BFA3;" d="M471.595,117.874h-18.103c-3.749,0-6.789,3.04-6.789,6.789l0,0c0,3.749,3.04,6.789,6.789,6.789  h18.103c3.749,0,6.789-3.04,6.789-6.789l0,0C478.384,120.913,475.344,117.874,471.595,117.874z"/>
<path style="fill:#FFFFFF;" d="M471.595,122.634h-18.103c-3.749,0-6.789,3.04-6.789,6.789l0,0c0,3.749,3.04,6.789,6.789,6.789  h18.103c3.749,0,6.789-3.04,6.789-6.789l0,0C478.384,125.674,475.344,122.634,471.595,122.634z"/>
<path style="fill:#E5BFA3;" d="M477.467,104.312h-29.846c-2.113,0-3.826,1.713-3.826,3.826l0,0c0,2.113,1.713,3.826,3.826,3.826  h29.846c2.113,0,3.826-1.713,3.826-3.826l0,0C481.294,106.026,479.58,104.312,477.467,104.312z"/>
<g>
	<path style="fill:#41B787;" d="M402.931,127.183c0,4.986-4.043,9.029-9.029,9.029c-4.986,0-9.029-4.043-9.029-9.029   c0-1.659,0.449-3.213,1.233-4.548h15.591C402.483,123.97,402.931,125.524,402.931,127.183z"/>
	<path style="fill:#41B787;" d="M471.573,127.183c0,4.986-4.043,9.029-9.029,9.029c-4.986,0-9.029-4.043-9.029-9.029   c0-1.659,0.449-3.213,1.233-4.548h15.591C471.125,123.97,471.573,125.524,471.573,127.183z"/>
</g>
<g>
	<path style="fill:#E5BFA3;" d="M379.107,104.312c-2.107,0-3.914,1.648-3.953,3.754c-0.04,2.146,1.689,3.897,3.825,3.897h20.969   c8.326,0,15.075,6.749,15.075,15.075v37.349h3.799c4.88,0,8.836-3.956,8.836-8.836v-39.728c0-6.358-5.155-11.512-11.512-11.512   L379.107,104.312L379.107,104.312z"/>
	<path style="fill:#E5BFA3;" d="M438.599,176.892c-8.286,2.73-17.237,2.729-25.523,0c-2.214-0.722-4.744,0.141-5.729,2.215l0,0   c-0.985,2.061,0.374,4.76,3.133,5.665c9.971,3.286,20.743,3.286,30.716,0c2.756-0.908,4.117-3.602,3.134-5.665l0,0   C443.344,177.034,440.814,176.171,438.599,176.892z"/>
	<path style="fill:#E5BFA3;" d="M430.331,192.242h-8.986c-2.291,0-4.148,1.858-4.148,4.148l0,0c0,2.291,1.858,4.148,4.148,4.148   h8.986c2.291,0,4.148-1.858,4.148-4.148l0,0C434.479,194.1,432.622,192.242,430.331,192.242z"/>
</g>
<polygon style="fill:#FFD15C;" points="442.035,401.522 426.321,423.194 409.641,401.522 420.65,267.351 431.021,267.351 "/>
<path style="fill:#EDBB4C;" d="M429.544,269.991h-7.412c-4.411,0-7.985-3.576-7.985-7.985v-9.675c0-4.411,3.576-7.985,7.985-7.985  h7.412c4.411,0,7.985,3.576,7.985,7.985v9.675C437.529,266.416,433.954,269.991,429.544,269.991z"/>
<g>
	<path style="fill:#279FC9;" d="M389.08,224.068l32.975,14.132c3.399,1.457,4.792,5.533,2.997,8.766l-10.679,19.222   c-2.072,3.729-7.191,4.326-10.065,1.173l-27.176-29.806c-2.506-2.748-2.067-7.064,0.94-9.25l4.88-3.548   C384.73,223.463,387.058,223.202,389.08,224.068z"/>
	<path style="fill:#279FC9;" d="M462.596,224.068L429.621,238.2c-3.399,1.457-4.792,5.533-2.997,8.766l10.679,19.222   c2.072,3.729,7.191,4.326,10.066,1.173l27.176-29.806c2.506-2.748,2.067-7.064-0.94-9.25l-4.88-3.548   C466.945,223.463,464.617,223.202,462.596,224.068z"/>
	<polygon style="fill:#279FC9;" points="496.93,317.399 475.245,325.32 453.182,317.399 453.182,302.69 496.93,302.69  "/>
	<polygon style="fill:#279FC9;" points="398.495,317.399 376.808,325.32 354.745,317.399 354.745,302.69 398.495,302.69  "/>
</g>
<path style="fill:#F9EED7;" d="M452.426,353.648h-23.194c-1.562,0-2.829,1.266-2.829,2.829l0,0c0,1.562,1.266,2.829,2.829,2.829  h23.194c1.562,0,2.829-1.266,2.829-2.829l0,0C455.255,354.914,453.988,353.648,452.426,353.648z"/>
<rect x="202.898" y="132.65" style="fill:#E28D40;" width="170.297" height="227.265"/>
<rect x="257.797" y="276.47" style="fill:#F9D6B9;" width="70.831" height="45.541"/>
<path style="fill:#E5BFA3;" d="M276.47,276.47L276.47,276.47l-18.674-0.001v0.001h-0.001v19.257h0.001v19.054h18.674l0,0  c0-6.451,5.373-11.638,11.816-11.335c1.246,0.059,2.498,0.088,3.758,0.088c13.201,0,25.646-3.246,36.581-8.979V276.47H276.47z"/>
<path style="fill:#F9D6B9;" d="M363.603,137.313l-143.113-8.396v87.969c0,43.549,32.037,78.853,71.557,78.853l0,0  c39.52,0,71.557-35.304,71.557-78.853V137.313z"/>
<g>
	<path style="fill:#E5BFA3;" d="M239.534,216.886v-86.852l-19.045-1.117v87.969c0,43.549,32.037,78.853,71.557,78.853l0,0   c3.229,0,6.407-0.24,9.523-0.697C266.551,289.912,239.534,256.878,239.534,216.886z"/>
	<path style="fill:#E5BFA3;" d="M250.656,159.511c0,0,44.536,14.181,86.836,8.954s-7.47-33.411-7.47-33.411l-71.958-4.797   l-10.194,4.797"/>
	<path style="fill:#E5BFA3;" d="M346.773,175.576h-31.637c-2.24,0-4.056,1.816-4.056,4.056l0,0c0,2.24,1.816,4.056,4.056,4.056   h31.637c2.24,0,4.056-1.816,4.056-4.056l0,0C350.83,177.392,349.014,175.576,346.773,175.576z"/>
	<path style="fill:#E5BFA3;" d="M242.509,175.576c-2.233,0-4.148,1.747-4.19,3.98c-0.042,2.275,1.79,4.132,4.055,4.132h22.227   c8.825,0,15.98,7.154,15.98,15.98v31.595h4.027c5.172,0,9.366-4.193,9.366-9.366v-34.117c0-6.74-5.464-12.203-12.203-12.203   h-39.262V175.576z"/>
</g>
<path style="fill:#FF6E7C;" d="M302.462,253.739c-6.802,1.979-14.031,1.979-20.833,0c-1.82-0.525-3.84,0.287-4.561,2.021l0,0  c-0.721,1.727,0.445,3.853,2.666,4.496c8.04,2.34,16.585,2.34,24.624,0c2.22-0.644,3.387-2.769,2.666-4.496l0,0  C306.302,254.026,304.283,253.214,302.462,253.739z"/>
<path style="fill:#E5BFA3;" d="M295.721,265.254h-7.351c-1.875,0-3.394,1.519-3.394,3.394l0,0c0,1.875,1.519,3.394,3.394,3.394  h7.351c1.875,0,3.394-1.519,3.394-3.394l0,0C299.115,266.773,297.595,265.254,295.721,265.254z"/>
<path style="fill:#F4A14E;" d="M388.119,149.007v188.958l-20.393-9.635c0,0,0-69.483,0-89.244s8.976-69.791-46.195-73.388  c-28.337-1.847-48.973-13.504-62.347-24.407c-0.004,0.016-0.011,0.064-0.028,0.144c0,0.004,0,0.004,0,0.004  c-0.451,2.43-7.032,33.65-45.963,36.884v155.021l-17.195,9.059V149.007c0-42.773,27.957-79.013,66.597-91.447h0.004  c9.279-2.99,19.174-4.602,29.448-4.602h0.024C345.117,52.958,388.119,95.959,388.119,149.007z"/>
<path style="fill:#E28D40;" d="M316.119,55.985c-1.839,0.47-3.657,1.003-5.454,1.578c-38.64,12.434-66.602,48.671-66.602,91.439  v17.45c-6.855,5.831-16.729,10.689-30.866,11.87v155.021l-17.199,9.059v-193.4c0-42.768,27.961-79.005,66.602-91.439  c4.639-1.494,9.435-2.644,14.346-3.427c4.921-0.773,9.968-1.181,15.099-1.181h0.031C300.383,52.954,308.439,54.01,316.119,55.985z"/>
<path style="fill:#F9EED7;" d="M406.573,359.298v103.769c-31.295,22.789-67.95,38.661-107.729,45.359  c-4.493,0.763-9.017,1.4-13.594,1.923c-4.681,0.533-9.404,0.94-14.158,1.212l-93.581-58.096v-94.166  c0-7.346,4.127-14.064,10.668-17.387l53.405-27.094l43.666,6.562l3.365,0.502l10.23,1.703l0.199,0.031v7.199l43.468-15.997  l53.394,27.094C402.456,345.233,406.573,351.952,406.573,359.298z"/>
<path style="fill:#E8DBC4;" d="M268.359,317.216l-12.787-2.399l-53.395,27.097c-6.544,3.322-10.671,10.038-10.671,17.383v94.169  h-13.992v-94.169c0-7.344,4.126-14.06,10.671-17.383l53.395-27.097l19.984-6.465L268.359,317.216z"/>
<path style="fill:#FCF8F2;" d="M298.844,320.814v187.611c-4.493,0.763-9.017,1.4-13.594,1.923V320.814H298.844z"/>
<path style="fill:#F9EED7;" d="M301.941,321.08h-16.425v1.335l-0.266-0.114v21.217l5.961-10.73c0.567-1.02,0.836-2.123,0.836-3.207  c0,1.084,0.267,2.183,0.836,3.207l5.961,10.73v-13.937h3.098L301.941,321.08L301.941,321.08z"/>
<g>
	<path style="fill:#FCF8F2;" d="M253.082,300.52l34.953,14.981c3.603,1.544,5.08,5.865,3.177,9.291l-11.319,20.375   c-2.196,3.953-7.623,4.586-10.669,1.244l-28.807-31.595c-2.656-2.913-2.19-7.487,0.997-9.805l5.172-3.762   C248.471,299.878,250.94,299.601,253.082,300.52z"/>
	<path style="fill:#FCF8F2;" d="M331.01,300.52l-34.953,14.981c-3.603,1.544-5.08,5.865-3.176,9.291l11.319,20.375   c2.196,3.953,7.623,4.586,10.669,1.244l28.807-31.595c2.656-2.913,2.19-7.487-0.997-9.805l-5.172-3.762   C335.62,299.878,333.152,299.601,331.01,300.52z"/>
</g>
<g>
	<circle style="fill:#5C5E70;" cx="292.049" cy="337" r="4.398"/>
	<circle style="fill:#5C5E70;" cx="292.049" cy="372.318" r="4.398"/>
	<circle style="fill:#5C5E70;" cx="292.049" cy="407.636" r="4.398"/>
	<circle style="fill:#5C5E70;" cx="292.049" cy="442.953" r="4.398"/>
</g>
<path style="fill:#FFFFFF;" d="M347.744,201.235c0,3.446-2.791,6.24-6.237,6.24h-21.105c-1.723,0-3.282-0.7-4.409-1.828  c-1.132-1.132-1.828-2.691-1.828-4.414c0-1.061,0.264-2.059,0.731-2.934c1.049-1.964,1.327-5.096,3.711-5.096l24.309-0.322  c1.723,0,3.067,3.651,3.431,2.099c0.434-1.843,0.37,2.773,0.661,3.319C347.479,199.174,347.744,200.173,347.744,201.235z"/>
<path style="fill:#34ABE0;" d="M340.524,199.819c0,3.131-1.504,5.913-3.83,7.656h-11.481c-2.327-1.743-3.83-4.525-3.83-7.656  c0-1.759,0.475-3.406,1.307-4.821l8.777-1.557l7.75,1.557C340.048,196.413,340.524,198.06,340.524,199.819z"/>
<path style="fill:#5C5E70;" d="M320.402,194.998h21.105c1.723,0,3.282,0.7,4.409,1.828c0.434,0.434,0.801,0.931,1.093,1.476  c0.466-0.953,0.735-2.02,0.735-3.152c0-3.974-3.221-7.196-7.196-7.196h-19.189c-3.974,0-7.196,3.221-7.196,7.196  c0,1.133,0.269,2.2,0.735,3.154C315.949,196.336,318.018,194.998,320.402,194.998z"/>
<path style="fill:#FFFFFF;" d="M275.149,201.234c0,3.446-2.791,6.24-6.237,6.24h-21.105c-1.723,0-3.282-0.7-4.409-1.828  c-1.132-1.132-1.828-2.691-1.828-4.414c0-1.061,0.264-2.059,0.731-2.934c1.049-1.964,1.327-5.096,3.711-5.096l24.308-0.322  c1.723,0,3.067,3.651,3.431,2.099c0.434-1.843,0.37,2.773,0.661,3.319C274.883,199.174,275.149,200.173,275.149,201.234z"/>
<path style="fill:#34ABE0;" d="M267.929,199.819c0,3.131-1.504,5.913-3.83,7.656h-11.481c-2.327-1.743-3.83-4.525-3.83-7.656  c0-1.759,0.475-3.406,1.307-4.821l8.777-1.557l7.75,1.557C267.452,196.413,267.929,198.06,267.929,199.819z"/>
<path style="fill:#5C5E70;" d="M247.807,194.998h21.105c1.723,0,3.282,0.7,4.409,1.828c0.434,0.434,0.801,0.931,1.093,1.476  c0.466-0.953,0.735-2.02,0.735-3.152c0-3.974-3.221-7.196-7.196-7.196h-19.189c-3.974,0-7.196,3.221-7.196,7.196  c0,1.133,0.269,2.2,0.735,3.154C243.354,196.336,245.422,194.998,247.807,194.998z"/>
<path style="fill:#FF525D;" d="M279.837,482.972v27.93c-2.894,0.272-5.82,0.491-8.746,0.658c-4.995,0.293-10.021,0.439-15.088,0.439  c-42.256,0-82.108-10.23-117.238-28.359c-5.862-3.03-11.598-6.28-17.189-9.738c-3.49-2.152-6.917-4.389-10.282-6.708  c-15.318-10.512-29.435-22.643-42.088-36.153c-1.975-2.09-3.897-4.211-5.789-6.374l0.052-0.021l21.264-2.727l24.033-3.082  l1.703-0.219l19.174-2.456l9.164,1.181h0.01l11.703,1.494h0.01l27.084,3.479l18.213,2.33l1.034,0.522l68.974,35.004  C274.425,464.529,279.837,473.338,279.837,482.972z"/>
<path style="fill:#EF4152;" d="M138.807,417.342l-25.819,3.312l-3.354,0.428l-24.9,3.187l-2.915,0.376l-12.612,6.395  c-1.975-2.09-3.897-4.211-5.789-6.374l0.052-0.021l21.264-2.727l24.033-3.082l1.703-0.219l19.174-2.456L138.807,417.342z"/>
<rect x="84.731" y="374.356" style="fill:#F9D6B9;" width="92.881" height="59.716"/>
<g>
	<circle style="fill:#E5BFA3;" cx="29.383" cy="273.815" r="28.703"/>
	<circle style="fill:#E5BFA3;" cx="229.909" cy="273.815" r="28.703"/>
	<path style="fill:#E5BFA3;" d="M109.219,374.357L109.219,374.357l-24.487-0.001v0.001h-0.001v25.253c0,0,0.001,0,0.001,0.001   v24.986h24.487l0,0c0-8.46,7.045-15.262,15.495-14.864c1.633,0.077,3.277,0.116,4.929,0.116c17.311,0,33.63-4.257,47.968-11.775   v-23.717L109.219,374.357L109.219,374.357z"/>
</g>
<path style="fill:#F9D6B9;" d="M233.048,191.877L26.243,180.868v115.356c0,57.108,46.295,103.402,103.402,103.402l0,0  c57.108,0,103.402-46.295,103.402-103.402V191.877H233.048z"/>
<path style="fill:#E5BFA3;" d="M144.379,133.847l-63.348,5.484c-9.664,0-18.572,3.224-25.718,8.649h-4.287v3.723  c-7.768,7.714-12.58,18.401-12.58,30.213l-16.251,57.861c0,7.532-3.105,13.787,4.048,15.083v41.362  c0,57.108,46.294,103.402,103.402,103.402l0,0c3.855,0,7.657-0.217,11.402-0.629c-51.741-5.677-92-49.52-92-102.773v-61.015  c0-9.542,7.427-17.618,16.961-17.994c0.3-0.011,0.602-0.018,0.905-0.018l0,0c9.73,0,19.2,3.267,26.782,9.365  c9.839,7.915,22.443,14.309,35.952,12.652c26.907-3.301,26.113-21.075,35.952-28.99c7.582-6.099,17.052-9.365,26.782-9.365h0.42  c12.437,0,22.147-4.645,22.165,7.793c0.013,8.373,6.609,46.581,14.983,46.769c4.37,0.098,8.344-1.633,11.193-4.489  c2.773-2.773-0.754-6.606-0.754-10.842l-3.773-14.139L144.379,133.847z"/>
<path style="fill:#C98847;" d="M245.628,188.013v52.089c0,4.236-1.715,8.068-4.488,10.842c-2.852,2.857-6.825,4.587-11.193,4.488  c-8.383-0.189-14.983-7.256-14.983-15.638v-7.874c0-6.238-2.527-11.879-6.616-15.968c-4.09-4.089-9.73-6.616-15.968-6.616  c-9.73,0-19.198,3.266-26.784,9.369c-9.835,7.911-22.338,12.651-35.953,12.651c-13.61,0-26.113-4.74-35.948-12.651  c-1.3-1.048-2.658-2.008-4.063-2.883c-0.016-0.016-0.037-0.026-0.052-0.037c-2.674-1.667-5.515-3.02-8.472-4.052  c-4.54-1.578-9.337-2.396-14.207-2.396c-12.467,0-22.574,10.123-22.574,22.595v8.178c0,4.231-1.715,8.068-4.493,10.842  c-2.773,2.773-6.606,4.488-10.842,4.488c-8.467,0-15.329-6.863-15.329-15.334v-52.089c0-45.61,36.97-82.585,82.579-82.585h66.799  C208.654,105.428,245.628,142.404,245.628,188.013z"/>
<path style="fill:#BA773A;" d="M143.274,105.429c-45.61,0-82.589,36.979-82.589,82.589v22.194  c-9.446,2.696-16.353,11.41-16.353,21.713v8.182c0,4.232-1.714,8.067-4.493,10.846c-2.769,2.769-6.604,4.483-10.836,4.483  c-8.474,0-15.339-6.865-15.339-15.329v-52.088c0-45.61,36.979-82.589,82.589-82.589C96.254,105.429,143.274,105.429,143.274,105.429  z"/>
<path style="fill:#E5BFA3;" d="M107.202,268.891c-0.576,4.766-4.783,8.264-9.583,8.264H72.673c-2.606,0-4.964-1.053-6.674-2.763  c-1.956-1.962-3.063-4.781-2.692-7.846c0.576-4.766,4.782-8.264,9.583-8.264h24.947c2.606,0,4.964,1.053,6.674,2.763  C106.467,263.007,107.572,265.826,107.202,268.891z"/>
<path style="fill:#FFFFFF;" d="M107.202,275.507c-0.576,4.766-4.783,8.264-9.583,8.264H72.673c-2.606,0-4.964-1.053-6.674-2.763  c-1.956-1.962-3.063-4.781-2.692-7.846c0.576-4.766,4.782-8.264,9.583-8.264h24.947c2.606,0,4.964,1.053,6.674,2.763  C106.467,269.623,107.572,272.443,107.202,275.507z"/>
<path style="fill:#E5BFA3;" d="M193.249,258.282h-25.162c-5.211,0-9.436,4.225-9.436,9.435l0,0c0,5.211,4.225,9.435,9.436,9.435  h25.162c5.211,0,9.435-4.225,9.435-9.435l0,0C202.685,262.507,198.46,258.282,193.249,258.282z"/>
<path style="fill:#FFFFFF;" d="M193.249,264.899h-25.162c-5.211,0-9.436,4.225-9.436,9.435l0,0c0,5.211,4.225,9.435,9.436,9.435  h25.162c5.211,0,9.435-4.225,9.435-9.435l0,0C202.685,269.124,198.46,264.899,193.249,264.899z"/>
<path style="fill:#E5BFA3;" d="M201.41,239.431h-41.487c-2.937,0-5.319,2.381-5.319,5.319l0,0c0,2.937,2.381,5.319,5.319,5.319  h41.487c2.937,0,5.319-2.381,5.319-5.319l0,0C206.729,241.812,204.348,239.431,201.41,239.431z"/>
<g>
	<path style="fill:#5C5E70;" d="M97.806,271.221c0,6.931-5.619,12.55-12.55,12.55c-6.931,0-12.55-5.619-12.55-12.55   c0-2.307,0.624-4.467,1.715-6.323h21.672C97.182,266.755,97.806,268.915,97.806,271.221z"/>
	<path style="fill:#5C5E70;" d="M193.218,271.221c0,6.931-5.619,12.55-12.55,12.55s-12.55-5.619-12.55-12.55   c0-2.307,0.624-4.467,1.715-6.323h21.672C192.595,266.755,193.218,268.915,193.218,271.221z"/>
</g>
<g>
	<path style="fill:#E5BFA3;" d="M64.688,239.431c-2.929,0-5.441,2.291-5.494,5.219c-0.054,2.983,2.347,5.418,5.317,5.418h29.146   c11.573,0,20.954,9.382,20.954,20.954v51.916h5.28c6.783,0,12.282-5.499,12.282-12.282v-55.223c0-8.838-7.165-16.002-16.002-16.002   H64.688V239.431z"/>
	<path style="fill:#E5BFA3;" d="M147.384,340.318c-11.518,3.795-23.96,3.795-35.477,0c-3.078-1.003-6.593,0.196-7.963,3.079l0,0   c-1.37,2.868,0.522,6.616,4.354,7.874c13.862,4.567,28.834,4.567,42.695,0c3.834-1.26,5.723-5.007,4.354-7.874l0,0   C153.976,340.516,150.463,339.315,147.384,340.318z"/>
	<path style="fill:#E5BFA3;" d="M135.89,359.617h-12.491c-3.185,0-5.767,2.582-5.767,5.767l0,0c0,3.185,2.582,5.767,5.767,5.767   h12.491c3.185,0,5.767-2.582,5.767-5.767l0,0C141.657,362.199,139.075,359.617,135.89,359.617z"/>
</g>
<path style="fill:#E8DBC4;" d="M138.766,483.64c-5.862-3.03-11.598-6.28-17.189-9.738l0.491-4.451l0.366-3.396h14.42l0.366,3.396  L138.766,483.64z"/>
<path style="fill:#D6C8B0;" d="M134.797,469.727h-10.303c-6.13,0-11.1-4.97-11.1-11.1v-13.449c0-6.13,4.97-11.1,11.1-11.1h10.303  c6.13,0,11.1,4.97,11.1,11.1v13.449C145.897,464.757,140.927,469.727,134.797,469.727z"/>
<g>
	<path style="fill:#EF4152;" d="M129.644,433.506c0,0.188-0.01,0.376-0.021,0.564v0.01c-0.084,1.233-0.439,2.476-1.076,3.636   l-14.158,25.485l-0.679,1.233c-0.627,1.128-1.463,2.058-2.414,2.759c-15.318-10.512-29.435-22.643-42.088-36.153   c-1.975-2.09-3.897-4.211-5.789-6.374c-1.202-1.369-2.393-2.759-3.574-4.169c-0.627-3.197,0.554-6.646,3.406-8.714l6.781-4.932   c2.476-1.797,5.705-2.163,8.516-0.961l6.186,2.654l24.033,10.292l1.369,0.596l2.853,1.223l11.4,4.88   C127.7,426.955,129.644,430.173,129.644,433.506z"/>
	<path style="fill:#EF4152;" d="M180.739,405.893l-45.834,19.644c-4.724,2.025-6.661,7.69-4.165,12.184l14.844,26.719   c2.88,5.184,9.995,6.013,13.991,1.631l37.774-41.43c3.483-3.819,2.872-9.818-1.308-12.857l-6.782-4.933   C186.785,405.053,183.549,404.689,180.739,405.893z"/>
</g>
<g>
</g>
<g>
</g>
<g>
</g>
<g>
</g>
<g>
</g>
<g>
</g>
<g>
</g>
<g>
</g>
<g>
</g>
<g>
</g>
<g>
</g>
<g>
</g>
<g>
</g>
<g>
</g>
<g>
</g>
</svg>
