<?xml version="1.0" encoding="iso-8859-1"?>
<!-- Generator: Adobe Illustrator 19.0.0, SVG Export Plug-In . SVG Version: 6.00 Build 0)  -->
<svg xmlns="http://www.w3.org/2000/svg" xmlns:xlink="http://www.w3.org/1999/xlink" version="1.1" id="Capa_1" x="0px" y="0px" viewBox="0 0 512 512" style="enable-background:new 0 0 512 512;" xml:space="preserve">
<path style="fill:#FF525D;" d="M512,256c0,115.116-75.985,212.49-180.537,244.694C307.608,508.04,282.269,512,256,512  c-11.588,0-22.998-0.773-34.189-2.267C96.59,493.025,0,385.797,0,256C0,114.615,114.615,0,256,0S512,114.615,512,256z"/>
<path style="fill:#D3AE94;" d="M394.507,256.359c3.646,6.269,4.845,13.931,2.805,21.434l-13.303,48.779l-0.011,0.056l-3.174,11.609  l-0.101,0.381l-174.321-12.658c-3.949-0.98-14.263-10.576-23.695-20.043c-10.981-11.021-13.019-28.111-4.907-41.385l4.996-8.174"/>
<rect x="21.285" style="fill:#F9EED7;" width="471.061" height="256.355"/>
<path style="fill:#F9D6B9;" d="M384.01,326.572l-0.01,0.052c-0.47,2.361-1.066,4.702-1.776,7.022l-1.4,4.587l-0.104,0.387  l-49.257,162.074C307.608,508.04,282.269,512,256,512c-11.588,0-22.998-0.773-34.189-2.267v-44.471  c0-15.736-4.733-31.107-13.573-44.116l-7.701-11.316c-5.245-7.711-7.952-16.739-7.952-25.861c0-4.577,0.679-9.174,2.069-13.646  c9.143-29.383,13.782-59.977,13.782-90.739v-57.752c0-10.271,4.169-19.581,10.898-26.321c6.74-6.729,16.039-10.898,26.321-10.898  c20.553,0,37.209,16.666,37.209,37.219v34.523h77.354l1.139,1.034c4.869,4.462,9.049,9.477,12.497,14.89  C384.021,288.266,387.772,307.712,384.01,326.572z"/>
<path style="fill:#E5BFA3;" d="M242.185,509.733v-44.471c0-15.736-4.733-31.107-13.573-44.116l-7.701-11.316  c-5.245-7.711-7.952-16.739-7.952-25.861c0-4.577,0.679-9.174,2.069-13.646c9.143-29.383,13.782-59.977,13.782-90.739v-57.752  c0-10.271,4.169-19.581,10.898-26.321c4.422-4.416,9.952-7.719,16.133-9.474c-3.238-0.921-6.653-1.424-10.187-1.424  c-10.282,0-19.581,4.169-26.321,10.898c-6.729,6.74-10.898,16.05-10.898,26.321v57.751c0,30.762-4.639,61.356-13.782,90.739  c-1.39,4.472-2.069,9.07-2.069,13.646c0,9.122,2.706,18.15,7.952,25.861l7.701,11.316c8.84,13.009,13.573,28.379,13.573,44.116  v44.471C233.002,511.227,244.412,512,256,512c3.432,0,6.849-0.071,10.248-0.206C258.128,511.478,250.1,510.79,242.185,509.733z"/>
<path style="fill:#D6C8B0;" d="M492.345,0h-12.194L256,150.058L31.848,0H21.285v9.279l177.612,118.899L21.285,247.087v9.268h10.585  l179.231-119.996l41.117,27.523c1.149,0.763,2.466,1.139,3.783,1.139c1.317,0,2.633-0.376,3.772-1.139l41.117-27.533  l179.252,120.007h12.204v-8.171L313.093,128.178L492.345,8.182V0z"/>
<path style="fill:#FCF8F2;" d="M265.404,221.8c0-12.119-9.824-21.943-21.943-21.943s-21.943,9.824-21.943,21.943  c0,12.119,9.824,11.494,21.943,11.494S265.404,233.919,265.404,221.8z"/>
<g>
	<path style="fill:#E5BFA3;" d="M296.449,278.027v-21.668h-13.584v21.668c0,21.187,4.857,42.479,14.047,61.571   c1.626,3.38,5.682,4.801,9.066,3.174c3.379-1.627,4.801-5.685,3.173-9.066C300.843,316.441,296.449,297.188,296.449,278.027z"/>
	<path style="fill:#E5BFA3;" d="M373.854,272.279h-0.01c-60.364-17.105-77.396,5.747-74.919,30.73l-16.06-46.655h77.354l1.139,1.034   C366.226,261.851,370.406,266.867,373.854,272.279z"/>
</g>
<g>
</g>
<g>
</g>
<g>
</g>
<g>
</g>
<g>
</g>
<g>
</g>
<g>
</g>
<g>
</g>
<g>
</g>
<g>
</g>
<g>
</g>
<g>
</g>
<g>
</g>
<g>
</g>
<g>
</g>
</svg>
