<?xml version="1.0" encoding="iso-8859-1"?>
<!-- Generator: Adobe Illustrator 19.0.0, SVG Export Plug-In . SVG Version: 6.00 Build 0)  -->
<svg xmlns="http://www.w3.org/2000/svg" xmlns:xlink="http://www.w3.org/1999/xlink" version="1.1" id="Capa_1" x="0px" y="0px" viewBox="0 0 512 512" style="enable-background:new 0 0 512 512;" xml:space="preserve">
<circle style="fill:#34ABE0;" cx="256" cy="255.999" r="255.999"/>
<g>
	<path style="fill:#78CAEF;" d="M507.249,305.371c-10.094,51.66-35.725,97.76-71.826,133.235h-91.679   c-3.678,0-7.011-1.494-9.415-3.908c-2.414-2.414-3.908-5.736-3.908-9.425c0-7.356,5.966-13.322,13.322-13.322h40.5   c3.678,0,7.011-1.484,9.415-3.897c2.414-2.414,3.908-5.736,3.908-9.425c0-7.356-5.966-13.322-13.322-13.322h-11.306   c-3.678,0-7.011-1.494-9.415-3.908c-2.414-2.403-3.908-5.736-3.908-9.415c0-7.356,5.966-13.322,13.322-13.322h37.418   c3.678,0,7.011-1.494,9.425-3.908c2.403-2.403,3.897-5.736,3.897-9.415c0-7.356-5.966-13.322-13.322-13.322h-82.16   c-3.678,0-7.011-1.494-9.415-3.908c-2.414-2.403-3.908-5.736-3.908-9.415c0-7.356,5.966-13.322,13.322-13.322L507.249,305.371   L507.249,305.371z"/>
	<path style="fill:#78CAEF;" d="M202.614,271.447L202.614,271.447c0-7.358-5.965-13.323-13.323-13.323H77.019   c-7.358,0-13.323,5.965-13.323,13.322l0,0c0,7.358,5.965,13.322,13.323,13.322h36.316c7.358,0,13.323,5.965,13.323,13.323l0,0   c0,7.358-5.965,13.322-13.323,13.322h-3.702c-7.358,0-13.323,5.965-13.323,13.323l0,0c0,7.358,5.965,13.322,13.323,13.322h107.604   c7.358,0,13.323-5.965,13.323-13.322l0,0c0-7.358,5.965-13.323,13.323-13.323h3.702c7.358,0,13.322-5.965,13.322-13.322l0,0   c0-7.358-5.965-13.323-13.322-13.323h-31.648C208.578,284.771,202.614,278.805,202.614,271.447z"/>
	<path style="fill:#78CAEF;" d="M292.095,77.531c0,7.356-5.966,13.322-13.333,13.322H152.194c-3.678,0-7.011-1.494-9.415-3.908   c-2.414-2.403-3.908-5.736-3.908-9.415c0-7.367-5.956-13.333-13.322-13.333h-39.1c27.251-24.106,59.674-42.496,95.399-53.29h76.194   c3.678,0,7.011,1.494,9.414,3.897c2.414,2.414,3.908,5.747,3.908,9.425c0,7.356-5.966,13.322-13.322,13.322h-42.935   c-7.356,0-13.322,5.966-13.322,13.322c0,7.367,5.966,13.322,13.322,13.322h63.655c3.678,0,7.022,1.494,9.425,3.908   C290.601,70.52,292.095,73.843,292.095,77.531z"/>
	<path style="fill:#78CAEF;" d="M426.622,176.897v-0.001c0-7.358-5.964-13.322-13.322-13.322h-126.57   c-7.358,0-13.322,5.964-13.322,13.322v0.001c0,7.358,5.964,13.322,13.322,13.322h21.094c7.358,0,13.322,5.964,13.322,13.322v0.001   c0,7.358,5.964,13.322,13.322,13.322h105.475c7.358,0,13.322-5.964,13.322-13.322v-0.001c0-7.358-5.964-13.322-13.322-13.322l0,0   C432.586,190.219,426.622,184.255,426.622,176.897z"/>
	<path style="fill:#78CAEF;" d="M253.141,511.988c-42.642-0.47-82.787-11.358-118-30.26h82.254c7.356,0,13.322,5.966,13.322,13.322   c0,3.678,1.484,7.011,3.897,9.415c2.414,2.414,5.736,3.908,9.425,3.908C247.561,508.373,250.769,509.742,253.141,511.988z"/>
</g>
<path style="fill:#FFD15C;" d="M257.035,413.55v98.44c-0.345,0.01-0.69,0.01-1.034,0.01c-69.36,0-132.263-27.575-178.364-72.369  c-6.802-6.604-13.239-13.584-19.268-20.898c-3.532-4.284-6.928-8.694-10.177-13.197c-4.848-6.719-9.373-13.688-13.573-20.877  c-1.233-2.132-2.456-4.284-3.636-6.457l31.984-16.238l0.94-0.47l18.975-2.435l21.452-2.748l1.526-0.199l17.115-2.194l8.182,1.055  l10.449,1.337l24.179,3.103l16.259,2.079l0.93,0.47l61.565,31.242C252.208,397.093,257.035,404.961,257.035,413.55z"/>
<path style="fill:#EDBB4C;" d="M131.157,354.973l-23.05,2.957l-2.988,0.376l-22.235,2.853l-2.602,0.334l-12.131,6.154  l-33.531,17.011c-1.233-2.132-2.456-4.284-3.636-6.457l31.984-16.238l0.94-0.47l18.975-2.435l21.452-2.748l1.526-0.199l17.115-2.194  L131.157,354.973z"/>
<rect x="82.882" y="316.603" style="fill:#F9D6B9;" width="82.902" height="53.3"/>
<g>
	<circle style="fill:#E5BFA3;" cx="33.479" cy="226.857" r="25.621"/>
	<circle style="fill:#E5BFA3;" cx="212.47" cy="226.857" r="25.621"/>
	<path style="fill:#E5BFA3;" d="M104.742,316.604L104.742,316.604l-21.857-0.001v0.001h-0.001v22.54h0.001v22.302h21.857l0,0   c0-7.55,6.288-13.622,13.83-13.267c1.458,0.069,2.925,0.103,4.399,0.103c15.451,0,30.019-3.799,42.817-10.51v-21.17   L104.742,316.604L104.742,316.604z"/>
</g>
<path style="fill:#F9D6B9;" d="M215.271,153.724l-184.593-9.827v102.966c0,50.974,41.322,92.297,92.297,92.297l0,0  c50.974,0,92.297-41.322,92.297-92.297V153.724z"/>
<path style="fill:#E5BFA3;" d="M136.125,101.927l-56.545,4.895c-8.626,0-16.577,2.878-22.956,7.72h-3.826v3.323  c-6.933,6.886-11.228,16.425-11.228,26.968L27.063,196.48c0,6.723-2.772,12.307,3.613,13.463v36.92  c0,50.974,41.322,92.297,92.297,92.297l0,0c3.44,0,6.835-0.194,10.177-0.561c-46.184-5.067-82.119-44.201-82.119-91.736v-54.461  c0-8.517,6.629-15.726,15.139-16.061c0.267-0.01,0.537-0.016,0.808-0.016l0,0c8.685,0,17.137,2.916,23.905,8.36  c8.782,7.065,20.033,12.772,32.091,11.292c24.017-2.947,23.308-18.811,32.091-25.876c6.768-5.444,15.22-8.36,23.905-8.36h0.374  c11.102,0,19.768-4.145,19.785,6.956c0.012,7.474,5.898,41.578,13.374,41.746c3.901,0.088,7.447-1.458,9.991-4.007  c2.475-2.475-0.674-5.896-0.674-9.677l-3.368-12.62L136.125,101.927z"/>
<path style="fill:#F4A14E;" d="M226.501,150.275v46.495c0,3.781-1.53,7.201-4.005,9.677c-2.545,2.551-6.093,4.095-9.99,4.005  c-7.482-0.168-13.374-6.476-13.374-13.959v-7.028c0-5.568-2.256-10.604-5.906-14.253c-3.65-3.65-8.685-5.906-14.253-5.906  c-8.685,0-17.136,2.915-23.907,8.362c-8.778,7.061-19.939,11.291-32.092,11.291c-12.148,0-23.308-4.23-32.087-11.291  c-1.161-0.936-2.372-1.792-3.627-2.574c-0.014-0.014-0.032-0.023-0.047-0.032c-2.387-1.488-4.923-2.696-7.562-3.617  c-4.052-1.409-8.334-2.139-12.681-2.139c-11.128,0-20.15,9.036-20.15,20.169v7.3c0,3.776-1.53,7.201-4.01,9.677  c-2.475,2.475-5.896,4.005-9.677,4.005c-7.557,0-13.683-6.125-13.683-13.687v-46.495c0-40.711,32.999-73.714,73.71-73.714h59.625  C193.496,76.561,226.501,109.565,226.501,150.275z"/>
<path style="fill:#E28D40;" d="M134.954,76.56c-40.709,0-73.707,33.008-73.707,73.717v19.863  c-8.338,2.456-14.43,10.188-14.43,19.331v7.304c0,3.772-1.526,7.199-4.002,9.676c-2.476,2.476-5.904,4.002-9.676,4.002  c-7.565,0-13.688-6.123-13.688-13.678v-46.498c0-40.709,32.998-73.717,73.707-73.717C93.158,76.56,134.954,76.56,134.954,76.56z"/>
<path style="fill:#FFFFFF;" d="M188.166,227.329c0,4.65-3.772,8.422-8.422,8.422H157.29c-2.33,0-4.43-0.94-5.956-2.466  c-1.526-1.526-2.466-3.626-2.466-5.956c0-4.65,3.772-11.557,8.422-11.557h22.455c1.546,0,2.999,0.418,4.253,1.16  c0.627,0.355,1.191,0.794,1.703,1.306C187.226,219.764,188.166,224.998,188.166,227.329z"/>
<path style="fill:#E5BFA3;" d="M187.032,196.171h-37.031c-2.622,0-4.747,2.125-4.747,4.747l0,0c0,2.622,2.125,4.747,4.747,4.747  h37.031c2.622,0,4.747-2.125,4.747-4.747l0,0C191.78,198.296,189.654,196.171,187.032,196.171z"/>
<path style="fill:#34ABE0;" d="M184.948,222.459c0,6.186-5.016,11.201-11.212,11.201c-6.186,0-11.201-5.016-11.201-11.201  c0-2.058,0.564-3.992,1.536-5.642h15.673c1.546,0,2.999,0.418,4.253,1.16C184.614,219.346,184.948,220.871,184.948,222.459z"/>
<g>
	<path style="fill:#E5BFA3;" d="M64.993,196.171c-2.614,0-4.856,2.045-4.904,4.658c-0.049,2.662,2.095,4.836,4.747,4.836h26.016   c10.33,0,18.704,8.374,18.704,18.704v46.34h4.714c6.054,0,10.963-4.908,10.963-10.963v-49.292c0-7.889-6.395-14.284-14.284-14.284   H64.993V196.171z"/>
	<path style="fill:#E5BFA3;" d="M138.808,286.222c-10.281,3.388-21.386,3.388-31.667,0c-2.748-0.893-5.886,0.176-7.108,2.749l0,0   c-1.22,2.563,0.465,5.904,3.887,7.029c12.373,4.076,25.737,4.077,38.109,0c3.421-1.124,5.109-4.467,3.887-7.029l0,0   C144.696,286.4,141.554,285.327,138.808,286.222z"/>
	<path style="fill:#E5BFA3;" d="M127.117,304.01h-8.286c-2.113,0-3.825,1.713-3.825,3.825l0,0c0,2.113,1.713,3.825,3.825,3.825   h8.286c2.113,0,3.825-1.713,3.825-3.825l0,0C130.943,305.723,129.23,304.01,127.117,304.01z"/>
</g>
<g>
	<path style="fill:#EDBB4C;" d="M77.368,344.754l40.912,17.534c4.217,1.808,5.945,6.865,3.718,10.875l-13.249,23.85   c-2.57,4.627-8.922,5.368-12.489,1.457l-33.718-36.98c-3.109-3.409-2.564-8.764,1.167-11.477l6.054-4.403   C71.971,344.005,74.86,343.68,77.368,344.754z"/>
	<path style="fill:#EDBB4C;" d="M168.581,344.754l-40.912,17.534c-4.217,1.808-5.945,6.865-3.718,10.875l13.249,23.85   c2.57,4.627,8.922,5.368,12.489,1.457l33.718-36.98c3.109-3.409,2.564-8.764-1.167-11.477l-6.054-4.403   C173.978,344.005,171.089,343.68,168.581,344.754z"/>
	<path style="fill:#EDBB4C;" d="M123.459,428.976h-0.969c-4.232,0-7.662-3.43-7.662-7.662v-52.328h16.294v52.328   C131.121,425.545,127.691,428.976,123.459,428.976z"/>
</g>
<path style="fill:#E5BFA3;" d="M157.29,218.907h22.455c1.546,0,2.999,0.418,4.253,1.16c0.627,0.355,1.191,0.794,1.703,1.306  c0.843,0.843,1.499,1.867,1.925,3.004c0.346-0.922,0.544-1.915,0.544-2.957c0-4.652-3.771-8.423-8.423-8.423h-22.46  c-4.652,0-8.423,3.771-8.423,8.423c0,1.043,0.199,2.038,0.545,2.959C150.607,221.186,153.679,218.907,157.29,218.907z"/>
<path style="fill:#FFFFFF;" d="M102.997,227.329c0,4.65-3.772,8.422-8.422,8.422H72.12c-2.33,0-4.43-0.94-5.956-2.466  c-1.526-1.526-2.466-3.626-2.466-5.956c0-4.65,3.772-11.557,8.422-11.557h22.455c1.546,0,2.999,0.418,4.253,1.16  c0.627,0.355,1.191,0.794,1.703,1.306C102.057,219.764,102.997,224.998,102.997,227.329z"/>
<path style="fill:#34ABE0;" d="M99.779,222.459c0,6.186-5.016,11.201-11.212,11.201c-6.186,0-11.201-5.016-11.201-11.201  c0-2.058,0.564-3.992,1.536-5.642h15.673c1.546,0,2.999,0.418,4.253,1.16C99.444,219.346,99.779,220.871,99.779,222.459z"/>
<path style="fill:#E5BFA3;" d="M72.12,218.907h22.455c1.546,0,2.999,0.418,4.253,1.16c0.627,0.355,1.191,0.794,1.703,1.306  c0.843,0.843,1.499,1.867,1.925,3.004c0.346-0.922,0.544-1.915,0.544-2.957c0-4.652-3.771-8.423-8.423-8.423h-22.46  c-4.652,0-8.423,3.771-8.423,8.423c0,1.043,0.199,2.038,0.545,2.959C65.437,221.186,68.509,218.907,72.12,218.907z"/>
<path style="fill:#FF525D;" d="M297.343,204.663V26.319l200.564,73.834c14.264,5.251,14.264,25.425,0,30.676L297.343,204.663z"/>
<path style="fill:#5C5E70;" d="M302.565,10.198v497.579c-6.708,1.233-13.521,2.205-20.396,2.894V10.198  c0-3.48,1.745-6.562,4.409-8.391C288.218,0.658,290.214,0,292.367,0c3.218,0,6.092,1.494,7.952,3.824  C301.729,5.58,302.565,7.795,302.565,10.198z"/>
<g>
</g>
<g>
</g>
<g>
</g>
<g>
</g>
<g>
</g>
<g>
</g>
<g>
</g>
<g>
</g>
<g>
</g>
<g>
</g>
<g>
</g>
<g>
</g>
<g>
</g>
<g>
</g>
<g>
</g>
</svg>
