<?xml version="1.0" encoding="iso-8859-1"?>
<!-- Generator: Adobe Illustrator 19.0.0, SVG Export Plug-In . SVG Version: 6.00 Build 0)  -->
<svg xmlns="http://www.w3.org/2000/svg" xmlns:xlink="http://www.w3.org/1999/xlink" version="1.1" id="Capa_1" x="0px" y="0px" viewBox="0 0 512 512" style="enable-background:new 0 0 512 512;" xml:space="preserve">
<circle style="fill:#F9EED7;" cx="256" cy="256" r="256"/>
<path style="fill:#F4A14E;" d="M489.998,214.485v145.502c-3.229,7.241-6.771,14.315-10.637,21.18  c-12.737,22.674-28.818,43.217-47.585,60.938c-45.85,43.332-107.708,69.893-175.773,69.893  c-87.165,0-164.153-43.562-210.369-110.101c-9.143-13.134-17.063-27.167-23.636-41.932V214.485L489.998,214.485L489.998,214.485z"/>
<g>
	<path style="fill:#E28D40;" d="M489.998,254.191v63.457c-4.524,2.184-9.592,3.417-14.963,3.417H36.961   c-5.36,0-10.439-1.233-14.963-3.417v-63.457H489.998z"/>
	<path style="fill:#E28D40;" d="M130.615,33.801v120.08h248.686V33.801C379.301,15.133,364.168,0,345.5,0H164.418   C145.75,0,130.615,15.133,130.615,33.801z M338.55,40.751v72.379H171.366V40.751H338.55"/>
</g>
<path style="fill:#F4A14E;" d="M475.039,291.808H36.961c-18.961,0-34.332-15.37-34.332-34.332V121.34  c0-18.961,15.37-34.332,34.332-34.332h438.078c18.961,0,34.332,15.37,34.332,34.332v136.137  C509.371,276.437,494,291.808,475.039,291.808z"/>
<path style="fill:#E28D40;" d="M26.658,257.475V121.34c0-18.961,15.37-34.332,34.332-34.332h-24.03  c-18.961,0-34.332,15.37-34.332,34.332v136.137c0,18.961,15.37,34.332,34.332,34.332h24.03  C42.03,291.808,26.658,276.437,26.658,257.475z"/>
<path style="fill:#5C5E70;" d="M160.1,75.166h-47.127c-6.03,0-10.918,4.888-10.918,10.918v357.859  c0,9.85,7.985,17.835,17.835,17.835h33.293c9.85,0,17.835-7.985,17.835-17.835V86.084C171.018,80.054,166.13,75.166,160.1,75.166z"/>
<path style="fill:#FFD15C;" d="M88.994,352.092v69.255c0,7.134,5.782,12.916,12.916,12.916h69.255  c7.134,0,12.916-5.782,12.916-12.916v-69.255c0-7.134-5.782-12.916-12.916-12.916H101.91  C94.776,339.176,88.994,344.958,88.994,352.092z M160.047,410.229h-47.02v-47.02h47.02V410.229z"/>
<path style="fill:#5C5E70;" d="M396.943,75.166h-47.127c-6.03,0-10.918,4.888-10.918,10.918v357.859  c0,9.85,7.985,17.835,17.835,17.835h33.293c9.85,0,17.835-7.985,17.835-17.835V86.084C407.862,80.054,402.973,75.166,396.943,75.166  z"/>
<path style="fill:#FFD15C;" d="M325.838,352.092v69.255c0,7.134,5.782,12.916,12.916,12.916h69.255  c7.134,0,12.916-5.782,12.916-12.916v-69.255c0-7.134-5.782-12.916-12.916-12.916h-69.255  C331.62,339.176,325.838,344.958,325.838,352.092z M396.891,410.229h-47.02v-47.02h47.02V410.229z"/>
<g>
	<path style="fill:#FFDC8D;" d="M136.537,392.379L136.537,392.379c-4.352,0-7.881-3.529-7.881-7.881v-32.087h15.76v32.087   C144.417,388.851,140.889,392.379,136.537,392.379z"/>
	<path style="fill:#FFDC8D;" d="M373.381,392.379L373.381,392.379c-4.352,0-7.881-3.529-7.881-7.881v-32.087h15.76v32.087   C381.26,388.851,377.733,392.379,373.381,392.379z"/>
</g>
<circle style="fill:#C98847;" cx="256" cy="240.953" r="30.65"/>
<path style="fill:#E28D40;" d="M45.634,293.897v108.001c-9.143-13.134-17.063-27.167-23.636-41.932v-66.069H45.634z"/>
<g>
</g>
<g>
</g>
<g>
</g>
<g>
</g>
<g>
</g>
<g>
</g>
<g>
</g>
<g>
</g>
<g>
</g>
<g>
</g>
<g>
</g>
<g>
</g>
<g>
</g>
<g>
</g>
<g>
</g>
</svg>
