<?xml version="1.0" encoding="iso-8859-1"?>
<!-- Generator: Adobe Illustrator 19.0.0, SVG Export Plug-In . SVG Version: 6.00 Build 0)  -->
<svg xmlns="http://www.w3.org/2000/svg" xmlns:xlink="http://www.w3.org/1999/xlink" version="1.1" id="Capa_1" x="0px" y="0px" viewBox="0 0 512.007 512.007" style="enable-background:new 0 0 512.007 512.007;" xml:space="preserve">
<circle style="fill:#279FC9;" cx="255.998" cy="256.004" r="255.998"/>
<path style="fill:#FF525D;" d="M48.838,406.438c6.426,8.829,13.396,17.23,20.866,25.151c10.94,11.598,22.946,22.173,35.861,31.577  l37.094-37.094c7.837-7.826,11.755-18.098,11.755-28.369c0-10.261-3.918-20.522-11.755-28.358  c-15.663-15.663-41.064-15.663-56.727,0L48.838,406.438z"/>
<path style="fill:#EF4152;" d="M105.57,463.169c-8.829-6.426-17.23-13.396-25.151-20.866l39.236-39.236  c11.567-11.567,14.587-28.442,9.059-42.788c5.089,1.954,9.853,4.963,13.949,9.07c7.837,7.826,11.745,18.098,11.745,28.369  c0,10.261-3.908,20.522-11.745,28.358L105.57,463.169z"/>
<circle style="fill:#E8DBC4;" cx="313.154" cy="198.859" r="198.853"/>
<path style="fill:#34ABE0;" d="M200.076,311.927c4.744,4.744,9.707,9.122,14.869,13.145c57.594,44.92,138.856,44.92,196.429-0.01  c5.151-4.023,10.115-8.401,14.848-13.134c62.453-62.443,62.453-163.693,0-226.146c-62.443-62.443-163.693-62.443-226.146,0  C137.633,148.234,137.633,249.485,200.076,311.927z"/>
<path style="fill:#279FC9;" d="M266.632,311.926c-62.447-62.447-62.447-163.695,0-226.142  c22.711-22.711,50.554-37.152,79.795-43.344c-51.164-10.834-106.61,3.608-146.348,43.344c-62.447,62.447-62.447,163.695,0,226.142  c39.737,39.737,95.183,54.18,146.348,43.344C317.186,349.079,289.343,334.637,266.632,311.926z"/>
<path style="fill:#FF525D;" d="M135.466,302.384l74.156,74.156c9.84,9.84,9.84,25.793,0,35.633l0,0c-9.84,9.84-25.793,9.84-35.633,0  l-74.156-74.156c-9.84-9.84-9.84-25.793,0-35.633l0,0C109.673,292.545,125.626,292.545,135.466,302.384z"/>
<path style="fill:#EF4152;" d="M179.233,381.786L179.233,381.786c9.84-9.84,9.84-25.793,0-35.633l30.389,30.389  c9.84,9.84,9.84,25.793,0,35.633l0,0c-9.84,9.84-25.793,9.84-35.633,0L143.6,381.786  C153.439,391.625,169.394,391.625,179.233,381.786z"/>
<path style="fill:#5C5E70;" d="M395.596,138.778v162.188l-12.81-6.05v24.9h-146.17v-18.16l-5.925,3.124V138.778  c0-18.348,5.998-35.307,16.144-49.005c10.146-13.699,24.44-24.147,41.022-29.487c7.973-2.56,16.457-3.95,25.276-3.95h0.021  c2.194,0,4.368,0.084,6.51,0.251c0,0,0,0,0.01,0.01C362.159,59.92,395.596,95.447,395.596,138.778z"/>
<path style="fill:#FFD15C;" d="M214.851,303.192c0,1.296,0.031,10.115,0.094,21.88c37.794,29.476,85.786,39.612,130.58,30.396  c0.303-0.073,0.596-0.136,0.899-0.199c23.144-4.89,45.411-14.963,64.95-30.208c0.052-11.766,0.084-20.574,0.084-21.87  c0-3.156-0.888-6.175-2.487-8.746c-1.578-2.591-3.856-4.744-6.666-6.175l-6.708-3.396l-0.502-0.261  c-16.593-8.411-34.325-14.19-52.548-17.199c-9.686-1.578-19.519-2.393-29.382-2.393c-10.574,0-21.065,0.92-31.409,2.738  c-3.605,0.627-7.189,1.379-10.731,2.226c-10.021,2.393-19.832,5.642-29.32,9.717c-3.553,1.515-7.053,3.156-10.501,4.911  l-0.512,0.261l-6.687,3.396C218.372,291.122,214.851,296.89,214.851,303.192z"/>
<path style="fill:#E5BFA3;" d="M344.532,239.249v30.862c0,16.788-13.61,30.397-30.397,30.397l0,0  c-16.788,0-30.397-13.61-30.397-30.397v-30.862L344.532,239.249L344.532,239.249z"/>
<path style="fill:#F9D6B9;" d="M338.442,153.106c-24.322-1.585-42.035-11.591-53.513-20.949c-0.003,0.014-0.01,0.055-0.024,0.123  c0,0.003,0,0.003,0,0.003c-0.363,1.949-5.32,25.441-33.189,30.8v33.958c0,37.38,27.498,67.682,61.419,67.682l0,0  c33.92,0,61.419-30.302,61.419-67.682V175.32C369.794,163.868,359.646,154.488,338.442,153.106z"/>
<path style="fill:#E5BFA3;" d="M282.801,197.043v-58.167c-3.361,7.918-11.647,20.47-31.084,24.209v33.958  c0,37.38,27.498,67.682,61.419,67.682l0,0c5.37,0,10.577-0.764,15.542-2.191C302.284,254.947,282.801,228.504,282.801,197.043z"/>
<path style="fill:#494B5B;" d="M266.635,85.781c12.058-12.058,25.579-21.796,39.978-29.184  c-42.485,3.323-75.922,38.849-75.922,82.181v1.954C238.486,120.712,250.471,101.946,266.635,85.781z"/>
<path style="fill:#EDBB4C;" d="M214.851,303.192c0,1.296,0.031,10.115,0.094,21.88c37.794,29.476,85.786,39.612,130.58,30.396  c0.303-0.073,0.596-0.136,0.899-0.199c-25.694-5.433-50.312-17.251-71.314-35.453c-2.894-2.508-5.726-5.141-8.474-7.889  c-9.874-9.874-18.181-20.72-24.931-32.224c-3.553,1.515-7.053,3.156-10.501,4.911l-0.512,0.261l-6.687,3.396  C218.372,291.122,214.851,296.89,214.851,303.192z"/>
<path style="fill:#797B89;" d="M381.229,174.743c0,10.773,5.757,20.198,14.367,25.37v-50.729  C386.986,154.546,381.229,163.971,381.229,174.743z"/>
<g>
</g>
<g>
</g>
<g>
</g>
<g>
</g>
<g>
</g>
<g>
</g>
<g>
</g>
<g>
</g>
<g>
</g>
<g>
</g>
<g>
</g>
<g>
</g>
<g>
</g>
<g>
</g>
<g>
</g>
</svg>
