<?xml version="1.0" encoding="iso-8859-1"?>
<!-- Generator: Adobe Illustrator 19.0.0, SVG Export Plug-In . SVG Version: 6.00 Build 0)  -->
<svg xmlns="http://www.w3.org/2000/svg" xmlns:xlink="http://www.w3.org/1999/xlink" version="1.1" id="Capa_1" x="0px" y="0px" viewBox="0 0 511.998 511.998" style="enable-background:new 0 0 511.998 511.998;" xml:space="preserve">
<circle style="fill:#C98847;" cx="255.999" cy="255.999" r="255.999"/>
<path style="fill:#BA773A;" d="M330.09,409.654C211.264,375.256,108.349,284.545,33.389,178.039  c-4.901-6.959-9.467-13.855-13.699-20.668c0.993-2.361,2.006-4.702,3.062-7.022c19.404-42.757,50.207-79.245,88.555-105.555  c6.311-4.336,12.821-8.39,19.529-12.152c9.435-5.308,19.247-10.021,29.372-14.117c51.66,19.675,106.987,55.066,154.216,106.151  c15.893,17.178,30.459,35.035,43.363,53.363C432.747,284.545,400.495,375.256,330.09,409.654z"/>
<path style="fill:#FF525D;" d="M486.493,124.678c-36.708-166.235-276.099-166.235-312.807,0  c-3.794,17.182-5.795,35.038-5.795,53.362c0,106.504,67.582,197.218,162.198,231.614c94.616-34.396,162.198-125.11,162.198-231.614  C492.288,159.716,490.287,141.86,486.493,124.678z"/>
<path style="fill:#EF4152;" d="M330.09,409.651c-94.615-34.398-162.199-125.105-162.199-231.611c0-18.327,2.006-36.185,5.799-53.363  C192.039,41.555,261.065,0,330.09,0c-49.026,0-98.053,41.555-111.093,124.677c-2.696,17.178-4.117,35.035-4.117,53.363  C214.88,284.545,262.883,375.253,330.09,409.651z"/>
<path style="fill:#FFD15C;" d="M420.428,155.46c0,20.846-7.063,40.03-18.923,55.317c-4.66,6.008-10.062,11.41-16.07,16.081  c-15.287,11.87-34.492,18.933-55.348,18.933c-20.856,0-40.051-7.063-55.338-18.933c-21.295-16.52-34.993-42.36-34.993-71.398  c0-49.894,40.437-90.342,90.331-90.342c0.93,0,1.849,0.01,2.769,0.052C381.474,66.623,420.428,106.497,420.428,155.46z"/>
<path style="fill:#5C5E70;" d="M376.98,126.224c0-25.89-20.987-46.877-46.877-46.877h-0.011c-5.014,0-9.844,0.787-14.373,2.245  h-0.002c-18.858,6.068-32.502,23.756-32.502,44.632v94.388l3.367-1.774v10.325h83.116v-14.157l7.283,3.441V126.224z"/>
<path style="fill:#494B5B;" d="M307.248,220.612v-94.388c0-20.876,13.644-38.563,32.502-44.632h0.002  c0.778-0.251,1.569-0.474,2.366-0.685c-3.835-1.014-7.86-1.561-12.014-1.561h-0.011c-5.014,0-9.844,0.787-14.373,2.245h-0.002  c-18.858,6.068-32.502,23.756-32.502,44.632v94.388l3.367-1.774v10.325h24.033v-10.325L307.248,220.612z"/>
<path style="fill:#34ABE0;" d="M385.988,219.711c0,2.435-0.188,4.817-0.554,7.147c-15.287,11.87-34.492,18.933-55.348,18.933  c-20.856,0-40.051-7.063-55.338-18.933c-0.366-2.33-0.554-4.712-0.554-7.147c0-1.797,0.502-3.511,1.411-4.974  c0.899-1.473,2.194-2.696,3.793-3.511l3.814-1.933l0.282-0.146c9.435-4.786,19.519-8.067,29.884-9.78  c5.507-0.899,11.097-1.358,16.708-1.358c6.008,0,11.974,0.522,17.857,1.557c2.048,0.355,4.086,0.784,6.102,1.264  c7.826,1.87,15.423,4.65,22.643,8.317l0.293,0.146l3.803,1.933C383.982,212.846,385.988,216.127,385.988,219.711z"/>
<path style="fill:#E5BFA3;" d="M347.943,183.353v17.549c0,9.546-7.738,17.285-17.285,17.285l0,0  c-9.546,0-17.285-7.738-17.285-17.285v-17.549L347.943,183.353L347.943,183.353z"/>
<path style="fill:#F9D6B9;" d="M344.482,134.37c-13.83-0.902-23.902-6.591-30.428-11.912c-0.002,0.007-0.006,0.031-0.014,0.07  c0,0.002,0,0.002,0,0.002c-0.206,1.108-3.025,14.466-18.872,17.513v19.309c0,21.254,15.636,38.484,34.923,38.484l0,0  c19.288,0,34.923-17.23,34.923-38.484v-12.351C362.309,140.49,356.539,135.156,344.482,134.37z"/>
<path style="fill:#E5BFA3;" d="M312.843,159.354V126.28c-1.911,4.502-6.623,11.64-17.675,13.765v19.309  c0,21.254,15.636,38.484,34.923,38.484l0,0c3.053,0,6.014-0.435,8.838-1.246C323.921,192.279,312.843,177.243,312.843,159.354z"/>
<g>
</g>
<g>
</g>
<g>
</g>
<g>
</g>
<g>
</g>
<g>
</g>
<g>
</g>
<g>
</g>
<g>
</g>
<g>
</g>
<g>
</g>
<g>
</g>
<g>
</g>
<g>
</g>
<g>
</g>
</svg>
