<?xml version="1.0" encoding="iso-8859-1"?>
<!-- Generator: Adobe Illustrator 19.0.0, SVG Export Plug-In . SVG Version: 6.00 Build 0)  -->
<svg xmlns="http://www.w3.org/2000/svg" xmlns:xlink="http://www.w3.org/1999/xlink" version="1.1" id="Capa_1" x="0px" y="0px" viewBox="0 0 511.999 511.999" style="enable-background:new 0 0 511.999 511.999;" xml:space="preserve">
<circle style="fill:#34ABE0;" cx="255.999" cy="255.999" r="255.999"/>
<path style="fill:#C98847;" d="M496.967,342.642c-26.77,74.449-87.071,132.911-162.68,157.163V363.331  c0-5.914,3.323-11.327,8.6-14.002l42.987-21.817l35.014-4.483l5.632-0.721l40.636,5.204L496.967,342.642z"/>
<rect x="397.06" y="296.635" style="fill:#F9D6B9;" width="57.041" height="36.676"/>
<g>
	<circle style="fill:#E5BFA3;" cx="482.01" cy="234.893" r="17.626"/>
	<circle style="fill:#E5BFA3;" cx="371.032" cy="234.893" r="17.626"/>
	<path style="fill:#E5BFA3;" d="M439.06,296.633L439.06,296.633h15.037l0,0h0.001v15.507h-0.001v15.343H439.06l0,0   c0-5.194-4.326-9.372-9.515-9.127c-1.003,0.047-2.011,0.071-3.026,0.071c-10.63,0-20.651-2.614-29.457-7.231v-14.564H439.06z"/>
</g>
<path style="fill:#F9D6B9;" d="M363.02,154.252h126.995v94.401c0,35.069-28.428,63.497-63.497,63.497l0,0  c-35.069,0-63.497-28.428-63.497-63.497L363.02,154.252L363.02,154.252z"/>
<path style="fill:#E5BFA3;" d="M370.513,130.771c0.192-0.037,0.388-0.063,0.583-0.079c1.839-0.162,3.651,0.529,4.995,1.795  c0.961,0.906,2.19,2.042,3.026,2.733c10.717,8.876,24.307,13.722,38.353,13.722h54.119c5.934,0,11.405,1.98,15.794,5.311h2.632  v2.286c4.77,4.738,7.725,11.299,7.725,18.553v38.899c0,4.625-3.332,8.467-7.725,9.262v25.4c0,35.069-28.428,63.497-63.497,63.497  l0,0c-2.367,0-4.702-0.134-7.002-0.386c31.773-3.486,56.495-30.41,56.495-63.112v-37.468c0-5.86-4.561-10.819-10.416-11.05  c-0.184-0.007-0.37-0.01-0.556-0.01l0,0c-5.975,0-11.791,2.006-16.446,5.751c-6.042,4.86-13.782,8.787-22.078,7.769  c-16.523-2.027-16.036-12.941-22.078-17.802c-4.656-3.745-10.471-5.751-16.446-5.751h-0.258c-7.637,0-13.6-2.852-13.612,4.786  c-0.007,5.142-4.058,28.604-9.2,28.72c-2.683,0.061-5.123-1.003-6.873-2.756c-1.703-1.703-2.755-4.056-2.755-6.657v-64.814  C355.295,140.339,361.639,132.452,370.513,130.771z"/>
<path style="fill:#494B5B;" d="M355.295,144.54v80.933c0,2.601,1.052,4.955,2.755,6.657c1.751,1.754,4.191,2.817,6.873,2.755  c5.147-0.116,9.2-4.455,9.2-9.604v-16.119c0-3.831,1.552-7.294,4.063-9.806c2.511-2.511,5.975-4.063,9.806-4.063  c5.975,0,11.79,2.005,16.448,5.753c6.039,4.858,13.717,7.768,22.078,7.768c8.357,0,16.035-2.91,22.074-7.768  c0.798-0.644,1.632-1.233,2.495-1.771c0.009-0.009,0.023-0.016,0.032-0.023c1.642-1.024,3.387-1.855,5.203-2.489  c2.785-0.969,5.73-1.471,8.718-1.471c7.659,0,13.869,6.21,13.869,13.869v16.312c0,2.598,1.052,4.955,2.759,6.657  c1.703,1.703,4.056,2.755,6.657,2.755c5.199,0,9.413-4.214,9.413-9.417v-55.211c0-14.441-11.709-26.151-26.151-26.151h-54.119  c-14.045,0-27.634-4.845-38.352-13.721c-0.837-0.692-2.067-1.829-3.026-2.733c-1.346-1.269-3.158-1.957-4.997-1.796  c-0.193,0.016-0.39,0.042-0.583,0.08C361.641,127.624,355.295,135.51,355.295,144.54z"/>
<path style="fill:#797B89;" d="M366.883,166.807L366.883,166.807c2.667,0,4.828-2.162,4.828-4.828v-16.417  c0-2.667-2.162-4.828-4.828-4.828l0,0c-2.667,0-4.828,2.162-4.828,4.828v16.417C362.054,164.645,364.216,166.807,366.883,166.807z"/>
<path style="fill:#E5BFA3;" d="M440.299,231.869c0.354,2.927,2.936,5.075,5.885,5.075h15.319c1.6,0,3.049-0.647,4.098-1.697  c1.202-1.205,1.881-2.936,1.653-4.818c-0.354-2.927-2.936-5.075-5.885-5.075H446.05c-1.6,0-3.049,0.647-4.098,1.697  C440.751,228.255,440.071,229.987,440.299,231.869z"/>
<path style="fill:#797B89;" d="M366.883,185.639L366.883,185.639c2.667,0,4.828-2.162,4.828-4.828v-3.38  c0-2.667-2.162-4.828-4.828-4.828l0,0c-2.667,0-4.828,2.162-4.828,4.828v3.38C362.054,183.477,364.216,185.639,366.883,185.639z"/>
<path style="fill:#FFFFFF;" d="M440.299,235.932c0.354,2.927,2.936,5.075,5.885,5.075h15.319c1.6,0,3.049-0.647,4.098-1.697  c1.202-1.205,1.881-2.936,1.653-4.818c-0.354-2.927-2.936-5.075-5.885-5.075H446.05c-1.6,0-3.049,0.647-4.098,1.697  C440.751,232.319,440.071,234.05,440.299,235.932z"/>
<path style="fill:#E5BFA3;" d="M387.46,225.355h15.452c3.201,0,5.794,2.594,5.794,5.794l0,0c0,3.201-2.594,5.794-5.794,5.794H387.46  c-3.201,0-5.794-2.594-5.794-5.794l0,0C381.665,227.948,384.259,225.355,387.46,225.355z"/>
<path style="fill:#FFFFFF;" d="M387.46,229.417h15.452c3.201,0,5.794,2.594,5.794,5.794l0,0c0,3.201-2.594,5.794-5.794,5.794H387.46  c-3.201,0-5.794-2.594-5.794-5.794l0,0C381.665,232.012,384.259,229.417,387.46,229.417z"/>
<path style="fill:#E5BFA3;" d="M382.448,213.778h25.477c1.804,0,3.266,1.462,3.266,3.266l0,0c0,1.803-1.462,3.266-3.266,3.266  h-25.477c-1.803,0-3.266-1.462-3.266-3.266l0,0C379.181,215.24,380.644,213.778,382.448,213.778z"/>
<g>
	<path style="fill:#41B787;" d="M446.07,233.3c0,4.256,3.451,7.707,7.707,7.707s7.707-3.451,7.707-7.707   c0-1.417-0.383-2.743-1.052-3.883h-13.309C446.453,230.557,446.07,231.883,446.07,233.3z"/>
	<path style="fill:#41B787;" d="M387.479,233.3c0,4.256,3.451,7.707,7.707,7.707s7.707-3.451,7.707-7.707   c0-1.417-0.383-2.743-1.052-3.883h-13.309C387.861,230.557,387.479,231.883,387.479,233.3z"/>
</g>
<g>
	<path style="fill:#E5BFA3;" d="M466.407,213.778c1.798,0,3.341,1.406,3.374,3.205c0.033,1.832-1.441,3.327-3.265,3.327h-17.898   c-7.106,0-12.868,5.762-12.868,12.868v31.881h-3.242c-4.165,0-7.542-3.377-7.542-7.542v-33.911c0-5.427,4.399-9.826,9.826-9.826   h31.615V213.778z"/>
	<path style="fill:#E5BFA3;" d="M415.624,275.731c7.073,2.33,14.713,2.33,21.786,0c1.89-0.616,4.049,0.122,4.89,1.891l0,0   c0.839,1.763-0.32,4.062-2.674,4.836c-8.512,2.804-17.706,2.804-26.219,0c-2.353-0.773-3.514-3.073-2.674-4.836l0,0   C411.575,275.852,413.734,275.115,415.624,275.731z"/>
	<path style="fill:#E5BFA3;" d="M422.682,289.599h7.671c1.956,0,3.541,1.585,3.541,3.541l0,0c0,1.956-1.585,3.541-3.541,3.541   h-7.671c-1.956,0-3.541-1.585-3.541-3.541l0,0C419.141,291.184,420.726,289.599,422.682,289.599z"/>
</g>
<path style="fill:#FFD15C;" d="M436.854,437.163c-6.949,6.959-14.315,13.521-22.047,19.634l7.283-103.852h8.861L436.854,437.163z"/>
<path style="fill:#EDBB4C;" d="M423.354,355.199h6.327c3.765,0,6.816-3.052,6.816-6.816v-8.259c0-3.765-3.052-6.816-6.816-6.816  h-6.327c-3.765,0-6.816,3.052-6.816,6.816v8.259C416.537,352.147,419.589,355.199,423.354,355.199z"/>
<g>
	<path style="fill:#BA773A;" d="M457.893,315.999l-28.146,12.063c-2.902,1.243-4.091,4.723-2.558,7.481l9.115,16.408   c1.768,3.183,6.138,3.693,8.591,1.002l23.197-25.441c2.139-2.346,1.764-6.029-0.804-7.896l-4.165-3.029   C461.606,315.483,459.618,315.26,457.893,315.999z"/>
	<path style="fill:#BA773A;" d="M395.141,315.999l28.146,12.063c2.902,1.243,4.091,4.723,2.558,7.481l-9.115,16.408   c-1.768,3.183-6.138,3.693-8.591,1.002l-23.197-25.441c-2.139-2.346-1.764-6.029,0.804-7.896l4.165-3.029   C391.428,315.483,393.416,315.26,395.141,315.999z"/>
	<polygon style="fill:#BA773A;" points="365.834,395.665 384.345,402.426 403.177,395.665 403.177,383.11 365.834,383.11  "/>
	<path style="fill:#BA773A;" d="M478.253,383.111c-3.657,6.395-7.586,12.601-11.766,18.63l-16.635-6.071v-12.56H478.253z"/>
</g>
<path style="fill:#F9EED7;" d="M403.822,426.607h19.798c1.333,0,2.415,1.08,2.415,2.415l0,0c0,1.333-1.081,2.415-2.415,2.415  h-19.798c-1.333,0-2.415-1.08-2.415-2.415l0,0C401.408,427.687,402.489,426.607,403.822,426.607z"/>
<path style="fill:#FF525D;" d="M177.71,363.331v136.474C102.101,475.543,41.8,417.081,15.04,342.632l29.8-15.12l40.636-5.204  l5.632,0.721h0.01l35.004,4.483l42.997,21.817C174.387,352.004,177.71,357.417,177.71,363.331z"/>
<path style="fill:#EF4152;" d="M91.109,323.03l-34.994,4.483l-39.288,19.937c-0.606-1.599-1.202-3.208-1.787-4.817l29.8-15.12  l40.636-5.204L91.109,323.03z"/>
<rect x="57.898" y="296.635" style="fill:#F9D6B9;" width="57.041" height="36.676"/>
<g>
	<circle style="fill:#E5BFA3;" cx="23.916" cy="234.893" r="17.626"/>
	<circle style="fill:#E5BFA3;" cx="147.048" cy="234.893" r="17.626"/>
	<path style="fill:#E5BFA3;" d="M72.94,296.633L72.94,296.633H57.903l0,0h-0.001v15.507h0.001v15.343H72.94l0,0   c0-5.194,4.326-9.372,9.515-9.127c1.003,0.047,2.011,0.071,3.026,0.071c10.63,0,20.651-2.614,29.457-7.231v-14.564H72.94z"/>
</g>
<path style="fill:#F9D6B9;" d="M148.98,184.576l-126.995-6.76v70.838c0,35.069,28.428,63.497,63.497,63.497l0,0  c35.069,0,63.497-28.428,63.497-63.497V184.576z"/>
<path style="fill:#E5BFA3;" d="M94.531,148.942l-38.901,3.368c-5.934,0-11.405,1.98-15.794,5.311h-2.632v2.286  c-4.77,4.738-7.725,11.299-7.725,18.553l-9.98,35.532c0,4.625-1.907,8.467,2.486,9.262v25.4c0,35.069,28.428,63.497,63.497,63.497  l0,0c2.367,0,4.702-0.134,7.002-0.386c-31.773-3.486-56.495-30.41-56.495-63.112v-37.468c0-5.86,4.561-10.819,10.416-11.05  c0.184-0.007,0.37-0.01,0.556-0.01l0,0c5.975,0,11.791,2.006,16.446,5.751c6.042,4.86,13.782,8.787,22.078,7.769  c16.523-2.027,16.036-12.941,22.078-17.802c4.656-3.745,10.471-5.751,16.446-5.751h0.258c7.637,0,13.6-2.852,13.612,4.786  c0.007,5.142,4.058,28.604,9.2,28.72c2.683,0.061,5.123-1.003,6.873-2.756c1.703-1.703-0.464-4.056-0.464-6.657l-2.317-8.682"/>
<path style="fill:#C98847;" d="M156.706,182.204v31.987c0,2.601-1.052,4.955-2.755,6.657c-1.751,1.754-4.191,2.817-6.873,2.755  c-5.147-0.116-9.2-4.455-9.2-9.604v-4.836c0-3.831-1.552-7.294-4.063-9.806c-2.511-2.511-5.975-4.063-9.806-4.063  c-5.975,0-11.79,2.005-16.448,5.753c-6.039,4.858-13.717,7.768-22.078,7.768c-8.357,0-16.035-2.91-22.074-7.768  c-0.798-0.644-1.632-1.233-2.495-1.771c-0.009-0.009-0.023-0.016-0.032-0.023c-1.642-1.024-3.387-1.855-5.203-2.489  c-2.788-0.969-5.733-1.471-8.724-1.471c-7.656,0-13.863,6.216-13.863,13.875v5.022c0,2.598-1.052,4.955-2.759,6.657  c-1.703,1.703-4.056,2.755-6.657,2.755c-5.199,0-9.413-4.214-9.413-9.417V182.2c0-28.007,22.702-50.714,50.711-50.714h41.021  C134.001,131.49,156.706,154.195,156.706,182.204z"/>
<path style="fill:#BA773A;" d="M102.608,131.49c-28.003,0-50.709,22.706-50.709,50.709v13.573c-1.63-0.313-3.281-0.47-4.953-0.47  c-7.649,0-13.855,6.207-13.855,13.866v5.026c0,2.602-1.055,4.953-2.759,6.656c-1.703,1.703-4.065,2.759-6.666,2.759  c-5.193,0-9.404-4.211-9.404-9.415v-31.995c0-28.003,22.695-50.709,50.709-50.709L102.608,131.49L102.608,131.49z"/>
<path style="fill:#E5BFA3;" d="M71.701,231.869c-0.354,2.927-2.936,5.075-5.885,5.075H50.497c-1.6,0-3.049-0.647-4.098-1.697  c-1.202-1.205-1.881-2.936-1.653-4.818c0.354-2.927,2.936-5.075,5.885-5.075H65.95c1.6,0,3.049,0.647,4.098,1.697  C71.249,228.255,71.929,229.987,71.701,231.869z"/>
<path style="fill:#FFFFFF;" d="M71.701,235.932c-0.354,2.927-2.936,5.075-5.885,5.075H50.497c-1.6,0-3.049-0.647-4.098-1.697  c-1.202-1.205-1.881-2.936-1.653-4.818c0.354-2.927,2.936-5.075,5.885-5.075H65.95c1.6,0,3.049,0.647,4.098,1.697  C71.249,232.319,71.929,234.05,71.701,235.932z"/>
<path style="fill:#E5BFA3;" d="M124.54,225.355h-15.452c-3.201,0-5.794,2.594-5.794,5.794l0,0c0,3.201,2.594,5.794,5.794,5.794  h15.452c3.201,0,5.794-2.594,5.794-5.794l0,0C130.335,227.948,127.741,225.355,124.54,225.355z"/>
<path style="fill:#FFFFFF;" d="M124.54,229.417h-15.452c-3.201,0-5.794,2.594-5.794,5.794l0,0c0,3.201,2.594,5.794,5.794,5.794  h15.452c3.201,0,5.794-2.594,5.794-5.794l0,0C130.335,232.012,127.741,229.417,124.54,229.417z"/>
<path style="fill:#E5BFA3;" d="M129.552,213.778h-25.476c-1.803,0-3.266,1.462-3.266,3.266l0,0c0,1.803,1.462,3.266,3.266,3.266  h25.477c1.803,0,3.266-1.462,3.266-3.266l0,0C132.819,215.24,131.356,213.778,129.552,213.778z"/>
<g>
	<path style="fill:#5C5E70;" d="M65.931,233.3c0,4.256-3.451,7.707-7.707,7.707s-7.707-3.451-7.707-7.707   c0-1.417,0.383-2.743,1.052-3.883h13.309C65.547,230.557,65.931,231.883,65.931,233.3z"/>
	<path style="fill:#5C5E70;" d="M124.521,233.3c0,4.256-3.451,7.707-7.707,7.707c-4.256,0-7.707-3.451-7.707-7.707   c0-1.417,0.383-2.743,1.052-3.883h13.309C124.139,230.557,124.521,231.883,124.521,233.3z"/>
</g>
<g>
	<path style="fill:#E5BFA3;" d="M45.594,213.778c-1.798,0-3.341,1.406-3.374,3.205c-0.033,1.832,1.441,3.327,3.265,3.327h17.898   c7.106,0,12.868,5.762,12.868,12.868v31.881h3.242c4.165,0,7.542-3.377,7.542-7.542v-33.911c0-5.427-4.399-9.826-9.826-9.826   H45.594V213.778z"/>
	<path style="fill:#E5BFA3;" d="M96.376,275.731c-7.073,2.33-14.713,2.33-21.786,0c-1.89-0.616-4.049,0.122-4.89,1.891l0,0   c-0.839,1.763,0.32,4.062,2.674,4.836c8.512,2.804,17.706,2.804,26.219,0c2.353-0.773,3.514-3.073,2.674-4.836l0,0   C100.426,275.852,98.266,275.115,96.376,275.731z"/>
	<path style="fill:#E5BFA3;" d="M89.318,289.599h-7.671c-1.956,0-3.541,1.585-3.541,3.541l0,0c0,1.956,1.585,3.541,3.541,3.541   h7.671c1.956,0,3.541-1.585,3.541-3.541l0,0C92.859,291.184,91.274,289.599,89.318,289.599z"/>
</g>
<path style="fill:#E8DBC4;" d="M97.2,456.808c-7.732-6.123-15.099-12.685-22.047-19.644l5.904-84.219h8.85L97.2,456.808z"/>
<path style="fill:#D6C8B0;" d="M88.646,355.199h-6.327c-3.765,0-6.816-3.052-6.816-6.816v-8.259c0-3.765,3.052-6.816,6.816-6.816  h6.327c3.765,0,6.816,3.052,6.816,6.816v8.259C95.463,352.147,92.411,355.199,88.646,355.199z"/>
<g>
	<path style="fill:#EF4152;" d="M54.107,315.999l28.146,12.063c2.901,1.243,4.091,4.723,2.558,7.481l-9.115,16.408   c-1.768,3.183-6.138,3.693-8.591,1.002l-23.197-25.441c-2.139-2.346-1.764-6.029,0.804-7.896l4.165-3.029   C50.394,315.483,52.382,315.26,54.107,315.999z"/>
	<path style="fill:#EF4152;" d="M116.859,315.999l-28.146,12.063c-2.901,1.243-4.091,4.723-2.558,7.481l9.115,16.408   c1.768,3.183,6.138,3.693,8.591,1.002l23.197-25.441c2.139-2.346,1.764-6.029-0.804-7.896l-4.165-3.029   C120.572,315.483,118.584,315.26,116.859,315.999z"/>
</g>
<rect x="138.093" y="105.409" style="fill:#494B5B;" width="225.238" height="300.575"/>
<rect x="210.703" y="295.611" style="fill:#F9D6B9;" width="93.675" height="60.23"/>
<path style="fill:#E5BFA3;" d="M235.399,295.61L235.399,295.61l-24.697-0.001v0.001h-0.001v25.469c0,0,0.001,0,0.001,0.001v25.2  h24.697l0,0c0-8.532,7.105-15.392,15.627-14.991c1.647,0.077,3.304,0.117,4.971,0.117c17.459,0,33.918-4.293,48.38-11.875V295.61  H235.399z"/>
<path style="fill:#F9D6B9;" d="M350.639,111.566l-189.278-11.103v116.345c0,57.598,42.372,104.289,94.638,104.289l0,0  c52.268,0,94.638-46.692,94.638-104.289V111.566H350.639z"/>
<g>
	<path style="fill:#E5BFA3;" d="M186.55,216.808V101.94l-25.189-1.477v116.345c0,57.598,42.372,104.289,94.638,104.289l0,0   c4.27,0,8.474-0.318,12.594-0.922C222.282,313.388,186.55,269.699,186.55,216.808z"/>
	<path style="fill:#E5BFA3;" d="M201.259,140.924c0,0,58.901,18.756,114.847,11.842c55.946-6.914-9.879-44.188-9.879-44.188   l-95.169-6.345l-13.482,6.345"/>
	<path style="fill:#E5BFA3;" d="M328.382,162.172h-41.843c-2.962,0-5.365,2.401-5.365,5.365l0,0c0,2.962,2.401,5.364,5.365,5.364   h41.843c2.962,0,5.365-2.401,5.365-5.364l0,0C333.745,164.573,331.344,162.172,328.382,162.172z"/>
	<path style="fill:#E5BFA3;" d="M190.486,162.172c-2.954,0-5.487,2.31-5.541,5.263c-0.055,3.008,2.368,5.465,5.363,5.465h29.397   c11.673,0,21.134,9.463,21.134,21.134v41.786h5.326c6.841,0,12.387-5.546,12.387-12.387v-45.122   c0-8.914-7.225-16.139-16.139-16.139H190.486z"/>
</g>
<path style="fill:#FF6E7C;" d="M269.776,265.548c-8.997,2.617-18.556,2.617-27.553,0c-2.407-0.694-5.079,0.38-6.032,2.673l0,0  c-0.953,2.284,0.589,5.095,3.525,5.947c10.634,3.094,21.933,3.094,32.567,0c2.936-0.852,4.478-3.662,3.525-5.947l0,0  C274.856,265.928,272.184,264.854,269.776,265.548z"/>
<path style="fill:#E5BFA3;" d="M260.86,280.776h-9.722c-2.478,0-4.488,2.009-4.488,4.488l0,0c0,2.478,2.009,4.488,4.488,4.488h9.722  c2.478,0,4.488-2.009,4.488-4.488l0,0C265.348,282.785,263.339,280.776,260.86,280.776z"/>
<path style="fill:#5C5E70;" d="M383.063,127.031v249.91l-26.971-12.743c0,0,0-91.895,0-118.031s11.87-92.303-61.096-97.061  c-37.477-2.443-64.771-17.861-82.457-32.28c-0.005,0.021-0.016,0.085-0.037,0.19c0,0.005,0,0.005,0,0.005  c-0.598,3.215-9.301,44.504-60.79,48.782v205.025l-22.741,11.982V127.031c0-56.571,36.975-104.501,88.078-120.945h0.005  c12.272-3.955,25.359-6.085,38.947-6.085h0.031C326.191,0.001,383.063,56.873,383.063,127.031z"/>
<path style="fill:#494B5B;" d="M288.934,4.305c-2.038,0.543-4.054,1.139-6.05,1.787c-51.106,16.436-88.085,64.366-88.085,120.936  v21.044c-9.122,8.599-22.768,16.039-43.081,17.732v205.029l-22.747,11.974v-255.78c0-56.571,36.979-104.5,88.085-120.936  c6.144-1.985,12.476-3.5,18.986-4.535C242.54,0.533,249.217,0,256.009,0h0.031C267.419,0,278.443,1.494,288.934,4.305z"/>
<path style="fill:#F9EED7;" d="M407.482,405.158v57.229c-21.974,16.175-46.644,28.912-73.195,37.418  c-21.953,7.043-45.202,11.212-69.297,12.037c-2.978,0.104-5.977,0.157-8.986,0.157c-3.009,0-6.008-0.052-8.997-0.157  c-24.095-0.825-47.334-4.995-69.297-12.037c-26.551-8.516-51.21-21.243-73.185-37.418v-57.229c0-9.717,5.454-18.599,14.106-22.988  l70.624-35.84l57.751,8.673l4.451,0.669l13.531,2.247l0.261,0.042v9.519l57.49-21.149l70.614,35.84  C402.017,386.559,407.482,395.441,407.482,405.158z"/>
<path style="fill:#E8DBC4;" d="M224.678,349.497l-16.917-3.166l-70.614,35.84c-8.662,4.389-14.117,13.27-14.117,22.988v69.642  c-6.353-3.877-12.528-8.014-18.505-12.413v-57.229c0-9.717,5.454-18.599,14.106-22.988l70.624-35.84l26.425-8.558L224.678,349.497z"/>
<path style="fill:#FCF8F2;" d="M264.99,354.261v157.581c-2.978,0.104-5.977,0.157-8.986,0.157c-3.009,0-6.008-0.052-8.997-0.157  V354.261H264.99z"/>
<path style="fill:#F9EED7;" d="M269.087,354.612h-21.722v1.766l-0.352-0.151v28.061l7.884-14.192  c0.751-1.348,1.105-2.808,1.105-4.24c0,1.433,0.354,2.887,1.105,4.24l7.884,14.192v-18.432h4.098v-11.243H269.087z"/>
<g>
	<path style="fill:#FCF8F2;" d="M204.467,327.418l46.228,19.812c4.765,2.042,6.719,7.756,4.2,12.288l-14.971,26.948   c-2.905,5.228-10.081,6.065-14.111,1.646l-38.098-41.785c-3.512-3.853-2.897-9.902,1.319-12.968l6.841-4.976   C198.37,326.571,201.634,326.203,204.467,327.418z"/>
	<path style="fill:#FCF8F2;" d="M307.533,327.418l-46.228,19.812c-4.765,2.042-6.719,7.756-4.2,12.288l14.971,26.948   c2.905,5.228,10.081,6.065,14.111,1.646l38.098-41.785c3.512-3.853,2.896-9.902-1.319-12.968l-6.841-4.976   C313.63,326.571,310.366,326.203,307.533,327.418z"/>
</g>
<g>
	<circle style="fill:#5C5E70;" cx="255.999" cy="375.671" r="5.816"/>
	<circle style="fill:#5C5E70;" cx="255.999" cy="422.378" r="5.816"/>
	<circle style="fill:#5C5E70;" cx="255.999" cy="469.085" r="5.816"/>
</g>
<path style="fill:#FFFFFF;" d="M329.665,196.106c0,4.558-3.691,8.254-8.248,8.254h-27.912c-2.279,0-4.34-0.926-5.832-2.417  c-1.496-1.496-2.417-3.559-2.417-5.838c0-1.402,0.35-2.723,0.968-3.88c1.388-2.599,1.755-6.74,4.909-6.74l32.15-0.425  c2.279,0,4.056,4.828,4.539,2.776c0.573-2.438,0.489,3.668,0.875,4.39C329.315,193.382,329.665,194.704,329.665,196.106z"/>
<path style="fill:#34ABE0;" d="M320.115,194.235c0,4.14-1.988,7.82-5.066,10.125h-15.185c-3.077-2.305-5.066-5.985-5.066-10.125  c0-2.327,0.629-4.505,1.729-6.377l11.609-2.059l10.249,2.059C319.486,189.73,320.115,191.909,320.115,194.235z"/>
<path style="fill:#494B5B;" d="M293.504,187.858h27.912c2.279,0,4.34,0.926,5.832,2.417c0.573,0.573,1.061,1.232,1.445,1.953  c0.616-1.26,0.972-2.672,0.972-4.169c0-5.256-4.261-9.517-9.517-9.517h-25.378c-5.256,0-9.517,4.261-9.517,9.517  c0,1.498,0.355,2.909,0.972,4.17C287.614,189.629,290.35,187.858,293.504,187.858z"/>
<path style="fill:#FFFFFF;" d="M233.652,196.106c0,4.558-3.691,8.254-8.248,8.254h-27.912c-2.279,0-4.34-0.926-5.832-2.417  c-1.496-1.496-2.417-3.559-2.417-5.838c0-1.402,0.35-2.723,0.968-3.88c1.388-2.599,1.755-6.74,4.909-6.74l32.15-0.425  c2.279,0,4.056,4.828,4.539,2.776c0.573-2.438,0.489,3.668,0.875,4.39C233.301,193.382,233.652,194.703,233.652,196.106z"/>
<path style="fill:#34ABE0;" d="M224.103,194.235c0,4.14-1.988,7.82-5.066,10.125h-15.185c-3.077-2.305-5.066-5.985-5.066-10.125  c0-2.326,0.629-4.505,1.729-6.377l11.609-2.059l10.249,2.059C223.474,189.73,224.103,191.908,224.103,194.235z"/>
<path style="fill:#494B5B;" d="M197.492,187.858h27.912c2.279,0,4.34,0.926,5.832,2.417c0.573,0.573,1.061,1.232,1.445,1.953  c0.616-1.26,0.972-2.672,0.972-4.169c0-5.256-4.261-9.517-9.517-9.517h-25.378c-5.256,0-9.517,4.261-9.517,9.517  c0,1.498,0.355,2.909,0.972,4.17C191.602,189.629,194.338,187.858,197.492,187.858z"/>
<g>
</g>
<g>
</g>
<g>
</g>
<g>
</g>
<g>
</g>
<g>
</g>
<g>
</g>
<g>
</g>
<g>
</g>
<g>
</g>
<g>
</g>
<g>
</g>
<g>
</g>
<g>
</g>
<g>
</g>
</svg>
