<?xml version="1.0" encoding="iso-8859-1"?>
<!-- Generator: Adobe Illustrator 19.0.0, SVG Export Plug-In . SVG Version: 6.00 Build 0)  -->
<svg xmlns="http://www.w3.org/2000/svg" xmlns:xlink="http://www.w3.org/1999/xlink" version="1.1" id="Capa_1" x="0px" y="0px" viewBox="0 0 512 512" style="enable-background:new 0 0 512 512;" xml:space="preserve">
<circle style="fill:#34ABE0;" cx="256" cy="255.999" r="255.999"/>
<path style="fill:#5C5E70;" d="M450.337,24.87V422.64C403.39,477.341,333.737,512,255.997,512s-147.393-34.659-194.34-89.359V24.87  c0-13.73,11.128-24.869,24.869-24.869h338.943C439.199,0.001,450.337,11.14,450.337,24.87z"/>
<path style="fill:#F9EED7;" d="M430.749,85.462v357.605c-6.416,5.987-13.134,11.661-20.135,16.98  c-42.956,32.601-96.527,51.952-154.613,51.952s-111.658-19.351-154.613-51.952c-7.001-5.319-13.719-10.992-20.135-16.98V85.462  c0-8.192,6.635-14.827,14.827-14.827h319.843c0.899,0,1.776,0.084,2.623,0.24C425.482,72.108,430.749,78.169,430.749,85.462z"/>
<path style="fill:#494B5B;" d="M321.822,45.555h-131.65c-6.059,0-10.97-4.912-10.97-10.97l0,0c0-6.059,4.912-10.97,10.97-10.97  h131.651c6.059,0,10.97,4.912,10.97,10.97l0,0C332.794,40.643,327.882,45.555,321.822,45.555z"/>
<path style="fill:#5C5E70;" d="M353.702,245.309c0,29.828-13.227,56.577-34.14,74.683c-17.314,14.997-39.898,24.06-64.603,24.06  c-23.629,0-45.314-8.301-62.316-22.143c-22.232-18.106-36.427-45.695-36.427-76.599c0-54.533,44.21-98.743,98.743-98.743  S353.702,190.776,353.702,245.309z"/>
<path style="fill:#FF525D;" d="M320.197,311.74c0,2.806-0.215,5.563-0.635,8.252c-17.314,14.997-39.898,24.06-64.603,24.06  c-23.629,0-45.314-8.301-62.316-22.143c-0.646-3.295-0.978-6.687-0.978-10.168c0-2.063,0.577-4.028,1.623-5.719  c1.037-1.692,2.532-3.099,4.37-4.028l16.17-8.212c7.039-3.579,14.528-6.198,22.232-7.801c2.278-0.48,4.566-0.86,6.883-1.154  l7.567-0.978l5.426-0.694l3.92,0.509l1.457,0.186l0.039,0.009l7.567,0.968c2.317,0.294,4.605,0.675,6.883,1.154  c7.713,1.603,15.193,4.223,22.232,7.801l16.18,8.212C317.881,303.85,320.197,307.625,320.197,311.74z"/>
<g>
	<path style="fill:#E5BFA3;" d="M275.805,265.269v21.347c0,10.975-8.897,19.872-19.872,19.872l0,0   c-10.975,0-19.872-8.897-19.872-19.872v-21.347H275.805z"/>
	<circle style="fill:#E5BFA3;" cx="213.034" cy="230.347" r="12.282"/>
	<circle style="fill:#E5BFA3;" cx="298.83" cy="230.347" r="12.282"/>
</g>
<path style="fill:#F9D6B9;" d="M300.179,195.289l-88.49-4.71v49.36c0,24.436,19.809,44.245,44.245,44.245l0,0  c24.436,0,44.245-19.809,44.245-44.245V195.289z"/>
<path style="fill:#E5BFA3;" d="M237.663,239.938v-47.977l-25.975-1.382v49.36c0,24.436,19.809,44.245,44.245,44.245l0,0  c4.52,0,8.881-0.681,12.987-1.941C250.824,276.694,237.663,259.854,237.663,239.938z"/>
<path style="fill:#C98847;" d="M305.563,193.636v22.289c0,1.813-0.734,3.452-1.921,4.639c-1.22,1.223-2.921,1.962-4.789,1.921  c-3.587-0.08-6.411-3.104-6.411-6.692v-3.37c0-2.67-1.081-5.083-2.831-6.833c-1.749-1.749-4.164-2.831-6.833-2.831  c-4.164,0-8.215,1.397-11.46,4.008c-4.208,3.385-9.559,5.413-15.384,5.413c-5.823,0-11.173-2.028-15.382-5.413  c-0.556-0.448-1.137-0.859-1.739-1.234c-0.006-0.006-0.016-0.011-0.022-0.016c-1.144-0.714-2.359-1.293-3.625-1.735  c-1.942-0.675-3.996-1.025-6.079-1.025c-5.334,0-9.659,4.332-9.659,9.668v3.499c0,1.81-0.734,3.452-1.923,4.639  c-1.187,1.187-2.826,1.921-4.639,1.921c-3.623,0-6.559-2.936-6.559-6.561v-22.289c0-19.516,15.819-35.337,35.335-35.337h28.583  C289.741,158.299,305.563,174.12,305.563,193.636z"/>
<path style="fill:#BA773A;" d="M235.564,193.636c0-19.403,15.638-35.147,34.999-35.329c-0.113-0.001-0.224-0.008-0.337-0.008  h-28.583c-19.516,0-35.335,15.822-35.335,35.337v22.289c0,3.625,2.936,6.561,6.559,6.561c1.813,0,3.452-0.734,4.639-1.921  c1.189-1.186,1.923-2.829,1.923-4.639v-3.498c0-5.336,4.325-9.668,9.659-9.668c2.084,0,4.137,0.35,6.079,1.025  c0.136,0.047,0.263,0.114,0.398,0.164V193.636z"/>
<circle style="fill:#FF525D;" cx="157.78" cy="443.318" r="42.841"/>
<circle style="fill:#4BC999;" cx="354.22" cy="443.318" r="42.841"/>
<circle style="fill:#D6C8B0;" cx="256" cy="443.318" r="42.841"/>
<g>
</g>
<g>
</g>
<g>
</g>
<g>
</g>
<g>
</g>
<g>
</g>
<g>
</g>
<g>
</g>
<g>
</g>
<g>
</g>
<g>
</g>
<g>
</g>
<g>
</g>
<g>
</g>
<g>
</g>
</svg>
