<?xml version="1.0" encoding="iso-8859-1"?>
<!-- Generator: Adobe Illustrator 19.0.0, SVG Export Plug-In . SVG Version: 6.00 Build 0)  -->
<svg xmlns="http://www.w3.org/2000/svg" xmlns:xlink="http://www.w3.org/1999/xlink" version="1.1" id="Capa_1" x="0px" y="0px" viewBox="0 0 512.001 512.001" style="enable-background:new 0 0 512.001 512.001;" xml:space="preserve">
<circle style="fill:#797B89;" cx="256" cy="256.001" r="256"/>
<path style="fill:#FFD15C;" d="M500.714,10.45H202.582c-6.233,0-11.286,5.053-11.286,11.286v130.553  c0,6.233,5.053,11.286,11.286,11.286h133.279c17.511,0,34.58,5.5,48.797,15.726l49.007,35.248c7.466,5.37,17.875,0.034,17.875-9.162  v-30.525c0-6.233,5.053-11.286,11.286-11.286h37.89c6.233,0,11.286-5.053,11.286-11.286V21.735  C512,15.503,506.947,10.45,500.714,10.45z"/>
<g>
	<path style="fill:#5C5E70;" d="M470.855,92.849H236.883c-4.838,0-8.76-3.922-8.76-8.76l0,0c0-4.838,3.922-8.76,8.76-8.76h233.972   c4.838,0,8.76,3.922,8.76,8.76l0,0C479.614,88.928,475.693,92.849,470.855,92.849z"/>
	<path style="fill:#5C5E70;" d="M470.855,58.435H236.883c-4.838,0-8.76-3.922-8.76-8.76l0,0c0-4.838,3.922-8.76,8.76-8.76h233.972   c4.838,0,8.76,3.922,8.76,8.76l0,0C479.614,54.513,475.693,58.435,470.855,58.435z"/>
	<path style="fill:#5C5E70;" d="M470.855,127.263H236.883c-4.838,0-8.76-3.922-8.76-8.76l0,0c0-4.838,3.922-8.76,8.76-8.76h233.972   c4.838,0,8.76,3.922,8.76,8.76l0,0C479.614,123.341,475.693,127.263,470.855,127.263z"/>
</g>
<path style="fill:#FCF8F2;" d="M11.286,145.1h298.132c6.233,0,11.286,5.053,11.286,11.286v130.553  c0,6.233-5.053,11.286-11.286,11.286H176.139c-17.511,0-34.58,5.5-48.797,15.726l-49.007,35.246  c-7.466,5.37-17.875,0.034-17.875-9.162V309.51c0-6.233-5.053-11.286-11.286-11.286H11.286C5.053,298.224,0,293.172,0,286.939  V156.386C0,150.153,5.053,145.1,11.286,145.1z"/>
<g>
	<path style="fill:#5C5E70;" d="M275.961,228.699H41.988c-4.838,0-8.76-3.922-8.76-8.76l0,0c0-4.838,3.922-8.76,8.76-8.76h233.972   c4.838,0,8.76,3.922,8.76,8.76l0,0C284.721,224.777,280.799,228.699,275.961,228.699z"/>
	<path style="fill:#5C5E70;" d="M275.961,194.285H41.988c-4.838,0-8.76-3.922-8.76-8.76l0,0c0-4.838,3.922-8.76,8.76-8.76h233.972   c4.838,0,8.76,3.922,8.76,8.76l0,0C284.721,190.363,280.799,194.285,275.961,194.285z"/>
	<path style="fill:#5C5E70;" d="M275.961,263.113H41.988c-4.838,0-8.76-3.922-8.76-8.76l0,0c0-4.838,3.922-8.76,8.76-8.76h233.972   c4.838,0,8.76,3.922,8.76,8.76l0,0C284.721,259.192,280.799,263.113,275.961,263.113z"/>
</g>
<path style="fill:#FF525D;" d="M510.707,281.892c-3.594,35.861-14.608,69.548-31.462,99.495c-2.121,3.762-4.326,7.471-6.635,11.107  c-16.959,26.875-38.797,50.375-64.251,69.256l-23.698-17.042c-14.221-10.23-31.295-15.726-48.797-15.726H202.578  c-6.228,0-11.285-5.057-11.285-11.295v-130.55c0-6.228,5.057-11.285,11.285-11.285h298.141  C505.055,275.853,508.816,278.298,510.707,281.892z"/>
<g>
	<path style="fill:#5C5E70;" d="M470.855,358.253H236.883c-4.838,0-8.76-3.922-8.76-8.76l0,0c0-4.838,3.922-8.76,8.76-8.76h233.972   c4.838,0,8.76,3.922,8.76,8.76l0,0C479.614,354.332,475.693,358.253,470.855,358.253z"/>
	<path style="fill:#5C5E70;" d="M470.855,323.839H236.883c-4.838,0-8.76-3.921-8.76-8.76l0,0c0-4.838,3.922-8.76,8.76-8.76h233.972   c4.838,0,8.76,3.921,8.76,8.76l0,0C479.614,319.917,475.693,323.839,470.855,323.839z"/>
	<path style="fill:#5C5E70;" d="M479.246,381.387c-2.121,3.762-4.326,7.471-6.635,11.107c-0.564,0.115-1.149,0.178-1.755,0.178   H236.882c-4.838,0-8.756-3.929-8.756-8.767c0-2.424,0.982-4.608,2.56-6.196c1.588-1.578,3.772-2.56,6.196-2.56h233.974   C474.815,375.149,478.169,377.782,479.246,381.387z"/>
</g>
<g>
</g>
<g>
</g>
<g>
</g>
<g>
</g>
<g>
</g>
<g>
</g>
<g>
</g>
<g>
</g>
<g>
</g>
<g>
</g>
<g>
</g>
<g>
</g>
<g>
</g>
<g>
</g>
<g>
</g>
</svg>
