<?xml version="1.0" encoding="iso-8859-1"?>
<!-- Generator: Adobe Illustrator 19.0.0, SVG Export Plug-In . SVG Version: 6.00 Build 0)  -->
<svg xmlns="http://www.w3.org/2000/svg" xmlns:xlink="http://www.w3.org/1999/xlink" version="1.1" id="Capa_1" x="0px" y="0px" viewBox="0 0 512 512" style="enable-background:new 0 0 512 512;" xml:space="preserve">
<circle style="fill:#5C5E70;" cx="256" cy="256" r="256"/>
<path style="fill:#279FC9;" d="M439.348,219.675c0,3.605-0.09,7.191-0.26,10.759c-4.501,93.321-67.229,171.363-152.642,198.577  c-21.053,6.716-43.487,10.338-66.772,10.338s-45.728-3.623-66.79-10.338C67.482,401.789,4.763,323.747,0.261,230.434  c-0.17-3.568-0.26-7.155-0.26-10.759c0-3.604,0.09-7.191,0.26-10.759c4.501-93.313,67.22-171.355,152.624-198.577  c21.062-6.716,43.504-10.338,66.79-10.338s45.719,3.623,66.772,10.338c85.413,27.212,148.14,105.255,152.642,198.577  C439.259,212.484,439.348,216.07,439.348,219.675z"/>
<path style="fill:#34ABE0;" d="M439.342,219.678c0,3.606-0.085,7.187-0.255,10.756c-1.324,27.583-7.746,53.83-18.344,77.831  c-22.776,25.968-52.447,45.745-86.148,56.477c-18.441,5.876-38.084,9.045-58.467,9.045c-20.395,0-40.051-3.169-58.492-9.045  c-74.784-23.844-129.695-92.181-133.64-173.886c-0.146-3.12-0.231-6.264-0.231-9.421c0-3.157,0.085-6.301,0.231-9.421  c3.836-79.53,55.954-146.363,127.667-171.869C214.321,0.049,216.992,0,219.674,0c23.285,0,45.721,3.617,66.772,10.343  c85.407,27.206,148.136,105.257,152.64,198.567C439.256,212.48,439.342,216.073,439.342,219.678z"/>
<path style="fill:#E8DBC4;" d="M439.09,208.911h-60.956c-1.772-56.756-17.579-109.881-44.968-150.576  c-13.67-20.298-29.477-36.434-46.716-47.991C265.399,3.617,242.964,0,219.678,0c-1.457,0-2.902,0.013-4.358,0.049  c-1.214,0.024-2.44,0.049-3.654,0.097h-0.013c-20.419,0.728-40.136,4.25-58.771,10.198c-17.239,11.558-33.046,27.692-46.704,47.991  c-27.376,40.695-43.195,93.82-44.98,150.576H0.267C0.085,212.48,0,216.073,0,219.678c0,3.605,0.085,7.187,0.267,10.756H61.2  c1.785,56.768,17.603,109.894,44.98,150.576c13.658,20.298,29.453,36.445,46.704,48.003c21.063,6.713,43.511,10.332,66.796,10.332  s45.721-3.617,66.772-10.332c17.239-11.558,33.046-27.704,46.716-48.003c4.285-6.361,8.292-13.038,12.007-19.984  c19.983-37.416,31.468-82.712,32.961-130.593h60.956c0.17-3.569,0.255-7.151,0.255-10.756  C439.347,216.072,439.26,212.48,439.09,208.911z M83.95,189.777c4.25-45.174,18.113-86.791,40.088-119.425  c23.249-34.563,53.065-55.141,84.873-58.942V208.91H82.736C82.954,202.476,83.356,196.09,83.95,189.777z M208.911,427.934  c-31.808-3.788-61.624-24.377-84.873-58.929c-25.045-37.21-39.554-86.075-41.302-138.569h126.175V427.934z M315.308,369.005  c-0.207,0.303-0.413,0.607-0.62,0.91c-23.163,34.005-52.726,54.267-84.253,58.019V230.436H356.61  C354.861,282.93,340.354,331.795,315.308,369.005z M230.436,208.911V11.411c31.808,3.8,61.612,24.377,84.873,58.942  c25.045,37.198,39.554,86.063,41.302,138.558H230.436z"/>
<path style="fill:#F9EED7;" d="M439.09,208.911h-60.956c-0.437-14.034-1.736-27.85-3.861-41.313  c-3.97-25.264-10.842-49.277-20.359-71.154c-5.912-13.597-12.845-26.369-20.747-38.108c-13.67-20.298-29.477-36.434-46.716-47.991  C265.399,3.617,242.964,0,219.678,0c-1.457,0-2.902,0.013-4.358,0.049c-1.214,0.024-2.44,0.049-3.654,0.097h-0.013  c-71.7,25.518-123.818,92.339-127.655,171.87c-0.145,3.12-0.231,6.264-0.231,9.421c0,2.792,0.061,5.572,0.182,8.34  c4.25-45.174,18.113-86.791,40.088-119.425c23.249-34.563,53.065-55.141,84.873-58.942V208.91H85.722  c1.044,7.321,2.501,14.496,4.347,21.525h118.841V361.72c2.878,1.08,5.791,2.088,8.729,3.023c4.2,1.335,8.474,2.537,12.796,3.582  V230.436H356.61c-1.748,52.495-16.255,101.359-41.302,138.569c-0.207,0.303-0.413,0.607-0.62,0.91  c6.774-1.372,13.415-3.108,19.909-5.172c3.569-1.141,7.102-2.379,10.574-3.715c19.983-37.416,31.468-82.712,32.961-130.593h60.956  c0.17-3.569,0.255-7.151,0.255-10.756C439.345,216.073,439.26,212.48,439.09,208.911z M230.436,208.911V11.411  c27.268,3.254,53.054,18.842,74.505,44.992c3.593,4.358,7.042,9.008,10.367,13.949c4.237,6.288,8.17,12.917,11.776,19.837  c2.452,4.65,4.734,9.421,6.895,14.326c8.947,20.444,15.394,42.977,19.109,66.772c1.906,12.249,3.096,24.827,3.52,37.623  L230.436,208.911L230.436,208.911z"/>
<path style="fill:#FFD15C;" d="M451.827,420.894c-12.549,14.9-26.781,28.338-42.381,40.04c-11.609,8.704-23.98,16.447-37,23.113  c-10.564,5.402-21.556,10.094-32.904,14.012c-10.031,3.459-20.355,6.322-30.908,8.516c-16.99,3.553-34.586,5.423-52.632,5.423  c-15.799,0-31.253-1.432-46.258-4.169c-5.392-0.982-10.71-2.132-15.976-3.459v-71.492c0-8.38,4.702-16.06,12.184-19.853  l60.061-30.48l0.909-0.46l18.516-2.372l20.929-2.675l1.484-0.188l16.697-2.142l7.983,1.014h0.01l10.209,1.306l23.573,3.02  l15.862,2.038l0.909,0.46l60.061,30.48C446.77,414.855,449.738,417.603,451.827,420.894z"/>
<path style="fill:#EDBB4C;" d="M332.531,375.723l-22.497,2.884l-2.905,0.376l-21.692,2.779l-2.539,0.324l-11.828,6.008  l-49.142,24.931c-7.471,3.793-12.184,11.473-12.184,19.853v74.951c-5.392-0.982-10.71-2.132-15.976-3.459v-71.492  c0-8.38,4.702-16.06,12.184-19.853l60.061-30.48l0.909-0.46l18.516-2.372l20.929-2.675l1.484-0.188l16.697-2.142L332.531,375.723z"/>
<rect x="285.445" y="338.296" style="fill:#F9D6B9;" width="80.886" height="52.005"/>
<g>
	<circle style="fill:#E5BFA3;" cx="245.864" cy="250.744" r="24.996"/>
	<circle style="fill:#E5BFA3;" cx="403.237" cy="250.744" r="24.996"/>
	<path style="fill:#E5BFA3;" d="M306.766,338.297L306.766,338.297l-21.324-0.001v0.001h-0.001v21.991c0,0,0.001,0,0.001,0.001   v21.759h21.324l0,0c0-7.367,6.135-13.29,13.493-12.944c1.422,0.067,2.853,0.1,4.291,0.1c15.075,0,29.286-3.707,41.773-10.254   v-20.653L306.766,338.297L306.766,338.297z"/>
</g>
<path style="fill:#F9D6B9;" d="M414.6,136.385H234.507v133.871c0,49.731,40.315,90.046,90.046,90.046l0,0  c49.731,0,90.046-40.315,90.046-90.046V136.385z"/>
<path style="fill:#E5BFA3;" d="M403.973,103.086c-0.273-0.051-0.55-0.089-0.827-0.113c-2.608-0.23-5.177,0.75-7.082,2.545  c-1.363,1.284-3.106,2.895-4.291,3.877c-15.199,12.588-34.47,19.459-54.388,19.459h-76.748c-8.416,0-16.173,2.808-22.396,7.532  h-3.733v3.242c-6.764,6.718-10.955,16.025-10.955,26.311v55.163c0,6.559,4.725,12.006,10.955,13.135v36.02  c0,49.731,40.315,90.046,90.046,90.046l0,0c3.356,0,6.668-0.19,9.929-0.548c-45.058-4.943-80.118-43.124-80.118-89.499v-53.133  c0-8.309,6.468-15.342,14.771-15.669c0.261-0.01,0.523-0.016,0.788-0.016l0,0c8.473,0,16.719,2.845,23.322,8.156  c8.568,6.892,19.544,12.46,31.308,11.017c23.432-2.875,22.74-18.353,31.308-25.245c6.603-5.311,14.849-8.156,23.322-8.156h0.366  c10.83,0,19.287-4.045,19.302,6.787c0.01,7.291,5.755,40.564,13.047,40.728c3.806,0.086,7.265-1.422,9.748-3.909  c2.415-2.415,3.908-5.752,3.908-9.441v-91.913C425.555,116.654,416.557,105.471,403.973,103.086z"/>
<path style="fill:#5C5E70;" d="M425.555,122.614v114.772c0,3.688-1.493,7.026-3.908,9.441c-2.484,2.488-5.944,3.995-9.747,3.908  c-7.3-0.164-13.048-6.318-13.048-13.618v-22.858c0-5.432-2.201-10.344-5.762-13.906s-8.473-5.762-13.906-5.762  c-8.473,0-16.718,2.844-23.324,8.159c-8.565,6.889-19.453,11.016-31.309,11.016c-11.851,0-22.74-4.127-31.304-11.016  c-1.133-0.913-2.314-1.748-3.538-2.511c-0.014-0.014-0.032-0.023-0.046-0.032c-2.328-1.451-4.802-2.63-7.378-3.529  c-3.949-1.374-8.126-2.087-12.363-2.087c-10.861,0-19.667,8.806-19.667,19.667v23.132c0,3.684-1.493,7.026-3.912,9.441  c-2.415,2.415-5.752,3.908-9.441,3.908c-7.373,0-13.349-5.976-13.349-13.354v-78.295c0-20.48,16.604-37.083,37.084-37.083h76.748  c19.919,0,39.189-6.871,54.387-19.457c1.187-0.981,2.931-2.593,4.291-3.876c1.908-1.798,4.478-2.775,7.085-2.547  c0.274,0.023,0.553,0.06,0.827,0.114C416.556,98.623,425.555,109.808,425.555,122.614z"/>
<path style="fill:#494B5B;" d="M265.35,159.091c0-20.48,16.603-37.083,37.084-37.083h-41.796c-20.48,0-37.084,16.603-37.084,37.083  v78.295c0,7.378,5.976,13.354,13.349,13.354c3.688,0,7.026-1.493,9.441-3.908c2.42-2.415,3.912-5.757,3.912-9.441v-23.132  c0-9.284,6.442-17.045,15.094-19.111v-36.057H265.35z"/>
<path style="fill:#E5BFA3;" d="M305.01,246.454c-0.502,4.15-4.165,7.196-8.345,7.196h-21.724c-2.268,0-4.324-0.917-5.812-2.406  c-1.703-1.708-2.667-4.164-2.344-6.833c0.502-4.15,4.164-7.197,8.345-7.197h21.724c2.268,0,4.324,0.917,5.812,2.406  C304.369,241.33,305.333,243.785,305.01,246.454z"/>
<path style="fill:#FFFFFF;" d="M305.01,252.216c-0.502,4.15-4.165,7.196-8.345,7.196h-21.724c-2.268,0-4.324-0.917-5.812-2.406  c-1.703-1.708-2.667-4.163-2.344-6.833c0.502-4.15,4.164-7.197,8.345-7.197h21.724c2.268,0,4.324,0.917,5.812,2.406  C304.369,247.092,305.333,249.548,305.01,252.216z"/>
<path style="fill:#E5BFA3;" d="M379.942,237.216h-21.913c-4.538,0-8.217,3.679-8.217,8.217l0,0c0,4.538,3.679,8.217,8.217,8.217  h21.913c4.538,0,8.217-3.679,8.217-8.217l0,0C388.159,240.895,384.48,237.216,379.942,237.216z"/>
<path style="fill:#FFFFFF;" d="M379.942,242.978h-21.913c-4.538,0-8.217,3.679-8.217,8.217l0,0c0,4.538,3.679,8.217,8.217,8.217  h21.913c4.538,0,8.217-3.679,8.217-8.217l0,0C388.159,246.657,384.48,242.978,379.942,242.978z"/>
<path style="fill:#E5BFA3;" d="M387.05,220.799h-36.128c-2.558,0-4.631,2.073-4.631,4.631l0,0c0,2.558,2.073,4.631,4.631,4.631  h36.128c2.558,0,4.631-2.073,4.631-4.631l0,0C391.681,222.874,389.608,220.799,387.05,220.799z"/>
<g>
	<path style="fill:#41B787;" d="M296.826,248.484c0,6.035-4.894,10.93-10.93,10.93s-10.93-4.894-10.93-10.93   c0-2.008,0.543-3.89,1.493-5.506h18.873C296.283,244.594,296.826,246.475,296.826,248.484z"/>
	<path style="fill:#41B787;" d="M379.915,248.484c0,6.035-4.894,10.93-10.93,10.93c-6.035,0-10.93-4.894-10.93-10.93   c0-2.008,0.543-3.89,1.493-5.506h18.873C379.372,244.594,379.915,246.475,379.915,248.484z"/>
</g>
<g>
	<path style="fill:#E5BFA3;" d="M267.987,220.799c-2.551,0-4.738,1.995-4.785,4.544c-0.047,2.598,2.044,4.718,4.631,4.718h25.382   c10.078,0,18.248,8.17,18.248,18.248v45.21h4.599c5.907,0,10.696-4.789,10.696-10.696v-48.09c0-7.696-6.239-13.935-13.935-13.935   h-44.836V220.799z"/>
	<path style="fill:#E5BFA3;" d="M340.001,308.654c-10.03,3.305-20.865,3.305-30.895,0c-2.68-0.874-5.743,0.172-6.935,2.682l0,0   c-1.191,2.499,0.455,5.76,3.792,6.858c12.071,3.978,25.109,3.978,37.181,0c3.338-1.097,4.983-4.358,3.792-6.858l0,0   C345.744,308.828,342.682,307.78,340.001,308.654z"/>
	<path style="fill:#E5BFA3;" d="M329.992,326.137h-10.877c-2.773,0-5.022,2.249-5.022,5.022l0,0c0,2.773,2.249,5.022,5.022,5.022   h10.877c2.773,0,5.022-2.249,5.022-5.022l0,0C335.014,328.385,332.766,326.137,329.992,326.137z"/>
</g>
<path style="fill:#FF525D;" d="M339.543,498.06c-10.031,3.459-20.355,6.322-30.908,8.516l9.32-85.473l0.324-2.947h12.549  l0.324,2.957L339.543,498.06z"/>
<path style="fill:#EF4152;" d="M329.04,421.349h-8.973c-5.338,0-9.666-4.328-9.666-9.666v-11.711c0-5.338,4.328-9.666,9.666-9.666  h8.973c5.338,0,9.666,4.328,9.666,9.666v11.711C338.706,417.021,334.379,421.349,329.04,421.349z"/>
<g>
	<path style="fill:#EDBB4C;" d="M280.06,365.76l39.914,17.106c4.114,1.763,5.801,6.698,3.627,10.61l-12.926,23.268   c-2.508,4.514-8.705,5.237-12.184,1.421l-32.895-36.078c-3.032-3.326-2.501-8.549,1.139-11.197l5.907-4.296   C274.795,365.028,277.613,364.711,280.06,365.76z"/>
	<path style="fill:#EDBB4C;" d="M369.049,365.76l-39.914,17.106c-4.114,1.763-5.801,6.698-3.627,10.61l12.926,23.268   c2.508,4.514,8.705,5.237,12.184,1.421l32.895-36.078c3.032-3.326,2.501-8.549-1.139-11.197l-5.907-4.296   C374.313,365.028,371.495,364.711,369.049,365.76z"/>
	<path style="fill:#EDBB4C;" d="M409.446,460.935c-11.609,8.704-23.98,16.447-37,23.113l-14.796-5.308v-17.805H409.446z"/>
	<polygon style="fill:#EDBB4C;" points="291.455,478.735 265.204,488.322 238.498,478.735 238.498,460.931 291.455,460.931  "/>
</g>
<g>
</g>
<g>
</g>
<g>
</g>
<g>
</g>
<g>
</g>
<g>
</g>
<g>
</g>
<g>
</g>
<g>
</g>
<g>
</g>
<g>
</g>
<g>
</g>
<g>
</g>
<g>
</g>
<g>
</g>
</svg>
