<?xml version="1.0" encoding="iso-8859-1"?>
<!-- Generator: Adobe Illustrator 19.0.0, SVG Export Plug-In . SVG Version: 6.00 Build 0)  -->
<svg xmlns="http://www.w3.org/2000/svg" xmlns:xlink="http://www.w3.org/1999/xlink" version="1.1" id="Capa_1" x="0px" y="0px" viewBox="0 0 512 512" style="enable-background:new 0 0 512 512;" xml:space="preserve">
<circle style="fill:#C98847;" cx="256" cy="256" r="256"/>
<g>
	<path style="fill:#FFD15C;" d="M178.43,382.923l-21.17,48.232l-22.173,50.542c-10.71-5.747-20.971-12.236-30.699-19.404   l13.667-31.138l21.17-48.232H178.43z"/>
	<path style="fill:#FFD15C;" d="M407.607,462.304c-9.728,7.158-19.978,13.646-30.689,19.393l-22.183-50.542l-21.17-48.232h39.205   l21.17,48.232L407.607,462.304z"/>
	<path style="fill:#FFD15C;" d="M274.811,370.384V511.32c-6.207,0.449-12.487,0.679-18.808,0.679c-6.322,0-12.601-0.23-18.808-0.679   V370.384H274.811z"/>
</g>
<g>
	<polygon style="fill:#EDBB4C;" points="139.225,382.923 178.43,382.923 157.26,431.155 118.056,431.155  "/>
	<rect x="237.192" y="370.385" style="fill:#EDBB4C;" width="37.616" height="60.771"/>
	<polygon style="fill:#EDBB4C;" points="393.94,431.155 354.736,431.155 333.566,382.923 372.77,382.923  "/>
</g>
<rect x="63.595" y="20.576" style="fill:#F9EED7;" width="384.805" height="384.805"/>
<rect x="63.595" y="20.576" style="fill:#E8DBC4;" width="384.805" height="46.226"/>
<path style="fill:#FFD15C;" d="M458.738,50.666H53.262c-6.332,0-11.466-5.133-11.466-11.466V11.466C41.796,5.134,46.929,0,53.262,0  h405.478c6.331,0,11.465,5.134,11.465,11.466v27.736C470.204,45.534,465.07,50.666,458.738,50.666z"/>
<path style="fill:#FF525D;" d="M373.259,140.775L373.259,140.775c0,5.291,4.289,9.581,9.581,9.581h4.305L273.103,264.398  l-70.531-70.53c-4.338-4.337-11.371-4.337-15.709,0L94.95,285.782c-3.742,3.742-3.742,9.807,0,13.549l0,0  c3.742,3.742,9.808,3.742,13.549,0l86.219-86.22l70.531,70.53c4.338,4.337,11.371,4.337,15.709,0l119.738-119.737v4.304  c0,5.291,4.289,9.581,9.581,9.581l0,0c5.291,0,9.581-4.289,9.581-9.581v-30.218c0-3.753-3.043-6.796-6.796-6.796H382.84  C377.549,131.193,373.259,135.484,373.259,140.775z"/>
<g>
</g>
<g>
</g>
<g>
</g>
<g>
</g>
<g>
</g>
<g>
</g>
<g>
</g>
<g>
</g>
<g>
</g>
<g>
</g>
<g>
</g>
<g>
</g>
<g>
</g>
<g>
</g>
<g>
</g>
</svg>
