<?xml version="1.0" encoding="iso-8859-1"?>
<!-- Generator: Adobe Illustrator 19.0.0, SVG Export Plug-In . SVG Version: 6.00 Build 0)  -->
<svg xmlns="http://www.w3.org/2000/svg" xmlns:xlink="http://www.w3.org/1999/xlink" version="1.1" id="Capa_1" x="0px" y="0px" viewBox="0 0 512 512" style="enable-background:new 0 0 512 512;" xml:space="preserve">
<circle style="fill:#5C5E70;" cx="256" cy="255.999" r="255.999"/>
<path style="fill:#FF525D;" d="M497.011,166.857c34.775,72.264,4.39,159.043-67.883,193.821  c-72.264,34.775-159.046,4.381-193.821-67.883c-34.779-72.271-4.385-159.054,67.879-193.829  c14.722-7.084,30.047-11.467,45.415-13.341c15.208-1.846,30.462-1.244,45.197,1.621C437.265,95.715,476.33,123.88,497.011,166.857z"/>
<path style="fill:#F9EED7;" d="M471.309,179.226c27.945,58.069,3.527,127.802-54.549,155.75  c-58.07,27.945-127.805,3.52-155.75-54.549c-27.948-58.075-3.523-127.812,54.546-155.756c11.83-5.693,24.144-9.214,36.495-10.721  c12.221-1.484,24.479-1,36.32,1.302C423.298,122.057,454.69,144.69,471.309,179.226z"/>
<circle style="fill:#FF525D;" cx="366.163" cy="229.825" r="86.894"/>
<circle style="fill:#F9EED7;" cx="366.163" cy="229.825" r="51.832"/>
<circle style="fill:#FF525D;" cx="366.163" cy="229.825" r="21.676"/>
<polygon style="fill:#F9EED7;" points="451.425,31.574 447.286,24.302 432.245,0.001 412.503,46.46 427.545,70.761 436.109,65.507   438.236,75.304 466.17,69.264 485.912,22.805 457.977,28.844 "/>
<path style="fill:#FFD15C;" d="M461.986,19.412l-90.161,212.186c-1.255,2.952-4.664,4.329-7.616,3.074l0,0  c-2.952-1.255-4.329-4.664-3.074-7.616l90.161-212.187L461.986,19.412z"/>
<path style="fill:#EDBB4C;" d="M288.103,109.045v310.94H59.438c-1.484-1.755-2.926-3.532-4.336-5.329V109.045H288.103z"/>
<rect x="130.205" y="305.81" style="fill:#F9D6B9;" width="96.904" height="62.307"/>
<path style="fill:#E5BFA3;" d="M155.761,305.805L155.761,305.805l-25.55-0.001v0.001h-0.001v26.348c0,0,0.001,0,0.001,0.001v26.069  h25.55l0,0c0-8.826,7.351-15.923,16.167-15.508c1.704,0.08,3.418,0.121,5.142,0.121c18.061,0,35.089-4.442,50.048-12.285v-24.745  h-71.357V305.805z"/>
<path style="fill:#F9D6B9;" d="M274.974,115.414L79.17,103.927v120.357c0,59.583,43.832,107.886,97.902,107.886l0,0  c54.07,0,97.902-48.302,97.902-107.885V115.414H274.974z"/>
<g>
	<path style="fill:#E5BFA3;" d="M105.228,224.285V105.456l-26.058-1.529v120.357c0,59.583,43.832,107.885,97.903,107.885l0,0   c4.418,0,8.766-0.328,13.029-0.953C142.191,324.196,105.228,279,105.228,224.285z"/>
	<path style="fill:#E5BFA3;" d="M120.445,145.785c0,0,60.932,19.403,118.807,12.25c57.875-7.152-10.22-45.712-10.22-45.712   l-98.451-6.563l-13.947,6.563"/>
	<path style="fill:#E5BFA3;" d="M251.95,167.765h-43.286c-3.065,0-5.549,2.485-5.549,5.549l0,0c0,3.065,2.485,5.549,5.549,5.549   h43.286c3.065,0,5.549-2.485,5.549-5.549l0,0C257.498,170.249,255.015,167.765,251.95,167.765z"/>
	<path style="fill:#E5BFA3;" d="M109.299,167.765c-3.055,0-5.676,2.391-5.732,5.445c-0.056,3.113,2.449,5.653,5.548,5.653h30.411   c12.075,0,21.863,9.789,21.863,21.863v43.227h5.51c7.077,0,12.815-5.738,12.815-12.815v-46.678c0-9.221-7.475-16.695-16.695-16.695   L109.299,167.765z"/>
</g>
<path style="fill:#FF6E7C;" d="M191.324,274.705c-9.307,2.707-19.197,2.707-28.503,0c-2.491-0.718-5.254,0.393-6.241,2.765l0,0  c-0.986,2.363,0.609,5.27,3.647,6.152c11.001,3.201,22.69,3.201,33.691,0c3.038-0.881,4.633-3.789,3.647-6.152l0,0  C196.578,275.099,193.815,273.987,191.324,274.705z"/>
<path style="fill:#E5BFA3;" d="M182.101,290.459h-10.056c-2.564,0-4.644,2.078-4.644,4.644l0,0c0,2.564,2.078,4.644,4.644,4.644  h10.056c2.564,0,4.644-2.078,4.644-4.644l0,0C186.743,292.537,184.665,290.459,182.101,290.459z"/>
<path style="fill:#FFD15C;" d="M308.516,131.413v258.528l-27.901-13.182c0,0,0-95.065,0-122.101s12.28-95.486-63.203-100.408  c-38.77-2.527-67.005-18.477-85.301-33.393c-0.005,0.022-0.017,0.088-0.039,0.196c0,0.005,0,0.005,0,0.005  c-0.618,3.326-9.621,46.039-62.886,50.464v212.095l-23.525,12.395V131.413c0-58.52,38.25-108.104,91.115-125.115h0.005  c12.695-4.092,26.233-6.295,40.29-6.295h0.032C249.684,0.002,308.516,58.835,308.516,131.413z"/>
<path style="fill:#4BC999;" d="M333.773,419.13v80.844C309.249,507.789,283.116,512,256.001,512  c-24.137,0-47.501-3.344-69.632-9.582c-6.301-1.776-12.507-3.793-18.599-6.029c-53.227-19.54-98.158-56.257-128.083-103.434  l68.336-34.68l59.747,8.965l4.608,0.69l13.991,2.33l0.272,0.042v9.853l59.475-21.88l73.049,37.073  C328.13,399.893,333.773,409.078,333.773,419.13z"/>
<path style="fill:#41B787;" d="M144.667,361.556l-17.502-3.281l-73.049,37.073c-3.281,1.661-6.123,3.95-8.401,6.677  c-2.079-2.978-4.086-5.998-6.029-9.07l68.336-34.68l27.345-8.85L144.667,361.556z"/>
<path style="fill:#5BD3A2;" d="M186.369,366.477v135.941c-6.301-1.776-12.507-3.793-18.599-6.029V366.477L186.369,366.477  L186.369,366.477z"/>
<path style="fill:#41B787;" d="M190.61,366.841h-22.472v1.826l-0.365-0.157v29.028l8.155-14.681  c0.776-1.395,1.143-2.905,1.143-4.386c0,1.483,0.367,2.986,1.143,4.386l8.155,14.681v-19.067h4.239L190.61,366.841L190.61,366.841z"/>
<g>
	<path style="fill:#5BD3A2;" d="M123.763,338.709l47.822,20.496c4.929,2.113,6.951,8.024,4.346,12.712l-15.487,27.878   c-3.004,5.408-10.429,6.275-14.597,1.702l-39.412-43.226c-3.633-3.985-2.997-10.243,1.365-13.415l7.077-5.147   C117.455,337.833,120.831,337.453,123.763,338.709z"/>
	<path style="fill:#5BD3A2;" d="M230.382,338.709l-47.822,20.496c-4.929,2.113-6.951,8.024-4.346,12.712l15.487,27.878   c3.004,5.408,10.429,6.275,14.597,1.702l39.412-43.226c3.633-3.985,2.997-10.243-1.365-13.415l-7.077-5.147   C236.69,337.833,233.313,337.453,230.382,338.709z"/>
</g>
<g>
	<circle style="fill:#5C5E70;" cx="177.069" cy="388.628" r="6.017"/>
	<circle style="fill:#5C5E70;" cx="177.069" cy="436.944" r="6.017"/>
	<circle style="fill:#5C5E70;" cx="177.069" cy="485.26" r="6.017"/>
</g>
<path style="fill:#FFFFFF;" d="M248.53,203.008c0,4.638-3.756,8.4-8.395,8.4h-28.408c-2.32,0-4.418-0.941-5.935-2.46  c-1.522-1.522-2.46-3.622-2.46-5.941c0-1.427,0.356-2.771,0.985-3.949c1.413-2.645,1.787-6.86,4.996-6.86l32.721-0.434  c2.32,0,4.128,4.914,4.619,2.825c0.583-2.481,0.498,3.732,0.89,4.467C248.173,200.235,248.53,201.58,248.53,203.008z"/>
<path style="fill:#34ABE0;" d="M238.811,201.103c0,4.214-2.023,7.959-5.156,10.305h-15.455c-3.132-2.346-5.156-6.092-5.156-10.305  c0-2.368,0.641-4.585,1.76-6.49l11.815-2.096l10.431,2.096C238.171,196.518,238.811,198.735,238.811,201.103z"/>
<path style="fill:#494B5B;" d="M211.728,194.613h28.408c2.32,0,4.418,0.941,5.936,2.46c0.583,0.583,1.079,1.253,1.471,1.987  c0.627-1.283,0.99-2.72,0.99-4.243c0-5.349-4.336-9.686-9.686-9.686h-25.829c-5.349,0-9.686,4.336-9.686,9.686  c0,1.525,0.362,2.961,0.99,4.244C205.732,196.415,208.518,194.613,211.728,194.613z"/>
<path style="fill:#FFFFFF;" d="M150.813,203.008c0,4.638-3.756,8.4-8.395,8.4h-28.408c-2.32,0-4.418-0.941-5.935-2.46  c-1.522-1.522-2.46-3.622-2.46-5.941c0-1.427,0.356-2.771,0.985-3.949c1.413-2.645,1.787-6.86,4.996-6.86l32.721-0.434  c2.32,0,4.128,4.914,4.619,2.825c0.583-2.481,0.498,3.732,0.89,4.467C150.456,200.235,150.813,201.579,150.813,203.008z"/>
<path style="fill:#34ABE0;" d="M141.095,201.103c0,4.214-2.023,7.959-5.156,10.305h-15.455c-3.132-2.346-5.156-6.092-5.156-10.305  c0-2.368,0.641-4.585,1.76-6.49l11.815-2.096l10.431,2.096C140.454,196.518,141.095,198.735,141.095,201.103z"/>
<path style="fill:#494B5B;" d="M114.01,194.613h28.408c2.32,0,4.418,0.941,5.936,2.46c0.583,0.583,1.079,1.253,1.471,1.987  c0.627-1.283,0.99-2.719,0.99-4.243c0-5.349-4.336-9.686-9.686-9.686H115.3c-5.349,0-9.686,4.336-9.686,9.686  c0,1.525,0.362,2.961,0.99,4.244C108.016,196.415,110.8,194.613,114.01,194.613z"/>
<path style="fill:#EDBB4C;" d="M206.347,3.271c-3.751,0.846-7.429,1.86-11.055,3.03c-52.872,17.011-91.115,66.591-91.115,125.116  v29.173c-8.746,5.496-20.156,9.697-34.994,10.93v212.103l-23.521,12.392V131.417c0-58.525,38.243-108.105,91.115-125.116  c6.353-2.048,12.904-3.626,19.634-4.681C163.14,0.554,170.047,0,177.069,0h0.031C187.152,0,196.942,1.128,206.347,3.271z"/>
<g>
</g>
<g>
</g>
<g>
</g>
<g>
</g>
<g>
</g>
<g>
</g>
<g>
</g>
<g>
</g>
<g>
</g>
<g>
</g>
<g>
</g>
<g>
</g>
<g>
</g>
<g>
</g>
<g>
</g>
</svg>
