<?xml version="1.0" encoding="iso-8859-1"?>
<!-- Generator: Adobe Illustrator 19.0.0, SVG Export Plug-In . SVG Version: 6.00 Build 0)  -->
<svg xmlns="http://www.w3.org/2000/svg" xmlns:xlink="http://www.w3.org/1999/xlink" version="1.1" id="Capa_1" x="0px" y="0px" viewBox="0 0 512 512" style="enable-background:new 0 0 512 512;" xml:space="preserve">
<path style="fill:#FFD15C;" d="M509.922,253.922c0,59.863-20.718,114.887-55.365,158.292  c-27.196,34.067-62.962,60.972-104.035,77.451c-29.217,11.732-61.117,18.179-94.521,18.179s-65.305-6.447-94.521-18.179  c-41.084-16.479-76.85-43.395-104.035-77.462C22.786,368.798,2.078,313.775,2.078,253.922C2.078,113.685,115.763,0,256,0  S509.922,113.685,509.922,253.922z"/>
<path style="fill:#279FC9;" d="M443.532,187.536c0,3.077-0.077,6.139-0.222,9.186C439.467,276.39,385.917,343.015,313,366.247  c-17.973,5.733-37.124,8.826-57.003,8.826s-39.038-3.093-57.018-8.826c-72.909-23.24-126.452-89.865-130.295-169.525  c-0.145-3.046-0.222-6.109-0.222-9.186s0.077-6.139,0.222-9.186C72.526,98.691,126.07,32.066,198.978,8.827  c17.981-5.733,37.14-8.826,57.018-8.826S295.027,3.094,313,8.827c72.917,23.231,126.468,89.856,130.311,169.525  C443.456,181.398,443.532,184.459,443.532,187.536z"/>
<path style="fill:#34ABE0;" d="M443.526,187.54c0,3.078-0.073,6.136-0.218,9.183c-1.13,23.547-6.612,45.955-15.66,66.445  c-19.443,22.169-44.773,39.052-73.544,48.214c-15.743,5.016-32.512,7.721-49.914,7.721c-17.412,0-34.191-2.705-49.935-7.721  c-63.843-20.355-110.72-78.695-114.089-148.446c-0.124-2.664-0.197-5.348-0.197-8.043c0-2.695,0.073-5.379,0.197-8.043  c3.275-67.896,47.768-124.95,108.99-146.725c2.27-0.083,4.55-0.124,6.84-0.124C275.875,0,295.028,3.089,313,8.83  c72.912,23.226,126.464,89.857,130.309,169.516C443.454,181.394,443.526,184.461,443.526,187.54z"/>
<path style="fill:#E8DBC4;" d="M443.312,178.347h-52.038C389.76,129.894,376.266,84.54,352.884,49.8  c-11.67-17.329-25.164-31.103-39.881-40.97C295.031,3.089,275.878,0,256,0c-1.244,0-2.477,0.01-3.721,0.041  c-1.036,0.021-2.083,0.041-3.12,0.083h-0.01c-17.433,0.622-34.264,3.627-50.173,8.706c-14.717,9.867-28.211,23.641-39.871,40.97  c-23.371,34.741-36.876,80.094-38.399,128.547H68.688c-0.155,3.047-0.228,6.115-0.228,9.193s0.073,6.136,0.228,9.183h52.018  c1.524,48.463,15.028,93.816,38.399,128.547c11.66,17.329,25.143,31.113,39.871,40.98c17.982,5.731,37.145,8.82,57.024,8.82  s39.031-3.089,57.003-8.82c14.717-9.867,28.211-23.651,39.881-40.98c3.659-5.431,7.079-11.131,10.25-17.059  c17.059-31.942,26.864-70.611,28.139-111.487h52.038c0.145-3.047,0.218-6.104,0.218-9.183S443.457,181.394,443.312,178.347z   M140.129,162.013c3.627-38.565,15.463-74.093,34.222-101.952c19.847-29.507,45.302-47.074,72.456-50.318v168.604H139.092  C139.279,172.854,139.621,167.402,140.129,162.013z M246.807,365.326c-27.154-3.234-52.608-20.811-72.456-50.308  c-21.381-31.766-33.766-73.482-35.259-118.297h107.715L246.807,365.326L246.807,365.326z M337.639,315.019  c-0.176,0.259-0.352,0.518-0.529,0.777c-19.775,29.03-45.012,46.328-71.927,49.53V196.722h107.715  C371.405,241.537,359.02,283.253,337.639,315.019z M265.183,178.347V9.742c27.154,3.244,52.598,20.811,72.456,50.318  c21.381,31.756,33.766,73.472,35.259,118.286L265.183,178.347L265.183,178.347z"/>
<path style="fill:#F9EED7;" d="M443.312,178.347h-52.038c-0.373-11.981-1.482-23.775-3.296-35.269  c-3.389-21.568-9.255-42.068-17.381-60.744c-5.047-11.608-10.965-22.511-17.712-32.533c-11.67-17.329-25.164-31.103-39.881-40.97  C295.031,3.089,275.878,0,256,0c-1.244,0-2.477,0.01-3.721,0.041c-1.036,0.021-2.083,0.041-3.12,0.083h-0.01  C187.939,21.91,143.445,78.954,140.17,146.85c-0.124,2.664-0.197,5.348-0.197,8.043c0,2.384,0.052,4.757,0.155,7.12  c3.627-38.565,15.463-74.093,34.222-101.952c19.847-29.507,45.302-47.074,72.456-50.318v168.604H141.642  c0.891,6.25,2.135,12.375,3.71,18.376h101.455V308.8c2.456,0.922,4.944,1.783,7.452,2.581c3.586,1.14,7.234,2.166,10.924,3.057  V196.722h107.715c-1.492,44.815-13.878,86.53-35.259,118.297c-0.176,0.259-0.352,0.518-0.529,0.777  c5.783-1.171,11.452-2.653,16.997-4.415c3.047-0.974,6.063-2.031,9.027-3.171c17.059-31.942,26.864-70.611,28.139-111.487h52.038  c0.145-3.047,0.218-6.104,0.218-9.183S443.457,181.394,443.312,178.347z M265.183,178.347V9.742  c23.278,2.778,45.291,16.085,63.605,38.41c3.068,3.721,6.011,7.69,8.851,11.908c3.617,5.369,6.975,11.027,10.053,16.935  c2.094,3.969,4.042,8.043,5.887,12.23c7.638,17.453,13.142,36.689,16.313,57.003c1.627,10.457,2.643,21.195,3.006,32.119H265.183z"/>
<path style="fill:#5C5E70;" d="M312.855,323.482c0-31.394-25.449-56.843-56.843-56.843h-0.015c-6.081,0-11.936,0.954-17.428,2.724  h-0.002c-22.867,7.359-39.413,28.806-39.413,54.12v114.456l4.083-2.152v12.52h100.786v-17.167l8.831,4.173V323.482z"/>
<path style="fill:#494B5B;" d="M235.576,437.938V323.482c0-25.022,16.171-46.257,38.629-53.85  c-5.715-1.931-11.83-2.992-18.195-2.992h-0.015c-6.081,0-11.936,0.954-17.428,2.723h-0.002  c-22.867,7.359-39.413,28.806-39.413,54.121v114.455l4.082-2.152v12.52h36.423v-12.52L235.576,437.938z"/>
<path style="fill:#F9EED7;" d="M323.782,436.849v66.631c-20.967,5.555-42.991,8.519-65.709,8.519  c-24.221,0-47.654-3.368-69.854-9.649v-65.502c0-4.353,2.436-8.322,6.312-10.292l4.964-2.518  c17.515-8.882,36.865-13.515,56.505-13.515c9.815,0,19.568,1.161,29.04,3.431c9.483,2.259,18.697,5.638,27.455,10.084l4.964,2.518  C321.336,428.527,323.782,432.507,323.782,436.849z"/>
<path style="fill:#E5BFA3;" d="M277.645,392.756v21.28c0,11.576-9.384,20.959-20.959,20.959l0,0  c-11.576,0-20.959-9.384-20.959-20.959v-21.28H277.645z"/>
<path style="fill:#F9D6B9;" d="M273.446,333.36c-16.77-1.093-28.983-7.993-36.897-14.445c-0.002,0.009-0.007,0.037-0.017,0.085  c0,0.002,0,0.002,0,0.002c-0.25,1.343-3.668,17.541-22.884,21.237v23.415c0,25.774,18.96,46.667,42.349,46.667l0,0  c23.389,0,42.349-20.893,42.349-46.667v-14.976C295.063,340.781,288.067,334.314,273.446,333.36z"/>
<path style="fill:#E5BFA3;" d="M234.28,363.655v-38.381c-2.737,5.406-8.573,12.647-20.632,14.966v23.414  c0,25.774,18.96,46.667,42.349,46.667l0,0c3.559,0,7.013-0.49,10.315-1.401C247.911,403.844,234.28,385.506,234.28,363.655z"/>
<path style="fill:#FF525D;" d="M161.479,434.569v55.096c-41.084-16.479-76.85-43.395-104.035-77.462  c7.338-2.923,15.018-4.913,22.863-5.918l13.639-1.752l4.125,0.529l9.525,1.223c10.654,1.358,21.008,4.55,30.595,9.411l16.997,8.623  C159.043,426.278,161.479,430.247,161.479,434.569z"/>
<g>
	<path style="fill:#E5BFA3;" d="M114.829,385.737v22.43c0,11.532-9.348,20.881-20.881,20.881l0,0   c-11.532,0-20.881-9.348-20.881-20.881v-22.43H114.829z"/>
	<circle style="fill:#E5BFA3;" cx="48.867" cy="349.044" r="12.905"/>
	<circle style="fill:#E5BFA3;" cx="139.025" cy="349.044" r="12.905"/>
</g>
<path style="fill:#F9D6B9;" d="M140.44,312.205l-92.983-4.95v51.865c0,25.676,20.814,46.492,46.492,46.492l0,0  c25.676,0,46.492-20.814,46.492-46.492V312.205z"/>
<path style="fill:#E5BFA3;" d="M65.793,359.121v-50.89l-18.335-0.976v51.865c0,25.676,20.814,46.492,46.492,46.492l0,0  c3.139,0,6.203-0.315,9.168-0.908C81.831,400.446,65.793,381.659,65.793,359.121z"/>
<path style="fill:#C98847;" d="M146.096,310.468v23.42c0,1.905-0.771,3.627-2.018,4.874c-1.282,1.284-3.069,2.062-5.033,2.018  c-3.769-0.085-6.737-3.263-6.737-7.031v-3.54c0-2.805-1.136-5.342-2.975-7.179c-1.839-1.839-4.375-2.975-7.179-2.975  c-4.375,0-8.631,1.469-12.042,4.212c-4.422,3.557-10.044,5.688-16.165,5.688c-6.119,0-11.741-2.131-16.163-5.688  c-0.585-0.472-1.195-0.903-1.827-1.297c-0.007-0.007-0.017-0.011-0.024-0.017c-1.202-0.749-2.48-1.358-3.809-1.822  c-2.042-0.71-4.197-1.077-6.387-1.077c-5.605,0-10.15,4.552-10.15,10.159v3.677c0,1.902-0.771,3.627-2.02,4.874  c-1.247,1.247-2.97,2.018-4.874,2.018c-3.807,0-6.892-3.085-6.892-6.894v-23.42c0-20.507,16.622-37.132,37.129-37.132h30.034  C129.471,273.336,146.096,289.961,146.096,310.468z"/>
<path style="fill:#BA773A;" d="M109.324,273.334c-20.345,0.197-36.772,16.749-36.772,37.135v10.831  c-0.135-0.062-0.28-0.114-0.425-0.166c-2.042-0.715-4.197-1.078-6.384-1.078c-5.607,0-10.157,4.55-10.157,10.157v3.679  c0,1.897-0.767,3.627-2.021,4.871c-1.244,1.244-2.964,2.021-4.871,2.021c-3.804,0-6.892-3.089-6.892-6.892v-23.423  c0-20.511,16.624-37.135,37.124-37.135L109.324,273.334L109.324,273.334z"/>
<path style="fill:#4BC999;" d="M454.557,412.214c-27.196,34.067-62.962,60.972-104.035,77.451v-55.096  c0-4.322,2.425-8.291,6.291-10.25l16.997-8.623c9.587-4.861,19.93-8.053,30.595-9.411l13.639-1.752l4.125,0.529l9.525,1.223  C439.539,407.291,447.219,409.281,454.557,412.214z"/>
<g>
	<path style="fill:#E5BFA3;" d="M438.925,385.737v22.43c0,11.532-9.348,20.881-20.881,20.881l0,0   c-11.532,0-20.881-9.348-20.881-20.881v-22.43H438.925z"/>
	<circle style="fill:#E5BFA3;" cx="372.965" cy="349.044" r="12.905"/>
	<circle style="fill:#E5BFA3;" cx="463.123" cy="349.044" r="12.905"/>
</g>
<path style="fill:#F9D6B9;" d="M464.536,312.205l-92.983-4.95v51.865c0,25.676,20.814,46.492,46.492,46.492l0,0  c25.676,0,46.492-20.814,46.492-46.492V312.205z"/>
<path style="fill:#E5BFA3;" d="M389.889,359.121v-50.89l-18.335-0.976v51.865c0,25.676,20.814,46.492,46.492,46.492l0,0  c3.139,0,6.203-0.315,9.168-0.908C405.928,400.446,389.889,381.659,389.889,359.121z"/>
<path style="fill:#797B89;" d="M470.193,310.468v23.42c0,1.905-0.771,3.627-2.018,4.874c-1.282,1.284-3.069,2.062-5.033,2.018  c-3.769-0.085-6.737-3.263-6.737-7.031v-3.54c0-2.805-1.136-5.342-2.975-7.179c-1.839-1.839-4.375-2.975-7.179-2.975  c-4.375,0-8.631,1.469-12.042,4.212c-4.422,3.557-10.044,5.688-16.165,5.688c-6.119,0-11.741-2.131-16.163-5.688  c-0.585-0.472-1.195-0.903-1.827-1.297c-0.007-0.007-0.017-0.011-0.024-0.017c-1.202-0.749-2.48-1.358-3.809-1.822  c-2.042-0.71-4.197-1.077-6.387-1.077c-5.605,0-10.15,4.552-10.15,10.159v3.677c0,1.902-0.771,3.627-2.02,4.874  c-1.247,1.247-2.97,2.018-4.874,2.018c-3.807,0-6.892-3.085-6.892-6.894v-23.42c0-20.507,16.622-37.132,37.129-37.132h30.034  C453.569,273.336,470.193,289.961,470.193,310.468z"/>
<path style="fill:#5C5E70;" d="M433.421,273.333c-20.345,0.197-36.772,16.748-36.772,37.135v10.831  c-0.135-0.062-0.28-0.114-0.425-0.166c-2.042-0.715-4.197-1.078-6.384-1.078c-5.607,0-10.157,4.55-10.157,10.157v3.679  c0,1.897-0.767,3.627-2.021,4.871c-1.244,1.244-2.964,2.021-4.871,2.021c-3.804,0-6.892-3.089-6.892-6.892v-23.423  c0-20.511,16.624-37.135,37.124-37.135H433.421z"/>
<g>
</g>
<g>
</g>
<g>
</g>
<g>
</g>
<g>
</g>
<g>
</g>
<g>
</g>
<g>
</g>
<g>
</g>
<g>
</g>
<g>
</g>
<g>
</g>
<g>
</g>
<g>
</g>
<g>
</g>
</svg>
