<?xml version="1.0" encoding="iso-8859-1"?>
<!-- Generator: Adobe Illustrator 19.0.0, SVG Export Plug-In . SVG Version: 6.00 Build 0)  -->
<svg xmlns="http://www.w3.org/2000/svg" xmlns:xlink="http://www.w3.org/1999/xlink" version="1.1" id="Capa_1" x="0px" y="0px" viewBox="0 0 512 512" style="enable-background:new 0 0 512 512;" xml:space="preserve">
<circle style="fill:#FFD15C;" cx="256" cy="256" r="256"/>
<path style="fill:#F4A14E;" d="M461.754,172.209v236.136c-46.644,62.892-121.438,103.654-205.751,103.654  c-84.323,0-159.128-40.772-205.772-103.675V172.209L461.754,172.209L461.754,172.209z"/>
<rect x="50.239" y="152.607" style="fill:#E28D40;" width="411.512" height="58.786"/>
<rect x="341.232" y="54.585" style="fill:#494B5B;" width="13.849" height="48.879"/>
<path style="fill:#5C5E70;" d="M364.745,67.62h-33.17c-4.788,0-8.669-3.882-8.669-8.67V9.488c0-4.788,3.882-8.67,8.669-8.67h33.17  c4.788,0,8.67,3.882,8.67,8.67v49.463C373.414,63.739,369.533,67.62,364.745,67.62z"/>
<g>
	<path style="fill:#494B5B;" d="M338.588,54.102V14.336c0-7.466,6.052-13.518,13.518-13.518h-15.682   c-7.466,0-13.518,6.052-13.518,13.518v39.766c0,7.466,6.052,13.518,13.518,13.518h15.682   C344.64,67.62,338.588,61.567,338.588,54.102z"/>
	<rect x="156.923" y="54.585" style="fill:#494B5B;" width="13.849" height="48.879"/>
</g>
<path style="fill:#5C5E70;" d="M180.429,67.62h-33.17c-4.788,0-8.67-3.882-8.67-8.67V9.488c0-4.788,3.882-8.67,8.67-8.67h33.17  c4.788,0,8.67,3.882,8.67,8.67v49.463C189.098,63.739,185.217,67.62,180.429,67.62z"/>
<g>
	<path style="fill:#494B5B;" d="M154.271,54.102V14.336c0-7.466,6.052-13.518,13.518-13.518h-15.682   c-7.466,0-13.518,6.052-13.518,13.518v39.766c0,7.466,6.052,13.518,13.518,13.518h15.682   C160.324,67.62,154.271,61.567,154.271,54.102z"/>
	<rect x="249.072" y="54.585" style="fill:#494B5B;" width="13.849" height="48.879"/>
</g>
<path style="fill:#5C5E70;" d="M272.587,67.62h-33.17c-4.788,0-8.67-3.882-8.67-8.67V9.488c0-4.788,3.882-8.67,8.67-8.67h33.17  c4.788,0,8.669,3.882,8.669,8.67v49.463C281.256,63.739,277.374,67.62,272.587,67.62z"/>
<path style="fill:#494B5B;" d="M246.43,54.102V14.336c0-7.466,6.052-13.518,13.518-13.518h-15.682  c-7.466,0-13.518,6.052-13.518,13.518v39.766c0,7.466,6.052,13.518,13.518,13.518h15.682C252.482,67.62,246.43,61.567,246.43,54.102  z"/>
<path style="fill:#F4A14E;" d="M482.947,172.202H29.047c-6.501,0-12.175-4.408-13.782-10.708L0.531,103.719  C-1.763,94.725,5.032,85.98,14.313,85.98h483.368c9.281,0,16.076,8.745,13.782,17.738l-14.735,57.776  C495.122,167.794,489.448,172.202,482.947,172.202z"/>
<path style="fill:#E28D40;" d="M133.795,369.778v-84.564c0-13.992,11.342-25.335,25.335-25.335h193.728  c13.992,0,25.335,11.342,25.335,25.335v84.564c0,13.992-11.342,25.335-25.335,25.335H159.13  C145.137,395.112,133.795,383.77,133.795,369.778z"/>
<path style="fill:#F9EED7;" d="M347.014,378.819h-182.04c-8.221,0-14.886-6.664-14.886-14.886v-72.875  c0-8.221,6.664-14.886,14.886-14.886h182.04c8.221,0,14.886,6.664,14.886,14.886v72.875  C361.899,372.155,355.235,378.819,347.014,378.819z"/>
<g>
	<path style="fill:#797B89;" d="M174.037,332.939c0-5.569-14.591-4.603-14.591-15.374c0-6.905,6.03-9.528,11.783-9.528   c2.44,0,9.161,0.46,9.161,4.05c0,1.242-0.829,3.774-2.854,3.774c-1.657,0-2.532-1.749-6.306-1.749   c-3.267,0-4.603,1.334-4.603,2.762c0,4.603,14.592,3.728,14.592,15.328c0,6.628-4.833,10.218-11.507,10.218   c-6.03,0-11.094-2.946-11.094-5.984c0-1.565,1.381-3.867,3.131-3.867c2.163,0,3.544,3.406,7.825,3.406   C171.689,335.978,174.037,335.149,174.037,332.939z"/>
	<path style="fill:#797B89;" d="M187.064,310.477c0-1.15,1.058-2.163,2.67-2.163h9.528c6.076,0,10.863,2.854,10.863,10.587v0.231   c0,7.732-4.971,10.679-11.323,10.679h-4.557v9.943c0,1.472-1.795,2.209-3.59,2.209c-1.795,0-3.59-0.737-3.59-2.209v-29.277H187.064   z M194.244,314.574v9.712h4.557c2.578,0,4.142-1.473,4.142-4.603v-0.506c0-3.131-1.565-4.603-4.142-4.603h-4.557V314.574z"/>
	<path style="fill:#797B89;" d="M222.737,322.352h6.905c1.38,0,2.163,1.334,2.163,2.808c0,1.242-0.645,2.716-2.163,2.716h-6.905   v7.825h12.336c1.38,0,2.163,1.473,2.163,3.177c0,1.473-0.645,3.085-2.163,3.085h-16.386c-1.565,0-3.131-0.737-3.131-2.209v-29.23   c0-1.473,1.565-2.21,3.131-2.21h16.387c1.519,0,2.163,1.611,2.163,3.085c0,1.703-0.783,3.177-2.163,3.177h-12.336v7.778H222.737z"/>
	<path style="fill:#797B89;" d="M240.366,339.015c0-0.138,0.046-0.323,0.092-0.506l8.562-28.079   c0.506-1.611,2.578-2.394,4.695-2.394c2.117,0,4.189,0.783,4.696,2.394l8.608,28.079c0.046,0.184,0.092,0.368,0.092,0.506   c0,1.703-2.624,2.946-4.603,2.946c-1.15,0-2.071-0.369-2.348-1.334l-1.565-5.754h-9.712l-1.565,5.754   c-0.276,0.967-1.197,1.334-2.348,1.334C242.99,341.961,240.366,340.718,240.366,339.015z M257.075,329.349l-3.36-12.336   l-3.36,12.336H257.075z"/>
	<path style="fill:#797B89;" d="M272.081,310.477c0-1.519,1.795-2.163,3.59-2.163c1.795,0,3.59,0.645,3.59,2.163v11.048   l8.608-12.198c0.506-0.737,1.15-1.013,1.887-1.013c1.841,0,4.235,1.887,4.235,3.682c0,0.368-0.092,0.875-0.46,1.38l-7.549,9.482   l9.528,14.592c0.23,0.368,0.369,0.783,0.369,1.196c0,1.795-2.256,3.59-4.327,3.59c-0.967,0-1.887-0.368-2.485-1.334l-7.871-11.968   l-1.933,2.486v8.332c0,1.472-1.795,2.209-3.59,2.209s-3.59-0.737-3.59-2.209v-29.276H272.081z"/>
	<path style="fill:#797B89;" d="M307.616,322.352h6.905c1.38,0,2.163,1.334,2.163,2.808c0,1.242-0.645,2.716-2.163,2.716h-6.905   v7.825h12.336c1.38,0,2.163,1.473,2.163,3.177c0,1.473-0.645,3.085-2.163,3.085h-16.387c-1.565,0-3.131-0.737-3.131-2.209v-29.23   c0-1.473,1.565-2.21,3.131-2.21h16.387c1.519,0,2.163,1.611,2.163,3.085c0,1.703-0.783,3.177-2.163,3.177h-12.336V322.352z"/>
	<path style="fill:#797B89;" d="M327.547,310.477c0-1.15,0.875-2.163,2.209-2.163h9.528c6.306,0,11.323,2.348,11.323,9.85   c0,5.156-2.348,8.101-5.569,9.343l5.616,10.173c0.184,0.276,0.23,0.598,0.23,0.829c0,1.795-2.394,3.728-4.511,3.728   c-0.921,0-1.795-0.368-2.302-1.334l-6.306-12.244h-3.038v11.094c0,1.472-1.795,2.209-3.59,2.209c-1.795,0-3.59-0.737-3.59-2.209   V310.477z M334.728,314.574v8.562h4.557c2.578,0,4.142-1.059,4.142-4.281c0-3.221-1.565-4.281-4.142-4.281H334.728z"/>
</g>
<g>
</g>
<g>
</g>
<g>
</g>
<g>
</g>
<g>
</g>
<g>
</g>
<g>
</g>
<g>
</g>
<g>
</g>
<g>
</g>
<g>
</g>
<g>
</g>
<g>
</g>
<g>
</g>
<g>
</g>
</svg>
