<?xml version="1.0" encoding="iso-8859-1"?>
<!-- Generator: Adobe Illustrator 19.0.0, SVG Export Plug-In . SVG Version: 6.00 Build 0)  -->
<svg xmlns="http://www.w3.org/2000/svg" xmlns:xlink="http://www.w3.org/1999/xlink" version="1.1" id="Capa_1" x="0px" y="0px" viewBox="0 0 512 512" style="enable-background:new 0 0 512 512;" xml:space="preserve">
<circle style="fill:#5C5E70;" cx="256" cy="256" r="256"/>
<rect x="39.706" y="21.943" style="fill:#F9EED7;" width="432.588" height="351.765"/>
<rect x="39.706" y="21.943" style="fill:#E8DBC4;" width="432.588" height="31.938"/>
<path style="fill:#FF525D;" d="M330.724,451.458v49.465c-23.636,7.199-48.724,11.076-74.721,11.076  c-22.674,0-44.669-2.947-65.599-8.485c-3.062-0.805-6.102-1.672-9.122-2.591v-49.465c0-4.796,2.685-9.174,6.959-11.337  l29.487-14.963l5.35-2.717l10.574-1.358l22.35-2.863l4.556,0.585l19.31,2.476l9.059,1.16l5.339,2.717l29.487,14.963  C328.028,442.283,330.724,446.661,330.724,451.458z"/>
<path style="fill:#EF4152;" d="M260.559,418.804l-26.906,3.448l-1.452,0.188l-12.915,6.551l-21.922,11.128  c-4.263,2.163-6.959,6.541-6.959,11.337v52.057c-3.062-0.805-6.102-1.672-9.122-2.591v-49.465c0-4.796,2.685-9.174,6.959-11.337  l29.487-14.963l5.35-2.717l10.574-1.358l22.35-2.863L260.559,418.804z"/>
<g>
	<rect x="233.65" y="397.416" style="fill:#E5BFA3;" width="46.216" height="29.711"/>
	<circle style="fill:#E5BFA3;" cx="206.117" cy="347.397" r="14.281"/>
	<circle style="fill:#E5BFA3;" cx="305.883" cy="347.397" r="14.281"/>
	<path style="fill:#E5BFA3;" d="M307.444,306.633l-102.89-5.477v57.392c0,28.412,23.033,51.445,51.445,51.445l0,0   c28.412,0,51.445-23.033,51.445-51.445v-51.915H307.444z"/>
</g>
<path style="fill:#5C5E70;" d="M270.426,263.624h-28.85c-23.436,0-41.998,19.801-40.485,43.188l4.019,62.143  c0.67,10.36,5.822,19.914,14.109,26.166l0,0c5.263,3.971,12.147,5.089,18.396,2.987l8.306-2.792c6.54-2.198,13.619-2.198,20.159,0  l8.306,2.792c6.25,2.101,13.133,0.983,18.396-2.987l0,0c8.288-6.253,13.439-15.806,14.109-26.166l4.019-62.143  C312.423,283.424,293.862,263.624,270.426,263.624z"/>
<path style="fill:#494B5B;" d="M244.297,395.117c0.23,0.178,0.47,0.345,0.711,0.512l-7.387,2.476  c-2.079,0.7-4.232,1.045-6.363,1.045c-4.284,0-8.526-1.379-12.037-4.033c-8.286-6.249-13.437-15.799-14.106-26.164l-4.023-62.14  c-1.505-23.385,17.053-43.186,40.49-43.186h25.078c-23.437,0-41.994,19.801-40.49,43.186l4.023,62.14  C230.86,379.318,236.011,388.868,244.297,395.117z"/>
<path style="fill:#EF4152;" d="M289.858,430.899c-22.001,7.159-45.714,7.159-67.715,0c-3.532-1.149-5.338-5.068-3.972-8.521  c0.868-2.192,1.736-4.383,2.604-6.576c1.254-3.167,4.747-4.813,7.992-3.775c17.711,5.662,36.755,5.662,54.466,0  c3.244-1.038,6.738,0.608,7.992,3.775c0.868,2.192,1.736,4.383,2.604,6.576C295.196,425.831,293.39,429.75,289.858,430.899z"/>
<path style="fill:#FFD15C;" d="M159.361,451.458v41.671c-32.392-13.218-61.482-32.872-85.65-57.396  c-2.769-2.8-5.465-5.674-8.098-8.6c-1.118-1.243-2.226-2.497-3.323-3.762c-0.282-0.334-0.575-0.669-0.857-1.003  c-0.303-0.355-0.606-0.7-0.909-1.055l1.766-0.23l22.35-2.863l4.556,0.585l19.31,2.476l9.059,1.16l5.339,2.717l29.487,14.963  C156.665,442.283,159.361,446.661,159.361,451.458z"/>
<path style="fill:#EF4152;" d="M89.196,418.804l-26.906,3.448l-0.857,0.115c-0.303-0.355-0.606-0.7-0.909-1.055l1.766-0.23  l22.35-2.863L89.196,418.804z"/>
<g>
	<path style="fill:#E5BFA3;" d="M108.505,397.415v29.717H65.612c-1.118-1.243-2.226-2.497-3.323-3.762v-25.955H108.505z"/>
	<circle style="fill:#E5BFA3;" cx="34.753" cy="347.397" r="14.281"/>
	<circle style="fill:#E5BFA3;" cx="134.52" cy="347.397" r="14.281"/>
	<path style="fill:#E5BFA3;" d="M136.081,306.633l-102.89-5.477v57.392c0,28.412,23.033,51.445,51.445,51.445l0,0   c28.412,0,51.445-23.033,51.445-51.445v-51.915H136.081z"/>
</g>
<path style="fill:#C98847;" d="M99.063,263.624h-28.85c-23.436,0-41.998,19.801-40.485,43.188l4.019,62.143  c0.67,10.36,5.822,19.914,14.109,26.166l0,0c5.263,3.971,12.147,5.089,18.396,2.987l8.306-2.792c6.54-2.198,13.619-2.198,20.159,0  l8.306,2.792c6.25,2.101,13.133,0.983,18.396-2.987l0,0c8.288-6.253,13.439-15.806,14.109-26.166l4.019-62.143  C141.06,283.424,122.499,263.624,99.063,263.624z"/>
<path style="fill:#EDBB4C;" d="M122.904,425.157c-0.146,2.56-1.818,4.901-4.409,5.747c-14.514,4.723-29.769,6.332-44.784,4.827  c-2.769-2.8-5.465-5.674-8.098-8.6c-1.118-1.243-2.226-2.497-3.323-3.762c-0.282-0.334-0.575-0.669-0.857-1.003  c-0.303-0.355-0.606-0.7-0.909-1.055c-2.529-2.999-5.005-6.05-7.398-9.164c1.327-0.512,2.821-0.585,4.274-0.125  c1.62,0.522,3.25,0.993,4.89,1.411c15.161,3.918,31.107,3.783,46.216-0.408c1.128-0.313,2.247-0.648,3.365-1.003  c3.25-1.034,6.74,0.616,7.993,3.783c0.867,2.184,1.735,4.378,2.602,6.572C122.831,423.298,122.967,424.238,122.904,425.157z"/>
<path style="fill:#4BC999;" d="M451.483,421.312c-0.094,0.104-0.167,0.199-0.251,0.293c-1.588,1.87-3.197,3.709-4.838,5.528  c-2.633,2.926-5.329,5.799-8.098,8.6c-21.88,22.194-47.783,40.406-76.528,53.467c-3.009,1.369-6.05,2.675-9.122,3.929v-41.671  c0-4.796,2.685-9.174,6.959-11.337l29.487-14.963l5.35-2.717l10.574-1.358l22.35-2.863l4.556,0.585l19.31,2.476L451.483,421.312z"/>
<path style="fill:#41B787;" d="M431.922,418.804l-26.906,3.448l-1.452,0.188l-12.915,6.551l-21.922,11.128  c-4.263,2.163-6.959,6.541-6.959,11.337v37.742c-3.009,1.369-6.05,2.675-9.122,3.929v-41.671c0-4.796,2.685-9.174,6.959-11.337  l29.487-14.963l5.35-2.717l10.574-1.358l22.35-2.863L431.922,418.804z"/>
<g>
	<path style="fill:#E5BFA3;" d="M451.232,397.415v24.189c-1.588,1.87-3.197,3.709-4.838,5.528h-41.378v-29.717H451.232z"/>
	<circle style="fill:#E5BFA3;" cx="377.48" cy="347.397" r="14.281"/>
	<circle style="fill:#E5BFA3;" cx="477.247" cy="347.397" r="14.281"/>
	<path style="fill:#E5BFA3;" d="M478.808,306.633l-102.89-5.477v57.392c0,28.412,23.033,51.445,51.444,51.445l0,0   c28.412,0,51.445-23.033,51.445-51.445v-51.915H478.808z"/>
</g>
<path style="fill:#FFD15C;" d="M441.789,263.624h-28.85c-23.436,0-41.998,19.801-40.485,43.188l4.019,62.143  c0.67,10.36,5.822,19.914,14.109,26.166l0,0c5.263,3.971,12.147,5.089,18.396,2.987l8.306-2.792c6.54-2.198,13.619-2.198,20.159,0  l8.306,2.792c6.25,2.101,13.133,0.983,18.396-2.987l0,0c8.288-6.253,13.439-15.806,14.109-26.166l4.019-62.143  C483.787,283.424,465.225,263.624,441.789,263.624z"/>
<path style="fill:#41B787;" d="M458.88,412.148c-2.393,3.114-4.869,6.165-7.398,9.164c-0.094,0.104-0.167,0.199-0.251,0.293  c-1.588,1.87-3.197,3.709-4.838,5.528c-2.633,2.926-5.329,5.799-8.098,8.6c-15.026,1.505-30.281-0.104-44.795-4.827  c-1.16-0.376-2.132-1.055-2.853-1.912c-0.93-1.066-1.473-2.414-1.557-3.835c-0.063-0.92,0.073-1.86,0.439-2.779  c0.867-2.194,1.735-4.389,2.612-6.572c1.254-3.166,4.744-4.817,7.983-3.783c1.62,0.522,3.25,0.993,4.89,1.411  c15.161,3.918,31.107,3.783,46.216-0.408c1.128-0.313,2.247-0.648,3.365-1.003C456.049,411.563,457.553,411.637,458.88,412.148z"/>
<path style="fill:#F4A14E;" d="M316.085,477.601v27.303c-19.268,4.639-39.382,7.095-60.082,7.095  c-20.689,0-40.824-2.456-60.082-7.105v-27.293c0-9.122,7.387-16.52,16.52-16.52h87.124  C308.687,461.081,316.085,468.479,316.085,477.601z"/>
<path style="fill:#F9AF6B;" d="M316.085,492.229v12.675c-19.268,4.639-39.382,7.095-60.082,7.095  c-20.689,0-40.824-2.456-60.082-7.105v-12.664c0-9.122,7.387-16.52,16.52-16.52h87.124  C308.687,475.71,316.085,483.108,316.085,492.229z"/>
<g>
	<path style="fill:#F4A14E;" d="M409.237,461.081c-14.608,10.951-30.438,20.355-47.229,28.003v-11.483   c0-9.122,7.387-16.52,16.509-16.52H409.237z"/>
	<path style="fill:#F4A14E;" d="M149.998,477.601v11.483c-16.792-7.649-32.622-17.063-47.24-28.003h30.72   C142.6,461.081,149.998,468.479,149.998,477.601z"/>
</g>
<path style="fill:#EDBB4C;" d="M479.268,35.808H32.74c-5.673,0-10.27-4.599-10.27-10.27V10.27C22.468,4.599,27.067,0,32.74,0  h446.528c5.673,0,10.27,4.599,10.27,10.27v15.266C489.538,31.209,484.939,35.808,479.268,35.808z"/>
<path style="fill:#797B89;" d="M309.455,191.357l-73.898-42.665c-8.071-4.66-18.159,1.165-18.159,10.484v85.33  c0,9.319,10.088,15.145,18.159,10.484l73.898-42.665C317.526,207.666,317.526,196.017,309.455,191.357z"/>
<path style="fill:#BA773A;" d="M72.934,395.116c0.23,0.178,0.47,0.345,0.711,0.512l-7.387,2.476c-2.079,0.7-4.232,1.045-6.363,1.045  c-4.284,0-8.526-1.379-12.037-4.033c-8.286-6.249-13.437-15.799-14.106-26.164l-4.023-62.14  c-1.505-23.385,17.053-43.186,40.49-43.186h25.078c-23.437,0-41.994,19.801-40.49,43.186l4.023,62.14  C59.496,379.317,64.648,388.867,72.934,395.116z"/>
<path style="fill:#EDBB4C;" d="M415.66,395.116c0.23,0.178,0.47,0.345,0.711,0.512l-7.387,2.476c-2.079,0.7-4.232,1.045-6.363,1.045  c-4.284,0-8.526-1.379-12.037-4.033c-8.286-6.249-13.437-15.799-14.106-26.164l-4.023-62.14  c-1.505-23.385,17.053-43.186,40.49-43.186h25.078c-23.437,0-41.994,19.801-40.49,43.186l4.023,62.14  C402.223,379.317,407.374,388.867,415.66,395.116z"/>
<g>
</g>
<g>
</g>
<g>
</g>
<g>
</g>
<g>
</g>
<g>
</g>
<g>
</g>
<g>
</g>
<g>
</g>
<g>
</g>
<g>
</g>
<g>
</g>
<g>
</g>
<g>
</g>
<g>
</g>
</svg>
