<?xml version="1.0" encoding="iso-8859-1"?>
<!-- Generator: Adobe Illustrator 19.0.0, SVG Export Plug-In . SVG Version: 6.00 Build 0)  -->
<svg xmlns="http://www.w3.org/2000/svg" xmlns:xlink="http://www.w3.org/1999/xlink" version="1.1" id="Capa_1" x="0px" y="0px" viewBox="0 0 512 512" style="enable-background:new 0 0 512 512;" xml:space="preserve">
<circle style="fill:#4BC999;" cx="256" cy="256" r="256"/>
<path style="fill:#5C5E70;" d="M512,22.424V256c0,36.049-7.45,70.363-20.898,101.48c-9.613,22.225-22.277,42.82-37.47,61.252  c-6.039,7.314-12.466,14.294-19.268,20.898H77.636c-6.802-6.604-13.239-13.584-19.268-20.898  c-3.532-4.284-6.928-8.694-10.177-13.197c-4.848-6.719-9.373-13.688-13.573-20.877c-1.233-2.132-2.456-4.284-3.636-6.457  c-1.264-2.33-2.497-4.681-3.688-7.053V22.424C27.293,10.041,37.334,0,49.716,0h439.86C501.959,0,512,10.041,512,22.424z"/>
<path style="fill:#F9EED7;" d="M491.102,22.424V357.48c-9.613,22.225-22.277,42.82-37.47,61.252H58.368  c-3.532-4.284-6.928-8.694-10.177-13.197V22.424c0-0.846,0.679-1.526,1.526-1.526h439.86  C490.423,20.898,491.102,21.577,491.102,22.424z"/>
<g>
	<path style="fill:#FF525D;" d="M429.834,139.749L429.834,139.749c0,5.291,4.289,9.581,9.581,9.581h4.305L329.678,263.372   l-70.531-70.53c-4.338-4.338-11.371-4.337-15.709,0L183.77,252.51l13.549,13.549l53.973-53.973l70.531,70.53   c4.337,4.337,11.371,4.337,15.709,0l119.737-119.737v4.305c0,5.291,4.289,9.581,9.581,9.581l0,0c5.291,0,9.581-4.289,9.581-9.581   v-30.219c0-3.753-3.043-6.796-6.796-6.796h-30.221C434.124,130.168,429.834,134.457,429.834,139.749z"/>
	<path style="fill:#FF525D;" d="M257.034,413.55v98.44C256.69,512,256.345,512,256,512c-69.36,0-132.263-27.575-178.364-72.37   c-6.802-6.604-13.239-13.584-19.268-20.898c-3.532-4.284-6.928-8.694-10.177-13.197c-4.848-6.719-9.373-13.688-13.573-20.877   c-1.233-2.132-2.456-4.284-3.636-6.457l31.984-16.238l0.94-0.47l18.975-2.435l21.452-2.748l1.526-0.199l17.115-2.194l8.182,1.055   l10.449,1.337l24.179,3.103l16.259,2.079l0.93,0.47l61.565,31.242C252.207,397.093,257.034,404.961,257.034,413.55z"/>
</g>
<path style="fill:#EF4152;" d="M131.156,354.973l-23.05,2.957l-2.988,0.376l-22.235,2.853l-2.602,0.334l-12.131,6.154  l-33.531,17.011c-1.233-2.132-2.456-4.284-3.636-6.457l31.984-16.238l0.94-0.47l18.975-2.435l21.452-2.748l1.526-0.199l17.115-2.194  L131.156,354.973z"/>
<rect x="82.881" y="316.604" style="fill:#F9D6B9;" width="82.902" height="53.3"/>
<g>
	<circle style="fill:#E5BFA3;" cx="33.479" cy="226.858" r="25.621"/>
	<circle style="fill:#E5BFA3;" cx="212.47" cy="226.858" r="25.621"/>
	<path style="fill:#E5BFA3;" d="M104.742,316.604L104.742,316.604H82.883l0,0h-0.001v22.541h0.001v22.302h21.857l0,0   c0-7.55,6.288-13.622,13.83-13.267c1.458,0.069,2.925,0.103,4.399,0.103c15.451,0,30.019-3.799,42.817-10.51v-21.17H104.742z"/>
</g>
<path style="fill:#F9D6B9;" d="M215.27,153.723l-184.594-9.827v102.966c0,50.974,41.323,92.297,92.297,92.297l0,0  c50.974,0,92.297-41.323,92.297-92.297V153.723z"/>
<path style="fill:#E5BFA3;" d="M136.125,101.927l-56.545,4.895c-8.626,0-16.577,2.878-22.956,7.72h-3.826v3.323  c-6.933,6.886-11.228,16.425-11.228,26.968l-14.506,51.647c0,6.723-2.772,12.307,3.613,13.464v36.92  c0,50.974,41.323,92.297,92.297,92.297l0,0c3.44,0,6.835-0.194,10.177-0.561c-46.184-5.067-82.12-44.201-82.12-91.736v-54.461  c0-8.517,6.629-15.726,15.14-16.061c0.267-0.01,0.537-0.016,0.808-0.016l0,0c8.685,0,17.137,2.916,23.905,8.36  c8.782,7.065,20.033,12.772,32.091,11.292c24.017-2.947,23.309-18.811,32.091-25.876c6.768-5.444,15.22-8.36,23.905-8.36h0.374  c11.102,0,19.768-4.145,19.785,6.956c0.011,7.474,5.898,41.579,13.374,41.746c3.901,0.088,7.447-1.458,9.991-4.007  c2.475-2.475-0.674-5.896-0.674-9.677l-3.368-12.62L136.125,101.927z"/>
<path style="fill:#5C5E70;" d="M226.499,150.274v46.495c0,3.781-1.53,7.201-4.005,9.677c-2.545,2.551-6.093,4.095-9.99,4.005  c-7.483-0.168-13.374-6.476-13.374-13.959v-7.028c0-5.568-2.256-10.604-5.906-14.253c-3.65-3.65-8.685-5.906-14.253-5.906  c-8.685,0-17.136,2.915-23.907,8.362c-8.778,7.061-19.939,11.291-32.092,11.291c-12.148,0-23.309-4.23-32.087-11.291  c-1.161-0.936-2.372-1.792-3.627-2.574c-0.014-0.014-0.032-0.023-0.047-0.032c-2.387-1.488-4.923-2.696-7.562-3.617  c-4.052-1.409-8.334-2.139-12.681-2.139c-11.128,0-20.15,9.036-20.15,20.169v7.3c0,3.776-1.53,7.201-4.01,9.677  c-2.475,2.475-5.896,4.005-9.677,4.005c-7.557,0-13.683-6.125-13.683-13.687v-46.495c0-40.711,32.999-73.714,73.71-73.714h59.625  C193.496,76.56,226.499,109.564,226.499,150.274z"/>
<path style="fill:#494B5B;" d="M144.357,76.559c-40.709,0-73.707,33.008-73.707,73.718v19.205c-1.223-0.115-2.445-0.178-3.678-0.178  c-11.128,0-20.156,9.038-20.156,20.167v7.304c0,3.772-1.526,7.199-4.002,9.676c-2.476,2.476-5.904,4.002-9.676,4.002  c-7.565,0-13.688-6.123-13.688-13.678v-46.498c0-40.709,32.998-73.718,73.707-73.718L144.357,76.559L144.357,76.559z"/>
<path style="fill:#E5BFA3;" d="M102.941,222.466c-0.514,4.254-4.268,7.377-8.554,7.377H72.121c-2.326,0-4.431-0.94-5.957-2.466  c-1.746-1.751-2.733-4.267-2.402-7.003c0.514-4.254,4.268-7.377,8.554-7.377h22.267c2.326,0,4.431,0.94,5.957,2.466  C102.284,217.214,103.271,219.731,102.941,222.466z"/>
<path style="fill:#FFFFFF;" d="M102.943,228.373c-0.512,4.253-4.274,7.377-8.558,7.377H72.119c-2.32,0-4.43-0.94-5.956-2.466  c-1.745-1.755-2.738-4.274-2.403-7.001c0.512-4.253,4.274-7.377,8.558-7.377h22.267c1.546,0,3.009,0.418,4.253,1.16  c0.627,0.355,1.202,0.805,1.703,1.306C102.285,223.117,103.267,225.635,102.943,228.373z"/>
<path style="fill:#E5BFA3;" d="M179.745,212.996h-22.46c-4.652,0-8.423,3.771-8.423,8.423l0,0c0,4.652,3.771,8.423,8.423,8.423  h22.46c4.652,0,8.423-3.771,8.423-8.423l0,0C188.168,216.767,184.397,212.996,179.745,212.996z"/>
<path style="fill:#FFFFFF;" d="M188.165,227.328c0,4.65-3.772,8.422-8.422,8.422h-22.455c-2.33,0-4.43-0.94-5.956-2.466  c-1.526-1.526-2.466-3.626-2.466-5.956c0-4.65,3.772-8.422,8.422-8.422h22.455c1.546,0,2.999,0.418,4.253,1.16  c0.627,0.355,1.191,0.794,1.703,1.306C187.225,222.898,188.165,224.998,188.165,227.328z"/>
<path style="fill:#E5BFA3;" d="M187.031,196.17H150c-2.622,0-4.747,2.125-4.747,4.747l0,0c0,2.622,2.125,4.747,4.747,4.747h37.031  c2.622,0,4.747-2.125,4.747-4.747l0,0C191.778,198.296,189.653,196.17,187.031,196.17z"/>
<g>
	<path style="fill:#34ABE0;" d="M99.777,224.549c0,6.186-5.016,11.201-11.201,11.201c-6.186,0-11.201-5.016-11.201-11.201   c0-2.058,0.554-3.992,1.526-5.642h15.684c1.546,0,3.009,0.418,4.253,1.16C99.443,221.435,99.777,222.96,99.777,224.549z"/>
	<path style="fill:#34ABE0;" d="M184.947,224.549c0,6.186-5.016,11.201-11.212,11.201c-6.186,0-11.201-5.016-11.201-11.201   c0-2.058,0.564-3.992,1.536-5.642h15.673c1.546,0,2.999,0.418,4.253,1.16C184.613,221.435,184.947,222.96,184.947,224.549z"/>
</g>
<g>
	<path style="fill:#E5BFA3;" d="M64.993,196.17c-2.614,0-4.856,2.045-4.904,4.658c-0.049,2.662,2.095,4.836,4.747,4.836h26.016   c10.33,0,18.704,8.374,18.704,18.704v46.34h4.714c6.054,0,10.963-4.908,10.963-10.963v-49.292c0-7.889-6.395-14.284-14.284-14.284   H64.993V196.17z"/>
	<path style="fill:#E5BFA3;" d="M138.807,286.222c-10.281,3.388-21.386,3.388-31.668,0c-2.747-0.895-5.886,0.178-7.108,2.749l0,0   c-1.22,2.561,0.465,5.904,3.887,7.029c12.373,4.077,25.737,4.077,38.11,0c3.421-1.124,5.108-4.468,3.887-7.029l0,0   C144.692,286.398,141.552,285.325,138.807,286.222z"/>
	<path style="fill:#E5BFA3;" d="M128.548,304.01h-11.149c-2.843,0-5.147,2.305-5.147,5.147l0,0c0,2.843,2.305,5.147,5.147,5.147   h11.149c2.843,0,5.147-2.305,5.147-5.147l0,0C133.695,306.314,131.391,304.01,128.548,304.01z"/>
</g>
<g>
	<path style="fill:#EF4152;" d="M77.367,344.754l40.912,17.534c4.217,1.808,5.945,6.865,3.718,10.875l-13.249,23.85   c-2.57,4.627-8.922,5.368-12.489,1.457l-33.718-36.98c-3.109-3.409-2.564-8.764,1.167-11.477l6.054-4.403   C71.97,344.003,74.859,343.679,77.367,344.754z"/>
	<path style="fill:#EF4152;" d="M168.581,344.754l-40.912,17.534c-4.217,1.808-5.945,6.865-3.718,10.875l13.249,23.85   c2.57,4.627,8.922,5.368,12.489,1.457l33.718-36.98c3.109-3.409,2.564-8.764-1.167-11.477l-6.054-4.403   C173.977,344.003,171.088,343.679,168.581,344.754z"/>
	<path style="fill:#EF4152;" d="M123.458,428.976h-0.969c-4.232,0-7.662-3.43-7.662-7.662v-52.328h16.294v52.329   C131.12,425.545,127.69,428.976,123.458,428.976z"/>
</g>
<path style="fill:#797B89;" d="M454.534,400.477H338.55c-5.194,0-9.404-4.21-9.404-9.404l0,0c0-5.194,4.21-9.404,9.404-9.404  h115.984c5.194,0,9.404,4.21,9.404,9.404l0,0C463.938,396.267,459.728,400.477,454.534,400.477z"/>
<path style="fill:#279FC9;" d="M302.529,400.477h-18.301c-5.194,0-9.404-4.21-9.404-9.404l0,0c0-5.194,4.21-9.404,9.404-9.404  h18.301c5.194,0,9.404,4.21,9.404,9.404l0,0C311.933,396.267,307.723,400.477,302.529,400.477z"/>
<g>
</g>
<g>
</g>
<g>
</g>
<g>
</g>
<g>
</g>
<g>
</g>
<g>
</g>
<g>
</g>
<g>
</g>
<g>
</g>
<g>
</g>
<g>
</g>
<g>
</g>
<g>
</g>
<g>
</g>
</svg>
