<?xml version="1.0" encoding="iso-8859-1"?>
<!-- Generator: Adobe Illustrator 19.0.0, SVG Export Plug-In . SVG Version: 6.00 Build 0)  -->
<svg xmlns="http://www.w3.org/2000/svg" xmlns:xlink="http://www.w3.org/1999/xlink" version="1.1" id="Capa_1" x="0px" y="0px" viewBox="0 0 512 512" style="enable-background:new 0 0 512 512;" xml:space="preserve">
<circle style="fill:#FF525D;" cx="256" cy="256" r="256"/>
<path style="fill:#F4A14E;" d="M470.204,40.49v355.756c-14.869,22.664-33.238,42.82-54.335,59.705  C372.057,491.029,316.479,512,256,512s-116.057-20.971-159.869-56.048c-21.096-16.886-39.466-37.042-54.335-59.705V40.49  C41.796,18.129,59.925,0,82.286,0h347.429C452.075,0,470.204,18.129,470.204,40.49z"/>
<path style="fill:#F9EED7;" d="M433.636,92.337v347.993c-46.028,44.377-108.648,71.67-177.633,71.67  c-68.995,0-131.605-27.293-177.643-71.68V42.077h305.016L433.636,92.337z"/>
<path style="fill:#FFD15C;" d="M330.099,10.971h-26.297l0,0C303.802,4.912,298.89,0,292.831,0h-73.661  c-6.059,0-10.97,4.912-10.97,10.971l0,0h-26.297c-8.847,0-16.019,7.172-16.019,16.019V59.21c0,8.847,7.172,16.019,16.019,16.019  H330.1c8.847,0,16.019-7.172,16.019-16.019V26.99C346.118,18.143,338.946,10.971,330.099,10.971z"/>
<path style="fill:#5C5E70;" d="M293.811,336.013H129.121c-5.665,0-10.258-4.592-10.258-10.258v-2.994  c0-5.665,4.592-10.258,10.258-10.258h164.689c5.665,0,10.258,4.592,10.258,10.258v2.994  C304.068,331.421,299.476,336.013,293.811,336.013z"/>
<path style="fill:#797B89;" d="M293.811,396.353H129.121c-5.665,0-10.258-4.592-10.258-10.258v-2.994  c0-5.665,4.592-10.258,10.258-10.258h164.689c5.665,0,10.258,4.592,10.258,10.258v2.994  C304.068,391.76,299.476,396.353,293.811,396.353z"/>
<path style="fill:#5C5E70;" d="M384.717,454.812H129.121c-5.665,0-10.258-4.592-10.258-10.258v-1.113  c0-5.665,4.592-10.258,10.258-10.258h255.596c5.665,0,10.258,4.592,10.258,10.258v1.113  C394.975,450.219,390.382,454.812,384.717,454.812z"/>
<path style="fill:#797B89;" d="M382.879,154.994H206.702c-5.665,0-10.258-4.592-10.258-10.258v-2.994  c0-5.665,4.592-10.258,10.258-10.258h176.176c5.665,0,10.258,4.592,10.258,10.258v2.994  C393.136,150.402,388.543,154.994,382.879,154.994z"/>
<g>
	<path style="fill:#5C5E70;" d="M382.879,215.334H206.702c-5.665,0-10.258-4.592-10.258-10.258v-2.994   c0-5.665,4.592-10.258,10.258-10.258h176.176c5.665,0,10.258,4.592,10.258,10.258v2.994   C393.136,210.741,388.543,215.334,382.879,215.334z"/>
	<path style="fill:#5C5E70;" d="M382.879,275.673H206.702c-5.665,0-10.258-4.592-10.258-10.258v-2.994   c0-5.665,4.592-10.258,10.258-10.258h176.176c5.665,0,10.258,4.592,10.258,10.258v2.994   C393.136,271.081,388.543,275.673,382.879,275.673z"/>
</g>
<g>
	<circle style="fill:#FF525D;" cx="139.891" cy="144.739" r="21.023"/>
	<circle style="fill:#FF525D;" cx="139.891" cy="203.577" r="21.023"/>
	<circle style="fill:#FF525D;" cx="139.891" cy="263.92" r="21.023"/>
</g>
<path style="fill:#34ABE0;" d="M367.822,396.353h17.193c4.486,0,8.122-3.636,8.122-8.122v-67.605c0-4.486-3.636-8.122-8.122-8.122  h-17.193c-4.486,0-8.122,3.636-8.122,8.122v67.605C359.699,392.717,363.336,396.353,367.822,396.353z"/>
<polygon style="fill:#FCF8F2;" points="383.376,92.337 383.376,42.077 433.636,92.337 "/>
<g>
</g>
<g>
</g>
<g>
</g>
<g>
</g>
<g>
</g>
<g>
</g>
<g>
</g>
<g>
</g>
<g>
</g>
<g>
</g>
<g>
</g>
<g>
</g>
<g>
</g>
<g>
</g>
<g>
</g>
</svg>
