<?xml version="1.0" encoding="iso-8859-1"?>
<!-- Generator: Adobe Illustrator 19.0.0, SVG Export Plug-In . SVG Version: 6.00 Build 0)  -->
<svg xmlns="http://www.w3.org/2000/svg" xmlns:xlink="http://www.w3.org/1999/xlink" version="1.1" id="Capa_1" x="0px" y="0px" viewBox="0 0 512 512" style="enable-background:new 0 0 512 512;" xml:space="preserve">
<circle style="fill:#BA773A;" cx="256" cy="256" r="256"/>
<path style="fill:#34ABE0;" d="M354.122,246.658v80.677H157.878v-80.677c0-6.291,3.535-12.046,9.142-14.892l45.745-23.214  l43.235-5.538l5.99,0.767h0.003l37.244,4.771l45.741,23.214C350.587,234.612,354.122,240.366,354.122,246.658z"/>
<path style="fill:#279FC9;" d="M261.988,203.779l-37.237,4.771l-45.745,23.214c-5.607,2.846-9.142,8.601-9.142,14.892v80.677  h-11.988v-80.677c0-6.291,3.535-12.046,9.142-14.892l45.745-23.214l43.235-5.538L261.988,203.779z"/>
<rect x="226.659" y="175.7" style="fill:#F9D6B9;" width="60.677" height="39.016"/>
<g>
	<circle style="fill:#E5BFA3;" cx="190.495" cy="110.007" r="18.753"/>
	<circle style="fill:#E5BFA3;" cx="321.505" cy="110.007" r="18.753"/>
	<path style="fill:#E5BFA3;" d="M242.656,175.697L242.656,175.697h-15.998l0,0h-0.001v16.499h0.001v16.323h15.998l0,0   c0-5.526,4.603-9.97,10.123-9.711c1.067,0.05,2.141,0.075,3.22,0.075c11.31,0,21.972-2.782,31.34-7.693v-15.495h-44.683V175.697z"/>
</g>
<path style="fill:#F9D6B9;" d="M323.556,56.479l-135.111-7.193v75.365c0,37.31,30.246,67.556,67.556,67.556l0,0  c37.31,0,67.556-30.246,67.556-67.556V56.479H323.556z"/>
<path style="fill:#E5BFA3;" d="M265.626,18.567l-41.387,3.583c-6.313,0-12.133,2.107-16.803,5.65h-2.8v2.433  c-5.075,5.04-8.218,12.022-8.218,19.739L185.8,87.774c0,4.92-2.029,9.007,2.645,9.854v27.023c0,37.31,30.246,67.556,67.556,67.556  l0,0c2.518,0,5.003-0.142,7.449-0.411c-33.805-3.708-60.107-32.353-60.107-67.145V84.789c0-6.234,4.852-11.511,11.081-11.756  c0.196-0.007,0.393-0.011,0.591-0.011l0,0c6.357,0,12.544,2.135,17.497,6.119c6.428,5.171,14.663,9.349,23.488,8.265  c17.579-2.157,17.06-13.769,23.488-18.94c4.953-3.984,11.14-6.119,17.497-6.119h0.274c8.126,0,14.469-3.034,14.481,5.092  c0.008,5.47,4.318,30.433,9.789,30.555c2.855,0.064,5.451-1.067,7.313-2.933c1.812-1.812-0.493-4.315-0.493-7.083l-2.465-9.237"/>
<path style="fill:#FFD15C;" d="M331.775,53.954v34.031c0,2.768-1.12,5.272-2.932,7.083c-1.863,1.866-4.46,2.997-7.312,2.932  c-5.476-0.123-9.789-4.741-9.789-10.217V82.64c0-4.076-1.651-7.762-4.323-10.432c-2.672-2.672-6.357-4.323-10.432-4.323  c-6.357,0-12.543,2.134-17.499,6.121c-6.425,5.168-14.594,8.265-23.489,8.265c-8.891,0-17.06-3.096-23.485-8.265  c-0.85-0.685-1.737-1.311-2.654-1.884c-0.01-0.01-0.024-0.017-0.035-0.024c-1.747-1.089-3.603-1.973-5.535-2.648  c-2.966-1.031-6.1-1.565-9.282-1.565c-8.145,0-14.749,6.614-14.749,14.762v5.343c0,2.764-1.12,5.272-2.935,7.083  c-1.812,1.812-4.315,2.932-7.083,2.932c-5.532,0-10.014-4.484-10.014-10.018V53.954C180.227,24.157,204.381,0,234.178,0h43.642  C307.618,0,331.775,24.157,331.775,53.954z"/>
<path style="fill:#EDBB4C;" d="M217.843,53.954C217.843,24.157,241.997,0,271.795,0h-37.616c-29.797,0-53.951,24.157-53.951,53.954  v34.031c0,5.535,4.484,10.018,10.015,10.018c2.767,0,5.272-1.12,7.083-2.932c1.815-1.812,2.935-4.319,2.935-7.083v-5.343  c0-8.148,6.604-14.762,14.749-14.762c0.951,0,1.895,0.063,2.835,0.158V53.954H217.843z"/>
<path style="fill:#E5BFA3;" d="M241.337,106.794c-0.376,3.114-3.124,5.399-6.261,5.399h-16.298c-1.702,0-3.243-0.689-4.36-1.805  c-1.278-1.282-2.001-3.123-1.759-5.126c0.376-3.114,3.124-5.399,6.261-5.399h16.298c1.702,0,3.243,0.689,4.36,1.805  C240.856,102.95,241.579,104.792,241.337,106.794z"/>
<path style="fill:#FFFFFF;" d="M241.337,111.118c-0.376,3.114-3.124,5.399-6.261,5.399h-16.298c-1.702,0-3.243-0.689-4.36-1.805  c-1.278-1.282-2.001-3.123-1.759-5.126c0.376-3.114,3.124-5.399,6.261-5.399h16.298c1.702,0,3.243,0.689,4.36,1.805  C240.856,107.273,241.579,109.115,241.337,111.118z"/>
<path style="fill:#E5BFA3;" d="M297.553,99.863h-16.439c-3.404,0-6.165,2.76-6.165,6.165l0,0c0,3.404,2.76,6.165,6.165,6.165h16.439  c3.404,0,6.165-2.76,6.165-6.165l0,0C303.718,102.624,300.959,99.863,297.553,99.863z"/>
<path style="fill:#FFFFFF;" d="M297.553,104.187h-16.439c-3.404,0-6.165,2.76-6.165,6.165l0,0c0,3.404,2.76,6.165,6.165,6.165  h16.439c3.404,0,6.165-2.76,6.165-6.165l0,0C303.718,106.946,300.959,104.187,297.553,104.187z"/>
<path style="fill:#E5BFA3;" d="M302.887,87.548h-27.105c-1.919,0-3.474,1.556-3.474,3.474l0,0c0,1.919,1.556,3.474,3.474,3.474  h27.105c1.919,0,3.474-1.556,3.474-3.474l0,0C306.361,89.103,304.805,87.548,302.887,87.548z"/>
<path style="fill:#5C5E70;" d="M235.198,108.317c0,4.528-3.672,8.199-8.199,8.199c-4.528,0-8.199-3.672-8.199-8.199  c0-1.507,0.408-2.918,1.12-4.13h14.159C234.791,105.399,235.198,106.809,235.198,108.317z"/>
<g>
	<circle style="fill:#797B89;" cx="229.898" cy="108.189" r="3.319"/>
	<circle style="fill:#797B89;" cx="223.807" cy="112.421" r="1.94"/>
</g>
<path style="fill:#5C5E70;" d="M297.534,108.317c0,4.528-3.672,8.199-8.199,8.199c-4.528,0-8.199-3.672-8.199-8.199  c0-1.507,0.408-2.918,1.12-4.13h14.159C297.126,105.399,297.534,106.809,297.534,108.317z"/>
<g>
	<circle style="fill:#797B89;" cx="292.237" cy="108.189" r="3.319"/>
	<circle style="fill:#797B89;" cx="286.135" cy="112.421" r="1.94"/>
</g>
<g>
	<path style="fill:#E5BFA3;" d="M213.561,87.548c-1.913,0-3.555,1.496-3.589,3.41c-0.036,1.949,1.534,3.54,3.474,3.54h19.042   c7.561,0,13.69,6.129,13.69,13.69v33.917h3.45c4.431,0,8.024-3.592,8.024-8.024V98.002c0-5.774-4.681-10.454-10.454-10.454H213.561   z"/>
	<path style="fill:#E5BFA3;" d="M267.589,153.459c-7.525,2.48-15.653,2.48-23.178,0c-2.01-0.655-4.308,0.13-5.203,2.012l0,0   c-0.893,1.876,0.342,4.322,2.845,5.145c9.056,2.984,18.837,2.984,27.894,0c2.504-0.822,3.738-3.271,2.845-5.145l0,0   C271.898,153.589,269.599,152.804,267.589,153.459z"/>
	<path style="fill:#E5BFA3;" d="M260.08,167.88h-8.161c-2.08,0-3.768,1.686-3.768,3.768l0,0c0,2.08,1.686,3.768,3.768,3.768h8.161   c2.08,0,3.768-1.686,3.768-3.768l0,0C263.847,169.566,262.161,167.88,260.08,167.88z"/>
</g>
<g>
	<path style="fill:#279FC9;" d="M222.619,196.302l29.945,12.833c3.087,1.323,4.352,5.025,2.721,7.96l-9.698,17.456   c-1.882,3.387-6.531,3.929-9.141,1.066l-24.679-27.067c-2.275-2.495-1.877-6.415,0.855-8.4l4.431-3.222   C218.669,195.752,220.783,195.515,222.619,196.302z"/>
	<path style="fill:#279FC9;" d="M289.381,196.302l-29.945,12.833c-3.087,1.323-4.352,5.025-2.721,7.96l9.698,17.456   c1.882,3.387,6.531,3.929,9.141,1.066l24.679-27.067c2.275-2.495,1.877-6.415-0.855-8.4l-4.431-3.222   C293.331,195.752,291.217,195.515,289.381,196.302z"/>
</g>
<path style="fill:#F4A14E;" d="M387.953,347.386v128.021c-38.525,23.239-83.675,36.592-131.95,36.592s-93.424-13.364-131.96-36.592  V347.386H387.953z"/>
<rect x="124.05" y="334.817" style="fill:#E28D40;" width="263.91" height="37.7"/>
<rect x="310.669" y="271.956" style="fill:#494B5B;" width="8.882" height="31.347"/>
<path style="fill:#5C5E70;" d="M322.632,280.314h-15.053c-4.788,0-8.669-3.882-8.669-8.669v-25.502c0-4.788,3.882-8.67,8.669-8.67  h15.053c4.788,0,8.669,3.882,8.669,8.67v25.502C331.302,276.433,327.42,280.314,322.632,280.314z"/>
<g>
	<path style="fill:#494B5B;" d="M308.967,271.644v-25.502c0-4.788,3.882-8.67,8.67-8.67h-10.057c-4.788,0-8.669,3.882-8.669,8.67   v25.502c0,4.788,3.882,8.669,8.669,8.669h10.057C312.848,280.314,308.967,276.433,308.967,271.644z"/>
	<rect x="192.46" y="271.956" style="fill:#494B5B;" width="8.882" height="31.347"/>
</g>
<path style="fill:#5C5E70;" d="M204.428,280.314h-15.053c-4.788,0-8.67-3.882-8.67-8.669v-25.502c0-4.788,3.882-8.67,8.67-8.67  h15.053c4.788,0,8.67,3.882,8.67,8.67v25.502C213.098,276.433,209.216,280.314,204.428,280.314z"/>
<g>
	<path style="fill:#494B5B;" d="M190.763,271.644v-25.502c0-4.788,3.882-8.67,8.67-8.67h-10.057c-4.788,0-8.67,3.882-8.67,8.67   v25.502c0,4.788,3.882,8.669,8.67,8.669h10.057C194.644,280.314,190.763,276.433,190.763,271.644z"/>
	<rect x="251.559" y="271.956" style="fill:#494B5B;" width="8.882" height="31.347"/>
</g>
<path style="fill:#5C5E70;" d="M263.53,280.314h-15.053c-4.788,0-8.67-3.882-8.67-8.669v-25.502c0-4.788,3.882-8.67,8.67-8.67  h15.053c4.788,0,8.67,3.882,8.67,8.67v25.502C272.199,276.433,268.317,280.314,263.53,280.314z"/>
<path style="fill:#494B5B;" d="M249.864,271.644v-25.502c0-4.788,3.882-8.67,8.67-8.67h-10.057c-4.788,0-8.67,3.882-8.67,8.67  v25.502c0,4.788,3.882,8.669,8.67,8.669h10.057C253.746,280.314,249.864,276.433,249.864,271.644z"/>
<path style="fill:#F4A14E;" d="M401.545,347.384h-291.09c-4.169,0-7.809-2.827-8.839-6.867l-9.449-37.052  c-1.471-5.768,2.887-11.376,8.839-11.376h309.989c5.952,0,10.309,5.608,8.839,11.376l-9.449,37.052  C409.353,344.556,405.714,347.384,401.545,347.384z"/>
<path style="fill:#E28D40;" d="M202.965,490.338c-13.969,0-25.335-11.365-25.335-25.335v-36.057  c0-13.969,11.365-25.335,25.335-25.335h106.066c13.969,0,25.335,11.365,25.335,25.335v36.057c0,13.969-11.365,25.335-25.335,25.335  H202.965z"/>
<path style="fill:#F9EED7;" d="M309.031,479.889H202.965c-8.221,0-14.886-6.664-14.886-14.886v-36.057  c0-8.221,6.664-14.886,14.886-14.886h106.066c8.221,0,14.886,6.664,14.886,14.886v36.057  C323.916,473.225,317.252,479.889,309.031,479.889z"/>
<g>
</g>
<g>
</g>
<g>
</g>
<g>
</g>
<g>
</g>
<g>
</g>
<g>
</g>
<g>
</g>
<g>
</g>
<g>
</g>
<g>
</g>
<g>
</g>
<g>
</g>
<g>
</g>
<g>
</g>
</svg>
