<?xml version="1.0" encoding="iso-8859-1"?>
<!-- Generator: Adobe Illustrator 19.0.0, SVG Export Plug-In . SVG Version: 6.00 Build 0)  -->
<svg xmlns="http://www.w3.org/2000/svg" xmlns:xlink="http://www.w3.org/1999/xlink" version="1.1" id="Capa_1" x="0px" y="0px" viewBox="0 0 512 512" style="enable-background:new 0 0 512 512;" xml:space="preserve">
<circle style="fill:#34ABE0;" cx="256" cy="256" r="256"/>
<path style="fill:#F9D6B9;" d="M496.33,221.381c0,3.145-0.439,6.186-1.254,9.059c-3.939,13.845-16.687,23.991-31.796,23.991H277.476  c9.122,0,17.387,3.699,23.374,9.676c6.134,6.144,9.864,14.67,9.665,24.095c-0.376,18.077-15.611,32.329-33.698,32.329h-9.425  c9.122,0,17.387,3.699,23.364,9.676c5.987,5.987,9.686,14.242,9.686,23.364c0,18.254-14.806,33.05-33.05,33.05h-22.549  c9.122,0,17.387,3.699,23.364,9.676c6.165,6.165,9.895,14.733,9.676,24.168c-0.418,18.056-15.653,32.256-33.708,32.256h-94.187  c-24.889,0-49.392-4.493-72.359-13.093C32.604,395.879,3.618,335.725,0.317,268.82c-0.209-4.253-0.313-8.526-0.313-12.821  c0-15.59,1.39-30.866,4.075-45.693c3.626,0,7.043-1.212,9.78-3.291c2.748-2.09,4.817-5.047,5.747-8.558  c9.738-36.728,29.738-70.081,57.846-96.068l68.483-63.289l10.961-10.136c5.392-4.995,11.901-7.784,18.536-8.537  c13.061-1.526,26.624,4.827,33.238,17.711c0.146,0.293,0.293,0.575,0.439,0.867c6.541,12.748,4.096,28.254-6.04,38.39  l-38.431,38.431c-26.749,26.76-7.805,72.505,30.041,72.505H463.28c11.525,0,21.671,5.893,27.585,14.838  C494.323,208.393,496.33,214.652,496.33,221.381z"/>
<g>
	<path style="fill:#E5BFA3;" d="M244.175,430.78h-94.187c-12.968,0-49.282-1.22-84.34-3.606c3.855,4.284,7.848,8.44,11.981,12.455   c22.967,8.6,47.47,13.093,72.359,13.093h94.187c18.056,0,33.29-14.2,33.708-32.256c0.096-4.155-0.574-8.14-1.88-11.826   C271.362,421.609,258.683,430.78,244.175,430.78z"/>
	<path style="fill:#E5BFA3;" d="M496.33,221.381c0,3.145-0.439,6.186-1.254,9.059c-3.939,13.845-16.687,23.991-31.796,23.991   H277.476l0,0c-7.753-4.136-4.788-15.89,3.999-15.864C458.185,239.089,463.314,243.064,496.33,221.381z"/>
</g>
<g>
	<path style="fill:#FCF8F2;" d="M484.313,221.381c0-12.696-10.292-22.988-22.988-22.988s-12.539,10.292-12.539,22.988   c0,12.695-0.157,22.988,12.539,22.988S484.313,234.077,484.313,221.381z"/>
	<path style="fill:#FCF8F2;" d="M180.049,56.507c-8.986,8.976-16.144,1.588-25.13-7.387c-3.553-3.553-6.844-6.813-8.986-10.021   l10.961-10.136c5.392-4.995,11.901-7.784,18.536-8.537c1.651,0.961,3.197,2.152,4.618,3.563   C189.025,32.976,189.025,47.531,180.049,56.507z"/>
</g>
<path style="fill:#E5BFA3;" d="M145.934,39.099c-29.612,27.366-91.596,105.378-91.596,165.982c0,40.312-29.592,57.051-54.021,63.739  c-0.209-4.253-0.313-8.526-0.313-12.821c0-15.59,1.39-30.866,4.075-45.693c3.626,0,7.043-1.212,9.78-3.291  c2.748-2.09,4.817-5.047,5.747-8.558c9.738-36.728,29.738-70.081,57.846-96.068L145.934,39.099z"/>
<g>
</g>
<g>
</g>
<g>
</g>
<g>
</g>
<g>
</g>
<g>
</g>
<g>
</g>
<g>
</g>
<g>
</g>
<g>
</g>
<g>
</g>
<g>
</g>
<g>
</g>
<g>
</g>
<g>
</g>
</svg>
