<?xml version="1.0" encoding="iso-8859-1"?>
<!-- Generator: Adobe Illustrator 19.0.0, SVG Export Plug-In . SVG Version: 6.00 Build 0)  -->
<svg xmlns="http://www.w3.org/2000/svg" xmlns:xlink="http://www.w3.org/1999/xlink" version="1.1" id="Capa_1" x="0px" y="0px" viewBox="0 0 511.999 511.999" style="enable-background:new 0 0 511.999 511.999;" xml:space="preserve">
<circle style="fill:#5C5E70;" cx="255.999" cy="255.999" r="255.999"/>
<path style="fill:#F4A14E;" d="M470.207,40.49v355.756c-14.869,22.664-33.238,42.82-54.335,59.705  c-43.812,35.077-99.39,56.048-159.869,56.048s-116.057-20.971-159.869-56.048c-21.096-16.886-39.466-37.042-54.335-59.705V40.49  C41.8,18.129,59.929,0,82.29,0h347.428C452.078,0,470.207,18.129,470.207,40.49z"/>
<path style="fill:#F9EED7;" d="M415.873,59.841v396.11c-43.812,35.077-99.39,56.048-159.869,56.048s-116.057-20.971-159.869-56.048  V59.841H415.873z"/>
<path style="fill:#FFD15C;" d="M330.102,10.971h-26.297l0,0C303.806,4.912,298.893,0,292.834,0h-73.661  c-6.059,0-10.97,4.912-10.97,10.971l0,0h-26.297c-8.847,0-16.019,7.172-16.019,16.019V59.21c0,8.847,7.172,16.019,16.019,16.019  h148.198c8.847,0,16.019-7.172,16.019-16.019V26.99C346.121,18.143,338.949,10.971,330.102,10.971z"/>
<path style="fill:#FF525D;" d="M238.119,231.504L238.119,231.504c0,23.919-19.39,43.309-43.308,43.309h-18.73  c-23.919,0-43.308-19.39-43.308-43.308l0,0c0-3.376,1.898-6.467,4.908-7.995l13.259-6.729c7.476-3.794,15.547-6.278,23.862-7.342  l10.643-1.364l3.216,0.412h0.002l7.426,0.951c8.316,1.066,16.388,3.55,23.864,7.344l13.259,6.729  C236.223,225.038,238.119,228.128,238.119,231.504z"/>
<g>
	<path style="fill:#E5BFA3;" d="M201.733,193.411v17.497c0,8.995-7.292,16.287-16.287,16.287l0,0   c-8.996,0-16.287-7.292-16.287-16.287v-17.497H201.733z"/>
	<circle style="fill:#E5BFA3;" cx="150.287" cy="164.791" r="10.067"/>
	<circle style="fill:#E5BFA3;" cx="220.609" cy="164.791" r="10.067"/>
</g>
<path style="fill:#F9D6B9;" d="M221.71,136.055l-72.529-3.861v40.457c0,20.029,16.237,36.264,36.264,36.264l0,0  c20.029,0,36.264-16.237,36.264-36.264v-36.596H221.71z"/>
<path style="fill:#C98847;" d="M226.123,134.7v18.268c0,1.486-0.601,2.83-1.574,3.802c-1,1.002-2.394,1.609-3.926,1.574  c-2.94-0.066-5.255-2.544-5.255-5.485v-2.762c0-2.188-0.886-4.166-2.321-5.601c-1.434-1.434-3.413-2.321-5.601-2.321  c-3.413,0-6.733,1.145-9.394,3.285c-3.449,2.774-7.835,4.437-12.609,4.437c-4.773,0-9.159-1.662-12.608-4.437  c-0.456-0.368-0.932-0.704-1.425-1.011c-0.005-0.005-0.013-0.009-0.019-0.013c-0.937-0.585-1.934-1.06-2.972-1.421  c-1.592-0.554-3.275-0.84-4.983-0.84c-4.372,0-7.917,3.551-7.917,7.924v2.868c0,1.484-0.601,2.83-1.576,3.802  c-0.973,0.973-2.317,1.574-3.802,1.574c-2.97,0-5.376-2.406-5.376-5.378v-18.268c0-15.996,12.966-28.963,28.961-28.963h23.428  C213.156,105.736,226.123,118.703,226.123,134.7z"/>
<g>
	<path style="fill:#5C5E70;" d="M382.881,145.281h-97.029c-5.665,0-10.258-4.592-10.258-10.258v-2.994   c0-5.665,4.592-10.258,10.258-10.258h97.03c5.665,0,10.258,4.592,10.258,10.258v2.994   C393.139,140.689,388.547,145.281,382.881,145.281z"/>
	<path style="fill:#5C5E70;" d="M382.881,205.621h-97.029c-5.665,0-10.258-4.592-10.258-10.258v-2.994   c0-5.665,4.592-10.258,10.258-10.258h97.03c5.665,0,10.258,4.592,10.258,10.258v2.994   C393.139,201.029,388.547,205.621,382.881,205.621z"/>
	<path style="fill:#5C5E70;" d="M382.881,265.96h-97.029c-5.665,0-10.258-4.592-10.258-10.258v-2.994   c0-5.665,4.592-10.258,10.258-10.258h97.03c5.665,0,10.258,4.592,10.258,10.258v2.994   C393.139,261.368,388.547,265.96,382.881,265.96z"/>
	<path style="fill:#5C5E70;" d="M382.881,336.012H129.125c-5.665,0-10.258-4.592-10.258-10.258v-2.994   c0-5.665,4.592-10.258,10.258-10.258h253.756c5.665,0,10.258,4.592,10.258,10.258v2.994   C393.139,331.42,388.547,336.012,382.881,336.012z"/>
	<path style="fill:#5C5E70;" d="M382.881,396.352H129.125c-5.665,0-10.258-4.592-10.258-10.258v-2.994   c0-5.665,4.592-10.258,10.258-10.258h253.756c5.665,0,10.258,4.592,10.258,10.258v2.994   C393.139,391.76,388.547,396.352,382.881,396.352z"/>
	<path style="fill:#5C5E70;" d="M382.881,456.692H129.125c-5.665,0-10.258-4.592-10.258-10.258v-2.994   c0-5.665,4.592-10.258,10.258-10.258h253.756c5.665,0,10.258,4.592,10.258,10.258v2.994   C393.139,452.099,388.547,456.692,382.881,456.692z"/>
</g>
<g>
</g>
<g>
</g>
<g>
</g>
<g>
</g>
<g>
</g>
<g>
</g>
<g>
</g>
<g>
</g>
<g>
</g>
<g>
</g>
<g>
</g>
<g>
</g>
<g>
</g>
<g>
</g>
<g>
</g>
</svg>
