<?xml version="1.0" encoding="iso-8859-1"?>
<!-- Generator: Adobe Illustrator 19.0.0, SVG Export Plug-In . SVG Version: 6.00 Build 0)  -->
<svg xmlns="http://www.w3.org/2000/svg" xmlns:xlink="http://www.w3.org/1999/xlink" version="1.1" id="Capa_1" x="0px" y="0px" viewBox="0 0 512 512" style="enable-background:new 0 0 512 512;" xml:space="preserve">
<circle style="fill:#4BC999;" cx="256" cy="256" r="256"/>
<path style="fill:#F4A14E;" d="M313.342,57.327C313.342,25.666,287.676,0,256.015,0H256c-6.133,0-12.038,0.961-17.576,2.746h-0.002  c-23.062,7.421-39.749,29.051-39.749,54.581v115.431l4.118-2.169v12.627h101.646v-17.313l8.907,4.208V57.327H313.342z"/>
<path style="fill:#E28D40;" d="M230.018,172.758V57.327c0-25.53,16.686-47.16,39.749-54.581h0.002  c0.624-0.201,1.254-0.389,1.887-0.568C266.682,0.77,261.44,0,256.015,0H256c-6.133,0-12.038,0.961-17.576,2.746h-0.002  c-23.062,7.421-39.749,29.051-39.749,54.581v115.431l4.118-2.169v12.627h31.345v-12.627L230.018,172.758z"/>
<path style="fill:#F9EED7;" d="M324.36,171.658L324.36,171.658c0,31.042-25.164,56.206-56.206,56.206h-24.309  c-31.042,0-56.206-25.164-56.206-56.206l0,0c0-4.382,2.462-8.393,6.37-10.376l5.008-2.542c17.658-8.961,37.18-13.631,56.98-13.631  l0,0c19.803,0,39.326,4.671,56.983,13.633l5.008,2.542C321.899,163.267,324.36,167.277,324.36,171.658z"/>
<path style="fill:#E5BFA3;" d="M277.832,127.192v21.461c0,11.674-9.464,21.138-21.138,21.138l0,0  c-11.674,0-21.138-9.464-21.138-21.138v-21.461C235.556,127.192,277.832,127.192,277.832,127.192z"/>
<path style="fill:#F9D6B9;" d="M273.598,67.29c-16.913-1.102-29.231-8.06-37.212-14.568c-0.002,0.009-0.007,0.039-0.017,0.086  c0,0.002,0,0.002,0,0.002c-0.252,1.355-3.699,17.691-23.079,21.418v23.614c0,25.993,19.122,47.064,42.709,47.064l0,0  c23.588,0,42.709-21.071,42.709-47.064V82.738C295.399,74.774,288.343,68.252,273.598,67.29z"/>
<path style="fill:#E5BFA3;" d="M233.144,97.843V60.871c-3.084,5.168-8.944,11.261-19.853,13.359v23.614  c0,25.993,19.122,47.064,42.709,47.064l0,0c3.419,0,6.74-0.456,9.927-1.291C247.128,138.683,233.144,120.068,233.144,97.843z"/>
<path style="fill:#FF525D;" d="M193.853,430.883c0,28.682-21.577,52.328-49.382,55.609c-31.963-15.496-60.217-37.449-83.069-64.157  c0.763-0.7,1.64-1.306,2.591-1.797l17.136-8.694c7.461-3.793,15.391-6.572,23.562-8.265c2.414-0.512,4.838-0.92,7.293-1.233  l8.004-1.024l5.757-0.731l4.159,0.533l1.588,0.199l8.014,1.024c2.456,0.313,4.88,0.721,7.293,1.233  c8.171,1.693,16.102,4.472,23.562,8.265l17.147,8.704C191.397,422.524,193.853,426.516,193.853,430.883z"/>
<g>
	<path style="fill:#E5BFA3;" d="M146.805,381.63v22.622c0,11.63-9.428,21.058-21.058,21.058l0,0   c-11.63,0-21.058-9.428-21.058-21.058V381.63L146.805,381.63L146.805,381.63z"/>
	<circle style="fill:#E5BFA3;" cx="80.28" cy="344.628" r="13.015"/>
	<circle style="fill:#E5BFA3;" cx="171.207" cy="344.628" r="13.015"/>
</g>
<path style="fill:#F9D6B9;" d="M172.635,307.472l-93.775-4.993v52.308c0,25.896,20.992,46.888,46.888,46.888l0,0  c25.896,0,46.888-20.992,46.888-46.888V307.472z"/>
<path style="fill:#E5BFA3;" d="M103.125,354.788v-51.016l-24.266-1.291v52.308c0,25.896,20.992,46.888,46.888,46.888l0,0  c4.197,0,8.262-0.56,12.133-1.595C117.868,394.733,103.125,376.486,103.125,354.788z"/>
<path style="fill:#C98847;" d="M178.339,305.72v23.62c0,1.921-0.777,3.658-2.034,4.916c-1.294,1.296-3.095,2.08-5.075,2.034  c-3.801-0.086-6.794-3.29-6.794-7.091v-3.57c0-2.829-1.146-5.386-3-7.241c-1.855-1.855-4.412-3-7.241-3  c-4.412,0-8.705,1.481-12.145,4.248c-4.46,3.587-10.129,5.736-16.302,5.736c-6.171,0-11.841-2.149-16.3-5.736  c-0.589-0.475-1.205-0.91-1.842-1.307c-0.007-0.007-0.017-0.011-0.024-0.017c-1.212-0.755-2.5-1.369-3.841-1.838  c-2.058-0.716-4.234-1.087-6.442-1.087c-5.653,0-10.236,4.59-10.236,10.245v3.708c0,1.918-0.777,3.658-2.038,4.916  c-1.257,1.257-2.996,2.034-4.916,2.034c-3.839,0-6.951-3.112-6.951-6.953v-23.62c0-20.682,16.764-37.448,37.445-37.448h30.291  C161.574,268.272,178.339,285.039,178.339,305.72z"/>
<path style="fill:#BA773A;" d="M98.234,305.719c0-20.682,16.764-37.448,37.445-37.448h-25.078  c-20.682,0-37.445,16.766-37.445,37.448v23.62c0,3.842,3.112,6.954,6.951,6.954c1.921,0,3.658-0.777,4.916-2.035  c1.26-1.257,2.038-2.998,2.038-4.916v-3.708c0-5.655,4.583-10.245,10.236-10.245c0.315,0,0.625,0.024,0.937,0.04V305.719z"/>
<path style="fill:#34ABE0;" d="M450.594,422.347c-22.852,26.708-51.085,48.65-83.048,64.146h-0.01  c-27.815-3.271-49.382-26.927-49.382-55.609c0-2.184,0.606-4.274,1.714-6.06c1.097-1.797,2.675-3.291,4.629-4.284l17.147-8.694  c7.461-3.793,15.381-6.572,23.552-8.265c2.414-0.512,4.848-0.92,7.293-1.233l8.004-1.024l5.757-0.731l4.159,0.533l1.588,0.199  l8.014,1.024c2.445,0.313,4.89,0.721,7.304,1.233c8.171,1.703,16.091,4.472,23.552,8.265l17.147,8.704  C448.964,421.03,449.832,421.636,450.594,422.347z"/>
<g>
	<path style="fill:#E5BFA3;" d="M407.312,381.63v22.622c0,11.63-9.428,21.058-21.058,21.058l0,0   c-11.63,0-21.058-9.428-21.058-21.058V381.63L407.312,381.63L407.312,381.63z"/>
	<circle style="fill:#E5BFA3;" cx="340.793" cy="344.628" r="13.015"/>
	<circle style="fill:#E5BFA3;" cx="431.72" cy="344.628" r="13.015"/>
</g>
<path style="fill:#F9D6B9;" d="M433.14,307.472l-93.775-4.993v52.308c0,25.896,20.992,46.888,46.888,46.888l0,0  c25.896,0,46.888-20.992,46.888-46.888V307.472z"/>
<path style="fill:#E5BFA3;" d="M363.631,354.788v-51.016l-24.266-1.291v52.308c0,25.896,20.992,46.888,46.888,46.888l0,0  c4.197,0,8.262-0.56,12.133-1.595C378.373,394.733,363.631,376.486,363.631,354.788z"/>
<path style="fill:#5C5E70;" d="M438.846,305.72v23.62c0,1.921-0.777,3.658-2.034,4.916c-1.294,1.296-3.095,2.08-5.075,2.034  c-3.801-0.086-6.794-3.29-6.794-7.091v-3.57c0-2.829-1.146-5.386-3-7.241c-1.855-1.855-4.412-3-7.241-3  c-4.412,0-8.705,1.481-12.145,4.248c-4.46,3.587-10.129,5.736-16.302,5.736c-6.171,0-11.841-2.149-16.3-5.736  c-0.589-0.475-1.205-0.91-1.842-1.307c-0.007-0.007-0.017-0.011-0.024-0.017c-1.212-0.755-2.5-1.369-3.841-1.838  c-2.058-0.716-4.234-1.087-6.442-1.087c-5.653,0-10.236,4.59-10.236,10.245v3.708c0,1.918-0.777,3.658-2.038,4.916  c-1.257,1.257-2.996,2.034-4.916,2.034c-3.839,0-6.951-3.112-6.951-6.953v-23.62c0-20.682,16.764-37.448,37.445-37.448h30.29  C422.079,268.272,438.846,285.039,438.846,305.72z"/>
<path style="fill:#797B89;" d="M263.314,293.328v-42.491c0-4.04-3.275-7.314-7.314-7.314l0,0c-4.04,0-7.314,3.275-7.314,7.314  v42.491c0,1.94-0.771,3.8-2.142,5.172l-45.955,45.955c-2.857,2.857-2.857,7.488,0,10.344l0,0c2.857,2.856,7.488,2.856,10.343,0  l39.895-39.895c2.857-2.857,7.488-2.857,10.344,0l39.895,39.895c2.857,2.857,7.488,2.857,10.343,0l0,0  c2.857-2.857,2.857-7.488,0-10.344L265.456,298.5C264.085,297.128,263.314,295.268,263.314,293.328z"/>
<path style="fill:#494B5B;" d="M358.74,305.719c0-20.682,16.764-37.448,37.445-37.448h-25.078  c-20.682,0-37.445,16.766-37.445,37.448v23.62c0,3.842,3.112,6.954,6.951,6.954c1.921,0,3.658-0.777,4.916-2.035  c1.26-1.257,2.038-2.998,2.038-4.916v-3.708c0-5.655,4.583-10.245,10.236-10.245c0.315,0,0.625,0.024,0.937,0.04V305.719z"/>
<g>
</g>
<g>
</g>
<g>
</g>
<g>
</g>
<g>
</g>
<g>
</g>
<g>
</g>
<g>
</g>
<g>
</g>
<g>
</g>
<g>
</g>
<g>
</g>
<g>
</g>
<g>
</g>
<g>
</g>
</svg>
