<?xml version="1.0" encoding="iso-8859-1"?>
<!-- Generator: Adobe Illustrator 19.0.0, SVG Export Plug-In . SVG Version: 6.00 Build 0)  -->
<svg xmlns="http://www.w3.org/2000/svg" xmlns:xlink="http://www.w3.org/1999/xlink" version="1.1" id="Capa_1" x="0px" y="0px" viewBox="0 0 512.005 512.005" style="enable-background:new 0 0 512.005 512.005;" xml:space="preserve">
<circle style="fill:#5C5E70;" cx="256.003" cy="257.219" r="254.786"/>
<path style="fill:#FF525D;" d="M421.614,281.579c0,116.848-87.106,213.355-199.929,228.122  c-64.84-8.725-121.944-41.847-161.784-89.82C23.254,375.756,1.218,319.059,1.218,257.213c0-32.602,6.125-63.769,17.284-92.43  c10.67-27.392,25.936-52.486,44.863-74.314c36.627-24.615,80.72-38.977,128.163-38.977  C318.598,51.492,421.614,154.498,421.614,281.579z"/>
<path style="fill:#F9EED7;" d="M375.667,281.58c0,101.694-82.437,184.143-184.143,184.143C89.83,465.723,7.382,383.274,7.382,281.58  c0-101.705,82.449-184.154,184.143-184.154c20.718,0,40.638,3.419,59.23,9.728c18.393,6.253,35.491,15.328,50.753,26.705  C346.517,167.436,375.667,221.1,375.667,281.58z"/>
<circle style="fill:#FF525D;" cx="191.526" cy="281.575" r="137.127"/>
<circle style="fill:#F9EED7;" cx="191.526" cy="281.575" r="81.791"/>
<circle style="fill:#FF525D;" cx="191.526" cy="281.575" r="34.206"/>
<polygon style="fill:#F9EED7;" points="448.427,58.019 447.519,44.848 442.759,0 382.896,52.555 387.657,97.402 403.429,95.791   399.75,111.177 443.604,121.703 503.466,69.149 459.612,58.623 "/>
<path style="fill:#FFD15C;" d="M471.767,47.952L197.951,288.341c-3.574,3.139-9.016,2.784-12.154-0.79l-0.729-0.831  c-3.139-3.574-2.784-9.016,0.79-12.154L459.673,34.177L471.767,47.952z"/>
<g>
</g>
<g>
</g>
<g>
</g>
<g>
</g>
<g>
</g>
<g>
</g>
<g>
</g>
<g>
</g>
<g>
</g>
<g>
</g>
<g>
</g>
<g>
</g>
<g>
</g>
<g>
</g>
<g>
</g>
</svg>
