<?xml version="1.0" encoding="iso-8859-1"?>
<!-- Generator: Adobe Illustrator 19.0.0, SVG Export Plug-In . SVG Version: 6.00 Build 0)  -->
<svg xmlns="http://www.w3.org/2000/svg" xmlns:xlink="http://www.w3.org/1999/xlink" version="1.1" id="Capa_1" x="0px" y="0px" viewBox="0 0 512.001 512.001" style="enable-background:new 0 0 512.001 512.001;" xml:space="preserve">
<circle style="fill:#FF525D;" cx="256" cy="256.001" r="256"/>
<path style="fill:#34ABE0;" d="M445.688,277.093v99.003c-1.708,5.17-3.554-7.121-5.551-2.09c-2.862,7.201-6.001-15.336-9.428-8.435  H230.476v-88.479c0-6.901,3.878-13.214,10.017-16.33l50.177-25.458l47.407-6.081l6.566,0.842h0.011l40.841,5.239l50.166,25.458  C441.811,263.88,445.688,270.193,445.688,277.093z"/>
<path style="fill:#279FC9;" d="M344.647,230.071l-40.837,5.232l-50.167,25.459c-6.149,3.121-10.025,9.431-10.025,16.332v88.476  h-13.147v-88.476c0-6.9,3.877-13.211,10.025-16.332l50.167-25.459l47.413-6.074L344.647,230.071z"/>
<rect x="305.894" y="199.273" style="fill:#F9D6B9;" width="66.55" height="42.786"/>
<g>
	<circle style="fill:#E5BFA3;" cx="273.335" cy="127.238" r="20.566"/>
	<circle style="fill:#E5BFA3;" cx="402.819" cy="127.238" r="20.566"/>
	<path style="fill:#E5BFA3;" d="M323.445,199.274L323.445,199.274l-17.545-0.001v0.001H305.9v18.093h0.001v17.902h17.545l0,0   c0-6.06,5.048-10.935,11.102-10.65c1.17,0.055,2.348,0.083,3.531,0.083c12.403,0,24.095-3.05,34.369-8.437v-16.993h-49.002V199.274   z"/>
</g>
<path style="fill:#F9D6B9;" d="M412.165,33.151H263.994v110.143c0,40.916,33.169,74.085,74.085,74.085l0,0  c40.916,0,74.085-33.169,74.085-74.085V33.151z"/>
<path style="fill:#E5BFA3;" d="M403.422,5.755c-0.225-0.043-0.452-0.073-0.68-0.093c-2.145-0.189-4.26,0.616-5.827,2.094  c-1.121,1.056-2.556,2.382-3.531,3.19c-12.504,10.357-28.361,16.01-44.748,16.01h-63.144c-6.925,0-13.307,2.31-18.427,6.196h-3.072  v2.668c-5.565,5.528-9.012,13.183-9.012,21.647v45.385c0,5.397,3.887,9.878,9.012,10.807v29.635  c0,40.916,33.169,74.085,74.085,74.085l0,0c2.762,0,5.486-0.156,8.169-0.45c-37.072-4.067-65.916-35.481-65.916-73.635V99.579  c0-6.837,5.321-12.622,12.152-12.892c0.215-0.008,0.432-0.013,0.648-0.013l0,0c6.972,0,13.756,2.341,19.189,6.71  c7.049,5.671,16.08,10.251,25.759,9.064c19.278-2.366,18.71-15.1,25.759-20.77c5.432-4.37,12.217-6.71,19.189-6.71h0.301  c8.911,0,15.868-3.328,15.881,5.584c0.009,5.999,4.736,33.374,10.734,33.509c3.131,0.07,5.978-1.17,8.02-3.216  c1.987-1.987,3.215-4.732,3.215-7.768V27.456C421.178,16.918,413.775,7.716,403.422,5.755z"/>
<path style="fill:#5C5E70;" d="M421.178,21.82v94.428c0,3.035-1.228,5.78-3.215,7.768c-2.044,2.047-4.89,3.286-8.02,3.215  c-6.006-0.135-10.735-5.198-10.735-11.204V97.221c0-4.47-1.811-8.512-4.741-11.442c-2.93-2.93-6.972-4.741-11.441-4.741  c-6.972,0-13.755,2.341-19.19,6.712c-7.047,5.668-16.005,9.063-25.76,9.063c-9.751,0-18.709-3.396-25.756-9.063  c-0.932-0.751-1.905-1.439-2.911-2.066c-0.011-0.011-0.026-0.019-0.038-0.026c-1.915-1.194-3.952-2.164-6.07-2.904  c-3.249-1.131-6.686-1.717-10.171-1.717c-8.936,0-16.181,7.245-16.181,16.181v19.032c0,3.031-1.228,5.78-3.219,7.768  c-1.987,1.987-4.732,3.215-7.768,3.215c-6.066,0-10.983-4.916-10.983-10.987V51.832c0-16.85,13.661-30.511,30.511-30.511h63.144  c16.388,0,32.242-5.653,44.747-16.009c0.977-0.808,2.412-2.134,3.531-3.189c1.57-1.48,3.684-2.284,5.829-2.096  c0.226,0.019,0.455,0.049,0.68,0.094C413.775,2.082,421.178,11.285,421.178,21.82z"/>
<path style="fill:#494B5B;" d="M322.064,21.326c-16.844,0-30.511,13.657-30.511,30.511v29.278  c-8.192,0.794-14.597,7.701-14.597,16.102v19.038c0,3.03-1.233,5.778-3.218,7.764c-1.996,1.985-4.733,3.218-7.774,3.218  c-6.06,0-10.982-4.921-10.982-10.992V51.837c0-16.854,13.667-30.511,30.511-30.511C285.493,21.326,322.064,21.326,322.064,21.326z"/>
<path style="fill:#E5BFA3;" d="M321.999,123.711c-0.413,3.415-3.426,5.921-6.866,5.921h-17.874c-1.867,0-3.557-0.755-4.781-1.979  c-1.401-1.405-2.194-3.425-1.929-5.622c0.413-3.415,3.426-5.921,6.866-5.921h17.874c1.867,0,3.557,0.755,4.781,1.979  C321.473,119.495,322.265,121.515,321.999,123.711z"/>
<path style="fill:#FFFFFF;" d="M321.999,128.449c-0.418,3.417-3.427,5.925-6.865,5.925h-17.878c-0.94,0-1.839-0.188-2.654-0.554  c-0.805-0.334-1.515-0.825-2.121-1.432c-1.4-1.4-2.194-3.417-1.933-5.622c0.418-3.406,3.427-5.914,6.865-5.914h17.878  c1.86,0,3.553,0.752,4.775,1.975C321.477,124.238,322.261,126.255,321.999,128.449z"/>
<path style="fill:#E5BFA3;" d="M383.65,116.11h-18.029c-3.733,0-6.76,3.027-6.76,6.76l0,0c0,3.733,3.027,6.76,6.76,6.76h18.029  c3.733,0,6.76-3.027,6.76-6.76l0,0C390.411,119.137,387.384,116.11,383.65,116.11z"/>
<path style="fill:#FFFFFF;" d="M390.409,127.613c0,3.73-3.03,6.76-6.76,6.76h-18.024c-0.94,0-1.839-0.199-2.654-0.543  c-0.805-0.345-1.526-0.836-2.132-1.442c-1.223-1.223-1.975-2.915-1.975-4.775c0-3.741,3.02-6.76,6.76-6.76h18.024  c1.86,0,3.553,0.752,4.775,1.975C389.646,124.05,390.409,125.743,390.409,127.613z"/>
<path style="fill:#E5BFA3;" d="M389.499,102.604h-29.724c-2.104,0-3.811,1.706-3.811,3.811l0,0c0,2.104,1.706,3.811,3.811,3.811  h29.724c2.104,0,3.811-1.706,3.811-3.811l0,0C393.308,104.31,391.603,102.604,389.499,102.604z"/>
<g>
	<path style="fill:#41B787;" d="M380.743,131.929c0,0.846-0.115,1.672-0.345,2.445h-14.775c-0.94,0-1.839-0.199-2.654-0.543   c-0.136-0.616-0.209-1.243-0.209-1.902c0-4.963,4.023-8.986,8.986-8.986C376.721,122.943,380.743,126.965,380.743,131.929z"/>
	<path style="fill:#41B787;" d="M312.386,131.929c0,0.846-0.115,1.672-0.345,2.445h-14.785c-0.94,0-1.839-0.188-2.654-0.554   c-0.136-0.606-0.209-1.243-0.209-1.891c0-4.963,4.033-8.986,8.997-8.986S312.386,126.965,312.386,131.929z"/>
</g>
<g>
	<path style="fill:#E5BFA3;" d="M291.538,102.604c-2.098,0-3.897,1.642-3.936,3.74c-0.039,2.137,1.681,3.882,3.81,3.882h20.883   c8.291,0,15.013,6.722,15.013,15.013v37.196h3.784c4.86,0,8.8-3.939,8.8-8.8v-39.566c0-6.332-5.134-11.465-11.465-11.465   L291.538,102.604L291.538,102.604z"/>
	<path style="fill:#E5BFA3;" d="M350.788,174.886c-8.253,2.719-17.167,2.719-25.418,0c-2.205-0.719-4.725,0.142-5.706,2.207l0,0   c-0.98,2.056,0.373,4.74,3.12,5.642c9.932,3.272,20.659,3.273,30.59,0c2.747-0.903,4.1-3.586,3.12-5.642l0,0   C355.513,175.028,352.994,174.167,350.788,174.886z"/>
	<path style="fill:#E5BFA3;" d="M342.555,190.195h-8.95c-2.282,0-4.132,1.849-4.132,4.132l0,0c0,2.282,1.849,4.132,4.132,4.132h8.95   c2.282,0,4.132-1.849,4.132-4.132l0,0C346.686,192.046,344.836,190.195,342.555,190.195z"/>
</g>
<polygon style="fill:#FFD15C;" points="354.21,365.569 321.949,365.569 332.913,264.977 343.242,264.977 "/>
<path style="fill:#EDBB4C;" d="M341.771,267.605h-7.382c-4.393,0-7.953-3.561-7.953-7.953v-9.636c0-4.393,3.561-7.953,7.953-7.953  h7.382c4.393,0,7.953,3.561,7.953,7.953v9.636C349.724,264.046,346.163,267.605,341.771,267.605z"/>
<g>
	<path style="fill:#279FC9;" d="M301.471,221.87l32.84,14.075c3.384,1.45,4.773,5.51,2.984,8.729l-10.635,19.144   c-2.064,3.714-7.162,4.308-10.024,1.169l-27.065-29.683c-2.495-2.737-2.058-7.034,0.937-9.213l4.86-3.534   C297.14,221.267,299.459,221.007,301.471,221.87z"/>
	<path style="fill:#279FC9;" d="M374.687,221.87l-32.84,14.075c-3.384,1.45-4.773,5.51-2.984,8.729l10.635,19.144   c2.064,3.714,7.162,4.308,10.024,1.169l27.065-29.683c2.495-2.737,2.058-7.034-0.937-9.213l-4.86-3.534   C379.019,221.267,376.701,221.007,374.687,221.87z"/>
	<polygon style="fill:#279FC9;" points="408.883,314.82 387.285,322.708 365.311,314.82 365.311,300.172 408.883,300.172  "/>
	<polygon style="fill:#279FC9;" points="310.848,314.82 289.25,322.708 267.277,314.82 267.277,300.172 310.848,300.172  "/>
</g>
<path style="fill:#F9EED7;" d="M364.559,350.922h-23.099c-1.556,0-2.817,1.261-2.817,2.817l0,0c0,1.556,1.261,2.817,2.817,2.817  h23.099c1.556,0,2.817-1.261,2.817-2.817l0,0C367.376,352.183,366.115,350.922,364.559,350.922z"/>
<path style="fill:#5C5E70;" d="M494.073,350.323c-0.355,0.899-0.721,1.797-1.087,2.696c-2.299,5.59-4.775,11.076-7.45,16.457  c-35.15,70.98-102.264,123.329-182.533,138.219c-15.235,2.832-30.939,4.305-47,4.305c-37.219,0-72.589-7.941-104.49-22.225  c-52.882-23.677-96.266-64.752-122.859-115.963c-1.358-2.633-2.685-5.287-3.96-7.973c-2.414-5.078-4.671-10.261-6.75-15.517  L494.073,350.323L494.073,350.323z"/>
<path style="fill:#E8DBC4;" d="M363.437,382.606c0,1.793-0.745,3.51-2.045,4.747l-43.256,40.996  c-3.144,2.98-7.31,4.647-11.641,4.647h-53.218l13.459-47.573l-13.459-14.645h98.329c3.271,0,6.224,1.326,8.358,3.46  C362.111,376.381,363.437,379.336,363.437,382.606z"/>
<path style="fill:#F9EED7;" d="M300.78,293.55H116.529c-6.88,0-12.455,5.577-12.455,12.456v113.962  c0,7.193,5.832,13.025,13.025,13.025h186.874c5.117,0,9.264-4.148,9.264-9.264V306.005  C313.235,299.127,307.658,293.55,300.78,293.55z"/>
<circle style="fill:#FFFFFF;" cx="208.656" cy="363.27" r="12.325"/>
<g>
	<path style="fill:#F9EED7;" d="M363.437,382.606c0,1.793-0.745,3.51-2.045,4.747l-43.256,40.996   c-3.144,2.98-7.31,4.647-11.641,4.647H290.36l-1.945-6.465l19.936-14.759l43.256-40.996c3.271,0,6.224,1.326,8.358,3.46   C362.111,376.381,363.437,379.336,363.437,382.606z"/>
	<path style="fill:#F9EED7;" d="M23.425,56.413h146.938c12.935,0,23.421,10.486,23.421,23.421v77.76   c0,12.935-10.486,23.421-23.421,23.421l0,0c-3.101,0-5.616,2.514-5.616,5.616v33.186c0,4.963-5.967,7.487-9.528,4.029   l-34.936-33.923c-5.884-5.712-13.761-8.908-21.962-8.908H23.425c-12.935,0-23.421-10.486-23.421-23.421v-77.76   C0.004,66.898,10.49,56.413,23.425,56.413z"/>
</g>
<g>
	<path style="fill:#5C5E70;" d="M165.857,97.98H27.931c-3.751,0-6.792-3.041-6.792-6.792l0,0c0-3.751,3.041-6.792,6.792-6.792   h137.927c3.751,0,6.792,3.041,6.792,6.792l0,0C172.649,94.939,169.608,97.98,165.857,97.98z"/>
	<path style="fill:#5C5E70;" d="M165.857,126.192H27.931c-3.751,0-6.792-3.041-6.792-6.792l0,0c0-3.751,3.041-6.792,6.792-6.792   h137.927c3.751,0,6.792,3.041,6.792,6.792l0,0C172.649,123.152,169.608,126.192,165.857,126.192z"/>
	<path style="fill:#5C5E70;" d="M165.857,154.404H27.931c-3.751,0-6.792-3.041-6.792-6.792l0,0c0-3.751,3.041-6.792,6.792-6.792   h137.927c3.751,0,6.792,3.041,6.792,6.792l0,0C172.649,151.364,169.608,154.404,165.857,154.404z"/>
</g>
<g>
</g>
<g>
</g>
<g>
</g>
<g>
</g>
<g>
</g>
<g>
</g>
<g>
</g>
<g>
</g>
<g>
</g>
<g>
</g>
<g>
</g>
<g>
</g>
<g>
</g>
<g>
</g>
<g>
</g>
</svg>
