<?xml version="1.0" encoding="iso-8859-1"?>
<!-- Generator: Adobe Illustrator 19.0.0, SVG Export Plug-In . SVG Version: 6.00 Build 0)  -->
<svg xmlns="http://www.w3.org/2000/svg" xmlns:xlink="http://www.w3.org/1999/xlink" version="1.1" id="Capa_1" x="0px" y="0px" viewBox="0 0 512 512" style="enable-background:new 0 0 512 512;" xml:space="preserve">
<circle style="fill:#279FC9;" cx="255.998" cy="255.999" r="255.998"/>
<path style="fill:#C98847;" d="M512,22.425v233.575c0,36.049-7.45,70.363-20.898,101.48c-9.613,22.225-22.277,42.82-37.47,61.252  c-6.039,7.314-12.466,14.294-19.268,20.898H77.639c-6.802-6.604-13.239-13.584-19.268-20.898  c-3.532-4.284-6.928-8.694-10.177-13.197c-4.848-6.719-9.373-13.688-13.573-20.877c-1.233-2.132-2.455-4.284-3.636-6.457  c-1.264-2.33-2.497-4.681-3.688-7.053V22.425c0-12.382,10.041-22.423,22.423-22.423h439.858C501.959,0.002,512,10.043,512,22.425z"/>
<path style="fill:#5C5E70;" d="M491.102,22.425V357.48c-9.613,22.225-22.277,42.82-37.47,61.252H58.371  c-3.532-4.284-6.928-8.694-10.177-13.197V22.425c0-0.846,0.679-1.526,1.526-1.526h439.858  C490.423,20.9,491.102,21.579,491.102,22.425z"/>
<rect x="93.058" y="104.772" style="fill:#F9EED7;" width="353.173" height="243.46"/>
<path style="fill:#4BC999;" d="M350.395,130.896h32.73c3.08,0,5.578,2.497,5.578,5.578v137.219c0,3.08-2.497,5.578-5.578,5.578  h-32.73c-3.08,0-5.578-2.497-5.578-5.578V136.473C344.817,133.393,347.315,130.896,350.395,130.896z"/>
<path style="fill:#FFD15C;" d="M277.775,175.826h32.73c3.08,0,5.578,2.497,5.578,5.578v92.289c0,3.08-2.497,5.578-5.578,5.578  h-32.73c-3.08,0-5.578-2.497-5.578-5.578v-92.289C272.197,178.323,274.695,175.826,277.775,175.826z"/>
<path style="fill:#FF525D;" d="M205.155,235.385h32.73c3.08,0,5.578,2.497,5.578,5.578v32.73c0,3.08-2.497,5.578-5.578,5.578h-32.73  c-3.08,0-5.578-2.497-5.578-5.578v-32.73C199.577,237.882,202.075,235.385,205.155,235.385z"/>
<path style="fill:#797B89;" d="M136.947,300.168h265.402c3.751,0,6.792,3.041,6.792,6.792l0,0c0,3.751-3.041,6.792-6.792,6.792  H136.947c-3.751,0-6.792-3.041-6.792-6.792l0,0C130.155,303.209,133.195,300.168,136.947,300.168z"/>
<path style="fill:#FFD15C;" d="M257.036,413.549v98.439c-0.345,0.01-0.69,0.01-1.034,0.01c-69.36,0-132.262-27.575-178.363-72.369  c-6.802-6.604-13.239-13.584-19.268-20.898c-3.532-4.284-6.928-8.694-10.177-13.197c-4.848-6.719-9.373-13.688-13.573-20.877  c-1.233-2.132-2.455-4.284-3.636-6.457l31.984-16.238l0.94-0.47l18.975-2.435l21.452-2.748l1.526-0.199l17.115-2.194l8.182,1.055  l10.449,1.337l24.179,3.103l16.259,2.079l0.93,0.47l61.565,31.242C252.209,397.092,257.036,404.96,257.036,413.549z"/>
<path style="fill:#EDBB4C;" d="M131.158,354.973l-23.05,2.957l-2.988,0.376l-22.235,2.853l-2.602,0.334l-12.131,6.154L34.62,384.658  c-1.233-2.132-2.455-4.284-3.636-6.457l31.984-16.238l0.94-0.47l18.975-2.435l21.452-2.748l1.526-0.199l17.115-2.194  L131.158,354.973z"/>
<rect x="82.881" y="316.603" style="fill:#F9D6B9;" width="82.902" height="53.3"/>
<g>
	<circle style="fill:#E5BFA3;" cx="33.489" cy="226.857" r="25.621"/>
	<circle style="fill:#E5BFA3;" cx="212.468" cy="226.857" r="25.621"/>
	<path style="fill:#E5BFA3;" d="M104.744,316.604L104.744,316.604l-21.857-0.001v0.001h-0.001v22.54h0.001v22.302h21.857l0,0   c0-7.55,6.288-13.622,13.83-13.267c1.458,0.069,2.925,0.103,4.399,0.103c15.451,0,30.019-3.799,42.817-10.51v-21.169   L104.744,316.604L104.744,316.604z"/>
</g>
<path style="fill:#F9D6B9;" d="M215.272,153.724l-184.593-9.827v102.966c0,50.974,41.322,92.296,92.296,92.296l0,0  c50.974,0,92.296-41.322,92.296-92.296V153.724z"/>
<path style="fill:#E5BFA3;" d="M136.127,101.928l-56.544,4.895c-8.626,0-16.577,2.878-22.956,7.72H52.8v3.323  c-6.933,6.886-11.228,16.425-11.228,26.968L27.066,196.48c0,6.723-2.772,12.307,3.613,13.463v36.92  c0,50.974,41.322,92.296,92.296,92.296l0,0c3.44,0,6.835-0.194,10.177-0.561c-46.184-5.067-82.119-44.201-82.119-91.735v-54.461  c0-8.517,6.629-15.726,15.139-16.061c0.267-0.01,0.537-0.016,0.808-0.016l0,0c8.685,0,17.137,2.916,23.905,8.36  c8.782,7.065,20.033,12.772,32.091,11.292c24.017-2.947,23.308-18.811,32.091-25.876c6.768-5.444,15.22-8.36,23.905-8.36h0.374  c11.102,0,19.768-4.145,19.785,6.956c0.011,7.474,5.898,41.578,13.374,41.746c3.901,0.088,7.447-1.458,9.991-4.007  c2.475-2.475-0.674-5.896-0.674-9.677l-3.368-12.62L136.127,101.928z"/>
<path style="fill:#F4A14E;" d="M226.502,150.275v46.495c0,3.781-1.53,7.201-4.005,9.677c-2.545,2.551-6.093,4.095-9.99,4.005  c-7.482-0.168-13.374-6.476-13.374-13.959v-7.028c0-5.568-2.256-10.604-5.906-14.253c-3.65-3.65-8.685-5.906-14.253-5.906  c-8.685,0-17.136,2.915-23.907,8.362c-8.778,7.061-19.939,11.291-32.092,11.291c-12.148,0-23.308-4.23-32.087-11.291  c-1.161-0.936-2.373-1.792-3.627-2.574c-0.014-0.014-0.032-0.023-0.047-0.032c-2.387-1.488-4.922-2.696-7.562-3.617  c-4.052-1.409-8.334-2.139-12.681-2.139c-11.128,0-20.15,9.036-20.15,20.168v7.3c0,3.776-1.53,7.201-4.01,9.677  c-2.475,2.475-5.896,4.005-9.677,4.005c-7.557,0-13.683-6.125-13.683-13.687v-46.495c0-40.711,32.999-73.714,73.71-73.714h59.625  C193.498,76.561,226.502,109.565,226.502,150.275z"/>
<path style="fill:#E28D40;" d="M140.19,76.561c-40.709,0-73.717,33.008-73.717,73.717v19.038  c-10.898,0.261-19.644,9.195-19.644,20.156v7.304c0,3.772-1.536,7.199-4.012,9.676c-2.476,2.476-5.893,4.002-9.676,4.002  c-7.555,0-13.688-6.123-13.688-13.688v-46.487c0-40.709,33.008-73.717,73.717-73.717C93.17,76.561,140.19,76.561,140.19,76.561z"/>
<path style="fill:#E5BFA3;" d="M102.944,222.467c-0.514,4.254-4.268,7.377-8.553,7.377H72.124c-2.326,0-4.431-0.94-5.957-2.466  c-1.746-1.751-2.733-4.267-2.402-7.003c0.514-4.254,4.268-7.377,8.553-7.377h22.267c2.326,0,4.431,0.94,5.957,2.466  C102.287,217.215,103.274,219.731,102.944,222.467z"/>
<path style="fill:#FFFFFF;" d="M102.946,228.374c-0.512,4.253-4.274,7.377-8.558,7.377H72.122c-2.32,0-4.43-0.94-5.956-2.466  c-1.745-1.755-2.738-4.274-2.403-7.001c0.512-4.253,4.274-7.377,8.558-7.377h22.267c1.546,0,3.009,0.418,4.253,1.16  c0.627,0.355,1.202,0.805,1.703,1.306C102.288,223.118,103.27,225.636,102.946,228.374z"/>
<path style="fill:#E5BFA3;" d="M179.749,212.998h-22.46c-4.652,0-8.423,3.771-8.423,8.423l0,0c0,4.652,3.771,8.423,8.423,8.423  h22.46c4.652,0,8.423-3.771,8.423-8.423l0,0C188.17,216.768,184.399,212.998,179.749,212.998z"/>
<path style="fill:#FFFFFF;" d="M188.167,227.329c0,4.65-3.772,8.422-8.422,8.422h-22.455c-2.33,0-4.43-0.94-5.956-2.466  c-1.526-1.526-2.466-3.626-2.466-5.956c0-4.65,3.772-8.422,8.422-8.422h22.455c1.546,0,2.999,0.418,4.253,1.16  c0.627,0.355,1.191,0.794,1.703,1.306C187.227,222.898,188.167,224.999,188.167,227.329z"/>
<path style="fill:#E5BFA3;" d="M187.034,196.171h-37.031c-2.622,0-4.747,2.125-4.747,4.747l0,0c0,2.622,2.125,4.747,4.747,4.747  h37.031c2.622,0,4.747-2.125,4.747-4.747l0,0C191.78,198.296,189.655,196.171,187.034,196.171z"/>
<path style="fill:#5C5E70;" d="M99.78,224.549c0,6.186-5.015,11.201-11.201,11.201c-6.186,0-11.201-5.015-11.201-11.201  c0-2.058,0.554-3.992,1.526-5.642h15.684c1.546,0,3.009,0.418,4.253,1.16C99.445,221.436,99.78,222.961,99.78,224.549z"/>
<g>
	<circle style="fill:#797B89;" cx="92.546" cy="224.371" r="4.535"/>
	<circle style="fill:#797B89;" cx="84.208" cy="230.149" r="2.652"/>
</g>
<path style="fill:#5C5E70;" d="M184.949,224.549c0,6.186-5.015,11.201-11.212,11.201c-6.186,0-11.201-5.015-11.201-11.201  c0-2.058,0.564-3.992,1.536-5.642h15.673c1.546,0,2.999,0.418,4.253,1.16C184.615,221.436,184.949,222.961,184.949,224.549z"/>
<g>
	<circle style="fill:#797B89;" cx="177.715" cy="224.371" r="4.535"/>
	<circle style="fill:#797B89;" cx="169.377" cy="230.149" r="2.652"/>
</g>
<g>
	<path style="fill:#E5BFA3;" d="M64.995,196.171c-2.614,0-4.856,2.045-4.904,4.658c-0.049,2.662,2.095,4.836,4.747,4.836h26.016   c10.33,0,18.704,8.374,18.704,18.704v46.34h4.714c6.054,0,10.963-4.908,10.963-10.963v-49.292c0-7.889-6.395-14.284-14.284-14.284   H64.995V196.171z"/>
	<path style="fill:#E5BFA3;" d="M138.81,286.222c-10.281,3.388-21.386,3.388-31.666,0c-2.747-0.895-5.886,0.177-7.108,2.749l0,0   c-1.221,2.563,0.466,5.905,3.887,7.029c12.373,4.076,25.737,4.076,38.109,0c3.421-1.124,5.108-4.467,3.887-7.029l0,0   C144.696,286.398,141.557,285.326,138.81,286.222z"/>
	<path style="fill:#E5BFA3;" d="M128.55,304.01h-11.149c-2.843,0-5.147,2.305-5.147,5.147l0,0c0,2.843,2.305,5.147,5.147,5.147   h11.149c2.843,0,5.147-2.305,5.147-5.147l0,0C133.698,306.314,131.393,304.01,128.55,304.01z"/>
</g>
<g>
	<path style="fill:#EDBB4C;" d="M77.37,344.754l40.912,17.534c4.217,1.808,5.945,6.865,3.718,10.875l-13.249,23.85   c-2.57,4.627-8.922,5.368-12.489,1.457l-33.718-36.98c-3.109-3.409-2.564-8.763,1.167-11.477l6.054-4.403   C71.973,344.004,74.862,343.679,77.37,344.754z"/>
	<path style="fill:#EDBB4C;" d="M168.583,344.754l-40.912,17.534c-4.217,1.808-5.945,6.865-3.718,10.875l13.249,23.85   c2.57,4.627,8.922,5.368,12.489,1.457l33.718-36.98c3.109-3.409,2.564-8.763-1.167-11.477l-6.054-4.403   C173.979,344.004,171.091,343.679,168.583,344.754z"/>
	<path style="fill:#EDBB4C;" d="M123.46,428.975h-0.969c-4.232,0-7.662-3.43-7.662-7.662v-52.328h16.294v52.328   C131.122,425.545,127.692,428.975,123.46,428.975z"/>
</g>
<path style="fill:#FF525D;" d="M379.988,248.425L251.529,511.957c-7.555-0.125-15.036-0.585-22.413-1.358l139.524-267.9  c1.609-3.082,5.392-4.295,8.495-2.738C380.239,241.529,381.514,245.301,379.988,248.425z"/>
<g>
</g>
<g>
</g>
<g>
</g>
<g>
</g>
<g>
</g>
<g>
</g>
<g>
</g>
<g>
</g>
<g>
</g>
<g>
</g>
<g>
</g>
<g>
</g>
<g>
</g>
<g>
</g>
<g>
</g>
</svg>
