<?xml version="1.0" encoding="iso-8859-1"?>
<!-- Generator: Adobe Illustrator 19.0.0, SVG Export Plug-In . SVG Version: 6.00 Build 0)  -->
<svg xmlns="http://www.w3.org/2000/svg" xmlns:xlink="http://www.w3.org/1999/xlink" version="1.1" id="Capa_1" x="0px" y="0px" viewBox="0 0 512.001 512.001" style="enable-background:new 0 0 512.001 512.001;" xml:space="preserve">
<circle style="fill:#4BC999;" cx="256" cy="256.001" r="256"/>
<path style="fill:#F9EED7;" d="M334.284,408.178v91.627C309.614,507.726,283.303,512,256,512c-20.71,0-40.845-2.456-60.134-7.105  c-13.375-3.218-26.342-7.481-38.807-12.716c-14.2-5.956-27.742-13.145-40.5-21.452c-12.946-8.422-25.078-17.993-36.268-28.557  c-15.12-14.263-28.505-30.365-39.79-47.929c-2.33-3.605-4.556-7.283-6.698-11.024l71.022-36.049l1.097-0.554l22.444-2.873  l25.349-3.25l1.808-0.23l20.24-2.591l9.676,1.243h0.01l12.361,1.578l28.578,3.657l19.226,2.466l1.097,0.554l72.798,36.948  C328.568,388.712,334.284,398.012,334.284,408.178z"/>
<path style="fill:#E8DBC4;" d="M185.438,338.912l-27.261,3.49l-3.521,0.449l-26.29,3.365l-3.082,0.397l-14.336,7.272l-59.559,30.229  c-4.598,2.33-8.328,5.872-10.888,10.125c-2.33-3.605-4.556-7.283-6.698-11.024l71.022-36.049l1.097-0.554l22.444-2.873l25.349-3.25  l1.808-0.23l20.24-2.591L185.438,338.912z"/>
<rect x="128.366" y="293.544" style="fill:#F9D6B9;" width="98.032" height="63.028"/>
<g>
	<circle style="fill:#E5BFA3;" cx="80.402" cy="187.424" r="30.294"/>
	<circle style="fill:#E5BFA3;" cx="271.13" cy="187.424" r="30.294"/>
	<path style="fill:#E5BFA3;" d="M154.21,293.544L154.21,293.544l-25.845-0.001v0.001h-0.001v26.652c0,0,0.001,0,0.001,0.001v26.371   h25.845l0,0c0-8.928,7.435-16.107,16.354-15.687c1.724,0.082,3.458,0.122,5.201,0.122c18.27,0,35.494-4.493,50.627-12.427v-25.033   H154.21z"/>
</g>
<path style="fill:#F9D6B9;" d="M284.901,48.834H66.635V211.08c0,60.273,48.86,109.133,109.133,109.133l0,0  c60.273,0,109.133-48.86,109.133-109.133V48.834H284.901z"/>
<path style="fill:#E5BFA3;" d="M272.022,8.477c-0.331-0.063-0.667-0.108-1.002-0.137c-3.161-0.279-6.275,0.909-8.584,3.085  c-1.652,1.556-3.765,3.509-5.2,4.699c-18.421,15.256-41.776,23.583-65.917,23.583H98.303c-10.199,0-19.601,3.402-27.144,9.127  h-4.524v3.93c-8.198,8.142-13.276,19.42-13.276,31.887v66.856c0,7.95,5.726,14.551,13.276,15.919v43.655  c0,60.273,48.86,109.133,109.133,109.133l0,0c4.068,0,8.081-0.23,12.034-0.664c-54.609-5.991-97.099-52.265-97.099-108.47v-64.396  c0-10.071,7.839-18.594,17.901-18.991c0.317-0.013,0.635-0.019,0.955-0.019l0,0c10.269,0,20.264,3.448,28.266,9.885  c10.384,8.353,23.687,15.102,37.944,13.353c28.398-3.484,27.56-22.243,37.944-30.596c8.002-6.437,17.996-9.885,28.266-9.885h0.443  c13.127,0,23.374-4.902,23.394,8.225c0.014,8.838,6.975,49.162,15.812,49.361c4.611,0.103,8.805-1.724,11.814-4.738  c2.927-2.927,4.737-6.972,4.737-11.443V40.442C298.177,24.92,287.273,11.366,272.022,8.477z"/>
<path style="fill:#F4A14E;" d="M298.177,32.143v139.1c0,4.471-1.81,8.515-4.737,11.443c-3.01,3.016-7.204,4.841-11.813,4.737  c-8.847-0.2-15.813-7.658-15.813-16.505v-27.703c0-6.584-2.667-12.538-6.983-16.853c-4.315-4.315-10.269-6.983-16.853-6.983  c-10.269,0-20.262,3.447-28.268,9.888c-10.38,8.35-23.576,13.351-37.945,13.351c-14.364,0-27.56-5.002-37.94-13.351  c-1.372-1.107-2.806-2.119-4.288-3.043c-0.017-0.017-0.039-0.027-0.055-0.039c-2.822-1.76-5.821-3.187-8.941-4.277  c-4.786-1.666-9.849-2.529-14.984-2.529c-13.163,0-23.836,10.674-23.836,23.836v28.036c0,4.465-1.81,8.515-4.742,11.443  c-2.927,2.927-6.972,4.737-11.443,4.737c-8.936,0-16.178-7.242-16.178-16.184V76.351c0-24.822,20.124-44.944,44.944-44.944h93.016  c24.14,0,47.495-8.327,65.914-23.581c1.439-1.189,3.553-3.143,5.202-4.698c2.312-2.18,5.428-3.365,8.587-3.088  c0.332,0.027,0.67,0.072,1.001,0.138C287.272,3.067,298.177,16.623,298.177,32.143z"/>
<path style="fill:#E28D40;" d="M152.645,31.409c-24.827,0-44.952,20.125-44.952,44.941v43.112  c-12.288,0.94-21.974,11.212-21.974,23.751v28.035c0,4.462-1.808,8.516-4.733,11.442c-2.926,2.926-6.98,4.733-11.442,4.733  c-8.944,0-16.185-7.241-16.185-16.185V76.35c0-24.816,20.125-44.941,44.952-44.941L152.645,31.409L152.645,31.409z"/>
<path style="fill:#E5BFA3;" d="M152.081,182.233c-0.608,5.03-5.047,8.722-10.114,8.722h-26.329c-2.75,0-5.24-1.112-7.044-2.916  c-2.065-2.071-3.232-5.046-2.841-8.281c0.608-5.03,5.047-8.722,10.114-8.722h26.329c2.75,0,5.24,1.112,7.044,2.916  C151.304,176.023,152.473,178.999,152.081,182.233z"/>
<path style="fill:#FFFFFF;" d="M152.081,189.217c-0.608,5.03-5.047,8.722-10.114,8.722h-26.329c-2.75,0-5.24-1.112-7.044-2.916  c-2.065-2.071-3.232-5.046-2.841-8.281c0.608-5.03,5.047-8.722,10.114-8.722h26.329c2.75,0,5.24,1.112,7.044,2.916  C151.304,183.007,152.473,185.982,152.081,189.217z"/>
<path style="fill:#E5BFA3;" d="M242.897,171.037H216.34c-5.5,0-9.959,4.459-9.959,9.959l0,0c0,5.5,4.459,9.959,9.959,9.959h26.557  c5.5,0,9.959-4.459,9.959-9.959l0,0C252.856,175.495,248.396,171.037,242.897,171.037z"/>
<path style="fill:#FFFFFF;" d="M242.897,178.021H216.34c-5.5,0-9.959,4.459-9.959,9.959l0,0c0,5.5,4.459,9.959,9.959,9.959h26.557  c5.5,0,9.959-4.459,9.959-9.959l0,0C252.856,182.479,248.396,178.021,242.897,178.021z"/>
<path style="fill:#E5BFA3;" d="M251.511,151.141h-43.785c-3.1,0-5.613,2.513-5.613,5.613l0,0c0,3.1,2.513,5.613,5.613,5.613h43.785  c3.1,0,5.613-2.513,5.613-5.613l0,0C257.124,153.654,254.611,151.141,251.511,151.141z"/>
<g>
	<path style="fill:#34ABE0;" d="M142.164,184.694c0,7.314-5.931,13.246-13.246,13.246c-7.314,0-13.246-5.931-13.246-13.246   c0-2.435,0.658-4.715,1.81-6.673h22.874C141.505,179.979,142.164,182.259,142.164,184.694z"/>
	<path style="fill:#34ABE0;" d="M242.865,184.694c0,7.314-5.931,13.246-13.246,13.246c-7.314,0-13.246-5.931-13.246-13.246   c0-2.435,0.658-4.715,1.81-6.673h22.874C242.205,179.979,242.865,182.259,242.865,184.694z"/>
</g>
<g>
	<path style="fill:#E5BFA3;" d="M107.211,151.141c-3.091,0-5.742,2.418-5.798,5.508c-0.057,3.148,2.477,5.719,5.612,5.719h30.762   c12.214,0,22.116,9.901,22.116,22.116v54.793h5.573c7.159,0,12.963-5.803,12.963-12.963v-58.283   c0-9.328-7.562-16.889-16.889-16.889h-54.34V151.141z"/>
	<path style="fill:#E5BFA3;" d="M194.49,257.619c-12.156,4.005-25.287,4.005-37.443,0c-3.25-1.058-6.961,0.209-8.405,3.251l0,0   c-1.443,3.028,0.55,6.982,4.597,8.311c14.63,4.82,30.432,4.82,45.061,0c4.044-1.329,6.041-5.282,4.595-8.311l0,0   C201.451,257.828,197.739,256.56,194.49,257.619z"/>
	<path style="fill:#E5BFA3;" d="M182.359,279.789h-13.182c-3.361,0-6.087,2.725-6.087,6.087l0,0c0,3.361,2.725,6.087,6.087,6.087   h13.182c3.361,0,6.087-2.725,6.087-6.087l0,0C188.445,282.514,185.72,279.789,182.359,279.789z"/>
</g>
<path style="fill:#5C5E70;" d="M195.866,504.894c-13.375-3.218-26.342-7.481-38.807-12.716l10.71-98.262l0.387-3.584h15.214  l0.387,3.584L195.866,504.894z"/>
<path style="fill:#494B5B;" d="M181.205,394.201h-10.874c-6.47,0-11.715-5.245-11.715-11.715v-14.194  c0-6.47,5.245-11.715,11.715-11.715h10.874c6.47,0,11.715,5.245,11.715,11.715v14.194  C192.921,388.955,187.675,394.201,181.205,394.201z"/>
<g>
	<path style="fill:#FCF8F2;" d="M121.842,326.829l48.376,20.733c4.986,2.137,7.03,8.117,4.396,12.86l-15.666,28.2   c-3.04,5.471-10.549,6.347-14.767,1.722l-39.868-43.726c-3.676-4.031-3.031-10.362,1.38-13.57l7.159-5.207   C115.461,325.942,118.877,325.557,121.842,326.829z"/>
	<path style="fill:#FCF8F2;" d="M229.694,326.829l-48.376,20.733c-4.986,2.137-7.03,8.117-4.396,12.86l15.666,28.2   c3.04,5.471,10.549,6.347,14.766,1.722l39.868-43.726c3.676-4.031,3.031-10.362-1.38-13.57l-7.159-5.207   C236.075,325.942,232.659,325.557,229.694,326.829z"/>
	<polygon style="fill:#FCF8F2;" points="280.065,463.75 248.25,475.37 215.882,463.75 215.882,442.172 280.065,442.172  "/>
	<path style="fill:#FCF8F2;" d="M135.649,442.169v21.577l-19.09,6.98c-12.946-8.422-25.078-17.993-36.268-28.557H135.649z"/>
</g>
<path style="fill:#F9EED7;" d="M488.579,34.104H341.642c-12.935,0-23.421,10.486-23.421,23.421v146.938  c0,12.935,10.486,23.421,23.421,23.421l0,0c3.101,0,5.616,2.514,5.616,5.616v33.186c0,4.963,5.967,7.487,9.528,4.029l34.936-33.923  c5.884-5.712,13.761-8.908,21.962-8.908h74.895c12.935,0,23.421-10.486,23.421-23.421V57.524  C512,44.589,501.514,34.104,488.579,34.104z"/>
<path style="fill:#FF525D;" d="M430.761,188.284c0,8.388-7.161,15.753-15.549,15.753c-9.002,0-15.753-7.365-15.753-15.753  c0-8.593,6.751-15.753,15.753-15.753C423.601,172.531,430.761,179.691,430.761,188.284z M426.875,149.413  c0,6.343-6.957,9.002-11.867,9.002c-6.547,0-12.071-2.659-12.071-9.002c0-24.346-2.865-59.33-2.865-83.675  c0-7.979,6.547-12.479,14.936-12.479c7.979,0,14.73,4.5,14.73,12.479C429.738,90.082,426.875,125.066,426.875,149.413z"/>
<g>
</g>
<g>
</g>
<g>
</g>
<g>
</g>
<g>
</g>
<g>
</g>
<g>
</g>
<g>
</g>
<g>
</g>
<g>
</g>
<g>
</g>
<g>
</g>
<g>
</g>
<g>
</g>
<g>
</g>
</svg>
