<?xml version="1.0" encoding="iso-8859-1"?>
<!-- Generator: Adobe Illustrator 19.0.0, SVG Export Plug-In . SVG Version: 6.00 Build 0)  -->
<svg xmlns="http://www.w3.org/2000/svg" xmlns:xlink="http://www.w3.org/1999/xlink" version="1.1" id="Capa_1" x="0px" y="0px" viewBox="0 0 512 512" style="enable-background:new 0 0 512 512;" xml:space="preserve">
<circle style="fill:#FFD15C;" cx="256" cy="256" r="256"/>
<path style="fill:#34ABE0;" d="M178.294,355.4v73.289l-64.313,40.333c-4.472-2.988-8.85-6.113-13.113-9.373  c-7.764-5.925-15.172-12.278-22.204-19.028c-15.903-15.276-29.842-32.601-41.388-51.534c-2.361-3.877-4.629-7.826-6.781-11.839  c-6.562-12.163-12.163-24.921-16.708-38.16l36.08-18.317l39.278-5.026l5.444,0.69l33.844,4.336l41.556,21.096  C175.086,344.45,178.294,349.684,178.294,355.4z"/>
<path style="fill:#279FC9;" d="M94.587,316.436l-33.834,4.336l-41.556,21.096c-1.306,0.658-2.497,1.505-3.532,2.487  c-0.648-1.745-1.275-3.5-1.881-5.266l36.08-18.317l39.278-5.026L94.587,316.436z"/>
<rect x="62.487" y="290.931" style="fill:#F9D6B9;" width="55.131" height="35.446"/>
<g>
	<circle style="fill:#E5BFA3;" cx="29.636" cy="231.246" r="17.037"/>
	<circle style="fill:#E5BFA3;" cx="148.658" cy="231.246" r="17.037"/>
	<path style="fill:#E5BFA3;" d="M77.023,290.927L77.023,290.927H62.488l0,0h-0.001v14.989h0.001v14.83h14.535l0,0   c0-5.021,4.182-9.058,9.197-8.823c0.97,0.046,1.945,0.069,2.926,0.069c10.274,0,19.962-2.527,28.472-6.989v-14.078H77.023V290.927z   "/>
</g>
<path style="fill:#F9D6B9;" d="M150.523,153.302H27.77v91.248c0,33.898,27.479,61.376,61.376,61.376l0,0  c33.898,0,61.376-27.479,61.376-61.376V153.302z"/>
<path style="fill:#E5BFA3;" d="M143.28,130.605c-0.186-0.036-0.375-0.061-0.563-0.077c-1.777-0.157-3.529,0.511-4.827,1.735  c-0.929,0.876-2.117,1.974-2.925,2.643c-10.359,8.58-23.495,13.263-37.072,13.263H45.581c-5.736,0-11.024,1.913-15.266,5.134H27.77  v2.21c-4.61,4.579-7.467,10.922-7.467,17.934v37.6c0,4.471,3.22,8.184,7.467,8.953v24.552c0,33.898,27.479,61.376,61.376,61.376l0,0  c2.287,0,4.545-0.13,6.768-0.373c-30.712-3.37-54.608-29.394-54.608-61.003v-36.216c0-5.663,4.408-10.457,10.068-10.681  c0.178-0.007,0.357-0.01,0.537-0.01l0,0c5.775,0,11.397,1.939,15.897,5.559c5.84,4.698,13.321,8.493,21.34,7.51  c15.971-1.959,15.5-12.51,21.34-17.207c4.5-3.621,10.121-5.559,15.897-5.559h0.249c7.382,0,13.146-2.756,13.156,4.626  c0.007,4.971,3.923,27.649,8.893,27.76c2.593,0.059,4.953-0.97,6.643-2.665c1.646-1.646,2.663-3.92,2.663-6.436V148.58  C157.99,139.853,151.857,132.231,143.28,130.605z"/>
<path style="fill:#5C5E70;" d="M157.99,143.915v78.229c0,2.514-1.018,4.789-2.663,6.436c-1.693,1.696-4.051,2.723-6.643,2.663  c-4.976-0.112-8.893-4.307-8.893-9.282v-15.58c0-3.703-1.499-7.051-3.927-9.478c-2.427-2.427-5.775-3.927-9.478-3.927  c-5.775,0-11.396,1.938-15.898,5.561c-5.838,4.696-13.259,7.509-21.34,7.509c-8.078,0-15.5-2.813-21.337-7.509  c-0.772-0.623-1.578-1.192-2.412-1.712c-0.009-0.009-0.022-0.016-0.031-0.022c-1.587-0.99-3.274-1.792-5.029-2.405  c-2.692-0.936-5.539-1.422-8.427-1.422c-7.403,0-13.405,6.003-13.405,13.405v15.768c0,2.511-1.018,4.789-2.667,6.436  c-1.646,1.646-3.92,2.663-6.436,2.663c-5.026,0-9.099-4.073-9.099-9.102v-53.366c0-13.959,11.317-25.277,25.277-25.277h52.312  c13.576,0,26.711-4.683,37.07-13.262c0.809-0.669,1.998-1.768,2.925-2.641c1.301-1.226,3.052-1.892,4.83-1.737  c0.187,0.016,0.376,0.041,0.563,0.077C151.856,127.563,157.99,135.187,157.99,143.915z"/>
<path style="fill:#494B5B;" d="M53.741,168.778c0-13.959,11.317-25.277,25.277-25.277H45.582c-13.959,0-25.277,11.317-25.277,25.277  v53.366c0,5.029,4.073,9.102,9.099,9.102c2.514,0,4.789-1.018,6.436-2.663c1.649-1.646,2.667-3.924,2.667-6.436V206.38  c0-7.403,6.003-13.405,13.405-13.405c0.613,0,1.223,0.033,1.831,0.077V168.778z"/>
<path style="fill:#797B89;" d="M146.789,165.438L146.789,165.438c-2.578,0-4.668-2.09-4.668-4.668v-15.869  c0-2.578,2.09-4.668,4.668-4.668l0,0c2.578,0,4.668,2.09,4.668,4.668v15.869C151.456,163.348,149.367,165.438,146.789,165.438z"/>
<path style="fill:#E5BFA3;" d="M75.825,228.326c-0.342,2.829-2.839,4.906-5.688,4.906H55.329c-1.546,0-2.947-0.626-3.961-1.639  c-1.161-1.165-1.818-2.838-1.598-4.657c0.342-2.829,2.839-4.906,5.688-4.906h14.807c1.546,0,2.947,0.626,3.961,1.639  C75.388,224.834,76.046,226.507,75.825,228.326z"/>
<path style="fill:#797B89;" d="M146.789,183.64L146.789,183.64c-2.578,0-4.668-2.09-4.668-4.668v-3.267  c0-2.578,2.09-4.668,4.668-4.668l0,0c2.578,0,4.668,2.09,4.668,4.668v3.267C151.456,181.551,149.367,183.64,146.789,183.64z"/>
<path style="fill:#FFFFFF;" d="M75.825,232.254c-0.342,2.829-2.839,4.906-5.688,4.906H55.329c-1.546,0-2.947-0.626-3.961-1.639  c-1.161-1.165-1.818-2.838-1.598-4.657c0.342-2.829,2.839-4.906,5.688-4.906h14.807c1.546,0,2.947,0.626,3.961,1.639  C75.388,228.761,76.046,230.434,75.825,232.254z"/>
<path style="fill:#E5BFA3;" d="M126.9,222.029h-14.936c-3.093,0-5.601,2.508-5.601,5.601l0,0c0,3.093,2.508,5.601,5.601,5.601H126.9  c3.093,0,5.601-2.508,5.601-5.601l0,0C132.5,224.537,129.993,222.029,126.9,222.029z"/>
<path style="fill:#FFFFFF;" d="M126.9,225.957h-14.936c-3.093,0-5.601,2.508-5.601,5.601l0,0c0,3.093,2.508,5.601,5.601,5.601H126.9  c3.093,0,5.601-2.508,5.601-5.601l0,0C132.5,228.464,129.993,225.957,126.9,225.957z"/>
<path style="fill:#E5BFA3;" d="M131.745,210.839H107.12c-1.744,0-3.157,1.414-3.157,3.157l0,0c0,1.744,1.414,3.157,3.157,3.157  h24.625c1.744,0,3.157-1.414,3.157-3.157l0,0C134.902,212.253,133.488,210.839,131.745,210.839z"/>
<g>
	<path style="fill:#41B787;" d="M70.247,229.709c0,4.114-3.335,7.449-7.449,7.449s-7.449-3.335-7.449-7.449   c0-1.369,0.37-2.651,1.018-3.753h12.864C69.878,227.058,70.247,228.34,70.247,229.709z"/>
	<path style="fill:#41B787;" d="M126.881,229.709c0,4.114-3.335,7.449-7.449,7.449c-4.114,0-7.449-3.335-7.449-7.449   c0-1.369,0.37-2.651,1.018-3.753h12.864C126.511,227.058,126.881,228.34,126.881,229.709z"/>
</g>
<g>
	<path style="fill:#E5BFA3;" d="M50.59,210.839c-1.738,0-3.229,1.359-3.261,3.098c-0.032,1.77,1.393,3.216,3.157,3.216h17.3   c6.869,0,12.437,5.568,12.437,12.437v30.815h3.135c4.026,0,7.29-3.264,7.29-7.29v-32.778c0-5.245-4.253-9.498-9.498-9.498H50.59z"/>
	<path style="fill:#E5BFA3;" d="M99.676,270.723c-6.837,2.253-14.221,2.253-21.058,0c-1.826-0.596-3.914,0.118-4.727,1.828l0,0   c-0.812,1.703,0.309,3.927,2.585,4.674c8.228,2.71,17.114,2.712,25.342,0c2.275-0.748,3.397-2.971,2.585-4.674l0,0   C103.59,270.84,101.502,270.127,99.676,270.723z"/>
	<path style="fill:#E5BFA3;" d="M92.854,282.734H85.44c-1.89,0-3.423,1.533-3.423,3.423l0,0c0,1.89,1.533,3.423,3.423,3.423h7.414   c1.89,0,3.423-1.533,3.423-3.423l0,0C96.277,284.267,94.744,282.734,92.854,282.734z"/>
</g>
<path style="fill:#FFD15C;" d="M100.867,459.65c-7.764-5.925-15.172-12.278-22.204-19.028l6.207-95.263h8.558L100.867,459.65z"/>
<path style="fill:#EDBB4C;" d="M92.205,347.535h-6.116c-3.638,0-6.588-2.95-6.588-6.589v-7.983c0-3.638,2.95-6.589,6.588-6.589  h6.116c3.638,0,6.588,2.95,6.588,6.589v7.983C98.793,344.585,95.843,347.535,92.205,347.535z"/>
<g>
	<path style="fill:#279FC9;" d="M58.819,309.646l27.206,11.66c2.805,1.202,3.954,4.565,2.472,7.232l-8.811,15.859   c-1.709,3.077-5.933,3.569-8.305,0.969l-22.421-24.592c-2.067-2.267-1.705-5.827,0.776-7.632l4.026-2.928   C55.23,309.147,57.152,308.931,58.819,309.646z"/>
	<path style="fill:#279FC9;" d="M119.475,309.646l-27.206,11.66c-2.805,1.202-3.954,4.565-2.472,7.232l8.811,15.859   c1.709,3.077,5.933,3.569,8.305,0.969l22.421-24.592c2.067-2.267,1.705-5.827-0.776-7.632l-4.026-2.928   C123.063,309.147,121.142,308.931,119.475,309.646z"/>
	<polygon style="fill:#279FC9;" points="147.803,386.65 129.911,393.185 111.707,386.65 111.707,374.514 147.803,374.514  "/>
	<path style="fill:#279FC9;" d="M66.584,374.511v12.142l-17.889,6.531l-11.421-4.096c-2.361-3.877-4.629-7.826-6.781-11.839v-2.738   H66.584z"/>
</g>
<path style="fill:#F9EED7;" d="M111.084,416.558H91.948c-1.288,0-2.333,1.045-2.333,2.333l0,0c0,1.288,1.045,2.333,2.333,2.333  h19.136c1.288,0,2.333-1.045,2.333-2.333l0,0C113.417,417.603,112.372,416.558,111.084,416.558z"/>
<rect x="353.468" y="178.991" style="fill:#E28D40;" width="132.556" height="176.891"/>
<rect x="396.194" y="290.931" style="fill:#F9D6B9;" width="55.131" height="35.446"/>
<path style="fill:#E5BFA3;" d="M410.73,290.927L410.73,290.927h-14.535l0,0h-0.001v14.989h0.001v14.83h14.535l0,0  c0-5.021,4.182-9.058,9.197-8.823c0.97,0.046,1.945,0.069,2.926,0.069c10.274,0,19.962-2.527,28.472-6.989v-14.078H410.73V290.927z"/>
<path style="fill:#F9D6B9;" d="M478.55,182.613l-111.393-6.535v68.471c0,33.898,24.936,61.376,55.696,61.376l0,0  c30.761,0,55.696-27.479,55.696-61.376v-61.936H478.55z"/>
<g>
	<path style="fill:#E5BFA3;" d="M381.98,244.55v-67.602l-14.824-0.869v68.471c0,33.898,24.936,61.376,55.696,61.376l0,0   c2.513,0,4.987-0.187,7.412-0.542C403.01,301.389,381.98,275.678,381.98,244.55z"/>
	<path style="fill:#E5BFA3;" d="M390.637,199.891c0,0,34.664,11.038,67.589,6.969s-5.815-26.005-5.815-26.005l-56.009-3.733   l-7.935,3.733"/>
	<path style="fill:#E5BFA3;" d="M465.451,212.395h-24.625c-1.744,0-3.157,1.414-3.157,3.157l0,0c0,1.744,1.414,3.157,3.157,3.157   h24.625c1.744,0,3.157-1.414,3.157-3.157l0,0C468.607,213.809,467.194,212.395,465.451,212.395z"/>
	<path style="fill:#E5BFA3;" d="M384.297,212.395c-1.738,0-3.229,1.359-3.261,3.098c-0.032,1.77,1.393,3.216,3.157,3.216h17.3   c6.869,0,12.437,5.568,12.437,12.437v24.592h3.135c4.026,0,7.29-3.264,7.29-7.29v-26.555c0-5.245-4.253-9.498-9.498-9.498H384.297z   "/>
</g>
<path style="fill:#FF6E7C;" d="M430.961,273.233c-5.294,1.54-10.921,1.54-16.216,0c-1.417-0.409-2.989,0.224-3.551,1.573l0,0  c-0.561,1.344,0.347,2.999,2.075,3.499c6.258,1.82,12.909,1.82,19.167,0c1.728-0.502,2.635-2.156,2.075-3.499l0,0  C433.95,273.458,432.378,272.826,430.961,273.233z"/>
<path style="fill:#E5BFA3;" d="M425.713,282.196h-5.721c-1.459,0-2.642,1.183-2.642,2.642l0,0c0,1.459,1.183,2.642,2.642,2.642  h5.721c1.459,0,2.642-1.183,2.642-2.642l0,0C428.355,283.378,427.172,282.196,425.713,282.196z"/>
<path style="fill:#F4A14E;" d="M497.632,191.715v147.077l-15.873-7.499c0,0,0-54.082,0-69.464s6.986-54.322-35.956-57.122  c-22.056-1.438-38.119-10.512-48.527-18.997c-0.003,0.013-0.009,0.05-0.022,0.112c0,0.003,0,0.003,0,0.003  c-0.351,1.892-5.473,26.191-35.775,28.709v120.661l-13.384,7.051V191.715c0-33.293,21.76-61.501,51.835-71.178h0.003  c7.222-2.328,14.924-3.582,22.921-3.582h0.019C464.161,116.955,497.632,150.426,497.632,191.715z"/>
<path style="fill:#E28D40;" d="M445.547,120.465c-0.084,0.021-0.157,0.052-0.24,0.073c-30.072,9.676-51.837,37.888-51.837,71.178  v3.887c-0.784,1.4-1.735,2.863-2.873,4.336c-5.12,6.635-13.97,13.333-29.121,14.597v120.654l-13.385,7.053V191.717  c0-33.29,21.765-61.503,51.837-71.178h0.01c7.22-2.33,14.921-3.584,22.915-3.584h0.021  C430.782,116.954,438.399,118.187,445.547,120.465z"/>
<path style="fill:#F9EED7;" d="M498.221,339.089c-26.185,76.33-87.437,136.38-164.519,160.904V355.4  c0-5.716,3.218-10.951,8.307-13.531l41.566-21.096l36.603,5.496l8.119,1.348v5.601l33.834-12.445L498.221,339.089z"/>
<path style="fill:#E8DBC4;" d="M404.416,322.642l-9.953-1.867l-41.561,21.091c-5.094,2.586-8.305,7.814-8.305,13.53v73.298h-10.891  v-73.298c0-5.717,3.211-10.944,8.305-13.53l41.561-21.091l15.554-5.031L404.416,322.642z"/>
<rect x="417.562" y="325.444" style="fill:#FCF8F2;" width="10.58" height="103.246"/>
<path style="fill:#F9EED7;" d="M430.555,325.65h-12.784v1.039l-0.208-0.089v16.514l4.639-8.352c0.442-0.793,0.65-1.652,0.65-2.495  c0,0.843,0.209,1.699,0.65,2.495l4.639,8.352v-10.847h2.412v-6.616H430.555z"/>
<g>
	<path style="fill:#FCF8F2;" d="M392.525,309.646l27.206,11.66c2.805,1.202,3.954,4.565,2.472,7.232l-8.811,15.859   c-1.709,3.077-5.933,3.569-8.305,0.969l-22.421-24.592c-2.067-2.267-1.705-5.827,0.776-7.632l4.026-2.928   C388.937,309.147,390.858,308.931,392.525,309.646z"/>
	<path style="fill:#FCF8F2;" d="M453.181,309.646l-27.206,11.66c-2.805,1.202-3.954,4.565-2.472,7.232l8.811,15.859   c1.709,3.077,5.933,3.569,8.305,0.969l22.421-24.592c2.067-2.267,1.705-5.827-0.776-7.632l-4.026-2.928   C456.77,309.147,454.848,308.931,453.181,309.646z"/>
</g>
<g>
	<circle style="fill:#5C5E70;" cx="422.849" cy="338.045" r="3.423"/>
	<circle style="fill:#5C5E70;" cx="422.849" cy="365.526" r="3.423"/>
	<circle style="fill:#5C5E70;" cx="422.849" cy="393.017" r="3.423"/>
	<circle style="fill:#5C5E70;" cx="422.849" cy="420.509" r="3.423"/>
</g>
<path style="fill:#FFFFFF;" d="M466.206,232.366c0,2.682-2.172,4.858-4.855,4.858h-16.427c-1.342,0-2.555-0.544-3.432-1.422  c-0.881-0.881-1.422-2.094-1.422-3.436c0-0.825,0.206-1.603,0.569-2.283c0.817-1.53,1.033-3.966,2.889-3.966l18.921-0.251  c1.342,0,2.387,2.842,2.671,1.633c0.337-1.435,0.288,2.159,0.515,2.583C465.999,230.764,466.206,231.541,466.206,232.366z"/>
<path style="fill:#34ABE0;" d="M460.587,231.265c0,2.437-1.17,4.603-2.981,5.959h-8.937c-1.811-1.356-2.981-3.522-2.981-5.959  c0-1.369,0.37-2.651,1.018-3.753l6.832-1.212l6.032,1.212C460.216,228.614,460.587,229.896,460.587,231.265z"/>
<path style="fill:#5C5E70;" d="M444.925,227.512h16.427c1.342,0,2.555,0.544,3.432,1.422c0.337,0.338,0.624,0.725,0.851,1.149  c0.363-0.742,0.572-1.573,0.572-2.453c0-3.093-2.508-5.601-5.601-5.601H445.67c-3.093,0-5.601,2.508-5.601,5.601  c0,0.882,0.209,1.713,0.573,2.454C441.459,228.555,443.069,227.512,444.925,227.512z"/>
<path style="fill:#FFFFFF;" d="M409.701,232.366c0,2.682-2.172,4.858-4.855,4.858H388.42c-1.342,0-2.555-0.544-3.432-1.422  c-0.881-0.881-1.422-2.094-1.422-3.436c0-0.825,0.206-1.603,0.569-2.283c0.817-1.53,1.033-3.966,2.889-3.966l18.921-0.251  c1.342,0,2.387,2.842,2.671,1.633c0.338-1.435,0.288,2.159,0.515,2.583C409.494,230.764,409.701,231.541,409.701,232.366z"/>
<path style="fill:#34ABE0;" d="M404.081,231.265c0,2.437-1.17,4.603-2.981,5.959h-8.937c-1.811-1.356-2.981-3.522-2.981-5.959  c0-1.369,0.37-2.651,1.018-3.753l6.832-1.212l6.032,1.212C403.711,228.614,404.081,229.895,404.081,231.265z"/>
<path style="fill:#78CAEF;" d="M393.729,233.231c-0.974,0-1.764,0.79-1.764,1.764c0,0.974,0.79,1.764,1.764,1.764"/>
<path style="fill:#5C5E70;" d="M388.42,227.512h16.427c1.342,0,2.555,0.544,3.432,1.422c0.337,0.338,0.624,0.725,0.851,1.149  c0.363-0.742,0.572-1.573,0.572-2.453c0-3.093-2.508-5.601-5.601-5.601h-14.936c-3.093,0-5.601,2.508-5.601,5.601  c0,0.882,0.209,1.713,0.573,2.454C384.953,228.555,386.564,227.512,388.42,227.512z"/>
<path style="fill:#FF525D;" d="M409.478,385.807v75.097c-22.643,16.99-48.201,30.313-75.776,39.09  c-24.503,7.795-50.604,12.006-77.699,12.006c-52.548,0-101.386-15.83-142.023-42.977c-3.897-2.602-7.722-5.308-11.463-8.129v-75.086  c0-9.843,5.528-18.84,14.305-23.291l71.555-36.31l67.615-8.662l9.373,1.202h0.01l58.253,7.461l71.544,36.31  C403.95,366.967,409.478,375.964,409.478,385.807z"/>
<path style="fill:#EF4152;" d="M265.365,318.745l-58.243,7.461l-71.555,36.31c-8.767,4.451-14.294,13.448-14.294,23.291v87.907  c-2.456-1.526-4.89-3.082-7.293-4.692c-3.897-2.602-7.722-5.308-11.463-8.129v-75.086c0-9.843,5.528-18.84,14.305-23.291  l71.555-36.31l67.615-8.662L265.365,318.745z"/>
<rect x="210.098" y="274.819" style="fill:#F9D6B9;" width="94.919" height="61.022"/>
<g>
	<circle style="fill:#E5BFA3;" cx="163.997" cy="172.074" r="29.33"/>
	<circle style="fill:#E5BFA3;" cx="348.003" cy="172.074" r="29.33"/>
	<path style="fill:#E5BFA3;" d="M235.127,274.818L235.127,274.818l-25.024-0.001v0.001h-0.001v25.806c0,0,0.001,0,0.001,0.001   v25.533h25.024l0,0c0-8.644,7.199-15.596,15.834-15.19c1.669,0.078,3.348,0.118,5.036,0.118c17.69,0,34.367-4.35,49.019-12.032   v-24.236H235.127z"/>
</g>
<path style="fill:#F9D6B9;" d="M361.666,88.342l-211.334-11.25v117.882c0,58.359,47.309,105.666,105.666,105.666l0,0  c58.359,0,105.666-47.309,105.666-105.666V88.342H361.666z"/>
<path style="fill:#E5BFA3;" d="M271.057,29.042l-64.736,5.604c-9.875,0-18.978,3.295-26.281,8.838h-4.381v3.804  c-7.937,7.884-12.854,18.804-12.854,30.875l-16.608,59.129c0,7.697-3.173,14.089,4.137,15.413v42.268  c0,58.359,47.309,105.666,105.666,105.666l0,0c3.938,0,7.824-0.223,11.652-0.643c-52.875-5.801-94.016-50.604-94.016-105.025v-62.35  c0-9.751,7.589-18.004,17.333-18.388c0.306-0.013,0.614-0.018,0.925-0.018l0,0c9.943,0,19.62,3.338,27.368,9.571  c10.054,8.088,22.934,14.622,36.74,12.929c27.496-3.374,26.685-21.536,36.74-29.624c7.748-6.233,17.425-9.571,27.368-9.571h0.428  c12.71,0,22.631-4.746,22.651,7.964c0.013,8.557,6.753,47.601,15.311,47.793c4.465,0.1,8.526-1.67,11.438-4.587  c2.834-2.834-0.771-6.75-0.771-11.079l-3.856-14.448"/>
<path style="fill:#C98847;" d="M374.523,84.393v53.23c0,4.329-1.752,8.245-4.586,11.079c-2.914,2.919-6.975,4.687-11.437,4.586  c-8.566-0.193-15.311-7.415-15.311-15.981v-8.047c0-6.375-2.582-12.14-6.76-16.318c-4.179-4.179-9.943-6.76-16.318-6.76  c-9.943,0-19.618,3.337-27.37,9.573c-10.05,8.084-22.828,12.927-36.741,12.927c-13.908,0-26.685-4.843-36.734-12.927  c-1.328-1.071-2.716-2.052-4.151-2.947c-0.016-0.016-0.038-0.027-0.053-0.038c-2.732-1.703-5.636-3.086-8.657-4.141  c-4.639-1.612-9.541-2.448-14.518-2.448c-12.739,0-23.068,10.344-23.068,23.09v8.357c0,4.324-1.752,8.245-4.591,11.079  c-2.834,2.834-6.75,4.586-11.079,4.586c-8.652,0-15.665-7.012-15.665-15.67V84.393C137.48,37.785,175.26,0,221.867,0h68.262  C336.738,0,374.523,37.785,374.523,84.393z"/>
<path style="fill:#BA773A;" d="M189.725,84.393C189.725,37.785,227.505,0,274.112,0h-52.245c-46.609,0-84.388,37.785-84.388,84.393  v53.23c0,8.657,7.012,15.67,15.665,15.67c4.329,0,8.245-1.752,11.079-4.586c2.839-2.834,4.591-6.755,4.591-11.079v-8.357  c0-12.016,9.183-21.896,20.91-22.986L189.725,84.393L189.725,84.393z"/>
<path style="fill:#E5BFA3;" d="M233.066,167.043c-0.588,4.87-4.887,8.445-9.793,8.445H197.78c-2.662,0-5.073-1.077-6.82-2.823  c-1.999-2.005-3.129-4.886-2.751-8.018c0.588-4.87,4.887-8.445,9.793-8.445h25.492c2.662,0,5.073,1.077,6.82,2.823  C232.313,161.029,233.444,163.91,233.066,167.043z"/>
<path style="fill:#FFFFFF;" d="M233.066,173.804c-0.588,4.87-4.887,8.445-9.793,8.445H197.78c-2.662,0-5.073-1.077-6.82-2.823  c-1.999-2.005-3.129-4.886-2.751-8.018c0.588-4.87,4.887-8.445,9.793-8.445h25.492c2.662,0,5.073,1.077,6.82,2.823  C232.313,167.792,233.444,170.672,233.066,173.804z"/>
<path style="fill:#E5BFA3;" d="M320.997,156.201h-25.714c-5.326,0-9.642,4.318-9.642,9.642l0,0c0,5.326,4.318,9.642,9.642,9.642  h25.714c5.326,0,9.642-4.318,9.642-9.642l0,0C330.639,160.518,326.322,156.201,320.997,156.201z"/>
<path style="fill:#FFFFFF;" d="M320.997,162.963h-25.714c-5.326,0-9.642,4.318-9.642,9.642l0,0c0,5.326,4.318,9.642,9.642,9.642  h25.714c5.326,0,9.642-4.318,9.642-9.642l0,0C330.639,167.28,326.322,162.963,320.997,162.963z"/>
<path style="fill:#E5BFA3;" d="M329.337,136.937h-42.396c-3.002,0-5.435,2.434-5.435,5.435l0,0c0,3.002,2.434,5.435,5.435,5.435  h42.396c3.002,0,5.435-2.434,5.435-5.435l0,0C334.772,139.371,332.339,136.937,329.337,136.937z"/>
<g>
	<path style="fill:#5C5E70;" d="M223.463,169.424c0,7.082-5.743,12.825-12.825,12.825c-7.082,0-12.825-5.743-12.825-12.825   c0-2.357,0.637-4.564,1.752-6.461h22.147C222.826,164.86,223.463,167.067,223.463,169.424z"/>
	<path style="fill:#5C5E70;" d="M320.965,169.424c0,7.082-5.743,12.825-12.825,12.825c-7.082,0-12.825-5.743-12.825-12.825   c0-2.357,0.637-4.564,1.752-6.461h22.147C320.327,164.86,320.965,167.067,320.965,169.424z"/>
</g>
<g>
	<path style="fill:#E5BFA3;" d="M189.62,136.937c-2.993,0-5.56,2.342-5.614,5.333c-0.055,3.048,2.398,5.537,5.435,5.537h29.785   c11.826,0,21.413,9.587,21.413,21.413v53.053h5.396c6.932,0,12.551-5.619,12.551-12.551v-56.433   c0-9.031-7.322-16.353-16.353-16.353H189.62V136.937z"/>
	<path style="fill:#E5BFA3;" d="M274.127,241.6c-11.771,3.879-24.484,3.879-36.254,0c-3.145-1.025-6.739,0.203-8.138,3.147l0,0   c-1.398,2.933,0.533,6.759,4.45,8.047c14.165,4.668,29.465,4.668,43.63,0c3.917-1.287,5.848-5.115,4.45-8.047l0,0   C280.865,241.803,277.272,240.575,274.127,241.6z"/>
	<path style="fill:#E5BFA3;" d="M260.97,262.254h-9.94c-2.535,0-4.589,2.054-4.589,4.589l0,0c0,2.535,2.054,4.589,4.589,4.589h9.94   c2.535,0,4.589-2.054,4.589-4.589l0,0C265.559,264.308,263.504,262.254,260.97,262.254z"/>
</g>
<polygon style="fill:#797B89;" points="279.012,511.999 232.994,511.999 243.861,412.295 243.861,412.284 248.626,368.524   263.359,368.524 276.201,486.232 "/>
<path style="fill:#5C5E70;" d="M261.264,372.277h-10.528c-6.264,0-11.343-5.078-11.343-11.343V347.19  c0-6.264,5.078-11.343,11.343-11.343h10.528c6.264,0,11.343,5.078,11.343,11.343v13.744  C272.608,367.198,267.529,372.277,261.264,372.277z"/>
<g>
	<path style="fill:#EF4152;" d="M203.786,307.045l46.839,20.074c4.827,2.069,6.808,7.859,4.257,12.451l-15.169,27.304   c-2.942,5.297-10.215,6.145-14.297,1.668l-38.602-42.337c-3.559-3.903-2.935-10.033,1.336-13.14l6.932-5.041   C197.609,306.186,200.915,305.814,203.786,307.045z"/>
	<path style="fill:#EF4152;" d="M308.214,307.045l-46.839,20.074c-4.827,2.069-6.808,7.859-4.257,12.451l15.169,27.304   c2.942,5.297,10.215,6.145,14.297,1.668l38.602-42.337c3.559-3.903,2.935-10.033-1.336-13.14l-6.932-5.041   C314.391,306.186,311.085,305.814,308.214,307.045z"/>
</g>
<path style="fill:#5C5E70;" d="M279.012,511.999h-46.017l10.867-99.704c-3.605,33.029,17.701,65.661,32.34,73.937L279.012,511.999z"/>
<g>
</g>
<g>
</g>
<g>
</g>
<g>
</g>
<g>
</g>
<g>
</g>
<g>
</g>
<g>
</g>
<g>
</g>
<g>
</g>
<g>
</g>
<g>
</g>
<g>
</g>
<g>
</g>
<g>
</g>
</svg>
