<svg height="512pt" viewBox="0 0 512 512" width="512pt" xmlns="http://www.w3.org/2000/svg"><path d="m512 256c0 141.386719-114.613281 256-256 256s-256-114.613281-256-256 114.613281-256 256-256 256 114.613281 256 256zm0 0" fill="#89e9d9"/><path d="m500 248.5v15h-105.5v158.5h-15v-158.5h-181v158.5h-15v-158.5h-143.5v-15h143.5v-158.5h15v158.5h181v-158.5h15v158.5zm0 0" fill="#0ed1b2"/><path d="m257 256c0 36.449219-29.550781 66-66 66s-66-29.550781-66-66 29.550781-66 66-66 66 29.550781 66 66zm0 0" fill="#ec74b6"/><path d="m182.425781 321.425781c-32.398437-4.203125-57.425781-31.882812-57.425781-65.425781s25.027344-61.222656 57.425781-65.425781c-19.40625 13.230469-32.425781 37.574219-32.425781 65.425781s13.019531 52.195312 32.425781 65.425781zm0 0" fill="#e659a9"/><path d="m50 256c0 19.882812-16.117188 36-36 36-4.113281 0-8.0625-.699219-11.742188-1.96875-1.480468-11.136719-2.257812-22.492188-2.257812-34.03125s.777344-22.894531 2.257812-34.03125c3.679688-1.269531 7.628907-1.96875 11.742188-1.96875 19.882812 0 36 16.117188 36 36zm459.550781-35.410156c-16.804687 3.039062-29.550781 17.730468-29.550781 35.410156s12.746094 32.371094 29.550781 35.410156c1.601563-11.574218 2.449219-23.390625 2.449219-35.410156s-.847656-23.835938-2.449219-35.410156zm0 0" fill="#0ab59e"/><path d="m210.898438 240.460938-9.109376 45.542968c-2.320312 11.613282-8.03125 22.28125-16.40625 30.65625l-115.304687 115.308594c-18.660156-19.710938-34.210937-42.386719-45.890625-67.246094l104.628906-104.628906c8.375-8.375 19.042969-14.085938 30.65625-16.40625l45.542969-9.109375c3.5-.699219 6.585937 2.382813 5.882813 5.882813zm0 0" fill="#fbc56d"/><path d="m270 50v60c0 5.523438-4.476562 10-10 10h-141c-5.523438 0-10-4.476562-10-10v-60c0-5.523438 4.476562-10 10-10h141c5.523438 0 10 4.476562 10 10zm176.367188 310h-121.367188c-5.523438 0-10 4.476562-10 10v100c0 5.523438 4.476562 10 10 10h54.996094c29.527344-16.378906 55.472656-38.421875 76.367187-64.664062v-45.335938c.003907-5.523438-4.472656-10-9.996093-10zm0 0" fill="#0680ae"/><path d="m273 50v60c0 5.523438-4.476562 10-10 10h-120c-5.523438 0-10-4.476562-10-10v-60c0-5.523438 4.476562-10 10-10h120c5.523438 0 10 4.476562 10 10zm176 310h-102.925781c-5.523438 0-10 4.476562-10 10v100c0 5.523438 4.476562 10 10 10h33.921875c30.78125-17.074219 57.667968-40.308594 79.003906-68.035156v-41.964844c0-5.523438-4.476562-10-10-10zm0 0" fill="#3691bb"/><path d="m270 380v60c0 5.523438-4.476562 10-10 10h-141c-5.523438 0-10-4.476562-10-10v-60c0-5.523438 4.476562-10 10-10h141c5.523438 0 10 4.476562 10 10zm181.183594-320h-131.183594c-5.523438 0-10 4.476562-10 10v120c0 5.523438 4.476562 10 10 10h131.183594c5.523437 0 10-4.476562 10-10v-120c0-5.523438-4.476563-10-10-10zm0 0" fill="#fded32"/><path d="m273 380v60c0 5.523438-4.476562 10-10 10h-120c-5.523438 0-10-4.476562-10-10v-60c0-5.523438 4.476562-10 10-10h120c5.523438 0 10 4.476562 10 10zm181-320h-111.464844c-5.519531 0-10 4.476562-10 10v120c0 5.523438 4.480469 10 10 10h111.464844c5.523438 0 10-4.476562 10-10v-120c0-5.523438-4.476562-10-10-10zm0 0" fill="#fdf385"/><path d="m416.171875 257.828125-26.34375 26.34375c-1.5625 1.5625-4.09375 1.5625-5.65625 0l-26.34375-26.34375c-1.5625-1.5625-1.5625-4.09375 0-5.65625l26.34375-26.34375c1.5625-1.5625 4.09375-1.5625 5.65625 0l26.34375 26.34375c1.5625 1.5625 1.5625 4.09375 0 5.65625zm0 0" fill="#ddf4ba"/><path d="m416.171875 252.171875c1.5625 1.5625 1.5625 4.09375 0 5.65625l-20.421875 20.421875-20.421875-20.421875c-1.5625-1.5625-1.5625-4.09375 0-5.65625l20.421875-20.421875zm0 0" fill="#ecf8d9"/><path d="m173.5 80c0 4.140625-3.359375 7.5-7.5 7.5s-7.5-3.359375-7.5-7.5 3.359375-7.5 7.5-7.5 7.5 3.359375 7.5 7.5zm17.5-7.5c-4.140625 0-7.5 3.359375-7.5 7.5s3.359375 7.5 7.5 7.5 7.5-3.359375 7.5-7.5-3.359375-7.5-7.5-7.5zm25 0c-4.140625 0-7.5 3.359375-7.5 7.5s3.359375 7.5 7.5 7.5 7.5-3.359375 7.5-7.5-3.359375-7.5-7.5-7.5zm210.25 325h-78.5c-1.105469 0-2 .894531-2 2v11c0 1.105469.894531 2 2 2h78.5c1.105469 0 2-.894531 2-2v-11c0-1.105469-.894531-2-2-2zm-9.167969 30h-60.167969c-1.101562 0-2 .894531-2 2v11c0 1.105469.898438 2 2 2h60.167969c1.105469 0 2-.894531 2-2v-11c0-1.105469-.894531-2-2-2zm0 0" fill="#88b9d3"/><path d="m454 127v11c0 1.105469-.894531 2-2 2h-130c-1.105469 0-2-.894531-2-2v-11c0-1.105469.894531-2 2-2h130c1.105469 0 2 .894531 2 2zm-36.917969 28h-60.167969c-1.101562 0-2 .894531-2 2v11c0 1.105469.898438 2 2 2h60.167969c1.105469 0 2-.894531 2-2v-11c0-1.105469-.894531-2-2-2zm-69.332031-45h78.5c1.105469 0 2-.894531 2-2v-11c0-1.105469-.894531-2-2-2h-78.5c-1.105469 0-2 .894531-2 2v11c0 1.105469.894531 2 2 2zm-113.167969 278.75h-90.167969c-1.101562 0-2 .894531-2 2v11c0 1.105469.898438 2 2 2h90.167969c1.105469 0 2-.894531 2-2v-11c0-1.105469-.894531-2-2-2zm-70.082031 27.5c-4.140625 0-7.5 3.359375-7.5 7.5s3.359375 7.5 7.5 7.5 7.5-3.359375 7.5-7.5-3.359375-7.5-7.5-7.5zm25 0c-4.140625 0-7.5 3.359375-7.5 7.5s3.359375 7.5 7.5 7.5 7.5-3.359375 7.5-7.5-3.359375-7.5-7.5-7.5zm25 0c-4.140625 0-7.5 3.359375-7.5 7.5s3.359375 7.5 7.5 7.5 7.5-3.359375 7.5-7.5-3.359375-7.5-7.5-7.5zm0 0" fill="#e8ce00"/><path d="m184.085938 289.675781c7.8125 7.808594 7.8125 20.472657 0 28.28125l-114.007813 114.011719c-18.660156-19.710938-34.210937-42.386719-45.890625-67.246094l103.332031-103.332031c7.808594-7.8125 20.472657-7.8125 28.28125 0 7.8125 7.808594 7.8125 20.472656 0 28.285156 7.8125-7.8125 20.476563-7.8125 28.285157 0zm0 0" fill="#017296"/><path d="m155.800781 261.390625c7.8125 7.808594 7.8125 20.472656 0 28.285156l-111.003906 111.007813c-7.800781-11.363282-14.699219-23.382813-20.609375-35.960938l103.332031-103.332031c7.808594-7.8125 20.472657-7.8125 28.28125 0zm0 0" fill="#025f80"/><path d="m188.800781 237.820312 16.214844-3.242187c3.5-.699219 6.585937 2.382813 5.886719 5.882813l-3.246094 16.214843zm0 0" fill="#024c67"/></svg>