<svg height="512pt" viewBox="0 0 512 512" width="512pt" xmlns="http://www.w3.org/2000/svg"><path d="m512 256c0 141.386719-114.613281 256-256 256s-256-114.613281-256-256 114.613281-256 256-256 256 114.613281 256 256zm0 0" fill="#5de0c3"/><path d="m414 60v350h-362.503906c-2.117188-2.808594-4.171875-5.664062-6.175782-8.558594l4.898438-31.75c15.5-100.457031 26.609375-201.511718 33.324219-302.882812 2.546875-2.324219 5.152343-4.585938 7.792969-6.808594zm0 0" fill="#0ab59e"/><path d="m276.5 10v332c0 5.523438-4.476562 10-10 10h-21c-5.523438 0-10-4.476562-10-10v-332c0-5.523438 4.476562-10 10-10h21c5.523438 0 10 4.476562 10 10zm41.835938 321.285156c-1.429688-5.332031-6.910157-8.5-12.246094-7.070312l-20.285156 5.4375c-5.332032 1.425781-8.5 6.910156-7.070313 12.246094l43.273437 161.492187c13.382813-3.5625 26.335938-8.167969 38.761719-13.75zm-92.140626-1.632812-20.285156-5.4375c-5.335937-1.429688-10.816406 1.738281-12.246094 7.070312l-42.433593 158.355469c12.425781 5.582031 25.382812 10.1875 38.761719 13.75l43.273437-161.492187c1.429687-5.335938-1.738281-10.820313-7.070313-12.246094zm0 0" fill="#024c67"/><path d="m276.5 10v332c0 5.523438-4.476562 10-10 10s-10-4.476562-10-10v-332c0-5.523438 4.476562-10 10-10s10 4.476562 10 10zm-50.304688 319.652344c-5.335937-1.429688-10.820312 1.734375-12.25 7.070312l-43.074218 160.761719c6.265625 2.210937 12.644531 4.183594 19.121094 5.90625l43.273437-161.492187c1.429687-5.335938-1.738281-10.820313-7.070313-12.246094zm92.140626 1.632812c-1.429688-5.332031-6.910157-8.5-12.246094-7.070312-5.335938 1.429687-8.5 6.914062-7.070313 12.25l43.054688 160.6875c6.351562-2.265625 12.585937-4.769532 18.695312-7.511719zm0 0" fill="#025f80"/><path d="m431 50v20c0 5.523438-4.476562 10-10 10h-.5v360c0 5.523438-4.476562 10-10 10h-309c-5.523438 0-10-4.476562-10-10v-360h-.5c-5.523438 0-10-4.476562-10-10v-20c0-5.523438 4.476562-10 10-10h330c5.523438 0 10 4.476562 10 10zm0 0" fill="#ddf4ba"/><path d="m130.5 80h290v360c0 5.523438-4.476562 10-10 10h-300v-350c0-11.046875 8.953125-20 20-20zm290.5-40h-311c-5.523438 0-10 4.476562-10 10s4.476562 10 10 10h311c5.523438 0 10-4.476562 10-10s-4.476562-10-10-10zm0 0" fill="#ecf8d9"/><path d="m422 460h-332c-5.523438 0-10-4.476562-10-10v-10c0-5.523438 4.476562-10 10-10h332c5.523438 0 10 4.476562 10 10v10c0 5.523438-4.476562 10-10 10zm0 0" fill="#0680ae"/><path d="m422 460h-312c-5.523438 0-10-4.476562-10-10v-10c0-5.523438 4.476562-10 10-10h312c5.523438 0 10 4.476562 10 10v10c0 5.523438-4.476562 10-10 10zm0 0" fill="#3691bb"/><path d="m167.5 289.5c-26.191406 0-47.5 21.308594-47.5 47.5s21.308594 47.5 47.5 47.5 47.5-21.308594 47.5-47.5-21.308594-47.5-47.5-47.5zm0 80c-17.921875 0-32.5-14.578125-32.5-32.5s14.578125-32.5 32.5-32.5 32.5 14.578125 32.5 32.5-14.578125 32.5-32.5 32.5zm110-269.5h-50c-9.648438 0-17.5 7.851562-17.5 17.5v50c0 9.648438 7.851562 17.5 17.5 17.5h50c9.648438 0 17.5-7.851562 17.5-17.5v-50c0-9.648438-7.851562-17.5-17.5-17.5zm2.5 67.5c0 1.378906-1.121094 2.5-2.5 2.5h-50c-1.378906 0-2.5-1.121094-2.5-2.5v-50c0-1.378906 1.121094-2.5 2.5-2.5h50c1.378906 0 2.5 1.121094 2.5 2.5zm0 0" fill="#fc9368"/><path d="m345 402.5c0 4.140625-3.359375 7.5-7.5 7.5s-7.5-3.359375-7.5-7.5 3.359375-7.5 7.5-7.5 7.5 3.359375 7.5 7.5zm17.5-7.5c-4.140625 0-7.5 3.359375-7.5 7.5s3.359375 7.5 7.5 7.5 7.5-3.359375 7.5-7.5-3.359375-7.5-7.5-7.5zm25 0c-4.140625 0-7.5 3.359375-7.5 7.5s3.359375 7.5 7.5 7.5 7.5-3.359375 7.5-7.5-3.359375-7.5-7.5-7.5zm0 0" fill="#b8eb6a"/><path d="m195 140c0 4.140625-3.359375 7.5-7.5 7.5h-10c-6.894531 0-12.5 5.605469-12.5 12.5v78.105469l8.410156-8.410157c2.929688-2.925781 7.679688-2.925781 10.605469 0 2.929687 2.929688 2.929687 7.679688 0 10.609376l-21.210937 21.210937c-1.464844 1.464844-3.386719 2.199219-5.304688 2.199219s-3.839844-.734375-5.304688-2.199219l-21.210937-21.210937c-2.929687-2.929688-2.929687-7.679688 0-10.609376 2.929687-2.925781 7.675781-2.925781 10.605469 0l8.410156 8.410157v-78.105469c0-15.164062 12.335938-27.5 27.5-27.5h10c4.140625 0 7.5 3.359375 7.5 7.5zm197.167969 220h-61.519531c-1.105469 0-2 .894531-2 2v11c0 1.105469.894531 2 2 2h61.519531c1.105469 0 2-.894531 2-2v-11c0-1.105469-.898438-2-2-2zm0-60h-61.519531c-1.105469 0-2 .894531-2 2v11c0 1.105469.894531 2 2 2h61.519531c1.105469 0 2-.894531 2-2v-11c0-1.105469-.898438-2-2-2zm0 30h-79.1875c-1.101563 0-2 .894531-2 2v11c0 1.105469.898437 2 2 2h79.1875c1.105469 0 2-.894531 2-2v-11c0-1.105469-.898438-2-2-2zm0 0" fill="#a1e52e"/><path d="m455.28125 151.890625-28.28125 28.28125c-3.90625 3.90625-10.238281 3.90625-14.144531 0l-42.425781-42.425781c-3.90625-3.90625-3.90625-10.238282 0-14.140625l28.285156-28.285157c3.902344-3.90625 10.234375-3.90625 14.140625 0l42.425781 42.425782c3.90625 3.90625 3.90625 10.238281 0 14.144531zm0 0" fill="#024c67"/><path d="m222.292969 356.59375-22.425781 22.425781c-3.753907 3.75-8.839844 5.859375-14.144532 5.859375h-18c-1.101562 0-2-.898437-2-2v-18c0-5.304687 2.109375-10.390625 5.859375-14.144531l22.425781-22.425781zm0 0" fill="#fc5426"/><path d="m448.210938 158.960938-182.046876 182.046874c-2.792968 2.792969-6.347656 4.695313-10.222656 5.46875l-28.605468 5.722657c-4.914063.984375-9.992188-.554688-13.535157-4.097657l-11.300781-11.300781c-3.542969-3.539062-5.078125-8.621093-4.097656-13.53125l5.722656-28.609375c.773438-3.871094 2.675781-7.429687 5.46875-10.21875l182.050781-182.050781zm0 0" fill="#fc5426"/><path d="m448.210938 158.960938-182.046876 182.046874c-2.792968 2.792969-6.347656 4.695313-10.222656 5.46875l-28.605468 5.722657c-4.914063.984375-9.992188-.554688-13.535157-4.097657l7.292969-36.46875c.773438-3.875 2.679688-7.429687 5.46875-10.222656l182.050781-182.046875zm0 0" fill="#fd7d43"/><path d="m266.164062 341.007812-15.585937 15.585938c-7.8125 7.8125-20.476563 7.8125-28.285156 0l-14.140625 14.144531-28.285156-28.285156 14.140624-14.140625c-7.808593-7.8125-7.808593-20.476562 0-28.285156l15.585938-15.585938zm0 0" fill="#024c67"/></svg>