<svg height="512pt" viewBox="0 0 512 512" width="512pt" xmlns="http://www.w3.org/2000/svg"><path d="m512 256c0 141.386719-114.613281 256-256 256s-256-114.613281-256-256 114.613281-256 256-256 256 114.613281 256 256zm0 0" fill="#fdd78d"/><path d="m486 288.859375c0 46.457031-37.660156 84.113281-84.113281 84.113281h-78.632813c-11.234375 23.648438-35.332031 40-63.253906 40h-44.671875c-9.492187 23.453125-32.472656 40-59.328125 40-5.523438 0-10-4.476562-10-10v-203.945312c0-57.535156 48.433594-103.203125 105.871094-99.824219l98.476562 5.792969c76.175782 4.480468 135.652344 67.558594 135.652344 143.863281zm0 0" fill="#fd7d43"/><path d="m281.304688 309.695312c2.929687 2.929688 2.929687 7.679688 0 10.609376l-27.425782 27.425781c-1.507812 1.503906-3.074218 2.921875-4.6875 4.261719l15.203125 15.203124c2.925781 2.929688 2.925781 7.675782 0 10.605469-2.929687 2.929688-7.679687 2.929688-10.609375 0l-17.425781-17.425781c-9.265625 4.648438-19.542969 7.125-30.210937 7.125h-36.148438v75.472656c0 3.03125 1.351562 5.742188 3.480469 7.574219-5.554688 1.574219-11.417969 2.425781-17.480469 2.425781-5.523438 0-10-4.476562-10-10v-203.945312c0-57.535156 48.433594-103.203125 105.871094-99.824219l7.152344.417969c-11.714844 1.277344-22.847657 4.59375-33.023438 9.59375v55.785156h70c14.023438 0 27.207031-5.460938 37.121094-15.378906l27.429687-27.425782c2.929688-2.925781 7.675781-2.925781 10.605469 0 2.929688 2.929688 2.929688 7.679688 0 10.609376l-27.425781 27.425781c-12.75 12.75-29.703125 19.769531-47.730469 19.769531h-70v10c0 4.144531-3.355469 7.5-7.5 7.5s-7.5-3.355469-7.5-7.5v-71.707031c-20.9375 15.324219-35.753906 38.621093-39.851562 65.550781l23.246093 23.351562c2.925781 2.929688 2.925781 7.679688 0 10.609376-2.929687 2.925781-7.679687 2.925781-10.609375 0l-13.785156-13.785157v48.480469h6.148438c14.023437 0 27.207031-5.460938 37.121093-15.378906l9.851563-9.851563c12.75-12.75 29.703125-19.769531 47.730468-19.769531h95.148438c4.144531 0 7.5 3.355469 7.5 7.5 0 4.140625-3.355469 7.5-7.5 7.5h-95.148438c-14.023437 0-27.207031 5.460938-37.121093 15.375l-9.851563 9.855469c-5.09375 5.09375-10.867187 9.253906-17.101562 12.4375l17.027344 17.027343c2.929687 2.929688 2.929687 7.679688 0 10.609376-2.929688 2.925781-7.675782 2.925781-10.605469 0l-22-22c-4.882813 1.105468-9.921875 1.695312-15.050781 1.695312h-6.148438v45h36.148438c14.023437 0 27.207031-5.460938 37.121093-15.378906l27.425781-27.425782c2.929688-2.925781 7.679688-2.925781 10.609376 0zm154.695312 25.304688v-44.980469l17.804688-17.804687c2.925781-2.929688 2.925781-7.679688 0-10.605469-2.933594-2.929687-7.679688-2.929687-10.609376 0l-9.222656 9.21875c-2.933594-11.707031-8.984375-22.445313-17.742187-31.203125l-9.917969-9.917969 17.492188-17.492187c2.929687-2.929688 2.929687-7.679688 0-10.605469-2.929688-2.929687-7.679688-2.929687-10.609376 0l-17.195312 17.195313v.589843l-7.195312-7.199219c-2.929688-2.925781-7.679688-2.925781-10.609376 0-2.925781 2.933594-2.925781 7.679688 0 10.609376l27.429688 27.425781c9.914062 9.914062 15.375 23.097656 15.375 37.121093v47.648438h-21.285156c-14.023438 0-27.207032-5.460938-37.125-15.378906l-14.621094-14.617188h20.53125c4.140625-.003906 7.5-3.359375 7.5-7.503906 0-4.140625-3.359375-7.496094-7.5-7.5h-35.53125l-5.835938-5.835938c-2.929687-2.929687-7.679687-2.929687-10.609374 0-2.929688 2.929688-2.929688 7.675782 0 10.605469l35.460937 35.460938c12.75 12.75 29.699219 19.769531 47.730469 19.769531h59.90625c4.75-4.488281 8.980468-9.519531 12.585937-15zm-237.804688 49.164062c-2.925781 2.929688-2.925781 7.675782 0 10.605469l18.207032 18.203125h21.210937l-28.808593-28.808594c-2.929688-2.929687-7.679688-2.929687-10.609376 0zm90-36.96875c-2.925781 2.929688-2.925781 7.679688 0 10.609376l27.425782 27.425781c.035156.035156.066406.070312.101562.101562 2.914063-3.828125 5.445313-7.96875 7.53125-12.359375h1.328125l-25.777343-25.777344c-2.929688-2.925781-7.679688-2.925781-10.609376 0zm-14.695312-167.195312c4.144531 0 7.5-3.355469 7.5-7.5v-31.585938l-15-.882812v32.46875c0 4.144531 3.355469 7.5 7.5 7.5zm0 0" fill="#fc5426"/><path d="m276 206.046875h-240c-5.523438 0-10-4.476563-10-10v-127.019531c0-5.523438 4.476562-10 10-10h240c5.523438 0 10 4.476562 10 10v127.019531c0 5.523437-4.476562 10-10 10zm0 0" fill="#025f80"/><path d="m286 69.027344v155.398437c0 6.417969-5.203125 11.621094-11.621094 11.621094-5.003906 0-9.445312-3.199219-11.027344-7.949219l-7.351562-22.050781h-200c-5.523438 0-10-4.476563-10-10v-127.019531c0-5.523438 4.476562-10 10-10h220c5.523438 0 10 4.476562 10 10zm0 0" fill="#017296"/><path d="m146 134.027344c0 24.851562-20.148438 45-45 45s-45-20.148438-45-45c0-24.855469 20.148438-45 45-45s45 20.144531 45 45zm62.5 25c-4.140625 0-7.5 3.355468-7.5 7.5 0 4.140625 3.359375 7.5 7.5 7.5s7.5-3.359375 7.5-7.5c0-4.144532-3.359375-7.5-7.5-7.5zm25 0c-4.140625 0-7.5 3.355468-7.5 7.5 0 4.140625 3.359375 7.5 7.5 7.5s7.5-3.359375 7.5-7.5c0-4.144532-3.359375-7.5-7.5-7.5zm25 0c-4.140625 0-7.5 3.355468-7.5 7.5 0 4.140625 3.359375 7.5 7.5 7.5s7.5-3.359375 7.5-7.5c0-4.144532-3.359375-7.5-7.5-7.5zm0 0" fill="#024c67"/><path d="m129.453125 135.957031-34.890625 43.617188c-1.179688 1.476562-3.5625.640625-3.5625-1.25v-33.0625c0-.757813-.429688-1.449219-1.105469-1.789063l-16.679687-8.339844c-1.140625-.570312-1.464844-2.042968-.667969-3.039062l34.890625-43.617188c1.183594-1.472656 3.5625-.640624 3.5625 1.25v33.0625c0 .757813.429688 1.449219 1.105469 1.789063l16.683593 8.34375c1.136719.566406 1.460938 2.042969.664063 3.035156zm134.546875-36.929687h-96c-1.105469 0-2 .894531-2 2v11c0 1.101562.894531 2 2 2h96c1.105469 0 2-.898438 2-2v-11c0-1.105469-.894531-2-2-2zm-15.832031 30h-80.167969c-1.105469 0-2 .894531-2 2v11c0 1.101562.894531 2 2 2h80.167969c1.101562 0 2-.898438 2-2v-11c0-1.105469-.898438-2-2-2zm0 0" fill="#fdf7bd"/></svg>