<svg height="512pt" viewBox="0 0 512 512.00034" width="512pt" xmlns="http://www.w3.org/2000/svg"><path d="m512 256c0 133.800781-102.652344 243.609375-233.496094 255.003906-7.039062.613282-13.113281-4.875-13.113281-11.9375 0-40.535156-32.859375-73.398437-73.398437-73.398437h-120.984376c-4.300781 0-8.394531-1.890625-11.160156-5.1875-37.355468-44.5-59.863281-101.886719-59.847656-164.542969.03125-141.089844 115.335938-256.167969 256.425781-255.9375 141.1875.230469 255.574219 114.757812 255.574219 256zm0 0" fill="#025f80"/><path d="m280 180v40c0 5.523438-4.476562 10-10 10h-200v15c0 2.761719-2.238281 5-5 5h-10c-2.761719 0-5-2.238281-5-5v-40c0-2.761719 2.238281-5 5-5h5v-20c0-5.523438 4.476562-10 10-10h200c5.523438 0 10 4.476562 10 10zm0 0" fill="#ade8f0"/><path d="m270 230h-179.046875c-5.523437 0-10-4.476562-10-10v-40c0-5.523438 4.476563-10 10-10h179.046875c5.523438 0 10 4.476562 10 10v40c0 5.523438-4.476562 10-10 10zm0 0" fill="#d3f1f5"/><path d="m156.25 185c0 4.140625-3.359375 7.5-7.5 7.5s-7.5-3.359375-7.5-7.5 3.359375-7.5 7.5-7.5 7.5 3.359375 7.5 7.5zm13.75-7.5c-4.140625 0-7.5 3.359375-7.5 7.5s3.359375 7.5 7.5 7.5 7.5-3.359375 7.5-7.5-3.359375-7.5-7.5-7.5zm21.25 0c-4.140625 0-7.5 3.359375-7.5 7.5s3.359375 7.5 7.5 7.5 7.5-3.359375 7.5-7.5-3.359375-7.5-7.5-7.5zm0 0" fill="#2ed0e1"/><path d="m60 200h220v310.871094c-7.902344.734375-15.90625 1.128906-24 1.128906-78.671875 0-149.039062-35.496094-196-91.335938zm0 0" fill="#03bdd6"/><path d="m80 200h200v310.871094c-7.902344.734375-15.90625 1.128906-24 1.128906-68.175781 0-130.121094-26.65625-176-70.109375zm0 0" fill="#2ed0e1"/><path d="m240 360h-140c-5.523438 0-10-4.476562-10-10v-120c0-5.523438 4.476562-10 10-10h140c5.523438 0 10 4.476562 10 10v120c0 5.523438-4.476562 10-10 10zm0 0" fill="#0db2cc"/><path d="m126.667969 278.332031c-12.886719 0-23.332031-10.445312-23.332031-23.332031s10.445312-23.332031 23.332031-23.332031 23.332031 10.445312 23.332031 23.332031-10.445312 23.332031-23.332031 23.332031zm110.398437 3.859375-9.148437-11.972656c-2.464844-3.226562-7.324219-3.226562-9.789063 0l-36.328125 47.527344c-2.464843 3.226562-7.324219 3.226562-9.789062 0l-11.683594-15.285156c-2.464844-3.226563-7.324219-3.226563-9.789063 0l-27.492187 35.972656c-3.101563 4.054687-.207031 9.902344 4.894531 9.902344h104.230469c3.402344 0 6.160156-2.757813 6.160156-6.164063v-56.238281c0-1.351563-.445312-2.667969-1.265625-3.742188zm0 0" fill="#0198b0"/><path d="m360 140h-200c-5.523438 0-10-4.476562-10-10v-80c0-5.523438 4.476562-10 10-10h200c5.523438 0 10 4.476562 10 10v80c0 5.523438-4.476562 10-10 10zm0 0" fill="#fdbf43"/><path d="m370 50v80c0 5.523438-4.476562 10-10 10h-20v18.378906c0 6.417969-5.203125 11.621094-11.621094 11.621094-5.003906 0-9.445312-3.199219-11.027344-7.945312l-7.351562-22.054688h-130c-5.523438 0-10-4.476562-10-10v-80c0-5.523438 4.476562-10 10-10h180c5.523438 0 10 4.476562 10 10zm0 0" fill="#fdcb6b"/><path d="m180 117.5c0 4.140625-3.359375 7.5-7.5 7.5s-7.5-3.359375-7.5-7.5 3.359375-7.5 7.5-7.5 7.5 3.359375 7.5 7.5zm17.5-7.5c-4.140625 0-7.5 3.359375-7.5 7.5s3.359375 7.5 7.5 7.5 7.5-3.359375 7.5-7.5-3.359375-7.5-7.5-7.5zm25 0c-4.140625 0-7.5 3.359375-7.5 7.5s3.359375 7.5 7.5 7.5 7.5-3.359375 7.5-7.5-3.359375-7.5-7.5-7.5zm0 0" fill="#fcb30b"/><path d="m350 66.5v11c0 1.105469-.894531 2-2 2h-180c-1.105469 0-2-.894531-2-2v-11c0-1.105469.894531-2 2-2h180c1.105469 0 2 .894531 2 2zm0 0" fill="#fda800"/><path d="m252 72c0 6.628906-5.371094 12-12 12-6.625 0-12-5.371094-12-12 0-6.625 5.375-12 12-12 6.628906 0 12 5.375 12 12zm0 0" fill="#fc6930"/><path d="m460 295h-200c-5.523438 0-10-4.476562-10-10v-90c0-5.523438 4.476562-10 10-10h200c5.523438 0 10 4.476562 10 10v90c0 5.523438-4.476562 10-10 10zm0 0" fill="#fdd78d"/><path d="m470 195v90c0 5.523438-4.476562 10-10 10h-120l-7.351562 22.054688c-1.582032 4.746093-6.023438 7.945312-11.023438 7.945312-6.421875 0-11.625-5.203125-11.625-11.621094v-18.378906h-30c-5.523438 0-10-4.476562-10-10v-90c0-5.523438 4.476562-10 10-10h180c5.523438 0 10 4.476562 10 10zm0 0" fill="#fde5bd"/><path d="m280 272.5c0 4.140625-3.359375 7.5-7.5 7.5s-7.5-3.359375-7.5-7.5 3.359375-7.5 7.5-7.5 7.5 3.359375 7.5 7.5zm42.5-7.5c-4.140625 0-7.5 3.359375-7.5 7.5s3.359375 7.5 7.5 7.5 7.5-3.359375 7.5-7.5-3.359375-7.5-7.5-7.5zm-25 0c-4.140625 0-7.5 3.359375-7.5 7.5s3.359375 7.5 7.5 7.5 7.5-3.359375 7.5-7.5-3.359375-7.5-7.5-7.5zm0 0" fill="#fdcb6b"/><path d="m454 207v11c0 1.105469-.894531 2-2 2h-130c-1.105469 0-2-.894531-2-2v-11c0-1.105469.894531-2 2-2h130c1.105469 0 2 .894531 2 2zm-71.832031 28h-60.167969c-1.105469 0-2 .894531-2 2v11c0 1.105469.894531 2 2 2h60.167969c1.101562 0 2-.894531 2-2v-11c0-1.105469-.898438-2-2-2zm0 0" fill="#fdbf43"/><path d="m340 450h-200c-5.523438 0-10-4.476562-10-10v-90c0-5.523438 4.476562-10 10-10h200c5.523438 0 10 4.476562 10 10v90c0 5.523438-4.476562 10-10 10zm0 0" fill="#fc6930"/><path d="m350 350v90c0 5.523438-4.476562 10-10 10h-110l-7.351562 22.054688c-1.582032 4.746093-6.023438 7.945312-11.023438 7.945312-6.421875 0-11.625-5.203125-11.625-11.621094v-18.378906h-40c-5.523438 0-10-4.476562-10-10v-90c0-5.523438 4.476562-10 10-10h180c5.523438 0 10 4.476562 10 10zm0 0" fill="#fd7d43"/><path d="m210 435h-60c-5.523438 0-10-4.476562-10-10v-60c0-5.523438 4.476562-10 10-10h60c5.523438 0 10 4.476562 10 10v60c0 5.523438-4.476562 10-10 10zm0 0" fill="#fc5426"/><path d="m146.667969 375c0-7.363281 5.96875-13.332031 13.332031-13.332031s13.332031 5.96875 13.332031 13.332031-5.96875 13.332031-13.332031 13.332031-13.332031-5.96875-13.332031-13.332031zm60.714843 8.695312c-1.410156-1.84375-4.1875-1.84375-5.59375 0l-20.761718 27.160157c-1.40625 1.84375-4.183594 1.84375-5.59375 0l-6.675782-8.734375c-1.40625-1.84375-4.183593-1.84375-5.59375 0l-15.707031 20.554687c-1.773437 2.316407-.121093 5.660157 2.796875 5.660157h59.558594c1.945312 0 3.519531-1.578126 3.519531-3.523438v-32.136719c0-.773437-.253906-1.523437-.722656-2.136719zm120.617188-13.695312h-76c-1.105469 0-2 .894531-2 2v11c0 1.105469.894531 2 2 2h76c1.105469 0 2-.894531 2-2v-11c0-1.105469-.894531-2-2-2zm-30 30h-46c-1.105469 0-2 .894531-2 2v11c0 1.105469.894531 2 2 2h46c1.105469 0 2-.894531 2-2v-11c0-1.105469-.894531-2-2-2zm0 0" fill="#fdac89"/></svg>