<svg height="512pt" viewBox="0 0 512.00032 512" width="512pt" xmlns="http://www.w3.org/2000/svg"><path d="m70.160156 432.058594c-43.480468-45.882813-70.160156-107.855469-70.160156-176.058594 0-142.535156 116.488281-257.863281 259.453125-255.9765625 140.625 1.8515625 252.765625 115.7460935 252.546875 256.3828125-.105469 66.703125-25.722656 127.417969-67.613281 172.921875-1.578125 1.714844-3.925781 2.480469-6.21875 2.078125-56.828125-9.964844-118.175781-15.40625-182.167969-15.40625-65.371094 0-127.984375 5.679688-185.839844 16.058594zm0 0" fill="#5de0c3"/><path d="m115 469.664062c-22.367188-14.796874-42.292969-32.988281-59-53.875v-345.789062c0-11.046875 8.953125-20 20-20h39zm0 0" fill="#df3d9b"/><path d="m446 70v357.5625c-11.109375 12.292969-23.402344 23.488281-36.6875 33.4375h-19.78125c-15.757812 0-28.53125 12.773438-28.53125 28.53125-32.039062 14.429688-67.578125 22.46875-105 22.46875-68.175781 0-130.121094-26.65625-176-70.109375v-371.890625c0-11.046875 8.953125-20 20-20h326c11.046875 0 20 8.953125 20 20zm0 0" fill="#e659a9"/><path d="m410 95v365.503906c-15.421875 11.632813-32.195312 21.554688-50.050781 29.496094h-207.898438c-22.601562-10.054688-43.46875-23.285156-62.050781-39.128906v-355.871094c0-2.761719 2.238281-5 5-5h310c2.761719 0 5 2.238281 5 5zm0 0" fill="#cff09a"/><path d="m290 70h-80c-15.164062 0-27.5 12.335938-27.5 27.5v10c0 15.164062 12.335938 27.5 27.5 27.5h80c15.164062 0 27.5-12.335938 27.5-27.5v-10c0-15.164062-12.335938-27.5-27.5-27.5zm12.5 37.5c0 6.894531-5.605469 12.5-12.5 12.5h-80c-6.894531 0-12.5-5.605469-12.5-12.5v-10c0-6.894531 5.605469-12.5 12.5-12.5h80c6.894531 0 12.5 5.605469 12.5 12.5zm0 0" fill="#024c67"/><path d="m320 100h-140c-5.523438 0-10-4.476562-10-10v-45c0-2.761719 2.238281-5 5-5h150c2.761719 0 5 2.238281 5 5v45c0 5.523438-4.476562 10-10 10zm157.800781 215.335938-14.582031-14.582032c-1.007812-1.003906-2.636719-1.003906-3.644531 0l-101.804688 101.804688c-1.003906 1.007812-2.636719 1.007812-3.644531 0l-35.144531-35.148438c-1.007813-1.003906-2.636719-1.003906-3.644531 0l-14.582032 14.582032c-1.007812 1.003906-1.007812 2.640624 0 3.644531l51.554688 51.542969c2.015625 2.011718 5.277344 2.011718 7.289062 0l118.203125-118.199219c1.003907-1.007813 1.003907-2.640625 0-3.644531zm0 0" fill="#025f80"/><path d="m330 45v45c0 5.523438-4.476562 10-10 10h-120c-5.523438 0-10-4.476562-10-10v-45c0-2.761719 2.238281-5 5-5h35v-10c0-11.046875 8.953125-20 20-20s20 8.953125 20 20v10h55c2.761719 0 5 2.238281 5 5zm0 0" fill="#017296"/><path d="m260 30c0 5.523438-4.476562 10-10 10s-10-4.476562-10-10 4.476562-10 10-10 10 4.476562 10 10zm0 0" fill="#025f80"/><path d="m185 317.25c0 18.109375-12.902344 33.261719-30 36.746094v22.503906c0 4.140625-3.359375 7.5-7.5 7.5s-7.5-3.359375-7.5-7.5v-22.503906c-17.097656-3.484375-30-18.636719-30-36.746094 0-20.679688 16.820312-37.5 37.5-37.5s37.5 16.820312 37.5 37.5zm-38 72.75c-4.140625 0-7.5 3.359375-7.5 7.5s3.359375 7.5 7.5 7.5 7.5-3.359375 7.5-7.5-3.359375-7.5-7.5-7.5zm0-130.953125c-4.140625 0-7.5 3.359375-7.5 7.5 0 4.144531 3.359375 7.5 7.5 7.5s7.5-3.355469 7.5-7.5c0-4.140625-3.359375-7.5-7.5-7.5zm-7-58.171875v22.503906c0 4.144532 3.359375 7.5 7.5 7.5s7.5-3.355468 7.5-7.5v-22.503906c17.097656-3.484375 30-18.636719 30-36.746094 0-20.675781-16.820312-37.5-37.5-37.5s-37.5 16.824219-37.5 37.5c0 18.113282 12.902344 33.261719 30 36.746094zm7 36.007812c-4.140625 0-7.5 3.355469-7.5 7.5 0 4.140626 3.359375 7.5 7.5 7.5s7.5-3.359374 7.5-7.5c0-4.144531-3.359375-7.5-7.5-7.5zm0 0" fill="#b8eb6a"/><path d="m170 317.25c0 12.40625-10.09375 22.5-22.5 22.5s-22.5-10.09375-22.5-22.5 10.09375-22.5 22.5-22.5 22.5 10.09375 22.5 22.5zm-22.5-130.617188c12.40625 0 22.5-10.09375 22.5-22.5 0-12.410156-10.09375-22.5-22.5-22.5s-22.5 10.089844-22.5 22.5c0 12.40625 10.09375 22.5 22.5 22.5zm0 0" fill="#7ecd00"/><path d="m380 160.25v7c0 2.207031-1.789062 4-4 4h-166c-2.210938 0-4-1.792969-4-4v-7c0-2.210938 1.789062-4 4-4h166c2.210938 0 4 1.789062 4 4zm-170 39.75h126c2.210938 0 4-1.792969 4-4v-7c0-2.210938-1.789062-4-4-4h-126c-2.210938 0-4 1.789062-4 4v7c0 2.207031 1.789062 4 4 4zm166 16.25h-166c-2.210938 0-4 1.789062-4 4v7c0 2.207031 1.789062 4 4 4h166c2.210938 0 4-1.792969 4-4v-7c0-2.210938-1.789062-4-4-4zm-166 43.75h126c2.210938 0 4-1.792969 4-4v-7c0-2.210938-1.789062-4-4-4h-126c-2.210938 0-4 1.789062-4 4v7c0 2.207031 1.789062 4 4 4zm166 36.25h-166c-2.210938 0-4 1.789062-4 4v7c0 2.207031 1.789062 4 4 4h166c2.210938 0 4-1.792969 4-4v-7c0-2.210938-1.789062-4-4-4zm-40 28.75h-126c-2.210938 0-4 1.789062-4 4v7c0 2.207031 1.789062 4 4 4h126c2.210938 0 4-1.792969 4-4v-7c0-2.210938-1.789062-4-4-4zm0 0" fill="#a1e52e"/><path d="m363.546875 488.363281c-1.195313.550781-2.394531 1.101563-3.597656 1.636719h-284.449219c-24.578125 0-44.5-19.921875-44.5-44.5v-40.5c0-2.761719 2.238281-5 5-5h290c2.761719 0 5 2.238281 5 5v40.5c0 20.433594 13.777344 37.636719 32.546875 42.863281zm0 0" fill="#ecf8d9"/><path d="m100.5 490h-25c-24.578125 0-44.5-19.921875-44.5-44.5v-40.5c0-2.761719 2.238281-5 5-5h20v45.5c0 24.578125 19.921875 44.5 44.5 44.5zm0 0" fill="#ddf4ba"/></svg>