<svg height="512pt" viewBox="0 0 512 512" width="512pt" xmlns="http://www.w3.org/2000/svg"><path d="m512 256c0 141.386719-114.613281 256-256 256s-256-114.613281-256-256 114.613281-256 256-256 256 114.613281 256 256zm0 0" fill="#6bae01"/><path d="m347.75 16.953125v40.96875l58.933594 98.21875c2.128906 3.550781.976562 8.160156-2.574219 10.289063-1.207031.726562-2.539063 1.070312-3.851563 1.070312-2.546874 0-5.03125-1.300781-6.4375-3.644531l-53.570312-89.277344-53.566406 89.28125c-2.132813 3.550781-6.742188 4.703125-10.292969 2.570313-3.550781-2.128907-4.703125-6.738282-2.570313-10.289063l58.929688-98.21875v-46.210937c5.070312 1.59375 10.070312 3.347656 15 5.242187zm0 0" fill="#5a9001"/><path d="m366 255v60c0 2.761719-2.238281 5-5 5h-30c-2.761719 0-5-2.238281-5-5v-60c0-2.761719 2.238281-5 5-5h30c2.761719 0 5 2.238281 5 5zm-125-5h-30c-2.761719 0-5 2.238281-5 5v60c0 2.761719 2.238281 5 5 5h30c2.761719 0 5-2.238281 5-5v-60c0-2.761719-2.238281-5-5-5zm-60 0h-30c-2.761719 0-5 2.238281-5 5v15h-12c-2.761719 0-5 2.238281-5 5v85h43.5v-40h8.5c2.761719 0 5-2.238281 5-5v-60c0-2.761719-2.238281-5-5-5zm120 0h-30c-2.761719 0-5 2.238281-5 5v60c0 2.761719 2.238281 5 5 5h30c2.761719 0 5-2.238281 5-5v-60c0-2.761719-2.238281-5-5-5zm-116.25-214.039062h-30c-2.761719 0-5 2.238281-5 5v60c0 2.757812 2.238281 5 5 5h30c2.761719 0 5-2.242188 5-5v-60c0-2.761719-2.238281-5-5-5zm-55 5c0-2.761719-2.238281-5-5-5h-30c-2.761719 0-5 2.238281-5 5v15h-14.75c-2.761719 0-5 2.238281-5 5v77.039062c0 1.105469.894531 2 2 2h41.5v-34.039062h11.25c2.761719 0 5-2.242188 5-5zm0 0" fill="#0ed1b2"/><path d="m383 275v85h-227v-105c0-2.761719 2.238281-5 5-5h20c2.761719 0 5 2.238281 5 5v15h30v-15c0-2.761719 2.238281-5 5-5h20c2.761719 0 5 2.238281 5 5v15h30v-15c0-2.761719 2.238281-5 5-5h20c2.761719 0 5 2.238281 5 5v15h30v-15c0-2.761719 2.238281-5 5-5h20c2.761719 0 5 2.238281 5 5v15h12c2.761719 0 5 2.238281 5 5zm-173-214.039062c0-2.761719-2.238281-5-5-5h-15.25v-15c0-2.761719-2.238281-5-5-5h-20c-2.761719 0-5 2.238281-5 5v15h-30v-15c0-2.761719-2.238281-5-5-5h-20c-2.761719 0-5 2.238281-5 5v99.039062h108.25c1.105469 0 2-.894531 2-2zm0 0" fill="#89e9d9"/><path d="m111.5 329.039062v60c0 2.761719-2.238281 5-5 5h-5.5v35.960938h-32.753906c-4.25-4.585938-8.335938-9.324219-12.246094-14.210938v-66.75c0-2.757812 2.238281-5 5-5h10.5v-15c0-2.757812 2.238281-5 5-5h30c2.761719 0 5 2.242188 5 5zm303.75-209.039062h-30c-2.761719 0-5 2.238281-5 5v60c0 2.761719 2.238281 5 5 5h30c2.761719 0 5-2.238281 5-5v-60c0-2.761719-2.238281-5-5-5zm-60 0h-30c-2.761719 0-5 2.238281-5 5v60c0 2.761719 2.238281 5 5 5h30c2.761719 0 5-2.238281 5-5v-60c0-2.761719-2.238281-5-5-5zm-60 0h-30c-2.761719 0-5 2.238281-5 5v15h-14.75c-2.761719 0-5 2.238281-5 5v77.039062c0 1.105469.894531 2 2 2h41.5v-34.039062h11.25c2.761719 0 5-2.238281 5-5v-60c0-2.761719-2.238281-5-5-5zm0 0" fill="#e8ce00"/><path d="m111.5 344.039062h188.5v85.960938h-218.5v-100.960938c0-2.757812 2.238281-5 5-5h20c2.761719 0 5 2.242188 5 5zm323.5-204.039062h-14.75v-15c0-2.761719-2.238281-5-5-5h-20c-2.761719 0-5 2.238281-5 5v15h-30v-15c0-2.761719-2.238281-5-5-5h-20c-2.761719 0-5 2.238281-5 5v15h-30v-15c0-2.761719-2.238281-5-5-5h-20c-2.761719 0-5 2.238281-5 5v99.039062h167.75c1.105469 0 2-.894531 2-2v-77.039062c0-2.761719-2.238281-5-5-5zm0 0" fill="#fded32"/><path d="m190 430h43.5v81.003906c-14.902344-1.296875-29.4375-3.867187-43.5-7.609375zm0 0" fill="#017296"/><path d="m443.753906 430c-46.757812 50.425781-113.5625 82-187.753906 82-13.78125 0-27.308594-1.105469-40.5-3.199219v-78.800781zm0 0" fill="#0680ae"/><path d="m300 344.039062h43.5v85.960938h-43.5zm135-20h-30c-2.761719 0-5 2.242188-5 5v60c0 2.761719 2.238281 5 5 5h30c2.761719 0 5-2.238281 5-5v-60c0-2.757812-2.238281-5-5-5zm-335.5 134.550782v-28.589844h-31.253906c9.609375 10.363281 20.0625 19.929688 31.253906 28.589844zm0 0" fill="#fc5426"/><path d="m456 349.039062v66.75c-3.910156 4.886719-7.996094 9.625-12.246094 14.210938h-118.253906v-85.960938h84.5v-15c0-2.757812 2.238281-5 5-5h20c2.761719 0 5 2.242188 5 5v15h11c2.761719 0 5 2.242188 5 5zm-374.5 94.25c30.25 28.195313 67.332031 49.148438 108.5 60.105469v-73.394531h-108.5zm0 0" fill="#fc6930"/></svg>