<svg height="512pt" viewBox="0 0 512 512" width="512pt" xmlns="http://www.w3.org/2000/svg"><path d="m512 256c0 141.386719-114.613281 256-256 256s-256-114.613281-256-256 114.613281-256 256-256 256 114.613281 256 256zm0 0" fill="#025f80"/><path d="m110 343.710938c0 4.144531-3.359375 7.5-7.5 7.5s-7.5-3.355469-7.5-7.5c0-4.140626 3.359375-7.5 7.5-7.5s7.5 3.359374 7.5 7.5zm17.5-7.5c-4.140625 0-7.5 3.359374-7.5 7.5 0 4.144531 3.359375 7.5 7.5 7.5s7.5-3.355469 7.5-7.5c0-4.140626-3.359375-7.5-7.5-7.5zm-46.285156 0h-10c-6.894532 0-12.5-5.605469-12.5-12.5v-78.105469l8.40625 8.410156c2.929687 2.929687 7.679687 2.929687 10.609375 0 2.925781-2.929687 2.925781-7.675781 0-10.605469l-21.214844-21.214844c-2.925781-2.925781-7.675781-2.925781-10.605469 0l-21.214844 21.214844c-2.925781 2.929688-2.925781 7.675782 0 10.605469 1.464844 1.464844 3.386719 2.195313 5.304688 2.195313s3.839844-.730469 5.304688-2.195313l8.410156-8.410156v78.105469c0 15.164062 12.335937 27.5 27.5 27.5h10c4.140625 0 7.5-3.355469 7.5-7.5 0-4.140626-3.359375-7.5-7.5-7.5zm0 0" fill="#0680ae"/><path d="m486 299.835938c0 46.453124-37.660156 84.113281-84.113281 84.113281h-78.632813c-11.234375 23.644531-35.332031 40-63.253906 40h-44.671875c-9.492187 23.449219-32.472656 40-59.328125 40-5.523438 0-10-4.476563-10-10v-203.945313c0-57.539062 48.433594-103.207031 105.871094-99.828125l98.476562 5.792969c76.175782 4.480469 135.652344 67.558594 135.652344 143.867188zm0 0" fill="#fd7d43"/><path d="m281.304688 320.671875c2.929687 2.929687 2.929687 7.675781 0 10.605469l-27.425782 27.425781c-1.507812 1.503906-3.074218 2.921875-4.6875 4.265625l15.203125 15.199219c2.925781 2.929687 2.925781 7.679687 0 10.609375-2.929687 2.925781-7.679687 2.925781-10.609375 0l-17.425781-17.425782c-9.265625 4.644532-19.542969 7.121094-30.210937 7.121094h-36.148438v75.472656c0 3.03125 1.351562 5.742188 3.480469 7.574219-5.554688 1.578125-11.417969 2.425781-17.480469 2.425781-5.523438 0-10-4.476562-10-10v-203.941406c0-57.539062 48.433594-103.207031 105.871094-99.828125l7.152344.421875c-11.714844 1.273438-22.847657 4.589844-33.023438 9.589844v55.789062h70c14.023438 0 27.207031-5.460937 37.121094-15.378906l27.429687-27.425781c2.929688-2.929687 7.675781-2.929687 10.605469 0s2.929688 7.675781 0 10.605469l-27.425781 27.425781c-12.75 12.75-29.703125 19.773437-47.730469 19.773437h-70v10c0 4.140626-3.355469 7.5-7.5 7.5s-7.5-3.359374-7.5-7.5v-71.710937c-20.9375 15.328125-35.753906 38.625-39.851562 65.554687l23.246093 23.351563c2.925781 2.929687 2.925781 7.675781 0 10.605469-2.929687 2.929687-7.679687 2.929687-10.609375 0l-13.785156-13.785156v48.480468h6.148438c14.023437 0 27.207031-5.460937 37.121093-15.375l9.851563-9.855468c12.75-12.746094 29.703125-19.769532 47.730468-19.769532h95.148438c4.144531 0 7.5 3.355469 7.5 7.5 0 4.144532-3.355469 7.5-7.5 7.5h-95.148438c-14.023437 0-27.207031 5.460938-37.121093 15.378906l-9.851563 9.851563c-5.09375 5.09375-10.867187 9.257813-17.101562 12.4375l17.027344 17.03125c2.929687 2.929687 2.929687 7.675781 0 10.605469-2.929688 2.929687-7.675782 2.929687-10.605469 0l-22-22c-4.882813 1.109375-9.921875 1.695312-15.050781 1.695312h-6.148438v45h36.148438c14.023437 0 27.207031-5.460937 37.121093-15.375l27.425781-27.425781c2.929688-2.929687 7.679688-2.929687 10.609376 0zm154.695312 25.300781v-44.980468l17.804688-17.804688c2.925781-2.929688 2.925781-7.675781 0-10.605469-2.933594-2.929687-7.679688-2.929687-10.609376 0l-9.222656 9.222657c-2.933594-11.710938-8.984375-22.449219-17.742187-31.207032l-9.917969-9.917968 17.492188-17.492188c2.929687-2.929688 2.929687-7.675781 0-10.605469-2.929688-2.929687-7.679688-2.929687-10.609376 0l-17.195312 17.195313v.589844l-7.195312-7.195313c-2.929688-2.929687-7.679688-2.929687-10.609376 0-2.925781 2.929687-2.925781 7.675781 0 10.605469l27.429688 27.425781c9.914062 9.917969 15.375 23.101563 15.375 37.125v47.644531h-21.289062c-14.023438 0-27.203126-5.460937-37.121094-15.375l-14.621094-14.621094h20.53125c4.140625 0 7.5-3.359374 7.5-7.5 0-4.144531-3.359375-7.5-7.5-7.5h-35.53125l-5.835938-5.839843c-2.929687-2.925781-7.679687-2.925781-10.609374 0-2.929688 2.929687-2.929688 7.679687 0 10.609375l35.460937 35.457031c12.75 12.75 29.699219 19.769531 47.730469 19.773437h59.90625c4.75-4.488281 8.980468-9.519531 12.585937-15.003906zm-237.804688 49.164063c-2.925781 2.929687-2.925781 7.675781 0 10.605469l18.207032 18.207031h21.210937l-28.808593-28.8125c-2.929688-2.929688-7.679688-2.929688-10.609376 0zm90-36.964844c-2.925781 2.929687-2.925781 7.675781 0 10.605469l27.425782 27.425781c.035156.035156.066406.070313.101562.105469 2.914063-3.832032 5.445313-7.96875 7.53125-12.363282h1.328125l-25.777343-25.777343c-2.929688-2.925781-7.679688-2.925781-10.609376.003906zm-14.695312-167.199219c4.144531 0 7.5-3.355468 7.5-7.5v-31.582031l-15-.882813v32.464844c0 4.144532 3.355469 7.5 7.5 7.5zm0 0" fill="#fc5426"/><path d="m277.5 76.289062c0 4.140626-3.359375 7.5-7.5 7.5s-7.5-3.359374-7.5-7.5c0-4.144531 3.359375-7.5 7.5-7.5s7.5 3.355469 7.5 7.5zm-32.5-7.5c-4.140625 0-7.5 3.355469-7.5 7.5 0 4.140626 3.359375 7.5 7.5 7.5s7.5-3.359374 7.5-7.5c0-4.144531-3.359375-7.5-7.5-7.5zm102.804688 97.195313c-1.464844-1.464844-3.386719-2.195313-5.304688-2.195313s-3.839844.730469-5.304688 2.195313l-8.410156 8.410156v-78.105469c0-15.164062-12.335937-27.5-27.5-27.5h-10c-4.140625 0-7.5 3.355469-7.5 7.5 0 4.140626 3.359375 7.5 7.5 7.5h10c6.894532 0 12.5 5.605469 12.5 12.5v78.105469l-8.40625-8.410156c-2.929687-2.929687-7.679687-2.929687-10.609375 0-2.925781 2.929687-2.925781 7.675781 0 10.605469l21.214844 21.214844c2.925781 2.925781 7.675781 2.925781 10.605469 0l21.214844-21.214844c2.925781-2.929688 2.925781-7.675782 0-10.605469zm-208.78125-135.984375c-49.082032 0-88.824219 39.570312-89.023438 88.65625-.105469 26.359375 11.242188 50.066406 29.355469 66.433594 16.066406 14.515625 25.523437 34.945312 25.523437 56.597656v1.726562h68.292969v-1.460937c0-21.472656 8.921875-42.109375 24.96875-56.371094 18.347656-16.304687 29.910156-40.082031 29.910156-66.558593 0-49.164063-39.859375-89.023438-89.027343-89.023438zm0 0" fill="#fded32"/><path d="m173.171875 241.953125v1.460937h-45.121094v-1.722656c0-21.65625-9.457031-42.085937-25.523437-56.601562-18.113282-16.367188-29.460938-40.074219-29.355469-66.433594.183594-45.15625 33.828125-82.253906 77.429687-87.90625 43.699219 5.675781 77.449219 43.03125 77.449219 88.273438 0 26.480468-11.5625 50.253906-29.910156 66.5625-16.046875 14.261718-24.96875 34.894531-24.96875 56.367187zm0 0" fill="#fdf385"/><path d="m159.554688 51.339844c3.304687-4.34375 24.367187 2.433594 37.394531 17.074218 11.167969 12.542969 16.363281 30.773438 12.195312 33.738282-5.125 3.652344-24.421875-15.84375-28.453125-19.917969-2.429687-2.453125-25.242187-25.503906-21.136718-30.894531zm0 0" fill="#fdf7bd"/><path d="m161.523438 111.5h-45c-13.785157 0-25 11.214844-25 25 0 11.027344 8.972656 20 20 20 2.757812 0 5 2.242188 5 5v65c0 11.027344 8.972656 20 20 20h5c11.027343 0 20-8.972656 20-20v-65c0-2.757812 2.242187-5 5-5 11.027343 0 20-8.972656 20-20 0-13.785156-11.214844-25-25-25zm5 30c-11.027344 0-20 8.972656-20 20v65c0 2.757812-2.242188 5-5 5h-5c-2.757813 0-5-2.242188-5-5v-65c0-11.027344-8.972657-20-20-20-2.757813 0-5-2.242188-5-5 0-5.515625 4.488281-10 10-10h45c5.515624 0 10 4.484375 10 10 0 2.757812-2.242188 5-5 5zm0 0" fill="#e8ce00"/><path d="m184.757812 237.316406c0 5.460938-3.589843 10.082032-8.539062 11.636719v.558594c0 16.839843-13.648438 30.488281-30.488281 30.488281h-13.414063c-16.839844 0-30.488281-13.648438-30.488281-30.488281v-.558594c-4.945313-1.554687-8.539063-6.175781-8.539063-11.636719 0-6.734375 5.460938-12.195312 12.195313-12.195312h67.074219c6.738281 0 12.199218 5.460937 12.199218 12.195312zm0 0" fill="#88b9d3"/><path d="m184.757812 237.316406c0 5.460938-3.589843 10.082032-8.539062 11.636719v.558594c0 14.640625-10.320312 26.867187-24.085938 29.808593-9.167968-1.960937-16.8125-8.042968-20.890624-16.214843-1.019532-2.042969.429687-4.449219 2.710937-4.449219h27.328125c2.570312 0 4.648438-2.121094 4.570312-4.710938-.074218-2.503906-2.257812-4.433593-4.761718-4.433593h-37.917969c-6.734375 0-12.195313-5.460938-12.195313-12.195313s5.460938-12.195312 12.195313-12.195312h49.390625c6.734375 0 12.195312 5.460937 12.195312 12.195312zm0 0" fill="#b3d1e1"/></svg>