<svg height="512pt" viewBox="0 0 512 512" width="512pt" xmlns="http://www.w3.org/2000/svg"><path d="m0 256c0-141.382812 114.613281-256 256-256 141 0 257.011719 116.890625 255.992188 257.890625-.828126 114.691406-77.085938 211.441406-181.625 243.128906-2.253907.683594-4.652344.667969-6.921876.050781-21.488281-5.855468-44.101562-8.988281-67.445312-8.988281-23.046875 0-45.378906 3.054688-66.625 8.765625-2.949219.792969-6.0625.695313-8.980469-.207031-104.476562-32.25-180.394531-129.574219-180.394531-244.640625zm0 0" fill="#ec74b6"/><path d="m309.234375 59.578125c30.570313-2.804687 60.238281-8.046875 88.664063-15.695313 2.667968-.71875 4.246093-3.460937 3.527343-6.128906-.714843-2.664062-3.457031-4.246094-6.125-3.527344-43.824219 11.792969-90.691406 17.773438-139.300781 17.773438s-95.476562-5.980469-139.300781-17.773438c-2.664063-.71875-5.410157.859376-6.125 3.527344-.71875 2.667969.863281 5.410156 3.527343 6.128906 28.425782 7.648438 58.09375 12.890626 88.664063 15.695313-86.472656 23.460937-150.265625 102.625-150.265625 196.421875 0 112.210938 91.289062 203.5 203.5 203.5s203.5-91.289062 203.5-203.5c0-93.796875-63.792969-172.960938-150.265625-196.421875zm-53.234375 384.921875c-103.9375 0-188.5-84.5625-188.5-188.5s84.5625-188.5 188.5-188.5 188.5 84.5625 188.5 188.5-84.558594 188.5-188.5 188.5zm0 0" fill="#a72975"/><path d="m276 41v30c0 2.761719-2.238281 5-5 5h-30c-2.761719 0-5-2.238281-5-5v-30c0-2.761719 2.238281-5 5-5h30c2.761719 0 5 2.238281 5 5zm-205 195h-30c-2.761719 0-5 2.238281-5 5v30c0 2.761719 2.238281 5 5 5h30c2.761719 0 5-2.238281 5-5v-30c0-2.761719-2.238281-5-5-5zm400 0h-30c-2.761719 0-5 2.238281-5 5v30c0 2.761719 2.238281 5 5 5h30c2.761719 0 5-2.238281 5-5v-30c0-2.761719-2.238281-5-5-5zm-355.800781-212c-8.285157 0-15 6.714844-15 15s6.714843 15 15 15c8.285156 0 15-6.714844 15-15s-6.714844-15-15-15zm281.601562 0c-8.285156 0-15 6.714844-15 15s6.714844 15 15 15c8.285157 0 15-6.714844 15-15s-6.714843-15-15-15zm0 0" fill="#f5a6d1"/><path d="m360.828125 316.898438c-34.054687 34.054687-53.1875 80.246093-53.1875 128.40625h-103.28125c0-48.160157-19.132813-94.351563-53.1875-128.40625-8.058594-8.054688-9.738281-20.503907-4.105469-30.410157l104.585938-183.960937c1.917968-3.371094 6.777344-3.371094 8.695312 0l104.585938 183.960937c5.632812 9.90625 3.953125 22.355469-4.105469 30.410157zm0 0" fill="#ade8f0"/><path d="m230 380h89.789062c-2.515624 6.527344-4.644531 13.207031-6.394531 20h-83.394531c-5.523438 0-10-4.476562-10-10s4.476562-10 10-10zm134.933594-93.511719-104.585938-183.960937c-1.917968-3.371094-6.777344-3.371094-8.695312 0l-40.597656 71.414062c-.691407 6.875-1.054688 13.90625-1.054688 21.058594 0 80.082031 44.769531 145 100 145 14.8125 0 28.867188-4.675781 41.515625-13.054688 2.96875-3.453124 6.070313-6.804687 9.3125-10.046874 8.058594-8.054688 9.738281-20.503907 4.105469-30.410157zm0 0" fill="#d3f1f5"/><path d="m281 305c0 13.808594-11.191406 25-25 25s-25-11.191406-25-25c0-10.25 6.171875-19.054688 15-22.914062v-169.613282l5.652344-9.945312c1.917968-3.371094 6.777344-3.371094 8.695312 0l5.652344 9.945312v169.613282c8.828125 3.859374 15 12.664062 15 22.914062zm0 0" fill="#88b9d3"/><path d="m332 440v60.527344c-24.011719 7.457031-49.535156 11.472656-76 11.472656s-51.988281-4.015625-76-11.472656v-60.527344c0-11.046875 8.953125-20 20-20h112c11.046875 0 20 8.953125 20 20zm0 0" fill="#025f80"/><path d="m332 440v60.527344c-24.011719 7.457031-49.535156 11.472656-76 11.472656-15.703125 0-31.074219-1.421875-46-4.128906v-67.871094c0-11.046875 8.953125-20 20-20h82c11.046875 0 20 8.953125 20 20zm0 0" fill="#0680ae"/></svg>