<svg height="512pt" viewBox="0 0 512.0004 512" width="512pt" xmlns="http://www.w3.org/2000/svg"><path d="m392.5 469.253906c0 2.078125-1.066406 4.019532-2.835938 5.105469-39.445312 24.199219-85.945312 38.019531-135.703124 37.632813-141.011719-1.101563-253.960938-114.976563-253.960938-255.992188 0-141.386719 114.613281-256 256-256 140.355469 0 253.980469 111.941406 255.972656 252.28125.707032 49.722656-12.777344 96.242188-36.644531 135.792969-.722656 1.199219-2.027344 1.925781-3.429687 1.925781h-.144532c-43.769531 0-79.253906 35.484375-79.253906 79.253906zm0 0" fill="#7ecd00"/><path d="m396 154v236c0 5.523438-4.476562 10-10 10s-10-4.476562-10-10v-236c0-29.773438-24.226562-54-54-54s-54 24.226562-54 54v212c0 40.804688-33.195312 74-74 74s-74-33.195312-74-74v-186c0-5.523438 4.476562-10 10-10s10 4.476562 10 10v186c0 29.773438 24.222656 54 54 54s54-24.226562 54-54v-212c0-40.804688 33.195312-74 74-74s74 33.195312 74 74zm0 0" fill="#5a9001"/><path d="m196.210938 204.546875c-17.976563 15.972656-27.96875 39.085937-27.96875 63.132813v1.636718h-76.484376v-1.929687c0-24.253907-10.59375-47.132813-28.585937-63.394531-20.285156-18.328126-33-44.882813-32.878906-74.40625.222656-54.972657 44.730469-99.292969 99.707031-99.292969 55.066406 0 99.707031 44.640625 99.707031 99.707031 0 29.65625-12.945312 56.28125-33.496093 74.546875zm0 0" fill="#fded32"/><path d="m168.242188 267.679688v1.636718h-50.535157v-1.929687c0-24.253907-10.589843-47.132813-28.585937-63.394531-20.285156-18.328126-32.996094-44.882813-32.878906-74.40625.207031-50.570313 37.890624-92.125 86.722656-98.453126 48.941406 6.355469 86.742187 48.195313 86.742187 98.867188 0 29.65625-12.945312 56.28125-33.496093 74.546875-17.976563 15.972656-27.96875 39.085937-27.96875 63.132813zm0 0" fill="#fdf385"/><path d="m152.992188 54.195312c3.703124-4.863281 27.289062 2.722657 41.886718 19.121094 12.503906 14.050782 18.320313 34.46875 13.65625 37.789063-5.742187 4.089843-27.351562-17.746094-31.867187-22.308594-2.722657-2.746094-28.273438-28.566406-23.675781-34.601563zm0 0" fill="#fdf7bd"/><path d="m155.199219 121.574219h-50.398438c-15.441406 0-28 12.558593-28 28 0 12.351562 10.046875 22.398437 22.398438 22.398437 3.089843 0 5.601562 2.511719 5.601562 5.601563v72.800781c0 12.347656 10.046875 22.398438 22.398438 22.398438h5.601562c12.351563 0 22.398438-10.050782 22.398438-22.398438v-72.800781c0-3.089844 2.511719-5.601563 5.601562-5.601563 12.351563 0 22.398438-10.046875 22.398438-22.398437 0-15.441407-12.558594-28-28-28zm5.601562 33.597656c-12.351562 0-22.402343 10.050781-22.402343 22.402344v72.800781c0 3.085938-2.511719 5.597656-5.597657 5.597656h-5.601562c-3.085938 0-5.597657-2.511718-5.597657-5.597656v-72.800781c0-12.351563-10.050781-22.402344-22.402343-22.402344-3.085938 0-5.597657-2.511719-5.597657-5.597656 0-6.175781 5.023438-11.199219 11.199219-11.199219h50.398438c6.175781 0 11.199219 5.023438 11.199219 11.199219 0 3.085937-2.511719 5.597656-5.597657 5.597656zm0 0" fill="#e8ce00"/><path d="m181.21875 262.488281c0 6.117188-4.019531 11.289063-9.558594 13.03125v.625c0 18.859375-15.289062 34.148438-34.148437 34.148438h-15.023438c-18.855469 0-34.144531-15.289063-34.144531-34.148438v-.625c-5.542969-1.742187-9.5625-6.917969-9.5625-13.03125 0-7.542969 6.117188-13.65625 13.660156-13.65625h75.121094c7.542969-.003906 13.65625 6.113281 13.65625 13.65625zm0 0" fill="#88b9d3"/><path d="m181.21875 262.488281c0 6.117188-4.019531 11.289063-9.558594 13.03125v.625c0 16.398438-11.5625 30.09375-26.976562 33.386719-10.273438-2.195312-18.832032-9.007812-23.398438-18.160156-1.144531-2.289063.480469-4.980469 3.035156-4.980469h30.609376c2.878906 0 5.207031-2.378906 5.117187-5.28125-.082031-2.800781-2.527344-4.960937-5.332031-4.960937h-42.46875c-7.542969 0-13.660156-6.117188-13.660156-13.660157s6.117187-13.65625 13.660156-13.65625h55.316406c7.542969-.003906 13.65625 6.113281 13.65625 13.65625zm0 0" fill="#b3d1e1"/><path d="m388.640625 475h-33.640625c-33.136719 0-60-26.863281-60-60v-150c0-33.136719 26.863281-60 60-60h60c33.136719 0 60 26.863281 60 60v123.640625c-21.40625 35.265625-51.09375 64.953125-86.359375 86.359375zm0 0" fill="#ade8f0"/><path d="m475 265v123.640625c-21.40625 35.265625-51.09375 64.953125-86.359375 86.359375h-9.640625c-33.136719 0-60-26.863281-60-60v-150c0-30.078125 22.132812-54.984375 51-59.324219v79.324219h30v-80h15c33.136719 0 60 26.863281 60 60zm0 0" fill="#d3f1f5"/><path d="m385 305c-8.285156 0-15-6.714844-15-15v-50c0-2.761719 2.238281-5 5-5h20c2.761719 0 5 2.238281 5 5v50c0 8.285156-6.714844 15-15 15zm0 0" fill="#3691bb"/><path d="m385 285c-8.285156 0-15-6.714844-15-15v-30c0-2.761719 2.238281-5 5-5h20c2.761719 0 5 2.238281 5 5v30c0 8.285156-6.714844 15-15 15zm0 0" fill="#6caac9"/></svg>