<svg height="512pt" viewBox="0 0 512 512.00003" width="512pt" xmlns="http://www.w3.org/2000/svg"><path d="m440 424.609375c0 6.15625-2.527344 12.035156-6.972656 16.292969-45.976563 44.035156-108.335938 71.097656-177.027344 71.097656-68.175781 0-130.121094-26.65625-176-70.109375v-341.890625h-26.972656c46.828125-60.835938 120.382812-100.0390625 203.101562-100 141.707032.0703125 255.871094 114.289062 255.871094 256 0 60.308594-20.863281 115.734375-55.753906 159.484375-2.273438 2.851563-5.71875 4.515625-9.367188 4.515625h-2.269531c-2.546875 0-4.609375 2.0625-4.609375 4.609375zm0 0" fill="#c43286"/><path d="m512 256c0 1.335938-.03125 2.667969-.050781 4h-461.949219v-141.65625c0-9.679688 3.359375-19.078125 9.570312-26.503906 46.960938-56.128906 117.519532-91.839844 196.429688-91.839844 141.386719 0 256 114.613281 256 256zm0 0" fill="#e659a9"/><path d="m460 74.5v215.5h-85c-2.761719 0-5-2.238281-5-5v-250c0-2.761719 2.238281-5 5-5h40.5c24.578125 0 44.5 19.921875 44.5 44.5zm0 0" fill="#fbc56d"/><path d="m39.09375 120h376.40625c24.578125 0 44.5-19.921875 44.5-44.5v324.5c0 4.632812-.710938 9.097656-2.023438 13.296875-7.640624 9.796875-15.972656 19.023437-24.9375 27.605469-5.382812 2.3125-11.308593 3.597656-17.539062 3.597656h-332.699219c-50.894531-46.789062-82.800781-113.914062-82.800781-188.5 0-49.972656 14.335938-96.59375 39.09375-136zm0 0" fill="#ffdf8e"/><path d="m425 350h-120c-2.761719 0-5-2.238281-5-5v-110c0-2.761719 2.238281-5 5-5h120c2.761719 0 5 2.238281 5 5v110c0 2.761719-2.238281 5-5 5zm0 0" fill="#fc6930"/><path d="m414 317v11c0 1.105469-.894531 2-2 2h-60c-1.105469 0-2-.894531-2-2v-11c0-1.105469.894531-2 2-2h60c1.105469 0 2 .894531 2 2zm-2-32h-80c-1.105469 0-2 .894531-2 2v11c0 1.105469.894531 2 2 2h80c1.105469 0 2-.894531 2-2v-11c0-1.105469-.894531-2-2-2zm0 0" fill="#ee4424"/><path d="m335 290h-120c-2.761719 0-5-2.238281-5-5v-110c0-2.761719 2.238281-5 5-5h120c2.761719 0 5 2.238281 5 5v110c0 2.761719-2.238281 5-5 5zm0 0" fill="#fcb30b"/><path d="m324 187v11c0 1.105469-.894531 2-2 2h-70c-1.105469 0-2-.894531-2-2v-11c0-1.105469.894531-2 2-2h70c1.105469 0 2 .894531 2 2zm-2 28h-70c-1.105469 0-2 .894531-2 2v11c0 1.105469.894531 2 2 2h70c1.105469 0 2-.894531 2-2v-11c0-1.105469-.894531-2-2-2zm0 30h-46c-1.105469 0-2 .894531-2 2v11c0 1.105469.894531 2 2 2h46c1.105469 0 2-.894531 2-2v-11c0-1.105469-.894531-2-2-2zm0 0" fill="#fc9302"/><path d="m232.5 126-20.328125 271.023438c-.378906 5.0625-4.597656 8.976562-9.671875 8.976562h-141c-5.074219 0-9.292969-3.914062-9.671875-8.976562l-20.328125-271.023438zm0 0" fill="#ddf4ba"/><path d="m202.5 406h-51.273438c-41.863281 0-76.648437-32.273438-79.777343-74.015625l-15.449219-205.984375h176.5l-20.328125 271.023438c-.378906 5.0625-4.597656 8.976562-9.671875 8.976562zm0 0" fill="#ecf8d9"/><path d="m37.9375 311.773438-8.457031-112.800782c-.21875-2.902344 2.074219-5.375 4.984375-5.375h195.070312c2.910156 0 5.203125 2.472656 4.988282 5.375l-8.460938 112.800782c-.195312 2.609374-2.371094 4.628906-4.988281 4.628906h-178.148438c-2.617187 0-4.792969-2.019532-4.988281-4.628906zm0 0" fill="#6bae01"/><path d="m229.535156 193.597656h-163.605468c-2.910157 0-5.203126 2.476563-4.988282 5.375l1.105469 14.71875c1.304687-2.207031 3.703125-3.691406 6.453125-3.691406 4.140625 0 7.5 3.359375 7.5 7.5v75c0 4.136719-3.347656 7.488281-7.480469 7.5l.882813 11.773438c.195312 2.609374 2.371094 4.628906 4.988281 4.628906h146.683594c2.617187 0 4.792969-2.019532 4.988281-4.628906l8.460938-112.800782c.214843-2.898437-2.078126-5.375-4.988282-5.375zm-119.785156 98.902344c0 4.140625-3.359375 7.5-7.5 7.5s-7.5-3.359375-7.5-7.5v-75c0-4.140625 3.359375-7.5 7.5-7.5s7.5 3.359375 7.5 7.5zm33.75 0c0 4.140625-3.359375 7.5-7.5 7.5s-7.5-3.359375-7.5-7.5v-75c0-4.140625 3.359375-7.5 7.5-7.5s7.5 3.359375 7.5 7.5zm33.75 0c0 4.140625-3.359375 7.5-7.5 7.5s-7.5-3.359375-7.5-7.5v-75c0-4.140625 3.359375-7.5 7.5-7.5s7.5 3.359375 7.5 7.5zm33.75 0c0 4.140625-3.359375 7.5-7.5 7.5s-7.5-3.359375-7.5-7.5v-75c0-4.140625 3.359375-7.5 7.5-7.5s7.5 3.359375 7.5 7.5zm0 0" fill="#7ecd00"/><path d="m242 120v10c0 5.523438-4.476562 10-10 10h-200c-5.523438 0-10-4.476562-10-10v-10c0-5.523438 4.476562-10 10-10h14v-10c0-5.523438 4.476562-10 10-10h152c5.523438 0 10 4.476562 10 10v10h14c5.523438 0 10 4.476562 10 10zm0 0" fill="#a1e52e"/><path d="m242 120v10c0 5.523438-4.476562 10-10 10h-186c-5.523438 0-10-4.476562-10-10s4.476562-10 10-10h145c2.925781 0 5.261719-2.507812 4.976562-5.492188-.25-2.597656-2.582031-4.507812-5.191406-4.507812h-120.785156c-5.523438 0-10-4.476562-10-10s4.476562-10 10-10h138c5.523438 0 10 4.476562 10 10v10h14c5.523438 0 10 4.476562 10 10zm0 0" fill="#b8eb6a"/><path d="m323.847656 380c11.84375 0 23.425782 3.507812 33.28125 10.078125l38.644532 25.761719c2.96875 1.980468 2.96875 6.339844 0 8.320312l-38.644532 25.761719c-9.855468 6.570313-21.4375 10.078125-33.28125 10.078125h-23.847656v-80zm0 0" fill="#ebae56"/><path d="m70 380c16.570312 0 30 13.429688 30 30v20c0 16.570312-13.429688 30-30 30s-30-13.429688-30-30v-20c0-16.570312 13.429688-30 30-30zm0 0" fill="#e659a9"/><path d="m70 420c-13.066406 0-24.167969-8.355469-28.28125-20.011719 4.121094-11.644531 15.222656-19.988281 28.28125-19.988281s24.160156 8.34375 28.28125 19.988281c-4.113281 11.65625-15.214844 20.011719-28.28125 20.011719zm0 0" fill="#f18bc3"/><path d="m342.015625 400c0 11.046875-8.957031 20-20 20 11.042969 0 20 8.953125 20 20s-8.957031 20-20 20h-252.015625v-80h252.015625c11.042969 0 20 8.953125 20 20zm0 0" fill="#017296"/><path d="m322.015625 420c11.042969 0 20 8.953125 20 20s-8.957031 20-20 20h-252.015625v-40zm0 0" fill="#025f80"/><path d="m382.015625 406.667969 13.757813 9.171875c2.96875 1.980468 2.96875 6.339844 0 8.320312l-13.757813 9.175782zm0 0" fill="#024c67"/></svg>