<svg height="512pt" viewBox="0 0 512 512.00087" width="512pt" xmlns="http://www.w3.org/2000/svg"><path d="m368.820312 26.140625c84.4375 41.519531 142.667969 128.199219 143.175782 228.53125.707031 138.921875-114.109375 255.734375-253.023438 257.3125-78.246094.886719-148.515625-33.335937-196.046875-87.890625-4.792969-5.503906-.902343-14.09375 6.394531-14.09375 155.015626 0 280.679688-125.664062 280.679688-280.679688v-91.382812c0-9.671875 10.140625-16.066406 18.820312-11.796875zm0 0" fill="#7ecd00"/><path d="m69.320312 410h300.679688v40h-280.992188c-9.292968-8.007812-18.023437-16.660156-26.082031-25.910156-4.792969-5.5-.902343-14.089844 6.394531-14.089844zm0 0" fill="#6bae01"/><path d="m371.101562 425h-307.375c-39.660156-45.089844-63.726562-104.230469-63.726562-169 0-141.386719 114.617188-256 256-256 41.402344 0 80.5 9.839844 115.101562 27.289062zm0 0" fill="#fff2b4"/><path d="m62.5 97.5h-6.523438c-.324218 0-.644531-.027344-.957031-.066406 4.0625-5.144532 8.324219-10.121094 12.761719-14.933594h18.195312c4.140626 0 7.5 3.355469 7.5 7.5s-3.359374 7.5-7.5 7.5h-8.476562v235h206.953125v-2.5c0-4.144531 3.355469-7.5 7.5-7.5 4.140625 0 7.5 3.355469 7.5 7.5v30c0 4.144531-3.359375 7.5-7.5 7.5-4.144531 0-7.5-3.355469-7.5-7.5v-12.5h-206.953125v12.5c0 4.144531-3.359375 7.5-7.5 7.5s-7.5-3.355469-7.5-7.5zm30 81.035156c0-53.003906 43.371094-96.035156 96.375-96.035156s96.675781 43.03125 96.675781 96.035156-43.671875 97.125-96.675781 97.125-96.375-44.121094-96.375-97.125zm15 0c0 46.964844 36.640625 82.125 81.375 82.125 45.75 0 82.125-37.394531 82.125-82.125 0-44.730468-37.390625-81.035156-82.125-81.035156-44.730469 0-81.375 36.300781-81.375 81.035156zm39 .339844c0-23.363281 19.007812-42.375 42.375-42.375s42.375 19.011719 42.375 42.375-19.007812 42.375-42.375 42.375-42.375-19.011719-42.375-42.375zm15 0c0 15.09375 12.28125 27.375 27.375 27.375s27.375-12.28125 27.375-27.375-12.28125-27.375-27.375-27.375-27.375 12.28125-27.375 27.375zm176.5-148.875h-70.167969c-1.105469 0-2 .894531-2 2v11c0 1.105469.894531 2 2 2h70.167969c1.105469 0 2-.894531 2-2v-11c0-1.105469-.894531-2-2-2zm-34.167969 25h-36c-1.105469 0-2 .894531-2 2v11c0 1.105469.894531 2 2 2h36c1.105469 0 2-.894531 2-2v-11c0-1.105469-.894531-2-2-2zm0 330h-36c-1.105469 0-2 .894531-2 2v11c0 1.105469.894531 2 2 2h36c1.105469 0 2-.894531 2-2v-11c0-1.105469-.894531-2-2-2zm-205.832031 0h-36c-1.105469 0-2 .894531-2 2v11c0 1.105469.894531 2 2 2h36c1.105469 0 2-.894531 2-2v-11c0-1.105469-.894531-2-2-2zm0 0" fill="#fbc56d"/><path d="m189.027344 82.5c-.003906 0 0 0-.003906 0-25.734376 0-49.933594 9.980469-68.136719 28.105469-18.199219 18.125-28.28125 42.28125-28.386719 68.019531-.109375 27.394531 11.488281 53.648438 31.828125 72.027344 9.324219 8.425781 16.117187 18.925781 19.835937 30.574218-5.054687 3.570313-8.371093 9.445313-8.371093 16.089844 0 6.746094 3.371093 12.824219 8.765625 16.402344 2.101562 18.972656 18.234375 33.78125 37.757812 33.78125h13.414063c19.527343 0 35.65625-14.808594 37.757812-33.78125 5.394531-3.578125 8.765625-9.65625 8.765625-16.402344 0-6.664062-3.335937-12.558594-8.417968-16.121094 3.640624-11.667968 10.230468-21.957031 19.285156-30.007812 20.609375-18.3125 32.425781-44.613281 32.425781-72.164062.003906-53.222657-43.296875-96.523438-96.519531-96.523438zm34.945312 219.296875c-3.125.980469-5.253906 3.878906-5.253906 7.15625v.558594c0 12.675781-10.3125 22.988281-22.984375 22.988281h-13.417969c-10.257812 0-18.964844-6.753906-21.914062-16.046875h40.265625c4.140625 0 7.5-3.359375 7.5-7.5 0-4.144531-3.359375-7.5-7.5-7.5h-47.394531c-1.511719-.804687-2.480469-2.371094-2.480469-4.136719 0-2.589844 2.105469-4.695312 4.695312-4.695312h67.070313c2.589844 0 4.695312 2.105468 4.695312 4.695312.003906 2.0625-1.316406 3.863282-3.28125 4.480469zm19.1875-61.820313c-11.347656 10.082032-19.53125 23.007813-23.914062 37.644532h-22.722656v-90.621094h23.25c4.144531 0 7.5-3.355469 7.5-7.5s-3.355469-7.5-7.5-7.5h-61.5c-4.140626 0-7.5 3.355469-7.5 7.5s3.359374 7.5 7.5 7.5h23.25v90.621094h-22.773438c-4.457031-14.554688-12.8125-27.65625-24.367188-38.097656-17.175781-15.523438-26.976562-37.699219-26.882812-60.839844.183594-44.765625 36.753906-81.1875 81.527344-81.183594 44.949218 0 81.519531 36.570312 81.519531 81.523438.003906 23.265624-9.980469 45.484374-27.386719 60.953124zm0 0" fill="#025f80"/><path d="m420 180h-80v-25.847656c0-11.84375 3.507812-23.425782 10.078125-33.28125l25.761719-38.644532c1.980468-2.96875 6.339844-2.96875 8.320312 0l25.761719 38.644532c6.574219 9.855468 10.078125 21.4375 10.078125 33.28125zm0 0" fill="#fbc56d"/><path d="m390 490h-20c-16.570312 0-30-13.429688-30-30s13.429688-30 30-30h20c16.570312 0 30 13.429688 30 30s-13.429688 30-30 30zm0 0" fill="#e659a9"/><path d="m420 460c0 13.058594-8.347656 24.160156-20 28.277344-11.648438-4.117188-20-15.214844-20-28.277344 0-13.058594 8.351562-24.160156 20-28.277344 11.652344 4.117188 20 15.21875 20 28.277344zm0 0" fill="#f18bc3"/><path d="m420 155.984375v304.015625h-80v-304.015625c0-11.042969 8.953125-20 20-20s20 8.957031 20 20c0-11.042969 8.953125-20 20-20s20 8.957031 20 20zm0 0" fill="#017296"/><path d="m380 460h-40v-304.015625c0-11.042969 8.953125-20 20-20s20 8.957031 20 20zm0 0" fill="#025f80"/><path d="m366.667969 95.984375 9.171875-13.757813c1.980468-2.96875 6.339844-2.96875 8.320312 0l9.175782 13.757813zm0 0" fill="#024c67"/></svg>