<svg height="512pt" viewBox="0 0 512 512.00052" width="512pt" xmlns="http://www.w3.org/2000/svg"><path d="m511.972656 252.0625c2.15625 143.164062-112.289062 259.660156-255.46875 259.9375-50.894531.097656-98.332031-14.664062-138.226562-40.179688-.691406-.441406-1.109375-1.210937-1.109375-2.03125 0-20.777343-16.84375-37.621093-37.625-37.621093h-8.234375c-.664063 0-1.304688-.273438-1.761719-.757813-43.019531-45.710937-69.421875-107.234375-69.546875-174.929687-.257812-141.96875 113.894531-256.402344 255.859375-256.480469 140.136719-.0742188 254.007813 112.445312 256.113281 252.0625zm0 0" fill="#c43286"/><path d="m393.5 317c5.523438 0 10 4.476562 10 10v118.5h-15v-108.5c0-2.761719-2.238281-5-5-5h-120v118.5h-15v-118.5h-120c-2.761719 0-5 2.238281-5 5v108.5h-15v-118.5c0-5.523438 4.476562-10 10-10h130v-158.5h15v158.5zm0 0" fill="#97246a"/><path d="m104.558594 219.269531-55.785156-55.785156c-2.160157-2.15625-2.160157-5.660156 0-7.816406l55.785156-55.785157c83.636718-83.640624 219.246094-83.640624 302.886718 0l55.785157 55.785157c2.15625 2.15625 2.15625 5.660156 0 7.816406l-55.785157 55.785156c-71.960937 71.960938-182.390624 82.007813-265.09375 30.144531-13.425781-8.417968-26.117187-18.464843-37.792968-30.144531zm0 0" fill="#fdd78d"/><path d="m277.464844 280.917969c-47.453125-4.75-93.625-25.296875-129.976563-61.648438-32.96875-32.96875-32.96875-86.417969 0-119.386719 36.351563-36.355468 82.523438-56.898437 129.976563-61.648437 47.453125 4.75 93.625 25.292969 129.980468 61.648437l55.785157 55.785157c2.15625 2.15625 2.15625 5.660156 0 7.816406l-55.785157 55.785156c-36.355468 36.351563-82.527343 56.898438-129.980468 61.648438zm0 0" fill="#fde5bd"/><path d="m351.574219 159.574219c0 52.785156-42.789063 95.574219-95.574219 95.574219s-95.574219-42.789063-95.574219-95.574219c0-52.78125 42.792969-95.570313 95.574219-95.570313 52.785156 0 95.574219 42.789063 95.574219 95.570313zm0 0" fill="#025f80"/><path d="m351.574219 159.574219c0 20.289062-6.328125 39.097656-17.109375 54.570312-15.472656 10.785157-34.28125 17.109375-54.570313 17.109375-52.78125 0-95.574219-42.789062-95.574219-95.570312 0-20.289063 6.328126-39.097656 17.109376-54.570313 15.472656-10.785156 34.28125-17.109375 54.570312-17.109375 52.785156 0 95.574219 42.789063 95.574219 95.570313zm0 0" fill="#017296"/><path d="m327.679688 152.40625h-17.207032c-3.21875-24.574219-22.726562-44.085938-47.304687-47.300781v-17.210938c0-3.957031-3.210938-7.167969-7.167969-7.167969-3.960938 0-7.167969 3.210938-7.167969 7.167969v17.210938c-24.578125 3.214843-44.085937 22.722656-47.304687 47.300781h-17.207032c-3.957031 0-7.167968 3.210938-7.167968 7.167969 0 3.960937 3.210937 7.167969 7.167968 7.167969h17.207032c3.21875 24.578124 22.726562 44.085937 47.304687 47.304687v17.210937c0 3.957032 3.210938 7.167969 7.167969 7.167969 3.960938 0 7.167969-3.210937 7.167969-7.167969v-17.210937c24.578125-3.21875 44.085937-22.726563 47.304687-47.304687h17.207032c3.960937 0 7.167968-3.207032 7.167968-7.167969 0-3.957031-3.207031-7.167969-7.167968-7.167969zm-78.847657-32.800781v14.691406c-8.738281 2.480469-15.632812 9.375-18.113281 18.109375h-14.691406c2.980468-16.660156 16.144531-29.820312 32.804687-32.800781zm0 79.941406c-16.660156-2.980469-29.824219-16.144531-32.804687-32.804687h14.691406c2.480469 8.738281 9.375 15.632812 18.113281 18.113281zm7.167969-28.023437c-6.585938 0-11.945312-5.359376-11.945312-11.949219 0-6.585938 5.359374-11.945313 11.945312-11.945313 6.589844 0 11.949219 5.359375 11.949219 11.945313 0 6.589843-5.363281 11.949219-11.949219 11.949219zm7.167969 28.023437v-14.691406c8.738281-2.480469 15.632812-9.375 18.113281-18.113281h14.691406c-2.980468 16.660156-16.144531 29.824218-32.804687 32.804687zm18.113281-47.140625c-2.480469-8.734375-9.375-15.628906-18.113281-18.109375v-14.691406c16.660156 2.980469 29.824219 16.140625 32.804687 32.800781zm0 0" fill="#6caac9"/><path d="m303.785156 126.125c0 7.917969-6.417968 14.335938-14.335937 14.335938s-14.335938-6.417969-14.335938-14.335938 6.417969-14.335938 14.335938-14.335938 14.335937 6.417969 14.335937 14.335938zm0 0" fill="#b3d1e1"/><path d="m57.550781 146.890625 47.007813-47.007813c83.636718-83.640624 219.246094-83.640624 302.886718 0l47.007813 47.007813c-54.625-32.757813-123.542969-52.304687-198.453125-52.304687s-143.824219 19.546874-198.449219 52.304687zm0 0" fill="#fdbf43"/><path d="m279 472h-60c-5.523438 0-10-4.476562-10-10v-90c0-5.523438 4.476562-10 10-10h60c5.523438 0 10 4.476562 10 10v90c0 5.523438-4.476562 10-10 10zm0 0" fill="#fde803"/><path d="m293 472h-60c-5.523438 0-10-4.476562-10-10v-90c0-5.523438 4.476562-10 10-10h60c5.523438 0 10 4.476562 10 10v90c0 5.523438-4.476562 10-10 10zm0 0" fill="#fdf061"/><path d="m220 387c0-5.523438 4.476562-10 10-10s10 4.476562 10 10-4.476562 10-10 10-10-4.476562-10-10zm10 20c-5.523438 0-10 4.476562-10 10s4.476562 10 10 10 10-4.476562 10-10-4.476562-10-10-10zm0 30c-5.523438 0-10 4.476562-10 10s4.476562 10 10 10 10-4.476562 10-10-4.476562-10-10-10zm0 0" fill="#d6bf01"/><path d="m250 387c0-2.761719 2.238281-5 5-5h30c2.761719 0 5 2.238281 5 5s-2.238281 5-5 5h-30c-2.761719 0-5-2.238281-5-5zm35 25h-30c-2.761719 0-5 2.238281-5 5s2.238281 5 5 5h30c2.761719 0 5-2.238281 5-5s-2.238281-5-5-5zm0 30h-30c-2.761719 0-5 2.238281-5 5s2.238281 5 5 5h30c2.761719 0 5-2.238281 5-5s-2.238281-5-5-5zm0 0" fill="#e8ce00"/><path d="m149 372v90c0 5.523438-4.476562 10-10 10h-20.449219c-18.21875-11.617188-34.859375-25.480469-49.550781-41.191406v-58.808594c0-5.523438 4.476562-10 10-10h60c5.523438 0 10 4.476562 10 10zm0 0" fill="#a1e52e"/><path d="m163 372v90c0 5.523438-4.476562 10-10 10h-34.449219c-12.652343-8.066406-24.542969-17.21875-35.550781-27.316406v-72.683594c0-5.523438 4.476562-10 10-10h60c5.523438 0 10 4.476562 10 10zm0 0" fill="#b8eb6a"/><path d="m80 387c0-5.523438 4.476562-10 10-10s10 4.476562 10 10-4.476562 10-10 10-10-4.476562-10-10zm10 20c-5.523438 0-10 4.476562-10 10s4.476562 10 10 10 10-4.476562 10-10-4.476562-10-10-10zm0 30c-4.007812 0-7.457031 2.367188-9.050781 5.773438 4.667969 4.378906 9.507812 8.585937 14.496093 12.609374 2.738282-1.785156 4.554688-4.871093 4.554688-8.382812 0-5.523438-4.476562-10-10-10zm0 0" fill="#6bae01"/><path d="m110 387c0-2.761719 2.238281-5 5-5h30c2.761719 0 5 2.238281 5 5s-2.238281 5-5 5h-30c-2.761719 0-5-2.238281-5-5zm35 25h-30c-2.761719 0-5 2.238281-5 5s2.238281 5 5 5h30c2.761719 0 5-2.238281 5-5s-2.238281-5-5-5zm0 30h-30c-2.761719 0-5 2.238281-5 5s2.238281 5 5 5h30c2.761719 0 5-2.238281 5-5s-2.238281-5-5-5zm0 0" fill="#7ecd00"/><path d="m419 472h-60c-5.523438 0-10-4.476562-10-10v-90c0-5.523438 4.476562-10 10-10h60c5.523438 0 10 4.476562 10 10v90c0 5.523438-4.476562 10-10 10zm0 0" fill="#5de0c3"/><path d="m433 472h-60c-5.523438 0-10-4.476562-10-10v-90c0-5.523438 4.476562-10 10-10h60c5.523438 0 10 4.476562 10 10v90c0 5.523438-4.476562 10-10 10zm0 0" fill="#89e9d9"/><path d="m360 387c0-5.523438 4.476562-10 10-10s10 4.476562 10 10-4.476562 10-10 10-10-4.476562-10-10zm10 20c-5.523438 0-10 4.476562-10 10s4.476562 10 10 10 10-4.476562 10-10-4.476562-10-10-10zm0 30c-5.523438 0-10 4.476562-10 10s4.476562 10 10 10 10-4.476562 10-10-4.476562-10-10-10zm0 0" fill="#01988c"/><path d="m390 387c0-2.761719 2.238281-5 5-5h30c2.761719 0 5 2.238281 5 5s-2.238281 5-5 5h-30c-2.761719 0-5-2.238281-5-5zm35 25h-30c-2.761719 0-5 2.238281-5 5s2.238281 5 5 5h30c2.761719 0 5-2.238281 5-5s-2.238281-5-5-5zm-30 30c-2.761719 0-5 2.238281-5 5s2.238281 5 5 5 5-2.238281 5-5-2.238281-5-5-5zm15 0c-2.761719 0-5 2.238281-5 5s2.238281 5 5 5 5-2.238281 5-5-2.238281-5-5-5zm15 0c-2.761719 0-5 2.238281-5 5s2.238281 5 5 5 5-2.238281 5-5-2.238281-5-5-5zm0 0" fill="#0ed1b2"/></svg>