<svg height="512pt" viewBox="0 0 512 512" width="512pt" xmlns="http://www.w3.org/2000/svg"><path d="m512 256c0 141.386719-114.613281 256-256 256s-256-114.613281-256-256 114.613281-256 256-256 256 114.613281 256 256zm0 0" fill="#fdbf43"/><path d="m76.167969 449.976562-14.144531-14.144531c-11.714844-11.714843-11.714844-30.710937 0-42.425781 11.71875-11.714844 30.710937-11.714844 42.425781 0l14.144531 14.144531c11.714844 11.714844 11.714844 30.710938 0 42.425781-11.714844 11.714844-30.710938 11.714844-42.425781 0zm0 0" fill="#f02399"/><path d="m124.507812 415.960938c5.253907 11.128906 3.285157 24.8125-5.914062 34.011718-9.199219 9.203125-22.882812 11.167969-34.011719 5.917969-5.253906-11.128906-3.285156-24.8125 5.914063-34.011719 9.199218-9.203125 22.886718-11.167968 34.011718-5.917968zm0 0" fill="#fd4fb6"/><path d="m184.285156 384.285156-65.691406 65.6875-28.285156-28.28125-28.285156-28.285156 65.691406-65.691406c7.8125-7.808594 20.476562-7.808594 28.285156 0 7.8125 7.8125 7.8125 20.476562 0 28.285156 7.8125-7.808594 20.472656-7.808594 28.285156 0 7.808594 7.8125 7.808594 20.472656 0 28.285156zm0 0" fill="#017296"/><path d="m90.308594 421.691406-28.285156-28.285156 65.691406-65.691406c7.808594-7.808594 20.472656-7.808594 28.285156 0 7.808594 7.8125 7.808594 20.476562 0 28.285156zm0 0" fill="#025f80"/><path d="m441.652344 228.175781-12.167969-1.914062c-1.777344-10.453125-4.472656-20.597657-8.007813-30.335938l9.226563-7.035156c11.527344-8.789063 14.734375-24.777344 7.484375-37.332031-7.09375-12.289063-22.078125-17.582032-35.320312-12.484375l-11.511719 4.4375c-6.695313-8.046875-14.097657-15.484375-22.109375-22.226563l4.496094-10.753906c5.585937-13.378906.371093-28.824219-12.183594-36.070312-12.289063-7.097657-27.914063-4.191407-36.832032 6.847656l-7.722656 9.558594c-9.722656-3.59375-19.847656-6.351563-30.289062-8.1875l-1.484375-11.53125c-1.847657-14.378907-14.085938-25.148438-28.585938-25.148438-14.191406 0-26.269531 10.328125-28.472656 24.347656l-1.910156 12.167969c-10.453125 1.777344-20.597657 4.472656-30.335938 8.007813l-7.035156-9.226563c-8.792969-11.527344-24.777344-14.734375-37.332031-7.484375-12.289063 7.09375-17.585938 22.078125-12.484375 35.320312l4.4375 11.511719c-8.050781 6.695313-15.484375 14.097657-22.226563 22.109375l-10.757812-4.496094c-13.375-5.585937-28.820313-.371093-36.070313 12.183594-7.09375 12.289063-4.1875 27.914063 6.847657 36.832032l9.558593 7.722656c-3.589843 9.722656-6.351562 19.847656-8.1875 30.289062l-11.53125 1.484375c-14.375 1.847657-25.144531 14.085938-25.144531 28.585938 0 14.1875 10.328125 26.269531 24.347656 28.472656l12.167969 1.910156c1.777344 10.453125 4.472656 20.597657 8.007813 30.335938l-9.226563 7.035156c-11.527344 8.792969-14.734375 24.777344-7.484375 37.332031 7.09375 12.289063 22.078125 17.585938 35.320312 12.484375l11.511719-4.4375c6.695313 8.046875 14.097657 15.484375 22.109375 22.226563l-4.496094 10.757812c-5.585937 13.375-.371093 28.820313 12.183594 36.070313 12.289063 7.09375 27.914063 4.1875 36.832032-6.851563l7.722656-9.558594c9.722656 3.59375 19.847656 6.351563 30.289062 8.191407l1.484375 11.527343c1.847657 14.378907 14.089844 25.148438 28.585938 25.148438 14.191406 0 26.269531-10.328125 28.472656-24.347656l1.910156-12.167969c10.453125-1.78125 20.597657-4.472656 30.335938-8.011719l7.035156 9.230469c8.792969 11.527344 24.777344 14.730469 37.332031 7.484375 12.289063-7.097656 17.585938-22.082031 12.484375-35.324219l-4.4375-11.511719c8.050781-6.695312 15.484375-14.097656 22.226563-22.105468l10.757812 4.492187c13.375 5.589844 28.820313.375 36.070313-12.179687 7.09375-12.289063 4.1875-27.917969-6.847657-36.832032l-9.558593-7.722656c3.589843-9.722656 6.351562-19.847656 8.1875-30.292968l11.53125-1.480469c14.375-1.847657 25.144531-14.085938 25.144531-28.585938 0-14.1875-10.328125-26.265625-24.347656-28.46875zm-185.652344 113.824219c-47.496094 0-86-38.503906-86-86s38.503906-86 86-86 86 38.503906 86 86-38.503906 86-86 86zm0 0" fill="#fc6930"/><path d="m256 140c-64.066406 0-116 51.933594-116 116s51.933594 116 116 116 116-51.933594 116-116-51.933594-116-116-116zm0 202c-47.496094 0-86-38.503906-86-86s38.503906-86 86-86 86 38.503906 86 86-38.503906 86-86 86zm0 0" fill="#ee4424"/><path d="m271 371.035156c-4.910156.636719-9.917969.964844-15 .964844-64.066406 0-116-51.933594-116-116s51.933594-116 116-116c5.082031 0 10.089844.328125 15 .964844-56.980469 7.355468-101 56.054687-101 115.035156s44.019531 107.679688 101 115.035156zm0 0" fill="#d63d24"/><path d="m355.964844 99.464844 16.332031-16.328125c8.375-8.378907 19.042969-14.085938 30.65625-16.410157l45.542969-9.109374c3.5-.699219 6.585937 2.386718 5.886718 5.882812l-9.109374 45.542969c-2.324219 11.617187-8.03125 22.285156-16.410157 30.660156l-16.078125 16.082031zm0 0" fill="#fff2b4"/><path d="m432.28125 60.859375 16.21875-3.242187c3.496094-.699219 6.582031 2.386718 5.882812 5.886718l-3.242187 16.214844zm0 0" fill="#024c67"/><path d="m427.570312 141-197.136718 197.136719c-26.9375-8.375-48.195313-29.636719-56.570313-56.570313l197.136719-197.136718c7.808594-7.808594 20.472656-7.808594 28.285156 0 7.808594 7.8125 7.808594 20.476562 0 28.285156 7.808594-7.8125 20.472656-7.8125 28.28125 0 7.8125 7.8125 7.8125 20.472656.003906 28.285156zm0 0" fill="#017296"/><path d="m173.863281 281.566406 197.136719-197.136718c7.808594-7.808594 20.472656-7.808594 28.285156 0 7.808594 7.8125 7.808594 20.476562 0 28.285156l-204.097656 204.097656c-9.726562-9.730469-17.136719-21.777344-21.324219-35.246094zm0 0" fill="#025f80"/></svg>