<svg height="512pt" viewBox="0 0 512 512" width="512pt" xmlns="http://www.w3.org/2000/svg"><path d="m512 256c0 141.386719-114.613281 256-256 256s-256-114.613281-256-256 114.613281-256 256-256 256 114.613281 256 256zm0 0" fill="#fdbf43"/><path d="m445 212.5v90h-15v-80c0-2.761719-2.238281-5-5-5h-161.5v90h-15v-90h-158.5c-2.761719 0-5 2.238281-5 5v80h-15v-90c0-5.523438 4.476562-10 10-10h168.5v-135h15v135h171.5c5.523438 0 10 4.476562 10 10zm0 0" fill="#fc9302"/><path d="m326.0625 260v192.609375c0 5.523437-4.476562 10-10 10h-120.125c-5.523438 0-10-4.476563-10-10v-192.609375c0-5.523438 4.476562-10 10-10h120.125c5.523438 0 10 4.476562 10 10zm-175.9375-10h-120.125c-5.523438 0-10 4.476562-10 10v95.359375c18.128906 43.007813 47.679688 80.015625 84.84375 107.25h45.28125c5.523438 0 10-4.476563 10-10v-192.609375c0-5.523438-4.476562-10-10-10zm331.875 0h-120.125c-5.523438 0-10 4.476562-10 10v192.609375c0 5.523437 4.476562 10 10 10h120.125c5.523438 0 10-4.476563 10-10v-192.609375c0-5.523438-4.476562-10-10-10zm0 0" fill="#ffe899"/><path d="m190 83.5c0-36.449219 29.550781-66 66-66s66 29.550781 66 66-29.550781 66-66 66-66-29.550781-66-66zm126.0625 166.5h-111.6875v212.609375h111.6875c5.523438 0 10-4.476563 10-10v-192.609375c0-5.523438-4.476562-10-10-10zm-165.9375 0h-111.6875v140.949219c17.363281 27.933593 39.953125 52.273437 66.40625 71.660156h45.28125c5.523438 0 10-4.476563 10-10v-192.609375c0-5.523438-4.476562-10-10-10zm331.875 0h-111.6875v212.609375h111.6875c5.523438 0 10-4.476563 10-10v-192.609375c0-5.523438-4.476562-10-10-10zm0 0" fill="#fff2b4"/><path d="m247.425781 148.925781c-32.398437-4.203125-57.425781-31.882812-57.425781-65.425781s25.027344-61.222656 57.425781-65.425781c-19.40625 13.230469-32.425781 37.574219-32.425781 65.425781s13.019531 52.195312 32.425781 65.425781zm0 0" fill="#ffe899"/><path d="m302 68v11c0 1.105469-.894531 2-2 2h-88c-1.105469 0-2-.894531-2-2v-11c0-1.105469.894531-2 2-2h88c1.105469 0 2 .894531 2 2zm-30.28125 39.5c1.105469 0 2-.894531 2-2v-11c0-1.105469-.894531-2-2-2h-31.4375c-1.101562 0-2 .894531-2 2v11c0 1.105469.898438 2 2 2zm-148.300781 176.859375-7.777344-7.777344c-.78125-.78125-2.046875-.78125-2.828125 0l-25.808594 25.808594-25.808594-25.808594c-.78125-.78125-2.046874-.78125-2.828124 0l-7.777344 7.777344c-.78125.78125-.78125 2.046875 0 2.828125l25.808594 25.808594-25.808594 25.8125c-.78125.78125-.78125 2.046875 0 2.828125l7.777344 7.777343c.78125.78125 2.046874.78125 2.828124 0l25.808594-25.808593 25.808594 25.808593c.78125.78125 2.046875.78125 2.828125 0l7.777344-7.777343c.78125-.78125.78125-2.046875 0-2.828125l-25.808594-25.8125 25.808594-25.808594c.78125-.78125.78125-2.046875 0-2.828125zm168.996093 0-7.777343-7.777344c-.78125-.78125-2.046875-.78125-2.828125 0l-25.808594 25.808594-25.808594-25.808594c-.78125-.78125-2.046875-.78125-2.828125 0l-7.777343 7.777344c-.78125.78125-.78125 2.046875 0 2.828125l25.808593 25.808594-25.808593 25.8125c-.78125.78125-.78125 2.046875 0 2.828125l7.777343 7.777343c.78125.78125 2.046875.78125 2.828125 0l25.808594-25.808593 25.808594 25.808593c.78125.78125 2.046875.78125 2.828125 0l7.777343-7.777343c.78125-.78125.78125-2.046875 0-2.828125l-25.808593-25.8125 25.808593-25.808594c.78125-.78125.78125-2.046875 0-2.828125zm140.128907 28.636719 25.808593-25.808594c.78125-.78125.78125-2.046875 0-2.828125l-7.777343-7.777344c-.78125-.78125-2.046875-.78125-2.828125 0l-25.808594 25.808594-25.808594-25.808594c-.78125-.78125-2.046875-.78125-2.828125 0l-7.777343 7.777344c-.78125.78125-.78125 2.046875 0 2.828125l25.808593 25.808594-25.808593 25.8125c-.78125.78125-.78125 2.046875 0 2.828125l7.777343 7.777343c.78125.78125 2.046875.78125 2.828125 0l25.808594-25.808593 25.808594 25.808593c.78125.78125 2.046875.78125 2.828125 0l7.777343-7.777343c.78125-.78125.78125-2.046875 0-2.828125zm0 0" fill="#fbc56d"/><path d="m492 368.578125v84.03125c0 5.523437-4.476562 10-10 10h-120.125c-5.523438 0-10-4.476563-10-10v-84.03125zm0 0" fill="#fc5426"/><path d="m492 368.578125v84.03125c0 5.523437-4.476562 10-10 10h-111.6875v-94.03125zm0 0" fill="#fc6930"/><path d="m467.9375 392v11c0 1.105469-.894531 2-2 2h-88c-1.105469 0-2-.894531-2-2v-11c0-1.105469.894531-2 2-2h88c1.105469 0 2 .894531 2 2zm-30.28125 24.5h-31.4375c-1.105469 0-2 .894531-2 2v11c0 1.105469.894531 2 2 2h31.4375c1.105469 0 2-.894531 2-2v-11c0-1.105469-.894531-2-2-2zm0 0" fill="#ee4424"/><path d="m185.9375 368.578125h140.125v84.03125c0 5.523437-4.476562 10-10 10h-120.125c-5.523438 0-10-4.476563-10-10zm0 0" fill="#df3d9b"/><path d="m204.375 368.578125h121.6875v84.03125c0 5.523437-4.476562 10-10 10h-111.6875zm0 0" fill="#e659a9"/><path d="m273.71875 418.5v11c0 1.105469-.894531 2-2 2h-31.4375c-1.101562 0-2-.894531-2-2v-11c0-1.105469.898438-2 2-2h31.4375c1.101562 0 2 .894531 2 2zm26.28125-28.5h-88c-1.105469 0-2 .894531-2 2v11c0 1.105469.894531 2 2 2h88c1.105469 0 2-.894531 2-2v-11c0-1.105469-.894531-2-2-2zm0 0" fill="#c43286"/><path d="m26.035156 368.578125h134.089844v84.03125c0 5.523437-4.476562 10-10 10h-45.28125c-33.296875-24.402344-60.472656-56.648437-78.808594-94.03125zm0 0" fill="#0ab59e"/><path d="m38.4375 368.578125h121.6875v84.03125c0 5.523437-4.476562 10-10 10h-45.28125c-26.453125-19.386719-49.042969-43.726563-66.40625-71.660156zm0 0" fill="#0ed1b2"/><path d="m107.78125 418.5v11c0 1.105469-.894531 2-2 2h-31.4375c-1.105469 0-2-.894531-2-2v-11c0-1.105469.894531-2 2-2h31.4375c1.105469 0 2 .894531 2 2zm26.28125-28.5h-88c-1.105469 0-2 .894531-2 2v7.625c1.226562 1.808594 2.484375 3.597656 3.753906 5.375h86.246094c1.105469 0 2-.894531 2-2v-11c0-1.105469-.894531-2-2-2zm0 0" fill="#01988c"/></svg>