<svg height="512pt" viewBox="0 0 512 512" width="512pt" xmlns="http://www.w3.org/2000/svg"><path d="m512 256c0 141.386719-114.613281 256-256 256s-256-114.613281-256-256 114.613281-256 256-256 256 114.613281 256 256zm0 0" fill="#a72975"/><path d="m340 390c0 4.140625-3.359375 7.5-7.5 7.5s-7.5-3.359375-7.5-7.5 3.359375-7.5 7.5-7.5 7.5 3.359375 7.5 7.5zm17.5-7.5c-4.140625 0-7.5 3.359375-7.5 7.5s3.359375 7.5 7.5 7.5 7.5-3.359375 7.5-7.5-3.359375-7.5-7.5-7.5zm25 0c-4.140625 0-7.5 3.359375-7.5 7.5s3.359375 7.5 7.5 7.5 7.5-3.359375 7.5-7.5-3.359375-7.5-7.5-7.5zm0 0" fill="#ec74b6"/><path d="m290 410h-180c-5.523438 0-10-4.476562-10-10v-180c0-5.523438 4.476562-10 10-10h180c5.523438 0 10 4.476562 10 10v180c0 5.523438-4.476562 10-10 10zm0 0" fill="#ee4424"/><path d="m290 410h-160c-5.523438 0-10-4.476562-10-10v-180c0-5.523438 4.476562-10 10-10h160c5.523438 0 10 4.476562 10 10v180c0 5.523438-4.476562 10-10 10zm0 0" fill="#fc5426"/><path d="m480 245c0 63.511719-51.488281 115-115 115s-115-51.488281-115-115 51.488281-115 115-115 115 51.488281 115 115zm0 0" fill="#5de0c3"/><path d="m346.9375 358.582031c-54.929688-8.664062-96.9375-56.214843-96.9375-113.582031s42.007812-104.917969 96.9375-113.585938c-39.507812 19.785157-66.9375 63.203126-66.9375 113.585938s27.429688 93.796875 66.9375 113.582031zm0 0" fill="#0ed1b2"/><path d="m142.925781 220.53125 116.285157-186.757812c3.128906-5.03125 10.449218-5.03125 13.578124 0l116.285157 186.761718c3.316406 5.328125-.515625 12.226563-6.792969 12.226563h-232.5625c-6.28125 0-10.109375-6.898438-6.792969-12.230469zm0 0" fill="#f18bc3"/><path d="m142.925781 220.53125 116.285157-186.761719c3.128906-5.027343 10.449218-5.027343 13.582031 0l5.957031 9.574219-117.9375 189.417969h-11.09375c-6.28125 0-10.113281-6.898438-6.792969-12.230469zm0 0" fill="#ec74b6"/><path d="m234.046875 414.601562v-112.296874c6.234375-2.730469 10.59375-8.945313 10.59375-16.1875 0-9.753907-7.910156-17.664063-17.667969-17.664063-5.96875 0-11.234375 2.96875-14.433594 7.5h-121.984374c-3.199219-4.53125-8.464844-7.5-14.433594-7.5-9.757813 0-17.667969 7.910156-17.667969 17.664063 0 7.242187 4.359375 13.457031 10.59375 16.1875v112.296874c-6.234375 2.726563-10.59375 8.945313-10.59375 16.183594 0 9.757813 7.910156 17.667969 17.667969 17.667969 5.96875 0 11.234375-2.96875 14.433594-7.5h121.988281c3.195312 4.53125 8.464843 7.5 14.433593 7.5 9.753907 0 17.664063-7.910156 17.664063-17.667969 0-7.238281-4.359375-13.457031-10.59375-16.183594zm-150 .414063v-113.125c4.367187-2.199219 7.691406-6.148437 9.054687-10.9375h116.894532c1.359375 4.785156 4.683594 8.738281 9.050781 10.9375v113.125c-4.367187 2.199219-7.691406 6.148437-9.050781 10.9375h-116.894532c-1.363281-4.789063-4.6875-8.738281-9.054687-10.9375zm96.167969-56.5625c0 15.832031-12.835938 28.667969-28.667969 28.667969s-28.667969-12.835938-28.667969-28.667969 12.835938-28.667969 28.667969-28.667969 28.667969 12.835938 28.667969 28.667969zm0 0" fill="#fdbf43"/><path d="m259.015625 146.515625-21.210937 21.214844c-1.464844 1.464843-3.386719 2.195312-5.304688 2.195312s-3.839844-.730469-5.304688-2.195312c-2.929687-2.929688-2.929687-7.679688 0-10.605469l8.410157-8.410156h-98.105469c-6.894531 0-12.5 5.605468-12.5 12.5v20c0 4.140625-3.355469 7.5-7.5 7.5s-7.5-3.359375-7.5-7.5v-20c0-15.164063 12.335938-27.5 27.5-27.5h98.105469l-8.410157-8.410156c-2.929687-2.929688-2.929687-7.679688 0-10.605469 2.929688-2.929688 7.679688-2.929688 10.609376 0l21.210937 21.210937c2.929687 2.929688 2.929687 7.679688 0 10.605469zm0 0" fill="#fff5f5"/></svg>