<svg height="512pt" viewBox="0 0 512 512" width="512pt" xmlns="http://www.w3.org/2000/svg"><path d="m512 256c0 141.386719-114.613281 256-256 256s-256-114.613281-256-256 114.613281-256 256-256 256 114.613281 256 256zm0 0" fill="#7ecd00"/><path d="m100 127.273438v277.453124c0 11.046876-8.953125 20-20 20h-16.515625c-12.925781-14.738281-24.183594-30.96875-33.484375-48.402343v-249.050781c0-10.511719 8.121094-19.117188 18.429688-19.917969.515624-.046875 1.039062-.082031 1.570312-.082031h30c2.070312 0 4.070312.316406 5.945312.902343 1.050782.324219 2.050782.753907 3.019532 1.238281.40625.203126.800781.421876 1.191406.652344 5.882812 3.480469 9.84375 9.875 9.84375 17.207032zm0 0" fill="#025f80"/><path d="m482 127.273438v249.050781c-9.300781 17.433593-20.558594 33.664062-33.484375 48.402343h-378.515625c-2.835938 0-5.527344-.597656-7.96875-1.664062-4.058594-4.707031-7.949219-9.570312-11.664062-14.570312-.234376-1.21875-.367188-2.476563-.367188-3.765626v-277.453124c0-8.972657 5.910156-16.570313 14.054688-19.101563 1.878906-.582031 3.875-.898437 5.945312-.898437h392c.53125 0 1.054688.035156 1.574219.078124 10.308593.804688 18.425781 9.40625 18.425781 19.921876zm0 0" fill="#017296"/><path d="m472.90625 392h-62.90625v-252h72v236.324219c-2.851562 5.339843-5.886719 10.570312-9.09375 15.675781zm0 0" fill="#024c67"/><path d="m415 392h-352c-2.761719 0-5-2.238281-5-5v-242c0-2.761719 2.238281-5 5-5h352c2.761719 0 5 2.238281 5 5v242c0 2.761719-2.238281 5-5 5zm0 0" fill="#e659a9"/><path d="m415 392h-330c-2.761719 0-5-2.238281-5-5v-242c0-2.761719 2.238281-5 5-5h330c2.761719 0 5 2.238281 5 5v242c0 2.761719-2.238281 5-5 5zm0 0" fill="#ec74b6"/><path d="m367.5 310.433594v9.566406c0 4.144531-3.355469 7.5-7.5 7.5s-7.5-3.355469-7.5-7.5v-9.566406c0-6.410156-5.21875-11.628906-11.632812-11.628906h-200.867188c-14.683594 0-26.628906-11.945313-26.628906-26.628907v-9.566406c0-4.144531 3.355468-7.5 7.5-7.5 4.140625 0 7.5 3.355469 7.5 7.5v9.566406c0 6.410157 5.214844 11.628907 11.628906 11.628907h200.867188c14.6875 0 26.632812 11.945312 26.632812 26.628906zm-140-42.933594c4.140625 0 7.5-3.359375 7.5-7.5s-3.359375-7.5-7.5-7.5-7.5 3.359375-7.5 7.5 3.359375 7.5 7.5 7.5zm25 0c4.140625 0 7.5-3.359375 7.5-7.5s-3.359375-7.5-7.5-7.5-7.5 3.359375-7.5 7.5 3.359375 7.5 7.5 7.5zm25 0c4.140625 0 7.5-3.359375 7.5-7.5s-3.359375-7.5-7.5-7.5-7.5 3.359375-7.5 7.5 3.359375 7.5 7.5 7.5zm0 0" fill="#f5a6d1"/><path d="m470 266c0 11.046875-8.953125 20-20 20s-20-8.953125-20-20 8.953125-20 20-20 20 8.953125 20 20zm-10-56h-20c-5.523438 0-10 4.476562-10 10s4.476562 10 10 10h20c5.523438 0 10-4.476562 10-10s-4.476562-10-10-10zm-20-10h20c5.523438 0 10-4.476562 10-10s-4.476562-10-10-10h-20c-5.523438 0-10 4.476562-10 10s4.476562 10 10 10zm20 130h-20c-5.523438 0-10 4.476562-10 10s4.476562 10 10 10h20c5.523438 0 10-4.476562 10-10s-4.476562-10-10-10zm0-30h-20c-5.523438 0-10 4.476562-10 10s4.476562 10 10 10h20c5.523438 0 10-4.476562 10-10s-4.476562-10-10-10zm0 0" fill="#017296"/><path d="m170.363281 156.914062c-14.121093 12.550782-21.972656 30.710938-21.972656 49.605469v1.285157h-60.097656v-1.519532c0-19.054687-8.320313-37.03125-22.457031-49.808594-15.941407-14.402343-25.929688-35.265624-25.835938-58.460937.175781-43.195313 35.148438-78.015625 78.34375-78.015625 43.265625 0 78.339844 35.074219 78.339844 78.339844 0 23.300781-10.171875 44.222656-26.320313 58.574218zm0 0" fill="#fded32"/><path d="m148.390625 206.519531v1.285157h-39.707031v-1.519532c0-19.054687-8.320313-37.03125-22.460938-49.808594-15.9375-14.402343-25.925781-35.261718-25.832031-58.460937.160156-39.734375 29.769531-72.382813 68.136719-77.355469 38.453125 4.992188 68.15625 37.867188 68.15625 77.683594 0 23.296875-10.171875 44.222656-26.320313 58.570312-14.121093 12.550782-21.972656 30.710938-21.972656 49.605469zm0 0" fill="#fdf385"/><path d="m136.40625 38.78125c2.910156-3.824219 21.441406 2.140625 32.910156 15.023438 9.824219 11.039062 14.398438 27.082031 10.734375 29.691406-4.515625 3.210937-21.492187-13.945313-25.042969-17.527344-2.136718-2.160156-22.210937-22.445312-18.601562-27.1875zm0 0" fill="#fdf7bd"/><path d="m138.140625 91.71875h-39.601563c-12.128906 0-22 9.871094-22 22 0 9.707031 7.898438 17.601562 17.601563 17.601562 2.425781 0 4.398437 1.972657 4.398437 4.398438v57.203125c0 9.703125 7.898438 17.597656 17.601563 17.597656h4.398437c9.707032 0 17.601563-7.894531 17.601563-17.597656v-57.203125c0-2.425781 1.972656-4.398438 4.398437-4.398438 9.707032 0 17.601563-7.894531 17.601563-17.601562 0-12.128906-9.867187-22-22-22zm4.398437 26.402344c-9.703124 0-17.597656 7.894531-17.597656 17.597656v57.203125c0 2.425781-1.972656 4.398437-4.402344 4.398437h-4.398437c-2.425781 0-4.398437-1.972656-4.398437-4.398437v-57.203125c0-9.703125-7.898438-17.597656-17.601563-17.597656-2.425781 0-4.398437-1.976563-4.398437-4.402344 0-4.851562 3.945312-8.796875 8.796874-8.796875h39.601563c4.851563 0 8.800781 3.945313 8.800781 8.796875 0 2.425781-1.972656 4.402344-4.402344 4.402344zm0 0" fill="#e8ce00"/><path d="m158.585938 202.4375c0 4.804688-3.160157 8.871094-7.511719 10.242188v.492187c0 14.816406-12.011719 26.828125-26.832031 26.828125h-11.804688c-14.816406 0-26.828125-12.011719-26.828125-26.828125v-.492187c-4.351563-1.371094-7.511719-5.4375-7.511719-10.242188 0-5.925781 4.804688-10.730469 10.730469-10.730469h59.027344c5.925781 0 10.730469 4.804688 10.730469 10.730469zm0 0" fill="#88b9d3"/><path d="m158.585938 202.4375c0 4.804688-3.160157 8.871094-7.511719 10.242188v.492187c0 12.882813-9.085938 23.640625-21.195313 26.230469-8.070312-1.722656-14.796875-7.078125-18.386718-14.269532-.894532-1.796874.378906-3.914062 2.386718-3.914062h24.046875c2.265625 0 4.09375-1.867188 4.023438-4.148438-.066407-2.203124-1.988281-3.898437-4.191407-3.898437h-33.367187c-5.925781 0-10.730469-4.804687-10.730469-10.734375 0-5.925781 4.804688-10.730469 10.730469-10.730469h43.464844c5.925781 0 10.730469 4.804688 10.730469 10.730469zm0 0" fill="#b3d1e1"/><path d="m387.480469 380.710938c1.644531 2.464843 2.519531 5.359374 2.519531 8.320312v85.125c-18.5625 11.425781-38.695312 20.542969-60 26.964844v-112.089844c0-2.960938.878906-5.855469 2.519531-8.320312l24.359375-36.539063c1.484375-2.230469 4.757813-2.230469 6.242188 0zm0 0" fill="#84deea"/><path d="m389.910156 387.5c.054688.507812.089844 1.019531.089844 1.53125 0-.511719-.035156-1.023438-.089844-1.53125zm-37.5 30h17.777344c4.105469 0 7.6875 3.164062 7.808594 7.269531.128906 4.246094-3.277344 7.730469-7.496094 7.730469h-18.089844c-2.433594 0-4.410156 1.976562-4.410156 4.410156v58.042969c14.703125-5.664063 28.753906-12.640625 42-20.796875v-71.65625h-37.589844c-2.433594 0-4.410156 1.976562-4.410156 4.410156v6.179688c0 2.433594 1.976562 4.410156 4.410156 4.410156zm37.5-30c-.246094-2.421875-1.070312-4.753906-2.429687-6.789062l-18.480469-27.722657-18.480469 27.722657c-.015625.019531-.027343.042968-.042969.0625-1.898437 2.878906.304688 6.726562 3.757813 6.726562zm0 0" fill="#d3f1f5"/></svg>