<svg height="512pt" viewBox="0 0 512 512" width="512pt" xmlns="http://www.w3.org/2000/svg"><path d="m512 256c0 141.386719-114.613281 256-256 256s-256-114.613281-256-256 114.613281-256 256-256 256 114.613281 256 256zm0 0" fill="#fdbf43"/><path d="m476 90v296.949219c-9.472656 15.875-20.609375 30.640625-33.175781 44.050781h-373.648438c-12.566406-13.410156-23.703125-28.175781-33.175781-44.050781v-296.949219c0-5.523438 4.476562-10 10-10h420c5.523438 0 10 4.476562 10 10zm0 0" fill="#ddf4ba"/><path d="m476 90v296.949219c-9.472656 15.875-20.609375 30.640625-33.175781 44.050781h-372.824219v-351h396c5.523438 0 10 4.476562 10 10zm0 0" fill="#ecf8d9"/><path d="m80 376v-240h352v240zm0 0" fill="#ddf4ba"/><path d="m432 128.5h-352c-4.140625 0-7.5 3.359375-7.5 7.5v240c0 4.140625 3.359375 7.5 7.5 7.5h352c4.140625 0 7.5-3.359375 7.5-7.5v-240c0-4.140625-3.359375-7.5-7.5-7.5zm-289.101562 240h-55.398438v-45h55.398438zm0-60h-55.398438v-45h55.398438zm0-60h-55.398438v-45h55.398438zm0-60h-55.398438v-45h55.398438zm70.402343 180h-55.402343v-45h55.402343zm0-60h-55.402343v-45h55.402343zm0-60h-55.402343v-45h55.402343zm0-60h-55.402343v-45h55.402343zm70.398438 180h-55.398438v-45h55.398438zm0-60h-55.398438v-45h55.398438zm0-60h-55.398438v-45h55.398438zm0-60h-55.398438v-45h55.398438zm70.402343 180h-55.402343v-45h55.402343zm0-60h-55.402343v-45h55.402343zm0-60h-55.402343v-45h55.402343zm0-60h-55.402343v-45h55.402343zm70.398438 180h-55.398438v-45h55.398438zm0-60h-55.398438v-45h55.398438zm0-60h-55.398438v-45h55.398438zm0-60h-55.398438v-45h55.398438zm0 0" fill="#cff09a"/><path d="m400 316c0 4.140625-3.359375 7.5-7.5 7.5h-164.21875v29c0 4.140625-3.359375 7.5-7.5 7.5s-7.5-3.359375-7.5-7.5v-29h-105.78125c-4.140625 0-7.5-3.359375-7.5-7.5s3.359375-7.5 7.5-7.5h105.78125v-151c0-4.140625 3.359375-7.5 7.5-7.5s7.5 3.359375 7.5 7.5v151h164.21875c4.140625 0 7.5 3.359375 7.5 7.5zm0 0" fill="#6bae01"/><path d="m160 120v373.371094c-34.328125-13.898438-64.960938-35.015625-90-61.488282v-311.882812c0-5.523438 4.476562-10 10-10h70c5.523438 0 10 4.476562 10 10zm0 0" fill="#fc5426"/><path d="m180 120v380.527344c-33.464844-10.386719-63.976562-27.46875-90-49.65625v-330.871094c0-5.523438 4.476562-10 10-10h70c5.523438 0 10 4.476562 10 10zm0 0" fill="#fd7d43"/><path d="m140 185h40v20h-40c-1.105469 0-2-.894531-2-2v-16c0-1.105469.894531-2 2-2zm-22 82v16c0 1.105469.894531 2 2 2h60v-20h-60c-1.105469 0-2 .894531-2 2zm20 40v16c0 1.105469.894531 2 2 2h40v-20h-40c-1.105469 0-2 .894531-2 2zm0-80v16c0 1.105469.894531 2 2 2h40v-20h-40c-1.105469 0-2 .894531-2 2zm0 240v16c0 .082031.015625.160156.023438.238281 1.148437.597657 2.300781 1.183594 3.457031 1.761719h38.519531v-20h-40c-1.105469 0-2 .894531-2 2zm0-120v16c0 1.105469.894531 2 2 2h40v-20h-40c-1.105469 0-2 .894531-2 2zm0 80v16c0 1.105469.894531 2 2 2h40v-20h-40c-1.105469 0-2 .894531-2 2zm-18-282c-1.105469 0-2 .894531-2 2v16c0 1.105469.894531 2 2 2h60v-20zm-2 242v16c0 1.105469.894531 2 2 2h60v-20h-60c-1.105469 0-2 .894531-2 2zm0 0" fill="#ee4424"/></svg>