<svg height="512pt" viewBox="0 0 512 512" width="512pt" xmlns="http://www.w3.org/2000/svg"><path d="m512 256c0 141.386719-114.613281 256-256 256s-256-114.613281-256-256 114.613281-256 256-256 256 114.613281 256 256zm0 0" fill="#fc5426"/><path d="m332.949219 326.15625c-26.320313 23.390625-40.949219 57.234375-40.949219 92.445312v2.398438h-112v-2.828125c0-35.511719-15.507812-69.019531-41.855469-92.824219-29.703125-26.84375-48.320312-65.722656-48.144531-108.953125.328125-80.5 65.5-145.394531 146-145.394531 80.632812 0 146 65.367188 146 146 0 43.421875-18.960938 82.414062-49.050781 109.15625zm0 0" fill="#fded32"/><path d="m292 418.601562v2.398438h-74v-2.828125c0-35.511719-15.507812-69.019531-41.855469-92.824219-29.703125-26.84375-48.320312-65.722656-48.144531-108.953125.300781-74.054687 55.480469-134.898437 126.984375-144.167969 71.664063 9.308594 127.015625 70.574219 127.015625 144.773438 0 43.421875-18.960938 82.414062-49.050781 109.15625-26.320313 23.390625-40.949219 57.234375-40.949219 92.445312zm0 0" fill="#fdf385"/><path d="m271 203.5h-70c-20.679688 0-37.5 16.820312-37.5 37.5 0 15.164062 12.335938 27.5 27.5 27.5 6.894531 0 12.5 5.605469 12.5 12.5v110c0 15.164062 12.335938 27.5 27.5 27.5h10c15.164062 0 27.5-12.335938 27.5-27.5v-110c0-6.894531 5.605469-12.5 12.5-12.5 15.164062 0 27.5-12.335938 27.5-27.5 0-20.679688-16.820312-37.5-37.5-37.5zm10 50c-15.164062 0-27.5 12.335938-27.5 27.5v110c0 6.894531-5.605469 12.5-12.5 12.5h-10c-6.894531 0-12.5-5.605469-12.5-12.5v-110c0-15.164062-12.335938-27.5-27.5-27.5-6.894531 0-12.5-5.605469-12.5-12.5 0-12.40625 10.09375-22.5 22.5-22.5h70c12.40625 0 22.5 10.09375 22.5 22.5 0 6.894531-5.605469 12.5-12.5 12.5zm0 0" fill="#e8ce00"/><path d="m269.667969 106c5.425781-7.121094 39.960937 3.988281 61.332031 28 18.308594 20.570312 26.832031 50.46875 20 55.332031-8.410156 5.988281-40.054688-25.984375-46.667969-32.667969-3.980469-4.019531-41.398437-41.824218-34.664062-50.664062zm0 0" fill="#fdf7bd"/><path d="m311 411c0 8.953125-5.886719 16.53125-14 19.082031v.917969c0 27.613281-22.386719 50-50 50h-22c-27.613281 0-50-22.386719-50-50v-.917969c-8.113281-2.550781-14-10.128906-14-19.082031 0-11.046875 8.953125-20 20-20h110c11.046875 0 20 8.953125 20 20zm0 0" fill="#88b9d3"/><path d="m311 411c0 8.953125-5.886719 16.53125-14 19.082031v.917969c0 24.011719-16.929688 44.0625-39.5 48.886719-15.039062-3.214844-27.574219-13.191407-34.261719-26.59375-1.671875-3.347657.703125-7.292969 4.445313-7.292969h44.816406c4.21875 0 7.625-3.484375 7.496094-7.730469-.121094-4.105469-3.703125-7.269531-7.808594-7.269531h-62.1875c-11.046875 0-20-8.953125-20-20s8.953125-20 20-20h81c11.046875 0 20 8.953125 20 20zm0 0" fill="#b3d1e1"/><path d="m316.445312 252.125c-8.378906 8.375-19.046874 14.085938-30.660156 16.40625l-45.542968 9.109375c-3.5.703125-6.582032-2.382813-5.882813-5.882813l9.109375-45.542968c2.320312-11.613282 8.03125-22.28125 16.40625-30.65625l17.699219-17.699219 56.570312 56.570313zm0 0" fill="#ebae56"/><path d="m483.214844 85.355469c-11.71875 11.714843-30.710938 11.714843-42.429688 0l-14.140625-14.140625c-11.714843-11.71875-11.714843-30.710938 0-42.429688 11.714844-11.714844 30.710938-11.714844 42.425781 0l14.144532 14.144532c11.714844 11.714843 11.714844 30.710937 0 42.425781zm0 0" fill="#025f80"/><path d="m488.921875 50.921875c5.503906 11.203125 3.609375 25.117187-5.707031 34.433594-9.320313 9.316406-23.234375 11.210937-34.433594 5.707031-5.503906-11.199219-3.609375-25.113281 5.707031-34.429688 9.320313-9.316406 23.234375-11.210937 34.433594-5.710937zm0 0" fill="#017296"/><path d="m289.457031 250.828125c-7.8125-7.8125-7.8125-20.472656 0-28.285156-7.8125 7.8125-20.476562 7.8125-28.285156 0-7.808594-7.808594-7.808594-20.472657 0-28.28125l165.472656-165.476563 56.570313 56.570313-165.472656 165.472656c-7.8125 7.8125-20.476563 7.8125-28.285157 0zm0 0" fill="#0ab59e"/><path d="m289.457031 222.542969c-7.8125 7.8125-20.476562 7.8125-28.285156 0-7.808594-7.808594-7.808594-20.472657 0-28.28125l165.472656-165.476563 28.285157 28.285156zm0 0" fill="#01988c"/><path d="m256.457031 274.398438-16.214843 3.242187c-3.5.699219-6.582032-2.382813-5.882813-5.882813l3.242187-16.21875zm0 0" fill="#024c67"/></svg>