<svg height="512pt" viewBox="0 0 512 512" width="512pt" xmlns="http://www.w3.org/2000/svg"><path d="m512 256c0 141.386719-114.613281 256-256 256s-256-114.613281-256-256 114.613281-256 256-256 256 114.613281 256 256zm0 0" fill="#fdbf43"/><path d="m430 141h-372c-5.523438 0-10-4.476562-10-10v-24.25c3.417969-4.757812 6.992188-9.394531 10.71875-13.898438h371.28125c5.523438 0 10 4.476563 10 10v28.148438c0 5.523438-4.476562 10-10 10zm0 0" fill="#017296"/><path d="m430 141h-352c-5.523438 0-10-4.476562-10-10v-28.148438c0-5.523437 4.476562-10 10-10h352c5.523438 0 10 4.476563 10 10v28.148438c0 5.523438-4.476562 10-10 10zm0 0" fill="#3691bb"/><path d="m430 381.148438h-372c-5.523438 0-10-4.476563-10-10v-250.148438h392v250.148438c0 5.523437-4.476562 10-10 10zm0 0" fill="#ddf4ba"/><path d="m430 381.148438h-352c-5.523438 0-10-4.476563-10-10v-250.148438h372v250.148438c0 5.523437-4.476562 10-10 10zm0 0" fill="#ecf8d9"/><path d="m400 166v110c0 2.761719-2.238281 5-5 5h-230c-2.761719 0-5-2.238281-5-5v-110c0-2.761719 2.238281-5 5-5h230c2.761719 0 5 2.238281 5 5zm-268.832031 40h-40.167969c-1.105469 0-2 .894531-2 2v11c0 1.105469.894531 2 2 2h40.167969c1.101562 0 2-.894531 2-2v-11c0-1.105469-.898438-2-2-2zm-40.167969 45h30.167969c1.101562 0 2-.894531 2-2v-11c0-1.105469-.898438-2-2-2h-30.167969c-1.105469 0-2 .894531-2 2v11c0 1.105469.894531 2 2 2zm40.167969 15h-40.167969c-1.105469 0-2 .894531-2 2v11c0 1.105469.894531 2 2 2h40.167969c1.101562 0 2-.894531 2-2v-11c0-1.105469-.898438-2-2-2zm245.832031 39c-12.703125 0-23 10.296875-23 23s10.296875 23 23 23 23-10.296875 23-23-10.296875-23-23-23zm-64.667969 0c-12.699219 0-23 10.296875-23 23s10.300781 23 23 23c12.703125 0 23-10.296875 23-23s-10.296875-23-23-23zm-64.664062 0c-12.703125 0-23 10.296875-23 23s10.296875 23 23 23c12.699219 0 23-10.296875 23-23s-10.300781-23-23-23zm-64.667969 0c-12.703125 0-23 10.296875-23 23s10.296875 23 23 23 23-10.296875 23-23-10.296875-23-23-23zm0 0" fill="#cff09a"/><path d="m275.367188 182.191406-36.785157 36.785156 36.785157 36.78125c.78125.78125.78125 2.046876 0 2.828126l-7.777344 7.777343c-.78125.78125-2.050782.78125-2.828125 0l-36.785157-36.78125-36.78125 36.78125c-.78125.78125-2.046874.78125-2.828124 0l-7.777344-7.777343c-.78125-.78125-.78125-2.046876 0-2.828126l36.78125-36.78125-36.78125-36.785156c-.78125-.78125-.78125-2.046875 0-2.828125l7.777344-7.777343c.78125-.78125 2.046874-.78125 2.828124 0l36.78125 36.78125 36.785157-36.78125c.777343-.78125 2.046875-.78125 2.828125 0l7.777344 7.777343c.78125.78125.78125 2.046875 0 2.828125zm-163.367188-46.691406c-12.703125 0-23 10.296875-23 23s10.296875 23 23 23 23-10.296875 23-23-10.296875-23-23-23zm-20 187.5h30.167969c1.101562 0 2-.894531 2-2v-11c0-1.105469-.898438-2-2-2h-30.167969c-1.105469 0-2 .894531-2 2v11c0 1.105469.894531 2 2 2zm40.167969 10h-40.167969c-1.105469 0-2 .894531-2 2v11c0 1.105469.894531 2 2 2h40.167969c1.101562 0 2-.894531 2-2v-11c0-1.105469-.898438-2-2-2zm190.332031-87c-4.140625 0-7.5 3.359375-7.5 7.5s3.359375 7.5 7.5 7.5 7.5-3.359375 7.5-7.5-3.359375-7.5-7.5-7.5zm25 0c-4.140625 0-7.5 3.359375-7.5 7.5s3.359375 7.5 7.5 7.5 7.5-3.359375 7.5-7.5-3.359375-7.5-7.5-7.5zm25 0c-4.140625 0-7.5 3.359375-7.5 7.5s3.359375 7.5 7.5 7.5 7.5-3.359375 7.5-7.5-3.359375-7.5-7.5-7.5zm0 0" fill="#b8eb6a"/><path d="m470 211h-250c-5.523438 0-10-4.476562-10-10v-140c0-5.523438 4.476562-10 10-10h250c5.523438 0 10 4.476562 10 10v140c0 5.523438-4.476562 10-10 10zm0 0" fill="#c43286"/><path d="m480 61v140c0 5.523438-4.476562 10-10 10h-230c-5.523438 0-10-4.476562-10-10v-140c0-5.523438 4.476562-10 10-10h230c5.523438 0 10 4.476562 10 10zm-185 310c-19.328125 0-35 15.671875-35 35s15.671875 35 35 35 35-15.671875 35-35-15.671875-35-35-35zm0 0" fill="#df3d9b"/><path d="m340 191h-100c-5.523438 0-10-4.476562-10-10v-100c0-5.523438 4.476562-10 10-10h100c5.523438 0 10 4.476562 10 10v100c0 5.523438-4.476562 10-10 10zm0 0" fill="#a72975"/><path d="m365.832031 91.5v-11c0-1.105469.898438-2 2-2h60.167969c1.105469 0 2 .894531 2 2v11c0 1.105469-.894531 2-2 2h-60.167969c-1.101562 0-2-.894531-2-2zm-34.761719 22.542969c-2.113281-2.765625-6.277343-2.765625-8.390624 0l-31.136719 40.738281c-2.113281 2.765625-6.277344 2.765625-8.390625 0l-10.011719-13.101562c-2.117187-2.765626-6.28125-2.765626-8.394531 0l-23.5625 30.832031c-2.65625 3.476562-.175782 8.488281 4.195312 8.488281h89.34375c2.914063 0 5.28125-2.363281 5.28125-5.28125v-48.207031c0-1.15625-.382812-2.285157-1.085937-3.207031zm-71.070312 6.957031c11.046875 0 20-8.953125 20-20s-8.953125-20-20-20-20 8.953125-20 20 8.953125 20 20 20zm138 47.5h-30.167969c-1.101562 0-2 .894531-2 2v11c0 1.105469.898438 2 2 2h30.167969c1.105469 0 2-.894531 2-2v-11c0-1.105469-.894531-2-2-2zm60-30h-90.167969c-1.101562 0-2 .894531-2 2v11c0 1.105469.898438 2 2 2h90.167969c1.105469 0 2-.894531 2-2v-11c0-1.105469-.894531-2-2-2zm0-30h-90.167969c-1.101562 0-2 .894531-2 2v11c0 1.105469.898438 2 2 2h90.167969c1.105469 0 2-.894531 2-2v-11c0-1.105469-.894531-2-2-2zm-161.347656 283.546875c-.792969-1.167969-2.511719-1.167969-3.304688 0l-17.4375 25.65625c-.902344 1.328125.050782 3.125 1.652344 3.125h34.875c1.601562 0 2.554688-1.796875 1.652344-3.125zm0 0" fill="#f5a6d1"/><path d="m150 406c0 19.328125-15.671875 35-35 35s-35-15.671875-35-35 15.671875-35 35-35 35 15.671875 35 35zm0 0" fill="#fc5426"/><path d="m128 421h-26c-1.105469 0-2-.894531-2-2v-26c0-1.105469.894531-2 2-2h26c1.105469 0 2 .894531 2 2v26c0 1.105469-.894531 2-2 2zm0 0" fill="#fdc3ab"/><path d="m240 406c0 19.328125-15.671875 35-35 35s-35-15.671875-35-35 15.671875-35 35-35 35 15.671875 35 35zm0 0" fill="#01988c"/><path d="m205 421c-8.285156 0-15-6.714844-15-15s6.714844-15 15-15 15 6.714844 15 15-6.714844 15-15 15zm0 0" fill="#89e9d9"/><path d="m340 460h-30c-5.523438 0-10-4.476562-10-10v-30c0-5.523438 4.476562-10 10-10h30c5.523438 0 10 4.476562 10 10v30c0 5.523438-4.476562 10-10 10zm0 0" fill="#025f80"/><path d="m450 423.027344c-11.769531 13.660156-24.964844 26.054687-39.34375 36.972656h-80.65625c-5.523438 0-10-4.476562-10-10v-30c0-5.523438 4.476562-10 10-10h110c5.523438 0 10 4.476562 10 10zm0 0" fill="#0680ae"/><path d="m357.5 435c0 4.140625-3.359375 7.5-7.5 7.5s-7.5-3.359375-7.5-7.5 3.359375-7.5 7.5-7.5 7.5 3.359375 7.5 7.5zm17.5-7.5c-4.140625 0-7.5 3.359375-7.5 7.5s3.359375 7.5 7.5 7.5 7.5-3.359375 7.5-7.5-3.359375-7.5-7.5-7.5zm25 0c-4.140625 0-7.5 3.359375-7.5 7.5s3.359375 7.5 7.5 7.5 7.5-3.359375 7.5-7.5-3.359375-7.5-7.5-7.5zm0 0" fill="#025f80"/></svg>