<svg height="512pt" viewBox="0 0 512 512" width="512pt" xmlns="http://www.w3.org/2000/svg"><path d="m512 256c0 141.386719-114.613281 256-256 256s-256-114.613281-256-256 114.613281-256 256-256 256 114.613281 256 256zm0 0" fill="#fdbf43"/><path d="m22.914062 150h7.085938v160h-24.273438c-3.742187-17.410156-5.726562-35.472656-5.726562-54 0-37.808594 8.203125-73.699219 22.914062-106zm189.265626 270h57.820312v-230h-40l-19.8125 227.828125c-.101562 1.167969.820312 2.171875 1.992188 2.171875zm37.820312-419.9257812c-10.160156.2343752-20.167969 1.0742192-30 2.4570312l-19.714844 155.214844c-.152344 1.195312.78125 2.253906 1.984375 2.253906h47.730469zm179.464844 67.6757812-19.011719 99.800781c-.234375 1.230469.710937 2.375 1.964844 2.375h47.582031v-68.582031c-9.175781-12.085938-19.398438-23.328125-30.535156-33.59375zm0 0" fill="#fda800"/><path d="m357.5 440v10c0 15.164062-12.335938 27.5-27.5 27.5h-88.105469l8.410157 8.410156c2.929687 2.929688 2.929687 7.679688 0 10.605469-1.464844 1.464844-3.386719 2.199219-5.304688 2.199219-1.921875 0-3.839844-.734375-5.304688-2.199219l-21.210937-21.210937c-2.929687-2.929688-2.929687-7.679688 0-10.609376l21.210937-21.210937c2.929688-2.929687 7.679688-2.929687 10.609376 0 2.925781 2.929687 2.925781 7.675781 0 10.605469l-8.410157 8.410156h88.105469c6.894531 0 12.5-5.605469 12.5-12.5v-10c0-4.140625 3.355469-7.5 7.5-7.5s7.5 3.359375 7.5 7.5zm-180.910156-377.804688c-1.464844-1.464843-3.382813-2.195312-5.304688-2.195312-1.917968 0-3.835937.730469-5.300781 2.195312-2.929687 2.929688-2.929687 7.679688 0 10.609376l8.410156 8.410156h-66.894531c-15.164062 0-27.5 12.335937-27.5 27.5v10c0 4.140625 3.355469 7.5 7.5 7.5s7.5-3.359375 7.5-7.5v-10c0-6.894532 5.605469-12.5 12.5-12.5h66.894531l-8.410156 8.40625c-2.929687 2.929687-2.929687 7.679687 0 10.609375 2.929687 2.925781 7.675781 2.925781 10.605469 0l21.214844-21.214844c2.925781-2.929687 2.925781-7.675781 0-10.605469zm-134.089844 257.804688c-4.140625 0-7.5 3.359375-7.5 7.5s3.359375 7.5 7.5 7.5 7.5-3.359375 7.5-7.5-3.359375-7.5-7.5-7.5zm25 0c-4.140625 0-7.5 3.359375-7.5 7.5s3.359375 7.5 7.5 7.5 7.5-3.359375 7.5-7.5-3.359375-7.5-7.5-7.5zm25 0c-4.140625 0-7.5 3.359375-7.5 7.5s3.359375 7.5 7.5 7.5 7.5-3.359375 7.5-7.5-3.359375-7.5-7.5-7.5zm0 0" fill="#fc9302"/><path d="m265 420h-30c-2.761719 0-5-2.238281-5-5v-224c0-2.761719 2.238281-5 5-5h30c2.761719 0 5 2.238281 5 5v224c0 2.761719-2.238281 5-5 5zm0 0" fill="#02c6dc"/><path d="m459 420h-194c-2.761719 0-5-2.238281-5-5v-224c0-2.761719 2.238281-5 5-5h194c2.761719 0 5 2.238281 5 5v224c0 2.761719-2.238281 5-5 5zm0 0" fill="#84deea"/><path d="m395 397.5c0 4.140625-3.359375 7.5-7.5 7.5s-7.5-3.359375-7.5-7.5 3.359375-7.5 7.5-7.5 7.5 3.359375 7.5 7.5zm17.5-7.5c-4.140625 0-7.5 3.359375-7.5 7.5s3.359375 7.5 7.5 7.5 7.5-3.359375 7.5-7.5-3.359375-7.5-7.5-7.5zm25 0c-4.140625 0-7.5 3.359375-7.5 7.5s3.359375 7.5 7.5 7.5 7.5-3.359375 7.5-7.5-3.359375-7.5-7.5-7.5zm0 0" fill="#03bdd6"/><path d="m387.027344 316.070312c-10.867188 9.65625-16.90625 23.628907-16.90625 38.167969v.988281h-46.242188v-1.167968c0-14.660156-6.402344-28.492188-17.28125-38.324219-12.261718-11.082031-19.949218-27.132813-19.875-44.980469.132813-33.238281 27.042969-60.03125 60.277344-60.03125 33.292969 0 60.28125 26.988282 60.28125 60.28125 0 17.925782-7.828125 34.023438-20.253906 45.066406zm0 0" fill="#d3f1f5"/><path d="m377.964844 351.097656c0 3.699219-2.429688 6.828125-5.777344 7.878906v.378907c0 11.402343-9.242188 20.644531-20.644531 20.644531h-9.082031c-11.402344 0-20.644532-9.242188-20.644532-20.644531v-.378907c-3.351562-1.050781-5.78125-4.179687-5.78125-7.878906 0-4.558594 3.695313-8.253906 8.257813-8.253906h45.414062c4.5625-.003906 8.257813 3.695312 8.257813 8.253906zm0 0" fill="#3691bb"/><path d="m334.011719 284.859375c2.070312 3.589844.839843 8.175781-2.746094 10.246094l-12.992187 7.5c-3.585938 2.070312-8.171876.84375-10.242188-2.746094-2.070312-3.585937-.84375-8.171875 2.742188-10.242187l12.992187-7.5c3.585937-2.074219 8.171875-.84375 10.246094 2.742187zm-2.746094-25.242187-12.992187-7.5c-3.585938-2.070313-8.171876-.84375-10.246094 2.742187-2.070313 3.589844-.839844 8.175781 2.746094 10.246094l12.992187 7.5c3.585937 2.070312 8.171875.84375 10.242187-2.746094 2.074219-3.585937.84375-8.171875-2.742187-10.242187zm38.96875 12.988281 12.992187-7.5c3.585938-2.070313 4.816407-6.65625 2.746094-10.246094-2.074218-3.585937-6.660156-4.8125-10.246094-2.742187l-12.992187 7.5c-3.585937 2.070312-4.8125 6.65625-2.742187 10.242187 2.070312 3.589844 6.65625 4.816406 10.242187 2.746094zm-23.234375 19.753906c-4.140625 0-7.5 3.359375-7.5 7.5v15c0 4.144531 3.359375 7.5 7.5 7.5s7.5-3.355469 7.5-7.5v-15c0-4.140625-3.359375-7.5-7.5-7.5zm36.226562-2.742187-12.992187-7.5c-3.585937-2.070313-8.171875-.84375-10.242187 2.742187-2.070313 3.589844-.84375 8.175781 2.742187 10.246094l12.992187 7.5c3.585938 2.070312 8.171876.84375 10.246094-2.746094 2.070313-3.585937.839844-8.171875-2.746094-10.242187zm-36.226562-57.257813c-4.140625 0-7.5 3.359375-7.5 7.5v15c0 4.144531 3.359375 7.5 7.5 7.5s7.5-3.355469 7.5-7.5v-15c0-4.140625-3.359375-7.5-7.5-7.5zm0 0" fill="#84deea"/><path d="m390 37.84375v117.15625c0 2.761719-2.238281 5-5 5h-160c-2.761719 0-5-2.238281-5-5v-152.46875c11.765625-1.65625 23.777344-2.53125 36-2.53125 49.128906 0 95.019531 13.851562 134 37.84375zm0 0" fill="#0ab59e"/><path d="m390 37.84375v117.15625c0 2.761719-2.238281 5-5 5h-130c-2.761719 0-5-2.238281-5-5v-154.9257812c1.996094-.0429688 3.992188-.0742188 6-.0742188 49.128906 0 95.019531 13.851562 134 37.84375zm0 0" fill="#0ed1b2"/><path d="m320 137.5c0 4.140625-3.359375 7.5-7.5 7.5s-7.5-3.359375-7.5-7.5 3.359375-7.5 7.5-7.5 7.5 3.359375 7.5 7.5zm17.5-7.5c-4.140625 0-7.5 3.359375-7.5 7.5s3.359375 7.5 7.5 7.5 7.5-3.359375 7.5-7.5-3.359375-7.5-7.5-7.5zm25 0c-4.140625 0-7.5 3.359375-7.5 7.5s3.359375 7.5 7.5 7.5 7.5-3.359375 7.5-7.5-3.359375-7.5-7.5-7.5zm0 0" fill="#0ab59e"/><path d="m375.566406 29.867188-91.71875 91.71875c-1.5625 1.5625-4.09375 1.5625-5.660156 0l-40.003906-39.996094c-.78125-.78125-.78125-2.046875 0-2.828125l11.3125-11.3125c.78125-.78125 2.046875-.78125 2.828125 0l27.273437 27.273437c.78125.78125 2.046875.78125 2.828125 0l78.996094-79c.78125-.78125 2.046875-.78125 2.828125 0l11.316406 11.316406c.78125.78125.78125 2.046876 0 2.828126zm0 0" fill="#ddf4ba"/><path d="m497.179688 170h-62.179688c-2.761719 0-5-2.238281-5-5v-96.753906c29.917969 27.742187 53.191406 62.539062 67.179688 101.753906zm-302.179688 180h-160c-2.761719 0-5 2.238281-5 5v21.324219c34.605469 64.859375 96.308594 113.070312 170 129.515625v-150.839844c0-2.761719-2.238281-5-5-5zm0 0" fill="#df3d9b"/><path d="m170 402v11c0 1.105469-.894531 2-2 2h-76c-1.105469 0-2-.894531-2-2v-11c0-1.105469.894531-2 2-2h76c1.105469 0 2 .894531 2 2zm-2 28h-99.753906c4.824218 5.203125 9.855468 10.210938 15.09375 15h84.660156c1.105469 0 2-.894531 2-2v-11c0-1.105469-.894531-2-2-2zm0-60h-116c-1.105469 0-2 .894531-2 2v11c0 1.105469.894531 2 2 2h116c1.105469 0 2-.894531 2-2v-11c0-1.105469-.894531-2-2-2zm0 90h-66.65625c7.0625 5.363281 14.402344 10.378906 22.015625 15h44.640625c1.105469 0 2-.894531 2-2v-11c0-1.105469-.894531-2-2-2zm0 0" fill="#a72975"/><path d="m170 145v160c0 2.761719-2.238281 5-5 5h-140c-2.761719 0-5-2.238281-5-5v-148.359375c2.382812-5.652344 4.964844-11.203125 7.734375-16.640625h137.265625c2.761719 0 5 2.238281 5 5zm0 0" fill="#fded32"/><path d="m165 310h-120c-2.761719 0-5-2.238281-5-5v-160c0-2.761719 2.238281-5 5-5h120c2.761719 0 5 2.238281 5 5v160c0 2.761719-2.238281 5-5 5zm0 0" fill="#fdf061"/><path d="m130 172v11c0 1.105469-.894531 2-2 2h-66c-1.105469 0-2-.894531-2-2v-11c0-1.105469.894531-2 2-2h66c1.105469 0 2 .894531 2 2zm0 0" fill="#d6bf01"/><path d="m155 242v11c0 1.105469-.894531 2-2 2h-116c-1.105469 0-2-.894531-2-2v-11c0-1.105469.894531-2 2-2h116c1.105469 0 2 .894531 2 2zm-27 28h-66c-1.105469 0-2 .894531-2 2v11c0 1.105469.894531 2 2 2h66c1.105469 0 2-.894531 2-2v-11c0-1.105469-.894531-2-2-2zm-76-45h86c1.105469 0 2-.894531 2-2v-11c0-1.105469-.894531-2-2-2h-86c-1.105469 0-2 .894531-2 2v11c0 1.105469.894531 2 2 2zm0 0" fill="#e8ce00"/></svg>