<svg height="512pt" viewBox="0 0 512 512" width="512pt" xmlns="http://www.w3.org/2000/svg"><path d="m62.398438 423.5c-38.875-44.894531-62.398438-103.449219-62.398438-167.5 0-141.386719 114.613281-256 256-256s256 114.613281 256 256c0 64.050781-23.523438 122.605469-62.398438 167.5-46.941406-54.207031-116.265624-88.5-193.601562-88.5s-146.660156 34.292969-193.601562 88.5zm0 0" fill="#7ecd00"/><path d="m452 420.664062c-46.960938 55.839844-117.328125 91.335938-196 91.335938s-149.039062-35.496094-196-91.335938v-329.328124c6.296875-7.488282 13.011719-14.617188 20.117188-21.335938h351.765624c7.105469 6.71875 13.820313 13.847656 20.117188 21.335938zm0 0" fill="#ddf4ba"/><path d="m452 420.664062c-46.960938 55.839844-117.328125 91.335938-196 91.335938-63.34375 0-121.304688-23.019531-166-61.128906v-380.871094h341.882812c7.105469 6.71875 13.820313 13.847656 20.117188 21.335938zm0 0" fill="#ecf8d9"/><path d="m291 229.5v11c0 1.105469-.894531 2-2 2h-66c-1.105469 0-2-.894531-2-2v-11c0-1.105469.894531-2 2-2h66c1.105469 0 2 .894531 2 2zm-111-66.5v-11c0-1.105469-.894531-2-2-2h-66c-1.105469 0-2 .894531-2 2v11c0 1.105469.894531 2 2 2h66c1.105469 0 2-.894531 2-2zm90 92h-28c-1.105469 0-2 .894531-2 2v11c0 1.105469.894531 2 2 2h28c1.105469 0 2-.894531 2-2v-11c0-1.105469-.894531-2-2-2zm-82 112.5h-46c-1.105469 0-2 .894531-2 2v11c0 1.105469.894531 2 2 2h46c1.105469 0 2-.894531 2-2v-11c0-1.105469-.894531-2-2-2zm-18 27.5h-28c-1.105469 0-2 .894531-2 2v11c0 1.105469.894531 2 2 2h28c1.105469 0 2-.894531 2-2v-11c0-1.105469-.894531-2-2-2zm147.5-20c-4.140625 0-7.5 3.359375-7.5 7.5s3.359375 7.5 7.5 7.5 7.5-3.359375 7.5-7.5-3.359375-7.5-7.5-7.5zm25 0c-4.140625 0-7.5 3.359375-7.5 7.5s3.359375 7.5 7.5 7.5 7.5-3.359375 7.5-7.5-3.359375-7.5-7.5-7.5zm25 0c-4.140625 0-7.5 3.359375-7.5 7.5s3.359375 7.5 7.5 7.5 7.5-3.359375 7.5-7.5-3.359375-7.5-7.5-7.5zm0 0" fill="#cff09a"/><path d="m452 130h-392v-50c0-11.046875 8.953125-20 20-20h352c11.046875 0 20 8.953125 20 20zm0 0" fill="#ee4424"/><path d="m452 130h-362v-50c0-11.046875 8.953125-20 20-20h322c11.046875 0 20 8.953125 20 20zm0 0" fill="#fc6930"/><path d="m160 90v10c0 5.523438-4.476562 10-10 10h-40c-5.523438 0-10-4.476562-10-10v-10c0-5.523438 4.476562-10 10-10h40c5.523438 0 10 4.476562 10 10zm76.667969-10h-40c-5.523438 0-10 4.476562-10 10v10c0 5.523438 4.476562 10 10 10h40c5.523437 0 10-4.476562 10-10v-10c0-5.523438-4.480469-10-10-10zm86.664062 0h-40c-5.523437 0-10 4.476562-10 10v10c0 5.523438 4.476563 10 10 10h40c5.523438 0 10-4.476562 10-10v-10c0-5.523438-4.476562-10-10-10zm86.667969 0h-40c-5.523438 0-10 4.476562-10 10v10c0 5.523438 4.476562 10 10 10h40c5.523438 0 10-4.476562 10-10v-10c0-5.523438-4.476562-10-10-10zm0 0" fill="#d63d24"/><path d="m145 45v65h-30v-65c0-8.285156 6.714844-15 15-15s15 6.714844 15 15zm71.667969-15c-8.285157 0-15 6.714844-15 15v65h30v-65c0-8.285156-6.71875-15-15-15zm86.664062 0c-8.28125 0-15 6.714844-15 15v65h30v-65c0-8.285156-6.714843-15-15-15zm86.667969 0c-8.285156 0-15 6.714844-15 15v65h30v-65c0-8.285156-6.714844-15-15-15zm0 0" fill="#fded32"/><path d="m231.667969 45v20c0 8.285156-6.71875 15-15 15-8.285157 0-15-6.714844-15-15v-20c0-8.285156 6.714843-15 15-15 8.28125 0 15 6.714844 15 15zm-101.667969-15c-8.285156 0-15 6.714844-15 15v20c0 8.285156 6.714844 15 15 15s15-6.714844 15-15v-20c0-8.285156-6.714844-15-15-15zm173.332031 0c-8.28125 0-15 6.714844-15 15v20c0 8.285156 6.71875 15 15 15 8.285157 0 15-6.714844 15-15v-20c0-8.285156-6.714843-15-15-15zm86.667969 0c-8.285156 0-15 6.714844-15 15v20c0 8.285156 6.714844 15 15 15s15-6.714844 15-15v-20c0-8.285156-6.714844-15-15-15zm0 0" fill="#fdf385"/><path d="m256 180c-52.714844 0-95.601562 42.886719-95.601562 95.601562 0 52.710938 42.886718 95.597657 95.601562 95.597657s95.601562-42.882813 95.601562-95.597657c0-52.714843-42.886718-95.601562-95.601562-95.601562zm0 176.199219c-44.441406 0-80.601562-36.15625-80.601562-80.597657 0-44.445312 36.15625-80.601562 80.601562-80.601562s80.601562 36.15625 80.601562 80.601562c0 44.441407-36.160156 80.597657-80.601562 80.597657zm0 0" fill="#fcb30b"/><path d="m202.601562 278.800781c-52.714843 0-95.601562 42.882813-95.601562 95.597657 0 52.714843 42.886719 95.601562 95.601562 95.601562 52.714844 0 95.601563-42.886719 95.601563-95.601562-.003906-52.710938-42.890625-95.597657-95.601563-95.597657zm0 176.199219c-44.445312 0-80.601562-36.15625-80.601562-80.601562 0-44.441407 36.15625-80.597657 80.601562-80.597657 44.445313 0 80.601563 36.15625 80.601563 80.597657-.003906 44.445312-36.160156 80.601562-80.601563 80.601562zm0 0" fill="#f18bc3"/><path d="m309.398438 278.800781c-52.714844 0-95.601563 42.882813-95.601563 95.597657 0 52.714843 42.886719 95.601562 95.601563 95.601562 52.714843 0 95.601562-42.886719 95.601562-95.601562 0-52.710938-42.886719-95.597657-95.601562-95.597657zm0 176.199219c-44.441407 0-80.601563-36.15625-80.601563-80.601562 0-44.441407 36.15625-80.597657 80.601563-80.597657 44.445312 0 80.601562 36.15625 80.601562 80.597657 0 44.445312-36.15625 80.601562-80.601562 80.601562zm0 0" fill="#3691bb"/></svg>