<svg height="512pt" viewBox="0 0 512 512" width="512pt" xmlns="http://www.w3.org/2000/svg"><path d="m512 256c0 141.386719-114.613281 256-256 256s-256-114.613281-256-256 114.613281-256 256-256 256 114.613281 256 256zm0 0" fill="#fc6930"/><path d="m467.675781 400c-46.078125 67.605469-123.6875 112-211.675781 112s-165.597656-44.394531-211.675781-112zm0 0" fill="#d63d24"/><path d="m471 80v270c0 5.523438-4.476562 10-10 10h-129v60h50c5.523438 0 10 4.476562 10 10v10c0 5.523438-4.476562 10-10 10h-252c-5.523438 0-10-4.476562-10-10v-10c0-5.523438 4.476562-10 10-10h50v-60h-129c-5.523438 0-10-4.476562-10-10v-270c0-5.523438 4.476562-10 10-10h410c5.523438 0 10 4.476562 10 10zm0 0" fill="#88b9d3"/><path d="m392 430v10c0 5.523438-4.476562 10-10 10h-232c-5.523438 0-10-4.476562-10-10v-10c0-5.523438 4.476562-10 10-10h50v-20c0-5.523438 4.476562-10 10-10h112c5.523438 0 10 4.476562 10 10v20h50c5.523438 0 10 4.476562 10 10zm69-360h-391c-5.523438 0-10 4.476562-10 10v270c0 5.523438 4.476562 10 10 10h391c5.523438 0 10-4.476562 10-10v-270c0-5.523438-4.476562-10-10-10zm0 0" fill="#b3d1e1"/><path d="m437 330h-362c-2.761719 0-5-2.238281-5-5v-220c0-2.761719 2.238281-5 5-5h362c2.761719 0 5 2.238281 5 5v220c0 2.761719-2.238281 5-5 5zm0 0" fill="#ecf8d9"/><path d="m461 370h-410c-5.523438 0-10-4.476562-10-10v-40h430v40c0 5.523438-4.476562 10-10 10zm0 0" fill="#3691bb"/><path d="m461 370h-391c-5.523438 0-10-4.476562-10-10v-40h411v40c0 5.523438-4.476562 10-10 10zm0 0" fill="#6caac9"/><path d="m181 257v11c0 1.105469-.894531 2-2 2h-86c-1.105469 0-2-.894531-2-2v-11c0-1.105469.894531-2 2-2h86c1.105469 0 2 .894531 2 2zm-21 23h-48c-1.105469 0-2 .894531-2 2v11c0 1.105469.894531 2 2 2h48c1.105469 0 2-.894531 2-2v-11c0-1.105469-.894531-2-2-2zm139-25h-86c-1.105469 0-2 .894531-2 2v11c0 1.105469.894531 2 2 2h86c1.105469 0 2-.894531 2-2v-11c0-1.105469-.894531-2-2-2zm-19 25h-48c-1.105469 0-2 .894531-2 2v11c0 1.105469.894531 2 2 2h48c1.105469 0 2-.894531 2-2v-11c0-1.105469-.894531-2-2-2zm139-25h-86c-1.105469 0-2 .894531-2 2v11c0 1.105469.894531 2 2 2h86c1.105469 0 2-.894531 2-2v-11c0-1.105469-.894531-2-2-2zm-19 25h-48c-1.105469 0-2 .894531-2 2v11c0 1.105469.894531 2 2 2h48c1.105469 0 2-.894531 2-2v-11c0-1.105469-.894531-2-2-2zm0 0" fill="#b8eb6a"/><path d="m296 200c0 22.089844-17.910156 40-40 40s-40-17.910156-40-40 17.910156-40 40-40 40 17.910156 40 40zm0 0" fill="#7ecd00"/><path d="m176 200c0 22.089844-17.910156 40-40 40s-40-17.910156-40-40 17.910156-40 40-40 40 17.910156 40 40zm200-40c-22.089844 0-40 17.910156-40 40s17.910156 40 40 40 40-17.910156 40-40-17.910156-40-40-40zm0 0" fill="#fc5426"/><path d="m303.292969 174.429688c.484375.484374.484375 1.269531 0 1.753906l-49.757813 49.753906c-.964844.96875-2.535156.96875-3.503906 0l-24.777344-24.773438c-.484375-.484374-.484375-1.269531 0-1.753906l7.007813-7.007812c.480469-.484375 1.265625-.484375 1.75 0l16.894531 16.894531c.484375.484375 1.269531.484375 1.75 0l41.875-41.875c.484375-.484375 1.269531-.484375 1.753906 0zm-142.308594 6.558593-5.972656-5.972656c-.78125-.78125-2.046875-.78125-2.828125 0l-16.183594 16.183594-16.183594-16.183594c-.78125-.78125-2.046875-.78125-2.828125 0l-5.972656 5.96875c-.78125.78125-.78125 2.046875 0 2.828125l16.183594 16.1875-16.183594 16.183594c-.78125.78125-.78125 2.046875 0 2.828125l5.96875 5.972656c.78125.78125 2.046875.78125 2.828125 0l16.1875-16.183594 16.183594 16.183594c.78125.78125 2.046875.78125 2.828125 0l5.972656-5.96875c.78125-.78125.78125-2.046875 0-2.828125l-16.183594-16.1875 16.183594-16.183594c.78125-.78125.78125-2.046875 0-2.828125zm223.816406 19.011719 16.183594-16.183594c.78125-.78125.78125-2.046875 0-2.828125l-5.96875-5.972656c-.78125-.78125-2.046875-.78125-2.828125 0l-16.1875 16.183594-16.183594-16.183594c-.78125-.78125-2.046875-.78125-2.828125 0l-5.972656 5.96875c-.78125.78125-.78125 2.046875 0 2.828125l16.183594 16.1875-16.183594 16.183594c-.78125.78125-.78125 2.046875 0 2.828125l5.96875 5.972656c.78125.78125 2.046875.78125 2.828125 0l16.1875-16.183594 16.183594 16.183594c.78125.78125 2.046875.78125 2.828125 0l5.972656-5.96875c.78125-.78125.78125-2.046875 0-2.828125zm0 0" fill="#fff5f5"/><path d="m70 137.5v-32.5c0-2.761719 2.238281-5 5-5h362c2.761719 0 5 2.238281 5 5v32.5zm0 0" fill="#e659a9"/><path d="m97.5 118.75c0 4.140625-3.359375 7.5-7.5 7.5s-7.5-3.359375-7.5-7.5 3.359375-7.5 7.5-7.5 7.5 3.359375 7.5 7.5zm20-7.5c-4.140625 0-7.5 3.359375-7.5 7.5s3.359375 7.5 7.5 7.5 7.5-3.359375 7.5-7.5-3.359375-7.5-7.5-7.5zm295 0h-255c-4.140625 0-7.5 3.359375-7.5 7.5s3.359375 7.5 7.5 7.5h255c4.140625 0 7.5-3.359375 7.5-7.5s-3.359375-7.5-7.5-7.5zm0 0" fill="#c43286"/><path d="m145 400h-60c-2.761719 0-5-2.238281-5-5v-60c0-2.761719 2.238281-5 5-5h60c2.761719 0 5 2.238281 5 5v60c0 2.761719-2.238281 5-5 5zm0 0" fill="#fded32"/><path d="m145 400h-50c-2.761719 0-5-2.238281-5-5v-60c0-2.761719 2.238281-5 5-5h50c2.761719 0 5 2.238281 5 5v60c0 2.761719-2.238281 5-5 5zm0 0" fill="#fdf385"/><path d="m140 349.5v6c0 1.105469-.894531 2-2 2h-36c-1.105469 0-2-.894531-2-2v-6c0-1.105469.894531-2 2-2h36c1.105469 0 2 .894531 2 2zm-2 15.5h-26c-1.105469 0-2 .894531-2 2v6c0 1.105469.894531 2 2 2h26c1.105469 0 2-.894531 2-2v-6c0-1.105469-.894531-2-2-2zm0 0" fill="#e8ce00"/></svg>