<svg height="512pt" viewBox="0 0 512 512.00041" width="512pt" xmlns="http://www.w3.org/2000/svg"><path d="m402 451.539062v1.867188c0 8.144531-4.246094 15.679688-11.160156 19.988281-39.179688 24.433594-85.371094 38.589844-134.757813 38.605469-46.1875.015625-89.507812-12.214844-126.921875-33.601562-5.664062-3.234376-9.160156-9.261719-9.160156-15.785157 0-45.625-36.988281-82.613281-82.613281-82.613281h-1.679688c-2.285156 0-4.398437-1.238281-5.476562-3.25-19.28125-35.972656-30.230469-77.082031-30.230469-120.75 0-141.328125 113.820312-255.539062 255.148438-256 63.425781-.207031 121.496093 22.664062 166.320312 60.679688 5.445312 4.617187 8.53125 11.441406 8.53125 18.582031v3.300781c0 26.199219 21.238281 47.4375 47.4375 47.4375.890625 0 1.714844.480469 2.148438 1.253906 20.539062 36.734375 32.300781 79.046875 32.414062 124.097656.113281 45.464844-11.765625 88.253907-32.625 125.390626-3.214844 5.71875-9.273438 9.257812-15.835938 9.257812-33.988281 0-61.539062 27.550781-61.539062 61.539062zm0 0" fill="#c43286"/><path d="m443.753906 430h-333.753906v-370h310.664062c23.90625 20.105469 44.078126 44.5 59.335938 72.003906v247.992188c-10.058594 18.132812-22.253906 34.914062-36.246094 50.003906zm0 0" fill="#ffdf8e"/><path d="m420 397.5h-120c-9.648438 0-17.5-7.851562-17.5-17.5v-190c0-9.648438 7.851562-17.5 17.5-17.5h120c9.648438 0 17.5 7.851562 17.5 17.5v190c0 9.648438-7.851562 17.5-17.5 17.5zm-120-210c-1.378906 0-2.5 1.121094-2.5 2.5v190c0 1.378906 1.121094 2.5 2.5 2.5h120c1.378906 0 2.5-1.121094 2.5-2.5v-190c0-1.378906-1.121094-2.5-2.5-2.5zm0 0" fill="#fbc56d"/><path d="m340 92.5h-130c-9.648438 0-17.5 7.851562-17.5 17.5v130c0 9.648438 7.851562 17.5 17.5 17.5h130c9.648438 0 17.5-7.851562 17.5-17.5v-130c0-9.648438-7.851562-17.5-17.5-17.5zm2.5 147.5c0 1.378906-1.121094 2.5-2.5 2.5h-130c-1.378906 0-2.5-1.121094-2.5-2.5v-130c0-1.378906 1.121094-2.5 2.5-2.5h130c1.378906 0 2.5 1.121094 2.5 2.5zm0 0" fill="#3691bb"/><path d="m390.015625 474.144531c-.003906-.046875-.015625-.09375-.015625-.144531v-320c0-2.761719 2.238281-5 5-5h40.5c17.535156 0 32.695312-10.144531 39.945312-24.882812 1.566407 2.597656 3.082032 5.230468 4.554688 7.886718v247.992188c-21.40625 38.59375-52.492188 71.066406-89.984375 94.148437zm0 0" fill="#fff2b4"/><path d="m130 60v418.878906c-42.292969-23.960937-77.085938-59.605468-100-102.554687v-316.324219c0-16.566406 13.429688-30 30-30h40c10.25 0 19.292969 5.144531 24.703125 12.984375h.003906c.273438.398437.535157.800781.789063 1.210937.007812.007813.011718.015626.015625.023438.25.398438.488281.804688.714843 1.214844.011719.023437.023438.042968.035157.0625.21875.398437.429687.800781.632812 1.210937.019531.035157.035157.070313.054688.105469.191406.394531.375.796875.554687 1.199219.019532.050781.042969.101562.066406.152343.167969.386719.324219.78125.476563 1.179688.023437.070312.054687.136719.078125.207031.140625.375.269531.761719.398438 1.144531.027343.09375.0625.179688.089843.273438.117188.371094.222657.746094.324219 1.121094.03125.109375.0625.214844.089844.320312.097656.359375.175781.726563.257812 1.089844.027344.128906.0625.253906.089844.386719.070312.351562.132812.707031.191406 1.066406.027344.144531.054688.285156.078125.429687.054688.347657.09375.699219.136719 1.054688.019531.15625.042969.308594.058594.464844.035156.355468.058594.714844.082031 1.074218.011719.15625.027344.308594.035156.464844.027344.515625.042969 1.035156.042969 1.558594zm0 0" fill="#ffe899"/><path d="m130 60v418.878906c-31.394531-17.785156-58.660156-42.011718-80-70.886718v-347.992188c0-16.566406 13.429688-30 30-30h20c10.25 0 19.292969 5.144531 24.703125 12.984375h.003906c.273438.398437.535157.800781.789063 1.210937.007812.007813.011718.015626.015625.023438.25.398438.488281.804688.714843 1.214844.011719.023437.023438.042968.035157.0625.21875.398437.429687.800781.632812 1.210937.019531.035157.035157.070313.054688.105469.191406.394531.375.796875.554687 1.199219.019532.050781.042969.101562.066406.152343.167969.386719.324219.78125.476563 1.179688.023437.070312.054687.136719.078125.207031.140625.375.269531.761719.398438 1.144531.027343.09375.0625.179688.089843.273438.117188.371094.222657.746094.324219 1.121094.03125.109375.0625.214844.089844.320312.097656.359375.175781.726563.257812 1.089844.027344.128906.0625.253906.089844.386719.070312.351562.132812.707031.191406 1.066406.027344.144531.054688.285156.078125.429687.054688.347657.09375.699219.136719 1.054688.019531.15625.042969.308594.058594.464844.035156.355468.058594.714844.082031 1.074218.011719.15625.027344.308594.035156.464844.027344.515625.042969 1.035156.042969 1.558594zm0 0" fill="#fff2b4"/><path d="m100 90h-40c-16.570312 0-30-13.429688-30-30s13.429688-30 30-30h40c16.570312 0 30 13.429688 30 30s-13.429688 30-30 30zm0 0" fill="#fbc56d"/><path d="m100 30h-20c-16.570312 0-30 13.433594-30 30 0 16.570312 13.429688 30 30 30h20c16.570312 0 30-13.429688 30-30 0-16.566406-13.429688-30-30-30zm-20 40c-11.046875 0-20-4.476562-20-10s8.953125-10 20-10 20 4.476562 20 10-8.953125 10-20 10zm0 0" fill="#ffdf8e"/><path d="m240 270h-80v-25.847656c0-11.84375 3.507812-23.425782 10.078125-33.28125l25.761719-38.644532c1.980468-2.96875 6.339844-2.96875 8.320312 0l25.761719 38.644532c6.574219 9.855468 10.078125 21.4375 10.078125 33.28125zm0 0" fill="#f8bb5e"/><path d="m240 245.988281v265.5c-28.140625-1.738281-55.046875-8.015625-80-18.117187v-247.382813c0-11.046875 8.953125-20 20-20s20 8.953125 20 20c0-11.046875 8.953125-20 20-20s20 8.953125 20 20zm0 0" fill="#fd7d43"/><path d="m200 245.988281v259.851563c-13.785156-3.078125-27.152344-7.265625-40-12.46875v-247.382813c0-11.046875 8.953125-20 20-20s20 8.953125 20 20zm0 0" fill="#fc5426"/><path d="m186.667969 185.988281 9.171875-13.761719c1.980468-2.96875 6.339844-2.96875 8.320312 0l9.175782 13.761719zm0 0" fill="#024c67"/></svg>