<svg height="512pt" viewBox="0 0 512 512.00028" width="512pt" xmlns="http://www.w3.org/2000/svg"><path d="m220 500.265625c0 4.890625-4.425781 8.585937-9.238281 7.730469-119.804688-21.367188-210.761719-126.050782-210.761719-251.996094 0-139.789062 112.042969-253.40625 251.222656-255.9570312 143.238282-2.6210938 260.140625 111.5429692 260.773438 254.8046872.234375 52.601563-15.410156 101.53125-42.398438 142.292969-1.1875 1.796875-3.210937 2.859375-5.363281 2.859375h-244.234375zm0 0" fill="#fdbf43"/><path d="m340 170c0 88.367188-71.632812 160-160 160s-160-71.632812-160-160c0-88.363281 71.632812-160 160-160s160 71.636719 160 160zm0 0" fill="#025f80"/><path d="m320 170c0 77.320312-62.679688 140-140 140s-140-62.679688-140-140 62.679688-140 140-140 140 62.679688 140 140zm0 0" fill="#3691bb"/><path d="m306.898438 170c0 70.082031-56.816407 126.898438-126.898438 126.898438s-126.894531-56.816407-126.894531-126.898438 56.8125-126.894531 126.894531-126.894531 126.898438 56.8125 126.898438 126.894531zm0 0" fill="#84deea"/><path d="m180 296.898438c-6.660156 0-13.199219-.519532-19.582031-1.507813-41.738281-22.925781-70.417969-70.457031-70.417969-125.390625 0-54.929688 28.679688-102.464844 70.417969-125.390625 6.382812-.988281 12.921875-1.503906 19.582031-1.503906 70.082031 0 126.894531 56.8125 126.894531 126.894531s-56.8125 126.898438-126.894531 126.898438zm0 0" fill="#ade8f0"/><path d="m196.898438 256.898438c0 9.332031-7.566407 16.894531-16.898438 16.894531s-16.898438-7.5625-16.898438-16.894531c0-9.332032 7.566407-16.898438 16.898438-16.898438s16.898438 7.566406 16.898438 16.898438zm76.207031-103.792969c-9.332031 0-16.898438 7.5625-16.898438 16.894531s7.566407 16.894531 16.898438 16.894531 16.894531-7.5625 16.894531-16.894531-7.566406-16.894531-16.894531-16.894531zm0 0" fill="#84deea"/><path d="m242 119.144531-60.355469 60.351563c-3.90625 3.90625-10.238281 3.90625-14.140625 0-3.90625-3.902344-3.90625-10.234375 0-14.140625l.664063-.667969c-.742188-1.398438-1.167969-2.992188-1.167969-4.6875v-130c0-5.523438 4.476562-10 10-10s10 4.476562 10 10v115.859375l40.859375-40.859375c3.90625-3.902344 10.234375-3.902344 14.140625 0 3.90625 3.90625 3.90625 10.238281 0 14.144531zm0 0" fill="#ecf8d9"/><path d="m103.792969 170c0 9.332031-7.566407 16.898438-16.898438 16.898438s-16.894531-7.566407-16.894531-16.898438 7.566406-16.894531 16.898438-16.894531c9.332031 0 16.894531 7.5625 16.894531 16.894531zm76.207031-26.894531c-14.855469 0-26.898438 12.039062-26.898438 26.894531s12.042969 26.894531 26.898438 26.894531 26.898438-12.039062 26.898438-26.894531-12.042969-26.894531-26.898438-26.894531zm0 0" fill="#2ed0e1"/><path d="m470 310h-260v-50c0-11.046875 8.953125-20 20-20h220c11.046875 0 20 8.953125 20 20zm0 0" fill="#ee4424"/><path d="m470 310h-230v-50c0-11.046875 8.953125-20 20-20h190c11.046875 0 20 8.953125 20 20zm0 0" fill="#fc5426"/><path d="m470 396.515625c-45.765625 69.558594-124.511719 115.484375-214 115.484375-15.707031 0-31.078125-1.421875-46-4.128906v-217.871094h260zm0 0" fill="#fcf498"/><path d="m240 511.492188v-221.492188h230v106.519531c-45.765625 69.554688-124.511719 115.480469-214 115.480469-5.375 0-10.707031-.179688-16-.507812zm0 0" fill="#fdf7bd"/><path d="m275 225v40c0 2.761719-2.238281 5-5 5h-20c-2.761719 0-5-2.238281-5-5v-40c0-8.28125 6.714844-15 15-15s15 6.714844 15 15zm145-15c-8.285156 0-15 6.71875-15 15v40c0 2.761719 2.238281 5 5 5h20c2.761719 0 5-2.238281 5-5v-40c0-8.285156-6.714844-15-15-15zm0 0" fill="#ecf8d9"/><path d="m275 235v30c0 2.761719-2.238281 5-5 5h-20c-2.761719 0-5-2.238281-5-5v-30c0 8.285156 6.714844 15 15 15s15-6.714844 15-15zm145 15c-8.285156 0-15-6.714844-15-15v30c0 2.761719 2.238281 5 5 5h20c2.761719 0 5-2.238281 5-5v-30c0 8.285156-6.714844 15-15 15zm0 0" fill="#ddf4ba"/><path d="m230 350c0-11.046875 8.953125-20 20-20h180c11.046875 0 20 8.953125 20 20s-8.953125 20-20 20h-180c-11.046875 0-20-8.953125-20-20zm80 40h-60c-11.046875 0-20 8.953125-20 20s8.953125 20 20 20h60c11.046875 0 20-8.953125 20-20s-8.953125-20-20-20zm120 0c-11.046875 0-20 8.953125-20 20s8.953125 20 20 20 20-8.953125 20-20-8.953125-20-20-20zm-180 60c-11.046875 0-20 8.953125-20 20s8.953125 20 20 20 20-8.953125 20-20-8.953125-20-20-20zm60 0c-11.046875 0-20 8.953125-20 20s8.953125 20 20 20 20-8.953125 20-20-8.953125-20-20-20zm60 0c-11.046875 0-20 8.953125-20 20 0 8.535156 5.355469 15.800781 12.882812 18.671875 9.167969-4.21875 18.046876-8.957031 26.59375-14.191406.332032-1.441407.523438-2.9375.523438-4.480469 0-11.046875-8.953125-20-20-20zm0-60c-11.046875 0-20 8.953125-20 20s8.953125 20 20 20 20-8.953125 20-20-8.953125-20-20-20zm0 0" fill="#fddfa6"/><path d="m270 350c0 11.046875-8.953125 20-20 20s-20-8.953125-20-20 8.953125-20 20-20 20 8.953125 20 20zm40-20c-11.046875 0-20 8.953125-20 20s8.953125 20 20 20 20-8.953125 20-20-8.953125-20-20-20zm60 0c-11.046875 0-20 8.953125-20 20s8.953125 20 20 20 20-8.953125 20-20-8.953125-20-20-20zm60 0c-11.046875 0-20 8.953125-20 20s8.953125 20 20 20 20-8.953125 20-20-8.953125-20-20-20zm-180 60c-11.046875 0-20 8.953125-20 20s8.953125 20 20 20 20-8.953125 20-20-8.953125-20-20-20zm60 0c-11.046875 0-20 8.953125-20 20s8.953125 20 20 20 20-8.953125 20-20-8.953125-20-20-20zm0 0" fill="#fdac89"/></svg>