<svg height="512pt" viewBox="0 0 512 512.00076" width="512pt" xmlns="http://www.w3.org/2000/svg"><path d="m456.667969 372.722656v36.867188c0 3.535156-1.242188 6.960937-3.496094 9.683594-47.503906 57.300781-119.503906 93.566406-199.949219 92.710937-140.699218-1.492187-253.222656-115.28125-253.222656-255.984375 0-141.386719 114.617188-256 256-256 141.515625 0 255.574219 113.695312 256 255.210938.078125 26.457031-3.859375 51.984374-11.230469 76.003906-1.308593 4.269531-5.289062 7.160156-9.753906 7.160156-18.972656 0-34.347656 15.378906-34.347656 34.347656zm0 0" fill="#7ecd00"/><path d="m302 496c0 4.210938-.578125 8.285156-1.636719 12.160156-7.628906 1.332032-15.375 2.324219-23.222656 2.964844 3.054687-4.261719 4.859375-9.480469 4.859375-15.125 0-14.359375-11.640625-26-26-26s-26 11.640625-26 26c0 5.644531 1.804688 10.863281 4.859375 15.125-7.847656-.640625-15.59375-1.632812-23.222656-2.964844-1.058594-3.875-1.636719-7.949218-1.636719-12.160156 0-21.613281 14.910156-39.734375 35-44.667969v-51.332031h20v50.886719c21.09375 4.183593 37 22.789062 37 45.113281zm0 0" fill="#6bae01"/><path d="m472 127.75h-432c-5.523438 0-10-4.476562-10-10v-25.5c0-5.523438 4.476562-10 10-10h432c5.523438 0 10 4.476562 10 10v25.5c0 5.523438-4.476562 10-10 10zm0 0" fill="#3691bb"/><path d="m472 110h-432c-5.523438 0-10-4.476562-10-10v-7.75c0-5.523438 4.476562-10 10-10h432c5.523438 0 10 4.476562 10 10v7.75c0 5.523438-4.476562 10-10 10zm0 0" fill="#6caac9"/><path d="m441 420h-325.5c-24.578125 0-44.5-19.921875-44.5-44.5v-255.5h370zm0 0" fill="#2ed0e1"/><path d="m441 420h-300.832031c-24.578125 0-44.5-19.921875-44.5-44.5v-255.5h345.332031zm0 0" fill="#84deea"/><path d="m356 240c13.257812 0 24 10.746094 24 24v41.5h-15v-40.5c0-5.523438-4.476562-10-10-10h-87.5v52h-15v-52h-87.5c-5.523438 0-10 4.476562-10 10v40.5h-15v-41.5c0-13.253906 10.746094-24 24-24h88.5v-70h15v70zm0 0" fill="#02c6dc"/><path d="m310 170v40c0 5.523438-4.476562 10-10 10h-80c-5.523438 0-10-4.476562-10-10v-40c0-5.523438 4.476562-10 10-10h80c5.523438 0 10 4.476562 10 10zm-132.5 120h-60c-5.523438 0-10 4.476562-10 10v60c0 5.523438 4.476562 10 10 10h60c5.523438 0 10-4.476562 10-10v-60c0-5.523438-4.476562-10-10-10zm0 0" fill="#e659a9"/><path d="m310 170v20c0 5.523438-4.476562 10-10 10h-80c-5.523438 0-10-4.476562-10-10v-20c0-5.523438 4.476562-10 10-10h80c5.523438 0 10 4.476562 10 10zm92.5 120h-60c-5.523438 0-10 4.476562-10 10v40c0 5.523438 4.476562 10 10 10h60c5.523438 0 10-4.476562 10-10v-40c0-5.523438-4.476562-10-10-10zm-225 0h-60c-5.523438 0-10 4.476562-10 10v40c0 5.523438 4.476562 10 10 10h60c5.523438 0 10-4.476562 10-10v-40c0-5.523438-4.476562-10-10-10zm112.5 0h-60c-5.523438 0-10 4.476562-10 10v40c0 5.523438 4.476562 10 10 10h60c5.523438 0 10-4.476562 10-10v-40c0-5.523438-4.476562-10-10-10zm0 0" fill="#ec74b6"/><path d="m242.5 182.5c0 4.140625-3.359375 7.5-7.5 7.5s-7.5-3.359375-7.5-7.5 3.359375-7.5 7.5-7.5 7.5 3.359375 7.5 7.5zm42.5-7.5c-4.140625 0-7.5 3.359375-7.5 7.5s3.359375 7.5 7.5 7.5 7.5-3.359375 7.5-7.5-3.359375-7.5-7.5-7.5zm-25 0c-4.140625 0-7.5 3.359375-7.5 7.5s3.359375 7.5 7.5 7.5 7.5-3.359375 7.5-7.5-3.359375-7.5-7.5-7.5zm0 0" fill="#df3d9b"/><path d="m441 140h-370c-11.046875 0-20-8.953125-20-20v-30c0-11.046875 8.953125-20 20-20h370c11.046875 0 20 8.953125 20 20v30c0 11.046875-8.953125 20-20 20zm58.5 190h-334.5c-2.761719 0-5 2.238281-5 5v40.5c0 24.578125-19.921875 44.5-44.5 44.5h337.0625c21.742188-26.03125 38.40625-56.449219 48.480469-89.730469-.488281-.160156-1-.269531-1.542969-.269531zm0 0" fill="#ade8f0"/><path d="m441 115.5h-344.5c-11.046875 0-20-8.953125-20-20v-5.5c0-11.046875 8.953125-20 20-20h344.5c11.046875 0 20 8.953125 20 20v5.5c0 11.046875-8.953125 20-20 20zm58.5 214.5h-311.5v45.5c0 24.578125-19.921875 44.5-44.5 44.5h309.0625c21.742188-26.03125 38.40625-56.449219 48.480469-89.730469-.488281-.160156-1-.269531-1.542969-.269531zm0 0" fill="#d3f1f5"/></svg>