<svg height="512pt" viewBox="0 0 512 512" width="512pt" xmlns="http://www.w3.org/2000/svg"><path d="m0 256c0-141.386719 114.613281-256 256-256s256 114.613281 256 256-114.613281 256-256 256-256-114.613281-256-256zm0 0" fill="#fc6930"/><path d="m.0117188 257c0-.335938-.0117188-.664062-.0117188-1 0-141.386719 114.613281-256 256-256s256 114.613281 256 256c0 .335938-.011719.664062-.011719 1zm0 0" fill="#ee4424"/><path d="m407.992188 50c4.085937 3.019531 8.082031 6.160156 11.976562 9.414062.011719.195313.03125.386719.03125.585938v210c0 5.523438-4.476562 10-10 10h-230c-5.523438 0-10-4.476562-10-10v-210c0-5.523438 4.476562-10 10-10zm0 0" fill="#fdcb6b"/><path d="m431 316h-272c-5.523438 0-10-4.476562-10-10v-210c0-5.523438 4.476562-10 10-10h272c5.523438 0 10 4.476562 10 10v210c0 5.523438-4.476562 10-10 10zm0 0" fill="#fddfa6"/><path d="m450 136c5.523438 0 10 4.476562 10 10v210c0 5.523438-4.476562 10-10 10h-310c-5.523438 0-10-4.476562-10-10v-240c0-5.523438 4.476562-10 10-10h105.585938c8.609374 0 16.25 5.507812 18.972656 13.675781l5.441406 16.324219zm0 0" fill="#fcb30b"/><path d="m170 366h-30c-5.523438 0-10-4.476562-10-10v-240c0-5.523438 4.476562-10 10-10h30c-5.523438 0-10 4.476562-10 10v240c0 5.523438 4.476562 10 10 10zm0 0" fill="#fda800"/><path d="m322 416h-272c-5.523438 0-10-4.476562-10-10v-210c0-5.523438 4.476562-10 10-10h272c5.523438 0 10 4.476562 10 10v210c0 5.523438-4.476562 10-10 10zm0 0" fill="#ddf4ba"/><path d="m322 416h-252c-5.523438 0-10-4.476562-10-10v-210c0-5.523438 4.476562-10 10-10h252c5.523438 0 10 4.476562 10 10v210c0 5.523438-4.476562 10-10 10zm0 0" fill="#ecf8d9"/><path d="m200 215v120c0 2.761719-2.238281 5-5 5h-130c-2.761719 0-5-2.238281-5-5v-120c0-2.761719 2.238281-5 5-5h130c2.761719 0 5 2.238281 5 5zm-5 145h-130c-2.761719 0-5 2.238281-5 5v30c0 2.761719 2.238281 5 5 5h130c2.761719 0 5-2.238281 5-5v-30c0-2.761719-2.238281-5-5-5zm0 0" fill="#cff09a"/><path d="m310 217v11c0 1.105469-.894531 2-2 2h-86c-1.105469 0-2-.894531-2-2v-11c0-1.105469.894531-2 2-2h86c1.105469 0 2 .894531 2 2zm-136.78125 19.464844-7.78125-7.78125c-.78125-.78125-2.046875-.78125-2.828125 0l-35.707031 35.710937-35.710938-35.710937c-.78125-.78125-2.046875-.78125-2.828125 0l-7.777343 7.78125c-.78125.777344-.78125 2.046875 0 2.824218l35.710937 35.710938-35.710937 35.710938c-.78125.777343-.78125 2.046874 0 2.824218l7.777343 7.78125c.78125.78125 2.046875.78125 2.828125 0l35.710938-35.710937 35.707031 35.710937c.78125.78125 2.046875.78125 2.828125 0l7.777344-7.78125c.78125-.777344.78125-2.046875 0-2.824218l-35.707032-35.710938 35.710938-35.710938c.777344-.777343.777344-2.046874 0-2.824218zm48.78125 23.535156h66c1.105469 0 2-.894531 2-2v-11c0-1.105469-.894531-2-2-2h-66c-1.105469 0-2 .894531-2 2v11c0 1.105469.894531 2 2 2zm86 15h-86c-1.105469 0-2 .894531-2 2v11c0 1.105469.894531 2 2 2h86c1.105469 0 2-.894531 2-2v-11c0-1.105469-.894531-2-2-2zm-20 30h-66c-1.105469 0-2 .894531-2 2v11c0 1.105469.894531 2 2 2h66c1.105469 0 2-.894531 2-2v-11c0-1.105469-.894531-2-2-2zm0 0" fill="#a1e52e"/><path d="m378.34375 360.117188c9.757812 0 19.292969 2.890624 27.410156 8.300781l31.824219 21.214843c2.445313 1.628907 2.445313 5.222657 0 6.851563l-31.824219 21.214844c-8.117187 5.414062-17.652344 8.300781-27.410156 8.300781h-46.34375v-65.882812zm0 0" fill="#fbc56d"/><path d="m134.707031 360.117188c13.644531 0 24.703125 11.0625 24.703125 24.707031v16.472656c0 13.644531-11.058594 24.703125-24.703125 24.703125s-24.707031-11.0625-24.707031-24.707031v-16.46875c0-13.644531 11.0625-24.707031 24.707031-24.707031zm0 0" fill="#e659a9"/><path d="m157.984375 376.558594c-3.398437 9.578125-12.535156 16.441406-23.277344 16.441406-10.746093 0-19.878906-6.863281-23.277343-16.441406 3.398437-9.578125 12.53125-16.441406 23.277343-16.441406 10.742188 0 19.878907 6.863281 23.277344 16.441406zm0 0" fill="#f18bc3"/><path d="m393.304688 376.589844c0 9.09375-7.371094 16.46875-16.46875 16.46875 9.09375 0 16.46875 7.375 16.46875 16.472656 0 9.09375-7.371094 16.46875-16.46875 16.46875h-242.128907v-65.882812h242.128907c9.09375 0 16.46875 7.375 16.46875 16.472656zm0 0" fill="#017296"/><path d="m376.835938 393.058594c9.09375 0 16.46875 7.375 16.46875 16.472656 0 9.09375-7.371094 16.46875-16.46875 16.46875h-242.128907v-32.941406zm0 0" fill="#025f80"/><path d="m426.246094 382.078125 11.332031 7.554687c2.445313 1.628907 2.445313 5.222657 0 6.851563l-11.332031 7.554687zm0 0" fill="#024c67"/></svg>