<svg height="512pt" viewBox="0 0 512.00011 512" width="512pt" xmlns="http://www.w3.org/2000/svg"><path d="m512 256c0 141.386719-114.613281 256-256 256-19.703125 0-38.882812-2.242188-57.308594-6.457031-1.773437-.40625-3.023437-2-3.023437-3.820313 0-8.960937-7.265625-16.222656-16.222657-16.222656h-34.988281c-1.296875 0-2.574219-.296875-3.730469-.882812-83.410156-42.136719-140.6367182-128.566407-140.726562-228.382813-.125-141.128906 114.871094-256.234375 256-256.234375 141.386719 0 256 114.613281 256 256zm0 0" fill="#a72975"/><path d="m292.5 460c0 4.140625-3.359375 7.5-7.5 7.5s-7.5-3.359375-7.5-7.5 3.359375-7.5 7.5-7.5 7.5 3.359375 7.5 7.5zm17.5-7.5c-4.140625 0-7.5 3.359375-7.5 7.5s3.359375 7.5 7.5 7.5 7.5-3.359375 7.5-7.5-3.359375-7.5-7.5-7.5zm25 0c-4.140625 0-7.5 3.359375-7.5 7.5s3.359375 7.5 7.5 7.5 7.5-3.359375 7.5-7.5-3.359375-7.5-7.5-7.5zm0 0" fill="#df3d9b"/><path d="m180 470h-20c-5.523438 0-10-4.476562-10-10v-140c0-5.523438 4.476562-10 10-10h20c5.523438 0 10 4.476562 10 10v140c0 5.523438-4.476562 10-10 10zm0 0" fill="#84deea"/><path d="m300 200c0 71.796875-58.203125 130-130 130s-130-58.203125-130-130 58.203125-130 130-130 130 58.203125 130 130zm-110 180h-40c-5.523438 0-10 4.476562-10 10v94.265625c18.78125 9.5625 38.898438 16.863281 60 21.574219v-115.839844c0-5.523438-4.476562-10-10-10zm0 0" fill="#ade8f0"/><path d="m300 199.199219c.433594 72.164062-57.9375 130.800781-130 130.800781-1.074219 0-2.144531-.011719-3.210938-.039062-24.597656-.597657-47.980468-11.242188-64.671874-29.320313-23.503907-25.453125-38.117188-61.132813-38.117188-100.640625 0-38.730469 14.046875-73.785156 36.742188-99.128906 17.015624-19 41.105468-30.335938 66.605468-30.84375 1.070313-.023438 2.144532-.03125 3.222656-.027344 70.964844.304688 129 58.234375 129.429688 129.199219zm-110 180.800781h-16c-5.523438 0-10 4.476562-10 10v104.953125c11.617188 4.476563 23.636719 8.125 36 10.886719v-115.839844c0-5.523438-4.476562-10-10-10zm0 0" fill="#d3f1f5"/><path d="m270 200c0 55.226562-44.773438 100-100 100s-100-44.773438-100-100 44.773438-100 100-100 100 44.773438 100 100zm0 0" fill="#0ab59e"/><path d="m140.433594 295.554688c-40.792969-12.609376-70.433594-50.621094-70.433594-95.554688s29.640625-82.945312 70.433594-95.554688c-30.128906 18.949219-50.433594 54.644532-50.433594 95.554688s20.304688 76.605469 50.433594 95.554688zm0 0" fill="#01988c"/><path d="m391 428c0 4.65625-3.1875 8.5625-7.5 9.671875v12.828125c0 4.140625-3.359375 7.5-7.5 7.5s-7.5-3.359375-7.5-7.5v-12.828125c-4.3125-1.113281-7.5-5.015625-7.5-9.671875s3.1875-8.5625 7.5-9.671875v-12.828125c0-4.140625 3.359375-7.5 7.5-7.5s7.5 3.359375 7.5 7.5v12.828125c4.3125 1.109375 7.5 5.015625 7.5 9.671875zm0 0" fill="#d3f1f5"/><path d="m383.992188 428h-15.980469c-5.011719 0-9.691407-2.503906-12.46875-6.671875l-16.183594-24.277344c-2.1875-3.285156-3.359375-7.144531-3.359375-11.09375v-335.957031h80v335.957031c0 3.949219-1.167969 7.808594-3.359375 11.09375l-16.183594 24.277344c-2.777343 4.167969-7.457031 6.671875-12.464843 6.671875zm0 0" fill="#0ab59e"/><path d="m416 50v335.957031.011719c0-.003906 0-.007812 0-.011719v-17.957031h-50.144531c-3.234375 0-5.855469-2.621094-5.855469-5.855469v-8.289062c0-3.230469 2.621094-5.855469 5.855469-5.855469h23.800781c5.328125 0 9.976562-4.019531 10.320312-9.332031.378907-5.828125-4.234374-10.667969-9.976562-10.667969h-24.144531c-3.234375 0-5.855469-2.621094-5.855469-5.855469v-272.144531zm-47.734375 338c-4.605469 0-7.496094 5.128906-4.960937 8.972656.015624.027344.035156.050782.054687.082032l20.632813 30.945312c5.007812 0 9.6875-2.503906 12.464843-6.671875l16.183594-24.277344c1.8125-2.714843 2.910156-5.824219 3.242187-9.050781zm47.691406-.90625c-.019531.300781-.042969.601562-.074219.902344.03125-.300782.058594-.601563.074219-.902344zm0 0" fill="#0ed1b2"/><path d="m416 40v20c0 11.046875-8.953125 20-20 20h-40c-11.046875 0-20-8.953125-20-20v-20c0-11.046875 8.953125-20 20-20h40c11.046875 0 20 8.953125 20 20zm0 0" fill="#fc9302"/><path d="m336 238v-188h80v188zm0 0" fill="#fda800"/><path d="m360 238v-188h56v188zm0 0" fill="#fdbf43"/><path d="m420 206h-30c-5.523438 0-10-4.476562-10-10v-148c0-5.523438 4.476562-10 10-10h30c5.523438 0 10 4.476562 10 10v148c0 5.523438-4.476562 10-10 10zm0 0" fill="#0ab59e"/><path d="m420 206h-14.332031c-5.523438 0-10-4.476562-10-10v-148c0-5.523438 4.476562-10 10-10h14.332031c5.523438 0 10 4.476562 10 10v148c0 5.523438-4.476562 10-10 10zm0 0" fill="#0ed1b2"/><path d="m237.5 162.5v11c0 1.105469-.894531 2-2 2h-22.5v22.5c0 1.105469-.894531 2-2 2h-11c-1.105469 0-2-.894531-2-2v-22.5h-22.5c-1.105469 0-2-.894531-2-2v-11c0-1.105469.894531-2 2-2h22.5v-22.5c0-1.105469.894531-2 2-2h11c1.105469 0 2 .894531 2 2v22.5h22.5c1.105469 0 2 .894531 2 2zm0 0" fill="#d3f1f5"/></svg>