<svg height="512pt" viewBox="0 0 512 512.00035" width="512pt" xmlns="http://www.w3.org/2000/svg"><path d="m488.691406 149.171875c14.777344 32.128906 23.109375 67.839844 23.304688 105.476563.734375 141.308593-114.257813 257.121093-255.570313 257.351562-83.316406.136719-157.363281-39.539062-204.207031-101.054688-2.527344-3.316406-3.882812-7.382812-3.882812-11.554687v-12.414063c0-13.101562-10.625-23.726562-23.730469-23.726562-.671875 0-1.289063-.390625-1.566407-1.003906-14.785156-32.363282-23.039062-68.339844-23.039062-106.246094 0-38.082031 8.332031-74.214844 23.246094-106.695312.644531-1.410157 2.066406-2.308594 3.613281-2.308594 11.859375 0 21.476563-9.613282 21.476563-21.472656v-13.351563c0-3.890625 1.269531-7.675781 3.621093-10.773437 46.75-61.605469 120.746094-101.398438 204.042969-101.398438 83.398438 0 157.472656 39.886719 204.210938 101.617188 1.140624 1.507812 1.746093 3.355468 1.746093 5.246093v16.804688c0 12.886719 10.445313 23.328125 23.332031 23.328125 1.457032.003906 2.792969.847656 3.402344 2.175781zm0 0" fill="#025f80"/><path d="m361.5 263.5v120c0 2.761719 2.238281 5 5 5h73.5v15h-83.5c-5.523438 0-10-4.476562-10-10v-130h-83v198.5h-15v-198.5h-95v130c0 5.523438-4.476562 10-10 10h-83.5v-15h73.5c2.761719 0 5-2.238281 5-5v-120h-58.5v-15h58.5v-120c0-2.761719-2.238281-5-5-5h-73.5v-15h83.5c5.523438 0 10 4.476562 10 10v130h95v-198.5h15v198.5h83v-130c0-5.523438 4.476562-10 10-10h73.5v15h-63.5c-2.761719 0-5 2.238281-5 5v120h83.5v15zm0 0" fill="#0680ae"/><path d="m289 31v60c0 5.523438-4.476562 10-10 10h-60c-5.523438 0-10-4.476562-10-10v-60c0-5.523438 4.476562-10 10-10h60c5.523438 0 10 4.476562 10 10zm-10 380h-60c-5.523438 0-10 4.476562-10 10v60c0 5.523438 4.476562 10 10 10h60c5.523438 0 10-4.476562 10-10v-60c0-5.523438-4.476562-10-10-10zm-186-310h-40.738281c-11.46875 15.054688-21.316407 31.410156-29.261719 48.820312v21.179688c0 5.523438 4.476562 10 10 10h60c5.523438 0 10-4.476562 10-10v-60c0-5.523438-4.476562-10-10-10zm0 230h-60c-5.523438 0-10 4.476562-10 10v21.179688c7.945312 17.410156 17.792969 33.765624 29.261719 48.820312h40.738281c5.523438 0 10-4.476562 10-10v-60c0-5.523438-4.476562-10-10-10zm0-115h-60c-5.523438 0-10 4.476562-10 10v60c0 5.523438 4.476562 10 10 10h60c5.523438 0 10-4.476562 10-10v-60c0-5.523438-4.476562-10-10-10zm312-35h15c5.523438 0 10-4.476562 10-10v-60c0-5.523438-4.476562-10-10-10h-15c-5.523438 0-10 4.476562-10 10v60c0 5.523438 4.476562 10 10 10zm60 150h-60c-5.523438 0-10 4.476562-10 10v60c0 5.523438 4.476562 10 10 10h60c5.523438 0 10-4.476562 10-10v-60c0-5.523438-4.476562-10-10-10zm0-115h-60c-5.523438 0-10 4.476562-10 10v60c0 5.523438 4.476562 10 10 10h60c5.523438 0 10-4.476562 10-10v-60c0-5.523438-4.476562-10-10-10zm0 0" fill="#fcb30b"/><path d="m303 31v60c0 5.523438-4.476562 10-10 10h-60c-5.523438 0-10-4.476562-10-10v-60c0-5.523438 4.476562-10 10-10h60c5.523438 0 10 4.476562 10 10zm-10 380h-60c-5.523438 0-10 4.476562-10 10v60c0 5.523438 4.476562 10 10 10h60c5.523438 0 10-4.476562 10-10v-60c0-5.523438-4.476562-10-10-10zm-186-310h-54.738281c-5.460938 7.167969-10.566407 14.625-15.261719 22.359375v47.640625c0 5.523438 4.476562 10 10 10h60c5.523438 0 10-4.476562 10-10v-60c0-5.523438-4.476562-10-10-10zm0 230h-60c-5.523438 0-10 4.476562-10 10v47.640625c4.695312 7.734375 9.800781 15.191406 15.261719 22.359375h54.738281c5.523438 0 10-4.476562 10-10v-60c0-5.523438-4.476562-10-10-10zm0-115h-60c-5.523438 0-10 4.476562-10 10v60c0 5.523438 4.476562 10 10 10h60c5.523438 0 10-4.476562 10-10v-60c0-5.523438-4.476562-10-10-10zm352.738281-115h-40.738281c-5.523438 0-10 4.476562-10 10v60c0 5.523438 4.476562 10 10 10h60c5.523438 0 10-4.476562 10-10v-21.179688c-7.945312-17.410156-17.792969-33.765624-29.261719-48.820312zm19.261719 230h-60c-5.523438 0-10 4.476562-10 10v60c0 5.523438 4.476562 10 10 10h60c5.523438 0 10-4.476562 10-10v-60c0-5.523438-4.476562-10-10-10zm0-115h-60c-5.523438 0-10 4.476562-10 10v60c0 5.523438 4.476562 10 10 10h60c5.523438 0 10-4.476562 10-10v-60c0-5.523438-4.476562-10-10-10zm0 0" fill="#fdbf43"/><path d="m240 46c0 5.523438-4.476562 10-10 10s-10-4.476562-10-10 4.476562-10 10-10 10 4.476562 10 10zm-10 20c-5.523438 0-10 4.476562-10 10s4.476562 10 10 10 10-4.476562 10-10-4.476562-10-10-10zm0 360c-5.523438 0-10 4.476562-10 10s4.476562 10 10 10 10-4.476562 10-10-4.476562-10-10-10zm0 30c-5.523438 0-10 4.476562-10 10s4.476562 10 10 10 10-4.476562 10-10-4.476562-10-10-10zm-186-340c-.890625 0-1.746094.128906-2.566406.34375-2.503906 3.839844-4.917969 7.746094-7.214844 11.722656.949219 4.53125 4.96875 7.933594 9.78125 7.933594 5.523438 0 10-4.476562 10-10s-4.476562-10-10-10zm0 30c-5.523438 0-10 4.476562-10 10s4.476562 10 10 10 10-4.476562 10-10-4.476562-10-10-10zm0 200c-5.523438 0-10 4.476562-10 10s4.476562 10 10 10 10-4.476562 10-10-4.476562-10-10-10zm0 30c-4.8125 0-8.832031 3.402344-9.78125 7.933594 2.296875 3.976562 4.710938 7.882812 7.214844 11.722656.820312.214844 1.675781.34375 2.566406.34375 5.523438 0 10-4.476562 10-10s-4.476562-10-10-10zm0-145c-5.523438 0-10 4.476562-10 10s4.476562 10 10 10 10-4.476562 10-10-4.476562-10-10-10zm0 30c-5.523438 0-10 4.476562-10 10s4.476562 10 10 10 10-4.476562 10-10-4.476562-10-10-10zm372-125c5.523438 0 10-4.476562 10-10s-4.476562-10-10-10-10 4.476562-10 10 4.476562 10 10 10zm0 10c-5.523438 0-10 4.476562-10 10s4.476562 10 10 10 10-4.476562 10-10-4.476562-10-10-10zm0 200c-5.523438 0-10 4.476562-10 10s4.476562 10 10 10 10-4.476562 10-10-4.476562-10-10-10zm0 30c-5.523438 0-10 4.476562-10 10s4.476562 10 10 10 10-4.476562 10-10-4.476562-10-10-10zm0-145c-5.523438 0-10 4.476562-10 10s4.476562 10 10 10 10-4.476562 10-10-4.476562-10-10-10zm0 30c-5.523438 0-10 4.476562-10 10s4.476562 10 10 10 10-4.476562 10-10-4.476562-10-10-10zm0 0" fill="#fc9302"/><path d="m290 46c0 2.761719-2.238281 5-5 5h-30c-2.761719 0-5-2.238281-5-5s2.238281-5 5-5h30c2.761719 0 5 2.238281 5 5zm-5 25h-30c-2.761719 0-5 2.238281-5 5s2.238281 5 5 5h30c2.761719 0 5-2.238281 5-5s-2.238281-5-5-5zm0 360h-30c-2.761719 0-5 2.238281-5 5s2.238281 5 5 5h30c2.761719 0 5-2.238281 5-5s-2.238281-5-5-5zm0 30h-30c-2.761719 0-5 2.238281-5 5s2.238281 5 5 5h30c2.761719 0 5-2.238281 5-5s-2.238281-5-5-5zm-186-340h-30c-2.761719 0-5 2.238281-5 5s2.238281 5 5 5h30c2.761719 0 5-2.238281 5-5s-2.238281-5-5-5zm0 30h-30c-2.761719 0-5 2.238281-5 5s2.238281 5 5 5h30c2.761719 0 5-2.238281 5-5s-2.238281-5-5-5zm0 200h-30c-2.761719 0-5 2.238281-5 5s2.238281 5 5 5h30c2.761719 0 5-2.238281 5-5s-2.238281-5-5-5zm0 30h-30c-2.761719 0-5 2.238281-5 5s2.238281 5 5 5h30c2.761719 0 5-2.238281 5-5s-2.238281-5-5-5zm0-145h-30c-2.761719 0-5 2.238281-5 5s2.238281 5 5 5h30c2.761719 0 5-2.238281 5-5s-2.238281-5-5-5zm0 30h-30c-2.761719 0-5 2.238281-5 5s2.238281 5 5 5h30c2.761719 0 5-2.238281 5-5s-2.238281-5-5-5zm342-135h30c2.761719 0 5-2.238281 5-5s-2.238281-5-5-5h-30c-2.761719 0-5 2.238281-5 5s2.238281 5 5 5zm30 20h-30c-2.761719 0-5 2.238281-5 5s2.238281 5 5 5h30c2.761719 0 5-2.238281 5-5s-2.238281-5-5-5zm0 200h-30c-2.761719 0-5 2.238281-5 5s2.238281 5 5 5h30c2.761719 0 5-2.238281 5-5s-2.238281-5-5-5zm0 30h-30c-2.761719 0-5 2.238281-5 5s2.238281 5 5 5h30c2.761719 0 5-2.238281 5-5s-2.238281-5-5-5zm0-145h-30c-2.761719 0-5 2.238281-5 5s2.238281 5 5 5h30c2.761719 0 5-2.238281 5-5s-2.238281-5-5-5zm0 30h-30c-2.761719 0-5 2.238281-5 5s2.238281 5 5 5h30c2.761719 0 5-2.238281 5-5s-2.238281-5-5-5zm0 0" fill="#fda800"/><path d="m311.113281 283.691406c-14.53125 12.914063-22.609375 31.601563-22.609375 51.042969v1.324219h-61.835937v-1.5625c0-19.605469-8.5625-38.105469-23.109375-51.25-16.402344-14.820313-26.679688-36.285156-26.582032-60.152344.179688-44.445312 36.164063-80.277344 80.609376-80.277344 44.519531 0 80.609374 36.089844 80.609374 80.609375 0 23.972657-10.46875 45.503907-27.082031 60.265625zm0 0" fill="#fded32"/><path d="m288.503906 334.734375v1.324219h-40.859375v-1.5625c0-19.605469-8.558593-38.105469-23.105469-51.25-16.402343-14.820313-26.679687-36.285156-26.582031-60.152344.167969-40.886719 30.632813-74.480469 70.109375-79.597656 39.566406 5.136718 70.128906 38.964844 70.128906 79.929687 0 23.976563-10.46875 45.503907-27.082031 60.265625-14.53125 12.914063-22.609375 31.601563-22.609375 51.042969zm0 0" fill="#fdf385"/><path d="m298.996094 330.535156c0 4.945313-3.25 9.128906-7.730469 10.535156v.507813c0 15.246094-12.363281 27.605469-27.609375 27.605469h-12.144531c-15.246094 0-27.605469-12.359375-27.605469-27.605469v-.507813c-4.480469-1.40625-7.730469-5.589843-7.730469-10.535156 0-6.097656 4.945313-11.042968 11.042969-11.042968h60.730469c6.101562 0 11.046875 4.945312 11.046875 11.042968zm0 0" fill="#88b9d3"/><path d="m298.996094 330.535156c0 4.945313-3.25 9.128906-7.730469 10.535156v.507813c0 13.257813-9.347656 24.328125-21.808594 26.992187-8.304687-1.777343-15.226562-7.285156-18.917969-14.683593-.925781-1.851563.386719-4.027344 2.457032-4.027344h24.742187c2.328125 0 4.207031-1.921875 4.136719-4.265625-.066406-2.269531-2.042969-4.015625-4.3125-4.015625h-34.332031c-6.101563 0-11.042969-4.945313-11.042969-11.042969s4.945312-11.042968 11.042969-11.042968h44.722656c6.097656 0 11.042969 4.945312 11.042969 11.042968zm0 0" fill="#b3d1e1"/><path d="m367.871094 160.285156-107.027344 107.023438c-1.824219 1.824218-4.777344 1.824218-6.597656 0l-46.683594-46.667969c-.914062-.914063-.914062-2.390625 0-3.300781l13.199219-13.203125c.914062-.910157 2.390625-.910157 3.300781 0l31.824219 31.824219c.910156.910156 2.390625.910156 3.300781 0l92.179688-92.179688c.910156-.910156 2.390624-.910156 3.300781 0l13.203125 13.203125c.910156.910156.910156 2.386719 0 3.300781zm0 0" fill="#fc5426"/></svg>