<svg height="512pt" viewBox="0 0 512 512" width="512pt" xmlns="http://www.w3.org/2000/svg"><path d="m512 256c0 141.386719-114.613281 256-256 256s-256-114.613281-256-256 114.613281-256 256-256 256 114.613281 256 256zm0 0" fill="#c43286"/><path d="m100 65v40c0 2.761719-2.238281 5-5 5h-10c-2.761719 0-5-2.238281-5-5v-40c0-2.761719 2.238281-5 5-5h10c2.761719 0 5 2.238281 5 5zm215-5h-10c-2.761719 0-5 2.238281-5 5v40c0 2.761719 2.238281 5 5 5h10c2.761719 0 5-2.238281 5-5v-40c0-2.761719-2.238281-5-5-5zm0 70h-10c-2.761719 0-5 2.238281-5 5v40c0 2.761719 2.238281 5 5 5h10c2.761719 0 5-2.238281 5-5v-40c0-2.761719-2.238281-5-5-5zm0 0" fill="#84deea"/><path d="m300 420h-200c-5.523438 0-10-4.476562-10-10v-370c0-5.523438 4.476562-10 10-10h200c5.523438 0 10 4.476562 10 10v370c0 5.523438-4.476562 10-10 10zm0 0" fill="#ade8f0"/><path d="m300 30h-179.046875c-5.523437 0-10 4.476562-10 10v370c0 5.523438 4.476563 10 10 10h179.046875c5.523438 0 10-4.476562 10-10v-370c0-5.523438-4.476562-10-10-10zm-78.75 7.5c4.140625 0 7.5 3.359375 7.5 7.5s-3.359375 7.5-7.5 7.5-7.5-3.359375-7.5-7.5 3.359375-7.5 7.5-7.5zm-21.25 0c4.140625 0 7.5 3.359375 7.5 7.5s-3.359375 7.5-7.5 7.5-7.5-3.359375-7.5-7.5 3.359375-7.5 7.5-7.5zm-21.25 0c4.140625 0 7.5 3.359375 7.5 7.5s-3.359375 7.5-7.5 7.5-7.5-3.359375-7.5-7.5 3.359375-7.5 7.5-7.5zm43.75 367.5h-45c-4.140625 0-7.5-3.359375-7.5-7.5s3.359375-7.5 7.5-7.5h45c4.140625 0 7.5 3.359375 7.5 7.5s-3.359375 7.5-7.5 7.5zm0 0" fill="#d3f1f5"/><path d="m426 445v2.386719c-12.054688 10.710937-25.121094 20.304687-39.050781 28.613281h-8.949219c-11.046875 0-20-8.953125-20-20v-11c0-11.046875 8.953125-20 20-20h28c11.046875 0 20 8.953125 20 20zm0 0" fill="#6caac9"/><path d="m423.144531 136.804688c1.863281 2.792968 2.855469 6.074218 2.855469 9.429687v301.148437c-1.179688 1.050782-2.363281 2.089844-3.5625 3.117188h-64.4375v-304.265625c0-3.355469.992188-6.636719 2.855469-9.429687l27.609375-41.414063c1.679687-2.523437 5.390625-2.523437 7.070312 0zm0 0" fill="#88b9d3"/><path d="m385.445312 144.5c-3.914062 0-6.390624-4.359375-4.234374-7.625.015624-.023438.03125-.046875.046874-.070312l20.941407-31.414063 20.945312 31.414063c1.683594 2.523437 2.648438 5.449218 2.820313 8.464843-.015625-.257812-.035156-.511719-.0625-.769531zm-2.058593 34h20.222656c4.527344 0 8.480469 3.414062 8.773437 7.933594.320313 4.953125-3.601562 9.066406-8.484374 9.066406h-20.511719c-2.753907 0-4.988281 2.234375-4.988281 4.988281v250.011719h44.039062c1.195312-1.027344 2.382812-2.066406 3.5625-3.113281v-285.886719h-42.613281c-2.753907 0-4.988281 2.234375-4.988281 4.988281v7.023438c0 2.753906 2.234374 4.988281 4.988281 4.988281zm0 0" fill="#b3d1e1"/><path d="m310 380h-220v-320h220zm0 0" fill="#0ab59e"/><path d="m310 380h-200v-320h200zm0 0" fill="#0ed1b2"/><path d="m280 325c0 13.808594-11.191406 25-25 25s-25-11.191406-25-25 11.191406-25 25-25 25 11.191406 25 25zm-155-235c-13.808594 0-25 11.191406-25 25s11.191406 25 25 25 25-11.191406 25-25-11.191406-25-25-25zm0 0" fill="#01988c"/><path d="m260 122v11c0 1.105469-.894531 2-2 2h-86c-1.105469 0-2-.894531-2-2v-11c0-1.105469.894531-2 2-2h86c1.105469 0 2 .894531 2 2zm28-29.5h-116c-1.105469 0-2 .894531-2 2v11c0 1.105469.894531 2 2 2h116c1.105469 0 2-.894531 2-2v-11c0-1.105469-.894531-2-2-2zm-135.5 227.5c-4.140625 0-7.5 3.359375-7.5 7.5s3.359375 7.5 7.5 7.5 7.5-3.359375 7.5-7.5-3.359375-7.5-7.5-7.5zm25 0c-4.140625 0-7.5 3.359375-7.5 7.5s3.359375 7.5 7.5 7.5 7.5-3.359375 7.5-7.5-3.359375-7.5-7.5-7.5zm25 0c-4.140625 0-7.5 3.359375-7.5 7.5s3.359375 7.5 7.5 7.5 7.5-3.359375 7.5-7.5-3.359375-7.5-7.5-7.5zm0 0" fill="#89e9d9"/><path d="m260 290h-200c-5.523438 0-10-4.476562-10-10v-100c0-5.523438 4.476562-10 10-10h200c5.523438 0 10 4.476562 10 10v100c0 5.523438-4.476562 10-10 10zm0 0" fill="#ddf4ba"/><path d="m270 180v128.378906c0 6.417969-5.203125 11.621094-11.621094 11.621094-5.003906 0-9.445312-3.199219-11.027344-7.945312l-7.351562-22.054688h-160c-5.523438 0-10-4.476562-10-10v-100c0-5.523438 4.476562-10 10-10h180c5.523438 0 10 4.476562 10 10zm0 0" fill="#ecf8d9"/><path d="m170 208v-11c0-1.105469.894531-2 2-2h50c1.105469 0 2 .894531 2 2v11c0 1.105469-.894531 2-2 2h-50c-1.105469 0-2-.894531-2-2zm82 14.5h-80c-1.105469 0-2 .894531-2 2v11c0 1.105469.894531 2 2 2h80c1.105469 0 2-.894531 2-2v-11c0-1.105469-.894531-2-2-2zm-30 27.5h-50c-1.105469 0-2 .894531-2 2v11c0 1.105469.894531 2 2 2h50c1.105469 0 2-.894531 2-2v-11c0-1.105469-.894531-2-2-2zm0 0" fill="#cff09a"/><path d="m140 270h-60c-5.523438 0-10-4.476562-10-10v-60c0-5.523438 4.476562-10 10-10h60c5.523438 0 10 4.476562 10 10v60c0 5.523438-4.476562 10-10 10zm0 0" fill="#7ecd00"/><path d="m76.667969 210c0-7.363281 5.96875-13.332031 13.332031-13.332031s13.332031 5.96875 13.332031 13.332031-5.96875 13.332031-13.332031 13.332031-13.332031-5.96875-13.332031-13.332031zm65.941406 15.539062-5.226563-6.84375c-1.410156-1.84375-4.1875-1.84375-5.597656 0l-20.757812 27.160157c-1.40625 1.84375-4.183594 1.84375-5.59375 0l-6.675782-8.734375c-1.40625-1.84375-4.183593-1.84375-5.59375 0l-15.710937 20.554687c-1.769531 2.316407-.117187 5.65625 2.800781 5.65625h59.558594c1.945312 0 3.519531-1.574219 3.519531-3.519531v-32.136719c0-.773437-.253906-1.523437-.722656-2.136719zm0 0" fill="#b8eb6a"/></svg>