<svg height="512pt" viewBox="0 0 512 512" width="512pt" xmlns="http://www.w3.org/2000/svg"><path d="m512 256c0 141.386719-114.613281 256-256 256s-256-114.613281-256-256 114.613281-256 256-256 256 114.613281 256 256zm0 0" fill="#7ecd00"/><path d="m430 345c0 4.140625-3.359375 7.5-7.5 7.5h-53.285156v115.5c0 1.105469-.894532 2-2 2h-11c-1.105469 0-2-.894531-2-2v-115.5h-226.714844v90c0 4.140625-3.359375 7.5-7.5 7.5s-7.5-3.359375-7.5-7.5v-90h-93.667969c-2.007812-4.925781-3.875-9.925781-5.578125-15h99.246094v-162.5h-99.40625c1.6875-5.074219 3.539062-10.074219 5.535156-15h93.871094v-42.5c0-4.140625 3.359375-7.5 7.5-7.5s7.5 3.359375 7.5 7.5v42.5h210.5c1.105469 0 2 .894531 2 2v11c0 1.105469-.894531 2-2 2h-210.5v162.5h226.714844v-175.5c0-1.105469.894531-2 2-2h11c1.105468 0 2 .894531 2 2v175.5h53.285156c4.140625 0 7.5 3.359375 7.5 7.5zm-310-245c4.140625 0 7.5-3.359375 7.5-7.5s-3.359375-7.5-7.5-7.5-7.5 3.359375-7.5 7.5 3.359375 7.5 7.5 7.5zm0 360c-4.140625 0-7.5 3.359375-7.5 7.5 0 .183594.015625.363281.027344.542969 3.300781 2.238281 6.660156 4.398437 10.070312 6.484375 2.859375-1.058594 4.902344-3.800782 4.902344-7.027344 0-4.140625-3.359375-7.5-7.5-7.5zm327.5-122.5c-4.140625 0-7.5 3.359375-7.5 7.5s3.359375 7.5 7.5 7.5 7.5-3.359375 7.5-7.5-3.359375-7.5-7.5-7.5zm25 0c-4.140625 0-7.5 3.359375-7.5 7.5s3.359375 7.5 7.5 7.5 7.5-3.359375 7.5-7.5-3.359375-7.5-7.5-7.5zm-352.5-262.5c4.140625 0 7.5-3.359375 7.5-7.5s-3.359375-7.5-7.5-7.5-7.5 3.359375-7.5 7.5 3.359375 7.5 7.5 7.5zm0 0" fill="#6bae01"/><path d="m170 320v56.566406c0 5.523438-4.476562 10-10 10h-80c-5.523438 0-10-4.476562-10-10v-56.566406c0-5.523438 4.476562-10 10-10h80c5.523438 0 10 4.476562 10 10zm240 110h-96.570312c-5.523438 0-10 4.476562-10 10v63.429688c0 1.425781.304687 2.777343.839843 4.003906 43.484375-8.296875 83.058594-27.582032 115.730469-54.875v-12.558594c0-5.523438-4.476562-10-10-10zm0 0" fill="#fc6930"/><path d="m108.621094 386.566406h-28.621094c-5.523438 0-10-4.476562-10-10v-56.566406c0-5.523438 4.476562-10 10-10h28.621094c-5.523438 0-10 4.476562-10 10v56.566406c0 5.523438 4.476562 10 10 10zm223.429687 53.433594c0-5.523438 4.476563-10 10-10h-28.617187c-5.523438 0-10 4.476562-10 10v63.429688c0 1.425781.300781 2.777343.839844 4.003906 9.453124-1.800782 18.722656-4.128906 27.78125-6.941406v-60.492188zm0 0" fill="#fc5426"/><path d="m382.929688 366.214844c-11.714844 11.714844-30.710938 11.714844-42.425782 0-11.71875-11.71875-11.71875-30.710938 0-42.429688 11.714844-11.714844 30.710938-11.714844 42.425782 0 11.714843 11.71875 11.714843 30.710938 0 42.429688zm-255.859376-234.070313c-3.90625-3.90625-10.234374-3.90625-14.140624 0l-28.285157 28.285157c-3.90625 3.90625-3.90625 10.234374 0 14.140624l28.285157 28.285157c3.90625 3.90625 10.234374 3.90625 14.140624 0l28.285157-28.285157c3.90625-3.90625 3.90625-10.234374 0-14.140624zm0 0" fill="#fde803"/><path d="m382.929688 366.214844c-2.785157 2.78125-5.984376 4.898437-9.398438 6.359375-3.410156-1.460938-6.609375-3.578125-9.394531-6.359375-11.714844-11.71875-11.714844-30.710938 0-42.429688 2.785156-2.78125 5.984375-4.898437 9.394531-6.359375 3.414062 1.460938 6.613281 3.578125 9.398438 6.359375 11.714843 11.71875 11.714843 30.710938 0 42.429688zm-251.113282-229.324219-23.539062 23.539063c-3.902344 3.90625-3.902344 10.234374 0 14.140624l23.539062 23.539063 23.539063-23.539063c3.90625-3.90625 3.90625-10.234374 0-14.140624zm0 0" fill="#fded32"/><path d="m176.503906 349.640625-14.144531-14.144531c-3.902344-3.902344-3.902344-10.234375 0-14.140625l98.996094-98.996094c3.90625-3.902344 10.238281-3.902344 14.140625 0l14.144531 14.144531c3.90625 3.902344 3.90625 10.234375 0 14.140625l-98.996094 98.996094c-3.90625 3.90625-10.238281 3.90625-14.140625 0zm0 0" fill="#84deea"/><path d="m452.273438 243.574219c-50.765626 50.769531-133.078126 50.769531-183.847657 0s-50.769531-133.082031 0-183.847657c50.769531-50.769531 133.082031-50.769531 183.847657 0 50.769531 50.765626 50.769531 133.078126 0 183.847657zm-233.34375 21.210937c-3.90625-3.902344-10.238282-3.902344-14.144532 0l-120.207031 120.210938c-3.902344 3.902344-3.902344 10.234375 0 14.140625l28.285156 28.285156c3.90625 3.902344 10.238281 3.902344 14.140625 0l120.210938-120.207031c3.902344-3.90625 3.902344-10.238282 0-14.144532zm0 0" fill="#ade8f0"/><path d="m452.839844 243.003906c-50.722656 51.335938-133.457032 51.527344-184.414063.570313-.757812-.761719-1.503906-1.527344-2.242187-2.300781-16.96875-17.8125-25.976563-41.875-24.996094-66.460938 1.378906-34.617188 16.273438-70.179688 44.210938-98.117188 27.386718-27.386718 62.105468-42.242187 96.074218-44.113281 25.46875-1.40625 50.515625 7.617188 68.910156 25.285157.769532.742187 1.535157 1.496093 2.292969 2.261718 49.964844 50.398438 50.042969 132.394532.164063 182.875zm-216.941406 38.753906c-3.90625-3.90625-10.238282-3.90625-14.140626 0l-120.207031 120.207032c-3.90625 3.90625-3.90625 10.238281 0 14.144531l11.3125 11.3125c3.902344 3.90625 10.234375 3.90625 14.140625 0l120.207032-120.207031c3.90625-3.90625 3.90625-10.238282 0-14.144532zm0 0" fill="#d3f1f5"/><path d="m431.0625 222.359375c-39.054688 39.050781-102.371094 39.050781-141.421875 0s-39.050781-102.367187 0-141.421875c39.050781-39.050781 102.367187-39.050781 141.421875 0 39.050781 39.054688 39.050781 102.371094 0 141.421875zm0 0" fill="#0ab59e"/><path d="m265.453125 183.238281c-11.542969-34.769531-3.488281-74.625 24.1875-102.300781 27.671875-27.671875 67.527344-35.726562 102.300781-24.183594-28.746094 3.921875-58.699218 18.582032-83.300781 43.183594-24.605469 24.601562-39.261719 54.558594-43.1875 83.300781zm0 0" fill="#01988c"/><path d="m479.246094 75.679688-118.199219 118.199218c-2.015625 2.011719-5.277344 2.011719-7.289063 0l-51.558593-51.542968c-1.003907-1.007813-1.003907-2.640626 0-3.648438l14.582031-14.578125c1.007812-1.007813 2.636719-1.007813 3.644531 0l35.148438 35.144531c1.003906 1.007813 2.636719 1.007813 3.644531 0l101.800781-101.800781c1.007813-1.007813 2.636719-1.007813 3.644531 0l14.582032 14.578125c1.007812 1.007812 1.007812 2.640625 0 3.648438zm0 0" fill="#024c67"/></svg>