<svg height="512pt" viewBox="0 0 512 512.00049" width="512pt" xmlns="http://www.w3.org/2000/svg"><path d="m465 403.480469c-46.570312 65.722656-123.28125 108.71875-209.605469 108.519531-141.105469-.328125-255.394531-114.816406-255.394531-256 0-60.628906 20.890625-116.234375 55.90625-160.027344.308594-.386718.78125-.597656 1.277344-.597656 11.914062-.015625 21.566406-9.679688 21.566406-21.597656v-1.496094c0-.835938.339844-1.636719.945312-2.210938 45.265626-42.921874 106.304688-69.417968 173.820313-70.0585932 40.753906-.3867188 79.332031 8.7617192 113.652344 25.3359372 5.925781 2.859375 9.660156 8.894532 9.660156 15.472656v108.847657h100.761719c7 0 13.332031 4.230469 15.949218 10.722656 6.480469 16.085937 11.367188 32.988281 14.480469 50.5.566407 3.183594-1.894531 6.109375-5.128906 6.109375-20.925781 0-37.890625 16.964844-37.890625 37.890625zm0 0" fill="#3691bb"/><path d="m436.792969 330c32.839843 0 52.59375 36.308594 34.875 63.957031-45.5 70.992188-125.085938 118.042969-215.667969 118.042969-115.652344 0-213.375-76.699219-245.121094-182zm-340.878907-256.253906c-13.535156 0-26.273437 6.273437-35.039062 16.585937-2.410156 2.835938-4.847656 5.429688-7.132812 8.367188l-17.640626 202.871093c-.101562 1.171876.820313 2.175782 1.992188 2.175782h57.820312zm273.511719-47.292969c-3.734375-1.847656-7.519531-3.605469-11.355469-5.273437l-11.878906 136.644531c-.101562 1.171875.820313 2.175781 1.992188 2.175781h57.816406v-74.265625c0-25.085937-14.09375-48.148437-36.574219-59.28125zm0 0" fill="#0680ae"/><path d="m289.832031 74.832031v224c0 2.761719-2.238281 5-5 5h-224c-2.761719 0-5-2.238281-5-5v-202.785156c7.429688-9.289063 15.488281-18.050781 24.117188-26.214844h204.882812c2.761719 0 5 2.238281 5 5zm0 0" fill="#fded32"/><path d="m284.832031 303.832031h-194c-2.761719 0-5-2.238281-5-5v-224c0-2.761719 2.238281-5 5-5h194c2.761719 0 5 2.238281 5 5v224c0 2.761719-2.238281 5-5 5zm0 0" fill="#fdf385"/><path d="m145.632812 138.632812c-29.664062 0-53.800781 24.132813-53.800781 53.800782 0 29.664062 24.136719 53.796875 53.800781 53.796875 29.664063 0 53.800782-24.132813 53.800782-53.796875 0-29.667969-24.136719-53.800782-53.800782-53.800782zm0 92.597657c-21.394531 0-38.800781-17.40625-38.800781-38.796875 0-21.398438 17.40625-38.800782 38.800781-38.800782 21.394532 0 38.800782 17.402344 38.800782 38.800782 0 21.390625-17.40625 38.796875-38.800782 38.796875zm0 0" fill="#fcb30b"/><path d="m219.832031 104.832031h-60c-9.648437 0-17.5 7.851563-17.5 17.5v60c0 9.648438 7.851563 17.5 17.5 17.5h60c9.648438 0 17.5-7.851562 17.5-17.5v-60c0-9.648437-7.847656-17.5-17.5-17.5zm2.5 77.5c0 1.378907-1.121093 2.5-2.5 2.5h-60c-1.378906 0-2.5-1.121093-2.5-2.5v-60c0-1.378906 1.121094-2.5 2.5-2.5h60c1.378907 0 2.5 1.121094 2.5 2.5zm0 0" fill="#fc6930"/><path d="m493.371094 160h-122.371094c-2.761719 0-5-2.238281-5-5v-130.214844c57.597656 27.449219 103.3125 75.785156 127.371094 135.214844zm0 0" fill="#f18bc3"/><path d="m493.371094 160h-92.371094c-2.761719 0-5-2.238281-5-5v-113.339844c43.414062 28.410156 77.660156 69.652344 97.371094 118.339844zm0 0" fill="#f5a6d1"/><path d="m219.832031 277.332031c0 4.144531-3.355469 7.5-7.5 7.5-4.140625 0-7.5-3.355469-7.5-7.5 0-4.140625 3.359375-7.5 7.5-7.5 4.144531 0 7.5 3.359375 7.5 7.5zm17.5-7.5c-4.140625 0-7.5 3.359375-7.5 7.5 0 4.144531 3.359375 7.5 7.5 7.5 4.144531 0 7.5-3.355469 7.5-7.5 0-4.140625-3.355469-7.5-7.5-7.5zm25 0c-4.140625 0-7.5 3.359375-7.5 7.5 0 4.144531 3.359375 7.5 7.5 7.5 4.144531 0 7.5-3.355469 7.5-7.5 0-4.140625-3.355469-7.5-7.5-7.5zm0 0" fill="#e8ce00"/><path d="m471.65625 394h-135.65625v-64h165.125c-6.886719 22.839844-16.863281 44.34375-29.46875 64zm0 0" fill="#fded32"/><path d="m366 371v-14h125.28125c-2.035156 4.742188-4.203125 9.410156-6.511719 14zm129.335938-24c2.121093-5.578125 4.054687-11.246094 5.789062-17h-135.125v17zm-129.335938 34v13h105.65625c2.726562-4.246094 5.316406-8.585938 7.789062-13zm0 0" fill="#fdf385"/><path d="m336 215c0-2.761719 2.238281-5 5-5h166.871094c2.707031 14.921875 4.128906 30.292969 4.128906 46 0 6.054688-.226562 12.050781-.640625 18h-175.359375zm0 0" fill="#5de0c3"/><path d="m511.863281 248h-145.863281v-14h145.054688c.394531 4.632812.664062 9.300781.808593 14zm-145.863281 10v16h145.359375c.367187-5.292969.578125-10.625.621094-16zm141.871094-48h-141.871094v14h143.996094c-.585938-4.707031-1.285156-9.378906-2.125-14zm0 0" fill="#89e9d9"/><path d="m499.882812 334h-163.882812v-64h175.617188c-1.199219 22.203125-5.230469 43.652344-11.734376 64zm0 0" fill="#df3d9b"/><path d="m366 321h137.652344c-1.148438 4.378906-2.402344 8.714844-3.769532 13h-133.882812zm0-10h140.058594c1.011718-4.621094 1.898437-9.289062 2.65625-14h-142.714844zm0-41v17h144.128906c.675782-5.613281 1.175782-11.28125 1.484375-17zm0 0" fill="#e659a9"/><path d="m101.332031 370v60c0 5.523438-4.476562 10-10 10h-40c-5.523437 0-10-4.476562-10-10v-60c0-5.523438 4.476563-10 10-10h40c5.523438 0 10 4.476562 10 10zm0 0" fill="#024c67"/><path d="m419.414062 401.414062-12.726562 12.726563c-3.753906 3.753906-8.839844 5.859375-14.144531 5.859375h-31.714844v-40h31.714844c5.304687 0 10.390625 2.105469 14.144531 5.859375l12.726562 12.726563c.78125.78125.78125 2.046874 0 2.828124zm0 0" fill="#fc5426"/><path d="m360.828125 392.007812v15.980469c0 5.011719-2.503906 9.691407-6.671875 12.46875l-24.277344 16.183594c-3.285156 2.1875-7.144531 3.359375-11.09375 3.359375h-257.453125v-80h257.457031c3.945313 0 7.808594 1.167969 11.09375 3.359375l24.273438 16.183594c4.167969 2.777343 6.671875 7.457031 6.671875 12.464843zm0 0" fill="#0ed1b2"/><path d="m360.828125 392.007812-30.949219 20.632813c-3.285156 2.191406-7.144531 3.359375-11.09375 3.359375h-257.453125v-56h257.457031c3.945313 0 7.808594 1.167969 11.09375 3.359375l24.273438 16.183594c4.167969 2.777343 6.671875 7.457031 6.671875 12.464843zm0 0" fill="#5de0c3"/><path d="m380.828125 380v40h-20c0 11.046875-8.953125 20-20 20h-22.042969v-80h22.042969c11.046875 0 20 8.953125 20 20zm0 0" fill="#024c67"/></svg>