<svg height="512pt" viewBox="0 0 512.00005 512" width="512pt" xmlns="http://www.w3.org/2000/svg"><path d="m400 461.316406v1.960938c0 2.792968-1.425781 5.382812-3.757812 6.914062-40.28125 26.425782-88.464844 41.808594-140.242188 41.808594-96.71875 0-180.890625-53.644531-224.433594-132.792969-2.277344-4.136719.710938-9.207031 5.433594-9.207031h53v-307.375c0-.949219.414062-1.851562 1.140625-2.460938 45.144531-38.046874 103.621094-60.777343 167.425781-60.1523432 138.304688 1.3554692 251.34375 113.7890622 253.40625 252.0898432.886719 59.707032-18.675781 114.808594-52.128906 158.769532-4.398438 5.773437-11.269531 9.128906-18.527344 9.128906-22.820312 0-41.316406 18.496094-41.316406 41.316406zm0 0" fill="#c43286"/><path d="m460.503906 410c-17.707031 23.476562-39.367187 43.800781-63.984375 60h-219.988281c-2.960938 0-5.855469-.878906-8.320312-2.519531l-36.539063-24.359375c-2.230469-1.484375-2.230469-4.757813 0-6.242188l36.539063-24.359375c2.464843-1.644531 5.359374-2.519531 8.320312-2.519531zm-10.503906-50v-271.03125c-8.984375-10.425781-18.800781-20.109375-29.335938-28.96875h-329.328124c-55.839844 46.960938-91.335938 117.328125-91.335938 196 0 44.992188 11.621094 87.261719 32.003906 124h397.996094c11.046875 0 20-8.953125 20-20zm0 0" fill="#88b9d3"/><path d="m460.503906 410c-11.660156 15.460938-25.035156 29.550781-39.839844 42h-196.253906c-2.433594 0-4.410156-1.976562-4.410156-4.410156v-17.773438c0-3.855468-2.765625-7.3125-6.589844-7.761718-4.550781-.535157-8.410156 3.003906-8.410156 7.445312v18.089844c0 2.433594-1.976562 4.410156-4.410156 4.410156h-6.179688c-2.433594 0-4.410156-1.976562-4.410156-4.410156v-37.589844zm-320.015625 21 27.722657 18.480469c.019531.015625.042968.027343.0625.042969 2.882812 1.898437 6.726562-.304688 6.726562-3.757813v-35.679687c-2.421875.25-4.753906 1.074218-6.789062 2.433593zm169.511719-81h-292.1875c-11.496094-29.101562-17.8125-60.8125-17.8125-94 0-78.671875 35.496094-149.039062 91.335938-196h338.664062c11.046875 0 20 8.953125 20 20v250c0 11.046875-8.953125 20-20 20zm104-110c0 5.523438 4.476562 10 10 10s10-4.476562 10-10v-40c0-5.523438-4.476562-10-10-10s-10 4.476562-10 10zm0 0" fill="#b3d1e1"/><path d="m400 100v240c0 5.523438-4.476562 10-10 10h-372.1875c-11.496094-29.101562-17.8125-60.8125-17.8125-94 0-63.34375 23.019531-121.304688 61.128906-166h328.871094c5.523438 0 10 4.476562 10 10zm0 0" fill="#fdf7bd"/><path d="m51.476562 350h-33.664062c-11.496094-29.101562-17.8125-60.8125-17.8125-94 0-63.34375 23.019531-121.304688 61.128906-166h8.871094c-38.324219 44.859375-36.417969 103.023438-36.332031 166.34375.042969 33.0625 6.355469 64.65625 17.808593 93.65625zm0 0" fill="#fcf498"/><path d="m80 254v7c0 2.207031-1.789062 4-4 4h-75.824219c-.1054685-2.988281-.175781-5.988281-.175781-9 0-2.007812.03125-4.003906.0742188-6h75.9257812c2.210938 0 4 1.789062 4 4zm50-139c0-5.523438-4.476562-10-10-10h-70.722656c-4.71875 6.445312-9.140625 13.117188-13.246094 20h83.96875c5.523438 0 10-4.476562 10-10zm71 192.5h-52c-2.210938 0-4 1.789062-4 4v7c0 2.207031 1.789062 4 4 4h52c2.210938 0 4-1.792969 4-4v-7c0-2.210938-1.789062-4-4-4zm-125-27.5h-74.871094c.46875 5.042969 1.066406 10.046875 1.824219 15h73.046875c2.210938 0 4-1.792969 4-4v-7c0-2.210938-1.789062-4-4-4zm264-155c5.523438 0 10-4.476562 10-10s-4.476562-10-10-10-10 4.476562-10 10 4.476562 10 10 10zm-274 182.5h-60.816406c1.03125 5.058594 2.230468 10.054688 3.558594 15h57.257812c2.210938 0 4-1.792969 4-4v-7c0-2.210938-1.789062-4-4-4zm280 0h-52c-2.210938 0-4 1.789062-4 4v7c0 2.207031 1.789062 4 4 4h52c2.210938 0 4-1.792969 4-4v-7c0-2.210938-1.789062-4-4-4zm20-57.5h-92c-2.210938 0-4 1.789062-4 4v7c0 2.207031 1.789062 4 4 4h92c2.210938 0 4-1.792969 4-4v-7c0-2.210938-1.789062-4-4-4zm-145 28.75h-92c-2.210938 0-4 1.789062-4 4v7c0 2.207031 1.789062 4 4 4h92c2.210938 0 4-1.792969 4-4v-7c0-2.210938-1.789062-4-4-4zm149-173.75c-5.523438 0-10 4.476562-10 10s4.476562 10 10 10 10-4.476562 10-10-4.476562-10-10-10zm-149 145h-92c-2.210938 0-4 1.789062-4 4v7c0 2.207031 1.789062 4 4 4h92c2.210938 0 4-1.792969 4-4v-7c0-2.210938-1.789062-4-4-4zm145 28.75h-92c-2.210938 0-4 1.789062-4 4v7c0 2.207031 1.789062 4 4 4h92c2.210938 0 4-1.792969 4-4v-7c0-2.210938-1.789062-4-4-4zm0 0" fill="#fdcb6b"/><path d="m322.5 152.5c-20.679688 0-37.5 16.820312-37.5 37.5 0 20.675781 16.820312 37.5 37.5 37.5s37.5-16.824219 37.5-37.5c0-20.679688-16.820312-37.5-37.5-37.5zm0 60c-12.40625 0-22.5-10.09375-22.5-22.5s10.09375-22.5 22.5-22.5 22.5 10.09375 22.5 22.5-10.09375 22.5-22.5 22.5zm-45.332031-22c0 4.140625-3.359375 7.5-7.5 7.5-4.144531 0-7.5-3.359375-7.5-7.5s3.355469-7.5 7.5-7.5c4.140625 0 7.5 3.359375 7.5 7.5zm-201.167969-.5c0 4.140625-3.359375 7.5-7.5 7.5h-19.753906c-3.484375 17.09375-18.636719 30-36.746094 30-3.554688 0-6.988281-.515625-10.246094-1.445312.589844-5.0625 1.3125-10.082032 2.191406-15.050782 2.5.964844 5.214844 1.496094 8.054688 1.496094 12.40625 0 22.5-10.09375 22.5-22.5 0-11.179688-8.195312-20.476562-18.894531-22.207031 1.753906-4.777344 3.65625-9.476563 5.683593-14.113281 13.816407 3.535156 24.585938 14.75 27.453126 28.820312h19.757812c4.140625 0 7.5 3.359375 7.5 7.5zm150.5-7.5h-22.503906c-3.484375-17.097656-18.636719-30-36.746094-30-20.679688 0-37.5 16.820312-37.5 37.5 0 20.675781 16.820312 37.5 37.5 37.5 18.109375 0 33.261719-12.90625 36.746094-30h22.503906c4.140625 0 7.5-3.359375 7.5-7.5s-3.359375-7.5-7.5-7.5zm-59.25 30c-12.40625 0-22.5-10.09375-22.5-22.5s10.09375-22.5 22.5-22.5 22.5 10.09375 22.5 22.5-10.09375 22.5-22.5 22.5zm-70.25-22c0 4.140625-3.359375 7.5-7.5 7.5s-7.5-3.359375-7.5-7.5 3.359375-7.5 7.5-7.5 7.5 3.359375 7.5 7.5zm158 0c0 4.140625-3.359375 7.5-7.5 7.5s-7.5-3.359375-7.5-7.5 3.359375-7.5 7.5-7.5 7.5 3.359375 7.5 7.5zm-135.832031 0c0 4.140625-3.359375 7.5-7.5 7.5-4.144531 0-7.5-3.359375-7.5-7.5s3.355469-7.5 7.5-7.5c4.140625 0 7.5 3.359375 7.5 7.5zm0 0" fill="#fda800"/><path d="m310 190c0-6.894531 5.605469-12.5 12.5-12.5s12.5 5.605469 12.5 12.5-5.605469 12.5-12.5 12.5-12.5-5.605469-12.5-12.5zm0 0" fill="#fc6930"/></svg>