<svg height="512pt" viewBox="0 0 512 512" width="512pt" xmlns="http://www.w3.org/2000/svg"><path d="m512 256c0 141.386719-114.617188 256-256 256-6.644531 0-13.226562-.253906-19.742188-.753906-3.804687-.289063-6.855468-3.230469-7.335937-7.015625-14.765625-115.535157-106.539063-207-222.222656-221.285157-3.164063-.390624-5.609375-2.953124-5.863281-6.128906-.554688-6.867187-.835938-13.808594-.835938-20.816406 0-141.382812 114.613281-256 255.996094-256 141.039062 0 256.003906 114.960938 256.003906 256zm0 0" fill="#5de0c3"/><path d="m231 40v250c0 5.523438-4.476562 10-10 10h-20c-5.523438 0-10-4.476562-10-10v-250c0-5.523438 4.476562-10 10-10h20c5.523438 0 10 4.476562 10 10zm95.152344 312.011719c-3.90625-3.90625-10.238282-3.90625-14.140625 0l-14.144531 14.140625c-3.902344 3.90625-3.902344 10.238281 0 14.140625l93.195312 93.195312c11.492188-7.148437 22.386719-15.171875 32.566406-24zm0 0" fill="#017296"/><path d="m251 40v250c0 5.523438-4.476562 10-10 10h-20c-5.523438 0-10-4.476562-10-10v-250c0-5.523438 4.476562-10 10-10h20c5.523438 0 10 4.476562 10 10zm89.292969 297.867188c-3.902344-3.902344-10.234375-3.902344-14.140625 0l-14.140625 14.144531c-3.90625 3.902343-3.90625 10.234375 0 14.140625l95.902343 95.902344c10.78125-7.960938 20.910157-16.746094 30.304688-26.265626zm0 0" fill="#0680ae"/><path d="m442 291c0 116.347656-89.910156 211.699219-204.039062 220.359375-127.007813-8.84375-228.476563-110.316406-237.320313-237.320313 8.660156-114.128906 104.011719-204.039062 220.359375-204.039062 122.054688 0 221 98.945312 221 221zm0 0" fill="#fff2b4"/><path d="m168.253906 76.351562c-83.222656 32.941407-142.355468 116.613282-142.355468 214.648438 0 58.445312 21.019531 111.785156 55.628906 152.3125-46.015625-42.878906-76.214844-102.507812-80.878906-169.179688 7.273437-96.335937 76.300781-175.417968 167.605468-197.78125zm0 0" fill="#ffe899"/><path d="m221 113.164062c-98.214844 0-177.835938 79.621094-177.835938 177.835938s79.621094 177.835938 177.835938 177.835938 177.835938-79.621094 177.835938-177.835938-79.621094-177.835938-177.835938-177.835938zm0 312.507813c-74.378906 0-134.671875-60.292969-134.671875-134.671875s60.292969-134.671875 134.671875-134.671875 134.671875 60.292969 134.671875 134.671875-60.292969 134.671875-134.671875 134.671875zm0-234.8125c-55.304688 0-100.140625 44.832031-100.140625 100.140625s44.835937 100.140625 100.140625 100.140625 100.140625-44.835937 100.140625-100.140625-44.835937-100.140625-100.140625-100.140625zm0 160.253906c-33.199219 0-60.113281-26.914062-60.113281-60.113281s26.914062-60.113281 60.113281-60.113281 60.113281 26.914062 60.113281 60.113281-26.914062 60.113281-60.113281 60.113281zm29.898438-60.113281c0 16.511719-13.386719 29.898438-29.898438 29.898438s-29.898438-13.386719-29.898438-29.898438 13.386719-29.898438 29.898438-29.898438 29.898438 13.386719 29.898438 29.898438zm0 0" fill="#ec74b6"/><path d="m297.988281 270.582031c-8.375 8.375-19.042969 14.082031-30.660156 16.40625l-45.542969 9.109375c-3.5.699219-6.582031-2.382812-5.882812-5.882812l9.109375-45.542969c2.324219-11.613281 8.03125-22.28125 16.410156-30.660156l18.960937-18.960938 63.902344 49.234375zm0 0" fill="#ebae56"/><path d="m479.285156 89.285156c-11.71875 11.714844-30.710937 11.714844-42.425781 0l-14.144531-14.144531c-11.714844-11.714844-11.714844-30.710937 0-42.425781 11.71875-11.714844 30.710937-11.714844 42.425781 0l14.144531 14.144531c11.714844 11.714844 11.714844 30.710937 0 42.425781zm0 0" fill="#e659a9"/><path d="m485.09375 55.054688c5.378906 11.167968 3.453125 24.96875-5.808594 34.230468-9.191406 9.191406-22.863281 11.160156-33.984375 5.929688-5.378906-11.167969-3.453125-24.96875 5.808594-34.230469 9.191406-9.191406 22.863281-11.164063 33.984375-5.929687zm0 0" fill="#f18bc3"/><path d="m271 269.285156c-7.8125-7.8125-7.8125-20.476562 0-28.285156-7.808594 7.8125-20.472656 7.8125-28.285156 0-7.808594-7.808594-7.808594-20.472656 0-28.285156l180-180 56.570312 56.570312-180 180c-7.8125 7.808594-20.472656 7.808594-28.285156 0zm0 0" fill="#017296"/><path d="m271 241c-7.808594 7.808594-20.472656 7.808594-28.285156 0-7.808594-7.808594-7.808594-20.472656 0-28.285156l180-180 28.285156 28.285156zm0 0" fill="#025f80"/><path d="m238.003906 292.855469-16.21875 3.242187c-3.5.699219-6.582031-2.386718-5.882812-5.882812l3.242187-16.21875zm0 0" fill="#024c67"/></svg>