<svg height="512pt" viewBox="0 0 512 512" width="512pt" xmlns="http://www.w3.org/2000/svg"><path d="m512 256c0 141.386719-114.613281 256-256 256s-256-114.613281-256-256 114.613281-256 256-256 256 114.613281 256 256zm0 0" fill="#5de0c3"/><path d="m451.425781 261.246094c-.039062 2.214844-.09375 4.300781-.164062 5.582031-5.617188 103.210937-91.089844 185.171875-195.707031 185.171875-108.527344 0-195.867188-87.226562-196-195.757812-.128907-108.359376 87.671874-196.242188 196-196.242188 51.179687 0 97.761718 19.636719 132.671874 51.757812l6.558594-6.558593c2.335938-2.335938 6.335938-.992188 6.789063 2.28125l4.257812 30.710937c.363281 2.625-1.886719 4.875-4.511719 4.511719l-30.710937-4.257813c-3.273437-.453124-4.617187-4.453124-2.28125-6.789062l7.054687-7.054688c-31.585937-28.828124-73.59375-46.425781-119.722656-46.453124-99.777344-.058594-179.546875 81.019531-177.933594 180.785156 1.566407 96.871094 80.585938 174.917968 177.828126 174.917968 94.820312 0 172.304687-74.199218 177.566406-167.699218.070312-1.191406.121094-3.15625.160156-5.246094.089844-4.945312 4.128906-8.90625 9.074219-8.90625 5.074219 0 9.160156 4.167969 9.070312 9.246094zm-34.9375-91.8125c4.832031 0 8.75-3.917969 8.75-8.75 0-4.828125-3.917969-8.746094-8.75-8.746094-4.828125 0-8.746093 3.917969-8.746093 8.746094 0 4.832031 3.917968 8.75 8.746093 8.75zm6.027344 16.5625c-.3125 4.820312 3.34375 8.980468 8.164063 9.289062 4.820312.3125 8.980468-3.34375 9.292968-8.164062.308594-4.820313-3.34375-8.980469-8.164062-9.292969-4.820313-.308594-8.984375 3.347656-9.292969 8.167969zm7.746094 23.195312c-.3125 4.820313 3.34375 8.980469 8.164062 9.289063 4.820313.3125 8.980469-3.34375 9.292969-8.164063.3125-4.820312-3.34375-8.980468-8.164062-9.292968-4.820313-.308594-8.980469 3.34375-9.292969 8.167968zm14 17.054688c-4.824219-.3125-8.984375 3.34375-9.292969 8.164062-.3125 4.820313 3.34375 8.980469 8.164062 9.292969 4.820313.3125 8.980469-3.34375 9.292969-8.164063.308594-4.820312-3.34375-8.980468-8.164062-9.292968zm0 0" fill="#d3f1f5"/><path d="m377 201.792969v108.417969c0 15.1875-11.40625 27.5-25.472656 27.5-2.511719 0-4.933594-.394532-7.21875-1.125-2.757813-.882813-5.519532 1.351562-5.519532 4.457031 0 15.1875-11.402343 27.5-25.472656 27.5-3.605468 0-7.035156-.8125-10.140625-2.273438-2.046875-.960937-4.441406-.023437-5.472656 2.113281-4.246094 8.796876-12.769531 14.804688-22.597656 14.804688-7.613281 0-14.4375-3.609375-19.105469-9.320312-4.667969 5.714843-11.492188 9.320312-19.105469 9.320312-9.828125 0-18.351562-6.007812-22.597656-14.804688-1.03125-2.136718-3.425781-3.070312-5.472656-2.113281-3.105469 1.460938-6.535157 2.273438-10.140625 2.273438-14.066406 0-25.472656-12.3125-25.472656-27.5 0-3.105469-2.761719-5.339844-5.515626-4.457031-2.289062.730468-4.710937 1.125-7.21875 1.125-14.070312 0-25.476562-12.3125-25.476562-27.5v-108.417969c0-15.1875 11.40625-27.5 25.476562-27.5 2.507813 0 4.929688.390625 7.21875 1.125 2.753907.878906 5.515626-1.355469 5.515626-4.457031 0-15.191407 11.40625-27.5 25.472656-27.5 3.605468 0 7.035156.808593 10.140625 2.269531 2.046875.960937 4.441406.023437 5.472656-2.109375 4.246094-8.800782 12.773437-14.808594 22.597656-14.808594 7.613281 0 14.441407 3.609375 19.105469 9.320312 4.667969-5.710937 11.496094-9.320312 19.105469-9.320312 9.828125 0 18.351562 6.007812 22.601562 14.808594 1.03125 2.132812 3.425781 3.070312 5.46875 2.109375 3.105469-1.460938 6.535157-2.269531 10.140625-2.269531 14.070313 0 25.472656 12.308593 25.472656 27.5 0 3.101562 2.761719 5.335937 5.519532 4.457031 2.285156-.730469 4.710937-1.125 7.21875-1.125 14.066406 0 25.472656 12.3125 25.472656 27.5zm0 0" fill="#fd7d43"/><path d="m305.585938 216.628906c-1.03125 1.03125-2.109376 2.007813-3.222657 2.929688l10.453125 10.453125c2.011719 2.011719 2.011719 5.277343 0 7.289062-2.011718 2.015625-5.277344 2.015625-7.292968 0l-11.980469-11.980469c-6.011719 3.019532-12.648438 4.691407-19.542969 4.867188-.101562.007812-.195312.03125-.296875.03125h-11.335937v51.5625h11.335937c.101563 0 .195313.023438.296875.03125 6.894531.175781 13.53125 1.851562 19.542969 4.867188l11.980469-11.980469c2.015624-2.015625 5.28125-2.015625 7.292968 0 2.011719 2.015625 2.011719 5.277343 0 7.292969l-10.453125 10.449218c1.113281.925782 2.191407 1.898438 3.222657 2.933594l18.855468 18.855469c2.015625 2.011719 2.015625 5.277343 0 7.292969-2.011718 2.011718-5.277344 2.011718-7.292968 0l-18.855469-18.859376c-6.816407-6.816406-15.878907-10.570312-25.519531-10.570312h-10.40625v63.59375c0 12.800781 8.105468 23.5625 19.078124 26.625-2.03125.5625-4.148437.875-6.339843.875-14.070313 0-25.472657-12.3125-25.472657-27.5v-63.59375h-10.40625c-9.640624 0-18.707031 3.753906-25.523437 10.570312l-18.855469 18.859376c-2.011718 2.011718-5.277344 2.011718-7.292968 0-2.011719-2.015626-2.011719-5.28125 0-7.292969l18.855468-18.855469c1.035156-1.035156 2.113282-2.007812 3.222656-2.933594l-10.449218-10.449218c-2.015625-2.015626-2.015625-5.277344 0-7.292969 2.011718-2.015625 5.277344-2.015625 7.289062 0l11.980469 11.980469c6.015625-3.015626 12.652344-4.691407 19.546875-4.867188.097656-.007812.195312-.03125.296875-.03125h11.332031v-51.5625h-11.332031c-.101563 0-.199219-.023438-.296875-.03125-6.894531-.175781-13.53125-1.847656-19.546875-4.867188l-11.980469 11.980469c-2.011718 2.015625-5.277344 2.015625-7.289062 0-2.015625-2.011719-2.015625-5.277343 0-7.289062l10.449218-10.453125c-1.109374-.921875-2.1875-1.898438-3.222656-2.929688l-18.855468-18.859375c-2.011719-2.011719-2.011719-5.277343 0-7.289062 2.015624-2.015625 5.28125-2.015625 7.292968 0l18.855469 18.855469c6.820313 6.816406 15.882813 10.570312 25.523437 10.570312h10.40625v-63.59375c0-15.1875 11.402344-27.5 25.472657-27.5 2.191406 0 4.308593.316406 6.339843.875-10.972656 3.0625-19.078124 13.824219-19.078124 26.625v63.59375h10.40625c9.640624 0 18.703124-3.753906 25.519531-10.570312l18.855469-18.855469c2.015624-2.015625 5.28125-2.015625 7.292968 0 2.015625 2.011719 2.015625 5.277343 0 7.289062zm50.949218.609375-18.855468-18.855469c-2.015626-2.011718-5.28125-2.011718-7.292969 0-2.015625 2.015626-2.015625 5.28125 0 7.292969l18.855469 18.855469c1.03125 1.035156 2.109374 2.007812 3.222656 2.933594l-10.453125 10.449218c-2.015625 2.015626-2.015625 5.277344 0 7.292969 2.011719 2.015625 5.277343 2.015625 7.292969 0l11.980468-11.980469c4.890625 2.453126 10.195313 4.023438 15.714844 4.621094v-10.390625c-7.722656-1.074219-14.855469-4.605469-20.464844-10.21875zm-7.230468 49.898438c-2.015626-2.015625-5.277344-2.015625-7.292969 0-2.011719 2.011719-2.011719 5.277343 0 7.289062l10.453125 10.453125c-1.113282.921875-2.1875 1.894532-3.222656 2.929688l-18.855469 18.855468c-2.015625 2.015626-2.015625 5.277344 0 7.292969 2.011719 2.011719 5.277343 2.011719 7.292969 0l18.855468-18.855469c5.609375-5.613281 12.742188-9.140624 20.464844-10.21875v-10.390624c-5.519531.597656-10.824219 2.167968-15.714844 4.621093zm-74.609376-85.238281c2.015626 2.011718 5.28125 2.011718 7.292969 0l4.949219-4.949219v.40625l11.820312 11.824219c2.015626 2.011718 5.277344 2.011718 7.292969 0 2.015625-2.015626 2.015625-5.28125 0-7.292969l-12.023437-12.027344 6.816406-6.816406c5.546875-5.546875 9.507812-12.25 11.675781-19.5625-3.3125.113281-6.46875.898437-9.34375 2.25-.867187.40625-1.796875.46875-2.65625.25-1.738281 3.574219-4.074219 6.875-6.96875 9.769531l-18.855469 18.855469c-2.011718 2.011719-2.011718 5.277343 0 7.292969zm19.332032 160.242187 12.023437-12.027344c2.015625-2.011719 2.015625-5.277343 0-7.292969-2.011719-2.011718-5.277343-2.011718-7.289062 0l-11.824219 11.824219v.40625l-4.945312-4.949219c-2.015626-2.011718-5.28125-2.011718-7.292969 0-2.015625 2.015626-2.015625 5.28125 0 7.292969l18.855469 18.855469c2.894531 2.894531 5.226562 6.195312 6.964843 9.769531.863281-.21875 1.789063-.15625 2.65625.25 2.878907 1.351563 6.03125 2.140625 9.347657 2.25-2.167969-7.3125-6.132813-14.015625-11.675782-19.5625zm-64.015625-12.039063-4.949219 4.949219v-.40625l-11.820312-11.824219c-2.015626-2.011718-5.277344-2.011718-7.292969 0-2.015625 2.015626-2.015625 5.28125 0 7.292969l12.023437 12.027344-6.816406 6.820313c-1.078125 1.074218-2.085938 2.195312-3.039062 3.355468-1.503907.253906-2.980469.691406-4.375 1.347656-1.59375.746094-3.296876 1.128907-5.058594 1.128907-7.023438 0-12.734375-6.167969-12.734375-13.75 0-5.777344-2.558594-11.285157-6.84375-14.742188-4.285157-3.453125-9.898438-4.539062-15.027344-2.902343-1.160156.371093-2.375.5625-3.605469.5625-7.023437 0-12.734375-6.171876-12.734375-13.75v-20.996094c2.792969 1.585937 5.394531 3.554687 7.726563 5.886718l18.855468 18.859376c2.015626 2.011718 5.28125 2.011718 7.292969 0 2.015625-2.015626 2.015625-5.28125 0-7.292969l-18.855469-18.855469c-1.03125-1.035156-2.109374-2.007812-3.222656-2.933594l10.453125-10.449218c2.015625-2.015626 2.015625-5.277344 0-7.292969-2.011719-2.015625-5.277343-2.015625-7.292969 0l-11.980468 11.980469c-.976563-.488282-1.972656-.933594-2.976563-1.351563v-43.1875c1.003907-.417969 2-.859375 2.976563-1.351563l11.980468 11.980469c2.015626 2.015625 5.28125 2.015625 7.292969 0 2.015625-2.011719 2.015625-5.277343 0-7.292969l-10.453125-10.449218c1.113282-.921875 2.191406-1.898438 3.222656-2.929688l18.855469-18.855468c2.015625-2.015626 2.015625-5.28125 0-7.292969-2.011719-2.015625-5.277343-2.015625-7.292969 0l-18.855468 18.855469c-2.332032 2.332031-4.933594 4.300781-7.726563 5.890624v-21.339843c0-7.582031 5.710938-13.75 12.734375-13.75 1.230469 0 2.445313.1875 3.605469.558593 5.125 1.636719 10.742187.550782 15.027344-2.902343 4.285156-3.453125 6.84375-8.964844 6.84375-14.738281 0-7.582032 5.710937-13.75 12.734375-13.75 1.761718 0 3.464844.378906 5.058594 1.128906 1.363281.636718 2.851562 1.09375 4.390624 1.367187.949219 1.148438 1.953126 2.265625 3.023438 3.335938l6.816406 6.816406-12.023437 12.027344c-2.015625 2.011719-2.015625 5.277343 0 7.292969 2.015625 2.011718 5.277343 2.011718 7.292969 0l11.820312-11.824219v-.40625l4.949219 4.949219c2.011719 2.011718 5.277343 2.011718 7.292969 0 2.011718-2.015626 2.011718-5.28125 0-7.292969l-16.851563-16.851563c2.753906-1.664062 4.738281-4.246094 5.136719-7.777344 1.433594-12.742187 11.304687-21.164062 11.304687-21.164062-9.828125 0-18.351562 6.007812-22.597656 14.808594-1.03125 2.132812-3.425781 3.070312-5.472656 2.109375-3.105469-1.460938-6.535157-2.273438-10.140625-2.273438-14.066406 0-25.472656 12.3125-25.472656 27.5 0 3.105469-2.761719 5.339844-5.515626 4.457031-2.289062-.730468-4.710937-1.125-7.21875-1.125-14.070312 0-25.476562 12.3125-25.476562 27.5v108.417969c0 15.1875 11.40625 27.5 25.476562 27.5 2.507813 0 4.929688-.394531 7.21875-1.125 2.753907-.878906 5.515626 1.355469 5.515626 4.457031 0 15.1875 11.40625 27.5 25.472656 27.5 3.605468 0 7.035156-.808593 10.140625-2.269531 2.042969-.960937 4.441406-.027343 5.46875 2.109375 4.25 8.796875 12.773437 14.804688 22.601562 14.804688 0 0-6.6875-5.5-11.304687-21.160156-.957032-3.25-2.976563-5.710938-5.53125-7.386719l17.242187-17.246094c2.015625-2.011719 2.015625-5.277344 0-7.292969-2.011719-2.007812-5.277343-2.007812-7.289062.003906zm0 0" fill="#fc5426"/><path d="m110 325.847656c0 11.84375-3.507812 23.425782-10.078125 33.28125l-25.761719 38.644532c-1.980468 2.96875-6.339844 2.96875-8.320312 0l-25.761719-38.644532c-6.570313-9.855468-10.078125-21.4375-10.078125-33.28125v-15.847656h80zm0 0" fill="#fbc56d"/><path d="m110 90c0 16.570312-13.429688 30-30 30h-20c-16.570312 0-30-13.429688-30-30s13.429688-30 30-30h20c16.570312 0 30 13.429688 30 30zm0 0" fill="#ec74b6"/><path d="m110 90c0 13.058594-8.351562 24.160156-20 28.277344-11.648438-4.117188-20-15.21875-20-28.277344s8.351562-24.160156 20-28.277344c11.648438 4.117188 20 15.21875 20 28.277344zm0 0" fill="#f18bc3"/><path d="m90 344.015625c-11.046875 0-20-8.957031-20-20 0 11.042969-8.953125 20-20 20s-20-8.957031-20-20v-234.015625h80v234.015625c0 11.042969-8.953125 20-20 20zm0 0" fill="#017296"/><path d="m70 324.015625c0 11.042969-8.953125 20-20 20s-20-8.957031-20-20v-234.015625h40zm0 0" fill="#025f80"/><path d="m83.332031 384.015625-9.171875 13.757813c-1.980468 2.96875-6.339844 2.96875-8.320312 0l-9.175782-13.757813zm0 0" fill="#024c67"/></svg>