<svg height="512pt" viewBox="0 0 512 512.00077" width="512pt" xmlns="http://www.w3.org/2000/svg"><path d="m450 388.296875v32.09375c0 1.492187-.535156 2.9375-1.515625 4.058594-47.269531 53.921875-116.722656 87.941406-193.808594 87.546875-26.445312-.132813-51.9375-4.289063-75.910156-11.867188-5.265625-1.667968-8.839844-6.574218-8.765625-12.109375.058594-4.457031-3.730469-8.019531-8.1875-8.019531h-22.789062c-4.675782 0-9.277344-1.21875-13.300782-3.601562-75.199218-44.542969-125.644531-126.464844-125.722656-220.183594-.117188-141.199219 115.273438-256.46875 256.472656-256.214844 141.167969.257812 255.527344 114.773438 255.527344 256 0 32.804688-6.234375 64.1875-17.558594 93.046875-2.601562 6.625-9.027344 10.953125-16.144531 10.953125-15.628906 0-28.296875 12.667969-28.296875 28.296875zm0 0" fill="#017296"/><path d="m294.292969 322.5c0 4.875-3.949219 8.824219-8.824219 8.824219-4.871094 0-8.820312-3.949219-8.820312-8.824219 0-4.871094 3.949218-8.824219 8.820312-8.824219 4.875 0 8.824219 3.953125 8.824219 8.824219zm16.710937-8.824219c-4.875 0-8.824218 3.953125-8.824218 8.824219 0 4.875 3.949218 8.824219 8.824218 8.824219 4.871094 0 8.824219-3.949219 8.824219-8.824219 0-4.871094-3.953125-8.824219-8.824219-8.824219zm23.527344 0c-4.875 0-8.824219 3.953125-8.824219 8.824219 0 4.875 3.949219 8.824219 8.824219 8.824219 4.871094 0 8.820312-3.949219 8.820312-8.824219 0-4.871094-3.949218-8.824219-8.820312-8.824219zm0 0" fill="#3691bb"/><path d="m179.800781 389.121094v111.347656c-19.101562-5.949219-37.230469-14.085938-54.121093-24.097656v-87.25c0-5.191406 3.957031-9.457032 9.019531-9.953125v-53.1875c0-5.523438 4.476562-10 10-10h16.082031c5.523438 0 10 4.476562 10 10v53.1875c5.0625.496093 9.019531 4.761719 9.019531 9.953125zm0 0" fill="#84deea"/><path d="m310 348.140625v80h-15.847656c-11.84375 0-23.425782-3.507813-33.28125-10.078125l-38.644532-25.761719c-2.96875-1.980469-2.96875-6.339843 0-8.320312l38.644532-25.765625c9.855468-6.570313 21.4375-10.074219 33.28125-10.074219zm0 0" fill="#fdbf43"/><path d="m445.484375 428.140625h-149.496094c-11.046875 0-20-8.953125-20-20s8.953125-20 20-20c-11.046875 0-20-8.953125-20-20s8.953125-20 20-20h198.914063c-11.484375 29.746094-28.34375 56.816406-49.417969 80zm0 0" fill="#fc6930"/><path d="m475.296875 388.140625c-8.636719 14.304687-18.632813 27.699219-29.8125 40h-149.496094c-11.046875 0-20-8.953125-20-20s8.953125-20 20-20zm-253.070313 4.160156 13.761719 9.171875v-26.667968l-13.761719 9.175781c-2.96875 1.980469-2.96875 6.339843 0 8.320312zm0 0" fill="#fc5426"/><path d="m438.285156 195.582031c-16.050781 14.265625-24.972656 34.902344-24.972656 56.371094v1.460937h-68.292969v-1.722656c0-21.652344-9.453125-42.082031-25.519531-56.601562-18.113281-16.367188-29.464844-40.074219-29.355469-66.433594.199219-49.085938 39.9375-88.65625 89.023438-88.65625 49.167969 0 89.023437 39.859375 89.023437 89.023438 0 26.480468-11.558594 50.253906-29.90625 66.558593zm0 0" fill="#fded32"/><path d="m413.3125 251.953125v1.460937h-45.121094v-1.722656c0-21.652344-9.457031-42.082031-25.523437-56.601562-18.109375-16.367188-29.460938-40.074219-29.351563-66.433594.179688-45.15625 33.828125-82.253906 77.429688-87.90625 43.695312 5.675781 77.445312 43.03125 77.445312 88.277344 0 26.476562-11.558594 50.25-29.90625 66.558594-16.050781 14.261718-24.972656 34.898437-24.972656 56.367187zm0 0" fill="#fdf385"/><path d="m399.695312 61.339844c3.308594-4.34375 24.367188 2.433594 37.398438 17.074218 11.164062 12.542969 16.359375 30.773438 12.195312 33.742188-5.128906 3.648438-24.421874-15.847656-28.457031-19.921875-2.425781-2.449219-25.242187-25.503906-21.136719-30.894531zm0 0" fill="#fdf7bd"/><path d="m401.667969 121.5h-45c-13.785157 0-25 11.214844-25 25 0 11.027344 8.972656 20 20 20 2.757812 0 5 2.242188 5 5v65c0 11.027344 8.972656 20 20 20h5c11.027343 0 20-8.972656 20-20v-65c0-2.757812 2.242187-5 5-5 11.027343 0 20-8.972656 20-20 0-13.785156-11.214844-25-25-25zm5 30c-11.027344 0-20 8.972656-20 20v65c0 2.757812-2.242188 5-5 5h-5c-2.757813 0-5-2.242188-5-5v-65c0-11.027344-8.972657-20-20-20-2.757813 0-5-2.242188-5-5 0-5.511719 4.484375-10 10-10h45c5.511719 0 10 4.488281 10 10 0 2.757812-2.246094 5-5 5zm0 0" fill="#e8ce00"/><path d="m424.898438 247.316406c0 5.460938-3.589844 10.082032-8.535157 11.636719v.558594c0 16.839843-13.652343 30.488281-30.488281 30.488281h-13.417969c-16.835937 0-30.488281-13.648438-30.488281-30.488281v-.558594c-4.945312-1.554687-8.535156-6.175781-8.535156-11.636719 0-6.734375 5.460937-12.195312 12.195312-12.195312h67.074219c6.734375 0 12.195313 5.460937 12.195313 12.195312zm0 0" fill="#88b9d3"/><path d="m424.898438 247.316406c0 5.460938-3.589844 10.082032-8.535157 11.636719v.558594c0 14.640625-10.324219 26.867187-24.085937 29.808593-9.171875-1.957031-16.8125-8.042968-20.894532-16.214843-1.019531-2.042969.429688-4.445313 2.714844-4.445313h27.324219c2.574219 0 4.652344-2.125 4.574219-4.714844-.078125-2.503906-2.261719-4.433593-4.765625-4.433593h-37.917969c-6.734375 0-12.195312-5.460938-12.195312-12.195313s5.460937-12.195312 12.195312-12.195312h49.390625c6.734375 0 12.195313 5.460937 12.195313 12.195312zm0 0" fill="#b3d1e1"/><path d="m270 216.761719c0 64.757812-52.5 117.257812-117.257812 117.257812-64.761719 0-117.261719-52.5-117.261719-117.257812 0-64.761719 52.5-117.261719 117.261719-117.261719 64.757812 0 117.257812 52.5 117.257812 117.261719zm0 0" fill="#ade8f0"/><path d="m179.800781 389.121094v111.347656c-11.175781-3.480469-22.011719-7.71875-32.472656-12.632812v-98.714844c0-5.523438 4.476563-10 10-10h12.472656c5.523438 0 10 4.476562 10 10zm-26.546875-289.621094c-.96875-.003906-1.9375.003906-2.90625.023438-23.003906.460937-44.730468 10.683593-60.078125 27.824218-20.472656 22.859375-33.140625 54.476563-33.140625 89.414063 0 35.632812 13.183594 67.820312 34.382813 90.777343 15.054687 16.304688 36.144531 25.90625 58.332031 26.445313.964844.023437 1.929688.035156 2.898438.035156 65 0 117.648437-52.890625 117.257812-117.980469-.386719-64.011718-52.734375-116.261718-116.746094-116.539062zm0 0" fill="#d3f1f5"/><path d="m242.941406 216.761719c0 49.816406-40.386718 90.199219-90.199218 90.199219-49.816407 0-90.203126-40.382813-90.203126-90.199219 0-49.816407 40.386719-90.203125 90.203126-90.203125 49.8125 0 90.199218 40.386718 90.199218 90.203125zm0 0" fill="#0ab59e"/><path d="m132.488281 304.675781c-40.066406-9.191406-69.949219-45.0625-69.949219-87.914062 0-42.851563 29.882813-78.726563 69.949219-87.917969-30.980469 15.320312-52.488281 48.921875-52.488281 87.917969 0 38.992187 21.507812 72.597656 52.488281 87.914062zm0 0" fill="#01988c"/><path d="m220.390625 209.996094h-16.242187c-3.035157-23.195313-21.449219-41.609375-44.644532-44.644532v-16.242187c0-3.734375-3.027344-6.765625-6.761718-6.765625-3.738282 0-6.765626 3.03125-6.765626 6.765625v16.242187c-23.195312 3.035157-41.609374 21.449219-44.644531 44.644532h-16.242187c-3.734375 0-6.765625 3.027344-6.765625 6.765625 0 3.734375 3.03125 6.765625 6.765625 6.765625h16.242187c3.035157 23.191406 21.449219 41.605468 44.644531 44.640625v16.242187c0 3.734375 3.027344 6.765625 6.765626 6.765625 3.734374 0 6.761718-3.03125 6.761718-6.765625v-16.242187c23.195313-3.035157 41.609375-21.449219 44.644532-44.640625h16.242187c3.734375 0 6.765625-3.03125 6.765625-6.765625 0-3.738281-3.03125-6.765625-6.765625-6.765625zm-29.925781 0h-13.863282c-2.34375-8.246094-8.847656-14.753906-17.097656-17.09375v-13.867188c15.722656 2.8125 28.148438 15.238282 30.960938 30.960938zm-37.722656 18.039062c-6.21875 0-11.277344-5.058594-11.277344-11.273437 0-6.21875 5.058594-11.277344 11.277344-11.277344 6.214843 0 11.273437 5.058594 11.273437 11.277344 0 6.214843-5.058594 11.273437-11.273437 11.273437zm-6.765626-49v13.867188c-8.246093 2.339844-14.753906 8.847656-17.097656 17.09375h-13.863281c2.8125-15.722656 15.238281-28.148438 30.960937-30.960938zm-30.960937 44.492188h13.863281c2.34375 8.242187 8.847656 14.75 17.097656 17.09375v13.867187c-15.722656-2.816406-28.148437-15.238281-30.960937-30.960937zm44.488281 30.957031v-13.863281c8.246094-2.34375 14.753906-8.847656 17.097656-17.09375h13.863282c-2.8125 15.722656-15.238282 28.144531-30.960938 30.957031zm0 0" fill="#ecf8d9"/></svg>