<svg height="512pt" viewBox="0 0 512 512" width="512pt" xmlns="http://www.w3.org/2000/svg"><path d="m512 256c0 141.386719-114.613281 256-256 256s-256-114.613281-256-256 114.613281-256 256-256 256 114.613281 256 256zm0 0" fill="#025f80"/><path d="m201.75 260.332031v-206.71875c0-5.523437 4.476562-10 10-10h290.25c5.523438 0 10 4.476563 10 10v206.71875c0 5.523438-4.476562 10-10 10h-290.25c-5.523438 0-10-4.476562-10-10zm0 0" fill="#e659a9"/><path d="m230.875 270.332031v-226.71875h271.125c5.523438 0 10 4.476563 10 10v206.71875c0 5.523438-4.476562 10-10 10zm0 0" fill="#ec74b6"/><path d="m370.148438 151.3125c0 38.375-31.113282 69.484375-69.488282 69.484375s-69.484375-31.109375-69.484375-69.484375c0-38.378906 31.109375-69.488281 69.484375-69.488281s69.488282 31.113281 69.488282 69.488281zm0 0" fill="#a72975"/><path d="m380.074219 151.3125c0 43.855469-35.554688 79.410156-79.414063 79.410156v-59.558594c10.964844 0 19.855469-8.886718 19.855469-19.851562s-8.890625-19.855469-19.855469-19.855469v-59.558593c43.859375 0 79.414063 35.554687 79.414063 79.414062zm0 0" fill="#df3d9b"/><path d="m390 151.3125c0 .894531-.734375 1.625-1.628906 1.625h-86.078125c-.902344 0-1.632813-.726562-1.632813-1.628906v-87.363282c0-.726562.3125-1.445312.910156-1.859374.09375-.066407.179688-.109376.242188-.105469 48.808594.617187 88.1875 40.375 88.1875 89.332031zm98 63.1875h-22.5v-22.5c0-1.105469-.894531-2-2-2h-11c-1.105469 0-2 .894531-2 2v22.5h-22.5c-1.105469 0-2 .894531-2 2v11c0 1.105469.894531 2 2 2h22.5v22.5c0 1.105469.894531 2 2 2h11c1.105469 0 2-.894531 2-2v-22.5h22.5c1.105469 0 2-.894531 2-2v-11c0-1.105469-.894531-2-2-2zm0 0" fill="#f5a6d1"/><path d="m418 83v-11c0-1.105469.894531-2 2-2h60.167969c1.105469 0 2 .894531 2 2v11c0 1.105469-.894531 2-2 2h-60.167969c-1.105469 0-2-.894531-2-2zm70 17h-68c-1.105469 0-2 .894531-2 2v11c0 1.105469.894531 2 2 2h68c1.105469 0 2-.894531 2-2v-11c0-1.105469-.894531-2-2-2zm0 30h-68c-1.105469 0-2 .894531-2 2v11c0 1.105469.894531 2 2 2h68c1.105469 0 2-.894531 2-2v-11c0-1.105469-.894531-2-2-2zm-37.832031 30h-30.167969c-1.105469 0-2 .894531-2 2v11c0 1.105469.894531 2 2 2h30.167969c1.105469 0 2-.894531 2-2v-11c0-1.105469-.898438-2-2-2zm0 0" fill="#df3d9b"/><path d="m310.25 125v206.722656c0 5.519532-4.476562 10-10 10h-285.527344c-9.523437-26.804687-14.722656-55.652344-14.722656-85.722656 0-4.496094.125-8.960938.351562-13.402344-.222656-.828125-.351562-1.699218-.351562-2.597656v-115c0-5.523438 4.476562-10 10-10h290.25c3.453125 0 6.496094 1.75 8.292969 4.410156.71875 1.0625 1.238281 2.273438 1.503906 3.574219.132813.652344.203125 1.324219.203125 2.015625zm0 0" fill="#2ed0e1"/><path d="m29.125 341.722656v-226.722656h271.125c5.523438 0 10 4.476562 10 10v206.722656c0 5.519532-4.476562 10-10 10zm0 0" fill="#84deea"/><path d="m200 148.359375v160c0 5.523437-4.476562 10-10 10h-160c-5.523438 0-10-4.476563-10-10v-160c0-5.519531 4.476562-10 10-10h160c5.523438 0 10 4.480469 10 10zm0 0" fill="#d3f1f5"/><path d="m173.070312 280.824219c.78125.78125.78125 2.046875 0 2.828125l-7.78125 7.777344c-.777343.78125-2.046874.78125-2.824218 0l-52.464844-52.460938-52.464844 52.460938c-.777344.78125-2.046875.78125-2.824218 0l-7.78125-7.777344c-.78125-.78125-.78125-2.046875 0-2.828125l52.464843-52.464844-52.464843-52.460937c-.78125-.78125-.78125-2.046876 0-2.828126l7.78125-7.78125c.777343-.777343 2.046874-.777343 2.824218 0l52.464844 52.464844 52.464844-52.464844c.777344-.777343 2.046875-.777343 2.824218 0l7.78125 7.78125c.78125.78125.78125 2.046876 0 2.828126l-52.464843 52.460937zm0 0" fill="#84deea"/><path d="m235 147.5c0 4.140625-3.359375 7.5-7.5 7.5s-7.5-3.359375-7.5-7.5 3.359375-7.5 7.5-7.5 7.5 3.359375 7.5 7.5zm17.5-7.5c-4.140625 0-7.5 3.359375-7.5 7.5s3.359375 7.5 7.5 7.5 7.5-3.359375 7.5-7.5-3.359375-7.5-7.5-7.5zm25 0c-4.140625 0-7.5 3.359375-7.5 7.5s3.359375 7.5 7.5 7.5 7.5-3.359375 7.5-7.5-3.359375-7.5-7.5-7.5zm0 0" fill="#0db2cc"/><path d="m100.875 440v-206.722656c0-5.519532 4.476562-10 10-10h290.25c5.523438 0 10 4.480468 10 10v206.722656c0 5.523438-4.476562 10-10 10h-290.25c-5.523438 0-10-4.476562-10-10zm0 0" fill="#fcb30b"/><path d="m130 450v-226.722656h271.125c5.523438 0 10 4.480468 10 10v206.722656c0 5.523438-4.476562 10-10 10zm0 0" fill="#fdbf43"/><path d="m320 268v-11c0-1.105469.894531-2 2-2h60.167969c1.105469 0 2 .894531 2 2v11c0 1.105469-.894531 2-2 2h-60.167969c-1.105469 0-2-.894531-2-2zm70 17h-68c-1.105469 0-2 .894531-2 2v11c0 1.105469.894531 2 2 2h68c1.105469 0 2-.894531 2-2v-11c0-1.105469-.894531-2-2-2zm0 30h-68c-1.105469 0-2 .894531-2 2v11c0 1.105469.894531 2 2 2h68c1.105469 0 2-.894531 2-2v-11c0-1.105469-.894531-2-2-2zm-37.832031 30h-30.167969c-1.105469 0-2 .894531-2 2v11c0 1.105469.894531 2 2 2h30.167969c1.105469 0 2-.894531 2-2v-11c0-1.105469-.898438-2-2-2zm0 0" fill="#fc9302"/><path d="m300 256.640625v160c0 5.519531-4.476562 10-10 10h-160c-5.523438 0-10-4.480469-10-10v-160c0-5.523437 4.476562-10 10-10h160c5.523438 0 10 4.476563 10 10zm0 0" fill="#fda800"/><path d="m135 291.640625c0-16.570313 13.429688-30 30-30s30 13.429687 30 30c0 16.566406-13.429688 30-30 30s-30-13.433594-30-30zm148.304688 34.957031-11.765626-15.394531c-3.167968-4.144531-9.414062-4.144531-12.585937 0l-46.703125 61.109375c-3.171875 4.148438-9.417969 4.148438-12.589844 0l-15.019531-19.652344c-3.167969-4.148437-9.414063-4.148437-12.585937 0l-35.347657 46.246094c-3.984375 5.214844-.265625 12.734375 6.292969 12.734375h134.011719c4.375 0 7.921875-3.546875 7.921875-7.921875v-72.308594c0-1.738281-.570313-3.429687-1.628906-4.8125zm0 0" fill="#fdd78d"/></svg>