<svg height="512.00023pt" viewBox="0 0 512.00023 512.00023" width="512.00023pt" xmlns="http://www.w3.org/2000/svg"><path d="m483.257812 138.0625c18.304688 35.199219 28.683594 75.179688 28.742188 117.585938.191406 141.21875-115.128906 256.539062-256.351562 256.351562-136.527344-.183594-248.007813-107.242188-255.273438-242l-.003906-.105469c-.433594-8.09375 6.015625-14.894531 14.125-14.894531h1.976562c131.730469 0 238.527344-106.789062 238.535156-238.523438 0-.667968 0-1.320312 0-1.949218.003907-8.09375 6.765626-14.589844 14.84375-14.160156.050782.003906.097657.007812.148438.011718 59.257812 3.191406 113.148438 26.546875 154.957031 63.3125 3.214844 2.824219 5.042969 6.902344 5.042969 11.179688v15.117187c0 22.097657 17.914062 40.011719 40.011719 40.011719 5.574219 0 10.671875 3.117188 13.246093 8.0625zm0 0" fill="#0680ae"/><path d="m8.675781 260h221.324219v40h-226.21875c-1.769531-10.203125-2.929688-20.613281-3.445312-31.195312-.2382818-4.785157 3.550781-8.804688 8.339843-8.804688zm0 0" fill="#017296"/><path d="m270 270h-269.613281c-.25-4.636719-.386719-9.300781-.386719-14 0-141.386719 114.613281-256 256-256 4.699219 0 9.363281.136719 14 .386719zm0 0" fill="#ecf8d9"/><path d="m85 100c0 4.140625-3.359375 7.5-7.5 7.5s-7.5-3.359375-7.5-7.5 3.359375-7.5 7.5-7.5 7.5 3.359375 7.5 7.5zm17.5-7.5c-4.140625 0-7.5 3.359375-7.5 7.5s3.359375 7.5 7.5 7.5 7.5-3.359375 7.5-7.5-3.359375-7.5-7.5-7.5zm25 0c-4.140625 0-7.5 3.359375-7.5 7.5s3.359375 7.5 7.5 7.5 7.5-3.359375 7.5-7.5-3.359375-7.5-7.5-7.5zm0 0" fill="#b8eb6a"/><path d="m144.210938 403.277344-50.441407-50.441406c-1.953125-1.953126-1.953125-5.117188 0-7.070313l50.441407-50.445313c75.632812-75.628906 198.253906-75.628906 273.882812 0l50.441406 50.445313c1.953125 1.953125 1.953125 5.117187 0 7.070313l-50.441406 50.441406c-65.070312 65.070312-164.925781 74.15625-239.707031 27.257812-12.140625-7.609375-23.617188-16.695312-34.175781-27.257812zm0 0" fill="#fdd78d"/><path d="m300.5625 459.023438c-42.910156-4.296876-84.660156-22.875-117.53125-55.746094-29.8125-29.8125-29.8125-78.144532 0-107.957032 32.871094-32.871093 74.621094-51.445312 117.53125-55.742187 42.910156 4.296875 84.660156 22.871094 117.53125 55.742187l50.441406 50.445313c1.953125 1.953125 1.953125 5.117187 0 7.070313l-50.441406 50.441406c-32.871094 32.871094-74.621094 51.449218-117.53125 55.746094zm0 0" fill="#fde5bd"/><path d="m367.570312 349.300781c0 47.726563-38.691406 86.417969-86.417968 86.417969-47.726563 0-86.421875-38.691406-86.421875-86.417969 0-47.730469 38.695312-86.421875 86.421875-86.421875 47.726562 0 86.417968 38.691406 86.417968 86.421875zm0 0" fill="#025f80"/><path d="m367.570312 349.300781c0 18.34375-5.71875 35.351563-15.46875 49.34375-13.992187 9.75-31 15.46875-49.34375 15.46875-47.730468 0-86.421874-38.691406-86.421874-86.417969 0-18.347656 5.722656-35.351562 15.472656-49.34375 13.988281-9.75 30.996094-15.472656 49.34375-15.472656 47.730468 0 86.417968 38.691406 86.417968 86.421875zm0 0" fill="#017296"/><path d="m345.96875 342.816406h-15.5625c-2.910156-22.222656-20.550781-39.863281-42.773438-42.773437v-15.558594c0-3.582031-2.902343-6.480469-6.480468-6.480469-3.582032 0-6.484375 2.898438-6.484375 6.480469v15.558594c-22.222657 2.910156-39.863281 20.550781-42.773438 42.773437h-15.558593c-3.582032 0-6.484376 2.902344-6.484376 6.484375 0 3.578125 2.902344 6.480469 6.484376 6.480469h15.558593c2.910157 22.222656 20.550781 39.863281 42.773438 42.773438v15.558593c0 3.582031 2.902343 6.484375 6.484375 6.484375 3.578125 0 6.480468-2.902344 6.480468-6.484375v-15.558593c22.222657-2.910157 39.863282-20.550782 42.773438-42.773438h15.5625c3.578125 0 6.480469-2.902344 6.480469-6.480469 0-3.582031-2.902344-6.484375-6.480469-6.484375zm-71.296875-29.660156v13.285156c-7.902344 2.242188-14.136719 8.476563-16.378906 16.375h-13.285157c2.695313-15.0625 14.597657-26.964844 29.664063-29.660156zm0 72.289062c-15.066406-2.695312-26.96875-14.597656-29.664063-29.664062h13.285157c2.242187 7.902344 8.476562 14.132812 16.378906 16.378906zm6.480469-25.34375c-5.957032 0-10.804688-4.84375-10.804688-10.800781s4.847656-10.804687 10.804688-10.804687c5.957031 0 10.800781 4.847656 10.800781 10.804687s-4.84375 10.800781-10.800781 10.800781zm6.480468 25.34375v-13.285156c7.902344-2.246094 14.136719-8.476562 16.378907-16.378906h13.285156c-2.695313 15.0625-14.597656 26.96875-29.664063 29.664062zm16.378907-42.628906c-2.242188-7.898437-8.476563-14.132812-16.378907-16.375v-13.285156c15.066407 2.695312 26.96875 14.597656 29.664063 29.660156zm0 0" fill="#6caac9"/><path d="m324.363281 319.050781c0 7.160157-5.804687 12.964844-12.964843 12.964844-7.160157 0-12.960938-5.804687-12.960938-12.964844 0-7.15625 5.800781-12.960937 12.960938-12.960937 7.160156 0 12.964843 5.804687 12.964843 12.960937zm0 0" fill="#b3d1e1"/><path d="m101.703125 337.828125 42.507813-42.507813c75.628906-75.628906 198.25-75.628906 273.882812 0l42.503906 42.507813c-49.394531-29.621094-111.710937-47.296875-179.445312-47.296875-67.738282 0-130.054688 17.675781-179.449219 47.296875zm0 0" fill="#fdbf43"/><path d="m210 240h-180c-5.523438 0-10-4.476562-10-10v-100c0-5.523438 4.476562-10 10-10h180c5.523438 0 10 4.476562 10 10v100c0 5.523438-4.476562 10-10 10zm0 0" fill="#e659a9"/><path d="m220 130v128.378906c0 6.417969-5.203125 11.621094-11.621094 11.621094-5.003906 0-9.445312-3.199219-11.027344-7.945312l-7.351562-22.054688h-140c-5.523438 0-10-4.476562-10-10v-100c0-5.523438 4.476562-10 10-10h160c5.523438 0 10 4.476562 10 10zm0 0" fill="#ec74b6"/><path d="m150 142v11c0 1.105469-.894531 2-2 2h-90.167969c-1.105469 0-2-.894531-2-2v-11c0-1.105469.894531-2 2-2h90.167969c1.105469 0 2 .894531 2 2zm-2 28h-90.167969c-1.105469 0-2 .894531-2 2v11c0 1.105469.894531 2 2 2h90.167969c1.105469 0 2-.894531 2-2v-11c0-1.105469-.894531-2-2-2zm-60 30h-30.167969c-1.105469 0-2 .894531-2 2v11c0 1.105469.894531 2 2 2h30.167969c1.105469 0 2-.894531 2-2v-11c0-1.105469-.894531-2-2-2zm0 0" fill="#c43286"/><path d="m270 60v80h-45.847656c-11.84375 0-23.425782-3.507812-33.28125-10.078125l-38.644532-25.761719c-2.96875-1.980468-2.96875-6.339844 0-8.320312l38.644532-25.761719c9.855468-6.570313 21.4375-10.078125 33.28125-10.078125zm0 0" fill="#fdbf43"/><path d="m484.265625 140h-258.28125c-11.042969 0-20-8.953125-20-20s8.957031-20 20-20c-11.042969 0-20-8.953125-20-20s8.957031-20 20-20h194.679687c26.199219 22.035156 47.925782 49.214844 63.601563 80zm0 0" fill="#fd7d43"/><path d="m484.265625 140h-258.28125c-11.042969 0-20-8.953125-20-20s8.957031-20 20-20h232.988281c9.601563 12.476562 18.089844 25.855469 25.292969 40zm0 0" fill="#fc5426"/><path d="m165.984375 113.332031-13.757813-9.171875c-2.96875-1.980468-2.96875-6.339844 0-8.320312l13.757813-9.175782zm0 0" fill="#024c67"/></svg>