<?xml version="1.0" encoding="iso-8859-1"?>
<!-- Generator: Adobe Illustrator 19.0.0, SVG Export Plug-In . SVG Version: 6.00 Build 0)  -->
<svg version="1.1" id="Capa_1" xmlns="http://www.w3.org/2000/svg" xmlns:xlink="http://www.w3.org/1999/xlink" x="0px" y="0px"
	 viewBox="0 0 512 512" style="enable-background:new 0 0 512 512;" xml:space="preserve">
<circle style="fill:#FD6874;" cx="266.17" cy="256" r="245.83"/>
<path style="fill:#FED652;" d="M333.66,368.675c0-28.065,20.1-51.424,46.687-56.498c2.83-7.037,5.227-14.294,7.113-21.758
	c0.457-1.81,1.916-3.191,3.757-3.504l47.032-8.005c2.253-0.383,3.9-2.335,3.9-4.62c0-18.855,0-35.095,0-53.949
	c0-2.285-1.648-4.237-3.9-4.62l-47.032-8.005c-1.841-0.313-3.3-1.694-3.757-3.504c-4.094-16.207-10.501-31.492-18.843-45.49
	c-0.96-1.61-0.898-3.627,0.194-5.15l27.851-38.882c1.335-1.864,1.126-4.422-0.496-6.043L359.11,71.593
	c-1.616-1.616-4.161-1.831-6.025-0.509l-39.092,27.721c-1.521,1.079-3.528,1.136-5.13,0.181
	c-14.005-8.341-29.296-14.746-45.51-18.835c-1.81-0.457-3.192-1.916-3.506-3.757l-8.043-47.263c-0.384-2.252-2.336-3.9-4.621-3.9
	H194.78c-2.293,0-4.25,1.66-4.624,3.922l-7.825,47.341c-0.305,1.846-1.685,3.314-3.497,3.776
	c-16.124,4.115-31.331,10.517-45.261,18.839c-1.603,0.958-3.613,0.902-5.136-0.178L89.309,71.186
	c-1.863-1.322-4.409-1.107-6.024,0.509L46.23,108.749c-1.622,1.622-1.832,4.178-0.496,6.043l27.952,39.023
	c1.09,1.521,1.154,3.535,0.198,5.144c-8.259,13.909-14.608,29.083-18.679,45.167c-0.458,1.808-1.917,3.189-3.756,3.502L3.9,215.721
	c-2.252,0.384-3.9,2.335-3.9,4.62c0,18.855,0,35.095,0,53.949c0,2.285,1.648,4.237,3.9,4.62l47.55,8.093
	c1.839,0.313,3.298,1.693,3.756,3.502c4.072,16.083,10.42,31.258,18.679,45.167c0.955,1.609,0.891,3.623-0.198,5.144l-27.952,39.023
	c-1.336,1.865-1.125,4.421,0.496,6.043l37.055,37.054c1.616,1.616,4.161,1.831,6.024,0.509l39.127-27.745
	c1.524-1.08,3.533-1.136,5.136-0.178c13.93,8.322,29.137,14.724,45.261,18.839c1.813,0.462,3.192,1.931,3.497,3.776l7.825,47.341
	c0.374,2.262,2.33,3.922,4.624,3.922h52.403c2.285,0,4.237-1.648,4.621-3.9l8.043-47.262c0.314-1.84,1.696-3.3,3.506-3.757
	c16.214-4.09,31.505-10.494,45.51-18.835c1.603-0.954,3.609-0.898,5.13,0.182l39.092,27.721c1.864,1.322,4.409,1.107,6.025-0.509
	l4.097-4.097C345.584,409.108,333.66,390.289,333.66,368.675z"/>
<g>
	<path style="fill:#FEBE40;" d="M333.66,368.675c0-0.401,0.019-0.798,0.027-1.197c-5.569,0.524-11.208,0.804-16.911,0.804
		c-147.89,0-231.201-169.642-143.095-286.596c-14.214,4.108-27.672,9.994-40.107,17.423c-1.604,0.958-3.613,0.902-5.136-0.178
		L89.309,71.186c-1.863-1.322-4.409-1.107-6.024,0.509L46.23,108.749c-1.621,1.622-1.832,4.178-0.496,6.043l27.952,39.023
		c1.09,1.521,1.154,3.535,0.198,5.144c-8.259,13.909-14.608,29.083-18.679,45.167c-0.458,1.808-1.917,3.189-3.756,3.502L3.9,215.721
		c-2.252,0.384-3.9,2.335-3.9,4.62c0,18.855,0,35.095,0,53.949c0,2.285,1.648,4.237,3.9,4.62l47.55,8.093
		c1.839,0.313,3.298,1.693,3.756,3.502c4.072,16.083,10.42,31.258,18.679,45.167c0.955,1.609,0.891,3.623-0.198,5.144
		l-27.952,39.023c-1.335,1.865-1.125,4.421,0.496,6.043l37.055,37.054c1.616,1.616,4.161,1.831,6.024,0.509l39.127-27.745
		c1.524-1.08,3.533-1.136,5.136-0.178c13.93,8.322,29.137,14.724,45.26,18.839c1.813,0.462,3.192,1.931,3.497,3.776l7.825,47.341
		c0.374,2.262,2.33,3.922,4.624,3.922h52.403c2.285,0,4.237-1.648,4.621-3.9l8.043-47.263c0.314-1.84,1.695-3.3,3.505-3.757
		c16.214-4.09,31.505-10.494,45.51-18.835c1.603-0.954,3.609-0.898,5.13,0.182l39.092,27.721c1.864,1.322,4.409,1.107,6.025-0.509
		l4.097-4.097C345.584,409.108,333.66,390.288,333.66,368.675z"/>
	<path style="fill:#FEBE40;" d="M221.074,380.325c-73.341,0-133.009-59.667-133.009-133.01c0-73.341,59.667-133.008,133.009-133.008
		s133.009,59.667,133.009,133.008C354.083,320.657,294.416,380.325,221.074,380.325z"/>
</g>
<path style="fill:#F9AA2B;" d="M88.065,247.315c0,73.342,59.667,133.01,133.009,133.01c22.305,0,43.34-5.527,61.822-15.271
	c-102.915-19.789-168.163-124.846-137.781-226.86C110.656,162.254,88.065,202.193,88.065,247.315z"/>
<path style="fill:#E8E6E9;" d="M221.074,151.615c-52.769,0-95.701,42.931-95.701,95.7c0,52.771,42.932,95.702,95.701,95.702
	s95.701-42.931,95.701-95.702C316.775,194.546,273.844,151.615,221.074,151.615z"/>
<path style="fill:#D3D0D4;" d="M225.019,342.929c-49.409-29.605-83.43-82.343-86.99-143.137
	C100.85,264.507,149.629,346.001,225.019,342.929z"/>
<g>
	<path style="fill:#5C515E;" d="M221.074,255.833h-37.985c-4.703,0-8.516-3.812-8.516-8.516s3.813-8.516,8.516-8.516h29.469v-46.913
		c0-4.704,3.813-8.516,8.516-8.516s8.516,3.812,8.516,8.516v55.429C229.591,252.02,225.778,255.833,221.074,255.833z"/>
	<path style="fill:#5C515E;" d="M484.168,347.036c-1.006-0.171-1.803-0.926-2.053-1.915c-2.237-8.856-5.738-17.209-10.297-24.858
		c-0.524-0.88-0.49-1.982,0.106-2.815l15.219-21.247c0.73-1.019,0.615-2.416-0.271-3.302l-20.249-20.249
		c-0.883-0.883-2.274-1.001-3.292-0.278l-21.362,15.148c-0.831,0.589-1.928,0.621-2.804,0.099
		c-7.653-4.558-16.009-8.058-24.869-10.292c-0.989-0.25-1.744-1.047-1.916-2.053l-4.395-25.827
		c-0.209-1.231-1.276-2.131-2.525-2.131h-28.636c-1.253,0-2.323,0.907-2.527,2.143l-4.276,25.869
		c-0.167,1.009-0.921,1.811-1.911,2.064c-8.811,2.248-17.121,5.747-24.733,10.294c-0.876,0.524-1.974,0.493-2.807-0.097
		l-21.381-15.161c-1.018-0.722-2.409-0.605-3.292,0.278l-20.248,20.248c-0.886,0.886-1.001,2.284-0.271,3.302l15.274,21.324
		c0.595,0.832,0.63,1.932,0.109,2.811c-4.513,7.601-7.983,15.893-10.208,24.682c-0.25,0.988-1.047,1.742-2.052,1.913l-25.984,4.422
		c-1.231,0.21-2.131,1.276-2.131,2.525c0,10.303,0,19.178,0,29.481c0,1.249,0.9,2.315,2.131,2.525l25.984,4.422
		c1.005,0.171,1.802,0.925,2.052,1.913c2.225,8.789,5.694,17.081,10.208,24.682c0.522,0.879,0.487,1.98-0.109,2.811l-15.274,21.324
		c-0.73,1.019-0.615,2.416,0.271,3.302l20.248,20.249c0.883,0.883,2.274,1.001,3.292,0.278l21.381-15.161
		c0.833-0.59,1.931-0.621,2.807-0.097c7.612,4.548,15.922,8.046,24.733,10.294c0.99,0.253,1.745,1.055,1.911,2.064l2.584,15.636
		c54.769-26.348,98.255-72.404,121.3-128.964L484.168,347.036z M391.193,418.384c-27.866,0-50.457-22.59-50.457-50.456
		s22.59-50.456,50.457-50.456c27.866,0,50.456,22.59,50.456,50.456S419.059,418.384,391.193,418.384z"/>
</g>
<path style="fill:#4A404E;" d="M403.134,416.95c-3.83,0.93-7.825,1.434-11.941,1.434c-27.866,0-50.457-22.59-50.457-50.456
	c0-13.442,5.267-25.647,13.836-34.69c-0.318-3.489-0.49-7.02-0.49-10.592c0-15.458,3.053-30.201,8.577-43.67
	c-6.797,2.185-13.261,5.113-19.282,8.71c-0.876,0.524-1.974,0.493-2.807-0.097l-21.381-15.161c-1.018-0.722-2.409-0.605-3.292,0.278
	l-20.248,20.248c-0.886,0.886-1.001,2.284-0.271,3.302l15.274,21.324c0.595,0.832,0.63,1.932,0.109,2.811
	c-4.513,7.601-7.983,15.893-10.208,24.682c-0.25,0.988-1.047,1.742-2.052,1.913l-25.984,4.422c-1.231,0.21-2.131,1.276-2.131,2.525
	c0,10.303,0,19.178,0,29.481c0,1.249,0.9,2.315,2.131,2.525l25.984,4.422c1.005,0.171,1.802,0.925,2.052,1.913
	c2.225,8.789,5.694,17.081,10.208,24.682c0.522,0.879,0.487,1.98-0.109,2.811l-15.274,21.324c-0.73,1.019-0.615,2.416,0.271,3.302
	l20.248,20.249c0.883,0.883,2.274,1.001,3.292,0.278l21.381-15.161c0.833-0.59,1.931-0.621,2.807-0.097
	c7.612,4.548,15.922,8.046,24.733,10.294c0.99,0.253,1.745,1.055,1.911,2.064l2.584,15.636c23.701-11.402,45.283-26.5,64.016-44.538
	C424.509,429.547,413.226,424.039,403.134,416.95z"/>
<g>
</g>
<g>
</g>
<g>
</g>
<g>
</g>
<g>
</g>
<g>
</g>
<g>
</g>
<g>
</g>
<g>
</g>
<g>
</g>
<g>
</g>
<g>
</g>
<g>
</g>
<g>
</g>
<g>
</g>
</svg>
