<?xml version="1.0" encoding="iso-8859-1"?>
<!-- Generator: Adobe Illustrator 19.0.0, SVG Export Plug-In . SVG Version: 6.00 Build 0)  -->
<svg version="1.1" id="Capa_1" xmlns="http://www.w3.org/2000/svg" xmlns:xlink="http://www.w3.org/1999/xlink" x="0px" y="0px"
	 viewBox="0 0 512.001 512.001" style="enable-background:new 0 0 512.001 512.001;" xml:space="preserve">
<circle style="fill:#5C515E;" cx="256.002" cy="255.993" r="255.993"/>
<g>
	<path style="fill:#908A91;" d="M407.197,462.563c-0.168-0.209-0.347-0.412-0.542-0.606l-10.084-10.084
		c-2.708-2.708-7.027-2.844-9.941-0.36c-35.295,30.086-81.029,48.271-130.932,48.271c-106.966,0-194.775-83.53-201.661-188.784
		h23.597c2.221,0,3.513-2.513,2.219-4.319l-37.447-52.277c-1.089-1.52-3.349-1.52-4.437,0L0.522,306.681
		C-0.772,308.487,0.519,311,2.741,311h22.5c2.253,39.828,14.587,77.752,35.761,110.822
		C148.821,525.006,300.081,541.1,407.197,462.563z"/>
	<path style="fill:#908A91;" d="M509.258,311h-23.102c3.76-66.527-20.476-129.816-67.223-176.563
		c-90.059-90.058-237.391-90.802-327.941,1.485c-2.843,2.898-2.829,7.543,0.041,10.413l10.109,10.109
		c2.807,2.806,7.377,2.814,10.152-0.023c36.711-37.53,87.88-60.86,144.404-60.86c115.702,0,209.35,97.917,201.662,215.44h-22.994
		c-2.222,0-3.512,2.513-2.219,4.319l37.446,52.278c1.089,1.52,3.349,1.52,4.438,0l37.446-52.278
		C512.771,313.511,511.48,311,509.258,311z"/>
</g>
<g>
	<path style="fill:#7E777F;" d="M312.395,94.099c0-8.598,6.836-15.582,15.368-15.857c-80.371-26.304-172.863-7.461-236.771,57.678
		c-2.843,2.898-2.829,7.543,0.041,10.413l10.109,10.109c2.807,2.806,7.377,2.814,10.152-0.023
		c53.678-54.875,133.047-74.417,205.441-51.433C314.052,102.143,312.395,98.318,312.395,94.099z"/>
	<path style="fill:#7E777F;" d="M152.945,471.646C97.124,438.546,58.509,379.361,54.036,311h23.597c2.221,0,3.513-2.513,2.219-4.319
		l-37.447-52.277c-1.089-1.52-3.349-1.52-4.437,0L0.522,306.681C-0.772,308.487,0.519,311,2.741,311h22.5
		c2.253,39.828,14.587,77.752,35.761,110.822c21.68,25.473,48.27,46.634,78.294,62.047
		C140.777,477.384,146.218,472.414,152.945,471.646z"/>
</g>
<path style="fill:#E8E6E9;" d="M328.946,216.512v-20.309H180.109v20.309c0,35.192,24.428,64.673,57.252,72.424
	c4.845,1.144,8.302,5.414,8.302,10.392l0,0c0,4.913-3.41,9.133-8.193,10.254c-32.879,7.711-57.361,37.219-57.361,72.449v20.309
	h148.838v-20.309c0-35.279-24.549-64.82-57.496-72.481c-4.706-1.094-8.057-5.252-8.057-10.083l0,0c0-5.06,3.515-9.391,8.438-10.563
	C304.584,281.104,328.946,251.655,328.946,216.512z"/>
<path style="fill:#D3D0D4;" d="M252.639,309.582c1.526-1.122,2.615-5.342,2.615-10.254c0-4.978-1.103-9.248-2.649-10.392
	c-10.475-7.75-18.271-37.232-18.271-72.424v-20.309h-54.225v20.309c0,35.192,24.428,64.673,57.252,72.424
	c4.845,1.144,8.302,5.414,8.302,10.392c0,4.913-3.41,9.133-8.193,10.254c-32.879,7.711-57.361,37.219-57.361,72.449v20.309h54.225
	v-20.309C234.333,346.8,242.146,317.291,252.639,309.582z"/>
<path style="fill:#FFF6D4;" d="M190.195,253.914c10.122,17.369,27.063,30.275,47.166,35.021c4.827,1.14,8.274,5.382,8.3,10.336
	h17.741c0.09-4.975,3.571-9.211,8.429-10.368c20.043-4.772,36.931-17.66,47.03-34.989L190.195,253.914L190.195,253.914z"/>
<path style="fill:#FFE693;" d="M190.197,253.918c10.37,17.793,27.568,30.384,47.14,35.011c0.008,0.002,0.016,0.004,0.024,0.006
	c2.228,0.526,4.38,1.81,5.922,3.705c0.009,0.011,0.02,0.022,0.029,0.033c1.465,1.817,2.33,4.109,2.348,6.578
	c0,0.007,0.001,0.013,0.001,0.02h9.592c-0.008-4.954-1.108-9.196-2.649-10.336c-6.416-4.747-11.822-17.653-15.052-35.021h-47.357
	C190.196,253.915,190.196,253.917,190.197,253.918z"/>
<path style="fill:#FFF6D4;" d="M321.559,349.704H187.495c-10.448,21.621-6.512,38.534-7.388,52.636h148.837v-20.309
	C328.946,370.443,326.284,359.482,321.559,349.704z"/>
<path style="fill:#FFE693;" d="M234.333,382.031c0-11.588,0.85-22.548,2.358-32.326h-49.195
	c-10.354,21.427-6.553,37.825-7.388,52.636h54.225V382.031z"/>
<g>
	<path style="fill:#FEBE40;" d="M335.764,430.876H173.29c-8.182,0-14.816-6.633-14.816-14.816c0-8.183,6.633-14.816,14.816-14.816
		h162.474c8.182,0,14.816,6.633,14.816,14.816C350.579,424.243,343.946,430.876,335.764,430.876z"/>
	<path style="fill:#FEBE40;" d="M335.764,197.297H173.29c-8.182,0-14.816-6.633-14.816-14.816c0-8.182,6.633-14.816,14.816-14.816
		h162.474c8.182,0,14.816,6.633,14.816,14.816C350.579,190.664,343.946,197.297,335.764,197.297z"/>
</g>
<g>
	<path style="fill:#F9AA2B;" d="M222.807,416.061c0-8.182,6.633-14.816,14.816-14.816h-64.331c-8.182,0-14.816,6.633-14.816,14.816
		c0,8.183,6.633,14.816,14.816,14.816h64.331C229.439,430.876,222.807,424.242,222.807,416.061z"/>
	<path style="fill:#F9AA2B;" d="M222.807,182.482c0-8.182,6.633-14.816,14.816-14.816h-64.331c-8.182,0-14.816,6.633-14.816,14.816
		c0,8.182,6.633,14.816,14.816,14.816h64.331C229.439,197.297,222.807,190.664,222.807,182.482z"/>
</g>
<g>
</g>
<g>
</g>
<g>
</g>
<g>
</g>
<g>
</g>
<g>
</g>
<g>
</g>
<g>
</g>
<g>
</g>
<g>
</g>
<g>
</g>
<g>
</g>
<g>
</g>
<g>
</g>
<g>
</g>
</svg>
