<?xml version="1.0" encoding="iso-8859-1"?>
<!-- Generator: Adobe Illustrator 19.0.0, SVG Export Plug-In . SVG Version: 6.00 Build 0)  -->
<svg version="1.1" id="Capa_1" xmlns="http://www.w3.org/2000/svg" xmlns:xlink="http://www.w3.org/1999/xlink" x="0px" y="0px"
	 viewBox="0 0 512 512" style="enable-background:new 0 0 512 512;" xml:space="preserve">
<circle style="fill:#FD6874;" cx="256" cy="256" r="256"/>
<path style="fill:#E8E6E9;" d="M470.087,252.381c-2.316-0.394-4.152-2.132-4.727-4.409c-5.152-20.393-13.214-39.626-23.711-57.239
	c-1.208-2.026-1.129-4.563,0.244-6.481l35.045-48.924c1.68-2.346,1.416-5.564-0.624-7.604l-46.625-46.625
	c-2.033-2.033-5.236-2.304-7.581-0.641l-49.189,34.881c-1.915,1.358-4.439,1.43-6.456,0.228
	c-17.622-10.495-36.863-18.554-57.265-23.7c-2.278-0.575-4.017-2.411-4.411-4.727l-10.121-59.47
	c-0.482-2.834-2.939-4.908-5.814-4.908h-65.938c-2.886,0-5.348,2.088-5.818,4.935l-9.846,59.569c-0.384,2.323-2.12,4.17-4.401,4.752
	c-20.288,5.177-39.423,13.233-56.951,23.705c-2.018,1.205-4.546,1.135-6.463-0.224L90.202,80.587
	c-2.344-1.663-5.547-1.392-7.581,0.641l-46.625,46.625c-2.04,2.04-2.305,5.258-0.624,7.604l35.172,49.102
	c1.371,1.914,1.452,4.448,0.25,6.473c-10.392,17.501-18.381,36.595-23.504,56.833c-0.576,2.276-2.412,4.012-4.726,4.406
	l-42.519,7.236c0.418,31.08,6.37,60.821,16.923,88.284l25.596,4.356c2.314,0.394,4.15,2.131,4.726,4.406
	c5.123,20.237,13.112,39.331,23.504,56.833c1.202,2.025,1.122,4.559-0.25,6.473l-5.082,7.095C112.329,479.155,180.325,512,256,512
	c75.741,0,143.788-32.902,190.659-85.182l-4.765-6.653c-1.373-1.917-1.451-4.455-0.244-6.481
	c10.497-17.614,18.559-36.846,23.711-57.239c0.575-2.277,2.411-4.015,4.727-4.409l24.946-4.246
	c10.553-27.463,16.505-57.203,16.923-88.284L470.087,252.381z"/>
<path style="fill:#D3D0D4;" d="M385.579,469.891c-130.698,0-236.65-105.952-236.65-236.65c0-51.813,16.664-99.728,44.908-138.703
	c-16.955,5.127-33.03,12.278-47.938,21.185c-2.018,1.205-4.546,1.135-6.463-0.224L90.202,80.587
	c-2.344-1.663-5.547-1.392-7.581,0.641l-46.625,46.625c-2.04,2.04-2.305,5.258-0.624,7.604l35.172,49.102
	c1.371,1.914,1.452,4.448,0.25,6.473c-10.392,17.501-18.381,36.595-23.504,56.833c-0.576,2.276-2.412,4.012-4.726,4.406
	l-42.519,7.236c0.418,31.08,6.37,60.821,16.923,88.284l25.596,4.356c2.314,0.394,4.15,2.131,4.726,4.406
	c5.123,20.237,13.112,39.331,23.504,56.833c1.202,2.025,1.122,4.559-0.25,6.473l-5.082,7.095C112.329,479.155,180.325,512,256,512
	c52.157,0,100.663-15.605,141.121-42.393C393.296,469.791,389.45,469.891,385.579,469.891z"/>
<path style="fill:#7E777F;" d="M256,464.572c-89.899,0-163.037-73.138-163.037-163.037c0-89.9,73.138-163.039,163.037-163.039
	c89.9,0,163.038,73.14,163.038,163.039S345.9,464.572,256,464.572z"/>
<path style="fill:#5C515E;" d="M148.929,233.241c0-21.117,2.77-41.586,7.962-61.067c-38.84,29.828-63.928,76.717-63.928,129.361
	c0,89.898,73.138,163.037,163.037,163.037c17.739,0,34.822-2.858,50.823-8.121C214.846,423.997,148.929,336.324,148.929,233.241z"/>
<path style="fill:#E8E6E9;" d="M256,172.984c-70.882,0-128.548,57.668-128.548,128.551c0,70.882,57.667,128.548,128.548,128.548
	c70.883,0,128.55-57.667,128.55-128.548C384.55,230.652,326.883,172.984,256,172.984z"/>
<path style="fill:#D3D0D4;" d="M148.952,230.445c-13.576,20.375-21.5,44.823-21.5,71.09c0,70.269,56.677,127.541,126.716,128.525
	c-63.453-42.444-105.239-114.747-105.239-196.819C148.929,232.307,148.942,231.376,148.952,230.445z"/>
<g>
	<path style="fill:#5C515E;" d="M256.001,171.46c-4.963,0-8.986,4.023-8.986,8.986v9.773c0,4.963,4.023,8.986,8.986,8.986
		c4.963,0,8.986-4.023,8.986-8.986v-9.773C264.986,175.483,260.963,171.46,256.001,171.46z"/>
	<path style="fill:#5C515E;" d="M256.001,402.873c-4.963,0-8.986,4.023-8.986,8.986v9.773c0,4.963,4.023,8.986,8.986,8.986
		c4.963,0,8.986-4.023,8.986-8.986v-9.773C264.986,406.895,260.963,402.873,256.001,402.873z"/>
	<path style="fill:#5C515E;" d="M320.789,188.821c-4.296-2.482-9.794-1.01-12.275,3.289l-4.886,8.464
		c-2.481,4.299-1.008,9.794,3.29,12.275c4.269,2.465,9.778,1.036,12.275-3.289l4.886-8.464
		C326.56,196.797,325.087,191.302,320.789,188.821z"/>
	<path style="fill:#5C515E;" d="M205.085,389.23c-4.298-2.479-9.794-1.011-12.275,3.289l-4.887,8.463
		c-2.482,4.298-1.009,9.793,3.288,12.275c4.293,2.477,9.791,1.015,12.275-3.289l4.887-8.463
		C210.855,397.207,209.382,391.712,205.085,389.23z"/>
	<path style="fill:#5C515E;" d="M356.465,253.411l8.464-4.886c4.298-2.48,5.771-7.976,3.29-12.275
		c-2.482-4.298-7.978-5.772-12.275-3.289l-8.464,4.886c-4.298,2.48-5.771,7.976-3.29,12.275
		C346.685,254.441,352.188,255.88,356.465,253.411z"/>
	<path style="fill:#5C515E;" d="M155.535,348.667l-8.463,4.886c-4.298,2.48-5.771,7.976-3.289,12.275
		c2.489,4.311,7.988,5.763,12.275,3.289l8.463-4.886c4.298-2.48,5.771-7.976,3.289-12.275
		C165.329,347.657,159.833,346.188,155.535,348.667z"/>
	<path style="fill:#5C515E;" d="M376.593,292.054h-9.773c-4.963,0-8.986,4.023-8.986,8.986c0,4.963,4.023,8.986,8.986,8.986h9.773
		c4.963,0,8.986-4.023,8.986-8.986C385.579,296.076,381.556,292.054,376.593,292.054z"/>
	<path style="fill:#5C515E;" d="M154.167,301.039c0-4.963-4.023-8.986-8.986-8.986h-9.773c-4.963,0-8.986,4.023-8.986,8.986
		c0,4.963,4.023,8.986,8.986,8.986h9.773C150.144,310.025,154.167,306.003,154.167,301.039z"/>
	<path style="fill:#5C515E;" d="M364.929,353.553l-8.464-4.886c-4.298-2.48-9.794-1.011-12.275,3.289
		c-2.481,4.299-1.008,9.794,3.29,12.275l8.464,4.886c4.279,2.469,9.782,1.028,12.275-3.289
		C370.701,361.529,369.228,356.034,364.929,353.553z"/>
	<path style="fill:#5C515E;" d="M164.521,237.847l-8.463-4.886c-4.3-2.482-9.794-1.01-12.275,3.289
		c-2.482,4.299-1.009,9.794,3.289,12.275l8.463,4.886c4.293,2.476,9.791,1.015,12.275-3.289
		C170.292,245.823,168.819,240.327,164.521,237.847z"/>
	<path style="fill:#5C515E;" d="M319.193,392.519c-2.482-4.298-7.977-5.769-12.275-3.289c-4.298,2.482-5.771,7.977-3.289,12.275
		l4.886,8.463c2.489,4.311,7.988,5.763,12.275,3.289c4.298-2.482,5.771-7.977,3.289-12.275L319.193,392.519z"/>
	<path style="fill:#5C515E;" d="M203.486,192.11c-2.481-4.298-7.977-5.769-12.275-3.289c-4.298,2.482-5.771,7.977-3.289,12.275
		l4.887,8.464c2.489,4.311,7.988,5.763,12.275,3.289c4.298-2.482,5.771-7.977,3.289-12.275L203.486,192.11z"/>
</g>
<circle style="fill:#FED652;" cx="256" cy="301.53" r="68.29"/>
<path style="fill:#FEBE40;" d="M223.976,320.023c-16.164-27.996-10.236-62.666,12.35-83.881c-4.946,1.493-9.803,3.553-14.471,6.248
	c-32.664,18.859-43.855,60.626-24.997,93.29c18.859,32.664,60.626,43.855,93.29,24.997c4.668-2.695,8.881-5.871,12.647-9.408
	C273.128,360.221,240.139,348.019,223.976,320.023z"/>
<g>
	<path style="fill:#5C515E;" d="M256,439.069c-75.837,0-137.534-61.697-137.534-137.533c0-75.838,61.697-137.537,137.534-137.537
		s137.536,61.698,137.536,137.537C393.536,377.372,331.837,439.069,256,439.069z M256,181.971
		c-65.927,0-119.562,53.637-119.562,119.565c0,65.927,53.635,119.562,119.562,119.562c65.928,0,119.564-53.635,119.564-119.562
		C375.564,235.607,321.928,181.971,256,181.971z"/>
	<path style="fill:#5C515E;" d="M268.035,288.824c4.805,4.805,5.218,12.573,1.665,19.352l55.636-73.659
		c1.768-2.34-0.654-4.762-2.994-2.994l-73.659,55.636C255.463,283.605,263.23,284.018,268.035,288.824z"/>
</g>
<path style="fill:#FD6874;" d="M238.152,301.388c0-4.217,1.735-8.069,4.594-11.045l-61.444,9.26c-2.266,0.341-2.266,3.229,0,3.571
	l61.444,9.26C239.887,309.457,238.152,305.605,238.152,301.388z"/>
<circle style="fill:#716B72;" cx="256.23" cy="301.44" r="18.968"/>
<path style="fill:#5C515E;" d="M256.227,301.442c-3.508-6.077-3.256-13.28,0.008-18.953c-3.227-0.005-6.497,0.797-9.493,2.527
	c-9.072,5.238-12.18,16.838-6.943,25.911c5.238,9.072,16.839,12.181,25.911,6.943c2.996-1.729,5.325-4.161,6.934-6.958
	C266.1,310.902,259.736,307.519,256.227,301.442z"/>
<g>
</g>
<g>
</g>
<g>
</g>
<g>
</g>
<g>
</g>
<g>
</g>
<g>
</g>
<g>
</g>
<g>
</g>
<g>
</g>
<g>
</g>
<g>
</g>
<g>
</g>
<g>
</g>
<g>
</g>
</svg>
