<?xml version="1.0" encoding="iso-8859-1"?>
<!-- Generator: Adobe Illustrator 19.0.0, SVG Export Plug-In . SVG Version: 6.00 Build 0)  -->
<svg version="1.1" id="Capa_1" xmlns="http://www.w3.org/2000/svg" xmlns:xlink="http://www.w3.org/1999/xlink" x="0px" y="0px"
	 viewBox="0 0 512 512" style="enable-background:new 0 0 512 512;" xml:space="preserve">
<circle style="fill:#37AEE2;" cx="256" cy="256" r="256"/>
<g>
	<path style="fill:#A7E0F5;" d="M407.203,462.576c-0.168-0.209-0.347-0.412-0.542-0.606l-10.084-10.084
		c-2.708-2.708-7.027-2.844-9.941-0.36c-35.296,30.087-81.031,48.272-130.936,48.272c-106.969,0-194.78-83.532-201.667-188.789
		H77.63c2.221,0,3.513-2.513,2.219-4.319l-37.448-52.278c-1.089-1.52-3.349-1.52-4.437,0L0.515,306.689
		c-1.294,1.806-0.003,4.319,2.219,4.319h22.501c2.253,39.829,14.587,77.754,35.762,110.825C107.949,476.999,177.88,512,256,512
		C312.564,512,364.833,493.641,407.203,462.576z"/>
	<path style="fill:#A7E0F5;" d="M509.266,311.008h-23.103c3.76-66.529-20.477-129.82-67.225-176.568
		c-43.603-43.602-101.576-67.615-163.239-67.615c-62.302,0-121.008,24.56-164.71,69.101c-2.843,2.898-2.829,7.543,0.041,10.413
		l10.109,10.109c2.807,2.806,7.377,2.814,10.152-0.023c36.712-37.531,87.882-60.862,144.408-60.862
		c115.705,0,209.356,97.92,201.667,215.446h-22.995c-2.222,0-3.512,2.513-2.219,4.319l37.447,52.279c1.089,1.52,3.349,1.52,4.438,0
		l37.447-52.279C512.779,313.52,511.487,311.008,509.266,311.008z"/>
</g>
<g>
	<path style="fill:#8BD3F0;" d="M312.398,94.102c0-8.598,6.836-15.582,15.368-15.857c-22.957-7.514-47.211-11.421-72.067-11.421
		c-62.295,0-121.009,24.558-164.71,69.101c-2.843,2.898-2.829,7.543,0.041,10.413l10.109,10.109
		c2.807,2.806,7.377,2.814,10.152-0.023c36.712-37.531,87.882-60.862,144.408-60.862c21.266,0,41.772,3.311,61.039,9.428
		C314.054,102.146,312.398,98.321,312.398,94.102z"/>
	<path style="fill:#8BD3F0;" d="M152.944,471.659c-55.823-33.101-94.439-92.288-98.912-160.651H77.63
		c2.221,0,3.513-2.513,2.219-4.319l-37.448-52.278c-1.089-1.52-3.349-1.52-4.437,0L0.515,306.689
		c-1.294,1.806-0.003,4.319,2.219,4.319h22.501c2.253,39.829,14.587,77.754,35.762,110.825
		c21.681,25.474,48.271,46.635,78.296,62.049C140.775,477.397,146.216,472.427,152.944,471.659z"/>
</g>
<g>
	<path style="fill:#D3D0D4;" d="M255.699,166.168c-5.112,0-9.256-4.144-9.256-9.256v-17.524c0-5.112,4.144-9.256,9.256-9.256
		c5.112,0,9.256,4.144,9.256,9.256v17.524C264.955,162.024,260.811,166.168,255.699,166.168z"/>
	<path style="fill:#D3D0D4;" d="M270.793,156.557v37.073c-4.952-0.784-9.987-1.199-15.094-1.199c-5.107,0-10.142,0.415-15.094,1.199
		v-37.073H270.793z"/>
</g>
<path style="fill:#E8E6E9;" d="M235.871,169.323h39.655c8.089,0,14.647-6.558,14.647-14.647l0,0c0-8.089-6.558-14.647-14.647-14.647
	h-39.655c-8.089,0-14.647,6.558-14.647,14.647l0,0C221.224,162.765,227.782,169.323,235.871,169.323z"/>
<path style="fill:#D3D0D4;" d="M255.699,154.676c0-8.089,6.558-14.647,14.647-14.647h-34.475c-8.089,0-14.647,6.558-14.647,14.647
	s6.558,14.647,14.647,14.647h34.475C262.257,169.323,255.699,162.765,255.699,154.676z"/>
<g>
	<path style="fill:#4A404E;" d="M182.903,222.406l-17.24-23.547c-2.576-3.519-1.812-8.458,1.706-11.034
		c3.517-2.574,8.458-1.812,11.033,1.706l17.24,23.547c2.576,3.519,1.812,8.458-1.706,11.034
		C190.433,226.677,185.489,225.94,182.903,222.406z"/>
	<path style="fill:#4A404E;" d="M317.465,224.108c-3.518-2.576-4.282-7.516-1.706-11.034l17.237-23.542
		c2.575-3.52,7.515-4.281,11.033-1.706c3.518,2.576,4.282,7.516,1.706,11.034l-17.237,23.542
		C325.919,225.925,320.98,226.68,317.465,224.108z"/>
</g>
<g>
	<path style="fill:#5C515E;" d="M343.197,202.35l-12.671-9.318c-3.512-2.583-4.266-7.525-1.683-11.037
		c2.583-3.514,7.524-4.268,11.037-1.683l12.671,9.318c3.512,2.583,4.266,7.525,1.683,11.037
		C351.648,204.185,346.706,204.931,343.197,202.35z"/>
	<path style="fill:#5C515E;" d="M157.101,200.667c-2.583-3.512-1.83-8.454,1.683-11.037l12.671-9.318
		c3.512-2.584,8.455-1.83,11.037,1.683c2.583,3.512,1.83,8.454-1.683,11.037l-12.671,9.318
		C164.639,204.925,159.693,204.194,157.101,200.667z"/>
	<path style="fill:#5C515E;" d="M319.259,425.24c-60.703,35.047-138.602,14.174-173.648-46.529S131.437,240.11,192.14,205.063
		s138.601-14.174,173.648,46.529S379.962,390.193,319.259,425.24z"/>
</g>
<path style="fill:#4A404E;" d="M198.035,348.444c-29.833-51.672-19.139-115.798,22.142-155.353
	c-9.594,2.792-19.007,6.758-28.038,11.972c-60.703,35.047-81.576,112.946-46.529,173.648
	c35.047,60.703,112.945,81.576,173.648,46.529c9.031-5.214,17.172-11.382,24.387-18.295
	C288.749,422.918,227.868,400.116,198.035,348.444z"/>
<path style="fill:#FD6874;" d="M255.699,218.221c-53.448,0-96.931,43.483-96.931,96.931s43.483,96.931,96.931,96.931
	s96.931-43.483,96.931-96.931S309.147,218.221,255.699,218.221z"/>
<path style="fill:#DD4C5B;" d="M198.035,348.444c-18.462-31.977-21.397-68.722-11.174-101.464
	c-17.356,17.525-28.093,41.616-28.093,68.171c0,53.448,43.483,96.931,96.931,96.931c8.546,0,16.836-1.117,24.736-3.203
	C246.922,401.385,216.518,380.459,198.035,348.444z"/>
<path style="fill:#E8E6E9;" d="M255.699,218.221c-53.448,0-96.931,43.483-96.931,96.931c0,22.863,7.962,43.899,21.252,60.492
	l75.679-60.936V218.221z"/>
<path style="fill:#D3D0D4;" d="M158.768,315.152c0,22.863,7.962,43.899,21.252,60.492l23.327-18.783
	c-1.862-2.715-3.639-5.518-5.312-8.416c-18.462-31.977-21.397-68.722-11.174-101.464
	C169.505,264.505,158.768,288.597,158.768,315.152z"/>
<circle style="fill:#5C515E;" cx="255.7" cy="315.15" r="15.09"/>
<path style="fill:#4A404E;" d="M255.96,315.001c-2.76-4.781-2.593-10.437-0.078-14.928c-2.625-0.034-5.292,0.599-7.73,2.007
	c-7.22,4.168-9.693,13.4-5.525,20.619s13.4,9.693,20.619,5.525c2.438-1.408,4.32-3.401,5.603-5.691
	C263.702,322.465,258.72,319.782,255.96,315.001z"/>
<g>
</g>
<g>
</g>
<g>
</g>
<g>
</g>
<g>
</g>
<g>
</g>
<g>
</g>
<g>
</g>
<g>
</g>
<g>
</g>
<g>
</g>
<g>
</g>
<g>
</g>
<g>
</g>
<g>
</g>
</svg>
