<?xml version="1.0" encoding="iso-8859-1"?>
<!-- Generator: Adobe Illustrator 19.0.0, SVG Export Plug-In . SVG Version: 6.00 Build 0)  -->
<svg version="1.1" id="Capa_1" xmlns="http://www.w3.org/2000/svg" xmlns:xlink="http://www.w3.org/1999/xlink" x="0px" y="0px"
	 viewBox="0 0 512 512" style="enable-background:new 0 0 512 512;" xml:space="preserve">
<circle style="fill:#F9AA2B;" cx="245.8" cy="259.31" r="245.8"/>
<path style="fill:#5C515E;" d="M60.904,154.243v-14.431c0-5.884,7.426-6.337,7.426-6.337l-0.006-0.014
	c49.469-1.963,107.481-22.589,129.512-31.105l0,0c5.649-2.193,12.027-1.372,17.489,2.881l32.376,25.208
	c0,0,4.086,3.658,4.086,10.535v13.263c8.066-0.83,15.596,1.7,20.869,6.28v-37.324c0-64.134-52.177-116.311-116.311-116.311
	c-64.135,0-116.311,52.177-116.311,116.311v37.324C45.319,155.934,52.854,153.414,60.904,154.243z"/>
<path style="fill:#4A404E;" d="M91.309,131.376v-8.177c0-55.327,38.833-101.75,90.674-113.457
	c-8.251-1.864-16.83-2.853-25.637-2.853c-64.135,0-116.311,52.177-116.311,116.31v37.324c5.268-4.575,12.795-7.11,20.869-6.28
	v-14.431c0-5.884,7.426-6.338,7.426-6.338l-0.006-0.014C75.84,133.162,83.555,132.428,91.309,131.376z"/>
<g>
	<path style="fill:#E5BE8E;" d="M251.321,152.653v44.601c15.76,1.622,28.795-9.199,28.795-22.301
		C280.117,161.792,267.002,151.039,251.321,152.653z"/>
	<path style="fill:#E5BE8E;" d="M61.865,152.271v45.366c-16.03,1.65-29.289-9.357-29.289-22.683
		C32.576,161.566,45.915,150.629,61.865,152.271z"/>
</g>
<g>
	<path style="fill:#DDB07F;" d="M251.321,178.027v19.228c15.73,1.621,28.795-9.176,28.795-22.301c0-3.441-0.89-6.699-2.475-9.614
		C273.142,173.614,262.908,179.221,251.321,178.027z"/>
	<path style="fill:#DDB07F;" d="M35.007,165.34c-1.557,2.923-2.432,6.179-2.432,9.614c0,13.373,13.317,24.324,29.289,22.683v-19.228
		C49.986,179.629,39.535,173.841,35.007,165.34z"/>
</g>
<path style="fill:#E5BE8E;" d="M160.87,292.76c-16.087,0.751-31.366-2.586-44.92-9.059c0,8.613,0,18.22,0,26.823l0.177-0.12
	l16.176,36.584l6.39,15.034c21.856,0,13.449,0,35.304,0l22.466-51.617c0-7.364,0-17.86,0-26.354
	C185.558,289.109,173.537,292.169,160.87,292.76z"/>
<path style="fill:#DDB07F;" d="M145.532,292.23c-10.46-1.215-20.416-4.151-29.581-8.529c0,8.613,0,18.221,0,26.823l0.177-0.12
	l16.176,36.584l6.39,15.034c2.706,0,4.945,0,6.838,0V292.23z"/>
<path style="fill:#E8E6E9;" d="M316.94,378.324c-4.287-21.474-20.065-30.206-28.757-33.448c-0.105-0.031-5.952-1.756-5.847-1.725
	l0,0c-0.675-0.199-58.546-17.269-60.976-17.986c-3.245,9.094-11.336,31.768-16.735,46.896c-1.78,4.988-7.872,6.838-12.126,3.684
	l-18.502-13.723l0,0h-35.305l0,0l-0.146-0.111l0.047,0.111l-18.502,13.723c-4.254,3.155-10.346,1.304-12.126-3.684L91.23,325.165
	l0.138-0.093c-3.572,1.054-60.524,17.853-61.292,18.079l0,0c-2.052,0.605-6.105,1.801-5.847,1.725
	c-2.173,0.81-4.789,1.964-7.558,3.574c21.13,54.276,60.981,99.192,111.629,126.808h182.099c13.372,0,23.406-12.224,20.795-25.339
	C325.416,420.89,318.616,386.739,316.94,378.324z"/>
<g>
	<path style="fill:#D3D0D4;" d="M41.498,363.862c3.45-17.279,14.336-26.304,22.987-30.861c-16.292,4.806-33.984,10.025-34.41,10.15
		l0,0c-2.052,0.605-6.105,1.801-5.847,1.725c-2.173,0.81-4.789,1.964-7.558,3.574c5.445,13.987,12.143,27.346,19.939,39.954
		C38.914,376.841,40.736,367.688,41.498,363.862z"/>
	<path style="fill:#D3D0D4;" d="M196.464,308.327l-22.466,53.694l18.502,13.723c4.254,3.155,10.346,1.304,12.126-3.684
		l16.735-46.896L196.464,308.327z"/>
	<path style="fill:#D3D0D4;" d="M115.95,308.327l22.643,53.694l-18.502,13.723c-4.254,3.155-10.346,1.304-12.126-3.684
		L91.23,325.165L115.95,308.327z"/>
</g>
<polygon style="fill:#DD4C5B;" points="173.998,362.021 138.694,362.021 133.915,365.546 142.77,391.701 169.854,391.701 
	178.753,365.548 "/>
<polygon style="fill:#FD6874;" points="180.643,475.259 169.854,391.701 156.346,391.701 142.838,391.701 132.049,475.259 "/>
<path style="fill:#F1D4A5;" d="M247.702,129.216l-32.376-25.208c-5.462-4.253-11.84-5.074-17.49-2.881l0,0
	c-22.031,8.517-80.043,29.142-129.512,31.105l0.007,0.014c0,0-7.426,0.454-7.426,6.337v59.941c0,54.693,45.332,99.243,99.966,96.694
	c50.609-2.361,90.918-44.135,90.918-95.336v-60.13C251.788,132.873,247.702,129.216,247.702,129.216z"/>
<path style="fill:#E5BE8E;" d="M91.446,198.524V130.13c-7.801,1.062-15.561,1.802-23.122,2.102l0.007,0.013
	c0,0-7.426,0.454-7.426,6.338v59.94c0,54.693,45.332,99.243,99.966,96.694c3.678-0.172,7.3-0.558,10.857-1.134
	C126.305,286.642,91.446,246.485,91.446,198.524z"/>
<path style="fill:#A87B69;" d="M122.853,472.193c36.165,20.931,78.153,32.918,122.944,32.918s86.779-11.987,122.944-32.918H122.853z
	"/>
<path style="fill:#8D6451;" d="M245.456,472.193H122.853c36.15,20.923,78.119,32.908,122.888,32.918
	C236.264,496.871,236.324,480.671,245.456,472.193z"/>
<path style="fill:#DDDDDD;" d="M410.708,441.575H166.941h-10.733c-3.184,0-5.766,2.593-5.766,5.793
	c0,15.404,12.431,27.891,27.765,27.891c0.099,0,5.086,0,4.769,0c0,0,109.604,0,180.316,0
	C380.437,465.91,396.344,454.58,410.708,441.575z"/>
<path style="fill:#BDB9BE;" d="M179.004,447.368c0-3.199,2.582-5.793,5.766-5.793h-17.829h-10.733c-3.185,0-5.766,2.593-5.766,5.793
	c0,15.404,12.431,27.891,27.765,27.891c0.099,0,5.087,0,4.769,0c0,0,9.12,0,23.792,0
	C191.434,475.259,179.004,462.771,179.004,447.368z"/>
<path style="fill:#E8E6E9;" d="M437.017,296.593c0-8.842-7.194-16.035-16.035-16.035c-4.202,0-38.742,0-80.29,0
	c-24.965,0-52.46,0-77.425,0c-41.549,0-76.089,0-80.291,0c-8.841,0-16.035,7.193-16.035,16.035c0,14.972,0,146.472,0,162.63
	c0,8.817,7.167,16.035,16.035,16.035c7.896,0,112.313,0,180.316,0c28.453-15.514,53.49-36.495,73.725-61.52
	C437.017,368.827,437.017,306.615,437.017,296.593z"/>
<g>
	<path style="fill:#D3D0D4;" d="M231.923,459.223c0-16.159,0-147.658,0-162.63c0-8.842,7.193-16.035,16.035-16.035
		c-34.454,0-61.309,0-64.982,0c-8.841,0-16.035,7.193-16.035,16.035c0,14.972,0,146.471,0,162.63
		c0,8.817,7.167,16.035,16.035,16.035c3.85,0,30.648,0,64.982,0C239.09,475.259,231.923,468.041,231.923,459.223z"/>
	<circle style="fill:#D3D0D4;" cx="303.19" cy="374.89" r="23.08"/>
</g>
<g>
	<path style="fill:#BDB9BE;" d="M303.188,374.894c-4.27-7.396-3.975-16.17,0.002-23.073c-3.922-0.004-7.898,0.986-11.54,3.089
		c-11.037,6.372-14.819,20.485-8.446,31.522c6.372,11.037,20.485,14.819,31.522,8.446c3.641-2.102,6.487-5.05,8.445-8.449
		C315.204,386.421,307.458,382.29,303.188,374.894z"/>
	<path style="fill:#BDB9BE;" d="M410.456,125.114c-4.084,0-7.395-3.311-7.395-7.395v-14.001c0-4.084,3.311-7.395,7.395-7.395
		c4.084,0,7.395,3.311,7.395,7.395v14.001C417.851,121.803,414.54,125.114,410.456,125.114z"/>
	<path style="fill:#BDB9BE;" d="M422.516,117.434v29.62c-3.956-0.626-7.979-0.958-12.06-0.958s-8.104,0.331-12.06,0.958v-29.62
		H422.516z"/>
</g>
<path style="fill:#D3D0D4;" d="M348.63,171.08l-13.772-18.809c-2.413-3.295-1.698-7.923,1.598-10.336
	c3.295-2.413,7.923-1.699,10.336,1.598l13.772,18.809c2.413,3.295,1.698,7.923-1.598,10.336
	C355.65,175.106,351.027,174.354,348.63,171.08z"/>
<path style="fill:#5C515E;" d="M322.499,294.599c-28.001-48.499-11.325-110.738,37.175-138.739s110.738-11.325,138.739,37.175
	c28.001,48.499,11.324,110.738-37.175,138.739C412.738,359.775,350.5,343.098,322.499,294.599z"/>
<path style="fill:#4A404E;" d="M368.486,268.048c-23.409-40.546-15.586-90.69,15.946-122.408
	c-8.481,2.246-16.804,5.628-24.758,10.22c-48.5,28.001-65.176,90.24-37.175,138.739c28.001,48.5,90.239,65.176,138.739,37.175
	c7.953-4.592,15.044-10.109,21.23-16.33C439.232,326.891,391.895,308.594,368.486,268.048z"/>
<path style="fill:#E8E6E9;" d="M410.456,166.372c42.703,0,77.445,34.742,77.445,77.445s-34.742,77.445-77.445,77.445
	s-77.445-34.742-77.445-77.445S367.753,166.372,410.456,166.372z"/>
<path style="fill:#D3D0D4;" d="M368.486,268.048c-15.137-26.219-17.199-56.445-8.251-83.113
	c-16.642,14.216-27.223,35.33-27.223,58.882c0,42.703,34.742,77.445,77.445,77.445c9.106,0,17.845-1.592,25.968-4.493
	C408.821,311.201,383.639,294.294,368.486,268.048z"/>
<path style="fill:#FD6874;" d="M410.456,166.372c42.703,0,77.445,34.742,77.445,77.445c0,18.267-6.361,35.074-16.98,48.331
	l-60.465-48.686V166.372z"/>
<path style="fill:#E8E6E9;" d="M328.068,153.716c-2.419-3.291-1.713-7.92,1.577-10.339l10.124-7.444
	c3.29-2.419,7.92-1.714,10.339,1.577c2.419,3.291,1.713,7.92-1.577,10.339l-10.124,7.444
	C335.131,157.702,330.498,157.021,328.068,153.716z"/>
<g>
	<path style="fill:#5C515E;" d="M410.456,257.407c-4.084,0-7.395-3.311-7.395-7.395v-69.023c0-4.084,3.311-7.395,7.395-7.395
		c4.084,0,7.395,3.311,7.395,7.395v69.023C417.851,254.096,414.54,257.407,410.456,257.407z"/>
	<path style="fill:#5C515E;" d="M434.796,272.555l-36.373-29.288c-3.182-2.561-3.684-7.217-1.122-10.398
		c2.562-3.181,7.216-3.682,10.398-1.122l36.373,29.287c3.182,2.561,3.684,7.217,1.122,10.398
		C442.65,274.592,438,275.133,434.796,272.555z"/>
</g>
<path style="fill:#E8E6E9;" d="M394.614,127.634h31.683c6.463,0,11.703-5.239,11.703-11.703l0,0c0-6.463-5.239-11.703-11.703-11.703
	h-31.683c-6.463,0-11.703,5.239-11.703,11.703l0,0C382.912,122.395,388.151,127.634,394.614,127.634z"/>
<path style="fill:#D3D0D4;" d="M410.456,115.932c0-6.463,5.239-11.702,11.703-11.702h-27.544c-6.463,0-11.702,5.239-11.702,11.702
	s5.239,11.702,11.702,11.702h27.544C415.695,127.634,410.456,122.394,410.456,115.932z"/>
<g>
</g>
<g>
</g>
<g>
</g>
<g>
</g>
<g>
</g>
<g>
</g>
<g>
</g>
<g>
</g>
<g>
</g>
<g>
</g>
<g>
</g>
<g>
</g>
<g>
</g>
<g>
</g>
<g>
</g>
</svg>
