<?xml version="1.0" encoding="iso-8859-1"?>
<!-- Generator: Adobe Illustrator 19.0.0, SVG Export Plug-In . SVG Version: 6.00 Build 0)  -->
<svg version="1.1" id="Capa_1" xmlns="http://www.w3.org/2000/svg" xmlns:xlink="http://www.w3.org/1999/xlink" x="0px" y="0px"
	 viewBox="0 0 512 512" style="enable-background:new 0 0 512 512;" xml:space="preserve">
<circle style="fill:#FD6874;" cx="254.2" cy="265.62" r="246.38"/>
<path style="fill:#FEBE40;" d="M61.473,419.101C106.616,475.712,176.167,512,254.202,512c46.922,0,90.777-13.12,128.106-35.886
	l10.278-61.269H60.759L61.473,419.101z"/>
<path style="fill:#F9AA2B;" d="M118.119,414.845h-57.36l0.714,4.256c16.036,20.11,35.165,37.637,56.647,51.902L118.119,414.845
	L118.119,414.845z"/>
<path style="fill:#5C515E;" d="M144.764,126.71V114.3c0-5.059,6.386-5.449,6.386-5.449l-0.005-0.012
	c42.538-1.688,92.423-19.424,111.367-26.747l0,0c4.857-1.886,10.342-1.18,15.039,2.477l27.84,21.676c0,0,3.514,3.145,3.514,9.059
	v11.405c6.936-0.714,13.411,1.462,17.945,5.4v-32.095C326.85,44.866,281.983,0,226.835,0c-55.149,0-100.016,44.866-100.016,100.015
	v32.095C131.363,128.164,137.842,125.997,144.764,126.71z"/>
<path style="fill:#4A404E;" d="M174.764,106.493v-6.478c0-46.887,32.434-86.335,76.043-97.104C243.124,1.014,235.096,0,226.835,0
	c-55.149,0-100.016,44.866-100.016,100.015v32.095c4.534-3.938,11.009-6.114,17.946-5.4V114.3c0-5.059,6.386-5.449,6.386-5.449
	l-0.005-0.012C158.852,108.533,166.802,107.695,174.764,106.493z"/>
<g>
	<path style="fill:#E5BE8E;" d="M308.503,125.342v38.353c13.552,1.395,24.761-7.91,24.761-19.176
		C333.264,133.201,321.987,123.955,308.503,125.342z"/>
	<path style="fill:#E5BE8E;" d="M145.59,125.014v39.01c-13.785,1.419-25.185-8.046-25.185-19.505
		C120.405,133.007,131.875,123.602,145.59,125.014z"/>
</g>
<g>
	<path style="fill:#DDB07F;" d="M308.503,146.57v17.125c13.552,1.395,24.761-7.913,24.761-19.176c0-3.076-0.828-5.981-2.294-8.563
		C326.984,142.974,318.247,147.573,308.503,146.57z"/>
	<path style="fill:#DDB07F;" d="M122.652,135.956c-1.439,2.588-2.247,5.493-2.247,8.563c0,11.512,11.471,20.917,25.185,19.505
		v-17.125C135.662,147.921,126.69,143.219,122.652,135.956z"/>
</g>
<path style="fill:#E5BE8E;" d="M192.098,238.031c0,7.406,0,15.668,0,23.065l0.153-0.103l13.909,31.458l5.495,12.927
	c18.794,0,11.565,0,30.358,0l19.319-44.386c0-6.332,0-15.358,0-22.662C240.239,248.115,214.779,248.862,192.098,238.031z"/>
<path style="fill:#DDB07F;" d="M222.098,245.76c-10.665-0.629-20.796-3.334-30-7.729c0,7.406,0,15.668,0,23.065l0.153-0.103
	l13.909,31.458l5.495,12.927c4.998,0,8.147,0,10.443,0L222.098,245.76L222.098,245.76z"/>
<path style="fill:#E8E6E9;" d="M359.305,402.75c11.499,0,20.127-10.512,17.882-21.789c-4.97-24.962-10.818-54.328-12.258-61.564
	c-3.687-18.466-17.254-25.974-24.728-28.762c-0.09-0.027-5.118-1.51-5.028-1.483l0,0c-0.58-0.171-50.343-14.85-52.433-15.466
	c-2.791,7.82-9.748,27.317-14.39,40.326c-1.531,4.289-6.769,5.88-10.427,3.168l-15.91-11.801v-0.001h-30.359v0.001l-0.126-0.096
	l0.04,0.096l-15.91,11.801c-3.658,2.712-8.897,1.121-10.427-3.168l-14.39-40.326l0.118-0.08
	c-3.072,0.906-52.044,15.352-52.705,15.546l0,0c-1.764,0.521-5.25,1.549-5.027,1.483c-7.474,2.788-21.041,10.297-24.728,28.762l0,0
	c0,0-7.443,37.494-12.355,62.222c-2.173,10.939,6.197,21.132,17.35,21.132h265.811V402.75z"/>
<g>
	<path style="fill:#D3D0D4;" d="M110.805,381.618c4.912-24.728,12.355-74.222,12.355-74.222
		c2.522-12.631,9.666-20.133,16.321-24.506c-11.103,3.275-20.932,6.174-21.226,6.261l0,0c-1.764,0.521-5.25,1.549-5.027,1.483
		c-7.474,2.788-21.041,10.297-24.728,28.762c0,0-7.443,37.494-12.355,62.222c-2.173,10.939,6.197,21.132,17.35,21.132h34.66
		C117.002,402.75,108.632,392.557,110.805,381.618z"/>
	<path style="fill:#D3D0D4;" d="M261.332,259.206l-19.318,46.171l15.91,11.8c3.658,2.713,8.897,1.121,10.427-3.168l14.39-40.326
		L261.332,259.206z"/>
	<path style="fill:#D3D0D4;" d="M192.098,259.206l19.471,46.171l-15.91,11.8c-3.658,2.713-8.897,1.121-10.427-3.168l-14.39-40.326
		L192.098,259.206z"/>
</g>
<polygon style="fill:#DD4C5B;" points="242.013,305.378 211.655,305.378 207.546,308.409 215.161,330.899 238.45,330.899 
	246.102,308.41 "/>
<polygon style="fill:#FD6874;" points="247.727,402.75 238.45,330.899 226.834,330.899 215.219,330.899 205.941,402.75 "/>
<path style="fill:#F1D4A5;" d="M305.391,105.189l-27.84-21.676c-4.697-3.657-10.182-4.363-15.039-2.477l0,0
	c-18.944,7.323-68.829,25.06-111.367,26.747l0.006,0.012c0,0-6.386,0.39-6.386,5.449v51.543c0,47.031,38.981,85.339,85.96,83.147
	c43.519-2.03,78.18-37.952,78.18-81.979v-51.706C308.905,108.334,305.392,105.189,305.391,105.189z"/>
<path style="fill:#E5BE8E;" d="M174.764,164.786v-59.35c-7.963,1.202-15.912,2.04-23.62,2.346l0.006,0.012
	c0,0-6.386,0.39-6.386,5.449v51.543c0,51.131,45.902,91.361,97.153,81.839C203.782,239.442,174.764,205.363,174.764,164.786z"/>
<path style="fill:#FED652;" d="M407.048,374.581H46.296c-3.674,0-6.652,2.978-6.652,6.652v5.558
	c6.645,11.74,14.227,22.878,22.642,33.318h344.763c3.674,0,6.652-2.978,6.652-6.653v-32.224
	C413.701,377.56,410.722,374.581,407.048,374.581z"/>
<path style="fill:#A7E0F5;" d="M99.916,350.644c-4.362,0-7.898-3.536-7.898-7.898v-19.504c0-30.128,7.526-60.087,21.764-86.64
	c2.062-3.844,6.851-5.288,10.693-3.228c3.844,2.061,5.289,6.849,3.228,10.693c-13.011,24.264-19.889,51.642-19.889,79.175v19.504
	C107.814,347.109,104.278,350.644,99.916,350.644z"/>
<path style="fill:#5C515E;" d="M127.817,244.288c-2.916,0-5.864-0.831-8.474-2.569c-7.041-4.688-8.947-14.196-4.259-21.236
	c2.713-4.075,5.628-8.098,8.664-11.955c5.234-6.647,14.864-7.794,21.508-2.565c6.647,5.232,7.795,14.86,2.565,21.508
	c-2.538,3.224-4.974,6.585-7.241,9.99C137.629,241.891,132.77,244.288,127.817,244.288z"/>
<path style="fill:#4A404E;" d="M128.041,227.65c2.713-4.075,5.628-8.098,8.664-11.955c3.021-3.837,7.508-5.829,12.039-5.832
	c-0.91-1.451-2.065-2.78-3.488-3.9c-6.644-5.229-16.274-4.083-21.508,2.565c-3.036,3.858-5.951,7.88-8.664,11.955
	c-4.689,7.041-2.782,16.549,4.259,21.236c2.61,1.738,5.558,2.569,8.474,2.569l0.014-0.001
	C124.723,239.339,124.592,232.829,128.041,227.65z"/>
<path style="fill:#5C515E;" d="M121.095,374.582H77.128c-8.459,0-15.316-6.857-15.316-15.316c0-8.459,6.857-15.316,15.316-15.316
	h43.967c8.459,0,15.316,6.857,15.316,15.316C136.41,367.725,129.553,374.582,121.095,374.582z"/>
<path style="fill:#4A404E;" d="M99.111,359.266c0-8.459,6.857-15.316,15.316-15.316h-37.3c-8.459,0-15.316,6.857-15.316,15.316
	c0,8.459,6.857,15.316,15.316,15.316h37.299C105.968,374.581,99.111,367.725,99.111,359.266z"/>
<g>
	<path style="fill:#D3D0D4;" d="M395.737,255.581c-4.362,0-7.898-3.536-7.898-7.898V232.73c0-4.362,3.536-7.898,7.898-7.898
		s7.898,3.536,7.898,7.898v14.953C403.635,252.045,400.099,255.581,395.737,255.581z"/>
	<path style="fill:#D3D0D4;" d="M408.616,247.379v31.633c-4.225-0.669-8.522-1.023-12.879-1.023c-4.358,0-8.654,0.354-12.879,1.023
		v-31.633H408.616z"/>
</g>
<path style="fill:#4A404E;" d="M329.71,304.67l-14.708-20.087c-2.577-3.519-1.813-8.461,1.707-11.038
	c3.519-2.577,8.461-1.814,11.038,1.707l14.708,20.087c2.577,3.519,1.813,8.461-1.707,11.038
	C337.207,308.97,332.27,308.167,329.71,304.67z"/>
<path style="fill:#5C515E;" d="M301.802,436.583c-29.904-51.795-12.094-118.263,39.701-148.167s118.263-12.094,148.167,39.701
	s12.094,118.263-39.702,148.167S331.706,488.378,301.802,436.583z"/>
<path style="fill:#4A404E;" d="M347.413,410.249c-25.364-43.932-16.397-98.416,18.515-132.195
	c-8.36,2.389-16.562,5.822-24.425,10.361c-51.796,29.904-69.605,96.372-39.701,148.167c29.904,51.795,96.371,69.605,148.167,39.701
	c7.863-4.54,14.937-9.926,21.186-15.972C424.446,473.657,372.777,454.181,347.413,410.249z"/>
<path style="fill:#E8E6E9;" d="M395.736,299.643c45.605,0,82.708,37.102,82.708,82.707s-37.102,82.707-82.708,82.707
	c-45.605,0-82.707-37.102-82.707-82.707S350.132,299.643,395.736,299.643z"/>
<path style="fill:#D3D0D4;" d="M347.413,410.249c-15.845-27.445-18.291-59.007-9.385-87.068
	c-15.407,15.03-24.999,35.995-24.999,59.168c0,45.605,37.102,82.707,82.707,82.707c7.789,0,15.321-1.106,22.471-3.128
	C389.42,455.628,363.274,437.721,347.413,410.249z"/>
<path style="fill:#FD6874;" d="M395.737,299.643c45.605,0,82.707,37.102,82.707,82.707c0,19.508-6.793,37.457-18.133,51.615
	l-64.574-51.994V299.643z"/>
<g>
	<path style="fill:#5C515E;" d="M307.751,286.126c-2.584-3.514-1.829-8.458,1.684-11.042l10.812-7.95
		c3.514-2.584,8.458-1.83,11.042,1.684c2.584,3.514,1.829,8.458-1.684,11.042l-10.812,7.95
		C315.294,290.384,310.346,289.656,307.751,286.126z"/>
	<path style="fill:#5C515E;" d="M395.737,396.864c-4.362,0-7.898-3.536-7.898-7.898v-73.713c0-4.362,3.536-7.898,7.898-7.898
		s7.898,3.536,7.898,7.898v73.713C403.635,393.328,400.099,396.864,395.737,396.864z"/>
	<path style="fill:#5C515E;" d="M426.679,414.787c-1.738,0-3.488-0.572-4.948-1.747l-38.845-31.278
		c-3.398-2.735-3.934-7.708-1.199-11.105c2.736-3.397,7.707-3.932,11.105-1.199l38.845,31.278c3.398,2.735,3.934,7.708,1.199,11.105
		C431.275,413.78,428.987,414.787,426.679,414.787z"/>
</g>
<path style="fill:#E8E6E9;" d="M378.819,258.272h33.836c6.902,0,12.498-5.595,12.498-12.498l0,0c0-6.902-5.595-12.498-12.498-12.498
	h-33.836c-6.902,0-12.498,5.595-12.498,12.498l0,0C366.321,252.677,371.916,258.272,378.819,258.272z"/>
<path style="fill:#D3D0D4;" d="M395.737,245.775L395.737,245.775c0-6.902,5.595-12.498,12.498-12.498h-29.416
	c-6.902,0-12.498,5.595-12.498,12.498l0,0c0,6.902,5.595,12.498,12.498,12.498h29.416
	C401.332,258.272,395.737,252.677,395.737,245.775z"/>
<path style="fill:#FEBE40;" d="M110.33,410.164v-25.637c0-4.479,2.733-8.318,6.621-9.946H46.296c-3.674,0-6.652,2.978-6.652,6.652
	v5.558c6.645,11.74,14.227,22.878,22.642,33.318h54.665C113.063,418.483,110.33,414.644,110.33,410.164z"/>
<g>
</g>
<g>
</g>
<g>
</g>
<g>
</g>
<g>
</g>
<g>
</g>
<g>
</g>
<g>
</g>
<g>
</g>
<g>
</g>
<g>
</g>
<g>
</g>
<g>
</g>
<g>
</g>
<g>
</g>
</svg>
