<?xml version="1.0" encoding="iso-8859-1"?>
<!-- Generator: Adobe Illustrator 19.0.0, SVG Export Plug-In . SVG Version: 6.00 Build 0)  -->
<svg version="1.1" id="Capa_1" xmlns="http://www.w3.org/2000/svg" xmlns:xlink="http://www.w3.org/1999/xlink" x="0px" y="0px"
	 viewBox="0 0 512 512" style="enable-background:new 0 0 512 512;" xml:space="preserve">
<circle style="fill:#42D197;" cx="256" cy="256" r="256"/>
<g>
	<path style="fill:#BDB9BE;" d="M321.737,57.258c-5.773,0-10.454-4.68-10.454-10.454V27.013c0-5.773,4.68-10.454,10.454-10.454
		s10.454,4.68,10.454,10.454v19.792C332.191,52.578,327.51,57.258,321.737,57.258z"/>
	<path style="fill:#BDB9BE;" d="M338.784,46.403v41.87c-11.398-1.804-22.689-1.806-34.094,0v-41.87
		C304.69,46.403,338.784,46.403,338.784,46.403z"/>
</g>
<path style="fill:#D3D0D4;" d="M234.343,122.233l-19.467-26.587c-3.411-4.658-2.4-11.199,2.259-14.61
	c4.657-3.411,11.199-2.401,14.61,2.259l19.467,26.587c3.411,4.658,2.4,11.199-2.259,14.61
	C244.266,127.925,237.732,126.862,234.343,122.233z"/>
<path style="fill:#5C515E;" d="M197.405,296.833c-39.581-68.556-16.008-156.533,52.549-196.114s156.533-16.008,196.114,52.548
	s16.008,156.533-52.549,196.114S236.986,365.389,197.405,296.833z"/>
<path style="fill:#4A404E;" d="M262.41,259.302c-33.09-57.314-22.032-128.195,22.54-173.03
	c-11.988,3.174-23.754,7.956-34.996,14.447c-68.557,39.581-92.13,127.558-52.548,196.114
	c39.581,68.556,127.557,92.129,196.114,52.548c11.242-6.491,21.266-14.29,30.009-23.084
	C362.413,342.48,295.5,316.616,262.41,259.302z"/>
<path style="fill:#E8E6E9;" d="M321.736,115.579c60.363,0,109.472,49.109,109.472,109.471S382.1,334.521,321.736,334.521
	c-60.362,0-109.471-49.109-109.471-109.471S261.374,115.579,321.736,115.579z"/>
<path style="fill:#D3D0D4;" d="M250.734,141.8c-23.526,20.094-38.469,49.958-38.469,83.25c0,60.362,49.109,109.471,109.471,109.471
	c12.868,0,25.221-2.239,36.699-6.335C273.562,311.064,223.199,223.844,250.734,141.8z"/>
<path style="fill:#FD6874;" d="M321.737,115.579c60.363,0,109.472,49.109,109.472,109.471c0,25.821-8.992,49.578-24.001,68.318
	l-85.47-68.82L321.737,115.579L321.737,115.579z"/>
<path style="fill:#E8E6E9;" d="M205.278,97.688c-3.42-4.652-2.421-11.195,2.23-14.615l14.311-10.522
	c4.651-3.42,11.195-2.422,14.615,2.23s2.421,11.195-2.23,14.615l-14.311,10.522C215.262,103.323,208.713,102.36,205.278,97.688z"/>
<g>
	<path style="fill:#5C515E;" d="M321.737,244.261c-5.773,0-10.454-4.68-10.454-10.454V136.24c0-5.773,4.68-10.454,10.454-10.454
		s10.454,4.68,10.454,10.454v97.567C332.191,239.581,327.51,244.261,321.737,244.261z"/>
	<path style="fill:#5C515E;" d="M362.692,267.985c-2.301,0-4.617-0.757-6.549-2.312l-51.415-41.399
		c-4.497-3.621-5.207-10.202-1.586-14.698c3.622-4.497,10.2-5.205,14.698-1.586l51.415,41.399
		c4.497,3.621,5.207,10.202,1.586,14.698C368.775,266.651,365.748,267.985,362.692,267.985z"/>
</g>
<path style="fill:#E8E6E9;" d="M299.344,60.821h44.785c9.136,0,16.542-7.406,16.542-16.542l0,0c0-9.136-7.406-16.542-16.542-16.542
	h-44.785c-9.136,0-16.542,7.406-16.542,16.542l0,0C282.802,53.415,290.208,60.821,299.344,60.821z"/>
<path style="fill:#D3D0D4;" d="M321.501,44.279L321.501,44.279c0-9.136,7.406-16.542,16.542-16.542h-38.699
	c-9.136,0-16.542,7.406-16.542,16.542l0,0c0,9.136,7.406,16.542,16.542,16.542h38.699C328.907,60.821,321.501,53.414,321.501,44.279
	z"/>
<path style="fill:#F1D4A5;" d="M506.076,332.747c-7.994-9.302-19.76-9.022-31.546-2.458c-27.598,15.372-87.49,42.801-87.49,42.801
	h-0.002c1.904-3.059,3.022-6.831,3.022-11.472c0-15.023-22.413-23.126-48.1-27.483c-19.747-5.413-40.815-6.313-64.658-22.237
	c-27.634-18.456-57.244-14.488-78.16-8.267c-22.459,6.679-39.025,4.128-55.72,4.683v4.016l0,0v110.554
	c9.222,0.811,19.802-0.737,34.41,5.202c25.654,10.431,95.072,33.705,142.629,33.705c39.15,0,136.082-55.571,180.592-93.806
	C512.753,357.934,516.079,344.388,506.076,332.747z"/>
<g>
	<path style="fill:#E5BE8E;" d="M387.04,373.09L387.04,373.09c-5.715,7.122-15.267,10.962-24.399,9.683l-85.088-11.837
		c-4.378-0.611-8.423,2.446-9.032,6.826c-0.609,4.379,2.446,8.423,6.826,9.033l85.088,11.837c14.95,2.078,30.609-3.889,40.765-18.16
		c0.724-1.068,1.666-3.098,7.833-14.675c0.57-1.079,0.859-2.229,0.911-3.372C396.651,368.688,387.04,373.09,387.04,373.09z"/>
	<path style="fill:#E5BE8E;" d="M218.327,299.407c-19.9,2.731-26.501,8.906-52.244,8.906h-22.66c0,40.763,0,90.997,0,114.571
		c9.222,0.811,19.802-0.737,34.41,5.203c8.589,3.492,22.087,8.424,38.024,13.44C168.394,405.259,169.945,333.794,218.327,299.407z"
		/>
</g>
<path style="fill:#E8E6E9;" d="M136.105,278.096H87.74v170.833c1.127,0.983,2.267,1.951,3.411,2.915h44.954
	c5.22,0,9.452-4.232,9.452-9.452V287.548C145.558,282.328,141.326,278.096,136.105,278.096z"/>
<path style="fill:#D3D0D4;" d="M136.105,396.028H91.151c-1.144-0.964-2.285-1.931-3.411-2.915v55.815
	c1.127,0.983,2.267,1.951,3.411,2.915h44.954c5.221,0,9.452-4.232,9.452-9.452v-55.815
	C145.558,391.796,141.326,396.028,136.105,396.028z"/>
<path style="fill:#53BBE7;" d="M80.429,267.978H0.288c3.369,73.134,37.423,138.25,89.587,182.786V277.423
	C89.875,272.207,85.646,267.978,80.429,267.978z"/>
<path style="fill:#37AEE2;" d="M80.429,405.431H48.156c12.053,16.734,26.063,31.967,41.719,45.333v-54.779
	C89.875,401.202,85.646,405.431,80.429,405.431z"/>
<g>
</g>
<g>
</g>
<g>
</g>
<g>
</g>
<g>
</g>
<g>
</g>
<g>
</g>
<g>
</g>
<g>
</g>
<g>
</g>
<g>
</g>
<g>
</g>
<g>
</g>
<g>
</g>
<g>
</g>
</svg>
