<?xml version="1.0" encoding="iso-8859-1"?>
<!-- Generator: Adobe Illustrator 19.0.0, SVG Export Plug-In . SVG Version: 6.00 Build 0)  -->
<svg version="1.1" id="Capa_1" xmlns="http://www.w3.org/2000/svg" xmlns:xlink="http://www.w3.org/1999/xlink" x="0px" y="0px"
	 viewBox="0 0 512 512" style="enable-background:new 0 0 512 512;" xml:space="preserve">
<circle style="fill:#FED652;" cx="256" cy="256" r="256"/>
<path style="fill:#FC5B6F;" d="M222.759,32.041c-43.449,25.085-74.528,65.588-87.513,114.05
	c-12.985,48.461-6.321,99.078,18.764,142.527c51.904,89.9,166.665,120.66,256.577,68.75c43.449-25.085,74.529-65.589,87.514-114.05
	c12.985-48.461,6.321-99.078-18.764-142.527c-25.085-43.449-65.588-74.528-114.05-87.513S266.208,6.955,222.759,32.041z"/>
<path style="fill:#DD4C5B;" d="M340.228,334.464c-48.461-12.985-88.965-44.065-114.05-87.514s-31.749-94.065-18.764-142.526
	c9.311-34.75,27.928-65.406,53.736-89.221c-13.23,4.12-26.098,9.74-38.391,16.838c-43.449,25.085-74.528,65.588-87.513,114.05
	c-12.985,48.461-6.321,99.078,18.764,142.526c60.151,104.185,201.485,125.928,290.354,43.922
	C410.835,342.98,374.978,343.775,340.228,334.464z"/>
<path style="fill:#E8E6E9;" d="M316.672,39.885c-41.352,0-80.23,16.104-109.473,45.346c-29.241,29.241-45.345,68.12-45.345,109.473
	s16.104,80.231,45.345,109.474c29.242,29.241,68.12,45.345,109.473,45.345c41.354,0,80.232-16.104,109.474-45.346
	c29.241-29.241,45.345-68.119,45.345-109.473s-16.104-80.231-45.345-109.473C396.904,55.988,358.025,39.885,316.672,39.885z"/>
<path style="fill:#D3D0D4;" d="M217.671,75.671c-3.609,3.012-7.107,6.194-10.472,9.559c-29.241,29.241-45.345,68.12-45.345,109.473
	s16.104,80.231,45.345,109.474c29.242,29.241,68.12,45.345,109.473,45.345c18.615,0,36.725-3.274,53.685-9.53
	c-10.08-1.018-20.15-2.854-30.129-5.527c-48.461-12.985-88.965-44.065-114.05-87.514s-31.749-94.065-18.764-142.526
	C210.079,94.478,213.531,84.882,217.671,75.671z"/>
<g>
	<path style="fill:#5C515E;" d="M316.673,24.885c-4.142,0-7.5,3.357-7.5,7.5v10.552c0,4.143,3.358,7.5,7.5,7.5s7.5-3.357,7.5-7.5
		V32.385C324.173,28.242,320.815,24.885,316.673,24.885z"/>
	<path style="fill:#5C515E;" d="M316.673,338.97c-4.142,0-7.5,3.357-7.5,7.5v10.552c0,4.143,3.358,7.5,7.5,7.5s7.5-3.357,7.5-7.5
		V346.47C324.173,342.327,320.815,338.97,316.673,338.97z"/>
	<path style="fill:#5C515E;" d="M242.009,50.382c-2.071-3.587-6.66-4.813-10.245-2.745c-3.587,2.071-4.816,6.658-2.745,10.245
		l5.276,9.138c1.389,2.406,3.91,3.751,6.502,3.751c1.272,0,2.563-0.324,3.743-1.006c3.587-2.071,4.816-6.658,2.745-10.245
		L242.009,50.382z"/>
	<path style="fill:#5C515E;" d="M399.051,322.387c-2.071-3.589-6.66-4.814-10.245-2.745c-3.587,2.071-4.816,6.658-2.745,10.245
		l5.276,9.138c2.081,3.605,6.675,4.806,10.245,2.745c3.587-2.071,4.816-6.658,2.745-10.245L399.051,322.387z"/>
	<path style="fill:#5C515E;" d="M188.989,112.325l-9.138-5.276c-3.587-2.068-8.174-0.844-10.246,2.745
		c-2.071,3.587-0.842,8.174,2.745,10.245l9.138,5.276c3.583,2.067,8.172,0.847,10.246-2.745
		C193.805,118.983,192.576,114.396,188.989,112.325z"/>
	<path style="fill:#5C515E;" d="M460.995,269.367l-9.138-5.275c-3.588-2.07-8.175-0.844-10.245,2.745
		c-2.071,3.587-0.842,8.174,2.745,10.245l9.138,5.275c3.572,2.061,8.166,0.858,10.245-2.745
		C465.811,276.025,464.582,271.438,460.995,269.367z"/>
	<path style="fill:#5C515E;" d="M172.406,194.703c0-4.143-3.358-7.5-7.5-7.5h-10.551c-4.142,0-7.5,3.357-7.5,7.5s3.358,7.5,7.5,7.5
		h10.551C169.048,202.203,172.406,198.846,172.406,194.703z"/>
	<path style="fill:#5C515E;" d="M478.991,187.203H468.44c-4.142,0-7.5,3.357-7.5,7.5s3.358,7.5,7.5,7.5h10.551
		c4.142,0,7.5-3.357,7.5-7.5S483.133,187.203,478.991,187.203z"/>
	<path style="fill:#5C515E;" d="M181.489,264.092l-9.138,5.275c-3.587,2.071-4.816,6.658-2.745,10.245
		c2.077,3.598,6.667,4.81,10.245,2.745l9.138-5.275c3.587-2.071,4.816-6.658,2.745-10.245
		C189.663,263.248,185.076,262.022,181.489,264.092z"/>
	<path style="fill:#5C515E;" d="M451.857,125.315l9.138-5.276c3.587-2.071,4.816-6.658,2.745-10.245
		c-2.071-3.588-6.658-4.814-10.246-2.745l-9.138,5.276c-3.587,2.071-4.816,6.658-2.745,10.245
		C443.689,126.169,448.28,127.38,451.857,125.315z"/>
	<path style="fill:#5C515E;" d="M244.54,319.641c-3.587-2.07-8.174-0.844-10.245,2.745l-5.276,9.138
		c-2.896,5.015,0.764,11.251,6.488,11.251c2.592,0,5.113-1.345,6.502-3.751l5.276-9.138
		C249.356,326.3,248.127,321.713,244.54,319.641z"/>
	<path style="fill:#5C515E;" d="M401.582,47.637c-3.587-2.07-8.174-0.842-10.245,2.745l-5.276,9.138
		c-2.071,3.587-0.842,8.174,2.745,10.245c3.571,2.061,8.165,0.858,10.245-2.745l5.276-9.138
		C406.398,54.295,405.169,49.708,401.582,47.637z"/>
</g>
<g>
	<path style="fill:#BDB9BE;" d="M316.674,85.994c-4.142,0-7.5-3.357-7.5-7.5V68.102c0-4.143,3.358-7.5,7.5-7.5s7.5,3.357,7.5,7.5
		v10.392C324.174,82.637,320.816,85.994,316.674,85.994z"/>
	<path style="fill:#BDB9BE;" d="M316.674,329.721c-4.142,0-7.5-3.357-7.5-7.5v-10.392c0-4.143,3.358-7.5,7.5-7.5s7.5,3.357,7.5,7.5
		v10.392C324.174,326.363,320.816,329.721,316.674,329.721z"/>
	<path style="fill:#BDB9BE;" d="M200.006,202.662h-10.391c-4.142,0-7.5-3.357-7.5-7.5s3.358-7.5,7.5-7.5h10.391
		c4.142,0,7.5,3.357,7.5,7.5S204.148,202.662,200.006,202.662z"/>
	<path style="fill:#BDB9BE;" d="M443.732,202.662h-10.391c-4.142,0-7.5-3.357-7.5-7.5s3.358-7.5,7.5-7.5h10.391
		c4.142,0,7.5,3.357,7.5,7.5S447.874,202.662,443.732,202.662z"/>
</g>
<path style="fill:#5C515E;" d="M316.672,364.521c-45.359,0-88.005-17.664-120.08-49.738c-32.074-32.075-49.738-74.721-49.738-120.08
	s17.664-88.005,49.738-120.079c32.076-32.075,74.721-49.739,120.08-49.739s88.004,17.664,120.08,49.738
	c32.074,32.075,49.738,74.72,49.738,120.08s-17.664,88.005-49.738,120.08C404.678,346.857,362.033,364.521,316.672,364.521z
	 M316.672,39.885c-41.352,0-80.23,16.104-109.473,45.346c-29.241,29.241-45.345,68.12-45.345,109.473s16.104,80.231,45.345,109.474
	c29.242,29.241,68.12,45.345,109.473,45.345c41.354,0,80.232-16.104,109.474-45.346c29.241-29.241,45.345-68.119,45.345-109.473
	s-16.104-80.231-45.345-109.473C396.904,55.988,358.025,39.885,316.672,39.885z"/>
<circle style="fill:#D3D0D4;" cx="316.43" cy="195.24" r="52.26"/>
<path style="fill:#BDB9BE;" d="M300.688,204.328c-11.447-19.826-8.413-44.027,5.8-60.394c-5.548,1.075-11.016,3.061-16.185,6.045
	c-24.995,14.431-33.559,46.393-19.128,71.388s46.392,33.559,71.388,19.128c5.169-2.984,9.623-6.727,13.328-10.993
	C334.61,233.628,312.134,224.154,300.688,204.328z"/>
<path style="fill:#5C515E;" d="M329.692,181.727c5.189,5.189,5.635,13.578,1.799,20.898l60.081-79.545
	c1.909-2.527-0.706-5.142-3.233-3.233l-79.545,60.081C316.114,176.091,324.502,176.537,329.692,181.727z"/>
<path style="fill:#FD6874;" d="M297.42,195.295c0-4.554,1.874-8.714,4.961-11.928l-66.354,10c-2.447,0.369-2.447,3.487,0,3.856
	l66.354,10C299.294,204.009,297.42,199.849,297.42,195.295z"/>
<circle style="fill:#716B72;" cx="316.94" cy="195.35" r="20.484"/>
<path style="fill:#BDB9BE;" d="M316.672,202.111c-3.675,0-6.876-2.964-6.876-6.876c0-4.359,4.02-7.584,8.224-6.739
	c3.041,0.582,5.528,3.336,5.528,6.739C323.548,199.025,320.472,202.111,316.672,202.111z"/>
<path style="fill:#F1D4A5;" d="M506.076,332.747c-7.994-9.302-19.76-9.022-31.546-2.458c-27.598,15.372-87.49,42.801-87.49,42.801
	h-0.002c1.904-3.059,3.022-6.831,3.022-11.472c0-15.023-22.413-23.126-48.1-27.483c-19.747-5.413-40.815-6.313-64.658-22.237
	c-27.634-18.456-57.244-14.488-78.16-8.267c-22.459,6.679-39.025,4.128-55.72,4.683v4.016l0,0v110.554
	c9.222,0.811,19.802-0.737,34.41,5.202c25.654,10.431,95.072,33.705,142.629,33.705c39.15,0,136.082-55.571,180.592-93.806
	C512.753,357.934,516.079,344.388,506.076,332.747z"/>
<g>
	<path style="fill:#E5BE8E;" d="M387.04,373.09L387.04,373.09c-5.715,7.122-15.267,10.962-24.399,9.683l-85.088-11.837
		c-4.378-0.611-8.423,2.446-9.032,6.826c-0.609,4.379,2.446,8.423,6.826,9.033l85.088,11.837c14.95,2.078,30.609-3.889,40.765-18.16
		c0.724-1.068,1.666-3.098,7.833-14.675c0.57-1.079,0.859-2.229,0.911-3.372C396.651,368.688,387.04,373.09,387.04,373.09z"/>
	<path style="fill:#E5BE8E;" d="M218.327,299.407c-19.9,2.731-26.501,8.906-52.244,8.906h-22.66c0,40.763,0,90.997,0,114.571
		c9.222,0.811,19.802-0.737,34.41,5.203c8.589,3.492,22.087,8.424,38.024,13.44C168.394,405.259,169.945,333.794,218.327,299.407z"
		/>
</g>
<path style="fill:#E8E6E9;" d="M136.105,278.096H87.74v170.833c1.127,0.983,2.267,1.951,3.411,2.915h44.954
	c5.22,0,9.452-4.232,9.452-9.452V287.548C145.558,282.328,141.326,278.096,136.105,278.096z"/>
<path style="fill:#D3D0D4;" d="M136.105,396.028H91.151c-1.144-0.964-2.285-1.931-3.411-2.915v55.815
	c1.127,0.983,2.267,1.951,3.411,2.915h44.954c5.221,0,9.452-4.232,9.452-9.452v-55.815
	C145.558,391.796,141.326,396.028,136.105,396.028z"/>
<path style="fill:#53BBE7;" d="M80.429,267.978H0.288c3.369,73.134,37.423,138.25,89.587,182.786V277.423
	C89.875,272.207,85.646,267.978,80.429,267.978z"/>
<path style="fill:#37AEE2;" d="M80.429,405.431H48.156c12.053,16.734,26.063,31.967,41.719,45.333v-54.779
	C89.875,401.202,85.646,405.431,80.429,405.431z"/>
<g>
</g>
<g>
</g>
<g>
</g>
<g>
</g>
<g>
</g>
<g>
</g>
<g>
</g>
<g>
</g>
<g>
</g>
<g>
</g>
<g>
</g>
<g>
</g>
<g>
</g>
<g>
</g>
<g>
</g>
</svg>
