<?xml version="1.0" encoding="iso-8859-1"?>
<!-- Generator: Adobe Illustrator 19.0.0, SVG Export Plug-In . SVG Version: 6.00 Build 0)  -->
<svg version="1.1" id="Capa_1" xmlns="http://www.w3.org/2000/svg" xmlns:xlink="http://www.w3.org/1999/xlink" x="0px" y="0px"
	 viewBox="0 0 512 512" style="enable-background:new 0 0 512 512;" xml:space="preserve">
<circle style="fill:#37AEE2;" cx="249.261" cy="259.36" r="249.261"/>
<path style="fill:#FEBE40;" d="M422.485,172.493V162.17c0-6.675-5.411-12.086-12.086-12.086s-12.086,5.411-12.086,12.086v10.323
	C406.292,170.814,414.506,170.814,422.485,172.493z"/>
<path style="fill:#F9AA2B;" d="M410.398,162.171c0-4.471,2.434-8.365,6.043-10.455c-1.779-1.031-3.839-1.63-6.043-1.63
	c-6.674,0-12.085,5.412-12.085,12.085v10.323c3.905-0.822,7.946-1.259,12.085-1.259V162.171z"/>
<path style="fill:#5C515E;" d="M61.762,152.809v-14.635c0-5.967,7.53-6.427,7.53-6.427l-0.006-0.014
	c50.165-1.991,108.995-22.907,131.336-31.544l0,0c5.729-2.224,12.196-1.391,17.736,2.922l32.832,25.563
	c0,0,4.144,3.709,4.144,10.683v13.45c8.179-0.842,15.816,1.724,21.163,6.369v-37.849c0-65.037-52.912-117.948-117.948-117.948
	C93.511,3.379,40.6,56.29,40.6,121.327v37.849C45.958,154.523,53.598,151.969,61.762,152.809z"/>
<path style="fill:#4A404E;" d="M91.761,129.728v-8.399c0-56.255,39.589-103.429,92.368-115.146
	c-8.239-1.829-16.799-2.802-25.581-2.802C93.51,3.381,40.599,56.293,40.599,121.33v37.849c5.342-4.64,12.975-7.21,21.163-6.369
	v-14.634c0-5.967,7.53-6.427,7.53-6.427l-0.006-0.014C76.639,131.442,84.179,130.734,91.761,129.728z"/>
<g>
	<path style="fill:#E5BE8E;" d="M254.86,151.197v45.23c15.982,1.645,29.201-9.328,29.201-22.614
		C284.061,160.464,270.762,149.56,254.86,151.197z"/>
	<path style="fill:#E5BE8E;" d="M62.735,150.809v46.005c-16.256,1.673-29.702-9.488-29.702-23.002
		C33.035,160.235,46.562,149.144,62.735,150.809z"/>
</g>
<g>
	<path style="fill:#DDB07F;" d="M254.86,176.261v20.165c15.951,1.644,29.201-9.305,29.201-22.615c0-3.621-0.973-7.042-2.697-10.082
		C276.659,172.028,266.34,177.444,254.86,176.261z"/>
	<path style="fill:#DDB07F;" d="M35.675,163.729c-1.692,3.048-2.641,6.469-2.641,10.082c0,13.562,13.505,24.666,29.702,23.002
		v-20.165C51.069,177.852,40.453,172.337,35.675,163.729z"/>
</g>
<path style="fill:#E5BE8E;" d="M163.136,293.277c-16.314,0.761-31.808-2.622-45.553-9.186c0,8.734,0,18.477,0,27.2l0.18-0.122
	l16.404,37.099l6.481,15.245c22.163,0,13.638,0,35.801,0l22.782-52.344c0-7.467,0-18.112,0-26.725
	C188.172,289.574,175.981,292.678,163.136,293.277z"/>
<path style="fill:#DDB07F;" d="M147.652,292.748c-10.633-1.227-20.753-4.209-30.069-8.657c0,8.734,0,18.478,0,27.201l0.18-0.122
	l16.404,37.099l6.481,15.246c2.777,0,5.072,0,7.005,0v-70.767H147.652z"/>
<path style="fill:#E8E6E9;" d="M321.403,380.046c-4.348-21.776-20.348-30.631-29.162-33.919c-0.106-0.032-6.036-1.781-5.929-1.75
	l0,0c-0.684-0.202-59.371-17.513-61.834-18.24c-3.291,9.222-11.496,32.215-16.971,47.556c-1.805,5.058-7.983,6.934-12.297,3.736
	l-18.763-13.916l0,0h-35.802l0,0l-0.148-0.113l0.047,0.113l-18.763,13.916c-4.314,3.199-10.492,1.322-12.297-3.736l-16.971-47.556
	l0.14-0.095c-3.623,1.069-61.376,18.105-62.155,18.334l0,0c-2.081,0.614-6.192,1.827-5.929,1.75
	c-2.204,0.822-4.857,1.992-7.664,3.625c21.427,55.04,61.839,100.59,113.202,128.594h184.663c13.561,0,23.736-12.396,21.087-25.696
	C329.999,423.21,323.103,388.579,321.403,380.046z"/>
<g>
	<path style="fill:#D3D0D4;" d="M38.377,366.38c3.447-17.265,14.215-26.402,22.922-31.089c-15.26,4.502-30.404,8.968-30.801,9.085
		l0,0c-2.081,0.614-6.192,1.827-5.929,1.75c-2.204,0.822-4.857,1.992-7.664,3.625c4.898,12.581,10.798,24.658,17.584,36.15
		C36.314,376.743,37.727,369.646,38.377,366.38z"/>
	<path style="fill:#D3D0D4;" d="M199.23,309.063l-22.782,54.45l18.763,13.916c4.314,3.2,10.492,1.323,12.297-3.736l16.971-47.556
		L199.23,309.063z"/>
	<path style="fill:#D3D0D4;" d="M117.583,309.063l22.962,54.45l-18.763,13.916c-4.314,3.2-10.492,1.323-12.297-3.736l-16.971-47.556
		L117.583,309.063z"/>
</g>
<polygon style="fill:#DD4C5B;" points="176.449,363.513 140.647,363.513 135.801,367.088 144.781,393.611 172.246,393.611 
	181.27,367.09 "/>
<polygon style="fill:#FD6874;" points="183.187,478.345 172.246,393.611 158.547,393.611 144.849,393.611 133.908,478.345 "/>
<path style="fill:#F1D4A5;" d="M251.189,127.429l-32.832-25.563c-5.54-4.313-12.007-5.146-17.736-2.922l0,0
	c-22.341,8.636-81.17,29.553-131.336,31.544l0.007,0.014c0,0-7.53,0.46-7.53,6.427v60.784c0,55.464,45.971,100.641,101.373,98.056
	c51.322-2.394,92.198-44.757,92.198-96.679v-60.976C255.334,131.138,251.19,127.429,251.189,127.429z"/>
<path style="fill:#E5BE8E;" d="M91.76,199.09v-70.608c-7.582,1.006-15.122,1.714-22.474,2.006l0.007,0.014c0,0-7.53,0.46-7.53,6.427
	v60.784c0,55.464,45.97,100.641,101.373,98.056c3.524-0.165,6.995-0.524,10.411-1.055C127.218,287.506,91.76,247.447,91.76,199.09z"
	/>
<path style="fill:#A87B69;" d="M124.583,475.237c36.674,21.226,79.254,33.382,124.676,33.382s88.001-12.155,124.676-33.382H124.583z
	"/>
<path style="fill:#8D6451;" d="M248.913,475.237h-124.33c36.659,21.217,79.219,33.372,124.619,33.382
	C239.591,500.262,239.652,483.834,248.913,475.237z"/>
<path style="fill:#DDDDDD;" d="M416.491,444.187h-247.2h-10.883c-3.229,0-5.848,2.63-5.848,5.875
	c0,15.621,12.606,28.284,28.156,28.284c0.101,0,5.158,0,4.837,0c0,0,111.147,0,182.855,0
	C385.794,468.865,401.925,457.375,416.491,444.187z"/>
<path style="fill:#BDB9BE;" d="M181.525,450.061c0-3.245,2.618-5.875,5.848-5.875h-18.08h-10.884c-3.23,0-5.848,2.63-5.848,5.875
	c0,15.621,12.606,28.284,28.156,28.284c0.101,0,5.159,0,4.837,0c0,0,9.248,0,24.127,0
	C194.131,478.345,181.525,465.682,181.525,450.061z"/>
<path style="fill:#E8E6E9;" d="M443.171,297.164c0-8.966-7.295-16.261-16.261-16.261c-70.052,0-162.262,0-241.357,0
	c-8.966,0-16.261,7.294-16.261,16.261c0,15.183,0,148.534,0,164.921c0,8.941,7.267,16.261,16.261,16.261
	c8.007,0,113.895,0,182.854,0c28.854-15.733,54.243-37.008,74.763-62.386C443.171,370.414,443.171,307.327,443.171,297.164z"/>
<g>
	<path style="fill:#D3D0D4;" d="M235.19,462.085c0-16.387,0-149.737,0-164.921c0-8.966,7.294-16.261,16.261-16.261
		c-34.939,0-62.172,0-65.897,0c-8.966,0-16.261,7.294-16.261,16.261c0,15.183,0,148.534,0,164.921
		c0,8.941,7.267,16.261,16.261,16.261c3.905,0,31.08,0,65.897,0C242.457,478.345,235.19,471.026,235.19,462.085z"/>
	<circle style="fill:#D3D0D4;" cx="307.457" cy="376.571" r="23.401"/>
</g>
<path style="fill:#BDB9BE;" d="M307.457,376.567c-4.33-7.499-4.031-16.398,0.002-23.398c-3.978-0.004-8.009,1-11.702,3.132
	c-11.192,6.462-15.027,20.773-8.565,31.967s20.773,15.027,31.967,8.565c3.693-2.132,6.579-5.122,8.563-8.568
	C319.642,388.256,311.788,384.066,307.457,376.567z"/>
<g>
	<path style="fill:#FEBE40;" d="M468.037,175.444c-3.841-1.552-5.696-5.923-4.145-9.763l5.217-12.913
		c1.551-3.842,5.923-5.697,9.762-4.145c3.841,1.552,5.696,5.923,4.145,9.763l-5.217,12.913
		C476.243,175.152,471.864,176.991,468.037,175.444z"/>
	<path style="fill:#FEBE40;" d="M484.43,191.553c-1.619-3.813,0.16-8.215,3.973-9.833l12.819-5.442
		c3.814-1.618,8.215,0.16,9.833,3.973c1.619,3.813-0.16,8.215-3.973,9.833l-12.819,5.442
		C490.428,197.155,486.038,195.339,484.43,191.553z"/>
	<path style="fill:#FEBE40;" d="M501.69,229.514l-12.913-5.217c-3.841-1.552-5.696-5.923-4.145-9.763
		c1.551-3.841,5.924-5.699,9.762-4.145l12.913,5.217c3.841,1.552,5.696,5.923,4.145,9.763
		C509.896,229.222,505.516,231.062,501.69,229.514z"/>
</g>
<path style="fill:#FED652;" d="M469.372,278.062v-49.855c0-32.435-26.538-58.973-58.973-58.973l0,0
	c-32.436,0-58.973,26.538-58.973,58.973v49.855c0,14.568-11.81,26.378-26.378,26.378c24.318,0,146.222,0,170.701,0
	C481.181,304.44,469.372,292.631,469.372,278.062z"/>
<g>
	<path style="fill:#FEBE40;" d="M382.239,278.062v-49.855c0-28.957,16.64-53.196,38.36-58.065
		c-36.339-6.408-69.173,21.915-69.173,58.065v49.855c0,14.568-11.81,26.378-26.378,26.378c9.207,0,27.24,0,36.444,0
		C372.95,304.44,382.239,292.631,382.239,278.062z"/>
	<path style="fill:#FEBE40;" d="M420.354,341.592L420.354,341.592c-9.483,5.475-21.721,2.196-27.197-7.287l0,0
		c-5.475-9.483-2.196-21.721,7.287-27.197l0,0c9.483-5.475,21.721-2.196,27.197,7.287l0,0
		C433.116,323.878,429.837,336.117,420.354,341.592z"/>
</g>
<path style="fill:#F9AA2B;" d="M410.398,324.35L410.398,324.35c-3.663-6.345-3.391-13.914,0.02-19.875
	c-3.397-0.014-6.836,0.82-9.975,2.632l0,0c-9.483,5.475-12.762,17.714-7.287,27.197l0,0c5.475,9.483,17.714,12.762,27.197,7.287l0,0
	c3.139-1.812,5.581-4.374,7.267-7.321C420.754,334.243,414.062,330.694,410.398,324.35z"/>
<path style="fill:#FEBE40;" d="M325.048,304.44c24.318,0,146.222,0,170.701,0c-13.736,0-25.015-10.501-26.259-23.912H351.308
	C350.063,293.939,338.784,304.44,325.048,304.44z"/>
<path style="fill:#F9AA2B;" d="M382.146,280.528h-30.838c-0.698,5.311-1.906,9.137-5.296,13.538
	c-4.866,6.363-12.503,10.374-20.963,10.374c16.33,0,10.048,0,26.378,0h10.066C372.296,304.44,381.168,293.94,382.146,280.528z"/>
<path style="fill:#FED652;" d="M495.749,311.94H325.048c-4.142,0-7.499-3.357-7.499-7.499s3.358-7.499,7.499-7.499h170.701
	c4.142,0,7.499,3.357,7.499,7.499S499.892,311.94,495.749,311.94z"/>
<path style="fill:#FEBE40;" d="M368.295,304.44c0-4.143,3.358-7.499,7.499-7.499h-50.746c-4.142,0-7.499,3.357-7.499,7.499
	s3.358,7.499,7.499,7.499h50.746C371.652,311.94,368.295,308.583,368.295,304.44z"/>
<g>
</g>
<g>
</g>
<g>
</g>
<g>
</g>
<g>
</g>
<g>
</g>
<g>
</g>
<g>
</g>
<g>
</g>
<g>
</g>
<g>
</g>
<g>
</g>
<g>
</g>
<g>
</g>
<g>
</g>
</svg>
