<?xml version="1.0" encoding="iso-8859-1"?>
<!-- Generator: Adobe Illustrator 19.0.0, SVG Export Plug-In . SVG Version: 6.00 Build 0)  -->
<svg version="1.1" id="Capa_1" xmlns="http://www.w3.org/2000/svg" xmlns:xlink="http://www.w3.org/1999/xlink" x="0px" y="0px"
	 viewBox="0 0 512 512" style="enable-background:new 0 0 512 512;" xml:space="preserve">
<circle style="fill:#37AEE2;" cx="256" cy="262" r="250"/>
<path style="fill:#E8E6E9;" d="M355.334,33.155H23.355c-4.871,0-8.82,3.949-8.82,8.82v396.789c0,16.811,13.628,30.439,30.439,30.439
	h319.049V41.845C364.023,37.046,360.133,33.155,355.334,33.155z"/>
<g>
	<path style="fill:#D3D0D4;" d="M48.425,438.764V41.975c0-4.871,3.949-8.82,8.82-8.82h-33.89c-4.871,0-8.82,3.949-8.82,8.82v396.789
		c0,16.811,13.628,30.439,30.439,30.439h33.89C62.054,469.203,48.425,455.575,48.425,438.764z"/>
	<path style="fill:#D3D0D4;" d="M84.482,415.089c-5.008,0-9.068,4.06-9.068,9.068v14.607c0,16.812-13.628,30.439-30.439,30.439
		h319.049c16.811,0,30.439-13.628,30.439-30.439v-14.846c0-4.876-3.953-8.829-8.829-8.829L84.482,415.089L84.482,415.089z"/>
	<circle style="fill:#D3D0D4;" cx="73.69" cy="59.15" r="15.413"/>
	<circle style="fill:#D3D0D4;" cx="297.89" cy="59.15" r="15.413"/>
	<circle style="fill:#D3D0D4;" cx="241.84" cy="59.15" r="15.413"/>
	<circle style="fill:#D3D0D4;" cx="185.79" cy="59.15" r="15.413"/>
	<circle style="fill:#D3D0D4;" cx="129.74" cy="59.15" r="15.413"/>
</g>
<g>
	<path style="fill:#FED652;" d="M74.539,0C56.257,0,41.383,14.873,41.383,33.155h15.876c0-9.527,7.751-17.279,17.28-17.279
		s17.28,7.752,17.28,17.28s-7.751,17.28-17.28,17.28c-4.384,0-7.938,3.553-7.938,7.938s3.554,7.938,7.938,7.938
		c18.282,0,33.156-14.873,33.156-33.156S92.821,0,74.539,0z"/>
	<path style="fill:#FED652;" d="M130.377,0c-18.282,0-33.156,14.873-33.156,33.155h15.876c0-9.527,7.751-17.279,17.28-17.279
		c9.528,0,17.28,7.752,17.28,17.28s-7.751,17.28-17.28,17.28c-4.384,0-7.938,3.553-7.938,7.938s3.554,7.938,7.938,7.938
		c18.282,0,33.156-14.873,33.156-33.156S148.66,0,130.377,0z"/>
	<path style="fill:#FED652;" d="M186.216,0c-18.282,0-33.156,14.873-33.156,33.155h15.876c0-9.527,7.751-17.279,17.28-17.279
		s17.28,7.752,17.28,17.28s-7.751,17.28-17.28,17.28c-4.384,0-7.938,3.553-7.938,7.938s3.554,7.938,7.938,7.938
		c18.282,0,33.156-14.873,33.156-33.156S204.498,0,186.216,0z"/>
	<path style="fill:#FED652;" d="M297.894,0c-18.282,0-33.156,14.873-33.156,33.155h15.876c0-9.527,7.751-17.279,17.28-17.279
		c9.528,0,17.28,7.752,17.28,17.28s-7.751,17.28-17.28,17.28c-4.384,0-7.938,3.553-7.938,7.938s3.554,7.938,7.938,7.938
		c18.282,0,33.156-14.873,33.156-33.156S316.176,0,297.894,0z"/>
	<path style="fill:#FED652;" d="M242.055,0c-18.282,0-33.156,14.873-33.156,33.155h15.876c0-9.527,7.751-17.279,17.28-17.279
		s17.28,7.752,17.28,17.28s-7.751,17.28-17.28,17.28c-4.384,0-7.938,3.553-7.938,7.938s3.554,7.938,7.938,7.938
		c18.282,0,33.156-14.873,33.156-33.156S260.337,0,242.055,0z"/>
</g>
<g>
	<path style="fill:#D3D0D4;" d="M309.157,184.393h-183.91c-4.384,0-7.938-3.553-7.938-7.938s3.554-7.938,7.938-7.938h183.91
		c4.384,0,7.938,3.553,7.938,7.938S313.541,184.393,309.157,184.393z"/>
	<path style="fill:#D3D0D4;" d="M309.157,226.598h-183.91c-4.384,0-7.938-3.553-7.938-7.938s3.554-7.938,7.938-7.938h183.91
		c4.384,0,7.938,3.553,7.938,7.938S313.541,226.598,309.157,226.598z"/>
	<path style="fill:#D3D0D4;" d="M204.499,135.837h-79.252c-4.384,0-7.938-3.553-7.938-7.938s3.554-7.938,7.938-7.938h79.252
		c4.384,0,7.938,3.553,7.938,7.938C212.437,132.284,208.883,135.837,204.499,135.837z"/>
	<path style="fill:#D3D0D4;" d="M247.77,268.805H125.247c-4.384,0-7.938-3.553-7.938-7.938s3.554-7.938,7.938-7.938H247.77
		c4.384,0,7.938,3.553,7.938,7.938S252.154,268.805,247.77,268.805z"/>
</g>
<g>
	<path style="fill:#42D197;" d="M71.749,189.72L71.749,189.72c-2.105,0-4.125-0.836-5.613-2.326l-8.932-8.932
		c-3.1-3.1-3.1-8.126,0-11.226c3.1-3.1,8.126-3.099,11.226,0.001l3.319,3.319l11.392-11.392c3.1-3.099,8.126-3.1,11.226,0.001
		c3.1,3.1,3.1,8.125,0,11.226l-17.005,17.005C75.873,188.883,73.854,189.72,71.749,189.72z"/>
	<path style="fill:#42D197;" d="M71.749,231.926L71.749,231.926c-2.106,0-4.125-0.836-5.613-2.326l-8.932-8.933
		c-3.1-3.1-3.099-8.126,0.001-11.226c3.1-3.1,8.126-3.099,11.226,0.001l3.319,3.319l11.392-11.391c3.1-3.101,8.126-3.1,11.226-0.001
		c3.1,3.101,3.1,8.126,0,11.227l-17.005,17.005C75.873,231.09,73.854,231.926,71.749,231.926z"/>
	<path style="fill:#42D197;" d="M71.749,274.132L71.749,274.132c-2.106,0-4.125-0.836-5.613-2.326l-8.932-8.933
		c-3.1-3.1-3.099-8.126,0.001-11.226c3.1-3.099,8.126-3.1,11.226,0.001l3.319,3.319l11.392-11.391c3.1-3.101,8.126-3.1,11.226-0.001
		c3.1,3.101,3.1,8.126,0,11.227l-17.005,17.005C75.873,273.296,73.854,274.132,71.749,274.132z"/>
</g>
<g>
	<path style="fill:#D3D0D4;" d="M224.862,311.01h-99.614c-4.384,0-7.938-3.553-7.938-7.938s3.554-7.938,7.938-7.938h99.614
		c4.384,0,7.938,3.553,7.938,7.938S229.246,311.01,224.862,311.01z"/>
	<path style="fill:#D3D0D4;" d="M202.584,353.216h-77.336c-4.384,0-7.938-3.553-7.938-7.938s3.554-7.938,7.938-7.938h77.336
		c4.384,0,7.938,3.553,7.938,7.938S206.968,353.216,202.584,353.216z"/>
</g>
<g>
	<path style="fill:#42D197;" d="M71.749,316.338L71.749,316.338c-2.105,0-4.125-0.836-5.613-2.326l-8.932-8.932
		c-3.1-3.1-3.1-8.126,0-11.226c3.1-3.099,8.126-3.1,11.226,0.001l3.319,3.319l11.392-11.392c3.1-3.101,8.126-3.1,11.226-0.001
		c3.1,3.101,3.1,8.126,0,11.227l-17.005,17.005C75.873,315.501,73.854,316.338,71.749,316.338z"/>
	<path style="fill:#42D197;" d="M71.749,358.543L71.749,358.543c-2.105,0-4.125-0.836-5.613-2.326l-8.932-8.932
		c-3.1-3.1-3.1-8.126,0-11.226c3.1-3.099,8.126-3.1,11.226,0.001l3.319,3.319l11.392-11.392c3.1-3.099,8.126-3.1,11.226,0.001
		c3.1,3.1,3.1,8.125,0,11.226l-17.005,17.005C75.873,357.707,73.854,358.543,71.749,358.543z"/>
</g>
<path style="fill:#FED652;" d="M487.359,356.842l-18.471-3.144c-1.134-0.193-2.034-1.044-2.315-2.159
	c-2.523-9.989-6.472-19.41-11.614-28.037c-0.591-0.992-0.553-2.235,0.119-3.175l17.166-23.964c0.823-1.149,0.694-2.725-0.306-3.725
	L449.1,269.8c-0.996-0.996-2.565-1.128-3.713-0.313l-24.094,17.085c-0.938,0.665-2.174,0.701-3.162,0.112
	c-8.632-5.141-18.056-9.088-28.05-11.609c-1.116-0.282-1.967-1.181-2.161-2.316l-4.957-29.13c-0.236-1.388-1.44-2.404-2.848-2.404
	h-32.298c-1.413,0-2.619,1.023-2.85,2.417l-4.823,29.178c-0.188,1.138-1.038,2.043-2.156,2.328
	c-9.938,2.536-19.31,6.482-27.896,11.611c-0.988,0.591-2.227,0.556-3.166-0.11l-24.116-17.1c-1.148-0.814-2.717-0.682-3.713,0.314
	l-22.838,22.838c-0.999,0.999-1.129,2.575-0.306,3.725l17.228,24.051c0.672,0.938,0.711,2.179,0.122,3.171
	c-5.09,8.572-9.003,17.925-11.513,27.838c-0.282,1.115-1.181,1.965-2.315,2.158l-29.307,4.988c-1.388,0.236-2.404,1.439-2.404,2.848
	c0,11.621,0,21.63,0,33.251c0,1.409,1.016,2.612,2.404,2.848l29.307,4.988c1.133,0.193,2.033,1.044,2.315,2.158
	c2.51,9.913,6.423,19.266,11.513,27.838c0.589,0.992,0.549,2.233-0.122,3.171l-17.228,24.051c-0.823,1.149-0.694,2.725,0.306,3.725
	l22.838,22.838c0.996,0.996,2.565,1.129,3.713,0.314l24.116-17.1c0.939-0.666,2.177-0.701,3.166-0.11
	c8.585,5.129,17.958,9.075,27.896,11.611c1.117,0.285,1.967,1.19,2.156,2.327l2.197,13.295
	C408.093,472.485,460.851,421.44,487.359,356.842z"/>
<g>
	<path style="fill:#FEBE40;" d="M406.955,444.317c-54.611,0-99.039-44.429-99.039-99.04c0-27.201,11.025-51.874,28.837-69.79
		c-9.477,2.542-18.434,6.356-26.661,11.272c-0.988,0.591-2.227,0.556-3.166-0.11l-24.116-17.1c-1.148-0.814-2.717-0.682-3.713,0.314
		l-22.838,22.838c-0.999,0.999-1.129,2.575-0.306,3.725l17.228,24.051c0.672,0.938,0.711,2.179,0.122,3.171
		c-5.09,8.572-9.003,17.925-11.513,27.838c-0.282,1.115-1.181,1.965-2.315,2.158l-29.307,4.988
		c-1.388,0.236-2.404,1.439-2.404,2.848c0,11.621,0,21.63,0,33.251c0,1.409,1.016,2.612,2.404,2.848l29.307,4.988
		c1.133,0.193,2.033,1.044,2.315,2.158c2.51,9.913,6.423,19.266,11.513,27.838c0.589,0.992,0.549,2.233-0.122,3.171l-17.228,24.051
		c-0.823,1.149-0.694,2.725,0.306,3.725l22.838,22.838c0.996,0.996,2.565,1.129,3.713,0.314l24.116-17.1
		c0.939-0.666,2.177-0.701,3.166-0.11c8.585,5.129,17.958,9.075,27.896,11.611c1.117,0.285,1.967,1.19,2.156,2.327l2.197,13.295
		c32.997-12.144,62.719-31.053,87.496-55.04C422.49,443.389,414.829,444.317,406.955,444.317z"/>
	<path style="fill:#FEBE40;" d="M364.023,460.084c-45.203,0-81.979-36.775-81.979-81.979c0-45.203,36.775-81.978,81.979-81.978
		s81.979,36.775,81.979,81.978S409.226,460.084,364.023,460.084z"/>
</g>
<path style="fill:#F9AA2B;" d="M282.044,378.105c0,45.204,36.775,81.979,81.979,81.979c18.128,0,34.892-5.925,48.48-15.925
	c-1.837,0.102-3.686,0.158-5.548,0.158c-54.611,0-99.039-44.429-99.039-99.04c0-10.913,1.778-21.417,5.054-31.244
	C294.142,329.067,282.044,352.193,282.044,378.105z"/>
<path style="fill:#E8E6E9;" d="M364.023,319.121c-32.524,0-58.984,26.46-58.984,58.984c0,32.525,26.46,58.985,58.984,58.985
	s58.984-26.46,58.984-58.985C423.007,345.581,396.547,319.121,364.023,319.121z"/>
<path style="fill:#D3D0D4;" d="M364.023,437.089c1.757,0,3.492-0.092,5.211-0.243c-32.295-13.353-56.045-43.308-60.543-79.17
	c-2.359,6.368-3.652,13.25-3.652,20.429C305.039,410.629,331.499,437.089,364.023,437.089z"/>
<path style="fill:#7E777F;" d="M363.816,386.043h-23.411c-4.384,0-7.938-3.553-7.938-7.938s3.554-7.938,7.938-7.938h15.473v-26.225
	c0-4.384,3.554-7.938,7.938-7.938s7.938,3.553,7.938,7.938v34.163C371.754,382.489,368.2,386.043,363.816,386.043z"/>
<path style="fill:#BDB9BE;" d="M131.67,442.146c0-12.952,8.791-23.847,20.73-27.057H84.482c-5.008,0-9.068,4.06-9.068,9.068v14.607
	c0,16.812-13.628,30.439-30.439,30.439H152.4C140.46,465.993,131.67,455.099,131.67,442.146z"/>
<g>
</g>
<g>
</g>
<g>
</g>
<g>
</g>
<g>
</g>
<g>
</g>
<g>
</g>
<g>
</g>
<g>
</g>
<g>
</g>
<g>
</g>
<g>
</g>
<g>
</g>
<g>
</g>
<g>
</g>
</svg>
