<?xml version="1.0" encoding="iso-8859-1"?>
<!-- Generator: Adobe Illustrator 19.0.0, SVG Export Plug-In . SVG Version: 6.00 Build 0)  -->
<svg version="1.1" id="Capa_1" xmlns="http://www.w3.org/2000/svg" xmlns:xlink="http://www.w3.org/1999/xlink" x="0px" y="0px"
	 viewBox="0 0 512 512" style="enable-background:new 0 0 512 512;" xml:space="preserve">
<circle style="fill:#FC5B6F;" cx="256" cy="249.99" r="249.99"/>
<path style="fill:#E8E6E9;" d="M6.011,249.989c0,44.631,11.709,86.521,32.202,122.791h369.481V76.147H76.373
	C32.823,121.138,6.011,182.428,6.011,249.989z"/>
<path style="fill:#D3D0D4;" d="M81.636,76.147h-5.263c-43.55,44.99-70.362,106.281-70.362,173.842
	c0,44.631,11.709,86.521,32.202,122.791h43.423V76.147z"/>
<path style="fill:#53BBE7;" d="M65.483,322.19h32.672v-57.361c0-1.67-1.353-3.023-3.023-3.023H68.506
	c-1.67,0-3.023,1.353-3.023,3.023C65.483,264.829,65.483,322.19,65.483,322.19z"/>
<path style="fill:#42D197;" d="M101.178,231.615c-1.67,0-3.023,1.353-3.023,3.023v27.169v60.384h32.672v-87.553
	c0-1.67-1.353-3.023-3.023-3.023H101.178z"/>
<path style="fill:#FED652;" d="M130.827,204.446V322.19h32.672V204.446c0-1.67-1.353-3.023-3.023-3.023H133.85
	C132.18,201.423,130.827,202.776,130.827,204.446z"/>
<path style="fill:#FC5B6F;" d="M163.499,174.254V322.19h32.672V174.254c0-1.67-1.353-3.023-3.023-3.023h-26.626
	C164.852,171.231,163.499,172.584,163.499,174.254z"/>
<path style="fill:#2EBC7F;" d="M130.827,322.19v-47.4c0-1.67-1.353-3.023-3.023-3.023h-26.626c-1.669,0-3.023,1.353-3.023,3.023
	v47.4H130.827z"/>
<path style="fill:#FEBE40;" d="M163.499,322.19v-67.731c0-1.67-1.354-3.023-3.023-3.023H133.85c-1.669,0-3.023,1.353-3.023,3.023
	v67.731H163.499z"/>
<path style="fill:#DD4C5B;" d="M196.171,322.19v-88.063c0-1.67-1.354-3.023-3.023-3.023h-26.626c-1.669,0-3.023,1.353-3.023,3.023
	v88.063H196.171z"/>
<path style="fill:#37AEE2;" d="M98.155,322.19v-27.068c0-1.67-1.353-3.023-3.023-3.023H68.507c-1.67,0-3.023,1.353-3.023,3.023
	v27.068H98.155z"/>
<g>
	<path style="fill:#D3D0D4;" d="M211.077,479.019c-4.554,0-8.245-3.691-8.245-8.245V389.2c0-4.554,3.692-8.245,8.245-8.245
		c4.553,0,8.245,3.691,8.245,8.245v81.573C219.322,475.328,215.63,479.019,211.077,479.019z"/>
	<path style="fill:#D3D0D4;" d="M358.211,199.72h-67.924c-4.554,0-8.245-3.691-8.245-8.245s3.692-8.245,8.245-8.245h67.924
		c4.554,0,8.245,3.691,8.245,8.245S362.765,199.72,358.211,199.72z"/>
	<path style="fill:#D3D0D4;" d="M358.211,243.56h-67.924c-4.554,0-8.245-3.691-8.245-8.245s3.692-8.245,8.245-8.245h67.924
		c4.554,0,8.245,3.691,8.245,8.245S362.765,243.56,358.211,243.56z"/>
	<path style="fill:#D3D0D4;" d="M318.577,149.285h-28.29c-4.554,0-8.245-3.691-8.245-8.245s3.692-8.245,8.245-8.245h28.29
		c4.554,0,8.245,3.691,8.245,8.245S323.131,149.285,318.577,149.285z"/>
	<path style="fill:#D3D0D4;" d="M358.21,287.399h-67.923c-4.554,0-8.245-3.691-8.245-8.245s3.692-8.245,8.245-8.245h67.923
		c4.554,0,8.245,3.691,8.245,8.245C366.455,283.708,362.763,287.399,358.21,287.399z"/>
</g>
<g>
	<path style="fill:#42D197;" d="M245.626,205.254c-2.11,0-4.22-0.805-5.83-2.415l-9.278-9.278c-3.22-3.221-3.22-8.441,0-11.661
		c3.22-3.219,8.441-3.219,11.66,0l3.448,3.448l11.833-11.833c3.22-3.219,8.441-3.22,11.66,0.001c3.22,3.22,3.22,8.44,0,11.66
		l-17.663,17.663C249.847,204.448,247.736,205.254,245.626,205.254z"/>
	<path style="fill:#42D197;" d="M245.626,249.093c-2.11,0-4.22-0.805-5.83-2.415l-9.278-9.278c-3.22-3.221-3.22-8.441,0-11.661
		c3.22-3.219,8.441-3.219,11.66,0l3.448,3.448l11.833-11.833c3.22-3.219,8.441-3.22,11.66,0.001c3.22,3.22,3.22,8.44,0,11.66
		l-17.663,17.663C249.847,248.288,247.736,249.093,245.626,249.093z"/>
	<path style="fill:#42D197;" d="M245.626,292.934L245.626,292.934c-2.187,0-4.284-0.869-5.831-2.416l-9.278-9.279
		c-3.22-3.22-3.219-8.441,0.001-11.66c3.221-3.219,8.441-3.22,11.661,0.001l3.447,3.447l11.833-11.832
		c3.22-3.221,8.441-3.22,11.66-0.001c3.22,3.221,3.22,8.441,0,11.661l-17.663,17.663
		C249.91,292.065,247.813,292.934,245.626,292.934z"/>
</g>
<path style="fill:#7E777F;" d="M414.678,366.184H34.619c6.078,11.555,13.022,22.583,20.767,32.981h359.292
	c9.107,0,16.491-7.383,16.491-16.491S423.786,366.184,414.678,366.184z"/>
<path style="fill:#5C515E;" d="M81.636,366.184H34.619c6.078,11.555,13.022,22.583,20.767,32.981h26.25V366.184z"/>
<path style="fill:#E8E6E9;" d="M211.077,512c-13.64,0-24.736-11.097-24.736-24.736s11.096-24.736,24.736-24.736
	c13.64,0,24.736,11.097,24.736,24.736C235.812,500.903,224.716,512,211.077,512z M211.077,479.019c-4.547,0-8.245,3.699-8.245,8.245
	c0,4.547,3.699,8.245,8.245,8.245s8.245-3.699,8.245-8.245C219.322,482.717,215.623,479.019,211.077,479.019z"/>
<path style="fill:#7E777F;" d="M439.042,84.908c4.759,0,8.617-3.858,8.617-8.617V32.095c0-4.759-3.858-8.617-8.617-8.617h-288.91
	c-31.387,14.696-59.215,35.716-81.846,61.43C68.286,84.908,439.042,84.908,439.042,84.908z"/>
<path style="fill:#5C515E;" d="M406.981,54.193H100.574c-11.655,9.264-22.46,19.548-32.289,30.715h347.323V62.821
	C415.609,58.057,411.746,54.193,406.981,54.193z"/>
<path style="fill:#4A404E;" d="M81.636,70.889c-4.623,4.503-9.084,9.172-13.35,14.019h13.35V70.889z"/>
<path style="fill:#D3D0D4;" d="M203.381,330.436H60.845c-4.554,0-8.245-3.691-8.245-8.245s3.692-8.245,8.245-8.245h142.536
	c4.554,0,8.245,3.691,8.245,8.245S207.935,330.436,203.381,330.436z"/>
<circle style="fill:#5C515E;" cx="407.69" cy="399.17" r="91.91"/>
<path style="fill:#4A404E;" d="M378.495,416.024c-20.296-35.154-14.727-78.139,10.796-106.931
	c-9.445,1.931-18.745,5.389-27.552,10.474c-43.961,25.381-59.023,81.594-33.642,125.555s81.594,59.023,125.555,33.642
	c8.808-5.085,16.452-11.41,22.846-18.624C438.801,467.848,398.79,451.177,378.495,416.024z"/>
<circle style="fill:#E8E6E9;" cx="407.69" cy="399.17" r="63.6"/>
<path style="fill:#D3D0D4;" d="M378.495,416.024c-12.191-21.116-15.039-45.054-9.847-67.048
	c-14.938,11.639-24.557,29.785-24.557,50.19c0,35.128,28.477,63.604,63.604,63.604c8.482,0,16.568-1.673,23.967-4.687
	C410.008,451.586,390.69,437.148,378.495,416.024z"/>
<path style="fill:#FD6874;" d="M407.695,335.561v63.604h63.604C471.299,364.038,442.822,335.561,407.695,335.561z"/>
<g>
	<path style="fill:#5C515E;" d="M407.695,414.767c-4.418,0-7.999-3.581-7.999-7.999v-56.121c0-4.418,3.581-7.999,7.999-7.999
		s7.999,3.581,7.999,7.999v56.121C415.694,411.186,412.112,414.767,407.695,414.767z"/>
	<path style="fill:#5C515E;" d="M438.181,407.164h-38.395c-4.418,0-7.999-3.581-7.999-7.999s3.581-7.999,7.999-7.999h38.395
		c4.418,0,7.999,3.581,7.999,7.999S442.598,407.164,438.181,407.164z"/>
</g>
<g>
</g>
<g>
</g>
<g>
</g>
<g>
</g>
<g>
</g>
<g>
</g>
<g>
</g>
<g>
</g>
<g>
</g>
<g>
</g>
<g>
</g>
<g>
</g>
<g>
</g>
<g>
</g>
<g>
</g>
</svg>
