<?xml version="1.0" encoding="iso-8859-1"?>
<!-- Generator: Adobe Illustrator 19.0.0, SVG Export Plug-In . SVG Version: 6.00 Build 0)  -->
<svg version="1.1" id="Capa_1" xmlns="http://www.w3.org/2000/svg" xmlns:xlink="http://www.w3.org/1999/xlink" x="0px" y="0px"
	 viewBox="0 0 512 512" style="enable-background:new 0 0 512 512;" xml:space="preserve">
<circle style="fill:#5C515E;" cx="256" cy="259.39" r="252.61"/>
<path style="fill:#E8E6E9;" d="M376.689,32.963H46.635c-4.843,0-8.769,3.926-8.769,8.769v394.489
	c0,16.714,13.549,30.263,30.263,30.263h317.199V41.602C385.328,36.831,381.46,32.963,376.689,32.963z"/>
<g>
	<path style="fill:#D3D0D4;" d="M69.017,436.221V41.732c0-4.843,3.926-8.769,8.769-8.769H46.635c-4.843,0-8.769,3.926-8.769,8.769
		v394.489c0,16.713,13.549,30.263,30.263,30.263H99.28C82.566,466.484,69.017,452.935,69.017,436.221z"/>
	<path style="fill:#D3D0D4;" d="M107.407,412.683c-4.979,0-9.015,4.036-9.015,9.015v14.522c0,16.714-13.549,30.263-30.263,30.263
		h317.2c16.714,0,30.263-13.549,30.263-30.263v-14.76c0-4.848-3.93-8.778-8.778-8.778H107.407V412.683z"/>
	<circle style="fill:#D3D0D4;" cx="96.67" cy="58.808" r="15.323"/>
	<circle style="fill:#D3D0D4;" cx="319.58" cy="58.808" r="15.323"/>
	<circle style="fill:#D3D0D4;" cx="263.86" cy="58.808" r="15.323"/>
	<circle style="fill:#D3D0D4;" cx="208.13" cy="58.808" r="15.323"/>
	<circle style="fill:#D3D0D4;" cx="152.4" cy="58.808" r="15.323"/>
</g>
<g>
	<path style="fill:#FED652;" d="M97.521,0C79.345,0,64.558,14.787,64.558,32.963h15.784c0-9.472,7.706-17.179,17.179-17.179
		S114.7,23.491,114.7,32.963s-7.706,17.179-17.179,17.179c-4.359,0-7.892,3.533-7.892,7.892s3.533,7.892,7.892,7.892
		c18.176,0,32.963-14.787,32.963-32.963S115.698,0,97.521,0z"/>
	<path style="fill:#FED652;" d="M153.036,0c-18.176,0-32.963,14.787-32.963,32.963h15.784c0-9.472,7.706-17.179,17.179-17.179
		c9.473,0,17.179,7.707,17.179,17.179s-7.706,17.179-17.179,17.179c-4.359,0-7.892,3.533-7.892,7.892s3.533,7.892,7.892,7.892
		C171.213,65.927,186,51.14,186,32.963S171.213,0,153.036,0z"/>
	<path style="fill:#FED652;" d="M208.552,0c-18.176,0-32.963,14.787-32.963,32.963h15.784c0-9.472,7.706-17.179,17.179-17.179
		c9.473,0,17.179,7.707,17.179,17.179s-7.706,17.179-17.179,17.179c-4.359,0-7.892,3.533-7.892,7.892s3.533,7.892,7.892,7.892
		c18.176,0,32.963-14.787,32.963-32.963S226.728,0,208.552,0z"/>
	<path style="fill:#FED652;" d="M319.582,0c-18.176,0-32.963,14.787-32.963,32.963h15.784c0-9.472,7.706-17.179,17.179-17.179
		s17.179,7.707,17.179,17.179s-7.706,17.179-17.179,17.179c-4.359,0-7.892,3.533-7.892,7.892s3.533,7.892,7.892,7.892
		c18.176,0,32.963-14.787,32.963-32.963S337.758,0,319.582,0z"/>
	<path style="fill:#FED652;" d="M264.067,0c-18.176,0-32.963,14.787-32.963,32.963h15.784c0-9.472,7.706-17.179,17.179-17.179
		s17.179,7.707,17.179,17.179s-7.706,17.179-17.179,17.179c-4.359,0-7.892,3.533-7.892,7.892s3.533,7.892,7.892,7.892
		c18.176,0,32.963-14.787,32.963-32.963S282.243,0,264.067,0z"/>
</g>
<g>
	<path style="fill:#D3D0D4;" d="M330.78,183.324H147.936c-4.359,0-7.892-3.533-7.892-7.892s3.533-7.892,7.892-7.892H330.78
		c4.359,0,7.892,3.533,7.892,7.892S335.138,183.324,330.78,183.324z"/>
	<path style="fill:#D3D0D4;" d="M330.78,225.285H147.936c-4.359,0-7.892-3.533-7.892-7.892s3.533-7.892,7.892-7.892H330.78
		c4.359,0,7.892,3.533,7.892,7.892S335.138,225.285,330.78,225.285z"/>
	<path style="fill:#D3D0D4;" d="M226.728,135.049h-78.792c-4.359,0-7.892-3.533-7.892-7.892s3.533-7.892,7.892-7.892h78.792
		c4.359,0,7.892,3.533,7.892,7.892C234.62,131.516,231.087,135.049,226.728,135.049z"/>
	<path style="fill:#D3D0D4;" d="M269.748,267.247H147.936c-4.359,0-7.892-3.533-7.892-7.892c0-4.359,3.533-7.892,7.892-7.892
		h121.812c4.359,0,7.892,3.533,7.892,7.892C277.64,263.714,274.107,267.247,269.748,267.247z"/>
</g>
<g>
	<path style="fill:#42D197;" d="M94.748,188.62L94.748,188.62c-2.093,0-4.101-0.831-5.58-2.312l-8.88-8.881
		c-3.082-3.082-3.082-8.079,0-11.161s8.08-3.081,11.161,0.001l3.3,3.3l11.326-11.326c3.082-3.081,8.079-3.082,11.161,0.001
		c3.082,3.082,3.082,8.078,0,11.161l-16.907,16.906C98.848,187.789,96.841,188.62,94.748,188.62z"/>
	<path style="fill:#42D197;" d="M94.748,230.582L94.748,230.582c-2.094,0-4.101-0.831-5.581-2.312l-8.88-8.882
		c-3.082-3.082-3.081-8.079,0.001-11.161s8.079-3.081,11.161,0.001l3.3,3.3l11.326-11.325c3.082-3.083,8.079-3.082,11.161-0.001
		c3.082,3.083,3.082,8.079,0,11.162l-16.907,16.906C98.848,229.751,96.841,230.582,94.748,230.582z"/>
	<path style="fill:#42D197;" d="M94.748,272.543L94.748,272.543c-2.094,0-4.101-0.831-5.581-2.312l-8.88-8.882
		c-3.082-3.082-3.081-8.079,0.001-11.161c3.082-3.081,8.079-3.082,11.161,0.001l3.3,3.3l11.326-11.325
		c3.082-3.083,8.079-3.082,11.161-0.001c3.082,3.083,3.082,8.079,0,11.162l-16.907,16.906
		C98.848,271.712,96.841,272.543,94.748,272.543z"/>
</g>
<g>
	<path style="fill:#D3D0D4;" d="M269.748,309.208H147.936c-4.359,0-7.892-3.533-7.892-7.892s3.533-7.892,7.892-7.892h121.812
		c4.359,0,7.892,3.533,7.892,7.892S274.107,309.208,269.748,309.208z"/>
	<path style="fill:#D3D0D4;" d="M289.085,351.169H147.936c-4.359,0-7.892-3.533-7.892-7.892s3.533-7.892,7.892-7.892h141.149
		c4.359,0,7.892,3.533,7.892,7.892C296.977,347.636,293.443,351.169,289.085,351.169z"/>
</g>
<g>
	<path style="fill:#42D197;" d="M94.748,314.504L94.748,314.504c-2.093,0-4.101-0.831-5.58-2.312l-8.88-8.881
		c-3.082-3.082-3.082-8.079,0-11.161c3.082-3.081,8.08-3.082,11.161,0.001l3.3,3.3l11.326-11.326
		c3.082-3.083,8.079-3.082,11.161-0.001c3.082,3.083,3.082,8.079,0,11.162l-16.907,16.906
		C98.848,313.673,96.841,314.504,94.748,314.504z"/>
	<path style="fill:#42D197;" d="M94.748,356.465L94.748,356.465c-2.093,0-4.101-0.831-5.58-2.312l-8.88-8.881
		c-3.082-3.082-3.082-8.079,0-11.161c3.082-3.081,8.08-3.082,11.161,0.001l3.3,3.3l11.326-11.326
		c3.082-3.081,8.079-3.082,11.161,0.001c3.082,3.082,3.082,8.078,0,11.161l-16.907,16.906
		C98.848,355.634,96.841,356.465,94.748,356.465z"/>
</g>
<path style="fill:#E8E6E9;" d="M400.973,398.815c-4.35-1.012-7.449-4.856-7.449-9.322c0-4.678,3.25-8.683,7.801-9.766
	c30.285-7.211,52.808-34.439,52.808-66.931v-18.777h-137.61v18.777c0,32.537,22.586,59.795,52.934,66.961
	c4.479,1.058,7.676,5.005,7.676,9.607l0,0c0,4.542-3.153,8.443-7.575,9.48c-30.399,7.129-53.034,34.411-53.034,66.984v18.777h53.994
	c27.585-14.055,52.243-33.027,72.821-55.764C433.815,413.937,418.717,402.94,400.973,398.815z"/>
<path style="fill:#D3D0D4;" d="M383.023,398.844c1.589-1.037,2.723-4.939,2.723-9.481l0,0c0-4.603-1.149-8.55-2.759-9.608
	c-10.908-7.165-19.025-34.424-19.025-66.96v-18.777h-47.439v18.777c0,32.537,22.586,59.795,52.933,66.96
	c4.479,1.057,7.676,5.005,7.676,9.608l0,0c0,4.542-3.153,8.443-7.575,9.481c-30.399,7.129-53.034,34.411-53.034,66.984v18.777
	h47.439v-18.777C363.962,433.255,372.098,405.973,383.023,398.844z"/>
<path style="fill:#FFF6D4;" d="M325.849,347.376c9.358,16.058,25.021,27.991,43.608,32.38c4.462,1.054,7.649,4.976,7.673,9.556
	h16.402c0.083-4.6,3.301-8.516,7.793-9.586c18.531-4.412,34.145-16.327,43.482-32.35H325.849z"/>
<path style="fill:#FFE693;" d="M325.853,347.382c9.625,16.512,25.58,28.117,43.595,32.371c0.003,0.001,0.006,0.002,0.009,0.003
	c4.4,1.042,7.649,4.912,7.673,9.556h8.615c-0.009-4.58-1.154-8.502-2.758-9.556c-6.68-4.388-12.31-16.321-15.673-32.38h-41.465
	C325.85,347.378,325.851,347.38,325.853,347.382z"/>
<path style="fill:#FFF6D4;" d="M316.523,484.605h53.994c24.658-12.564,46.969-29.066,66.127-48.665h-113.29
	C313.694,455.93,317.333,471.568,316.523,484.605z"/>
<path style="fill:#FFE693;" d="M363.962,465.827c0-10.714,0.885-20.847,2.455-29.887h-43.063
	c-9.559,19.781-6.084,35.364-6.83,48.665h47.439v-18.778H363.962z"/>
<path style="fill:#FEBE40;" d="M460.437,294.498H310.219c-7.565,0-13.698-6.24-13.698-13.938s6.133-13.938,13.698-13.938h150.217
	c7.565,0,13.698,6.24,13.698,13.938C474.134,288.258,468.001,294.498,460.437,294.498z"/>
<g>
	<path style="fill:#F9AA2B;" d="M356,280.561c0-7.698,6.133-13.938,13.698-13.938h-59.479c-7.565,0-13.698,6.24-13.698,13.938
		c0,7.697,6.133,13.937,13.698,13.937h59.479C362.133,294.498,356,288.258,356,280.561z"/>
	<path style="fill:#F9AA2B;" d="M310.219,483.029c-7.565,0-13.698,6.486-13.698,14.485c0,4.148,1.658,7.879,4.3,10.52
		c25.812-4.622,50.255-13.18,72.71-25.005L310.219,483.029L310.219,483.029z"/>
</g>
<path style="fill:#BDB9BE;" d="M154.399,439.584c0-12.724,8.474-23.464,20.084-26.9h-67.076c-4.979,0-9.015,4.036-9.015,9.016
	v14.522c0,16.714-13.549,30.263-30.263,30.263h106.354C162.873,463.048,154.399,452.308,154.399,439.584z"/>
<g>
</g>
<g>
</g>
<g>
</g>
<g>
</g>
<g>
</g>
<g>
</g>
<g>
</g>
<g>
</g>
<g>
</g>
<g>
</g>
<g>
</g>
<g>
</g>
<g>
</g>
<g>
</g>
<g>
</g>
</svg>
