<?xml version="1.0" encoding="iso-8859-1"?>
<!-- Generator: Adobe Illustrator 19.0.0, SVG Export Plug-In . SVG Version: 6.00 Build 0)  -->
<svg version="1.1" id="Capa_1" xmlns="http://www.w3.org/2000/svg" xmlns:xlink="http://www.w3.org/1999/xlink" x="0px" y="0px"
	 viewBox="0 0 512.001 512.001" style="enable-background:new 0 0 512.001 512.001;" xml:space="preserve">
<circle style="fill:#37AEE2;" cx="260.897" cy="261.003" r="250.998"/>
<path style="fill:#7E777F;" d="M326.555,141.894l-35.034-5.963c-1.37-0.233-2.458-1.261-2.798-2.61
	c-3.05-12.072-7.823-23.457-14.036-33.885c-0.715-1.2-0.669-2.702,0.144-3.836l20.746-28.962c0.995-1.388,0.839-3.294-0.37-4.501
	l-27.602-27.602c-1.204-1.204-3.1-1.363-4.488-0.379l-29.119,20.649c-1.134,0.804-2.628,0.847-3.821,0.135
	c-10.432-6.213-21.822-10.984-33.9-14.03c-1.348-0.34-2.378-1.427-2.611-2.799l-5.992-35.206C187.388,1.227,185.934,0,184.232,0
	h-39.035c-1.708,0-3.166,1.236-3.445,2.922l-5.829,35.264c-0.227,1.375-1.254,2.468-2.605,2.813
	c-12.01,3.065-23.337,7.834-33.714,14.033c-1.195,0.714-2.691,0.672-3.826-0.133L66.633,34.231
	c-1.387-0.985-3.284-0.825-4.487,0.379L34.544,62.213c-1.208,1.208-1.364,3.113-0.37,4.501l20.821,29.067
	c0.812,1.134,0.86,2.633,0.148,3.832c-6.152,10.361-10.882,21.664-13.914,33.644c-0.341,1.347-1.427,2.375-2.798,2.608l-35.42,6.029
	c-1.677,0.286-2.905,1.739-2.905,3.442c0,14.044,0,26.141,0,40.187c0,1.702,1.227,3.156,2.905,3.442l35.42,6.029
	c1.369,0.233,2.457,1.261,2.798,2.608c3.033,11.98,7.762,23.284,13.914,33.644c0.712,1.199,0.664,2.699-0.148,3.832l-20.821,29.067
	c-0.995,1.389-0.839,3.294,0.37,4.501l27.602,27.602c1.204,1.204,3.1,1.364,4.487,0.38l29.146-20.668
	c1.135-0.805,2.632-0.847,3.826-0.133c10.376,6.199,21.704,10.969,33.714,14.033c1.35,0.345,2.378,1.438,2.605,2.813l5.829,35.265
	c0.279,1.685,1.736,2.922,3.445,2.922h39.035c1.702,0,3.156-1.228,3.442-2.906l5.992-35.206c0.234-1.37,1.263-2.458,2.611-2.799
	c12.078-3.047,23.467-7.817,33.9-14.03c1.194-0.711,2.688-0.669,3.821,0.135l29.119,20.649c1.388,0.985,3.284,0.825,4.488-0.379
	l27.602-27.602c1.208-1.208,1.364-3.113,0.37-4.501l-20.746-28.962c-0.813-1.135-0.859-2.637-0.144-3.836
	c6.214-10.427,10.987-21.812,14.036-33.885c0.341-1.348,1.427-2.377,2.798-2.61l35.034-5.963c1.678-0.286,2.906-1.739,2.906-3.442
	c0-14.044,0-26.141,0-40.187C329.46,143.633,328.232,142.18,326.555,141.894z"/>
<path style="fill:#FED652;" d="M499.858,337.972c-19.62-40.562-61.164-68.541-109.244-68.541
	c-66.984,0-121.285,54.301-121.285,121.285c0,48.079,27.978,89.623,68.541,109.244C414.579,475.27,475.168,414.68,499.858,337.972z"
	/>
<path style="fill:#FEBE40;" d="M344.319,310.088c4.636-14.157,11.634-26.879,20.408-37.88
	c-54.545,11.86-95.398,60.408-95.398,118.507c0,48.079,27.978,89.623,68.541,109.244c27.69-8.912,53.261-22.523,75.82-39.86
	C355.265,436.287,324.382,370.974,344.319,310.088z"/>
<path style="fill:#F9AA2B;" d="M474.544,390.716c0-46.354-37.577-83.931-83.93-83.931s-83.931,37.577-83.931,83.931
	c0,46.353,37.577,83.93,83.931,83.93c0.723,0,1.436-0.036,2.155-0.054c33.169-20.523,61.198-48.551,81.721-81.721
	C474.508,392.152,474.544,391.438,474.544,390.716z"/>
<path style="fill:#ED971B;" d="M340.834,323.149c-20.711,15.284-34.15,39.852-34.15,67.566c0,46.353,37.577,83.93,83.931,83.93
	c0.701,0,1.393-0.034,2.091-0.053c1.105-0.684,2.209-1.37,3.302-2.07c0.118-0.076,0.236-0.151,0.354-0.226
	c5.953-3.826,11.733-7.897,17.329-12.196C359.426,437.982,328.93,380.067,340.834,323.149z"/>
<path style="fill:#FFF6D4;" d="M399.744,383.201h-0.819v-23.726h11.052c4.59,0,8.311-3.72,8.311-8.311
	c0-4.59-3.72-8.311-8.311-8.311h-11.052v-3.684c0-4.59-3.72-8.311-8.311-8.311c-4.59,0-8.311,3.72-8.311,8.311v3.684h-0.819
	c-15.707,0-28.485,12.778-28.485,28.484c0,15.707,12.778,28.484,28.485,28.484h0.819v23.727h-12.156c-4.59,0-8.311,3.72-8.311,8.311
	s3.72,8.311,8.311,8.311h12.156v2.092c0,4.59,3.72,8.311,8.311,8.311c4.59,0,8.311-3.72,8.311-8.311v-2.092h0.819
	c15.707,0,28.485-12.778,28.485-28.484S415.45,383.201,399.744,383.201z M381.484,383.201c-6.542,0-11.864-5.322-11.864-11.863
	c0-6.541,5.322-11.863,11.864-11.863h0.819v23.726L381.484,383.201L381.484,383.201z M399.744,423.549h-0.819v-23.727h0.819
	c6.542,0,11.864,5.322,11.864,11.864C411.607,418.227,406.285,423.549,399.744,423.549z"/>
<g>
	<path style="fill:#A7E0F5;" d="M229.416,448.583c-31.863-13.127-59.651-35.683-79.215-64.105l11.048,2.96
		c4.432,1.191,8.99-1.442,10.179-5.876c1.188-4.433-1.443-8.99-5.877-10.179l-31.062-8.324c-4.428-1.191-8.99,1.444-10.179,5.876
		l-8.323,31.063c-1.413,5.278,2.571,10.464,8.033,10.464c3.669,0,7.027-2.449,8.023-6.161l3.265-12.184
		c21.438,31.892,52.292,57.214,87.778,71.834c4.235,1.742,9.096-0.263,10.85-4.519C235.683,455.189,233.66,450.332,229.416,448.583z
		"/>
	<path style="fill:#A7E0F5;" d="M472.015,157.282c-4.427-1.188-8.989,1.441-10.179,5.876l-3.027,11.297
		c-21.385-31.517-51.979-56.551-87.128-71.073c-4.242-1.751-9.101,0.265-10.855,4.507c-1.752,4.242,0.265,9.101,4.507,10.855
		c31.963,13.207,59.814,35.915,79.365,64.512l-12.07-3.234c-4.433-1.19-8.99,1.443-10.178,5.876
		c-1.188,4.433,1.443,8.991,5.877,10.179l31.062,8.323c4.424,1.19,8.989-1.437,10.179-5.876l8.323-31.062
		C479.079,163.027,476.449,158.469,472.015,157.282z"/>
</g>
<g>
	<path style="fill:#5C515E;" d="M118.337,112.983c0-25.715,5.561-50.156,15.541-72.183c-0.179,0.079-0.365,0.148-0.559,0.198
		c-12.01,3.065-23.338,7.834-33.714,14.033c-1.195,0.714-2.691,0.672-3.826-0.133L66.633,34.232
		c-1.387-0.985-3.284-0.825-4.487,0.379L34.544,62.212c-1.208,1.208-1.364,3.113-0.37,4.501L54.996,95.78
		c0.812,1.134,0.86,2.634,0.148,3.832c-6.152,10.361-10.882,21.664-13.914,33.644c-0.341,1.346-1.427,2.375-2.798,2.608
		l-35.42,6.029c-1.678,0.286-2.905,1.739-2.905,3.442c0,14.044,0,26.141,0,40.187c0,1.702,1.227,3.156,2.905,3.442l35.42,6.028
		c1.369,0.233,2.457,1.261,2.798,2.609c3.033,11.98,7.762,23.284,13.914,33.644c0.712,1.199,0.664,2.699-0.148,3.832l-20.821,29.067
		c-0.995,1.389-0.839,3.294,0.37,4.501l27.602,27.602c1.204,1.204,3.1,1.364,4.487,0.38l29.146-20.668
		c1.135-0.805,2.632-0.847,3.826-0.133c10.376,6.198,21.703,10.969,33.714,14.033c1.35,0.345,2.378,1.437,2.605,2.813l5.829,35.264
		c0.279,1.685,1.736,2.922,3.445,2.922h39.034c1.702,0,3.157-1.228,3.442-2.906l5.992-35.206c0.234-1.37,1.263-2.458,2.611-2.798
		c11.839-2.986,23.011-7.639,33.274-13.672C164.488,250.581,118.337,187.071,118.337,112.983z"/>
	<path style="fill:#5C515E;" d="M164.784,264.506c-54.632,0-99.077-44.446-99.077-99.078c0-54.631,44.446-99.077,99.077-99.077
		s99.077,44.446,99.077,99.077C263.86,220.06,219.414,264.506,164.784,264.506z"/>
</g>
<path style="fill:#4A404E;" d="M122.275,75.946c-33.418,15.939-56.569,50.058-56.569,89.482c0,54.632,44.446,99.078,99.078,99.078
	c11.221,0,22.011-1.879,32.077-5.332c-47.293-31.469-78.524-85.249-78.524-146.191C118.337,100.28,119.699,87.89,122.275,75.946z"/>
<path style="fill:#E8E6E9;" d="M164.784,94.143c-39.307,0-71.287,31.979-71.287,71.286c0,39.308,31.979,71.287,71.287,71.287
	s71.287-31.979,71.287-71.287C236.071,126.122,204.091,94.143,164.784,94.143z"/>
<path style="fill:#D3D0D4;" d="M118.337,112.983c0-0.53,0.017-1.055,0.021-1.583c-15.205,13.084-24.861,32.444-24.861,54.028
	c0,39.309,31.979,71.287,71.287,71.287c1.541,0,3.068-0.066,4.585-0.164C137.851,204.814,118.337,161.14,118.337,112.983z"/>
<path style="fill:#7E777F;" d="M164.784,173.62h-28.274c-4.59,0-8.311-3.72-8.311-8.311s3.72-8.311,8.311-8.311h19.964V124.05
	c0-4.59,3.72-8.311,8.311-8.311c4.59,0,8.311,3.72,8.311,8.311v41.259C173.094,169.9,169.374,173.62,164.784,173.62z"/>
<g>
</g>
<g>
</g>
<g>
</g>
<g>
</g>
<g>
</g>
<g>
</g>
<g>
</g>
<g>
</g>
<g>
</g>
<g>
</g>
<g>
</g>
<g>
</g>
<g>
</g>
<g>
</g>
<g>
</g>
</svg>
