<?xml version="1.0" encoding="iso-8859-1"?>
<!-- Generator: Adobe Illustrator 19.0.0, SVG Export Plug-In . SVG Version: 6.00 Build 0)  -->
<svg version="1.1" id="Capa_1" xmlns="http://www.w3.org/2000/svg" xmlns:xlink="http://www.w3.org/1999/xlink" x="0px" y="0px"
	 viewBox="0 0 512.01 512.01" style="enable-background:new 0 0 512.01 512.01;" xml:space="preserve">
<circle style="fill:#42D197;" cx="256.005" cy="258.85" r="253.16"/>
<path style="fill:#E8E6E9;" d="M379.438,32.963H49.384c-4.843,0-8.769,3.926-8.769,8.769v394.489
	c0,16.714,13.549,30.263,30.263,30.263h317.199V41.602C388.077,36.831,384.209,32.963,379.438,32.963z"/>
<g>
	<path style="fill:#D3D0D4;" d="M73.992,436.221V41.732c0-4.843,3.926-8.769,8.769-8.769H49.384c-4.843,0-8.769,3.926-8.769,8.769
		v394.489c0,16.713,13.549,30.263,30.263,30.263h33.377C87.541,466.484,73.992,452.935,73.992,436.221z"/>
	<path style="fill:#D3D0D4;" d="M110.156,412.683c-4.979,0-9.015,4.036-9.015,9.015v14.522c0,16.714-13.549,30.263-30.263,30.263
		h317.2c16.714,0,30.263-13.549,30.263-30.263v-14.76c0-4.848-3.93-8.778-8.778-8.778H110.156V412.683z"/>
	<path style="fill:#D3D0D4;" d="M333.734,183.324H150.89c-4.359,0-7.892-3.533-7.892-7.892s3.533-7.892,7.892-7.892h182.844
		c4.359,0,7.892,3.533,7.892,7.892S338.093,183.324,333.734,183.324z"/>
	<path style="fill:#D3D0D4;" d="M333.734,225.285H150.89c-4.359,0-7.892-3.533-7.892-7.892s3.533-7.892,7.892-7.892h182.844
		c4.359,0,7.892,3.533,7.892,7.892S338.093,225.285,333.734,225.285z"/>
	<path style="fill:#D3D0D4;" d="M229.683,135.049H150.89c-4.359,0-7.892-3.533-7.892-7.892c0-4.359,3.533-7.892,7.892-7.892h78.793
		c4.359,0,7.892,3.533,7.892,7.892C237.575,131.516,234.041,135.049,229.683,135.049z"/>
	<path style="fill:#D3D0D4;" d="M327.42,267.247H150.89c-4.359,0-7.892-3.533-7.892-7.892s3.533-7.892,7.892-7.892h176.53
		c4.359,0,7.892,3.533,7.892,7.892C335.312,263.714,331.779,267.247,327.42,267.247z"/>
</g>
<g>
	<path style="fill:#42D197;" d="M97.702,188.62c-2.02,0-4.039-0.771-5.58-2.311l-8.881-8.881c-3.082-3.083-3.082-8.079,0-11.162
		c3.082-3.081,8.079-3.081,11.161,0l3.3,3.301l11.326-11.326c3.082-3.081,8.079-3.082,11.161,0.001
		c3.082,3.082,3.082,8.078,0,11.161l-16.907,16.906C101.742,187.849,99.721,188.62,97.702,188.62z"/>
	<path style="fill:#42D197;" d="M97.702,230.582L97.702,230.582c-2.093,0-4.101-0.831-5.581-2.312l-8.881-8.882
		c-3.082-3.082-3.081-8.079,0.001-11.161c3.083-3.082,8.079-3.081,11.161,0.001l3.3,3.3l11.326-11.325
		c3.082-3.083,8.079-3.082,11.161-0.001c3.082,3.083,3.082,8.079,0,11.162l-16.907,16.906
		C101.803,229.751,99.795,230.582,97.702,230.582z"/>
	<path style="fill:#42D197;" d="M97.702,272.543L97.702,272.543c-2.093,0-4.101-0.831-5.581-2.312l-8.881-8.882
		c-3.082-3.082-3.081-8.079,0.001-11.161c3.083-3.081,8.079-3.082,11.161,0.001l3.3,3.3l11.326-11.325
		c3.082-3.083,8.079-3.082,11.161-0.001c3.082,3.083,3.082,8.079,0,11.162l-16.907,16.906
		C101.803,271.712,99.795,272.543,97.702,272.543z"/>
</g>
<g>
	<path style="fill:#D3D0D4;" d="M272.703,309.208H150.89c-4.359,0-7.892-3.533-7.892-7.892s3.533-7.892,7.892-7.892h121.813
		c4.359,0,7.892,3.533,7.892,7.892C280.595,305.675,277.061,309.208,272.703,309.208z"/>
	<path style="fill:#D3D0D4;" d="M259.023,351.169H150.89c-4.359,0-7.892-3.533-7.892-7.892s3.533-7.892,7.892-7.892h108.133
		c4.359,0,7.892,3.533,7.892,7.892C266.915,347.636,263.382,351.169,259.023,351.169z"/>
</g>
<g>
	<path style="fill:#42D197;" d="M92.122,312.193l-8.881-8.881c-3.082-3.083-3.082-8.079,0-11.162c3.082-3.081,8.079-3.081,11.161,0
		l3.3,3.301l11.326-11.326c3.082-3.083,8.079-3.082,11.161-0.001c3.082,3.083,3.082,8.079,0,11.162l-16.907,16.906
		C100.205,315.272,95.204,315.275,92.122,312.193z"/>
	<path style="fill:#42D197;" d="M92.122,354.154l-8.881-8.881c-3.082-3.083-3.082-8.079,0-11.162c3.082-3.081,8.079-3.081,11.161,0
		l3.3,3.301l11.326-11.326c3.082-3.081,8.079-3.082,11.161,0.001c3.082,3.082,3.082,8.078,0,11.161l-16.907,16.906
		C100.199,357.236,95.204,357.235,92.122,354.154z"/>
</g>
<g>
	<path style="fill:#BDB9BE;" d="M388.077,276.94c-4.359,0-7.892-3.533-7.892-7.892v-14.942c0-4.359,3.533-7.892,7.892-7.892
		s7.892,3.533,7.892,7.892v14.942C395.969,273.407,392.436,276.94,388.077,276.94z"/>
	<path style="fill:#BDB9BE;" d="M400.947,268.745v31.61c-4.222-0.668-8.515-1.022-12.87-1.022c-4.355,0-8.648,0.354-12.869,1.022
		v-31.61H400.947z"/>
	<path style="fill:#BDB9BE;" d="M322.099,325.993l-14.697-20.072c-2.575-3.516-1.812-8.455,1.705-11.03
		c3.516-2.575,8.455-1.813,11.03,1.705l14.697,20.072c2.575,3.516,1.812,8.455-1.705,11.03
		C329.591,330.29,324.657,329.487,322.099,325.993z"/>
</g>
<path style="fill:#5C515E;" d="M487.705,360.951c-16.598-38.612-55.005-65.721-99.629-65.721
	c-59.764,0-108.385,48.622-108.385,108.385c0,41.106,23.003,76.941,56.812,95.309C404.202,476.235,459.124,425.712,487.705,360.951z
	"/>
<path style="fill:#4A404E;" d="M330.471,360.4c2.248-23.23,11.723-44.044,25.968-60.455c-44.378,13.57-76.747,54.909-76.747,103.67
	c0,41.106,23.003,76.941,56.812,95.309c20.936-7.017,40.646-16.702,58.736-28.641C353.297,452.064,325.834,408.315,330.471,360.4z"
	/>
<path style="fill:#E8E6E9;" d="M470.135,393.919c-4.818-41.016-39.769-72.95-82.058-72.95c-45.571,0-82.646,37.075-82.646,82.646
	c0,39.695,28.134,72.933,65.507,80.847C411.584,463.715,445.872,432.302,470.135,393.919z"/>
<path style="fill:#D3D0D4;" d="M334.148,341.069c-17.566,15.167-28.716,37.572-28.716,62.546c0,39.688,28.125,72.922,65.489,80.843
	c8.387-4.283,16.506-9.018,24.32-14.175c-41.944-18.219-69.406-61.969-64.77-109.883
	C331.116,353.739,332.373,347.286,334.148,341.069z"/>
<path style="fill:#FD6874;" d="M388.077,320.969v82.267l45.153,36.357c13.986-13.716,26.389-29.038,36.905-45.674
	C465.317,352.903,430.367,320.969,388.077,320.969z"/>
<path style="fill:#D3D0D4;" d="M300.156,307.463c-2.582-3.512-1.828-8.451,1.683-11.033l10.804-7.944
	c3.511-2.582,8.452-1.829,11.033,1.683c2.582,3.512,1.828,8.451-1.683,11.033l-10.804,7.944
	C307.694,311.717,302.749,310.99,300.156,307.463z"/>
<g>
	<path style="fill:#5C515E;" d="M388.077,418.119c-4.359,0-7.892-3.533-7.892-7.892v-73.658c0-4.359,3.533-7.892,7.892-7.892
		s7.892,3.533,7.892,7.892v73.658C395.969,414.585,392.436,418.119,388.077,418.119z"/>
	<path style="fill:#5C515E;" d="M414.052,434.283l-38.816-31.254c-3.395-2.733-3.931-7.702-1.198-11.097
		c2.734-3.395,7.701-3.93,11.097-1.198l38.816,31.254c3.395,2.733,3.931,7.702,1.198,11.097
		C422.433,436.457,417.471,437.035,414.052,434.283z"/>
</g>
<path style="fill:#E8E6E9;" d="M371.172,279.63h33.811c6.897,0,12.488-5.591,12.488-12.488l0,0c0-6.897-5.591-12.488-12.488-12.488
	h-33.811c-6.897,0-12.488,5.591-12.488,12.488l0,0C358.683,274.038,364.274,279.63,371.172,279.63z"/>
<g>
	<path style="fill:#D3D0D4;" d="M399.931,279.63c-6.897,0-12.488-5.592-12.488-12.489s5.591-12.489,12.488-12.489h5.056
		c-0.001,0-0.003,0-0.004,0h-33.811c-6.897,0-12.488,5.592-12.488,12.489s5.591,12.489,12.488,12.489h33.811
		c0.001,0,0.003,0,0.004,0H399.931z"/>
	<circle style="fill:#D3D0D4;" cx="99.425" cy="58.808" r="15.323"/>
	<circle style="fill:#D3D0D4;" cx="322.335" cy="58.808" r="15.323"/>
	<circle style="fill:#D3D0D4;" cx="266.605" cy="58.808" r="15.323"/>
	<circle style="fill:#D3D0D4;" cx="210.875" cy="58.808" r="15.323"/>
	<circle style="fill:#D3D0D4;" cx="155.155" cy="58.808" r="15.323"/>
</g>
<g>
	<path style="fill:#FED652;" d="M100.271,0C82.094,0,67.307,14.787,67.307,32.963h15.784c0-9.472,7.706-17.179,17.179-17.179
		s17.179,7.707,17.179,17.179s-7.706,17.179-17.179,17.179c-4.359,0-7.892,3.533-7.892,7.892s3.533,7.892,7.892,7.892
		c18.176,0,32.963-14.787,32.963-32.963S118.447,0,100.271,0z"/>
	<path style="fill:#FED652;" d="M155.786,0c-18.176,0-32.963,14.787-32.963,32.963h15.784c0-9.472,7.706-17.179,17.179-17.179
		s17.179,7.707,17.179,17.179s-7.706,17.179-17.179,17.179c-4.359,0-7.892,3.533-7.892,7.892s3.533,7.892,7.892,7.892
		c18.176,0,32.963-14.787,32.963-32.963S173.962,0,155.786,0z"/>
	<path style="fill:#FED652;" d="M211.301,0c-18.176,0-32.963,14.787-32.963,32.963h15.784c0-9.472,7.706-17.179,17.179-17.179
		s17.179,7.707,17.179,17.179s-7.706,17.179-17.179,17.179c-4.359,0-7.892,3.533-7.892,7.892s3.533,7.892,7.892,7.892
		c18.176,0,32.963-14.787,32.963-32.963S229.477,0,211.301,0z"/>
	<path style="fill:#FED652;" d="M322.331,0c-18.176,0-32.963,14.787-32.963,32.963h15.784c0-9.472,7.706-17.179,17.179-17.179
		s17.179,7.707,17.179,17.179s-7.706,17.179-17.179,17.179c-4.359,0-7.892,3.533-7.892,7.892s3.533,7.892,7.892,7.892
		c18.176,0,32.963-14.787,32.963-32.963S340.507,0,322.331,0z"/>
	<path style="fill:#FED652;" d="M266.816,0c-18.176,0-32.963,14.787-32.963,32.963h15.784c0-9.472,7.706-17.179,17.179-17.179
		s17.179,7.707,17.179,17.179s-7.706,17.179-17.179,17.179c-4.359,0-7.892,3.533-7.892,7.892s3.533,7.892,7.892,7.892
		c18.176,0,32.963-14.787,32.963-32.963S284.992,0,266.816,0z"/>
</g>
<path style="fill:#BDB9BE;" d="M155.516,439.584c0-12.756,8.529-23.514,20.192-26.9h-65.552c-4.979,0-9.016,4.036-9.016,9.016
	v14.522c0,16.714-13.549,30.263-30.263,30.263h104.831C164.044,463.097,155.516,452.34,155.516,439.584z"/>
<g>
</g>
<g>
</g>
<g>
</g>
<g>
</g>
<g>
</g>
<g>
</g>
<g>
</g>
<g>
</g>
<g>
</g>
<g>
</g>
<g>
</g>
<g>
</g>
<g>
</g>
<g>
</g>
<g>
</g>
</svg>
