<?xml version="1.0" encoding="iso-8859-1"?>
<!-- Generator: Adobe Illustrator 19.0.0, SVG Export Plug-In . SVG Version: 6.00 Build 0)  -->
<svg version="1.1" id="Capa_1" xmlns="http://www.w3.org/2000/svg" xmlns:xlink="http://www.w3.org/1999/xlink" x="0px" y="0px"
	 viewBox="0 0 512 512" style="enable-background:new 0 0 512 512;" xml:space="preserve">
<circle style="fill:#FC5B6F;" cx="256" cy="256" r="256"/>
<path style="fill:#D3D0D4;" d="M166.552,457.887c-0.875,7.507-4.827,15.336-10.839,19.581l-8.351,5.898c48.492,0,85.799,0,134.109,0
	l-8.351-5.898c-6.012-4.245-9.965-12.074-10.839-19.582l-4.679-41.214h-86.369L166.552,457.887z"/>
<path style="fill:#BDB9BE;" d="M208.324,457.887l2.979-41.215h-40.071l-4.68,41.215c-0.875,7.507-4.827,15.336-10.839,19.581
	l-8.351,5.898c17.342,0,33.252,0,48.748,0C198.307,479.978,207.017,475.511,208.324,457.887z"/>
<path style="fill:#E8E6E9;" d="M20.647,356.842c9.561,22.28,22.18,42.937,37.35,61.425h341.258
	c16.168,0,29.397-13.229,29.397-29.398v-32.028H20.647V356.842z"/>
<path style="fill:#D3D0D4;" d="M65.706,356.842H20.647c9.561,22.28,22.18,42.937,37.35,61.425h7.709V356.842z"/>
<path style="fill:#E8E6E9;" d="M297.6,482.329c-53.028,0-107.885,0-161.298,0C172.024,501.261,212.755,512,256,512l0,0
	c13.951,0,27.829,0,41.6,0c8.159,0,14.835-6.676,14.835-14.835l0,0C312.435,489.005,305.759,482.329,297.6,482.329z"/>
<path style="fill:#D3D0D4;" d="M184.826,497.165L184.826,497.165c0-8.16,6.676-14.835,14.835-14.835c-21.21,0-42.396,0-63.36,0
	c15.594,8.264,32.143,14.966,49.438,19.897C185.159,500.642,184.826,498.943,184.826,497.165z"/>
<path style="fill:#7E777F;" d="M425.091,59.993c-0.681-1.25-1.45-2.445-2.298-3.577c-5.373-7.174-13.937-11.838-23.537-11.838l0,0
	H111.63C44.234,90.689,0,168.174,0,256c0,36.604,7.699,71.405,21.539,102.896c115.75,0,382.913,0,407.113,0V73.976
	c0-4.042-0.827-7.901-2.32-11.414C425.959,61.683,425.544,60.826,425.091,59.993z"/>
<path style="fill:#5C515E;" d="M0,256c0,36.604,7.699,71.405,21.539,102.896c12.998,0,27.909,0,44.167,0V84.771
	C24.862,130.127,0,190.158,0,256z"/>
<path style="fill:#37AEE2;" d="M393.92,74.086H75.897C29.037,120.483,0,184.847,0,256c0,25.449,3.732,50.024,10.646,73.226
	c52.715,0,358.424,0,383.273,0c2.771,0,5.017-2.246,5.017-5.017V79.103C398.936,76.332,396.69,74.086,393.92,74.086z"/>
<path style="fill:#309CD8;" d="M10.651,329.226c10.188,0,29.828,0,55.056,0V84.798C24.61,130.461,0,190.422,0,256
	C0,281.705,3.894,306.62,10.651,329.226z"/>
<path style="fill:#5C515E;" d="M393.92,74.086H75.897c-16.642,16.477-31.032,35.22-42.674,55.73h365.714V79.103
	C398.936,76.332,396.69,74.086,393.92,74.086z"/>
<path style="fill:#4A404E;" d="M65.706,129.816V84.785c-12.441,13.813-23.29,28.849-32.475,45.031L65.706,129.816L65.706,129.816z"
	/>
<path style="fill:#BDB9BE;" d="M214.413,396.068c-4.311,0-7.8-3.512-7.8-7.789c0-4.26,3.467-7.812,7.8-7.812
	c4.245,0,7.8,3.426,7.8,7.812C222.214,392.524,218.776,396.068,214.413,396.068z"/>
<g>
	<path style="fill:#6FC7EC;" d="M347.377,199.379H117.048c-4.308,0-7.8-3.492-7.8-7.8c0-4.309,3.492-7.8,7.8-7.8h230.329
		c4.308,0,7.8,3.492,7.8,7.8C355.177,195.887,351.685,199.379,347.377,199.379z"/>
	<path style="fill:#6FC7EC;" d="M303.462,240.853H117.048c-4.308,0-7.8-3.492-7.8-7.8s3.492-7.8,7.8-7.8h186.415
		c4.308,0,7.8,3.492,7.8,7.8S307.77,240.853,303.462,240.853z"/>
	<path style="fill:#6FC7EC;" d="M266.07,282.328H117.048c-4.308,0-7.8-3.492-7.8-7.8s3.492-7.8,7.8-7.8H266.07
		c4.308,0,7.8,3.492,7.8,7.8S270.378,282.328,266.07,282.328z"/>
</g>
<g>
	<path style="fill:#42D197;" d="M58.96,205.449l-8.778-8.778c-3.047-3.047-3.047-7.985,0-11.032c3.046-3.045,7.985-3.045,11.031,0
		l3.262,3.262l11.195-11.195c3.046-3.045,7.985-3.046,11.031,0.001c3.047,3.046,3.047,7.984,0,11.031l-16.711,16.71
		C66.944,208.496,62.006,208.495,58.96,205.449z"/>
	<path style="fill:#42D197;" d="M58.96,246.924l-8.778-8.778c-3.047-3.047-3.047-7.985,0-11.032c3.046-3.045,7.985-3.045,11.031,0
		l3.262,3.262l11.195-11.195c3.046-3.045,7.985-3.046,11.031,0.001c3.047,3.046,3.047,7.984,0,11.031l-16.711,16.71
		C66.944,249.97,62.006,249.969,58.96,246.924z"/>
	<path style="fill:#42D197;" d="M58.96,288.398l-8.778-8.778c-3.047-3.047-3.047-7.985,0-11.032c3.046-3.045,7.985-3.045,11.031,0
		l3.262,3.262l11.195-11.195c3.046-3.045,7.985-3.046,11.031,0.001c3.047,3.046,3.047,7.984,0,11.031l-16.711,16.71
		C66.944,291.445,62.006,291.444,58.96,288.398z"/>
</g>
<path style="fill:#FEBE40;" d="M455.475,456.801c-53.985,31.168-123.261,12.605-154.429-41.38
	c-31.168-53.984-12.605-123.26,41.379-154.428s123.261-12.605,154.429,41.379S509.46,425.633,455.475,456.801z"/>
<path style="fill:#F9AA2B;" d="M357.089,383.064c-25.547-44.249-17.676-98.768,15.721-134.157
	c-10.416,2.47-20.65,6.465-30.385,12.085c-53.985,31.168-72.547,100.444-41.379,154.428c31.168,53.985,100.445,72.548,154.429,41.38
	c9.735-5.62,18.311-12.486,25.658-20.271C433.787,447.757,382.637,427.314,357.089,383.064z"/>
<path style="fill:#E8E6E9;" d="M398.95,277.556c-44.851,0-81.34,36.489-81.34,81.34c0,44.852,36.489,81.341,81.34,81.341
	s81.34-36.489,81.34-81.341C480.29,314.045,443.801,277.556,398.95,277.556z"/>
<path style="fill:#D3D0D4;" d="M357.089,383.064c-15.575-26.977-18.708-57.765-11.229-85.715
	c-17.281,14.927-28.25,36.973-28.25,61.546c0,44.852,36.489,81.341,81.34,81.341c9.401,0,18.426-1.622,26.833-4.569
	C397.808,428.183,372.679,410.066,357.089,383.064z"/>
<path style="fill:#7E777F;" d="M366.666,366.698c-4.309,0-7.801-3.492-7.801-7.8c0-4.308,3.492-7.8,7.8-7.8l24.485-0.001v-39.311
	c0-4.309,3.492-7.8,7.8-7.8s7.8,3.492,7.8,7.8v47.112c0,4.307-3.492,7.8-7.8,7.8H366.666z"/>
<path style="fill:#FED652;" d="M65.58,110.571c-4.301,0-7.8-3.503-7.8-7.8c0-4.99,4.654-8.609,9.33-7.644
	c3.882,0.806,6.282,4.152,6.282,7.644C73.391,106.978,69.989,110.571,65.58,110.571z"/>
<path style="fill:#42D197;" d="M94.297,110.571c-4.31,0-7.8-3.487-7.8-7.8c0-5.038,4.671-8.603,9.319-7.644
	c3.789,0.786,6.282,4.035,6.282,7.644C102.097,107.026,98.65,110.571,94.297,110.571z"/>
<path style="fill:#7E777F;" d="M359.858,110.575H128.87c-4.308,0-7.8-3.492-7.8-7.8s3.492-7.8,7.8-7.8h230.988
	c4.308,0,7.8,3.492,7.8,7.8S364.166,110.575,359.858,110.575z"/>
<g>
</g>
<g>
</g>
<g>
</g>
<g>
</g>
<g>
</g>
<g>
</g>
<g>
</g>
<g>
</g>
<g>
</g>
<g>
</g>
<g>
</g>
<g>
</g>
<g>
</g>
<g>
</g>
<g>
</g>
</svg>
