<?xml version="1.0" encoding="iso-8859-1"?>
<!-- Generator: Adobe Illustrator 19.0.0, SVG Export Plug-In . SVG Version: 6.00 Build 0)  -->
<svg version="1.1" id="Capa_1" xmlns="http://www.w3.org/2000/svg" xmlns:xlink="http://www.w3.org/1999/xlink" x="0px" y="0px"
	 viewBox="0 0 512 512" style="enable-background:new 0 0 512 512;" xml:space="preserve">
<circle style="fill:#37AEE2;" cx="256" cy="255.992" r="255.992"/>
<path style="fill:#5C515E;" d="M53.834,124.73v-10.078c0-4.109,5.186-4.425,5.186-4.425l-0.004-0.01
	c34.544-1.371,75.053-15.774,90.437-21.72l0,0c3.945-1.531,8.398-0.958,12.213,2.012l22.607,17.602c0,0,2.854,2.554,2.854,7.357
	v9.262c5.633-0.58,10.891,1.187,14.573,4.385v-26.063c0-44.785-36.435-81.219-81.219-81.219c-44.785,0-81.22,36.435-81.22,81.219
	v26.063C42.951,125.91,48.213,124.151,53.834,124.73z"/>
<path style="fill:#4A404E;" d="M83.773,107.397v-4.345c0-37.067,24.968-68.39,58.963-78.094c-7.078-2.02-14.538-3.125-22.255-3.125
	c-44.785,0-81.22,36.435-81.22,81.219v26.063c3.69-3.204,8.952-4.964,14.573-4.385v-10.078c0-4.109,5.186-4.425,5.186-4.425
	l-0.005-0.01C67.076,109.898,75.458,108.863,83.773,107.397z"/>
<g>
	<path style="fill:#E5BE8E;" d="M186.801,123.619v31.145c11.006,1.133,20.107-6.424,20.107-15.573
		C206.908,130.001,197.751,122.492,186.801,123.619z"/>
	<path style="fill:#E5BE8E;" d="M54.505,123.352v31.679c-11.194,1.152-20.452-6.534-20.452-15.84
		C34.052,129.844,43.367,122.206,54.505,123.352z"/>
</g>
<path style="fill:#DDB07F;" d="M35.925,132.192c-1.188,2.116-1.873,4.485-1.873,7c0,9.348,9.314,16.986,20.452,15.84v-14
	C46.402,141.866,39.193,138.012,35.925,132.192z"/>
<path style="fill:#E5BE8E;" d="M123.64,221.456c-11.234,0.524-21.902-1.806-31.367-6.326c0,6.015,0,12.723,0,18.73l0.124-0.084
	l11.296,25.546l4.462,10.498c15.262,0,9.391,0,24.653,0l15.688-36.044c0-5.142,0-12.472,0-18.402
	C140.879,218.906,132.485,221.044,123.64,221.456z"/>
<path style="fill:#DDB07F;" d="M122.272,221.499c-10.731,0.281-20.919-2.032-29.999-6.368c0,6.015,0,12.723,0,18.73l0.124-0.084
	l11.296,25.546l4.462,10.498c9.488,0,10.81,0,14.118,0V221.499z"/>
<path style="fill:#E8E6E9;" d="M232.622,281.204c-2.994-14.996-14.012-21.092-20.08-23.356c-0.073-0.022-4.156-1.226-4.083-1.205
	l0,0c-0.471-0.139-40.882-12.059-42.579-12.56c-2.266,6.35-7.916,22.183-11.686,32.747c-1.243,3.483-5.497,4.775-8.468,2.572
	l-12.92-9.583l0,0h-24.653l0,0l-0.102-0.078l0.032,0.078l-12.92,9.583c-2.97,2.203-7.225,0.91-8.468-2.572L75.01,244.083
	l0.096-0.065c-2.495,0.736-42.264,12.467-42.8,12.625l0,0c-1.433,0.423-4.264,1.258-4.083,1.205
	c-6.07,2.264-17.086,8.362-20.08,23.356c0,0-1.792,9.027-4.067,20.486c2.942,16.326,7.437,32.11,13.318,47.202h210.661
	c9.338,0,16.345-8.536,14.522-17.694C238.54,310.927,233.792,287.081,232.622,281.204z"/>
<g>
	<path style="fill:#D3D0D4;" d="M18.519,348.893c5.662-29.865,14.466-76.688,14.466-76.688c1.976-9.897,7.445-15.901,12.682-19.502
		c-7.313,2.157-13.157,3.881-13.36,3.941l0,0c-1.433,0.423-4.264,1.258-4.083,1.205c-6.07,2.264-17.086,8.362-20.08,23.356
		c0,0-1.792,9.027-4.067,20.486c2.942,16.326,7.437,32.11,13.318,47.202L18.519,348.893L18.519,348.893z"/>
	<path style="fill:#D3D0D4;" d="M148.494,232.326l-15.688,37.494l12.92,9.583c2.97,2.203,7.225,0.911,8.468-2.572l11.686-32.747
		L148.494,232.326z"/>
	<path style="fill:#D3D0D4;" d="M92.273,232.326l15.812,37.494l-12.92,9.583c-2.97,2.203-7.225,0.911-8.468-2.572L75.01,244.083
		L92.273,232.326z"/>
</g>
<polygon style="fill:#DD4C5B;" points="132.807,269.82 108.153,269.82 104.817,272.282 111,290.544 129.913,290.544 
	136.126,272.282 "/>
<polygon style="fill:#FD6874;" points="137.446,348.893 129.913,290.544 120.48,290.544 111.048,290.544 103.513,348.893 "/>
<path style="fill:#F1D4A5;" d="M184.273,107.254l-22.607-17.602c-3.814-2.97-8.268-3.543-12.213-2.012l0,0
	c-15.384,5.947-55.893,20.35-90.437,21.72l0.005,0.01c0,0-5.186,0.317-5.186,4.425v41.856c0,38.192,31.655,69.301,69.805,67.521
	c35.34-1.649,63.487-30.819,63.487-66.573V114.61C187.127,109.808,184.274,107.254,184.273,107.254z"/>
<path style="fill:#E5BE8E;" d="M83.773,155.65v-49.112c-8.315,1.466-16.698,2.501-24.757,2.821l0.005,0.01
	c0,0-5.186,0.317-5.186,4.425v41.856c0,38.192,31.655,69.301,69.805,67.521c4.079-0.19,8.056-0.763,11.912-1.654
	C105.952,214.606,83.773,187.616,83.773,155.65z"/>
<g>
	<path style="fill:#D3D0D4;" d="M57.184,309.544c0-4.682-3.795-8.477-8.477-8.477s-8.477,3.795-8.477,8.477v39.349h16.953v-39.349
		H57.184z"/>
	<path style="fill:#D3D0D4;" d="M200.467,348.893v-39.349c0-4.682-3.795-8.477-8.477-8.477s-8.477,3.795-8.477,8.477v39.349H200.467
		z"/>
</g>
<path style="fill:#5C515E;" d="M325.132,124.73v-10.078c0-4.109,5.186-4.425,5.186-4.425l-0.004-0.01
	c34.544-1.371,75.053-15.774,90.437-21.72l0,0c3.945-1.531,8.398-0.958,12.213,2.012l22.607,17.602c0,0,2.854,2.554,2.854,7.357
	v9.262c5.633-0.58,10.891,1.187,14.573,4.385v-26.063c0-44.785-36.435-81.219-81.219-81.219c-44.785,0-81.22,36.435-81.22,81.219
	v26.063C314.248,125.91,319.51,124.151,325.132,124.73z"/>
<path style="fill:#4A404E;" d="M355.182,107.378v-4.325c0-37.046,24.941-68.356,58.907-78.078
	c-7.095-2.031-14.574-3.141-22.311-3.141c-44.785,0-81.22,36.435-81.22,81.219v26.063c3.69-3.205,8.952-4.964,14.573-4.385v-10.078
	c0-4.109,5.186-4.425,5.186-4.425l-0.004-0.01C338.409,109.897,346.831,108.854,355.182,107.378z"/>
<path style="fill:#E5BE8E;" d="M458.098,123.619v31.145c11.006,1.133,20.107-6.424,20.107-15.573
	C478.205,130.001,469.048,122.492,458.098,123.619z"/>
<path style="fill:#DDB07F;" d="M458.098,141.098v13.667c11.006,1.133,20.107-6.426,20.107-15.573c0-2.453-0.664-4.766-1.815-6.833
	C473.183,138.123,466.067,141.918,458.098,141.098z"/>
<g>
	<path style="fill:#E5BE8E;" d="M325.802,123.352v31.679c-11.194,1.152-20.452-6.534-20.452-15.84
		C305.35,129.844,314.665,122.206,325.802,123.352z"/>
	<path style="fill:#E5BE8E;" d="M394.937,221.456c-11.234,0.524-21.902-1.806-31.367-6.326c0,6.015,0,12.723,0,18.73l0.124-0.084
		l11.296,25.546l4.462,10.498c15.262,0,9.391,0,24.653,0l15.688-36.044c0-5.142,0-12.472,0-18.402
		C412.176,218.906,403.782,221.044,394.937,221.456z"/>
</g>
<path style="fill:#DDB07F;" d="M393.569,221.499c-10.731,0.281-20.919-2.032-29.999-6.368c0,6.015,0,12.723,0,18.73l0.124-0.084
	l11.296,25.546l4.462,10.498c9.488,0,10.81,0,14.118,0V221.499z"/>
<path style="fill:#E8E6E9;" d="M507.958,301.485c-1.9-9.543-3.439-17.271-4.038-20.281c-2.994-14.996-14.012-21.092-20.08-23.356
	c-0.073-0.022-4.156-1.226-4.083-1.205l0,0c-0.471-0.139-40.882-12.059-42.579-12.56c-2.266,6.35-7.916,22.183-11.686,32.747
	c-1.243,3.483-5.497,4.775-8.468,2.572l-12.92-9.583l0,0h-24.653l0,0l-0.102-0.078l0.033,0.078l-12.92,9.583
	c-2.97,2.203-7.225,0.91-8.468-2.572l-11.686-32.747l0.096-0.065c-2.495,0.736-42.264,12.467-42.8,12.625l0,0
	c-1.433,0.423-4.264,1.258-4.083,1.205c-6.07,2.264-17.087,8.362-20.08,23.356c0,0-6.044,30.447-10.033,50.529
	c-1.765,8.883,5.033,17.161,14.09,17.161h211.103C500.506,333.737,505.017,317.884,507.958,301.485z"/>
<g>
	<path style="fill:#D3D0D4;" d="M419.792,232.326l-15.688,37.494l12.92,9.583c2.97,2.203,7.225,0.911,8.468-2.572l11.686-32.747
		L419.792,232.326z"/>
	<path style="fill:#D3D0D4;" d="M363.57,232.326l15.812,37.494l-12.92,9.583c-2.97,2.203-7.225,0.911-8.468-2.572l-11.686-32.747
		L363.57,232.326z"/>
</g>
<polygon style="fill:#DD4C5B;" points="404.104,269.82 379.451,269.82 376.114,272.282 382.298,290.544 401.211,290.544 
	407.425,272.282 "/>
<polygon style="fill:#FD6874;" points="408.744,348.893 401.211,290.544 391.778,290.544 382.345,290.544 374.811,348.893 "/>
<path style="fill:#CE4155;" d="M395.133,287.896l-4.373-12.917c-0.544-1.607,0.013-3.382,1.379-4.389l0.012-0.009
	c0.671-0.495,1.482-0.762,2.315-0.762h-15.015l-3.337,2.462l6.184,18.263h16.529C397.155,290.544,395.669,289.48,395.133,287.896z"
	/>
<polygon style="fill:#DD4C5B;" points="391.778,290.544 382.345,290.544 374.811,348.893 388.543,348.893 396.077,290.544 "/>
<path style="fill:#CE4155;" d="M123.835,287.896l-4.373-12.917c-0.544-1.607,0.013-3.382,1.379-4.389l0.012-0.009
	c0.671-0.495,1.482-0.762,2.315-0.762h-15.015l-3.337,2.462L111,290.544h16.529C125.858,290.544,124.372,289.48,123.835,287.896z"/>
<polygon style="fill:#DD4C5B;" points="120.48,290.544 111.048,290.544 103.513,348.893 117.246,348.893 124.78,290.544 "/>
<path style="fill:#F1D4A5;" d="M455.57,107.254l-22.607-17.602c-3.814-2.97-8.268-3.543-12.213-2.012l0,0
	c-15.384,5.947-55.893,20.35-90.437,21.72l0.005,0.01c0,0-5.186,0.317-5.186,4.425v41.856c0,38.192,31.655,69.301,69.805,67.521
	c35.34-1.649,63.487-30.819,63.487-66.573V114.61C458.424,109.808,455.571,107.254,455.57,107.254z"/>
<path style="fill:#E5BE8E;" d="M355.119,155.65V106.53c-8.331,1.47-16.732,2.509-24.807,2.829l0.005,0.01
	c0,0-5.186,0.317-5.186,4.425v41.856c0,38.192,31.655,69.301,69.805,67.521c4.088-0.191,8.074-0.765,11.938-1.66
	C377.287,214.591,355.119,187.607,355.119,155.65z"/>
<g>
	<path style="fill:#D3D0D4;" d="M328.482,309.544c0-4.682-3.795-8.477-8.477-8.477c-4.682,0-8.477,3.795-8.477,8.477v39.349h16.953
		L328.482,309.544L328.482,309.544z"/>
	<path style="fill:#D3D0D4;" d="M471.764,348.893v-39.349c0-4.682-3.795-8.477-8.477-8.477c-4.682,0-8.477,3.795-8.477,8.477v39.349
		H471.764z"/>
</g>
<path style="fill:#5C515E;" d="M173.02,232.009v-12.586c0-5.132,6.477-5.527,6.477-5.527l-0.006-0.012
	c43.145-1.712,93.74-19.7,112.955-27.128l0,0c4.927-1.913,10.49-1.196,15.254,2.513l28.237,21.985c0,0,3.564,3.19,3.564,9.189
	v11.568c7.035-0.724,13.603,1.483,18.201,5.477v-32.554c0-55.934-45.507-101.441-101.441-101.441
	c-55.935,0-101.442,45.506-101.442,101.441v32.552C159.428,233.484,166,231.286,173.02,232.009z"/>
<path style="fill:#4A404E;" d="M203.941,211.528v-6.51c0-47.483,32.795-87.443,76.923-98.438
	c-7.855-1.957-16.066-3.003-24.518-3.003c-55.935,0-101.442,45.506-101.442,101.441v32.552c4.599-3.994,11.167-6.202,18.201-5.477
	v-12.587c0-5.132,6.477-5.527,6.477-5.527l-0.005-0.012C187.524,213.652,195.728,212.781,203.941,211.528z"/>
<g>
	<path style="fill:#E5BE8E;" d="M339.094,230.623v38.899c13.746,1.415,25.114-8.023,25.114-19.449
		C364.208,238.593,352.769,229.215,339.094,230.623z"/>
	<path style="fill:#E5BE8E;" d="M173.857,230.289v39.566c-13.981,1.439-25.544-8.161-25.544-19.783
		C148.313,238.397,159.948,228.857,173.857,230.289z"/>
</g>
<g>
	<path style="fill:#DDB07F;" d="M339.094,251.776v17.746c13.746,1.415,25.114-8.023,25.114-19.449c0-3.195-0.882-6.209-2.438-8.874
		C357.713,248.151,348.963,252.792,339.094,251.776z"/>
	<path style="fill:#DDB07F;" d="M150.703,241.199c-1.527,2.673-2.39,5.685-2.39,8.874c0,11.676,11.635,21.215,25.544,19.783V252.11
		C163.815,253.143,154.822,248.411,150.703,241.199z"/>
</g>
<path style="fill:#E5BE8E;" d="M260.206,352.819c-14.031,0.655-27.355-2.255-39.177-7.901c0,7.512,0,15.891,0,23.393l0.155-0.105
	l14.108,31.907l5.574,13.112c19.061,0,11.73,0,30.791,0l19.594-45.019c0-6.423,0-15.577,0-22.984
	C281.738,349.634,271.254,352.303,260.206,352.819z"/>
<path style="fill:#DDB07F;" d="M251.697,352.772c-10.906-0.611-21.263-3.363-30.667-7.855c0,7.512,0,15.891,0,23.393l0.155-0.105
	l14.108,31.907l5.573,13.112c5.244,0,8.484,0,10.832,0V352.772z"/>
<path style="fill:#E8E6E9;" d="M396.323,427.443c-3.739-18.728-17.499-26.344-25.08-29.172c-0.091-0.027-5.191-1.531-5.099-1.504
	l0,0c-0.588-0.173-51.061-15.062-53.18-15.687c-2.83,7.932-9.887,27.706-14.596,40.901c-1.552,4.35-6.866,5.964-10.576,3.213
	l-16.137-11.969v-0.001h-30.791v0.001l-0.128-0.097l0.041,0.097l-16.137,11.969c-3.71,2.751-9.024,1.137-10.576-3.213
	l-14.596-40.901l0.12-0.081c-3.116,0.919-52.786,15.571-53.456,15.768l0,0c-1.79,0.528-5.325,1.571-5.099,1.504
	c-7.581,2.828-21.341,10.444-25.08,29.172c0,0-3.618,18.225-7.498,37.763c41.702,29.463,92.597,46.779,147.541,46.779
	c55.059,0,106.057-17.386,147.808-46.964C400.37,447.764,397.316,432.427,396.323,427.443z"/>
<g>
	<path style="fill:#D3D0D4;" d="M146.316,417.444c2.867-14.36,11.624-22.182,18.97-26.327c-10.253,3.024-18.877,5.568-19.154,5.65
		l0,0c-1.79,0.528-5.325,1.571-5.099,1.504c-7.581,2.828-21.341,10.444-25.08,29.172c0,0-3.618,18.225-7.498,37.763
		c8.646,6.108,17.691,11.685,27.08,16.703C140.516,452.805,146.316,417.444,146.316,417.444z"/>
	<path style="fill:#D3D0D4;" d="M291.249,366.395l-19.593,46.83l16.137,11.969c3.71,2.752,9.024,1.137,10.576-3.213l14.596-40.901
		L291.249,366.395z"/>
	<path style="fill:#D3D0D4;" d="M221.029,366.395l19.748,46.83l-16.137,11.969c-3.71,2.752-9.024,1.137-10.576-3.213L199.47,381.08
		L221.029,366.395z"/>
</g>
<polygon style="fill:#DD4C5B;" points="271.655,413.225 240.864,413.225 236.697,416.299 244.42,439.109 268.042,439.109 
	275.802,416.3 "/>
<path style="fill:#CE4155;" d="M259.807,435.801l-5.462-16.133c-0.68-2.007,0.017-4.224,1.722-5.482l0.015-0.011
	c0.838-0.618,1.851-0.951,2.892-0.951h-18.109l-4.167,3.075l7.723,22.81h20C262.333,439.109,260.477,437.778,259.807,435.801z"/>
<path style="fill:#FD6874;" d="M268.042,439.109H256.26h-11.781l-9.301,72.029c6.868,0.553,13.809,0.846,20.819,0.846
	c7.187,0,14.301-0.311,21.338-0.892L268.042,439.109z"/>
<path style="fill:#DD4C5B;" d="M262.204,439.109h-5.944h-11.781l-9.301,72.029c6.553,0.528,13.176,0.811,19.858,0.836
	L262.204,439.109z"/>
<path style="fill:#F1D4A5;" d="M335.937,210.182l-28.237-21.985c-4.764-3.709-10.327-4.425-15.254-2.513l0,0
	c-19.214,7.428-69.81,25.416-112.955,27.128l0.006,0.012c0,0-6.477,0.396-6.477,5.527v52.277c0,47.702,39.536,86.555,87.185,84.333
	c44.139-2.059,79.295-38.493,79.295-83.149V219.37C339.501,213.372,335.938,210.183,335.937,210.182z"/>
<path style="fill:#E5BE8E;" d="M203.857,270.629v-60.256c-8.213,1.253-16.416,2.124-24.365,2.439l0.006,0.012
	c0,0-6.477,0.396-6.477,5.527v52.277c0,47.702,39.536,86.555,87.185,84.333c3.933-0.183,7.791-0.652,11.562-1.363
	C233.187,346.233,203.857,311.714,203.857,270.629z"/>
<path style="fill:#D3D0D4;" d="M166.617,452.109c-4.681,0-8.477,3.795-8.477,8.477v32.013c5.556,2.3,11.208,4.414,16.952,6.327
	v-38.339C175.093,455.904,171.298,452.109,166.617,452.109z"/>
<circle style="fill:#FED652;" cx="391.646" cy="422.028" r="89.957"/>
<path style="fill:#FEBE40;" d="M363.717,438.156c-19.794-34.285-14.455-76.184,10.303-104.36c-9.376,1.874-18.61,5.287-27.35,10.333
	c-43.025,24.84-57.765,79.856-32.926,122.879s79.856,57.765,122.879,32.925c8.74-5.046,16.313-11.337,22.623-18.519
	C422.466,488.766,383.511,472.44,363.717,438.156z"/>
<circle style="fill:#E8E6E9;" cx="391.646" cy="422.028" r="62.248"/>
<path style="fill:#D3D0D4;" d="M363.717,438.156c-11.962-20.719-14.731-44.215-9.597-65.786
	c-15.017,11.365-24.723,29.377-24.723,49.662c0,34.379,27.87,62.249,62.249,62.249c8.612,0,16.815-1.75,24.274-4.912
	C394.66,473.033,375.684,458.885,363.717,438.156z"/>
<path style="fill:#FD6874;" d="M391.646,359.781v62.249h62.249C453.895,387.652,426.025,359.781,391.646,359.781z"/>
<g>
	<path style="fill:#5C515E;" d="M391.646,437.3c-4.324,0-7.829-3.505-7.829-7.829v-54.925c0-4.324,3.505-7.829,7.829-7.829
		s7.829,3.505,7.829,7.829v54.925C399.475,433.795,395.97,437.3,391.646,437.3z"/>
	<path style="fill:#5C515E;" d="M421.482,429.859h-37.577c-4.324,0-7.829-3.505-7.829-7.829c0-4.324,3.505-7.829,7.829-7.829h37.577
		c4.324,0,7.829,3.505,7.829,7.829C429.311,426.354,425.806,429.859,421.482,429.859z"/>
</g>
<g>
</g>
<g>
</g>
<g>
</g>
<g>
</g>
<g>
</g>
<g>
</g>
<g>
</g>
<g>
</g>
<g>
</g>
<g>
</g>
<g>
</g>
<g>
</g>
<g>
</g>
<g>
</g>
<g>
</g>
</svg>
