<?xml version="1.0" encoding="iso-8859-1"?>
<!-- Generator: Adobe Illustrator 19.0.0, SVG Export Plug-In . SVG Version: 6.00 Build 0)  -->
<svg version="1.1" id="Capa_1" xmlns="http://www.w3.org/2000/svg" xmlns:xlink="http://www.w3.org/1999/xlink" x="0px" y="0px"
	 viewBox="0 0 511.99 511.99" style="enable-background:new 0 0 511.99 511.99;" xml:space="preserve">
<circle style="fill:#42D197;" cx="255.995" cy="269.15" r="242.84"/>
<path style="fill:#FEBE40;" d="M188.228,68.508L188.228,68.508c9.55,0,18.965,0.604,28.213,1.763c0-15.35,0-29.476,0-42.058
	C216.442,12.696,203.746,0,188.228,0c-15.516,0-28.213,12.696-28.213,28.213c0,8.973,0,23.415,0,42.058
	C169.264,69.112,178.68,68.508,188.228,68.508z"/>
<path style="fill:#F9AA2B;" d="M188.656,28.213c0-10.299,5.595-19.349,13.893-24.276C198.344,1.441,193.447,0,188.229,0
	c-15.516,0-28.213,12.696-28.213,28.213c0,8.973,0,23.415,0,42.057c9.248-1.159,18.664-1.762,28.213-1.762h0.001
	c0.142,0,0.284,0.006,0.426,0.007C188.656,50.726,188.656,36.9,188.656,28.213z"/>
<path style="fill:#FED652;" d="M332.569,408.171h64.562c-35.656,0-64.562-28.905-64.562-64.562V187.865
	c0-79.387-64.953-144.34-144.34-144.34l0,0c-79.387,0-144.34,64.953-144.34,144.34v155.744c0,10.745-2.639,20.867-7.282,29.779
	c5.802,12.19,12.592,23.816,20.263,34.783H332.569z"/>
<g>
	<path style="fill:#FEBE40;" d="M381.564,406.269c-0.356,0.633-0.707,1.272-1.068,1.901h16.634
		C391.762,408.171,386.551,407.504,381.564,406.269z"/>
	<path style="fill:#FEBE40;" d="M154.168,343.609V187.865c0-63.187,33.781-117.227,80.428-136.652
		c-14.569-4.98-30.167-7.688-46.367-7.688l0,0c-79.387,0-144.34,64.953-144.34,144.34v155.744c0,10.745-2.639,20.867-7.282,29.779
		c5.802,12.19,12.592,23.816,20.263,34.783h44.301C130.44,408.169,154.168,379.264,154.168,343.609z"/>
</g>
<path style="fill:#7E777F;" d="M451.756,120.487l-25.803-4.392c-1.01-0.172-1.81-0.929-2.061-1.922
	c-2.246-8.892-5.761-17.277-10.338-24.957c-0.526-0.883-0.492-1.99,0.106-2.826l15.28-21.331c0.733-1.023,0.618-2.426-0.272-3.315
	l-20.329-20.329c-0.887-0.886-2.283-1.005-3.305-0.279l-21.447,15.208c-0.835,0.592-1.935,0.623-2.815,0.1
	c-7.684-4.576-16.073-8.09-24.968-10.334c-0.993-0.251-1.751-1.051-1.923-2.061l-4.413-25.929c-0.21-1.236-1.281-2.14-2.535-2.14
	h-28.75c-1.258,0-2.332,0.911-2.537,2.152l-4.293,25.973c-0.167,1.013-0.924,1.818-1.919,2.072
	c-8.846,2.257-17.189,5.77-24.831,10.336c-0.88,0.526-1.982,0.495-2.818-0.098l-21.466-15.222c-1.022-0.725-2.419-0.607-3.305,0.279
	l-20.329,20.327c-0.89,0.89-1.005,2.292-0.272,3.315l15.335,21.409c0.598,0.835,0.633,1.94,0.109,2.822
	c-4.531,7.631-8.014,15.956-10.248,24.78c-0.251,0.992-1.052,1.749-2.06,1.921l-26.087,4.44c-1.236,0.21-2.14,1.281-2.14,2.535
	c0,10.344,0,19.254,0,29.598c0,1.254,0.904,2.324,2.14,2.535l26.087,4.44c1.009,0.172,1.809,0.929,2.06,1.921
	c2.234,8.824,5.717,17.149,10.248,24.78c0.524,0.883,0.489,1.988-0.109,2.822l-15.335,21.409c-0.733,1.023-0.617,2.426,0.272,3.315
	l20.329,20.329c0.886,0.886,2.283,1.005,3.305,0.279l21.466-15.222c0.836-0.593,1.938-0.623,2.818-0.098
	c7.642,4.566,15.985,8.078,24.831,10.335c0.994,0.254,1.751,1.059,1.919,2.072l4.293,25.973c0.205,1.241,1.279,2.152,2.537,2.152
	h28.75c1.254,0,2.325-0.904,2.535-2.14l4.413-25.929c0.172-1.01,0.93-1.81,1.923-2.061c8.896-2.244,17.285-5.757,24.968-10.334
	c0.879-0.524,1.98-0.492,2.815,0.1l21.447,15.208c1.022,0.725,2.419,0.607,3.305-0.279l20.329-20.329
	c0.89-0.89,1.005-2.293,0.272-3.315l-15.28-21.332c-0.599-0.836-0.633-1.942-0.106-2.826c4.577-7.68,8.092-16.065,10.338-24.957
	c0.251-0.993,1.051-1.751,2.061-1.922l25.803-4.392c1.236-0.21,2.14-1.281,2.14-2.535c0-10.344,0-19.254,0-29.598
	C453.896,121.768,452.992,120.697,451.756,120.487z"/>
<path style="fill:#5C515E;" d="M401.923,214.169c-57.272,0-103.7-46.428-103.7-103.701c0-38.317,20.784-71.776,51.691-89.729
	l-0.446-2.621c-0.21-1.236-1.281-2.14-2.535-2.14h-28.75c-1.258,0-2.332,0.911-2.537,2.152l-4.293,25.973
	c-0.167,1.013-0.924,1.818-1.919,2.072c-8.846,2.257-17.189,5.77-24.831,10.335c-0.88,0.526-1.982,0.495-2.818-0.098L260.319,41.19
	c-1.022-0.725-2.419-0.607-3.305,0.279l-20.329,20.33c-0.89,0.89-1.005,2.292-0.272,3.315l15.335,21.409
	c0.598,0.835,0.633,1.939,0.109,2.822c-4.531,7.631-8.014,15.956-10.248,24.78c-0.251,0.992-1.052,1.75-2.061,1.921l-26.087,4.44
	c-1.236,0.21-2.14,1.281-2.14,2.535c0,10.344,0,19.254,0,29.598c0,1.253,0.904,2.324,2.14,2.535l26.087,4.44
	c1.009,0.172,1.809,0.929,2.061,1.921c2.234,8.823,5.717,17.148,10.248,24.779c0.524,0.883,0.489,1.988-0.109,2.822l-15.335,21.409
	c-0.733,1.023-0.617,2.426,0.272,3.315l20.329,20.329c0.886,0.886,2.283,1.004,3.305,0.279l21.466-15.222
	c0.836-0.593,1.938-0.624,2.818-0.098c7.642,4.566,15.985,8.079,24.831,10.335c0.994,0.254,1.751,1.06,1.919,2.072l4.293,25.973
	c0.205,1.241,1.278,2.151,2.537,2.151h28.75c1.254,0,2.324-0.904,2.535-2.14l4.413-25.93c0.172-1.01,0.93-1.81,1.923-2.061
	c8.896-2.244,17.285-5.757,24.968-10.333c0.879-0.523,1.98-0.492,2.815,0.1l21.447,15.208c1.022,0.726,2.419,0.607,3.305-0.279
	l20.329-20.329c0.884-0.884,1.001-2.273,0.284-3.294C420.334,212.924,411.275,214.169,401.923,214.169z"/>
<path style="fill:#FEBE40;" d="M206.491,507.107L206.491,507.107c-17.397,10.044-39.849,4.028-49.893-13.369l0,0
	c-10.044-17.397-4.028-39.849,13.369-49.893l0,0c17.397-10.044,39.849-4.028,49.893,13.369l0,0
	C229.904,474.61,223.888,497.062,206.491,507.107z"/>
<g>
	<path style="fill:#F9AA2B;" d="M188.229,475.475L188.229,475.475c-6.723-11.644-6.241-25.548,0.022-36.486
		c-6.227-0.021-12.532,1.533-18.285,4.855l0,0c-17.397,10.044-23.413,32.496-13.369,49.893l0,0
		c10.044,17.397,32.496,23.413,49.893,13.369l0,0c5.753-3.321,10.252-8.004,13.347-13.408
		C207.234,493.655,194.952,487.12,188.229,475.475z"/>
	<path style="fill:#F9AA2B;" d="M396.152,407.186c-37.763,0-227.669,0-339.965,0c8.938,12.914,19.095,24.918,30.306,35.849
		c105.598,0,242.031,0,309.659,0c9.859,0,17.925-8.066,17.925-17.924S406.011,407.186,396.152,407.186z"/>
</g>
<path style="fill:#ED971B;" d="M96.187,425.111c0-9.858,8.066-17.924,17.925-17.924c-20.634,0-40.242,0-57.925,0
	c8.938,12.914,19.095,24.918,30.306,35.849c9.001,0,18.231,0,27.619,0C104.253,443.035,96.187,434.969,96.187,425.111z"/>
<circle style="fill:#5C515E;" cx="332.605" cy="137.82" r="58.02"/>
<path style="fill:#4A404E;" d="M274.585,137.82c0,32.046,25.978,58.024,58.024,58.024c3.185,0,6.306-0.267,9.351-0.761
	c-26.467-18.79-43.737-49.686-43.737-84.615c0-7.146,0.725-14.124,2.102-20.863C284.803,100.019,274.585,117.725,274.585,137.82z"/>
<circle style="fill:#7E777F;" cx="332.605" cy="137.82" r="19.624"/>
<g>
</g>
<g>
</g>
<g>
</g>
<g>
</g>
<g>
</g>
<g>
</g>
<g>
</g>
<g>
</g>
<g>
</g>
<g>
</g>
<g>
</g>
<g>
</g>
<g>
</g>
<g>
</g>
<g>
</g>
</svg>
