<?xml version="1.0" encoding="iso-8859-1"?>
<!-- Generator: Adobe Illustrator 19.0.0, SVG Export Plug-In . SVG Version: 6.00 Build 0)  -->
<svg version="1.1" id="Capa_1" xmlns="http://www.w3.org/2000/svg" xmlns:xlink="http://www.w3.org/1999/xlink" x="0px" y="0px"
	 viewBox="0 0 512 512" style="enable-background:new 0 0 512 512;" xml:space="preserve">
<path style="fill:#42D197;" d="M99.619,458.679h312.762C472.97,411.861,512,338.494,512,256C512,114.615,397.385,0,256,0
	S0,114.615,0,256C0,338.494,39.03,411.861,99.619,458.679z"/>
<path style="fill:#A87B69;" d="M256,512c58.891,0,113.127-19.899,156.381-53.321H99.619C142.873,492.102,197.109,512,256,512z"/>
<path style="fill:#8D6451;" d="M244.397,458.679H99.619c39.848,30.791,89.022,50.089,142.565,52.94
	C208.576,509.267,210.29,458.679,244.397,458.679z"/>
<path style="fill:#7E777F;" d="M400.527,84.305c-11.823,0-221.984,0-334.408,0C25.03,129.718,0,189.934,0,256
	c0,64.188,23.626,122.855,62.653,167.789c111.058,0,324.233,0,337.874,0c14.98,0,27.168-12.188,27.168-27.168V111.473
	C427.695,96.493,415.507,84.305,400.527,84.305z"/>
<path style="fill:#5C515E;" d="M64.885,396.62V111.473c0-14.98,12.189-27.167,27.168-27.167c-9.084,0-17.768,0-25.934,0
	C25.03,129.718,0,189.934,0,256c0,64.188,23.626,122.855,62.653,167.789c9.161,0,19.019,0,29.4,0
	C77.073,423.789,64.885,411.6,64.885,396.62z"/>
<path style="fill:#37AEE2;" d="M392.288,112.53c-12.533,0-252.585,0-348.333,0C16.211,153.455,0,202.833,0,256
	c0,51.489,15.213,99.418,41.372,139.564c93.589,0,337.379,0,350.916,0c3.967,0,7.182-3.216,7.182-7.182v-268.67
	C399.47,115.746,396.255,112.53,392.288,112.53z"/>
<path style="fill:#309CD8;" d="M41.374,395.564c7.039,0,14.934,0,23.511,0V112.53c-7.535,0-14.546,0-20.914,0
	C15.25,154.888,0,204.529,0,256C0,305.944,14.421,354.216,41.374,395.564z"/>
<path style="fill:#5C515E;" d="M396.903,114.213c-0.06-0.051-0.123-0.098-0.186-0.146c-0.601-0.473-1.28-0.848-2.014-1.111
	c-0.756-0.27-1.566-0.425-2.415-0.425c-7.372,0-251.91,0-348.333,0c-12.818,18.907-23.173,39.619-30.606,61.676H399.47v-54.494
	C399.47,117.504,398.471,115.53,396.903,114.213z"/>
<path style="fill:#4A404E;" d="M43.97,112.53c-13.449,19.834-23.553,40.658-30.614,61.676h51.528V112.53
	C57.344,112.53,50.333,112.53,43.97,112.53z"/>
<path style="fill:#E8E6E9;" d="M456.684,433.525c0-5.42-4.374-9.814-9.77-9.814H62.584c19.943,22.979,43.915,42.366,70.814,57.069
	h276.244C435.623,480.78,456.684,459.623,456.684,433.525z"/>
<g>
	<path style="fill:#D3D0D4;" d="M151.417,433.525c0-5.42,4.374-9.814,9.77-9.814H62.584c19.943,22.979,43.915,42.366,70.814,57.069
		h65.06C172.478,480.78,151.417,459.623,151.417,433.525z"/>
	<path style="fill:#D3D0D4;" d="M103.828,423.711v16.054c0,6.864,5.591,12.48,12.424,12.48h166.342
		c6.833,0,12.424-5.616,12.424-12.48v-16.054H103.828z"/>
</g>
<path style="fill:#BDB9BE;" d="M161.187,423.711h-57.358v16.054c0,6.864,5.591,12.48,12.424,12.48h39.009
	c-2.469-5.741-3.844-12.068-3.844-18.72C151.417,428.105,155.791,423.711,161.187,423.711z"/>
<path style="fill:#FC5B6F;" d="M35.431,151.519c-4.322,0-7.765-3.526-7.765-7.765c0-4.975,4.583-8.556,9.276-7.609
	c3.452,0.646,6.253,3.761,6.253,7.609C43.196,147.986,39.759,151.519,35.431,151.519z"/>
<path style="fill:#FED652;" d="M64.885,151.519c-4.288,0-7.765-3.476-7.765-7.765c0-5.034,4.647-8.562,9.276-7.609
	c3.646,0.682,6.253,3.97,6.253,7.609C72.649,147.976,69.221,151.519,64.885,151.519z"/>
<path style="fill:#42D197;" d="M94.349,151.519c-4.244,0-7.765-3.454-7.765-7.765c0-4.874,4.512-8.594,9.287-7.609
	c3.663,0.686,6.253,4.013,6.253,7.609C102.124,147.963,98.703,151.519,94.349,151.519z"/>
<path style="fill:#7E777F;" d="M264.742,151.519H129.849c-4.288,0-7.765-3.476-7.765-7.765s3.476-7.765,7.765-7.765h134.893
	c4.288,0,7.765,3.476,7.765,7.765C272.507,148.044,269.03,151.519,264.742,151.519z"/>
<g>
	<path style="fill:#6FC7EC;" d="M233.906,272.734H114.803c-4.288,0-7.765-3.476-7.765-7.765s3.476-7.765,7.765-7.765h119.103
		c4.288,0,7.765,3.476,7.765,7.765S238.195,272.734,233.906,272.734z"/>
	<path style="fill:#6FC7EC;" d="M344.074,314.018H114.803c-4.288,0-7.765-3.476-7.765-7.765s3.476-7.765,7.765-7.765h229.271
		c4.288,0,7.765,3.476,7.765,7.765S348.363,314.018,344.074,314.018z"/>
</g>
<path style="fill:#A7E0F5;" d="M192.324,231.45h-77.521c-4.288,0-7.765-3.476-7.765-7.765s3.476-7.765,7.765-7.765h77.521
	c4.288,0,7.765,3.476,7.765,7.765C200.088,227.975,196.612,231.45,192.324,231.45z"/>
<path style="fill:#6FC7EC;" d="M344.074,355.302H114.803c-4.288,0-7.765-3.476-7.765-7.765s3.476-7.765,7.765-7.765h229.271
	c4.288,0,7.765,3.476,7.765,7.765S348.363,355.302,344.074,355.302z"/>
<g>
	<path style="fill:#42D197;" d="M62.473,277.945L62.473,277.945c-2.059,0-4.034-0.818-5.49-2.275l-8.737-8.737
		c-3.033-3.032-3.032-7.949,0-10.981c3.033-3.031,7.949-3.032,10.981,0.001l3.246,3.246l11.143-11.143
		c3.032-3.031,7.949-3.032,10.981,0.001c3.033,3.032,3.033,7.948,0,10.981l-16.634,16.633
		C66.507,277.127,64.532,277.945,62.473,277.945z"/>
	<path style="fill:#42D197;" d="M62.473,319.229L62.473,319.229c-2.059,0-4.034-0.818-5.49-2.275l-8.737-8.737
		c-3.033-3.032-3.032-7.949,0-10.981c3.033-3.031,7.949-3.032,10.981,0.001l3.246,3.246l11.143-11.143
		c3.032-3.031,7.949-3.032,10.981,0.001c3.033,3.032,3.033,7.948,0,10.981l-16.634,16.633
		C66.507,318.411,64.532,319.229,62.473,319.229z"/>
	<path style="fill:#42D197;" d="M56.982,358.239l-8.737-8.738c-3.032-3.032-3.032-7.949,0.001-10.981s7.949-3.031,10.981,0.001
		l3.246,3.246l11.143-11.142c3.032-3.033,7.949-3.032,10.981-0.001c3.033,3.033,3.033,7.949,0,10.982l-16.634,16.633
		C64.933,361.271,60.013,361.272,56.982,358.239z"/>
</g>
<path style="fill:#FEBE40;" d="M455.735,209.984c-53.736,31.025-122.694,12.548-153.72-41.189
	c-31.024-53.736-12.547-122.694,41.189-153.719s122.695-12.547,153.72,41.189C527.949,110.002,509.471,178.96,455.735,209.984z"/>
<path style="fill:#F9AA2B;" d="M358.22,136.345C332.835,92.376,340.598,38.22,373.695,2.988
	c-10.453,2.454-20.724,6.449-30.491,12.088c-53.736,31.025-72.214,99.983-41.189,153.719
	c31.025,53.737,99.983,72.214,153.719,41.189c9.767-5.639,18.362-12.536,25.714-20.361
	C434.388,200.67,383.606,180.315,358.22,136.345z"/>
<path style="fill:#E8E6E9;" d="M399.47,31.564c-44.645,0-80.966,36.321-80.966,80.966c0,44.646,36.322,80.967,80.966,80.967
	s80.966-36.321,80.966-80.967C480.436,67.885,444.115,31.564,399.47,31.564z"/>
<path style="fill:#D3D0D4;" d="M358.22,136.345c-15.533-26.903-18.635-57.615-11.137-85.478
	c-17.468,14.863-28.58,36.984-28.58,61.662c0,44.646,36.322,80.967,80.966,80.967c9.573,0,18.759-1.681,27.291-4.745
	C398.849,181.327,373.769,163.276,358.22,136.345z"/>
<path style="fill:#7E777F;" d="M367.334,120.295c-4.289,0-7.765-3.476-7.765-7.765c0-4.288,3.476-7.765,7.765-7.765l24.372-0.001
	v-39.13c0-4.289,3.476-7.765,7.765-7.765c4.288,0,7.765,3.476,7.765,7.765v46.895c0,4.288-3.476,7.765-7.765,7.765L367.334,120.295z
	"/>
<g>
</g>
<g>
</g>
<g>
</g>
<g>
</g>
<g>
</g>
<g>
</g>
<g>
</g>
<g>
</g>
<g>
</g>
<g>
</g>
<g>
</g>
<g>
</g>
<g>
</g>
<g>
</g>
<g>
</g>
</svg>
