<?xml version="1.0" encoding="iso-8859-1"?>
<!-- Generator: Adobe Illustrator 19.0.0, SVG Export Plug-In . SVG Version: 6.00 Build 0)  -->
<svg version="1.1" id="Capa_1" xmlns="http://www.w3.org/2000/svg" xmlns:xlink="http://www.w3.org/1999/xlink" x="0px" y="0px"
	 viewBox="0 0 512 512" style="enable-background:new 0 0 512 512;" xml:space="preserve">
<path style="fill:#F9AA2B;" d="M444.586,429.101C486.441,383.53,512,322.752,512,256C512,114.621,397.389,0.01,256.01,0.01
	S0.021,114.621,0.021,256c0,66.752,25.559,127.53,67.413,173.101H444.586z"/>
<path style="fill:#E8E6E9;" d="M66.48,428.074c46.829,51.549,114.4,83.916,189.53,83.916c75.131,0,142.701-32.367,189.53-83.916
	L66.48,428.074L66.48,428.074z"/>
<path style="fill:#D3D0D4;" d="M246.255,428.074H66.48c44.183,48.636,106.833,80.182,176.871,83.594
	C189.77,508.537,192.158,428.074,246.255,428.074z"/>
<path style="fill:#7E777F;" d="M310.223,126.391c-4.254,0-7.702-3.448-7.702-7.702V91.983c0-7.564-6.153-13.716-13.715-13.716
	H118.725c-7.563,0-13.715,6.153-13.715,13.716v26.706c0,4.254-3.448,7.702-7.702,7.702c-4.254,0-7.702-3.448-7.702-7.702V91.983
	c0-16.056,13.062-29.12,29.12-29.12h170.081c16.056,0,29.12,13.063,29.12,29.12v26.706
	C317.926,122.943,314.477,126.391,310.223,126.391z"/>
<path style="fill:#8D6451;" d="M401.03,111.501H44.692c-73.047,106.62-55.401,252.824,44.58,338.731H401.03
	c13.812,0,25.113-11.302,25.113-25.113V136.614C426.143,122.801,414.843,111.501,401.03,111.501z"/>
<path style="fill:#825A4A;" d="M69.58,425.119V136.614c0-13.812,11.301-25.113,25.113-25.113H44.692
	c-67.747,98.884-58.003,232.963,26.035,321.101C69.982,430.235,69.58,427.722,69.58,425.119z"/>
<path style="fill:#A87B69;" d="M401.03,111.501H44.692C11.657,159.718-4.616,218.785,1.176,280.289
	c5.04,1.099-20.41,0.363,399.856,0.578c13.812,0,25.113-11.301,25.113-25.113v-119.14
	C426.143,122.801,414.843,111.501,401.03,111.501z"/>
<path style="fill:#8D6451;" d="M1.176,280.289c4.726,1.03,1.982,0.375,68.404,0.578V136.614c0-13.812,11.301-25.113,25.113-25.113
	H44.692C11.725,159.619-4.626,218.655,1.176,280.289z"/>
<path style="fill:#5C515E;" d="M312.987,111.501v204.443c0,13.787,11.177,24.964,24.964,24.964
	c13.787,0,24.964-11.177,24.964-24.964V111.501H312.987z"/>
<path style="fill:#4A404E;" d="M337.951,315.943V111.501h24.964l0,0h-49.928v204.443c0,13.786,11.177,24.964,24.964,24.964
	c4.549,0,8.809-1.223,12.481-3.348C342.973,333.242,337.951,325.181,337.951,315.943z"/>
<path style="fill:#D3D0D4;" d="M337.951,305.287c-4.254,0-7.702-3.448-7.702-7.702v-12.899c0-4.254,3.448-7.702,7.702-7.702
	s7.702,3.448,7.702,7.702v12.899C345.653,301.839,342.204,305.287,337.951,305.287z"/>
<path style="fill:#E8E6E9;" d="M360.641,307.341H315.26c-7.024,0-12.738-5.715-12.738-12.738v-27.473
	c0-7.024,5.715-12.738,12.738-12.738h45.381c7.024,0,12.738,5.715,12.738,12.738v27.473
	C373.379,301.627,367.666,307.341,360.641,307.341z M317.926,291.937h40.05v-22.142h-40.05V291.937z"/>
<path style="fill:#5C515E;" d="M44.616,111.501v204.443c0,13.787,11.177,24.964,24.964,24.964s24.964-11.177,24.964-24.964V111.501
	H44.616z"/>
<path style="fill:#4A404E;" d="M69.58,315.943V111.501h24.964l0,0H44.616v204.443c0,13.786,11.177,24.964,24.964,24.964
	c4.549,0,8.809-1.223,12.481-3.348C74.603,333.242,69.58,325.181,69.58,315.943z"/>
<path style="fill:#D3D0D4;" d="M69.58,305.287c-4.254,0-7.702-3.448-7.702-7.702v-12.899c0-4.254,3.448-7.702,7.702-7.702
	c4.254,0,7.702,3.448,7.702,7.702v12.899C77.282,301.839,73.834,305.287,69.58,305.287z"/>
<path style="fill:#E8E6E9;" d="M92.271,307.341H46.889c-7.024,0-12.738-5.715-12.738-12.738v-27.473
	c0-7.024,5.715-12.738,12.738-12.738H92.27c7.024,0,12.738,5.715,12.738,12.738v27.473
	C105.009,301.627,99.295,307.341,92.271,307.341z M49.555,291.937h40.05v-22.142h-40.05V291.937z"/>
<path style="fill:#D3D0D4;" d="M189.902,291.648v13.863c0,7.657,6.207,13.863,13.863,13.863l0,0c7.657,0,13.863-6.207,13.863-13.863
	v-13.863H189.902z"/>
<path style="fill:#8D6451;" d="M228.595,165.639c-6.618-4.47-15.435-6.931-24.83-6.931s-18.212,2.461-24.83,6.931
	c-3.524,2.381-8.313,1.454-10.694-2.071c-2.381-3.525-1.453-8.313,2.072-10.694c9.137-6.172,21.017-9.571,33.452-9.571
	s24.315,3.399,33.452,9.571c3.525,2.381,4.453,7.169,2.072,10.694C236.901,167.104,232.11,168.013,228.595,165.639z"/>
<circle style="fill:#5C515E;" cx="389.404" cy="420.602" r="85.856"/>
<path style="fill:#4A404E;" d="M359.963,437.599c-19.189-33.237-13.622-73.965,10.968-100.858
	c-8.381,1.849-16.625,4.986-24.453,9.506c-41.064,23.709-55.135,76.218-31.426,117.282c29.07,50.351,98.679,57.719,137.74,15
	C417.207,486.379,379.152,470.836,359.963,437.599z"/>
<circle style="fill:#E8E6E9;" cx="389.404" cy="420.602" r="59.418"/>
<path style="fill:#D3D0D4;" d="M408.996,476.693c-42.909-13.229-68.368-57.274-58.379-101.076
	c-41.424,35.75-16.363,104.399,38.787,104.399C396.271,480.015,402.86,478.837,408.996,476.693z"/>
<path style="fill:#FD6874;" d="M389.405,361.189v59.414h59.414C448.818,387.788,422.217,361.189,389.405,361.189z"/>
<g>
	<path style="fill:#5C515E;" d="M389.405,435.176c-4.127,0-7.472-3.345-7.472-7.472v-52.423c0-4.127,3.345-7.472,7.472-7.472
		c4.127,0,7.472,3.345,7.472,7.472v52.423C396.876,431.831,393.532,435.176,389.405,435.176z"/>
	<path style="fill:#5C515E;" d="M417.882,428.073h-35.866c-4.127,0-7.472-3.345-7.472-7.472s3.345-7.472,7.472-7.472h35.866
		c4.127,0,7.472,3.345,7.472,7.472S422.008,428.073,417.882,428.073z"/>
</g>
<path style="fill:#8D6451;" d="M258.74,84.429h-109.95c-7.657,0-13.863-6.207-13.863-13.863s6.207-13.863,13.863-13.863h109.95
	c7.657,0,13.863,6.207,13.863,13.863S266.397,84.429,258.74,84.429z"/>
<path style="fill:#825A4A;" d="M203.765,70.564c0-7.657,6.207-13.863,13.863-13.863h-68.838c-7.657,0-13.863,6.207-13.863,13.863
	s6.207,13.863,13.863,13.863h68.838C209.972,84.428,203.765,78.221,203.765,70.564z"/>
<path style="fill:#E8E6E9;" d="M232.745,267.002h-57.959c-7.657,0-13.863,6.207-13.863,13.863l0,0
	c0,7.657,6.207,13.863,13.863,13.863h57.959c7.657,0,13.863-6.207,13.863-13.863l0,0
	C246.609,273.209,240.401,267.002,232.745,267.002z"/>
<path style="fill:#D3D0D4;" d="M203.765,280.866L203.765,280.866c0-7.657,6.207-13.863,13.863-13.863h-42.843
	c-7.657,0-13.863,6.207-13.863,13.863l0,0c0,7.657,6.207,13.863,13.863,13.863h42.843
	C209.972,294.729,203.765,288.523,203.765,280.866z"/>
<g>
</g>
<g>
</g>
<g>
</g>
<g>
</g>
<g>
</g>
<g>
</g>
<g>
</g>
<g>
</g>
<g>
</g>
<g>
</g>
<g>
</g>
<g>
</g>
<g>
</g>
<g>
</g>
<g>
</g>
</svg>
