<?xml version="1.0" encoding="iso-8859-1"?>
<!-- Generator: Adobe Illustrator 19.0.0, SVG Export Plug-In . SVG Version: 6.00 Build 0)  -->
<svg version="1.1" id="Capa_1" xmlns="http://www.w3.org/2000/svg" xmlns:xlink="http://www.w3.org/1999/xlink" x="0px" y="0px"
	 viewBox="0 0 511.99 511.99" style="enable-background:new 0 0 511.99 511.99;" xml:space="preserve">
<circle style="fill:#FED652;" cx="255.995" cy="261.88" r="250.11"/>
<path style="fill:#5C515E;" d="M319.89,35.874H130.879c-27.761,0-50.346,22.585-50.346,50.346c0,12.998,0,242.69,0,353.875
	c45.148,44.454,107.096,71.895,175.462,71.895c41.16,0,79.996-9.946,114.241-27.561c0-80.954,0-355.69,0-398.209
	C370.236,58.459,347.651,35.874,319.89,35.874z"/>
<path style="fill:#4A404E;" d="M136.672,86.22c0-27.761,22.585-50.346,50.346-50.346h-56.14c-27.761,0-50.346,22.585-50.346,50.346
	c0,12.998,0,242.69,0,353.875c16.609,16.354,35.499,30.395,56.14,41.625C136.672,349.393,136.672,97.857,136.672,86.22z"/>
<path style="fill:#37AEE2;" d="M319.89,63.768h-23.556c-4.638,0-8.398,3.759-8.401,8.397v5.334c0,7.148-5.849,12.996-12.997,12.996
	l0,0h-99.101l0,0c-7.148,0-12.997-5.848-12.997-12.996v-5.334c-0.003-4.638-3.764-8.397-8.402-8.397H130.88
	c-12.4,0-22.452,10.052-22.452,22.453v377.596c41.366,30.281,92.373,48.173,147.567,48.173c30.349,0,59.433-5.409,86.347-15.309
	c0-51.059,0-367.084,0-410.46C342.342,73.82,332.289,63.768,319.89,63.768z"/>
<path style="fill:#309CD8;" d="M136.672,86.22c0-8.065,1.917-15.687,5.303-22.452h-11.096c-12.4,0-22.452,10.052-22.452,22.453
	v377.581c8.787,6.428,18.094,12.394,28.245,17.918C136.672,349.393,136.672,97.857,136.672,86.22z"/>
<path style="fill:#A7E0F5;" d="M250.083,171.281h-50.769c-4.486,0-8.123-3.636-8.123-8.123s3.637-8.123,8.123-8.123h50.769
	c4.486,0,8.123,3.636,8.123,8.123S254.569,171.281,250.083,171.281z"/>
<path style="fill:#42D197;" d="M226.531,191.505v31.61c28.826,0.01,52.223,23.195,52.6,51.935h30.927
	C310.058,228.915,272.664,191.515,226.531,191.505z"/>
<path style="fill:#FD6874;" d="M279.131,275.05c0.003,0.234,0.018,0.466,0.018,0.701c0,29.07-23.566,52.636-52.636,52.636
	s-52.636-23.566-52.636-52.636c0-15.195,6.447-28.878,16.745-38.486L169.194,214.3c-16.139,15.232-26.227,36.807-26.227,60.75
	c0,46.141,37.405,83.545,83.545,83.545s83.545-37.405,83.545-83.545H279.131z"/>
<path style="fill:#FED652;" d="M190.622,237.265c9.403-8.773,22.016-14.15,35.891-14.15c0.006,0,0.012,0,0.018,0v-31.61
	c-0.006,0-0.012,0-0.018,0c-22.197,0-42.357,8.673-57.319,22.795L190.622,237.265z"/>
<g>
	<path style="fill:#7E777F;" d="M256.598,71.89h-33.746c-4.486,0-8.123-3.636-8.123-8.123s3.637-8.123,8.123-8.123h33.746
		c4.486,0,8.123,3.636,8.123,8.123S261.084,71.89,256.598,71.89z"/>
	<path style="fill:#7E777F;" d="M194.327,71.887c-4.471,0-8.123-3.634-8.123-8.123c0-5.164,4.756-8.958,9.704-7.96
		c3.867,0.803,6.542,4.098,6.542,7.96C202.449,68.204,198.854,71.887,194.327,71.887z"/>
</g>
<path style="fill:#A7E0F5;" d="M230.612,491.623h-11.827c-4.486,0-8.123-3.636-8.123-8.123s3.637-8.123,8.123-8.123h11.827
	c4.486,0,8.123,3.636,8.123,8.123C238.735,487.987,235.098,491.623,230.612,491.623z"/>
<circle style="fill:#5C515E;" cx="340.915" cy="90.55" r="90.55"/>
<path style="fill:#4A404E;" d="M314.191,105.978c-19.774-34.25-14.624-76.046,9.815-104.399
	c-9.725,1.848-19.311,5.328-28.369,10.558c-43.308,25.004-58.146,80.381-33.143,123.689c25.004,43.308,80.382,58.147,123.69,33.143
	c9.058-5.229,16.865-11.791,23.328-19.29C372.737,156.666,333.966,140.228,314.191,105.978z"/>
<circle style="fill:#E8E6E9;" cx="340.915" cy="90.55" r="62.66"/>
<path style="fill:#D3D0D4;" d="M314.191,105.978c-12.089-20.938-14.847-44.692-9.593-66.475
	c-15.941,11.36-26.347,29.983-26.347,51.048c0,34.606,28.054,62.659,62.659,62.659c9.306,0,18.129-2.044,26.069-5.683
	C345.482,141.189,326.283,126.921,314.191,105.978z"/>
<path style="fill:#FD6874;" d="M340.91,27.893v62.659h62.659C403.57,55.946,375.516,27.893,340.91,27.893z"/>
<g>
	<path style="fill:#5C515E;" d="M340.911,105.922c-4.352,0-7.88-3.528-7.88-7.88V42.755c0-4.352,3.528-7.88,7.88-7.88
		s7.88,3.528,7.88,7.88v55.287C348.791,102.394,345.263,105.922,340.911,105.922z"/>
	<path style="fill:#5C515E;" d="M370.943,98.432h-37.825c-4.352,0-7.88-3.528-7.88-7.88s3.528-7.88,7.88-7.88h37.825
		c4.352,0,7.88,3.528,7.88,7.88S375.296,98.432,370.943,98.432z"/>
</g>
<g>
	<path style="fill:#6FC7EC;" d="M298.059,398.12h-113.5c-4.486,0-8.123-3.636-8.123-8.123s3.637-8.123,8.123-8.123h113.5
		c4.486,0,8.123,3.636,8.123,8.123C306.182,394.483,302.545,398.12,298.059,398.12z"/>
	<path style="fill:#6FC7EC;" d="M298.059,428.174h-113.5c-4.486,0-8.123-3.636-8.123-8.123s3.637-8.123,8.123-8.123h113.5
		c4.486,0,8.123,3.636,8.123,8.123S302.545,428.174,298.059,428.174z"/>
	<path style="fill:#6FC7EC;" d="M298.059,458.229h-113.5c-4.486,0-8.123-3.636-8.123-8.123s3.637-8.123,8.123-8.123h113.5
		c4.486,0,8.123,3.636,8.123,8.123S302.545,458.229,298.059,458.229z"/>
</g>
<g>
	<path style="fill:#A7E0F5;" d="M154.206,398.12c-4.486,0-8.149-3.636-8.149-8.123s3.61-8.123,8.096-8.123h0.053
		c4.486,0,8.123,3.636,8.123,8.123C162.328,394.483,158.692,398.12,154.206,398.12z"/>
	<path style="fill:#A7E0F5;" d="M154.206,428.174c-4.486,0-8.149-3.636-8.149-8.123s3.61-8.123,8.096-8.123h0.053
		c4.486,0,8.123,3.636,8.123,8.123C162.328,424.538,158.692,428.174,154.206,428.174z"/>
	<path style="fill:#A7E0F5;" d="M154.206,458.229c-4.486,0-8.149-3.636-8.149-8.123s3.61-8.123,8.096-8.123h0.053
		c4.486,0,8.123,3.636,8.123,8.123S158.692,458.229,154.206,458.229z"/>
</g>
<path style="fill:#FEBE40;" d="M201.382,228.288c-9.217,0-16.688-7.471-16.688-16.688c0-4.318,1.654-8.24,4.345-11.203
	c-7.286,3.67-13.971,8.358-19.845,13.903l21.428,22.965c4.035-3.765,8.664-6.898,13.728-9.256
	C203.385,228.182,202.396,228.288,201.382,228.288z"/>
<path style="fill:#DD4C5B;" d="M258.108,317.85c-8.8,6.615-19.739,10.537-31.595,10.537c-29.07,0-52.636-23.566-52.636-52.636
	c0-15.195,6.447-28.878,16.745-38.486L169.194,214.3c-16.138,15.232-26.227,36.807-26.227,60.75
	c0,46.141,37.405,83.545,83.545,83.545c18.55,0,35.681-6.054,49.544-16.283C261.955,345.206,251.231,330.174,258.108,317.85z"/>
<g>
</g>
<g>
</g>
<g>
</g>
<g>
</g>
<g>
</g>
<g>
</g>
<g>
</g>
<g>
</g>
<g>
</g>
<g>
</g>
<g>
</g>
<g>
</g>
<g>
</g>
<g>
</g>
<g>
</g>
</svg>
