<?xml version="1.0" encoding="iso-8859-1"?>
<!-- Generator: Adobe Illustrator 19.0.0, SVG Export Plug-In . SVG Version: 6.00 Build 0)  -->
<svg version="1.1" id="Capa_1" xmlns="http://www.w3.org/2000/svg" xmlns:xlink="http://www.w3.org/1999/xlink" x="0px" y="0px"
	 viewBox="0 0 512 512" style="enable-background:new 0 0 512 512;" xml:space="preserve">
<circle style="fill:#37AEE2;" cx="256" cy="268.89" r="243.11"/>
<path style="fill:#E8E6E9;" d="M389.923,349.416H252.441v-40.693c0-4.2-3.404-7.603-7.603-7.603c-4.199,0-7.603,3.404-7.603,7.603
	v40.693H99.727c-9.331,0-16.923,7.591-16.923,16.923v38.977c0,4.2,3.404,7.603,7.603,7.603s7.603-3.404,7.603-7.603v-38.977
	c0-0.946,0.77-1.717,1.716-1.717h137.508v40.693c0,4.2,3.404,7.603,7.603,7.603s7.603-3.404,7.603-7.603v-40.693h137.482
	c0.96,0,1.741,0.781,1.741,1.741v38.952c0,4.2,3.404,7.603,7.603,7.603s7.603-3.404,7.603-7.603v-38.952
	C406.87,357.019,399.268,349.416,389.923,349.416z"/>
<path style="fill:#42D197;" d="M116.642,405.316h-52.47c-2.873,0-5.545,0.868-7.789,2.343
	c19.436,27.907,44.562,51.555,73.714,69.239c0.544-1.503,0.856-3.115,0.856-4.801v-52.47
	C130.952,411.756,124.513,405.316,116.642,405.316z"/>
<path style="fill:#2FBA7E;" d="M93.667,419.626c0-7.871,6.44-14.31,14.31-14.31H64.172c-2.872,0-5.545,0.868-7.789,2.343
	c10.773,15.468,23.3,29.62,37.285,42.181L93.667,419.626L93.667,419.626z"/>
<path style="fill:#FD6874;" d="M271.072,486.407h-52.47c-7.871,0-14.31-6.44-14.31-14.31v-52.47c0-7.871,6.44-14.31,14.31-14.31
	h52.47c7.871,0,14.31,6.44,14.31,14.31v52.47C285.382,479.967,278.943,486.407,271.072,486.407z"/>
<path style="fill:#DD4C5B;" d="M244.837,472.097v-52.47c0-7.871,6.44-14.31,14.31-14.31h-40.545c-7.871,0-14.31,6.439-14.31,14.31
	v52.47c0,7.871,6.44,14.31,14.31,14.31h40.545C251.277,486.407,244.837,479.967,244.837,472.097z"/>
<path style="fill:#FED652;" d="M439.813,428.002v-8.376c0-7.871-6.44-14.31-14.31-14.31h-52.471c-7.871,0-14.31,6.439-14.31,14.31
	v52.47c0,5.788,3.488,10.791,8.461,13.04C394.923,470.844,419.562,451.377,439.813,428.002z"/>
<path style="fill:#FEBE40;" d="M399.267,419.626c0-7.871,6.44-14.31,14.31-14.31h-40.545c-7.871,0-14.31,6.439-14.31,14.31v52.47
	c0,5.788,3.488,10.791,8.461,13.04c11.236-5.789,21.952-12.44,32.084-19.842L399.267,419.626L399.267,419.626z"/>
<g>
	<path style="fill:#E8E6E9;" d="M125.457,418.13l-31.75,31.75c3.785,3.396,7.674,6.681,11.668,9.838l30.835-30.835
		c2.97-2.97,2.97-7.783,0-10.753C133.241,415.162,128.426,415.162,125.457,418.13z"/>
	<path style="fill:#E8E6E9;" d="M247.711,468.663L247.711,468.663c-2.017,0-3.951-0.801-5.376-2.228L222.61,446.71
		c-2.97-2.969-2.969-7.783,0-10.752c2.97-2.968,7.784-2.969,10.752,0.001l14.349,14.349l32.177-32.177
		c2.969-2.968,7.783-2.968,10.752,0c2.97,2.97,2.97,7.783,0,10.753l-37.553,37.553C251.661,467.863,249.727,468.663,247.711,468.663
		z"/>
	<path style="fill:#E8E6E9;" d="M446.439,419.998c-0.35-0.672-0.805-1.303-1.369-1.867c-2.969-2.968-7.783-2.968-10.753,0
		l-32.177,32.177l-14.348-14.349c-2.97-2.97-7.784-2.969-10.753-0.001c-2.969,2.969-2.97,7.783,0,10.752l19.724,19.726
		c0.135,0.135,0.278,0.258,0.421,0.381C415.711,453.579,432.294,437.801,446.439,419.998z"/>
</g>
<path style="fill:#5C515E;" d="M180.078,100.372v-9.83c0-4.008,5.058-4.317,5.058-4.317l-0.004-0.009
	c33.696-1.337,73.212-15.387,88.218-21.188l0,0c3.848-1.494,8.192-0.934,11.913,1.962l22.053,17.171c0,0,2.783,2.491,2.783,7.176
	v9.034c5.494-0.565,10.624,1.158,14.215,4.278V79.226C324.316,35.541,288.775,0,245.09,0c-43.686,0-79.227,35.541-79.227,79.226
	v25.424C169.462,101.524,174.595,99.807,180.078,100.372z"/>
<path style="fill:#4A404E;" d="M210.113,83.317v-4.091c0-36.006,24.153-66.458,57.101-76.059C260.188,1.119,252.769,0,245.09,0
	c-43.686,0-79.227,35.541-79.227,79.226v25.424c3.613-3.138,8.754-4.841,14.215-4.278v-9.83c0-4.008,5.058-4.317,5.058-4.317
	l-0.004-0.009C193.263,85.893,201.731,84.826,210.113,83.317z"/>
<g>
	<path style="fill:#E5BE8E;" d="M309.783,99.289v30.381c10.735,1.105,19.614-6.266,19.614-15.19
		C329.397,105.514,320.464,98.189,309.783,99.289z"/>
	<path style="fill:#E5BE8E;" d="M180.733,99.028v30.901c-10.919,1.124-19.95-6.374-19.95-15.451
		C160.782,105.36,169.869,97.91,180.733,99.028z"/>
</g>
<g>
	<path style="fill:#DDB07F;" d="M309.783,116.169v13.5c10.738,1.105,19.614-6.268,19.614-15.19c0-2.426-0.665-4.712-1.817-6.75
		C324.44,113.282,317.543,116.968,309.783,116.169z"/>
	<path style="fill:#DDB07F;" d="M162.566,107.729c-1.132,2.044-1.784,4.328-1.784,6.75c0,9.119,9.085,16.569,19.95,15.451v-13.5
		C172.824,117.243,165.747,113.475,162.566,107.729z"/>
</g>
<path style="fill:#E5BE8E;" d="M248.171,194.724c-10.958,0.511-21.365-1.761-30.597-6.17c0,5.867,0,12.411,0,18.271l0.121-0.082
	l11.018,24.919l4.353,10.24c14.887,0,9.161,0,24.048,0l15.303-35.16c0-5.016,0-12.165,0-17.951
	C264.988,192.237,256.799,194.322,248.171,194.724z"/>
<path style="fill:#DDB07F;" d="M247.997,194.729c-10.894,0.479-21.24-1.79-30.424-6.176c0,5.867,0,12.411,0,18.271l0.121-0.082
	l11.018,24.919l4.353,10.24c10.282,0,10.733,0,14.932,0V194.729L247.997,194.729z"/>
<path style="fill:#E8E6E9;" d="M350.025,319.034c9.109,0,15.944-8.327,14.165-17.26c-3.937-19.773-8.569-43.035-9.71-48.767
	c-2.92-14.627-13.667-20.575-19.588-22.784c-0.071-0.021-4.054-1.196-3.983-1.175l0,0c-0.459-0.135-39.879-11.763-41.534-12.251
	c-2.211,6.194-7.722,21.639-11.399,31.944c-1.212,3.397-5.362,4.658-8.26,2.509l-12.603-9.348l0,0h-24.048l0,0l-0.1-0.076
	l0.032,0.076l-12.603,9.348c-2.897,2.149-7.048,0.888-8.26-2.509l-11.399-31.944l0.094-0.064
	c-2.433,0.718-41.226,12.161-41.75,12.315l0,0c-1.398,0.412-4.159,1.227-3.982,1.175c-5.921,2.209-16.668,8.156-19.588,22.784l0,0
	c0,0-5.896,29.7-9.787,49.288c-1.721,8.665,4.909,16.739,13.744,16.739H350.025z"/>
<g>
	<path style="fill:#D3D0D4;" d="M155.723,302.295c3.891-19.588,9.787-59.288,9.787-59.288c2.097-10.505,8.228-16.518,13.712-19.9
		c-10.062,2.968-19.88,5.864-20.142,5.941l0,0c-1.398,0.412-4.159,1.227-3.982,1.175c-5.921,2.208-16.668,8.156-19.588,22.784
		c0,0-5.896,29.7-9.787,49.288c-1.721,8.665,4.909,16.739,13.744,16.739h30C160.632,319.034,154.001,310.96,155.723,302.295z"/>
	<path style="fill:#D3D0D4;" d="M272.416,205.328l-15.303,36.574l12.603,9.348c2.897,2.149,7.047,0.888,8.26-2.509l11.399-31.944
		L272.416,205.328z"/>
	<path style="fill:#D3D0D4;" d="M217.574,205.328l15.424,36.574l-12.603,9.348c-2.897,2.149-7.047,0.888-8.26-2.509l-11.399-31.944
		L217.574,205.328z"/>
</g>
<polygon style="fill:#DD4C5B;" points="257.113,241.902 233.065,241.902 229.81,244.303 235.842,262.118 254.29,262.118 
	260.352,244.304 "/>
<polygon style="fill:#FD6874;" points="261.64,319.034 254.29,262.118 245.089,262.118 235.888,262.118 228.539,319.034 "/>
<path style="fill:#F1D4A5;" d="M307.317,83.324l-22.053-17.171c-3.721-2.897-8.065-3.456-11.913-1.962l0,0
	c-15.006,5.801-54.522,19.851-88.218,21.188l0.004,0.009c0,0-5.058,0.309-5.058,4.317v40.829c0,37.255,30.878,67.6,68.093,65.864
	c34.473-1.608,61.929-30.063,61.929-64.939V90.501C310.1,85.816,307.318,83.325,307.317,83.324z"/>
<path style="fill:#E5BE8E;" d="M210.078,130.534V82.487c-8.371,1.505-16.827,2.57-24.946,2.892l0.004,0.009
	c0,0-5.058,0.309-5.058,4.317v40.829c0,37.255,30.878,67.6,68.093,65.864c4.127-0.193,8.15-0.78,12.041-1.707
	C231.528,187.809,210.078,161.579,210.078,130.534z"/>
<g>
	<path style="fill:#D3D0D4;" d="M320.189,319.035v-49.158c0-4.2-3.404-7.603-7.603-7.603s-7.603,3.404-7.603,7.603v49.158H320.189z"
		/>
	<path style="fill:#D3D0D4;" d="M184.939,269.877c0-4.2-3.404-7.603-7.603-7.603s-7.603,3.404-7.603,7.603v49.158h15.207v-49.158
		H184.939z"/>
</g>
<circle style="fill:#5C515E;" cx="377.35" cy="234.28" r="84.76"/>
<path style="fill:#4A404E;" d="M349.846,250.156c-18.776-32.52-13.532-72.298,10.198-98.849c-8.594,1.794-17.056,4.941-25.074,9.57
	c-40.538,23.405-54.427,75.241-31.023,115.779s75.241,54.427,115.779,31.023c8.018-4.629,14.975-10.384,20.825-16.93
	C405.692,298.025,368.621,282.677,349.846,250.156z"/>
<circle style="fill:#E8E6E9;" cx="377.35" cy="234.28" r="58.652"/>
<path style="fill:#D3D0D4;" d="M398.733,288.891c-19.911-6.005-37.667-19.3-48.887-38.734
	c-11.217-19.428-13.855-41.446-9.106-61.688c-13.432,10.748-22.045,27.269-22.045,45.81c0,32.393,26.259,58.652,58.652,58.652
	C384.896,292.931,392.104,291.489,398.733,288.891z"/>
<path style="fill:#FD6874;" d="M377.347,175.627v58.652h58.652C435.999,201.886,409.74,175.627,377.347,175.627z"/>
<g>
	<path style="fill:#5C515E;" d="M377.347,248.666c-4.074,0-7.376-3.302-7.376-7.376v-51.751c0-4.074,3.302-7.376,7.376-7.376
		s7.376,3.302,7.376,7.376v51.751C384.723,245.363,381.421,248.666,377.347,248.666z"/>
	<path style="fill:#5C515E;" d="M405.459,241.655h-35.406c-4.074,0-7.376-3.302-7.376-7.376s3.302-7.376,7.376-7.376h35.406
		c4.074,0,7.376,3.302,7.376,7.376C412.836,238.352,409.533,241.655,405.459,241.655z"/>
</g>
<g>
</g>
<g>
</g>
<g>
</g>
<g>
</g>
<g>
</g>
<g>
</g>
<g>
</g>
<g>
</g>
<g>
</g>
<g>
</g>
<g>
</g>
<g>
</g>
<g>
</g>
<g>
</g>
<g>
</g>
</svg>
