<?xml version="1.0" encoding="iso-8859-1"?>
<!-- Generator: Adobe Illustrator 19.0.0, SVG Export Plug-In . SVG Version: 6.00 Build 0)  -->
<svg version="1.1" id="Capa_1" xmlns="http://www.w3.org/2000/svg" xmlns:xlink="http://www.w3.org/1999/xlink" x="0px" y="0px"
	 viewBox="0 0 511.999 511.999" style="enable-background:new 0 0 511.999 511.999;" xml:space="preserve">
<circle style="fill:#F9AA2B;" cx="256" cy="255.693" r="255.693"/>
<path style="fill:#A87B69;" d="M255.997,84.03c-131.909,0-238.677,106.75-238.677,238.677c0,9.879,0.599,19.665,1.774,29.321
	c38.045,93.463,129.772,159.358,236.903,159.358c107.132,0,198.858-65.895,236.903-159.358c1.176-9.654,1.774-19.442,1.774-29.321
	C494.675,190.799,387.925,84.03,255.997,84.03z"/>
<g>
	<path style="fill:#8D6451;" d="M146.218,259.14c0-61.884,24.099-120.063,67.856-163.822c3.147-3.147,6.377-6.181,9.67-9.122
		C107.701,101.777,17.32,201.211,17.32,322.708c0,9.879,0.599,19.665,1.774,29.321c38.044,93.462,129.771,159.357,236.902,159.357
		c36.448,0,71.11-7.634,102.484-21.379C240.853,480.309,146.218,381.875,146.218,259.14z"/>
	<path style="fill:#8D6451;" d="M86.765,447.349c45.089,39.843,104.331,64.037,169.232,64.037
		c64.902,0,124.144-24.194,169.233-64.038c26.554-35.896,40.906-79.165,40.906-124.64c0-116.137-93.985-210.138-210.139-210.138
		c-116.137,0-210.138,93.985-210.138,210.138C45.859,368.184,60.21,411.452,86.765,447.349z"/>
</g>
<path style="fill:#825A4A;" d="M358.48,490.006c-117.629-9.698-212.263-108.131-212.263-230.868
	c0-49.619,15.507-96.85,44.206-136.182C108.174,149.863,45.859,227.77,45.859,322.706c0,45.474,14.35,88.741,40.903,124.636
	c45.156,39.982,104.685,64.043,169.235,64.043C290.925,511.386,325.519,504.338,358.48,490.006z"/>
<path style="fill:#E8E6E9;" d="M255.997,141.109c-100.364,0-181.599,81.221-181.599,181.599c0,100.364,81.219,181.6,181.599,181.6
	c100.365,0,181.6-81.22,181.6-181.6C437.595,222.343,356.375,141.109,255.997,141.109z"/>
<g>
	<path style="fill:#D3D0D4;" d="M146.218,259.14c0-33.048,6.879-65.039,19.948-94.343c-55.012,31.41-91.769,90.31-91.769,157.909
		c0,100.367,81.222,181.6,181.599,181.6c27.513,0,54.088-6.083,78.2-17.601C228.412,466.628,146.218,373.472,146.218,259.14z"/>
	<circle style="fill:#D3D0D4;" cx="255.73" cy="323.821" r="96.274"/>
</g>
<path style="fill:#BDB9BE;" d="M212.192,348.957c-22.62-39.179-14.564-87.645,16.705-117.607c-7.286,2.12-14.439,5.135-21.304,9.099
	c-46.046,26.584-61.822,85.462-35.238,131.507c31.16,53.97,104.839,64.645,150.04,21.336
	C280.813,405.393,234.813,388.136,212.192,348.957z"/>
<path style="fill:#FD6874;" d="M255.998,141.109V302.97c11.453,0.056,20.754,9.385,20.754,20.851c0,3.597-0.916,6.983-2.525,9.94
	l139.095,79.778c15.828-27.312,24.273-58.422,24.273-90.833C437.595,222.343,356.376,141.11,255.998,141.109z"/>
<g>
	<path style="fill:#5C515E;" d="M255.997,133.416c-4.249,0-7.693,3.444-7.693,7.693v11.804c0,4.249,3.444,7.693,7.693,7.693
		c4.249,0,7.693-3.444,7.693-7.693v-11.804C263.69,136.86,260.245,133.416,255.997,133.416z"/>
	<path style="fill:#5C515E;" d="M255.997,484.809c-4.249,0-7.693,3.444-7.693,7.693v11.805c0,4.249,3.444,7.693,7.693,7.693
		c4.249,0,7.693-3.444,7.693-7.693v-11.805C263.69,488.253,260.245,484.809,255.997,484.809z"/>
	<path style="fill:#5C515E;" d="M171.86,161.592c-2.124-3.681-6.83-4.938-10.508-2.816c-3.68,2.124-4.94,6.83-2.816,10.508
		l5.903,10.224c2.13,3.691,6.839,4.934,10.508,2.816c3.68-2.124,4.94-6.83,2.816-10.508L171.86,161.592z"/>
	<path style="fill:#5C515E;" d="M347.557,465.907c-2.125-3.681-6.83-4.939-10.508-2.816c-3.68,2.124-4.94,6.83-2.816,10.508
		l5.902,10.223c1.425,2.468,4.011,3.847,6.669,3.847c1.305,0,2.628-0.333,3.839-1.032c3.68-2.124,4.94-6.83,2.816-10.508
		L347.557,465.907z"/>
	<path style="fill:#5C515E;" d="M112.798,231.148l-10.223-5.903c-3.68-2.122-8.385-0.864-10.509,2.816
		c-2.124,3.68-0.864,8.384,2.816,10.508l10.223,5.903c3.676,2.12,8.382,0.869,10.509-2.816
		C117.738,237.978,116.477,233.273,112.798,231.148z"/>
	<path style="fill:#5C515E;" d="M417.113,406.844l-10.223-5.902c-3.68-2.124-8.385-0.866-10.508,2.816
		c-2.124,3.68-0.864,8.384,2.816,10.508l10.223,5.902c3.664,2.114,8.375,0.88,10.508-2.816
		C422.053,413.674,420.792,408.969,417.113,406.844z"/>
	<path style="fill:#5C515E;" d="M93.895,322.707c0-4.249-3.444-7.693-7.693-7.693H74.398c-4.249,0-7.693,3.444-7.693,7.693
		c0,4.249,3.444,7.693,7.693,7.693h11.805C90.451,330.401,93.895,326.957,93.895,322.707z"/>
	<path style="fill:#5C515E;" d="M437.595,315.015h-11.805c-4.249,0-7.693,3.444-7.693,7.693c0,4.249,3.444,7.693,7.693,7.693h11.805
		c4.249,0,7.693-3.444,7.693-7.693C445.289,318.458,441.844,315.015,437.595,315.015z"/>
	<path style="fill:#5C515E;" d="M105.104,400.942l-10.223,5.902c-3.68,2.124-4.94,6.83-2.816,10.508
		c2.13,3.691,6.839,4.934,10.508,2.816l10.223-5.902c3.68-2.124,4.94-6.83,2.816-10.508
		C113.488,400.078,108.783,398.819,105.104,400.942z"/>
	<path style="fill:#5C515E;" d="M406.89,244.473l10.223-5.903c3.68-2.124,4.94-6.83,2.816-10.508
		c-2.125-3.68-6.83-4.939-10.509-2.816l-10.223,5.903c-3.68,2.124-4.94,6.83-2.816,10.508
		C398.516,245.355,403.228,246.587,406.89,244.473z"/>
	<path style="fill:#5C515E;" d="M174.947,463.092c-3.68-2.122-8.384-0.865-10.509,2.816l-5.903,10.223
		c-2.124,3.68-0.864,8.384,2.816,10.508c1.213,0.699,2.534,1.032,3.84,1.032c2.658,0,5.245-1.379,6.669-3.847l5.903-10.223
		C179.887,469.922,178.626,465.216,174.947,463.092z"/>
	<path style="fill:#5C515E;" d="M337.048,182.324c3.676,2.12,8.382,0.869,10.508-2.816l5.902-10.224
		c2.124-3.681,0.864-8.385-2.816-10.508c-3.683-2.123-8.385-0.864-10.508,2.816l-5.902,10.224
		C332.107,175.495,333.369,180.2,337.048,182.324z"/>
</g>
<g>
	<path style="fill:#7E777F;" d="M255.768,315.354c-4.249,0-7.693-3.444-7.693-7.693V182.254c0-4.249,3.444-7.693,7.693-7.693
		c4.249,0,7.693,3.444,7.693,7.693V307.66C263.462,311.91,260.017,315.354,255.768,315.354z"/>
	<path style="fill:#7E777F;" d="M346.789,383.077c-1.298,0-2.614-0.329-3.82-1.021l-73.935-42.405
		c-3.686-2.113-4.96-6.816-2.846-10.5s6.816-4.958,10.5-2.846l73.935,42.405c3.686,2.113,4.96,6.816,2.846,10.5
		C352.049,381.689,349.456,383.077,346.789,383.077z"/>
</g>
<path id="SVGCleanerId_0" style="fill:#5C515E;" d="M255.768,347.674c-13.153,0-23.853-10.7-23.853-23.853
	s10.701-23.853,23.853-23.853c13.153,0,23.854,10.7,23.854,23.853C279.621,336.975,268.921,347.674,255.768,347.674z
	 M255.768,315.354c-4.669,0-8.468,3.798-8.468,8.468c0,4.669,3.798,8.468,8.468,8.468c4.669,0,8.468-3.798,8.468-8.468
	C264.236,319.153,260.437,315.354,255.768,315.354z"/>
<g>
	<path id="SVGCleanerId_0_1_" style="fill:#5C515E;" d="M255.768,347.674c-13.153,0-23.853-10.7-23.853-23.853
		s10.701-23.853,23.853-23.853c13.153,0,23.854,10.7,23.854,23.853C279.621,336.975,268.921,347.674,255.768,347.674z
		 M255.768,315.354c-4.669,0-8.468,3.798-8.468,8.468c0,4.669,3.798,8.468,8.468,8.468c4.669,0,8.468-3.798,8.468-8.468
		C264.236,319.153,260.437,315.354,255.768,315.354z"/>
</g>
<path style="fill:#5C515E;" d="M255.997,133.416c-104.616,0-189.292,84.662-189.292,189.291
	c0,94.976,69.545,172.594,159.032,186.889c9.926,1.171,20.02,1.791,30.261,1.791c10.24,0,20.333-0.62,30.258-1.79
	c89.403-14.281,159.034-91.832,159.034-186.889C445.289,218.089,360.627,133.416,255.997,133.416z M255.997,496.613
	c-96.112,0-173.905-77.782-173.905-173.907c0-96.114,77.781-173.905,173.905-173.905c96.114,0,173.906,77.779,173.906,173.905
	C429.903,418.821,352.121,496.613,255.997,496.613z"/>
<g>
</g>
<g>
</g>
<g>
</g>
<g>
</g>
<g>
</g>
<g>
</g>
<g>
</g>
<g>
</g>
<g>
</g>
<g>
</g>
<g>
</g>
<g>
</g>
<g>
</g>
<g>
</g>
<g>
</g>
</svg>
