<?xml version="1.0" encoding="iso-8859-1"?>
<!-- Generator: Adobe Illustrator 19.0.0, SVG Export Plug-In . SVG Version: 6.00 Build 0)  -->
<svg version="1.1" id="Capa_1" xmlns="http://www.w3.org/2000/svg" xmlns:xlink="http://www.w3.org/1999/xlink" x="0px" y="0px"
	 viewBox="0 0 512 512" style="enable-background:new 0 0 512 512;" xml:space="preserve">
<circle style="fill:#37AEE2;" cx="256" cy="261.83" r="250.17"/>
<path style="fill:#E8E6E9;" d="M399.15,344.689H257.67v-41.876c0-4.322-3.503-7.824-7.824-7.824c-4.321,0-7.824,3.503-7.824,7.824
	v41.876H100.517c-9.603,0-17.415,7.812-17.415,17.415v40.11c0,4.322,3.503,7.824,7.824,7.824s7.824-3.503,7.824-7.824v-40.11
	c0-0.974,0.792-1.767,1.766-1.767h141.505v41.876c0,4.322,3.503,7.824,7.824,7.824c4.321,0,7.824-3.503,7.824-7.824v-41.876H399.15
	c0.988,0,1.792,0.804,1.792,1.792v40.084c0,4.322,3.503,7.824,7.824,7.824s7.824-3.503,7.824-7.824V362.13
	C416.59,352.514,408.766,344.689,399.15,344.689z"/>
<path style="fill:#42D197;" d="M112.591,402.215H58.595c-2.956,0-5.707,0.893-8.016,2.411
	c20.001,28.719,45.858,53.054,75.858,71.251c0.56-1.547,0.88-3.205,0.88-4.94v-53.996
	C127.317,408.841,120.69,402.215,112.591,402.215z"/>
<path style="fill:#2FBA7E;" d="M88.948,416.941c0-8.099,6.627-14.726,14.726-14.726H58.595c-2.956,0-5.707,0.893-8.016,2.411
	c11.086,15.917,23.977,30.481,38.369,43.407V416.941z"/>
<path style="fill:#FD6874;" d="M276.511,485.663h-53.996c-8.099,0-14.726-6.627-14.726-14.726v-53.996
	c0-8.099,6.627-14.726,14.726-14.726h53.996c8.099,0,14.726,6.627,14.726,14.726v53.996
	C291.237,479.036,284.61,485.663,276.511,485.663z"/>
<path style="fill:#DD4C5B;" d="M250.751,470.937v-53.996c0-8.099,6.627-14.726,14.726-14.726h-42.963
	c-8.099,0-14.726,6.627-14.726,14.726v53.996c0,8.099,6.627,14.726,14.726,14.726h42.963
	C257.378,485.663,250.751,479.036,250.751,470.937z"/>
<path style="fill:#FED652;" d="M445.156,425.56v-8.619c0-8.099-6.627-14.726-14.726-14.726h-53.996
	c-8.099,0-14.726,6.627-14.726,14.726v53.996c0,5.956,3.59,11.105,8.707,13.419C398.962,469.648,424.317,449.615,445.156,425.56z"/>
<path style="fill:#FEBE40;" d="M404.18,416.941c0-8.099,6.627-14.726,14.726-14.726h-42.472c-8.099,0-14.726,6.627-14.726,14.726
	v53.996c0,5.956,3.59,11.105,8.707,13.419c11.839-6.099,23.118-13.128,33.765-20.966V416.941z"/>
<g>
	<path style="fill:#E8E6E9;" d="M121.662,415.401l-32.673,32.674c3.895,3.495,7.897,6.875,12.007,10.124l31.731-31.731
		c3.056-3.056,3.056-8.009,0-11.066C129.672,412.347,124.717,412.347,121.662,415.401z"/>
	<path style="fill:#E8E6E9;" d="M252.47,467.404L252.47,467.404c-2.075,0-4.065-0.824-5.533-2.292l-20.298-20.299
		c-3.056-3.055-3.055-8.01,0-11.065c3.056-3.054,8.01-3.055,11.065,0.001l14.766,14.766l33.112-33.113
		c3.055-3.054,8.01-3.054,11.065,0c3.056,3.056,3.056,8.01,0,11.066l-38.645,38.645C256.535,466.579,254.545,467.404,252.47,467.404
		z"/>
	<path style="fill:#E8E6E9;" d="M451.976,417.323c-0.36-0.691-0.829-1.341-1.409-1.921c-3.055-3.054-8.01-3.054-11.065,0
		l-33.112,33.113l-14.765-14.766c-3.056-3.056-8.01-3.055-11.066-0.001c-3.055,3.055-3.056,8.01,0,11.065l20.298,20.3
		c0.138,0.138,0.286,0.266,0.433,0.392C420.354,451.88,437.419,435.644,451.976,417.323z"/>
	<path style="fill:#E8E6E9;" d="M340.91,56.98V33.808H171.09V56.98c0,40.153,27.872,73.791,65.324,82.634
		c5.528,1.305,9.472,6.177,9.472,11.856l0,0c0,5.605-3.891,10.42-9.348,11.699c-37.514,8.798-65.448,42.466-65.448,82.663v23.172
		h169.82v-23.172c0-40.252-28.011-73.958-65.603-82.699c-5.369-1.248-9.193-5.992-9.193-11.504l0,0
		c0-5.773,4.011-10.715,9.627-12.052C313.115,130.679,340.91,97.078,340.91,56.98z"/>
</g>
<path style="fill:#D3D0D4;" d="M253.156,163.17c1.961-1.28,3.36-6.095,3.36-11.7l0,0c0-5.68-1.418-10.551-3.404-11.856
	c-13.461-8.843-23.479-42.481-23.479-82.634V33.808H171.09V56.98c0,40.153,27.872,73.791,65.324,82.634
	c5.528,1.305,9.472,6.176,9.472,11.856l0,0c0,5.605-3.891,10.42-9.348,11.7c-37.514,8.798-65.448,42.465-65.448,82.663v23.173
	h58.543v-23.173C229.633,205.636,239.673,171.968,253.156,163.17z"/>
<path style="fill:#FFF6D4;" d="M182.599,99.655c11.549,19.817,30.878,34.543,53.815,39.959c5.507,1.3,9.44,6.14,9.469,11.793h20.241
	c0.102-5.676,4.074-10.51,9.617-11.829c22.869-5.445,42.137-20.149,53.66-39.922H182.599V99.655z"/>
<path style="fill:#FFE693;" d="M182.603,99.663c11.809,20.26,31.426,34.665,53.799,39.948c0.004,0.001,0.008,0.003,0.011,0.003
	c5.418,1.283,9.439,6.05,9.469,11.792h10.632c-0.011-5.652-1.424-10.493-3.404-11.792c-8.244-5.416-15.191-20.142-19.342-39.959
	h-51.17C182.6,99.658,182.602,99.66,182.603,99.663z"/>
<path style="fill:#FFF6D4;" d="M332.481,208.95H179.519c-5.391,11.156-8.429,23.662-8.429,36.883v23.172h169.82v-23.172
	C340.91,232.612,337.872,220.106,332.481,208.95z"/>
<path style="fill:#FFE693;" d="M229.633,245.833c0-13.222,1.092-25.727,3.03-36.883H179.52c-5.76,11.919-8.429,24.602-8.429,36.883
	v23.173h58.543v-23.173H229.633z"/>
<g>
	<path style="fill:#FEBE40;" d="M348.69,302.813H163.31c-9.336,0-16.904-8.004-16.904-17.876c0-9.873,7.568-17.876,16.904-17.876
		h185.38c9.336,0,16.904,8.004,16.904,17.876C365.594,294.81,358.025,302.813,348.69,302.813z"/>
	<path style="fill:#FEBE40;" d="M348.69,35.753H163.31c-9.336,0-16.904-8.004-16.904-17.876S153.975,0,163.31,0h185.38
		c9.336,0,16.904,8.004,16.904,17.876S358.025,35.753,348.69,35.753z"/>
</g>
<g>
	<path style="fill:#F9AA2B;" d="M216.055,284.937c0-9.873,7.568-17.876,16.904-17.876H163.31c-9.336,0-16.904,8.004-16.904,17.876
		c0,9.873,7.568,17.876,16.904,17.876h69.649C223.624,302.813,216.055,294.81,216.055,284.937z"/>
	<path style="fill:#F9AA2B;" d="M216.055,17.876C216.055,8.004,223.624,0,232.959,0H163.31c-9.336,0-16.904,8.004-16.904,17.876
		c0,9.873,7.568,17.876,16.904,17.876h69.649C223.624,35.753,216.055,27.749,216.055,17.876z"/>
</g>
<g>
</g>
<g>
</g>
<g>
</g>
<g>
</g>
<g>
</g>
<g>
</g>
<g>
</g>
<g>
</g>
<g>
</g>
<g>
</g>
<g>
</g>
<g>
</g>
<g>
</g>
<g>
</g>
<g>
</g>
</svg>
