<?xml version="1.0" encoding="iso-8859-1"?>
<!-- Generator: Adobe Illustrator 19.0.0, SVG Export Plug-In . SVG Version: 6.00 Build 0)  -->
<svg version="1.1" id="Capa_1" xmlns="http://www.w3.org/2000/svg" xmlns:xlink="http://www.w3.org/1999/xlink" x="0px" y="0px"
	 viewBox="0 0 512 512" style="enable-background:new 0 0 512 512;" xml:space="preserve">
<circle style="fill:#FD6874;" cx="256" cy="256" r="256"/>
<path style="fill:#E8E6E9;" d="M470.697,253.036c-2.322-0.395-4.164-2.138-4.74-4.421c-5.166-20.451-13.251-39.739-23.778-57.402
	c-1.211-2.031-1.133-4.577,0.244-6.5l35.145-49.063c1.685-2.353,1.42-5.58-0.626-7.626l-46.758-46.758
	c-2.039-2.039-5.251-2.311-7.603-0.643l-49.329,34.98c-1.92,1.362-4.452,1.434-6.474,0.229
	c-17.673-10.525-36.968-18.607-57.428-23.768c-2.284-0.577-4.028-2.418-4.424-4.741l-10.15-59.639
	c-0.484-2.842-2.947-4.922-5.831-4.922h-66.126c-2.894,0-5.363,2.094-5.834,4.949l-9.874,59.738
	c-0.385,2.33-2.126,4.182-4.413,4.765c-20.346,5.192-39.535,13.271-57.113,23.772c-2.023,1.209-4.559,1.139-6.481-0.225
	L89.729,80.752c-2.351-1.668-5.563-1.396-7.602,0.642l-46.758,46.758c-2.046,2.046-2.311,5.273-0.626,7.626l35.272,49.242
	c1.375,1.92,1.456,4.461,0.25,6.491c-10.422,17.551-18.433,36.7-23.571,56.995c-0.578,2.282-2.419,4.023-4.739,4.419l-41.904,7.132
	c0.487,31.301,6.581,61.239,17.339,88.849l24.565,4.181c2.32,0.395,4.161,2.137,4.739,4.419
	c5.138,20.295,13.149,39.444,23.571,56.994c1.206,2.031,1.125,4.572-0.25,6.492l-4.397,6.139C112.479,479.229,180.409,512,256,512
	c75.656,0,143.637-32.828,190.503-85.006l-4.08-5.696c-1.377-1.922-1.455-4.468-0.244-6.499
	c10.527-17.664,18.612-36.951,23.778-57.402c0.577-2.284,2.418-4.026,4.74-4.421l23.912-4.07
	c10.758-27.61,16.852-57.548,17.339-88.848L470.697,253.036z"/>
<path style="fill:#D3D0D4;" d="M372.367,458.398c-60.33,0-117.05-23.494-159.711-66.154c-42.66-42.661-66.154-99.381-66.154-159.712
	c0-50.456,16.443-98.38,46.777-137.673c-16.863,5.133-32.854,12.264-47.693,21.129c-2.023,1.209-4.559,1.139-6.481-0.225
	L89.729,80.752c-2.351-1.668-5.563-1.396-7.602,0.642l-46.758,46.758c-2.046,2.046-2.311,5.273-0.626,7.626l35.272,49.242
	c1.375,1.92,1.456,4.461,0.25,6.491c-10.422,17.551-18.433,36.7-23.571,56.995c-0.578,2.282-2.419,4.023-4.739,4.419l-41.904,7.132
	c0.487,31.301,6.581,61.239,17.339,88.849l24.565,4.181c2.32,0.395,4.161,2.137,4.739,4.419
	c5.138,20.295,13.149,39.444,23.571,56.994c1.206,2.031,1.125,4.572-0.25,6.492l-4.397,6.139C112.479,479.229,180.409,512,256,512
	c61.779,0,118.434-21.897,162.659-58.337C403.597,456.784,388.107,458.398,372.367,458.398z"/>
<path style="fill:#7E777F;" d="M256,466.011c-90.155,0-163.501-73.347-163.501-163.501c0-90.156,73.347-163.504,163.501-163.504
	c90.156,0,163.503,73.348,163.503,163.504C419.503,392.665,346.156,466.011,256,466.011z"/>
<path style="fill:#5C515E;" d="M320.956,452.54c-40.688-9.426-78.034-30.031-108.3-60.297
	c-42.66-42.661-66.154-99.381-66.154-159.712c0-19.716,2.522-39.041,7.391-57.62C116.494,204.901,92.5,250.953,92.5,302.51
	c0,90.155,73.347,163.501,163.501,163.501C279.07,466.011,301.034,461.199,320.956,452.54z"/>
<path style="fill:#E8E6E9;" d="M256,173.593c-71.084,0-128.915,57.832-128.915,128.917c0,71.084,57.831,128.915,128.915,128.915
	c71.085,0,128.916-57.831,128.916-128.915C384.916,231.425,327.085,173.593,256,173.593z"/>
<g>
	<path style="fill:#D3D0D4;" d="M264.593,431.131c-18.85-10.262-36.337-23.287-51.938-38.887
		c-42.192-42.193-65.621-98.141-66.13-157.731c-12.313,19.753-19.44,43.057-19.44,67.998c0,71.083,57.831,128.915,128.915,128.915
		C258.888,431.425,261.752,431.319,264.593,431.131z"/>
	<circle style="fill:#D3D0D4;" cx="256" cy="302.51" r="68.49"/>
</g>
<path style="fill:#BDB9BE;" d="M220.888,322.781c-16.518-28.61-10.044-64.182,13.684-85.331c-4.374,1.446-8.668,3.353-12.815,5.747
	c-32.757,18.912-43.98,60.799-25.068,93.556c21.688,37.564,72.464,45.789,104.94,16.844
	C271.449,363.571,237.406,351.391,220.888,322.781z"/>
<path style="fill:#FD6874;" d="M256.002,173.593v109.985c10.455,0,18.93,8.476,18.93,18.931c0,3.424-0.923,6.628-2.513,9.399
	l95.437,54.641c10.85-18.878,17.06-40.747,17.06-64.039C384.916,231.426,327.086,173.594,256.002,173.593z"/>
<g>
	<path style="fill:#5C515E;" d="M256.001,199.889c4.977,0,9.011-4.034,9.011-9.011v-9.801c0-4.977-4.035-9.011-9.011-9.011
		c-4.977,0-9.012,4.034-9.012,9.011v9.801C246.989,195.855,251.024,199.889,256.001,199.889z"/>
	<path style="fill:#5C515E;" d="M256.001,404.136c-4.977,0-9.012,4.034-9.012,9.012v9.801c0,4.977,4.035,9.011,9.012,9.011
		s9.011-4.034,9.011-9.011v-9.801C265.012,408.17,260.978,404.136,256.001,404.136z"/>
	<path style="fill:#5C515E;" d="M320.974,189.475c-4.309-2.488-9.822-1.013-12.31,3.298l-4.9,8.488
		c-2.488,4.311-1.011,9.822,3.299,12.31c4.282,2.472,9.806,1.039,12.31-3.298l4.9-8.488
		C326.761,197.473,325.284,191.962,320.974,189.475z"/>
	<path style="fill:#5C515E;" d="M204.939,390.454c-4.31-2.489-9.822-1.013-12.31,3.298l-4.901,8.488
		c-2.489,4.31-1.012,9.821,3.298,12.31c4.291,2.476,9.81,1.031,12.31-3.298l4.901-8.488
		C210.726,398.454,209.249,392.943,204.939,390.454z"/>
	<path style="fill:#5C515E;" d="M356.752,254.249l8.488-4.9c4.31-2.488,5.788-7.999,3.299-12.31
		c-2.489-4.31-8.001-5.787-12.31-3.298l-8.488,4.9c-4.31,2.488-5.788,7.999-3.3,12.31
		C346.943,255.282,352.462,256.726,356.752,254.249z"/>
	<path style="fill:#5C515E;" d="M155.249,349.776l-8.488,4.901c-4.31,2.489-5.786,8-3.298,12.311
		c2.498,4.324,8.013,5.777,12.31,3.297l8.488-4.901c4.31-2.489,5.786-8,3.298-12.311
		C165.07,348.764,159.558,347.288,155.249,349.776z"/>
	<path style="fill:#5C515E;" d="M376.937,293.001h-9.801c-4.977,0-9.012,4.034-9.012,9.012c0,4.977,4.035,9.011,9.012,9.011h9.801
		c4.977,0,9.012-4.034,9.012-9.011C385.949,297.035,381.914,293.001,376.937,293.001z"/>
	<path style="fill:#5C515E;" d="M153.877,302.013c0-4.977-4.035-9.012-9.012-9.012h-9.801c-4.977,0-9.011,4.034-9.011,9.012
		c0,4.977,4.035,9.011,9.011,9.011h9.801C149.843,311.024,153.877,306.99,153.877,302.013z"/>
	<path style="fill:#5C515E;" d="M365.241,354.677l-8.488-4.901c-4.31-2.485-9.822-1.013-12.31,3.298
		c-2.489,4.31-1.012,9.821,3.298,12.31l8.488,4.901c4.306,2.484,9.818,1.018,12.31-3.298
		C371.027,362.677,369.551,357.166,365.241,354.677z"/>
	<path style="fill:#5C515E;" d="M146.762,249.349l8.488,4.9c4.305,2.484,9.819,1.018,12.31-3.298
		c2.489-4.311,1.011-9.822-3.298-12.31l-8.488-4.9c-4.312-2.489-9.822-1.013-12.31,3.298
		C140.974,241.35,142.452,246.862,146.762,249.349z"/>
	<path style="fill:#5C515E;" d="M319.373,393.753c-2.489-4.31-8.001-5.787-12.31-3.298c-4.31,2.488-5.788,7.999-3.299,12.31
		l4.9,8.488c2.501,4.331,8.021,5.775,12.31,3.298c4.31-2.488,5.788-7.999,3.3-12.31L319.373,393.753z"/>
	<path style="fill:#5C515E;" d="M203.337,192.773c-2.489-4.311-8-5.785-12.31-3.298c-4.31,2.489-5.787,8-3.298,12.31l4.901,8.488
		c2.496,4.323,8.011,5.779,12.31,3.298c4.31-2.489,5.787-8,3.298-12.31L203.337,192.773z"/>
	<path style="fill:#5C515E;" d="M256,440.436c-76.053,0-137.926-61.873-137.926-137.926c0-76.054,61.873-137.929,137.926-137.929
		s137.927,61.874,137.927,137.929C393.928,378.563,332.053,440.436,256,440.436z M256,182.604
		c-66.115,0-119.903,53.79-119.903,119.906c0,66.115,53.788,119.903,119.903,119.903s119.905-53.789,119.905-119.903
		C375.905,236.394,322.116,182.604,256,182.604z"/>
</g>
<g>
	<path style="fill:#7E777F;" d="M256.002,292.591c-4.977,0-9.012-4.034-9.012-9.012v-66.396c0-4.977,4.035-9.011,9.012-9.011
		s9.012,4.034,9.012,9.011v66.396C265.014,288.556,260.979,292.591,256.002,292.591z"/>
	<path style="fill:#7E777F;" d="M310.793,344.261l-42.522-25.509c-4.268-2.56-5.652-8.096-3.092-12.364
		c2.56-4.266,8.094-5.652,12.364-3.092l42.522,25.509c4.268,2.56,5.652,8.096,3.092,12.364
		C320.605,345.422,315.076,346.829,310.793,344.261z"/>
</g>
<path style="fill:#5C515E;" d="M256.001,330.451c-15.407,0-27.942-12.534-27.942-27.941c0-15.408,12.535-27.942,27.942-27.942
	c15.408,0,27.942,12.534,27.942,27.942C283.944,317.917,271.409,330.451,256.001,330.451z M256.001,292.591
	c-5.469,0-9.919,4.449-9.919,9.919s4.449,9.918,9.919,9.918s9.919-4.449,9.919-9.918S261.471,292.591,256.001,292.591z"/>
<g>
</g>
<g>
</g>
<g>
</g>
<g>
</g>
<g>
</g>
<g>
</g>
<g>
</g>
<g>
</g>
<g>
</g>
<g>
</g>
<g>
</g>
<g>
</g>
<g>
</g>
<g>
</g>
<g>
</g>
</svg>
