<?xml version="1.0" encoding="iso-8859-1"?>
<!-- Generator: Adobe Illustrator 19.0.0, SVG Export Plug-In . SVG Version: 6.00 Build 0)  -->
<svg version="1.1" id="Capa_1" xmlns="http://www.w3.org/2000/svg" xmlns:xlink="http://www.w3.org/1999/xlink" x="0px" y="0px"
	 viewBox="0 0 512 512" style="enable-background:new 0 0 512 512;" xml:space="preserve">
<circle style="fill:#37AEE2;" cx="256" cy="257.27" r="254.73"/>
<path style="fill:#E8E6E9;" d="M396.325,341.644H252.27v-42.639c0-4.4-3.567-7.967-7.967-7.967s-7.967,3.566-7.967,7.967v42.639
	H92.256c-9.777,0-17.732,7.954-17.732,17.732v40.84c0,4.4,3.567,7.967,7.967,7.967s7.967-3.566,7.967-7.967v-40.84
	c0-0.992,0.807-1.799,1.798-1.799h144.081v42.639c0,4.4,3.567,7.967,7.967,7.967s7.967-3.566,7.967-7.967v-42.639h144.054
	c1.006,0,1.824,0.818,1.824,1.825v40.814c0,4.4,3.567,7.967,7.967,7.967s7.967-3.566,7.967-7.967v-40.814
	C414.082,349.611,406.116,341.644,396.325,341.644z"/>
<path style="fill:#42D197;" d="M109.981,400.216H55.002c-3.01,0-5.81,0.909-8.162,2.454c20.365,29.241,46.692,54.019,77.238,72.548
	c0.57-1.575,0.896-3.264,0.896-5.03V415.21C124.975,406.964,118.227,400.216,109.981,400.216z"/>
<path style="fill:#2EBC7F;" d="M81.34,415.211c0-8.247,6.748-14.994,14.994-14.994H55.002c-3.01,0-5.811,0.909-8.162,2.454
	c10.103,14.506,21.676,27.909,34.5,40.001V415.211z"/>
<path style="fill:#FD6874;" d="M271.793,485.183h-54.979c-8.247,0-14.994-6.747-14.994-14.994V415.21
	c0-8.247,6.747-14.994,14.994-14.994h54.979c8.247,0,14.994,6.747,14.994,14.994v54.979
	C286.787,478.436,280.04,485.183,271.793,485.183z"/>
<path style="fill:#DD4C5B;" d="M243.688,470.189V415.21c0-8.247,6.747-14.994,14.994-14.994h-41.868
	c-8.247,0-14.994,6.747-14.994,14.994v54.979c0,8.247,6.747,14.994,14.994,14.994h41.868
	C250.436,485.183,243.688,478.436,243.688,470.189z"/>
<path style="fill:#FED652;" d="M448.599,423.987v-8.776c0-8.247-6.747-14.994-14.994-14.994h-54.979
	c-8.247,0-14.994,6.747-14.994,14.994v54.979c0,6.064,3.655,11.307,8.866,13.663C401.564,468.877,427.38,448.479,448.599,423.987z"
	/>
<path style="fill:#FEBE40;" d="M406.116,415.211c0-8.247,6.747-14.994,14.994-14.994h-42.484c-8.247,0-14.994,6.747-14.994,14.994
	v54.979c0,6.064,3.655,11.307,8.866,13.663c11.773-6.065,23.001-13.035,33.618-20.791V415.211z"/>
<g>
	<path style="fill:#E8E6E9;" d="M119.217,413.643l-33.268,33.268c3.966,3.559,8.04,7,12.225,10.308l32.309-32.309
		c3.111-3.112,3.111-8.155,0-11.267C127.372,410.533,122.328,410.533,119.217,413.643z"/>
	<path style="fill:#E8E6E9;" d="M247.315,466.592L247.315,466.592c-2.113,0-4.139-0.839-5.633-2.334l-20.668-20.669
		c-3.111-3.111-3.111-8.156,0-11.266s8.156-3.111,11.266,0.001l15.035,15.035l33.715-33.715c3.111-3.11,8.155-3.11,11.266,0
		c3.111,3.112,3.111,8.156,0,11.268l-39.348,39.348C251.454,465.753,249.428,466.592,247.315,466.592z"/>
	<path style="fill:#E8E6E9;" d="M455.543,415.6c-0.367-0.704-0.844-1.365-1.435-1.956c-3.111-3.11-8.156-3.11-11.267,0
		l-33.715,33.715l-15.034-15.035c-3.112-3.112-8.156-3.111-11.267-0.001c-3.111,3.111-3.111,8.156,0,11.266l20.667,20.669
		c0.141,0.141,0.291,0.27,0.441,0.4C423.345,450.786,440.721,434.254,455.543,415.6z"/>
	<path style="fill:#E8E6E9;" d="M415.516,2.442c-16.807,0-324.185,0-341.358,0c-8.462,0-15.322,6.86-15.322,15.322
		c0,14.28,0,262.026,0,273.089c0,8.462,6.86,15.322,15.322,15.322c40.242,0,304.398,0,341.358,0c8.462,0,15.322-6.86,15.322-15.322
		c0-11.892,0-249.503,0-273.089C430.838,9.302,423.978,2.442,415.516,2.442z"/>
</g>
<path style="fill:#D3D0D4;" d="M114.836,290.853c0-11.063,0-258.809,0-273.089c0-8.462,6.86-15.322,15.323-15.322
	c-30.323,0-51.808,0-56,0c-8.462,0-15.323,6.86-15.323,15.322c0,14.28,0,262.025,0,273.089c0,8.462,6.86,15.322,15.323,15.322
	c9.05,0,29.43,0,56,0C121.696,306.175,114.836,299.316,114.836,290.853z"/>
<path style="fill:#5C515E;" d="M430.838,15.322C430.838,6.86,423.978,0,415.516,0C312.046,0,177.71,0,74.158,0
	c-8.462,0-15.322,6.86-15.322,15.322c0,3.577,0,62.238,0,62.238l0,0l0,0h372.003C430.839,71.641,430.838,20.903,430.838,15.322z"/>
<path style="fill:#4A404E;" d="M130.18,0c-17.61,0-39.7,0-56.022,0c-8.462,0-15.323,6.86-15.323,15.322c0,3.577,0,62.238,0,62.238
	h56.022c0,0,0-58.661,0-62.238C114.857,6.86,121.717,0,130.18,0z"/>
<g>
	<path style="fill:#D3D0D4;" d="M315.755,139.238h-57.237c-5.058,0-9.158-4.099-9.158-9.158c0-5.058,4.1-9.158,9.158-9.158h57.237
		c5.058,0,9.158,4.099,9.158,9.158C324.912,135.139,320.812,139.238,315.755,139.238z"/>
	<path style="fill:#D3D0D4;" d="M377.301,181.825H258.518c-5.058,0-9.158-4.099-9.158-9.158c0-5.058,4.1-9.158,9.158-9.158h118.784
		c5.058,0,9.158,4.099,9.158,9.158C386.459,177.725,382.359,181.825,377.301,181.825z"/>
	<path style="fill:#D3D0D4;" d="M377.301,224.413H258.518c-5.058,0-9.158-4.099-9.158-9.158c0-5.058,4.1-9.158,9.158-9.158h118.784
		c5.058,0,9.158,4.099,9.158,9.158C386.459,220.313,382.359,224.413,377.301,224.413z"/>
	<path style="fill:#D3D0D4;" d="M377.301,267H258.518c-5.058,0-9.158-4.099-9.158-9.158s4.1-9.158,9.158-9.158h118.784
		c5.058,0,9.158,4.099,9.158,9.158C386.46,262.901,382.359,267,377.301,267z"/>
</g>
<path style="fill:#FED652;" d="M134.242,139.238h-13.729c-5.058,0-9.158-4.099-9.158-9.158c0-5.058,4.1-9.158,9.158-9.158h13.729
	c5.058,0,9.158,4.099,9.158,9.158C143.399,135.139,139.299,139.238,134.242,139.238z"/>
<path style="fill:#7E777F;" d="M377.301,47.938H196.414c-5.058,0-9.158-4.099-9.158-9.158s4.1-9.158,9.158-9.158h180.888
	c5.058,0,9.158,4.099,9.158,9.158S382.359,47.938,377.301,47.938z"/>
<path style="fill:#FD6874;" d="M100.7,47.939c-5.04,0-9.158-4.101-9.158-9.158c0-5.818,5.332-10.1,10.94-8.987
	c4.498,0.933,7.375,4.796,7.375,8.987C109.857,43.708,105.863,47.939,100.7,47.939z"/>
<path style="fill:#FED652;" d="M130.48,47.939c-5.173,0-9.158-4.218-9.158-9.158c0-4.277,2.963-8.074,7.363-8.987
	c5.58-1.121,10.952,3.161,10.952,8.987C139.637,43.873,135.482,47.939,130.48,47.939z"/>
<g>
	<path style="fill:#42D197;" d="M160.261,47.939c-4.989,0-9.158-4.061-9.158-9.158c0-5.876,5.427-10.1,10.94-8.987
		c4.369,0.907,7.375,4.646,7.375,8.987C169.418,43.779,165.364,47.939,160.261,47.939z"/>
	<path style="fill:#42D197;" d="M105.83,259.954h36.287v-63.708c0-1.854-1.503-3.357-3.357-3.357h-29.572
		c-1.854,0-3.357,1.503-3.357,3.357v63.708H105.83z"/>
</g>
<path style="fill:#FED652;" d="M145.475,159.355c-1.854,0-3.357,1.503-3.357,3.357v30.175v67.066h36.287v-97.241
	c0-1.854-1.503-3.357-3.357-3.357L145.475,159.355L145.475,159.355z"/>
<path style="fill:#FD6874;" d="M178.404,129.18v130.774h36.287V129.18c0-1.854-1.503-3.357-3.357-3.357h-29.572
	C179.907,125.823,178.404,127.326,178.404,129.18z"/>
<path style="fill:#FEBE40;" d="M178.404,259.954v-52.645c0-1.854-1.503-3.357-3.358-3.357h-29.572c-1.854,0-3.357,1.503-3.357,3.357
	v52.645H178.404z"/>
<path style="fill:#DD4C5B;" d="M214.691,259.954v-75.226c0-1.854-1.504-3.357-3.358-3.357h-29.572c-1.854,0-3.357,1.503-3.357,3.357
	v75.226H214.691z"/>
<path style="fill:#2EBC7F;" d="M142.117,259.954V229.89c0-1.854-1.503-3.357-3.357-3.357h-29.572c-1.855,0-3.358,1.503-3.358,3.357
	v30.063h36.287V259.954z"/>
<path style="fill:#D3D0D4;" d="M219.652,267H100.869c-5.058,0-9.158-4.099-9.158-9.158s4.1-9.158,9.158-9.158h118.784
	c5.058,0,9.158,4.099,9.158,9.158C228.811,262.901,224.71,267,219.652,267z"/>
<g>
</g>
<g>
</g>
<g>
</g>
<g>
</g>
<g>
</g>
<g>
</g>
<g>
</g>
<g>
</g>
<g>
</g>
<g>
</g>
<g>
</g>
<g>
</g>
<g>
</g>
<g>
</g>
<g>
</g>
</svg>
