<?xml version="1.0" encoding="iso-8859-1"?>
<!-- Generator: Adobe Illustrator 19.0.0, SVG Export Plug-In . SVG Version: 6.00 Build 0)  -->
<svg version="1.1" id="Capa_1" xmlns="http://www.w3.org/2000/svg" xmlns:xlink="http://www.w3.org/1999/xlink" x="0px" y="0px"
	 viewBox="0 0 512 512" style="enable-background:new 0 0 512 512;" xml:space="preserve">
<circle style="fill:#FED652;" cx="256" cy="260.38" r="251.62"/>
<path style="fill:#D3D0D4;" d="M221.042,40.35c-3.995,0-7.233-3.238-7.233-7.233V21.964c0-4.134-3.363-7.497-7.498-7.497
	s-7.498,3.363-7.498,7.497v11.153c0,3.995-3.239,7.233-7.233,7.233c-3.995,0-7.233-3.238-7.233-7.233V21.964
	C184.346,9.853,194.2,0,206.311,0s21.965,9.853,21.965,21.964v11.153C228.276,37.112,225.037,40.35,221.042,40.35z"/>
<path style="fill:#A87B69;" d="M361.732,36.752H50.926c-7.618,0-13.794,6.176-13.794,13.794v334.038
	c24.956,43.881,62.725,79.517,108.22,101.829h216.379c7.618,0,13.794-6.176,13.794-13.794V50.546
	C375.526,42.928,369.35,36.752,361.732,36.752z"/>
<path style="fill:#8D6451;" d="M95.466,50.546c0-7.618,6.176-13.794,13.794-13.794H50.926c-7.618,0-13.794,6.176-13.794,13.794
	v334.038c15.117,26.582,34.943,50.129,58.333,69.531V50.546H95.466z"/>
<path style="fill:#E8E6E9;" d="M339.08,73.536H73.647c-3.895,0-7.052,3.157-7.052,7.052V397.84
	c0,13.441,10.896,24.338,24.338,24.338h255.095V80.484C346.027,76.646,342.917,73.536,339.08,73.536z"/>
<g>
	<path style="fill:#D3D0D4;" d="M95.466,422.178V73.536H73.647c-3.895,0-7.052,3.157-7.052,7.052V397.84
		c0,13.441,10.896,24.337,24.338,24.337h4.533V422.178z"/>
	<path style="fill:#D3D0D4;" d="M122.52,378.911c-4.004,0-7.25,3.246-7.25,7.25v11.679c0,13.442-10.896,24.338-24.338,24.338
		h255.095c13.441,0,24.338-10.896,24.338-24.338v-11.87c0-3.899-3.16-7.059-7.059-7.059H122.52z"/>
</g>
<path style="fill:#5C515E;" d="M206.329,110.485c-9.489,0-17.758-5.92-20.835-14.816h-40.511c-12.158,0-22.05-9.892-22.05-22.051
	s9.892-22.05,22.05-22.05h122.654c12.158,0,22.05,9.891,22.05,22.05s-9.892,22.051-22.05,22.051h-40.474
	C224.085,104.54,215.741,110.485,206.329,110.485z M144.984,66.035c-4.181,0-7.583,3.402-7.583,7.583
	c0,4.182,3.402,7.584,7.583,7.584h41.209c5.887,0,11.184,3.886,12.881,9.451c0.964,3.16,3.947,5.366,7.256,5.366
	c3.264,0,6.154-2.076,7.192-5.165c1.939-5.773,7.307-9.651,13.357-9.651h40.76c4.181,0,7.583-3.402,7.583-7.584
	c0-4.181-3.402-7.583-7.583-7.583L144.984,66.035L144.984,66.035z"/>
<path style="fill:#D3D0D4;" d="M257.118,139.603H155.503c-3.995,0-7.233-3.238-7.233-7.233s3.239-7.233,7.233-7.233h101.615
	c3.995,0,7.233,3.238,7.233,7.233S261.113,139.603,257.118,139.603z"/>
<path style="fill:#E8E6E9;" d="M246.92,66.179h-81.218c-1.583,0-2.867-1.284-2.867-2.867V33.09c0-1.583,1.284-2.867,2.867-2.867
	h81.218c1.583,0,2.867,1.284,2.867,2.867v30.222C249.787,64.896,248.503,66.179,246.92,66.179z"/>
<path style="fill:#D3D0D4;" d="M206.311,63.312V33.09c0-1.583,1.284-2.867,2.867-2.867h-43.476c-1.583,0-2.867,1.284-2.867,2.867
	v30.222c0,1.583,1.284,2.867,2.867,2.867h43.476C207.594,66.179,206.311,64.896,206.311,63.312z"/>
<path style="fill:#53BBE7;" d="M135.35,336.261h35.702V273.58c0-1.824-1.479-3.303-3.303-3.303h-29.096
	c-1.824,0-3.303,1.479-3.303,3.303L135.35,336.261L135.35,336.261z"/>
<path style="fill:#42D197;" d="M174.356,237.284c-1.824,0-3.303,1.479-3.303,3.303v29.689v65.985h35.702v-95.674
	c0-1.824-1.479-3.303-3.303-3.303L174.356,237.284L174.356,237.284z"/>
<path style="fill:#FED652;" d="M206.755,207.595v128.667h35.702V207.595c0-1.824-1.479-3.303-3.303-3.303h-29.096
	C208.234,204.291,206.755,205.77,206.755,207.595z"/>
<path style="fill:#FC5B6F;" d="M242.458,174.602v161.659h35.702V174.602c0-1.824-1.479-3.303-3.303-3.303h-29.096
	C243.937,171.299,242.458,172.778,242.458,174.602z"/>
<path style="fill:#2EBC7F;" d="M206.755,336.261v-51.796c0-1.824-1.479-3.303-3.304-3.303h-29.096c-1.824,0-3.303,1.479-3.303,3.303
	v51.796H206.755z"/>
<path style="fill:#FEBE40;" d="M242.458,336.261v-74.014c0-1.824-1.479-3.303-3.304-3.303h-29.096c-1.824,0-3.303,1.479-3.303,3.303
	v74.014H242.458z"/>
<path style="fill:#DD4C5B;" d="M278.16,336.261V240.03c0-1.824-1.479-3.303-3.304-3.303H245.76c-1.824,0-3.303,1.479-3.303,3.303
	v96.231H278.16z"/>
<path style="fill:#37AEE2;" d="M171.053,336.261v-29.579c0-1.824-1.479-3.303-3.303-3.303h-29.096c-1.825,0-3.304,1.479-3.304,3.303
	v29.579H171.053z"/>
<path style="fill:#D3D0D4;" d="M278.16,343.495H135.35c-3.995,0-7.233-3.238-7.233-7.233s3.239-7.233,7.233-7.233h142.81
	c3.995,0,7.233,3.238,7.233,7.233C285.394,340.257,282.155,343.495,278.16,343.495z"/>
<g>
	<path style="fill:#BDB9BE;" d="M176.716,378.911H122.52c-4.004,0-7.25,3.246-7.25,7.25v11.679
		c0,13.442-10.896,24.338-24.338,24.338h85.784C156.348,414.999,156.343,386.092,176.716,378.911z"/>
	<path style="fill:#BDB9BE;" d="M376.033,297.298c-3.987,0-7.219-3.232-7.219-7.219V276.41c0-3.987,3.232-7.219,7.219-7.219
		s7.219,3.232,7.219,7.219v13.669C383.252,294.066,380.02,297.298,376.033,297.298z"/>
	<path style="fill:#BDB9BE;" d="M387.806,289.801v28.916c-3.862-0.611-7.79-0.935-11.773-0.935s-7.911,0.324-11.773,0.935v-28.916
		L387.806,289.801L387.806,289.801z"/>
	<path style="fill:#BDB9BE;" d="M315.677,342.171l-13.444-18.362c-2.356-3.217-1.657-7.735,1.56-10.09
		c3.216-2.356,7.734-1.658,10.09,1.56l13.444,18.362c2.356,3.217,1.657,7.735-1.56,10.09
		C322.53,346.101,318.017,345.367,315.677,342.171z"/>
</g>
<path style="fill:#5C515E;" d="M472.218,389.122c-10.779-43.083-49.809-75.093-96.185-75.093c-54.671,0-99.149,44.478-99.149,99.148
	c0,38.048,21.55,71.149,53.078,87.767C390.085,482.481,440.605,442.099,472.218,389.122z"/>
<path style="fill:#4A404E;" d="M321.268,374.715c0.788-20.104,7.549-38.584,18.493-53.816
	c-36.782,14.509-62.877,50.403-62.877,92.278c0,38.048,21.55,71.149,53.078,87.767c21.522-6.609,41.81-16.029,60.446-27.827
	C348.9,459.958,319.482,420.281,321.268,374.715z"/>
<path style="fill:#E8E6E9;" d="M451.391,418.91c0.145-1.894,0.244-3.801,0.244-5.732c0-41.687-33.915-75.603-75.603-75.603
	s-75.603,33.915-75.603,75.603c0,37.529,27.491,68.745,63.39,74.602C397.939,471.574,427.827,447.917,451.391,418.91z"/>
<path style="fill:#D3D0D4;" d="M321.268,374.715c0.207-5.272,0.834-10.428,1.83-15.448c-13.977,13.727-22.668,32.819-22.668,53.91
	c0,37.526,27.486,68.739,63.38,74.6c9.462-4.493,17.86-9.15,26.573-14.67C348.888,459.941,319.483,420.271,321.268,374.715z"/>
<path style="fill:#FD6874;" d="M451.406,418.891c0.143-1.887,0.229-3.79,0.229-5.714c0-41.687-33.915-75.603-75.603-75.603v75.256
	l45.741,36.83C432.496,440.262,442.411,429.966,451.406,418.891z"/>
<path style="fill:#D3D0D4;" d="M295.604,325.22c-2.362-3.213-1.672-7.731,1.54-10.093l9.883-7.267
	c3.212-2.362,7.731-1.673,10.093,1.54s1.672,7.731-1.54,10.093l-9.883,7.267C302.5,329.111,297.977,328.446,295.604,325.22z"/>
<g>
	<path style="fill:#5C515E;" d="M376.033,426.445c-3.987,0-7.219-3.232-7.219-7.219v-67.381c0-3.987,3.232-7.219,7.219-7.219
		s7.219,3.232,7.219,7.219v67.381C383.252,423.213,380.02,426.445,376.033,426.445z"/>
	<path style="fill:#5C515E;" d="M399.794,441.232l-35.508-28.591c-3.106-2.5-3.596-7.046-1.096-10.151
		c2.501-3.105,7.045-3.595,10.151-1.096l35.508,28.591c3.106,2.5,3.596,7.046,1.096,10.151
		C407.461,443.221,402.922,443.75,399.794,441.232z"/>
</g>
<path style="fill:#E8E6E9;" d="M360.568,299.758h30.93c6.309,0,11.424-5.115,11.424-11.424l0,0c0-6.309-5.115-11.424-11.424-11.424
	h-30.93c-6.309,0-11.424,5.115-11.424,11.424l0,0C349.144,294.644,354.258,299.758,360.568,299.758z"/>
<path style="fill:#D3D0D4;" d="M376.033,288.334L376.033,288.334c0-6.309,5.115-11.424,11.424-11.424h-26.889
	c-6.309,0-11.424,5.115-11.424,11.424l0,0c0,6.309,5.115,11.424,11.424,11.424h26.889
	C381.148,299.758,376.033,294.643,376.033,288.334z"/>
<g>
</g>
<g>
</g>
<g>
</g>
<g>
</g>
<g>
</g>
<g>
</g>
<g>
</g>
<g>
</g>
<g>
</g>
<g>
</g>
<g>
</g>
<g>
</g>
<g>
</g>
<g>
</g>
<g>
</g>
</svg>
