<?xml version="1.0" encoding="iso-8859-1"?>
<!-- Generator: Adobe Illustrator 19.0.0, SVG Export Plug-In . SVG Version: 6.00 Build 0)  -->
<svg version="1.1" id="Capa_1" xmlns="http://www.w3.org/2000/svg" xmlns:xlink="http://www.w3.org/1999/xlink" x="0px" y="0px"
	 viewBox="0 0 512.002 512.002" style="enable-background:new 0 0 512.002 512.002;" xml:space="preserve">
<circle style="fill:#FED652;" cx="256.001" cy="269.177" r="242.825"/>
<path style="fill:#E5BE8E;" d="M261.017,317.885c-17.111,0.798-33.362-2.75-47.779-9.636c0,9.162,0,19.38,0,28.53l0.189-0.128
	l17.205,38.912l6.797,15.991c23.247,0,14.305,0,37.551,0l23.896-54.903c0-7.833,0-18.997,0-28.032
	C287.277,314,274.49,317.256,261.017,317.885z"/>
<path style="fill:#DDB07F;" d="M245.374,317.402c-11.372-1.242-22.19-4.402-32.136-9.153c0,9.162,0,19.38,0,28.53l0.189-0.128
	l17.205,38.912l6.797,15.991c3.211,0,5.792,0,7.945,0L245.374,317.402L245.374,317.402z"/>
<path style="fill:#E8E6E9;" d="M432.422,436.016c-2.545-12.783-4.567-22.94-5.4-27.122c-4.56-22.841-21.342-32.128-30.587-35.577
	c-0.112-0.033-6.33-1.867-6.218-1.835l0,0c-0.717-0.212-62.273-18.368-64.857-19.131c-3.452,9.673-12.058,33.789-17.8,49.881
	c-1.893,5.305-8.374,7.273-12.898,3.918l-19.68-14.597v-0.001h-37.552v0.001l-0.156-0.118l0.05,0.118l-19.68,14.597
	c-4.524,3.355-11.005,1.387-12.898-3.918l-17.8-49.881l0.146-0.099c-3.8,1.121-64.377,18.989-65.194,19.23l0,0
	c-2.182,0.644-6.494,1.916-6.218,1.835c-9.246,3.449-26.028,12.737-30.587,35.577c0,0-2.323,11.704-5.405,27.228
	c44.257,46.725,106.881,75.877,176.318,75.877C325.494,512,388.16,482.803,432.422,436.016z"/>
<g>
	<path style="fill:#D3D0D4;" d="M117.164,398.894c3.934-19.709,16.966-29.322,26.407-33.804c-11.75,3.465-21.351,6.298-21.673,6.393
		l0,0c-2.182,0.644-6.494,1.916-6.218,1.835c-9.246,3.449-26.028,12.737-30.587,35.577c0,0-2.323,11.704-5.405,27.228
		c8.417,8.887,17.501,17.132,27.168,24.668C111.785,431.556,117.164,398.894,117.164,398.894z"/>
	<path style="fill:#D3D0D4;" d="M298.877,334.443l-23.896,57.112l19.68,14.597c4.524,3.356,11.005,1.387,12.898-3.918l17.8-49.881
		L298.877,334.443z"/>
	<path style="fill:#D3D0D4;" d="M213.238,334.443l24.085,57.112l-19.68,14.597c-4.524,3.356-11.005,1.387-12.898-3.918l-17.8-49.881
		L213.238,334.443z"/>
</g>
<polygon style="fill:#DD4C5B;" points="274.981,391.554 237.429,391.554 232.346,395.303 241.765,423.122 270.573,423.122 
	280.038,395.306 "/>
<path style="fill:#CE4155;" d="M260.317,419.088l-6.661-19.674c-0.829-2.448,0.02-5.15,2.1-6.685l0.019-0.014
	c1.021-0.753,2.257-1.16,3.526-1.16h-21.872l-5.082,3.749l9.419,27.819h24.179C263.397,423.122,261.134,421.499,260.317,419.088z"/>
<path style="fill:#FD6874;" d="M270.573,423.122c-10.051,0-18.686,0-28.736,0l-11.305,87.549c8.373,0.873,16.869,1.327,25.472,1.327
	c8.739,0,17.367-0.472,25.867-1.372L270.573,423.122z"/>
<path style="fill:#DD4C5B;" d="M262.746,423.122c-11.704,0-9.196,0-20.909,0l-11.305,87.549c8.245,0.859,16.61,1.308,25.079,1.322
	L262.746,423.122z"/>
<g>
	<path style="fill:#D3D0D4;" d="M146.793,443.78c-4.409,0-7.982,3.573-7.982,7.983v30.119c5.208,2.876,10.533,5.566,15.966,8.063
		v-38.181C154.777,447.353,151.202,443.78,146.793,443.78z"/>
	<path style="fill:#D3D0D4;" d="M365.617,443.78c-4.409,0-7.982,3.573-7.982,7.983v37.993c5.433-2.508,10.758-5.21,15.966-8.098
		v-29.895C373.6,447.353,370.026,443.78,365.617,443.78z"/>
</g>
<path style="fill:#F9AA2B;" d="M337.445,303.161c-77.588,44.796-177.155,18.117-221.951-59.472
	C70.697,166.1,97.376,66.532,174.965,21.736S352.122,3.62,396.918,81.209S415.035,258.365,337.445,303.161z"/>
<path style="fill:#ED971B;" d="M178.717,207.188c-38.522-66.723-24.187-149.7,29.927-200.121
	C108.731,37.659,63.446,153.54,115.494,243.69c44.796,77.588,144.363,104.268,221.951,59.472
	c10.866-6.273,20.731-13.622,29.544-21.832C296.267,302.982,217.239,273.91,178.717,207.188z"/>
<path style="fill:#E8E6E9;" d="M256.205,34.338c-70.639,0-128.109,57.471-128.109,128.111c0,70.639,57.47,128.109,128.109,128.109
	c70.64,0,128.11-57.47,128.11-128.109C384.315,91.809,326.845,34.338,256.205,34.338z"/>
<path style="fill:#D3D0D4;" d="M178.717,207.188c-24.832-43.011-27.695-92.772-12.103-136.216
	c-23.753,23.268-38.519,55.678-38.519,91.478c0,70.639,57.47,128.109,128.109,128.109c11.987,0,23.592-1.659,34.605-4.752
	C245.321,277.626,203.582,250.253,178.717,207.188z"/>
<g>
	<path style="fill:#5C515E;" d="M256.205,33.792c-4.409,0-7.982,3.574-7.982,7.982v9.74c0,4.409,3.574,7.982,7.982,7.982
		c4.409,0,7.982-3.574,7.982-7.982v-9.74C264.188,37.366,260.614,33.792,256.205,33.792z"/>
	<path style="fill:#5C515E;" d="M256.205,264.412c-4.409,0-7.982,3.574-7.982,7.983v9.74c0,4.409,3.574,7.982,7.982,7.982
		c4.409,0,7.982-3.574,7.982-7.982v-9.74C264.188,267.987,260.614,264.412,256.205,264.412z"/>
	<path style="fill:#5C515E;" d="M320.287,50.963c-3.819-2.206-8.701-0.896-10.905,2.922l-4.87,8.436
		c-2.204,3.818-0.896,8.701,2.922,10.905c3.801,2.195,8.691,0.913,10.905-2.922l4.87-8.436
		C325.413,58.049,324.105,53.167,320.287,50.963z"/>
	<path style="fill:#5C515E;" d="M204.976,250.685c-3.819-2.205-8.702-0.896-10.905,2.922l-4.869,8.436
		c-2.205,3.818-0.896,8.701,2.922,10.905c3.803,2.197,8.693,0.911,10.905-2.922l4.869-8.436
		C210.103,257.772,208.794,252.89,204.976,250.685z"/>
	<path style="fill:#5C515E;" d="M355.841,113.648l8.435-4.869c3.818-2.205,5.126-7.086,2.922-10.905
		c-2.205-3.819-7.087-5.127-10.905-2.922l-8.435,4.869c-3.818,2.205-5.126,7.086-2.922,10.905
		C347.148,114.557,352.034,115.847,355.841,113.648z"/>
	<path style="fill:#5C515E;" d="M156.57,210.262l-8.436,4.869c-3.818,2.204-5.126,7.086-2.922,10.905
		c2.211,3.83,7.097,5.12,10.905,2.922l8.436-4.869c3.818-2.204,5.126-7.086,2.922-10.905
		C165.269,209.365,160.387,208.058,156.57,210.262z"/>
	<path style="fill:#5C515E;" d="M376.385,153.972h-9.74c-4.409,0-7.982,3.574-7.982,7.982c0,4.408,3.574,7.982,7.982,7.982h9.74
		c4.409,0,7.983-3.574,7.983-7.982C384.368,157.547,380.795,153.972,376.385,153.972z"/>
	<path style="fill:#5C515E;" d="M153.748,161.955c0-4.409-3.574-7.982-7.982-7.982h-9.74c-4.409,0-7.982,3.574-7.982,7.982
		c0,4.408,3.574,7.982,7.982,7.982h9.74C150.173,169.938,153.748,166.364,153.748,161.955z"/>
	<path style="fill:#5C515E;" d="M364.276,215.132l-8.435-4.869c-3.819-2.205-8.701-0.898-10.905,2.922
		c-2.205,3.818-0.896,8.701,2.922,10.905l8.435,4.869c3.801,2.195,8.691,0.913,10.905-2.922
		C369.402,222.219,368.094,217.336,364.276,215.132z"/>
	<path style="fill:#5C515E;" d="M164.552,99.821l-8.436-4.869c-3.818-2.206-8.702-0.896-10.905,2.922
		c-2.205,3.818-0.896,8.701,2.922,10.905l8.436,4.869c3.804,2.197,8.693,0.911,10.905-2.922
		C169.679,106.907,168.37,102.025,164.552,99.821z"/>
	<path style="fill:#5C515E;" d="M318.339,253.608c-2.204-3.818-7.087-5.125-10.905-2.922c-3.818,2.205-5.126,7.086-2.922,10.905
		l4.87,8.436c2.21,3.828,7.095,5.121,10.905,2.922c3.818-2.204,5.126-7.086,2.922-10.905L318.339,253.608z"/>
	<path style="fill:#5C515E;" d="M203.029,53.884c-2.205-3.818-7.086-5.126-10.905-2.922s-5.126,7.086-2.922,10.905l4.869,8.436
		c2.211,3.83,7.097,5.12,10.905,2.922c3.818-2.204,5.126-7.086,2.922-10.905L203.029,53.884z"/>
</g>
<circle style="fill:#FED652;" cx="256.201" cy="162.45" r="68.064"/>
<path style="fill:#FEBE40;" d="M223.965,181.062c-16.142-27.958-10.176-62.595,12.449-83.725c-4.866,1.483-9.644,3.518-14.238,6.17
	c-32.552,18.794-43.706,60.419-24.912,92.971s60.419,43.706,92.971,24.912c4.594-2.652,8.746-5.773,12.463-9.246
	C273.086,221.172,240.107,209.02,223.965,181.062z"/>
<path style="fill:#5C515E;" d="M269.569,169.125l55.178-73.054c1.753-2.321-0.648-4.722-2.969-2.969l-73.054,55.178
	C264.044,140.252,277.594,153.813,269.569,169.125z"/>
<path style="fill:#FD6874;" d="M242.835,151.44l-60.939,9.184c-2.248,0.339-2.248,3.202,0,3.541l60.939,9.184
	C236.817,167.084,236.703,157.823,242.835,151.44z"/>
<circle style="fill:#716B72;" cx="256.211" cy="162.45" r="18.812"/>
<g>
	<path style="fill:#5C515E;" d="M256.214,143.651c-3.2-0.005-6.443,0.79-9.415,2.506c-8.998,5.194-12.081,16.7-6.885,25.698
		c7.285,12.619,25.424,12.414,32.575-0.015C258.021,171.819,248.983,156.218,256.214,143.651z"/>
	<path style="fill:#5C515E;" d="M256.205,298.541c-75.042,0-136.092-61.051-136.092-136.091
		c0-75.043,61.051-136.095,136.092-136.095c75.042,0,136.093,61.052,136.093,136.095
		C392.297,237.491,331.247,298.541,256.205,298.541z M256.205,42.32c-66.238,0-120.127,53.889-120.127,120.129
		c0,66.238,53.888,120.127,120.127,120.127s120.128-53.888,120.128-120.127C376.331,96.21,322.443,42.32,256.205,42.32z"/>
</g>
<g>
</g>
<g>
</g>
<g>
</g>
<g>
</g>
<g>
</g>
<g>
</g>
<g>
</g>
<g>
</g>
<g>
</g>
<g>
</g>
<g>
</g>
<g>
</g>
<g>
</g>
<g>
</g>
<g>
</g>
</svg>
