<?xml version="1.0" encoding="iso-8859-1"?>
<!-- Generator: Adobe Illustrator 19.0.0, SVG Export Plug-In . SVG Version: 6.00 Build 0)  -->
<svg version="1.1" id="Capa_1" xmlns="http://www.w3.org/2000/svg" xmlns:xlink="http://www.w3.org/1999/xlink" x="0px" y="0px"
	 viewBox="0 0 512 512" style="enable-background:new 0 0 512 512;" xml:space="preserve">
<circle style="fill:#FD6874;" cx="256" cy="256" r="256"/>
<path style="fill:#E8E6E9;" d="M383.399,135.276c-0.236-0.006-0.469-0.001-0.703-0.001v-0.008c-16.395,0-206.372,0-221.378,0
	h-25.009c13.812,0,25.009,11.197,25.009,25.009c0,19.628,0,307.132,0,326.715c0,13.813,11.197,25.009,25.009,25.009h221.378
	c0-17.188,0-335.545,0-349.872v-1.332C407.705,147.168,397.021,135.649,383.399,135.276z"/>
<path style="fill:#D3D0D4;" d="M189.301,160.795c0-13.627,10.684-25.146,24.306-25.52c0.236-0.006,0.469-0.001,0.703-0.001v-0.008
	c-27.397,0-48.398,0-52.993,0h-25.009c13.812,0,25.009,11.197,25.009,25.009c0,19.628,0,307.132,0,326.715
	c0,13.813,11.197,25.009,25.009,25.009h2.974c0-17.188,0-335.545,0-349.872L189.301,160.795L189.301,160.795z"/>
<path style="fill:#A5A5A5;" d="M13.114,176.671c0,4,3.243,7.243,7.243,7.243h42.775v-73.128c0-6.122-2.161-11.814-5.771-16.265
	c-19.262,23.665-34.38,50.833-44.247,80.408C13.114,174.929,13.114,176.671,13.114,176.671z"/>
<path style="fill:#D3D0D4;" d="M285.214,85.267c-0.236-0.006-0.469-0.001-0.703-0.001v-0.009c-27.729,0-155.941,0-219.236,0
	c-2.676,2.987-5.283,6.035-7.818,9.146c3.546,4.317,5.676,9.841,5.676,15.864c0,5.452,0,274.184,0,282.713
	c0,13.301,10.782,24.083,24.083,24.083c13.3,0,24.083-10.782,24.083-24.083c0-12.492,0-222.12,0-232.704
	c0-13.812,11.198-25,25.009-25.001v-0.008c42.288,0,129.52,0,173.212,0c0-12.668,0-21.001,0-23.147v-1.332
	C309.52,97.159,298.836,85.641,285.214,85.267z"/>
<path style="fill:#BDB9BE;" d="M183.489,110.786c0-13.627,10.684-25.146,24.306-25.52c0.236-0.006,0.469-0.001,0.703-0.001v-0.009
	c-48.087,0-106.551,0-143.223,0c-2.676,2.987-5.283,6.035-7.818,9.146c3.546,4.317,5.676,9.841,5.676,15.864
	c0,5.452,0,274.184,0,282.713c0,13.301,10.782,24.083,24.083,24.083c13.3,0,24.083-10.782,24.083-24.083
	c0-12.492,0-222.12,0-232.704c0-13.812,11.198-25,25.009-25.001v-0.008c12.543,0,29.039,0,47.181,0c0-12.668,0-21.001,0-23.147
	L183.489,110.786L183.489,110.786z"/>
<path style="fill:#A5A5A5;" d="M137.011,135.276c-14.133-0.388-25.712,10.954-25.712,25c0,6.403,0,167.068,0,232.704l0,0l0,0
	c0,13.301-10.782,24.083-24.083,24.083c22.183,0,51.58,0,74.101,0c0-28.019,0-228.202,0-256.267
	C161.317,147.168,150.633,135.649,137.011,135.276z"/>
<g>
	<path style="fill:#D3D0D4;" d="M274.917,237.739h-58.384c-4.065,0-7.36-3.295-7.36-7.36s3.295-7.36,7.36-7.36h58.384
		c4.064,0,7.359,3.295,7.359,7.36S278.981,237.739,274.917,237.739z"/>
	<path style="fill:#D3D0D4;" d="M315.64,266.835h-99.106c-4.065,0-7.36-3.295-7.36-7.359c0-4.065,3.295-7.36,7.36-7.36h99.106
		c4.064,0,7.359,3.295,7.359,7.36C322.999,263.54,319.704,266.835,315.64,266.835z"/>
	<path style="fill:#D3D0D4;" d="M253.82,208.644h-6.884c-4.064,0-7.36-3.295-7.36-7.36s3.295-7.36,7.36-7.36h6.884
		c4.065,0,7.36,3.295,7.36,7.36S257.884,208.644,253.82,208.644z"/>
	<path style="fill:#D3D0D4;" d="M353.946,295.93H216.533c-4.065,0-7.36-3.295-7.36-7.359c0-4.065,3.295-7.36,7.36-7.36h137.413
		c4.065,0,7.36,3.295,7.36,7.36C361.306,292.635,358.01,295.93,353.946,295.93z"/>
	<path style="fill:#D3D0D4;" d="M353.946,325.026H216.533c-4.065,0-7.36-3.295-7.36-7.36c0-4.065,3.295-7.359,7.36-7.359h137.413
		c4.065,0,7.36,3.295,7.36,7.359C361.306,321.731,358.01,325.026,353.946,325.026z"/>
	<path style="fill:#D3D0D4;" d="M353.946,354.121H216.533c-4.065,0-7.36-3.295-7.36-7.359c0-4.065,3.295-7.36,7.36-7.36h137.413
		c4.065,0,7.36,3.295,7.36,7.36C361.306,350.826,358.01,354.121,353.946,354.121z"/>
	<path style="fill:#D3D0D4;" d="M353.946,383.217H216.533c-4.065,0-7.36-3.295-7.36-7.36s3.295-7.36,7.36-7.36h137.413
		c4.065,0,7.36,3.295,7.36,7.36S358.01,383.217,353.946,383.217z"/>
	<path style="fill:#D3D0D4;" d="M353.946,412.312H216.533c-4.065,0-7.36-3.295-7.36-7.36c0-4.065,3.295-7.359,7.36-7.359h137.413
		c4.065,0,7.36,3.295,7.36,7.359C361.306,409.017,358.01,412.312,353.946,412.312z"/>
	<path style="fill:#D3D0D4;" d="M353.946,441.407H216.533c-4.065,0-7.36-3.295-7.36-7.36c0-4.065,3.295-7.359,7.36-7.359h137.413
		c4.065,0,7.36,3.295,7.36,7.359C361.306,438.112,358.01,441.407,353.946,441.407z"/>
</g>
<g>
	<path style="fill:#BDB9BE;" d="M366.523,28.569c-4.053,0-7.338-3.285-7.338-7.338V7.338c0-4.053,3.285-7.338,7.338-7.338
		s7.338,3.285,7.338,7.338v13.893C373.861,25.283,370.575,28.569,366.523,28.569z"/>
	<path style="fill:#BDB9BE;" d="M378.489,20.949V50.34c-8.001-1.266-15.927-1.267-23.932,0V20.95h23.932V20.949z"/>
	<path style="fill:#BDB9BE;" d="M305.177,74.178l-13.665-18.663c-2.394-3.27-1.684-7.862,1.586-10.255
		c3.269-2.394,7.861-1.685,10.255,1.586l13.665,18.663c2.394,3.27,1.684,7.862-1.586,10.255
		C312.142,78.173,307.555,77.427,305.177,74.178z"/>
</g>
<path style="fill:#5C515E;" d="M279.248,196.738c-27.784-48.123-11.237-109.878,36.887-137.663s109.879-11.237,137.663,36.886
	s11.237,109.879-36.887,137.663S307.032,244.861,279.248,196.738z"/>
<path style="fill:#4A404E;" d="M324.878,170.394C301.65,130.162,309.413,80.408,340.7,48.935
	c-8.415,2.228-16.674,5.585-24.565,10.141c-48.123,27.784-64.67,89.539-36.887,137.662s89.539,64.671,137.662,36.887
	c7.891-4.556,14.928-10.031,21.065-16.204C395.076,228.78,348.106,210.625,324.878,170.394z"/>
<path style="fill:#E8E6E9;" d="M366.522,69.507c42.372,0,76.844,34.472,76.844,76.844s-34.472,76.844-76.844,76.844
	s-76.844-34.472-76.844-76.844S324.151,69.507,366.522,69.507z"/>
<path style="fill:#D3D0D4;" d="M324.878,170.394c-15.02-26.015-17.065-56.007-8.187-82.469
	c-16.513,14.105-27.012,35.056-27.012,58.425c0,42.372,34.472,76.844,76.844,76.844c9.036,0,17.707-1.58,25.767-4.458
	C364.901,213.212,339.914,196.436,324.878,170.394z"/>
<path style="fill:#FD6874;" d="M366.523,69.507c42.372,0,76.844,34.472,76.844,76.844c0,18.125-6.312,34.802-16.848,47.956
	l-59.996-48.308V69.507z"/>
<path style="fill:#D3D0D4;" d="M284.774,56.949c-2.401-3.265-1.7-7.858,1.565-10.259l10.046-7.386
	c3.265-2.401,7.858-1.7,10.259,1.565s1.7,7.858-1.565,10.259l-10.046,7.386C291.783,60.904,287.185,60.228,284.774,56.949z"/>
<g>
	<path style="fill:#5C515E;" d="M366.523,159.836c-4.053,0-7.338-3.285-7.338-7.338V84.011c0-4.053,3.285-7.338,7.338-7.338
		s7.338,3.285,7.338,7.338v68.487C373.861,156.55,370.575,159.836,366.523,159.836z"/>
	<path style="fill:#5C515E;" d="M395.271,176.488c-1.615,0-3.241-0.531-4.597-1.623l-36.091-29.06
		c-3.157-2.542-3.655-7.161-1.114-10.318c2.542-3.156,7.16-3.654,10.318-1.114l36.091,29.06c3.157,2.542,3.655,7.161,1.114,10.318
		C399.542,175.552,397.416,176.488,395.271,176.488z"/>
</g>
<path style="fill:#E8E6E9;" d="M350.804,31.069h31.437c6.413,0,11.612-5.199,11.612-11.612l0,0c0-6.413-5.199-11.612-11.612-11.612
	h-31.437c-6.413,0-11.612,5.199-11.612,11.612l0,0C339.192,25.871,344.391,31.069,350.804,31.069z"/>
<g>
	<path style="fill:#D3D0D4;" d="M366.523,19.458c0-6.413,5.199-11.612,11.612-11.612h-27.33c-6.413,0-11.612,5.199-11.612,11.612
		s5.199,11.612,11.612,11.612h27.33C371.721,31.069,366.523,25.871,366.523,19.458z"/>
	<path style="fill:#D3D0D4;" d="M218.786,467.539c-4.115,0-7.45,3.336-7.45,7.45v12.001c0,13.813-11.197,25.009-25.009,25.009
		h221.378c13.812,0,25.009-11.197,25.009-25.009v-12.198c0-4.006-3.248-7.254-7.254-7.254L218.786,467.539L218.786,467.539z"/>
</g>
<path style="fill:#BDB9BE;" d="M256,489.77c0-10.633,7.207-19.578,17.001-22.23h-54.215c-4.115,0-7.45,3.336-7.45,7.45v12.001
	c0,13.813-11.197,25.009-25.009,25.009H273C263.207,509.348,256,500.403,256,489.77z"/>
<g>
</g>
<g>
</g>
<g>
</g>
<g>
</g>
<g>
</g>
<g>
</g>
<g>
</g>
<g>
</g>
<g>
</g>
<g>
</g>
<g>
</g>
<g>
</g>
<g>
</g>
<g>
</g>
<g>
</g>
</svg>
