<?xml version="1.0" encoding="iso-8859-1"?>
<!-- Generator: Adobe Illustrator 19.0.0, SVG Export Plug-In . SVG Version: 6.00 Build 0)  -->
<svg version="1.1" id="Capa_1" xmlns="http://www.w3.org/2000/svg" xmlns:xlink="http://www.w3.org/1999/xlink" x="0px" y="0px"
	 viewBox="0 0 512 512" style="enable-background:new 0 0 512 512;" xml:space="preserve">
<circle style="fill:#42D197;" cx="256" cy="260.44" r="251.56"/>
<path style="fill:#D3D0D4;" d="M221.007,40.39c-3.999,0-7.241-3.241-7.241-7.241V21.986c0-4.138-3.367-7.505-7.505-7.505
	s-7.505,3.367-7.505,7.505V33.15c0,3.999-3.242,7.241-7.241,7.241s-7.241-3.241-7.241-7.241V21.986
	C184.275,9.863,194.138,0,206.261,0s21.986,9.863,21.986,21.986V33.15C228.248,37.149,225.006,40.39,221.007,40.39z"/>
<path style="fill:#A87B69;" d="M361.838,36.789H50.721c-7.625,0-13.808,6.182-13.808,13.808V384.13
	c25.124,44.403,63.347,80.413,109.431,102.769h215.493c7.626,0,13.808-6.182,13.808-13.808V50.597
	C375.646,42.971,369.464,36.789,361.838,36.789z"/>
<path style="fill:#8D6451;" d="M95.994,50.596c0-7.625,6.182-13.808,13.808-13.808H50.721c-7.625,0-13.808,6.182-13.808,13.808
	V384.13c15.253,26.958,35.343,50.815,59.081,70.408V50.596z"/>
<path style="fill:#E8E6E9;" d="M339.163,73.609H73.464c-3.899,0-7.059,3.16-7.059,7.059v317.569
	c0,13.455,10.907,24.362,24.362,24.362h255.35V80.564C346.117,76.723,343.003,73.609,339.163,73.609z"/>
<g>
	<path style="fill:#D3D0D4;" d="M95.994,422.6V73.609h-22.53c-3.899,0-7.059,3.16-7.059,7.059v317.57
		c0,13.455,10.907,24.362,24.362,24.362H95.994z"/>
	<path style="fill:#D3D0D4;" d="M122.387,379.289c-4.008,0-7.258,3.249-7.258,7.258v11.691c0,13.455-10.907,24.362-24.362,24.362
		h255.35c13.455,0,24.362-10.907,24.362-24.362v-11.882c0-3.903-3.164-7.066-7.066-7.066H122.387V379.289z"/>
</g>
<path style="fill:#5C515E;" d="M206.28,110.596c-9.498,0-17.776-5.925-20.856-14.831h-40.551c-12.171,0-22.072-9.902-22.072-22.073
	s9.902-22.072,22.072-22.072H267.65c12.171,0,22.072,9.901,22.072,22.072s-9.902,22.073-22.072,22.073h-40.515
	C224.053,104.645,215.701,110.596,206.28,110.596z M144.873,66.101c-4.186,0-7.591,3.405-7.591,7.59
	c0,4.186,3.405,7.591,7.591,7.591h41.25c5.892,0,11.195,3.89,12.894,9.46c0.964,3.163,3.951,5.371,7.263,5.371
	c3.267,0,6.16-2.078,7.199-5.17c1.941-5.778,7.314-9.661,13.371-9.661h40.8c4.186,0,7.591-3.405,7.591-7.591
	c0-4.185-3.405-7.59-7.591-7.59H144.873z"/>
<path style="fill:#D3D0D4;" d="M257.12,139.742H155.403c-3.999,0-7.241-3.241-7.241-7.241s3.242-7.241,7.241-7.241H257.12
	c3.999,0,7.241,3.241,7.241,7.241S261.118,139.742,257.12,139.742z"/>
<path style="fill:#E8E6E9;" d="M246.911,66.245h-81.299c-1.585,0-2.87-1.285-2.87-2.87V33.123c0-1.585,1.285-2.87,2.87-2.87h81.299
	c1.585,0,2.87,1.285,2.87,2.87v30.252C249.78,64.96,248.496,66.245,246.911,66.245z"/>
<path style="fill:#D3D0D4;" d="M206.261,63.376V33.123c0-1.585,1.285-2.87,2.87-2.87h-43.519c-1.585,0-2.87,1.285-2.87,2.87v30.252
	c0,1.585,1.285,2.87,2.87,2.87h43.519C207.546,66.245,206.261,64.96,206.261,63.376z"/>
<g>
	<path style="fill:#42D197;" d="M129.317,203.467L129.317,203.467c-1.92,0-3.762-0.763-5.12-2.121l-14.123-14.124
		c-2.827-2.827-2.827-7.412,0-10.24c2.827-2.827,7.412-2.827,10.24,0.001l9.003,9.004l21.768-21.768
		c2.828-2.827,7.413-2.826,10.24,0c2.828,2.828,2.828,7.412,0,10.241l-26.888,26.888
		C133.079,202.704,131.237,203.467,129.317,203.467z"/>
	<path style="fill:#42D197;" d="M129.317,270.201L129.317,270.201c-1.92,0-3.762-0.763-5.12-2.121l-14.123-14.124
		c-2.827-2.827-2.827-7.412,0-10.24c2.827-2.827,7.412-2.827,10.24,0.001l9.003,9.004l21.768-21.768
		c2.828-2.827,7.413-2.826,10.24,0c2.828,2.828,2.828,7.412,0,10.241l-26.888,26.888
		C133.079,269.438,131.237,270.201,129.317,270.201z"/>
	<path style="fill:#42D197;" d="M129.317,336.935L129.317,336.935c-1.92,0-3.762-0.763-5.12-2.121l-14.123-14.124
		c-2.827-2.827-2.827-7.412,0-10.24c2.827-2.827,7.412-2.827,10.24,0.001l9.003,9.004l21.768-21.768
		c2.828-2.827,7.413-2.826,10.24,0c2.828,2.828,2.828,7.412,0,10.241l-26.888,26.888
		C133.079,336.172,131.237,336.935,129.317,336.935z"/>
</g>
<g>
	<path style="fill:#D3D0D4;" d="M282.6,176.579h-86.989c-3.999,0-7.241-3.241-7.241-7.241s3.242-7.241,7.241-7.241H282.6
		c3.999,0,7.241,3.241,7.241,7.241S286.599,176.579,282.6,176.579z"/>
	<path style="fill:#D3D0D4;" d="M251.072,204.198h-55.461c-3.999,0-7.241-3.241-7.241-7.241s3.242-7.241,7.241-7.241h55.461
		c3.999,0,7.241,3.241,7.241,7.241S255.071,204.198,251.072,204.198z"/>
	<path style="fill:#D3D0D4;" d="M282.6,242.947h-86.989c-3.999,0-7.241-3.241-7.241-7.241s3.242-7.241,7.241-7.241H282.6
		c3.999,0,7.241,3.241,7.241,7.241S286.599,242.947,282.6,242.947z"/>
	<path style="fill:#D3D0D4;" d="M251.072,270.566h-55.461c-3.999,0-7.241-3.241-7.241-7.241c0-3.999,3.242-7.241,7.241-7.241h55.461
		c3.999,0,7.241,3.241,7.241,7.241C258.313,267.325,255.071,270.566,251.072,270.566z"/>
	<path style="fill:#D3D0D4;" d="M266.678,309.681h-71.067c-3.999,0-7.241-3.241-7.241-7.241c0-3.999,3.242-7.241,7.241-7.241h71.067
		c3.999,0,7.241,3.241,7.241,7.241S270.677,309.681,266.678,309.681z"/>
	<path style="fill:#D3D0D4;" d="M247.39,337.3h-51.779c-3.999,0-7.241-3.241-7.241-7.241s3.242-7.241,7.241-7.241h51.779
		c3.999,0,7.241,3.241,7.241,7.241S251.389,337.3,247.39,337.3z"/>
</g>
<g>
	<path style="fill:#BDB9BE;" d="M161.045,400.944c0-10.018,6.424-18.53,15.376-21.655h-54.034c-4.008,0-7.258,3.249-7.258,7.258
		v11.691c0,13.455-10.907,24.362-24.362,24.362h85.654C167.469,419.475,161.045,410.962,161.045,400.944z"/>
	<path style="fill:#BDB9BE;" d="M375.938,296.972c-3.987,0-7.219-3.232-7.219-7.219v-13.668c0-3.987,3.232-7.219,7.219-7.219
		s7.219,3.232,7.219,7.219v13.668C383.157,293.739,379.925,296.972,375.938,296.972z"/>
	<path style="fill:#BDB9BE;" d="M387.71,289.475v28.916c-3.862-0.611-7.79-0.935-11.773-0.935s-7.911,0.324-11.773,0.935v-28.916
		L387.71,289.475L387.71,289.475z"/>
	<path style="fill:#BDB9BE;" d="M315.582,341.844l-13.444-18.362c-2.356-3.217-1.657-7.735,1.56-10.09
		c3.216-2.356,7.734-1.658,10.09,1.56l13.444,18.362c2.356,3.217,1.657,7.735-1.56,10.09
		C322.435,345.775,317.922,345.041,315.582,341.844z"/>
</g>
<path style="fill:#5C515E;" d="M472.194,389.061c-10.684-43.217-49.785-75.358-96.257-75.358c-54.671,0-99.149,44.478-99.149,99.148
	c0,38.217,21.738,71.449,53.495,87.993C390.269,482.327,440.66,441.968,472.194,389.061z"/>
<path style="fill:#4A404E;" d="M339.666,320.573c-36.782,14.509-62.877,50.403-62.877,92.278c0,38.217,21.738,71.449,53.495,87.993
	c21.51-6.64,41.778-16.103,60.393-27.931C325.805,452.627,300.619,374.918,339.666,320.573z"/>
<path style="fill:#E8E6E9;" d="M375.937,337.249c-41.688,0-75.603,33.915-75.603,75.603c0,37.724,27.774,69.08,63.947,74.702
	c33.876-16.183,63.556-39.726,86.988-68.555C454.869,374.457,419.543,337.249,375.937,337.249z"/>
<path style="fill:#D3D0D4;" d="M323.003,358.941c-13.977,13.727-22.668,32.819-22.668,53.91c0,37.716,27.762,69.065,63.923,74.698
	c9.36-4.477,18.277-9.466,26.413-14.638C343.506,458.158,312.92,409.758,323.003,358.941z"/>
<path style="fill:#FD6874;" d="M375.937,337.249v75.256l45.962,37.008c10.628-9.335,20.46-19.55,29.385-30.535
	C454.853,374.74,419.801,337.249,375.937,337.249z"/>
<path style="fill:#D3D0D4;" d="M295.509,324.893c-2.362-3.213-1.672-7.731,1.54-10.093l9.883-7.267
	c3.212-2.362,7.731-1.673,10.093,1.54s1.672,7.731-1.54,10.093l-9.883,7.267C302.404,328.785,297.881,328.12,295.509,324.893z"/>
<g>
	<path style="fill:#5C515E;" d="M375.938,426.119c-3.987,0-7.219-3.232-7.219-7.219v-67.381c0-3.987,3.232-7.219,7.219-7.219
		s7.219,3.232,7.219,7.219V418.9C383.157,422.887,379.925,426.119,375.938,426.119z"/>
	<path style="fill:#5C515E;" d="M399.699,440.906l-35.508-28.591c-3.106-2.5-3.596-7.046-1.096-10.151
		c2.501-3.105,7.045-3.595,10.151-1.096l35.508,28.591c3.106,2.5,3.596,7.046,1.096,10.151
		C407.366,442.895,402.826,443.423,399.699,440.906z"/>
</g>
<path style="fill:#E8E6E9;" d="M360.473,299.432h30.93c6.309,0,11.424-5.115,11.424-11.424l0,0c0-6.309-5.115-11.424-11.424-11.424
	h-30.93c-6.309,0-11.424,5.115-11.424,11.424l0,0C349.048,294.317,354.163,299.432,360.473,299.432z"/>
<path style="fill:#D3D0D4;" d="M375.937,288.008L375.937,288.008c0-6.309,5.115-11.424,11.424-11.424h-26.889
	c-6.309,0-11.424,5.115-11.424,11.424l0,0c0,6.309,5.115,11.424,11.424,11.424h26.889
	C381.052,299.432,375.937,294.317,375.937,288.008z"/>
<g>
</g>
<g>
</g>
<g>
</g>
<g>
</g>
<g>
</g>
<g>
</g>
<g>
</g>
<g>
</g>
<g>
</g>
<g>
</g>
<g>
</g>
<g>
</g>
<g>
</g>
<g>
</g>
<g>
</g>
</svg>
