<?xml version="1.0" encoding="iso-8859-1"?>
<!-- Generator: Adobe Illustrator 19.0.0, SVG Export Plug-In . SVG Version: 6.00 Build 0)  -->
<svg version="1.1" id="Capa_1" xmlns="http://www.w3.org/2000/svg" xmlns:xlink="http://www.w3.org/1999/xlink" x="0px" y="0px"
	 viewBox="0 0 512 512" style="enable-background:new 0 0 512 512;" xml:space="preserve">
<circle style="fill:#F9AA2B;" cx="256" cy="256" r="256"/>
<path style="fill:#BDB9BE;" d="M70.823,63.453v-33.3c0-16.095-12.619-29.7-28.708-30.141C25.422-0.446,11.746,12.949,11.746,29.539
	v25.807c0,4.478,3.63,8.108,8.108,8.108h50.969V63.453z"/>
<path style="fill:#E8E6E9;" d="M381.26,0.011c-0.279-0.007-0.554-0.001-0.83-0.001V0C361.065,0,88.547,0,70.823,0H41.284
	c16.314,0,29.539,13.225,29.539,29.539c0,18.765,0,288.743,0,403.223C117.44,481.583,183.167,512,256,512
	c57.799,0,111.118-19.163,153.968-51.471c0-121.7,0-415.093,0-428.802v-1.574C409.968,14.058,397.349,0.453,381.26,0.011z"/>
<path style="fill:#D3D0D4;" d="M130.823,31.727v-1.574c0-16.095,12.619-29.7,28.708-30.142c0.279-0.007,0.554-0.001,0.83-0.001V0
	c-46.412,0-83.376,0-89.538,0H41.284c16.314,0,29.539,13.225,29.539,29.539c0,18.765,0,288.743,0,403.223
	c17.514,18.343,37.727,34.086,60,46.596C130.823,338.024,130.823,44.356,130.823,31.727z"/>
<g>
	<path style="fill:#42D197;" d="M146.836,182.23L146.836,182.23c-2.176,0-4.263-0.864-5.802-2.404l-16.785-16.786
		c-3.204-3.204-3.204-8.4,0.001-11.604c3.205-3.204,8.4-3.203,11.604,0.001l10.982,10.984l26.154-26.155
		c3.204-3.203,8.4-3.203,11.604,0c3.205,3.205,3.205,8.4,0,11.605l-31.956,31.956C151.1,181.365,149.012,182.23,146.836,182.23z"/>
	<path style="fill:#42D197;" d="M146.836,261.542L146.836,261.542c-2.176,0-4.263-0.864-5.802-2.404l-16.785-16.786
		c-3.204-3.204-3.204-8.4,0.001-11.604c3.205-3.203,8.4-3.204,11.604,0.001l10.983,10.984l26.153-26.154
		c3.204-3.203,8.4-3.203,11.604,0c3.205,3.205,3.205,8.4,0,11.605l-31.956,31.955C151.1,260.677,149.013,261.542,146.836,261.542z"
		/>
	<path style="fill:#42D197;" d="M146.836,340.854L146.836,340.854c-2.176,0-4.263-0.864-5.802-2.404l-16.785-16.785
		c-3.205-3.204-3.205-8.398,0-11.604c3.205-3.204,8.4-3.203,11.604,0.001l10.983,10.983l26.154-26.154
		c3.204-3.204,8.4-3.202,11.604,0c3.205,3.205,3.205,8.4,0,11.605l-31.956,31.955C151.1,339.989,149.012,340.854,146.836,340.854z"
		/>
</g>
<g>
	<path style="fill:#D3D0D4;" d="M346.515,150.274H225.626c-4.532,0-8.205-3.673-8.205-8.205s3.674-8.205,8.205-8.205h120.889
		c4.532,0,8.205,3.673,8.205,8.205C354.72,146.6,351.047,150.274,346.515,150.274z"/>
	<path style="fill:#D3D0D4;" d="M291.541,183.099h-65.915c-4.532,0-8.205-3.673-8.205-8.205s3.674-8.205,8.205-8.205h65.915
		c4.532,0,8.205,3.673,8.205,8.205C299.746,179.426,296.072,183.099,291.541,183.099z"/>
	<path style="fill:#D3D0D4;" d="M291.541,101.037h-65.915c-4.532,0-8.205-3.673-8.205-8.205s3.674-8.205,8.205-8.205h65.915
		c4.532,0,8.205,3.673,8.205,8.205S296.072,101.037,291.541,101.037z"/>
	<path style="fill:#D3D0D4;" d="M346.515,229.151H225.626c-4.532,0-8.205-3.673-8.205-8.205s3.674-8.205,8.205-8.205h120.889
		c4.532,0,8.205,3.673,8.205,8.205S351.047,229.151,346.515,229.151z"/>
	<path style="fill:#D3D0D4;" d="M291.541,261.977h-65.915c-4.532,0-8.205-3.673-8.205-8.205s3.674-8.205,8.205-8.205h65.915
		c4.532,0,8.205,3.673,8.205,8.205C299.746,258.303,296.072,261.977,291.541,261.977z"/>
	<path style="fill:#D3D0D4;" d="M346.515,308.464H225.626c-4.532,0-8.205-3.673-8.205-8.205c0-4.532,3.674-8.205,8.205-8.205
		h120.889c4.532,0,8.205,3.673,8.205,8.205S351.047,308.464,346.515,308.464z"/>
	<path style="fill:#D3D0D4;" d="M291.541,341.289h-65.915c-4.532,0-8.205-3.673-8.205-8.205s3.674-8.205,8.205-8.205h65.915
		c4.532,0,8.205,3.673,8.205,8.205S296.072,341.289,291.541,341.289z"/>
	<path style="fill:#D3D0D4;" d="M346.515,387.408H225.626c-4.532,0-8.205-3.673-8.205-8.205s3.674-8.205,8.205-8.205h120.889
		c4.532,0,8.205,3.673,8.205,8.205S351.047,387.408,346.515,387.408z"/>
	<path style="fill:#D3D0D4;" d="M291.541,420.233h-65.915c-4.532,0-8.205-3.673-8.205-8.205c0-4.532,3.674-8.205,8.205-8.205h65.915
		c4.532,0,8.205,3.673,8.205,8.205C299.746,416.56,296.072,420.233,291.541,420.233z"/>
	<path style="fill:#D3D0D4;" d="M167.815,373.441h-29.786c-4.021,0-7.281,3.26-7.281,7.281v29.786c0,4.021,3.26,7.281,7.281,7.281
		h29.786c4.021,0,7.281-3.26,7.281-7.281v-29.786C175.095,376.701,171.836,373.441,167.815,373.441z"/>
</g>
<path style="fill:#BDB9BE;" d="M152.922,410.508v-29.786c0-4.021,3.26-7.281,7.281-7.281h-22.174c-4.021,0-7.281,3.26-7.281,7.281
	v29.786c0,4.021,3.26,7.281,7.281,7.281h22.174C156.181,417.789,152.922,414.53,152.922,410.508z"/>
<path style="fill:#959396;" d="M467.752,106.84h-21.283c-4.106,0-7.531,3.155-7.845,7.249c-3.477,45.369-5.37,94.037-5.37,144.704
	c0,61.761,2.812,120.552,7.88,174.014c13.592-14.229,25.548-30.029,35.595-47.089c2.664-40.226,4.104-82.814,4.104-126.925
	c0-50.717-1.897-99.43-5.38-144.837C475.144,109.936,471.782,106.84,467.752,106.84z"/>
<g>
	<path style="fill:#7E777F;" d="M441.133,432.806c6.355-6.653,12.344-13.657,17.959-20.964
		c-2.039-47.727-3.155-99.263-3.155-153.051c0-50.667,0.991-99.334,2.81-144.704c0.164-4.094,1.956-7.248,4.104-7.249h0.917h-17.3
		c-4.106,0-7.531,3.155-7.845,7.249c-3.477,45.369-5.37,94.036-5.37,144.704C433.254,320.553,436.066,379.344,441.133,432.806z"/>
	<path style="fill:#7E777F;" d="M464.066,106.84h-0.297C463.869,106.84,464.166,106.84,464.066,106.84z"/>
</g>
<path style="fill:#E8E6E9;" d="M446.469,110.444h21.283c1.189,0,2.317,0.278,3.328,0.765v-22.79c0-7.82-6.284-14.159-14.037-14.159
	c-7.752,0-14.037,6.339-14.037,14.159v22.838C444.055,110.738,445.23,110.444,446.469,110.444z"/>
<path style="fill:#D3D0D4;" d="M457.905,89.137c0-5.295,2.886-9.904,7.154-12.333c-2.274-1.6-5.033-2.544-8.016-2.544
	c-7.752,0-14.036,6.339-14.037,14.159v22.838c1.048-0.518,2.223-0.812,3.462-0.812h11.436L457.905,89.137z"/>
<path style="fill:#7E777F;" d="M446.469,106.84c-4.106,0-7.531,3.154-7.845,7.249c-1.001,13.066-1.867,26.413-2.598,39.995h42.034
	c-0.734-13.628-1.602-27.02-2.608-40.129c-0.308-4.019-3.67-7.115-7.701-7.115C467.751,106.84,446.469,106.84,446.469,106.84z"/>
<g>
	<path style="fill:#5C515E;" d="M467.752,106.84c-0.234,0-2.557,0-2.409,0H467.752L467.752,106.84z"/>
	<path style="fill:#5C515E;" d="M438.624,114.088c-0.003,0.036-0.005,0.073-0.008,0.109c-1.002,13.097-1.887,26.823-2.589,39.886
		h21.361c0.383-13.582,0.835-26.929,1.359-39.995c0.164-4.094,1.956-7.248,4.104-7.249h2.491h-5.381h-13.493
		C442.393,106.84,438.94,109.961,438.624,114.088z"/>
</g>
<path style="fill:#7E777F;" d="M438.874,406.686c0.694,8.838,1.451,17.54,2.262,26.117c7.835-8.202,15.118-16.933,21.817-26.117
	H438.874z"/>
<path style="fill:#5C515E;" d="M458.878,406.687h-20.004c0.833,10.607,1.433,17.268,2.262,26.117
	c6.356-6.654,12.346-13.66,17.962-20.968C459.024,410.119,458.949,408.412,458.878,406.687z"/>
<path style="fill:#E8E6E9;" d="M507.813,231.941c-1.211,0.699-2.615,1.104-4.114,1.114c-4.612,0.031-8.374-3.683-8.405-8.295
	c-0.192-29.149-1.411-58.12-3.628-86.236h-54.198c-4.612,0-8.35-3.739-8.35-8.35c0-4.613,3.738-8.35,8.35-8.35h61.889
	c4.335,0,7.949,3.318,8.32,7.637c2.652,30.929,4.104,62.955,4.316,95.189C512.014,227.763,510.329,230.488,507.813,231.941z"/>
<g>
</g>
<g>
</g>
<g>
</g>
<g>
</g>
<g>
</g>
<g>
</g>
<g>
</g>
<g>
</g>
<g>
</g>
<g>
</g>
<g>
</g>
<g>
</g>
<g>
</g>
<g>
</g>
<g>
</g>
</svg>
