<?xml version="1.0" encoding="iso-8859-1"?>
<!-- Generator: Adobe Illustrator 19.0.0, SVG Export Plug-In . SVG Version: 6.00 Build 0)  -->
<svg version="1.1" id="Capa_1" xmlns="http://www.w3.org/2000/svg" xmlns:xlink="http://www.w3.org/1999/xlink" x="0px" y="0px"
	 viewBox="0 0 512 512" style="enable-background:new 0 0 512 512;" xml:space="preserve">
<circle style="fill:#37AEE2;" cx="256" cy="256.164" r="255.833"/>
<path style="fill:#E8E6E9;" d="M436.168,152.532l-413.883,0.186c0.003,7.58,0.052,114.957,0.093,207.851
	C62.339,449.853,151.967,512.046,256.111,512c70.303-0.032,133.962-28.424,180.184-74.345
	C436.252,341.534,436.172,161.781,436.168,152.532z"/>
<path style="fill:#D3D0D4;" d="M71.87,152.696l-49.586,0.022c0.003,7.58,0.052,114.957,0.093,207.851
	c12.225,27.314,29.104,52.085,49.619,73.322C71.933,293,71.875,164.077,71.87,152.696z"/>
<path style="fill:#FEC50A;" d="M421.463,33.009L36.882,33.181c-8.058,0.004-14.648,7.07-14.644,15.702l0.047,103.833l413.883-0.186
	l-0.047-103.833C436.117,40.065,429.52,33.005,421.463,33.009z"/>
<path style="fill:#FD6874;" d="M421.463,33.009L36.882,33.181c-8.058,0.004-14.648,7.07-14.644,15.702l0.047,103.833l413.883-0.186
	l-0.047-103.833C436.117,40.065,429.52,33.005,421.463,33.009z"/>
<g>
	<path style="fill:#DD4C5B;" d="M86.468,33.159l-49.586,0.022c-8.058,0.004-14.648,7.07-14.644,15.702l0.047,103.833l49.586-0.022
		L71.823,48.862C71.82,40.229,78.41,33.163,86.468,33.159z"/>
	<path style="fill:#DD4C5B;" d="M88.174,73.646c-9.589,0.004-17.387,7.731-17.383,17.223s7.809,17.211,17.399,17.207
		c9.589-0.004,17.387-7.731,17.383-17.223S97.764,73.642,88.174,73.646z"/>
	<path style="fill:#DD4C5B;" d="M370.207,73.52c-9.589,0.004-17.387,7.731-17.383,17.223s7.809,17.211,17.399,17.207
		c9.589-0.004,17.387-7.731,17.383-17.223C387.6,81.235,379.795,73.516,370.207,73.52z"/>
	<path style="fill:#DD4C5B;" d="M299.698,73.551c-9.588,0.004-17.387,7.731-17.383,17.223s7.809,17.211,17.398,17.207
		c9.589-0.004,17.387-7.731,17.383-17.223C317.092,81.266,309.287,73.547,299.698,73.551z"/>
	<path style="fill:#DD4C5B;" d="M229.19,73.583c-9.589,0.004-17.387,7.731-17.383,17.223s7.809,17.211,17.399,17.207
		s17.387-7.731,17.383-17.223C246.585,81.298,238.78,73.579,229.19,73.583z"/>
	<path style="fill:#DD4C5B;" d="M158.682,73.615c-9.589,0.004-17.387,7.731-17.383,17.223c0.004,9.492,7.809,17.211,17.399,17.207
		c9.589-0.004,17.387-7.731,17.383-17.223S168.272,73.61,158.682,73.615z"/>
</g>
<path style="fill:#D3D0D4;" d="M24.071,180.637l17.494,8.601c2.366,1.164,5.088,1.163,7.453-0.003l15.535-7.655
	c2.364-1.166,5.087-1.167,7.452-0.003l15.545,7.642c2.366,1.164,5.088,1.162,7.452-0.003l15.536-7.655
	c2.364-1.166,5.087-1.167,7.452-0.003l15.543,7.642c2.366,1.164,5.088,1.162,7.453-0.003l15.536-7.655
	c2.365-1.166,5.087-1.167,7.453-0.003l15.543,7.642c2.366,1.164,5.088,1.162,7.453-0.004l15.534-7.655
	c2.365-1.166,5.087-1.167,7.453-0.004l15.544,7.642c2.366,1.164,5.088,1.162,7.453-0.004l15.534-7.655
	c2.365-1.166,5.087-1.167,7.453-0.004l15.542,7.642c2.366,1.164,5.088,1.162,7.453-0.003l15.537-7.656
	c2.364-1.165,5.086-1.167,7.452-0.003l15.547,7.642c2.366,1.163,5.087,1.162,7.452-0.003l15.54-7.657
	c2.364-1.165,5.086-1.166,7.452-0.003l15.547,7.643c2.365,1.163,5.087,1.162,7.451-0.003l15.542-7.657
	c2.364-1.165,5.086-1.166,7.451-0.004l15.552,7.644c2.365,1.163,5.087,1.162,7.451-0.003l17.498-8.619
	c0.57-0.28,1.164-0.493,1.773-0.639c-0.007-15.334-0.011-25.285-0.012-27.282l-413.883,0.186c0.001,2.12,0.005,12.053,0.012,27.282
	C22.905,180.145,23.5,180.357,24.071,180.637z"/>
<path style="fill:#BDB9BE;" d="M41.565,189.239c2.366,1.164,5.088,1.163,7.453-0.003l15.535-7.655
	c2.325-1.145,4.993-1.16,7.331-0.055c-0.007-15.833-0.012-25.99-0.013-28.83l-49.586,0.022c0.001,2.12,0.005,12.05,0.012,27.282
	c0.609,0.146,1.204,0.357,1.774,0.638L41.565,189.239z"/>
<g>
	<path style="fill:#D3D0D4;" d="M88.185,97.478c-4.763,0.002-8.626-3.857-8.628-8.62l-0.031-69.029
		c-0.002-4.764,3.858-8.626,8.62-8.628c4.763-0.002,8.626,3.857,8.628,8.62l0.031,69.029C96.808,93.614,92.949,97.476,88.185,97.478
		z"/>
	<path style="fill:#D3D0D4;" d="M158.693,97.447c-4.763,0.002-8.626-3.857-8.628-8.62l-0.031-69.029
		c-0.002-4.764,3.857-8.626,8.62-8.628c4.763-0.002,8.626,3.857,8.628,8.62l0.031,69.029
		C167.315,93.582,163.456,97.445,158.693,97.447z"/>
	<path style="fill:#D3D0D4;" d="M229.201,97.415c-4.763,0.002-8.626-3.857-8.628-8.62l-0.031-69.029
		c-0.002-4.764,3.858-8.626,8.62-8.628c4.762-0.002,8.626,3.857,8.628,8.62l0.031,69.029
		C237.823,93.55,233.964,97.413,229.201,97.415z"/>
	<path style="fill:#D3D0D4;" d="M299.709,97.383c-4.763,0.002-8.626-3.857-8.628-8.62l-0.031-69.029
		c-0.002-4.764,3.857-8.626,8.62-8.628c4.763-0.002,8.626,3.857,8.628,8.62l0.031,69.029
		C308.331,93.519,304.472,97.381,299.709,97.383z"/>
</g>
<path style="fill:#C5DEF3;" d="M370.217,97.352c-4.763,0.002-8.626-3.857-8.628-8.62l-0.031-69.029
	c-0.002-4.764,3.857-8.626,8.62-8.628c4.763-0.002,8.626,3.857,8.628,8.62l0.031,69.029C378.84,93.487,374.98,97.35,370.217,97.352z
	"/>
<g>
	<path style="fill:#D3D0D4;" d="M382.619,287.242l-41.129,0.018c-2.222,0.001-4.023-1.799-4.024-4.021l-0.018-41.129
		c-0.001-2.222,1.799-4.023,4.021-4.024l41.129-0.018c2.222-0.001,4.023,1.799,4.024,4.021l0.018,41.129
		C386.641,285.44,384.841,287.241,382.619,287.242z"/>
	<path style="fill:#D3D0D4;" d="M117.118,368.404l-41.129,0.018c-2.222,0.001-4.023-1.799-4.024-4.021l-0.018-41.129
		c-0.001-2.222,1.799-4.023,4.021-4.024l41.129-0.018c2.222-0.001,4.023,1.799,4.024,4.021l0.018,41.129
		C121.139,366.602,119.34,368.403,117.118,368.404z"/>
	<path style="fill:#D3D0D4;" d="M117.132,400.273l-41.129,0.018c-2.222,0.001-4.022,1.802-4.021,4.024l0.013,29.579
		c5.239,5.422,10.708,10.621,16.404,15.564l28.753-0.013c2.222-0.001,4.022-1.803,4.021-4.024l-0.018-41.129
		C121.155,402.073,119.354,400.272,117.132,400.273z"/>
</g>
<path style="fill:#BDB9BE;" d="M96.552,364.391l-0.018-41.129c-0.001-2.222,1.799-4.023,4.021-4.024l-24.587,0.011
	c-2.222,0.001-4.022,1.802-4.021,4.024l0.018,41.129c0.001,2.222,1.803,4.022,4.024,4.021l24.587-0.011
	C98.355,368.413,96.553,366.613,96.552,364.391z"/>
<path style="fill:#D3D0D4;" d="M117.118,287.242L75.99,287.26c-2.222,0.001-4.023-1.799-4.024-4.021l-0.018-41.129
	c-0.001-2.222,1.799-4.023,4.021-4.024l41.129-0.018c2.222-0.001,4.023,1.799,4.024,4.021l0.018,41.129
	C121.139,285.44,119.34,287.241,117.118,287.242z"/>
<g>
	<path style="fill:#BDB9BE;" d="M96.552,283.222l-0.018-41.129c-0.001-2.222,1.799-4.023,4.021-4.024l-24.587,0.011
		c-2.222,0.001-4.022,1.802-4.021,4.024l0.018,41.129c0.001,2.222,1.803,4.022,4.024,4.021l24.587-0.011
		C98.355,287.243,96.553,285.443,96.552,283.222z"/>
	<path style="fill:#BDB9BE;" d="M96.588,445.433l-0.018-41.129c-0.001-2.222,1.799-4.023,4.021-4.024l-24.587,0.011
		c-2.222,0.001-4.022,1.802-4.021,4.024l0.013,29.579c5.239,5.422,10.708,10.621,16.404,15.564l12.212-0.005
		C98.392,449.456,96.589,447.655,96.588,445.433z"/>
</g>
<g>
	<path style="fill:#D3D0D4;" d="M205.666,449.407l-41.129,0.018c-2.222,0.001-4.023-1.799-4.024-4.021l-0.018-41.129
		c-0.001-2.222,1.799-4.023,4.021-4.024l41.129-0.018c2.222-0.001,4.023,1.799,4.024,4.021l0.018,41.129
		C209.689,447.605,207.888,449.406,205.666,449.407z"/>
	<path style="fill:#D3D0D4;" d="M294.179,449.367l-41.129,0.018c-2.222,0.001-4.023-1.799-4.024-4.021l-0.018-41.129
		c-0.001-2.222,1.799-4.023,4.021-4.024l41.129-0.018c2.222-0.001,4.023,1.799,4.024,4.021l0.018,41.129
		C298.201,447.565,296.401,449.366,294.179,449.367z"/>
	<path style="fill:#D3D0D4;" d="M205.666,287.242l-41.129,0.018c-2.222,0.001-4.023-1.799-4.024-4.021l-0.018-41.129
		c-0.001-2.222,1.799-4.023,4.021-4.024l41.129-0.018c2.222-0.001,4.023,1.799,4.024,4.021l0.018,41.129
		C209.689,285.44,207.888,287.241,205.666,287.242z"/>
	<path style="fill:#D3D0D4;" d="M294.179,287.242l-41.129,0.018c-2.222,0.001-4.023-1.799-4.024-4.021l-0.018-41.129
		c-0.001-2.222,1.799-4.023,4.021-4.024l41.129-0.018c2.222-0.001,4.023,1.799,4.024,4.021l0.018,41.129
		C298.201,285.44,296.401,287.241,294.179,287.242z"/>
	<path style="fill:#D3D0D4;" d="M382.692,449.328l-41.129,0.018c-2.222,0.001-4.023-1.799-4.024-4.021l-0.018-41.129
		c-0.001-2.222,1.799-4.023,4.021-4.024l41.129-0.018c2.222-0.001,4.023,1.799,4.024,4.021l0.018,41.129
		C386.713,447.525,384.913,449.327,382.692,449.328z"/>
	<path style="fill:#D3D0D4;" d="M205.666,368.404l-41.129,0.018c-2.222,0.001-4.023-1.799-4.024-4.021l-0.018-41.129
		c-0.001-2.222,1.799-4.023,4.021-4.024l41.129-0.018c2.222-0.001,4.023,1.799,4.024,4.021l0.018,41.129
		C209.689,366.602,207.888,368.403,205.666,368.404z"/>
	<path style="fill:#D3D0D4;" d="M294.179,368.404l-41.129,0.018c-2.222,0.001-4.023-1.799-4.024-4.021l-0.018-41.129
		c-0.001-2.222,1.799-4.023,4.021-4.024l41.129-0.018c2.222-0.001,4.023,1.799,4.024,4.021l0.018,41.129
		C298.201,366.602,296.401,368.403,294.179,368.404z"/>
	<path style="fill:#D3D0D4;" d="M382.692,368.404l-41.129,0.018c-2.222,0.001-4.023-1.799-4.024-4.021l-0.018-41.129
		c-0.001-2.222,1.799-4.023,4.021-4.024l41.129-0.018c2.222-0.001,4.023,1.799,4.024,4.021l0.018,41.129
		C386.713,366.602,384.913,368.403,382.692,368.404z"/>
</g>
<path style="fill:#E8E6E9;" d="M492.796,43.936V26.069H361.851v17.868c0,30.961,21.492,56.899,50.371,63.718
	c4.263,1.006,7.304,4.763,7.304,9.142l0,0c0,4.322-3,8.034-7.208,9.022c-28.927,6.784-50.466,32.745-50.466,63.74v17.867h130.946
	v-17.867c0-31.038-21.598-57.028-50.585-63.768c-4.139-0.962-7.088-4.62-7.088-8.871l0,0c0-4.452,3.093-8.262,7.423-9.293
	C471.365,100.764,492.796,74.856,492.796,43.936z"/>
<path style="fill:#D3D0D4;" d="M425.131,125.818c1.512-0.987,2.59-4.699,2.59-9.022l0,0c0-4.38-1.093-8.136-2.625-9.142
	c-10.38-6.819-18.104-32.757-18.104-63.718V26.069h-45.142v17.867c0,30.961,21.492,56.899,50.37,63.718
	c4.263,1.006,7.304,4.762,7.304,9.142l0,0c0,4.322-3,8.034-7.208,9.022c-28.927,6.784-50.466,32.745-50.466,63.74v17.868h45.142
	v-17.868C406.993,158.563,414.735,132.602,425.131,125.818z"/>
<path style="fill:#FFF6D4;" d="M370.725,76.842c8.905,15.281,23.81,26.636,41.496,30.811c4.247,1.002,7.279,4.735,7.302,9.093
	h15.607c0.079-4.377,3.141-8.104,7.416-9.122c17.634-4.198,32.491-15.537,41.376-30.783L370.725,76.842L370.725,76.842z"/>
<path style="fill:#FFE693;" d="M370.729,76.848c2.224,3.815,4.821,7.385,7.742,10.659c0.008,0.009,0.016,0.018,0.024,0.027
	c8.541,9.558,19.349,16.057,30.703,19.322c3.125,0.898,5.357,1.011,7.722,3.48c0.009,0.009,0.018,0.017,0.027,0.026
	c1.598,1.681,2.562,3.934,2.575,6.385h8.198c-0.008-4.359-1.098-8.091-2.624-9.093c-6.357-4.175-11.713-15.531-14.914-30.811
	h-39.456L370.729,76.848z"/>
<path style="fill:#FFF6D4;" d="M486.298,161.118H368.35c-4.156,8.602-6.499,18.246-6.499,28.44v17.867h130.946v-17.867
	C492.796,179.363,490.454,169.72,486.298,161.118z"/>
<path style="fill:#FFE693;" d="M406.993,189.558c0-10.195,0.842-19.838,2.336-28.44H368.35c-4.414,9.133-6.499,18.923-6.499,28.44
	v17.868h45.141L406.993,189.558L406.993,189.558z"/>
<g>
	<path style="fill:#FEBE40;" d="M498.795,233.494H355.853c-7.198,0-13.034-6.171-13.034-13.784c0-7.613,5.836-13.784,13.034-13.784
		h142.943c7.198,0,13.034,6.171,13.034,13.784C511.829,227.323,505.994,233.494,498.795,233.494z"/>
	<path style="fill:#FEBE40;" d="M498.795,27.568H355.853c-7.198,0-13.034-6.171-13.034-13.784S348.654,0,355.853,0h142.943
		c7.198,0,13.034,6.171,13.034,13.784S505.994,27.568,498.795,27.568z"/>
</g>
<g>
	<path style="fill:#F9AA2B;" d="M395.788,219.71c0-7.613,5.836-13.784,13.034-13.784h-52.97c-7.198,0-13.034,6.171-13.034,13.784
		s5.836,13.784,13.034,13.784h52.97C401.624,233.494,395.788,227.323,395.788,219.71z"/>
	<path style="fill:#F9AA2B;" d="M395.788,13.784C395.788,6.172,401.624,0,408.822,0h-52.97c-7.198,0-13.034,6.172-13.034,13.784
		s5.836,13.784,13.034,13.784h52.97C401.624,27.568,395.788,21.397,395.788,13.784z"/>
</g>
<g>
</g>
<g>
</g>
<g>
</g>
<g>
</g>
<g>
</g>
<g>
</g>
<g>
</g>
<g>
</g>
<g>
</g>
<g>
</g>
<g>
</g>
<g>
</g>
<g>
</g>
<g>
</g>
<g>
</g>
</svg>
