<?xml version="1.0" encoding="iso-8859-1"?>
<!-- Generator: Adobe Illustrator 19.0.0, SVG Export Plug-In . SVG Version: 6.00 Build 0)  -->
<svg version="1.1" id="Capa_1" xmlns="http://www.w3.org/2000/svg" xmlns:xlink="http://www.w3.org/1999/xlink" x="0px" y="0px"
	 viewBox="0 0 512 512" style="enable-background:new 0 0 512 512;" xml:space="preserve">
<circle style="fill:#F9AA2B;" cx="256" cy="265.344" r="246.646"/>
<path style="fill:#E8E6E9;" d="M255.995,180.216c-49.685,0-90.108-40.422-90.108-90.108S206.309,0,255.995,0
	s90.108,40.422,90.108,90.108S305.68,180.216,255.995,180.216z M255.995,18.643c-39.406,0-71.465,32.059-71.465,71.465
	s32.059,71.465,71.465,71.465s71.465-32.059,71.465-71.465S295.401,18.643,255.995,18.643z"/>
<path style="fill:#D3D0D4;" d="M295.344,149.724c-11.293,7.479-24.818,11.849-39.349,11.849c-39.406,0-71.465-32.059-71.465-71.465
	c0-24.393,12.292-45.961,30.999-58.861c-5.636-0.654-10.015-5.437-10.015-11.248c0-1.955,0.495-3.793,1.367-5.399
	c-24.661,16.095-40.994,43.928-40.994,75.51c0,49.685,40.422,90.108,90.108,90.108c18.267,0,35.277-5.469,49.492-14.848
	C297.559,165.141,292.316,157.04,295.344,149.724z"/>
<g>
	<path style="fill:#BDB9BE;" d="M255.995,190.015c5.647,0,11.236,0.275,16.766,0.784v-50.501h-33.531v50.501
		C244.759,190.29,250.348,190.015,255.995,190.015z"/>
	<path style="fill:#BDB9BE;" d="M255.995,92.037c-11.858,0-21.471,9.613-21.471,21.472h42.943
		C277.466,101.65,267.853,92.037,255.995,92.037z"/>
</g>
<path style="fill:#E8E6E9;" d="M296.837,127.791L296.837,127.791c0,9.26-7.506,16.766-16.766,16.766h-48.153
	c-9.26,0-16.766-7.506-16.766-16.766l0,0c0-9.26,7.506-16.766,16.766-16.766h48.153C289.33,111.025,296.837,118.531,296.837,127.791
	z"/>
<g>
	<path style="fill:#D3D0D4;" d="M255.995,127.791c0-9.26,7.506-16.766,16.766-16.766h-40.842c-9.26,0-16.766,7.506-16.766,16.766
		s7.506,16.766,16.766,16.766h40.842C263.501,144.556,255.995,137.05,255.995,127.791z"/>
	<path style="fill:#D3D0D4;" d="M163.915,228.611c-3.156,0-6.233-1.604-7.983-4.502c-11.891-19.697-19.911-32.905-19.911-32.905
		c-2.67-4.396-1.271-10.126,3.127-12.795c4.397-2.673,10.126-1.271,12.796,3.127c0,0,8.03,13.222,19.937,32.945
		c2.659,4.403,1.244,10.13-3.16,12.787C167.214,228.178,165.553,228.611,163.915,228.611z"/>
</g>
<path style="fill:#E8E6E9;" d="M126.805,195.404c-2.682-4.39-1.297-10.122,3.094-12.803l16.3-9.956
	c4.391-2.682,10.124-1.295,12.803,3.094c2.682,4.39,1.297,10.122-3.094,12.803l-16.3,9.956
	C135.217,201.179,129.485,199.794,126.805,195.404z"/>
<path style="fill:#7E777F;" d="M255.995,180.146c-109.034,0-197.74,88.706-197.74,197.74c0,13.799,1.426,27.27,4.128,40.279
	C107.556,475.319,177.489,512,255.994,512s148.438-36.681,193.611-93.834c2.703-13.009,4.128-26.48,4.128-40.279
	C453.735,268.852,365.029,180.146,255.995,180.146z"/>
<path style="fill:#5C515E;" d="M149.944,336.825c0-60.052,25.196-114.215,65.586-152.509
	c-89.692,18.725-157.275,98.402-157.275,193.571c0,13.799,1.426,27.27,4.128,40.279c42.76,54.102,107.713,89.837,181.116,93.501
	C187.097,473.986,149.944,409.748,149.944,336.825z"/>
<path style="fill:#E8E6E9;" d="M255.995,213.678c-90.546,0-164.209,73.664-164.209,164.208c0,35.088,11.068,67.636,29.888,94.349
	c38.65,25.145,84.774,39.765,134.321,39.765c49.545,0,95.671-14.62,134.321-39.765c18.819-26.713,29.888-59.262,29.888-94.349
	C420.204,287.342,346.541,213.678,255.995,213.678z"/>
<path style="fill:#D3D0D4;" d="M91.786,377.885c0,35.07,11.056,67.603,29.86,94.308c37.423,24.354,79.343,37.351,121.854,39.473
	c-56.403-37.681-93.556-101.919-93.556-174.842c0-37.306,9.729-72.335,26.778-102.703
	C126.125,262.133,91.786,316.072,91.786,377.885z"/>
<path style="fill:#FD6874;" d="M255.995,213.678v145.787c10.174,0,18.421,8.248,18.421,18.422c0,3.357-0.912,6.494-2.481,9.204
	l126.235,72.881c14.005-24.164,22.032-52.204,22.032-82.085C420.203,287.342,346.54,213.678,255.995,213.678z"/>
<g>
	<path style="fill:#7E777F;" d="M255.995,204.363c-5.144,0-9.315,4.169-9.315,9.315v11.453c0,5.144,4.17,9.315,9.315,9.315
		s9.315-4.169,9.315-9.315v-11.453C265.309,208.532,261.139,204.363,255.995,204.363z"/>
	<path style="fill:#7E777F;" d="M181.957,231.02c-2.573-4.454-8.27-5.98-12.723-3.41c-4.454,2.573-5.981,8.269-3.41,12.723
		l5.727,9.92c2.58,4.468,8.28,5.973,12.723,3.41c4.454-2.573,5.981-8.269,3.41-12.723L181.957,231.02z"/>
	<path style="fill:#7E777F;" d="M128.362,293.442l-9.92-5.727c-4.455-2.573-10.152-1.048-12.723,3.41
		c-2.573,4.454-1.046,10.152,3.41,12.723l9.92,5.727c4.435,2.56,10.14,1.066,12.723-3.41
		C134.345,301.711,132.818,296.015,128.362,293.442z"/>
	<path style="fill:#7E777F;" d="M402.861,451.923l-9.92-5.727c-4.455-2.572-10.152-1.047-12.723,3.41
		c-2.573,4.454-1.046,10.151,3.41,12.723l9.92,5.727c0.592,0.342,1.21,0.593,1.836,0.792c4.134-2.838,8.181-5.792,12.128-8.87
		C407.503,456.767,405.842,453.645,402.861,451.923z"/>
	<path style="fill:#7E777F;" d="M112.555,377.885c0-5.144-4.17-9.315-9.315-9.315H91.786c-5.144,0-9.315,4.169-9.315,9.315
		c0,5.144,4.17,9.315,9.315,9.315h11.453C108.384,387.2,112.555,383.03,112.555,377.885z"/>
	<path style="fill:#7E777F;" d="M420.203,368.571h-11.453c-5.144,0-9.315,4.169-9.315,9.315c0,5.144,4.17,9.315,9.315,9.315h11.453
		c5.144,0,9.315-4.169,9.315-9.315C429.517,372.741,425.347,368.571,420.203,368.571z"/>
	<path style="fill:#7E777F;" d="M119.049,446.196l-9.92,5.727c-2.982,1.722-4.642,4.843-4.649,8.055
		c3.947,3.078,7.994,6.032,12.127,8.87c0.626-0.2,1.244-0.45,1.836-0.792l9.92-5.727c4.454-2.573,5.981-8.269,3.41-12.723
		C129.2,445.149,123.504,443.626,119.049,446.196z"/>
	<path style="fill:#7E777F;" d="M392.941,309.575l9.92-5.727c4.454-2.573,5.981-8.269,3.41-12.723
		c-2.572-4.454-8.27-5.98-12.723-3.41l-9.92,5.727c-4.454,2.573-5.981,8.269-3.41,12.723
		C382.798,310.634,388.498,312.138,392.941,309.575z"/>
	<path style="fill:#7E777F;" d="M342.756,227.611c-4.455-2.573-10.152-1.048-12.723,3.41l-5.727,9.92
		c-2.573,4.454-1.046,10.152,3.41,12.723c4.435,2.56,10.14,1.066,12.723-3.41l5.727-9.92
		C348.737,235.88,347.211,230.184,342.756,227.611z"/>
	<path style="fill:#7E777F;" d="M255.995,368.779c-5.144,0-9.315-4.169-9.315-9.315v-102.84c0-5.144,4.17-9.315,9.315-9.315
		s9.315,4.169,9.315,9.315v102.841C265.309,364.609,261.139,368.779,255.995,368.779z"/>
	<path style="fill:#7E777F;" d="M333.441,433.355l-66.163-38.2c-4.455-2.573-5.981-8.269-3.41-12.723
		c2.572-4.455,8.268-5.98,12.723-3.41l66.162,38.2c4.455,2.573,5.981,8.269,3.41,12.723
		C343.586,434.415,337.885,435.919,333.441,433.355z"/>
</g>
<g>
	<path style="fill:#5C515E;" d="M255.995,405.553c-15.256,0-27.667-12.411-27.667-27.667c0-15.256,12.411-27.666,27.667-27.666
		c15.256,0,27.667,12.41,27.667,27.666C283.662,393.141,271.251,405.553,255.995,405.553z M255.995,368.848
		c-4.984,0-9.039,4.054-9.039,9.038c0,4.984,4.054,9.039,9.039,9.039c4.984,0,9.039-4.054,9.039-9.039
		C265.033,372.902,260.979,368.848,255.995,368.848z"/>
	<path style="fill:#5C515E;" d="M255.995,204.363c-95.681,0-173.522,77.842-173.522,173.522c0,28.952,7.138,56.265,19.73,80.288
		c13.144,10.498,27.382,19.682,42.522,27.348c-26.987-27.89-43.623-65.854-43.623-107.636c0-85.409,69.484-154.894,154.894-154.894
		S410.89,292.476,410.89,377.885c0,41.782-16.636,79.747-43.623,107.636c15.14-7.666,29.377-16.851,42.522-27.348
		c12.592-24.024,19.73-51.336,19.73-80.289C429.517,282.205,351.676,204.363,255.995,204.363z"/>
</g>
<g>
</g>
<g>
</g>
<g>
</g>
<g>
</g>
<g>
</g>
<g>
</g>
<g>
</g>
<g>
</g>
<g>
</g>
<g>
</g>
<g>
</g>
<g>
</g>
<g>
</g>
<g>
</g>
<g>
</g>
</svg>
