<?xml version="1.0" encoding="iso-8859-1"?>
<!-- Generator: Adobe Illustrator 19.0.0, SVG Export Plug-In . SVG Version: 6.00 Build 0)  -->
<svg version="1.1" id="Capa_1" xmlns="http://www.w3.org/2000/svg" xmlns:xlink="http://www.w3.org/1999/xlink" x="0px" y="0px"
	 viewBox="0 0 511.993 511.993" style="enable-background:new 0 0 511.993 511.993;" xml:space="preserve">
<circle style="fill:#42D197;" cx="255.996" cy="256.001" r="255.991"/>
<path style="fill:#E8E6E9;" d="M436.279,152.299L22.14,152.486c0.003,7.585,0.052,115.028,0.093,207.979
	c39.986,89.34,129.67,151.571,233.878,151.525c70.346-0.032,134.045-28.442,180.295-74.391
	C436.364,341.417,436.283,161.554,436.279,152.299z"/>
<path style="fill:#D3D0D4;" d="M71.757,152.463l-49.616,0.022c0.003,7.585,0.052,115.028,0.093,207.979
	c12.232,27.33,29.122,52.117,49.649,73.367C71.82,292.854,71.762,163.852,71.757,152.463z"/>
<path style="fill:#FEC50A;" d="M421.564,32.703L36.746,32.875c-8.063,0.004-14.657,7.075-14.653,15.712l0.047,103.897l414.139-0.186
	l-0.046-103.896C436.228,39.763,429.628,32.699,421.564,32.703z"/>
<path style="fill:#FD6874;" d="M421.564,32.703L36.746,32.875c-8.063,0.004-14.657,7.075-14.653,15.712l0.047,103.897l414.139-0.186
	l-0.046-103.896C436.228,39.763,429.628,32.699,421.564,32.703z"/>
<g>
	<path style="fill:#DD4C5B;" d="M86.363,32.853l-49.616,0.022c-8.063,0.004-14.657,7.075-14.653,15.712l0.047,103.897l49.616-0.022
		L71.71,48.565C71.706,39.928,78.3,32.857,86.363,32.853z"/>
	<path style="fill:#DD4C5B;" d="M88.07,73.365c-9.595,0.004-17.397,7.736-17.393,17.234s7.814,17.222,17.409,17.218
		s17.397-7.736,17.393-17.234S97.666,73.361,88.07,73.365z"/>
	<path style="fill:#DD4C5B;" d="M370.277,73.239c-9.595,0.004-17.397,7.736-17.393,17.234s7.814,17.222,17.409,17.218
		c9.595-0.004,17.397-7.736,17.393-17.234C387.682,80.958,379.872,73.234,370.277,73.239z"/>
	<path style="fill:#DD4C5B;" d="M299.725,73.27c-9.594,0.004-17.397,7.736-17.393,17.234c0.004,9.498,7.814,17.222,17.408,17.218
		c9.595-0.004,17.397-7.736,17.393-17.234C317.13,80.989,309.32,73.266,299.725,73.27z"/>
	<path style="fill:#DD4C5B;" d="M229.174,73.302c-9.595,0.004-17.397,7.736-17.393,17.234c0.004,9.498,7.814,17.222,17.409,17.218
		s17.397-7.736,17.393-17.234C246.579,81.022,238.768,73.298,229.174,73.302z"/>
	<path style="fill:#DD4C5B;" d="M158.623,73.334c-9.595,0.004-17.397,7.736-17.393,17.234c0.004,9.498,7.814,17.222,17.409,17.218
		s17.397-7.736,17.393-17.234C176.027,81.054,168.217,73.329,158.623,73.334z"/>
</g>
<path style="fill:#D3D0D4;" d="M23.928,180.422l17.505,8.607c2.368,1.164,5.091,1.163,7.457-0.003l15.545-7.66
	c2.366-1.166,5.09-1.167,7.456-0.003l15.555,7.647c2.368,1.164,5.091,1.162,7.456-0.003l15.546-7.66
	c2.366-1.166,5.09-1.167,7.456-0.003l15.553,7.647c2.368,1.164,5.091,1.162,7.457-0.003l15.546-7.66
	c2.367-1.166,5.09-1.167,7.457-0.003l15.553,7.647c2.368,1.164,5.091,1.162,7.457-0.004l15.544-7.66
	c2.367-1.166,5.09-1.167,7.457-0.004l15.554,7.647c2.368,1.164,5.091,1.162,7.457-0.004l15.544-7.66
	c2.367-1.166,5.09-1.167,7.457-0.004l15.552,7.647c2.368,1.164,5.091,1.162,7.457-0.003l15.547-7.661
	c2.366-1.165,5.089-1.167,7.456-0.003l15.557,7.647c2.368,1.163,5.09,1.162,7.456-0.003l15.55-7.662
	c2.366-1.165,5.089-1.166,7.456-0.003l15.558,7.648c2.367,1.163,5.09,1.162,7.455-0.003l15.552-7.662
	c2.366-1.165,5.089-1.166,7.455-0.004l15.562,7.649c2.367,1.163,5.09,1.162,7.455-0.003l17.509-8.625
	c0.57-0.281,1.165-0.493,1.774-0.639c-0.007-15.343-0.011-25.301-0.012-27.298l-414.139,0.186c0.001,2.121,0.005,12.06,0.012,27.298
	C22.761,179.929,23.357,180.142,23.928,180.422z"/>
<path style="fill:#BDB9BE;" d="M41.433,189.029c2.368,1.164,5.091,1.163,7.457-0.003l15.545-7.66
	c2.326-1.146,4.996-1.16,7.335-0.055c-0.007-15.842-0.012-26.006-0.013-28.847l-49.616,0.022c0.001,2.121,0.005,12.057,0.012,27.298
	c0.609,0.146,1.204,0.358,1.775,0.638L41.433,189.029z"/>
<g>
	<path style="fill:#D3D0D4;" d="M88.081,97.212c-4.766,0.002-8.632-3.859-8.634-8.626l-0.031-69.072
		c-0.002-4.767,3.86-8.632,8.626-8.634c4.766-0.002,8.632,3.859,8.634,8.626l0.031,69.072C96.71,93.345,92.847,97.21,88.081,97.212z
		"/>
	<path style="fill:#D3D0D4;" d="M158.633,97.181c-4.766,0.002-8.632-3.859-8.634-8.626l-0.031-69.072
		c-0.002-4.767,3.859-8.632,8.626-8.634s8.632,3.859,8.634,8.626l0.031,69.072C167.261,93.313,163.399,97.178,158.633,97.181z"/>
	<path style="fill:#D3D0D4;" d="M229.184,97.149c-4.766,0.002-8.632-3.859-8.634-8.626l-0.031-69.072
		c-0.002-4.767,3.859-8.632,8.626-8.634c4.766-0.002,8.632,3.859,8.634,8.626l0.031,69.072
		C237.813,93.281,233.95,97.147,229.184,97.149z"/>
	<path style="fill:#D3D0D4;" d="M299.735,97.116c-4.766,0.002-8.632-3.859-8.634-8.626l-0.031-69.072
		c-0.002-4.767,3.86-8.632,8.626-8.634c4.766-0.002,8.632,3.859,8.634,8.626l0.031,69.072
		C308.364,93.25,304.502,97.114,299.735,97.116z"/>
</g>
<path style="fill:#C5DEF3;" d="M370.288,97.085c-4.766,0.002-8.632-3.859-8.634-8.626l-0.031-69.072
	c-0.002-4.767,3.86-8.632,8.626-8.634c4.766-0.002,8.632,3.859,8.634,8.626l0.031,69.072
	C378.916,93.218,375.054,97.083,370.288,97.085z"/>
<g>
	<path style="fill:#D3D0D4;" d="M382.698,287.093l-41.154,0.018c-2.223,0.001-4.026-1.8-4.027-4.024l-0.018-41.154
		c-0.001-2.223,1.8-4.026,4.024-4.027l41.154-0.018c2.223-0.001,4.026,1.8,4.027,4.024l0.018,41.154
		C386.721,285.29,384.92,287.092,382.698,287.093z"/>
	<path style="fill:#D3D0D4;" d="M117.032,368.305l-41.154,0.018c-2.223,0.001-4.026-1.8-4.027-4.024l-0.018-41.154
		c-0.001-2.223,1.8-4.026,4.024-4.027l41.154-0.018c2.223-0.001,4.026,1.8,4.027,4.024l0.018,41.154
		C121.056,366.502,119.255,368.304,117.032,368.305z"/>
	<path style="fill:#D3D0D4;" d="M117.047,400.194l-41.154,0.018c-2.223,0.001-4.025,1.803-4.024,4.027l0.013,29.597
		c5.242,5.425,10.715,10.627,16.415,15.574l28.771-0.013c2.223-0.001,4.025-1.804,4.024-4.027l-0.018-41.154
		C121.072,401.995,119.27,400.193,117.047,400.194z"/>
</g>
<path style="fill:#BDB9BE;" d="M96.453,364.289l-0.018-41.154c-0.001-2.223,1.8-4.026,4.024-4.027l-24.602,0.011
	c-2.223,0.001-4.025,1.803-4.024,4.027l0.018,41.154c0.001,2.223,1.804,4.025,4.027,4.024l24.602-0.011
	C98.258,368.314,96.454,366.513,96.453,364.289z"/>
<path style="fill:#D3D0D4;" d="M117.032,287.093l-41.154,0.018c-2.223,0.001-4.026-1.8-4.027-4.024l-0.018-41.153
	c-0.001-2.223,1.8-4.026,4.024-4.027l41.154-0.018c2.223-0.001,4.026,1.8,4.027,4.024l0.018,41.154
	C121.056,285.29,119.255,287.092,117.032,287.093z"/>
<g>
	<path style="fill:#BDB9BE;" d="M96.453,283.069l-0.018-41.154c-0.001-2.223,1.8-4.026,4.024-4.027L75.857,237.9
		c-2.223,0.001-4.025,1.803-4.024,4.027l0.018,41.154c0.001,2.223,1.804,4.025,4.027,4.024l24.602-0.011
		C98.258,287.094,96.454,285.293,96.453,283.069z"/>
	<path style="fill:#BDB9BE;" d="M96.49,445.382l-0.018-41.154c-0.001-2.223,1.8-4.026,4.024-4.027l-24.602,0.011
		c-2.223,0.001-4.025,1.803-4.024,4.027l0.013,29.597c5.242,5.425,10.715,10.627,16.415,15.574l12.219-0.005
		C98.294,449.407,96.491,447.605,96.49,445.382z"/>
</g>
<g>
	<path style="fill:#D3D0D4;" d="M205.636,449.359l-41.154,0.018c-2.223,0.001-4.026-1.8-4.027-4.024l-0.018-41.154
		c-0.001-2.223,1.8-4.026,4.024-4.027l41.154-0.018c2.223-0.001,4.026,1.8,4.027,4.024l0.018,41.154
		C209.661,447.555,207.859,449.358,205.636,449.359z"/>
	<path style="fill:#D3D0D4;" d="M294.203,449.319l-41.154,0.018c-2.223,0.001-4.026-1.8-4.027-4.024l-0.018-41.154
		c-0.001-2.223,1.8-4.026,4.024-4.027l41.154-0.018c2.223-0.001,4.026,1.8,4.027,4.024l0.018,41.154
		C298.228,447.515,296.426,449.318,294.203,449.319z"/>
	<path style="fill:#D3D0D4;" d="M205.636,287.093l-41.154,0.018c-2.223,0.001-4.026-1.8-4.027-4.024l-0.018-41.154
		c-0.001-2.223,1.8-4.026,4.024-4.027l41.154-0.018c2.223-0.001,4.026,1.8,4.027,4.024l0.018,41.154
		C209.661,285.29,207.859,287.092,205.636,287.093z"/>
	<path style="fill:#D3D0D4;" d="M294.203,287.093l-41.154,0.018c-2.223,0.001-4.026-1.8-4.027-4.024l-0.018-41.154
		c-0.001-2.223,1.8-4.026,4.024-4.027l41.154-0.018c2.223-0.001,4.026,1.8,4.027,4.024l0.018,41.154
		C298.228,285.29,296.426,287.092,294.203,287.093z"/>
	<path style="fill:#D3D0D4;" d="M382.77,449.28l-41.154,0.018c-2.223,0.001-4.026-1.8-4.027-4.024l-0.018-41.154
		c-0.001-2.223,1.8-4.026,4.024-4.027l41.154-0.018c2.223-0.001,4.026,1.8,4.027,4.024l0.018,41.154
		C386.795,447.475,384.993,449.279,382.77,449.28z"/>
	<path style="fill:#D3D0D4;" d="M205.636,368.305l-41.154,0.018c-2.223,0.001-4.026-1.8-4.027-4.024l-0.018-41.154
		c-0.001-2.223,1.8-4.026,4.024-4.027l41.154-0.018c2.223-0.001,4.026,1.8,4.027,4.024l0.018,41.154
		C209.661,366.502,207.859,368.304,205.636,368.305z"/>
	<path style="fill:#D3D0D4;" d="M294.203,368.305l-41.154,0.018c-2.223,0.001-4.026-1.8-4.027-4.024l-0.018-41.154
		c-0.001-2.223,1.8-4.026,4.024-4.027l41.154-0.018c2.223-0.001,4.026,1.8,4.027,4.024l0.018,41.154
		C298.228,366.502,296.426,368.304,294.203,368.305z"/>
	<path style="fill:#D3D0D4;" d="M382.77,368.305l-41.154,0.018c-2.223,0.001-4.026-1.8-4.027-4.024l-0.018-41.154
		c-0.001-2.223,1.8-4.026,4.024-4.027l41.154-0.018c2.223-0.001,4.026,1.8,4.027,4.024l0.018,41.154
		C386.795,366.502,384.993,368.304,382.77,368.305z"/>
</g>
<circle style="fill:#FED652;" cx="411.365" cy="100.623" r="100.623"/>
<path style="fill:#FEBE40;" d="M380.995,118.162c-22.047-38.187-16.214-84.817,11.178-116.33
	c-10.666,2.073-21.177,5.917-31.114,11.655c-48.125,27.785-64.614,89.322-36.829,137.448s89.322,64.614,137.448,36.829
	c9.938-5.738,18.523-12.917,25.65-21.119C446.342,174.612,403.043,156.349,380.995,118.162z"/>
<circle style="fill:#E8E6E9;" cx="411.365" cy="100.623" r="69.634"/>
<path style="fill:#D3D0D4;" d="M380.995,118.162c-13.413-23.232-16.49-49.582-10.689-73.758
	c-17.314,12.667-28.567,33.126-28.567,56.222c0,38.455,31.174,69.63,69.63,69.63c10.029,0,19.555-2.137,28.17-5.954
	C415.697,157.238,394.41,141.396,380.995,118.162z"/>
<path style="fill:#FD6874;" d="M411.369,30.997v69.63h69.63C480.998,62.17,449.825,30.997,411.369,30.997z"/>
<g>
	<path style="fill:#5C515E;" d="M411.369,117.706c-4.836,0-8.757-3.921-8.757-8.757V47.511c0-4.836,3.921-8.757,8.757-8.757
		c4.836,0,8.757,3.921,8.757,8.757v61.437C420.126,113.785,416.205,117.706,411.369,117.706z"/>
	<path style="fill:#5C515E;" d="M444.743,109.382H402.71c-4.836,0-8.757-3.921-8.757-8.757s3.921-8.757,8.757-8.757h42.033
		c4.836,0,8.757,3.921,8.757,8.757S449.579,109.382,444.743,109.382z"/>
</g>
<g>
</g>
<g>
</g>
<g>
</g>
<g>
</g>
<g>
</g>
<g>
</g>
<g>
</g>
<g>
</g>
<g>
</g>
<g>
</g>
<g>
</g>
<g>
</g>
<g>
</g>
<g>
</g>
<g>
</g>
</svg>
