<?xml version="1.0" encoding="iso-8859-1"?>
<!-- Generator: Adobe Illustrator 19.0.0, SVG Export Plug-In . SVG Version: 6.00 Build 0)  -->
<svg version="1.1" id="Capa_1" xmlns="http://www.w3.org/2000/svg" xmlns:xlink="http://www.w3.org/1999/xlink" x="0px" y="0px"
	 viewBox="0 0 512 512" style="enable-background:new 0 0 512 512;" xml:space="preserve">
<circle style="fill:#FD6874;" cx="256" cy="265.32" r="246.68"/>
<path style="fill:#E8E6E9;" d="M256,180.241c-49.692,0-90.12-40.428-90.12-90.12S206.308,0,256,0s90.12,40.428,90.12,90.12
	S305.692,180.241,256,180.241z M256,18.646c-39.411,0-71.475,32.063-71.475,71.475s32.063,71.475,71.475,71.475
	s71.475-32.063,71.475-71.475S295.411,18.646,256,18.646z"/>
<g>
	<path style="fill:#D3D0D4;" d="M294.493,154.074c0-1.534,0.309-2.995,0.861-4.33c-11.295,7.48-24.821,11.851-39.354,11.851
		c-39.411,0-71.475-32.063-71.475-71.475c0-24.396,12.294-45.967,31.003-58.869c-5.637-0.654-10.016-5.438-10.016-11.25
		c0-1.955,0.495-3.794,1.367-5.4c-24.664,16.097-41,43.934-41,75.52c0,49.692,40.428,90.12,90.12,90.12
		c18.269,0,35.282-5.47,49.499-14.85C299.392,165.216,294.493,160.223,294.493,154.074z"/>
	<path style="fill:#D3D0D4;" d="M163.836,228.749c-3.159,0-6.239-1.605-7.991-4.506c-11.902-19.715-19.93-32.934-19.93-32.934
		c-2.672-4.4-1.272-10.135,3.129-12.807c4.402-2.675,10.135-1.272,12.808,3.129c0,0,8.037,13.234,19.955,32.976
		c2.661,4.408,1.245,10.139-3.163,12.799C167.138,228.316,165.476,228.749,163.836,228.749z"/>
</g>
<path style="fill:#E8E6E9;" d="M134.657,199.977c-3.142,0-6.208-1.588-7.965-4.465c-2.684-4.394-1.298-10.131,3.097-12.815
	l16.315-9.965c4.395-2.684,10.132-1.296,12.815,3.097c2.684,4.394,1.298,10.131-3.097,12.815l-16.315,9.965
	C137.991,199.535,136.313,199.977,134.657,199.977z"/>
<g>
	<path style="fill:#BDB9BE;" d="M256,190.119c5.653,0,11.247,0.275,16.781,0.785v-50.547h-33.562v50.547
		C244.753,190.394,250.347,190.119,256,190.119z"/>
	<path style="fill:#BDB9BE;" d="M256,92.051c-11.869,0-21.491,9.622-21.491,21.491h42.982
		C277.491,101.673,267.869,92.051,256,92.051z"/>
</g>
<path style="fill:#E8E6E9;" d="M296.879,127.837L296.879,127.837c0,9.268-7.513,16.781-16.781,16.781h-48.197
	c-9.268,0-16.781-7.513-16.781-16.781l0,0c0-9.268,7.513-16.781,16.781-16.781h48.197
	C289.366,111.056,296.879,118.569,296.879,127.837z"/>
<path style="fill:#D3D0D4;" d="M256,127.837L256,127.837c0-9.268,7.513-16.781,16.781-16.781h-40.879
	c-9.268,0-16.781,7.513-16.781,16.781l0,0c0,9.268,7.513,16.781,16.781,16.781h40.879C263.513,144.618,256,137.105,256,127.837z"/>
<path style="fill:#7E777F;" d="M256,180.241c-109.134,0-197.92,88.787-197.92,197.92c0,13.565,1.374,26.815,3.986,39.62
	C107.234,475.156,177.313,512,256,512s148.766-36.844,193.934-94.219c2.612-12.805,3.987-26.055,3.987-39.62
	C453.92,269.027,365.134,180.241,256,180.241z"/>
<path style="fill:#5C515E;" d="M155.856,314.414c0-46.947,15.398-90.294,41.413-125.277
	C116.722,214.215,58.08,289.468,58.08,378.161c0,13.565,1.374,26.815,3.986,39.62C107.234,475.156,177.313,512,256,512
	c11.048,0,21.918-0.751,32.582-2.159C210.835,479.011,155.856,403.135,155.856,314.414z"/>
<path style="fill:#E8E6E9;" d="M256,213.803c-90.628,0-164.358,73.731-164.358,164.358c0,34.77,10.862,67.046,29.359,93.633
	C159.79,497.207,206.164,512,256,512s96.21-14.793,134.999-40.207c18.496-26.586,29.358-58.863,29.358-93.633
	C420.358,287.533,346.628,213.803,256,213.803z"/>
<path style="fill:#D3D0D4;" d="M288.582,509.841c-77.746-30.83-132.726-106.706-132.726-195.427c0-26.943,5.081-52.697,14.32-76.368
	c-47.074,28.94-78.534,80.92-78.534,140.115c0,34.768,10.861,67.041,29.354,93.626C161.577,498.245,207.682,512,256,512
	C266.94,512,277.861,511.256,288.582,509.841z"/>
<g>
	<path style="fill:#7E777F;" d="M256,204.479c-5.149,0-9.323,4.173-9.323,9.323v11.464c0,5.149,4.174,9.323,9.323,9.323
		c5.149,0,9.323-4.173,9.323-9.323v-11.464C265.323,208.653,261.149,204.479,256,204.479z"/>
	<path style="fill:#7E777F;" d="M181.895,231.161c-2.575-4.459-8.277-5.986-12.735-3.412c-4.459,2.575-5.987,8.276-3.412,12.735
		l5.732,9.929c2.582,4.472,8.288,5.979,12.735,3.412c4.459-2.575,5.987-8.276,3.412-12.735L181.895,231.161z"/>
	<path style="fill:#7E777F;" d="M128.252,293.639l-9.929-5.732c-4.459-2.575-10.161-1.049-12.735,3.412
		c-2.575,4.459-1.046,10.16,3.412,12.735l9.929,5.732c4.439,2.562,10.149,1.067,12.735-3.412
		C134.239,301.916,132.71,296.214,128.252,293.639z"/>
	<path style="fill:#7E777F;" d="M403,452.265l-9.929-5.732c-4.459-2.573-10.161-1.048-12.735,3.412
		c-2.575,4.459-1.046,10.16,3.412,12.735l9.929,5.732c0.458,0.264,0.931,0.47,1.41,0.649c4.284-2.93,8.473-5.988,12.556-9.175
		C407.492,456.83,405.847,453.91,403,452.265z"/>
	<path style="fill:#7E777F;" d="M112.429,378.16c0-5.149-4.174-9.323-9.323-9.323H91.642c-5.149,0-9.323,4.173-9.323,9.323
		s4.174,9.323,9.323,9.323h11.464C108.255,387.483,112.429,383.309,112.429,378.16z"/>
	<path style="fill:#7E777F;" d="M420.358,368.837h-11.464c-5.149,0-9.323,4.173-9.323,9.323s4.174,9.323,9.323,9.323h11.464
		c5.149,0,9.323-4.173,9.323-9.323S425.507,368.837,420.358,368.837z"/>
	<path style="fill:#7E777F;" d="M118.929,446.533L109,452.265c-2.847,1.645-4.492,4.565-4.644,7.622
		c4.083,3.187,8.273,6.245,12.556,9.175c1.477-0.552,1.112-0.54,11.339-6.381c4.458-2.575,5.987-8.276,3.412-12.735
		C129.09,445.486,123.389,443.961,118.929,446.533z"/>
	<path style="fill:#7E777F;" d="M393.071,309.787l9.929-5.732c4.459-2.575,5.987-8.276,3.412-12.735
		c-2.575-4.459-8.277-5.986-12.735-3.412l-9.929,5.732c-4.459,2.575-5.987,8.276-3.412,12.735
		C382.918,310.847,388.624,312.353,393.071,309.787z"/>
	<path style="fill:#7E777F;" d="M342.84,227.749c-4.46-2.575-10.16-1.049-12.735,3.412l-5.732,9.929
		c-2.575,4.459-1.046,10.16,3.412,12.735c4.439,2.562,10.149,1.067,12.735-3.412l5.732-9.929
		C348.827,236.025,347.299,230.323,342.84,227.749z"/>
</g>
<path style="fill:#5C515E;" d="M256,204.479c-95.768,0-173.681,77.913-173.681,173.681c0,28.661,6.984,55.72,19.331,79.573
	c13.042,10.475,27.16,19.664,42.18,27.346c-26.546-27.837-42.866-65.508-42.866-106.919c0-85.487,69.548-155.035,155.035-155.035
	s155.035,69.548,155.035,155.035c0,41.411-16.32,79.082-42.866,106.919c15.02-7.682,29.139-16.871,42.18-27.346
	c12.347-23.853,19.331-50.912,19.331-79.573C429.681,282.393,351.768,204.479,256,204.479z"/>
<circle style="fill:#D3D0D4;" cx="256" cy="294.24" r="40.784"/>
<path style="fill:#BDB9BE;" d="M242.255,302.178c-9.089-15.743-6.484-35.024,5.113-47.799c-4.031,0.874-7.997,2.372-11.76,4.544
	c-19.507,11.262-26.19,36.205-14.928,55.712c11.262,19.507,36.206,26.19,55.712,14.928c3.763-2.173,7.043-4.859,9.815-7.913
	C269.345,325.305,251.345,317.921,242.255,302.178z"/>
<g>
	<path style="fill:#FD6874;" d="M256,253.458v40.784h40.784C296.784,271.718,278.524,253.458,256,253.458z"/>
	<path style="fill:#FD6874;" d="M237.631,378.161c0-7.845,4.927-14.523,11.848-17.156l-86.613,14.712
		c-2.752,0.467-2.752,4.421,0,4.888l86.613,14.712C242.557,392.684,237.631,386.006,237.631,378.161z"/>
</g>
<path style="fill:#5C515E;" d="M256,405.853c-15.27,0-27.692-12.423-27.692-27.693S240.73,350.468,256,350.468
	s27.693,12.422,27.693,27.692S271.27,405.853,256,405.853z M256,369.114c-4.989,0-9.047,4.058-9.047,9.046
	c0,4.989,4.058,9.047,9.047,9.047c4.989,0,9.047-4.058,9.047-9.047C265.047,373.172,260.988,369.114,256,369.114z"/>
<g>
</g>
<g>
</g>
<g>
</g>
<g>
</g>
<g>
</g>
<g>
</g>
<g>
</g>
<g>
</g>
<g>
</g>
<g>
</g>
<g>
</g>
<g>
</g>
<g>
</g>
<g>
</g>
<g>
</g>
</svg>
