<?xml version="1.0" encoding="iso-8859-1"?>
<!-- Generator: Adobe Illustrator 19.0.0, SVG Export Plug-In . SVG Version: 6.00 Build 0)  -->
<svg version="1.1" id="Capa_1" xmlns="http://www.w3.org/2000/svg" xmlns:xlink="http://www.w3.org/1999/xlink" x="0px" y="0px"
	 viewBox="0 0 512 512" style="enable-background:new 0 0 512 512;" xml:space="preserve">
<circle style="fill:#FED652;" cx="256" cy="256" r="256"/>
<path style="fill:#E8E6E9;" d="M436.288,152.297l-414.153,0.186c0.003,7.585,0.052,115.032,0.093,207.986
	C62.217,449.813,151.903,512.047,256.115,512c70.348-0.032,134.05-28.443,180.301-74.393
	C436.373,341.423,436.292,161.553,436.288,152.297z"/>
<path style="fill:#D3D0D4;" d="M71.754,152.462l-49.618,0.022c0.003,7.585,0.052,115.032,0.093,207.986
	c12.233,27.331,29.123,52.119,49.651,73.369C71.817,292.857,71.759,163.851,71.754,152.462z"/>
<path style="fill:#FEC50A;" d="M421.573,32.697L36.742,32.869c-8.064,0.004-14.658,7.075-14.654,15.713l0.047,103.901l414.153-0.185
	l-0.046-103.901C436.238,39.759,429.637,32.693,421.573,32.697z"/>
<path style="fill:#FD6874;" d="M421.573,32.697L36.742,32.869c-8.064,0.004-14.658,7.075-14.654,15.713l0.047,103.901l414.153-0.185
	l-0.046-103.901C436.238,39.759,429.637,32.693,421.573,32.697z"/>
<g>
	<path style="fill:#DD4C5B;" d="M86.361,32.847l-49.618,0.022c-8.064,0.004-14.658,7.075-14.654,15.713l0.047,103.901l49.618-0.022
		L71.707,48.56C71.703,39.922,78.298,32.851,86.361,32.847z"/>
	<path style="fill:#DD4C5B;" d="M88.068,73.36c-9.596,0.004-17.398,7.736-17.394,17.235s7.814,17.223,17.41,17.219
		s17.398-7.736,17.394-17.235S97.664,73.356,88.068,73.36z"/>
	<path style="fill:#DD4C5B;" d="M370.284,73.234c-9.596,0.004-17.398,7.736-17.394,17.235c0.004,9.499,7.814,17.223,17.41,17.219
		c9.596-0.004,17.398-7.736,17.394-17.235S379.88,73.23,370.284,73.234z"/>
	<path style="fill:#DD4C5B;" d="M299.73,73.266c-9.595,0.004-17.398,7.736-17.394,17.235s7.814,17.223,17.409,17.219
		c9.596-0.004,17.398-7.736,17.394-17.235C317.135,80.986,309.325,73.261,299.73,73.266z"/>
	<path style="fill:#DD4C5B;" d="M229.177,73.297c-9.596,0.004-17.398,7.736-17.394,17.235c0.004,9.499,7.814,17.223,17.41,17.219
		c9.596-0.004,17.398-7.736,17.394-17.235C246.583,81.017,238.771,73.293,229.177,73.297z"/>
	<path style="fill:#DD4C5B;" d="M158.623,73.329c-9.596,0.004-17.398,7.736-17.394,17.235c0.004,9.499,7.814,17.223,17.41,17.219
		c9.596-0.004,17.398-7.736,17.394-17.235C176.028,81.049,168.218,73.325,158.623,73.329z"/>
</g>
<path style="fill:#D3D0D4;" d="M23.924,180.421l17.505,8.607c2.368,1.164,5.091,1.163,7.458-0.003l15.545-7.66
	c2.366-1.166,5.09-1.167,7.457-0.003l15.555,7.647c2.368,1.164,5.091,1.162,7.457-0.003l15.546-7.66
	c2.366-1.166,5.09-1.167,7.457-0.003l15.553,7.647c2.368,1.164,5.091,1.162,7.458-0.003l15.546-7.66
	c2.367-1.166,5.09-1.167,7.458-0.003l15.553,7.647c2.368,1.164,5.091,1.162,7.458-0.004l15.544-7.66
	c2.367-1.166,5.09-1.167,7.458-0.004l15.554,7.647c2.368,1.164,5.091,1.162,7.458-0.004l15.544-7.66
	c2.367-1.166,5.09-1.167,7.458-0.004l15.552,7.647c2.368,1.164,5.091,1.162,7.458-0.003l15.547-7.661
	c2.366-1.165,5.089-1.167,7.457-0.003l15.557,7.647c2.368,1.163,5.09,1.162,7.457-0.003l15.55-7.662
	c2.366-1.165,5.089-1.166,7.457-0.003l15.558,7.648c2.367,1.163,5.09,1.162,7.456-0.003l15.552-7.662
	c2.366-1.165,5.089-1.166,7.456-0.004l15.562,7.649c2.367,1.163,5.09,1.162,7.456-0.003l17.509-8.625
	c0.57-0.281,1.165-0.493,1.774-0.639c-0.007-15.344-0.011-25.301-0.012-27.299l-414.153,0.186
	c0.001,2.121,0.005,12.061,0.012,27.299C22.756,179.929,23.353,180.141,23.924,180.421z"/>
<path style="fill:#BDB9BE;" d="M41.429,189.028c2.368,1.164,5.091,1.163,7.458-0.003l15.545-7.66
	c2.327-1.146,4.996-1.16,7.335-0.055c-0.007-15.843-0.012-26.007-0.013-28.848l-49.618,0.022c0.001,2.121,0.005,12.058,0.012,27.299
	c0.609,0.146,1.204,0.358,1.775,0.638L41.429,189.028z"/>
<g>
	<path style="fill:#D3D0D4;" d="M88.079,97.208c-4.766,0.002-8.632-3.86-8.634-8.626l-0.031-69.074
		c-0.002-4.767,3.861-8.632,8.626-8.634c4.766-0.002,8.632,3.86,8.634,8.626l0.031,69.074
		C96.708,93.341,92.845,97.206,88.079,97.208z"/>
	<path style="fill:#D3D0D4;" d="M158.633,97.177c-4.766,0.002-8.632-3.86-8.634-8.626l-0.031-69.074
		c-0.002-4.767,3.86-8.632,8.626-8.634c4.766-0.002,8.632,3.86,8.634,8.626l0.031,69.074
		C167.262,93.309,163.399,97.175,158.633,97.177z"/>
	<path style="fill:#D3D0D4;" d="M229.187,97.145c-4.766,0.002-8.632-3.86-8.634-8.626l-0.031-69.074
		c-0.002-4.767,3.86-8.632,8.626-8.634s8.632,3.86,8.634,8.626l0.031,69.074C237.815,93.278,233.953,97.143,229.187,97.145z"/>
	<path style="fill:#D3D0D4;" d="M299.74,97.114c-4.766,0.002-8.632-3.86-8.634-8.626l-0.031-69.074
		c-0.002-4.767,3.861-8.632,8.626-8.634c4.766-0.002,8.632,3.86,8.634,8.626l0.031,69.074
		C308.369,93.246,304.507,97.111,299.74,97.114z"/>
</g>
<path style="fill:#C5DEF3;" d="M370.295,97.082c-4.766,0.002-8.632-3.86-8.634-8.626l-0.031-69.074
	c-0.002-4.767,3.861-8.632,8.626-8.634c4.766-0.002,8.632,3.86,8.634,8.626l0.031,69.074
	C378.924,93.214,375.062,97.08,370.295,97.082z"/>
<g>
	<path style="fill:#D3D0D4;" d="M382.705,287.096l-41.155,0.018c-2.223,0.001-4.026-1.801-4.027-4.024l-0.018-41.155
		c-0.001-2.223,1.801-4.026,4.024-4.027l41.155-0.018c2.223-0.001,4.026,1.801,4.027,4.024l0.018,41.155
		C386.729,285.292,384.928,287.095,382.705,287.096z"/>
	<path style="fill:#D3D0D4;" d="M117.031,368.311l-41.155,0.018c-2.223,0.001-4.026-1.801-4.027-4.024l-0.018-41.154
		c-0.001-2.223,1.801-4.026,4.024-4.027l41.155-0.018c2.223-0.001,4.026,1.801,4.027,4.024l0.018,41.155
		C121.055,366.507,119.254,368.31,117.031,368.311z"/>
	<path style="fill:#D3D0D4;" d="M117.046,400.201l-41.155,0.018c-2.223,0.001-4.025,1.803-4.024,4.027l0.013,29.598
		c5.242,5.426,10.715,10.628,16.415,15.574l28.772-0.013c2.223-0.001,4.025-1.805,4.024-4.027l-0.018-41.155
		C121.071,402.001,119.269,400.2,117.046,400.201z"/>
</g>
<g>
	<path style="fill:#BDB9BE;" d="M96.451,364.295l-0.018-41.155c-0.001-2.223,1.801-4.026,4.024-4.027l-24.603,0.011
		c-2.223,0.001-4.025,1.803-4.024,4.027l0.018,41.155c0.001,2.223,1.805,4.025,4.027,4.024l24.603-0.011
		C98.256,368.319,96.452,366.518,96.451,364.295z"/>
	<path style="fill:#BDB9BE;" d="M96.488,445.391l-0.018-41.155c-0.001-2.223,1.801-4.026,4.024-4.027l-24.603,0.011
		c-2.223,0.001-4.025,1.803-4.024,4.027l0.013,29.598c5.242,5.426,10.715,10.628,16.415,15.574l12.22-0.005
		C98.292,449.415,96.489,447.613,96.488,445.391z"/>
</g>
<g>
	<path style="fill:#D3D0D4;" d="M205.638,449.367l-41.155,0.018c-2.223,0.001-4.026-1.801-4.027-4.024l-0.018-41.155
		c-0.001-2.223,1.801-4.026,4.024-4.027l41.155-0.018c2.223-0.001,4.026,1.801,4.027,4.024l0.018,41.155
		C209.663,447.563,207.861,449.366,205.638,449.367z"/>
	<path style="fill:#D3D0D4;" d="M294.208,449.327l-41.155,0.018c-2.223,0.001-4.026-1.801-4.027-4.024l-0.018-41.155
		c-0.001-2.223,1.801-4.026,4.024-4.027l41.155-0.018c2.223-0.001,4.026,1.801,4.027,4.024l0.018,41.155
		C298.232,447.523,296.431,449.326,294.208,449.327z"/>
	<path style="fill:#D3D0D4;" d="M382.778,449.288l-41.155,0.018c-2.223,0.001-4.026-1.801-4.027-4.024l-0.018-41.155
		c-0.001-2.223,1.801-4.026,4.024-4.027l41.155-0.018c2.223-0.001,4.026,1.801,4.027,4.024l0.018,41.155
		C386.802,447.483,385.001,449.286,382.778,449.288z"/>
	<path style="fill:#D3D0D4;" d="M382.778,368.311l-41.155,0.018c-2.223,0.001-4.026-1.801-4.027-4.024l-0.018-41.155
		c-0.001-2.223,1.801-4.026,4.024-4.027l41.155-0.018c2.223-0.001,4.026,1.801,4.027,4.024l0.018,41.155
		C386.802,366.507,385.001,368.31,382.778,368.311z"/>
</g>
<g>
	<path style="fill:#42D197;" d="M83.37,282.976l-14.613-14.6c-3.373-3.37-3.375-8.833-0.005-12.206
		c3.369-3.371,8.833-3.373,12.205-0.005l8.508,8.501l22.379-22.399c3.37-3.372,8.833-3.372,12.205-0.005
		c3.373,3.37,3.375,8.833,0.005,12.206l-28.479,28.504C92.205,286.342,86.741,286.343,83.37,282.976z"/>
	<path style="fill:#42D197;" d="M174.995,282.935l-14.613-14.6c-3.373-3.37-3.375-8.833-0.005-12.206
		c3.369-3.371,8.833-3.373,12.205-0.005l8.508,8.501l22.379-22.399c3.37-3.372,8.833-3.372,12.205-0.005
		c3.373,3.37,3.375,8.833,0.005,12.206L187.2,282.931C183.829,286.301,178.366,286.302,174.995,282.935z"/>
	<path style="fill:#42D197;" d="M260.511,282.897l-14.613-14.6c-3.373-3.37-3.375-8.833-0.005-12.206
		c3.369-3.371,8.833-3.373,12.205-0.005l8.508,8.501l22.379-22.399c3.369-3.372,8.833-3.372,12.205-0.005
		c3.373,3.37,3.375,8.833,0.005,12.206l-28.479,28.504C269.345,286.262,263.882,286.264,260.511,282.897z"/>
	<path style="fill:#42D197;" d="M169.243,363.662l-14.613-14.6c-3.373-3.37-3.375-8.833-0.005-12.206
		c3.369-3.371,8.833-3.373,12.205-0.005l8.508,8.501l22.379-22.399c3.37-3.372,8.833-3.372,12.205-0.005
		c3.373,3.37,3.375,8.833,0.005,12.206l-28.479,28.504C178.077,367.029,172.614,367.03,169.243,363.662z"/>
	<path style="fill:#42D197;" d="M260.867,363.621l-14.613-14.6c-3.373-3.37-3.375-8.833-0.005-12.206
		c3.369-3.371,8.833-3.373,12.205-0.005l8.508,8.501l22.379-22.399c3.37-3.372,8.833-3.372,12.205-0.005
		c3.373,3.37,3.375,8.833,0.005,12.206l-28.479,28.504C269.702,366.988,264.238,366.989,260.867,363.621z"/>
</g>
<path style="fill:#7E777F;" d="M296.468,329.996c-3.593-2.075-4.824-6.669-2.749-10.262l13.45-23.297
	c2.074-3.594,6.668-4.823,10.262-2.749c3.593,2.075,4.824,6.669,2.749,10.262l-13.45,23.297
	C304.65,330.85,300.052,332.064,296.468,329.996z"/>
<path style="fill:#959396;" d="M455.21,36.019c-3.199-1.847-7.286-0.93-9.372,2.119c-23.116,33.783-46.483,70.848-69.273,110.323
	c-30.178,52.27-56.208,103.312-77.256,150.428c-6.448,14.433,13.403,25.894,22.678,13.094c30.279-41.787,61.468-89.85,91.646-142.12
	c22.814-39.513,43.246-78.319,60.958-115.263c1.567-3.269,0.341-7.194-2.799-9.007L455.21,36.019z"/>
<path style="fill:#7E777F;" d="M313.55,307.113c23.248-45.846,50.509-96.178,80.687-148.448
	c22.79-39.475,45.454-76.945,67.279-111.475c1.97-3.116,4.784-4.767,6.459-3.801l3.817,2.204
	c-10.266-5.927-6.316-3.647-16.581-9.574c-3.199-1.847-7.286-0.93-9.372,2.119c-23.116,33.783-46.483,70.848-69.273,110.323
	c-30.178,52.27-56.208,103.312-77.256,150.428c-4.448,9.956,3.619,18.494,12.096,18.633
	C310.819,315.048,311.341,311.468,313.55,307.113z"/>
<path style="fill:#E8E6E9;" d="M453.589,38.828l16.581,9.574c0.927,0.535,1.68,1.258,2.248,2.093l10.252-17.757
	c3.518-6.093,1.473-13.858-4.567-17.345s-13.787-1.375-17.305,4.717l-10.273,17.793C451.576,37.971,452.624,38.271,453.589,38.828z"
	/>
<path style="fill:#D3D0D4;" d="M472.083,27.371c2.382-4.125,6.704-6.418,11.121-6.39c-1.052-2.268-2.777-4.246-5.101-5.588
	c-6.04-3.487-13.787-1.375-17.305,4.717l-10.273,17.793c1.05,0.068,2.097,0.367,3.063,0.925l8.91,5.144L472.083,27.371z"/>
<path style="fill:#7E777F;" d="M455.21,36.019c-3.199-1.847-7.286-0.93-9.372,2.118c-6.657,9.729-13.335,19.739-20.014,29.992
	l32.749,18.907c5.559-10.947,10.905-21.773,16.018-32.437c1.568-3.269,0.341-7.194-2.799-9.007L455.21,36.019z"/>
<g>
	<path style="fill:#5C515E;" d="M471.791,45.593c-0.172-0.099-1.99-1.149-1.877-1.083C470.023,44.571,471.897,45.653,471.791,45.593
		z"/>
	<path style="fill:#5C515E;" d="M445.838,38.138c-0.018,0.027-0.037,0.054-0.055,0.081c-6.188,9.046-13.197,19.53-19.959,29.91
		l16.642,9.609c6.408-10.409,12.764-20.605,19.049-30.549c1.97-3.116,4.784-4.767,6.459-3.801l1.941,1.12
		c-3.431-1.981-11.301-6.525-14.705-8.49C452.035,34.186,447.941,35.064,445.838,38.138z"/>
</g>
<path style="fill:#7E777F;" d="M314.418,266.214c-5.281,11.068-10.329,21.975-15.108,32.67
	c-6.449,14.433,13.404,25.895,22.679,13.094c6.873-9.486,13.795-19.311,20.74-29.418L314.418,266.214z"/>
<path style="fill:#5C515E;" d="M330.003,275.213l-15.584-8.999c-1.319,2.763-2.623,5.517-3.912,8.259
	c-0.008,0.017-0.016,0.033-0.023,0.05c-1.257,2.675-2.499,5.338-3.726,7.993c-0.261,0.563-0.515,1.122-0.775,1.685
	c-0.987,2.14-1.97,4.276-2.937,6.401c-1.26,2.772-2.508,5.536-3.735,8.282c-2.955,6.612-0.487,13.33,5.435,16.755
	c2.207,1.254,4.436,1.835,6.657,1.88c-0.582-2.475-0.06-6.053,2.148-10.406C318.829,296.703,324.324,286.054,330.003,275.213z"/>
<path style="fill:#E8E6E9;" d="M443.025,160.097c-3.607-2.05-4.868-6.637-2.818-10.243c12.962-22.797,25.043-45.916,35.963-68.818
	l-42.225-24.38c-3.593-2.075-4.824-6.669-2.749-10.262c2.075-3.594,6.668-4.824,10.262-2.749l48.218,27.839
	c3.378,1.951,4.701,6.16,3.047,9.692c-11.846,25.289-25.121,50.894-39.455,76.104C451.22,160.881,446.631,162.15,443.025,160.097z"
	/>
<g>
</g>
<g>
</g>
<g>
</g>
<g>
</g>
<g>
</g>
<g>
</g>
<g>
</g>
<g>
</g>
<g>
</g>
<g>
</g>
<g>
</g>
<g>
</g>
<g>
</g>
<g>
</g>
<g>
</g>
</svg>
