<?xml version="1.0" encoding="iso-8859-1"?>
<!-- Generator: Adobe Illustrator 19.0.0, SVG Export Plug-In . SVG Version: 6.00 Build 0)  -->
<svg version="1.1" id="Capa_1" xmlns="http://www.w3.org/2000/svg" xmlns:xlink="http://www.w3.org/1999/xlink" x="0px" y="0px"
	 viewBox="0 0 512 512" style="enable-background:new 0 0 512 512;" xml:space="preserve">
<circle style="fill:#5C515E;" cx="256" cy="256" r="256"/>
<path style="fill:#6FC7EC;" d="M133.242,360.597H70.179c-3.954,0-7.16,3.206-7.16,7.16v56.444
	c21.577,24.735,47.83,45.28,77.383,60.263V367.757C140.402,363.802,137.197,360.597,133.242,360.597z"/>
<g>
	<path style="fill:#37AEE2;" d="M101.711,367.757c0-3.954,3.206-7.16,7.16-7.16H70.179c-3.954,0-7.16,3.206-7.16,7.16v56.444
		c11.611,13.31,24.587,25.394,38.692,36.064V367.757z"/>
	<path style="fill:#37AEE2;" d="M210.626,289.087h-63.064c-3.954,0-7.16,3.206-7.16,7.16v64.35v123.868
		c15.921,8.072,32.799,14.526,50.42,19.152h26.963v-207.37C217.786,292.293,214.58,289.087,210.626,289.087z"/>
</g>
<path style="fill:#309CD8;" d="M179.094,371.721v-74.36c0-4.569,3.704-8.274,8.274-8.274h-39.806c-3.954,0-7.16,3.206-7.16,7.16
	v64.35v123.868c12.353,6.263,25.287,11.538,38.692,15.754V371.721z"/>
<path style="fill:#42D197;" d="M288.009,217.577h-63.064c-3.954,0-7.16,3.206-7.16,7.16v278.879h77.383V224.737
	C295.169,220.783,291.964,217.577,288.009,217.577z"/>
<path style="fill:#2FBA7E;" d="M263.637,217.577h-38.692c-3.954,0-7.16,3.206-7.16,7.16v278.879h38.692V224.737
	C256.478,220.783,259.683,217.577,263.637,217.577z"/>
<path style="fill:#FED652;" d="M365.393,146.068h-63.064c-3.954,0-7.16,3.206-7.16,7.16v350.388h26.008
	c17.971-4.718,35.176-11.328,51.375-19.627V153.228C372.553,149.273,369.347,146.068,365.393,146.068z"/>
<path style="fill:#FEBE40;" d="M333.861,153.228c0-3.954,3.206-7.16,7.16-7.16h-38.692c-3.954,0-7.16,3.206-7.16,7.16v350.388
	h26.008c4.273-1.122,8.5-2.358,12.683-3.691V153.228H333.861z"/>
<path style="fill:#FD6874;" d="M449.936,423.105V81.718c0-3.954-3.206-7.16-7.16-7.16h-63.064c-3.954,0-7.16,3.206-7.16,7.16
	v402.271C402.154,468.826,428.411,448.063,449.936,423.105z"/>
<path style="fill:#DD4C5B;" d="M411.244,81.718c0-3.954,3.206-7.16,7.16-7.16h-38.692c-3.954,0-7.16,3.206-7.16,7.16v402.271
	c13.658-6.996,26.594-15.199,38.692-24.442L411.244,81.718L411.244,81.718z"/>
<g>
	<path style="fill:#E8E6E9;" d="M366.771,0h-34.796c-4.63,0-8.384,3.753-8.384,8.384s3.754,8.384,8.384,8.384h14.795
		l-202.403,187.04c-3.4,3.142-3.609,8.446-0.467,11.846c1.653,1.788,3.903,2.694,6.16,2.694c2.035,0,4.076-0.737,5.688-2.227
		l202.64-187.26v14.318c0,4.631,3.754,8.384,8.384,8.384s8.384-3.753,8.384-8.384V8.384C375.155,3.753,371.401,0,366.771,0z"/>
	<path style="fill:#E8E6E9;" d="M256,512c45.545,0,88.303-11.909,125.356-32.76H130.644C167.697,500.091,210.455,512,256,512z"/>
</g>
<path style="fill:#D3D0D4;" d="M256.473,479.24H130.644C167.697,500.091,210.455,512,256,512c0.314,0,0.626-0.007,0.939-0.008
	C244.942,505.205,245.014,486.4,256.473,479.24z"/>
<circle style="fill:#908A91;" cx="149.77" cy="339.77" r="96.33"/>
<path style="fill:#7E777F;" d="M120.468,356.685c-21.132-36.602-15.511-81.305,10.79-111.476
	c-10.166,1.991-20.183,5.664-29.656,11.134c-46.075,26.601-61.861,85.517-35.26,131.592s85.517,61.862,131.592,35.26
	c9.473-5.469,17.663-12.307,24.47-20.116C183.124,410.771,141.6,393.287,120.468,356.685z"/>
<path style="fill:#E8E6E9;" d="M149.767,273.106c-36.817,0-66.663,29.846-66.663,66.663s29.846,66.663,66.663,66.663
	s66.663-29.846,66.663-66.663h-66.663V273.106z"/>
<path style="fill:#D3D0D4;" d="M120.468,356.685c-12.834-22.23-15.784-47.444-10.243-70.58
	c-16.448,12.14-27.121,31.652-27.121,53.664c0,36.817,29.846,66.663,66.663,66.663c9.502,0,18.532-2.001,26.712-5.584
	C153.669,394.08,133.304,378.918,120.468,356.685z"/>
<path style="fill:#FD6874;" d="M149.767,273.106v66.663h66.663C216.43,302.952,186.584,273.106,149.767,273.106z"/>
<g>
	<path style="fill:#5C515E;" d="M149.768,356.121c-4.63,0-8.384-3.754-8.384-8.384v-58.82c0-4.63,3.754-8.384,8.384-8.384
		s8.384,3.754,8.384,8.384v58.82C158.151,352.367,154.398,356.121,149.768,356.121z"/>
	<path style="fill:#5C515E;" d="M181.719,348.152h-40.242c-4.63,0-8.384-3.754-8.384-8.384s3.754-8.384,8.384-8.384h40.242
		c4.63,0,8.384,3.754,8.384,8.384C190.103,344.399,186.349,348.152,181.719,348.152z"/>
</g>
<g>
</g>
<g>
</g>
<g>
</g>
<g>
</g>
<g>
</g>
<g>
</g>
<g>
</g>
<g>
</g>
<g>
</g>
<g>
</g>
<g>
</g>
<g>
</g>
<g>
</g>
<g>
</g>
<g>
</g>
</svg>
