<?xml version="1.0" encoding="iso-8859-1"?>
<!-- Generator: Adobe Illustrator 19.0.0, SVG Export Plug-In . SVG Version: 6.00 Build 0)  -->
<svg version="1.1" id="Capa_1" xmlns="http://www.w3.org/2000/svg" xmlns:xlink="http://www.w3.org/1999/xlink" x="0px" y="0px"
	 viewBox="0 0 512 512" style="enable-background:new 0 0 512 512;" xml:space="preserve">
<circle style="fill:#42D197;" cx="256" cy="256" r="256"/>
<path style="fill:#5C515E;" d="M99.447,218.342V205.14c0-5.382,6.793-5.797,6.793-5.797l-0.006-0.013
	c45.253-1.796,98.322-20.664,118.475-28.454l0,0c5.167-2.006,11.002-1.255,15.999,2.635l29.617,23.06c0,0,3.738,3.346,3.738,9.637
	v12.133c7.379-0.759,14.267,1.555,19.091,5.745v-34.143c0-58.668-47.73-106.398-106.398-106.398
	c-58.669,0-106.399,47.73-106.399,106.398v34.143C85.19,219.888,92.083,217.583,99.447,218.342z"/>
<path style="fill:#4A404E;" d="M129.523,197.103v-7.16c0-50.209,34.96-92.401,81.816-103.526
	c-7.894-1.874-16.124-2.872-24.583-2.872c-58.669,0-106.399,47.73-106.399,106.398v34.143c4.834-4.198,11.727-6.503,19.091-5.745
	V205.14c0-5.382,6.793-5.797,6.793-5.797l-0.006-0.013C113.841,199.028,121.669,198.236,129.523,197.103z"/>
<g>
	<path style="fill:#E5BE8E;" d="M273.637,216.887v40.8c14.417,1.484,26.341-8.415,26.341-20.4
		C299.978,225.247,287.981,215.411,273.637,216.887z"/>
	<path style="fill:#E5BE8E;" d="M100.326,216.537v41.5c-14.664,1.509-26.793-8.56-26.793-20.75
		C73.533,225.041,85.736,215.036,100.326,216.537z"/>
</g>
<path style="fill:#DDB07F;" d="M75.863,228.287c-1.493,2.726-2.331,5.777-2.331,9c0,12.246,12.203,22.252,26.793,20.75v-18
	C89.516,241.15,80.043,235.917,75.863,228.287z"/>
<path style="fill:#E5BE8E;" d="M190.894,345.054c-14.716,0.687-28.693-2.365-41.092-8.287c0,7.879,0,16.668,0,24.537l0.162-0.11
	l14.797,33.466l5.846,13.752c19.993,0,12.303,0,32.296,0l20.552-47.218c0-6.736,0-16.338,0-24.108
	C213.478,341.714,202.481,344.514,190.894,345.054z"/>
<path style="fill:#DDB07F;" d="M179.802,344.862c-10.645-0.866-20.761-3.682-30-8.095c0,7.879,0,16.668,0,24.537l0.162-0.11
	l14.797,33.466l5.846,13.752c4.053,0,6.956,0,9.195,0V344.862z"/>
<path style="fill:#E8E6E9;" d="M346.704,488.82c-5.288-26.555-11.508-57.796-13.041-65.493
	c-3.922-19.644-18.355-27.632-26.306-30.598c-0.096-0.028-5.444-1.606-5.348-1.578l0,0c-0.617-0.182-53.557-15.797-55.779-16.453
	c-2.969,8.319-10.37,29.06-15.309,42.9c-1.628,4.563-7.201,6.255-11.093,3.37l-16.926-12.554v-0.001h-32.296v0.001l-0.134-0.102
	l0.042,0.102l-16.925,12.554c-3.891,2.886-9.465,1.193-11.093-3.37l-15.309-42.9l0.126-0.085
	c-3.268,0.964-55.366,16.331-56.069,16.539l0,0c-1.877,0.554-5.585,1.648-5.348,1.578c-4.844,1.807-12.089,5.484-17.902,12.516
	C94.463,469.891,170.31,512,256,512c32.011,0,62.641-5.893,90.888-16.624C347.192,493.264,347.15,491.056,346.704,488.82z"/>
<g>
	<path style="fill:#D3D0D4;" d="M72.286,412.373c2.908-14.566,11.594-22.72,19.133-27.173c-10.79,3.183-19.882,5.865-20.173,5.95
		l0,0c-1.877,0.554-5.585,1.648-5.348,1.578c-4.844,1.807-12.089,5.484-17.902,12.516c6.36,8.849,13.275,17.272,20.686,25.226
		C70.374,421.975,71.688,415.377,72.286,412.373z"/>
	<path style="fill:#D3D0D4;" d="M280.853,450.551c-4.655,0-8.429,3.774-8.429,8.429v52.481c5.67-0.359,11.294-0.89,16.858-1.612
		V458.98C289.282,454.325,285.508,450.551,280.853,450.551z"/>
	<path style="fill:#D3D0D4;" d="M223.454,359.295l-20.551,49.118l16.926,12.554c3.891,2.886,9.464,1.193,11.093-3.37l15.309-42.899
		L223.454,359.295z"/>
	<path style="fill:#D3D0D4;" d="M149.802,359.295l20.714,49.118l-16.926,12.554c-3.891,2.886-9.464,1.193-11.093-3.37
		l-15.309-42.899L149.802,359.295z"/>
</g>
<polygon style="fill:#DD4C5B;" points="202.903,408.413 170.607,408.413 166.236,411.638 174.337,435.563 199.112,435.563 
	207.252,411.639 "/>
<path style="fill:#CE4155;" d="M192.628,432.092l-5.729-16.921c-0.713-2.105,0.018-4.43,1.806-5.749l0.016-0.012
	c0.878-0.648,1.941-0.998,3.033-0.998h-21.146l-4.371,3.225l8.101,23.925h23.13C195.276,435.563,193.33,434.167,192.628,432.092z"/>
<path style="fill:#FD6874;" d="M166.602,495.943c13.438,5.009,27.41,8.916,41.807,11.623l-9.297-72.003h-12.357h-12.357
	L166.602,495.943z"/>
<path style="fill:#DD4C5B;" d="M195.126,435.563h-8.371h-12.357l-7.796,60.38c7.233,2.696,14.626,5.061,22.151,7.104
	L195.126,435.563z"/>
<path style="fill:#F1D4A5;" d="M270.325,195.447l-29.617-23.06c-4.997-3.89-10.831-4.642-15.999-2.635l0,0
	c-20.153,7.791-73.222,26.659-118.475,28.454l0.006,0.013c0,0-6.793,0.415-6.793,5.797v54.832c0,50.032,41.469,90.786,91.447,88.454
	c46.296-2.16,83.17-40.374,83.17-87.212v-55.006C274.063,198.793,270.326,195.448,270.325,195.447z"/>
<path style="fill:#E5BE8E;" d="M129.447,260.091v-64.1c-7.829,1.127-15.631,1.915-23.213,2.216l0.006,0.013
	c0,0-6.793,0.415-6.793,5.797v54.832c0,50.032,41.469,90.786,91.447,88.454c3.688-0.172,7.307-0.597,10.862-1.213
	C160.689,338.975,129.447,303.197,129.447,260.091z"/>
<path style="fill:#A7E0F5;" d="M383.243,30.597c-69.104,0.586-125.66,56.895-126.533,125.996
	c-0.331,26.209,7.243,50.626,20.481,71.029c1.115,1.718,1.314,3.874,0.468,5.739l-22.89,50.468c-1.11,2.447,1.406,4.963,3.853,3.853
	l49.997-22.676c2.085-0.945,4.516-0.795,6.437,0.45c20.353,13.183,44.694,20.733,70.819,20.428
	c69.15-0.808,125.536-57.387,126.12-126.539C512.598,87.97,454.618,29.992,383.243,30.597z"/>
<g>
	<path style="fill:#6FC7EC;" d="M331.79,118.951c0-35.028,15.502-66.433,40.019-87.734
		c-63.802,6.295-114.274,60.128-115.099,125.376c-0.331,26.209,7.243,50.626,20.481,71.029c1.115,1.718,1.313,3.874,0.468,5.739
		l-22.89,50.468c-1.11,2.447,1.406,4.963,3.853,3.853l49.997-22.676c2.085-0.945,4.516-0.795,6.437,0.45
		c20.354,13.183,44.694,20.733,70.819,20.428c44.541-0.521,83.781-24.183,106.229-59.438
		C416.016,257.72,331.79,201.746,331.79,118.951z"/>
	<circle style="fill:#6FC7EC;" cx="383.25" cy="158.77" r="93.53"/>
</g>
<path style="fill:#37AEE2;" d="M340.076,75.789c-29.92,15.6-50.352,46.901-50.352,82.979c0,76.709,87.05,119.953,148.146,75.921
	C360.082,227.989,311.265,147.736,340.076,75.789z"/>
<path style="fill:#E8E6E9;" d="M383.25,94.047c-35.744,0-64.721,28.977-64.721,64.721s28.977,64.721,64.721,64.721
	s64.721-28.977,64.721-64.721H383.25V94.047z"/>
<path style="fill:#D3D0D4;" d="M331.797,119.522c-35.465,46.424,4.628,113.689,63.263,102.872
	C357.659,203.229,332.014,164.386,331.797,119.522z"/>
<path style="fill:#FD6874;" d="M383.25,94.047v64.721h64.721C447.971,123.024,418.994,94.047,383.25,94.047z"/>
<g>
	<path style="fill:#5C515E;" d="M383.25,174.644c-4.495,0-8.139-3.644-8.139-8.139v-57.106c0-4.495,3.644-8.139,8.139-8.139
		s8.139,3.644,8.139,8.139v57.106C391.389,171,387.745,174.644,383.25,174.644z"/>
	<path style="fill:#5C515E;" d="M414.271,166.907h-39.069c-4.495,0-8.139-3.644-8.139-8.139s3.644-8.139,8.139-8.139h39.069
		c4.495,0,8.139,3.644,8.139,8.139S418.766,166.907,414.271,166.907z"/>
</g>
<g>
</g>
<g>
</g>
<g>
</g>
<g>
</g>
<g>
</g>
<g>
</g>
<g>
</g>
<g>
</g>
<g>
</g>
<g>
</g>
<g>
</g>
<g>
</g>
<g>
</g>
<g>
</g>
<g>
</g>
</svg>
