<?xml version="1.0" encoding="iso-8859-1"?>
<!-- Generator: Adobe Illustrator 19.0.0, SVG Export Plug-In . SVG Version: 6.00 Build 0)  -->
<svg version="1.1" id="Capa_1" xmlns="http://www.w3.org/2000/svg" xmlns:xlink="http://www.w3.org/1999/xlink" x="0px" y="0px"
	 viewBox="0 0 512 512" style="enable-background:new 0 0 512 512;" xml:space="preserve">
<circle style="fill:#FD6874;" cx="256" cy="260.78" r="251.22"/>
<path style="fill:#DD4C5B;" d="M54.391,410.679C100.184,472.169,173.439,512,256,512s155.816-39.831,201.609-101.321L54.391,410.679
	L54.391,410.679z"/>
<path style="fill:#CE4155;" d="M245.858,410.679H54.391c43.28,58.116,111.094,96.878,188.109,100.957
	C177.535,507.959,180.584,410.679,245.858,410.679z"/>
<path style="fill:#FED652;" d="M500.141,320.153c-15.428-31.677-47.931-53.508-85.535-53.508c-52.517,0-95.09,42.573-95.09,95.09
	c0,52.014,41.763,94.266,93.585,95.071C455.673,422.642,486.873,374.905,500.141,320.153z"/>
<path style="fill:#F9AA2B;" d="M478.494,377.5c1.243-5.053,1.915-10.33,1.915-15.766c0-36.342-29.461-65.803-65.803-65.803
	s-65.803,29.461-65.803,65.803s29.461,65.803,65.803,65.803c15.62,0,29.96-5.453,41.245-14.545
	C464.346,401.856,471.929,389.989,478.494,377.5z"/>
<path style="fill:#E8E6E9;" d="M368.596,91.953V55.054H123.183v36.899c0,58.026,40.279,106.638,94.402,119.417
	c7.988,1.886,13.689,8.926,13.689,17.134l0,0c0,8.1-5.623,15.058-13.509,16.907c-54.213,12.714-94.581,61.369-94.581,119.459v36.899
	h245.413V364.87c0-58.17-40.479-106.879-94.805-119.512c-7.759-1.804-13.285-8.66-13.285-16.625l0,0
	c0-8.343,5.796-15.485,13.912-17.417C328.428,198.458,368.596,149.9,368.596,91.953z"/>
<path style="fill:#D3D0D4;" d="M226.061,245.412c3.043-1.849,5.213-8.807,5.213-16.907l0,0c0-8.208-2.199-15.248-5.282-17.134
	c-20.884-12.779-36.426-61.391-36.426-119.417v-36.9h-66.383c0.038,39.15-0.073,36.138,0.082,41.239
	c1.951,56.097,41.552,102.619,94.32,115.077c7.988,1.886,13.688,8.926,13.688,17.134l0,0c0,8.1-5.623,15.058-13.509,16.907
	c-54.885,12.871-94.581,62.066-94.581,119.459v36.899h66.383V364.87C189.565,306.781,205.142,258.126,226.061,245.412z"/>
<path style="fill:#FFF6D4;" d="M368.596,398.358v-18.871l-57.117-22.042c-42.21-16.289-88.97-16.289-131.18,0l-57.116,22.042v18.871
	H368.596z"/>
<path style="fill:#FFE693;" d="M189.565,364.871c0-3.627,0.061-7.217,0.18-10.764c-3.17,1.027-6.322,2.132-9.446,3.338
	l-57.117,22.042v18.871h66.382v-33.487H189.565z"/>
<g>
	<path style="fill:#FFF6D4;" d="M365.686,118.612L365.686,118.612L365.686,118.612z"/>
	<path style="fill:#FFF6D4;" d="M126.093,118.612L126.093,118.612L126.093,118.612z"/>
	<path style="fill:#FFF6D4;" d="M217.585,211.37c7.959,1.879,13.642,8.874,13.685,17.042v117.416
		c9.735-0.784,19.516-0.783,29.251,0.001V228.412c0.148-8.203,5.888-15.188,13.898-17.095
		c45.476-10.828,81.133-46.966,91.268-92.705c-78.126,23.568-161.468,23.568-239.593,0
		C136.244,164.426,172.002,200.608,217.585,211.37z"/>
</g>
<g>
	<path style="fill:#FFE693;" d="M217.569,211.366c0.005,0.001,0.01,0.003,0.015,0.004c7.864,1.856,13.688,8.82,13.688,17.134
		c0-8.208-2.199-15.248-5.282-17.134c-15.729-9.625-28.424-39.58-33.735-78.571c-22.299-2.907-44.419-7.63-66.135-14.179
		C136.499,165.407,172.963,200.83,217.569,211.366z"/>
	<path style="fill:#FFE693;" d="M231.273,228.505c0,0.031-0.004,0.062-0.004,0.093v0.148
		C231.269,228.665,231.273,228.586,231.273,228.505z"/>
</g>
<g>
	<path style="fill:#A87B69;" d="M349.423,0H142.357c-10.589,0-19.174,8.584-19.174,19.174v13.471h245.413V19.174
		C368.596,8.584,360.012,0,349.423,0z"/>
	<path style="fill:#A87B69;" d="M349.423,456.825H142.357c-10.589,0-19.174-8.584-19.174-19.174V424.18h245.413v13.471
		C368.596,448.24,360.012,456.825,349.423,456.825z"/>
</g>
<g>
	<path style="fill:#8D6451;" d="M196.809,437.651V424.18h-73.626v13.471c0,10.589,8.584,19.174,19.174,19.174h73.626
		C205.394,456.824,196.809,448.24,196.809,437.651z"/>
	<path style="fill:#8D6451;" d="M214.357,0h-72c-10.589,0-19.174,8.584-19.174,19.174v13.471h72V19.174
		C195.183,8.584,203.767,0,214.357,0z"/>
	<path style="fill:#8D6451;" d="M379.056,398.358H112.724c-8.073,0-14.617,6.544-14.617,14.617s6.544,14.617,14.617,14.617h266.332
		c8.073,0,14.617-6.544,14.617-14.617S387.128,398.358,379.056,398.358z"/>
</g>
<path style="fill:#825A4A;" d="M171.733,412.975c0-8.073,6.544-14.616,14.617-14.616h-73.626c-8.073,0-14.617,6.544-14.617,14.616
	c0,8.073,6.544,14.617,14.617,14.617h73.626C178.277,427.592,171.733,421.048,171.733,412.975z"/>
<circle style="fill:#FED652;" cx="353.35" cy="361.74" r="95.09"/>
<path style="fill:#FEBE40;" d="M324.049,378.653c-20.901-36.201-15.291-80.431,10.803-110.216
	c-9.957,1.975-19.764,5.59-29.044,10.947c-45.481,26.258-61.064,84.414-34.805,129.895c26.258,45.481,84.414,61.064,129.895,34.805
	c9.28-5.358,17.314-12.044,24.003-19.679C386.059,432.111,344.95,414.854,324.049,378.653z"/>
<circle style="fill:#F9AA2B;" cx="353.35" cy="361.74" r="65.803"/>
<path style="fill:#ED971B;" d="M324.049,378.653c-12.656-21.921-15.576-46.782-10.129-69.601
	c-16.011,12.003-26.371,31.132-26.371,52.682c0,36.342,29.461,65.803,65.803,65.803c9.205,0,17.964-1.896,25.92-5.309
	C356.782,415.538,336.707,400.577,324.049,378.653z"/>
<path style="fill:#FFF6D4;" d="M384.858,378.177c0-12.962-10.19-23.56-22.975-24.279v-14.643h6.651c4.711,0,8.53-3.819,8.53-8.53
	c0-4.712-3.819-8.53-8.53-8.53h-6.651v-0.873c0-4.712-3.819-8.53-8.53-8.53s-8.53,3.819-8.53,8.53v0.942
	c-12.785,0.718-22.975,11.317-22.975,24.279s10.19,23.559,22.975,24.277v14.643h-7.516c-4.711,0-8.53,3.819-8.53,8.53
	c0,4.712,3.819,8.53,8.53,8.53h7.535c0.197,4.537,3.927,8.156,8.511,8.156c4.608,0,8.353-3.656,8.515-8.225
	C374.66,401.744,384.858,391.144,384.858,378.177z M338.908,346.542c0-3.549,2.551-6.509,5.914-7.154v14.306
	C341.459,353.051,338.908,350.09,338.908,346.542z M361.882,385.329v-14.306c3.364,0.644,5.915,3.605,5.915,7.154
	C367.797,381.725,365.246,384.685,361.882,385.329z"/>
<path style="fill:#8D6451;" d="M379.056,58.466H112.724c-8.073,0-14.617-6.544-14.617-14.617s6.544-14.617,14.617-14.617h266.332
	c8.073,0,14.617,6.544,14.617,14.617S387.128,58.466,379.056,58.466z"/>
<path style="fill:#825A4A;" d="M170.107,43.85c0-8.073,6.544-14.617,14.617-14.617h-72c-8.073,0-14.617,6.544-14.617,14.617
	s6.544,14.616,14.617,14.616h72C176.651,58.466,170.107,51.922,170.107,43.85z"/>
<g>
</g>
<g>
</g>
<g>
</g>
<g>
</g>
<g>
</g>
<g>
</g>
<g>
</g>
<g>
</g>
<g>
</g>
<g>
</g>
<g>
</g>
<g>
</g>
<g>
</g>
<g>
</g>
<g>
</g>
</svg>
