<?xml version="1.0" encoding="iso-8859-1"?>
<!-- Generator: Adobe Illustrator 19.0.0, SVG Export Plug-In . SVG Version: 6.00 Build 0)  -->
<svg version="1.1" id="Capa_1" xmlns="http://www.w3.org/2000/svg" xmlns:xlink="http://www.w3.org/1999/xlink" x="0px" y="0px"
	 viewBox="0 0 512 512" style="enable-background:new 0 0 512 512;" xml:space="preserve">
<circle style="fill:#5C515E;" cx="256" cy="256" r="256"/>
<path style="fill:#42D197;" d="M281.367,124.354c79.298,10.946,142.215,73.885,153.126,153.194c0.62,4.509,4.412,7.902,8.964,7.902
	h48.571c5.628,0,9.988-4.901,9.371-10.494C488.79,160.642,397.609,69.663,283.204,57.363c-5.235-0.563-9.818,3.5-9.818,8.765v49.171
	C273.386,119.897,276.812,123.725,281.367,124.354z"/>
<path style="fill:#FD6874;" d="M146.651,160.469c24.274-18.899,53.506-31.712,85.391-36.115c4.556-0.629,7.983-4.46,7.983-9.058
	V66.042c0-5.224-4.548-9.244-9.742-8.687c-48.825,5.234-93.421,24.802-129.494,54.394c-4.312,3.537-4.607,10.033-0.621,13.933
	l34.963,34.198C138.273,162.954,143.183,163.169,146.651,160.469z"/>
<path style="fill:#FED652;" d="M492.401,318.811h-48.35c-4.841,0-8.949,3.561-9.621,8.355
	c-12.34,88.03-88.768,155.791-180.452,154.422c-145.883-2.177-228.305-169.881-141.168-286.59c2.551-3.416,2.121-8.209-0.927-11.19
	L76.58,149.276c-3.857-3.773-10.122-3.333-13.458,0.908C20.42,204.459,3.688,272.397,12.871,336.32
	C46.561,438.356,142.674,512,256,512c116.04,0,214.029-77.214,245.438-183.059c0.001-0.011,0.003-0.021,0.004-0.032
	C502.028,323.522,497.819,318.811,492.401,318.811z"/>
<g>
	<path style="fill:#2EBC7F;" d="M294.038,126.581c14.465,3.073,28.29,7.891,41.245,14.227l33.416-57.879
		c-12.755-6.543-26.155-11.998-40.073-16.257L294.038,126.581z"/>
	<path style="fill:#2EBC7F;" d="M404.986,105.744l-33.699,58.369c11.501,9.565,21.795,20.533,30.61,32.646l35.563-61.597
		C427.535,124.426,416.662,114.581,404.986,105.744z"/>
	<path style="fill:#2EBC7F;" d="M465.632,172.032l-40.044,69.358c4.168,11.553,7.185,23.651,8.905,36.157
		c0.62,4.509,4.412,7.902,8.964,7.902h6.152l38.654-66.95C482.337,202.138,474.723,186.579,465.632,172.032z"/>
</g>
<circle style="fill:#908A91;" cx="256.7" cy="302.13" r="106.48"/>
<path style="fill:#7E777F;" d="M224.532,320.706c-23.336-40.419-17.158-89.775,11.842-123.125
	c-11.282,2.195-22.399,6.262-32.91,12.331c-50.931,29.405-68.381,94.53-38.976,145.46c29.405,50.931,94.53,68.381,145.461,38.976
	c10.512-6.069,19.593-13.662,27.134-22.335C293.7,380.452,247.868,361.125,224.532,320.706z"/>
<path style="fill:#E8E6E9;" d="M256.705,228.442c-40.697,0-73.688,32.991-73.688,73.688s32.991,73.688,73.688,73.688
	s73.688-32.991,73.688-73.688h-73.688L256.705,228.442L256.705,228.442z"/>
<path style="fill:#D3D0D4;" d="M213.219,242.653c-18.306,13.407-30.202,35.049-30.202,59.478c0,40.697,32.991,73.688,73.688,73.688
	c10.601,0,20.67-2.256,29.778-6.286C232.216,353.455,199.996,297.775,213.219,242.653z"/>
<path style="fill:#FD6874;" d="M256.705,228.442v73.688h73.688C330.394,261.434,297.402,228.442,256.705,228.442z"/>
<g>
	<path style="fill:#5C515E;" d="M256.706,320.206c-5.118,0-9.267-4.149-9.267-9.267V245.92c0-5.118,4.149-9.267,9.267-9.267
		c5.118,0,9.267,4.149,9.267,9.267v65.019C265.973,316.057,261.824,320.206,256.706,320.206z"/>
	<path style="fill:#5C515E;" d="M292.025,311.398h-44.482c-5.118,0-9.267-4.149-9.267-9.267s4.149-9.267,9.267-9.267h44.482
		c5.118,0,9.267,4.149,9.267,9.267S297.143,311.398,292.025,311.398z"/>
</g>
<path style="fill:#DD4C5B;" d="M150.203,101.74c0-10.649,4.582-20.228,11.881-26.873c-22.268,9.307-42.893,21.786-61.295,36.882
	c-4.312,3.537-4.608,10.033-0.621,13.933l34.963,34.198c3.142,3.073,8.052,3.289,11.52,0.589
	c11.489-8.945,24.099-16.506,37.565-22.478C165.232,136.794,150.203,121.026,150.203,101.74z"/>
<path style="fill:#FEBE40;" d="M366.699,449.288c0-1.976,0.163-3.913,0.467-5.803c-31.141,24.393-70.51,38.741-113.188,38.104
	C108.095,479.411,25.673,311.707,112.81,194.998c2.551-3.416,2.121-8.209-0.927-11.19L76.58,149.276
	c-3.857-3.773-10.122-3.333-13.458,0.908C20.42,204.459,3.688,272.397,12.871,336.32C46.561,438.356,142.674,512,256,512
	c45.802,0,88.786-12.038,125.979-33.109C372.734,472.304,366.699,461.504,366.699,449.288z"/>
<g>
</g>
<g>
</g>
<g>
</g>
<g>
</g>
<g>
</g>
<g>
</g>
<g>
</g>
<g>
</g>
<g>
</g>
<g>
</g>
<g>
</g>
<g>
</g>
<g>
</g>
<g>
</g>
<g>
</g>
</svg>
