<?xml version="1.0" encoding="iso-8859-1"?>
<!-- Generator: Adobe Illustrator 19.0.0, SVG Export Plug-In . SVG Version: 6.00 Build 0)  -->
<svg version="1.1" id="Capa_1" xmlns="http://www.w3.org/2000/svg" xmlns:xlink="http://www.w3.org/1999/xlink" x="0px" y="0px"
	 viewBox="0 0 512 512" style="enable-background:new 0 0 512 512;" xml:space="preserve">
<circle style="fill:#F9AA2B;" cx="256" cy="262.08" r="249.92"/>
<path style="fill:#EA9315;" d="M55.652,411.501C101.222,472.505,173.998,512,256,512s154.778-39.495,200.348-100.499H55.652z"/>
<path style="fill:#EA7E1C;" d="M245.918,411.501H55.652c43.07,57.657,110.445,96.093,186.94,100.138
	C178.151,507.997,181.17,411.501,245.918,411.501z"/>
<path style="fill:#E8E6E9;" d="M374.55,91.625V54.858H130.012v36.768c0,57.819,40.135,106.258,94.065,118.991
	c7.96,1.879,13.64,8.894,13.64,17.073l0,0c0,8.071-5.603,15.004-13.461,16.847c-54.02,12.668-94.244,61.15-94.244,119.033v36.768
	H374.55V363.57c0-57.963-40.335-106.498-94.466-119.085c-7.731-1.798-13.238-8.629-13.238-16.566l0,0
	c0-8.313,5.776-15.43,13.862-17.355C334.525,197.749,374.55,149.365,374.55,91.625z"/>
<path style="fill:#D3D0D4;" d="M232.523,244.536c3.032-1.843,5.194-8.776,5.194-16.847l0,0c0-8.179-2.192-15.194-5.263-17.073
	c-20.809-12.733-36.296-61.172-36.296-118.991V54.858h-66.146c0.038,38.982-0.073,36.01,0.082,41.092
	c1.944,55.897,41.404,102.252,93.983,114.667c7.96,1.879,13.64,8.894,13.64,17.073l0,0c0,8.071-5.603,15.004-13.461,16.847
	c-52.666,12.351-92.213,58.745-94.162,114.702c-0.156,5.109-0.045,2.783-0.082,41.098h66.146v-36.768
	C196.158,305.686,211.679,257.205,232.523,244.536z"/>
<path style="fill:#FFF6D4;" d="M374.55,396.937v-18.803l-56.913-21.963c-42.059-16.231-88.653-16.231-130.712,0l-56.913,21.963
	v18.803H374.55z"/>
<path style="fill:#FFE693;" d="M196.337,352.844c-8.704,2.82-8.491,3.072-66.325,25.29v18.803h66.146
	C196.206,364.827,196.042,361.641,196.337,352.844z"/>
<g>
	<path style="fill:#FFF6D4;" d="M371.65,118.189L371.65,118.189L371.65,118.189z"/>
	<path style="fill:#FFF6D4;" d="M132.912,118.189L132.912,118.189L132.912,118.189z"/>
	<path style="fill:#FFF6D4;" d="M224.078,210.616c7.93,1.872,13.593,8.842,13.636,16.981v116.997
		c9.7-0.781,19.447-0.781,29.147,0.001V227.597c0.148-8.173,5.867-15.133,13.849-17.034c45.314-10.789,80.844-46.799,90.942-92.375
		c-77.847,23.483-160.892,23.483-238.738,0C143.027,163.84,178.658,199.892,224.078,210.616z"/>
</g>
<g>
	<path style="fill:#FFE693;" d="M224.062,210.612c0.005,0.001,0.01,0.003,0.015,0.004c7.822,1.846,13.64,8.773,13.64,17.073
		c0-8.179-2.192-15.194-5.263-17.073c-15.673-9.59-28.323-39.439-33.615-78.29c-22.219-2.897-44.26-7.603-65.9-14.129
		C143.243,164.643,179.357,200.052,224.062,210.612z"/>
	<path style="fill:#FFE693;" d="M237.717,227.689c0,0.031-0.004,0.062-0.004,0.093v0.148
		C237.714,227.849,237.717,227.77,237.717,227.689z"/>
</g>
<g>
	<path style="fill:#A87B69;" d="M355.445,0H149.118c-10.551,0-19.105,8.554-19.105,19.105v13.423h244.538V19.105
		C374.551,8.554,365.997,0,355.445,0z"/>
	<path style="fill:#A87B69;" d="M355.445,455.195H149.118c-10.551,0-19.105-8.554-19.105-19.105v-13.423h244.538v13.423
		C374.551,446.641,365.997,455.195,355.445,455.195z"/>
</g>
<g>
	<path style="fill:#8D6451;" d="M203.376,436.089v-13.423h-73.364v13.423c0,10.552,8.554,19.105,19.105,19.105h73.364
		C211.93,455.194,203.376,446.641,203.376,436.089z"/>
	<path style="fill:#8D6451;" d="M220.861,0h-71.743c-10.551,0-19.105,8.554-19.105,19.105v13.423h71.743V19.105
		C201.756,8.554,210.31,0,220.861,0z"/>
	<path style="fill:#8D6451;" d="M384.973,396.937H119.591c-8.044,0-14.564,6.52-14.564,14.564s6.52,14.564,14.564,14.564h265.382
		c8.044,0,14.564-6.52,14.564-14.564S393.017,396.937,384.973,396.937z"/>
</g>
<path style="fill:#825A4A;" d="M178.39,411.501c0-8.044,6.52-14.564,14.564-14.564H119.59c-8.044,0-14.564,6.52-14.564,14.564
	s6.521,14.565,14.564,14.565h73.364C184.91,426.066,178.39,419.545,178.39,411.501z"/>
<path style="fill:#8D6451;" d="M384.973,58.258H119.591c-8.044,0-14.564-6.52-14.564-14.564s6.52-14.564,14.564-14.564h265.382
	c8.044,0,14.564,6.52,14.564,14.564S393.017,58.258,384.973,58.258z"/>
<path style="fill:#825A4A;" d="M176.769,43.693c0-8.044,6.521-14.564,14.564-14.564H119.59c-8.044,0-14.564,6.52-14.564,14.564
	s6.521,14.564,14.564,14.564h71.743C183.29,58.257,176.769,51.737,176.769,43.693z"/>
<path style="fill:#5C515E;" d="M398.968,248.084c-57.998,0-105.014,47.016-105.014,105.014s47.016,105.014,105.014,105.014
	c4.421,0,8.778-0.277,13.056-0.807c42.554-34.055,73.726-81.727,86.917-136.419C485.342,278.648,445.727,248.084,398.968,248.084z"
	/>
<path style="fill:#4A404E;" d="M358.621,321.052c0-28.039,10.99-53.51,28.896-72.344c-52.61,5.706-93.563,50.263-93.563,104.39
	c0,57.998,47.016,105.014,105.014,105.014c4.421,0,8.778-0.277,13.056-0.807c12.284-9.83,23.613-20.802,33.841-32.743
	C396.331,416.118,358.621,372.992,358.621,321.052z"/>
<path style="fill:#E8E6E9;" d="M398.968,280.427c-40.135,0-72.671,32.536-72.671,72.671s32.536,72.671,72.671,72.671
	s72.671-32.536,72.671-72.671h-72.671V280.427z"/>
<path style="fill:#D3D0D4;" d="M427.833,419.796c-40.369-14.638-69.212-53.32-69.212-98.744c0-10.904,1.669-21.417,4.754-31.305
	c-22.125,12.458-37.077,36.151-37.077,63.351c0,40.135,32.536,72.671,72.671,72.671
	C409.227,425.768,418.984,423.631,427.833,419.796z"/>
<path style="fill:#FD6874;" d="M398.968,280.427v72.671h72.671C471.639,312.963,439.103,280.427,398.968,280.427z"/>
<g>
	<path style="fill:#5C515E;" d="M398.968,370.924c-5.047,0-9.139-4.092-9.139-9.139v-64.121c0-5.047,4.092-9.139,9.139-9.139
		s9.139,4.092,9.139,9.139v64.121C408.107,366.832,404.016,370.924,398.968,370.924z"/>
	<path style="fill:#5C515E;" d="M433.799,362.237h-43.868c-5.047,0-9.139-4.092-9.139-9.139s4.092-9.139,9.139-9.139h43.868
		c5.047,0,9.139,4.092,9.139,9.139C442.939,358.145,438.847,362.237,433.799,362.237z"/>
</g>
<g>
</g>
<g>
</g>
<g>
</g>
<g>
</g>
<g>
</g>
<g>
</g>
<g>
</g>
<g>
</g>
<g>
</g>
<g>
</g>
<g>
</g>
<g>
</g>
<g>
</g>
<g>
</g>
<g>
</g>
</svg>
