<?xml version="1.0" encoding="iso-8859-1"?>
<!-- Generator: Adobe Illustrator 19.0.0, SVG Export Plug-In . SVG Version: 6.00 Build 0)  -->
<svg version="1.1" id="Capa_1" xmlns="http://www.w3.org/2000/svg" xmlns:xlink="http://www.w3.org/1999/xlink" x="0px" y="0px"
	 viewBox="0 0 512 512" style="enable-background:new 0 0 512 512;" xml:space="preserve">
<circle style="fill:#5C515E;" cx="256" cy="256" r="256"/>
<path style="fill:#FD6874;" d="M290.088,431.51c14.074,6.21,27.873,13.92,50.51,13.92h124.214c4.322,0,7.826-3.504,7.826-7.826
	c0-14.427,0-284.891,0-301.166c0-3.973-3.221-7.195-7.194-7.195h-19.971H33.543C12.202,166.617,0,209.882,0,256
	c0,75.076,32.319,142.604,83.801,189.431h20.74c22.027,0,35.082-7.113,50.51-13.92c16.908-7.461,31.407-6.332,42.588-2.458
	c1.989,0.689,3.333,2.547,3.333,4.652l0,0c0,11.711,9.106,21.686,20.81,22.101c12.287,0.437,22.385-9.394,22.385-21.584
	c0-2.414,1.534-4.567,3.822-5.336C259.102,425.148,273.426,424.158,290.088,431.51z"/>
<path style="fill:#DD4C5B;" d="M326.999,408.681V129.244H33.543C12.202,166.617,0,209.882,0,256
	c0,75.076,32.319,142.604,83.801,189.431h20.74c22.027,0,35.082-7.113,50.51-13.92c16.908-7.461,31.407-6.332,42.588-2.458
	c1.989,0.689,3.333,2.547,3.333,4.652c0,11.711,9.106,21.686,20.81,22.101c12.287,0.437,22.385-9.394,22.385-21.584
	c0-2.414,1.534-4.567,3.822-5.336c28.678-9.645,46.166,6.765,67.147,12.887C304.489,429.912,311.371,411.045,326.999,408.681z"/>
<path style="fill:#D3D0D4;" d="M154.997,83.834c-14.729,6.087-27.919,13.039-50.51,13.039h-49.02C20.75,140.567,0,195.857,0,256
	c0,59.198,20.103,113.696,53.842,157.06h50.645c21.983,0,34.996-6.627,50.51-13.039c40.748-16.842,67.519,13.039,67.519,13.039
	V96.874C222.516,96.874,195.744,66.992,154.997,83.834z"/>
<path style="fill:#FFFFFF;" d="M290.035,83.834c14.729,6.088,27.919,13.039,50.51,13.039h97.422c4.116,0,7.453,3.337,7.453,7.453
	v300.552c0,4.519-3.663,8.182-8.182,8.182c-120.331,0-107.586,3.335-147.203-13.039c-40.748-16.842-67.519,13.039-67.519,13.039
	V96.874C222.515,96.874,249.287,66.992,290.035,83.834z"/>
<path style="fill:#E8E6E9;" d="M316.13,397.655V114.903c0-8.057,4.378-15.138,10.87-18.992c-15.092-2.14-23.284-6.422-36.965-12.076
	c-40.748-16.842-67.519,13.039-67.519,13.039V413.06c0,0,26.771-29.882,67.519-13.039c13.446,5.558,19.094,8.533,30.606,10.959
	C317.814,407.27,316.13,402.65,316.13,397.655z"/>
<path style="fill:#37AEE2;" d="M48.742,197.47l-9.629-9.231c-3.249-3.114-3.357-8.274-0.243-11.523s8.273-3.359,11.523-0.243
	l3.989,3.824l12.692-12.167c3.249-3.114,8.407-3.005,11.522,0.243c3.115,3.249,3.006,8.408-0.244,11.523L60.021,197.47
	C56.87,200.492,51.895,200.493,48.742,197.47z"/>
<g>
	<path style="fill:#E8E6E9;" d="M175.232,176.445h-70.204c-4.501,0-8.15-3.648-8.15-8.15s3.649-8.15,8.15-8.15h70.204
		c4.501,0,8.15,3.648,8.15,8.15S179.732,176.445,175.232,176.445z"/>
	<path style="fill:#E8E6E9;" d="M149.788,206.246h-44.76c-4.501,0-8.15-3.648-8.15-8.15c0-4.501,3.649-8.15,8.15-8.15h44.76
		c4.501,0,8.15,3.648,8.15,8.15C157.937,202.598,154.288,206.246,149.788,206.246z"/>
</g>
<path style="fill:#37AEE2;" d="M48.742,269.082l-9.629-9.232c-3.249-3.116-3.357-8.274-0.242-11.523
	c3.115-3.249,8.274-3.356,11.522-0.243l3.989,3.825l12.692-12.167c3.249-3.114,8.407-3.005,11.522,0.243
	c3.115,3.249,3.006,8.408-0.244,11.523L60.02,269.082C56.87,272.104,51.894,272.105,48.742,269.082z"/>
<g>
	<path style="fill:#E8E6E9;" d="M175.232,248.056h-70.204c-4.501,0-8.15-3.648-8.15-8.15s3.649-8.15,8.15-8.15h70.204
		c4.501,0,8.15,3.648,8.15,8.15S179.732,248.056,175.232,248.056z"/>
	<path style="fill:#E8E6E9;" d="M149.788,277.858h-44.76c-4.501,0-8.15-3.648-8.15-8.15s3.649-8.15,8.15-8.15h44.76
		c4.501,0,8.15,3.648,8.15,8.15S154.288,277.858,149.788,277.858z"/>
</g>
<path style="fill:#37AEE2;" d="M48.742,341.089l-9.629-9.232c-3.249-3.115-3.357-8.274-0.242-11.523
	c3.115-3.249,8.274-3.357,11.522-0.243l3.989,3.825l12.692-12.168c3.249-3.114,8.407-3.005,11.523,0.243
	c3.114,3.249,3.006,8.408-0.243,11.523l-18.332,17.575C56.869,344.111,51.894,344.111,48.742,341.089z"/>
<g>
	<path style="fill:#E8E6E9;" d="M175.232,320.063h-70.204c-4.501,0-8.15-3.648-8.15-8.15c0-4.501,3.649-8.15,8.15-8.15h70.204
		c4.501,0,8.15,3.648,8.15,8.15C183.381,316.414,179.732,320.063,175.232,320.063z"/>
	<path style="fill:#E8E6E9;" d="M149.788,349.864h-44.76c-4.501,0-8.15-3.648-8.15-8.15s3.649-8.15,8.15-8.15h44.76
		c4.501,0,8.15,3.648,8.15,8.15S154.288,349.864,149.788,349.864z"/>
</g>
<path style="fill:#BDB9BE;" d="M58.733,386.438h-13.98c-4.501,0-8.15-3.648-8.15-8.15s3.649-8.15,8.15-8.15h13.98
	c4.501,0,8.15,3.648,8.15,8.15S63.234,386.438,58.733,386.438z"/>
<path style="fill:#FED652;" d="M287.712,224.553V82.924c-12.325-4.623-23.314-4.997-32.598-3.321v144.586
	c0,2.205,2.527,3.454,4.279,2.114l9.538-7.295c1.465-1.12,3.499-1.12,4.964,0l9.829,7.517
	C285.356,227.773,287.712,226.609,287.712,224.553z"/>
<path style="fill:#7E777F;" d="M283.653,351.875c-3.958-2.286-5.315-7.348-3.029-11.306l14.819-25.668
	c2.285-3.96,7.347-5.314,11.306-3.029c3.959,2.286,5.315,7.348,3.029,11.306l-14.819,25.668
	C292.667,352.817,287.601,354.154,283.653,351.875z"/>
<path style="fill:#959396;" d="M458.554,27.974c-3.525-2.035-8.028-1.025-10.326,2.334c-25.47,37.222-51.214,78.06-76.325,121.554
	c-33.25,57.591-61.929,113.829-85.12,165.741c-7.104,15.902,14.767,28.53,24.987,14.426c33.361-46.04,67.725-98.996,100.975-156.587
	c25.135-43.536,47.649-86.292,67.163-126.996c1.727-3.603,0.376-7.926-3.084-9.924L458.554,27.974z"/>
<path style="fill:#7E777F;" d="M302.474,326.663c25.615-50.512,55.65-105.968,88.9-163.559
	c25.111-43.493,50.081-84.778,74.128-122.822c2.17-3.433,5.271-5.253,7.116-4.188l4.207,2.429c-11.311-6.53-6.96-4.018-18.27-10.548
	c-3.525-2.035-8.028-1.025-10.326,2.334c-25.47,37.222-51.214,78.06-76.325,121.553c-33.25,57.591-61.929,113.829-85.121,165.741
	c-4.9,10.969,3.987,20.377,13.327,20.531C299.464,335.406,300.04,331.462,302.474,326.663z"/>
<path style="fill:#E8E6E9;" d="M456.767,31.068l18.269,10.548c1.021,0.589,1.851,1.386,2.478,2.306l11.295-19.564
	c3.876-6.713,1.623-15.269-5.032-19.111s-15.191-1.515-19.066,5.198L453.393,30.05C454.55,30.124,455.704,30.454,456.767,31.068z"/>
<path style="fill:#D3D0D4;" d="M477.145,18.445c2.624-4.545,7.386-7.071,12.253-7.041c-1.159-2.5-3.06-4.679-5.62-6.157
	c-6.655-3.842-15.191-1.515-19.066,5.198L453.393,30.05c1.157,0.075,2.311,0.405,3.375,1.019l9.817,5.668L477.145,18.445z"/>
<path style="fill:#7E777F;" d="M458.554,27.974c-3.525-2.035-8.028-1.025-10.326,2.334c-7.335,10.72-14.693,21.748-22.052,33.045
	l36.082,20.832c6.125-12.062,12.016-23.989,17.649-35.74c1.727-3.603,0.376-7.926-3.084-9.924L458.554,27.974z"/>
<g>
	<polygon style="fill:#5C515E;" points="476.823,38.522 476.823,38.522 476.629,38.41 474.755,37.328 	"/>
	<path style="fill:#5C515E;" d="M448.227,30.309c-0.02,0.03-0.041,0.06-0.061,0.09c-6.818,9.966-14.54,21.518-21.99,32.955
		l18.337,10.587c7.06-11.469,14.063-22.702,20.989-33.659c2.17-3.433,5.271-5.253,7.116-4.188l2.138,1.235
		c-3.78-2.182-12.451-7.189-16.202-9.354C455.055,25.954,450.544,26.922,448.227,30.309z"/>
</g>
<path style="fill:#7E777F;" d="M303.43,281.601c-5.819,12.195-11.381,24.212-16.645,35.995
	c-7.105,15.903,14.768,28.531,24.988,14.427c7.573-10.451,15.199-21.276,22.85-32.413L303.43,281.601z"/>
<path style="fill:#5C515E;" d="M320.601,291.515l-17.171-9.914c-5.594,11.724-11.342,24.124-16.645,35.995
	c-4.745,10.616,3.538,20.334,13.323,20.532c-0.642-2.727-0.066-6.669,2.366-11.466C308.289,315.195,314.344,303.46,320.601,291.515z
	"/>
<path style="fill:#E8E6E9;" d="M449.211,165.764c-1.386,0-2.792-0.348-4.083-1.083c-3.974-2.259-5.363-7.312-3.104-11.286
	c14.281-25.117,27.593-50.59,39.624-75.823l-46.524-26.861c-3.959-2.286-5.315-7.348-3.029-11.306
	c2.286-3.96,7.347-5.315,11.306-3.029l53.126,30.673c3.721,2.149,5.179,6.787,3.357,10.679
	c-13.052,27.864-27.678,56.075-43.471,83.85C454.889,164.26,452.091,165.764,449.211,165.764z"/>
<g>
</g>
<g>
</g>
<g>
</g>
<g>
</g>
<g>
</g>
<g>
</g>
<g>
</g>
<g>
</g>
<g>
</g>
<g>
</g>
<g>
</g>
<g>
</g>
<g>
</g>
<g>
</g>
<g>
</g>
</svg>
