<?xml version="1.0" encoding="iso-8859-1"?>
<!-- Generator: Adobe Illustrator 19.0.0, SVG Export Plug-In . SVG Version: 6.00 Build 0)  -->
<svg version="1.1" id="Capa_1" xmlns="http://www.w3.org/2000/svg" xmlns:xlink="http://www.w3.org/1999/xlink" x="0px" y="0px"
	 viewBox="0 0 512 512" style="enable-background:new 0 0 512 512;" xml:space="preserve">
<circle style="fill:#5C515E;" cx="256" cy="256" r="256"/>
<path style="fill:#2FBA7E;" d="M95.969,455.804C139.802,490.958,195.44,512,256,512s116.198-21.042,160.031-56.196L95.969,455.804
	L95.969,455.804z"/>
<path style="fill:#20A568;" d="M242.782,455.804H95.969c40.058,32.126,89.977,52.456,144.5,55.721
	C205.028,508.971,206.93,455.804,242.782,455.804z"/>
<path style="fill:#37AEE2;" d="M341.25,499.46v-15.132h-49.349v15.132c0,6.926,5.615,12.54,12.54,12.54h24.268
	C335.636,512,341.25,506.385,341.25,499.46z"/>
<path style="fill:#309CD8;" d="M316.576,499.46v-15.132h-24.675v15.132c0,6.926,5.615,12.54,12.54,12.54h24.268
	c0.069,0,0.135-0.009,0.203-0.01C322.082,511.88,316.576,506.317,316.576,499.46z"/>
<path style="fill:#6FC7EC;" d="M146.659,487.524h191.302c34.81,0,63.291-28.481,63.291-63.291V149.562
	c0-34.81-28.481-63.291-63.291-63.291H64.374C24.328,131.451,0,190.88,0,256C0,358.266,59.973,446.512,146.659,487.524z"/>
<path style="fill:#37AEE2;" d="M56.609,149.562c0-34.81,28.481-63.291,63.291-63.291H64.374C24.328,131.451,0,190.88,0,256
	c0,60.801,21.2,116.646,56.609,160.556V149.562z"/>
<path style="fill:#FED652;" d="M483.916,88.623l-21.881-3.724c-0.856-0.146-1.535-0.788-1.748-1.63
	c-1.905-7.54-4.886-14.651-8.767-21.163c-0.446-0.749-0.418-1.687,0.09-2.396l12.957-18.089c0.621-0.867,0.524-2.057-0.231-2.811
	l-17.239-17.239c-0.752-0.752-1.936-0.852-2.803-0.237l-18.187,12.897c-0.708,0.502-1.641,0.529-2.387,0.084
	c-6.516-3.88-13.63-6.86-21.173-8.763c-0.842-0.213-1.485-0.892-1.631-1.748l-3.742-21.988C396.997,0.767,396.089,0,395.026,0
	h-24.38c-1.067,0-1.977,0.772-2.151,1.825l-3.64,22.025c-0.142,0.859-0.784,1.542-1.627,1.757
	c-7.501,1.914-14.576,4.893-21.057,8.765c-0.746,0.446-1.681,0.42-2.39-0.083L321.578,21.38c-0.867-0.615-2.051-0.515-2.803,0.237
	l-17.239,17.239c-0.754,0.754-0.852,1.944-0.231,2.811l13.004,18.155c0.507,0.708,0.537,1.645,0.092,2.393
	c-3.842,6.471-6.796,13.531-8.69,21.013c-0.213,0.841-0.892,1.483-1.747,1.629l-22.122,3.765c-1.048,0.178-1.814,1.086-1.814,2.15
	c0,8.772,0,16.327,0,25.099c0,1.063,0.767,1.971,1.814,2.15l22.122,3.765c0.855,0.146,1.534,0.788,1.747,1.629
	c1.894,7.483,4.848,14.542,8.69,21.013c0.444,0.749,0.415,1.685-0.092,2.393l-13.004,18.155c-0.621,0.868-0.524,2.057,0.231,2.811
	l17.239,17.239c0.752,0.752,1.936,0.852,2.803,0.237l18.203-12.908c0.709-0.503,1.644-0.529,2.39-0.083
	c6.481,3.872,13.555,6.85,21.057,8.764c0.843,0.215,1.485,0.898,1.627,1.757l3.64,22.025c0.174,1.053,1.084,1.825,2.151,1.825h24.38
	c1.063,0,1.971-0.767,2.15-1.815l3.742-21.988c0.146-0.856,0.789-1.535,1.631-1.748c7.543-1.903,14.657-4.882,21.173-8.763
	c0.746-0.444,1.679-0.418,2.387,0.084l18.187,12.897c0.867,0.615,2.051,0.515,2.803-0.237l17.239-17.239
	c0.754-0.754,0.852-1.944,0.231-2.811l-12.957-18.089c-0.508-0.709-0.537-1.647-0.09-2.396c3.881-6.512,6.862-13.623,8.767-21.163
	c0.213-0.842,0.892-1.484,1.748-1.63l21.881-3.724c1.048-0.178,1.815-1.086,1.815-2.149c0-8.772,0-16.327,0-25.099
	C485.731,89.709,484.964,88.801,483.916,88.623z"/>
<path style="fill:#A7E0F5;" d="M77.033,138.885H65.339c-4.414,0-7.992-3.578-7.992-7.992s3.578-7.992,7.992-7.992h11.693
	c4.414,0,7.992,3.578,7.992,7.992C85.024,135.307,81.447,138.885,77.033,138.885z"/>
<path style="fill:#37AEE2;" d="M274.121,412.561c-69.245,39.979-158.105,16.169-198.084-53.076
	c-39.979-69.246-16.17-158.107,53.075-198.086c69.246-39.979,158.107-16.168,198.086,53.078
	C367.177,283.721,343.367,372.581,274.121,412.561z"/>
<path style="fill:#309CD8;" d="M133.096,326.541c-34.315-59.435-21.634-133.32,26.434-178.343
	c-10.403,3.155-20.608,7.536-30.419,13.201c-69.245,39.979-93.054,128.84-53.075,198.086
	c39.979,69.245,128.839,93.055,198.084,53.076c9.811-5.664,18.707-12.311,26.641-19.743
	C237.737,411.934,167.411,385.975,133.096,326.541z"/>
<path style="fill:#E8E6E9;" d="M201.617,172.645c-63.043,0-114.333,51.291-114.333,114.335c0,63.043,51.29,114.333,114.333,114.333
	c63.044,0,114.334-51.29,114.334-114.333C315.951,223.936,264.661,172.645,201.617,172.645z"/>
<path style="fill:#D3D0D4;" d="M133.096,326.541c-22.237-38.516-24.731-83.098-10.656-121.963
	c-21.657,20.818-35.157,50.062-35.157,82.402c0,63.043,51.29,114.333,114.333,114.333c11.073,0,21.782-1.588,31.916-4.539
	C192.781,389.563,155.359,365.101,133.096,326.541z"/>
<g>
	<path style="fill:#5C515E;" d="M201.617,171.29c-4.414,0-7.992,3.578-7.992,7.992v8.693c0,4.414,3.578,7.992,7.992,7.992
		s7.992-3.578,7.992-7.992v-8.693C209.609,174.867,206.031,171.29,201.617,171.29z"/>
	<path style="fill:#5C515E;" d="M201.617,377.112c-4.414,0-7.992,3.578-7.992,7.992v8.693c0,4.414,3.578,7.992,7.992,7.992
		s7.992-3.578,7.992-7.992v-8.693C209.609,380.689,206.031,377.112,201.617,377.112z"/>
	<path style="fill:#5C515E;" d="M259.241,186.731c-3.821-2.207-8.711-0.898-10.917,2.925l-4.346,7.528
		c-2.207,3.823-0.897,8.711,2.926,10.917c3.797,2.192,8.697,0.922,10.917-2.925l4.346-7.528
		C264.374,193.825,263.064,188.937,259.241,186.731z"/>
	<path style="fill:#5C515E;" d="M156.331,364.978c-3.822-2.205-8.711-0.899-10.918,2.925l-4.346,7.527
		c-2.207,3.822-0.898,8.71,2.925,10.917c3.819,2.203,8.708,0.903,10.918-2.925l4.346-7.527
		C161.463,372.073,160.154,367.185,156.331,364.978z"/>
	<path style="fill:#5C515E;" d="M290.972,244.178l7.528-4.346c3.823-2.206,5.133-7.094,2.926-10.917
		c-2.208-3.822-7.096-5.134-10.917-2.925l-7.528,4.346c-3.823,2.206-5.133,7.094-2.926,10.917
		C282.273,245.094,287.168,246.374,290.972,244.178z"/>
	<path style="fill:#5C515E;" d="M112.261,328.9l-7.528,4.346c-3.822,2.206-5.132,7.094-2.925,10.917
		c2.213,3.834,7.105,5.126,10.917,2.925l7.528-4.346c3.822-2.206,5.132-7.094,2.925-10.917
		C120.972,328.002,116.084,326.695,112.261,328.9z"/>
	<path style="fill:#5C515E;" d="M308.874,278.547h-8.693c-4.414,0-7.992,3.578-7.992,7.992s3.578,7.992,7.992,7.992h8.693
		c4.414,0,7.992-3.578,7.992-7.992S313.288,278.547,308.874,278.547z"/>
	<path style="fill:#5C515E;" d="M111.045,286.54c0-4.414-3.578-7.992-7.992-7.992H94.36c-4.414,0-7.992,3.578-7.992,7.992
		s3.578,7.992,7.992,7.992h8.693C107.467,294.532,111.045,290.954,111.045,286.54z"/>
	<path style="fill:#5C515E;" d="M298.5,333.246l-7.528-4.346c-3.822-2.206-8.711-0.899-10.917,2.925
		c-2.207,3.823-0.897,8.711,2.926,10.917c6.684,3.564,8.085,5.418,11.516,5.418c2.762,0,5.449-1.433,6.929-3.997
		C303.633,340.34,302.323,335.452,298.5,333.246z"/>
	<path style="fill:#5C515E;" d="M120.254,230.335l-7.528-4.346c-3.825-2.207-8.711-0.898-10.917,2.925
		c-2.207,3.823-0.897,8.711,2.925,10.917l7.528,4.346c3.818,2.203,8.708,0.903,10.917-2.925
		C125.386,237.429,124.076,232.541,120.254,230.335z"/>
	<path style="fill:#5C515E;" d="M257.821,367.903c-2.207-3.822-7.095-5.131-10.917-2.925c-3.823,2.207-5.132,7.095-2.925,10.917
		l4.346,7.527c2.213,3.834,7.105,5.126,10.917,2.925c3.823-2.207,5.132-7.095,2.925-10.917L257.821,367.903z"/>
	<path style="fill:#5C515E;" d="M154.91,189.656c-2.207-3.822-7.095-5.131-10.917-2.925c-3.823,2.207-5.132,7.095-2.925,10.917
		l4.346,7.528c2.213,3.834,7.105,5.126,10.917,2.925c3.823-2.207,5.132-7.095,2.925-10.917L154.91,189.656z"/>
</g>
<circle style="fill:#FED652;" cx="201.62" cy="286.98" r="60.741"/>
<path style="fill:#FEBE40;" d="M175.732,301.924c-14.108-24.435-9.303-54.595,9.865-73.544c-4.911,1.346-9.733,3.331-14.35,5.996
	c-29.052,16.773-39.006,53.922-22.233,82.973s53.922,39.006,82.973,22.233c4.617-2.665,8.746-5.849,12.368-9.429
	C218.36,337.278,189.839,326.359,175.732,301.924z"/>
<g>
	<path style="fill:#5C515E;" d="M201.616,409.305c-67.45,0-122.325-54.875-122.325-122.324c0-67.452,54.875-122.327,122.325-122.327
		c67.451,0,122.326,54.876,122.326,122.327C323.943,354.431,269.067,409.305,201.616,409.305z M201.616,180.638
		c-58.637,0-106.34,47.706-106.34,106.343s47.704,106.34,106.34,106.34c58.637,0,106.342-47.703,106.342-106.34
		C307.958,228.343,260.253,180.638,201.616,180.638z"/>
	<path style="fill:#5C515E;" d="M212.321,275.675c4.274,4.274,4.641,11.182,1.481,17.212l49.483-65.513
		c1.572-2.082-0.581-4.235-2.663-2.663l-65.513,49.483C201.138,271.033,208.047,271.401,212.321,275.675z"/>
</g>
<path style="fill:#FD6874;" d="M185.742,286.849c0-3.751,1.543-7.177,4.086-9.824l-54.649,8.236c-2.016,0.304-2.016,2.872,0,3.176
	l54.649,8.236C187.285,294.026,185.742,290.6,185.742,286.849z"/>
<circle style="fill:#716B72;" cx="201.82" cy="286.9" r="16.87"/>
<path style="fill:#5C515E;" d="M201.819,286.898c-3.12-5.405-2.896-11.811,0.007-16.857c-2.87-0.004-5.779,0.709-8.443,2.247
	c-8.069,4.659-10.833,14.976-6.175,23.046c4.659,8.069,14.976,10.834,23.045,6.175c2.664-1.538,4.736-3.701,6.167-6.188
	C210.599,295.312,204.939,292.302,201.819,286.898z"/>
<g>
	<path style="fill:#FEBE40;" d="M345.332,79.915c0-20.08,6.244-38.698,16.888-54.032c-7.126,1.919-13.86,4.791-20.048,8.488
		c-0.746,0.446-1.681,0.42-2.39-0.083L321.578,21.38c-0.867-0.615-2.051-0.515-2.803,0.237l-17.239,17.239
		c-0.754,0.754-0.852,1.944-0.231,2.811l13.004,18.155c0.507,0.708,0.537,1.645,0.092,2.393c-3.842,6.471-6.796,13.531-8.69,21.013
		c-0.213,0.841-0.892,1.483-1.747,1.629l-22.122,3.765c-1.048,0.178-1.814,1.086-1.814,2.15c0,8.772,0,16.327,0,25.099
		c0,1.063,0.767,1.971,1.814,2.149l22.122,3.765c0.856,0.146,1.534,0.788,1.747,1.629c1.894,7.483,4.848,14.542,8.69,21.013
		c0.444,0.749,0.415,1.685-0.092,2.393l-13.004,18.155c-0.621,0.868-0.524,2.057,0.231,2.812l17.239,17.239
		c0.752,0.752,1.936,0.852,2.803,0.237l18.203-12.908c0.709-0.503,1.644-0.529,2.39-0.083c6.481,3.872,13.555,6.85,21.057,8.764
		c0.843,0.215,1.485,0.898,1.627,1.757l3.64,22.025c0.174,1.053,1.084,1.825,2.151,1.825h24.38c1.063,0,1.971-0.767,2.15-1.815
		l3.742-21.988c0.146-0.856,0.789-1.535,1.631-1.748c7.026-1.772,13.672-4.489,19.817-7.988
		C378.498,164.758,345.332,126.213,345.332,79.915z"/>
	<circle style="fill:#FEBE40;" cx="382.88" cy="103.32" r="49.2"/>
</g>
<path style="fill:#F9AA2B;" d="M333.675,103.322c0,25.853,19.942,47.033,45.281,49.034c-20.564-17.401-33.624-43.392-33.624-72.441
	c0-2.993,0.155-5.948,0.427-8.87C338.239,79.686,333.675,90.967,333.675,103.322z"/>
<circle style="fill:#FED652;" cx="382.88" cy="103.32" r="16.641"/>
<g>
</g>
<g>
</g>
<g>
</g>
<g>
</g>
<g>
</g>
<g>
</g>
<g>
</g>
<g>
</g>
<g>
</g>
<g>
</g>
<g>
</g>
<g>
</g>
<g>
</g>
<g>
</g>
<g>
</g>
</svg>
