<?xml version="1.0" encoding="iso-8859-1"?>
<!-- Generator: Adobe Illustrator 19.0.0, SVG Export Plug-In . SVG Version: 6.00 Build 0)  -->
<svg version="1.1" id="Capa_1" xmlns="http://www.w3.org/2000/svg" xmlns:xlink="http://www.w3.org/1999/xlink" x="0px" y="0px"
	 viewBox="0 0 512.005 512.005" style="enable-background:new 0 0 512.005 512.005;" xml:space="preserve">
<circle style="fill:#37AEE2;" cx="256.002" cy="259.928" r="252.077"/>
<path style="fill:#E8E6E9;" d="M334.242,59.739c-3.933-2.312-14.632-10.469-16.885-20.326c-1.468-6.429-5.238-11.821-10.614-15.186
	C255.127-8.08,196.183-8.104,144.526,24.328c-5.326,3.343-9.028,8.658-10.424,14.966c-2.195,9.908-12.952,18.118-16.911,20.445
	c-4.011,2.338-5.377,7.483-3.049,11.504c2.332,4.03,7.49,5.404,11.518,3.073c0.841-0.487,20.642-12.141,24.903-31.376
	c0.414-1.869,1.453-3.407,2.928-4.333c10.314-6.476,37.856-21.442,72.225-21.749c34.271,0.306,61.778,15.208,72.081,21.659
	c1.551,0.97,2.66,2.622,3.123,4.651c4.363,19.098,24.017,30.666,24.851,31.149c1.328,0.768,2.776,1.134,4.206,1.134
	c2.899,0,5.719-1.503,7.286-4.19C339.605,67.249,338.247,62.092,334.242,59.739z"/>
<path style="fill:#D3D0D4;" d="M175.164,14.962c0-2.423,0.851-4.645,2.265-6.392c-14.273,4.98-25.574,11.156-32.903,15.757
	c-5.325,3.343-9.028,8.658-10.424,14.966c-2.195,9.908-12.952,18.118-16.911,20.445c-4.011,2.338-5.377,7.483-3.049,11.504
	c2.328,4.023,7.483,5.408,11.518,3.073c0.841-0.487,20.642-12.141,24.903-31.376c0.414-1.869,1.453-3.407,2.928-4.333
	c5.42-3.403,15.601-9.148,29.027-13.881C178.272,23.505,175.164,19.6,175.164,14.962z"/>
<path style="fill:#309CD8;" d="M69.31,429.297C115.425,480.099,181.989,512,256.004,512s140.579-31.901,186.694-82.702
	L69.31,429.297L69.31,429.297z"/>
<path style="fill:#2C8DCE;" d="M246.395,429.297H69.31c43.509,47.929,105.223,79.021,174.221,82.384
	C190.728,508.594,193.083,429.297,246.395,429.297z"/>
<path style="fill:#E8E6E9;" d="M206.584,132.262l-15.809-41.996c-1.64-4.357,0.562-9.219,4.919-10.86
	c4.355-1.639,9.218,0.562,10.859,4.919l15.809,41.996c1.64,4.357-0.562,9.219-4.919,10.86
	C213.103,138.812,208.232,136.637,206.584,132.262z"/>
<circle style="fill:#7E777F;" cx="194.261" cy="76.672" r="19.091"/>
<path style="fill:#5C515E;" d="M194.259,76.67c-3.531-6.116-3.277-13.366,0.009-19.077c-3.248-0.005-6.539,0.802-9.554,2.543
	c-9.131,5.272-12.26,16.948-6.988,26.079s16.949,12.259,26.08,6.988c3.015-1.741,5.359-4.188,6.979-7.003
	C204.195,86.191,197.79,82.786,194.259,76.67z"/>
<g>
	<path style="fill:#E8E6E9;" d="M73.849,68.513l-5.737-9.938c-2.328-4.033-0.946-9.188,3.085-11.515
		c4.031-2.327,9.186-0.947,11.515,3.085l5.737,9.938c2.328,4.033,0.946,9.188-3.085,11.515
		C81.349,73.915,76.187,72.563,73.849,68.513z"/>
	<path style="fill:#E8E6E9;" d="M370.275,72.729c-1.43,0-2.879-0.364-4.207-1.131c-4.031-2.327-5.413-7.482-3.085-11.515
		l5.737-9.938c2.327-4.033,7.481-5.413,11.515-3.085c4.031,2.327,5.413,7.482,3.085,11.515l-5.737,9.938
		C376.022,71.218,373.188,72.729,370.275,72.729z"/>
	<path style="fill:#E8E6E9;" d="M363.447,482.174L345.3,450.743c-9.01,7.678-18.765,14.506-29.139,20.361l16.615,28.778
		c0.033,0.057,0.072,0.107,0.105,0.163c11.191-3.58,22.049-7.906,32.499-12.947C364.996,485.41,364.358,483.751,363.447,482.174z"/>
</g>
<path style="fill:#D3D0D4;" d="M331.296,461.568c-4.878,3.413-9.928,6.597-15.134,9.535l16.615,28.778
	c0.033,0.057,0.072,0.107,0.105,0.163c5.786-1.851,11.48-3.905,17.078-6.15L331.296,461.568z"/>
<path style="fill:#E8E6E9;" d="M101.368,458.995c9.325,7.254,19.169,13.873,29.474,19.781l4.429-7.672
	c-10.374-5.855-20.129-12.682-29.139-20.362L101.368,458.995z"/>
<path style="fill:#D3D0D4;" d="M119.753,461.293c-4.705-3.309-9.251-6.828-13.62-10.551l-4.765,8.253
	c4.512,3.51,9.148,6.868,13.897,10.072L119.753,461.293z"/>
<path style="fill:#E8E6E9;" d="M334.414,161.076l17.863-30.939l-28.019-16.177l-17.538,30.375
	C316.464,149.111,325.724,154.724,334.414,161.076z"/>
<path style="fill:#D3D0D4;" d="M338.353,122.097l-14.095-8.138l-17.538,30.375c4.887,2.396,9.653,5.003,14.286,7.808
	L338.353,122.097z"/>
<path style="fill:#E8E6E9;" d="M144.711,144.334l-17.537-30.375l-28.02,16.177l17.864,30.94
	C125.708,154.724,134.968,149.111,144.711,144.334z"/>
<path style="fill:#D3D0D4;" d="M112.79,122.263l-13.636,7.873l17.864,30.94c4.242-3.1,8.621-6.021,13.125-8.758L112.79,122.263z"/>
<path style="fill:#FD6874;" d="M225.716,494.827c-101.8,0-184.62-82.82-184.62-184.62s82.82-184.621,184.62-184.621
	s184.621,82.821,184.621,184.621S327.516,494.827,225.716,494.827z"/>
<path style="fill:#DD4C5B;" d="M316.16,449.309c-101.8,0-184.62-82.82-184.62-184.62c0-53.698,23.051-102.108,59.769-135.875
	c-85.413,16.167-150.212,91.35-150.212,181.393c0,101.8,82.82,184.62,184.62,184.62c48.102,0,91.962-18.499,124.854-48.746
	C339.417,448.191,327.918,449.309,316.16,449.309z"/>
<path style="fill:#FD6874;" d="M77.82,58.417c-29.137,16.053-38.761,53.41-22.129,82.219l3.377,5.849
	c1.625,2.814,5.223,3.778,8.037,2.153l92.611-53.469c2.541-1.467,3.412-4.716,1.945-7.257l-4.205-7.283
	C141.347,52.726,105.911,42.94,77.82,58.417z"/>
<path style="fill:#DD4C5B;" d="M96.648,124.79l-3.377-5.849c-14.156-24.52-15.508-51.628-4.159-65.291
	c-3.849,1.174-7.633,2.752-11.292,4.767c-29.137,16.053-38.761,53.41-22.129,82.219l3.377,5.849
	c1.625,2.814,5.223,3.778,8.037,2.153l35.708-20.616C101.033,129.052,98.273,127.604,96.648,124.79z"/>
<path style="fill:#FD6874;" d="M373.612,58.417c29.137,16.053,38.761,53.41,22.129,82.219l-3.377,5.849
	c-1.625,2.814-5.223,3.778-8.037,2.153L291.716,95.17c-2.541-1.467-3.412-4.716-1.945-7.257l4.205-7.283
	C310.085,52.726,345.521,42.94,373.612,58.417z"/>
<g>
	<path style="fill:#DD4C5B;" d="M324.891,108.19l4.205-7.283c14.189-24.577,37.419-38.523,55.438-34.687
		c-3.261-2.95-6.898-5.586-10.921-7.802c-28.091-15.476-63.527-5.69-79.636,22.213l-4.205,7.283
		c-1.467,2.541-0.596,5.79,1.945,7.257l33.541,19.365C323.586,113.571,323.423,110.731,324.891,108.19z"/>
	<path style="fill:#DD4C5B;" d="M161.662,87.912c-3.093-4.783-6.325-13.195-16.133-21.911l-96.834,55.907
		c2.581,13.251,8.432,20.714,10.374,24.577c1.625,2.814,5.223,3.778,8.037,2.153l92.611-53.469
		C162.258,93.704,163.129,90.454,161.662,87.912z"/>
</g>
<path style="fill:#CE4155;" d="M59.069,146.486c1.63,2.823,5.231,3.773,8.037,2.153l35.707-20.616
	c-1.78,1.027-4.54-0.421-6.165-3.234c-1.968-3.714-7.456-11.535-11.429-23.968l-36.524,21.088c0.001,0.005,0.002,0.009,0.003,0.014
	C51.279,135.165,57.24,142.841,59.069,146.486z"/>
<path style="fill:#DD4C5B;" d="M289.769,87.912c3.093-4.783,6.325-13.195,16.133-21.911l96.834,55.907
	c-1.253,6.431-3.553,12.763-6.997,18.727l-3.377,5.849c-1.625,2.814-5.223,3.778-8.037,2.153l-92.611-53.469
	C289.173,93.704,288.302,90.454,289.769,87.912z"/>
<path style="fill:#CE4155;" d="M291.715,95.171l33.541,19.365c-1.668-0.964-1.832-3.804-0.365-6.345l4.205-7.283
	c3.256-5.64,6.992-10.712,11.028-15.146l-34.221-19.758l-0.001,0.001c-8.688,7.72-11.702,14.58-16.131,21.91
	C288.278,90.496,289.211,93.725,291.715,95.171z"/>
<path style="fill:#DD4C5B;" d="M225.708,461.651c-84.335,0-152.947-68.612-152.947-152.947c0-84.336,68.612-152.949,152.947-152.949
	c84.336,0,152.949,68.613,152.949,152.949C378.656,393.039,310.044,461.651,225.708,461.651z"/>
<path style="fill:#CE4155;" d="M131.54,264.689c0-33.582,9.016-65.096,24.752-92.254c-49.54,25.34-83.532,76.908-83.532,136.269
	c0,84.335,68.612,152.947,152.947,152.947c22.962,0,44.753-5.096,64.317-14.2C200.558,434.716,131.54,357.617,131.54,264.689z"/>
<path style="fill:#E8E6E9;" d="M225.708,188.108c-66.495,0-120.594,54.1-120.594,120.596c0,66.495,54.098,120.594,120.594,120.594
	c66.497,0,120.595-54.098,120.595-120.594C346.302,242.207,292.205,188.108,225.708,188.108z"/>
<path style="fill:#D3D0D4;" d="M131.54,264.689c0-12.066,1.173-23.862,3.395-35.288c-18.558,21.216-29.821,48.967-29.821,79.303
	c0,66.495,54.098,120.594,120.594,120.594c2.197,0,4.38-0.063,6.548-0.18C172.519,398.511,131.54,336.296,131.54,264.689z"/>
<g>
	<path style="fill:#5C515E;" d="M225.709,186.678c-4.655,0-8.43,3.774-8.43,8.43v9.168c0,4.656,3.774,8.43,8.43,8.43
		c4.655,0,8.43-3.774,8.43-8.43v-9.168C234.138,190.451,230.364,186.678,225.709,186.678z"/>
	<path style="fill:#5C515E;" d="M225.709,403.771c-4.655,0-8.43,3.774-8.43,8.43v9.168c0,4.656,3.774,8.43,8.43,8.43
		c4.655,0,8.43-3.774,8.43-8.43v-9.168C234.138,407.544,230.364,403.771,225.709,403.771z"/>
	<path style="fill:#5C515E;" d="M286.487,202.965c-4.03-2.328-9.187-0.947-11.515,3.085l-4.584,7.94
		c-2.327,4.033-0.946,9.188,3.086,11.515c4.005,2.312,9.172,0.972,11.515-3.085l4.584-7.94
		C291.902,210.447,290.52,205.292,286.487,202.965z"/>
	<path style="fill:#5C515E;" d="M177.943,390.972c-4.031-2.326-9.187-0.948-11.515,3.085l-4.584,7.939
		c-2.328,4.031-0.947,9.187,3.085,11.515c4.028,2.323,9.184,0.952,11.515-3.085l4.584-7.939
		C183.356,398.456,181.974,393.3,177.943,390.972z"/>
	<path style="fill:#5C515E;" d="M319.955,263.558l7.94-4.584c4.032-2.327,5.414-7.482,3.086-11.515
		c-2.329-4.031-7.485-5.414-11.515-3.085l-7.94,4.584c-4.032,2.327-5.414,7.482-3.086,11.515
		C310.78,264.524,315.943,265.874,319.955,263.558z"/>
	<path style="fill:#5C515E;" d="M131.46,352.919l-7.939,4.584c-4.031,2.327-5.413,7.482-3.085,11.515
		c1.561,2.704,4.395,4.216,7.308,4.216c1.43,0,2.88-0.364,4.207-1.131l7.939-4.584c4.031-2.327,5.413-7.482,3.085-11.515
		C140.647,351.972,135.492,350.593,131.46,352.919z"/>
	<path style="fill:#5C515E;" d="M338.839,299.809h-9.168c-4.655,0-8.43,3.774-8.43,8.43c0,4.656,3.774,8.43,8.43,8.43h9.168
		c4.655,0,8.43-3.774,8.43-8.43C347.268,303.583,343.494,299.809,338.839,299.809z"/>
	<path style="fill:#5C515E;" d="M130.177,308.239c0-4.656-3.774-8.43-8.43-8.43h-9.168c-4.655,0-8.43,3.774-8.43,8.43
		c0,4.656,3.774,8.43,8.43,8.43h9.168C126.403,316.669,130.177,312.895,130.177,308.239z"/>
	<path style="fill:#5C515E;" d="M327.897,357.503l-7.94-4.584c-4.031-2.327-9.187-0.948-11.515,3.085
		c-2.327,4.033-0.946,9.188,3.086,11.515l7.94,4.584c4.014,2.317,9.177,0.965,11.515-3.085
		C333.31,364.986,331.929,359.829,327.897,357.503z"/>
	<path style="fill:#5C515E;" d="M139.89,248.957l-7.939-4.584c-4.034-2.328-9.188-0.947-11.515,3.085
		c-2.328,4.033-0.946,9.188,3.085,11.515l7.939,4.584c4.027,2.323,9.185,0.952,11.515-3.085
		C145.303,256.439,143.921,251.284,139.89,248.957z"/>
	<path style="fill:#5C515E;" d="M284.989,394.057c-2.328-4.031-7.483-5.412-11.515-3.085c-4.032,2.328-5.413,7.483-3.085,11.515
		l4.584,7.939c2.335,4.044,7.494,5.406,11.515,3.085c4.032-2.328,5.413-7.483,3.085-11.515L284.989,394.057z"/>
	<path style="fill:#5C515E;" d="M176.443,206.05c-2.327-4.031-7.483-5.412-11.515-3.085c-4.032,2.328-5.413,7.483-3.085,11.515
		l4.584,7.94c2.335,4.044,7.494,5.406,11.515,3.085c4.032-2.328,5.413-7.483,3.085-11.515L176.443,206.05z"/>
</g>
<circle style="fill:#FED652;" cx="225.712" cy="308.699" r="64.062"/>
<path style="fill:#FEBE40;" d="M196.463,325.587c-15.081-26.122-9.664-58.439,11.24-78.368c-4.796,1.409-9.506,3.389-14.027,6
	c-30.643,17.692-41.141,56.874-23.45,87.517s56.874,41.141,87.517,23.45c4.521-2.61,8.591-5.699,12.21-9.148
	C242.239,363.177,211.544,351.709,196.463,325.587z"/>
<g>
	<path style="fill:#5C515E;" d="M225.708,437.727c-71.144,0-129.023-57.88-129.023-129.023c0-71.145,57.88-129.026,129.023-129.026
		c71.144,0,129.025,57.881,129.025,129.026C354.732,379.847,296.852,437.727,225.708,437.727z M225.708,196.539
		c-61.847,0-112.163,50.317-112.163,112.166c0,61.847,50.316,112.162,112.163,112.162c61.848,0,112.165-50.315,112.165-112.162
		C337.873,246.856,287.555,196.539,225.708,196.539z"/>
	<path style="fill:#5C515E;" d="M236.998,296.78c4.508,4.508,4.895,11.794,1.562,18.154l52.193-69.101
		c1.658-2.195-0.613-4.467-2.809-2.809l-69.101,52.193C225.204,291.883,232.49,292.271,236.998,296.78z"/>
</g>
<path style="fill:#FD6874;" d="M208.964,308.566c0-3.956,1.628-7.569,4.31-10.361l-57.642,8.686c-2.126,0.32-2.126,3.029,0,3.35
	l57.642,8.686C210.591,316.135,208.964,312.522,208.964,308.566z"/>
<circle style="fill:#716B72;" cx="225.922" cy="308.619" r="17.795"/>
<path style="fill:#5C515E;" d="M225.921,308.617c-3.291-5.701-3.055-12.457,0.008-17.781c-3.027-0.004-6.095,0.748-8.905,2.37
	c-8.511,4.914-11.426,15.796-6.513,24.308c4.914,8.511,15.796,11.427,24.308,6.513c2.81-1.622,4.995-3.903,6.505-6.527
	C235.183,317.491,229.213,314.318,225.921,308.617z"/>
<g>
</g>
<g>
</g>
<g>
</g>
<g>
</g>
<g>
</g>
<g>
</g>
<g>
</g>
<g>
</g>
<g>
</g>
<g>
</g>
<g>
</g>
<g>
</g>
<g>
</g>
<g>
</g>
<g>
</g>
</svg>
