<?xml version="1.0" encoding="iso-8859-1"?>
<!-- Generator: Adobe Illustrator 19.0.0, SVG Export Plug-In . SVG Version: 6.00 Build 0)  -->
<svg version="1.1" id="Capa_1" xmlns="http://www.w3.org/2000/svg" xmlns:xlink="http://www.w3.org/1999/xlink" x="0px" y="0px"
	 viewBox="0 0 512 512" style="enable-background:new 0 0 512 512;" xml:space="preserve">
<circle style="fill:#F9AA2B;" cx="256" cy="256" r="256"/>
<path style="fill:#E8E6E9;" d="M271.473,150.495c-4.747,0-8.596-3.848-8.596-8.596v-38.194c0-3.792-3.085-6.877-6.877-6.877
	s-6.877,3.085-6.877,6.877v38.194c0,4.748-3.849,8.596-8.596,8.596s-8.596-3.848-8.596-8.596v-38.194
	c0-13.271,10.797-24.069,24.069-24.069s24.069,10.798,24.069,24.069v38.194C280.069,146.647,276.221,150.495,271.473,150.495z"/>
<path style="fill:#FFF6D4;" d="M392.31,39.287c-34.279,38.943-83.867,61.69-136.309,61.69c-52.443,0-102.031-22.746-136.31-61.69
	c-4.889,3.082-9.665,6.325-14.323,9.721c37.563,43.624,92.494,69.161,150.633,69.161s113.069-25.537,150.632-69.16
	C401.975,45.613,397.199,42.369,392.31,39.287z"/>
<path style="fill:#A87B69;" d="M86.673,447.982C131.802,487.816,191.073,512,256,512s124.198-24.184,169.327-64.018
	c22.976-33.208,36.447-73.494,36.447-116.932c0-113.646-92.128-205.774-205.774-205.774S50.226,217.404,50.226,331.05
	C50.226,374.488,63.697,414.774,86.673,447.982z"/>
<g>
	<path style="fill:#8D6451;" d="M343.791,471.457c-103.427,0-187.572-84.145-187.572-187.572
		c0-66.402,34.685-124.853,86.886-158.195c-107.637,6.658-192.879,96.047-192.879,205.36c0,43.438,13.471,83.724,36.447,116.932
		C131.802,487.816,191.073,512,256,512c59.135,0,113.573-20.068,156.913-53.743C391.512,466.77,368.189,471.457,343.791,471.457z"/>
	<path style="fill:#8D6451;" d="M255.999,487.015c-85.999,0-155.964-69.965-155.964-155.964c0-86,69.965-155.967,155.964-155.967
		c86,0,155.965,69.967,155.965,155.967C411.965,417.05,341.999,487.015,255.999,487.015z"/>
</g>
<path style="fill:#825A4A;" d="M156.219,283.885c0-31.768,7.955-61.705,21.953-87.955c-46.667,26.985-78.136,77.446-78.136,135.121
	c0,85.999,69.965,155.964,155.964,155.964c25.014,0,48.666-5.929,69.64-16.44C230.698,461.416,156.219,381.188,156.219,283.885z"/>
<path style="fill:#E8E6E9;" d="M255.999,208.077c-67.807,0-122.972,55.166-122.972,122.974c0,67.807,55.165,122.972,122.972,122.972
	c67.808,0,122.973-55.165,122.973-122.972C378.972,263.243,323.807,208.077,255.999,208.077z"/>
<path style="fill:#D3D0D4;" d="M133.028,331.051c0,67.807,55.165,122.972,122.972,122.972c2.784,0,5.544-0.102,8.282-0.285
	c-63.787-29.976-108.062-94.834-108.062-169.853c0-9.283,0.698-18.403,2.009-27.327
	C142.428,277.246,133.028,303.069,133.028,331.051z"/>
<g>
	<path style="fill:#5C515E;" d="M256,206.619c-4.747,0-8.596,3.848-8.596,8.596v9.349c0,4.748,3.849,8.596,8.596,8.596
		c4.747,0,8.596-3.848,8.596-8.596v-9.349C264.596,210.467,260.747,206.619,256,206.619z"/>
	<path style="fill:#5C515E;" d="M256,427.993c-4.747,0-8.596,3.848-8.596,8.596v9.349c0,4.748,3.849,8.596,8.596,8.596
		c4.747,0,8.596-3.848,8.596-8.596v-9.349C264.596,431.841,260.747,427.993,256,427.993z"/>
	<path style="fill:#5C515E;" d="M317.978,223.227c-4.109-2.374-9.369-0.966-11.742,3.146l-4.674,8.097
		c-2.373,4.112-0.964,9.37,3.147,11.742c4.084,2.358,9.354,0.991,11.742-3.146l4.674-8.097
		C323.499,230.857,322.09,225.6,317.978,223.227z"/>
	<path style="fill:#5C515E;" d="M207.293,414.942c-4.111-2.372-9.369-0.967-11.743,3.146l-4.675,8.096
		c-2.374,4.111-0.965,9.368,3.146,11.742c4.107,2.369,9.366,0.971,11.743-3.146l4.675-8.096
		C212.812,422.573,211.404,417.316,207.293,414.942z"/>
	<path style="fill:#5C515E;" d="M352.106,285.014l8.097-4.674c4.112-2.373,5.521-7.63,3.147-11.742
		c-2.375-4.111-7.632-5.521-11.742-3.146l-8.097,4.674c-4.112,2.373-5.521,7.63-3.147,11.742
		C342.75,286,348.015,287.377,352.106,285.014z"/>
	<path style="fill:#5C515E;" d="M159.893,376.139l-8.096,4.674c-4.111,2.373-5.52,7.63-3.146,11.742
		c2.381,4.124,7.642,5.513,11.742,3.146l8.096-4.674c4.111-2.373,5.52-7.63,3.146-11.742
		C169.262,375.173,164.004,373.767,159.893,376.139z"/>
	<path style="fill:#5C515E;" d="M371.361,321.981h-9.349c-4.747,0-8.596,3.848-8.596,8.596s3.849,8.596,8.596,8.596h9.349
		c4.747,0,8.596-3.848,8.596-8.596S376.109,321.981,371.361,321.981z"/>
	<path style="fill:#5C515E;" d="M158.584,330.577c0-4.748-3.849-8.596-8.596-8.596h-9.349c-4.747,0-8.596,3.848-8.596,8.596
		s3.849,8.596,8.596,8.596h9.349C154.736,339.173,158.584,335.325,158.584,330.577z"/>
	<path style="fill:#5C515E;" d="M360.203,380.813l-8.097-4.674c-4.111-2.373-9.369-0.967-11.742,3.146
		c-2.373,4.112-0.964,9.37,3.147,11.742l8.097,4.674c4.093,2.362,9.358,0.984,11.742-3.146
		C365.724,388.443,364.315,383.186,360.203,380.813z"/>
	<path style="fill:#5C515E;" d="M168.489,270.126l-8.096-4.674c-4.114-2.374-9.37-0.966-11.742,3.146
		c-2.374,4.112-0.965,9.37,3.146,11.742l8.096,4.674c4.107,2.369,9.366,0.971,11.742-3.146
		C174.009,277.756,172.6,272.499,168.489,270.126z"/>
	<path style="fill:#5C515E;" d="M316.451,418.088c-2.374-4.111-7.631-5.519-11.742-3.146c-4.112,2.374-5.52,7.631-3.146,11.742
		l4.674,8.096c2.381,4.124,7.642,5.513,11.742,3.146c4.112-2.374,5.52-7.631,3.146-11.742L316.451,418.088z"/>
	<path style="fill:#5C515E;" d="M205.764,226.373c-2.373-4.111-7.631-5.519-11.742-3.146c-4.112,2.374-5.52,7.631-3.146,11.742
		l4.675,8.097c2.381,4.124,7.642,5.513,11.742,3.146c4.112-2.374,5.52-7.631,3.146-11.742L205.764,226.373z"/>
</g>
<circle style="fill:#FED652;" cx="256" cy="331.05" r="65.33"/>
<path style="fill:#FEBE40;" d="M225.364,348.738c-15.462-26.782-9.792-59.948,11.814-80.243c-4.732,1.428-9.378,3.399-13.844,5.977
	c-31.247,18.04-41.953,57.996-23.912,89.243c18.04,31.247,57.996,41.953,89.243,23.912c4.465-2.578,8.496-5.616,12.098-9
	C272.385,387.191,240.826,375.519,225.364,348.738z"/>
<g>
	<path style="fill:#5C515E;" d="M255.999,462.619c-72.547,0-131.568-59.021-131.568-131.567c0-72.548,59.021-131.57,131.568-131.57
		s131.569,59.022,131.569,131.57C387.569,403.598,328.547,462.619,255.999,462.619z M255.999,216.673
		c-63.067,0-114.375,51.31-114.375,114.378c0,63.067,51.308,114.375,114.375,114.375c63.068,0,114.377-51.308,114.377-114.375
		C370.376,267.984,319.067,216.673,255.999,216.673z"/>
	<path style="fill:#5C515E;" d="M267.513,318.891c4.597,4.597,4.992,12.027,1.593,18.512l53.222-70.463
		c1.691-2.239-0.625-4.555-2.864-2.864l-70.463,53.222C255.485,313.899,262.916,314.294,267.513,318.891z"/>
</g>
<path style="fill:#FD6874;" d="M238.925,330.91c0-4.034,1.66-7.719,4.395-10.566l-58.778,8.858c-2.168,0.327-2.168,3.089,0,3.416
	l58.778,8.858C240.585,338.629,238.925,334.944,238.925,330.91z"/>
<circle style="fill:#716B72;" cx="256.22" cy="330.96" r="18.14"/>
<path style="fill:#5C515E;" d="M256.217,330.963c-3.356-5.813-3.115-12.704,0.008-18.131c-3.087-0.005-6.215,0.762-9.081,2.417
	c-8.679,5.011-11.652,16.108-6.641,24.787s16.108,11.652,24.787,6.642c2.866-1.654,5.094-3.98,6.633-6.656
	C265.661,340.012,259.573,336.776,256.217,330.963z"/>
<path style="fill:#FFE693;" d="M284.273,105.616c0-2.916,1.223-5.541,3.178-7.407c-10.298,1.817-20.813,2.768-31.45,2.768
	c-52.443,0-102.031-22.746-136.31-61.69c-4.889,3.082-9.665,6.325-14.323,9.721c37.563,43.624,92.494,69.161,150.633,69.161
	c11.718,0,23.301-1.055,34.642-3.069C286.907,113.57,284.273,109.903,284.273,105.616z"/>
<path style="fill:#E8E6E9;" d="M232.337,99.408c-0.253,1.397-0.406,2.828-0.406,4.297v12.998c5.684,0.695,11.42,1.137,17.192,1.337
	v-14.335c0-1.015,0.227-1.977,0.623-2.845C243.895,100.658,238.088,100.165,232.337,99.408z"/>
<g>
</g>
<g>
</g>
<g>
</g>
<g>
</g>
<g>
</g>
<g>
</g>
<g>
</g>
<g>
</g>
<g>
</g>
<g>
</g>
<g>
</g>
<g>
</g>
<g>
</g>
<g>
</g>
<g>
</g>
</svg>
