<?xml version="1.0" encoding="iso-8859-1"?>
<!-- Generator: Adobe Illustrator 19.0.0, SVG Export Plug-In . SVG Version: 6.00 Build 0)  -->
<svg version="1.1" id="Capa_1" xmlns="http://www.w3.org/2000/svg" xmlns:xlink="http://www.w3.org/1999/xlink" x="0px" y="0px"
	 viewBox="0 0 512 512" style="enable-background:new 0 0 512 512;" xml:space="preserve">
<circle style="fill:#37AEE2;" cx="256" cy="256" r="256"/>
<path style="fill:#E8E6E9;" d="M437.465,233.138h-19.57c2.189,14.91,2.239,30.283,0.136,45.284h19.433
	c3.656,0,6.619-2.963,6.619-6.618v-32.047C444.083,236.101,441.12,233.138,437.465,233.138z"/>
<path style="fill:#D3D0D4;" d="M437.465,255.78h-17.89c0.023,7.518-0.478,15.015-1.543,22.642h19.433
	c3.656,0,6.619-2.963,6.619-6.618v-22.642C444.083,252.816,441.12,255.78,437.465,255.78z"/>
<path style="fill:#E8E6E9;" d="M389.318,161.763c-16.403-22.017-25.647-48.537-25.647-75.992V55.396
	c0-3.426-2.777-6.203-6.203-6.203h-21.125c-3.426,0-6.204,2.778-6.204,6.204v57.697c-20.62-9.835-43.681-15.35-68.009-15.35
	c-23.669,0-46.137,5.224-66.328,14.564V55.396c0-3.426-2.777-6.203-6.203-6.203h-21.125c-3.426,0-6.203,2.777-6.203,6.203
	c-1.858,17.227,8.309,60.498-25.32,103.732c-20.884,26.849-33.336,60.563-33.336,97.134c0,36.259,12.241,69.71,32.804,96.446
	c16.634,21.627,25.852,48.038,25.852,75.322v28.574c0,3.426,2.777,6.203,6.203,6.203h21.125c3.426,0,6.203-2.777,6.203-6.203v-56.39
	c20.191,9.341,42.659,14.564,66.328,14.564c24.327,0,47.389-5.515,68.009-15.35v57.175c0,3.426,2.777,6.203,6.203,6.203h21.126
	c3.426,0,6.203-2.777,6.203-6.203c1.575-14.989-7.714-61.067,25.647-105.844C430.514,295.466,431.662,218.598,389.318,161.763z
	 M137.145,256.262c0-68.918,56.068-124.986,124.984-124.986c68.918,0,124.985,56.069,124.985,124.986
	c0,68.916-56.068,124.984-124.985,124.984C193.213,381.246,137.145,325.178,137.145,256.262z"/>
<path style="fill:#D3D0D4;" d="M341.388,393.541c-75.696,43.703-172.834,17.675-216.537-58.021
	c-43.704-75.697-17.676-172.836,58.02-216.539c75.697-43.704,172.836-17.674,216.539,58.022S417.085,349.838,341.388,393.541z"/>
<path style="fill:#BDB9BE;" d="M184.611,301.018c-37.78-65.437-23.442-146.891,30.037-196.004
	C117.715,135.46,74.36,248.067,124.851,335.52c43.703,75.696,140.841,101.724,216.537,58.021
	c10.26-5.923,19.599-12.836,27.984-20.536C300.1,394.763,222.39,366.454,184.611,301.018z"/>
<path style="fill:#E8E6E9;" d="M262.13,381.246c-68.916,0-124.984-56.068-124.984-124.984c0-68.917,56.068-124.986,124.984-124.986
	c68.917,0,124.985,56.069,124.985,124.986C387.115,325.178,331.047,381.246,262.13,381.246z"/>
<path style="fill:#D3D0D4;" d="M184.611,301.018c-23.987-41.546-26.957-89.545-12.248-131.628
	c-21.787,22.506-35.218,53.148-35.218,86.872c0,68.916,56.068,124.984,124.984,124.984c10.525,0,20.749-1.314,30.521-3.776
	C248.785,369.205,208.628,342.617,184.611,301.018z"/>
<g>
	<path style="fill:#A87B69;" d="M320.866,425.274H205.07c-5.119,0-9.269,4.15-9.269,9.269v68.188c0,0.759,0.101,1.492,0.273,2.198
		c19.222,4.611,39.281,7.07,59.916,7.07h0.019c25.778-0.001,50.659-3.828,74.125-10.917v-66.54
		C330.134,429.424,325.985,425.274,320.866,425.274z"/>
	<path style="fill:#A87B69;" d="M195.801,9.269v68.188c0,5.119,4.15,9.269,9.269,9.269h115.796c5.119,0,9.269-4.15,9.269-9.269
		v-66.54C306.666,3.827,281.781,0,256,0c-20.639,0-40.701,2.459-59.926,7.071C195.902,7.776,195.801,8.51,195.801,9.269z"/>
</g>
<g>
	<path style="fill:#8D6451;" d="M263.196,0.111C260.805,0.044,258.408,0,256,0c-20.639,0-40.701,2.459-59.926,7.071
		c-0.172,0.706-0.273,1.439-0.273,2.198v68.188c0,5.119,4.15,9.269,9.269,9.269h58.126V0.111z"/>
	<path style="fill:#8D6451;" d="M263.196,425.274H205.07c-5.119,0-9.269,4.15-9.269,9.269v68.188c0,0.759,0.101,1.492,0.273,2.198
		c19.222,4.611,39.281,7.07,59.916,7.07h0.019c2.405,0,4.798-0.044,7.187-0.111V425.274z"/>
	<path style="fill:#8D6451;" d="M227.697,86.725h71V3.564C284.81,1.233,270.55,0,256,0c-9.568,0-19.008,0.542-28.303,1.565V86.725z"
		/>
</g>
<path style="fill:#825A4A;" d="M248.777,0.104c-7.103,0.202-14.132,0.697-21.08,1.461v85.16h35.5V0.113
	c-0.083-0.002-0.167-0.006-0.25-0.008c-0.899-0.024-1.799-0.044-2.699-0.06C258.833,0.022,257.419,0,256,0
	c-2.335,0-4.662,0.035-6.981,0.098C248.938,0.101,248.857,0.102,248.777,0.104z"/>
<g>
	<path style="fill:#5C515E;" d="M262.13,130.532c-4.418,0-7.999,3.581-7.999,7.999v9.503c0,4.418,3.581,7.999,7.999,7.999
		s7.999-3.581,7.999-7.999v-9.503C270.129,134.113,266.548,130.532,262.13,130.532z"/>
	<path style="fill:#5C515E;" d="M262.13,355.527c-4.418,0-7.999,3.581-7.999,7.999v9.503c0,4.418,3.581,7.999,7.999,7.999
		s7.999-3.581,7.999-7.999v-9.503C270.129,359.108,266.548,355.527,262.13,355.527z"/>
	<path style="fill:#5C515E;" d="M324.754,147.313c-3.826-2.208-8.718-0.899-10.926,2.928l-4.751,8.229
		c-2.209,3.825-0.898,8.717,2.928,10.926c3.809,2.198,8.708,0.915,10.926-2.928l4.751-8.229
		C329.891,154.414,328.58,149.522,324.754,147.313z"/>
	<path style="fill:#5C515E;" d="M212.256,342.164c-3.826-2.208-8.718-0.899-10.926,2.928l-4.751,8.23
		c-2.209,3.825-0.898,8.717,2.928,10.926c3.809,2.198,8.709,0.915,10.926-2.928l4.751-8.23
		C217.393,349.265,216.082,344.373,212.256,342.164z"/>
	<path style="fill:#5C515E;" d="M359.44,208.833l8.229-4.75c3.826-2.208,5.137-7.1,2.929-10.926
		c-2.209-3.826-7.101-5.137-10.926-2.928l-8.229,4.75c-3.826,2.208-5.137,7.1-2.929,10.926
		C350.733,209.75,355.633,211.031,359.44,208.833z"/>
	<path style="fill:#5C515E;" d="M164.819,302.726l-8.229,4.751c-3.826,2.209-5.137,7.101-2.928,10.926
		c2.219,3.844,7.119,5.126,10.926,2.928l8.229-4.751c3.826-2.209,5.137-7.101,2.928-10.926
		C173.537,301.827,168.643,300.518,164.819,302.726z"/>
	<path style="fill:#5C515E;" d="M379.379,247.781h-9.502c-4.418,0-7.999,3.581-7.999,7.999s3.581,7.999,7.999,7.999h9.502
		c4.418,0,7.999-3.581,7.999-7.999S383.796,247.781,379.379,247.781z"/>
	<path style="fill:#5C515E;" d="M162.382,255.78c0-4.418-3.581-7.999-7.999-7.999h-9.502c-4.418,0-7.999,3.581-7.999,7.999
		s3.581,7.999,7.999,7.999h9.502C158.801,263.779,162.382,260.198,162.382,255.78z"/>
	<path style="fill:#5C515E;" d="M367.67,307.477l-8.229-4.751c-3.825-2.209-8.718-0.899-10.926,2.928
		c-2.209,3.825-0.898,8.717,2.928,10.926l8.229,4.751c3.809,2.198,8.708,0.915,10.926-2.928
		C372.806,314.578,371.496,309.686,367.67,307.477z"/>
	<path style="fill:#5C515E;" d="M172.818,194.979l-8.229-4.75c-3.826-2.209-8.718-0.899-10.926,2.928s-0.897,8.718,2.929,10.926
		l8.229,4.75c1.26,0.727,2.634,1.073,3.992,1.073c2.764,0,5.453-1.434,6.935-4C177.955,202.079,176.643,197.187,172.818,194.979z"/>
	<path style="fill:#5C515E;" d="M322.93,345.091c-2.209-3.826-7.1-5.136-10.926-2.928c-3.825,2.209-5.137,7.101-2.928,10.926
		l4.751,8.23c2.215,3.837,7.111,5.13,10.926,2.928c3.825-2.209,5.137-7.101,2.928-10.926L322.93,345.091z"/>
	<path style="fill:#5C515E;" d="M210.433,150.24c-2.209-3.826-7.103-5.135-10.926-2.928c-3.826,2.209-5.137,7.101-2.928,10.926
		l4.751,8.229c2.219,3.844,7.119,5.126,10.926,2.928c3.826-2.209,5.137-7.101,2.928-10.926L210.433,150.24z"/>
</g>
<circle style="fill:#FED652;" cx="262.13" cy="256.26" r="66.4"/>
<path style="fill:#FEBE40;" d="M230.607,274.46c-15.755-27.289-9.922-61.099,12.175-81.711c-4.734,1.446-9.382,3.428-13.852,6.008
	c-31.758,18.336-42.639,58.945-24.304,90.703c18.336,31.758,58.945,42.639,90.703,24.304c4.47-2.581,8.51-5.616,12.129-8.992
	C278.559,313.603,246.362,301.749,230.607,274.46z"/>
<g>
	<path style="fill:#5C515E;" d="M262.129,389.245c-73.327,0-132.983-59.655-132.983-132.983s59.656-132.986,132.983-132.986
		c73.328,0,132.984,59.657,132.984,132.986C395.113,329.59,335.457,389.245,262.129,389.245z M262.129,139.274
		c-64.506,0-116.985,52.48-116.985,116.988c0,64.506,52.479,116.985,116.985,116.985c64.507,0,116.987-52.479,116.987-116.985
		C379.116,191.755,326.636,139.274,262.129,139.274z"/>
	<path style="fill:#5C515E;" d="M274.466,243.83c4.619,4.619,5.017,12.086,1.601,18.603l53.483-70.808
		c1.699-2.25-0.628-4.577-2.878-2.878l-70.808,53.483C262.38,238.813,269.847,239.21,274.466,243.83z"/>
</g>
<path style="fill:#FD6874;" d="M245.739,255.908c0-4.054,1.668-7.757,4.417-10.618l-59.066,8.901c-2.179,0.328-2.179,3.104,0,3.433
	l59.066,8.901C247.407,263.665,245.739,259.962,245.739,255.908z"/>
<circle style="fill:#716B72;" cx="263.12" cy="255.96" r="18.234"/>
<path style="fill:#5C515E;" d="M263.115,255.96c-3.373-5.842-3.13-12.766,0.008-18.22c-3.102-0.005-6.245,0.766-9.125,2.429
	c-8.721,5.035-11.709,16.187-6.674,24.908c5.035,8.721,16.187,11.709,24.908,6.674c2.88-1.663,5.119-4,6.666-6.688
	C272.606,265.054,266.488,261.802,263.115,255.96z"/>
<path style="fill:#8D6451;" d="M298.696,425.274h-71v85.161C236.992,511.458,246.432,512,256,512c14.55,0,28.81-1.233,42.696-3.564
	L298.696,425.274L298.696,425.274z"/>
<path style="fill:#825A4A;" d="M227.697,510.435c6.946,0.764,13.972,1.259,21.072,1.461c0.089,0.002,0.179,0.004,0.268,0.006
	c2.311,0.063,4.628,0.098,6.954,0.098h0.018c0.003,0,0.007,0,0.01,0c1.412,0,2.818-0.021,4.224-0.045
	c0.906-0.017,1.811-0.036,2.715-0.061c0.079-0.002,0.158-0.005,0.238-0.007v-86.613h-35.5L227.697,510.435L227.697,510.435z"/>
<g>
</g>
<g>
</g>
<g>
</g>
<g>
</g>
<g>
</g>
<g>
</g>
<g>
</g>
<g>
</g>
<g>
</g>
<g>
</g>
<g>
</g>
<g>
</g>
<g>
</g>
<g>
</g>
<g>
</g>
</svg>
