<?xml version="1.0" encoding="iso-8859-1"?>
<!-- Generator: Adobe Illustrator 19.0.0, SVG Export Plug-In . SVG Version: 6.00 Build 0)  -->
<svg version="1.1" id="Capa_1" xmlns="http://www.w3.org/2000/svg" xmlns:xlink="http://www.w3.org/1999/xlink" x="0px" y="0px"
	 viewBox="0 0 512 512" style="enable-background:new 0 0 512 512;" xml:space="preserve">
<circle style="fill:#FED652;" cx="256" cy="256" r="256"/>
<path style="fill:#FD6874;" d="M439.752,122.06C390.67,72.978,325.412,45.947,256,45.947S121.331,72.978,72.249,122.06
	c-38.253,38.253-63.086,86.338-72.19,138.551C2.52,399.867,116.157,512,256,512s253.479-112.133,255.942-251.388
	C502.838,208.398,478.005,160.313,439.752,122.06z"/>
<g>
	<path style="fill:#DD4C5B;" d="M343.164,485.839c-60.217,0-116.829-23.45-159.409-66.029
		c-42.579-42.58-66.029-99.193-66.029-159.41c0-60.216,23.45-116.829,66.029-159.409c25.167-25.166,55.238-43.645,88.056-54.554
		c-5.244-0.313-10.513-0.489-15.811-0.489c-69.412,0-134.669,27.031-183.751,76.113c-38.253,38.253-63.086,86.338-72.19,138.551
		C2.52,399.867,116.157,512,256,512c42.015,0,81.658-10.133,116.637-28.071C362.941,485.187,353.103,485.839,343.164,485.839z"/>
	<path style="fill:#DD4C5B;" d="M417.78,144.031C374.567,100.818,317.112,77.02,256,77.02c-61.113,0-118.566,23.798-161.78,67.011
		c-43.213,43.213-67.012,100.667-67.012,161.78c0,37.956,9.197,74.493,26.51,107.089C100.554,473.194,173.741,512,256,512
		s155.446-38.806,202.281-99.1c17.313-32.596,26.51-69.133,26.51-107.089C484.792,244.698,460.993,187.244,417.78,144.031z"/>
</g>
<path style="fill:#CE4155;" d="M372.637,483.929c-9.696,1.258-19.534,1.911-29.473,1.911c-60.217,0-116.829-23.45-159.409-66.029
	c-42.579-42.58-66.029-99.193-66.029-159.41c0-60.216,23.45-116.829,66.029-159.409c6.482-6.482,13.294-12.511,20.39-18.091
	c-41.301,9.525-79.211,30.418-109.925,61.131c-43.213,43.213-67.012,100.667-67.012,161.78c0,37.932,9.186,74.445,26.478,107.026
	c0.756,0.973,1.509,1.949,2.278,2.911C103.15,474.742,175.487,512,256,512C296.403,512,336.248,502.59,372.637,483.929z"/>
<path style="fill:#E8E6E9;" d="M255.999,108.092c-52.812,0-102.464,20.566-139.808,57.91c-37.344,37.345-57.91,86.996-57.91,139.808
	c0,52.813,20.566,102.465,57.91,139.809c37.345,37.344,86.996,57.91,139.808,57.91c52.813,0,102.465-20.566,139.809-57.91
	c37.344-37.345,57.91-86.996,57.91-139.809c0-52.812-20.566-102.464-57.91-139.808S308.813,108.092,255.999,108.092z"/>
<path style="fill:#D3D0D4;" d="M183.754,419.81c-42.579-42.58-66.029-99.193-66.029-159.41c0-45.112,13.163-88.2,37.668-124.882
	c-14.12,8.375-27.29,18.571-39.202,30.484c-37.344,37.345-57.91,86.996-57.91,139.808c0,52.813,20.566,102.465,57.91,139.809
	c37.345,37.344,86.996,57.91,139.808,57.91c28.805,0,56.663-6.131,82.103-17.752C279.781,484.501,225.139,461.194,183.754,419.81z"
	/>
<g>
	<path style="fill:#5C515E;" d="M256,99.716c-4.626,0-8.376,3.75-8.376,8.376v12.852c0,4.626,3.75,8.376,8.376,8.376
		s8.376-3.75,8.376-8.376v-12.852C264.376,103.466,260.626,99.716,256,99.716z"/>
	<path style="fill:#5C515E;" d="M256,482.301c-4.626,0-8.376,3.75-8.376,8.376v12.853c0,4.626,3.75,8.376,8.376,8.376
		s8.376-3.75,8.376-8.376v-12.853C264.376,486.051,260.626,482.301,256,482.301z"/>
	<path style="fill:#5C515E;" d="M164.394,130.393c-2.313-4.007-7.436-5.377-11.442-3.066c-4.006,2.312-5.379,7.435-3.066,11.442
		l6.426,11.131c2.32,4.018,7.446,5.372,11.442,3.066c4.006-2.312,5.379-7.435,3.066-11.442L164.394,130.393z"/>
	<path style="fill:#5C515E;" d="M355.687,461.722c-2.313-4.007-7.436-5.378-11.442-3.066c-4.006,2.313-5.379,7.436-3.066,11.442
		l6.426,11.131c1.551,2.687,4.367,4.189,7.261,4.189c1.421,0,2.861-0.362,4.18-1.123c4.006-2.313,5.379-7.436,3.066-11.442
		L355.687,461.722z"/>
	<path style="fill:#5C515E;" d="M100.089,206.124l-11.131-6.427c-4.006-2.311-9.128-0.941-11.442,3.066
		c-2.313,4.006-0.941,9.128,3.065,11.442l11.131,6.427c4.002,2.309,9.126,0.946,11.442-3.066
		C105.468,213.56,104.095,208.438,100.089,206.124z"/>
	<path style="fill:#5C515E;" d="M431.418,397.417l-11.13-6.427c-4.006-2.31-9.128-0.941-11.442,3.066
		c-2.313,4.006-0.941,9.128,3.065,11.442l11.13,6.427c4.002,2.309,9.126,0.946,11.442-3.066
		C436.796,404.853,435.424,399.731,431.418,397.417z"/>
	<path style="fill:#5C515E;" d="M79.509,305.811c0-4.626-3.75-8.376-8.376-8.376H58.281c-4.626,0-8.376,3.75-8.376,8.376
		s3.75,8.376,8.376,8.376h12.852C75.759,314.187,79.509,310.437,79.509,305.811z"/>
	<path style="fill:#5C515E;" d="M453.719,297.435h-12.852c-4.626,0-8.376,3.75-8.376,8.376s3.75,8.376,8.376,8.376h12.852
		c4.626,0,8.376-3.75,8.376-8.376S458.345,297.435,453.719,297.435z"/>
	<path style="fill:#5C515E;" d="M91.712,390.99l-11.131,6.427c-4.006,2.313-5.378,7.436-3.065,11.442
		c2.32,4.019,7.447,5.371,11.442,3.066l11.131-6.427c4.006-2.313,5.378-7.436,3.065-11.442S95.718,388.678,91.712,390.99z"/>
	<path style="fill:#5C515E;" d="M420.288,220.632l11.13-6.427c4.006-2.313,5.378-7.436,3.065-11.442
		c-2.314-4.006-7.437-5.378-11.442-3.066l-11.13,6.427c-4.006,2.313-5.378,7.436-3.065,11.442
		C411.171,221.592,416.3,222.933,420.288,220.632z"/>
	<path style="fill:#5C515E;" d="M167.755,458.657c-4.008-2.313-9.13-0.941-11.442,3.066l-6.426,11.131
		c-2.313,4.007-0.94,9.13,3.066,11.442c1.32,0.761,2.759,1.123,4.18,1.123c2.894,0,5.71-1.502,7.261-4.189l6.426-11.131
		C173.133,466.091,171.76,460.969,167.755,458.657z"/>
	<path style="fill:#5C515E;" d="M359.048,127.327c-4.006-2.312-9.129-0.941-11.442,3.066l-6.426,11.131
		c-2.313,4.006-0.941,9.128,3.066,11.442c3.989,2.302,9.118,0.959,11.442-3.066l6.426-11.131
		C364.426,134.763,363.054,129.641,359.048,127.327z"/>
	<path style="fill:#5C515E;" d="M462.095,305.81c0-55.049-21.437-106.804-60.364-145.731C362.805,121.153,311.05,99.716,256,99.716
		s-106.804,21.437-145.731,60.363s-60.364,90.681-60.364,145.73c0,55.05,21.438,106.806,60.364,145.734
		c38.927,38.925,90.682,60.362,145.731,60.362s106.804-21.437,145.732-60.364C440.658,412.616,462.095,360.86,462.095,305.81z
		 M256,495.154c-50.574,0-98.123-19.694-133.886-55.457c-35.762-35.762-55.457-83.312-55.457-133.887
		c0-50.574,19.695-98.123,55.457-133.885S205.425,116.468,256,116.468c50.576,0,98.124,19.694,133.887,55.457
		c35.762,35.762,55.457,83.311,55.457,133.885c0,50.576-19.695,98.125-55.457,133.887C354.123,475.46,306.574,495.154,256,495.154z"
		/>
</g>
<circle style="fill:#D3D0D4;" cx="255.71" cy="306.46" r="63.66"/>
<path style="fill:#BDB9BE;" d="M235.464,318.15c-14.057-24.348-10.187-54.112,7.493-74.053c-6.54,1.338-12.98,3.716-19.079,7.237
	c-30.447,17.578-40.879,56.51-23.3,86.957c17.578,30.447,56.51,40.878,86.957,23.3c6.098-3.521,11.379-7.909,15.807-12.904
	C277.233,354.027,249.521,342.498,235.464,318.15z"/>
<path style="fill:#5C515E;" d="M271.858,290.004c6.321,6.321,6.865,16.539,2.191,25.456l73.185-96.893
	c2.325-3.079-0.86-6.264-3.938-3.938l-96.893,73.185C255.32,283.14,265.537,283.683,271.858,290.004z"/>
<path style="fill:#FD6874;" d="M232.549,306.532c0-5.547,2.282-10.614,6.044-14.529l-80.825,12.181
	c-2.981,0.449-2.981,4.248,0,4.697l80.825,12.181C234.831,317.146,232.549,312.079,232.549,306.532z"/>
<circle style="fill:#716B72;" cx="256.33" cy="306.6" r="24.951"/>
<g>
	<path style="fill:#BDB9BE;" d="M256.001,174.562c-4.626,0-8.376-3.75-8.376-8.376v-12.657c0-4.626,3.75-8.376,8.376-8.376
		s8.376,3.75,8.376,8.376v12.657C264.377,170.812,260.627,174.562,256.001,174.562z"/>
	<path style="fill:#BDB9BE;" d="M256.001,467.585c-4.626,0-8.376-3.75-8.376-8.376v-12.657c0-4.626,3.75-8.376,8.376-8.376
		s8.376,3.75,8.376,8.376v12.657C264.377,463.836,260.627,467.585,256.001,467.585z"/>
	<path style="fill:#BDB9BE;" d="M115.818,314.745h-12.657c-4.626,0-8.376-3.75-8.376-8.376s3.75-8.376,8.376-8.376h12.657
		c4.626,0,8.376,3.75,8.376,8.376S120.444,314.745,115.818,314.745z"/>
	<path style="fill:#BDB9BE;" d="M408.841,314.745h-12.657c-4.626,0-8.376-3.75-8.376-8.376s3.75-8.376,8.376-8.376h12.657
		c4.626,0,8.376,3.75,8.376,8.376S413.467,314.745,408.841,314.745z"/>
	<path style="fill:#BDB9BE;" d="M255.999,314.835c-4.477,0-8.376-3.611-8.376-8.376c0-5.309,4.897-9.238,10.018-8.209
		c3.709,0.709,6.734,4.068,6.734,8.209C264.375,311.075,260.628,314.835,255.999,314.835z"/>
</g>
<g>
</g>
<g>
</g>
<g>
</g>
<g>
</g>
<g>
</g>
<g>
</g>
<g>
</g>
<g>
</g>
<g>
</g>
<g>
</g>
<g>
</g>
<g>
</g>
<g>
</g>
<g>
</g>
<g>
</g>
</svg>
