<?xml version="1.0" encoding="iso-8859-1"?>
<!-- Generator: Adobe Illustrator 19.0.0, SVG Export Plug-In . SVG Version: 6.00 Build 0)  -->
<svg version="1.1" id="Capa_1" xmlns="http://www.w3.org/2000/svg" xmlns:xlink="http://www.w3.org/1999/xlink" x="0px" y="0px"
	 viewBox="0 0 512 512" style="enable-background:new 0 0 512 512;" xml:space="preserve">
<circle style="fill:#FED652;" cx="256" cy="256" r="256"/>
<g>
	<path style="fill:#FFF6D4;" d="M407.203,462.576c-0.168-0.209-0.347-0.412-0.542-0.606l-10.084-10.084
		c-2.708-2.708-7.027-2.844-9.941-0.36c-35.296,30.087-81.031,48.272-130.936,48.272c-106.969,0-194.78-83.532-201.667-188.789
		H77.63c2.221,0,3.513-2.513,2.219-4.319l-37.448-52.278c-1.089-1.52-3.349-1.52-4.437,0L0.515,306.689
		c-1.294,1.806-0.003,4.319,2.219,4.319h22.501c2.253,39.829,14.587,77.754,35.762,110.825C107.949,476.999,177.88,512,256,512
		C312.564,512,364.833,493.641,407.203,462.576z"/>
	<path style="fill:#FFF6D4;" d="M509.266,311.008h-23.103c3.76-66.529-20.477-129.82-67.225-176.568
		c-43.603-43.602-101.576-67.615-163.239-67.615c-62.302,0-121.008,24.56-164.71,69.101c-2.843,2.898-2.829,7.543,0.041,10.413
		l10.109,10.109c2.807,2.806,7.377,2.814,10.152-0.023c36.712-37.531,87.882-60.862,144.408-60.862
		c115.705,0,209.356,97.92,201.667,215.446h-22.995c-2.222,0-3.512,2.513-2.219,4.319l37.447,52.279c1.089,1.52,3.349,1.52,4.438,0
		l37.447-52.279C512.779,313.52,511.487,311.008,509.266,311.008z"/>
</g>
<path style="fill:#F9AA2B;" d="M330.27,424.35c-70.932,40.953-161.957,16.562-202.91-54.37
	c-40.953-70.933-16.564-161.959,54.368-202.912c70.933-40.953,161.959-16.562,202.912,54.371S401.203,383.397,330.27,424.35z"/>
<path style="fill:#ED971B;" d="M191.446,332.981c-34.568-59.874-22.579-134.064,24.658-180.372
	c-11.77,3.279-23.317,8.075-34.376,14.46c-70.932,40.953-95.322,131.979-54.368,202.912c40.953,70.932,131.978,95.322,202.91,54.37
	c11.059-6.385,20.986-13.987,29.711-22.54C296.259,419.565,226.014,392.854,191.446,332.981z"/>
<path style="fill:#E8E6E9;" d="M255.999,178.589c-64.579,0-117.119,52.54-117.119,117.121c0,64.579,52.539,117.119,117.119,117.119
	s117.12-52.539,117.12-117.119S320.58,178.589,255.999,178.589z"/>
<path style="fill:#D3D0D4;" d="M191.446,332.98c-23.286-40.333-25.443-87.16-9.933-127.587
	c-26.021,21.499-42.632,54.004-42.632,90.316c0,64.579,52.539,117.119,117.119,117.119c14.445,0,28.284-2.635,41.071-7.439
	C254.268,398.632,214.75,373.344,191.446,332.98z"/>
<g>
	<path style="fill:#5C515E;" d="M256,177.201c-4.521,0-8.187,3.665-8.187,8.187v8.904c0,4.522,3.665,8.187,8.187,8.187
		c4.521,0,8.187-3.665,8.187-8.187v-8.904C264.188,180.866,260.521,177.201,256,177.201z"/>
	<path style="fill:#5C515E;" d="M256,388.037c-4.521,0-8.187,3.665-8.187,8.187v8.904c0,4.522,3.665,8.187,8.187,8.187
		c4.521,0,8.187-3.665,8.187-8.187v-8.904C264.188,391.702,260.521,388.037,256,388.037z"/>
	<path style="fill:#5C515E;" d="M315.029,193.018c-3.914-2.261-8.923-0.92-11.183,2.997l-4.452,7.711
		c-3.165,5.483,0.846,12.281,7.083,12.281c2.829,0,5.582-1.468,7.098-4.095l4.452-7.711
		C320.286,200.285,318.944,195.278,315.029,193.018z"/>
	<path style="fill:#5C515E;" d="M209.611,375.608c-3.915-2.259-8.923-0.921-11.184,2.997l-4.452,7.71
		c-3.161,5.475,0.834,12.281,7.083,12.281c2.829,0,5.581-1.468,7.097-4.095l4.452-7.71
		C214.868,382.876,213.526,377.869,209.611,375.608z"/>
	<path style="fill:#5C515E;" d="M347.533,251.865l7.711-4.452c3.916-2.26,5.258-7.267,2.998-11.183
		c-2.262-3.915-7.269-5.259-11.183-2.997l-7.711,4.452c-3.916,2.26-5.258,7.267-2.998,11.183
		C338.621,252.803,343.635,254.115,347.533,251.865z"/>
	<path style="fill:#5C515E;" d="M164.467,338.651l-7.711,4.452c-3.915,2.26-5.258,7.267-2.997,11.183
		c2.267,3.928,7.278,5.25,11.183,2.997l7.711-4.452c3.915-2.26,5.258-7.267,2.997-11.183
		C173.39,337.732,168.383,336.393,164.467,338.651z"/>
	<path style="fill:#5C515E;" d="M365.87,287.072h-8.904c-4.521,0-8.187,3.665-8.187,8.187s3.665,8.187,8.187,8.187h8.904
		c4.521,0,8.187-3.665,8.187-8.187S370.392,287.072,365.87,287.072z"/>
	<path style="fill:#5C515E;" d="M163.221,295.259c0-4.522-3.665-8.187-8.187-8.187h-8.904c-4.521,0-8.187,3.665-8.187,8.187
		s3.665,8.187,8.187,8.187h8.904C159.556,303.446,163.221,299.781,163.221,295.259z"/>
	<path style="fill:#5C515E;" d="M355.243,343.103l-7.711-4.452c-3.915-2.26-8.923-0.921-11.183,2.997
		c-2.26,3.917-0.918,8.924,2.998,11.183l7.711,4.452c3.899,2.25,8.913,0.937,11.183-2.997
		C360.501,350.37,359.159,345.363,355.243,343.103z"/>
	<path style="fill:#5C515E;" d="M172.654,237.685l-7.711-4.452c-3.918-2.261-8.924-0.92-11.183,2.997
		c-2.261,3.917-0.919,8.924,2.997,11.183c6.801,3.626,8.273,5.55,11.797,5.55c2.829,0,5.582-1.468,7.097-4.095
		C177.912,244.952,176.57,239.945,172.654,237.685z"/>
	<path style="fill:#5C515E;" d="M313.573,378.604c-2.261-3.915-7.267-5.256-11.183-2.997c-3.916,2.261-5.258,7.268-2.997,11.183
		l4.452,7.71c2.267,3.928,7.278,5.25,11.183,2.997c3.916-2.261,5.258-7.268,2.997-11.183L313.573,378.604z"/>
	<path style="fill:#5C515E;" d="M208.155,196.015c-2.26-3.915-7.268-5.256-11.183-2.997c-3.916,2.261-5.258,7.268-2.997,11.183
		l4.452,7.711c2.267,3.928,7.278,5.25,11.183,2.997c3.916-2.261,5.258-7.268,2.997-11.183L208.155,196.015z"/>
</g>
<circle style="fill:#FED652;" cx="256" cy="295.71" r="62.22"/>
<path style="fill:#FEBE40;" d="M223.779,295.709c0-29.19,20.105-53.675,47.221-60.389c-4.805-1.19-9.827-1.832-15-1.832
	c-34.363,0-62.221,27.857-62.221,62.221S221.637,357.93,256,357.93c5.173,0,10.195-0.642,15-1.832
	C243.885,349.384,223.779,324.899,223.779,295.709z"/>
<g>
	<path style="fill:#5C515E;" d="M255.999,421.015c-69.094,0-125.305-56.212-125.305-125.305
		c0-69.095,56.212-125.308,125.305-125.308c69.094,0,125.307,56.213,125.307,125.308
		C381.306,364.804,325.094,421.015,255.999,421.015z M255.999,186.777c-60.065,0-108.931,48.868-108.931,108.934
		c0,60.065,48.866,108.931,108.931,108.931c60.066,0,108.933-48.866,108.933-108.931
		C364.932,235.645,316.065,186.777,255.999,186.777z"/>
	<path style="fill:#5C515E;" d="M266.965,284.129c4.378,4.378,4.754,11.455,1.517,17.631l50.689-67.109
		c1.611-2.132-0.596-4.338-2.728-2.728l-67.109,50.689C255.51,279.375,262.586,279.751,266.965,284.129z"/>
</g>
<path style="fill:#FD6874;" d="M239.738,295.576c0-3.842,1.581-7.352,4.186-10.063l-55.98,8.436c-2.065,0.311-2.065,2.942,0,3.253
	l55.98,8.436C241.319,302.928,239.738,299.418,239.738,295.576z"/>
<circle style="fill:#716B72;" cx="256.21" cy="295.63" r="17.281"/>
<path style="fill:#5C515E;" d="M256.207,295.626c0-6.393,3.48-11.961,8.641-14.951c-2.544-1.474-5.489-2.331-8.641-2.331
	c-9.544,0-17.281,7.737-17.281,17.282s7.737,17.282,17.281,17.282c3.151,0,6.097-0.857,8.641-2.331
	C259.688,307.587,256.207,302.019,256.207,295.626z"/>
<g>
	<path style="fill:#FFE693;" d="M312.398,94.102c0-8.598,6.836-15.582,15.368-15.857c-22.957-7.514-47.211-11.421-72.067-11.421
		c-62.295,0-121.009,24.558-164.71,69.101c-2.843,2.898-2.829,7.543,0.041,10.413l10.109,10.109
		c2.807,2.806,7.377,2.814,10.152-0.023c36.712-37.531,87.882-60.862,144.408-60.862c21.266,0,41.772,3.311,61.039,9.428
		C314.054,102.146,312.398,98.321,312.398,94.102z"/>
	<path style="fill:#FFE693;" d="M152.944,471.659c-55.823-33.101-94.439-92.288-98.912-160.651H77.63
		c2.221,0,3.513-2.513,2.219-4.319l-37.448-52.278c-1.089-1.52-3.349-1.52-4.437,0L0.515,306.689
		c-1.294,1.806-0.003,4.319,2.219,4.319h22.501c2.253,39.829,14.587,77.754,35.762,110.825
		c21.681,25.474,48.271,46.635,78.296,62.049C140.775,477.397,146.216,472.427,152.944,471.659z"/>
</g>
<g>
</g>
<g>
</g>
<g>
</g>
<g>
</g>
<g>
</g>
<g>
</g>
<g>
</g>
<g>
</g>
<g>
</g>
<g>
</g>
<g>
</g>
<g>
</g>
<g>
</g>
<g>
</g>
<g>
</g>
</svg>
