<?xml version="1.0" encoding="iso-8859-1"?>
<!-- Generator: Adobe Illustrator 19.0.0, SVG Export Plug-In . SVG Version: 6.00 Build 0)  -->
<svg version="1.1" id="Capa_1" xmlns="http://www.w3.org/2000/svg" xmlns:xlink="http://www.w3.org/1999/xlink" x="0px" y="0px"
	 viewBox="0 0 512.001 512.001" style="enable-background:new 0 0 512.001 512.001;" xml:space="preserve">
<circle style="fill:#37AEE2;" cx="255.999" cy="265.87" r="246.13"/>
<path style="fill:#5C515E;" d="M151.873,161.081v-15.776c0-6.432,8.118-6.928,8.118-6.928l-0.007-0.015
	c54.077-2.146,117.493-24.693,141.576-34.003h0.001c6.175-2.397,13.147-1.5,19.118,3.149l35.392,27.556
	c0,0,4.467,3.998,4.467,11.517v14.499c8.817-0.907,17.049,1.859,22.813,6.865v-40.801C383.351,57.037,326.313,0,256.206,0
	c-70.11,0-127.147,57.037-127.147,127.145v40.801C134.835,162.929,143.073,160.175,151.873,161.081z"/>
<path style="fill:#4A404E;" d="M185.059,136.094v-8.949c0-60.49,42.463-111.243,99.146-124.032C275.193,1.08,265.823,0,256.206,0
	c-70.11,0-127.147,57.037-127.147,127.145v40.801c5.776-5.016,14.013-7.771,22.813-6.865v-15.776c0-6.432,8.118-6.928,8.118-6.928
	l-0.007-0.015C168.184,138.037,176.599,137.24,185.059,136.094z"/>
<g>
	<path style="fill:#E5BE8E;" d="M360.027,159.343v48.756c17.228,1.773,31.478-10.056,31.478-24.378
		C391.505,169.333,377.169,157.578,360.027,159.343z"/>
	<path style="fill:#E5BE8E;" d="M152.922,158.925v49.592c-17.524,1.804-32.017-10.229-32.017-24.796
		C120.905,169.087,135.487,157.13,152.922,158.925z"/>
</g>
<g>
	<path style="fill:#DDB07F;" d="M360.027,186.432v21.667c17.232,1.773,31.478-10.059,31.478-24.378
		c0-3.889-1.041-7.565-2.886-10.833C383.556,181.856,372.418,187.707,360.027,186.432z"/>
	<path style="fill:#DDB07F;" d="M123.731,172.887c-1.811,3.277-2.826,6.952-2.826,10.833c0,14.634,14.582,26.59,32.017,24.796
		V186.85C140.302,188.149,128.862,182.17,123.731,172.887z"/>
</g>
<path style="fill:#E5BE8E;" d="M261.151,312.502c-17.586,0.821-34.287-2.827-49.104-9.903c0,9.415,0,19.918,0,29.321l0.194-0.131
	l17.682,39.992l6.986,16.434c23.892,0,14.702,0,38.593,0l24.559-56.426c0-8.05,0-19.524,0-28.809
	C288.139,308.51,274.997,311.856,261.151,312.502z"/>
<path style="fill:#DDB07F;" d="M242.327,311.662c-10.683-1.461-20.863-4.566-30.28-9.063c0,9.415,0,19.918,0,29.321l0.194-0.131
	l17.683,39.992l6.985,16.434c2.039,0,3.821,0,5.418,0V311.662z"/>
<path style="fill:#E8E6E9;" d="M75.053,432.699c44.972,48.752,109.385,79.3,180.941,79.301h0.01
	c71.61-0.001,136.066-30.594,181.042-79.409c-2.491-12.512-4.461-22.403-5.287-26.555c-4.687-23.475-21.934-33.02-31.436-36.564
	c-0.115-0.034-6.506-1.919-6.391-1.886l0,0c-0.737-0.217-64-18.878-66.656-19.662c-3.547,9.941-12.392,34.727-18.294,51.265
	c-1.946,5.452-8.606,7.475-13.256,4.027L275.5,388.214v-0.001h-38.593v0.001l-0.16-0.122l0.051,0.122l-20.226,15.002
	c-4.65,3.448-11.31,1.425-13.256-4.027l-18.294-51.265l0.151-0.102c-3.905,1.152-66.162,19.516-67.002,19.764l0,0
	c-2.243,0.662-6.674,1.969-6.391,1.886c-9.502,3.545-26.749,13.09-31.436,36.564C80.346,406.036,78.089,417.406,75.053,432.699z"/>
<g>
	<path style="fill:#D3D0D4;" d="M109.149,396.036c3.501-17.536,14.011-27.297,23.066-32.592c-8.039,2.371-13.791,4.068-14.042,4.142
		l0,0c-2.243,0.662-6.674,1.969-6.391,1.886c-9.502,3.545-26.749,13.09-31.436,36.564c0,0-2.257,11.37-5.293,26.663
		c8.304,9.003,17.276,17.379,26.829,25.063C105.345,430.13,109.149,396.036,109.149,396.036z"/>
	<path style="fill:#D3D0D4;" d="M143.759,438.569c-5.563,0-10.073,4.51-10.073,10.073v30.861
		c6.532,3.748,13.255,7.198,20.146,10.346v-41.207C153.832,443.079,149.322,438.569,143.759,438.569z"/>
	<path style="fill:#D3D0D4;" d="M300.06,329.519l-24.559,58.696l20.226,15.001c4.65,3.449,11.31,1.426,13.256-4.027l18.294-51.264
		L300.06,329.519z"/>
	<path style="fill:#D3D0D4;" d="M212.046,329.519l24.753,58.696l-20.226,15.001c-4.65,3.449-11.31,1.426-13.256-4.027
		l-18.294-51.264L212.046,329.519z"/>
</g>
<polygon style="fill:#DD4C5B;" points="275.501,388.214 236.908,388.214 231.685,392.068 241.365,420.658 270.971,420.658 
	280.699,392.069 "/>
<path style="fill:#CE4155;" d="M264.275,416.511l-6.846-20.22c-0.852-2.516,0.021-5.294,2.158-6.87l0.019-0.014
	c1.05-0.774,2.32-1.192,3.624-1.192h-26.322l-5.224,3.854l9.68,28.59h28.693C267.44,420.658,265.114,418.99,264.275,416.511z"/>
<path style="fill:#FD6874;" d="M229.824,510.614c8.6,0.909,17.329,1.386,26.171,1.386h0.01c8.981,0,17.845-0.495,26.577-1.433
	l-11.609-89.909h-14.766h-14.768L229.824,510.614z"/>
<path style="fill:#DD4C5B;" d="M256.205,420.658h-14.766l-11.615,89.956c8.6,0.909,17.329,1.386,26.171,1.386h0.01
	c0.765,0,1.523-0.024,2.286-0.031l8.624-91.31L256.205,420.658L256.205,420.658z"/>
<path style="fill:#F1D4A5;" d="M356.071,133.722l-35.392-27.556c-5.971-4.649-12.943-5.547-19.119-3.149l0,0
	c-24.083,9.31-87.499,31.857-141.577,34.003l0.007,0.015c0,0-8.118,0.496-8.118,6.928v65.524
	c0,59.788,49.555,108.488,109.278,105.701c55.323-2.581,99.387-48.247,99.387-104.217V145.24
	C360.538,137.72,356.072,133.723,356.071,133.722z"/>
<path style="fill:#E5BE8E;" d="M185.024,210.97v-76.215c-8.448,1.144-16.852,1.939-25.04,2.264l0.007,0.015
	c0,0-8.118,0.496-8.118,6.928v65.524c0,59.788,49.555,108.488,109.278,105.701c3.938-0.184,7.818-0.593,11.63-1.202
	C223.039,306.045,185.024,262.956,185.024,210.97z"/>
<path style="fill:#FED652;" d="M500.214,387.338l-23.112-3.934c-0.904-0.154-1.621-0.833-1.846-1.722
	c-2.012-7.964-5.16-15.475-9.26-22.354c-0.472-0.791-0.441-1.782,0.095-2.531l13.686-19.107c0.656-0.916,0.553-2.173-0.244-2.97
	l-18.209-18.209c-0.794-0.794-2.045-0.9-2.961-0.25l-19.21,13.622c-0.748,0.53-1.734,0.558-2.521,0.089
	c-6.882-4.099-14.397-7.246-22.364-9.256c-0.889-0.225-1.569-0.942-1.723-1.846l-3.953-23.225c-0.188-1.107-1.148-1.917-2.271-1.917
	h-25.752c-1.127,0-2.089,0.816-2.272,1.927l-3.845,23.264c-0.15,0.907-0.828,1.628-1.719,1.856
	c-7.923,2.022-15.396,5.168-22.242,9.258c-0.788,0.471-1.775,0.443-2.524-0.088l-19.228-13.634c-0.916-0.65-2.167-0.544-2.961,0.25
	l-18.209,18.209c-0.797,0.797-0.9,2.053-0.244,2.97l13.736,19.176c0.536,0.748,0.567,1.737,0.098,2.528
	c-4.059,6.835-7.179,14.292-9.179,22.196c-0.225,0.889-0.942,1.567-1.846,1.721l-23.367,3.977c-1.107,0.189-1.917,1.148-1.917,2.27
	c0,9.265,0,17.246,0,26.511c0,1.123,0.81,2.082,1.917,2.27l23.367,3.977c0.904,0.154,1.621,0.832,1.846,1.721
	c2.001,7.904,5.121,15.361,9.179,22.196c0.469,0.791,0.438,1.78-0.098,2.528l-13.736,19.176c-0.656,0.916-0.553,2.173,0.244,2.97
	l18.209,18.209c0.794,0.794,2.045,0.9,2.961,0.25l19.228-13.634c0.749-0.531,1.736-0.558,2.524-0.088
	c6.845,4.09,14.318,7.236,22.242,9.258c0.891,0.227,1.569,0.949,1.719,1.856l3.845,23.264c0.184,1.112,1.145,1.927,2.272,1.927
	h25.752c1.123,0,2.082-0.81,2.271-1.917l3.953-23.225c0.154-0.904,0.833-1.622,1.723-1.846c7.968-2.01,15.482-5.157,22.364-9.256
	c0.788-0.469,1.773-0.441,2.521,0.089l19.21,13.622c0.916,0.65,2.167,0.544,2.961-0.25l18.209-18.209
	c0.797-0.797,0.9-2.053,0.244-2.97l-13.686-19.107c-0.536-0.749-0.567-1.74-0.095-2.531c4.1-6.879,7.248-14.39,9.26-22.354
	c0.225-0.889,0.942-1.568,1.846-1.722l23.112-3.934c1.107-0.188,1.917-1.148,1.917-2.27c0-9.265,0-17.246,0-26.511
	C502.131,388.486,501.321,387.526,500.214,387.338z"/>
<g>
	<path style="fill:#FEBE40;" d="M364.992,428.296c-20.026-34.687-16.339-76.659,5.989-107.038
		c-7.272,2.025-14.152,4.99-20.489,8.776c-0.788,0.471-1.775,0.443-2.524-0.088l-19.228-13.634c-0.916-0.65-2.167-0.544-2.96,0.25
		l-18.209,18.209c-0.797,0.797-0.9,2.053-0.244,2.97l13.736,19.176c0.536,0.748,0.567,1.737,0.098,2.528
		c-4.059,6.835-7.178,14.292-9.179,22.196c-0.225,0.889-0.942,1.567-1.845,1.721l-23.367,3.977
		c-1.107,0.189-1.917,1.148-1.917,2.271c0,9.265,0,17.246,0,26.511c0,1.123,0.81,2.082,1.917,2.27l23.367,3.977
		c0.904,0.154,1.621,0.832,1.845,1.721c2.001,7.904,5.121,15.361,9.179,22.196c0.469,0.791,0.438,1.78-0.098,2.528l-13.736,19.176
		c-0.656,0.916-0.553,2.173,0.244,2.97l18.209,18.209c0.794,0.794,2.045,0.9,2.96,0.25l19.228-13.634
		c0.749-0.531,1.736-0.558,2.524-0.088c6.845,4.09,14.318,7.236,22.242,9.258c0.891,0.227,1.569,0.949,1.719,1.856l3.845,23.264
		c0.184,1.112,1.145,1.927,2.272,1.927h25.752c1.123,0,2.082-0.81,2.271-1.917l3.953-23.226c0.154-0.904,0.833-1.622,1.723-1.846
		c7.665-1.933,14.905-4.929,21.572-8.803C407.156,472.051,380.574,455.286,364.992,428.296z"/>
	<path style="fill:#FEBE40;" d="M393.492,468.227c-36.041,0-65.363-29.321-65.363-65.363c0-36.041,29.321-65.362,65.363-65.362
		c36.042,0,65.362,29.321,65.362,65.362S429.533,468.227,393.492,468.227z"/>
</g>
<path style="fill:#F9AA2B;" d="M328.129,402.864c0,36.041,29.322,65.363,65.363,65.363c4.352,0,8.602-0.437,12.718-1.252
	c-16.698-8.27-31.223-21.367-41.218-38.679c-14.477-25.075-16.555-53.956-8.163-79.514
	C339.521,360.553,328.129,380.402,328.129,402.864z"/>
<path style="fill:#E8E6E9;" d="M393.492,355.835c-25.932,0-47.029,21.097-47.029,47.028c0,25.932,21.097,47.029,47.029,47.029
	c25.932,0,47.029-21.097,47.029-47.029C440.521,376.932,419.423,355.835,393.492,355.835z"/>
<path style="fill:#D3D0D4;" d="M379.865,447.873c-5.641-5.751-10.663-12.285-14.873-19.577
	c-8.627-14.943-12.849-31.237-13.078-47.374c-3.474,6.556-5.451,14.021-5.451,21.942
	C346.463,424.058,360.558,442.016,379.865,447.873z"/>
<path style="fill:#5C515E;" d="M393.492,409.058h-18.667c-3.421,0-6.194-2.773-6.194-6.194s2.773-6.194,6.194-6.194h12.473v-21.045
	c0-3.421,2.773-6.194,6.194-6.194c3.421,0,6.194,2.773,6.194,6.194v27.239C399.686,406.286,396.913,409.058,393.492,409.058z"/>
<g>
</g>
<g>
</g>
<g>
</g>
<g>
</g>
<g>
</g>
<g>
</g>
<g>
</g>
<g>
</g>
<g>
</g>
<g>
</g>
<g>
</g>
<g>
</g>
<g>
</g>
<g>
</g>
<g>
</g>
</svg>
