<?xml version="1.0" encoding="iso-8859-1"?>
<!-- Generator: Adobe Illustrator 19.0.0, SVG Export Plug-In . SVG Version: 6.00 Build 0)  -->
<svg version="1.1" id="Capa_1" xmlns="http://www.w3.org/2000/svg" xmlns:xlink="http://www.w3.org/1999/xlink" x="0px" y="0px"
	 viewBox="0 0 512 512" style="enable-background:new 0 0 512 512;" xml:space="preserve">
<path style="fill:#5897D1;" d="M512,256c0,32.037-5.883,62.694-16.624,90.969c-8.934,23.479-21.222,45.307-36.268,64.899
	C412.296,472.754,338.735,512,256,512S99.704,472.754,52.893,411.867c-15.047-19.592-27.335-41.42-36.268-64.899
	C5.883,318.694,0,288.037,0,256C0,114.615,114.615,0,256,0S512,114.615,512,256z"/>
<path style="fill:#9FC5E6;" d="M476.092,220.092c0,27.542-5.057,53.9-14.292,78.21c-7.681,20.185-18.245,38.952-31.181,55.795
	C390.373,406.442,327.13,440.184,256,440.184s-134.373-33.742-174.618-86.087c-12.936-16.844-23.501-35.61-31.181-55.795
	c-9.235-24.309-14.292-50.666-14.292-78.21C35.908,98.538,134.446,0,256,0S476.092,98.538,476.092,220.092z"/>
<path style="fill:#F0F0F0;" d="M491.875,99.673v250.942H20.125V99.673c0-18.359,14.89-33.249,33.249-33.249h405.243
	C476.985,66.424,491.875,81.314,491.875,99.673z"/>
<path style="fill:#484B7F;" d="M51.472,329.718V99.673c0-1.049,0.853-1.902,1.902-1.902h405.243c1.054,0,1.912,0.853,1.912,1.902
	v230.045H51.472z"/>
<rect x="20.125" y="328.161" style="fill:#D4D4D4;" width="471.751" height="22.454"/>
<path style="fill:#F0F0F0;" d="M495.376,346.969c-8.934,23.479-21.222,45.307-36.268,64.899c-3.584,0.606-7.272,0.919-11.034,0.919
	H63.927c-3.762,0-7.45-0.313-11.034-0.919c-15.047-19.592-27.335-41.42-36.268-64.899H495.376z"/>
<path style="fill:#D4D4D4;" d="M299.103,372.614h-86.212c-11.395,0-20.633-9.238-20.633-20.633v-5.018h127.478v5.018
	C319.736,363.377,310.498,372.614,299.103,372.614z"/>
<rect x="338.892" y="124.928" style="fill:#FF668C;" width="57.814" height="177.633"/>
<rect x="260.409" y="186.619" style="fill:#5897D1;" width="57.814" height="115.942"/>
<rect x="181.927" y="160.152" style="fill:#F9DF73;" width="57.814" height="142.409"/>
<rect x="103.445" y="248.623" style="fill:#EF487D;" width="57.814" height="53.941"/>
<g>
</g>
<g>
</g>
<g>
</g>
<g>
</g>
<g>
</g>
<g>
</g>
<g>
</g>
<g>
</g>
<g>
</g>
<g>
</g>
<g>
</g>
<g>
</g>
<g>
</g>
<g>
</g>
<g>
</g>
</svg>
