<?xml version="1.0" encoding="iso-8859-1"?>
<!-- Generator: Adobe Illustrator 19.0.0, SVG Export Plug-In . SVG Version: 6.00 Build 0)  -->
<svg version="1.1" id="Capa_1" xmlns="http://www.w3.org/2000/svg" xmlns:xlink="http://www.w3.org/1999/xlink" x="0px" y="0px"
	 viewBox="0 0 512 512" style="enable-background:new 0 0 512 512;" xml:space="preserve">
<path style="fill:#343A6E;" d="M512,256c0,36.968-7.837,72.119-21.943,103.852C450.226,449.494,360.417,512,256,512
	S61.774,449.494,21.943,359.852C7.837,328.119,0,292.968,0,256s7.837-72.119,21.943-103.852
	c21.901-49.298,58.922-90.384,105.179-117.384C164.968,12.664,209,0,256,0s91.032,12.664,128.878,34.764
	c46.258,27,83.278,68.086,105.179,117.384C504.163,183.881,512,219.031,512,256z"/>
<path style="fill:#F0F0F0;" d="M490.057,67.626v292.227C450.226,449.494,360.417,512,256,512S61.774,449.494,21.943,359.852V67.626
	c0-18.15,14.712-32.862,32.852-32.862h402.401C475.345,34.764,490.057,49.476,490.057,67.626z"/>
<path style="fill:#D4D4D4;" d="M490.057,67.626v46.55H21.943v-46.55c0-18.15,14.712-32.862,32.852-32.862h402.401
	C475.345,34.764,490.057,49.476,490.057,67.626z"/>
<circle style="fill:#EF487D;" cx="70.008" cy="74.47" r="23.685"/>
<circle style="fill:#F9DF73;" cx="131.657" cy="74.47" r="23.685"/>
<circle style="fill:#5897D1;" cx="193.306" cy="74.47" r="23.685"/>
<rect x="126.088" y="235.687" style="fill:#343A6E;" width="269.928" height="10.449"/>
<rect x="65.484" y="206.075" style="fill:#EF487D;" width="121.208" height="69.663"/>
<polygon style="fill:#343A6E;" points="396.016,365.949 265.404,365.949 265.404,240.911 275.853,240.911 275.853,355.5 
	396.016,355.5 "/>
<rect x="239.632" y="209.905" transform="matrix(-0.7071 -0.7071 0.7071 -0.7071 291.6483 602.6088)" style="fill:#F9DF73;" width="61.993" height="61.993"/>
<rect x="239.626" y="329.728" style="fill:#5897D1;" width="61.994" height="61.994"/>
<path style="fill:#EF487D;" d="M396.016,329.726L396.016,329.726c-17.12,0-30.999,13.878-30.999,30.999l0,0
	c0,17.12,13.878,30.999,30.999,30.999l0,0c17.12,0,30.999-13.878,30.999-30.999l0,0
	C427.015,343.605,413.136,329.726,396.016,329.726z"/>
<rect x="365.014" y="209.91" style="fill:#5897D1;" width="61.994" height="61.994"/>
<g>
</g>
<g>
</g>
<g>
</g>
<g>
</g>
<g>
</g>
<g>
</g>
<g>
</g>
<g>
</g>
<g>
</g>
<g>
</g>
<g>
</g>
<g>
</g>
<g>
</g>
<g>
</g>
<g>
</g>
</svg>
