<?xml version="1.0" encoding="iso-8859-1"?>
<!-- Generator: Adobe Illustrator 19.0.0, SVG Export Plug-In . SVG Version: 6.00 Build 0)  -->
<svg version="1.1" id="Capa_1" xmlns="http://www.w3.org/2000/svg" xmlns:xlink="http://www.w3.org/1999/xlink" x="0px" y="0px"
	 viewBox="0 0 512 512" style="enable-background:new 0 0 512 512;" xml:space="preserve">
<path style="fill:#EF487D;" d="M512,256c0,35.307-7.147,68.942-20.072,99.547c-13.113,31.044-32.183,58.953-55.766,82.317
	C389.904,483.704,326.269,512,256,512s-133.904-28.296-180.161-74.135c-23.594-23.364-42.663-51.294-55.777-82.338
	C7.147,324.921,0,291.297,0,256C0,114.615,114.615,0,256,0S512,114.615,512,256z"/>
<path style="fill:#FF668C;" d="M474.932,218.932c0,30.194-6.113,58.959-17.166,85.133c-11.215,26.549-27.523,50.417-47.691,70.398
	c-39.561,39.202-93.981,63.401-154.075,63.401s-114.515-24.199-154.074-63.401c-20.178-19.981-36.486-43.867-47.701-70.416
	c-11.045-26.174-17.157-54.929-17.157-85.115C37.068,98.019,135.086,0,256,0S474.932,98.019,474.932,218.932z"/>
<path style="fill:#343A6E;" d="M491.927,355.547c-13.113,31.044-32.183,58.953-55.766,82.317H75.839
	c-23.594-23.364-42.663-51.294-55.777-82.338l5.454-81.659l6.384-95.566c1.944-29.09,26.102-51.681,55.254-51.681h337.68
	c29.153,0,53.311,22.591,55.254,51.681l6.384,95.566L491.927,355.547z"/>
<path style="fill:#F0F0F0;" d="M317.365,47.597H194.632c-23.449,0-42.458,19.009-42.458,42.458v68.836h19.853v-40.858
	c0-11.304,9.164-20.467,20.467-20.467h127.008c11.304,0,20.467,9.164,20.467,20.467v40.858h19.853V90.056
	C359.822,66.607,340.813,47.597,317.365,47.597z"/>
<path style="fill:#484B7F;" d="M486.473,273.868l-195.02,97.27h-70.907l-195.03-97.27l6.384-95.566
	c1.944-29.09,26.102-51.681,55.254-51.681h337.68c29.153,0,53.311,22.591,55.254,51.681L486.473,273.868z"/>
<path style="fill:#F2AE5A;" d="M294.588,358.536l-10.083,40.532c-1.097,4.389-5.036,7.471-9.561,7.471h-37.888
	c-4.524,0-8.474-3.082-9.561-7.471l-10.094-40.532c-1.546-6.217,3.156-12.225,9.561-12.225h58.065
	C291.432,346.311,296.135,352.319,294.588,358.536z"/>
<path style="fill:#F9DF73;" d="M294.588,358.536l-10.083,40.532c-1.097,4.389-5.036,7.471-9.561,7.471h-20.605
	c-4.524,0-8.474-3.082-9.561-7.471l-10.094-40.532c-1.546-6.217,3.156-12.225,9.561-12.225h40.782
	C291.432,346.311,296.135,352.319,294.588,358.536z"/>
<g>
</g>
<g>
</g>
<g>
</g>
<g>
</g>
<g>
</g>
<g>
</g>
<g>
</g>
<g>
</g>
<g>
</g>
<g>
</g>
<g>
</g>
<g>
</g>
<g>
</g>
<g>
</g>
<g>
</g>
</svg>
