<?xml version="1.0" encoding="iso-8859-1"?>
<!-- Generator: Adobe Illustrator 19.0.0, SVG Export Plug-In . SVG Version: 6.00 Build 0)  -->
<svg version="1.1" id="Capa_1" xmlns="http://www.w3.org/2000/svg" xmlns:xlink="http://www.w3.org/1999/xlink" x="0px" y="0px"
	 viewBox="0 0 512 512" style="enable-background:new 0 0 512 512;" xml:space="preserve">
<circle style="fill:#F0F0F0;" cx="256" cy="256" r="256"/>
<path style="fill:#F9DF73;" d="M512,256c0,141.385-114.615,256-256,256V256h88.325c-13.354-8.108-22.277-22.789-22.277-39.549
	c0-25.537,20.699-46.237,46.237-46.237c25.537,0,46.237,20.699,46.237,46.237c0,16.76-8.923,31.441-22.277,39.549H512z"/>
<path style="fill:#484B7F;" d="M341.786,368.285c0,25.537-20.699,46.237-46.237,46.237c-16.771,0-31.441-8.923-39.549-22.277V512
	C114.615,512,0,397.385,0,256h256v88.336c8.108-13.364,22.779-22.277,39.549-22.277
	C321.087,322.058,341.786,342.758,341.786,368.285z"/>
<path style="fill:#EF487D;" d="M170.214,143.715c0,25.537,20.699,46.237,46.237,46.237c16.76,0,31.441-8.923,39.549-22.277V256
	h-88.336c13.354,8.108,22.277,22.789,22.277,39.549c0,25.537-20.699,46.237-46.237,46.237c-25.527,0-46.226-20.699-46.226-46.237
	c0-16.76,8.923-31.441,22.277-39.549H0C0,114.615,114.615,0,256,0v119.756c-8.108-13.354-22.789-22.277-39.549-22.277
	C190.913,97.479,170.214,118.178,170.214,143.715z"/>
<g>
</g>
<g>
</g>
<g>
</g>
<g>
</g>
<g>
</g>
<g>
</g>
<g>
</g>
<g>
</g>
<g>
</g>
<g>
</g>
<g>
</g>
<g>
</g>
<g>
</g>
<g>
</g>
<g>
</g>
</svg>
