<?xml version="1.0" encoding="iso-8859-1"?>
<!-- Generator: Adobe Illustrator 19.0.0, SVG Export Plug-In . SVG Version: 6.00 Build 0)  -->
<svg version="1.1" id="Capa_1" xmlns="http://www.w3.org/2000/svg" xmlns:xlink="http://www.w3.org/1999/xlink" x="0px" y="0px"
	 viewBox="0 0 512 512" style="enable-background:new 0 0 512 512;" xml:space="preserve">
<path style="fill:#343A6E;" d="M512,256c0,23.249-3.103,45.777-8.913,67.187c-4.796,17.711-11.452,34.659-19.749,50.625
	C440.707,455.91,354.9,512,256,512c-25.809,0-50.719-3.814-74.209-10.919c-19.205-5.81-37.46-13.814-54.46-23.719
	C51.179,433.006,0,350.48,0,256C0,114.615,114.615,0,256,0S512,114.615,512,256z"/>
<path style="fill:#484B7F;" d="M464.598,208.598c0,18.944-2.529,37.301-7.263,54.746c-3.908,14.431-9.332,28.242-16.091,41.252
	c-34.738,66.896-104.657,112.6-185.244,112.6c-21.03,0-41.328-3.108-60.468-8.897c-15.649-4.734-30.524-11.256-44.376-19.328
	C89.105,352.829,47.402,285.583,47.402,208.598C47.402,93.392,140.794,0,256,0S464.598,93.392,464.598,208.598z"/>
<g>
	<path style="fill:#F0F0F0;" d="M156.077,492.45L26.349,108.319l429.212-54.687l30.363,296.871l-187.753,19.547L156.077,492.45z
		 M54.318,125.822l111.631,330.543l123.546-106.422l173.518-18.066L436.952,77.07L54.318,125.822z"/>
	<polygon style="fill:#F0F0F0;" points="469.209,350.218 194.669,190.326 441.262,56.172 451.25,74.529 237.259,190.947 
		479.725,332.161 	"/>
</g>
<circle style="fill:#EF487D;" cx="446.255" cy="65.348" r="45.451"/>
<polygon style="fill:#F0F0F0;" points="171.272,476.394 150.755,472.421 204.09,196.991 36.297,126.709 44.371,107.432 
	227.837,184.281 "/>
<circle style="fill:#EF487D;" cx="40.334" cy="117.07" r="33.802"/>
<rect x="161.677" y="264.874" transform="matrix(-0.4177 -0.9086 0.9086 -0.4177 111.1918 621.9074)" style="fill:#F0F0F0;" width="186.412" height="20.897"/>
<g>
	<path style="fill:#EF487D;" d="M503.087,323.187c-4.796,17.711-11.452,34.659-19.749,50.625c-2.832,0.773-5.799,1.181-8.871,1.181
		c-18.672,0-33.802-15.13-33.802-33.802c0-18.672,15.13-33.802,33.802-33.802C486.525,307.388,497.1,313.699,503.087,323.187z"/>
	<circle style="fill:#EF487D;" cx="215.959" cy="190.631" r="49.57"/>
	<path style="fill:#EF487D;" d="M194.821,474.405c0,10.836-5.099,20.48-13.03,26.676c-19.205-5.81-37.46-13.814-54.46-23.719
		c-0.084-0.972-0.125-1.964-0.125-2.957c0-18.662,15.141-33.802,33.802-33.802C179.681,440.602,194.821,455.743,194.821,474.405z"/>
	<circle style="fill:#EF487D;" cx="293.836" cy="359.999" r="23.904"/>
</g>
<g>
</g>
<g>
</g>
<g>
</g>
<g>
</g>
<g>
</g>
<g>
</g>
<g>
</g>
<g>
</g>
<g>
</g>
<g>
</g>
<g>
</g>
<g>
</g>
<g>
</g>
<g>
</g>
<g>
</g>
</svg>
