<?xml version="1.0" encoding="iso-8859-1"?>
<!-- Generator: Adobe Illustrator 19.0.0, SVG Export Plug-In . SVG Version: 6.00 Build 0)  -->
<svg version="1.1" id="Capa_1" xmlns="http://www.w3.org/2000/svg" xmlns:xlink="http://www.w3.org/1999/xlink" x="0px" y="0px"
	 viewBox="0 0 512 512" style="enable-background:new 0 0 512 512;" xml:space="preserve">
<path style="fill:#D4D4D4;" d="M512,256c0,110.958-70.593,205.427-169.315,240.943C315.611,506.692,286.427,512,256,512
	c-10.794,0-21.441-0.669-31.88-1.975c-18.996-2.351-37.334-6.792-54.805-13.082l-0.01-0.01C70.593,461.416,0,366.958,0,256
	C0,114.615,114.615,0,256,0S512,114.615,512,256z"/>
<circle style="fill:#F0F0F0;" cx="256" cy="209.126" r="209.115"/>
<path style="fill:#F9DF73;" d="M416.816,181.715c0-88.123-70.879-159.691-158.736-160.806
	C169.989,19.79,96.827,90.602,95.206,178.685c-0.615,33.447,8.984,64.616,25.885,90.599c22.646,34.813,35.238,75.2,35.238,116.731
	v3.961h199.335v-3.965c0-41.11,11.883-81.409,34.562-115.696C407.031,244.908,416.816,214.455,416.816,181.715z"/>
<path style="fill:#F2AE5A;" d="M186.896,178.688c-0.261,33.447,3.866,64.616,11.128,90.593
	c9.728,34.816,15.141,75.201,15.141,116.736v3.96h-56.832v-3.96c0-41.535-12.591-81.92-35.244-116.736
	c-16.896-25.976-26.499-57.145-25.882-90.593c1.609-87.395,73.634-157.78,160.789-157.79
	C218.546,20.908,187.585,91.293,186.896,178.688z"/>
<path style="fill:#FF668C;" d="M302.941,405.703l-18.729-4.491l40.742-169.885l-26.179,16.794c-3.82,2.45-8.831,1.902-12.03-1.318
	l-30.749-30.945l-30.749,30.944c-3.198,3.219-8.21,3.768-12.03,1.318l-26.179-16.794l40.742,169.885l-18.728,4.491l-46.323-193.16
	c-0.916-3.822,0.582-7.818,3.785-10.095c3.205-2.277,7.471-2.378,10.778-0.256l39.776,25.516l32.097-32.3
	c1.808-1.819,4.266-2.842,6.831-2.842c2.564,0,5.023,1.023,6.83,2.842l32.097,32.3l39.776-25.516
	c3.308-2.122,7.573-2.021,10.778,0.256c3.204,2.277,4.702,6.273,3.785,10.095L302.941,405.703z"/>
<path style="fill:#484B7F;" d="M355.662,389.977v67.082c0,14.911-4.817,28.693-12.978,39.884C315.611,506.692,286.427,512,256,512
	s-59.611-5.308-86.685-15.057c-8.171-11.191-12.988-24.973-12.988-39.884v-67.082L355.662,389.977L355.662,389.977z"/>
<path style="fill:#343A6E;" d="M224.12,510.025c-18.996-2.351-37.334-6.792-54.805-13.082l-0.01-0.01
	c-8.161-11.191-12.978-24.973-12.978-39.873v-67.082h56.832v67.082C213.159,478.501,217.443,497.612,224.12,510.025z"/>
<g>
	<circle style="fill:#FFE98A;" cx="343.771" cy="137.164" r="44.931"/>
	<circle style="fill:#FFE98A;" cx="289.437" cy="69.245" r="22.988"/>
</g>
<g>
</g>
<g>
</g>
<g>
</g>
<g>
</g>
<g>
</g>
<g>
</g>
<g>
</g>
<g>
</g>
<g>
</g>
<g>
</g>
<g>
</g>
<g>
</g>
<g>
</g>
<g>
</g>
<g>
</g>
</svg>
