<?xml version="1.0" encoding="iso-8859-1"?>
<!-- Generator: Adobe Illustrator 19.0.0, SVG Export Plug-In . SVG Version: 6.00 Build 0)  -->
<svg version="1.1" id="Capa_1" xmlns="http://www.w3.org/2000/svg" xmlns:xlink="http://www.w3.org/1999/xlink" x="0px" y="0px"
	 viewBox="0 0 512 512" style="enable-background:new 0 0 512 512;" xml:space="preserve">
<path style="fill:#5897D1;" d="M512,256c0,44.325-11.264,86.026-31.096,122.389c-20.543,37.679-50.28,69.622-86.204,92.808
	c-11.107,7.178-22.8,13.521-35.004,18.923c-26.645,11.828-55.683,19.237-86.194,21.285C267.713,511.801,261.883,512,256,512
	c-5.883,0-11.713-0.199-17.502-0.596c-30.511-2.048-59.559-9.456-86.204-21.285c-12.204-5.413-23.897-11.745-35.004-18.923
	C81.377,448,51.639,416.068,31.096,378.389c-11.964-21.943-20.814-45.829-25.945-71.064c-2.706-13.281-4.378-26.927-4.932-40.876
	C0.073,262.99,0,259.5,0,256C0,114.615,114.615,0,256,0c51.116,0,98.732,14.984,138.7,40.803c8.673,5.601,16.99,11.713,24.9,18.296
	c8.788,7.304,17.074,15.182,24.806,23.583c14.148,15.36,26.425,32.455,36.498,50.928C500.736,169.974,512,211.675,512,256z"/>
<path style="fill:#9FC5E6;" d="M468.128,212.128c0,36.728-9.334,71.284-25.767,101.415c-17.022,31.222-41.663,57.69-71.43,76.902
	c-9.203,5.949-18.893,11.204-29.005,15.68c-22.079,9.801-46.14,15.94-71.422,17.637c-4.797,0.329-9.628,0.493-14.502,0.493
	c-4.874,0-9.706-0.164-14.502-0.493c-25.282-1.697-49.353-7.836-71.43-17.637c-10.113-4.485-19.802-9.732-29.005-15.68
	c-29.759-19.221-54.399-45.681-71.422-76.902c-16.433-30.131-25.767-64.686-25.767-101.415C43.872,94.973,138.845,0,256,0
	c42.356,0,81.812,12.417,114.929,33.811c29.767,19.213,54.409,45.681,71.43,76.902C458.794,140.844,468.128,175.4,468.128,212.128z"
	/>
<g>
	<path style="fill:#F9DF73;" d="M117.29,278.497v192.7C81.377,448,51.639,416.068,31.096,378.389v-99.892H117.29z"/>
	<path style="fill:#F9DF73;" d="M480.904,17.784v360.605c-20.543,37.679-50.28,69.622-86.204,92.808V17.784H480.904z"/>
	<path style="fill:#F9DF73;" d="M238.498,175.062v336.342c-30.511-2.048-59.559-9.456-86.204-21.285V175.062H238.498z"/>
	<path style="fill:#F9DF73;" d="M359.696,345.893V490.12c-26.645,11.828-55.683,19.237-86.194,21.285V345.893H359.696z"/>
</g>
<path style="fill:#EF487D;" d="M472.696,76.404l-11.129-59.865c-1.356-7.297-10.103-10.388-15.745-5.565l-46.281,39.57
	c-4.534,3.877-3.17,11.207,2.452,13.194l9.02,3.188c2.812,0.994,4.277,4.089,3.262,6.893l-99.135,274.132L209.387,194.382
	c-2.529-3.688-6.52-6.113-10.961-6.666c-4.441-0.554-8.903,0.815-12.267,3.762L57.25,304.274L0.219,266.449
	c0.554,13.949,2.226,27.596,4.932,40.876l44.753,29.686c5.883,3.908,13.657,3.385,18.975-1.264l124.677-109.087l113.048,164.164
	c2.947,4.284,7.795,6.792,12.904,6.792c0.669,0,1.337-0.042,2.006-0.136c5.82-0.742,10.742-4.692,12.737-10.209L443.858,84.194
	c1.004-2.776,4.06-4.222,6.844-3.238l11.794,4.169C468.12,87.113,473.786,82.268,472.696,76.404z"/>
<g>
</g>
<g>
</g>
<g>
</g>
<g>
</g>
<g>
</g>
<g>
</g>
<g>
</g>
<g>
</g>
<g>
</g>
<g>
</g>
<g>
</g>
<g>
</g>
<g>
</g>
<g>
</g>
<g>
</g>
</svg>
