<?xml version="1.0" encoding="iso-8859-1"?>
<!-- Generator: Adobe Illustrator 19.0.0, SVG Export Plug-In . SVG Version: 6.00 Build 0)  -->
<svg version="1.1" id="Capa_1" xmlns="http://www.w3.org/2000/svg" xmlns:xlink="http://www.w3.org/1999/xlink" x="0px" y="0px"
	 viewBox="0 0 512 512" style="enable-background:new 0 0 512 512;" xml:space="preserve">
<path style="fill:#D4D4D4;" d="M511.833,256.167c0,53.829-16.624,103.785-45.037,145c-15.768,22.889-35.169,43.084-57.369,59.74
	c-4.417,3.31-8.949,6.485-13.575,9.513c-4.678,3.06-9.461,5.962-14.337,8.719c-8.5,4.793-17.292,9.126-26.356,12.927
	c-3.978,1.681-8.02,3.258-12.102,4.741c-1.378,0.501-2.757,0.982-4.146,1.451l-0.439,0.157C312.597,507.228,284.862,512,256,512
	c-35.733,0-69.754-7.32-100.642-20.561c-20.675-8.855-39.941-20.352-57.38-34.083c-4.657-3.655-9.189-7.477-13.575-11.455
	c-14.703-13.282-27.839-28.267-39.127-44.63c-0.533-0.762-1.055-1.535-1.577-2.308c-3.759-5.566-7.299-11.298-10.62-17.177
	c-3.446-6.109-6.662-12.384-9.607-18.796c-2.715-5.91-5.221-11.935-7.487-18.086c-7.236-19.537-12.144-40.213-14.4-61.661
	c-0.94-8.897-1.42-17.929-1.42-27.077C0.167,114.874,114.707,0.334,256,0.334S511.833,114.874,511.833,256.167z"/>
<circle style="fill:#F0F0F0;" cx="256" cy="222.94" r="222.606"/>
<g>
	<rect x="64.042" y="185.474" style="fill:#823728;" width="54.299" height="41.069"/>
	<path style="fill:#823728;" d="M155.366,144.162c0,30.69-21.542,56.346-50.331,62.674c-4.459,0.982-9.095,1.504-13.846,1.504
		c-35.441,0-64.178-28.737-64.178-64.178s28.737-64.167,64.178-64.167c4.751,0,9.388,0.522,13.846,1.504
		C133.824,87.827,155.366,113.473,155.366,144.162z"/>
</g>
<path style="fill:#965845;" d="M155.366,144.162c0,30.69-21.542,56.346-50.331,62.674c-28.789-6.328-50.331-31.984-50.331-62.674
	s21.542-56.335,50.331-62.663C133.824,87.827,155.366,113.473,155.366,144.162z"/>
<path style="fill:#9FC5E6;" d="M182.216,299.366v83.475c0,14.838-12.019,26.857-26.847,26.857h-0.01v81.741
	C97.07,466.472,49.924,420.474,23.474,362.99c-11.372-24.706-18.921-51.553-21.887-79.747c5.712-31.974,28.121-58.152,57.891-69.221
	c9.878-3.676,20.561-5.681,31.713-5.681C141.46,208.342,182.216,249.087,182.216,299.366z"/>
<path style="fill:#5897D1;" d="M65.974,225.853c-25.197,7.748-50.394,44.285-49.987,119.051
	c-7.236-19.537-12.144-40.213-14.4-61.661c5.712-31.974,28.121-58.152,57.891-69.221L65.974,225.853z"/>
<path style="fill:#484B7F;" d="M182.216,362.99v19.851c0,14.838-12.019,26.857-26.847,26.857h-0.01v81.741
	C97.07,466.472,49.924,420.474,23.474,362.99H182.216z"/>
<path style="fill:#343A6E;" d="M43.7,381.786v17.177c-3.759-5.566-7.299-11.298-10.62-17.177H43.7z"/>
<rect x="42.301" y="362.99" style="fill:#5897D1;" width="100.245" height="16.011"/>
<path style="fill:#F2AE5A;" d="M52.096,362.99v20.738c0,6.767-2.579,12.927-6.819,17.543c-0.533-0.762-1.055-1.535-1.577-2.308
	c-3.759-5.566-7.299-11.298-10.62-17.177c-3.446-6.109-6.662-12.384-9.607-18.796L52.096,362.99L52.096,362.99z"/>
<path style="fill:#965845;" d="M52.096,362.99v20.738c0,6.767-2.579,12.927-6.819,17.543c-0.533-0.762-1.055-1.535-1.577-2.308
	c-3.759-5.566-7.299-11.298-10.62-17.177c-3.446-6.109-6.662-12.384-9.607-18.796L52.096,362.99L52.096,362.99z"/>
<path style="fill:#823728;" d="M130.282,362.988h51.93v20.742c0,14.34-11.625,25.964-25.964,25.964l0,0
	c-14.34,0-25.964-11.625-25.964-25.964v-20.742H130.282z"/>
<path style="fill:#965845;" d="M182.213,362.988v20.738c0,11.549-7.529,21.333-17.95,24.706c-3.947-1.274-7.487-3.467-10.359-6.338
	c-4.699-4.699-7.612-11.194-7.612-18.368v-20.738L182.213,362.988L182.213,362.988z"/>
<polygon style="fill:#484B7F;" points="91.188,242.903 119.19,219.583 91.188,208.34 63.186,219.583 "/>
<g>
	<polygon style="fill:#5897D1;" points="91.188,208.34 61.794,245.341 41.606,210.533 	"/>
	<polygon style="fill:#5897D1;" points="91.188,208.34 120.583,245.341 140.771,210.533 	"/>
</g>
<polygon style="fill:#484B7F;" points="91.188,338.275 113.621,319.131 91.188,232.461 68.755,319.131 "/>
<g>
	<path style="fill:#5897D1;" d="M47.198,269.705L47.198,269.705c2.705,0,4.896,2.192,4.896,4.896v88.387h-9.793v-88.387
		C42.301,271.897,44.493,269.705,47.198,269.705z"/>
	<path style="fill:#5897D1;" d="M135.178,269.705L135.178,269.705c2.705,0,4.896,2.192,4.896,4.896v88.387h-9.793v-88.387
		C130.282,271.897,132.474,269.705,135.178,269.705z"/>
</g>
<path style="fill:#343A6E;" d="M97.979,408.936v48.42c-4.657-3.655-9.189-7.477-13.575-11.455v-36.965
	c0-3.749,3.039-6.787,6.787-6.787S97.979,405.187,97.979,408.936z"/>
<path style="fill:#EF487D;" d="M180.367,52.691c0,32.58-26.408,58.988-58.988,58.988H35.775c0-32.58,26.408-58.988,58.988-58.988
	C94.763,52.691,180.367,52.691,180.367,52.691z"/>
<path style="fill:#FF668C;" d="M180.367,52.691c0,32.58-26.408,58.988-58.988,58.988H52.66c0-32.58,26.408-58.988,58.988-58.988
	C111.648,52.691,180.367,52.691,180.367,52.691z"/>
<rect x="375.5" y="132.762" style="fill:#F2AE5A;" width="54.291" height="41.069"/>
<path style="fill:#E5A379;" d="M466.808,91.457c0,30.685-21.539,56.338-50.324,62.664c-4.458,0.982-9.094,1.504-13.844,1.504
	c-35.435,0-64.168-28.733-64.168-64.168s28.733-64.158,64.168-64.158c4.75,0,9.386,0.522,13.844,1.504
	C445.269,35.13,466.808,60.772,466.808,91.457z"/>
<path style="fill:#F9D5A9;" d="M466.808,91.457c0,30.685-21.539,56.338-50.324,62.664c-28.785-6.327-50.324-31.979-50.324-62.664
	c0-30.684,21.539-56.327,50.324-62.654C445.269,35.13,466.808,60.772,466.808,91.457z"/>
<path style="fill:#9FC5E6;" d="M493.653,246.633v83.464c0,14.838-12.019,26.857-26.847,26.857h-0.01v44.212
	c-30.011,43.554-73.158,77.335-123.74,95.64c-2.861-3.247-4.584-7.497-4.584-12.165V356.955c-6.673,0-12.781-2.443-17.48-6.474
	c-0.71-0.606-1.389-1.263-2.036-1.942c-4.542-4.814-7.33-11.288-7.33-18.441v-83.464c0-39.116,24.675-72.458,59.311-85.333
	c9.868-3.676,20.55-5.681,31.702-5.681C452.897,155.62,493.653,196.365,493.653,246.633z"/>
<path style="fill:#5897D1;" d="M328.011,310.25c1.096,19.586-1.827,32.303-7.016,40.227c-0.71-0.606-1.389-1.263-2.036-1.942
	c-4.541-4.813-7.329-11.286-7.329-18.438v-83.462c0-39.121,24.671-72.458,59.303-85.331l6.494,11.829
	C350.281,181.486,323.136,223.248,328.011,310.25z"/>
<path style="fill:#484B7F;" d="M493.653,310.247v19.851c0,14.838-12.019,26.857-26.847,26.857h-0.01v44.212
	c-30.909,44.86-75.768,79.36-128.324,97.248v-141.46c-7.685,0-14.629-3.237-19.516-8.416v-38.291H493.653z"/>
<path style="fill:#343A6E;" d="M355.159,329.043v163.023c-3.978,1.681-8.02,3.258-12.102,4.741
	c-1.378,0.501-2.757,0.982-4.146,1.451l-0.439,0.157v-141.46c-7.685,0-14.629-3.237-19.516-8.416v-19.496H355.159z"/>
<rect x="353.76" y="310.247" style="fill:#5897D1;" width="100.234" height="16.009"/>
<path style="fill:#E5A379;" d="M363.551,310.25v20.735c0,11.547-7.528,21.33-17.947,24.703c-2.517,0.825-5.21,1.263-8.008,1.263
	c-7.173,0-13.667-2.903-18.365-7.601c-4.698-4.698-7.601-11.192-7.601-18.365v-20.735h51.921V310.25z"/>
<path style="fill:#F9D5A9;" d="M363.551,310.25v20.735c0,11.547-7.528,21.33-17.947,24.703c-3.946-1.274-7.486-3.467-10.358-6.337
	c-4.698-4.698-7.611-11.192-7.611-18.365v-20.735h35.916V310.25z"/>
<path style="fill:#E5A379;" d="M441.728,310.25h51.923v20.739c0,14.338-11.623,25.961-25.961,25.961l0,0
	c-14.338,0-25.961-11.623-25.961-25.961V310.25z"/>
<path style="fill:#F9D5A9;" d="M493.651,310.25v20.735c0,11.547-7.528,21.33-17.947,24.703c-3.946-1.274-7.486-3.467-10.358-6.337
	c-4.698-4.698-7.611-11.192-7.611-18.365v-20.735h35.916V310.25z"/>
<polygon style="fill:#EF487D;" points="402.64,190.183 430.638,166.866 402.64,155.625 374.642,166.866 "/>
<g>
	<polygon style="fill:#5897D1;" points="402.64,155.625 373.25,192.619 353.065,157.818 	"/>
	<polygon style="fill:#5897D1;" points="402.64,155.625 432.031,192.619 452.216,157.818 	"/>
</g>
<polygon style="fill:#EF487D;" points="402.64,285.54 425.07,266.398 402.64,179.742 380.211,266.398 "/>
<g>
	<path style="fill:#5897D1;" d="M358.657,216.981L358.657,216.981c2.703,0,4.895,2.192,4.895,4.895v88.374h-9.791v-88.374
		C353.761,219.173,355.952,216.981,358.657,216.981z"/>
	<path style="fill:#5897D1;" d="M446.624,216.981L446.624,216.981c2.703,0,4.895,2.192,4.895,4.895v88.374h-9.791v-88.374
		C441.728,219.173,443.92,216.981,446.624,216.981z"/>
</g>
<g>
	<path style="fill:#343A6E;" d="M409.427,356.193v104.714c-4.417,3.31-8.949,6.485-13.575,9.513V356.193
		c0-3.749,3.039-6.787,6.787-6.787C406.388,349.405,409.427,352.444,409.427,356.193z"/>
	<path style="fill:#343A6E;" d="M381.515,479.139c-12.228,6.902-25.082,12.833-38.458,17.668c-1.378,0.501-2.757,0.982-4.146,1.451
		c2.287-12.708,13.408-22.346,26.774-22.346h2.955C373.297,475.912,377.683,477.081,381.515,479.139z"/>
	<path style="fill:#343A6E;" d="M491.815,0c0,32.569-26.408,58.977-58.988,58.977h-85.594C347.233,26.408,373.641,0,406.211,0
		H491.815z"/>
</g>
<path style="fill:#484B7F;" d="M491.815,0c0,32.569-26.408,58.977-58.988,58.977h-71.602C361.226,26.408,387.634,0,420.203,0
	H491.815z"/>
<g>
	<path style="fill:#EF487D;" d="M301.515,175.746l-29.934-23.328c-5.439-4.24-13.374-0.363-13.374,6.534l0,0
		c0,4.575-3.708,8.283-8.283,8.283H221.83c-4.575,0-8.283,3.708-8.283,8.283v13.524c0,4.575,3.708,8.283,8.283,8.283h28.095
		c4.575,0,8.283,3.708,8.283,8.283l0,0c0,6.896,7.935,10.772,13.374,6.534l29.934-23.328
		C305.77,185.496,305.77,179.061,301.515,175.746z"/>
	<path style="fill:#EF487D;" d="M201.046,289.356l29.934,23.328c5.439,4.24,13.374,0.363,13.374-6.534l0,0
		c0-4.575,3.708-8.283,8.283-8.283h28.095c4.575,0,8.283-3.708,8.283-8.283v-13.524c0-4.575-3.708-8.283-8.283-8.283h-28.095
		c-4.575,0-8.283-3.708-8.283-8.283l0,0c0-6.896-7.935-10.772-13.374-6.534l-29.934,23.328
		C196.791,279.607,196.791,286.04,201.046,289.356z"/>
</g>
<g>
</g>
<g>
</g>
<g>
</g>
<g>
</g>
<g>
</g>
<g>
</g>
<g>
</g>
<g>
</g>
<g>
</g>
<g>
</g>
<g>
</g>
<g>
</g>
<g>
</g>
<g>
</g>
<g>
</g>
</svg>
