<?xml version="1.0" encoding="iso-8859-1"?>
<!-- Generator: Adobe Illustrator 19.0.0, SVG Export Plug-In . SVG Version: 6.00 Build 0)  -->
<svg version="1.1" id="Capa_1" xmlns="http://www.w3.org/2000/svg" xmlns:xlink="http://www.w3.org/1999/xlink" x="0px" y="0px"
	 viewBox="0 0 512 512" style="enable-background:new 0 0 512 512;" xml:space="preserve">
<path style="fill:#F9DF73;" d="M512,256c0,10.888-0.679,21.608-2.006,32.131C494.195,414.354,386.497,512,256,512
	S17.805,414.354,2.006,288.131C0.679,277.608,0,266.888,0,256C0,114.615,114.615,0,256,0S512,114.615,512,256z"/>
<path style="fill:#EF487D;" d="M509.994,288.131c-4.88,39.017-18.547,75.295-38.954,106.809C425.441,465.387,346.164,512,256,512
	C125.503,512,17.805,414.354,2.006,288.131C17.805,161.907,125.503,64.261,256,64.261v256l158.866-200.756
	C466.118,160.131,501.467,219.961,509.994,288.131z"/>
<path style="fill:#343A6E;" d="M435.24,56.814L276.373,257.57v-256C336.403,1.57,391.594,22.228,435.24,56.814z"/>
<path style="fill:#5897D1;" d="M509.994,288.131c-4.88,39.017-18.547,75.295-38.954,106.809L256,320.261l158.866-200.756
	C466.118,160.131,501.467,219.961,509.994,288.131z"/>
<g>
</g>
<g>
</g>
<g>
</g>
<g>
</g>
<g>
</g>
<g>
</g>
<g>
</g>
<g>
</g>
<g>
</g>
<g>
</g>
<g>
</g>
<g>
</g>
<g>
</g>
<g>
</g>
<g>
</g>
</svg>
