<?xml version="1.0" encoding="iso-8859-1"?>
<!-- Generator: Adobe Illustrator 19.0.0, SVG Export Plug-In . SVG Version: 6.00 Build 0)  -->
<svg version="1.1" id="Capa_1" xmlns="http://www.w3.org/2000/svg" xmlns:xlink="http://www.w3.org/1999/xlink" x="0px" y="0px"
	 viewBox="0 0 512 512" style="enable-background:new 0 0 512 512;" xml:space="preserve">
<path style="fill:#5897D1;" d="M512,256c0,100.362-57.762,187.246-141.845,229.209c-16.645,8.307-34.304,14.838-52.767,19.372
	c-4.044,1.014-8.129,1.912-12.257,2.696C289.228,510.38,272.802,512,256,512c-16.677,0-32.977-1.599-48.765-4.639
	c-4.127-0.794-8.213-1.693-12.267-2.685c-10.961-2.685-21.65-6.071-32.005-10.115c-7.084-2.748-14.002-5.82-20.752-9.174
	C57.929,443.496,0,356.509,0,256C0,114.615,114.615,0,256,0S512,114.615,512,256z"/>
<path style="fill:#9FC5E6;" d="M467.733,211.733c0,83.008-47.774,154.867-117.317,189.575c-13.767,6.87-28.372,12.272-43.643,16.022
	c-3.345,0.838-6.724,1.582-10.138,2.23c-13.153,2.566-26.739,3.906-40.635,3.906c-13.793,0-27.275-1.322-40.333-3.837
	c-3.414-0.657-6.793-1.4-10.146-2.221c-9.066-2.221-17.906-5.021-26.471-8.365c-5.86-2.273-11.581-4.814-17.163-7.588
	C92.179,366.808,44.267,294.862,44.267,211.733C44.267,94.796,139.063,0,256,0S467.733,94.796,467.733,211.733z"/>
<rect x="222.187" y="258.696" style="fill:#E5A654;" width="67.992" height="51.43"/>
<path style="fill:#F0F0F0;" d="M369.852,392.944H142.514c3.281-45.338,33.081-83.31,73.958-98.503
	c12.372-4.598,25.746-7.116,39.706-7.116C316.311,287.326,365.578,333.897,369.852,392.944z"/>
<path style="fill:#D4D4D4;" d="M224.611,309.258c-23.061,7.095-46.122,33.447-56.665,83.686h-25.433
	c3.281-45.338,33.081-83.31,73.958-98.503L224.611,309.258z"/>
<path style="fill:#484B7F;" d="M428.21,183.301c-6.047-14.277-13.817-27.647-23.048-39.847c-3.676-4.858-4.68-11.227-2.616-16.959
	l14.085-39.12c2.943-8.175-0.39-17.286-7.915-21.631l-64.024-36.968c-7.526-4.346-17.084-2.677-22.693,3.961L295.181,64.48
	c-3.926,4.647-9.932,6.962-15.969,6.218c-7.547-0.93-15.229-1.412-23.023-1.412c-7.803,0-15.487,0.482-23.036,1.412
	c-6.037,0.744-12.043-1.572-15.968-6.218l-26.817-31.743c-5.609-6.639-15.167-8.308-22.693-3.961L103.65,65.744
	c-7.525,4.345-10.859,13.455-7.915,21.631l14.085,39.12c2.064,5.731,1.058,12.101-2.616,16.959
	c-9.232,12.2-17.002,25.57-23.048,39.847c-2.37,5.596-7.381,9.635-13.362,10.711l-40.867,7.352
	c-8.552,1.539-14.776,8.981-14.776,17.671v73.93c0,8.689,6.223,16.132,14.775,17.671l40.865,7.352
	c5.982,1.076,10.993,5.116,13.363,10.713c6.048,14.284,13.819,27.651,23.051,39.857c3.674,4.858,4.678,11.226,2.614,16.957
	l-14.084,39.109c-2.945,8.176,0.389,17.287,7.914,21.633l64.025,36.969c7.525,4.346,17.083,2.677,22.692-3.96l26.817-31.736
	c3.926-4.646,9.931-6.96,15.967-6.216c7.549,0.93,15.234,1.412,23.037,1.412c7.795,0,15.477-0.482,23.024-1.412
	c6.036-0.744,12.041,1.57,15.967,6.216l26.817,31.736c5.609,6.637,15.167,8.306,22.692,3.96l64.025-36.969
	c7.525-4.346,10.859-13.456,7.914-21.633l-14.084-39.109c-2.064-5.73-1.06-12.099,2.614-16.957
	c9.233-12.205,17.005-25.573,23.051-39.857c2.37-5.598,7.381-9.637,13.363-10.713l40.865-7.352
	c8.552-1.539,14.775-8.981,14.775-17.671v-73.93c0-8.689-6.223-16.132-14.776-17.671l-40.867-7.352
	C435.591,192.937,430.581,188.898,428.21,183.301z M255.941,380.758c-25.4-0.046-49.025-7.683-68.698-20.768
	c-33.635-22.338-55.806-60.572-55.806-103.982s22.17-81.645,55.821-103.982c0-0.016-0.016-0.016-0.016-0.016
	c19.734-13.11,43.442-20.754,68.931-20.754c69.478,0,125.688,56.792,124.74,126.489
	C379.989,325.729,323.932,380.882,255.941,380.758z"/>
<path style="fill:#E5A654;" d="M336.539,206.973c0,38.426-26.973,70.55-63.02,78.474c-5.583,1.229-11.388,1.883-17.337,1.883
	c-44.376,0-80.357-35.981-80.357-80.357s35.981-80.343,80.357-80.343c5.949,0,11.754,0.654,17.337,1.883
	C309.566,136.437,336.539,168.547,336.539,206.973z"/>
<path style="fill:#F9C682;" d="M336.539,206.973c0,38.426-26.973,70.55-63.02,78.474c-36.047-7.923-63.02-40.048-63.02-78.474
	s26.973-70.538,63.02-78.46C309.566,136.437,336.539,168.547,336.539,206.973z"/>
<polygon style="fill:#EF487D;" points="256.182,330.608 291.243,301.407 256.182,287.33 221.12,301.407 "/>
<g>
	<polygon style="fill:#D4D4D4;" points="256.182,287.33 219.376,333.658 194.099,290.076 	"/>
	<polygon style="fill:#D4D4D4;" points="256.182,287.33 292.986,333.658 318.264,290.076 	"/>
</g>
<g>
	<polygon style="fill:#EF487D;" points="256.182,491.321 284.27,467.351 256.182,317.532 228.093,467.351 	"/>
	<path style="fill:#EF487D;" d="M367.843,92.452c0,40.78-33.066,73.846-73.845,73.846H186.798c0-40.78,33.066-73.846,73.859-73.846
		H367.843z"/>
</g>
<path style="fill:#FF668C;" d="M367.843,92.452c0,40.78-33.066,73.846-73.845,73.846h-90.87c0-40.78,33.066-73.846,73.859-73.846
	H367.843z"/>
<g>
</g>
<g>
</g>
<g>
</g>
<g>
</g>
<g>
</g>
<g>
</g>
<g>
</g>
<g>
</g>
<g>
</g>
<g>
</g>
<g>
</g>
<g>
</g>
<g>
</g>
<g>
</g>
<g>
</g>
</svg>
