<?xml version="1.0" encoding="iso-8859-1"?>
<!-- Generator: Adobe Illustrator 19.0.0, SVG Export Plug-In . SVG Version: 6.00 Build 0)  -->
<svg version="1.1" id="Capa_1" xmlns="http://www.w3.org/2000/svg" xmlns:xlink="http://www.w3.org/1999/xlink" x="0px" y="0px"
	 viewBox="0 0 512 512" style="enable-background:new 0 0 512 512;" xml:space="preserve">
<path style="fill:#D4D4D4;" d="M512,256c0,61.262-21.525,117.52-57.438,161.583c-15.579,19.143-33.897,35.986-54.335,49.946
	C359.163,495.595,309.499,512,256,512s-103.163-16.405-144.227-44.471c-19.864-13.563-37.721-29.853-53.018-48.337
	C22.058,374.899,0,318.015,0,256C0,114.615,114.615,0,256,0S512,114.615,512,256z"/>
<circle style="fill:#F0F0F0;" cx="256" cy="213.817" r="213.817"/>
<circle style="fill:#965845;" cx="250.128" cy="65.964" r="48.606"/>
<path style="fill:#FF668C;" d="M306.503,176.402c0-31.135-25.241-56.375-56.375-56.375s-56.375,25.241-56.375,56.375"/>
<path style="fill:#823728;" d="M260.58,113.44c-3.365,0.742-6.865,1.128-10.449,1.128c-26.843,0-48.609-21.765-48.609-48.609
	s21.765-48.598,48.609-48.598c3.584,0,7.084,0.387,10.449,1.128c-21.817,4.775-38.16,24.21-38.16,47.47
	S238.762,108.665,260.58,113.44z"/>
<path style="fill:#343A6E;" d="M318.241,0.001h-69.055c-22.305,0-40.387,18.082-40.387,40.387l0,0h69.055
	C300.159,40.387,318.241,22.306,318.241,0.001L318.241,0.001z"/>
<circle style="fill:#F9C682;" cx="87.771" cy="357.094" r="48.606"/>
<path style="fill:#E5A654;" d="M98.225,404.574c-3.365,0.742-6.865,1.128-10.449,1.128c-26.843,0-48.609-21.765-48.609-48.609
	c0-26.843,21.765-48.598,48.609-48.598c3.584,0,7.084,0.387,10.449,1.128c-21.817,4.775-38.16,24.21-38.16,47.47
	C60.065,380.353,76.407,399.799,98.225,404.574z"/>
<path style="fill:#5897D1;" d="M144.144,467.529h-32.371c-19.864-13.563-37.721-29.853-53.018-48.337
	c8.474-5.099,18.401-8.035,29.017-8.035C118.909,411.157,144.144,436.402,144.144,467.529z"/>
<path style="fill:#EF487D;" d="M155.885,291.133H86.83c-22.305,0-40.387,18.082-40.387,40.387l0,0h69.055
	C137.803,331.519,155.885,313.437,155.885,291.133L155.885,291.133z"/>
<circle style="fill:#F9D5A9;" cx="258.09" cy="357.094" r="48.606"/>
<path style="fill:#EF487D;" d="M314.465,467.532c0-31.135-25.241-56.375-56.375-56.375s-56.375,25.241-56.375,56.375"/>
<path style="fill:#E5A379;" d="M268.543,404.574c-3.365,0.742-6.865,1.128-10.449,1.128c-26.843,0-48.609-21.765-48.609-48.609
	c0-26.843,21.765-48.598,48.609-48.598c3.584,0,7.084,0.387,10.449,1.128c-21.817,4.775-38.16,24.21-38.16,47.47
	C230.383,380.353,246.725,399.799,268.543,404.574z"/>
<path style="fill:#343A6E;" d="M326.204,291.133h-69.055c-22.305,0-40.387,18.082-40.387,40.387l0,0h69.055
	C308.122,331.519,326.204,313.437,326.204,291.133L326.204,291.133z"/>
<circle style="fill:#965845;" cx="428.408" cy="357.094" r="48.606"/>
<path style="fill:#484B7F;" d="M454.562,417.583c-15.579,19.143-33.897,35.986-54.335,49.946h-28.191
	c0-31.128,25.234-56.372,56.372-56.372C437.854,411.157,446.746,413.477,454.562,417.583z"/>
<path style="fill:#823728;" d="M438.861,404.574c-3.365,0.742-6.865,1.128-10.449,1.128c-26.843,0-48.609-21.765-48.609-48.609
	c0-26.843,21.765-48.598,48.609-48.598c3.584,0,7.084,0.387,10.449,1.128c-21.817,4.775-38.16,24.21-38.16,47.47
	C400.702,380.353,417.044,399.799,438.861,404.574z"/>
<path style="fill:#5897D1;" d="M496.522,291.133h-69.055c-22.305,0-40.387,18.082-40.387,40.387l0,0h69.055
	C478.44,331.519,496.522,313.437,496.522,291.133L496.522,291.133z"/>
<path style="fill:#484B7F;" d="M403.544,218.9h-137.62v-22.393c0-5.483-4.444-9.927-9.927-9.927c-5.483,0-9.927,4.444-9.927,9.927
	V218.9H108.45c-5.483,0-9.927,4.444-9.927,9.927v33.725c0,5.483,4.444,9.927,9.927,9.927c5.483,0,9.927-4.444,9.927-9.927v-23.799
	H246.07v23.799c0,5.483,4.444,9.927,9.927,9.927c5.483,0,9.927-4.444,9.927-9.927v-23.799h127.694v23.799
	c0,5.483,4.444,9.927,9.927,9.927c5.483,0,9.927-4.444,9.927-9.927v-33.725C413.47,223.345,409.025,218.9,403.544,218.9z"/>
<g>
</g>
<g>
</g>
<g>
</g>
<g>
</g>
<g>
</g>
<g>
</g>
<g>
</g>
<g>
</g>
<g>
</g>
<g>
</g>
<g>
</g>
<g>
</g>
<g>
</g>
<g>
</g>
<g>
</g>
</svg>
