<?xml version="1.0" encoding="iso-8859-1"?>
<!-- Generator: Adobe Illustrator 19.0.0, SVG Export Plug-In . SVG Version: 6.00 Build 0)  -->
<svg version="1.1" id="Capa_1" xmlns="http://www.w3.org/2000/svg" xmlns:xlink="http://www.w3.org/1999/xlink" x="0px" y="0px"
	 viewBox="0 0 512 512" style="enable-background:new 0 0 512 512;" xml:space="preserve">
<path style="fill:#EF487D;" d="M512,256c0,13.134-0.993,26.039-2.905,38.651c-2.288,15.161-5.914,29.874-10.762,44.032
	c-3.156,9.31-6.855,18.38-11.045,27.167v0.01c-4.044,8.505-8.558,16.76-13.49,24.722c-0.961,1.546-1.933,3.093-2.926,4.618
	c-6.134,9.467-12.894,18.495-20.198,27.042c-5.141,6.008-10.564,11.786-16.227,17.293c-5.496,5.36-11.233,10.459-17.199,15.287
	c-1.16,0.951-2.33,1.891-3.511,2.811c-16.279,12.758-34.158,23.594-53.279,32.141c-8.683,3.897-17.627,7.314-26.802,10.219
	c-13.354,4.253-27.178,7.429-41.378,9.446h-0.01C280.419,511.133,268.319,512,256,512c-59.329,0-113.946-20.177-157.351-54.053
	c-14.869-11.598-28.421-24.806-40.396-39.361C21.849,374.376,0,317.733,0,256c0-36.958,7.837-72.098,21.932-103.831
	c14.89-33.51,36.749-63.216,63.76-87.291C130.936,24.524,190.6,0,256,0c45.808,0,88.806,12.027,125.994,33.113
	c25.412,14.378,48.107,32.987,67.156,54.868C488.302,132.932,512,191.707,512,256z"/>
<path style="fill:#FF668C;" d="M467.838,211.838c0,10.869-0.821,21.547-2.403,31.983c-1.893,12.546-4.894,24.72-8.906,36.437
	c-2.611,7.704-5.672,15.21-9.14,22.481v0.008c-3.346,7.038-7.081,13.869-11.163,20.457c-0.795,1.28-1.6,2.559-2.421,3.822
	c-5.075,7.834-10.669,15.305-16.713,22.376c-4.254,4.972-8.742,9.753-13.428,14.31c-4.548,4.436-9.295,8.655-14.233,12.65
	c-0.96,0.787-1.928,1.565-2.905,2.326c-13.471,10.558-28.266,19.524-44.088,26.597c-7.185,3.226-14.587,6.052-22.178,8.456
	c-11.05,3.519-22.489,6.147-34.24,7.816h-0.008c-9.805,1.401-19.818,2.118-30.012,2.118c-49.095,0-94.29-16.696-130.207-44.728
	c-12.304-9.597-23.519-20.527-33.427-32.572c-30.124-36.583-48.204-83.456-48.204-134.539c0-30.582,6.485-59.661,18.149-85.92
	c12.321-27.73,30.41-52.311,52.761-72.233C152.51,20.293,201.882,0,256,0c37.906,0,73.487,9.952,104.259,27.4
	c21.029,11.897,39.809,27.297,55.571,45.403C448.228,110.001,467.838,158.636,467.838,211.838z"/>
<g>
	<path style="fill:#343A6E;" d="M58.032,22.603L88.069,8.38c12.083-5.721,26.534-1.72,33.953,9.402l0,0l-0.013,0.013l78.912,118.367
		c6.199,9.3,6.017,21.46-0.461,30.568l-24.785,34.854l-1.019-0.735L87.19,130.08L58.032,22.603z"/>
	<path style="fill:#343A6E;" d="M470.873,395.201c-6.134,9.467-12.894,18.495-20.198,27.042
		c-5.141,6.008-10.564,11.786-16.227,17.293c-5.496,5.36-11.233,10.459-17.199,15.287l-43.823-55.212l-0.742-1.045l49.988-35.506
		L470.873,395.201z"/>
</g>
<path style="fill:#484B7F;" d="M434.448,439.536c-5.496,5.36-11.233,10.459-17.199,15.287c-1.16,0.951-2.33,1.891-3.511,2.811
	c-16.279,12.758-34.158,23.594-53.279,32.141c-8.683,3.897-17.627,7.314-26.802,10.219
	C220.17,423.706,129.693,329.958,56.184,212.741c-4.315-6.865-8.558-13.803-12.748-20.825c-0.846-1.421-1.682-2.821-2.508-4.242
	L28.003,165.71c-2.539-4.315-4.577-8.861-6.071-13.542c-4.838-15.036-4.295-31.451,1.839-46.341l34.262-83.226l19.446,29.727
	l8.213,12.549l88.963,135.973l1.024,0.731l-23.98,33.729c23.239,40.95,39.926,66.476,80.353,106.904
	c40.438,40.438,65.954,57.114,106.903,80.342l33.729-23.991l0.742,1.045L434.448,439.536z"/>
<path style="fill:#343A6E;" d="M77.479,52.339c0,0-53.541,85.159-21.295,160.402c-4.315-6.865-8.558-13.803-12.748-20.825
	c-0.846-1.421-1.682-2.821-2.508-4.242L28.003,165.71c-10.71-18.202-12.278-40.364-4.232-59.883l34.262-83.226l19.446,29.727V52.339
	z"/>
<g>
	<ellipse style="fill:#F9DF73;" cx="370.74" cy="140.946" rx="141.26" ry="106.465"/>
	<path style="fill:#F9DF73;" d="M295.854,220.869c0,0,15.22,32.47,6.78,61.704c-2.046,7.088,5.651,12.948,11.867,8.976
		c21.393-13.672,49.357-36.667,54.363-65.702"/>
</g>
<g>
	<path style="fill:#484B7F;" d="M377.54,123.807h-94.723c-5.194,0-9.404-4.21-9.404-9.404l0,0c0-5.194,4.21-9.404,9.404-9.404
		h94.723c5.194,0,9.404,4.21,9.404,9.404l0,0C386.944,119.597,382.735,123.807,377.54,123.807z"/>
	<path style="fill:#484B7F;" d="M455.913,161.942H282.817c-5.194,0-9.404-4.21-9.404-9.404l0,0c0-5.194,4.21-9.404,9.404-9.404
		h173.096c5.194,0,9.404,4.21,9.404,9.404l0,0C465.317,157.732,461.107,161.942,455.913,161.942z"/>
</g>
<g>
</g>
<g>
</g>
<g>
</g>
<g>
</g>
<g>
</g>
<g>
</g>
<g>
</g>
<g>
</g>
<g>
</g>
<g>
</g>
<g>
</g>
<g>
</g>
<g>
</g>
<g>
</g>
<g>
</g>
</svg>
