<?xml version="1.0" encoding="iso-8859-1"?>
<!-- Generator: Adobe Illustrator 19.0.0, SVG Export Plug-In . SVG Version: 6.00 Build 0)  -->
<svg version="1.1" id="Capa_1" xmlns="http://www.w3.org/2000/svg" xmlns:xlink="http://www.w3.org/1999/xlink" x="0px" y="0px"
	 viewBox="0 0 512 512" style="enable-background:new 0 0 512 512;" xml:space="preserve">
<path style="fill:#5897D1;" d="M512,256c0,76.037-33.144,144.321-85.786,191.216c-1.526,1.358-3.072,2.706-4.639,4.033
	c-40.657,34.513-92.223,56.55-148.814,60.207C267.222,511.822,261.632,512,256,512c-5.632,0-11.222-0.178-16.76-0.543
	c-56.592-3.657-108.157-25.694-148.814-60.207c-1.567-1.327-3.114-2.675-4.639-4.033C33.144,400.321,0,332.037,0,256
	C0,114.615,114.615,0,256,0S512,114.615,512,256z"/>
<path style="fill:#9FC5E6;" d="M465.487,209.487c0,62.223-27.122,118.1-70.199,156.475c-33.825,30.132-77.484,49.464-125.573,52.569
	c-4.532,0.299-9.106,0.445-13.715,0.445s-9.184-0.145-13.715-0.445c-48.088-3.103-91.747-22.436-125.573-52.569
	c-43.078-38.375-70.199-94.252-70.199-156.475C46.513,93.79,140.303,0,256,0S465.487,93.79,465.487,209.487z"/>
<path style="fill:#F0F0F0;" d="M412.108,92.864c0,86.675-139.2,147.32-139.2,178.685s139.2,92.01,139.2,178.685H99.886
	c0-86.675,139.2-147.32,139.2-178.685s-139.2-92.01-139.2-178.685"/>
<path style="fill:#D4D4D4;" d="M248.128,271.544c0,31.364-64.726,92.017-64.726,178.686H99.886
	c0-86.67,139.195-147.313,139.195-178.686c0-31.364-139.195-92.006-139.195-178.676h83.517
	C183.403,179.538,248.128,240.18,248.128,271.544z"/>
<g>
	<path style="fill:#484B7F;" d="M421.574,451.25c-40.657,34.513-92.223,56.55-148.814,60.207C267.222,511.822,261.632,512,256,512
		c-5.632,0-11.222-0.178-16.76-0.543c-56.592-3.657-108.157-25.694-148.814-60.207H421.574z"/>
	<path style="fill:#484B7F;" d="M420.406,32.666H91.586c-10.36,0-18.758,8.398-18.758,18.758v22.683
		c0,10.36,8.398,18.758,18.758,18.758h328.82c10.36,0,18.758-8.398,18.758-18.758V51.424
		C439.164,41.063,430.766,32.666,420.406,32.666z"/>
</g>
<path style="fill:#F9DF73;" d="M365.103,451.259H147.738c0-36.505,48.657-66.097,108.683-66.097c16.529,0,32.196,2.242,46.219,6.257
	c17.773,5.082,32.911,13.014,43.84,22.826C358.239,424.811,365.103,437.541,365.103,451.259z"/>
<path style="fill:#F2AE5A;" d="M256.417,385.165c-29.67,0-53.73,29.592-53.73,66.087h-54.953
	C147.734,414.758,196.392,385.165,256.417,385.165z"/>
<path style="fill:#F9DF73;" d="M179.801,151.637c0,22.54,39.712,68.542,76.62,68.542s76.62-46.003,76.62-68.542H179.801z"/>
<path style="fill:#F2AE5A;" d="M256.424,220.179c-36.916,0-76.623-46.004-76.623-68.544h51.653
	C231.454,174.175,244.389,220.179,256.424,220.179z"/>
<g>
</g>
<g>
</g>
<g>
</g>
<g>
</g>
<g>
</g>
<g>
</g>
<g>
</g>
<g>
</g>
<g>
</g>
<g>
</g>
<g>
</g>
<g>
</g>
<g>
</g>
<g>
</g>
<g>
</g>
</svg>
