<?xml version="1.0" encoding="iso-8859-1"?>
<!-- Generator: Adobe Illustrator 19.0.0, SVG Export Plug-In . SVG Version: 6.00 Build 0)  -->
<svg version="1.1" id="Capa_1" xmlns="http://www.w3.org/2000/svg" xmlns:xlink="http://www.w3.org/1999/xlink" x="0px" y="0px"
	 viewBox="0 0 512 512" style="enable-background:new 0 0 512 512;" xml:space="preserve">
<path style="fill:#5897D1;" d="M512,256c0,35.056-7.043,68.462-19.811,98.889c-27.449,65.515-81.366,117.185-148.375,141.646
	C316.426,506.546,286.856,512,256,512c-16.677,0-32.977-1.599-48.765-4.639c-35.83-6.907-69.005-21.295-97.834-41.472
	c-37.345-26.133-67.385-61.973-86.476-103.852C8.202,329.728,0,293.815,0,256c0-12.455,0.888-24.712,2.612-36.686
	c7.283-50.73,29.435-96.674,61.9-133.235C111.407,33.27,179.816,0,256,0c44.931,0,87.155,11.577,123.862,31.911
	c22.235,12.309,42.454,27.847,59.998,45.976c5.486,5.653,10.71,11.557,15.653,17.701c1.588,1.975,3.145,3.96,4.671,5.987
	c8.307,10.951,15.747,22.601,22.215,34.837c14.89,28.108,24.68,59.319,28.17,92.411C511.519,237.756,512,246.815,512,256z"/>
<path style="fill:#9FC5E6;" d="M450.39,194.39c0,26.62-5.348,51.986-15.043,75.089c-20.844,49.748-61.785,88.982-112.667,107.557
	c-20.796,7.601-43.249,11.743-66.68,11.743c-12.663,0-25.041-1.214-37.029-3.522c-27.207-5.244-52.397-16.17-74.289-31.491
	c-28.357-19.844-51.169-47.058-65.665-78.858c-11.179-24.533-17.408-51.803-17.408-80.517C61.61,87.031,148.641,0,256,0
	S450.39,87.031,450.39,194.39z"/>
<path style="fill:#FF668C;" d="M449.912,26.311v53.164c0,6.959-5.642,12.601-12.601,12.601h-88.785V13.709h88.785
	C444.27,13.709,449.912,19.352,449.912,26.311z"/>
<path style="fill:#343A6E;" d="M343.813,496.535C316.426,506.546,286.856,512,256,512c-103.56,0-192.763-61.492-233.075-149.964
	l80.572-107.165c14.67-19.508,43.948-19.508,58.608,0l45.881,61.032L343.813,496.535z"/>
<path style="fill:#EF487D;" d="M437.812,43.102c0,5.413-4.389,9.791-9.791,9.791h-34.053c-2.706,0-5.151,1.097-6.928,2.873
	c-1.766,1.776-2.863,4.221-2.863,6.928c0,5.402,4.378,9.791,9.791,9.791h11.755c2.706,0,5.151,1.097,6.928,2.873
	c1.776,1.766,2.873,4.221,2.873,6.928c0,5.402-4.389,9.791-9.801,9.791h-57.198V13.709h55.808c2.706,0,5.151,1.097,6.928,2.873
	c1.766,1.776,2.863,4.221,2.863,6.928c0,5.413,4.389,9.791,9.801,9.791h4.096C433.424,33.301,437.812,37.689,437.812,43.102z"/>
<path style="fill:#F9DF73;" d="M342.523,0.001L342.523,0.001c-4.761,0-8.62,3.859-8.62,8.62v216.674h17.24V8.621
	C351.142,3.86,347.283,0.001,342.523,0.001z"/>
<path style="fill:#484B7F;" d="M492.189,354.889c-2.278,5.423-4.733,10.762-7.367,15.987
	c-29.1,57.898-79.548,103.225-141.009,125.659C316.426,506.546,286.856,512,256,512c-16.677,0-32.977-1.599-48.765-4.639
	c-25.088-4.838-48.87-13.343-70.771-24.931c-9.383-4.963-18.411-10.491-27.063-16.541l198.081-263.45
	c17.544-23.333,52.537-23.333,70.081,0L492.189,354.889z"/>
<g>
	<path style="fill:#343A6E;" d="M342.528,184.936c-6.719,0-13.437,5.831-17.93,17.502L207.235,507.361
		c-35.83-6.907-69.005-21.295-97.834-41.472l198.092-263.45C316.259,190.767,329.394,184.936,342.528,184.936z"/>
	<path style="fill:#343A6E;" d="M484.822,370.876c-29.1,57.898-79.548,103.225-141.009,125.659C316.426,506.546,286.856,512,256,512
		c-16.677,0-32.977-1.599-48.765-4.639c-25.088-4.838-48.87-13.343-70.771-24.931l130.038-129.034
		c-20.25,52.611,37.136,66.247,96.695,44.304C417.844,377.563,423.664,356.101,484.822,370.876z"/>
</g>
<path style="fill:#484B7F;" d="M207.987,315.904c-30.511,1.055-60.615,19.101-79.882,19.101c-29.78,0-64.993-26.415-24.607-80.133
	c14.67-19.508,43.948-19.508,58.608,0L207.987,315.904z"/>
<g>
</g>
<g>
</g>
<g>
</g>
<g>
</g>
<g>
</g>
<g>
</g>
<g>
</g>
<g>
</g>
<g>
</g>
<g>
</g>
<g>
</g>
<g>
</g>
<g>
</g>
<g>
</g>
<g>
</g>
</svg>
