<?xml version="1.0" encoding="iso-8859-1"?>
<!-- Generator: Adobe Illustrator 19.0.0, SVG Export Plug-In . SVG Version: 6.00 Build 0)  -->
<svg version="1.1" id="Capa_1" xmlns="http://www.w3.org/2000/svg" xmlns:xlink="http://www.w3.org/1999/xlink" x="0px" y="0px"
	 viewBox="0 0 512 512" style="enable-background:new 0 0 512 512;" xml:space="preserve">
<circle style="fill:#EF487D;" cx="256" cy="256" r="256"/>
<circle style="fill:#FF668C;" cx="256" cy="206.179" r="206.179"/>
<g>
	<circle style="fill:#343A6E;" cx="328.244" cy="200.516" r="69.224"/>
	<polyline style="fill:#343A6E;" points="309.979,329.533 264.612,227.795 351.315,135.148 456.446,181.774 	"/>
</g>
<circle style="fill:#484B7F;" cx="403.968" cy="276.229" r="108.032"/>
<path style="fill:#5897D1;" d="M321.643,276.232c0-45.469,36.864-82.323,82.323-82.323c5.564,0,10.994,0.555,16.252,1.606
	c37.686,7.543,66.071,40.813,66.071,80.717s-28.385,73.174-66.071,80.717c-5.258,1.052-10.688,1.606-16.252,1.606
	C358.507,358.556,321.643,321.701,321.643,276.232z"/>
<path style="fill:#A9C7E0;" d="M354.147,276.232c0-39.905,28.394-73.174,66.071-80.717c37.686,7.543,66.071,40.813,66.071,80.717
	s-28.385,73.174-66.071,80.717C382.541,349.407,354.147,316.137,354.147,276.232z"/>
<g>
	<circle style="fill:#343A6E;" cx="183.745" cy="200.516" r="69.224"/>
	<circle style="fill:#343A6E;" cx="214.988" cy="158.887" r="31.145"/>
	<circle style="fill:#343A6E;" cx="297.012" cy="158.887" r="31.145"/>
	<polyline style="fill:#343A6E;" points="202.021,329.533 247.388,227.795 160.685,135.148 55.554,181.774 	"/>
</g>
<circle style="fill:#484B7F;" cx="108.032" cy="276.229" r="108.032"/>
<path style="fill:#5897D1;" d="M25.711,276.232c0-45.469,36.864-82.323,82.323-82.323c5.564,0,10.994,0.555,16.252,1.606
	c37.686,7.543,66.071,40.813,66.071,80.717s-28.385,73.174-66.071,80.717c-5.258,1.052-10.688,1.606-16.252,1.606
	C62.575,358.556,25.711,321.701,25.711,276.232z"/>
<path style="fill:#A9C7E0;" d="M58.215,276.232c0-39.905,28.394-73.174,66.071-80.717c37.686,7.543,66.071,40.813,66.071,80.717
	s-28.385,73.174-66.071,80.717C86.609,349.407,58.215,316.137,58.215,276.232z"/>
<rect x="227.788" y="200.516" style="fill:#343A6E;" width="55.38" height="59.935"/>
<g>
</g>
<g>
</g>
<g>
</g>
<g>
</g>
<g>
</g>
<g>
</g>
<g>
</g>
<g>
</g>
<g>
</g>
<g>
</g>
<g>
</g>
<g>
</g>
<g>
</g>
<g>
</g>
<g>
</g>
</svg>
