<?xml version="1.0" encoding="iso-8859-1"?>
<!-- Generator: Adobe Illustrator 19.0.0, SVG Export Plug-In . SVG Version: 6.00 Build 0)  -->
<svg version="1.1" id="Capa_1" xmlns="http://www.w3.org/2000/svg" xmlns:xlink="http://www.w3.org/1999/xlink" x="0px" y="0px"
	 viewBox="0 0 511.997 511.997" style="enable-background:new 0 0 511.997 511.997;" xml:space="preserve">
<circle style="fill:#343A6E;" cx="255.998" cy="255.998" r="255.998"/>
<circle style="fill:#484B7F;" cx="255.998" cy="215.603" r="215.603"/>
<path style="fill:#FF668C;" d="M463.162,406.433c-6.426,8.829-13.396,17.23-20.866,25.151
	c-10.94,11.598-22.946,22.173-35.861,31.577l-37.094-37.094c-7.837-7.826-11.755-18.098-11.755-28.369
	c0-10.261,3.918-20.522,11.755-28.358c15.663-15.663,41.064-15.663,56.727,0L463.162,406.433z"/>
<path style="fill:#EF487D;" d="M406.43,463.164c8.829-6.426,17.23-13.396,25.151-20.866l-39.236-39.236
	c-11.567-11.567-14.587-28.442-9.059-42.788c-5.089,1.954-9.853,4.963-13.949,9.07c-7.837,7.826-11.745,18.098-11.745,28.369
	c0,10.261,3.908,20.522,11.745,28.358L406.43,463.164z"/>
<circle style="fill:#F9DF73;" cx="198.853" cy="198.853" r="198.853"/>
<path style="fill:#F0F0F0;" d="M85.771,311.922c4.744,4.744,9.707,9.122,14.869,13.145c57.594,44.92,138.856,44.92,196.429-0.01
	c5.151-4.023,10.115-8.401,14.848-13.134c62.453-62.443,62.453-163.693,0-226.146c-62.443-62.443-163.693-62.443-226.146,0
	C23.328,148.228,23.328,249.479,85.771,311.922z"/>
<path style="fill:#D4D4D4;" d="M152.327,311.921c-62.447-62.447-62.447-163.695,0-226.142
	c22.711-22.711,50.554-37.152,79.795-43.344c-51.164-10.834-106.61,3.608-146.348,43.344c-62.447,62.447-62.447,163.695,0,226.142
	c39.737,39.737,95.183,54.18,146.348,43.344C202.881,349.074,175.038,334.632,152.327,311.921z"/>
<path style="fill:#FF668C;" d="M376.534,302.379l-74.156,74.156c-9.84,9.84-9.84,25.793,0,35.633l0,0
	c9.84,9.84,25.793,9.84,35.633,0l74.156-74.156c9.84-9.84,9.84-25.793,0-35.633l0,0
	C402.327,292.539,386.374,292.539,376.534,302.379z"/>
<path style="fill:#EF487D;" d="M332.767,381.78L332.767,381.78c-9.84-9.84-9.84-25.793,0-35.633l-30.389,30.389
	c-9.84,9.84-9.84,25.793,0,35.633l0,0c9.84,9.84,25.793,9.84,35.633,0L368.4,381.78C358.561,391.62,342.607,391.62,332.767,381.78z"
	/>
<path style="fill:#F2AE5A;" d="M198.847,67.1c35.193,0,68.277,13.704,93.16,38.586c24.887,24.887,38.593,57.975,38.593,93.168
	c0,35.192-13.706,68.276-38.594,93.16c-3.854,3.854-7.983,7.506-12.265,10.85c-22.919,17.885-51.645,27.737-80.886,27.737
	c-29.239,0-57.968-9.848-80.906-27.739c-4.276-3.332-8.404-6.982-12.27-10.848c-24.882-24.882-38.586-57.967-38.586-93.16
	c0-35.194,13.704-68.283,38.584-93.166C130.565,80.804,163.654,67.1,198.847,67.1 M198.847,34.975
	c-41.94,0-83.882,15.998-115.884,47.995c-63.992,64.003-63.992,167.767,0,231.759c4.862,4.862,9.948,9.349,15.238,13.471
	c29.509,23.015,65.085,34.525,100.654,34.525c35.578,0,71.146-11.509,100.65-34.536c5.279-4.123,10.365-8.61,15.217-13.46
	c64.004-63.992,64.004-167.756,0-231.759C282.727,50.973,240.788,34.975,198.847,34.975L198.847,34.975z"/>
<g>
</g>
<g>
</g>
<g>
</g>
<g>
</g>
<g>
</g>
<g>
</g>
<g>
</g>
<g>
</g>
<g>
</g>
<g>
</g>
<g>
</g>
<g>
</g>
<g>
</g>
<g>
</g>
<g>
</g>
</svg>
