<?xml version="1.0" encoding="iso-8859-1"?>
<!-- Generator: Adobe Illustrator 19.0.0, SVG Export Plug-In . SVG Version: 6.00 Build 0)  -->
<svg version="1.1" id="Capa_1" xmlns="http://www.w3.org/2000/svg" xmlns:xlink="http://www.w3.org/1999/xlink" x="0px" y="0px"
	 viewBox="0 0 512 512" style="enable-background:new 0 0 512 512;" xml:space="preserve">
<path style="fill:#5897D1;" d="M512,256c0,40.03-9.185,77.908-25.579,111.658c-1.264,2.602-2.57,5.183-3.918,7.743
	c-5.371,10.188-11.421,19.947-18.066,29.257c-6.834,9.571-14.315,18.651-22.382,27.167c-20.135,21.316-43.907,39.173-70.322,52.59
	c-12.737,6.457-26.081,11.891-39.926,16.175C307.848,508.008,282.394,512,256,512s-51.858-3.992-75.818-11.41
	c-13.845-4.284-27.188-9.718-39.915-16.185c-26.415-13.406-50.186-31.263-70.322-52.579c-8.067-8.526-15.548-17.596-22.382-27.167
	c-6.646-9.3-12.685-19.08-18.056-29.257c-1.358-2.57-2.675-5.162-3.939-7.774C9.174,333.887,0,296.02,0,256
	c0-40.03,9.185-77.908,25.569-111.658C45.505,103.278,76.1,68.336,113.758,43.123C154.436,15.882,203.358,0,256,0
	s101.564,15.882,142.242,43.123c37.648,25.213,68.242,60.134,88.179,101.198C502.805,178.072,512,215.97,512,256z"/>
<g>
	<path style="fill:#343A6E;" d="M220.912,405.703l-40.73,94.887c-13.845-4.284-27.188-9.718-39.915-16.185l33.782-78.702H220.912z"
		/>
	<path style="fill:#343A6E;" d="M371.733,484.415c-12.737,6.457-26.081,11.891-39.926,16.175l-40.73-94.887h46.864L371.733,484.415z
		"/>
</g>
<path style="fill:#F0F0F0;" d="M486.421,43.123v324.535c-1.264,2.602-2.57,5.183-3.918,7.743
	c-5.371,10.188-11.421,19.947-18.066,29.257H47.564c-6.646-9.3-12.685-19.08-18.056-29.257c-1.358-2.57-2.675-5.162-3.939-7.774
	V43.123H486.421z"/>
<rect x="25.57" y="43.123" style="fill:#D4D4D4;" width="460.852" height="50.155"/>
<path style="fill:#343A6E;" d="M501.603,30.783v28.86c0,7.607-6.165,13.782-13.782,13.782H24.168
	c-7.607,0-13.782-6.175-13.782-13.782v-28.86C10.386,23.176,16.562,17,24.168,17h463.653C495.438,17,501.603,23.176,501.603,30.783z
	"/>
<g>
	<path style="fill:#484B7F;" d="M501.603,30.783v13.187c0,7.607-6.165,13.782-13.782,13.782H24.168
		c-7.607,0-13.782-6.175-13.782-13.782V30.783C10.386,23.176,16.562,17,24.168,17h463.653C495.438,17,501.603,23.176,501.603,30.783
		z"/>
	<path style="fill:#484B7F;" d="M482.503,375.4c-3.009,5.705-6.228,11.285-9.665,16.718c-8.944,14.242-19.268,27.544-30.783,39.706
		H69.945c-11.515-12.173-21.838-25.464-30.783-39.706c-3.427-5.434-6.646-11.013-9.655-16.718H482.503z"/>
</g>
<path style="fill:#343A6E;" d="M482.503,375.4c-3.009,5.705-6.228,11.285-9.665,16.718H39.163
	c-3.427-5.434-6.646-11.013-9.655-16.718H482.503z"/>
<path style="fill:#F9DF73;" d="M99.38,310.794L83.483,297.23l100.306-117.545c1.892-2.217,4.624-3.543,7.536-3.658
	c2.917-0.121,5.74,0.992,7.801,3.052L302.267,282.22l110.227-133.744l16.127,13.291L311.077,304.388
	c-1.874,2.274-4.619,3.65-7.561,3.791c-2.954,0.142-5.809-0.966-7.891-3.048l-103.28-103.28L99.38,310.794z"/>
<g>
	<circle style="fill:#EF487D;" cx="303.01" cy="297.744" r="27.492"/>
	<circle style="fill:#EF487D;" cx="191.739" cy="186.472" r="27.492"/>
	<circle style="fill:#EF487D;" cx="91.429" cy="304.013" r="27.492"/>
	<circle style="fill:#EF487D;" cx="420.561" cy="155.126" r="27.492"/>
</g>
<g>
</g>
<g>
</g>
<g>
</g>
<g>
</g>
<g>
</g>
<g>
</g>
<g>
</g>
<g>
</g>
<g>
</g>
<g>
</g>
<g>
</g>
<g>
</g>
<g>
</g>
<g>
</g>
<g>
</g>
</svg>
