<?xml version="1.0" encoding="iso-8859-1"?>
<!-- Generator: Adobe Illustrator 19.0.0, SVG Export Plug-In . SVG Version: 6.00 Build 0)  -->
<svg version="1.1" id="Capa_1" xmlns="http://www.w3.org/2000/svg" xmlns:xlink="http://www.w3.org/1999/xlink" x="0px" y="0px"
	 viewBox="0 0 512.001 512.001" style="enable-background:new 0 0 512.001 512.001;" xml:space="preserve">
<path style="fill:#343A6E;" d="M509.919,256.001c0,60.67-21.188,116.386-56.591,160.156c0.01,0.01,0,0.021-0.021,0.031
	c-5.151,6.379-10.604,12.498-16.349,18.347c-46.257,47.162-110.704,76.425-181.999,76.425c-80.161,0-151.675-36.985-198.41-94.834
	C21.177,372.366,0,316.65,0,256.001C0,115.19,114.149,1.041,254.959,1.041S509.919,115.19,509.919,256.001z"/>
<path style="fill:#484B7F;" d="M464.791,210.873c0,49.931-17.437,95.786-46.574,131.809c0.008,0.008,0,0.017-0.017,0.026
	c-4.24,5.25-8.727,10.286-13.455,15.1c-38.07,38.813-91.11,62.897-149.786,62.897c-65.973,0-124.828-30.438-163.292-78.049
	c-29.111-36.014-46.54-81.869-46.54-131.783c0-115.887,93.945-209.832,209.832-209.832S464.791,94.986,464.791,210.873z"/>
<path style="fill:#EF487D;" d="M414.377,149.5c-44.02-44.02-101.713-66.029-159.417-66.029
	c-57.694-0.01-115.398,21.999-159.428,66.029c-72.19,72.2-85.188,181.188-38.983,266.625c46.736,57.85,118.249,94.834,198.41,94.834
	c80.13,0,151.623-36.964,198.348-94.772C499.585,330.74,486.598,221.721,414.377,149.5z M327.815,359.202
	c-2.987,4.329-6.421,8.461-10.271,12.311c-34.56,34.56-90.994,34.945-125.565,0.385c-34.56-34.56-34.165-90.994,0.395-125.554
	c17.285-17.285,39.93-25.933,62.585-25.933s45.3,8.637,62.585,25.923C348.264,277.053,351.688,324.715,327.815,359.202z"/>
<path style="fill:#F9DF73;" d="M254.959,83.462l0.007,136.944l-0.007,0.008c-22.65,0.008-45.307,8.652-62.579,25.925
	c-17.28,17.28-25.916,39.93-25.925,62.58H29.502c0.007-57.699,22.02-115.405,66.036-159.421
	C139.562,105.474,197.268,83.462,254.959,83.462z"/>
<path style="fill:#5897D1;" d="M453.328,416.157c0.01,0.01,0,0.021-0.021,0.031c-5.151,6.379-10.604,12.498-16.349,18.347
	l-109.143-75.333c23.873-34.487,20.449-82.149-10.271-112.869c-17.285-17.285-39.93-25.923-62.585-25.923V83.471
	c57.704,0,115.398,22.01,159.417,66.029C486.587,221.711,499.575,330.719,453.328,416.157z"/>
<g>
	<path style="fill:#F0F0F0;" d="M290.331,142.852c-1.86,0-3.743-0.498-5.444-1.545c-4.894-3.013-6.421-9.422-3.408-14.316
		l41.626-67.642c1.894-3.078,5.249-4.952,8.863-4.952h169.626c5.746,0,10.407,4.659,10.407,10.407
		c0,5.748-4.66,10.407-10.407,10.407H337.783l-38.578,62.69C297.239,141.093,293.827,142.852,290.331,142.852z"/>
	<path style="fill:#F0F0F0;" d="M222.71,193.844c-3.495,0-6.907-1.76-8.873-4.955l-38.578-62.69H11.447
		c-5.748,0-10.407-4.659-10.407-10.407s4.659-10.407,10.407-10.407h169.626c3.614,0,6.969,1.875,8.863,4.952l41.626,67.642
		c3.013,4.894,1.486,11.305-3.409,14.316C226.453,193.345,224.569,193.844,222.71,193.844z"/>
	<path style="fill:#F0F0F0;" d="M183.154,407.176c-2.663,0-5.327-1.017-7.358-3.048c-4.064-4.064-4.064-10.653,0-14.718l47.35-47.35
		c1.951-1.951,4.599-3.048,7.358-3.048h226.341c5.746,0,10.406,4.659,10.406,10.406s-4.66,10.406-10.406,10.406H234.814
		l-44.302,44.302C188.482,406.159,185.817,407.176,183.154,407.176z"/>
	<path style="fill:#F0F0F0;" d="M480.78,36.704H348.618c-5.746,0-10.406-4.659-10.406-10.407s4.66-10.407,10.406-10.407H480.78
		c5.746,0,10.407,4.659,10.407,10.407S486.527,36.704,480.78,36.704z"/>
	<path style="fill:#F0F0F0;" d="M154.016,89.777H21.854c-5.748,0-10.407-4.659-10.407-10.407s4.659-10.407,10.407-10.407h132.163
		c5.748,0,10.407,4.659,10.407,10.407S159.764,89.777,154.016,89.777z"/>
	<path style="fill:#F0F0F0;" d="M437.073,324.964H304.911c-5.746,0-10.406-4.659-10.406-10.407s4.66-10.406,10.406-10.406h132.163
		c5.746,0,10.406,4.659,10.406,10.406S442.82,324.964,437.073,324.964z"/>
</g>
<g>
</g>
<g>
</g>
<g>
</g>
<g>
</g>
<g>
</g>
<g>
</g>
<g>
</g>
<g>
</g>
<g>
</g>
<g>
</g>
<g>
</g>
<g>
</g>
<g>
</g>
<g>
</g>
<g>
</g>
</svg>
