<?xml version="1.0" encoding="iso-8859-1"?>
<!-- Generator: Adobe Illustrator 19.0.0, SVG Export Plug-In . SVG Version: 6.00 Build 0)  -->
<svg version="1.1" id="Capa_1" xmlns="http://www.w3.org/2000/svg" xmlns:xlink="http://www.w3.org/1999/xlink" x="0px" y="0px"
	 viewBox="0 0 512 512" style="enable-background:new 0 0 512 512;" xml:space="preserve">
<path style="fill:#D4D4D4;" d="M512,256c0,141.385-114.615,256-256,256c-52.537,0-101.366-15.82-142.002-42.966
	c-9.644-6.437-18.829-13.521-27.491-21.18c-20.888-18.463-38.734-40.281-52.694-64.616c-16.321-28.432-27.345-60.301-31.702-94.25
	C0.721,278.183,0,267.18,0,256C0,114.615,114.615,0,256,0S512,114.615,512,256z"/>
<circle style="fill:#F0F0F0;" cx="256" cy="209.648" r="209.638"/>
<path style="fill:#EF487D;" d="M322.873,308.715c0,67.197-72.276,121.678-161.437,121.678c-51.911,0-98.095-18.463-127.624-47.156
	c-16.321-28.432-27.345-60.301-31.702-94.25c12.507-57.814,79.078-101.951,159.326-101.951
	C250.598,187.037,322.873,241.518,322.873,308.715z"/>
<ellipse style="fill:#F9DF73;" cx="336.123" cy="132.556" rx="175.867" ry="132.556"/>
<path style="fill:#EF487D;" d="M159.295,405.744c-4.472,25.893-24.91,47.585-45.296,63.289c-9.644-6.437-18.829-13.521-27.491-21.18
	C86.288,422.306,75.86,400.05,75.86,400.05L159.295,405.744z"/>
<g>
	<path style="fill:#484B7F;" d="M169.21,299.575H60.957c-5.936,0-10.747-4.812-10.747-10.747l0,0
		c0-5.936,4.812-10.747,10.747-10.747H169.21c5.935,0,10.747,4.812,10.747,10.747l0,0
		C179.956,294.764,175.145,299.575,169.21,299.575z"/>
	<path style="fill:#484B7F;" d="M258.775,343.157H60.957c-5.936,0-10.747-4.812-10.747-10.747l0,0
		c0-5.936,4.812-10.747,10.747-10.747h197.818c5.936,0,10.747,4.812,10.747,10.747l0,0
		C269.523,338.345,264.711,343.157,258.775,343.157z"/>
</g>
<path style="fill:#F9DF73;" d="M429.36,232.062c0,0-18.95,40.426-8.442,76.823c2.547,8.824-7.035,16.121-14.775,11.175
	c-26.635-17.022-61.45-45.651-67.683-81.801"/>
<g>
	<path style="fill:#484B7F;" d="M230.083,122.601h117.933c6.467,0,11.708-5.242,11.708-11.708l0,0
		c0-6.467-5.242-11.708-11.708-11.708H230.083c-6.467,0-11.708,5.242-11.708,11.708l0,0
		C218.374,117.359,223.617,122.601,230.083,122.601z"/>
	<path style="fill:#484B7F;" d="M230.083,170.081h215.509c6.467,0,11.708-5.242,11.708-11.708l0,0
		c0-6.467-5.242-11.708-11.708-11.708H230.083c-6.467,0-11.708,5.242-11.708,11.708l0,0
		C218.374,164.839,223.617,170.081,230.083,170.081z"/>
</g>
<g>
</g>
<g>
</g>
<g>
</g>
<g>
</g>
<g>
</g>
<g>
</g>
<g>
</g>
<g>
</g>
<g>
</g>
<g>
</g>
<g>
</g>
<g>
</g>
<g>
</g>
<g>
</g>
<g>
</g>
</svg>
