<?xml version="1.0" encoding="iso-8859-1"?>
<!-- Generator: Adobe Illustrator 19.0.0, SVG Export Plug-In . SVG Version: 6.00 Build 0)  -->
<svg version="1.1" id="Capa_1" xmlns="http://www.w3.org/2000/svg" xmlns:xlink="http://www.w3.org/1999/xlink" x="0px" y="0px"
	 viewBox="0 0 512 512" style="enable-background:new 0 0 512 512;" xml:space="preserve">
<circle style="fill:#F2AE5A;" cx="256" cy="256" r="256"/>
<circle style="fill:#F9DF73;" cx="256" cy="213.671" r="213.671"/>
<path style="fill:#5897D1;" d="M478.995,165.789c0,146.994-92.807,272.291-222.994,320.578
	C125.79,438.081,33.005,312.784,33.005,165.789c0-34.252,5.033-67.323,14.41-98.517c5.013-16.677,25.129-23.29,39.096-12.89
	c0.793,0.59,1.588,1.178,2.387,1.762C138.295,92.268,205.694,91.899,255,55.65c0.333-0.246,0.667-0.491,1-0.738
	c0.311,0.231,0.623,0.461,0.934,0.691c49.29,36.299,116.722,36.671,166.13,0.533c0.804-0.587,1.604-1.179,2.402-1.773
	c13.965-10.402,34.081-3.79,39.097,12.886C473.949,98.449,478.995,131.535,478.995,165.789z"/>
<path style="fill:#9FC5E6;" d="M65.393,165.793c0,64.439,19.613,126.192,56.717,178.584c33.97,47.961,80.081,84.825,133.883,107.196
	h0.01c53.812-22.371,99.913-59.235,133.883-107.196c37.104-52.391,56.717-114.145,56.717-178.584
	c0-27.115-3.448-53.687-10.261-79.402c-28.39,18.965-61.367,28.944-95.869,28.944c-29.947,0-58.765-7.513-84.47-21.88
	c-25.684,14.357-54.502,21.87-84.449,21.87c-34.513,0-67.5-9.979-95.89-28.954C68.841,112.106,65.393,138.678,65.393,165.793z"/>
<path style="fill:#A9C7E0;" d="M256.003,93.455v358.118c53.812-22.371,99.913-59.235,133.883-107.196
	c37.104-52.391,56.717-114.145,56.717-178.584c0-27.115-3.448-53.687-10.261-79.402c-28.39,18.965-61.367,28.944-95.869,28.944
	C310.526,115.335,281.708,107.822,256.003,93.455z"/>
<path style="fill:#5897D1;" d="M320.517,298.413c0-66.227-83.31-61.233-83.31-87.513c0-8.147,7.62-15.769,26.28-15.769
	c21.551,0,26.544,9.987,36.004,9.987c11.564,0,16.294-14.455,16.294-21.551c0-13.229-15.977-18.995-31.055-21.435v-15.16
	c0-7.905-6.408-14.313-14.313-14.313h-17.586c-7.905,0-14.312,6.408-14.312,14.313v16.603c-23.267,6.175-42.31,21.955-42.31,51.267
	c0,61.496,83.309,55.977,83.309,87.777c0,12.615-13.403,17.345-25.491,17.345c-24.442,0-32.325-19.448-44.678-19.448
	c-9.987,0-17.871,13.14-17.871,22.075c0,14.514,20.266,28.619,47.041,32.852v12.769c0,7.905,6.408,14.312,14.312,14.312h17.586
	c7.904,0,14.313-6.408,14.313-14.312v-16.556C306.509,343.423,320.517,325.334,320.517,298.413z"/>
<g>
</g>
<g>
</g>
<g>
</g>
<g>
</g>
<g>
</g>
<g>
</g>
<g>
</g>
<g>
</g>
<g>
</g>
<g>
</g>
<g>
</g>
<g>
</g>
<g>
</g>
<g>
</g>
<g>
</g>
</svg>
