<?xml version="1.0" encoding="iso-8859-1"?>
<!-- Generator: Adobe Illustrator 19.0.0, SVG Export Plug-In . SVG Version: 6.00 Build 0)  -->
<svg version="1.1" id="Capa_1" xmlns="http://www.w3.org/2000/svg" xmlns:xlink="http://www.w3.org/1999/xlink" x="0px" y="0px"
	 viewBox="0 0 512 512" style="enable-background:new 0 0 512 512;" xml:space="preserve">
<path style="fill:#5897D1;" d="M512,256c0,50.166-14.43,96.967-39.372,136.464C427.29,464.29,347.22,512,256,512
	S84.699,464.29,39.361,392.453C14.43,352.956,0,306.155,0,256C0,114.615,114.615,0,256,0S512,114.615,512,256z"/>
<path style="fill:#9FC5E6;" d="M465.983,209.983c0,41.148-11.837,79.537-32.295,111.934C396.5,380.831,330.822,419.965,256,419.965
	s-140.508-39.134-177.696-98.057c-20.45-32.398-32.286-70.787-32.286-111.925C46.017,94.012,140.03,0,256,0
	S465.983,94.012,465.983,209.983z"/>
<polygon style="fill:#F9DF73;" points="345.831,172.837 256,17.241 166.163,172.837 "/>
<polygon style="fill:#EF487D;" points="435.661,328.432 361.98,200.81 150.012,200.81 76.326,328.432 "/>
<path style="fill:#343A6E;" d="M60.175,356.405l-20.813,36.048C84.699,464.29,164.78,512,256,512s171.29-47.71,216.628-119.536
	l-20.818-36.058H60.175z"/>
<g>
</g>
<g>
</g>
<g>
</g>
<g>
</g>
<g>
</g>
<g>
</g>
<g>
</g>
<g>
</g>
<g>
</g>
<g>
</g>
<g>
</g>
<g>
</g>
<g>
</g>
<g>
</g>
<g>
</g>
</svg>
