<?xml version="1.0" encoding="iso-8859-1"?>
<!-- Generator: Adobe Illustrator 19.0.0, SVG Export Plug-In . SVG Version: 6.00 Build 0)  -->
<svg version="1.1" id="Capa_1" xmlns="http://www.w3.org/2000/svg" xmlns:xlink="http://www.w3.org/1999/xlink" x="0px" y="0px"
	 viewBox="0 0 511.997 511.997" style="enable-background:new 0 0 511.997 511.997;" xml:space="preserve">
<circle style="fill:#EF487D;" cx="255.998" cy="255.998" r="255.998"/>
<circle style="fill:#FF668C;" cx="255.998" cy="215.603" r="215.603"/>
<path style="fill:#9FC5E6;" d="M463.162,406.433c-6.426,8.829-13.396,17.23-20.866,25.151
	c-10.94,11.598-22.946,22.173-35.861,31.577l-37.094-37.094c-7.837-7.826-11.755-18.098-11.755-28.369
	c0-10.261,3.918-20.522,11.755-28.358c15.663-15.663,41.064-15.663,56.727,0L463.162,406.433z"/>
<path style="fill:#5897D1;" d="M406.43,463.164c8.829-6.426,17.23-13.396,25.151-20.866l-39.236-39.236
	c-11.567-11.567-14.587-28.442-9.059-42.788c-5.089,1.954-9.853,4.963-13.949,9.07c-7.837,7.826-11.745,18.098-11.745,28.369
	c0,10.261,3.908,20.522,11.745,28.358L406.43,463.164z"/>
<circle style="fill:#484B7F;" cx="198.853" cy="198.853" r="198.853"/>
<path style="fill:#F0F0F0;" d="M311.917,311.922c-4.733,4.733-9.697,9.111-14.848,13.134c-3.417,2.664-6.917,5.172-10.491,7.513
	c-21.473,14.127-45.599,22.538-70.227,25.234c-11.692,1.275-23.5,1.264-35.192-0.021c-17.627-1.954-34.993-6.834-51.315-14.649
	c-6.478-3.093-12.789-6.646-18.892-10.668c-3.511-2.309-6.959-4.775-10.313-7.398c-5.162-4.023-10.125-8.401-14.869-13.145
	c-62.443-62.443-62.443-163.693,0-226.146c62.453-62.443,163.703-62.443,226.146,0C374.37,148.229,374.37,249.479,311.917,311.922z"
	/>
<path style="fill:#D4D4D4;" d="M152.327,311.921c-62.447-62.447-62.447-163.695,0-226.142
	c22.711-22.711,50.554-37.152,79.795-43.344c-51.164-10.834-106.61,3.608-146.348,43.344c-62.447,62.447-62.447,163.695,0,226.142
	c39.737,39.737,95.183,54.18,146.348,43.344C202.881,349.074,175.038,334.632,152.327,311.921z"/>
<g>
	<rect x="171.582" y="242.801" style="fill:#823728;" width="54.334" height="41.096"/>
	<path style="fill:#823728;" d="M262.967,201.461c0,30.709-21.556,56.382-50.364,62.714c-4.462,0.982-9.101,1.505-13.855,1.505
		c-35.464,0-64.219-28.755-64.219-64.219s28.755-64.209,64.219-64.209c4.754,0,9.394,0.522,13.855,1.505
		C241.411,145.089,262.967,170.752,262.967,201.461z"/>
</g>
<path style="fill:#965845;" d="M262.967,201.461c0,30.709-21.556,56.382-50.364,62.714c-28.808-6.332-50.364-32.005-50.364-62.714
	s21.556-56.372,50.364-62.704C241.411,145.089,262.967,170.752,262.967,201.461z"/>
<path style="fill:#9FC5E6;" d="M286.578,332.569c-53.133,34.952-122.514,34.91-175.625-0.104
	c7.795-28.243,28.86-50.98,56.069-61.095c9.885-3.678,20.574-5.684,31.733-5.684C240.676,265.686,275.983,294.002,286.578,332.569z"
	/>
<path style="fill:#5897D1;" d="M173.521,283.208c-17.335,5.329-34.67,24.283-43.676,59.925c-6.478-3.093-12.789-6.646-18.892-10.668
	c7.795-28.243,28.86-50.98,56.069-61.095L173.521,283.208z"/>
<polygon style="fill:#484B7F;" points="198.748,300.266 226.769,276.931 198.748,265.68 170.728,276.931 "/>
<g>
	<polygon style="fill:#5897D1;" points="198.748,265.68 169.334,302.705 149.133,267.875 	"/>
	<polygon style="fill:#5897D1;" points="198.748,265.68 228.161,302.705 248.363,267.875 	"/>
</g>
<path style="fill:#484B7F;" d="M216.351,357.803c-11.692,1.275-23.5,1.264-35.192-0.021l17.586-67.97L216.351,357.803z"/>
<path style="fill:#343A6E;" d="M287.986,109.931c0,32.601-26.425,59.026-59.026,59.026H143.3c0-32.601,26.425-59.026,59.026-59.026
	C202.326,109.931,287.986,109.931,287.986,109.931z"/>
<path style="fill:#484B7F;" d="M287.986,109.931c0,32.601-26.425,59.026-59.026,59.026h-68.764
	c0-32.601,26.425-59.026,59.026-59.026C219.221,109.931,287.986,109.931,287.986,109.931z"/>
<path style="fill:#9FC5E6;" d="M376.534,302.379l-74.156,74.156c-9.84,9.84-9.84,25.793,0,35.633l0,0
	c9.84,9.84,25.793,9.84,35.633,0l74.156-74.156c9.84-9.84,9.84-25.793,0-35.633l0,0
	C402.327,292.539,386.374,292.539,376.534,302.379z"/>
<path style="fill:#5897D1;" d="M332.767,381.78L332.767,381.78c-9.84-9.84-9.84-25.793,0-35.633l-30.389,30.389
	c-9.84,9.84-9.84,25.793,0,35.633l0,0c9.84,9.84,25.793,9.84,35.633,0L368.4,381.78C358.561,391.62,342.607,391.62,332.767,381.78z"
	/>
<path style="fill:#343A6E;" d="M198.847,67.1c35.193,0,68.277,13.704,93.16,38.586c24.887,24.887,38.593,57.975,38.593,93.168
	c0,35.192-13.706,68.276-38.594,93.16c-3.854,3.854-7.983,7.506-12.265,10.85c-22.919,17.885-51.645,27.737-80.886,27.737
	c-29.239,0-57.968-9.848-80.906-27.739c-4.276-3.332-8.404-6.982-12.27-10.848c-24.882-24.882-38.586-57.967-38.586-93.16
	c0-35.194,13.704-68.283,38.584-93.166C130.565,80.804,163.654,67.1,198.847,67.1 M198.847,34.975
	c-41.94,0-83.882,15.998-115.884,47.995c-63.992,64.003-63.992,167.767,0,231.759c4.862,4.862,9.948,9.349,15.238,13.471
	c29.509,23.015,65.085,34.525,100.654,34.525c35.578,0,71.146-11.509,100.65-34.536c5.279-4.123,10.365-8.61,15.217-13.46
	c64.004-63.992,64.004-167.756,0-231.759C282.727,50.973,240.788,34.975,198.847,34.975L198.847,34.975z"/>
<g>
</g>
<g>
</g>
<g>
</g>
<g>
</g>
<g>
</g>
<g>
</g>
<g>
</g>
<g>
</g>
<g>
</g>
<g>
</g>
<g>
</g>
<g>
</g>
<g>
</g>
<g>
</g>
<g>
</g>
</svg>
