<?xml version="1.0" encoding="iso-8859-1"?>
<!-- Generator: Adobe Illustrator 19.0.0, SVG Export Plug-In . SVG Version: 6.00 Build 0)  -->
<svg version="1.1" id="Capa_1" xmlns="http://www.w3.org/2000/svg" xmlns:xlink="http://www.w3.org/1999/xlink" x="0px" y="0px"
	 viewBox="0 0 512 512" style="enable-background:new 0 0 512 512;" xml:space="preserve">
<path style="fill:#D4D4D4;" d="M512,256c0,107.865-66.717,200.161-161.134,237.85c-12.058,4.807-24.566,8.735-37.439,11.682
	c-5.486,1.254-11.045,2.33-16.656,3.229C283.502,510.892,269.876,512,256,512c-13.887,0-27.512-1.108-40.793-3.229
	c-12.643-2.017-24.973-4.984-36.927-8.788c-0.157-0.042-0.313-0.094-0.47-0.146c-5.653-1.808-11.212-3.814-16.687-5.998
	C66.706,456.15,0,363.865,0,256C0,114.615,114.615,0,256,0S512,114.615,512,256z"/>
<path style="fill:#F0F0F0;" d="M461.464,205.464c0,86.572-53.546,160.648-129.325,190.897c-9.678,3.858-19.716,7.011-30.048,9.376
	c-4.403,1.006-8.864,1.87-13.367,2.591c-10.651,1.711-21.587,2.6-32.723,2.6c-11.145,0-22.081-0.889-32.74-2.591
	c-10.147-1.619-20.043-4-29.637-7.053c-0.125-0.033-0.252-0.075-0.377-0.117c-4.537-1.45-8.999-3.061-13.392-4.814
	c-75.778-30.25-129.317-104.317-129.317-190.888C50.536,91.989,142.525,0,256,0S461.464,91.989,461.464,205.464z"/>
<g>
	<rect x="227.704" y="300.711" style="fill:#E5A379;" width="56.592" height="42.808"/>
	<path style="fill:#E5A379;" d="M322.887,257.654c0,31.986-22.453,58.727-52.458,65.323c-4.648,1.023-9.479,1.567-14.431,1.567
		c-36.938,0-66.89-29.951-66.89-66.89s29.951-66.879,66.89-66.879c4.952,0,9.784,0.544,14.431,1.567
		C300.434,198.938,322.887,225.668,322.887,257.654z"/>
</g>
<path style="fill:#F9D5A9;" d="M322.887,257.654c0,31.986-22.453,58.727-52.458,65.323c-30.005-6.595-52.458-33.336-52.458-65.323
	s22.453-58.716,52.458-65.312C300.434,198.938,322.887,225.668,322.887,257.654z"/>
<path style="fill:#9FC5E6;" d="M350.866,419.412v74.439C321.526,505.563,289.52,512,256,512s-65.536-6.437-94.877-18.16v-74.428
	c0-40.772,25.715-75.525,61.816-88.942c10.303-3.835,21.431-5.925,33.061-5.925C308.391,324.545,350.866,367.01,350.866,419.412z"/>
<g>
	<path style="fill:#5897D1;" d="M178.197,485.731c0.293,5.204,0.313,9.947,0.084,14.252c-0.157-0.042-0.313-0.094-0.47-0.146
		c-5.653-1.808-11.212-3.814-16.687-5.998v-74.428c0-40.772,25.715-75.525,61.816-88.942l6.771,12.33
		C201.415,351.504,173.119,395.034,178.197,485.731z"/>
	<rect x="205.04" y="485.731" style="fill:#5897D1;" width="104.479" height="16.688"/>
</g>
<path style="fill:#E5A379;" d="M215.249,485.731v21.608c0,0.481-0.01,0.961-0.042,1.431c-12.81-2.048-25.297-5.057-37.397-8.934
	c-5.653-1.808-11.212-3.814-16.687-5.998v-8.108H215.249z"/>
<path style="fill:#F9D5A9;" d="M215.249,485.731v21.608c0,0.481-0.01,0.961-0.042,1.431c-12.81-2.048-25.297-5.057-37.397-8.934
	v-14.106H215.249z"/>
<path style="fill:#E5A379;" d="M350.866,485.731v8.119c-12.058,4.807-24.566,8.735-37.439,11.682
	c-5.486,1.254-11.045,2.33-16.656,3.229c-0.021-0.47-0.031-0.94-0.031-1.411v-21.619L350.866,485.731L350.866,485.731z"/>
<path style="fill:#F9D5A9;" d="M350.866,485.731v8.119c-12.058,4.807-24.566,8.735-37.439,11.682v-19.801L350.866,485.731
	L350.866,485.731z"/>
<polygon style="fill:#EF487D;" points="255.997,360.569 285.182,336.263 255.997,324.544 226.811,336.263 "/>
<g>
	<polygon style="fill:#5897D1;" points="255.997,324.544 225.359,363.108 204.318,326.83 	"/>
	<polygon style="fill:#5897D1;" points="255.997,324.544 286.633,363.108 307.675,326.83 	"/>
</g>
<polygon style="fill:#EF487D;" points="255.997,459.97 279.377,440.018 255.997,349.684 232.615,440.018 "/>
<g>
	<path style="fill:#5897D1;" d="M210.147,388.503L210.147,388.503c2.818,0,5.103,2.285,5.103,5.103v92.122h-10.207v-92.122
		C205.043,390.788,207.329,388.503,210.147,388.503z"/>
	<path style="fill:#5897D1;" d="M301.846,388.503L301.846,388.503c2.818,0,5.103,2.285,5.103,5.103v92.122h-10.207v-92.122
		C296.743,390.788,299.028,388.503,301.846,388.503z"/>
</g>
<path style="fill:#343A6E;" d="M348.945,162.324c0,33.946-27.525,61.47-61.47,61.47H198.24c0-33.946,27.525-61.47,61.481-61.47
	H348.945z"/>
<path style="fill:#484B7F;" d="M348.945,162.324c0,33.946-27.525,61.47-61.47,61.47h-75.64c0-33.946,27.525-61.47,61.481-61.47
	H348.945z"/>
<path style="fill:#EF487D;" d="M246.742,5.346l-28.1,48.671c-4.115,7.127,1.028,16.036,9.258,16.036l0,0
	c5.904,0,10.69,4.787,10.69,10.69v49.287c0,5.403,4.38,9.783,9.783,9.783h15.252c5.403,0,9.783-4.38,9.783-9.783V80.742
	c0-5.904,4.787-10.69,10.69-10.69l0,0c8.23,0,13.373-8.909,9.258-16.036l-28.099-48.67C261.143-1.782,250.857-1.782,246.742,5.346z"
	/>
<path style="fill:#484B7F;" d="M474.105,76.836l-54.286,14.546c-7.95,2.13-10.612,12.066-4.792,17.886l0,0
	c4.174,4.174,4.174,10.943,0,15.119l-34.85,34.85c-3.821,3.821-3.821,10.015,0,13.835l10.785,10.785
	c3.821,3.821,10.015,3.821,13.836,0l34.85-34.85c4.175-4.174,10.943-4.174,15.119,0l0,0c5.819,5.819,15.756,3.157,17.886-4.792
	l14.546-54.286C489.328,81.98,482.054,74.705,474.105,76.836z"/>
<path style="fill:#5897D1;" d="M24.802,89.928l14.546,54.286c2.13,7.95,12.066,10.612,17.886,4.792l0,0
	c4.174-4.174,10.943-4.174,15.119,0l34.85,34.85c3.821,3.821,10.015,3.821,13.835,0l10.785-10.785
	c3.821-3.821,3.821-10.015,0-13.835l-34.85-34.85c-4.174-4.174-4.174-10.943,0-15.119l0,0c5.819-5.819,3.157-15.756-4.792-17.886
	L37.895,76.836C29.946,74.705,22.672,81.98,24.802,89.928z"/>
<g>
</g>
<g>
</g>
<g>
</g>
<g>
</g>
<g>
</g>
<g>
</g>
<g>
</g>
<g>
</g>
<g>
</g>
<g>
</g>
<g>
</g>
<g>
</g>
<g>
</g>
<g>
</g>
<g>
</g>
</svg>
