<?xml version="1.0" encoding="iso-8859-1"?>
<!-- Generator: Adobe Illustrator 19.0.0, SVG Export Plug-In . SVG Version: 6.00 Build 0)  -->
<svg version="1.1" id="Capa_1" xmlns="http://www.w3.org/2000/svg" xmlns:xlink="http://www.w3.org/1999/xlink" x="0px" y="0px"
	 viewBox="0 0 512.001 512.001" style="enable-background:new 0 0 512.001 512.001;" xml:space="preserve">
<circle style="fill:#5897D1;" cx="256" cy="256.001" r="256"/>
<path style="fill:#343A6E;" d="M512,256.001c0,37.731-8.161,73.561-22.821,105.817v0.01c-1.024,2.247-2.079,4.472-3.166,6.677
	c-2.048,4.18-4.211,8.307-6.478,12.351l-0.01,0.01c-14.984,26.77-34.638,50.573-57.866,70.301
	C377.02,489.107,319.185,512.001,256,512.001c-13.03,0-25.819-0.972-38.316-2.853c-19.665-2.947-38.588-8.129-56.519-15.287h-0.01
	c-21.494-8.589-41.566-19.999-59.726-33.771c0,0,0,0-0.01,0c-33.708-25.579-60.876-59.298-78.587-98.252
	C8.171,329.582,0,293.742,0,256.001c0-141.385,114.615-256,256-256S512,114.616,512,256.001z"/>
<path style="fill:#484B7F;" d="M460.419,204.419c0,30.129-6.516,58.739-18.222,84.496v0.008c-0.818,1.794-1.66,3.571-2.529,5.331
	c-1.635,3.337-3.362,6.633-5.173,9.862l-0.008,0.008c-11.964,21.377-27.658,40.383-46.206,56.136
	c-35.644,30.296-81.826,48.576-132.28,48.576c-10.404,0-20.617-0.776-30.596-2.278c-15.703-2.353-30.813-6.491-45.13-12.207h-0.008
	c-17.162-6.859-33.191-15.97-47.692-26.967c0,0,0,0-0.008,0c-26.917-20.425-48.61-47.35-62.752-78.455
	c-11.706-25.757-18.23-54.375-18.23-84.512C51.582,91.521,143.103,0.001,256,0.001S460.419,91.521,460.419,204.419z"/>
<path style="fill:#9FC5E6;" d="M489.18,361.818C448.909,450.404,359.654,512.001,256,512.001
	c-103.643,0-192.899-61.586-233.169-150.162c10.083-46.498,34.137-90.436,71.868-125.043c26.3-24.127,56.56-41.253,88.44-51.451
	c85.901-27.47,183.756-4.817,248.717,65.996C461.469,283.628,480.518,321.871,489.18,361.818z"/>
<g>
	<path style="fill:#F9DF73;" d="M267.233,330.763c-30.793,54.418-87.97,61.053-87.562,104.312
		c0.303,32.664,34.576,45.38,38.013,74.073c-19.665-2.947-38.588-8.129-56.519-15.287h-0.01
		c-21.494-8.589-41.566-19.999-59.726-33.771c22.915-11.212,43.217-27,53.154-49.998c26.551-61.43-104.187-101.334-59.883-173.296
		c26.3-24.127,56.56-41.253,88.44-51.451c22.977,2.048,43.353,13.855,54.93,30.396C238.07,215.741,298.026,276.345,267.233,330.763z
		"/>
	<path style="fill:#F9DF73;" d="M486.014,368.505c-2.048,4.18-4.211,8.307-6.478,12.351l-0.01,0.01
		c-14.984,26.77-34.638,50.573-57.866,70.301c-11.045-16.196-26.843-28.233-23.468-44.199c4.462-21.096,58.013-33.081,81.398-37.355
		C482.116,369.153,484.29,368.787,486.014,368.505z"/>
</g>
<g>
	<path style="fill:#449BCC;" d="M430.164,249.522c-49.465-52.506-123.047-69.12-187.726-48.441
		c-24.283,7.764-47.323,20.814-67.354,39.184c-53.53,49.1-70.917,122.849-50.73,187.914c7.314,23.562,19.56,45.986,36.801,65.682
		c-21.494-8.589-41.566-19.999-59.726-33.771c-33.708-25.569-60.886-59.298-78.597-98.252
		c10.083-46.498,34.137-90.436,71.868-125.043c26.3-24.127,56.56-41.253,88.44-51.451
		C268.299,158.115,365.213,180.141,430.164,249.522z"/>
	<path style="fill:#449BCC;" d="M489.18,361.818v0.01c-2.957,6.489-6.175,12.842-9.644,19.028
		c0.502-13.636-0.533-27.335-3.093-40.803c-5.904-31.065-19.989-60.97-42.392-86.277C462.42,285.54,480.737,322.874,489.18,361.818z
		"/>
</g>
<g>
	<path style="fill:#5897D1;" d="M430.164,249.522c-49.465-52.506-123.047-69.12-187.726-48.441
		c-24.283,7.764-47.323,20.814-67.354,39.184c-53.53,49.1-70.917,122.849-50.73,187.914c7.314,23.562,19.56,45.986,36.812,65.682
		C99.767,469.358,50.082,421.784,22.831,361.839c10.083-46.498,34.137-90.436,71.868-125.043c26.3-24.127,56.56-41.253,88.44-51.451
		C268.299,158.115,365.213,180.141,430.164,249.522z"/>
	<path style="fill:#5897D1;" d="M489.18,361.818v0.01c-2.957,6.489-6.175,12.842-9.644,19.028
		c0.502-13.636-0.533-27.335-3.093-40.803c-5.904-31.065-19.989-60.97-42.392-86.277C462.42,285.54,480.737,322.874,489.18,361.818z
		"/>
</g>
<path style="fill:#F2AE5A;" d="M183.149,185.34c18.034,1.61,34.469,9.236,46.304,20.45c-19.497,7.933-37.945,19.409-54.367,34.471
	c-27.554,25.273-45.53,57.078-53.743,90.863c-25.066-27.787-49.82-56.67-26.638-94.334
	C121.008,212.675,151.259,195.543,183.149,185.34z"/>
<path style="fill:#F9D481;" d="M161.155,493.861c-21.494-8.589-41.566-19.999-59.726-33.771
	c10.062-4.921,19.623-10.731,28.014-17.638C136.882,460.78,147.435,478.188,161.155,493.861z"/>
<path style="fill:#FF668C;" d="M291.42,106.634c-2.629-142.178-216.587-142.178-219.216,0c-0.022,1.181-0.032,2.365-0.032,3.552
	c0,75.929,44.926,141.355,109.641,171.174c64.715-29.819,109.641-95.246,109.641-171.174
	C291.454,108.999,291.442,107.815,291.42,106.634z"/>
<path style="fill:#EF487D;" d="M264.214,113.718c0,30.24-16.287,56.673-40.569,70.999c-12.263,7.247-26.562,11.401-41.831,11.401
	s-29.575-4.153-41.838-11.401c-24.281-14.326-40.569-40.759-40.569-70.999c0-45.509,36.897-82.4,82.407-82.4
	S264.214,68.209,264.214,113.718z"/>
<path style="fill:#F0F0F0;" d="M251.297,113.718c0,25.5-13.734,47.788-34.209,59.868c-10.34,6.112-22.398,9.614-35.274,9.614
	c-12.875,0-24.939-3.503-35.279-9.614c-20.475-12.08-34.209-34.37-34.209-59.868c0-38.375,31.113-69.483,69.489-69.483
	S251.297,75.343,251.297,113.718z"/>
<path style="fill:#E5A654;" d="M215.301,113.768c0,15.957-11.17,29.318-26.123,32.671c-2.368,0.537-4.831,0.815-7.362,0.815
	c-18.495,0-33.486-14.997-33.486-33.486c0-18.495,14.99-33.486,33.486-33.486c2.532,0,4.995,0.278,7.362,0.815
	C204.131,84.45,215.301,97.805,215.301,113.768z"/>
<path style="fill:#F9C682;" d="M215.301,113.768c0,15.957-11.17,29.318-26.123,32.671c-14.946-3.353-26.116-16.714-26.116-32.671
	c0-15.963,11.17-29.318,26.116-32.671C204.131,84.45,215.301,97.805,215.301,113.768z"/>
<path style="fill:#5897D1;" d="M217.087,173.585c-10.343,6.113-22.397,9.617-35.273,9.617c-8.834,0-17.283-1.648-25.056-4.66
	c-3.561-1.376-6.978-3.038-10.223-4.957c6.15-13.324,19.632-22.574,35.279-22.574c2.121,0,4.199,0.17,6.227,0.498
	C200.973,153.595,211.771,162.069,217.087,173.585z"/>
<path style="fill:#9FC5E6;" d="M217.087,173.585c-10.343,6.113-22.397,9.617-35.273,9.617c-8.834,0-17.283-1.648-25.056-4.66
	c3.448-17.378,18.015-25.107,31.282-27.033C200.973,153.595,211.771,162.069,217.087,173.585z"/>
<path style="fill:#343A6E;" d="M228.737,68.322h-47.573c-15.366,0-27.824,12.457-27.824,27.824l0,0h47.573
	C216.28,96.146,228.737,83.689,228.737,68.322L228.737,68.322z"/>
<g>
</g>
<g>
</g>
<g>
</g>
<g>
</g>
<g>
</g>
<g>
</g>
<g>
</g>
<g>
</g>
<g>
</g>
<g>
</g>
<g>
</g>
<g>
</g>
<g>
</g>
<g>
</g>
<g>
</g>
</svg>
