<?xml version="1.0" encoding="iso-8859-1"?>
<!-- Generator: Adobe Illustrator 19.0.0, SVG Export Plug-In . SVG Version: 6.00 Build 0)  -->
<svg version="1.1" id="Capa_1" xmlns="http://www.w3.org/2000/svg" xmlns:xlink="http://www.w3.org/1999/xlink" x="0px" y="0px"
	 viewBox="0 0 512 512" style="enable-background:new 0 0 512 512;" xml:space="preserve">
<path style="fill:#EF487D;" d="M512,256c0,43.959-11.076,85.326-30.605,121.469c-4.974,9.237-10.512,18.129-16.562,26.634
	C418.45,469.4,342.194,512,256,512c-58.065,0-111.595-19.32-154.54-51.9c-9.415-7.126-18.317-14.9-26.645-23.249
	c-10.094-10.115-19.352-21.065-27.648-32.747c-6.05-8.505-11.588-17.398-16.562-26.634C11.076,341.326,0,299.959,0,256
	c0-70.604,28.578-134.541,74.815-180.851C83.143,66.8,92.045,59.026,101.46,51.9C144.405,19.32,197.935,0,256,0
	C397.385,0,512,114.615,512,256z"/>
<path style="fill:#FF668C;" d="M474.108,218.108c0,37.452-9.436,72.697-26.075,103.49c-4.237,7.87-8.956,15.446-14.11,22.692
	C394.404,399.92,329.435,436.216,256,436.216c-49.471,0-95.077-16.46-131.665-44.218c-8.021-6.072-15.606-12.694-22.701-19.808
	c-8.6-8.617-16.487-17.947-23.555-27.9c-5.154-7.246-9.872-14.822-14.11-22.692c-16.639-30.793-26.075-66.038-26.075-103.49
	c0-60.154,24.348-114.626,63.741-154.082c7.095-7.113,14.68-13.736,22.701-19.808C160.923,16.46,206.529,0,256,0
	C376.458,0,474.108,97.65,474.108,218.108z"/>
<polygon style="fill:#F0F0F0;" points="98.355,397.795 80.645,386.7 162.954,255.322 268.131,162.906 366.184,188.011 
	461.96,44.418 479.346,56.013 375.351,211.928 273.637,185.887 179.042,269.005 "/>
<g>
	<path style="fill:#484B7F;" d="M101.46,0v460.1c-9.415-7.126-18.317-14.9-26.645-23.249V0H101.46z"/>
	<path style="fill:#484B7F;" d="M481.395,377.469c-4.974,9.237-10.512,18.129-16.562,26.634H47.167
		c-6.05-8.505-11.588-17.398-16.562-26.634H481.395z"/>
</g>
<g>
	<circle style="fill:#F9DF73;" cx="170.998" cy="262.165" r="25.076"/>
	<circle style="fill:#F9DF73;" cx="270.879" cy="174.393" r="25.076"/>
	<circle style="fill:#F9DF73;" cx="370.772" cy="199.973" r="25.076"/>
	<circle style="fill:#F9DF73;" cx="470.653" cy="50.218" r="25.077"/>
</g>
<g>
</g>
<g>
</g>
<g>
</g>
<g>
</g>
<g>
</g>
<g>
</g>
<g>
</g>
<g>
</g>
<g>
</g>
<g>
</g>
<g>
</g>
<g>
</g>
<g>
</g>
<g>
</g>
<g>
</g>
</svg>
