<?xml version="1.0" encoding="iso-8859-1"?>
<!-- Generator: Adobe Illustrator 19.0.0, SVG Export Plug-In . SVG Version: 6.00 Build 0)  -->
<svg version="1.1" id="Capa_1" xmlns="http://www.w3.org/2000/svg" xmlns:xlink="http://www.w3.org/1999/xlink" x="0px" y="0px"
	 viewBox="0 0 512 512" style="enable-background:new 0 0 512 512;" xml:space="preserve">
<path style="fill:#F2AE5A;" d="M511.999,255.999c0,54.972-17.335,105.911-46.832,147.633
	c-26.133,36.958-61.806,66.685-103.445,85.587c-17.084,7.753-35.171,13.688-54.011,17.554c-16.708,3.427-34.001,5.224-51.712,5.224
	c-17.721,0-35.014-1.797-51.722-5.224c-18.839-3.866-36.927-9.801-54.011-17.565c-41.629-18.902-77.301-48.629-103.434-85.577
	c-9.603-13.594-17.93-28.17-24.774-43.541c-4.368-9.78-8.129-19.884-11.243-30.271c-7.043-23.374-10.815-48.159-10.815-73.822
	c0-77.03,34.022-146.108,87.855-193.034c8.286-7.231,17.042-13.928,26.216-20.052C154.687,15.799,203.494,0,256,0
	c59.737,0,114.677,20.449,158.229,54.742c8.474,6.666,16.509,13.855,24.064,21.525C483.871,122.483,511.999,185.96,511.999,255.999z
	"/>
<circle style="fill:#F9DF73;" cx="255.988" cy="220.118" r="220.118"/>
<g>
	<path style="fill:#343A6E;" d="M361.729,362.475v126.735c41.629-18.902,77.301-48.629,103.434-85.577v-41.158H361.729z"/>
	<path style="fill:#343A6E;" d="M204.284,256.001v250.775c16.708,3.427,34.001,5.224,51.712,5.224
		c17.721,0,35.014-1.797,51.722-5.224V256.001H204.284z"/>
	<path style="fill:#343A6E;" d="M46.829,147.76v255.874c26.133,36.958,61.806,66.685,103.445,85.587V147.76L46.829,147.76
		L46.829,147.76z"/>
</g>
<path style="fill:#EF487D;" d="M483.683,311.463l-28.139-66.987c-2.251-5.358-9.458-6.271-12.974-1.643l-7.706,10.147
	c-2.431,3.202-6.944,3.936-10.266,1.672l-1.978-1.349L114.071,42.914c-9.174,6.123-17.93,12.821-26.216,20.052l310.7,211.863
	l6.425,4.38c3.57,2.435,4.373,7.363,1.76,10.804l-8.113,10.683c-3.515,4.629-0.701,11.327,5.065,12.057l72.082,9.124
	C481.54,322.607,485.933,316.822,483.683,311.463z"/>
<g>
</g>
<g>
</g>
<g>
</g>
<g>
</g>
<g>
</g>
<g>
</g>
<g>
</g>
<g>
</g>
<g>
</g>
<g>
</g>
<g>
</g>
<g>
</g>
<g>
</g>
<g>
</g>
<g>
</g>
</svg>
