<?xml version="1.0" encoding="iso-8859-1"?>
<!-- Generator: Adobe Illustrator 19.0.0, SVG Export Plug-In . SVG Version: 6.00 Build 0)  -->
<svg version="1.1" id="Capa_1" xmlns="http://www.w3.org/2000/svg" xmlns:xlink="http://www.w3.org/1999/xlink" x="0px" y="0px"
	 viewBox="0 0 512 512" style="enable-background:new 0 0 512 512;" xml:space="preserve">
<path style="fill:#5897D1;" d="M512,256c0,44.084-11.149,85.577-30.772,121.793C437.917,457.718,353.29,512,256,512
	c-97.301,0-181.927-54.282-225.238-134.228C11.139,341.556,0,300.074,0,256C0,114.615,114.615,0,256,0S512,114.615,512,256z"/>
<path style="fill:#9FC5E6;" d="M465.446,209.446c0,36.068-9.122,70.014-25.176,99.645C404.835,374.481,335.598,418.892,256,418.892
	c-79.607,0-148.844-44.411-184.278-109.818c-16.055-29.63-25.167-63.568-25.167-99.628C46.554,93.772,140.326,0,256,0
	S465.446,93.772,465.446,209.446z"/>
<circle style="fill:#965845;" cx="255.99" cy="105.441" r="48.606"/>
<path style="fill:#FF668C;" d="M312.369,215.876c0-31.135-25.241-56.375-56.375-56.375s-56.376,25.241-56.376,56.375"/>
<path style="fill:#823728;" d="M266.446,152.915c-3.365,0.742-6.865,1.128-10.449,1.128c-26.843,0-48.609-21.765-48.609-48.609
	s21.765-48.598,48.609-48.598c3.584,0,7.084,0.387,10.449,1.128c-21.817,4.775-38.16,24.21-38.16,47.47
	S244.628,148.139,266.446,152.915z"/>
<path style="fill:#343A6E;" d="M324.106,39.476h-69.055c-22.305,0-40.387,18.082-40.387,40.387l0,0h69.055
	C306.024,79.863,324.106,61.781,324.106,39.476L324.106,39.476z"/>
<circle style="fill:#F9D5A9;" cx="103.205" cy="161.865" r="48.606"/>
<path style="fill:#F0F0F0;" d="M159.583,272.296c0-31.135-25.241-56.375-56.375-56.375s-56.375,25.241-56.375,56.375"/>
<path style="fill:#E5A379;" d="M113.66,209.335c-3.365,0.742-6.865,1.128-10.449,1.128c-26.843,0-48.609-21.765-48.609-48.609
	s21.765-48.598,48.609-48.598c3.584,0,7.084,0.387,10.449,1.128c-21.817,4.775-38.16,24.21-38.16,47.47
	S91.842,204.56,113.66,209.335z"/>
<path style="fill:#EF487D;" d="M171.321,95.896h-69.055c-22.305,0-40.387,18.082-40.387,40.387l0,0h69.055
	C153.24,136.283,171.321,118.201,171.321,95.896L171.321,95.896z"/>
<circle style="fill:#F9C682;" cx="402.871" cy="187.988" r="48.606"/>
<path style="fill:#484B7F;" d="M459.243,298.421c0-31.135-25.241-56.375-56.375-56.375s-56.375,25.241-56.375,56.375"/>
<path style="fill:#E5A654;" d="M413.32,235.458c-3.365,0.742-6.865,1.128-10.449,1.128c-26.843,0-48.609-21.765-48.609-48.609
	s21.765-48.598,48.609-48.598c3.584,0,7.084,0.387,10.449,1.128c-21.817,4.775-38.16,24.21-38.16,47.47
	S391.502,230.684,413.32,235.458z"/>
<path style="fill:#D4D4D4;" d="M470.98,122.02h-69.055c-22.305,0-40.387,18.082-40.387,40.387l0,0h69.055
	C452.9,162.406,470.98,144.324,470.98,122.02L470.98,122.02z"/>
<path style="fill:#343A6E;" d="M481.228,344.127v33.667c-9.864,18.202-21.859,35.067-35.673,50.26
	c-2.194,2.424-4.451,4.817-6.75,7.158C392.349,482.597,327.607,512,256,512c-97.301,0-181.927-54.282-225.238-134.228v-61.858
	c0-8.913,7.22-16.133,16.133-16.133h122.441c8.913,0,16.133-7.22,16.133-16.133v-27.031c0-8.913,7.22-16.133,16.133-16.133h108.784
	c8.913,0,16.133,7.22,16.133,16.133v55.244c0,8.913,7.22,16.133,16.133,16.133h122.441
	C474.008,327.993,481.228,335.214,481.228,344.127z"/>
<g>
	<path style="fill:#484B7F;" d="M259.914,354.421h-7.839c-3.984,0-7.215-3.23-7.215-7.215v-63.508c0-3.984,3.23-7.215,7.215-7.215
		h7.839c3.984,0,7.215,3.23,7.215,7.215v63.508C267.128,351.19,263.898,354.421,259.914,354.421z"/>
	<path style="fill:#484B7F;" d="M80.989,408.059H73.15c-3.984,0-7.215-3.23-7.215-7.215v-63.508c0-3.984,3.23-7.215,7.215-7.215
		h7.839c3.984,0,7.215,3.23,7.215,7.215v63.508C88.204,404.829,84.973,408.059,80.989,408.059z"/>
	<path style="fill:#484B7F;" d="M116.516,408.059h-7.839c-3.984,0-7.215-3.23-7.215-7.215v-63.508c0-3.984,3.23-7.215,7.215-7.215
		h7.839c3.984,0,7.215,3.23,7.215,7.215v63.508C123.731,404.829,120.5,408.059,116.516,408.059z"/>
	<path style="fill:#484B7F;" d="M366.769,435.226h-7.839c-3.984,0-7.215-3.23-7.215-7.215v-63.508c0-3.984,3.23-7.215,7.215-7.215
		h7.839c3.984,0,7.215,3.23,7.215,7.215v63.508C373.984,431.996,370.753,435.226,366.769,435.226z"/>
	<path style="fill:#484B7F;" d="M402.556,435.226h-7.839c-3.984,0-7.215-3.23-7.215-7.215v-63.508c0-3.984,3.23-7.215,7.215-7.215
		h7.839c3.984,0,7.215,3.23,7.215,7.215v63.508C409.771,431.996,406.54,435.226,402.556,435.226z"/>
	<path style="fill:#484B7F;" d="M445.555,364.502v63.551c-2.194,2.424-4.451,4.817-6.75,7.158c-0.157,0.021-0.303,0.021-0.46,0.021
		h-7.837c-3.992,0-7.22-3.239-7.22-7.22v-63.509c0-3.981,3.229-7.21,7.22-7.21h7.837
		C442.326,357.292,445.555,360.521,445.555,364.502z"/>
</g>
<g>
</g>
<g>
</g>
<g>
</g>
<g>
</g>
<g>
</g>
<g>
</g>
<g>
</g>
<g>
</g>
<g>
</g>
<g>
</g>
<g>
</g>
<g>
</g>
<g>
</g>
<g>
</g>
<g>
</g>
</svg>
