<?xml version="1.0" encoding="iso-8859-1"?>
<!-- Generator: Adobe Illustrator 19.0.0, SVG Export Plug-In . SVG Version: 6.00 Build 0)  -->
<svg version="1.1" id="Capa_1" xmlns="http://www.w3.org/2000/svg" xmlns:xlink="http://www.w3.org/1999/xlink" x="0px" y="0px"
	 viewBox="0 0 512 512" style="enable-background:new 0 0 512 512;" xml:space="preserve">
<path style="fill:#D4D4D4;" d="M512,256c0,103.518-61.45,192.69-149.859,233.023C329.801,503.777,293.867,512,256,512
	s-73.801-8.223-106.141-22.977C61.45,448.69,0,359.518,0,256C0,114.615,114.615,0,256,0S512,114.615,512,256z"/>
<path style="fill:#F0F0F0;" d="M462.508,206.508c0,83.505-49.57,155.438-120.887,187.973
	c-26.088,11.901-55.074,18.535-85.621,18.535s-59.533-6.634-85.621-18.535C99.062,361.946,49.492,290.014,49.492,206.508
	C49.492,92.457,141.948,0,256,0S462.508,92.457,462.508,206.508z"/>
<g>
	<rect x="227.694" y="138.397" style="fill:#E5A379;" width="56.592" height="42.808"/>
	<path style="fill:#E5A379;" d="M322.884,95.34c0,31.986-22.453,58.727-52.458,65.323c-4.648,1.023-9.479,1.567-14.431,1.567
		c-36.938,0-66.89-29.951-66.89-66.89s29.951-66.879,66.89-66.879c4.952,0,9.784,0.544,14.431,1.567
		C300.431,36.624,322.884,63.353,322.884,95.34z"/>
</g>
<path style="fill:#F9D5A9;" d="M322.884,95.34c0,31.986-22.453,58.727-52.458,65.323c-30.005-6.595-52.458-33.336-52.458-65.323
	s22.453-58.716,52.458-65.312C300.431,36.624,322.884,63.353,322.884,95.34z"/>
<path style="fill:#9FC5E6;" d="M350.863,257.097v74.439c-29.341,11.713-61.346,18.15-94.866,18.15s-65.536-6.437-94.877-18.16
	v-74.428c0-40.772,25.715-75.525,61.816-88.942c10.303-3.835,21.431-5.925,33.061-5.925
	C308.388,162.231,350.863,204.695,350.863,257.097z"/>
<g>
	<path style="fill:#5897D1;" d="M178.194,323.417c0.293,5.204,0.313,9.947,0.084,14.252c-0.157-0.042-0.313-0.094-0.47-0.146
		c-5.653-1.808-11.212-3.814-16.687-5.998v-74.428c0-40.772,25.715-75.525,61.816-88.942l6.771,12.33
		C201.411,189.189,173.116,232.72,178.194,323.417z"/>
	<rect x="205.04" y="323.417" style="fill:#5897D1;" width="104.479" height="16.688"/>
</g>
<path style="fill:#F2AE5A;" d="M215.246,323.417v21.608c0,0.481-0.01,0.961-0.042,1.432c-12.81-2.048-25.297-5.057-37.397-8.934
	c-5.653-1.808-11.212-3.814-16.687-5.998v-8.108H215.246z"/>
<path style="fill:#F9DF73;" d="M215.246,323.417v21.608c0,0.481-0.01,0.961-0.042,1.432c-12.81-2.048-25.297-5.057-37.397-8.934
	v-14.106H215.246z"/>
<path style="fill:#F2AE5A;" d="M350.863,323.417v8.119c-12.058,4.807-24.566,8.735-37.439,11.682
	c-5.486,1.254-11.045,2.33-16.656,3.229c-0.021-0.47-0.031-0.94-0.031-1.411v-21.619L350.863,323.417L350.863,323.417z"/>
<path style="fill:#F9DF73;" d="M350.863,323.417v8.119c-12.058,4.807-24.566,8.735-37.439,11.682v-19.801L350.863,323.417
	L350.863,323.417z"/>
<polygon style="fill:#484B7F;" points="255.994,198.255 285.179,173.948 255.994,162.23 226.808,173.948 "/>
<g>
	<polygon style="fill:#5897D1;" points="255.994,162.23 225.356,200.794 204.315,164.516 	"/>
	<polygon style="fill:#5897D1;" points="255.994,162.23 286.63,200.794 307.671,164.516 	"/>
</g>
<polygon style="fill:#484B7F;" points="255.994,297.657 279.374,277.704 255.994,187.37 232.612,277.704 "/>
<g>
	<path style="fill:#5897D1;" d="M210.144,226.189L210.144,226.189c2.818,0,5.103,2.285,5.103,5.103v92.122H205.04v-92.122
		C205.04,228.473,207.326,226.189,210.144,226.189z"/>
	<path style="fill:#5897D1;" d="M301.843,226.189L301.843,226.189c2.818,0,5.103,2.285,5.103,5.103v92.122H296.74v-92.122
		C296.74,228.473,299.025,226.189,301.843,226.189z"/>
</g>
<path style="fill:#343A6E;" d="M348.942,0.009c0,33.946-27.525,61.47-61.47,61.47h-89.234c0-33.946,27.525-61.47,61.481-61.47
	C259.718,0.009,348.942,0.009,348.942,0.009z"/>
<path style="fill:#484B7F;" d="M348.942,0.009c0,33.946-27.525,61.47-61.47,61.47h-75.64c0-33.946,27.525-61.47,61.481-61.47
	C273.312,0.009,348.942,0.009,348.942,0.009z"/>
<path style="fill:#FF668C;" d="M378.253,313.751l-2.978,32.392l-13.134,142.879C329.801,503.777,293.867,512,256,512
	s-73.801-8.223-106.141-22.977l-13.145-142.879l-2.978-32.392L378.253,313.751L378.253,313.751z"/>
<g>
	<path style="fill:#484B7F;" d="M345.384,292.855c-5.771,0-10.449-4.678-10.449-10.449v-48.882l-20.315-12.161
		c-4.952-2.963-6.563-9.381-3.599-14.332c2.963-4.952,9.381-6.563,14.332-3.599l25.397,15.203c3.152,1.887,5.082,5.291,5.082,8.965
		v54.806C355.833,288.176,351.155,292.855,345.384,292.855z"/>
	<path style="fill:#484B7F;" d="M166.61,292.855c-5.771,0-10.449-4.678-10.449-10.449V227.6c0-3.674,1.93-7.078,5.082-8.965
		l25.397-15.203c4.952-2.964,11.368-1.353,14.332,3.599c2.964,4.952,1.353,11.368-3.599,14.332l-20.315,12.161v48.882
		C177.059,288.176,172.381,292.855,166.61,292.855z"/>
</g>
<polygon style="fill:#EF487D;" points="378.253,313.751 375.275,346.143 136.714,346.143 133.736,313.751 "/>
<path style="fill:#FF668C;" d="M396.171,334.649H115.822c-7.417,0-13.429-6.012-13.429-13.429v-30.612
	c0-7.417,6.012-13.429,13.429-13.429h280.349c7.417,0,13.429,6.012,13.429,13.429v30.612
	C409.6,328.637,403.588,334.649,396.171,334.649z"/>
<g>
	<ellipse style="fill:#9FC5E6;" cx="86.591" cy="65.264" rx="86.591" ry="65.264"/>
	<path style="fill:#9FC5E6;" d="M132.496,114.255c0,0-9.33,19.904-4.157,37.824c1.254,4.345-3.464,7.937-7.275,5.502
		c-13.113-8.381-30.255-22.476-33.324-40.275"/>
</g>
<g>
	<path style="fill:#F0F0F0;" d="M34.381,60.362h58.065c3.184,0,5.765-2.581,5.765-5.765l0,0c0-3.184-2.581-5.765-5.765-5.765H34.381
		c-3.184,0-5.765,2.581-5.765,5.765l0,0C28.617,57.781,31.198,60.362,34.381,60.362z"/>
	<path style="fill:#F0F0F0;" d="M34.381,83.738h106.106c3.184,0,5.765-2.581,5.765-5.765l0,0c0-3.184-2.581-5.765-5.765-5.765
		H34.381c-3.184,0-5.765,2.581-5.765,5.765l0,0C28.617,81.157,31.198,83.738,34.381,83.738z"/>
</g>
<g>
</g>
<g>
</g>
<g>
</g>
<g>
</g>
<g>
</g>
<g>
</g>
<g>
</g>
<g>
</g>
<g>
</g>
<g>
</g>
<g>
</g>
<g>
</g>
<g>
</g>
<g>
</g>
<g>
</g>
</svg>
