<?xml version="1.0" encoding="iso-8859-1"?>
<!-- Generator: Adobe Illustrator 19.0.0, SVG Export Plug-In . SVG Version: 6.00 Build 0)  -->
<svg version="1.1" id="Capa_1" xmlns="http://www.w3.org/2000/svg" xmlns:xlink="http://www.w3.org/1999/xlink" x="0px" y="0px"
	 viewBox="0 0 512 512" style="enable-background:new 0 0 512 512;" xml:space="preserve">
<circle style="fill:#5897D1;" cx="256" cy="256" r="256"/>
<circle style="fill:#9FC5E6;" cx="256" cy="218.028" r="218.028"/>
<path style="fill:#F9DF73;" d="M104.066,277.942H49.095c-7.788,0-13.765,6.978-12.495,14.661
	c15.475,93.509,89.29,167.325,182.799,182.799c7.683,1.272,14.661-4.706,14.661-12.495v-54.97c0-5.884-4.024-11.065-9.762-12.363
	c-53.575-12.118-95.751-54.294-107.869-107.869C115.131,281.966,109.949,277.942,104.066,277.942z"/>
<path style="fill:#484B7F;" d="M49.095,234.056h54.971c5.884,0,11.065-4.024,12.363-9.762
	c12.118-53.574,54.294-95.742,107.869-107.859c5.74-1.298,9.762-6.479,9.762-12.363v-54.98c0-7.788-6.978-13.765-14.661-12.495
	C125.89,52.071,52.075,125.886,36.601,219.395C35.329,227.078,41.307,234.056,49.095,234.056z"/>
<path style="fill:#F0F0F0;" d="M407.93,234.056h54.971c7.788,0,13.766-6.978,12.495-14.661
	c-15.475-93.509-89.289-167.324-182.788-182.799c-7.683-1.272-14.661,4.706-14.661,12.495v54.983c0,5.883,4.023,11.063,9.761,12.361
	c53.567,12.117,95.743,54.285,107.861,107.859C396.866,230.033,402.046,234.056,407.93,234.056z"/>
<path style="fill:#EF487D;" d="M277.946,407.935v54.972c0,7.788,6.978,13.767,14.661,12.495
	c93.5-15.475,167.313-89.29,182.788-182.799c1.272-7.683-4.706-14.661-12.495-14.661h-54.971c-5.884,0-11.065,4.024-12.363,9.762
	c-12.118,53.575-54.293,95.751-107.861,107.869C281.969,396.872,277.946,402.052,277.946,407.935z"/>
<g>
</g>
<g>
</g>
<g>
</g>
<g>
</g>
<g>
</g>
<g>
</g>
<g>
</g>
<g>
</g>
<g>
</g>
<g>
</g>
<g>
</g>
<g>
</g>
<g>
</g>
<g>
</g>
<g>
</g>
</svg>
