<?xml version="1.0" encoding="iso-8859-1"?>
<!-- Generator: Adobe Illustrator 19.0.0, SVG Export Plug-In . SVG Version: 6.00 Build 0)  -->
<svg version="1.1" id="Capa_1" xmlns="http://www.w3.org/2000/svg" xmlns:xlink="http://www.w3.org/1999/xlink" x="0px" y="0px"
	 viewBox="0 0 512 512" style="enable-background:new 0 0 512 512;" xml:space="preserve">
<path style="fill:#484B7F;" d="M512,256c0,30.689-5.402,60.113-15.308,87.385c-6.886,18.954-15.945,36.874-26.896,53.447
	c-4.587,6.969-9.519,13.699-14.754,20.167c-16.76,20.699-36.676,38.724-59.037,53.353c-8.234,5.392-16.792,10.324-25.652,14.743
	C335.945,502.314,297.106,512,256,512s-79.945-9.686-114.354-26.906c-8.861-4.42-17.429-9.352-25.663-14.743
	c-22.643-14.827-42.799-33.134-59.695-54.178c-5.245-6.52-10.167-13.312-14.754-20.344c-10.658-16.3-19.487-33.886-26.237-52.475
	C5.392,316.092,0,286.678,0,256C0,114.615,114.615,0,256,0c70.969,0,135.189,28.881,181.561,75.525
	c13.364,13.437,25.245,28.359,35.359,44.492c9.561,15.193,17.554,31.472,23.771,48.598C506.598,195.887,512,225.311,512,256z"/>
<path style="fill:#F0F0F0;" d="M430.233,101.283v229.44c-40.951,64.536-113.037,107.372-195.136,107.372
	S80.912,395.259,39.962,330.723V16.837c0-9.294,7.532-16.836,16.827-16.836h272.162L430.233,101.283z"/>
<g>
	<path style="fill:#343A6E;" d="M344.763,88.299H225.985c-4.685,0-8.485-3.798-8.485-8.485l0,0c0-4.685,3.798-8.485,8.485-8.485
		h118.778c4.685,0,8.485,3.798,8.485,8.485l0,0C353.247,84.501,349.448,88.299,344.763,88.299z"/>
	<path style="fill:#343A6E;" d="M344.763,124.121H225.985c-4.685,0-8.485-3.798-8.485-8.485l0,0c0-4.685,3.798-8.485,8.485-8.485
		h118.778c4.685,0,8.485,3.798,8.485,8.485l0,0C353.247,120.323,349.448,124.121,344.763,124.121z"/>
	<path style="fill:#343A6E;" d="M344.763,159.944H225.985c-4.685,0-8.485-3.798-8.485-8.485l0,0c0-4.685,3.798-8.485,8.485-8.485
		h118.778c4.685,0,8.485,3.798,8.485,8.485l0,0C353.247,156.145,349.448,159.944,344.763,159.944z"/>
</g>
<path style="fill:#D4D4D4;" d="M328.951,84.447V0.001l101.282,101.282h-84.445C336.493,101.283,328.951,93.742,328.951,84.447z"/>
<circle style="fill:#965845;" cx="120.717" cy="95.253" r="35.798"/>
<path style="fill:#EF487D;" d="M162.241,176.597c0-22.933-18.592-41.525-41.525-41.525s-41.525,18.592-41.525,41.525"/>
<path style="fill:#343A6E;" d="M170.887,46.664h-50.865c-16.43,0-29.748,13.318-29.748,29.748l0,0h50.865
	C157.569,76.412,170.887,63.094,170.887,46.664L170.887,46.664z"/>
<path style="fill:#F9DF73;" d="M496.692,151.124v192.261c-6.886,18.954-15.945,36.874-26.896,53.447
	c-4.587,6.969-9.519,13.699-14.754,20.167c-16.76,20.699-36.676,38.724-59.037,53.353c-8.234,5.392-16.792,10.324-25.652,14.743
	C335.945,502.314,297.106,512,256,512s-79.945-9.686-114.354-26.906c-8.861-4.42-17.429-9.352-25.663-14.743
	c-22.643-14.827-42.799-33.134-59.695-54.178c-5.245-6.52-10.167-13.312-14.754-20.344c-10.658-16.3-19.487-33.886-26.237-52.475
	V232.417c0-24.367,19.749-44.116,44.116-44.116h168.239c16.959,0,32.35-9.885,39.414-25.297l11.598-25.307
	c5.245-11.452,16.697-18.798,29.288-18.798h156.526c2.926,0,5.757,0.387,8.443,1.118
	C486.619,123.726,496.692,136.255,496.692,151.124z"/>
<path style="fill:#5897D1;" d="M496.693,151.123v107.943H15.299V232.42c0-24.368,19.746-44.115,44.115-44.115h168.234
	c16.961,0,32.351-9.885,39.416-25.297l11.598-25.308c5.252-11.454,16.695-18.796,29.288-18.796h156.525
	C482.265,118.904,496.693,133.333,496.693,151.123z"/>
<path style="fill:#F2AE5A;" d="M436.861,287.065H74.47c-18.16,0-32.935,14.775-32.935,32.935v75.828
	c4.587,7.032,9.509,13.824,14.754,20.344c16.896,21.044,37.052,39.351,59.695,54.178c8.234,5.392,16.802,10.324,25.663,14.743
	C176.055,502.314,214.894,512,256,512s79.945-9.686,114.354-26.906c8.861-4.42,17.418-9.352,25.652-14.743
	c22.361-14.629,42.277-32.653,59.037-53.353c5.235-6.468,10.167-13.197,14.754-20.167V320
	C469.797,301.84,455.022,287.065,436.861,287.065z"/>
<g>
	<path style="fill:#343A6E;" d="M215.196,348.483H96.418c-4.685,0-8.485-3.798-8.485-8.485l0,0c0-4.685,3.798-8.485,8.485-8.485
		h118.778c4.685,0,8.485,3.798,8.485,8.485l0,0C223.679,344.685,219.881,348.483,215.196,348.483z"/>
	<path style="fill:#343A6E;" d="M332.625,388.886H96.418c-4.685,0-8.485-3.798-8.485-8.485l0,0c0-4.685,3.798-8.485,8.485-8.485
		h236.209c4.685,0,8.485,3.798,8.485,8.485l0,0C341.11,385.088,337.312,388.886,332.625,388.886z"/>
</g>
<g>
</g>
<g>
</g>
<g>
</g>
<g>
</g>
<g>
</g>
<g>
</g>
<g>
</g>
<g>
</g>
<g>
</g>
<g>
</g>
<g>
</g>
<g>
</g>
<g>
</g>
<g>
</g>
<g>
</g>
</svg>
