<?xml version="1.0" encoding="iso-8859-1"?>
<!-- Generator: Adobe Illustrator 19.0.0, SVG Export Plug-In . SVG Version: 6.00 Build 0)  -->
<svg version="1.1" id="Capa_1" xmlns="http://www.w3.org/2000/svg" xmlns:xlink="http://www.w3.org/1999/xlink" x="0px" y="0px"
	 viewBox="0 0 512 512" style="enable-background:new 0 0 512 512;" xml:space="preserve">
<path style="fill:#343A6E;" d="M512,256c0,89.015-45.432,167.414-114.375,213.285C357.063,496.274,308.37,512,256,512
	c-14.879,0-29.466-1.264-43.656-3.699c-35.736-6.144-68.942-19.696-97.98-39.016C45.432,423.414,0,345.015,0,256
	C0,114.615,114.615,0,256,0S512,114.615,512,256z"/>
<circle style="fill:#484B7F;" cx="256" cy="205.469" r="205.458"/>
<path style="fill:#D4D4D4;" d="M365.678,146.534c0,21.191-6.013,40.978-16.43,57.75c-19.34,31.173-53.871,51.93-93.251,51.93
	c-60.571,0-109.681-49.11-109.681-109.681s49.11-109.681,109.681-109.681c6.939,0,13.729,0.642,20.31,1.88
	C327.177,48.254,365.678,92.903,365.678,146.534z"/>
<path style="fill:#F0F0F0;" d="M365.678,146.534c0,21.191-6.013,40.978-16.43,57.75c-16.041,12.893-36.411,20.593-58.571,20.593
	c-51.707,0-93.624-41.917-93.624-93.624c0-46.797,34.367-85.596,79.253-92.519C327.177,48.254,365.678,92.903,365.678,146.534z"/>
<rect x="207.496" y="269.646" style="fill:#5C5E70;" width="96.998" height="198.468"/>
<g>
	<polygon style="fill:#F0F0F0;" points="388.305,468.114 123.695,468.114 188.092,315.611 207.496,269.646 304.494,269.646 
		323.908,315.611 	"/>
	<path style="fill:#F0F0F0;" d="M397.625,469.285C357.063,496.274,308.37,512,256,512c-52.381,0-101.073-15.726-141.636-42.715
		c2.56-0.763,5.266-1.17,8.077-1.17h267.107C392.359,468.114,395.065,468.522,397.625,469.285z"/>
</g>
<g>
	<path style="fill:#D4D4D4;" d="M209.753,496.473c0,4.221,0.93,8.234,2.591,11.828c-35.736-6.144-68.942-19.696-97.98-39.016
		c2.56-0.763,5.266-1.17,8.077-1.17h115.66C222.438,468.114,209.753,480.81,209.753,496.473z"/>
	<path style="fill:#D4D4D4;" d="M323.908,315.611l-19.414-45.965h-96.995v-0.001v0.001h-0.002l-0.135,0.319l-84.921,198.15h55.711
		l20.522-116.871c3.618-20.605,21.515-35.633,42.435-35.633H323.908z"/>
	<path style="fill:#D4D4D4;" d="M361.2,271.141c0,5.12-1.296,9.947-3.574,14.169c-5.047,9.331-14.921,15.673-26.269,15.673H180.642
		c-8.244,0-15.705-3.344-21.107-8.746c-5.402-5.402-8.746-12.863-8.746-21.096c0-16.488,13.364-29.853,29.853-29.853h150.716
		c8.234,0,15.694,3.344,21.096,8.746C357.857,255.436,361.2,262.896,361.2,271.141z"/>
</g>
<path style="fill:#F0F0F0;" d="M361.2,271.141c0,5.12-1.296,9.947-3.574,14.169H209.899c-8.244,0-15.705-3.344-21.107-8.746
	c-5.402-5.402-8.746-12.863-8.746-21.096c0-5.13,1.296-9.958,3.574-14.179h147.738c8.234,0,15.694,3.344,21.096,8.746
	C357.857,255.436,361.2,262.896,361.2,271.141z"/>
<g>
</g>
<g>
</g>
<g>
</g>
<g>
</g>
<g>
</g>
<g>
</g>
<g>
</g>
<g>
</g>
<g>
</g>
<g>
</g>
<g>
</g>
<g>
</g>
<g>
</g>
<g>
</g>
<g>
</g>
</svg>
