<?xml version="1.0" encoding="iso-8859-1"?>
<!-- Generator: Adobe Illustrator 19.0.0, SVG Export Plug-In . SVG Version: 6.00 Build 0)  -->
<svg version="1.1" id="Capa_1" xmlns="http://www.w3.org/2000/svg" xmlns:xlink="http://www.w3.org/1999/xlink" x="0px" y="0px"
	 viewBox="0 0 512 512" style="enable-background:new 0 0 512 512;" xml:space="preserve">
<path style="fill:#5897D1;" d="M511.731,256c0,4.624-0.125,9.227-0.376,13.788v0.031c-2.933,55.227-23.402,105.798-55.926,146.265
	c-46.866,58.316-118.782,95.642-199.425,95.642s-152.559-37.326-199.425-95.642C24.045,375.617,3.586,325.036,0.653,269.809
	c-0.251-4.572-0.376-9.175-0.376-13.809c0-3.455,0.073-6.889,0.209-10.313C5.893,109.234,118.225,0.273,256.004,0.273
	s250.111,108.971,255.518,245.424C511.658,249.111,511.731,252.545,511.731,256z"/>
<path style="fill:#9FC5E6;" d="M463.91,208.179c0,49.261-17.133,94.525-45.773,130.149c-38.102,47.411-96.57,77.757-162.133,77.757
	s-124.031-30.346-162.133-77.757c-28.64-35.624-45.773-80.888-45.773-130.149c0-114.823,93.082-207.906,207.906-207.906
	S463.91,93.356,463.91,208.179z"/>
<g>
	<path style="fill:#F9DF73;" d="M154.281,261.219H0L69.909,74.507c2.503-6.685,11.959-6.685,14.462,0L154.281,261.219z
		 M15.053,250.781h124.175L77.141,84.963L15.053,250.781z"/>
	<path style="fill:#F9DF73;" d="M512,261.219H357.719l69.909-186.712c2.503-6.685,11.959-6.685,14.462,0L512,261.219z
		 M372.773,250.781h124.175L434.86,84.963L372.773,250.781z"/>
</g>
<path style="fill:#343A6E;" d="M427.291,81.588c-5.572,0-11.157-0.725-16.61-2.199c-101.193-27.363-208.168-27.363-309.362,0
	c-17.25,4.665-35.851,1.835-51.029-7.764L14.317,48.874c-7.309-4.622-9.486-14.293-4.864-21.601
	c4.623-7.308,14.294-9.486,21.601-4.864l35.973,22.749c7.789,4.926,17.309,6.385,26.12,4.002c106.54-28.808,219.17-28.808,325.708,0
	c8.813,2.382,18.332,0.925,26.12-4.002l35.974-22.749c7.313-4.623,16.981-2.441,21.601,4.865c4.622,7.308,2.443,16.979-4.864,21.601
	l-35.973,22.749C451.329,78.189,439.348,81.588,427.291,81.588z"/>
<g>
	<path style="fill:#D4D4D4;" d="M157.649,254.403l-12.056,46.219c-1.086,4.175-5.741,7.181-11.148,7.181H19.838
		c-5.407,0-10.062-3.006-11.158-7.181l-8.027-30.812c-0.251-4.572-0.376-9.175-0.376-13.809c0-3.455,0.073-6.889,0.209-10.313
		c1.962-1.284,4.488-2.077,7.296-2.077h138.719C153.714,243.61,159.099,248.829,157.649,254.403z"/>
	<path style="fill:#D4D4D4;" d="M511.731,256c0,4.624-0.125,9.227-0.376,13.788v0.031l-8.037,30.802
		c-1.086,4.175-5.751,7.181-11.148,7.181H377.553c-5.396,0-10.062-3.006-11.148-7.181l-12.056-46.219
		c-1.451-5.574,3.945-10.793,11.148-10.793h138.719c2.808,0,5.344,0.793,7.306,2.088C511.658,249.111,511.731,252.545,511.731,256z"
		/>
</g>
<g>
	<path style="fill:#F0F0F0;" d="M157.649,254.403l-12.056,46.219c-1.086,4.175-5.741,7.181-11.148,7.181H59.45
		c-5.407,0-10.062-3.006-11.148-7.181l-12.056-46.219c-1.451-5.574,3.935-10.793,11.148-10.793h99.107
		C153.714,243.61,159.099,248.829,157.649,254.403z"/>
	<path style="fill:#F0F0F0;" d="M511.731,256c0,4.624-0.125,9.227-0.376,13.788l-8.037,30.833
		c-1.086,4.175-5.741,7.181-11.148,7.181h-74.996c-5.407,0-10.062-3.006-11.148-7.181l-12.056-46.219
		c-1.451-5.574,3.935-10.793,11.148-10.793h99.107c2.808,0,5.344,0.793,7.296,2.088C511.658,249.111,511.731,252.545,511.731,256z"
		/>
</g>
<path style="fill:#343A6E;" d="M286.53,328.408V43.469h-61.058v284.939c0,31.128-25.233,56.361-56.361,56.361l0,0v51.665h173.781
	v-51.665l0,0C311.763,384.769,286.53,359.535,286.53,328.408z"/>
<path style="fill:#F2AE5A;" d="M245.167,5.307l-35.252,41.759c-3.256,3.856-4.216,9.152-2.522,13.905l13.519,37.937
	c2.012,5.648,7.36,9.419,13.355,9.419h43.464c5.995,0,11.343-3.771,13.355-9.419l13.519-37.937
	c1.694-4.753,0.734-10.05-2.522-13.905l-35.25-41.759C261.17-1.403,250.831-1.403,245.167,5.307z"/>
<polygon style="fill:#F9DF73;" points="238.992,87.451 228.35,57.59 256.001,24.835 283.65,57.59 273.01,87.451 "/>
<path style="fill:#FF668C;" d="M455.429,416.085c-46.866,58.316-118.782,95.642-199.425,95.642c-9.53,0-18.934-0.522-28.193-1.545
	c-69.098-7.567-129.909-42.67-171.232-94.097H455.429z"/>
<path style="fill:#EF487D;" d="M227.812,510.182c-69.098-7.567-129.909-42.67-171.232-94.097h138.886
	C174.881,431.982,158.431,475.831,227.812,510.182z"/>
<g>
</g>
<g>
</g>
<g>
</g>
<g>
</g>
<g>
</g>
<g>
</g>
<g>
</g>
<g>
</g>
<g>
</g>
<g>
</g>
<g>
</g>
<g>
</g>
<g>
</g>
<g>
</g>
<g>
</g>
</svg>
