<?xml version="1.0" encoding="iso-8859-1"?>
<!-- Generator: Adobe Illustrator 19.0.0, SVG Export Plug-In . SVG Version: 6.00 Build 0)  -->
<svg version="1.1" id="Capa_1" xmlns="http://www.w3.org/2000/svg" xmlns:xlink="http://www.w3.org/1999/xlink" x="0px" y="0px"
	 viewBox="0 0 512 512" style="enable-background:new 0 0 512 512;" xml:space="preserve">
<path style="fill:#EF487D;" d="M512,256c0,49.695-14.158,96.099-38.672,135.367c0,0.01-0.01,0.01-0.01,0.01
	C428.105,463.809,347.679,512,256,512S83.895,463.809,38.682,391.377c0,0-0.01,0-0.01-0.01C14.158,352.099,0,305.695,0,256
	C0,114.615,114.615,0,256,0S512,114.615,512,256z"/>
<circle style="fill:#FF668C;" cx="256" cy="202.867" r="202.867"/>
<g>
	<rect x="215.249" y="54.617" style="fill:#F2AE5A;" width="77.322" height="53.29"/>
	<path style="fill:#F2AE5A;" d="M413.294,106.165l-15.818-10.966c-7.028-4.872-16.674-3.124-21.547,3.904l-21.54,31.07
		l41.268,28.609l21.54-31.07C422.07,120.684,420.322,111.037,413.294,106.165z"/>
	<path style="fill:#F2AE5A;" d="M119.102,92.553l-16.199,10.395c-7.197,4.618-9.287,14.197-4.669,21.394l20.418,31.818l42.262-27.12
		l-20.418-31.818C135.877,90.025,126.299,87.934,119.102,92.553z"/>
</g>
<path style="fill:#F9DF73;" d="M484.739,319.833c0,24.984-4.002,49.027-11.41,71.534c0,0.01-0.01,0.01-0.01,0.01
	C428.105,463.809,347.679,512,256,512S83.895,463.809,38.682,391.377c0,0-0.01,0-0.01-0.01c-7.408-22.507-11.41-46.55-11.41-71.534
	c0-126.328,102.41-228.739,228.739-228.739S484.739,193.505,484.739,319.833z"/>
<circle style="fill:#F2AE5A;" cx="256" cy="319.833" r="186.859"/>
<circle style="fill:#F0F0F0;" cx="256" cy="319.833" r="165.23"/>
<path style="fill:#F9DF73;" d="M313.992,22.747v30.563c0,8.829-6.217,16.394-14.858,18.233c-13.981,2.957-28.191,4.472-42.402,4.514
	h-0.178c-0.016,0-0.03-0.002-0.046-0.002c-14.628,0.046-29.263-1.466-43.652-4.512c-8.631-1.839-14.848-9.404-14.848-18.233V22.747
	c0-8.829,6.217-16.384,14.848-18.223C227.077,1.515,241.539,0,256,0c14.451,0,28.912,1.515,43.133,4.524
	C307.775,6.363,313.992,13.918,313.992,22.747z"/>
<g>
	<path style="fill:#F2AE5A;" d="M256.508,76.056c-14.628,0.046-29.263-1.466-43.652-4.512c-8.631-1.839-14.848-9.404-14.848-18.233
		V22.747c0-8.829,6.217-16.384,14.848-18.223C227.077,1.515,241.539,0,256,0c-24.022,0-24.022,30.584-24.022,41.033
		C231.978,51.473,239.332,76.012,256.508,76.056z"/>
	<path style="fill:#F2AE5A;" d="M256.554,76.058c-0.016,0-0.03-0.002-0.046-0.002c0.074,0,0.148,0.002,0.224,0.002H256.554z"/>
</g>
<polygon style="fill:#484B7F;" points="236.109,327.335 275.883,327.335 255.997,181.049 "/>
<circle style="fill:#F2AE5A;" cx="256" cy="319.833" r="38.661"/>
<g>
</g>
<g>
</g>
<g>
</g>
<g>
</g>
<g>
</g>
<g>
</g>
<g>
</g>
<g>
</g>
<g>
</g>
<g>
</g>
<g>
</g>
<g>
</g>
<g>
</g>
<g>
</g>
<g>
</g>
</svg>
