<?xml version="1.0" encoding="iso-8859-1"?>
<!-- Generator: Adobe Illustrator 19.0.0, SVG Export Plug-In . SVG Version: 6.00 Build 0)  -->
<svg version="1.1" id="Capa_1" xmlns="http://www.w3.org/2000/svg" xmlns:xlink="http://www.w3.org/1999/xlink" x="0px" y="0px"
	 viewBox="0 0 512 512" style="enable-background:new 0 0 512 512;" xml:space="preserve">
<path style="fill:#EF487D;" d="M512,256c0,50.385-14.555,97.374-39.706,136.986C426.904,464.52,347,512,256,512
	S85.096,464.52,39.706,392.986C14.555,353.374,0,306.385,0,256s14.555-97.374,39.706-136.986
	c25.078-39.539,60.709-71.722,102.922-92.609C176.807,9.498,215.291,0,256,0C397.385,0,512,114.615,512,256z"/>
<path style="fill:#FF668C;" d="M467.633,211.633c0,41.653-12.033,80.498-32.824,113.245C397.285,384.014,331.23,423.265,256,423.265
	s-141.285-39.252-178.808-98.388c-20.792-32.747-32.824-71.592-32.824-113.245S56.4,131.135,77.192,98.388
	c20.732-32.686,50.187-59.292,85.085-76.56C190.532,7.852,222.346,0,256,0C372.882,0,467.633,94.751,467.633,211.633z"/>
<path style="fill:#F0F0F0;" d="M472.294,138.668v254.318C426.904,464.52,347,512,256,512S85.096,464.52,39.706,392.986V45.066
	c0-10.303,8.349-18.662,18.651-18.662H360.03L472.294,138.668z"/>
<g>
	<path style="fill:#343A6E;" d="M377.556,124.277H245.899c-5.194,0-9.404-4.21-9.404-9.404l0,0c0-5.194,4.21-9.404,9.404-9.404
		h131.657c5.194,0,9.404,4.21,9.404,9.404l0,0C386.96,120.067,382.75,124.277,377.556,124.277z"/>
	<path style="fill:#343A6E;" d="M377.556,163.983H245.899c-5.194,0-9.404-4.21-9.404-9.404l0,0c0-5.194,4.21-9.404,9.404-9.404
		h131.657c5.194,0,9.404,4.21,9.404,9.404l0,0C386.96,159.773,382.75,163.983,377.556,163.983z"/>
	<path style="fill:#343A6E;" d="M377.556,203.689H245.899c-5.194,0-9.404-4.21-9.404-9.404l0,0c0-5.194,4.21-9.404,9.404-9.404
		h131.657c5.194,0,9.404,4.21,9.404,9.404l0,0C386.96,199.479,382.75,203.689,377.556,203.689z"/>
</g>
<g>
	<path style="fill:#484B7F;" d="M418.307,281.012H93.693c-5.194,0-9.404-4.21-9.404-9.404l0,0c0-5.194,4.21-9.404,9.404-9.404
		h324.615c5.194,0,9.404,4.21,9.404,9.404l0,0C427.711,276.801,423.501,281.012,418.307,281.012z"/>
	<path style="fill:#484B7F;" d="M418.307,320.718H93.693c-5.194,0-9.404-4.21-9.404-9.404l0,0c0-5.194,4.21-9.404,9.404-9.404
		h324.615c5.194,0,9.404,4.21,9.404,9.404l0,0C427.711,316.507,423.501,320.718,418.307,320.718z"/>
	<path style="fill:#484B7F;" d="M418.307,360.424H93.693c-5.194,0-9.404-4.21-9.404-9.404l0,0c0-5.194,4.21-9.404,9.404-9.404
		h324.615c5.194,0,9.404,4.21,9.404,9.404l0,0C427.711,356.213,423.501,360.424,418.307,360.424z"/>
	<path style="fill:#484B7F;" d="M418.307,400.13H93.693c-5.194,0-9.404-4.21-9.404-9.404l0,0c0-5.194,4.21-9.404,9.404-9.404
		h324.615c5.194,0,9.404,4.21,9.404,9.404l0,0C427.711,395.919,423.501,400.13,418.307,400.13z"/>
	<path style="fill:#484B7F;" d="M418.307,439.836H93.693c-5.194,0-9.404-4.21-9.404-9.404l0,0c0-5.194,4.21-9.404,9.404-9.404
		h324.615c5.194,0,9.404,4.21,9.404,9.404l0,0C427.711,435.625,423.501,439.836,418.307,439.836z"/>
</g>
<path style="fill:#D4D4D4;" d="M360.03,120.007V26.405l112.264,112.264h-93.602C368.389,138.668,360.03,130.309,360.03,120.007z"/>
<circle style="fill:#F9C682;" cx="129.212" cy="131.981" r="39.683"/>
<path style="fill:#5897D1;" d="M175.244,222.148c0-25.42-20.607-46.028-46.028-46.028s-46.028,20.607-46.028,46.028"/>
<path style="fill:#343A6E;" d="M184.828,78.127h-56.381c-18.21,0-32.974,14.763-32.974,32.974l0,0h56.381
	C170.064,111.101,184.828,96.337,184.828,78.127L184.828,78.127z"/>
<g>
</g>
<g>
</g>
<g>
</g>
<g>
</g>
<g>
</g>
<g>
</g>
<g>
</g>
<g>
</g>
<g>
</g>
<g>
</g>
<g>
</g>
<g>
</g>
<g>
</g>
<g>
</g>
<g>
</g>
</svg>
