<?xml version="1.0" encoding="iso-8859-1"?>
<!-- Generator: Adobe Illustrator 19.0.0, SVG Export Plug-In . SVG Version: 6.00 Build 0)  -->
<svg version="1.1" id="Capa_1" xmlns="http://www.w3.org/2000/svg" xmlns:xlink="http://www.w3.org/1999/xlink" x="0px" y="0px"
	 viewBox="0 0 512 512" style="enable-background:new 0 0 512 512;" xml:space="preserve">
<path style="fill:#5897D1;" d="M512,256c0,76.999-34.001,146.066-87.803,192.993C379.214,488.239,320.387,512,256,512
	s-123.214-23.761-168.197-63.007C34.001,402.066,0,332.999,0,256C0,114.615,114.615,0,256,0S512,114.615,512,256z"/>
<path style="fill:#9FC5E6;" d="M473.118,217.118c0,65.304-28.837,123.881-74.467,163.681C360.5,414.085,310.607,434.237,256,434.237
	s-104.5-20.152-142.652-53.438c-45.631-39.799-74.467-98.377-74.467-163.681C38.882,97.207,136.089,0,256,0
	S473.118,97.207,473.118,217.118z"/>
<path style="fill:#343A6E;" d="M424.197,448.993C379.214,488.239,320.387,512,256,512s-123.214-23.761-168.197-63.007
	c21.128-24.816,88.43-42.966,168.197-42.966S403.069,424.176,424.197,448.993z"/>
<path style="fill:#FF668C;" d="M437.371,176.453c-4.35-235.27-358.4-235.27-362.75,0c-0.037,1.955-0.054,3.913-0.054,5.876
	c0,125.643,74.341,233.909,181.43,283.252c107.087-49.343,181.429-157.608,181.429-283.251
	C437.426,180.367,437.408,178.408,437.371,176.453z"/>
<path style="fill:#EF487D;" d="M392.353,188.176c0,50.04-26.951,93.78-67.132,117.486c-20.292,11.993-43.954,18.866-69.22,18.866
	s-48.94-6.872-69.232-18.866c-40.181-23.707-67.132-67.446-67.132-117.486c0-75.307,61.057-136.352,136.363-136.352
	S392.353,112.869,392.353,188.176z"/>
<path style="fill:#F0F0F0;" d="M370.976,188.176c0,42.195-22.727,79.079-56.608,99.069c-17.111,10.114-37.064,15.909-58.369,15.909
	s-41.267-5.795-58.378-15.909c-33.882-19.99-56.608-56.873-56.608-99.069c0-63.502,51.485-114.977,114.987-114.977
	S370.976,124.674,370.976,188.176z"/>
<path style="fill:#E5A379;" d="M311.411,188.259c0,26.405-18.484,48.515-43.227,54.063c-3.918,0.888-7.993,1.348-12.184,1.348
	c-30.605,0-55.411-24.816-55.411-55.411c0-30.605,24.806-55.411,55.411-55.411c4.19,0,8.265,0.46,12.184,1.348
	C292.927,139.745,311.411,161.844,311.411,188.259z"/>
<path style="fill:#F9D5A9;" d="M311.411,188.259c0,26.405-18.484,48.515-43.227,54.063c-24.733-5.548-43.217-27.658-43.217-54.063
	c0-26.415,18.484-48.515,43.217-54.063C292.927,139.745,311.411,161.844,311.411,188.259z"/>
<path style="fill:#5897D1;" d="M314.368,287.242c-17.115,10.115-37.063,15.914-58.368,15.914c-14.618,0-28.599-2.727-41.462-7.711
	c-5.893-2.278-11.546-5.026-16.917-8.202c10.177-22.047,32.486-37.355,58.378-37.355c3.511,0,6.949,0.282,10.303,0.825
	C287.702,254.161,305.57,268.184,314.368,287.242z"/>
<path style="fill:#9FC5E6;" d="M314.368,287.242c-17.115,10.115-37.063,15.914-58.368,15.914c-14.618,0-28.599-2.727-41.462-7.711
	c5.705-28.756,29.811-41.545,51.764-44.732C287.702,254.161,305.57,268.184,314.368,287.242z"/>
<path style="fill:#343A6E;" d="M333.645,113.057h-78.723c-25.428,0-46.04,20.613-46.04,46.04l0,0h78.723
	C313.032,159.098,333.645,138.484,333.645,113.057L333.645,113.057z"/>
<g>
</g>
<g>
</g>
<g>
</g>
<g>
</g>
<g>
</g>
<g>
</g>
<g>
</g>
<g>
</g>
<g>
</g>
<g>
</g>
<g>
</g>
<g>
</g>
<g>
</g>
<g>
</g>
<g>
</g>
</svg>
